# from WaterfrontDistrict_Block01_Generic_0012_LOD_0.pskx
v -1449.9962158203125 755.0010986328125 -840.0
v -1449.9962158203125 864.9985961914062 -840.0
v -1449.9962158203125 755.001220703125 199.99998474121094
v -1449.9962158203125 864.9986572265625 199.99996948242188
v -1449.9962158203125 864.9985961914062 -840.0
v -1949.9962158203125 864.99853515625 -840.0
v -1584.9962158203125 864.9985961914062 -837.9999389648438
v -1584.9962158203125 864.9985961914062 -580.0
v -1804.9962158203125 864.9985961914062 -580.0
v -1449.9962158203125 864.9986572265625 199.99996948242188
v -1949.9962158203125 864.9986572265625 199.99993896484375
v -1804.9962158203125 864.9985961914062 -837.9999389648438
v -1949.9962158203125 864.99853515625 -840.0
v -1949.9962158203125 755.0010986328125 -840.0
v -1949.9962158203125 864.9986572265625 199.99993896484375
v -1949.9962158203125 755.0011596679688 199.9999542236328
v -1804.9962158203125 854.9985961914062 -580.0
v -1584.9962158203125 864.9985961914062 -580.0
v -1584.9962158203125 854.9985961914062 -580.0
v -1804.9962158203125 864.9985961914062 -580.0
v -1804.9962158203125 854.9985961914062 -837.9999389648438
v -1584.9962158203125 854.9985961914062 -837.9999389648438
v -1584.9962158203125 864.9985961914062 -837.9999389648438
v -1804.9962158203125 864.9985961914062 -837.9999389648438
v -1584.9962158203125 854.9985961914062 -580.0
v -1584.9962158203125 864.9985961914062 -837.9999389648438
v -1584.9962158203125 854.9985961914062 -837.9999389648438
v -1584.9962158203125 864.9985961914062 -580.0
v -1804.9962158203125 854.9985961914062 -580.0
v -1804.9962158203125 854.9985961914062 -837.9999389648438
v -1804.9962158203125 864.9985961914062 -837.9999389648438
v -1804.9962158203125 864.9985961914062 -580.0
v -1449.9962158203125 -865.0062255859375 -600.0
v -1449.9962158203125 755.0010375976562 -600.0001220703125
v -1449.9962158203125 204.99371337890625 -500.00006103515625
v -1449.9962158203125 204.9937744140625 -300.00006103515625
v -1449.9962158203125 604.9937744140625 -300.0001220703125
v -1449.9962158203125 -865.0062255859375 200.00003051757812
v -1449.9962158203125 604.9937133789062 -500.0001220703125
v -1949.9962158203125 755.0010375976562 -600.0001220703125
v -1949.9962158203125 -865.0062255859375 -600.0
v -1949.9962158203125 15.00103759765625 -500.00006103515625
v -1949.9962158203125 15.0010986328125 -300.00006103515625
v -1949.9962158203125 -384.9989013671875 -300.0000305175781
v -1949.9962158203125 -865.0062255859375 200.0
v -1949.9962158203125 -384.9989013671875 -500.0000305175781
v -1949.9962158203125 -865.0062255859375 -600.0
v -1449.9962158203125 -865.0062255859375 -600.0
v -1815.2427978515625 -865.0062255859375 -598.0
v -1815.2427978515625 -865.0062255859375 -345.5999755859375
v -1585.2427978515625 -865.0062255859375 -345.5999755859375
v -1949.9962158203125 -865.0062255859375 200.0
v -1449.9962158203125 -865.0062255859375 200.00003051757812
v -1585.2427978515625 -865.0062255859375 -598.0
v -1815.2427978515625 -855.0062255859375 -345.5999755859375
v -1585.2427978515625 -855.0062255859375 -345.5999755859375
v -1815.2427978515625 -865.0062255859375 -345.5999755859375
v -1585.2427978515625 -865.0062255859375 -345.5999755859375
v -1815.2427978515625 -855.0062255859375 -598.0
v -1815.2427978515625 -865.0062255859375 -598.0
v -1585.2427978515625 -855.0062255859375 -598.0
v -1585.2427978515625 -865.0062255859375 -598.0
v -1815.2427978515625 -855.0062255859375 -345.5999755859375
v -1815.2427978515625 -865.0062255859375 -598.0
v -1815.2427978515625 -855.0062255859375 -598.0
v -1815.2427978515625 -865.0062255859375 -345.5999755859375
v -1585.2427978515625 -855.0062255859375 -345.5999755859375
v -1585.2427978515625 -855.0062255859375 -598.0
v -1585.2427978515625 -865.0062255859375 -598.0
v -1585.2427978515625 -865.0062255859375 -345.5999755859375
v 150.00384521484375 764.9986572265625 -840.0
v 150.00390625 -865.6043701171875 -839.9998779296875
v 150.00384521484375 -125.00128173828125 -599.9999389648438
v 150.00384521484375 -125.001220703125 -340.2899169921875
v 150.00384521484375 -248.53326416015625 -340.2899169921875
v 150.0037841796875 764.998779296875 199.9999542236328
v 150.00384521484375 -865.604248046875 200.00009155273438
v 150.00384521484375 -248.5333251953125 -599.9999389648438
v 150.00390625 -865.6043701171875 -839.9998779296875
v 1150.00390625 -865.6043701171875 -839.9998168945312
v 600.1260375976562 -865.604248046875 -599.9998168945312
v 600.1259765625 -865.604248046875 -399.0398254394531
v 704.2159423828125 -865.604248046875 -399.0398254394531
v 150.00384521484375 -865.604248046875 200.00009155273438
v 1150.00390625 -865.604248046875 200.00013732910156
v 704.2159423828125 -865.604248046875 -599.9998168945312
v 1150.00390625 -865.6043701171875 -839.9998168945312
v 1150.0037841796875 764.9987182617188 -839.9999389648438
v 1150.00390625 -242.904296875 -599.9998779296875
v 1150.0037841796875 -242.90423583984375 -344.9998779296875
v 1150.0037841796875 -119.40423583984375 -344.9998779296875
v 1150.00390625 -865.604248046875 200.00013732910156
v 1150.0037841796875 764.998779296875 200.0
v 1150.00390625 -119.404296875 -599.9998779296875
v 1150.0037841796875 764.9987182617188 -839.9999389648438
v 150.00384521484375 764.9986572265625 -840.0
v 1150.0037841796875 764.998779296875 200.0
v 150.0037841796875 764.998779296875 199.9999542236328
v 1140.0062255859375 -242.90423583984375 -344.9998779296875
v 1150.0037841796875 -119.40423583984375 -344.9998779296875
v 1150.0037841796875 -242.90423583984375 -344.9998779296875
v 1140.0062255859375 -119.40423583984375 -344.9998779296875
v 1140.0062255859375 -242.904296875 -599.9998779296875
v 1150.00390625 -242.904296875 -599.9998779296875
v 1150.00390625 -119.404296875 -599.9998779296875
v 1140.0062255859375 -119.404296875 -599.9998779296875
v 1140.0062255859375 -242.90423583984375 -344.9998779296875
v 1150.00390625 -242.904296875 -599.9998779296875
v 1140.0062255859375 -242.904296875 -599.9998779296875
v 1150.0037841796875 -242.90423583984375 -344.9998779296875
v 1140.0062255859375 -119.40423583984375 -344.9998779296875
v 1140.0062255859375 -119.404296875 -599.9998779296875
v 1150.00390625 -119.404296875 -599.9998779296875
v 1150.0037841796875 -119.40423583984375 -344.9998779296875
v 1175.0037841796875 55.001220703125 -599.9999389648438
v 1172.4373779296875 59.71844482421875 -599.9999389648438
v 1175.0037841796875 55.00128173828125 200.00006103515625
v 1172.4373779296875 59.718505859375 200.00006103515625
v 1164.720458984375 67.4259033203125 -599.9999389648438
v 1164.720458984375 67.42596435546875 199.99996948242188
v 1160.00146484375 69.991455078125 -599.9999389648438
v 1160.00146484375 69.99151611328125 199.99996948242188
v 1155.14453125 71.42755126953125 -599.9999389648438
v 1155.14453125 71.4276123046875 200.00006103515625
v 1144.863525390625 71.42718505859375 -599.9999389648438
v 1144.863525390625 71.42724609375 200.00006103515625
v 1140.00634765625 69.991455078125 -599.9999389648438
v 1140.00634765625 69.99151611328125 200.00006103515625
v 1135.2862548828125 67.42626953125 -599.9999389648438
v 1135.2862548828125 67.42633056640625 200.00006103515625
v 1127.5709228515625 59.71929931640625 -599.9999389648438
v 1127.57080078125 59.7193603515625 199.99996948242188
v 1125.0037841796875 55.001220703125 -599.9999389648438
v 1125.0037841796875 55.00128173828125 199.99996948242188
v 1123.569091796875 50.14324951171875 -599.9999389648438
v 1123.569091796875 50.143310546875 199.99996948242188
v 1123.569091796875 39.8519287109375 -599.9999389648438
v 1123.569091796875 39.85198974609375 200.00006103515625
v 1125.0037841796875 34.99395751953125 -599.9999389648438
v 1125.0037841796875 34.9940185546875 200.00006103515625
v 1127.5709228515625 30.27392578125 -599.9999389648438
v 1127.5709228515625 30.27398681640625 200.00006103515625
v 1135.2862548828125 22.5584716796875 -599.9999389648438
v 1135.2862548828125 22.55853271484375 199.99996948242188
v 1140.00634765625 19.991455078125 -599.9999389648438
v 1140.00634765625 19.99151611328125 199.99996948242188
v 1144.863525390625 18.5556640625 -599.9999389648438
v 1144.863525390625 18.55572509765625 200.00006103515625
v 1155.14453125 18.5552978515625 -599.9999389648438
v 1155.14453125 18.55535888671875 200.00006103515625
v 1160.00146484375 19.991455078125 -599.9999389648438
v 1160.00146484375 19.99151611328125 200.00006103515625
v 1164.720458984375 22.55889892578125 -599.9999389648438
v 1164.720458984375 22.5589599609375 200.00006103515625
v 1172.437255859375 30.27484130859375 -599.9999389648438
v 1172.437255859375 30.27490234375 200.00006103515625
v 1175.0037841796875 34.99395751953125 -599.9999389648438
v 1175.0037841796875 34.9940185546875 200.00006103515625
v 1176.4378662109375 39.85205078125 -599.9999389648438
v 1176.437744140625 39.85211181640625 200.00006103515625
v 1176.4378662109375 50.14306640625 -599.9999389648438
v 1176.4378662109375 50.14312744140625 200.00006103515625
v 1175.00390625 -405.008544921875 -599.9998779296875
v 1172.4373779296875 -400.2894287109375 -599.9998779296875
v 1175.0037841796875 -405.008544921875 200.00010681152344
v 1172.4373779296875 -400.2894287109375 200.00001525878906
v 1164.720458984375 -392.573486328125 -599.9998779296875
v 1164.720458984375 -392.573486328125 200.00010681152344
v 1160.00146484375 -390.006103515625 -599.9998779296875
v 1160.00146484375 -390.006103515625 200.00010681152344
v 1155.1446533203125 -388.5699462890625 -599.9998779296875
v 1155.14453125 -388.5699462890625 200.00010681152344
v 1144.863525390625 -388.5703125 -599.9998779296875
v 1144.863525390625 -388.5703125 200.00010681152344
v 1140.00634765625 -390.006103515625 -599.9998779296875
v 1140.00634765625 -390.006103515625 200.00010681152344
v 1135.2862548828125 -392.5732421875 -599.9998779296875
v 1135.2862548828125 -392.5732421875 200.00010681152344
v 1127.5709228515625 -400.28857421875 -599.9998779296875
v 1127.5709228515625 -400.28857421875 200.00010681152344
v 1125.00390625 -405.008544921875 -599.9998779296875
v 1125.0037841796875 -405.008544921875 200.00010681152344
v 1123.569091796875 -409.8646240234375 -599.9998779296875
v 1123.569091796875 -409.8646240234375 200.00010681152344
v 1123.5692138671875 -420.1475830078125 -599.9998779296875
v 1123.569091796875 -420.1475830078125 200.00001525878906
v 1125.00390625 -425.003662109375 -599.9998779296875
v 1125.0037841796875 -425.003662109375 200.00001525878906
v 1127.5709228515625 -429.7236328125 -599.9998779296875
v 1127.5709228515625 -429.7236328125 200.00010681152344
v 1135.2862548828125 -437.43896484375 -599.9998779296875
v 1135.2862548828125 -437.43896484375 200.00010681152344
v 1140.00634765625 -440.006103515625 -599.9998779296875
v 1140.00634765625 -440.006103515625 200.00010681152344
v 1144.8636474609375 -441.44189453125 -599.9998779296875
v 1144.863525390625 -441.44189453125 200.00010681152344
v 1155.1446533203125 -441.442138671875 -599.9998779296875
v 1155.14453125 -441.442138671875 200.00010681152344
v 1160.00146484375 -440.006103515625 -599.9998779296875
v 1160.00146484375 -440.006103515625 200.00010681152344
v 1164.720458984375 -437.4385986328125 -599.9998779296875
v 1164.720458984375 -437.4385986328125 200.00010681152344
v 1172.4373779296875 -429.7227783203125 -599.9998779296875
v 1172.437255859375 -429.7227783203125 200.00010681152344
v 1175.00390625 -425.003662109375 -599.9998779296875
v 1175.0037841796875 -425.003662109375 200.00010681152344
v 1176.4378662109375 -420.1474609375 -599.9998779296875
v 1176.4378662109375 -420.1474609375 200.00010681152344
v 1176.4378662109375 -409.86474609375 -599.9998779296875
v 1176.4378662109375 -409.86474609375 200.00010681152344
v 175.00384521484375 55.00115966796875 -600.0
v 172.43731689453125 59.7183837890625 -600.0
v 175.0037841796875 55.001220703125 200.00001525878906
v 172.437255859375 59.71844482421875 200.00001525878906
v 164.720458984375 67.42578125 -600.0
v 164.72039794921875 67.42584228515625 200.00001525878906
v 160.00140380859375 69.99139404296875 -600.0
v 160.0013427734375 69.991455078125 200.00001525878906
v 155.14453125 71.427490234375 -600.0
v 155.14447021484375 71.42755126953125 200.00001525878906
v 144.863525390625 71.4271240234375 -600.0
v 144.86346435546875 71.42718505859375 200.00001525878906
v 140.00628662109375 69.9913330078125 -600.0
v 140.0062255859375 69.99139404296875 200.00001525878906
v 135.2862548828125 67.42620849609375 -600.0
v 135.28619384765625 67.42626953125 200.00001525878906
v 127.5709228515625 59.71923828125 -600.0
v 127.57086181640625 59.71929931640625 200.00001525878906
v 125.0037841796875 55.00115966796875 -600.0
v 125.0037841796875 55.001220703125 200.00001525878906
v 123.569091796875 50.1431884765625 -600.0
v 123.569091796875 50.14324951171875 199.9999237060547
v 123.569091796875 39.85186767578125 -600.0
v 123.569091796875 39.8519287109375 200.00001525878906
v 125.0037841796875 34.993896484375 -600.0
v 125.0037841796875 34.99395751953125 200.00001525878906
v 127.5709228515625 30.2738037109375 -600.0
v 127.57086181640625 30.27386474609375 200.00001525878906
v 135.2862548828125 22.55841064453125 -600.0
v 135.28619384765625 22.5584716796875 200.00001525878906
v 140.00628662109375 19.99139404296875 -600.0
v 140.0062255859375 19.991455078125 200.00001525878906
v 144.863525390625 18.55560302734375 -600.0
v 144.86346435546875 18.5556640625 200.00001525878906
v 155.14453125 18.55523681640625 -600.0
v 155.14447021484375 18.5552978515625 200.00001525878906
v 160.00140380859375 19.9913330078125 -600.0
v 160.0013427734375 19.99139404296875 200.00001525878906
v 164.720458984375 22.558837890625 -600.0
v 164.72039794921875 22.55889892578125 199.9999237060547
v 172.43731689453125 30.2747802734375 -600.0
v 172.437255859375 30.27484130859375 200.00001525878906
v 175.00384521484375 34.993896484375 -600.0
v 175.0037841796875 34.99395751953125 200.00001525878906
v 176.43780517578125 39.85198974609375 -600.0
v 176.437744140625 39.85205078125 200.00001525878906
v 176.43780517578125 50.14300537109375 -600.0
v 176.437744140625 50.14306640625 200.00001525878906
v 175.00384521484375 -405.008544921875 -599.9999389648438
v 172.43731689453125 -400.2894287109375 -599.9999389648438
v 175.00384521484375 -405.008544921875 200.00006103515625
v 172.43731689453125 -400.2894287109375 200.00006103515625
v 164.720458984375 -392.573486328125 -599.9999389648438
v 164.720458984375 -392.573486328125 200.00006103515625
v 160.00140380859375 -390.006103515625 -599.9999389648438
v 160.00140380859375 -390.006103515625 200.00006103515625
v 155.14453125 -388.5699462890625 -599.9999389648438
v 155.14453125 -388.5699462890625 200.00006103515625
v 144.863525390625 -388.5703125 -599.9999389648438
v 144.863525390625 -388.5703125 200.00006103515625
v 140.00628662109375 -390.006103515625 -599.9999389648438
v 140.00628662109375 -390.006103515625 200.00006103515625
v 135.2862548828125 -392.5732421875 -599.9999389648438
v 135.2862548828125 -392.5732421875 200.00006103515625
v 127.5709228515625 -400.28857421875 -599.9999389648438
v 127.5709228515625 -400.28857421875 200.00006103515625
v 125.00390625 -405.008544921875 -599.9999389648438
v 125.0037841796875 -405.008544921875 200.00006103515625
v 123.5692138671875 -409.8646240234375 -599.9999389648438
v 123.569091796875 -409.8646240234375 200.00006103515625
v 123.5692138671875 -420.1475830078125 -599.9999389648438
v 123.569091796875 -420.1475830078125 200.00006103515625
v 125.00390625 -425.003662109375 -599.9999389648438
v 125.0037841796875 -425.003662109375 200.00006103515625
v 127.5709228515625 -429.7236328125 -599.9999389648438
v 127.5709228515625 -429.7236328125 200.00006103515625
v 135.2862548828125 -437.43896484375 -599.9999389648438
v 135.2862548828125 -437.43896484375 200.00006103515625
v 140.00628662109375 -440.006103515625 -599.9999389648438
v 140.00628662109375 -440.006103515625 200.00006103515625
v 144.863525390625 -441.44189453125 -599.9999389648438
v 144.863525390625 -441.44189453125 200.00006103515625
v 155.14453125 -441.442138671875 -599.9999389648438
v 155.14453125 -441.442138671875 200.00006103515625
v 160.00140380859375 -440.006103515625 -599.9999389648438
v 160.00140380859375 -440.006103515625 200.00006103515625
v 164.720458984375 -437.4385986328125 -599.9999389648438
v 164.720458984375 -437.4385986328125 199.99996948242188
v 172.43731689453125 -429.7227783203125 -599.9999389648438
v 172.43731689453125 -429.7227783203125 200.00006103515625
v 175.00384521484375 -425.003662109375 -599.9999389648438
v 175.00384521484375 -425.003662109375 200.00006103515625
v 176.43780517578125 -420.1474609375 -599.9999389648438
v 176.43780517578125 -420.1474609375 200.00006103515625
v 176.43780517578125 -409.86474609375 -599.9999389648438
v 176.43780517578125 -409.86474609375 200.00006103515625
v -1424.9962158203125 55.0010986328125 -600.0000610351562
v -1427.5626220703125 59.71832275390625 -600.0000610351562
v -1424.9962158203125 55.00115966796875 199.9999542236328
v -1427.5626220703125 59.7183837890625 199.9999542236328
v -1435.2794189453125 67.42572021484375 -600.0000610351562
v -1435.2794189453125 67.42578125 199.99986267089844
v -1439.9986572265625 69.9913330078125 -600.0000610351562
v -1439.9986572265625 69.99139404296875 199.99986267089844
v -1444.8555908203125 71.42742919921875 -600.0000610351562
v -1444.8555908203125 71.427490234375 199.9999542236328
v -1455.1365966796875 71.42706298828125 -600.0000610351562
v -1455.1365966796875 71.4271240234375 199.9999542236328
v -1459.9937744140625 69.99127197265625 -600.0000610351562
v -1459.9937744140625 69.9913330078125 199.9999542236328
v -1464.7137451171875 67.4261474609375 -600.0000610351562
v -1464.7137451171875 67.42620849609375 199.9999542236328
v -1472.4290771484375 59.71923828125 -600.0000610351562
v -1472.4290771484375 59.71929931640625 199.99984741210938
v -1474.9962158203125 55.0010986328125 -600.0000610351562
v -1474.9962158203125 55.00115966796875 199.99984741210938
v -1476.4310302734375 50.14312744140625 -600.0000610351562
v -1476.4310302734375 50.1431884765625 199.99984741210938
v -1476.4310302734375 39.851806640625 -600.0000610351562
v -1476.4310302734375 39.85186767578125 199.99993896484375
v -1474.9962158203125 34.99383544921875 -600.0000610351562
v -1474.9962158203125 34.993896484375 199.99993896484375
v -1472.4290771484375 30.2738037109375 -600.0000610351562
v -1472.4290771484375 30.27386474609375 199.99993896484375
v -1464.7137451171875 22.558349609375 -600.0000610351562
v -1464.7137451171875 22.55841064453125 199.99986267089844
v -1459.9937744140625 19.9913330078125 -600.0000610351562
v -1459.9937744140625 19.99139404296875 199.99986267089844
v -1455.1365966796875 18.5555419921875 -600.0000610351562
v -1455.1365966796875 18.55560302734375 199.9999542236328
v -1444.8555908203125 18.55517578125 -600.0000610351562
v -1444.8555908203125 18.55523681640625 199.9999542236328
v -1439.9986572265625 19.99127197265625 -600.0000610351562
v -1439.9986572265625 19.9913330078125 199.9999542236328
v -1435.2794189453125 22.558837890625 -600.0000610351562
v -1435.2794189453125 22.55889892578125 199.9999542236328
v -1427.5626220703125 30.27471923828125 -600.0000610351562
v -1427.5626220703125 30.2747802734375 199.9999542236328
v -1424.9962158203125 34.99383544921875 -600.0000610351562
v -1424.9962158203125 34.993896484375 199.9999542236328
v -1423.5623779296875 39.8519287109375 -600.0000610351562
v -1423.5623779296875 39.85198974609375 199.9999542236328
v -1423.5623779296875 50.14300537109375 -600.0000610351562
v -1423.5623779296875 50.14306640625 199.9999542236328
v -1424.9962158203125 -405.0086669921875 -600.0
v -1427.5626220703125 -400.28955078125 -600.0
v -1424.9962158203125 -405.0086669921875 200.0
v -1427.5626220703125 -400.28955078125 199.99990844726562
v -1435.2794189453125 -392.57373046875 -600.0
v -1435.2794189453125 -392.57373046875 200.0
v -1439.9986572265625 -390.006103515625 -600.0
v -1439.9986572265625 -390.006103515625 200.0
v -1444.8555908203125 -388.570068359375 -600.0
v -1444.8555908203125 -388.570068359375 200.0
v -1455.1365966796875 -388.5704345703125 -600.0
v -1455.1365966796875 -388.5704345703125 200.0
v -1459.9937744140625 -390.0062255859375 -600.0
v -1459.9937744140625 -390.0062255859375 200.0
v -1464.7137451171875 -392.5732421875 -600.0
v -1464.7137451171875 -392.5732421875 200.0
v -1472.4290771484375 -400.2886962890625 -600.0
v -1472.4290771484375 -400.2886962890625 199.99998474121094
v -1474.9962158203125 -405.0086669921875 -600.0
v -1474.9962158203125 -405.0086669921875 199.99998474121094
v -1476.4310302734375 -409.86474609375 -600.0
v -1476.4310302734375 -409.86474609375 199.99998474121094
v -1476.4310302734375 -420.147705078125 -600.0
v -1476.4310302734375 -420.147705078125 199.99989318847656
v -1474.9962158203125 -425.0037841796875 -600.0
v -1474.9962158203125 -425.0037841796875 199.99989318847656
v -1472.4290771484375 -429.7237548828125 -600.0
v -1472.4290771484375 -429.7237548828125 199.99998474121094
v -1464.7137451171875 -437.4390869140625 -600.0
v -1464.7137451171875 -437.4390869140625 200.0
v -1459.9937744140625 -440.006103515625 -600.0
v -1459.9937744140625 -440.006103515625 200.0
v -1455.1365966796875 -441.4420166015625 -600.0
v -1455.1365966796875 -441.4420166015625 200.0
v -1444.8555908203125 -441.4422607421875 -600.0
v -1444.8555908203125 -441.4422607421875 200.0
v -1439.9986572265625 -440.0062255859375 -600.0
v -1439.9986572265625 -440.0062255859375 200.0
v -1435.2794189453125 -437.4385986328125 -600.0
v -1435.2794189453125 -437.4385986328125 200.0
v -1427.5626220703125 -429.722900390625 -600.0
v -1427.5626220703125 -429.722900390625 200.0
v -1424.9962158203125 -425.0037841796875 -600.0
v -1424.9962158203125 -425.0037841796875 200.0
v -1423.5623779296875 -420.1475830078125 -600.0
v -1423.5623779296875 -420.1475830078125 200.0
v -1423.5623779296875 -409.8648681640625 -600.0
v -1423.5623779296875 -409.8648681640625 200.0
v -1924.9962158203125 55.0010986328125 -600.0000610351562
v -1927.5626220703125 59.71832275390625 -600.0000610351562
v -1924.9962158203125 55.00115966796875 199.9999237060547
v -1927.5626220703125 59.7183837890625 199.9999237060547
v -1935.2796630859375 67.42578125 -600.0000610351562
v -1935.2796630859375 67.42584228515625 199.9999237060547
v -1939.9986572265625 69.9913330078125 -600.0000610351562
v -1939.9986572265625 69.99139404296875 199.9999237060547
v -1944.8555908203125 71.42742919921875 -600.0000610351562
v -1944.8555908203125 71.427490234375 199.9999237060547
v -1955.1365966796875 71.42706298828125 -600.0000610351562
v -1955.1365966796875 71.4271240234375 199.9999237060547
v -1959.9937744140625 69.99127197265625 -600.0000610351562
v -1959.9937744140625 69.9913330078125 199.9999237060547
v -1964.7137451171875 67.4261474609375 -600.0000610351562
v -1964.7137451171875 67.42620849609375 199.9999237060547
v -1972.4290771484375 59.71917724609375 -600.0000610351562
v -1972.4290771484375 59.71923828125 199.9999237060547
v -1974.9962158203125 55.0010986328125 -600.0000610351562
v -1974.9962158203125 55.00115966796875 199.9999237060547
v -1976.4310302734375 50.14312744140625 -600.0000610351562
v -1976.4310302734375 50.1431884765625 199.9998321533203
v -1976.4310302734375 39.851806640625 -600.0000610351562
v -1976.4310302734375 39.85186767578125 199.9999237060547
v -1974.9962158203125 34.99383544921875 -600.0000610351562
v -1974.9962158203125 34.993896484375 199.9999237060547
v -1972.4290771484375 30.27374267578125 -600.0000610351562
v -1972.4290771484375 30.2738037109375 199.9999237060547
v -1964.7137451171875 22.558349609375 -600.0000610351562
v -1964.7137451171875 22.55841064453125 199.9999237060547
v -1959.9937744140625 19.9913330078125 -600.0000610351562
v -1959.9937744140625 19.99139404296875 199.9999237060547
v -1955.1365966796875 18.5555419921875 -600.0000610351562
v -1955.1365966796875 18.55560302734375 199.9999237060547
v -1944.8555908203125 18.55517578125 -600.0000610351562
v -1944.8555908203125 18.55523681640625 199.9999237060547
v -1939.9986572265625 19.99127197265625 -600.0000610351562
v -1939.9986572265625 19.9913330078125 199.9999237060547
v -1935.2796630859375 22.55877685546875 -600.0000610351562
v -1935.2796630859375 22.558837890625 199.9998321533203
v -1927.5626220703125 30.27471923828125 -600.0000610351562
v -1927.5626220703125 30.2747802734375 199.9999237060547
v -1924.9962158203125 34.99383544921875 -600.0000610351562
v -1924.9962158203125 34.993896484375 199.9999237060547
v -1923.5623779296875 39.8519287109375 -600.0000610351562
v -1923.5623779296875 39.85198974609375 199.9999237060547
v -1923.5623779296875 50.1429443359375 -600.0000610351562
v -1923.5623779296875 50.14300537109375 199.9999237060547
v -1924.9962158203125 -405.0086669921875 -600.0
v -1927.5626220703125 -400.28955078125 -600.0
v -1924.9962158203125 -405.0086669921875 199.99996948242188
v -1927.5626220703125 -400.28955078125 199.99996948242188
v -1935.2796630859375 -392.5736083984375 -600.0
v -1935.2796630859375 -392.5736083984375 199.99996948242188
v -1939.9986572265625 -390.0062255859375 -600.0
v -1939.9986572265625 -390.0062255859375 199.99996948242188
v -1944.8555908203125 -388.570068359375 -600.0
v -1944.8555908203125 -388.570068359375 199.99996948242188
v -1955.1365966796875 -388.5704345703125 -600.0
v -1955.1365966796875 -388.5704345703125 199.99996948242188
v -1959.9937744140625 -390.0062255859375 -600.0
v -1959.9937744140625 -390.0062255859375 199.99996948242188
v -1964.7137451171875 -392.5732421875 -600.0
v -1964.7137451171875 -392.5732421875 199.99996948242188
v -1972.4290771484375 -400.2886962890625 -600.0
v -1972.4290771484375 -400.2886962890625 199.99996948242188
v -1974.9962158203125 -405.0086669921875 -600.0
v -1974.9962158203125 -405.0086669921875 199.99996948242188
v -1976.4310302734375 -409.86474609375 -600.0
v -1976.4310302734375 -409.86474609375 199.99996948242188
v -1976.4310302734375 -420.147705078125 -600.0
v -1976.4310302734375 -420.147705078125 199.99996948242188
v -1974.9962158203125 -425.0037841796875 -600.0
v -1974.9962158203125 -425.0037841796875 199.99996948242188
v -1972.4290771484375 -429.7237548828125 -600.0
v -1972.4290771484375 -429.7237548828125 199.99996948242188
v -1964.7137451171875 -437.4390869140625 -600.0
v -1964.7137451171875 -437.4390869140625 199.99996948242188
v -1959.9937744140625 -440.0062255859375 -600.0
v -1959.9937744140625 -440.0062255859375 199.99996948242188
v -1955.1365966796875 -441.4420166015625 -600.0
v -1955.1365966796875 -441.4420166015625 199.99996948242188
v -1944.8555908203125 -441.4422607421875 -600.0
v -1944.8555908203125 -441.4422607421875 199.99996948242188
v -1939.9986572265625 -440.0062255859375 -600.0
v -1939.9986572265625 -440.0062255859375 199.99996948242188
v -1935.2796630859375 -437.438720703125 -600.0
v -1935.2796630859375 -437.438720703125 199.9998779296875
v -1927.5626220703125 -429.722900390625 -600.0
v -1927.5626220703125 -429.722900390625 199.99996948242188
v -1924.9962158203125 -425.0037841796875 -600.0
v -1924.9962158203125 -425.0037841796875 199.99996948242188
v -1923.5623779296875 -420.1475830078125 -600.0
v -1923.5623779296875 -420.1475830078125 199.99996948242188
v -1923.5623779296875 -409.8648681640625 -600.0
v -1923.5623779296875 -409.8648681640625 199.99996948242188
v -1439.9986572265625 839.9985961914062 -840.0000610351562
v -1435.2794189453125 842.5651245117188 -840.0000610351562
v -1439.9986572265625 839.9986572265625 199.99989318847656
v -1435.2794189453125 842.565185546875 199.99989318847656
v -1427.5635986328125 850.281982421875 -840.0000610351562
v -1427.5635986328125 850.2820434570312 199.99989318847656
v -1424.9962158203125 855.0009765625 -840.0000610351562
v -1424.9962158203125 855.0010986328125 199.9998779296875
v -1423.5601806640625 859.8578491210938 -840.0000610351562
v -1423.5601806640625 859.8579711914062 199.9998779296875
v -1423.5606689453125 870.138916015625 -840.0000610351562
v -1423.5606689453125 870.1389770507812 199.9998779296875
v -1424.9962158203125 874.99609375 -840.0000610351562
v -1424.9962158203125 874.9962158203125 199.9998779296875
v -1427.5633544921875 879.7161865234375 -840.0000610351562
v -1427.5633544921875 879.7162475585938 199.9998779296875
v -1435.2786865234375 887.4315795898438 -840.0000610351562
v -1435.2786865234375 887.4317016601562 199.9998779296875
v -1439.9986572265625 889.9985961914062 -840.0000610351562
v -1439.9986572265625 889.9986572265625 199.9998779296875
v -1444.8548583984375 891.433349609375 -840.0000610351562
v -1444.8548583984375 891.4334106445312 199.9998779296875
v -1455.1375732421875 891.4332885742188 -840.0000610351562
v -1455.1375732421875 891.4334106445312 199.9998779296875
v -1459.9937744140625 889.9985961914062 -840.0000610351562
v -1459.9937744140625 889.9986572265625 199.9998779296875
v -1464.7139892578125 887.4314575195312 -840.0000610351562
v -1464.7139892578125 887.4315185546875 199.99969482421875
v -1472.4290771484375 879.7161865234375 -840.0000610351562
v -1472.4290771484375 879.71630859375 199.9996795654297
v -1474.9962158203125 874.99609375 -840.0000610351562
v -1474.9962158203125 874.9962158203125 199.9996795654297
v -1476.4320068359375 870.1388549804688 -840.0000610351562
v -1476.4320068359375 870.138916015625 199.99986267089844
v -1476.4324951171875 859.8578491210938 -840.0000610351562
v -1476.4324951171875 859.8579711914062 199.99986267089844
v -1474.9962158203125 855.0009765625 -840.0000610351562
v -1474.9962158203125 855.0010986328125 199.99986267089844
v -1472.4288330078125 850.281982421875 -840.0000610351562
v -1472.4288330078125 850.2820434570312 199.9998779296875
v -1464.7130126953125 842.565185546875 -840.0000610351562
v -1464.7130126953125 842.5652465820312 199.99989318847656
v -1459.9937744140625 839.9985961914062 -840.0000610351562
v -1459.9937744140625 839.9986572265625 199.99989318847656
v -1455.1375732421875 838.5645751953125 -840.0000610351562
v -1455.1375732421875 838.564697265625 199.99989318847656
v -1444.8548583984375 838.5645751953125 -840.0000610351562
v -1444.8548583984375 838.5646362304688 199.99989318847656
v -1940.0042724609375 839.9931640625 -840.0000610351562
v -1935.2850341796875 842.5596923828125 -840.0000610351562
v -1940.0042724609375 839.9932250976562 199.99986267089844
v -1935.2850341796875 842.5597534179688 199.99986267089844
v -1927.5692138671875 850.2764892578125 -840.0000610351562
v -1927.5692138671875 850.276611328125 199.99986267089844
v -1925.0018310546875 854.9955444335938 -840.0000610351562
v -1925.0018310546875 854.99560546875 199.99984741210938
v -1923.5657958984375 859.8524169921875 -840.0000610351562
v -1923.5657958984375 859.8524780273438 199.99984741210938
v -1923.5660400390625 870.1334228515625 -840.0000610351562
v -1923.5660400390625 870.133544921875 199.99984741210938
v -1925.0018310546875 874.9906616210938 -840.0000610351562
v -1925.0018310546875 874.99072265625 199.99984741210938
v -1927.5689697265625 879.710693359375 -840.0000610351562
v -1927.5689697265625 879.7108154296875 199.99984741210938
v -1935.2840576171875 887.426025390625 -840.0000610351562
v -1935.2840576171875 887.4261474609375 199.99984741210938
v -1940.0042724609375 889.9931640625 -840.0000610351562
v -1940.0042724609375 889.9932250976562 199.99984741210938
v -1944.8602294921875 891.4278564453125 -840.0000610351562
v -1944.8602294921875 891.427978515625 199.99984741210938
v -1955.1431884765625 891.4278564453125 -840.0000610351562
v -1955.1431884765625 891.4279174804688 199.99984741210938
v -1959.9993896484375 889.9931640625 -840.0000610351562
v -1959.9993896484375 889.9932250976562 199.99984741210938
v -1964.7193603515625 887.4259643554688 -840.0000610351562
v -1964.7193603515625 887.4260864257812 199.99984741210938
v -1972.4346923828125 879.7107543945312 -840.0000610351562
v -1972.4346923828125 879.7108154296875 199.99984741210938
v -1975.0018310546875 874.9906616210938 -840.0000610351562
v -1975.0018310546875 874.99072265625 199.99984741210938
v -1976.4376220703125 870.1333618164062 -840.0000610351562
v -1976.4376220703125 870.1334838867188 199.99984741210938
v -1976.4378662109375 859.8524169921875 -840.0000610351562
v -1976.4378662109375 859.8524780273438 199.99984741210938
v -1975.0018310546875 854.9955444335938 -840.0000610351562
v -1975.0018310546875 854.99560546875 199.99984741210938
v -1972.4342041015625 850.2764892578125 -840.0000610351562
v -1972.4342041015625 850.276611328125 199.99986267089844
v -1964.7183837890625 842.5596923828125 -840.0000610351562
v -1964.7183837890625 842.559814453125 199.99986267089844
v -1959.9993896484375 839.9931640625 -840.0000610351562
v -1959.9993896484375 839.9932250976562 199.99986267089844
v -1955.1429443359375 838.5591430664062 -840.0000610351562
v -1955.1429443359375 838.5592041015625 199.99986267089844
v -1944.8604736328125 838.55908203125 -840.0000610351562
v -1944.8604736328125 838.5592041015625 199.99986267089844
v 1159.9959716796875 -889.999267578125 -599.9998779296875
v 1164.7152099609375 -887.4327392578125 -599.9998779296875
v 1159.9959716796875 -889.999267578125 200.00013732910156
v 1164.715087890625 -887.4327392578125 200.0000457763672
v 1172.430908203125 -879.7159423828125 -599.9998779296875
v 1172.430908203125 -879.7159423828125 200.00013732910156
v 1174.99853515625 -874.996826171875 -599.9998779296875
v 1174.9984130859375 -874.996826171875 200.00013732910156
v 1176.4345703125 -870.139892578125 -599.9998779296875
v 1176.4345703125 -870.139892578125 200.00013732910156
v 1176.434326171875 -859.85888671875 -599.9998779296875
v 1176.4342041015625 -859.85888671875 200.00013732910156
v 1174.99853515625 -855.001708984375 -599.9998779296875
v 1174.9984130859375 -855.001708984375 200.00013732910156
v 1172.431396484375 -850.28173828125 -599.9998779296875
v 1172.431396484375 -850.28173828125 200.00013732910156
v 1164.716064453125 -842.5662841796875 -599.9998779296875
v 1164.716064453125 -842.5662841796875 200.00013732910156
v 1159.9959716796875 -839.999267578125 -599.9998779296875
v 1159.9959716796875 -839.999267578125 200.00013732910156
v 1155.139892578125 -838.5645751953125 -599.9998779296875
v 1155.1397705078125 -838.5645751953125 200.0000457763672
v 1144.85693359375 -838.5645751953125 -599.9998779296875
v 1144.85693359375 -838.5645751953125 200.0000457763672
v 1140.0008544921875 -839.999267578125 -599.9998779296875
v 1140.0008544921875 -839.999267578125 200.0000457763672
v 1135.2808837890625 -842.5662841796875 -599.9998779296875
v 1135.2808837890625 -842.5662841796875 200.00013732910156
v 1127.5655517578125 -850.28173828125 -599.9998779296875
v 1127.5654296875 -850.28173828125 200.00013732910156
v 1124.99853515625 -855.001708984375 -599.9998779296875
v 1124.9984130859375 -855.001708984375 200.00013732910156
v 1123.562744140625 -859.85888671875 -599.9998779296875
v 1123.5626220703125 -859.85888671875 200.00013732910156
v 1123.5623779296875 -870.139892578125 -599.9998779296875
v 1123.5623779296875 -870.139892578125 200.00013732910156
v 1124.99853515625 -874.996826171875 -599.9998779296875
v 1124.9984130859375 -874.996826171875 200.00013732910156
v 1127.5660400390625 -879.7159423828125 -599.9998779296875
v 1127.5660400390625 -879.7159423828125 200.0000457763672
v 1135.28173828125 -887.4327392578125 -599.9998779296875
v 1135.28173828125 -887.4327392578125 200.00013732910156
v 1140.0008544921875 -889.999267578125 -599.9998779296875
v 1140.0008544921875 -889.999267578125 200.00013732910156
v 1144.857177734375 -891.4332275390625 -599.9998779296875
v 1144.8570556640625 -891.4332275390625 200.00013732910156
v 1155.139892578125 -891.4332275390625 -599.9998779296875
v 1155.1397705078125 -891.4332275390625 200.00013732910156
v 160.00262451171875 -889.9925537109375 -599.9999389648438
v 164.7218017578125 -887.426025390625 -599.9999389648438
v 160.0025634765625 -889.9925537109375 200.00009155273438
v 164.72174072265625 -887.426025390625 200.00009155273438
v 172.43756103515625 -879.7091064453125 -599.9999389648438
v 172.4375 -879.7091064453125 200.00009155273438
v 175.00506591796875 -874.9901123046875 -599.9999389648438
v 175.0050048828125 -874.9901123046875 200.00009155273438
v 176.44110107421875 -870.13330078125 -599.9999389648438
v 176.4410400390625 -870.13330078125 200.00009155273438
v 176.4407958984375 -859.85205078125 -599.9999389648438
v 176.44073486328125 -859.85205078125 200.00009155273438
v 175.00506591796875 -854.994873046875 -599.9999389648438
v 175.0050048828125 -854.994873046875 200.00009155273438
v 172.43792724609375 -850.27490234375 -599.9999389648438
v 172.4378662109375 -850.27490234375 200.00009155273438
v 164.72271728515625 -842.5596923828125 -599.9999389648438
v 164.72265625 -842.5596923828125 200.00009155273438
v 160.00262451171875 -839.9925537109375 -599.9999389648438
v 160.0025634765625 -839.9925537109375 200.00009155273438
v 155.146484375 -838.557861328125 -599.9999389648438
v 155.14642333984375 -838.557861328125 200.00009155273438
v 144.86358642578125 -838.557861328125 -599.9999389648438
v 144.863525390625 -838.557861328125 200.0
v 140.00750732421875 -839.9925537109375 -599.9999389648438
v 140.0074462890625 -839.9925537109375 200.0
v 135.2874755859375 -842.5596923828125 -599.9999389648438
v 135.28741455078125 -842.5596923828125 200.0
v 127.5721435546875 -850.27490234375 -599.9999389648438
v 127.57208251953125 -850.27490234375 200.0
v 125.005126953125 -854.994873046875 -599.9999389648438
v 125.005126953125 -854.994873046875 200.0
v 123.5693359375 -859.85205078125 -599.9999389648438
v 123.5693359375 -859.85205078125 200.00009155273438
v 123.5689697265625 -870.13330078125 -599.9999389648438
v 123.5689697265625 -870.13330078125 200.00009155273438
v 125.005126953125 -874.9901123046875 -599.9999389648438
v 125.005126953125 -874.9901123046875 200.00009155273438
v 127.5726318359375 -879.7091064453125 -599.9999389648438
v 127.57257080078125 -879.7091064453125 200.00009155273438
v 135.2884521484375 -887.426025390625 -599.9999389648438
v 135.28839111328125 -887.426025390625 200.00009155273438
v 140.00750732421875 -889.9925537109375 -599.9999389648438
v 140.0074462890625 -889.9925537109375 200.00009155273438
v 144.86376953125 -891.426513671875 -599.9999389648438
v 144.86370849609375 -891.426513671875 200.00009155273438
v 155.14642333984375 -891.426513671875 -599.9999389648438
v 155.1463623046875 -891.426513671875 200.0
v 160.0025634765625 -889.9925537109375 200.0
v 1159.995849609375 739.9932861328125 -839.9999389648438
v 1164.7149658203125 742.559814453125 -839.9999389648438
v 1159.9957275390625 739.993408203125 200.0
v 1164.7149658203125 742.5598754882812 200.0
v 1172.430908203125 750.2767333984375 -839.9999389648438
v 1172.4307861328125 750.27685546875 199.99981689453125
v 1174.998291015625 754.9957885742188 -839.9999389648438
v 1174.998291015625 754.9959106445312 199.99981689453125
v 1176.4344482421875 759.852783203125 -839.9999389648438
v 1176.4344482421875 759.8528442382812 200.0
v 1176.43408203125 770.1336669921875 -839.9999389648438
v 1176.43408203125 770.1337890625 199.99981689453125
v 1174.998291015625 774.9909057617188 -839.9999389648438
v 1174.998291015625 774.9910278320312 199.99981689453125
v 1172.4312744140625 779.7109375 -839.9999389648438
v 1172.4312744140625 779.7110595703125 200.0
v 1164.7158203125 787.42626953125 -839.9999389648438
v 1164.7158203125 787.4263305664062 200.0
v 1159.995849609375 789.9932861328125 -839.9999389648438
v 1159.9957275390625 789.993408203125 200.0
v 1155.1397705078125 791.427978515625 -839.9999389648438
v 1155.1396484375 791.4280395507812 200.0
v 1144.8568115234375 791.4280395507812 -839.9999389648438
v 1144.8568115234375 791.4281005859375 200.0
v 1140.000732421875 789.9932861328125 -839.9999389648438
v 1140.000732421875 789.993408203125 200.0
v 1135.28076171875 787.42626953125 -839.9999389648438
v 1135.2806396484375 787.4263305664062 200.0
v 1127.5654296875 779.7109375 -839.9999389648438
v 1127.5653076171875 779.7110595703125 200.0
v 1124.998291015625 774.9909057617188 -839.9999389648438
v 1124.998291015625 774.9910278320312 200.0
v 1123.5626220703125 770.1336669921875 -839.9999389648438
v 1123.5625 770.1337890625 200.0
v 1123.562255859375 759.8527221679688 -839.9999389648438
v 1123.5621337890625 759.8528442382812 200.0
v 1124.998291015625 754.9957885742188 -839.9999389648438
v 1124.998291015625 754.9959106445312 200.0
v 1127.5657958984375 750.2767333984375 -839.9999389648438
v 1127.5657958984375 750.27685546875 200.0
v 1135.2816162109375 742.559814453125 -839.9999389648438
v 1135.2816162109375 742.5598754882812 200.0
v 1140.000732421875 739.9932861328125 -839.9999389648438
v 1140.000732421875 739.993408203125 200.0
v 1144.85693359375 738.5593872070312 -839.9999389648438
v 1144.85693359375 738.5594482421875 200.0
v 1155.1396484375 738.559326171875 -839.9999389648438
v 1155.1395263671875 738.5593872070312 200.0
v 160.00244140625 740.0000610351562 -840.0
v 164.72149658203125 742.5665283203125 -840.0
v 160.00238037109375 740.0001220703125 199.9999542236328
v 164.721435546875 742.5665893554688 199.99977111816406
v 172.4375 750.283447265625 -840.0
v 172.43743896484375 750.2835083007812 199.9999542236328
v 175.0048828125 755.00244140625 -840.0
v 175.00482177734375 755.0025024414062 199.9999542236328
v 176.4410400390625 759.859375 -840.0
v 176.44097900390625 759.8594360351562 199.9999542236328
v 176.440673828125 770.140380859375 -840.0
v 176.44061279296875 770.1405029296875 199.99977111816406
v 175.0048828125 774.9976806640625 -840.0
v 175.00482177734375 774.9977416992188 199.99977111816406
v 172.4378662109375 779.7176513671875 -840.0
v 172.43780517578125 779.7177124023438 199.9999542236328
v 164.72247314453125 787.4329833984375 -840.0
v 164.722412109375 787.43310546875 199.9999542236328
v 160.00244140625 790.0000610351562 -840.0
v 160.00238037109375 790.0001220703125 199.9999542236328
v 155.1463623046875 791.4346923828125 -840.0
v 155.14630126953125 791.434814453125 199.9999542236328
v 144.86346435546875 791.4347534179688 -840.0
v 144.8634033203125 791.434814453125 199.9999542236328
v 140.00732421875 790.0000610351562 -840.0
v 140.00726318359375 790.0001220703125 199.9999542236328
v 135.28729248046875 787.4329833984375 -840.0
v 135.2872314453125 787.43310546875 199.9999542236328
v 127.572021484375 779.7176513671875 -840.0
v 127.57196044921875 779.7177734375 199.9999542236328
v 125.0048828125 774.9976806640625 -840.0
v 125.0048828125 774.9977416992188 199.9999542236328
v 123.569091796875 770.1403198242188 -840.0
v 123.569091796875 770.1404418945312 199.9999542236328
v 123.56884765625 759.859375 -840.0
v 123.56884765625 759.8594360351562 199.99977111816406
v 125.0048828125 755.00244140625 -840.0
v 125.0048828125 755.0025024414062 199.99977111816406
v 127.5723876953125 750.2833862304688 -840.0
v 127.57232666015625 750.283447265625 199.9999542236328
v 135.28826904296875 742.5665283203125 -840.0
v 135.2882080078125 742.5665893554688 199.9999542236328
v 140.00732421875 740.0000610351562 -840.0
v 140.00726318359375 740.0001220703125 199.9999542236328
v 144.863525390625 738.5661010742188 -840.0
v 144.86346435546875 738.566162109375 199.9999542236328
v 155.146240234375 738.5660400390625 -840.0
v 155.14617919921875 738.566162109375 199.9999542236328
v -1440.0042724609375 -889.99951171875 -600.0
v -1435.2850341796875 -887.4329833984375 -600.0
v -1440.0042724609375 -889.99951171875 199.99993896484375
v -1435.2850341796875 -887.4329833984375 200.00003051757812
v -1427.5692138671875 -879.716064453125 -600.0
v -1427.5692138671875 -879.716064453125 200.00003051757812
v -1425.0018310546875 -874.9970703125 -600.0
v -1425.0018310546875 -874.9970703125 200.00003051757812
v -1423.5657958984375 -870.1402587890625 -600.0
v -1423.5657958984375 -870.1402587890625 200.00003051757812
v -1423.5660400390625 -859.8590087890625 -600.0
v -1423.5660400390625 -859.8590087890625 200.00003051757812
v -1425.0018310546875 -855.0018310546875 -600.0
v -1425.0018310546875 -855.0018310546875 200.00003051757812
v -1427.5689697265625 -850.2818603515625 -600.0
v -1427.5689697265625 -850.2818603515625 200.00003051757812
v -1435.2840576171875 -842.566650390625 -600.0
v -1435.2840576171875 -842.566650390625 200.00003051757812
v -1440.0042724609375 -839.99951171875 -600.0
v -1440.0042724609375 -839.99951171875 200.00003051757812
v -1444.8602294921875 -838.5648193359375 -600.0
v -1444.8602294921875 -838.5648193359375 200.00003051757812
v -1455.1431884765625 -838.5648193359375 -600.0
v -1455.1431884765625 -838.5648193359375 200.00003051757812
v -1459.9993896484375 -839.99951171875 -600.0
v -1459.9993896484375 -839.99951171875 200.00003051757812
v -1464.7191162109375 -842.566650390625 -600.0
v -1464.7191162109375 -842.566650390625 200.00003051757812
v -1472.4346923828125 -850.2818603515625 -600.0
v -1472.4346923828125 -850.2818603515625 200.00001525878906
v -1475.0018310546875 -855.0018310546875 -600.0
v -1475.0018310546875 -855.0018310546875 200.00001525878906
v -1476.4376220703125 -859.8590087890625 -600.0
v -1476.4376220703125 -859.8590087890625 200.00001525878906
v -1476.4378662109375 -870.1402587890625 -600.0
v -1476.4378662109375 -870.1402587890625 200.00001525878906
v -1475.0018310546875 -874.9970703125 -600.0
v -1475.0018310546875 -874.9970703125 200.00001525878906
v -1472.4342041015625 -879.716064453125 -600.0
v -1472.4342041015625 -879.716064453125 200.00001525878906
v -1464.7183837890625 -887.4329833984375 -600.0
v -1464.7183837890625 -887.4329833984375 199.99993896484375
v -1459.9993896484375 -889.99951171875 -600.0
v -1459.9993896484375 -889.99951171875 199.99993896484375
v -1455.1429443359375 -891.4334716796875 -600.0
v -1455.1429443359375 -891.4334716796875 200.00003051757812
v -1444.8602294921875 -891.4334716796875 -600.0
v -1444.8602294921875 -891.4334716796875 199.99993896484375
v -1939.9974365234375 -889.99267578125 -600.0
v -1935.2784423828125 -887.4261474609375 -600.0
v -1939.9974365234375 -889.99267578125 200.0
v -1935.2784423828125 -887.4261474609375 200.0
v -1927.5626220703125 -879.709228515625 -600.0
v -1927.5626220703125 -879.709228515625 200.0
v -1924.9949951171875 -874.990234375 -600.0
v -1924.9949951171875 -874.990234375 200.0
v -1923.5589599609375 -870.1334228515625 -600.0
v -1923.5589599609375 -870.1334228515625 200.0
v -1923.5594482421875 -859.8521728515625 -600.0
v -1923.5594482421875 -859.8521728515625 200.0
v -1924.9949951171875 -854.9949951171875 -600.0
v -1924.9949951171875 -854.9949951171875 200.0
v -1927.5621337890625 -850.2750244140625 -600.0
v -1927.5621337890625 -850.2750244140625 200.0
v -1935.2774658203125 -842.559814453125 -600.0
v -1935.2774658203125 -842.559814453125 200.0
v -1939.9974365234375 -839.99267578125 -600.0
v -1939.9974365234375 -839.99267578125 200.0
v -1944.8536376953125 -838.5579833984375 -600.0
v -1944.8536376953125 -838.5579833984375 200.0
v -1955.1365966796875 -838.5579833984375 -600.0
v -1955.1365966796875 -838.5579833984375 199.99990844726562
v -1959.9925537109375 -839.99267578125 -600.0
v -1959.9925537109375 -839.99267578125 199.99990844726562
v -1964.7125244140625 -842.559814453125 -600.0
v -1964.7125244140625 -842.559814453125 199.99990844726562
v -1972.4278564453125 -850.2750244140625 -600.0
v -1972.4278564453125 -850.2750244140625 199.99990844726562
v -1974.9949951171875 -854.9949951171875 -600.0
v -1974.9949951171875 -854.9949951171875 199.99990844726562
v -1976.4307861328125 -859.8521728515625 -600.0
v -1976.4307861328125 -859.8521728515625 200.0
v -1976.4310302734375 -870.1334228515625 -600.0
v -1976.4310302734375 -870.1334228515625 200.0
v -1974.9949951171875 -874.990234375 -600.0
v -1974.9949951171875 -874.990234375 200.0
v -1972.4276123046875 -879.709228515625 -600.0
v -1972.4276123046875 -879.709228515625 200.0
v -1964.7115478515625 -887.4261474609375 -600.0
v -1964.7115478515625 -887.4261474609375 200.0
v -1959.9925537109375 -889.99267578125 -600.0
v -1959.9925537109375 -889.99267578125 200.0
v -1955.1363525390625 -891.4266357421875 -600.0
v -1955.1363525390625 -891.4266357421875 200.0
v -1944.8536376953125 -891.4266357421875 -600.0
v -1944.8536376953125 -891.4266357421875 199.99990844726562
v -1939.9974365234375 -889.99267578125 199.99990844726562
v 1975.00390625 55.00128173828125 -599.9998779296875
v 1972.4375 59.718505859375 -599.9998779296875
v 1975.0037841796875 55.0013427734375 200.00009155273438
v 1972.4373779296875 59.71856689453125 200.00009155273438
v 1964.720458984375 67.42596435546875 -599.9998779296875
v 1964.720458984375 67.426025390625 200.0
v 1960.00146484375 69.991455078125 -599.9998779296875
v 1960.00146484375 69.99151611328125 200.0
v 1955.1446533203125 71.4276123046875 -599.9998779296875
v 1955.14453125 71.42767333984375 200.00009155273438
v 1944.863525390625 71.42724609375 -599.9998779296875
v 1944.863525390625 71.42730712890625 200.00009155273438
v 1940.00634765625 69.99151611328125 -599.9998779296875
v 1940.00634765625 69.9915771484375 200.00009155273438
v 1935.2862548828125 67.42633056640625 -599.9998779296875
v 1935.2861328125 67.4263916015625 200.00009155273438
v 1927.5709228515625 59.71942138671875 -599.9998779296875
v 1927.57080078125 59.719482421875 200.0
v 1925.00390625 55.00128173828125 -599.9998779296875
v 1925.0037841796875 55.0013427734375 200.0
v 1923.569091796875 50.143310546875 -599.9998779296875
v 1923.569091796875 50.14337158203125 200.0
v 1923.569091796875 39.85198974609375 -599.9998779296875
v 1923.569091796875 39.85205078125 200.00009155273438
v 1925.00390625 34.9940185546875 -599.9998779296875
v 1925.0037841796875 34.99407958984375 200.00009155273438
v 1927.5709228515625 30.27398681640625 -599.9998779296875
v 1927.57080078125 30.2740478515625 200.00009155273438
v 1935.2862548828125 22.55853271484375 -599.9998779296875
v 1935.2861328125 22.55859375 200.0
v 1940.00634765625 19.991455078125 -599.9998779296875
v 1940.00634765625 19.99151611328125 200.0
v 1944.8636474609375 18.55572509765625 -599.9998779296875
v 1944.863525390625 18.5557861328125 200.00009155273438
v 1955.1446533203125 18.55535888671875 -599.9998779296875
v 1955.14453125 18.555419921875 200.00009155273438
v 1960.00146484375 19.99151611328125 -599.9998779296875
v 1960.00146484375 19.9915771484375 200.00009155273438
v 1964.720458984375 22.5589599609375 -599.9998779296875
v 1964.720458984375 22.55902099609375 200.00009155273438
v 1972.437255859375 30.27490234375 -599.9998779296875
v 1972.437255859375 30.27496337890625 200.00009155273438
v 1975.00390625 34.9940185546875 -599.9998779296875
v 1975.0037841796875 34.99407958984375 200.00009155273438
v 1976.4378662109375 39.85211181640625 -599.9998779296875
v 1976.437744140625 39.8521728515625 200.00009155273438
v 1976.4378662109375 50.14312744140625 -599.9998779296875
v 1976.437744140625 50.1431884765625 200.00009155273438
v 1975.00390625 -405.008544921875 -599.9998168945312
v 1972.4375 -400.2894287109375 -599.9998168945312
v 1975.00390625 -405.008544921875 200.00013732910156
v 1972.4375 -400.2894287109375 200.0000457763672
v 1964.720458984375 -392.573486328125 -599.9998168945312
v 1964.720458984375 -392.573486328125 200.00013732910156
v 1960.00146484375 -390.006103515625 -599.9998168945312
v 1960.00146484375 -390.006103515625 200.00013732910156
v 1955.1446533203125 -388.5699462890625 -599.9998168945312
v 1955.1446533203125 -388.5699462890625 200.00013732910156
v 1944.863525390625 -388.5703125 -599.9998168945312
v 1944.863525390625 -388.5703125 200.00013732910156
v 1940.00634765625 -390.0059814453125 -599.9998168945312
v 1940.00634765625 -390.0059814453125 200.00013732910156
v 1935.2862548828125 -392.5732421875 -599.9998168945312
v 1935.2862548828125 -392.5732421875 200.00013732910156
v 1927.5709228515625 -400.28857421875 -599.9998168945312
v 1927.5709228515625 -400.28857421875 200.00013732910156
v 1925.00390625 -405.008544921875 -599.9998168945312
v 1925.00390625 -405.008544921875 200.00013732910156
v 1923.569091796875 -409.8646240234375 -599.9998168945312
v 1923.569091796875 -409.8646240234375 200.00013732910156
v 1923.569091796875 -420.1475830078125 -599.9998168945312
v 1923.569091796875 -420.1475830078125 200.0000457763672
v 1925.00390625 -425.003662109375 -599.9998168945312
v 1925.00390625 -425.003662109375 200.0000457763672
v 1927.5709228515625 -429.7236328125 -599.9998168945312
v 1927.5709228515625 -429.7236328125 200.00013732910156
v 1935.2862548828125 -437.43896484375 -599.9998168945312
v 1935.2862548828125 -437.43896484375 200.00013732910156
v 1940.00634765625 -440.006103515625 -599.9998168945312
v 1940.00634765625 -440.006103515625 200.00013732910156
v 1944.8636474609375 -441.44189453125 -599.9998168945312
v 1944.8636474609375 -441.44189453125 200.00013732910156
v 1955.1446533203125 -441.442138671875 -599.9998168945312
v 1955.1446533203125 -441.442138671875 200.00013732910156
v 1960.00146484375 -440.0059814453125 -599.9998168945312
v 1960.00146484375 -440.0059814453125 200.00013732910156
v 1964.720458984375 -437.4385986328125 -599.9998168945312
v 1964.720458984375 -437.4385986328125 200.00013732910156
v 1972.437255859375 -429.7227783203125 -599.9998168945312
v 1972.437255859375 -429.7227783203125 200.00013732910156
v 1975.00390625 -425.003662109375 -599.9998168945312
v 1975.00390625 -425.003662109375 200.00013732910156
v 1976.4378662109375 -420.1474609375 -599.9998168945312
v 1976.4378662109375 -420.1474609375 200.00013732910156
v 1976.4378662109375 -409.86474609375 -599.9998168945312
v 1976.4378662109375 -409.86474609375 200.00013732910156
f 4 2 3
f 2 1 3
f 35 33 36
f 36 33 38
f 37 36 38
f 38 3 37
f 37 3 39
f 39 3 34
f 34 33 35
f 35 39 34
f 30 29 31
f 31 29 32
f 28 25 26
f 26 25 27
f 22 21 23
f 21 24 23
f 112 111 113
f 113 111 114
f 110 107 108
f 108 107 109
f 104 103 105
f 103 106 105
f 68 67 69
f 69 67 70
f 66 63 64
f 64 63 65
f 62 60 61
f 60 59 61
f 1007 1005 1006
f 1008 1007 1006
f 1009 1007 1008
f 1010 1009 1008
f 1011 1009 1010
f 1012 1011 1010
f 1013 1011 1012
f 1014 1013 1012
f 997 995 996
f 998 997 996
f 999 997 998
f 1000 999 998
f 1001 999 1000
f 1002 1001 1000
f 1003 1001 1002
f 1004 1003 1002
f 1023 1003 1004
f 1024 1023 1004
f 987 985 986
f 988 987 986
f 989 987 988
f 990 989 988
f 991 989 990
f 992 991 990
f 993 1025 1026
f 994 993 1026
f 995 993 994
f 996 995 994
f 977 975 976
f 978 977 976
f 979 977 978
f 980 979 978
f 981 1027 1028
f 982 981 1028
f 983 981 982
f 984 983 982
f 985 983 984
f 986 985 984
f 966 965 967
f 968 966 967
f 969 1029 1030
f 970 969 1030
f 971 969 970
f 972 971 970
f 973 971 972
f 974 973 972
f 975 973 974
f 976 975 974
f 56 55 57
f 56 57 58
f 48 47 49
f 49 54 48
f 54 53 48
f 51 53 54
f 52 53 51
f 51 50 52
f 50 47 52
f 49 47 50
f 957 955 956
f 958 957 956
f 959 957 958
f 960 959 958
f 961 959 960
f 962 961 960
f 963 961 962
f 964 963 962
f 947 945 946
f 948 947 946
f 949 947 948
f 950 949 948
f 951 949 950
f 952 951 950
f 953 951 952
f 954 953 952
f 1031 953 954
f 1032 1031 954
f 937 935 936
f 938 937 936
f 939 937 938
f 940 939 938
f 941 939 940
f 942 941 940
f 943 941 942
f 944 943 942
f 945 1033 1034
f 946 945 1034
f 927 925 926
f 928 927 926
f 929 927 928
f 930 929 928
f 931 929 930
f 932 931 930
f 933 1035 1036
f 934 933 1036
f 935 933 934
f 936 935 934
f 916 915 917
f 918 916 917
f 919 1037 1038
f 920 919 1038
f 921 919 920
f 922 921 920
f 923 921 922
f 924 923 922
f 925 923 924
f 926 925 924
f 41 40 42
f 42 46 41
f 46 45 41
f 44 45 46
f 16 45 44
f 44 43 16
f 43 40 16
f 42 40 43
f 14 13 15
f 16 14 15
f 907 905 906
f 908 907 906
f 909 907 908
f 910 909 908
f 911 909 910
f 912 911 910
f 913 911 912
f 914 913 912
f 897 895 896
f 898 897 896
f 899 897 898
f 900 899 898
f 901 899 900
f 902 901 900
f 903 901 902
f 904 903 902
f 1039 903 904
f 1040 1039 904
f 887 885 886
f 888 887 886
f 889 887 888
f 890 889 888
f 891 889 890
f 892 891 890
f 893 891 892
f 894 893 892
f 895 1041 1042
f 896 895 1042
f 877 875 876
f 878 877 876
f 879 877 878
f 880 879 878
f 881 1043 1044
f 882 881 1044
f 883 881 882
f 884 883 882
f 885 883 884
f 886 885 884
f 866 865 867
f 868 866 867
f 869 1045 1046
f 870 869 1046
f 871 869 870
f 872 871 870
f 873 871 872
f 874 873 872
f 875 873 874
f 876 875 874
f 18 20 17
f 18 17 19
f 100 102 99
f 100 99 101
f 96 95 97
f 98 96 97
f 88 87 89
f 89 94 88
f 94 93 88
f 91 93 94
f 92 93 91
f 91 90 92
f 90 87 92
f 89 87 90
f 857 855 856
f 858 857 856
f 859 857 858
f 860 859 858
f 861 859 860
f 862 861 860
f 863 861 862
f 864 863 862
f 847 845 846
f 848 847 846
f 849 847 848
f 850 849 848
f 851 849 850
f 852 851 850
f 853 851 852
f 854 853 852
f 1047 853 854
f 1048 1047 854
f 837 835 836
f 838 837 836
f 839 837 838
f 840 839 838
f 841 839 840
f 842 841 840
f 843 841 842
f 844 843 842
f 845 1049 1050
f 846 845 1050
f 827 825 826
f 828 827 826
f 829 827 828
f 830 829 828
f 831 829 830
f 832 831 830
f 833 1051 1052
f 834 833 1052
f 835 833 834
f 836 835 834
f 816 815 817
f 818 816 817
f 819 1053 1054
f 820 819 1054
f 821 819 820
f 822 821 820
f 823 821 822
f 824 823 822
f 825 823 824
f 826 825 824
f 80 79 81
f 81 86 80
f 86 85 80
f 83 85 86
f 84 85 83
f 83 82 84
f 82 79 84
f 81 79 82
f 807 805 806
f 808 807 806
f 809 807 808
f 810 809 808
f 811 809 810
f 812 811 810
f 813 811 812
f 814 813 812
f 797 795 796
f 798 797 796
f 799 797 798
f 800 799 798
f 801 799 800
f 802 801 800
f 803 801 802
f 804 803 802
f 1055 803 804
f 1056 1055 804
f 787 785 786
f 788 787 786
f 789 787 788
f 790 789 788
f 791 789 790
f 792 791 790
f 793 1057 1058
f 794 793 1058
f 795 793 794
f 796 795 794
f 777 775 776
f 778 777 776
f 779 777 778
f 780 779 778
f 781 1059 1060
f 782 781 1060
f 783 781 782
f 784 783 782
f 785 783 784
f 786 785 784
f 766 765 767
f 768 766 767
f 769 1061 1062
f 770 769 1062
f 771 769 770
f 772 771 770
f 773 771 772
f 774 773 772
f 775 773 774
f 776 775 774
f 72 71 73
f 73 78 72
f 78 77 72
f 75 77 78
f 76 77 75
f 75 74 76
f 74 71 76
f 73 71 74
f 757 755 756
f 758 757 756
f 759 757 758
f 760 759 758
f 761 759 760
f 762 761 760
f 763 761 762
f 764 763 762
f 747 745 746
f 748 747 746
f 749 747 748
f 750 749 748
f 751 749 750
f 752 751 750
f 753 751 752
f 754 753 752
f 1063 753 754
f 1064 1063 754
f 737 735 736
f 738 737 736
f 739 737 738
f 740 739 738
f 741 739 740
f 742 741 740
f 743 741 742
f 744 743 742
f 745 1065 1066
f 746 745 1066
f 727 725 726
f 728 727 726
f 729 727 728
f 730 729 728
f 731 1067 1068
f 732 731 1068
f 733 731 732
f 734 733 732
f 735 733 734
f 736 735 734
f 716 715 717
f 718 716 717
f 719 1069 1070
f 720 719 1070
f 721 719 720
f 722 721 720
f 723 721 722
f 724 723 722
f 725 723 724
f 726 725 724
f 6 5 7
f 7 12 6
f 12 11 6
f 9 11 12
f 10 11 9
f 9 8 10
f 8 5 10
f 7 5 8
f 707 705 706
f 708 707 706
f 709 707 708
f 710 709 708
f 711 709 710
f 712 711 710
f 713 711 712
f 714 713 712
f 697 695 696
f 698 697 696
f 699 697 698
f 700 699 698
f 701 699 700
f 702 701 700
f 703 701 702
f 704 703 702
f 1071 703 704
f 1072 1071 704
f 687 685 686
f 688 687 686
f 689 687 688
f 690 689 688
f 691 689 690
f 692 691 690
f 693 691 692
f 694 693 692
f 695 1073 1074
f 696 695 1074
f 677 675 676
f 678 677 676
f 679 677 678
f 680 679 678
f 681 1075 1076
f 682 681 1076
f 683 681 682
f 684 683 682
f 685 683 684
f 686 685 684
f 666 665 667
f 668 666 667
f 669 1077 1078
f 670 669 1078
f 671 669 670
f 672 671 670
f 673 671 672
f 674 673 672
f 675 673 674
f 676 675 674
f 616 615 617
f 618 616 617
f 619 1079 1080
f 620 619 1080
f 621 619 620
f 622 621 620
f 623 621 622
f 624 623 622
f 625 623 624
f 626 625 624
f 627 625 626
f 628 627 626
f 629 627 628
f 630 629 628
f 631 629 630
f 632 631 630
f 633 1081 1082
f 634 633 1082
f 635 633 634
f 636 635 634
f 637 635 636
f 638 637 636
f 639 637 638
f 640 639 638
f 641 639 640
f 642 641 640
f 643 1083 1084
f 644 643 1084
f 645 643 644
f 646 645 644
f 647 645 646
f 648 647 646
f 649 647 648
f 650 649 648
f 651 649 650
f 652 651 650
f 653 651 652
f 654 653 652
f 655 653 654
f 656 655 654
f 657 1085 1086
f 658 657 1086
f 659 657 658
f 660 659 658
f 661 659 660
f 662 661 660
f 663 661 662
f 664 663 662
f 607 605 606
f 608 607 606
f 609 607 608
f 610 609 608
f 611 609 610
f 612 611 610
f 613 611 612
f 614 613 612
f 597 595 596
f 598 597 596
f 599 597 598
f 600 599 598
f 601 599 600
f 602 601 600
f 603 601 602
f 604 603 602
f 1087 603 604
f 1088 1087 604
f 587 585 586
f 588 587 586
f 589 587 588
f 590 589 588
f 591 589 590
f 592 591 590
f 593 591 592
f 594 593 592
f 595 1089 1090
f 596 595 1090
f 577 575 576
f 578 577 576
f 579 577 578
f 580 579 578
f 581 579 580
f 582 581 580
f 583 1091 1092
f 584 583 1092
f 585 583 584
f 586 585 584
f 566 565 567
f 568 566 567
f 569 1093 1094
f 570 569 1094
f 571 569 570
f 572 571 570
f 573 571 572
f 574 573 572
f 575 573 574
f 576 575 574
f 516 515 517
f 518 516 517
f 519 1095 1096
f 520 519 1096
f 521 519 520
f 522 521 520
f 523 521 522
f 524 523 522
f 525 523 524
f 526 525 524
f 527 525 526
f 528 527 526
f 529 527 528
f 530 529 528
f 531 529 530
f 532 531 530
f 533 1097 1098
f 534 533 1098
f 535 533 534
f 536 535 534
f 537 535 536
f 538 537 536
f 539 537 538
f 540 539 538
f 541 539 540
f 542 541 540
f 543 1099 1100
f 544 543 1100
f 545 543 544
f 546 545 544
f 547 545 546
f 548 547 546
f 549 547 548
f 550 549 548
f 551 549 550
f 552 551 550
f 553 551 552
f 554 553 552
f 555 553 554
f 556 555 554
f 557 1101 1102
f 558 557 1102
f 559 557 558
f 560 559 558
f 561 559 560
f 562 561 560
f 563 561 562
f 564 563 562
f 507 505 506
f 508 507 506
f 509 507 508
f 510 509 508
f 511 509 510
f 512 511 510
f 513 511 512
f 514 513 512
f 497 495 496
f 498 497 496
f 499 497 498
f 500 499 498
f 501 499 500
f 502 501 500
f 503 501 502
f 504 503 502
f 1103 503 504
f 1104 1103 504
f 487 485 486
f 488 487 486
f 489 487 488
f 490 489 488
f 491 489 490
f 492 491 490
f 493 1105 1106
f 494 493 1106
f 495 493 494
f 496 495 494
f 477 475 476
f 478 477 476
f 479 477 478
f 480 479 478
f 481 1107 1108
f 482 481 1108
f 483 481 482
f 484 483 482
f 485 483 484
f 486 485 484
f 466 465 467
f 468 466 467
f 469 1109 1110
f 470 469 1110
f 471 469 470
f 472 471 470
f 473 471 472
f 474 473 472
f 475 473 474
f 476 475 474
f 416 415 417
f 418 416 417
f 419 1111 1112
f 420 419 1112
f 421 419 420
f 422 421 420
f 423 421 422
f 424 423 422
f 425 423 424
f 426 425 424
f 427 425 426
f 428 427 426
f 429 427 428
f 430 429 428
f 431 429 430
f 432 431 430
f 433 1113 1114
f 434 433 1114
f 435 433 434
f 436 435 434
f 437 435 436
f 438 437 436
f 439 437 438
f 440 439 438
f 441 439 440
f 442 441 440
f 443 441 442
f 444 443 442
f 445 1115 1116
f 446 445 1116
f 447 445 446
f 448 447 446
f 449 447 448
f 450 449 448
f 451 449 450
f 452 451 450
f 453 451 452
f 454 453 452
f 455 453 454
f 456 455 454
f 457 1117 1118
f 458 457 1118
f 459 457 458
f 460 459 458
f 461 459 460
f 462 461 460
f 463 461 462
f 464 463 462
f 407 405 406
f 408 407 406
f 409 407 408
f 410 409 408
f 411 409 410
f 412 411 410
f 413 411 412
f 414 413 412
f 397 395 396
f 398 397 396
f 399 397 398
f 400 399 398
f 401 399 400
f 402 401 400
f 403 401 402
f 404 403 402
f 1119 403 404
f 1120 1119 404
f 387 385 386
f 388 387 386
f 389 387 388
f 390 389 388
f 391 389 390
f 392 391 390
f 393 1121 1122
f 394 393 1122
f 395 393 394
f 396 395 394
f 377 375 376
f 378 377 376
f 379 377 378
f 380 379 378
f 381 1123 1124
f 382 381 1124
f 383 381 382
f 384 383 382
f 385 383 384
f 386 385 384
f 366 365 367
f 368 366 367
f 369 1125 1126
f 370 369 1126
f 371 369 370
f 372 371 370
f 373 371 372
f 374 373 372
f 375 373 374
f 376 375 374
f 316 315 317
f 318 316 317
f 319 1127 1128
f 320 319 1128
f 321 319 320
f 322 321 320
f 323 321 322
f 324 323 322
f 325 323 324
f 326 325 324
f 327 325 326
f 328 327 326
f 329 327 328
f 330 329 328
f 331 329 330
f 332 331 330
f 333 1129 1130
f 334 333 1130
f 335 333 334
f 336 335 334
f 337 335 336
f 338 337 336
f 339 337 338
f 340 339 338
f 341 339 340
f 342 341 340
f 343 341 342
f 344 343 342
f 345 1131 1132
f 346 345 1132
f 347 345 346
f 348 347 346
f 349 347 348
f 350 349 348
f 351 349 350
f 352 351 350
f 353 351 352
f 354 353 352
f 355 353 354
f 356 355 354
f 357 1133 1134
f 358 357 1134
f 359 357 358
f 360 359 358
f 361 359 360
f 362 361 360
f 363 361 362
f 364 363 362
f 307 305 306
f 308 307 306
f 309 307 308
f 310 309 308
f 311 309 310
f 312 311 310
f 313 311 312
f 314 313 312
f 297 295 296
f 298 297 296
f 299 297 298
f 300 299 298
f 301 299 300
f 302 301 300
f 303 301 302
f 304 303 302
f 1135 303 304
f 1136 1135 304
f 287 285 286
f 288 287 286
f 289 287 288
f 290 289 288
f 291 289 290
f 292 291 290
f 293 1137 1138
f 294 293 1138
f 295 293 294
f 296 295 294
f 277 275 276
f 278 277 276
f 279 277 278
f 280 279 278
f 281 1139 1140
f 282 281 1140
f 283 281 282
f 284 283 282
f 285 283 284
f 286 285 284
f 266 265 267
f 268 266 267
f 269 1141 1142
f 270 269 1142
f 271 269 270
f 272 271 270
f 273 271 272
f 274 273 272
f 275 273 274
f 276 275 274
f 216 215 217
f 218 216 217
f 219 1143 1144
f 220 219 1144
f 221 219 220
f 222 221 220
f 223 221 222
f 224 223 222
f 225 223 224
f 226 225 224
f 227 225 226
f 228 227 226
f 229 227 228
f 230 229 228
f 231 229 230
f 232 231 230
f 233 1145 1146
f 234 233 1146
f 235 233 234
f 236 235 234
f 237 235 236
f 238 237 236
f 239 237 238
f 240 239 238
f 241 239 240
f 242 241 240
f 243 241 242
f 244 243 242
f 245 1147 1148
f 246 245 1148
f 247 245 246
f 248 247 246
f 249 247 248
f 250 249 248
f 251 249 250
f 252 251 250
f 253 251 252
f 254 253 252
f 255 253 254
f 256 255 254
f 257 1149 1150
f 258 257 1150
f 259 257 258
f 260 259 258
f 261 259 260
f 262 261 260
f 263 261 262
f 264 263 262
f 174 173 172
f 173 171 172
f 172 171 170
f 171 169 170
f 170 169 168
f 169 166 168
f 1152 1151 167
f 1151 165 167
f 184 183 182
f 183 181 182
f 182 181 180
f 181 179 180
f 1154 1153 178
f 1153 177 178
f 178 177 176
f 177 175 176
f 176 175 174
f 175 173 174
f 194 193 192
f 193 191 192
f 1156 1155 190
f 1155 189 190
f 190 189 188
f 189 187 188
f 188 187 186
f 187 185 186
f 186 185 184
f 185 183 184
f 204 203 202
f 203 201 202
f 202 201 200
f 201 199 200
f 200 199 198
f 199 197 198
f 198 197 196
f 197 195 196
f 196 195 194
f 195 193 194
f 214 213 212
f 213 211 212
f 212 211 210
f 211 209 210
f 210 209 208
f 209 207 208
f 208 207 206
f 207 205 206
f 1158 1157 204
f 1157 203 204
f 124 123 122
f 123 121 122
f 122 121 120
f 121 119 120
f 120 119 118
f 119 116 118
f 1160 1159 117
f 1159 115 117
f 134 133 132
f 133 131 132
f 1162 1161 130
f 1161 129 130
f 130 129 128
f 129 127 128
f 128 127 126
f 127 125 126
f 126 125 124
f 125 123 124
f 144 143 142
f 143 141 142
f 142 141 140
f 141 139 140
f 140 139 138
f 139 137 138
f 138 137 136
f 137 135 136
f 136 135 134
f 135 133 134
f 154 153 152
f 153 151 152
f 152 151 150
f 151 149 150
f 150 149 148
f 149 147 148
f 148 147 146
f 147 145 146
f 146 145 1163
f 145 1164 1163
f 164 163 162
f 163 161 162
f 162 161 160
f 161 159 160
f 160 159 158
f 159 157 158
f 158 157 156
f 157 155 156
f 1166 1165 154
f 1165 153 154
f 1016 1015 1017
f 1017 1015 1018
f 1020 1019 1021
f 1021 1019 1022
