# from WaterfrontDistrict_Block08_Generic_0006_LOD_0.pskx
v -1047.4786376953125 422.2472839355469 -0.02499999850988388
v -1072.5286865234375 422.2472839355469 -0.02500109188258648
v -1047.4786376953125 422.247314453125 325.0249938964844
v -1072.5286865234375 422.247314453125 325.0249938964844
v -1072.503662109375 422.27227783203125 -0.02500109374523163
v -1072.503662109375 397.2222900390625 -0.024998903274536133
v -1072.503662109375 422.2723083496094 325.0249938964844
v -1072.503662109375 397.2223205566406 325.0249938964844
v -1072.5286865234375 397.2472839355469 -0.024998905137181282
v -1047.4786376953125 397.2472839355469 -0.024997813627123833
v -1072.5286865234375 397.247314453125 325.0249938964844
v -1047.4786376953125 397.247314453125 325.0249938964844
v -1047.503662109375 397.2222900390625 -0.024997811764478683
v -1047.503662109375 422.27227783203125 -0.02500000037252903
v -1047.503662109375 397.2223205566406 325.0249938964844
v -1047.503662109375 422.2723083496094 325.0249938964844
v -1072.5286865234375 422.2723083496094 325.0
v -1072.5286865234375 397.2223205566406 325.0
v -1047.4786376953125 422.2723083496094 325.0
v -1047.4786376953125 397.2223205566406 325.0
v -1047.4786376953125 872.247314453125 -0.025039339438080788
v -1072.5286865234375 872.247314453125 -0.025040430948138237
v -1047.4786376953125 872.247314453125 325.02496337890625
v -1072.5286865234375 872.247314453125 325.02496337890625
v -1072.503662109375 872.2723388671875 -0.025040430948138237
v -1072.503662109375 847.2222900390625 -0.02503824606537819
v -1072.503662109375 872.2723388671875 325.02496337890625
v -1072.503662109375 847.2222900390625 325.02496337890625
v -1072.5286865234375 847.247314453125 -0.02503824606537819
v -1047.4786376953125 847.247314453125 -0.02503715269267559
v -1072.5286865234375 847.247314453125 325.02496337890625
v -1047.4786376953125 847.247314453125 325.02496337890625
v -1047.503662109375 847.2222900390625 -0.02503715269267559
v -1047.503662109375 872.2723388671875 -0.025039339438080788
v -1047.503662109375 847.2222900390625 325.02496337890625
v -1047.503662109375 872.2723388671875 325.02496337890625
v -1072.5286865234375 872.2723388671875 324.9999694824219
v -1072.5286865234375 847.2222900390625 324.9999694824219
v -1047.4786376953125 872.2723388671875 324.9999694824219
v -1047.4786376953125 847.2222900390625 324.9999694824219
v -1047.4786376953125 -27.752716064453125 -0.024960657581686974
v -1072.5286865234375 -27.752716064453125 -0.024961750954389572
v -1047.4786376953125 -27.752685546875 325.0250244140625
v -1072.5286865234375 -27.752685546875 325.0250244140625
v -1072.503662109375 -27.72771644592285 -0.02496175281703472
v -1072.503662109375 -52.77771759033203 -0.024959564208984375
v -1072.503662109375 -27.727685928344727 325.0250244140625
v -1072.503662109375 -52.777687072753906 325.0250244140625
v -1072.5286865234375 -52.752716064453125 -0.024959566071629524
v -1047.4786376953125 -52.752716064453125 -0.024958472698926926
v -1072.5286865234375 -52.752685546875 325.0250244140625
v -1047.4786376953125 -52.752685546875 325.0250244140625
v -1047.503662109375 -52.77771759033203 -0.024958470836281776
v -1047.503662109375 -27.72771644592285 -0.024960659444332123
v -1047.503662109375 -52.777687072753906 325.0250244140625
v -1047.503662109375 -27.727685928344727 325.0250244140625
v -1072.5286865234375 -27.727685928344727 325.0000305175781
v -1072.5286865234375 -52.777687072753906 325.0000305175781
v -1047.4786376953125 -27.727685928344727 325.0000305175781
v -1047.4786376953125 -52.777687072753906 325.0000305175781
v -1047.4786376953125 -477.7527160644531 -0.024921318516135216
v -1072.5286865234375 -477.7527160644531 -0.024922410026192665
v -1047.4786376953125 -477.7527160644531 325.02508544921875
v -1072.5286865234375 -477.7527160644531 325.02508544921875
v -1072.503662109375 -477.72772216796875 -0.024922410026192665
v -1072.503662109375 -502.7777099609375 -0.024920225143432617
v -1072.503662109375 -477.72772216796875 325.02508544921875
v -1072.503662109375 -502.7777099609375 325.02508544921875
v -1072.5286865234375 -502.7527160644531 -0.024920225143432617
v -1047.4786376953125 -502.7527160644531 -0.02491913177073002
v -1072.5286865234375 -502.7527160644531 325.02508544921875
v -1047.4786376953125 -502.7527160644531 325.02508544921875
v -1047.503662109375 -502.7777099609375 -0.02491913177073002
v -1047.503662109375 -477.72772216796875 -0.024921318516135216
v -1047.503662109375 -502.7777099609375 325.02508544921875
v -1047.503662109375 -477.72772216796875 325.02508544921875
v -1072.5286865234375 -477.72772216796875 325.0000915527344
v -1072.5286865234375 -502.7777099609375 325.0000915527344
v -1047.4786376953125 -477.72772216796875 325.0000915527344
v -1047.4786376953125 -502.7777099609375 325.0000915527344
v -1047.4786376953125 -927.752685546875 -0.02488197758793831
v -1072.5286865234375 -927.752685546875 -0.024883070960640907
v -1047.4786376953125 -927.752685546875 325.0251159667969
v -1072.5286865234375 -927.752685546875 325.0251159667969
v -1072.503662109375 -927.7276611328125 -0.024883070960640907
v -1072.503662109375 -952.7777099609375 -0.02488088421523571
v -1072.503662109375 -927.7276611328125 325.0251159667969
v -1072.503662109375 -952.7777099609375 325.0251159667969
v -1072.5286865234375 -952.752685546875 -0.02488088421523571
v -1047.4786376953125 -952.752685546875 -0.02487979270517826
v -1072.5286865234375 -952.752685546875 325.0251159667969
v -1047.4786376953125 -952.752685546875 325.0251159667969
v -1047.503662109375 -952.7777099609375 -0.02487979270517826
v -1047.503662109375 -927.7276611328125 -0.02488197758793831
v -1047.503662109375 -952.7777099609375 325.0251159667969
v -1047.503662109375 -927.7276611328125 325.0251159667969
v -1072.5286865234375 -927.7276611328125 325.0001220703125
v -1072.5286865234375 -952.7777099609375 325.0001220703125
v -1047.4786376953125 -927.7276611328125 325.0001220703125
v -1047.4786376953125 -952.7777099609375 325.0001220703125
v -1047.4786376953125 1322.247314453125 -0.025078678503632545
v -1072.5286865234375 1322.247314453125 -0.025079771876335144
v -1047.4786376953125 1322.247314453125 325.02490234375
v -1072.5286865234375 1322.247314453125 325.02490234375
v -1072.503662109375 1322.2723388671875 -0.025079771876335144
v -1072.503662109375 1297.2222900390625 -0.025077586993575096
v -1072.503662109375 1322.2723388671875 325.02490234375
v -1072.503662109375 1297.2222900390625 325.02490234375
v -1072.5286865234375 1297.247314453125 -0.025077586993575096
v -1047.4786376953125 1297.247314453125 -0.025076493620872498
v -1072.5286865234375 1297.247314453125 325.02490234375
v -1047.4786376953125 1297.247314453125 325.02490234375
v -1047.503662109375 1297.2222900390625 -0.025076493620872498
v -1047.503662109375 1322.2723388671875 -0.025078678503632545
v -1047.503662109375 1297.2222900390625 325.02490234375
v -1047.503662109375 1322.2723388671875 325.02490234375
v -1072.5286865234375 1322.2723388671875 324.9999084472656
v -1072.5286865234375 1297.2222900390625 324.9999084472656
v -1047.4786376953125 1322.2723388671875 324.9999084472656
v -1047.4786376953125 1297.2222900390625 324.9999084472656
v -772.4786376953125 422.2472839355469 -0.024987978860735893
v -792.5238037109375 422.2472839355469 -0.024988854303956032
v -772.4786376953125 422.2473449707031 395.0249938964844
v -792.5238037109375 422.247314453125 395.0249938964844
v -792.498779296875 422.27227783203125 -0.02498885616660118
v -792.498779296875 397.2222900390625 -0.024986665695905685
v -792.498779296875 422.2723083496094 395.0249938964844
v -792.498779296875 397.2223205566406 395.0249938964844
v -792.5238037109375 397.2472839355469 -0.024986667558550835
v -772.4786376953125 397.2472839355469 -0.024985793977975845
v -792.5238037109375 397.247314453125 395.0249938964844
v -772.4786376953125 397.247314453125 395.0249938964844
v -792.5238037109375 422.2723083496094 395.0
v -792.5238037109375 397.2223205566406 395.0
v -772.4786376953125 422.2723388671875 395.0
v -772.4786376953125 397.2223205566406 395.0
v -772.4786376953125 872.247314453125 -0.025027316063642502
v -787.5311279296875 872.247314453125 -0.02502797544002533
v -772.4786987304688 872.247314453125 395.02496337890625
v -787.5311279296875 872.247314453125 395.02496337890625
v -787.506103515625 872.2723388671875 -0.02502797544002533
v -787.506103515625 847.2222900390625 -0.02502579055726528
v -787.506103515625 872.2723388671875 395.02496337890625
v -787.506103515625 847.2222900390625 395.02496337890625
v -787.5311279296875 847.247314453125 -0.02502579055726528
v -772.4786376953125 847.247314453125 -0.025025131180882454
v -787.5311279296875 847.247314453125 395.02496337890625
v -772.4786987304688 847.247314453125 395.02496337890625
v -787.5311279296875 872.2723388671875 394.9999694824219
v -787.5311279296875 847.2222900390625 394.9999694824219
v -772.4786987304688 872.2723388671875 394.9999694824219
v -772.4786987304688 847.2222900390625 394.9999694824219
v -772.4786376953125 -27.752716064453125 -0.024948639795184135
v -787.531005859375 -27.752716064453125 -0.024949299171566963
v -772.4786376953125 -27.752655029296875 395.0250244140625
v -787.5310668945312 -27.752655029296875 395.0250244140625
v -787.5059814453125 -27.72771644592285 -0.024949299171566963
v -787.5059814453125 -52.77771759033203 -0.02494710683822632
v -787.5060424804688 -27.7276554107666 395.0250244140625
v -787.5060424804688 -52.77765655517578 395.0250244140625
v -787.531005859375 -52.752716064453125 -0.024947114288806915
v -772.4786376953125 -52.752716064453125 -0.02494645304977894
v -787.5310668945312 -52.752655029296875 395.0250244140625
v -772.4786376953125 -52.752655029296875 395.0250244140625
v -787.5310668945312 -27.7276554107666 395.0000305175781
v -787.5310668945312 -52.77765655517578 395.0000305175781
v -772.4786376953125 -27.7276554107666 395.0000305175781
v -772.4786376953125 -52.77765655517578 395.0000305175781
v -772.4786376953125 -477.7527160644531 -0.02490929886698723
v -787.531005859375 -477.7527160644531 -0.024909958243370056
v -772.4786376953125 -477.7526550292969 395.02508544921875
v -787.5310668945312 -477.7526550292969 395.02508544921875
v -787.5059814453125 -477.72772216796875 -0.024909958243370056
v -787.5059814453125 -502.7777099609375 -0.02490776591002941
v -787.5060424804688 -477.7276611328125 395.02508544921875
v -787.5060424804688 -502.77764892578125 395.02508544921875
v -787.531005859375 -502.7527160644531 -0.024907773360610008
v -772.4786376953125 -502.7527160644531 -0.02490711398422718
v -787.5310668945312 -502.7526550292969 395.02508544921875
v -772.4786376953125 -502.7526550292969 395.02508544921875
v -787.5310668945312 -477.7276611328125 395.0000915527344
v -787.5310668945312 -502.77764892578125 395.0000915527344
v -772.4786376953125 -477.7276611328125 395.0000915527344
v -772.4786376953125 -502.77764892578125 395.0000915527344
v -772.4785766601562 -927.752685546875 -0.024869956076145172
v -787.531005859375 -927.752685546875 -0.024870615452528
v -772.4786376953125 -927.752685546875 395.0251159667969
v -787.531005859375 -927.752685546875 395.0251159667969
v -787.5059814453125 -927.7276611328125 -0.024870615452528
v -787.5059814453125 -952.7777099609375 -0.024868428707122803
v -787.5059814453125 -927.7276611328125 395.0251159667969
v -787.5059814453125 -952.7777099609375 395.0251159667969
v -787.531005859375 -952.752685546875 -0.024868428707122803
v -772.4785766601562 -952.752685546875 -0.024867769330739975
v -787.531005859375 -952.752685546875 395.0251159667969
v -772.4786376953125 -952.752685546875 395.0251159667969
v -787.531005859375 -927.7276611328125 395.0001220703125
v -787.531005859375 -952.7777099609375 395.0001220703125
v -772.4786376953125 -927.7276611328125 395.0001220703125
v -772.4786376953125 -952.7777099609375 395.0001220703125
v -772.4786376953125 1322.247314453125 -0.02506665699183941
v -787.5311279296875 1322.247314453125 -0.025067316368222237
v -772.4786987304688 1322.247314453125 395.02490234375
v -787.5311279296875 1322.247314453125 395.02490234375
v -787.506103515625 1322.2723388671875 -0.025067316368222237
v -787.506103515625 1297.2222900390625 -0.02506512962281704
v -787.506103515625 1322.2723388671875 395.02490234375
v -787.506103515625 1297.2222900390625 395.02490234375
v -787.5311279296875 1297.247314453125 -0.02506512962281704
v -772.4786376953125 1297.247314453125 -0.02506447024643421
v -787.5311279296875 1297.247314453125 395.02490234375
v -772.4786987304688 1297.247314453125 395.02490234375
v -787.5311279296875 1322.2723388671875 394.9999084472656
v -787.5311279296875 1297.2222900390625 394.9999084472656
v -772.4786987304688 1322.2723388671875 394.9999084472656
v -772.4786987304688 1297.2222900390625 394.9999084472656
v 427.4713439941406 947.247314453125 -0.02498142048716545
v 1077.5213623046875 947.2474365234375 -0.02495300956070423
v 427.4713439941406 947.247314453125 10.025018692016602
v 1077.5213623046875 947.2474365234375 10.025046348571777
v 1077.496337890625 947.222412109375 -0.02495300956070423
v 1077.496337890625 1247.2724609375 -0.024979235604405403
v 1077.496337890625 947.222412109375 10.025046348571777
v 1077.496337890625 1247.2724609375 10.025019645690918
v 1077.5213623046875 1247.2474365234375 -0.024979237467050552
v 27.471338272094727 1247.247314453125 -0.025025134906172752
v 1077.5213623046875 1247.2474365234375 10.025019645690918
v 27.471338272094727 1247.247314453125 10.02497386932373
v 27.521337509155273 847.247314453125 -0.02499016560614109
v -822.5285034179688 847.247314453125 -0.0250273197889328
v 27.521337509155273 847.247314453125 10.025009155273438
v -822.5285034179688 847.247314453125 10.024971961975098
v -822.503662109375 847.2723388671875 -0.0250273197889328
v -822.503662109375 447.2222900390625 -0.02499235048890114
v -822.503662109375 847.2723388671875 10.024971961975098
v -822.503662109375 447.2222900390625 10.025007247924805
v -822.5286865234375 447.2472839355469 -0.02499235048890114
v 27.521093368530273 447.2473449707031 -0.02495519630610943
v -822.5286865234375 447.2472839355469 10.025007247924805
v 27.521093368530273 447.2473449707031 10.025044441223145
v 27.471338272094727 447.22235107421875 10.000044822692871
v 27.471338272094727 247.2223358154297 10.000061988830566
v 427.5213317871094 947.2222900390625 10.000019073486328
v 27.471338272094727 847.2723388671875 10.000009536743164
v 27.471338272094727 1247.2723388671875 9.999974250793457
v 1077.5213623046875 1247.2724609375 10.000020027160645
v 427.5213317871094 247.22235107421875 10.000080108642578
v 1077.5213623046875 947.222412109375 10.000046730041504
v -822.5286865234375 847.2723388671875 9.999972343444824
v -822.5286865234375 447.2222900390625 10.000007629394531
v 1027.4713134765625 -252.75265502929688 -0.024850288406014442
v 1052.5213623046875 -252.75259399414062 -0.024849196895956993
v 1027.4713134765625 -252.75253295898438 800.025146484375
v 1052.5213623046875 -252.75253295898438 800.0252075195312
v 1052.496337890625 -252.777587890625 -0.024849193170666695
v 1052.496337890625 -116.72911834716797 -0.024861084297299385
v 1052.496337890625 -116.72911834716797 259.6751403808594
v 1052.496337890625 6.720910549163818 259.67510986328125
v 1052.496337890625 -252.77752685546875 800.0252075195312
v 1052.496337890625 6.720880031585693 -0.02487187646329403
v 1052.496337890625 247.27236938476562 -0.024892907589673996
v 1052.496337890625 247.27244567871094 800.025146484375
v 1052.5213623046875 247.24737548828125 -0.024892907589673996
v 1027.4713134765625 247.24737548828125 -0.024894000962376595
v 1052.5213623046875 247.24745178222656 800.025146484375
v 1027.4713134765625 247.24745178222656 800.0250854492188
v 1045.5377197265625 -116.77912139892578 259.70013427734375
v 1052.5213623046875 6.770910739898682 259.7001037597656
v 1052.5213623046875 -116.77912139892578 259.70013427734375
v 1045.5377197265625 6.770910739898682 259.7001037597656
v 1045.5377197265625 -116.77918243408203 0.00013861294428352267
v 1052.5213623046875 -116.77912139892578 0.00013891819980926812
v 1052.5213623046875 6.770880222320557 0.00012811711349058896
v 1045.5377197265625 6.770880222320557 0.0001278118579648435
v 1045.5377197265625 -116.75411987304688 259.7251281738281
v 1052.5213623046875 -116.75411987304688 -0.024861086159944534
v 1045.5377197265625 -116.75418090820312 -0.02486138790845871
v 1052.5213623046875 -116.75411987304688 259.7251281738281
v 1045.5377197265625 6.74591064453125 259.72509765625
v 1045.5377197265625 6.745880126953125 -0.0248721856623888
v 1052.5213623046875 6.745880126953125 -0.024871882051229477
v 1052.5213623046875 6.74591064453125 259.72509765625
v 1027.4713134765625 -1352.7525634765625 -0.024754123762249947
v 1052.5213623046875 -1352.7525634765625 -0.024753030389547348
v 1027.4713134765625 -1352.7525634765625 800.0252685546875
v 1052.5213623046875 -1352.7525634765625 800.0253295898438
v 1052.496337890625 -1352.777587890625 -0.024753034114837646
v 1052.496337890625 -852.7275390625 -0.0247967466711998
v 1052.496337890625 -1352.777587890625 800.0253295898438
v 1052.496337890625 -852.7275390625 800.0252685546875
v 1052.5213623046875 -852.7525634765625 -0.0247967429459095
v 1027.4713134765625 -852.7525634765625 -0.02479783445596695
v 1052.5213623046875 -852.7525634765625 800.0252685546875
v 1027.4713134765625 -852.7525634765625 800.0252075195312
v -1077.4964599609375 1327.2650146484375 304.97491455078125
v -1077.496337890625 -1357.7825927734375 304.97515869140625
v -1077.4964599609375 1327.2650146484375 310.02490234375
v -1077.496337890625 -1357.7825927734375 310.025146484375
v -772.4714965820312 -1357.757568359375 394.97613525390625
v -1077.5284423828125 -1357.757568359375 310.0241394042969
v -1077.5142822265625 -1357.757568359375 304.9761657714844
v -772.4856567382812 -1357.757568359375 400.0241394042969
v -772.5036010742188 -1357.7825927734375 394.9751281738281
v -772.5037231445312 1327.2650146484375 394.9748840332031
v -772.5036010742188 -1357.7825927734375 400.025146484375
v -772.5037231445312 1327.2650146484375 400.02490234375
v -772.4857788085938 1327.239990234375 400.0238952636719
v -772.4716186523438 1327.239990234375 394.97589111328125
v -1077.528564453125 1327.239990234375 310.0238952636719
v -1077.514404296875 1327.239990234375 304.9759216308594
v -1077.5203857421875 1327.2650146484375 304.9928283691406
v -772.479736328125 1327.2650146484375 395.0069580078125
v -1077.520263671875 -1357.7825927734375 304.9930725097656
v -772.4796142578125 -1357.7825927734375 395.0072021484375
v -1077.5203857421875 1327.2650146484375 309.9928283691406
v -1077.520263671875 -1357.7825927734375 309.9930725097656
v -772.479736328125 1327.2650146484375 400.0069885253906
v -772.4796142578125 -1357.7825927734375 400.0072326660156
v -1067.498779296875 1317.2674560546875 279.97491455078125
v -1067.4986572265625 -1357.7825927734375 279.97515869140625
v -1067.498779296875 1317.2674560546875 290.02490234375
v -1067.4986572265625 -1357.7825927734375 290.025146484375
v -1067.523681640625 -1357.757568359375 279.97515869140625
v -1052.4713134765625 -1357.757568359375 279.97515869140625
v -1067.523681640625 -1357.757568359375 290.025146484375
v -1052.4713134765625 -1357.757568359375 290.025146484375
v -1052.496337890625 -1357.7825927734375 279.97515869140625
v -1052.4964599609375 1302.2650146484375 279.97491455078125
v -1052.496337890625 -1357.7825927734375 290.025146484375
v -1052.4964599609375 1302.2650146484375 290.02490234375
v -1052.521484375 1302.239990234375 279.97491455078125
v -782.4761962890625 1302.239990234375 279.97491455078125
v -1052.521484375 1302.239990234375 290.02490234375
v -782.4761962890625 1302.239990234375 290.02490234375
v -782.501220703125 1302.2149658203125 279.97491455078125
v -782.501220703125 1317.2674560546875 279.97491455078125
v -782.501220703125 1302.2149658203125 290.02490234375
v -782.501220703125 1317.2674560546875 290.02490234375
v -782.4761962890625 1317.242431640625 279.97491455078125
v -1067.5238037109375 1317.242431640625 279.97491455078125
v -782.4761962890625 1317.242431640625 290.02490234375
v -1067.5238037109375 1317.242431640625 290.02490234375
v -1067.51123046875 1317.2548828125 279.9999084472656
v -1052.51416015625 1302.197265625 279.9999084472656
v -1067.523681640625 -1357.7825927734375 280.0001525878906
v -782.4761962890625 1317.2674560546875 279.9999084472656
v -1052.4713134765625 -1357.7825927734375 280.0001525878906
v -782.4761962890625 1302.2149658203125 279.9999084472656
v -1067.51123046875 1317.2548828125 289.9999084472656
v -1067.523681640625 -1357.7825927734375 290.0001525878906
v -1052.4537353515625 1302.2576904296875 289.9999084472656
v -782.4761962890625 1317.2674560546875 289.9999084472656
v -1052.4713134765625 -1357.7825927734375 290.0001525878906
v -782.4761962890625 1302.2149658203125 289.9999084472656
v 1027.4713134765625 1247.247314453125 -0.0249814223498106
v 1052.5213623046875 1247.2474365234375 -0.02498033083975315
v 1027.4713134765625 1247.2474365234375 400.0250244140625
v 1052.5213623046875 1247.2474365234375 400.0250244140625
v 1052.496337890625 1247.222412109375 -0.02498033083975315
v 1052.496337890625 1347.2724609375 -0.024989072233438492
v 1052.496337890625 1247.222412109375 400.0250244140625
v 1052.496337890625 1347.2724609375 400.0249938964844
v 1052.5213623046875 1347.2474365234375 -0.024989072233438492
v 1027.4713134765625 1347.247314453125 -0.02499016560614109
v 1052.5213623046875 1347.2474365234375 400.0249938964844
v 1027.4713134765625 1347.2474365234375 400.0249938964844
v 1027.4713134765625 847.222412109375 400.00006103515625
v 1052.5213623046875 1247.2724609375 400.0000305175781
v 1052.5213623046875 847.222412109375 400.00006103515625
v 1027.4713134765625 1247.2724609375 400.0000305175781
v 1027.4713134765625 847.2474365234375 399.9750671386719
v 1052.5213623046875 847.2474365234375 399.9750671386719
v 1027.4713134765625 847.2474365234375 800.0250244140625
v 1052.5213623046875 847.2474365234375 800.0250854492188
v 1052.496337890625 847.222412109375 399.9750671386719
v 1052.496337890625 1347.2724609375 399.9750061035156
v 1052.496337890625 847.222412109375 800.0250854492188
v 1052.496337890625 1347.2724609375 800.0250854492188
v 1052.5213623046875 1347.2474365234375 399.9750061035156
v 1027.4713134765625 1347.2474365234375 399.9750061035156
v 1052.5213623046875 1347.2474365234375 800.0250854492188
v 1027.4713134765625 1347.2474365234375 800.0250244140625
v -1067.498779296875 1317.2674560546875 299.97491455078125
v -1067.4986572265625 -1357.7825927734375 299.97515869140625
v -1067.498779296875 1317.2674560546875 310.02490234375
v -1067.4986572265625 -1357.7825927734375 310.025146484375
v -1067.523681640625 -1357.757568359375 299.97515869140625
v -1052.4713134765625 -1357.757568359375 299.97515869140625
v -1067.523681640625 -1357.757568359375 310.025146484375
v -1052.4713134765625 -1357.757568359375 310.025146484375
v -1052.496337890625 -1357.7825927734375 299.97515869140625
v -1052.4964599609375 1302.2650146484375 299.97491455078125
v -1052.496337890625 -1357.7825927734375 310.025146484375
v -1052.4964599609375 1302.2650146484375 310.02490234375
v -1052.521484375 1302.239990234375 299.97491455078125
v -782.4761962890625 1302.239990234375 299.97491455078125
v -1052.521484375 1302.239990234375 310.02490234375
v -782.4761962890625 1302.239990234375 310.02490234375
v -782.501220703125 1302.2149658203125 299.97491455078125
v -782.501220703125 1317.2674560546875 299.97491455078125
v -782.501220703125 1302.2149658203125 310.02490234375
v -782.501220703125 1317.2674560546875 310.02490234375
v -782.4761962890625 1317.242431640625 299.97491455078125
v -1067.5238037109375 1317.242431640625 299.97491455078125
v -782.4761962890625 1317.242431640625 310.02490234375
v -1067.5238037109375 1317.242431640625 310.02490234375
v -1067.51123046875 1317.2548828125 299.9999084472656
v -1052.4537353515625 1302.2576904296875 299.9999084472656
v -1067.523681640625 -1357.7825927734375 300.0001525878906
v -782.4761962890625 1317.2674560546875 299.9999084472656
v -1052.4713134765625 -1357.7825927734375 300.0001525878906
v -782.4761962890625 1302.2149658203125 299.9999084472656
v -1067.51123046875 1317.2548828125 309.9999084472656
v -1067.523681640625 -1357.7825927734375 310.0001525878906
v -1052.4537353515625 1302.2576904296875 309.9999084472656
v -782.4761962890625 1317.2674560546875 309.9999084472656
v -1052.4713134765625 -1357.7825927734375 310.0001525878906
v -782.4761962890625 1302.2149658203125 309.9999084472656
v -772.4786987304688 1357.757568359375 373.0615234375
v -822.5287475585938 1357.757568359375 373.0615234375
v -772.4786987304688 1357.757568359375 400.61151123046875
v -822.5287475585938 1357.757568359375 400.61151123046875
v -822.5037231445312 1357.7825927734375 373.0615234375
v -822.5036010742188 -1352.7777099609375 373.061767578125
v -822.5037231445312 1357.7825927734375 400.61151123046875
v -822.5036010742188 -1352.7777099609375 400.61175537109375
v -822.5286254882812 -1352.752685546875 373.061767578125
v -772.4785766601562 -1352.752685546875 373.061767578125
v -822.5286254882812 -1352.752685546875 400.61175537109375
v -772.4785766601562 -1352.752685546875 400.61175537109375
v -822.5287475585938 1357.7825927734375 373.0865173339844
v -772.4786987304688 1357.7825927734375 373.0865173339844
v -822.5286254882812 -1352.7777099609375 373.0867614746094
v -772.4785766601562 -1352.7777099609375 373.0867614746094
v -822.5287475585938 1357.7825927734375 400.5865173339844
v -822.5286254882812 -1352.7777099609375 400.5867614746094
v -772.4786987304688 1357.7825927734375 400.5865173339844
v -772.4785766601562 -1352.7777099609375 400.5867614746094
v -772.503662109375 847.2723388671875 9.9749755859375
v -772.503662109375 752.2149658203125 9.974984169006348
v -772.503662109375 847.2723388671875 265.02496337890625
v -772.503662109375 752.2149658203125 265.02496337890625
v -772.5286865234375 752.239990234375 9.974984169006348
v -722.4786376953125 752.239990234375 9.97498607635498
v -772.5286865234375 752.239990234375 265.02496337890625
v -722.4786376953125 752.239990234375 265.02496337890625
v -722.503662109375 752.2149658203125 9.97498607635498
v -722.503662109375 847.2723388671875 9.974977493286133
v -722.503662109375 752.2149658203125 265.02496337890625
v -722.503662109375 847.2723388671875 265.02496337890625
v -772.5286865234375 752.2650146484375 264.9999694824219
v -722.4786376953125 752.2650146484375 264.9999694824219
v -772.5286865234375 447.2223205566406 265.0
v -722.4786376953125 447.2223205566406 265.0
v -772.503662109375 847.2723388671875 264.9749755859375
v -772.503662109375 447.2223205566406 264.9750061035156
v -772.5037231445312 847.2723388671875 375.02496337890625
v -772.503662109375 447.2223205566406 375.0249938964844
v -722.503662109375 447.2223205566406 264.9750061035156
v -722.503662109375 847.2723388671875 264.9749755859375
v -722.503662109375 447.22235107421875 375.0249938964844
v -722.5037231445312 847.2723388671875 375.02496337890625
v -722.5287475585938 847.2723388671875 374.9999694824219
v 27.521337509155273 847.2723999023438 375.0000305175781
v -722.5286865234375 447.22235107421875 375.0
v 27.521337509155273 447.2223815917969 375.00006103515625
v -772.5037231445312 847.2723388671875 374.9749755859375
v -772.503662109375 447.2223205566406 374.9750061035156
v -772.5037231445312 847.2723388671875 400.02496337890625
v -772.503662109375 447.22235107421875 400.0249938964844
v -772.5537109375 847.247314453125 399.9999694824219
v -772.5286865234375 447.22235107421875 400.0
v 27.546337127685547 847.2473754882812 400.0000305175781
v 27.521337509155273 447.2223815917969 400.00006103515625
v -722.4786376953125 547.247314453125 9.975004196166992
v -772.5286865234375 547.247314453125 9.97500228881836
v -722.4786376953125 547.247314453125 265.0249938964844
v -772.5286865234375 547.247314453125 265.0249938964844
v -772.503662109375 547.2723388671875 9.97500228881836
v -772.503662109375 447.2222900390625 9.975010871887207
v -772.503662109375 547.2723388671875 265.0249938964844
v -772.503662109375 447.2223205566406 265.0249938964844
v -722.503662109375 447.2223205566406 9.97501277923584
v -722.503662109375 547.2723388671875 9.975004196166992
v -722.503662109375 447.2223205566406 265.0249938964844
v -722.503662109375 547.2723388671875 265.0249938964844
v -697.4786376953125 -852.752685546875 399.97515869140625
v -797.5286254882812 -852.752685546875 399.9751281738281
v -697.4786376953125 -852.7525634765625 800.025146484375
v -797.5286865234375 -852.7525634765625 800.025146484375
v -797.5036010742188 -852.7276611328125 399.9751281738281
v -797.5036010742188 -952.7777099609375 399.9751281738281
v -797.503662109375 -852.7275390625 800.025146484375
v -797.503662109375 -952.777587890625 800.025146484375
v -797.5286254882812 -952.752685546875 399.9751281738281
v -697.4786376953125 -952.752685546875 399.97515869140625
v -797.5286865234375 -952.7525634765625 800.025146484375
v -697.4786376953125 -952.7525634765625 800.025146484375
v -697.503662109375 -952.7777099609375 399.97515869140625
v -697.503662109375 -852.7276611328125 399.97515869140625
v -697.503662109375 -952.777587890625 800.025146484375
v -697.503662109375 -852.7275390625 800.025146484375
v -697.4786987304688 947.247314453125 399.9749755859375
v -797.5287475585938 947.247314453125 399.9749450683594
v -697.4786987304688 947.247314453125 800.0249633789062
v -797.5287475585938 947.247314453125 800.0249633789062
v -797.5037231445312 947.2723388671875 399.9749450683594
v -797.503662109375 847.2222900390625 399.9749755859375
v -797.5037231445312 947.2723388671875 800.0249633789062
v -797.5037231445312 847.2223510742188 800.0249633789062
v -797.5286865234375 847.247314453125 399.9749755859375
v -697.4786987304688 847.247314453125 399.9750061035156
v -797.5287475585938 847.2473754882812 800.0249633789062
v -697.4786987304688 847.2473754882812 800.0249633789062
v -697.5037231445312 847.2222900390625 399.9750061035156
v -697.5037231445312 947.2723388671875 399.9749755859375
v -697.5037231445312 847.2223510742188 800.0249633789062
v -697.5037231445312 947.2723388671875 800.0249633789062
v -697.4786376953125 247.24732971191406 399.9750671386719
v -797.5286865234375 247.24732971191406 399.97503662109375
v -697.4786376953125 247.24737548828125 800.0250244140625
v -797.5286865234375 247.2473602294922 800.0250244140625
v -797.503662109375 247.27232360839844 399.97503662109375
v -797.503662109375 147.22235107421875 399.97503662109375
v -797.503662109375 247.27235412597656 800.0250244140625
v -797.503662109375 147.22238159179688 800.0250244140625
v -797.5286865234375 147.24734497070312 399.97503662109375
v -697.4786376953125 147.24734497070312 399.9750671386719
v -797.5286865234375 147.24737548828125 800.0250244140625
v -697.4786376953125 147.24737548828125 800.0250244140625
v -697.503662109375 147.22235107421875 399.9750671386719
v -697.503662109375 247.27232360839844 399.9750671386719
v -697.503662109375 147.22238159179688 800.0250244140625
v -697.503662109375 247.27236938476562 800.0250244140625
v -697.4786376953125 -152.75265502929688 399.97509765625
v -797.5286865234375 -152.75265502929688 399.9750671386719
v -697.4786376953125 -152.75265502929688 800.0250854492188
v -797.5286865234375 -152.75265502929688 800.0250854492188
v -797.503662109375 -152.7276611328125 399.9750671386719
v -797.503662109375 -252.77764892578125 399.9750671386719
v -797.503662109375 -152.7276611328125 800.0250854492188
v -797.503662109375 -252.77764892578125 800.0250854492188
v -797.5286865234375 -252.75265502929688 399.9750671386719
v -697.4786376953125 -252.75265502929688 399.97509765625
v -797.5286865234375 -252.75265502929688 800.0250854492188
v -697.4786376953125 -252.75265502929688 800.0250854492188
v -697.503662109375 -252.77764892578125 399.97509765625
v -697.503662109375 -152.7276611328125 399.97509765625
v -697.503662109375 -252.77764892578125 800.0250854492188
v -697.503662109375 -152.7276611328125 800.0250854492188
v -697.4786376953125 -1252.752685546875 399.9751892089844
v -797.5286254882812 -1252.752685546875 399.97515869140625
v -697.4786376953125 -1252.7525634765625 800.025146484375
v -797.5286254882812 -1252.7525634765625 800.025146484375
v -797.5036010742188 -1252.7276611328125 399.97515869140625
v -797.5036010742188 -1352.7777099609375 399.97515869140625
v -797.5036010742188 -1252.7275390625 800.025146484375
v -797.5036010742188 -1352.777587890625 800.0252075195312
v -797.5286254882812 -1352.752685546875 399.97515869140625
v -697.4785766601562 -1352.752685546875 399.9751892089844
v -797.5286254882812 -1352.7525634765625 800.0252075195312
v -697.4785766601562 -1352.7525634765625 800.0252075195312
v -697.5036010742188 -1352.7777099609375 399.9751892089844
v -697.503662109375 -1252.7276611328125 399.9751892089844
v -697.5036010742188 -1352.777587890625 800.0252075195312
v -697.503662109375 -1252.7275390625 800.025146484375
v 27.471338272094727 297.2697448730469 374.9888916015625
v 427.5213317871094 297.2697448730469 374.9888916015625
v 27.471338272094727 -552.77490234375 800.0112915039062
v 427.5213317871094 -552.77490234375 800.0112915039062
v 27.471338272094727 297.2223815917969 375.00006103515625
v 427.5213317871094 947.222412109375 375.0
v 427.5213317871094 297.2223815917969 375.00006103515625
v 977.5213623046875 1247.2724609375 375.0000305175781
v 977.5213623046875 947.222412109375 375.0000305175781
v 27.471338272094727 1247.2723388671875 375.0
v -697.4786987304688 1347.247314453125 399.9749450683594
v -797.5287475585938 1347.247314453125 399.97491455078125
v -697.4786987304688 1347.247314453125 800.0249633789062
v -797.5287475585938 1347.247314453125 800.0249633789062
v -797.5037231445312 1347.2723388671875 399.97491455078125
v -797.5037231445312 1247.2222900390625 399.9749450683594
v -797.5037231445312 1347.2723388671875 800.0249633789062
v -797.5037231445312 1247.2222900390625 800.0249633789062
v -797.5287475585938 1247.247314453125 399.9749450683594
v -697.4786987304688 1247.247314453125 399.9749755859375
v -797.5287475585938 1247.247314453125 800.0249633789062
v -697.4786987304688 1247.247314453125 800.0249633789062
v -697.5037231445312 1247.2222900390625 399.9749755859375
v -697.5037231445312 1347.2723388671875 399.9749450683594
v -697.5037231445312 1247.2222900390625 800.0249633789062
v -697.5037231445312 1347.2723388671875 800.0249633789062
v 1027.4713134765625 847.2473754882812 -0.02494645304977894
v 1052.5213623046875 847.2473754882812 -0.02494536153972149
v 1027.4713134765625 847.2474365234375 400.0250549316406
v 1052.5213623046875 847.2474365234375 400.0250549316406
v 1052.496337890625 847.2223510742188 -0.02494535595178604
v 1052.496337890625 947.2724609375 -0.02495410107076168
v 1052.496337890625 847.222412109375 400.0250549316406
v 1052.496337890625 947.2724609375 400.0250244140625
v 1052.5213623046875 947.2474365234375 -0.02495410293340683
v 1027.4713134765625 947.247314453125 -0.02495519630610943
v 1052.5213623046875 947.2474365234375 400.0250244140625
v 1027.4713134765625 947.2474365234375 400.0250244140625
v 1027.4713134765625 847.222412109375 400.00006103515625
v 1052.5213623046875 847.222412109375 400.00006103515625
v 1052.5213623046875 947.2724609375 400.0000305175781
v 1027.4713134765625 947.2724609375 400.0000305175781
v 1027.496337890625 947.222412109375 9.975045204162598
v 1027.496337890625 992.267578125 9.975041389465332
v 1027.496337890625 947.222412109375 265.0250244140625
v 1027.496337890625 992.267578125 265.0250244140625
v 1027.5213623046875 992.2425537109375 9.975041389465332
v 977.4713134765625 992.242431640625 9.9750394821167
v 1027.5213623046875 992.2425537109375 265.0250244140625
v 977.4713134765625 992.2425537109375 265.0250244140625
v 977.496337890625 992.2674560546875 9.9750394821167
v 977.496337890625 947.2222900390625 9.975043296813965
v 977.496337890625 992.267578125 265.0250244140625
v 977.496337890625 947.222412109375 265.0250244140625
v 1027.4713134765625 947.222412109375 265.0000305175781
v 1037.5189208984375 1247.2724609375 265.0000305175781
v 1037.5189208984375 947.222412109375 265.0000305175781
v 977.4713134765625 1247.2724609375 265.0000305175781
v 1027.4713134765625 992.217529296875 265.0000305175781
v 977.4713134765625 992.217529296875 265.0000305175781
v 1037.493896484375 947.222412109375 264.97503662109375
v 1037.493896484375 1247.2724609375 264.97503662109375
v 1037.493896484375 947.222412109375 520.0250244140625
v 1037.493896484375 1247.2724609375 520.0250244140625
v 977.496337890625 1247.2724609375 264.97503662109375
v 977.496337890625 947.222412109375 264.97503662109375
v 977.496337890625 1247.2724609375 520.0250244140625
v 977.496337890625 947.222412109375 520.0250244140625
v 977.4713134765625 1202.2401123046875 9.975020408630371
v 1027.5213623046875 1202.2401123046875 9.975022315979004
v 977.4713134765625 1202.2401123046875 265.0250244140625
v 1027.5213623046875 1202.2401123046875 265.0250244140625
v 1027.496337890625 1202.215087890625 9.975022315979004
v 1027.496337890625 1247.2724609375 9.975018501281738
v 1027.496337890625 1202.215087890625 265.0250244140625
v 1027.496337890625 1247.2724609375 265.0250244140625
v 977.496337890625 1247.2723388671875 9.975016593933105
v 977.496337890625 1202.215087890625 9.975020408630371
v 977.496337890625 1247.2724609375 265.0250244140625
v 977.496337890625 1202.215087890625 265.0250244140625
v 977.4713134765625 1202.215087890625 265.0000305175781
v 1027.5213623046875 1202.215087890625 265.0000305175781
v 1027.5213623046875 1247.2724609375 265.0000305175781
v 977.4713134765625 1247.2724609375 265.0000305175781
v -772.503662109375 1347.2723388671875 -0.025068845599889755
v -772.503662109375 847.2222900390625 -0.025025134906172752
v -772.503662109375 1286.0650634765625 100.02494049072266
v -772.503662109375 1286.0650634765625 299.9749450683594
v -772.503662109375 886.1151123046875 299.9749755859375
v -772.5037231445312 1347.2723388671875 400.02490234375
v -772.5037231445312 847.2222900390625 400.02496337890625
v -772.503662109375 886.1151123046875 100.02497863769531
v -772.5286865234375 847.247314453125 -0.02502513863146305
v 27.521337509155273 847.247314453125 -0.02499016560614109
v -772.5287475585938 847.247314453125 400.02496337890625
v 27.521337509155273 847.2473754882812 400.0250244140625
v 27.496337890625 847.2222900390625 -0.024990161880850792
v 27.496337890625 1247.2723388671875 -0.025025134906172752
v 27.496337890625 847.2223510742188 400.0250244140625
v 27.496337890625 1247.2723388671875 400.0249938964844
v 27.471338272094727 1247.247314453125 -0.02502513863146305
v 1027.5213623046875 1247.247314453125 -0.0249814260751009
v 27.471338272094727 1247.247314453125 400.0249938964844
v 1027.5213623046875 1247.2474365234375 400.0250244140625
v 1027.496337890625 1247.2222900390625 -0.024981414899230003
v 1027.496337890625 1347.2723388671875 -0.024990173056721687
v 1027.496337890625 1247.222412109375 400.0250244140625
v 1027.496337890625 1347.2724609375 400.0249938964844
v 427.5328063964844 -502.72760009765625 400.0001525878906
v 27.483545303344727 -552.7777099609375 400.0001525878906
v 427.5335388183594 -552.777587890625 400.0001525878906
v 27.482812881469727 -502.7276611328125 400.0001525878906
v 427.5328063964844 -502.7525939941406 375.60015869140625
v 27.482812881469727 -502.7526550292969 400.025146484375
v 427.5328063964844 -502.7525939941406 400.025146484375
v 27.482812881469727 -502.7526550292969 375.60015869140625
v 427.5320739746094 -452.72760009765625 375.6251525878906
v 27.482812881469727 -502.77764892578125 375.6251525878906
v 427.5328063964844 -502.777587890625 375.6251525878906
v 27.482080459594727 -452.7276611328125 375.6251525878906
v 427.5320739746094 -452.7525939941406 351.22515869140625
v 27.482080459594727 -452.7526550292969 375.650146484375
v 427.5320739746094 -452.7525939941406 375.650146484375
v 27.482080459594727 -452.7526550292969 351.22515869140625
v 427.5312194824219 -402.72760009765625 351.2501220703125
v 27.482080459594727 -452.77764892578125 351.2501525878906
v 427.5320739746094 -452.777587890625 351.2501525878906
v 27.481225967407227 -402.7276611328125 351.2501220703125
v 427.5312194824219 -402.7525939941406 326.8501281738281
v 27.481225967407227 -402.7526550292969 351.2751159667969
v 427.5312194824219 -402.7525939941406 351.2751159667969
v 27.481225967407227 -402.7526550292969 326.8501281738281
v 427.5304870605469 -352.72760009765625 326.8751220703125
v 27.481225967407227 -402.77764892578125 326.8751220703125
v 427.5312194824219 -402.777587890625 326.8751220703125
v 27.480493545532227 -352.7276611328125 326.8751220703125
v 427.5304870605469 -352.7526550292969 302.4751281738281
v 27.480493545532227 -352.7526550292969 326.9001159667969
v 427.5304870605469 -352.7525939941406 326.9001159667969
v 27.480493545532227 -352.7526550292969 302.4751281738281
v 427.5297546386719 -302.7276611328125 302.5001220703125
v 27.480493545532227 -352.77764892578125 302.5001220703125
v 427.5304870605469 -352.77764892578125 302.5001220703125
v 27.479761123657227 -302.7276611328125 302.5001220703125
v 427.5297546386719 -302.7526550292969 278.1001281738281
v 27.479761123657227 -302.7526550292969 302.5251159667969
v 427.5297546386719 -302.7526550292969 302.5251159667969
v 27.479761123657227 -302.7526550292969 278.1001281738281
v 427.5289001464844 -252.7276611328125 278.1251220703125
v 27.479761123657227 -302.77764892578125 278.1251220703125
v 427.5297546386719 -302.77764892578125 278.1251220703125
v 27.478906631469727 -252.7276611328125 278.1251220703125
v 427.5289001464844 -252.75265502929688 253.72511291503906
v 27.478906631469727 -252.75265502929688 278.1501159667969
v 427.5289001464844 -252.75265502929688 278.1501159667969
v 27.478906631469727 -252.75265502929688 253.72509765625
v 427.5281677246094 -202.7276611328125 253.75010681152344
v 27.478906631469727 -252.77764892578125 253.75009155273438
v 427.5289001464844 -252.77764892578125 253.75010681152344
v 27.478174209594727 -202.7276611328125 253.75009155273438
v 427.5281677246094 -202.75265502929688 229.35011291503906
v 27.478174209594727 -202.75265502929688 253.77508544921875
v 427.5281677246094 -202.75265502929688 253.7751007080078
v 27.478174209594727 -202.75265502929688 229.35009765625
v 427.5274353027344 -152.7276611328125 229.37509155273438
v 27.478174209594727 -202.77764892578125 229.37509155273438
v 427.5281677246094 -202.77764892578125 229.37510681152344
v 27.477441787719727 -152.7276611328125 229.3750762939453
v 427.5274353027344 -152.75265502929688 204.97511291503906
v 27.477441787719727 -152.75265502929688 229.4000701904297
v 427.5274353027344 -152.75265502929688 229.40008544921875
v 27.477441787719727 -152.75265502929688 204.97509765625
v 427.5267028808594 -102.72765350341797 205.0000762939453
v 27.477441787719727 -152.77764892578125 205.00009155273438
v 427.5274353027344 -152.77764892578125 205.00010681152344
v 27.476709365844727 -102.72765350341797 205.00006103515625
v 427.5267028808594 -102.75265502929688 180.60009765625
v 27.476709365844727 -102.75265502929688 205.02505493164062
v 427.5267028808594 -102.75265502929688 205.0250701904297
v 27.476709365844727 -102.75265502929688 180.60008239746094
v 427.5259704589844 -52.727622985839844 180.6251220703125
v 27.476709365844727 -102.77765655517578 180.6250762939453
v 427.5267028808594 -102.77765655517578 180.62509155273438
v 27.475976943969727 -52.72765350341797 180.62510681152344
v 427.5259704589844 -52.75262451171875 156.22511291503906
v 27.475976943969727 -52.752655029296875 180.6501007080078
v 427.5259704589844 -52.75262451171875 180.65011596679688
v 27.475976943969727 -52.752655029296875 156.22509765625
v 427.5251159667969 -2.7276241779327393 156.25009155273438
v 27.475976943969727 -52.77765655517578 156.25009155273438
v 427.5259704589844 -52.77762222290039 156.25010681152344
v 27.475122451782227 -2.7276554107666016 156.2500762939453
v 427.5251159667969 -2.752655029296875 131.85008239746094
v 27.475122451782227 -2.752655029296875 156.2750701904297
v 427.5251159667969 -2.75262451171875 156.27508544921875
v 27.475122451782227 -2.752655029296875 131.85006713867188
v 427.5243835449219 47.27240753173828 131.8750762939453
v 27.475122451782227 -2.7776553630828857 131.87506103515625
v 427.5251159667969 -2.7776546478271484 131.8750762939453
v 27.474390029907227 47.27234649658203 131.87506103515625
v 427.5243835449219 47.247406005859375 107.4750747680664
v 27.474390029907227 47.247344970703125 131.90005493164062
v 427.5243835449219 47.247406005859375 131.9000701904297
v 27.474390029907227 47.247344970703125 107.47505950927734
v 427.5236511230469 97.27234649658203 107.5000991821289
v 27.474390029907227 47.22234344482422 107.50006103515625
v 427.5243835449219 47.22240447998047 107.50007629394531
v 27.473657608032227 97.27234649658203 107.50008392333984
v 427.5236511230469 97.24734497070312 83.10008239746094
v 27.473657608032227 97.24734497070312 107.52508544921875
v 427.5236511230469 97.24734497070312 107.52510070800781
v 27.473657608032227 97.24734497070312 83.10006713867188
v 427.5227966308594 147.2723388671875 83.12507629394531
v 27.473657608032227 97.22234344482422 83.12506866455078
v 427.5236511230469 97.22234344482422 83.12508392333984
v 27.472803115844727 147.2723388671875 83.12506103515625
v 427.5227966308594 147.24734497070312 58.72507095336914
v 27.472803115844727 147.24734497070312 83.15006256103516
v 427.5227966308594 147.24734497070312 83.15007781982422
v 27.472803115844727 147.24734497070312 58.72505187988281
v 427.5220642089844 197.27235412597656 58.750091552734375
v 27.472803115844727 147.22235107421875 58.75005340576172
v 427.5227966308594 147.22235107421875 58.75007247924805
v 27.472070693969727 197.27232360839844 58.75007247924805
v 427.5220642089844 197.24734497070312 34.35008239746094
v 27.472070693969727 197.24732971191406 58.77507400512695
v 427.5220642089844 197.2473602294922 58.77509307861328
v 27.472070693969727 197.24732971191406 34.35006332397461
v 427.5213317871094 247.2723388671875 34.37508010864258
v 27.472070693969727 197.2223358154297 34.375064849853516
v 427.5220642089844 197.22235107421875 34.375083923339844
v 27.471338272094727 247.27232360839844 34.37506103515625
v 427.5213317871094 247.24734497070312 9.97507095336914
v 27.471338272094727 247.24732971191406 34.400062561035156
v 427.5213317871094 247.24734497070312 34.400081634521484
v 27.471338272094727 247.24732971191406 9.975052833557129
v -72.50372314453125 1347.29736328125 399.99993896484375
v 27.521337509155273 1247.2222900390625 400.0
v 1027.5213623046875 1347.2724609375 400.0
v -772.5287475585938 1347.2723388671875 399.9999084472656
v 1027.5213623046875 1247.222412109375 400.0000305175781
v -772.5286254882812 -1352.7777099609375 400.0001525878906
v -722.4786987304688 1347.2723388671875 399.9999084472656
v -722.4785766601562 -1352.7777099609375 400.0001525878906
v -772.5287475585938 1347.2723388671875 399.9999084472656
v -772.5286254882812 -1352.752685546875 399.97515869140625
v -722.4785766601562 -1352.752685546875 399.97515869140625
v -772.5286254882812 -1352.752685546875 490.025146484375
v -722.4785766601562 -1352.752685546875 490.025146484375
v -722.5036010742188 -1352.7777099609375 399.97515869140625
v -722.5037231445312 1347.2723388671875 399.97491455078125
v -722.5036010742188 -1352.7777099609375 490.025146484375
v -722.5037231445312 1347.2723388671875 490.02490234375
v -722.4786987304688 1347.247314453125 399.97491455078125
v -772.5287475585938 1347.247314453125 399.97491455078125
v -722.4786987304688 1347.247314453125 490.02490234375
v -772.5287475585938 1347.247314453125 490.02490234375
v -772.5037231445312 1347.2723388671875 399.97491455078125
v -772.5036010742188 -1352.7777099609375 399.97515869140625
v -772.5037231445312 1347.2723388671875 490.02490234375
v -772.5036010742188 -1352.7777099609375 490.025146484375
v -772.5287475585938 1247.6251220703125 489.99993896484375
v -722.4786987304688 1247.6251220703125 489.99993896484375
v -722.4786987304688 1347.2723388671875 489.9999084472656
v -772.5287475585938 1347.2723388671875 489.9999084472656
v -772.5286865234375 -1253.0450439453125 490.0001525878906
v -772.5286254882812 -1352.7777099609375 490.0001525878906
v -722.4786376953125 -1253.0450439453125 490.0001525878906
v -722.4785766601562 -1352.7777099609375 490.0001525878906
v -722.5287475585938 1247.6751708984375 489.99993896484375
v -717.4737548828125 1247.6751708984375 489.99993896484375
v -722.5286865234375 -1253.0950927734375 490.0001525878906
v -717.4736938476562 -1253.0950927734375 490.0001525878906
v -777.521484375 1247.6751708984375 489.99993896484375
v -772.4786987304688 1247.6751708984375 489.99993896484375
v -777.5213623046875 -1253.0950927734375 490.0001525878906
v -772.4786376953125 -1253.0950927734375 490.0001525878906
v -717.4987182617188 -1253.0950927734375 489.97515869140625
v -717.498779296875 1247.6751708984375 489.9749450683594
v -717.4987182617188 -1253.0950927734375 500.025146484375
v -717.498779296875 1247.6751708984375 500.0249328613281
v -777.4964599609375 1247.6751708984375 489.9749450683594
v -777.496337890625 -1253.0950927734375 489.97515869140625
v -777.4964599609375 1247.6751708984375 500.0249328613281
v -777.496337890625 -1253.0950927734375 500.025146484375
v -777.5213623046875 -1253.0950927734375 500.0001525878906
v -717.4736938476562 -1253.0950927734375 500.0001525878906
v -717.4737548828125 1247.6751708984375 499.99993896484375
v -777.521484375 1247.6751708984375 499.99993896484375
v -772.503662109375 447.27227783203125 -0.02499016746878624
v -772.5035400390625 -1352.7777099609375 -0.024832801893353462
v -772.503662109375 447.2723388671875 400.0249938964844
v -772.5036010742188 -1352.7777099609375 400.025146484375
v 1027.496337890625 -1352.777587890625 -0.024754123762249947
v 1027.496337890625 947.2723388671875 -0.024955203756690025
v 1027.496337890625 -766.89990234375 84.60350036621094
v 1027.496337890625 -766.89990234375 308.5534973144531
v 1027.496337890625 -346.9500732421875 308.553466796875
v 1027.496337890625 -1352.777587890625 400.0252380371094
v 1027.496337890625 947.2724609375 400.0250244140625
v 1027.496337890625 -346.9500732421875 84.60346221923828
v 1027.5213623046875 947.247314453125 -0.02495519630610943
v 427.4713439941406 947.247314453125 -0.0249814223498106
v 1027.5213623046875 947.2474365234375 400.0250244140625
v 427.4713439941406 947.2474365234375 400.0249938964844
v 427.496337890625 947.2723388671875 -0.024981429800391197
v 427.508544921875 -552.7777099609375 -0.024850280955433846
v 427.496337890625 947.2724609375 400.0249938964844
v 427.508544921875 -552.777587890625 400.025146484375
v 27.508544921875 -552.7777099609375 -0.024867776781320572
v 27.520751953125 447.2723388671875 -0.024955200031399727
v 27.508544921875 -552.7777099609375 400.025146484375
v 27.520751953125 447.2723693847656 400.0250549316406
v 27.545751571655273 447.2473449707031 -0.02495519444346428
v -772.5286865234375 447.2472839355469 -0.02499016560614109
v 27.545751571655273 447.24737548828125 400.0250549316406
v -772.5286865234375 447.2473449707031 400.0249938964844
v 1017.4249267578125 -766.949951171875 308.5784912109375
v 1027.5213623046875 -346.90008544921875 308.5784606933594
v 1027.5213623046875 -766.949951171875 308.5784912109375
v 1017.4249267578125 -346.90008544921875 308.5784606933594
v 1017.4249267578125 -766.949951171875 84.57849884033203
v 1027.5213623046875 -766.949951171875 84.57849884033203
v 1027.5213623046875 -346.90008544921875 84.57846069335938
v 1017.4249267578125 -346.90008544921875 84.57846069335938
v 1017.4249267578125 -766.9249267578125 308.6034851074219
v 1027.5213623046875 -766.9249267578125 84.55349731445312
v 1017.4249267578125 -766.9249267578125 84.55349731445312
v 1027.5213623046875 -766.9249267578125 308.6034851074219
v 1017.4249267578125 -346.9250793457031 308.60345458984375
v 1017.4249267578125 -346.9250793457031 84.55345916748047
v 1027.5213623046875 -346.9250793457031 84.55345916748047
v 1027.5213623046875 -346.9250793457031 308.60345458984375
v -772.5286865234375 447.2723388671875 400.0
v -772.5286254882812 -1352.7777099609375 400.0001525878906
v 27.533544540405273 -552.7276611328125 400.0001525878906
v 27.545751571655273 447.2723693847656 400.00006103515625
v 1027.5213623046875 -1352.777587890625 400.000244140625
v 1027.5213623046875 947.2724609375 400.0000305175781
v 427.4835510253906 -552.7275390625 400.0001525878906
v 427.4713439941406 947.2724609375 400.0
v 27.496337890625 1347.2723388671875 399.9999694824219
v 427.4713439941406 297.2223815917969 400.00006103515625
v 27.471338272094727 297.2223815917969 400.00006103515625
v 1027.5213623046875 1347.2724609375 400.0
v 427.4714660644531 -1352.777587890625 400.0002136230469
v 1027.5213623046875 -1352.777587890625 400.000244140625
v -72.52872467041016 1347.2723388671875 399.99993896484375
v -72.52860260009766 -552.7777099609375 400.0001220703125
v 27.521337509155273 -552.7777099609375 400.0001525878906
v 27.496337890625 1347.2723388671875 399.9749755859375
v 27.496337890625 297.2223815917969 399.9750671386719
v 27.496337890625 1347.2724609375 800.0250244140625
v 27.496337890625 297.222412109375 800.0250854492188
v 427.496337890625 297.2723693847656 399.9750671386719
v 427.4964599609375 -1352.777587890625 399.9752197265625
v 427.496337890625 297.2724304199219 800.0250854492188
v 427.4964599609375 -1352.777587890625 800.0252685546875
v 1027.496337890625 -1352.777587890625 399.9752502441406
v 1027.496337890625 1347.2724609375 399.9750061035156
v 1027.496337890625 -1352.777587890625 800.0252685546875
v 1027.496337890625 1347.2724609375 800.0250244140625
v 27.471338272094727 1347.2724609375 800.0
v 27.471338272094727 297.222412109375 800.0000610351562
v 427.4713439941406 297.2224426269531 800.0000610351562
v 427.4714660644531 -1352.777587890625 800.000244140625
v 1027.5213623046875 1347.2724609375 800.0
v 1027.5213623046875 -1352.777587890625 800.000244140625
v -822.5287475585938 1347.2723388671875 799.9999389648438
v 1077.5213623046875 1347.2724609375 800.0000610351562
v -822.5286254882812 -1352.777587890625 800.0001831054688
v 1077.5213623046875 -1352.777587890625 800.0003051757812
v -822.5037231445312 1347.2723388671875 799.9749145507812
v -822.5036010742188 -1352.777587890625 799.9751586914062
v -822.5037231445312 1347.2723388671875 850.0249633789062
v -822.5036010742188 -1352.777587890625 850.0252075195312
v 1077.496337890625 -1352.777587890625 799.9752807617188
v 1077.496337890625 1347.2724609375 799.9750366210938
v 1077.496337890625 -1352.777587890625 850.0253295898438
v 1077.496337890625 1347.2724609375 850.0250854492188
v -723.3286743164062 1347.2724609375 960.0006103515625
v -721.2786254882812 -1352.777587890625 959.9495239257812
v -721.2787475585938 1347.2724609375 959.9492797851562
v -723.3285522460938 -1352.777587890625 960.0008544921875
v -723.2921752929688 1347.2724609375 937.5479736328125
v -723.3035888671875 -1352.777587890625 960.0252685546875
v -723.3037109375 1347.2724609375 960.0250244140625
v -723.2920532226562 -1352.777587890625 937.5482177734375
v -721.2672119140625 1347.2724609375 937.5223999023438
v -723.3170166015625 -1352.777587890625 937.5738525390625
v -723.317138671875 1347.2724609375 937.5736083984375
v -721.26708984375 -1352.777587890625 937.5226440429688
v -721.3037109375 1347.2724609375 959.9749145507812
v -721.2920532226562 -1352.777587890625 937.4982299804688
v -721.2921752929688 1347.2724609375 937.4979858398438
v -721.3035888671875 -1352.777587890625 959.9751586914062
v -723.3287353515625 1347.2724609375 897.199951171875
v -721.278564453125 -1352.777587890625 897.2001953125
v -721.2786865234375 1347.2724609375 897.199951171875
v -723.32861328125 -1352.777587890625 897.2001953125
v -723.3322143554688 1347.2724609375 886.95166015625
v -723.3035278320312 -1352.777587890625 897.2252197265625
v -723.3036499023438 1347.2724609375 897.2249755859375
v -723.3320922851562 -1352.777587890625 886.951904296875
v -721.30712890625 1347.2724609375 886.9766845703125
v -723.3570556640625 -1352.777587890625 886.9769287109375
v -723.357177734375 1347.2724609375 886.9766845703125
v -721.3070068359375 -1352.777587890625 886.9769287109375
v -721.3036499023438 1347.2724609375 897.2249755859375
v -721.3320922851562 -1352.777587890625 886.951904296875
v -721.3322143554688 1347.2724609375 886.95166015625
v -721.3035278320312 -1352.777587890625 897.2252197265625
v 978.3213500976562 -1352.777587890625 960.0009155273438
v 976.2713012695312 1347.2724609375 959.9493408203125
v 976.2714233398438 -1352.777587890625 959.9495849609375
v 978.3212280273438 1347.2724609375 960.0006713867188
v 978.284912109375 -1352.777587890625 937.5482788085938
v 978.2962646484375 1347.2724609375 960.0250854492188
v 978.29638671875 -1352.777587890625 960.0253295898438
v 978.2847900390625 1347.2724609375 937.5480346679688
v 976.2599487304688 -1352.777587890625 937.522705078125
v 978.3097534179688 1347.2724609375 937.5736694335938
v 978.3098754882812 -1352.777587890625 937.5739135742188
v 976.2598266601562 1347.2724609375 937.5224609375
v 976.29638671875 -1352.777587890625 959.9752197265625
v 976.2847900390625 1347.2724609375 937.498046875
v 976.284912109375 -1352.777587890625 937.498291015625
v 976.2962646484375 1347.2724609375 959.9749755859375
v 978.3214111328125 -1352.777587890625 897.2002563476562
v 976.271240234375 1347.2724609375 897.2000122070312
v 976.2713623046875 -1352.777587890625 897.2002563476562
v 978.3212890625 1347.2724609375 897.2000122070312
v 978.3248901367188 -1352.777587890625 886.9519653320312
v 978.2962036132812 1347.2724609375 897.2250366210938
v 978.2963256835938 -1352.777587890625 897.2252807617188
v 978.3247680664062 1347.2724609375 886.9517211914062
v 976.2999267578125 -1352.777587890625 886.9769897460938
v 978.3497314453125 1347.2724609375 886.9767456054688
v 978.349853515625 -1352.777587890625 886.9769897460938
v 976.2998046875 1347.2724609375 886.9767456054688
v 976.2963256835938 -1352.777587890625 897.2252807617188
v 976.3248901367188 1347.2724609375 886.9517211914062
v 976.3250122070312 -1352.777587890625 886.9519653320312
v 976.2962036132812 1347.2724609375 897.2250366210938
v -721.267822265625 1347.2474365234375 937.498046875
v -723.3178100585938 1347.2474365234375 937.5479736328125
v -721.278076171875 1347.2474365234375 959.9749145507812
v -723.3280639648438 1347.2474365234375 960.0249633789062
v -721.30712890625 1347.2474365234375 886.9515991210938
v -723.357177734375 1347.2474365234375 886.9517822265625
v -721.2786865234375 1347.2474365234375 897.224853515625
v -723.3287353515625 1347.2474365234375 897.2250366210938
v -721.2779541015625 -1352.7525634765625 959.9751586914062
v -723.3176879882812 -1352.7525634765625 937.5482177734375
v -721.2677001953125 -1352.7525634765625 937.498291015625
v -723.3279418945312 -1352.7525634765625 960.0252075195312
v -721.278564453125 -1352.7525634765625 897.22509765625
v -723.3570556640625 -1352.7525634765625 886.9520263671875
v -721.3070068359375 -1352.7525634765625 886.9518432617188
v -723.32861328125 -1352.7525634765625 897.2252807617188
v 976.2605590820312 -1352.7525634765625 937.4983520507812
v 978.310546875 -1352.7525634765625 937.5482788085938
v 976.270751953125 -1352.7525634765625 959.9752197265625
v 978.3207397460938 -1352.7525634765625 960.0252685546875
v 976.2999267578125 -1352.7525634765625 886.951904296875
v 978.349853515625 -1352.7525634765625 886.9520874023438
v 976.2713623046875 -1352.7525634765625 897.2251586914062
v 978.3214111328125 -1352.7525634765625 897.225341796875
v 976.2706298828125 1347.2474365234375 959.9749755859375
v 978.3104248046875 1347.2474365234375 937.5480346679688
v 976.2604370117188 1347.2474365234375 937.4981079101562
v 978.3206176757812 1347.2474365234375 960.0250244140625
v 976.271240234375 1347.2474365234375 897.2249145507812
v 978.3497314453125 1347.2474365234375 886.9518432617188
v 976.2998046875 1347.2474365234375 886.95166015625
v 978.3212890625 1347.2474365234375 897.22509765625
v -822.5287475585938 1347.2723388671875 849.9999389648438
v -822.5286254882812 -1352.777587890625 850.0001831054688
v 1077.5213623046875 1347.2724609375 850.0000610351562
v 1077.5213623046875 -1352.777587890625 850.0003051757812
v -72.50372314453125 1347.2723388671875 399.9749450683594
v -72.50372314453125 1144.5855712890625 399.9749755859375
v -72.5037841796875 1144.585693359375 730.77197265625
v -72.50372314453125 -135.077392578125 730.7720947265625
v -72.503662109375 -283.02734375 730.7720947265625
v -72.5037841796875 1347.2724609375 800.0250244140625
v -72.50372314453125 365.9960632324219 730.7720336914062
v -72.50372314453125 513.9459838867188 730.7720336914062
v -72.50372314453125 996.6357421875 730.77197265625
v -72.503662109375 996.6357421875 399.9749755859375
v -72.503662109375 513.9459838867188 399.97503662109375
v -72.503662109375 365.99603271484375 399.97503662109375
v -72.503662109375 -135.07745361328125 399.97509765625
v -72.50360107421875 -283.02740478515625 399.97509765625
v -72.50360107421875 -552.7777099609375 399.9751281738281
v -72.503662109375 -552.777587890625 800.025146484375
v -72.52860260009766 -552.752685546875 399.9751281738281
v 27.521337509155273 -552.752685546875 399.97515869140625
v -72.5286636352539 -552.7525634765625 800.025146484375
v 27.521337509155273 -552.7525634765625 800.025146484375
v 27.496337890625 -552.7777099609375 399.97515869140625
v 27.496337890625 1347.2723388671875 399.9749755859375
v 27.496337890625 -552.777587890625 800.025146484375
v 27.496337890625 1347.2724609375 800.0250244140625
v -772.503662109375 1286.1151123046875 99.97493743896484
v -772.503662109375 886.0650634765625 99.9749755859375
v -772.503662109375 886.0650634765625 300.02496337890625
v -772.503662109375 1286.1151123046875 300.0249328613281
v -1052.51416015625 1302.197265625 299.9999084472656
v -1052.4537353515625 1302.2576904296875 279.9999084472656
v -1052.51416015625 1302.197265625 309.9999084472656
v -1052.51416015625 1302.197265625 289.9999084472656
f 2 1 3
f 4 2 3
f 6 5 7
f 8 6 7
f 568 567 569
f 568 569 570
f 464 463 465
f 464 465 466
f 214 213 215
f 216 214 215
f 210 209 211
f 212 210 211
f 206 205 207
f 208 206 207
f 202 201 203
f 204 202 203
f 198 197 199
f 200 198 199
f 194 193 195
f 196 194 195
f 190 189 191
f 192 190 191
f 186 185 187
f 188 186 187
f 182 181 183
f 184 182 183
f 178 177 179
f 180 178 179
f 174 173 175
f 176 174 175
f 170 169 171
f 172 170 171
f 166 165 167
f 168 166 167
f 162 161 163
f 164 162 163
f 158 157 159
f 160 158 159
f 154 153 155
f 156 154 155
f 150 149 151
f 152 150 151
f 146 145 147
f 148 146 147
f 142 141 143
f 144 142 143
f 138 137 139
f 140 138 139
f 134 133 135
f 136 134 135
f 130 129 131
f 132 130 131
f 126 125 127
f 128 126 127
f 122 121 123
f 124 122 123
f 118 117 119
f 120 118 119
f 114 113 115
f 116 114 115
f 110 109 111
f 112 110 111
f 106 105 107
f 108 106 107
f 102 101 103
f 104 102 103
f 98 97 99
f 100 98 99
f 94 93 95
f 96 94 95
f 90 89 91
f 92 90 91
f 86 85 87
f 88 86 87
f 82 81 83
f 84 82 83
f 78 77 79
f 80 78 79
f 74 73 75
f 76 74 75
f 70 69 71
f 72 70 71
f 66 65 67
f 68 66 67
f 62 61 63
f 64 62 63
f 58 57 59
f 60 58 59
f 54 53 55
f 56 54 55
f 50 49 51
f 52 50 51
f 46 45 47
f 48 46 47
f 42 41 43
f 44 42 43
f 38 37 39
f 40 38 39
f 34 33 35
f 36 34 35
f 30 29 31
f 32 30 31
f 26 25 27
f 28 26 27
f 22 21 23
f 24 22 23
f 18 17 19
f 20 18 19
f 14 13 15
f 16 14 15
f 12 10 11
f 10 9 11
f 574 572 575
f 574 576 572
f 572 576 571
f 572 571 573
f 268 270 267
f 268 267 269
f 1053 1054 1052
f 1048 1047 1049
f 1049 1047 1052
f 1055 1049 1052
f 1054 1055 1052
f 1054 1057 1055
f 1057 1056 1055
f 1059 1058 1053
f 1050 1059 1053
f 1050 1053 1052
f 1051 1050 1052
f 1052 1062 1051
f 1051 1062 1061
f 1061 1060 1051
f 264 263 265
f 266 264 265
f 252 251 253
f 254 252 253
f 1068 1067 1069
f 1070 1068 1069
f 1064 1063 1065
f 1066 1064 1065
f 926 925 927
f 928 926 927
f 922 921 923
f 924 922 923
f 918 917 919
f 920 918 919
f 885 887 884
f 885 884 886
f 881 880 882
f 883 881 882
f 877 876 878
f 879 877 878
f 873 872 874
f 875 873 874
f 869 868 870
f 871 869 870
f 857 856 858
f 859 857 858
f 825 824 826
f 827 825 826
f 821 820 822
f 823 821 822
f 817 816 818
f 819 817 818
f 813 812 814
f 815 813 814
f 672 671 673
f 674 672 673
f 668 667 669
f 670 668 669
f 664 663 665
f 666 664 665
f 660 659 661
f 662 660 661
f 652 651 653
f 653 658 652
f 658 657 652
f 655 657 658
f 656 657 655
f 655 654 656
f 654 651 656
f 653 651 654
f 256 255 257
f 257 255 259
f 258 257 259
f 259 262 258
f 258 262 261
f 261 260 258
f 644 643 645
f 646 644 645
f 640 639 641
f 642 640 641
f 636 635 637
f 638 636 637
f 632 631 633
f 634 632 633
f 628 627 629
f 630 628 629
f 625 624 626
f 622 624 625
f 622 625 621
f 622 621 623
f 897 896 898
f 898 896 899
f 895 892 893
f 893 892 894
f 889 888 890
f 888 891 890
f 648 647 649
f 647 650 649
f 606 605 607
f 605 608 607
f 280 279 281
f 281 279 282
f 278 275 276
f 276 275 277
f 272 271 273
f 271 274 273
f 862 867 861
f 861 860 862
f 862 860 863
f 863 860 865
f 864 863 865
f 865 866 864
f 864 866 867
f 867 866 861
f 618 617 619
f 620 618 619
f 614 613 615
f 616 614 615
f 610 609 611
f 612 610 611
f 602 601 603
f 604 602 603
f 598 597 599
f 600 598 599
f 594 593 595
f 596 594 595
f 590 589 591
f 592 590 591
f 586 585 587
f 588 586 587
f 582 581 583
f 584 582 583
f 578 577 579
f 580 578 579
f 564 563 565
f 566 564 565
f 560 559 561
f 562 560 561
f 556 555 557
f 558 556 557
f 552 551 553
f 554 552 553
f 548 547 549
f 550 548 549
f 544 543 545
f 546 544 545
f 540 539 541
f 542 540 541
f 536 535 537
f 538 536 537
f 532 531 533
f 534 532 533
f 528 527 529
f 530 528 529
f 524 523 525
f 526 524 525
f 520 519 521
f 522 520 521
f 516 515 517
f 518 516 517
f 512 511 513
f 514 512 513
f 508 507 509
f 510 508 509
f 504 503 505
f 506 504 505
f 500 499 501
f 502 500 501
f 496 495 497
f 498 496 497
f 492 491 493
f 494 492 493
f 488 487 489
f 490 488 489
f 484 483 485
f 486 484 485
f 480 479 481
f 482 480 481
f 476 475 477
f 478 476 477
f 468 467 469
f 470 468 469
f 460 459 461
f 462 460 461
f 456 455 457
f 458 456 457
f 452 451 453
f 452 453 454
f 448 447 449
f 450 448 449
f 444 443 445
f 446 444 445
f 440 439 441
f 442 440 441
f 380 379 381
f 382 380 381
f 376 375 377
f 378 376 377
f 372 371 373
f 374 372 373
f 368 370 367
f 368 367 369
f 364 363 365
f 366 364 365
f 360 359 361
f 362 360 361
f 356 355 357
f 358 356 357
f 292 291 293
f 294 292 293
f 288 287 289
f 290 288 289
f 284 283 285
f 286 284 285
f 228 226 227
f 226 225 227
f 471 806 803
f 807 804 805
f 804 803 805
f 804 473 803
f 803 473 471
f 472 471 473
f 474 472 473
f 248 243 246
f 242 241 243
f 247 242 243
f 250 249 244
f 241 250 244
f 241 244 243
f 244 245 243
f 243 245 246
f 682 679 680
f 680 679 681
f 678 675 676
f 676 675 677
f 802 799 800
f 800 799 801
f 798 795 796
f 796 795 797
f 794 791 792
f 792 791 793
f 790 787 788
f 788 787 789
f 786 783 784
f 784 783 785
f 782 779 780
f 780 779 781
f 778 775 776
f 776 775 777
f 774 771 772
f 772 771 773
f 770 767 768
f 768 767 769
f 766 763 764
f 764 763 765
f 762 759 760
f 760 759 761
f 758 755 756
f 756 755 757
f 754 751 752
f 752 751 753
f 750 747 748
f 748 747 749
f 746 743 744
f 744 743 745
f 742 739 740
f 740 739 741
f 738 735 736
f 736 735 737
f 734 731 732
f 732 731 733
f 730 727 728
f 728 727 729
f 726 723 724
f 724 723 725
f 722 719 720
f 720 719 721
f 718 715 716
f 716 715 717
f 714 711 712
f 712 711 713
f 710 707 708
f 708 707 709
f 706 703 704
f 704 703 705
f 702 699 700
f 700 699 701
f 698 695 696
f 696 695 697
f 694 691 692
f 692 691 693
f 690 687 688
f 688 687 689
f 686 683 684
f 684 683 685
f 906 907 905
f 905 904 906
f 906 904 901
f 902 906 901
f 901 900 902
f 902 900 903
f 222 221 223
f 224 222 223
f 218 217 219
f 220 218 219
f 908 914 915
f 908 915 916
f 911 912 913
f 911 909 912
f 911 908 909
f 909 908 910
f 230 229 231
f 232 230 231
f 234 233 235
f 236 234 235
f 238 237 239
f 240 238 239
f 809 811 808
f 809 808 810
f 304 303 305
f 306 304 305
f 296 295 297
f 298 296 297
f 1044 1043 1045
f 1046 1044 1045
f 944 943 945
f 946 944 945
f 940 939 941
f 942 940 941
f 936 935 937
f 936 937 938
f 849 848 850
f 851 849 850
f 845 844 846
f 847 845 846
f 841 840 842
f 841 842 843
f 837 836 838
f 837 838 839
f 833 832 834
f 835 833 834
f 436 435 437
f 438 436 437
f 432 431 433
f 432 433 434
f 428 427 429
f 430 428 429
f 424 423 425
f 426 424 425
f 420 419 421
f 422 420 421
f 404 403 405
f 406 404 405
f 400 399 401
f 402 400 401
f 396 395 397
f 398 396 397
f 392 391 393
f 394 392 393
f 388 387 389
f 390 388 389
f 384 383 385
f 386 384 385
f 340 339 341
f 342 340 341
f 336 335 337
f 338 336 337
f 332 331 333
f 334 332 333
f 328 327 329
f 330 328 329
f 324 323 325
f 326 324 325
f 320 319 321
f 322 320 321
f 316 315 317
f 318 316 317
f 312 311 313
f 312 313 314
f 308 307 309
f 309 310 308
f 408 409 411
f 408 407 409
f 410 407 1075
f 410 1075 412
f 346 344 348
f 346 343 344
f 1076 343 345
f 1076 345 347
f 299 300 302
f 300 299 301
f 930 929 931
f 931 929 933
f 932 931 933
f 934 932 933
f 853 852 854
f 852 855 854
f 829 828 830
f 828 831 830
f 417 414 415
f 414 413 415
f 1077 413 416
f 418 1077 416
f 353 350 351
f 350 349 351
f 1078 349 352
f 354 1078 352
f 948 950 947
f 948 947 949
f 1032 1031 1033
f 1034 1032 1033
f 1028 1027 1029
f 1029 1030 1028
f 1016 1015 1017
f 1018 1016 1017
f 1012 1011 1013
f 1013 1014 1012
f 1008 1010 1007
f 1008 1007 1009
f 1004 1006 1003
f 1004 1003 1005
f 1000 1002 999
f 1000 999 1001
f 996 998 995
f 996 995 997
f 992 994 991
f 992 991 993
f 988 990 987
f 988 987 989
f 984 986 983
f 984 983 985
f 980 982 979
f 980 979 981
f 976 978 975
f 976 975 977
f 972 974 971
f 972 971 973
f 968 970 967
f 968 967 969
f 964 966 963
f 964 963 965
f 960 962 959
f 960 959 961
f 956 958 955
f 956 955 957
f 952 954 951
f 952 951 953
f 1019 1020 1022
f 1020 1019 1021
f 1026 1023 1024
f 1024 1023 1025
f 1035 1036 1038
f 1036 1035 1037
f 1042 1039 1040
f 1040 1039 1041
f 1072 1071 1073
f 1073 1071 1074
