# from WaterfrontDistrict_Block04_Generic_0001_LOD_0.pskx
v -187.39013671875 -7.629522800445557 1.749102466419572e-06
v -197.8881378173828 -7.629523277282715 1.2902203252451727e-06
v -187.39015197753906 -7.629500865936279 250.0
v -197.88815307617188 -7.6295013427734375 250.0
v -197.8881378173828 -7.629523277282715 1.2902203252451727e-06
v -199.89013671875 -10.131922721862793 1.4214767816156382e-06
v -197.88815307617188 -7.6295013427734375 250.0
v -199.89015197753906 -10.131900787353516 250.0
v -199.89013671875 -10.131922721862793 1.4214767816156382e-06
v -199.89013671875 -111.42591857910156 1.0276879038428888e-05
v -199.89013671875 -15.13192081451416 25.000001907348633
v -199.89015197753906 -15.131902694702148 225.0
v -199.89013671875 -105.13189697265625 225.00001525878906
v -199.89015197753906 -10.131900787353516 250.0
v -199.89013671875 -111.42589569091797 250.00001525878906
v -199.89013671875 -105.13191986083984 25.000009536743164
v -199.89013671875 -111.42591857910156 1.0276879038428888e-05
v -197.8881378173828 -112.6222152709961 1.0468973414390348e-05
v -199.89013671875 -111.42589569091797 249.99996948242188
v -197.8881378173828 -112.6221923828125 249.99996948242188
v -197.8881378173828 -112.6222152709961 1.0468973414390348e-05
v -199.89013671875 -113.5255126953125 1.0460432349645998e-05
v -197.8881378173828 -112.6221923828125 249.99996948242188
v -199.89013671875 -113.5254898071289 249.99996948242188
v -199.89013671875 -113.5255126953125 1.0460432349645998e-05
v -199.89012145996094 -215.12460327148438 1.9342505765962414e-05
v -199.89013671875 -118.5255126953125 25.00000762939453
v -199.89013671875 -118.5254898071289 224.99998474121094
v -199.89013671875 -208.5255126953125 224.99998474121094
v -199.89013671875 -113.5254898071289 249.99996948242188
v -199.89013671875 -215.12460327148438 249.99996948242188
v -199.89013671875 -208.5255126953125 25.000017166137695
v -199.89012145996094 -215.12460327148438 1.9342505765962414e-05
v -197.90042114257812 -217.62713623046875 1.964825605682563e-05
v -199.89013671875 -215.12460327148438 250.00001525878906
v -197.9004364013672 -217.62710571289062 250.00001525878906
v -197.90042114257812 -217.62713623046875 1.964825605682563e-05
v -187.39012145996094 -217.62713623046875 2.0107676391489804e-05
v -197.9004364013672 -217.62710571289062 250.00001525878906
v -187.39013671875 -217.62710571289062 250.00001525878906
v -199.89015197753906 -15.131902694702148 225.0
v -197.89015197753906 -15.131902694702148 225.0
v -199.89013671875 -105.13189697265625 225.00001525878906
v -197.89013671875 -105.13189697265625 225.00001525878906
v -199.89013671875 -15.13192081451416 25.000001907348633
v -199.89013671875 -105.13191986083984 25.000009536743164
v -197.89013671875 -15.13192081451416 25.000001907348633
v -197.89013671875 -105.13191986083984 25.000009536743164
v -197.89015197753906 -15.131902694702148 225.0
v -199.89013671875 -15.13192081451416 25.000001907348633
v -197.89013671875 -15.13192081451416 25.000001907348633
v -199.89015197753906 -15.131902694702148 225.0
v -197.89013671875 -105.13189697265625 225.00001525878906
v -197.89013671875 -105.13191986083984 25.000009536743164
v -199.89013671875 -105.13191986083984 25.000009536743164
v -199.89013671875 -105.13189697265625 225.00001525878906
v -199.89013671875 -118.5254898071289 224.99998474121094
v -197.89013671875 -118.5254898071289 224.99998474121094
v -199.89013671875 -208.5255126953125 224.99998474121094
v -197.89013671875 -208.5255126953125 224.99998474121094
v -199.89013671875 -118.5255126953125 25.00000762939453
v -199.89013671875 -208.5255126953125 25.000017166137695
v -197.89013671875 -118.5255126953125 25.00000762939453
v -197.89013671875 -208.5255126953125 25.000017166137695
v -197.89013671875 -118.5254898071289 224.99998474121094
v -199.89013671875 -118.5255126953125 25.00000762939453
v -197.89013671875 -118.5255126953125 25.00000762939453
v -199.89013671875 -118.5254898071289 224.99998474121094
v -197.89013671875 -208.5255126953125 224.99998474121094
v -197.89013671875 -208.5255126953125 25.000017166137695
v -199.89013671875 -208.5255126953125 25.000017166137695
v -199.89013671875 -208.5255126953125 224.99998474121094
v -202.3926544189453 -7.6295013427734375 250.0
v -199.89015197753906 -10.131900787353516 250.0
v -202.39263916015625 -217.62698364257812 250.00001525878906
v -197.88815307617188 -7.6295013427734375 250.0
v -199.89013671875 -111.42589569091797 250.00001525878906
v -199.89013671875 -113.5254898071289 250.00001525878906
v -199.89013671875 -215.12460327148438 250.00001525878906
v -197.90052795410156 -217.62698364257812 250.00001525878906
v -197.8881378173828 -112.6221923828125 250.00001525878906
v -202.3926544189453 -7.6295013427734375 250.0
v -202.39263916015625 -217.626953125 250.00001525878906
v -202.3926544189453 -7.629500865936279 255.0
v -202.39263916015625 -217.626953125 255.00001525878906
v -202.39263916015625 -217.62698364257812 250.00001525878906
v -187.39013671875 -217.62698364257812 250.00001525878906
v -202.39263916015625 -217.62698364257812 255.00001525878906
v -187.39013671875 -217.62698364257812 255.00001525878906
v -202.3926544189453 -7.6295013427734375 250.0
v -187.39015197753906 -7.629500389099121 255.0
v -202.3926544189453 -7.629500865936279 255.0
v -207.39744567871094 -2.624601364135742 255.0
v -202.3926544189453 -7.629500865936279 255.0
v -207.39744567871094 -222.63189697265625 255.00001525878906
v -187.39015197753906 -2.624600410461426 255.0
v -187.39013671875 -222.63189697265625 255.00001525878906
v -202.39263916015625 -217.62698364257812 255.00001525878906
v -187.39013671875 -217.62698364257812 255.00001525878906
v -187.39015197753906 -7.629500389099121 255.0
v -207.39744567871094 -2.624601364135742 255.0
v -207.39744567871094 -222.63189697265625 255.00001525878906
v -207.39744567871094 -7.624601364135742 260.0
v -207.39744567871094 -115.12459564208984 330.0
v -207.39744567871094 -217.62460327148438 330.0000305175781
v -207.39744567871094 -2.6245944499969482 335.0
v -207.39744567871094 -7.6245951652526855 330.0
v -207.39744567871094 -110.12458801269531 330.0
v -207.39744567871094 -222.63189697265625 335.0000305175781
v -207.39744567871094 -110.12459564208984 260.0
v -207.39744567871094 -217.62460327148438 260.0000305175781
v -207.39744567871094 -115.12460327148438 260.0
v -207.39744567871094 -222.63189697265625 255.00001525878906
v -187.39013671875 -222.63189697265625 255.00001525878906
v -207.39744567871094 -222.63189697265625 335.0000305175781
v -187.39013671875 -222.63189697265625 335.0000305175781
v -187.39015197753906 -2.624600410461426 255.0
v -207.39744567871094 -2.624601364135742 255.0
v -187.39015197753906 -2.624593496322632 335.0
v -207.39744567871094 -2.6245944499969482 335.0
v -207.39744567871094 -7.6245951652526855 330.0
v -197.39744567871094 -7.624594688415527 330.0
v -207.39744567871094 -110.12458801269531 330.0
v -197.39744567871094 -110.12458801269531 330.0
v -207.39744567871094 -7.624601364135742 260.0
v -207.39744567871094 -110.12459564208984 260.0
v -197.39744567871094 -7.624600887298584 260.0
v -197.39744567871094 -110.12459564208984 260.0
v -197.39744567871094 -7.624594688415527 330.0
v -207.39744567871094 -7.624601364135742 260.0
v -197.39744567871094 -7.624600887298584 260.0
v -207.39744567871094 -7.6245951652526855 330.0
v -197.39744567871094 -110.12458801269531 330.0
v -197.39744567871094 -110.12459564208984 260.0
v -207.39744567871094 -110.12459564208984 260.0
v -207.39744567871094 -110.12458801269531 330.0
v -207.39744567871094 -115.12459564208984 330.0
v -197.39744567871094 -115.12459564208984 330.0
v -207.39744567871094 -217.62460327148438 330.0000305175781
v -197.39744567871094 -217.62460327148438 330.0000305175781
v -207.39744567871094 -115.12460327148438 260.0
v -207.39744567871094 -217.62460327148438 260.0000305175781
v -197.39744567871094 -115.12460327148438 260.0
v -197.39744567871094 -217.62460327148438 260.0000305175781
v -197.39744567871094 -115.12459564208984 330.0
v -207.39744567871094 -115.12460327148438 260.0
v -197.39744567871094 -115.12460327148438 260.0
v -207.39744567871094 -115.12459564208984 330.0
v -197.39744567871094 -217.62460327148438 330.0000305175781
v -197.39744567871094 -217.62460327148438 260.0000305175781
v -207.39744567871094 -217.62460327148438 260.0000305175781
v -207.39744567871094 -217.62460327148438 330.0000305175781
v -207.39744567871094 -2.6245944499969482 335.0
v -207.39744567871094 -222.63189697265625 335.0000305175781
v -187.39015197753906 -2.624593496322632 335.0
v -187.39013671875 -222.63189697265625 335.0000305175781
v -202.3925323486328 -0.12212327867746353 4.370089925487264e-07
v -202.3925323486328 -7.617221832275391 1.0922512956312858e-06
v -202.39254760742188 -0.12210098654031754 255.0
v -202.39254760742188 -7.617199420928955 255.0
v -202.3925323486328 -7.617223262786865 1.0922514093181235e-06
v -187.39013671875 -7.617222785949707 1.748027216308401e-06
v -202.39254760742188 -7.61720085144043 255.0
v -187.39015197753906 -7.6172003746032715 255.0
v -187.39013671875 -0.122122623026371 1.0927847142738756e-06
v -202.3925323486328 -0.12212327867746353 4.370089925487264e-07
v -187.39015197753906 -0.122100330889225 255.0
v -202.39254760742188 -0.12210098654031754 255.0
v -202.39254760742188 -0.12210098654031754 255.0
v -202.39254760742188 -7.61720085144043 255.0
v -187.39015197753906 -0.122100330889225 255.0
v -187.39015197753906 -7.6172003746032715 255.0
v -187.39012145996094 -217.62704467773438 2.0107667296542786e-05
v -202.3925323486328 -217.62704467773438 1.9451890693744645e-05
v -187.39013671875 -217.62701416015625 255.00001525878906
v -202.3925323486328 -217.62701416015625 255.00001525878906
v -202.3925323486328 -217.62704467773438 1.9451890693744645e-05
v -202.3925323486328 -225.12213134765625 2.0107134332647547e-05
v -202.3925323486328 -217.62701416015625 255.00001525878906
v -202.3925323486328 -225.12210083007812 255.00001525878906
v -202.3925323486328 -225.12213134765625 2.0107134332647547e-05
v -187.39012145996094 -225.12213134765625 2.076291093544569e-05
v -202.3925323486328 -225.12210083007812 255.00001525878906
v -187.39013671875 -225.12210083007812 255.00001525878906
v -202.3925323486328 -225.12210083007812 255.00001525878906
v -187.39013671875 -225.12210083007812 255.00001525878906
v -187.39013671875 -217.62701416015625 255.00001525878906
v -202.3925323486328 -217.62701416015625 255.00001525878906
v -212.39013671875 -0.12212371826171875 0.0
v -187.39015197753906 -0.12209334224462509 335.0
v -212.39015197753906 -0.12209443002939224 335.0
v -212.39013671875 -0.12212371826171875 0.0
v -212.39013671875 -2.6245174407958984 2.1876620337479835e-07
v -212.39015197753906 -0.12209443002939224 334.99993896484375
v -212.39015197753906 -2.624488115310669 334.99993896484375
v -212.39013671875 -2.6245174407958984 2.1876620337479835e-07
v -187.39013671875 -2.624516248703003 1.3115509318595286e-06
v -212.39015197753906 -2.624488115310669 335.0
v -187.39015197753906 -2.6244869232177734 335.0
v -212.39015197753906 -2.624488115310669 335.0
v -187.39015197753906 -2.6244869232177734 335.0
v -212.39013671875 -225.12210083007812 335.0000305175781
v -187.39013671875 -225.12210083007812 335.0000305175781
v -212.39015197753906 -0.12209443002939224 335.0
v -212.39013671875 -225.12210083007812 335.0000305175781
v -212.39015197753906 -0.12209399789571762 340.0
v -212.39013671875 -225.12210083007812 340.0000305175781
v -212.39013671875 -225.12210083007812 335.0000305175781
v -187.39013671875 -225.12210083007812 335.0000305175781
v -212.39013671875 -225.12210083007812 340.0000305175781
v -187.39013671875 -225.12210083007812 340.0000305175781
v -187.39015197753906 -0.12209290266036987 340.0
v -212.39015197753906 -0.12209399789571762 340.0
v -212.39015197753906 -0.12209399789571762 340.0
v -212.39013671875 -225.12210083007812 340.0000305175781
v -187.39015197753906 -0.12209290266036987 340.0
v -187.39013671875 -225.12210083007812 340.0000305175781
v -187.39012145996094 -222.61972045898438 2.0544144717860036e-05
v -212.39012145996094 -222.61972045898438 1.945135954883881e-05
v -187.39013671875 -222.61968994140625 335.0000305175781
v -212.39013671875 -222.61968994140625 335.0000305175781
v -212.39012145996094 -222.61972045898438 1.945135954883881e-05
v -212.39012145996094 -225.12213134765625 1.9670125766424462e-05
v -212.39013671875 -222.61968994140625 335.0000305175781
v -212.39012145996094 -225.12213134765625 1.9670125766424462e-05
v -212.39013671875 -225.12210083007812 335.0000305175781
v -187.39013671875 -225.12210083007812 335.0000305175781
v -187.39013671875 -222.61968994140625 335.0000305175781
v -212.39013671875 -222.61968994140625 335.0000305175781
v -204.89503479003906 -128.52789306640625 100.00000762939453
v -204.89503479003906 -131.03030395507812 100.00001525878906
v -204.89503479003906 -128.52789306640625 102.50000762939453
v -204.89503479003906 -131.03030395507812 102.50001525878906
v -204.89503479003906 -131.03030395507812 100.00001525878906
v -197.3877410888672 -131.03030395507812 100.00001525878906
v -204.89503479003906 -131.03030395507812 102.50001525878906
v -197.3877410888672 -131.03030395507812 102.50001525878906
v -197.3877410888672 -131.03030395507812 100.00001525878906
v -197.3877410888672 -128.52789306640625 100.00000762939453
v -197.3877410888672 -131.03030395507812 102.50001525878906
v -197.3877410888672 -128.52789306640625 102.50000762939453
v -197.3877410888672 -128.52789306640625 100.00000762939453
v -204.89503479003906 -128.52789306640625 100.00000762939453
v -197.3877410888672 -128.52789306640625 102.50000762939453
v -204.89503479003906 -128.52789306640625 102.50000762939453
v -202.39263916015625 -131.03030395507812 102.50001525878906
v -197.3877410888672 -131.03030395507812 102.50001525878906
v -197.3877410888672 -128.52789306640625 102.50000762939453
v -202.39263916015625 -128.52789306640625 102.50000762939453
v -204.89503479003906 -128.52789306640625 152.50001525878906
v -204.89503479003906 -131.03030395507812 152.50001525878906
v -202.39263916015625 -131.03030395507812 102.50001525878906
v -204.89503479003906 -131.03030395507812 152.50001525878906
v -202.39263916015625 -131.03030395507812 152.50001525878906
v -202.39263916015625 -131.03030395507812 102.50001525878906
v -202.39263916015625 -128.52789306640625 102.50000762939453
v -202.39263916015625 -131.03030395507812 152.50001525878906
v -202.39263916015625 -128.52789306640625 152.50001525878906
v -202.39263916015625 -128.52789306640625 102.50000762939453
v -202.39263916015625 -128.52789306640625 152.50001525878906
v -204.89503479003906 -128.52789306640625 152.50001525878906
v -202.39263916015625 -131.03030395507812 152.50001525878906
v -197.3877410888672 -128.52789306640625 152.50001525878906
v -197.3877410888672 -131.03030395507812 152.50001525878906
v -202.39263916015625 -128.52789306640625 152.50001525878906
v -204.89503479003906 -128.52789306640625 155.00001525878906
v -204.89503479003906 -131.03030395507812 155.00001525878906
v -197.3877410888672 -131.03030395507812 152.50001525878906
v -204.89503479003906 -131.03030395507812 155.00001525878906
v -197.3877410888672 -131.03030395507812 155.00001525878906
v -197.3877410888672 -131.03030395507812 152.50001525878906
v -197.3877410888672 -128.52789306640625 152.50001525878906
v -197.3877410888672 -131.03030395507812 155.00001525878906
v -197.3877410888672 -128.52789306640625 155.00001525878906
v -197.3877410888672 -128.52789306640625 152.50001525878906
v -197.3877410888672 -128.52789306640625 155.00001525878906
v -204.89503479003906 -128.52789306640625 155.00001525878906
v -204.89503479003906 -128.52789306640625 155.00001525878906
v -204.89503479003906 -131.03030395507812 155.00001525878906
v -197.3877410888672 -128.52789306640625 155.00001525878906
v -197.3877410888672 -131.03030395507812 155.00001525878906
v -204.89503479003906 -93.53031158447266 100.00000762939453
v -204.89503479003906 -96.03271484375 100.00000762939453
v -204.89503479003906 -93.53031158447266 102.50000762939453
v -204.89503479003906 -96.03271484375 102.50000762939453
v -204.89503479003906 -96.03271484375 100.00000762939453
v -197.3877410888672 -96.03271484375 100.00000762939453
v -204.89503479003906 -96.03271484375 102.50000762939453
v -197.3877410888672 -96.03271484375 102.50000762939453
v -197.3877410888672 -96.03271484375 100.00000762939453
v -197.3877410888672 -93.53031158447266 100.00000762939453
v -197.3877410888672 -96.03271484375 102.50000762939453
v -197.3877410888672 -93.53031158447266 102.50000762939453
v -197.3877410888672 -93.53031158447266 100.00000762939453
v -204.89503479003906 -93.53031158447266 100.00000762939453
v -197.3877410888672 -93.53031158447266 102.50000762939453
v -204.89503479003906 -93.53031158447266 102.50000762939453
v -202.39263916015625 -96.03271484375 102.50000762939453
v -197.3877410888672 -96.03271484375 102.50000762939453
v -197.3877410888672 -93.53031158447266 102.50000762939453
v -202.39263916015625 -93.53031158447266 102.50000762939453
v -204.89503479003906 -93.53030395507812 152.50001525878906
v -204.89503479003906 -96.03270721435547 152.50001525878906
v -202.39263916015625 -96.03271484375 102.50000762939453
v -204.89503479003906 -96.03270721435547 152.50001525878906
v -202.39263916015625 -96.03270721435547 152.50001525878906
v -202.39263916015625 -96.03271484375 102.50000762939453
v -202.39263916015625 -93.53031158447266 102.50000762939453
v -202.39263916015625 -96.03270721435547 152.50001525878906
v -202.39263916015625 -93.53030395507812 152.50001525878906
v -202.39263916015625 -93.53031158447266 102.50000762939453
v -202.39263916015625 -93.53030395507812 152.50001525878906
v -204.89503479003906 -93.53030395507812 152.50001525878906
v -202.39263916015625 -96.03270721435547 152.50001525878906
v -197.3877410888672 -93.53030395507812 152.50001525878906
v -197.3877410888672 -96.03270721435547 152.50001525878906
v -202.39263916015625 -93.53030395507812 152.50001525878906
v -204.89503479003906 -93.53030395507812 155.00001525878906
v -204.89503479003906 -96.03270721435547 155.00001525878906
v -197.3877410888672 -96.03270721435547 152.50001525878906
v -204.89503479003906 -96.03270721435547 155.00001525878906
v -197.3877410888672 -96.03270721435547 155.00001525878906
v -197.3877410888672 -96.03270721435547 152.50001525878906
v -197.3877410888672 -93.53030395507812 152.50001525878906
v -197.3877410888672 -96.03270721435547 155.00001525878906
v -197.3877410888672 -93.53030395507812 155.00001525878906
v -197.3877410888672 -93.53030395507812 152.50001525878906
v -197.3877410888672 -93.53030395507812 155.00001525878906
v -204.89503479003906 -93.53030395507812 155.00001525878906
v -204.89503479003906 -93.53030395507812 155.00001525878906
v -204.89503479003906 -96.03270721435547 155.00001525878906
v -197.3877410888672 -93.53030395507812 155.00001525878906
v -197.3877410888672 -96.03270721435547 155.00001525878906
v -187.60984802246094 217.3704833984375 -1.793062619981356e-05
v -198.10784912109375 217.3704833984375 -1.8389508113614284e-05
v -187.60986328125 217.3704833984375 249.99998474121094
v -198.10784912109375 217.3704833984375 249.99998474121094
v -198.10784912109375 217.3704833984375 -1.8389508113614284e-05
v -200.10984802246094 214.86807250976562 -1.8258251657243818e-05
v -198.10784912109375 217.3704833984375 249.99998474121094
v -200.10984802246094 214.86810302734375 249.99998474121094
v -200.10984802246094 214.86807250976562 -1.8258251657243818e-05
v -200.10983276367188 9.875388145446777 -3.372211097030231e-07
v -200.10984802246094 209.86810302734375 24.99997901916504
v -200.10984802246094 209.86810302734375 69.9999771118164
v -200.10983276367188 14.868093490600586 69.99999237060547
v -200.10984802246094 209.86810302734375 74.9999771118164
v -200.10986328125 209.86810302734375 224.9999542236328
v -200.10984802246094 14.868107795715332 224.99996948242188
v -200.10986328125 214.86810302734375 249.99993896484375
v -200.10984802246094 9.875410079956055 249.9999542236328
v -200.10983276367188 14.868094444274902 74.99999237060547
v -200.10983276367188 14.86808967590332 24.999996185302734
v -200.10983276367188 9.875388145446777 -3.372211097030231e-07
v -198.12013244628906 7.372874736785889 -3.147196991903911e-08
v -200.10984802246094 9.875410079956055 250.0
v -198.12014770507812 7.372896671295166 250.0
v -198.12013244628906 7.372874736785889 -3.147196991903911e-08
v -187.60983276367188 7.372875213623047 4.279478673652193e-07
v -198.12014770507812 7.372896671295166 250.0
v -187.60984802246094 7.372897148132324 250.0
v -200.10986328125 209.86810302734375 224.9999542236328
v -198.10986328125 209.86810302734375 224.9999542236328
v -200.10984802246094 14.868107795715332 224.99996948242188
v -198.10984802246094 14.868107795715332 224.99996948242188
v -200.10984802246094 209.86810302734375 74.9999771118164
v -200.10983276367188 14.868094444274902 74.99999237060547
v -198.10984802246094 209.86810302734375 74.9999771118164
v -198.10983276367188 14.868094444274902 74.99999237060547
v -198.10986328125 209.86810302734375 224.9999542236328
v -200.10984802246094 209.86810302734375 74.9999771118164
v -198.10984802246094 209.86810302734375 74.9999771118164
v -200.10986328125 209.86810302734375 224.9999542236328
v -198.10984802246094 14.868107795715332 224.99996948242188
v -198.10983276367188 14.868094444274902 74.99999237060547
v -200.10983276367188 14.868094444274902 74.99999237060547
v -200.10984802246094 14.868107795715332 224.99996948242188
v -200.10984802246094 209.86810302734375 69.9999771118164
v -198.10984802246094 209.86810302734375 69.9999771118164
v -200.10983276367188 14.868093490600586 69.99999237060547
v -198.10983276367188 14.868093490600586 69.99999237060547
v -200.10984802246094 209.86810302734375 24.99997901916504
v -200.10983276367188 14.86808967590332 24.999996185302734
v -198.10984802246094 209.86810302734375 24.99997901916504
v -198.10983276367188 14.86808967590332 24.999996185302734
v -198.10984802246094 209.86810302734375 69.9999771118164
v -200.10984802246094 209.86810302734375 24.99997901916504
v -198.10984802246094 209.86810302734375 24.99997901916504
v -200.10984802246094 209.86810302734375 69.9999771118164
v -198.10983276367188 14.868093490600586 69.99999237060547
v -198.10983276367188 14.86808967590332 24.999996185302734
v -200.10983276367188 14.86808967590332 24.999996185302734
v -200.10983276367188 14.868093490600586 69.99999237060547
v -202.6123504638672 217.3704833984375 249.99998474121094
v -200.10986328125 214.86810302734375 249.99998474121094
v -202.6123504638672 7.373015880584717 250.0
v -198.10784912109375 217.3704833984375 249.99998474121094
v -200.10984802246094 9.875410079956055 250.0
v -198.1202392578125 7.373015880584717 250.0
v -202.6123504638672 217.3704833984375 249.99998474121094
v -202.6123504638672 7.373063564300537 250.0
v -202.61236572265625 217.3704833984375 254.99998474121094
v -202.6123504638672 7.373064041137695 255.0
v -202.6123504638672 7.373015880584717 250.0
v -187.60984802246094 7.373016357421875 250.0
v -202.6123504638672 7.373016357421875 255.0
v -187.60984802246094 7.373016834259033 255.0
v -202.6123504638672 217.3704833984375 249.99998474121094
v -187.60986328125 217.3704833984375 254.99998474121094
v -202.61236572265625 217.3704833984375 254.99998474121094
v -207.61715698242188 222.37539672851562 254.99998474121094
v -202.61236572265625 217.3704833984375 254.99998474121094
v -207.6171417236328 2.3681094646453857 255.0
v -187.60986328125 222.37539672851562 254.99998474121094
v -187.60984802246094 2.368110418319702 255.0
v -202.6123504638672 7.373016357421875 255.0
v -187.60984802246094 7.373016834259033 255.0
v -187.60986328125 217.3704833984375 254.99998474121094
v -207.61715698242188 222.37539672851562 254.99998474121094
v -207.6171417236328 2.3681094646453857 255.0
v -207.61715698242188 217.37539672851562 259.9999694824219
v -207.61715698242188 109.87541961669922 330.0
v -207.61715698242188 7.375406742095947 330.0
v -207.61715698242188 222.37542724609375 334.9999694824219
v -207.61715698242188 217.37542724609375 329.9999694824219
v -207.61715698242188 114.87542724609375 330.0
v -207.61715698242188 2.3681163787841797 335.0
v -207.61715698242188 114.87541961669922 260.0
v -207.61715698242188 7.375400543212891 260.0
v -207.61715698242188 109.87541198730469 260.0
v -207.6171417236328 2.3681094646453857 255.0
v -187.60984802246094 2.368110418319702 255.0
v -207.61715698242188 2.3681163787841797 335.0
v -187.60984802246094 2.368117332458496 335.0
v -187.60986328125 222.37539672851562 254.99998474121094
v -207.61715698242188 222.37539672851562 254.99998474121094
v -187.60986328125 222.37542724609375 334.9999694824219
v -207.61715698242188 222.37542724609375 334.9999694824219
v -207.61715698242188 217.37542724609375 329.9999694824219
v -197.61715698242188 217.37542724609375 329.9999694824219
v -207.61715698242188 114.87542724609375 330.0
v -197.61715698242188 114.87542724609375 330.0
v -207.61715698242188 217.37539672851562 259.9999694824219
v -207.61715698242188 114.87541961669922 260.0
v -197.61715698242188 217.37539672851562 259.9999694824219
v -197.61715698242188 114.87541961669922 260.0
v -197.61715698242188 217.37542724609375 329.9999694824219
v -207.61715698242188 217.37539672851562 259.9999694824219
v -197.61715698242188 217.37539672851562 259.9999694824219
v -207.61715698242188 217.37542724609375 329.9999694824219
v -197.61715698242188 114.87542724609375 330.0
v -197.61715698242188 114.87541961669922 260.0
v -207.61715698242188 114.87541961669922 260.0
v -207.61715698242188 114.87542724609375 330.0
v -207.61715698242188 109.87541961669922 330.0
v -197.61715698242188 109.87541961669922 330.0
v -207.61715698242188 7.375406742095947 330.0
v -197.61715698242188 7.3754072189331055 330.0
v -207.61715698242188 109.87541198730469 260.0
v -207.61715698242188 7.375400543212891 260.0
v -197.61715698242188 109.87541198730469 260.0
v -197.61715698242188 7.375401020050049 260.0
v -197.61715698242188 109.87541961669922 330.0
v -207.61715698242188 109.87541198730469 260.0
v -197.61715698242188 109.87541198730469 260.0
v -207.61715698242188 109.87541961669922 330.0
v -197.61715698242188 7.3754072189331055 330.0
v -197.61715698242188 7.375401020050049 260.0
v -207.61715698242188 7.375400543212891 260.0
v -207.61715698242188 7.375406742095947 330.0
v -207.61715698242188 222.37542724609375 334.9999694824219
v -207.61715698242188 2.3681163787841797 335.0
v -187.60986328125 222.37542724609375 334.9999694824219
v -187.60984802246094 2.368117332458496 335.0
v -202.6123504638672 224.87786865234375 -1.9242725102230906e-05
v -202.6123504638672 217.38278198242188 -1.8587481463328004e-05
v -202.61236572265625 224.87789916992188 254.99998474121094
v -202.61236572265625 217.3828125 254.99998474121094
v -202.6123504638672 217.38278198242188 -1.8587481463328004e-05
v -187.60995483398438 217.38278198242188 -1.7931704860529862e-05
v -202.61236572265625 217.3828125 254.99998474121094
v -187.60995483398438 217.3828125 254.99998474121094
v -187.60995483398438 224.87786865234375 -1.8586948499432765e-05
v -202.6123504638672 224.87786865234375 -1.9242725102230906e-05
v -187.60995483398438 224.87789916992188 254.99998474121094
v -202.61236572265625 224.87789916992188 254.99998474121094
v -202.61236572265625 224.87789916992188 254.99998474121094
v -202.61236572265625 217.3828125 254.99998474121094
v -187.60995483398438 224.87789916992188 254.99998474121094
v -187.60995483398438 217.3828125 254.99998474121094
v -187.6099395751953 7.372977256774902 4.27934509161787e-07
v -202.61233520507812 7.372976779937744 -2.2784122677421692e-07
v -187.60995483398438 7.372999668121338 255.0
v -202.6123504638672 7.37299919128418 255.0
v -202.61233520507812 7.372976779937744 -2.2784122677421692e-07
v -202.61233520507812 -0.12212180346250534 4.2740106209748774e-07
v -202.6123504638672 7.37299919128418 255.0
v -202.6123504638672 -0.12209951132535934 255.0
v -202.61233520507812 -0.12212329357862473 4.274012042060349e-07
v -187.6099395751953 -0.1221226379275322 1.083176925931184e-06
v -202.6123504638672 -0.12210100144147873 255.0
v -187.60995483398438 -0.1221003457903862 255.0
v -202.6123504638672 -0.12210100144147873 255.0
v -187.60995483398438 -0.1221003457903862 255.0
v -187.60995483398438 7.372999668121338 255.0
v -202.6123504638672 7.37299919128418 255.0
v -187.60984802246094 224.87786865234375 -1.8586944861453958e-05
v -212.60984802246094 224.87786865234375 -1.9679730030475184e-05
v -187.60986328125 224.87789916992188 334.9999694824219
v -212.60986328125 224.87789916992188 334.9999694824219
v -212.60984802246094 224.87786865234375 -1.9679730030475184e-05
v -212.60984802246094 222.37548828125 -1.946096381288953e-05
v -212.60986328125 224.87789916992188 334.9999084472656
v -212.60986328125 222.37551879882812 334.9999084472656
v -212.60984802246094 222.37548828125 -1.946096381288953e-05
v -187.60984802246094 222.37548828125 -1.8368178643868305e-05
v -212.60986328125 222.37551879882812 334.9999694824219
v -187.60986328125 222.37551879882812 334.9999694824219
v -212.60986328125 222.37551879882812 334.9999694824219
v -187.60986328125 222.37551879882812 334.9999694824219
v -212.60984802246094 -0.12209444493055344 335.0
v -187.60984802246094 -0.12209334969520569 335.0
v -212.60986328125 224.87789916992188 334.9999694824219
v -212.60984802246094 -0.12209444493055344 335.0
v -212.60986328125 224.87789916992188 339.9999694824219
v -212.60984802246094 -0.12209400534629822 340.0
v -212.60984802246094 -0.12209444493055344 335.0
v -187.60984802246094 -0.12209334969520569 335.0
v -212.60984802246094 -0.12209400534629822 340.0
v -187.60984802246094 -0.12209291011095047 340.0
v -187.60986328125 224.87789916992188 339.9999694824219
v -212.60986328125 224.87789916992188 339.9999694824219
v -212.60986328125 224.87789916992188 339.9999694824219
v -212.60984802246094 -0.12209400534629822 340.0
v -187.60986328125 224.87789916992188 339.9999694824219
v -187.60984802246094 -0.12209291011095047 340.0
v -187.60983276367188 2.380277633666992 8.644145736980136e-07
v -212.60983276367188 2.3802764415740967 -2.2837015478671674e-07
v -187.60984802246094 2.3803069591522217 335.0
v -212.60984802246094 2.380305767059326 335.0
v -212.60983276367188 2.3802764415740967 -2.2837015478671674e-07
v -212.60983276367188 -0.12212372571229935 -9.603391859513977e-09
v -212.60984802246094 2.380305767059326 335.0
v -212.60983276367188 -0.12212372571229935 -9.603391859513977e-09
v -187.60983276367188 -0.1221226379275322 1.0831813597178552e-06
v -212.60984802246094 -0.12209444493055344 335.0
v -187.60984802246094 -0.12209334969520569 335.0
v -187.60984802246094 2.3803069591522217 335.0
v -212.60984802246094 2.380305767059326 335.0
v 212.60986328125 -225.12210083007812 3.82474681828171e-05
v -187.39012145996094 -225.12213134765625 2.500020980834961
v 212.60986328125 -225.12210083007812 2.5000383853912354
v 212.60986328125 -225.12210083007812 3.82474681828171e-05
v 212.60986328125 224.87789916992188 -1.0927847142738756e-06
v 212.60986328125 -225.12210083007812 2.5000381469726562
v 212.60986328125 224.87789916992188 2.4999985694885254
v 212.60986328125 224.87789916992188 -1.0927847142738756e-06
v -187.39015197753906 224.87786865234375 -1.8577340597403236e-05
v 212.60986328125 224.87789916992188 2.4999988079071045
v -187.39015197753906 224.87786865234375 2.49998140335083
v -187.39015197753906 224.87786865234375 -1.8577340597403236e-05
v -187.39012145996094 -225.12213134765625 2.076291093544569e-05
v -187.39015197753906 224.87786865234375 2.499981164932251
v -187.39012145996094 -225.12213134765625 2.500020742416382
v -187.39012145996094 -225.12213134765625 2.500020980834961
v 212.60986328125 -225.12210083007812 2.5000383853912354
v 212.60986328125 224.87789916992188 2.4999988079071045
v -187.39015197753906 224.87786865234375 2.49998140335083
v -32.61724853515625 225.04879760742188 -1.182694177259691e-05
v -32.42193603515625 20.043994903564453 6.1036826082272455e-06
v -32.61248779296875 220.04879760742188 24.999988555908203
v -32.61248779296875 220.04879760742188 69.99998474121094
v -32.42669677734375 25.04888343811035 70.00000762939453
v -32.61724853515625 225.04879760742188 99.99998474121094
v -32.42193603515625 20.044004440307617 100.00000762939453
v -32.42669677734375 25.048879623413086 25.0000057220459
v -32.42193603515625 20.043994903564453 6.1036826082272455e-06
v 42.57807922363281 20.1171932220459 9.375638001074549e-06
v -32.42193603515625 20.044004440307617 100.00000762939453
v 42.57807922363281 20.117202758789062 100.00000762939453
v -32.61248779296875 220.04879760742188 69.99998474121094
v -30.61248779296875 220.05068969726562 69.99998474121094
v -32.42669677734375 25.04888343811035 70.00000762939453
v -30.426712036132812 25.0507869720459 70.00000762939453
v -32.61248779296875 220.04879760742188 24.999988555908203
v -32.42669677734375 25.048879623413086 25.0000057220459
v -30.61248779296875 220.05068969726562 24.999988555908203
v -30.426712036132812 25.050783157348633 25.0000057220459
v -30.61248779296875 220.05068969726562 69.99998474121094
v -32.61248779296875 220.04879760742188 24.999988555908203
v -30.61248779296875 220.05068969726562 24.999988555908203
v -32.61248779296875 220.04879760742188 69.99998474121094
v -30.426712036132812 25.0507869720459 70.00000762939453
v -30.426712036132812 25.050783157348633 25.0000057220459
v -32.42669677734375 25.048879623413086 25.0000057220459
v -32.42669677734375 25.04888343811035 70.00000762939453
v -37.62214660644531 225.04879760742188 99.99998474121094
v -32.61724853515625 225.04879760742188 99.99998474121094
v -37.42683410644531 15.03909683227539 100.00000762939453
v 42.57807922363281 15.112295150756836 100.00000762939453
v -32.42193603515625 20.044004440307617 100.00000762939453
v 42.57341003417969 20.117202758789062 100.00000762939453
v -37.62214660644531 225.04879760742188 99.99998474121094
v -37.42683410644531 15.03909683227539 100.00000762939453
v -37.62214660644531 225.04879760742188 104.9999771118164
v -37.42683410644531 15.039097785949707 105.0
v -37.42683410644531 15.03909683227539 100.00000762939453
v 42.57807922363281 15.112295150756836 100.00000762939453
v -37.42683410644531 15.039097785949707 105.0
v 42.57807922363281 15.112296104431152 105.0
v -37.62214660644531 225.04879760742188 104.9999771118164
v -37.42683410644531 15.039097785949707 105.0
v 42.38275146484375 225.12213134765625 104.9999771118164
v 42.57807922363281 15.112296104431152 105.0
v -197.89013671875 -15.13192081451416 25.000001907348633
v -197.89013671875 -105.13191986083984 25.000009536743164
v -197.89013671875 -105.13189697265625 225.00001525878906
v -197.89015197753906 -15.131902694702148 225.0
v -197.89013671875 -118.5255126953125 25.00000762939453
v -197.89013671875 -208.5255126953125 25.000017166137695
v -197.89013671875 -208.5255126953125 224.99998474121094
v -197.89013671875 -118.5254898071289 224.99998474121094
v -197.39744567871094 -7.624600887298584 260.0
v -197.39744567871094 -110.12459564208984 260.0
v -197.39744567871094 -110.12458801269531 330.0
v -197.39744567871094 -7.624594688415527 330.0
v -197.39744567871094 -115.12460327148438 260.0
v -197.39744567871094 -217.62460327148438 260.0000305175781
v -197.39744567871094 -217.62460327148438 330.0000305175781
v -197.39744567871094 -115.12459564208984 330.0
v -198.10984802246094 209.86810302734375 74.9999771118164
v -198.10983276367188 14.868094444274902 74.99999237060547
v -198.10984802246094 14.868107795715332 224.99996948242188
v -198.10986328125 209.86810302734375 224.9999542236328
v -198.10984802246094 209.86810302734375 24.99997901916504
v -198.10983276367188 14.86808967590332 24.999996185302734
v -198.10983276367188 14.868093490600586 69.99999237060547
v -198.10984802246094 209.86810302734375 69.9999771118164
v -197.61715698242188 217.37539672851562 259.9999694824219
v -197.61715698242188 114.87541961669922 260.0
v -197.61715698242188 114.87542724609375 330.0
v -197.61715698242188 217.37542724609375 329.9999694824219
v -197.61715698242188 109.87541198730469 260.0
v -197.61715698242188 7.375401020050049 260.0
v -197.61715698242188 7.3754072189331055 330.0
v -197.61715698242188 109.87541961669922 330.0
v -30.61248779296875 220.05068969726562 24.999988555908203
v -30.426712036132812 25.050783157348633 25.0000057220459
v -30.426712036132812 25.0507869720459 70.00000762939453
v -30.61248779296875 220.05068969726562 69.99998474121094
f 34 33 35
f 36 34 35
f 22 21 23
f 24 22 23
f 18 17 19
f 20 18 19
f 10 9 11
f 11 16 10
f 16 15 10
f 13 15 16
f 14 15 13
f 13 12 14
f 12 9 14
f 11 9 12
f 671 670 672
f 672 670 673
f 659 658 660
f 660 658 661
f 643 642 644
f 644 642 645
f 639 638 640
f 640 638 641
f 617 616 618
f 618 616 619
f 615 612 613
f 613 612 614
f 569 568 570
f 568 571 570
f 521 520 522
f 520 523 522
f 485 484 486
f 486 484 487
f 483 480 481
f 481 480 482
f 469 468 470
f 470 468 471
f 467 464 465
f 465 464 466
f 431 429 435
f 431 428 429
f 429 428 430
f 430 433 429
f 430 432 433
f 433 432 434
f 6 5 7
f 8 6 7
f 2 1 3
f 4 2 3
f 635 634 636
f 636 637 635
f 631 630 632
f 633 631 632
f 627 626 628
f 629 627 628
f 621 620 622
f 622 624 621
f 622 623 674
f 674 623 625
f 609 608 610
f 610 611 609
f 605 604 606
f 606 607 605
f 601 600 602
f 603 601 602
f 593 592 594
f 594 599 593
f 599 598 593
f 596 598 599
f 597 598 596
f 596 595 597
f 595 592 597
f 594 592 595
f 413 410 411
f 411 410 412
f 412 414 411
f 412 415 414
f 407 406 408
f 408 406 409
f 405 402 403
f 403 402 404
f 391 390 392
f 392 390 393
f 389 386 387
f 387 386 388
f 311 310 312
f 310 313 312
f 255 254 256
f 254 257 256
f 235 234 236
f 234 237 236
f 187 186 188
f 186 189 188
f 151 150 152
f 152 150 153
f 149 146 147
f 147 146 148
f 135 134 136
f 136 134 137
f 133 130 131
f 131 130 132
f 109 108 107
f 108 102 107
f 104 102 108
f 103 102 104
f 104 111 103
f 111 113 103
f 113 111 109
f 105 113 109
f 105 109 107
f 106 105 107
f 107 110 106
f 106 110 112
f 112 110 103
f 113 112 103
f 97 95 101
f 97 94 95
f 95 94 96
f 96 99 95
f 96 98 99
f 99 98 100
f 565 564 566
f 567 565 566
f 561 560 562
f 563 561 562
f 557 556 558
f 559 557 558
f 553 552 554
f 555 553 554
f 549 548 550
f 551 549 550
f 545 544 546
f 547 545 546
f 541 540 542
f 543 541 542
f 537 536 538
f 537 538 539
f 533 532 534
f 535 533 534
f 529 528 530
f 531 529 530
f 525 524 526
f 527 525 526
f 517 516 518
f 519 517 518
f 513 512 514
f 515 513 514
f 509 508 510
f 511 509 510
f 505 504 506
f 507 505 506
f 501 500 502
f 503 501 502
f 497 496 498
f 499 497 498
f 493 492 494
f 495 493 494
f 489 488 490
f 491 489 490
f 477 476 478
f 479 477 478
f 473 472 474
f 473 474 475
f 461 460 462
f 463 461 462
f 457 456 458
f 457 458 459
f 453 452 454
f 455 453 454
f 449 448 450
f 451 449 450
f 425 424 426
f 427 425 426
f 421 420 422
f 423 421 422
f 417 416 418
f 419 417 418
f 399 398 400
f 401 399 400
f 395 394 396
f 395 396 397
f 383 382 384
f 385 383 384
f 379 378 380
f 379 380 381
f 375 374 376
f 377 375 376
f 371 370 372
f 373 371 372
f 362 361 363
f 363 368 362
f 359 358 360
f 360 369 359
f 369 362 359
f 362 367 359
f 368 367 362
f 365 367 368
f 366 367 365
f 365 364 366
f 364 363 366
f 363 358 366
f 361 358 363
f 360 358 361
f 355 354 356
f 357 355 356
f 351 350 352
f 353 351 352
f 347 346 348
f 349 347 348
f 343 342 344
f 345 343 344
f 339 338 340
f 341 339 340
f 335 334 336
f 337 335 336
f 329 331 328
f 329 328 330
f 325 324 326
f 327 325 326
f 321 320 322
f 323 321 322
f 317 316 318
f 319 317 318
f 307 306 308
f 309 307 308
f 303 302 304
f 305 303 304
f 299 298 300
f 301 299 300
f 295 294 296
f 297 295 296
f 297 296 314
f 315 297 314
f 315 314 332
f 333 315 332
f 291 290 292
f 293 291 292
f 287 286 288
f 289 287 288
f 283 282 284
f 285 283 284
f 279 278 280
f 281 279 280
f 273 275 272
f 273 272 274
f 269 268 270
f 271 269 270
f 265 264 266
f 267 265 266
f 261 260 262
f 263 261 262
f 251 250 252
f 253 251 252
f 247 246 248
f 249 247 248
f 243 242 244
f 245 243 244
f 239 238 240
f 241 239 240
f 241 240 258
f 259 241 258
f 259 258 276
f 277 259 276
f 231 230 232
f 233 231 232
f 227 226 228
f 229 227 228
f 223 222 224
f 225 223 224
f 219 218 220
f 221 219 220
f 215 214 216
f 217 215 216
f 211 210 212
f 213 211 212
f 207 206 208
f 209 207 208
f 203 202 204
f 203 204 205
f 199 198 200
f 201 199 200
f 195 194 196
f 197 195 196
f 191 190 192
f 193 191 192
f 183 182 184
f 185 183 184
f 179 178 180
f 181 179 180
f 175 174 176
f 177 175 176
f 171 170 172
f 173 171 172
f 167 166 168
f 169 167 168
f 163 162 164
f 165 163 164
f 159 158 160
f 161 159 160
f 155 154 156
f 157 155 156
f 143 142 144
f 145 143 144
f 139 138 140
f 139 140 141
f 127 126 128
f 129 127 128
f 123 122 124
f 123 124 125
f 119 118 120
f 121 119 120
f 115 114 116
f 117 115 116
f 91 90 92
f 93 91 92
f 87 86 88
f 89 87 88
f 83 82 84
f 85 83 84
f 75 80 79
f 75 79 78
f 76 73 74
f 74 73 75
f 75 77 74
f 75 78 77
f 81 77 78
f 70 69 71
f 71 69 72
f 68 65 66
f 66 65 67
f 54 53 55
f 55 53 56
f 52 49 50
f 50 49 51
f 27 25 28
f 28 25 30
f 29 28 30
f 30 31 29
f 29 31 32
f 32 31 26
f 27 32 26
f 26 25 27
f 442 436 441
f 438 436 442
f 437 436 438
f 438 445 437
f 440 439 441
f 441 444 440
f 440 444 446
f 446 444 437
f 447 446 437
f 445 447 437
f 447 445 443
f 439 447 443
f 439 443 441
f 443 442 441
f 62 61 63
f 64 62 63
f 58 57 59
f 58 59 60
f 46 45 47
f 48 46 47
f 42 41 43
f 42 43 44
f 38 37 39
f 40 38 39
f 573 572 574
f 575 573 574
f 585 584 586
f 587 585 586
f 581 580 582
f 583 581 582
f 577 576 578
f 579 577 578
f 589 588 590
f 588 591 590
f 647 646 648
f 648 646 649
f 651 650 652
f 652 650 653
f 655 654 656
f 656 654 657
f 663 662 664
f 664 662 665
f 667 666 668
f 668 666 669
