# from WaterfrontDistrict_Block08_Generic_0003_LOD_0.pskx
v 775.0249633789062 881.475830078125 -0.025004370138049126
v -625.0250854492188 881.4757690429688 -0.02506556548178196
v 107.99495697021484 881.475830078125 100.02497100830078
v 107.99495697021484 881.475830078125 359.6749572753906
v -15.455102920532227 881.475830078125 359.6749572753906
v 775.0249633789062 881.4758911132812 450.0249938964844
v -625.0250854492188 881.475830078125 450.0249328613281
v -15.455102920532227 881.475830078125 100.02496337890625
v -624.9750366210938 881.4757690429688 -0.02506556548178196
v -775.0250854492188 881.4757690429688 -0.025072121992707253
v -624.9750366210938 881.475830078125 450.0249328613281
v -775.0250854492188 881.4757690429688 450.0249328613281
v -775.0000610351562 881.5007934570312 -0.0250721238553524
v -775.0000610351562 781.4507446289062 -0.025063378736376762
v -775.0000610351562 881.5007934570312 450.0249328613281
v -775.0000610351562 781.4508056640625 450.0249328613281
v -775.0250854492188 781.4757690429688 -0.02506338246166706
v -724.9750366210938 781.4757690429688 -0.025061195716261864
v -775.0250854492188 781.475830078125 450.0249328613281
v -724.9750366210938 781.475830078125 450.0249328613281
v -725.0000610351562 781.5007934570312 -0.025061197578907013
v -725.0000610351562 734.5513305664062 -0.02505708858370781
v -725.0000610351562 734.5513916015625 252.37493896484375
v -725.0000610351562 504.60137939453125 252.3749542236328
v -725.0000610351562 443.6578369140625 344.3899841308594
v -725.0000610351562 -198.99209594726562 344.3900451660156
v -725.0000610351562 -265.8269958496094 345.3750305175781
v -724.9999389648438 -865.7769775390625 345.3750915527344
v -725.0000610351562 781.5008544921875 450.0249328613281
v -725.0000610351562 504.60137939453125 -0.025036988779902458
v -724.9999389648438 -941.5107421875 -0.024910559877753258
v -725.0000610351562 443.6578063964844 15.024969100952148
v -725.0000610351562 -198.99221801757812 15.025025367736816
v -725.0000610351562 -265.8271179199219 15.025031089782715
v -724.9999389648438 -865.777099609375 15.025083541870117
v -724.9999389648438 -941.5106201171875 252.3750762939453
v -724.9999389648438 -1171.4605712890625 252.37510681152344
v -724.9999389648438 -1171.4605712890625 -0.024890461936593056
v -724.9999389648438 -1218.5491943359375 -0.024886349216103554
v -724.9999389648438 -1218.5491943359375 450.0251159667969
v -724.9749145507812 -1218.524169921875 -0.024886351078748703
v -775.0249633789062 -1218.524169921875 -0.02488853596150875
v -724.9749145507812 -1218.524169921875 450.0251159667969
v -775.0249633789062 -1218.524169921875 450.0251159667969
v -774.9999389648438 -1218.4991455078125 -0.02488853596150875
v -774.9999389648438 -1318.5491943359375 -0.02487979456782341
v -774.9999389648438 -1218.4991455078125 450.0251159667969
v -774.9999389648438 -1318.5491943359375 450.0251159667969
v -775.0249633789062 -1318.524169921875 -0.02487979456782341
v -734.9724731445312 -1318.524169921875 -0.024878045544028282
v -775.0249633789062 -1318.524169921875 450.0251159667969
v -734.9724731445312 -1318.524169921875 450.0251159667969
v -735.0225219726562 -1318.524169921875 -0.024878045544028282
v -463.8544616699219 -1318.524169921875 -0.024866195395588875
v -463.8544616699219 -1318.524169921875 259.67510986328125
v -340.4044494628906 -1318.524169921875 259.67510986328125
v -167.22348022460938 -1318.524169921875 285.7142639160156
v 42.726585388183594 -1318.524169921875 285.7142639160156
v -735.0225219726562 -1318.524169921875 450.0251159667969
v -340.4044494628906 -1318.524169921875 -0.024860793724656105
v 775.0250854492188 -1318.524169921875 -0.024812035262584686
v -167.22348022460938 -1318.524169921875 239.76425170898438
v 775.0250244140625 -1318.524169921875 450.0251770019531
v 42.726585388183594 -1318.524169921875 239.76426696777344
v 775.0000610351562 -1318.5491943359375 -0.024812038987874985
v 774.9999389648438 881.5008544921875 -0.025004373863339424
v 775.0 -783.2940673828125 100.02513885498047
v 775.0 -1044.0118408203125 104.04875946044922
v 775.0 -1044.0118408203125 363.69879150390625
v 775.0 -920.5618896484375 363.6987609863281
v 775.0 -783.2940673828125 424.6751403808594
v 775.0 -255.34915161132812 424.6750793457031
v 774.9999389648438 193.60092163085938 424.675048828125
v 775.0 -1318.5491943359375 450.0251770019531
v 775.0 -334.3442077636719 424.6750793457031
v 774.9999389648438 881.5009155273438 450.0249938964844
v 774.9999389648438 790.9381713867188 324.18109130859375
v 774.9999389648438 580.9881591796875 324.1811218261719
v 774.9999389648438 526.2033081054688 100.0250244140625
v 775.0 -334.3442077636719 100.02510070800781
v 774.9999389648438 790.9381713867188 384.131103515625
v 775.0 -255.34915161132812 100.02509307861328
v 774.9999389648438 193.60086059570312 100.02505493164062
v 774.9999389648438 402.7532653808594 100.02503204345703
v 774.9999389648438 580.9881591796875 384.1311340332031
v 774.9999389648438 526.203369140625 354.97503662109375
v 774.9999389648438 402.7532958984375 354.97503662109375
v 775.0 -920.5618896484375 104.04875183105469
v -15.505102157592773 871.4531860351562 359.699951171875
v 108.04496002197266 881.5008544921875 359.699951171875
v 108.04496002197266 871.4531860351562 359.699951171875
v -15.505102157592773 881.5008544921875 359.699951171875
v -15.505102157592773 871.4531860351562 99.99996185302734
v 108.04496002197266 871.4531860351562 99.99996948242188
v 108.04496002197266 881.5008544921875 99.99996948242188
v -15.505102157592773 881.5008544921875 99.99996185302734
v 108.01995849609375 871.4531860351562 359.7249450683594
v 108.01995849609375 881.5008544921875 99.97496795654297
v 108.01995849609375 871.4531860351562 99.97496795654297
v 108.01995849609375 881.5008544921875 359.7249450683594
v -15.4801025390625 871.4531860351562 359.7249450683594
v -15.4801025390625 871.4531860351562 99.97496032714844
v -15.4801025390625 881.5008544921875 99.97496032714844
v -15.4801025390625 881.5008544921875 359.7249450683594
v -463.9044494628906 -1308.5015869140625 259.7001037597656
v -340.3544616699219 -1308.5015869140625 259.7001037597656
v -463.9044494628906 -1318.5491943359375 259.7001037597656
v -340.3544616699219 -1318.5491943359375 259.7001037597656
v -463.9044494628906 -1308.5015869140625 0.00013292854418978095
v -463.9044494628906 -1318.5491943359375 0.0001338069123448804
v -340.3544616699219 -1308.5015869140625 0.0001383290800731629
v -340.3544616699219 -1318.5491943359375 0.00013920744822826236
v -463.87945556640625 -1308.5015869140625 259.72509765625
v -463.87945556640625 -1318.5491943359375 -0.024866191670298576
v -463.87945556640625 -1308.5015869140625 -0.024867065250873566
v -463.87945556640625 -1318.5491943359375 259.72509765625
v -340.37945556640625 -1308.5015869140625 259.72509765625
v -340.37945556640625 -1308.5015869140625 -0.024861671030521393
v -340.37945556640625 -1318.5491943359375 -0.024860795587301254
v -340.37945556640625 -1318.5491943359375 259.72509765625
v -167.27346801757812 -1304.4976806640625 285.7392578125
v 42.776588439941406 -1304.4976806640625 285.7392578125
v -167.27346801757812 -1318.5491943359375 285.7392578125
v 42.776588439941406 -1318.5491943359375 285.7392578125
v -167.27346801757812 -1304.4976806640625 239.7392578125
v -167.27346801757812 -1318.5491943359375 239.7392578125
v 42.776588439941406 -1304.4976806640625 239.73927307128906
v 42.776588439941406 -1318.5491943359375 239.73927307128906
v -167.24847412109375 -1304.4976806640625 285.7642517089844
v -167.24847412109375 -1318.5491943359375 239.71426391601562
v -167.24847412109375 -1304.4976806640625 239.71426391601562
v -167.24847412109375 -1318.5491943359375 285.7642517089844
v 42.7515869140625 -1304.4976806640625 285.7642517089844
v 42.7515869140625 -1304.4976806640625 239.7142791748047
v 42.7515869140625 -1318.5491943359375 239.7142791748047
v 42.7515869140625 -1318.5491943359375 285.7642517089844
v 757.0184326171875 580.9381103515625 384.1561279296875
v 775.0249633789062 790.9882202148438 384.1560974121094
v 775.0249633789062 580.9381103515625 384.1561279296875
v 757.0184326171875 790.9882202148438 384.1560974121094
v 757.0184326171875 580.9381103515625 324.1561279296875
v 775.0249633789062 580.9381103515625 324.1561279296875
v 775.0249633789062 790.9882202148438 324.1560974121094
v 757.0184326171875 790.9882202148438 324.1560974121094
v 757.0184326171875 580.963134765625 384.1811218261719
v 775.0249633789062 580.963134765625 324.1311340332031
v 757.0184326171875 580.963134765625 324.1311340332031
v 775.0249633789062 580.963134765625 384.1811218261719
v 757.0184326171875 790.9631958007812 384.18109130859375
v 757.0184326171875 790.9631958007812 324.131103515625
v 775.0249633789062 790.9631958007812 324.131103515625
v 775.0249633789062 790.9631958007812 384.18109130859375
v 764.9773559570312 -1044.0618896484375 363.7237854003906
v 775.0250244140625 -920.5118408203125 363.7237548828125
v 775.0250244140625 -1044.0618896484375 363.7237854003906
v 764.9773559570312 -920.5118408203125 363.7237548828125
v 764.9774169921875 -1044.0618896484375 104.02375793457031
v 775.0250244140625 -1044.0618896484375 104.02375793457031
v 775.0250244140625 -920.5118408203125 104.02375030517578
v 764.9773559570312 -920.5118408203125 104.02375030517578
v 764.9773559570312 -1044.036865234375 363.748779296875
v 775.0250244140625 -1044.036865234375 103.9987564086914
v 764.9774169921875 -1044.036865234375 103.9987564086914
v 775.0250244140625 -1044.036865234375 363.748779296875
v 764.9773559570312 -920.536865234375 363.7487487792969
v 764.9773559570312 -920.536865234375 103.99874877929688
v 775.0250244140625 -920.536865234375 103.99874877929688
v 775.0250244140625 -920.536865234375 363.7487487792969
v 764.9749145507812 402.70330810546875 355.0000305175781
v 775.0249633789062 526.25341796875 355.0000305175781
v 775.0249633789062 402.70330810546875 355.0000305175781
v 764.9749145507812 526.25341796875 355.0000305175781
v 764.9749145507812 402.7032775878906 100.00003051757812
v 775.0249633789062 402.7032775878906 100.00003051757812
v 775.0249633789062 526.2533569335938 100.0000228881836
v 764.9749145507812 526.2533569335938 100.0000228881836
v 764.9749145507812 402.7283020019531 355.0250244140625
v 775.0249633789062 402.728271484375 99.97502899169922
v 764.9749145507812 402.728271484375 99.97502899169922
v 775.0249633789062 402.7283020019531 355.0250244140625
v 764.9749145507812 526.2283935546875 355.0250244140625
v 764.9749145507812 526.2283325195312 99.97502136230469
v 775.0249633789062 526.2283325195312 99.97502136230469
v 775.0249633789062 526.2283935546875 355.0250244140625
v 775.0250244140625 -1318.5491943359375 450.00018310546875
v 775.0249633789062 881.5009155273438 450.0
v -625.0000610351562 881.5258178710938 449.99993896484375
v -725.0249633789062 -1218.4991455078125 450.0001220703125
v -734.9974975585938 -1318.57421875 450.0001220703125
v -775.0250854492188 881.5007934570312 449.99993896484375
v -775.0250854492188 781.4508056640625 449.99993896484375
v -725.0250854492188 781.4508056640625 449.99993896484375
v -775.0249633789062 -1218.4991455078125 450.0001220703125
v -775.0249633789062 -1318.5491943359375 450.0001220703125
v 775.0250244140625 -1318.5491943359375 450.00018310546875
v -625.0000610351562 881.5258178710938 449.99993896484375
v 775.0249633789062 881.5009155273438 450.0
v -734.9974975585938 -1318.57421875 450.0001220703125
v -775.0250854492188 881.5007934570312 449.99993896484375
v -775.0249633789062 -1318.5491943359375 450.0001220703125
v 775.0249633789062 881.4758911132812 449.9750061035156
v -625.0250854492188 881.475830078125 449.9749450683594
v 775.0249633789062 881.4758911132812 500.0249938964844
v -625.0250854492188 881.475830078125 500.0249328613281
v -624.9750366210938 881.475830078125 449.9749450683594
v -775.0250854492188 881.4757690429688 449.9749450683594
v -624.9750366210938 881.475830078125 500.0249328613281
v -775.0250854492188 881.475830078125 500.0249328613281
v -775.0000610351562 881.5007934570312 449.9749450683594
v -774.9999389648438 -1318.5491943359375 449.9751281738281
v -775.0000610351562 881.5008544921875 500.0249328613281
v -774.9999389648438 -1318.5491943359375 500.0251159667969
v -775.0249633789062 -1318.524169921875 449.9751281738281
v -734.9724731445312 -1318.524169921875 449.9751281738281
v -775.0249633789062 -1318.524169921875 500.0251159667969
v -734.9724731445312 -1318.524169921875 500.0251159667969
v -735.0225219726562 -1318.524169921875 449.9751281738281
v 775.0250244140625 -1318.524169921875 449.9751892089844
v -735.0225219726562 -1318.524169921875 500.0251159667969
v 775.0250244140625 -1318.524169921875 500.0251770019531
v 775.0 -1318.5491943359375 449.9751892089844
v 774.9999389648438 881.5009155273438 449.9750061035156
v 775.0 -1318.5491943359375 500.0251770019531
v 774.9999389648438 881.5009155273438 500.0249938964844
v 775.0250244140625 -1318.5491943359375 500.00018310546875
v 775.0249633789062 881.5009155273438 500.0
v -625.0000610351562 881.5258178710938 499.99993896484375
v -734.9974975585938 -1318.57421875 500.0001220703125
v -775.0250854492188 881.5008544921875 499.99993896484375
v -775.0249633789062 -1318.5491943359375 500.0001220703125
v 724.957275390625 831.4935913085938 500.0
v 775.012451171875 881.4884033203125 500.0
v 725.0177001953125 -1268.4814453125 500.00018310546875
v -625.0000610351562 881.5258178710938 499.99993896484375
v -775.0125732421875 881.4883422851562 499.99993896484375
v -734.9974975585938 -1318.5491943359375 500.0001220703125
v -775.0249633789062 -1318.5491943359375 500.0001220703125
v -724.9573974609375 831.4935302734375 499.99993896484375
v -524.9749145507812 -1318.5491943359375 500.0001220703125
v -725.0244750976562 -1268.4942626953125 500.0001220703125
v -524.9749145507812 -1268.4991455078125 500.0001220703125
v 274.9750671386719 -1268.4991455078125 500.0001525878906
v 274.9750671386719 -1318.5491943359375 500.0001525878906
v 775.0125122070312 -1318.53662109375 500.00018310546875
v 274.9749450683594 481.5008544921875 500.0
v 475.0249328613281 481.5008544921875 500.0
v 274.9749450683594 281.4508361816406 500.0000305175781
v 475.0249328613281 281.4508361816406 500.0000305175781
v 274.9750061035156 -718.4991455078125 500.0001220703125
v 475.02496337890625 -718.4991455078125 500.0001220703125
v 274.9750061035156 -918.5491943359375 500.0001220703125
v 475.0249938964844 -918.5491943359375 500.0001220703125
v -525.0250854492188 481.50079345703125 499.9999694824219
v -324.9750671386719 481.5008239746094 499.9999694824219
v -525.0250854492188 281.4508361816406 500.0
v -324.9750671386719 281.4508361816406 500.0
v -525.0249633789062 -718.4991455078125 500.0000915527344
v -324.9749450683594 -718.4991455078125 500.0000915527344
v -525.0249633789062 -918.5491943359375 500.0000915527344
v -324.9749450683594 -918.5491943359375 500.0000915527344
v 775.0249633789062 881.4758911132812 499.9750061035156
v -625.0250854492188 881.475830078125 499.9749450683594
v 775.0249633789062 881.4758911132812 590.0250244140625
v -625.0250854492188 881.475830078125 590.0249633789062
v -624.9750366210938 881.475830078125 499.9749450683594
v -775.0250854492188 881.475830078125 499.9749450683594
v -624.9750366210938 881.475830078125 590.0249633789062
v -775.0250854492188 881.475830078125 590.0249633789062
v -775.0000610351562 881.5008544921875 499.9749450683594
v -774.9999389648438 -1318.5491943359375 499.9751281738281
v -775.0000610351562 881.5008544921875 590.0249633789062
v -774.9999389648438 -1318.5491943359375 590.025146484375
v -775.0249633789062 -1318.524169921875 499.9751281738281
v -734.9724731445312 -1318.524169921875 499.9751281738281
v -775.0249633789062 -1318.524169921875 590.025146484375
v -734.9724731445312 -1318.524169921875 590.025146484375
v -735.0225219726562 -1318.524169921875 499.9751281738281
v -524.9749145507812 -1318.524169921875 499.9751281738281
v -735.0225219726562 -1318.524169921875 590.025146484375
v -524.9749145507812 -1318.524169921875 590.025146484375
v -524.9999389648438 -1318.5491943359375 499.9751281738281
v -524.9999389648438 -1268.4991455078125 499.9751281738281
v -524.9999389648438 -1318.5491943359375 590.025146484375
v -524.9999389648438 -1268.4991455078125 590.025146484375
v -524.9749145507812 -1268.524169921875 499.9751281738281
v -725.0249633789062 -1268.524169921875 499.9751281738281
v -524.9749145507812 -1268.524169921875 590.025146484375
v -725.0249633789062 -1268.524169921875 590.025146484375
v -724.9999389648438 -1268.5491943359375 499.9751281738281
v -725.0000610351562 831.5004272460938 499.9749450683594
v -724.9999389648438 -1268.5491943359375 590.025146484375
v -725.0000610351562 831.5004272460938 590.0249633789062
v -725.0250854492188 831.475830078125 499.9749450683594
v 725.0249633789062 831.4758911132812 499.9750061035156
v -725.0250854492188 831.475830078125 590.0249633789062
v 725.02490234375 831.4758911132812 590.0250244140625
v 724.9999389648438 831.5009155273438 499.9750061035156
v 725.0 -1268.5487060546875 499.9751892089844
v 724.9998779296875 831.5009155273438 590.0250244140625
v 725.0 -1268.5487060546875 590.0252075195312
v 725.0250244140625 -1268.524169921875 499.9751892089844
v 274.9750671386719 -1268.524169921875 499.97515869140625
v 725.0250244140625 -1268.524169921875 590.0252075195312
v 274.9750671386719 -1268.524169921875 590.0252075195312
v 275.00006103515625 -1268.4991455078125 499.97515869140625
v 275.00006103515625 -1318.5491943359375 499.97515869140625
v 275.00006103515625 -1268.4991455078125 590.0252075195312
v 275.00006103515625 -1318.5491943359375 590.0252075195312
v 274.9750671386719 -1318.524169921875 499.97515869140625
v 775.0250244140625 -1318.524169921875 499.9751892089844
v 274.9750671386719 -1318.524169921875 590.0252075195312
v 775.0250244140625 -1318.524169921875 590.0252075195312
v 775.0 -1318.5491943359375 499.9751892089844
v 774.9999389648438 881.5009155273438 499.9750061035156
v 775.0 -1318.5491943359375 590.0252075195312
v 774.9999389648438 881.5009155273438 590.0250244140625
v 724.9572143554688 831.4935913085938 590.0
v 725.0177001953125 -1268.4814453125 590.0001831054688
v 775.012451171875 881.4884033203125 590.0
v -625.0000610351562 881.5258178710938 589.9999389648438
v -775.0125732421875 881.4883422851562 589.9999389648438
v -775.0249633789062 -1318.5491943359375 590.0001220703125
v -734.9974975585938 -1318.5491943359375 590.0001220703125
v -724.9573974609375 831.4935302734375 589.9999389648438
v -524.9749145507812 -1318.5491943359375 590.0001220703125
v -524.9749145507812 -1268.4991455078125 590.0001220703125
v -725.0244750976562 -1268.4942626953125 590.0001220703125
v 274.9750671386719 -1268.4991455078125 590.0001831054688
v 274.9750671386719 -1318.5491943359375 590.0001831054688
v 775.0125122070312 -1318.53662109375 590.0001831054688
v -780.0299682617188 886.5057373046875 589.9999389648438
v -719.9701538085938 826.4458618164062 589.9999389648438
v -780.0298461914062 -1323.5540771484375 590.0001220703125
v 719.969970703125 826.4459228515625 590.0
v 780.0298461914062 886.5057983398438 590.0
v 719.9700927734375 -1263.4942626953125 590.0001831054688
v -519.9700317382812 -1323.5540771484375 590.0001220703125
v -719.9700317382812 -1263.4942626953125 590.0001220703125
v -519.9700317382812 -1263.4942626953125 590.0001220703125
v 269.9701232910156 -1263.4942626953125 590.0001831054688
v 269.9701232910156 -1323.5540771484375 590.0001831054688
v 780.0299072265625 -1323.5540771484375 590.0001831054688
v 780.0298461914062 886.4807739257812 589.9749755859375
v -780.0299682617188 886.480712890625 589.9749145507812
v 780.0298461914062 886.4807739257812 600.0250244140625
v -780.0299682617188 886.480712890625 600.0249633789062
v -780.0049438476562 886.5057373046875 589.9749145507812
v -780.0048217773438 -1323.5535888671875 589.97509765625
v -780.0049438476562 886.5057373046875 600.0249633789062
v -780.0048217773438 -1323.5535888671875 600.025146484375
v -780.0298461914062 -1323.529052734375 589.97509765625
v -519.9700317382812 -1323.529052734375 589.97509765625
v -780.0298461914062 -1323.529052734375 600.025146484375
v -519.9700317382812 -1323.529052734375 600.025146484375
v -519.9950561523438 -1323.5540771484375 589.97509765625
v -519.9950561523438 -1263.4942626953125 589.97509765625
v -519.9950561523438 -1323.5540771484375 600.025146484375
v -519.9950561523438 -1263.4942626953125 600.025146484375
v -519.9700317382812 -1263.519287109375 589.97509765625
v -720.0200805664062 -1263.519287109375 589.97509765625
v -519.9700317382812 -1263.519287109375 600.025146484375
v -720.0200805664062 -1263.519287109375 600.025146484375
v -719.9950561523438 -1263.5443115234375 589.97509765625
v -719.9951782226562 826.4959716796875 589.9749145507812
v -719.9950561523438 -1263.5443115234375 600.025146484375
v -719.9951782226562 826.4959716796875 600.0249633789062
v -720.0202026367188 826.4708862304688 589.9749145507812
v 720.0200805664062 826.470947265625 589.9749755859375
v -720.0202026367188 826.4708862304688 600.0249633789062
v 720.0200805664062 826.470947265625 600.0250244140625
v 719.9949951171875 826.4959716796875 589.9749755859375
v 719.9951171875 -1263.5443115234375 589.9751586914062
v 719.9949951171875 826.4959716796875 600.0250244140625
v 719.9951171875 -1263.5443115234375 600.0252075195312
v 720.0201416015625 -1263.519287109375 589.9751586914062
v 269.9701232910156 -1263.519287109375 589.9751586914062
v 720.0201416015625 -1263.519287109375 600.0252075195312
v 269.9701232910156 -1263.519287109375 600.0252075195312
v 269.9951171875 -1263.4942626953125 589.9751586914062
v 269.9951171875 -1323.5540771484375 589.9751586914062
v 269.9951171875 -1263.4942626953125 600.0252075195312
v 269.9951171875 -1323.5540771484375 600.0252075195312
v 269.9701232910156 -1323.529052734375 589.9751586914062
v 780.0299072265625 -1323.529052734375 589.9751586914062
v 269.9701232910156 -1323.529052734375 600.0252075195312
v 780.0299072265625 -1323.529052734375 600.0252075195312
v 780.0048828125 -1323.5540771484375 589.9751586914062
v 780.0048217773438 886.5054321289062 589.9749755859375
v 780.0048828125 -1323.5540771484375 600.0252075195312
v 780.0048217773438 886.5054321289062 600.0250244140625
v -780.0299682617188 886.5057373046875 599.9999389648438
v -780.0298461914062 -1323.5540771484375 600.0001220703125
v -719.9701538085938 826.4458618164062 599.9999389648438
v 719.969970703125 826.4459228515625 600.0
v 719.9700927734375 -1263.4942626953125 600.0001831054688
v 780.0298461914062 886.5057983398438 600.0
v -519.9700317382812 -1323.5540771484375 600.0001220703125
v -519.9700317382812 -1263.4942626953125 600.0001220703125
v -719.9700317382812 -1263.4942626953125 600.0001220703125
v 269.9701232910156 -1263.4942626953125 600.0001831054688
v 269.9701232910156 -1323.5540771484375 600.0001831054688
v 780.0299072265625 -1323.5540771484375 600.0001831054688
v 274.99993896484375 481.5008544921875 499.9750061035156
v 274.99993896484375 281.4508361816406 499.97503662109375
v 274.99993896484375 481.5008544921875 510.0249938964844
v 274.99993896484375 281.4508361816406 510.0250244140625
v 274.9749450683594 281.475830078125 499.97503662109375
v 475.0249328613281 281.475830078125 499.97503662109375
v 274.9749450683594 281.475830078125 510.0250244140625
v 475.0249328613281 281.475830078125 510.0250244140625
v 474.99993896484375 281.4508361816406 499.97503662109375
v 474.99993896484375 481.5008544921875 499.9750061035156
v 474.99993896484375 281.4508361816406 510.0250244140625
v 474.99993896484375 481.5008544921875 510.0249938964844
v 475.0249328613281 481.4758605957031 499.9750061035156
v 274.9749450683594 481.4758605957031 499.9750061035156
v 475.0249328613281 481.4758605957031 510.0249938964844
v 274.9749450683594 481.4758605957031 510.0249938964844
v 274.9749450683594 481.5008544921875 510.0
v 274.9749450683594 281.4508361816406 510.0000305175781
v 475.0249328613281 481.5008544921875 510.0
v 475.0249328613281 281.4508361816406 510.0000305175781
v 475.02496337890625 -718.524169921875 499.9751281738281
v 274.9750061035156 -718.524169921875 499.9751281738281
v 475.02496337890625 -718.524169921875 510.0251159667969
v 274.9750061035156 -718.524169921875 510.0251159667969
v 275.0 -718.4991455078125 499.9751281738281
v 275.0 -918.5491943359375 499.9751281738281
v 275.0 -718.4991455078125 510.0251159667969
v 275.0 -918.5491943359375 510.0251159667969
v 274.9750061035156 -918.524169921875 499.9751281738281
v 475.0249938964844 -918.524169921875 499.9751281738281
v 274.9750061035156 -918.524169921875 510.0251159667969
v 475.0249938964844 -918.524169921875 510.0251159667969
v 475.0 -918.5491943359375 499.9751281738281
v 474.9999694824219 -718.4991455078125 499.9751281738281
v 475.0 -918.5491943359375 510.0251159667969
v 474.9999694824219 -718.4991455078125 510.0251159667969
v 274.9750061035156 -718.4991455078125 510.0001220703125
v 274.9750061035156 -918.5491943359375 510.0001220703125
v 475.02496337890625 -718.4991455078125 510.0001220703125
v 475.0249938964844 -918.5491943359375 510.0001220703125
v -324.9750671386719 481.475830078125 499.9749755859375
v -525.0250854492188 481.4757995605469 499.9749755859375
v -324.9750671386719 481.475830078125 510.02496337890625
v -525.0250854492188 481.4757995605469 510.02496337890625
v -525.0000610351562 481.50079345703125 499.9749755859375
v -525.0000610351562 281.4508361816406 499.9750061035156
v -525.0000610351562 481.50079345703125 510.02496337890625
v -525.0000610351562 281.4508361816406 510.0249938964844
v -525.0250854492188 281.475830078125 499.9750061035156
v -324.9750671386719 281.475830078125 499.9750061035156
v -525.0250854492188 281.475830078125 510.0249938964844
v -324.9750671386719 281.475830078125 510.0249938964844
v -325.00006103515625 281.4508361816406 499.9750061035156
v -325.00006103515625 481.5008239746094 499.9749755859375
v -325.00006103515625 281.4508361816406 510.0249938964844
v -325.00006103515625 481.5008239746094 510.02496337890625
v -525.0250854492188 481.50079345703125 509.9999694824219
v -525.0250854492188 281.4508361816406 510.0
v -324.9750671386719 481.5008239746094 509.9999694824219
v -324.9750671386719 281.4508361816406 510.0
v -324.9749450683594 -718.524169921875 499.97509765625
v -525.0249633789062 -718.524169921875 499.97509765625
v -324.9749450683594 -718.524169921875 510.02508544921875
v -525.0249633789062 -718.524169921875 510.02508544921875
v -524.9999389648438 -718.4991455078125 499.97509765625
v -524.9999389648438 -918.5491943359375 499.97509765625
v -524.9999389648438 -718.4991455078125 510.02508544921875
v -524.9999389648438 -918.5491943359375 510.02508544921875
v -525.0249633789062 -918.524169921875 499.97509765625
v -324.9749450683594 -918.524169921875 499.97509765625
v -525.0249633789062 -918.524169921875 510.02508544921875
v -324.9749450683594 -918.524169921875 510.02508544921875
v -324.99993896484375 -918.5491943359375 499.97509765625
v -324.99993896484375 -718.4991455078125 499.97509765625
v -324.99993896484375 -918.5491943359375 510.02508544921875
v -324.99993896484375 -718.4991455078125 510.02508544921875
v -525.0249633789062 -718.4991455078125 510.0000915527344
v -525.0249633789062 -918.5491943359375 510.0000915527344
v -324.9749450683594 -718.4991455078125 510.0000915527344
v -324.9749450683594 -918.5491943359375 510.0000915527344
v -674.97509765625 1321.9530029296875 -0.025106258690357208
v -700.0250244140625 1323.2740478515625 -0.02510746754705906
v -674.97509765625 1321.9530029296875 240.02490234375
v -700.0250244140625 1323.2740478515625 240.02488708496094
v -700.0000610351562 1323.2977294921875 -0.02510746754705906
v -700.0000610351562 1181.4508056640625 -0.025095071643590927
v -700.0000610351562 1323.2977294921875 240.02488708496094
v -700.0000610351562 1181.4508056640625 240.02490234375
v -700.0250854492188 1181.475830078125 -0.025095069780945778
v -674.9750366210938 1181.475830078125 -0.02509397640824318
v -700.0250854492188 1181.475830078125 240.02490234375
v -674.9750366210938 1181.475830078125 240.02491760253906
v -675.0000610351562 1181.4508056640625 -0.025093980133533478
v -675.0000610351562 1321.9793701171875 -0.025106260553002357
v -675.0000610351562 1181.4508056640625 240.02487182617188
v -675.0000610351562 1321.9793701171875 240.0248565673828
v -675.0237426757812 1321.9742431640625 239.99990844726562
v -669.9688720703125 1321.7108154296875 239.99990844726562
v -675.0250854492188 1181.5008544921875 239.9999237060547
v -699.9750366210938 1181.5008544921875 239.99990844726562
v -705.0299682617188 1176.4459228515625 239.99990844726562
v -699.9737548828125 1323.29052734375 239.99989318847656
v -669.9701538085938 1176.4459228515625 239.9999237060547
v -705.0286254882812 1323.5540771484375 239.99989318847656
v -669.97021484375 1321.6844482421875 239.97491455078125
v -705.0299072265625 1323.5303955078125 239.9748992919922
v -669.97021484375 1321.6844482421875 245.02488708496094
v -705.0299072265625 1323.5303955078125 245.02487182617188
v -705.0049438476562 1323.5540771484375 239.9748992919922
v -705.0049438476562 1176.4459228515625 239.97491455078125
v -705.0049438476562 1323.5540771484375 245.02487182617188
v -705.0049438476562 1176.4459228515625 245.02488708496094
v -705.0299682617188 1176.470947265625 239.97491455078125
v -669.9701538085938 1176.470947265625 239.9749298095703
v -705.0299682617188 1176.470947265625 245.02488708496094
v -669.9701538085938 1176.470947265625 245.02490234375
v -669.9951782226562 1176.4459228515625 239.9749298095703
v -669.9951782226562 1321.7108154296875 239.97491455078125
v -669.9951782226562 1176.4459228515625 245.02490234375
v -669.9951782226562 1321.7108154296875 245.02488708496094
v -705.0286254882812 1323.5540771484375 244.9998779296875
v -705.0299682617188 1176.4459228515625 244.99989318847656
v -669.9688720703125 1321.7108154296875 244.99989318847656
v -669.9701538085938 1176.4459228515625 244.99990844726562
v -675.0000610351562 881.4507446289062 -0.025067750364542007
v -675.0000610351562 981.5007934570312 -0.025076493620872498
v -675.0000610351562 881.4507446289062 240.0249481201172
v -675.0000610351562 981.5007934570312 240.02493286132812
v -674.9750366210938 981.4757690429688 -0.025076493620872498
v -700.0250854492188 981.4757690429688 -0.025077586993575096
v -674.9750366210938 981.4757690429688 240.02493286132812
v -700.0250854492188 981.4757690429688 240.02491760253906
v -700.0000610351562 981.5007934570312 -0.025077585130929947
v -700.0000610351562 881.4507446289062 -0.025068841874599457
v -700.0000610351562 981.5007934570312 240.02491760253906
v -700.0000610351562 881.4507446289062 240.02493286132812
v -700.0250854492188 881.4757690429688 -0.025068843737244606
v -674.9750366210938 881.4757690429688 -0.025067750364542007
v -700.0250854492188 881.4757690429688 240.02493286132812
v -674.9750366210938 881.4757690429688 240.0249481201172
v -675.0250854492188 881.4507446289062 239.9999542236328
v -669.9701538085938 986.5057373046875 239.99993896484375
v -669.9701538085938 881.4507446289062 239.9999542236328
v -705.0299682617188 986.5057373046875 239.9999237060547
v -699.9750366210938 981.4507446289062 239.9999237060547
v -705.0299682617188 881.4507446289062 239.99993896484375
v -675.0250854492188 981.4507446289062 239.99993896484375
v -699.9750366210938 881.4507446289062 239.99993896484375
v -669.9951782226562 881.4507446289062 239.97496032714844
v -669.9951782226562 986.5057373046875 239.97494506835938
v -669.9951782226562 881.4507446289062 245.02493286132812
v -669.9951782226562 986.5057373046875 245.02491760253906
v -669.9701538085938 986.480712890625 239.97494506835938
v -705.0299682617188 986.480712890625 239.9749298095703
v -669.9701538085938 986.480712890625 245.02491760253906
v -705.0299682617188 986.480712890625 245.02490234375
v -705.0049438476562 986.5057373046875 239.9749298095703
v -705.0049438476562 881.4507446289062 239.97494506835938
v -705.0049438476562 986.5057373046875 245.02490234375
v -705.0049438476562 881.4507446289062 245.02491760253906
v -705.0299682617188 881.4757690429688 239.97494506835938
v -669.9701538085938 881.4757690429688 239.97496032714844
v -705.0299682617188 881.4757690429688 245.02491760253906
v -669.9701538085938 881.4757690429688 245.02493286132812
v -705.0299682617188 881.4507446289062 244.9999237060547
v -669.9701538085938 881.4507446289062 244.99993896484375
v -669.9701538085938 986.5057373046875 244.9999237060547
v -705.0299682617188 986.5057373046875 244.99990844726562
v -724.9750366210938 781.4757690429688 -0.025061195716261864
v -750.0250854492188 781.4757690429688 -0.025062289088964462
v -724.9750366210938 781.4757690429688 250.02493286132812
v -750.0250854492188 781.4757690429688 250.02493286132812
v -750.0000610351562 781.5007934570312 -0.025062289088964462
v -750.0000610351562 731.4507446289062 -0.025057917460799217
v -750.0000610351562 781.5007934570312 250.02493286132812
v -750.0000610351562 731.4507446289062 250.02493286132812
v -750.0250854492188 731.4757690429688 -0.025057917460799217
v -724.9750366210938 731.4757690429688 -0.025056825950741768
v -750.0250854492188 731.4757690429688 250.02493286132812
v -724.9750366210938 731.4757690429688 250.02493286132812
v -750.0250854492188 781.5007934570312 249.99993896484375
v -750.0250854492188 731.4507446289062 249.99993896484375
v -724.9750366210938 781.5007934570312 249.99993896484375
v -724.9750366210938 731.4507446289062 249.99993896484375
v -724.9750366210938 506.47576904296875 -0.02503715455532074
v -750.0250854492188 506.47576904296875 -0.02503824792802334
v -724.9750366210938 506.47576904296875 250.0249481201172
v -750.0250854492188 506.47576904296875 250.0249481201172
v -750.0000610351562 506.5007629394531 -0.02503824792802334
v -750.0000610351562 456.4507751464844 -0.025033876299858093
v -750.0000610351562 506.5007629394531 250.0249481201172
v -750.0000610351562 456.4507751464844 250.0249481201172
v -750.0250854492188 456.47576904296875 -0.025033876299858093
v -724.9750366210938 456.47576904296875 -0.025032784789800644
v -750.0250854492188 456.47576904296875 250.0249481201172
v -724.9750366210938 456.47576904296875 250.0249481201172
v -750.0250854492188 781.5007934570312 249.99993896484375
v -724.9750366210938 781.5007934570312 249.99993896484375
v -750.0250854492188 506.4507751464844 249.9999542236328
v -724.9750366210938 506.4507751464844 249.9999542236328
v -724.9750366210938 781.4757690429688 249.97494506835938
v -750.0250854492188 781.4757690429688 249.97494506835938
v -724.9750366210938 781.475830078125 450.0249328613281
v -750.0250854492188 781.475830078125 450.0249328613281
v -750.0000610351562 781.5007934570312 249.97494506835938
v -750.0000610351562 456.4507751464844 249.97496032714844
v -750.0000610351562 781.5008544921875 450.0249328613281
v -750.0000610351562 456.4508056640625 450.02496337890625
v -750.0250854492188 456.47576904296875 249.97496032714844
v -724.9750366210938 456.47576904296875 249.97496032714844
v -750.0250854492188 456.4757995605469 450.02496337890625
v -724.9750366210938 456.4757995605469 450.02496337890625
v -750.0250854492188 781.5008544921875 449.99993896484375
v -750.0250854492188 456.4508056640625 449.9999694824219
v -724.9750366210938 781.5008544921875 449.99993896484375
v -724.9750366210938 456.4508056640625 449.9999694824219
v -724.9749145507812 -893.5242919921875 -0.024914763867855072
v -750.0249633789062 -893.5242919921875 -0.02491585537791252
v -724.9749145507812 -893.524169921875 250.0250701904297
v -750.0249633789062 -893.524169921875 250.0250701904297
v -749.9999389648438 -893.499267578125 -0.024915868416428566
v -749.9999389648438 -943.54931640625 -0.02491147257387638
v -749.9999389648438 -893.4991455078125 250.0250701904297
v -749.9999389648438 -943.5491943359375 250.0250701904297
v -750.0249633789062 -943.5242919921875 -0.024911485612392426
v -724.9749145507812 -943.5242919921875 -0.024910392239689827
v -750.0249633789062 -943.524169921875 250.0250701904297
v -724.9749145507812 -943.524169921875 250.0250701904297
v -750.0249633789062 -893.4991455078125 250.0000762939453
v -750.0249633789062 -943.5491943359375 250.0000762939453
v -724.9749145507812 -893.4991455078125 250.0000762939453
v -724.9749145507812 -943.5491943359375 250.0000762939453
v -724.9749145507812 -1168.524169921875 -0.024890722706913948
v -750.0249633789062 -1168.524169921875 -0.024891814216971397
v -724.9749145507812 -1168.524169921875 250.0251007080078
v -750.0249633789062 -1168.524169921875 250.0251007080078
v -749.9999389648438 -1168.4991455078125 -0.024891814216971397
v -749.9999389648438 -1218.5491943359375 -0.0248874444514513
v -749.9999389648438 -1168.4991455078125 250.0251007080078
v -749.9999389648438 -1218.5491943359375 250.0251007080078
v -750.0249633789062 -1218.524169921875 -0.0248874444514513
v -724.9749145507812 -1218.524169921875 -0.024886351078748703
v -750.0249633789062 -1218.524169921875 250.0251007080078
v -724.9749145507812 -1218.524169921875 250.0251007080078
v -750.0249633789062 -893.4991455078125 250.0000762939453
v -724.9749145507812 -893.4991455078125 250.0000762939453
v -750.0249633789062 -1168.5491943359375 250.00010681152344
v -724.9749145507812 -1168.5491943359375 250.00010681152344
v -724.9749145507812 -893.524169921875 249.97508239746094
v -750.0249633789062 -893.524169921875 249.97508239746094
v -724.9749145507812 -893.524169921875 450.02508544921875
v -750.0249633789062 -893.524169921875 450.02508544921875
v -749.9999389648438 -893.4991455078125 249.97508239746094
v -749.9999389648438 -1218.5491943359375 249.97511291503906
v -749.9999389648438 -893.4991455078125 450.02508544921875
v -749.9999389648438 -1218.5491943359375 450.0251159667969
v -750.0249633789062 -1218.524169921875 249.97511291503906
v -724.9749145507812 -1218.524169921875 249.97511291503906
v -750.0249633789062 -1218.524169921875 450.0251159667969
v -724.9749145507812 -1218.524169921875 450.0251159667969
v -750.0249633789062 -893.4991455078125 450.0000915527344
v -750.0249633789062 -1218.5491943359375 450.0001220703125
v -724.9749145507812 -893.4991455078125 450.0000915527344
v -724.9749145507812 -1218.5491943359375 450.0001220703125
v -730.0049438476562 456.50079345703125 344.9749755859375
v -730.0048217773438 -893.5491943359375 344.97509765625
v -730.0049438476562 456.50079345703125 350.02496337890625
v -730.0048217773438 -893.5491943359375 350.02508544921875
v -730.0299682617188 456.50079345703125 344.9999694824219
v -724.9750366210938 456.50079345703125 344.9999694824219
v -730.0298461914062 -893.5491943359375 345.0000915527344
v -724.9749145507812 -893.5491943359375 345.0000915527344
v -730.0049438476562 456.50079345703125 420.4691467285156
v -730.0048217773438 -893.5491943359375 420.4692687988281
v -730.0049438476562 456.50079345703125 425.5191650390625
v -730.0048217773438 -893.5491943359375 425.519287109375
v -730.0299682617188 456.50079345703125 420.494140625
v -724.9750366210938 456.50079345703125 420.494140625
v -730.0298461914062 -893.5491943359375 420.4942626953125
v -724.9749145507812 -893.5491943359375 420.4942626953125
v -730.0299682617188 456.50079345703125 425.4941711425781
v -730.0298461914062 -893.5491943359375 425.4942932128906
v -724.9750366210938 456.50079345703125 425.4941711425781
v -724.9749145507812 -893.5491943359375 425.4942932128906
v -724.9750366210938 456.47576904296875 9.974967956542969
v -730.0299682617188 456.47576904296875 9.974967002868652
v -724.9750366210938 456.47576904296875 15.024968147277832
v -730.0299682617188 456.47576904296875 15.024967193603516
v -730.0049438476562 456.5007629394531 9.974967002868652
v -730.0048217773438 -893.54931640625 9.975085258483887
v -730.0049438476562 456.5007629394531 15.024967193603516
v -730.0048217773438 -893.54931640625 15.02508544921875
v -730.0298461914062 -893.5242919921875 9.975085258483887
v -724.9749145507812 -893.5242919921875 9.975086212158203
v -730.0298461914062 -893.5242919921875 15.02508544921875
v -724.9749145507812 -893.5242919921875 15.025086402893066
v -730.0299682617188 456.5007629394531 9.999966621398926
v -724.9750366210938 456.5007629394531 9.999967575073242
v -730.0298461914062 -893.54931640625 10.00008487701416
v -724.9749145507812 -893.54931640625 10.000085830688477
v -730.0299682617188 456.5007629394531 14.999967575073242
v -730.0298461914062 -893.54931640625 15.000085830688477
v -724.9750366210938 456.5007629394531 14.999968528747559
v -724.9749145507812 -893.54931640625 15.000086784362793
v -730.0049438476562 456.50079345703125 355.6238708496094
v -730.0048217773438 -893.5491943359375 355.6239929199219
v -730.0049438476562 456.50079345703125 365.6738586425781
v -730.0048217773438 -893.5491943359375 365.6739807128906
v -730.0299682617188 456.50079345703125 355.64886474609375
v -724.9750366210938 456.50079345703125 355.64886474609375
v -730.0298461914062 -893.5491943359375 355.64898681640625
v -724.9749145507812 -893.5491943359375 355.64898681640625
v -730.0049438476562 456.50079345703125 430.3840637207031
v -730.0048217773438 -893.5491943359375 430.3841857910156
v -730.0049438476562 456.50079345703125 440.4340515136719
v -730.0048217773438 -893.5491943359375 440.4341735839844
v -730.0299682617188 456.50079345703125 430.4090576171875
v -724.9750366210938 456.50079345703125 430.4090576171875
v -730.0298461914062 -893.5491943359375 430.4091796875
v -724.9749145507812 -893.5491943359375 430.4091796875
v -730.0299682617188 456.50079345703125 440.4090576171875
v -730.0298461914062 -893.5491943359375 440.4091796875
v -724.9750366210938 456.50079345703125 440.4090576171875
v -724.9749145507812 -893.5491943359375 440.4091796875
v -749.9749145507812 -893.524169921875 249.97508239746094
v -755.0298461914062 -893.524169921875 249.97508239746094
v -749.9749145507812 -893.524169921875 255.0250701904297
v -755.0298461914062 -893.524169921875 255.0250701904297
v -755.0048217773438 -893.4991455078125 249.97508239746094
v -755.0048217773438 -1218.5491943359375 249.97511291503906
v -755.0048217773438 -893.4991455078125 255.0250701904297
v -755.0048217773438 -1218.5491943359375 255.0251007080078
v -755.0298461914062 -1218.524169921875 249.97511291503906
v -749.9749145507812 -1218.524169921875 249.97511291503906
v -755.0298461914062 -1218.524169921875 255.0251007080078
v -749.9749145507812 -1218.524169921875 255.0251007080078
v -755.0298461914062 -893.4991455078125 250.0000762939453
v -749.9749145507812 -893.4991455078125 250.0000762939453
v -755.0298461914062 -1218.5491943359375 250.00010681152344
v -749.9749145507812 -1218.5491943359375 250.00010681152344
v -755.0298461914062 -938.5443115234375 255.0000762939453
v -749.9749145507812 -938.5443115234375 255.0000762939453
v -749.9749145507812 -898.5040283203125 255.0000762939453
v -755.0298461914062 -898.5040283203125 255.0000762939453
v -755.0298461914062 -1168.5491943359375 255.00010681152344
v -749.9749145507812 -1168.5491943359375 255.00010681152344
v -749.9749145507812 -943.4991455078125 255.0000762939453
v -755.0298461914062 -943.4991455078125 255.0000762939453
v -755.0298461914062 -1173.5040283203125 255.00010681152344
v -755.0298461914062 -1213.5443115234375 255.00010681152344
v -749.9749145507812 -1173.5040283203125 255.00010681152344
v -749.9749145507812 -1213.5443115234375 255.00010681152344
v -749.9749145507812 -893.524169921875 254.97508239746094
v -755.0298461914062 -893.524169921875 254.97508239746094
v -749.9749145507812 -893.524169921875 445.0250549316406
v -755.0298461914062 -893.524169921875 445.0250549316406
v -755.0048217773438 -893.4991455078125 254.97508239746094
v -755.0048217773438 -898.5540771484375 254.97508239746094
v -755.0048217773438 -893.4991455078125 445.0250549316406
v -755.0048217773438 -898.5540771484375 445.0250549316406
v -755.0298461914062 -898.529052734375 254.97508239746094
v -749.9749145507812 -898.529052734375 254.97508239746094
v -755.0298461914062 -898.529052734375 445.0250549316406
v -749.9749145507812 -898.529052734375 445.0250549316406
v -755.0298461914062 -893.4991455078125 255.0000762939453
v -749.9749145507812 -893.4991455078125 255.0000762939453
v -755.0298461914062 -898.5540771484375 255.0000762939453
v -749.9749145507812 -898.5540771484375 255.0000762939453
v -755.0298461914062 -898.5040283203125 445.00006103515625
v -749.9749145507812 -898.5040283203125 445.00006103515625
v -755.0298461914062 -1218.5491943359375 445.0000915527344
v -749.9749145507812 -1218.5491943359375 445.0000915527344
v -749.9749145507812 -893.524169921875 444.9750671386719
v -755.0298461914062 -893.524169921875 444.9750671386719
v -749.9749145507812 -893.524169921875 450.02508544921875
v -755.0298461914062 -893.524169921875 450.02508544921875
v -755.0048217773438 -893.4991455078125 444.9750671386719
v -755.0048217773438 -1218.5491943359375 444.97509765625
v -755.0048217773438 -893.4991455078125 450.02508544921875
v -755.0048217773438 -1218.5491943359375 450.0251159667969
v -755.0298461914062 -1218.524169921875 444.97509765625
v -749.9749145507812 -1218.524169921875 444.97509765625
v -755.0298461914062 -1218.524169921875 450.0251159667969
v -749.9749145507812 -1218.524169921875 450.0251159667969
v -755.0298461914062 -893.4991455078125 445.00006103515625
v -749.9749145507812 -893.4991455078125 445.00006103515625
v -755.0298461914062 -893.4991455078125 450.0000915527344
v -755.0298461914062 -1218.5491943359375 450.0001220703125
v -749.9749145507812 -893.4991455078125 450.0000915527344
v -749.9749145507812 -1218.5491943359375 450.0001220703125
v -749.9749145507812 -1213.519287109375 254.97511291503906
v -755.0298461914062 -1213.519287109375 254.97511291503906
v -749.9749145507812 -1213.519287109375 445.02508544921875
v -755.0298461914062 -1213.519287109375 445.02508544921875
v -755.0048217773438 -1213.4942626953125 254.97511291503906
v -755.0048217773438 -1218.5491943359375 254.97511291503906
v -755.0048217773438 -1213.4942626953125 445.02508544921875
v -755.0048217773438 -1218.5491943359375 445.02508544921875
v -755.0298461914062 -1218.524169921875 254.97511291503906
v -749.9749145507812 -1218.524169921875 254.97511291503906
v -755.0298461914062 -1218.524169921875 445.02508544921875
v -749.9749145507812 -1218.524169921875 445.02508544921875
v -755.0298461914062 -1213.4942626953125 255.00010681152344
v -749.9749145507812 -1213.4942626953125 255.00010681152344
v -755.0298461914062 -1218.5491943359375 255.00010681152344
v -749.9749145507812 -1218.5491943359375 255.00010681152344
v -755.0298461914062 -1213.4942626953125 445.0000915527344
v -755.0298461914062 -1218.5491943359375 445.0000915527344
v -749.9749145507812 -1213.4942626953125 445.0000915527344
v -749.9749145507812 -1218.5491943359375 445.0000915527344
v -749.9749145507812 -938.519287109375 254.97508239746094
v -755.0298461914062 -938.519287109375 254.97508239746094
v -749.9749145507812 -938.519287109375 445.0250549316406
v -755.0298461914062 -938.519287109375 445.0250549316406
v -755.0048217773438 -938.4942626953125 254.97508239746094
v -755.0048217773438 -943.5491943359375 254.97508239746094
v -755.0048217773438 -938.4942626953125 445.0250549316406
v -755.0048217773438 -943.5491943359375 445.0250549316406
v -755.0298461914062 -943.524169921875 254.97508239746094
v -749.9749145507812 -943.524169921875 254.97508239746094
v -755.0298461914062 -943.524169921875 445.0250549316406
v -749.9749145507812 -943.524169921875 445.0250549316406
v -755.0298461914062 -938.4942626953125 255.0000762939453
v -749.9749145507812 -938.4942626953125 255.0000762939453
v -755.0298461914062 -943.5491943359375 255.0000762939453
v -749.9749145507812 -943.5491943359375 255.0000762939453
v -755.0298461914062 -938.4942626953125 445.00006103515625
v -755.0298461914062 -943.5491943359375 445.00006103515625
v -749.9749145507812 -938.4942626953125 445.00006103515625
v -749.9749145507812 -943.5491943359375 445.00006103515625
v -749.9749145507812 -1168.524169921875 254.97511291503906
v -755.0298461914062 -1168.524169921875 254.97511291503906
v -749.9749145507812 -1168.524169921875 445.02508544921875
v -755.0298461914062 -1168.524169921875 445.02508544921875
v -755.0048217773438 -1168.4991455078125 254.97511291503906
v -755.0048217773438 -1173.5540771484375 254.97511291503906
v -755.0048217773438 -1168.4991455078125 445.02508544921875
v -755.0048217773438 -1173.5540771484375 445.02508544921875
v -755.0298461914062 -1173.529052734375 254.97511291503906
v -749.9749145507812 -1173.529052734375 254.97511291503906
v -755.0298461914062 -1173.529052734375 445.02508544921875
v -749.9749145507812 -1173.529052734375 445.02508544921875
v -755.0298461914062 -1168.4991455078125 255.00010681152344
v -749.9749145507812 -1168.4991455078125 255.00010681152344
v -755.0298461914062 -1173.5540771484375 255.00010681152344
v -749.9749145507812 -1173.5540771484375 255.00010681152344
v -755.0298461914062 -1168.4991455078125 445.0000915527344
v -755.0298461914062 -1173.5540771484375 445.0000915527344
v -749.9749145507812 -1168.4991455078125 445.0000915527344
v -749.9749145507812 -1173.5540771484375 445.0000915527344
v -530.0048217773438 -1318.4991455078125 489.9751281738281
v -530.0048217773438 -1323.5540771484375 489.9751281738281
v -530.0048217773438 -1318.4991455078125 500.0251159667969
v -530.0048217773438 -1323.5540771484375 500.0251159667969
v -530.0298461914062 -1323.529052734375 489.9751281738281
v 285.0226135253906 -1323.529052734375 489.97515869140625
v -530.0298461914062 -1323.529052734375 500.0251159667969
v 285.0226135253906 -1323.529052734375 500.025146484375
v 284.99761962890625 -1323.5540771484375 489.97515869140625
v 284.99761962890625 -1318.4991455078125 489.97515869140625
v 284.99761962890625 -1323.5540771484375 500.025146484375
v 284.99761962890625 -1318.4991455078125 500.025146484375
v -530.0298461914062 -1318.4991455078125 500.0001220703125
v -530.0298461914062 -1323.5540771484375 500.0001220703125
v 285.0226135253906 -1318.4991455078125 500.0001525878906
v 285.0226135253906 -1323.5540771484375 500.0001525878906
v -75.00006103515625 881.4507446289062 99.97496032714844
v -75.00006103515625 906.5007934570312 99.97496032714844
v -75.00006103515625 881.4508056640625 400.02496337890625
v -75.00006103515625 906.5008544921875 400.02496337890625
v -74.97505950927734 906.4757690429688 99.97496032714844
v -125.02506256103516 906.4757690429688 99.9749526977539
v -74.97505950927734 906.475830078125 400.02496337890625
v -125.02506256103516 906.475830078125 400.02496337890625
v -125.00006103515625 906.5007934570312 99.9749526977539
v -125.00006103515625 881.4507446289062 99.9749526977539
v -125.00006103515625 906.5008544921875 400.02496337890625
v -125.00006103515625 881.4508056640625 400.02496337890625
v -75.02506256103516 881.4508056640625 399.9999694824219
v 225.02493286132812 906.5008544921875 399.9999694824219
v 225.02493286132812 881.4508056640625 399.9999694824219
v -75.02506256103516 906.5008544921875 399.9999694824219
v 224.99993896484375 881.4508056640625 399.9749755859375
v 224.99993896484375 906.5008544921875 399.9749755859375
v 224.99993896484375 881.4508056640625 490.02496337890625
v 224.99993896484375 906.5008544921875 490.02496337890625
v 225.02493286132812 906.475830078125 399.9749755859375
v -125.02506256103516 906.475830078125 399.9749755859375
v 225.02493286132812 906.475830078125 490.02496337890625
v -125.02506256103516 906.475830078125 490.02496337890625
v -125.00006103515625 906.5008544921875 399.9749755859375
v -125.00006103515625 881.4508056640625 399.9749755859375
v -125.00006103515625 906.5008544921875 490.02496337890625
v -125.00006103515625 881.4508056640625 490.02496337890625
v 224.97494506835938 881.4508056640625 489.9999694824219
v 250.02493286132812 981.5008544921875 489.9999694824219
v 250.02493286132812 881.4508056640625 489.9999694824219
v -150.02505493164062 981.5008544921875 489.9999694824219
v -124.97505950927734 906.4508056640625 489.9999694824219
v -150.02505493164062 881.4508056640625 489.9999694824219
v 224.97494506835938 906.4508056640625 489.9999694824219
v -124.97505950927734 881.4508056640625 489.9999694824219
v 249.99993896484375 881.4508056640625 489.9749755859375
v 249.99993896484375 981.5008544921875 489.9749755859375
v 249.99993896484375 881.4508056640625 500.02496337890625
v 249.99993896484375 981.5008544921875 500.02496337890625
v 250.02493286132812 981.475830078125 489.9749755859375
v -150.02505493164062 981.475830078125 489.9749755859375
v 250.02493286132812 981.475830078125 500.02496337890625
v -150.02505493164062 981.475830078125 500.02496337890625
v -150.00006103515625 981.5008544921875 489.9749755859375
v -150.00006103515625 881.4508056640625 489.9749755859375
v -150.00006103515625 981.5008544921875 500.02496337890625
v -150.00006103515625 881.4508056640625 500.02496337890625
v -150.02505493164062 881.4508056640625 499.9999694824219
v 250.02493286132812 881.4508056640625 499.9999694824219
v 250.02493286132812 981.5008544921875 499.9999694824219
v -150.02505493164062 981.5008544921875 499.9999694824219
v 224.99993896484375 881.4508056640625 99.97496795654297
v 224.99993896484375 906.5008544921875 99.97496795654297
v 224.99993896484375 881.4508056640625 400.02496337890625
v 224.99993896484375 906.5008544921875 400.02496337890625
v 225.02493286132812 906.475830078125 99.97496795654297
v 174.97494506835938 906.475830078125 99.97496795654297
v 225.02493286132812 906.475830078125 400.02496337890625
v 174.97494506835938 906.475830078125 400.02496337890625
v 174.99993896484375 906.5008544921875 99.97496795654297
v 174.99993896484375 881.4508056640625 99.97496795654297
v 174.99993896484375 906.5008544921875 400.02496337890625
v 174.99993896484375 881.4508056640625 400.02496337890625
v 174.97494506835938 881.4508056640625 399.9999694824219
v 225.02493286132812 881.4508056640625 399.9999694824219
v 225.02493286132812 906.5008544921875 399.9999694824219
v 174.97494506835938 906.5008544921875 399.9999694824219
v -749.9750366210938 781.4757690429688 249.97494506835938
v -755.0299682617188 781.4757690429688 249.97494506835938
v -749.9750366210938 781.4757690429688 255.02493286132812
v -755.0299682617188 781.4757690429688 255.02493286132812
v -755.0049438476562 781.5007934570312 249.97494506835938
v -755.0049438476562 456.4507751464844 249.97496032714844
v -755.0049438476562 781.5007934570312 255.02493286132812
v -755.0049438476562 456.4507751464844 255.0249481201172
v -755.0299682617188 456.47576904296875 249.97496032714844
v -749.9750366210938 456.47576904296875 249.97496032714844
v -755.0299682617188 456.47576904296875 255.0249481201172
v -749.9750366210938 456.47576904296875 255.0249481201172
v -755.0299682617188 781.5007934570312 249.99993896484375
v -749.9750366210938 781.5007934570312 249.99993896484375
v -755.0299682617188 456.4507751464844 249.9999542236328
v -749.9750366210938 456.4507751464844 249.9999542236328
v -755.0299682617188 736.4556884765625 254.99993896484375
v -749.9750366210938 736.4556884765625 254.99993896484375
v -749.9750366210938 776.4959106445312 254.99993896484375
v -755.0299682617188 776.4959106445312 254.99993896484375
v -755.0299682617188 506.4507751464844 254.9999542236328
v -749.9750366210938 506.4507751464844 254.9999542236328
v -749.9750366210938 731.5007934570312 254.99993896484375
v -755.0299682617188 731.5007934570312 254.99993896484375
v -755.0299682617188 501.495849609375 254.9999542236328
v -755.0299682617188 461.4556579589844 254.9999542236328
v -749.9750366210938 501.495849609375 254.9999542236328
v -749.9750366210938 461.4556579589844 254.9999542236328
v -749.9750366210938 781.4757690429688 254.97494506835938
v -755.0299682617188 781.4757690429688 254.97494506835938
v -749.9750366210938 781.475830078125 445.02490234375
v -755.0299682617188 781.475830078125 445.02490234375
v -755.0049438476562 781.5007934570312 254.97494506835938
v -755.0049438476562 776.4458618164062 254.97494506835938
v -755.0049438476562 781.5008544921875 445.02490234375
v -755.0049438476562 776.4458618164062 445.02490234375
v -755.0299682617188 776.4708862304688 254.97494506835938
v -749.9750366210938 776.4708862304688 254.97494506835938
v -755.0299682617188 776.4708862304688 445.02490234375
v -749.9750366210938 776.4708862304688 445.02490234375
v -755.0299682617188 781.5007934570312 254.99993896484375
v -749.9750366210938 781.5007934570312 254.99993896484375
v -755.0299682617188 776.4458618164062 254.99993896484375
v -749.9750366210938 776.4458618164062 254.99993896484375
v -755.0299682617188 776.4959106445312 444.9999084472656
v -749.9750366210938 776.4959106445312 444.9999084472656
v -755.0299682617188 456.4508056640625 444.99993896484375
v -749.9750366210938 456.4508056640625 444.99993896484375
v -749.9750366210938 781.475830078125 444.97491455078125
v -755.0299682617188 781.475830078125 444.97491455078125
v -749.9750366210938 781.475830078125 450.0249328613281
v -755.0299682617188 781.475830078125 450.0249328613281
v -755.0049438476562 781.5008544921875 444.97491455078125
v -755.0049438476562 456.4508056640625 444.9749450683594
v -755.0049438476562 781.5008544921875 450.0249328613281
v -755.0049438476562 456.4508056640625 450.02496337890625
v -755.0299682617188 456.4757995605469 444.9749450683594
v -749.9750366210938 456.4757995605469 444.9749450683594
v -755.0299682617188 456.4757995605469 450.02496337890625
v -749.9750366210938 456.4757995605469 450.02496337890625
v -755.0299682617188 781.5008544921875 444.9999084472656
v -749.9750366210938 781.5008544921875 444.9999084472656
v -755.0299682617188 781.5008544921875 449.99993896484375
v -755.0299682617188 456.4508056640625 449.9999694824219
v -749.9750366210938 781.5008544921875 449.99993896484375
v -749.9750366210938 456.4508056640625 449.9999694824219
v -749.9750366210938 461.48065185546875 254.97496032714844
v -755.0299682617188 461.48065185546875 254.97496032714844
v -749.9750366210938 461.4806823730469 445.0249328613281
v -755.0299682617188 461.4806823730469 445.0249328613281
v -755.0049438476562 461.5056457519531 254.97496032714844
v -755.0049438476562 456.4507751464844 254.97496032714844
v -755.0049438476562 461.50567626953125 445.0249328613281
v -755.0049438476562 456.4508056640625 445.0249328613281
v -755.0299682617188 456.47576904296875 254.97496032714844
v -749.9750366210938 456.47576904296875 254.97496032714844
v -755.0299682617188 456.4757995605469 445.0249328613281
v -749.9750366210938 456.4757995605469 445.0249328613281
v -755.0299682617188 461.5056457519531 254.9999542236328
v -749.9750366210938 461.5056457519531 254.9999542236328
v -755.0299682617188 456.4507751464844 254.9999542236328
v -749.9750366210938 456.4507751464844 254.9999542236328
v -755.0299682617188 461.50567626953125 444.99993896484375
v -755.0299682617188 456.4508056640625 444.99993896484375
v -749.9750366210938 461.50567626953125 444.99993896484375
v -749.9750366210938 456.4508056640625 444.99993896484375
v -749.9750366210938 736.480712890625 254.97494506835938
v -755.0299682617188 736.480712890625 254.97494506835938
v -749.9750366210938 736.480712890625 445.02490234375
v -755.0299682617188 736.480712890625 445.02490234375
v -755.0049438476562 736.5057373046875 254.97494506835938
v -755.0049438476562 731.4508056640625 254.97494506835938
v -755.0049438476562 736.5057373046875 445.02490234375
v -755.0049438476562 731.4508056640625 445.02490234375
v -755.0299682617188 731.475830078125 254.97494506835938
v -749.9750366210938 731.475830078125 254.97494506835938
v -755.0299682617188 731.475830078125 445.02490234375
v -749.9750366210938 731.475830078125 445.02490234375
v -755.0299682617188 736.5057373046875 254.99993896484375
v -749.9750366210938 736.5057373046875 254.99993896484375
v -755.0299682617188 731.4508056640625 254.99993896484375
v -749.9750366210938 731.4508056640625 254.99993896484375
v -755.0299682617188 736.5057373046875 444.9999084472656
v -755.0299682617188 731.4508056640625 444.9999084472656
v -749.9750366210938 736.5057373046875 444.9999084472656
v -749.9750366210938 731.4508056640625 444.9999084472656
v -749.9750366210938 506.47576904296875 254.97496032714844
v -755.0299682617188 506.47576904296875 254.97496032714844
v -749.9750366210938 506.4757995605469 445.0249328613281
v -755.0299682617188 506.4757995605469 445.0249328613281
v -755.0049438476562 506.5007629394531 254.97496032714844
v -755.0049438476562 501.44586181640625 254.97496032714844
v -755.0049438476562 506.50079345703125 445.0249328613281
v -755.0049438476562 501.4458923339844 445.0249328613281
v -755.0299682617188 501.4708557128906 254.97496032714844
v -749.9750366210938 501.4708557128906 254.97496032714844
v -755.0299682617188 501.47088623046875 445.0249328613281
v -749.9750366210938 501.47088623046875 445.0249328613281
v -755.0299682617188 506.5007629394531 254.9999542236328
v -749.9750366210938 506.5007629394531 254.9999542236328
v -755.0299682617188 501.44586181640625 254.9999542236328
v -749.9750366210938 501.44586181640625 254.9999542236328
v -755.0299682617188 506.50079345703125 444.99993896484375
v -755.0299682617188 501.4458923339844 444.99993896484375
v -749.9750366210938 506.50079345703125 444.99993896484375
v -749.9750366210938 501.4458923339844 444.99993896484375
v -730.0049438476562 456.50079345703125 370.1888732910156
v -730.0048217773438 -893.5491943359375 370.1889953613281
v -730.0049438476562 456.50079345703125 375.2388610839844
v -730.0048217773438 -893.5491943359375 375.2389831542969
v -730.0299682617188 456.50079345703125 370.2138671875
v -724.9750366210938 456.50079345703125 370.2138671875
v -730.0298461914062 -893.5491943359375 370.2139892578125
v -724.9749145507812 -893.5491943359375 370.2139892578125
v -730.0049438476562 456.50079345703125 444.7493591308594
v -730.0048217773438 -893.5491943359375 444.7494812011719
v -730.0049438476562 456.50079345703125 449.79937744140625
v -730.0048217773438 -893.5491943359375 449.79949951171875
v -730.0299682617188 456.50079345703125 444.77435302734375
v -724.9750366210938 456.50079345703125 444.77435302734375
v -730.0298461914062 -893.5491943359375 444.77447509765625
v -724.9749145507812 -893.5491943359375 444.77447509765625
v -730.0299682617188 456.50079345703125 449.7743835449219
v -730.0298461914062 -893.5491943359375 449.7745056152344
v -724.9750366210938 456.50079345703125 449.7743835449219
v -724.9749145507812 -893.5491943359375 449.7745056152344
v -724.950439453125 -1268.529052734375 500.0001220703125
v 724.9573364257812 -1268.5418701171875 500.00018310546875
v 725.0176391601562 831.4332275390625 500.0
v -725.0177612304688 831.4331665039062 499.99993896484375
v -724.950439453125 -1268.529052734375 590.0001220703125
v 724.9573364257812 -1268.5418701171875 590.0001831054688
v 725.017578125 831.4332275390625 590.0
v -725.0177612304688 831.4331665039062 589.9999389648438
f 90 92 89
f 90 89 91
f 932 931 933
f 934 932 933
f 928 927 929
f 930 928 929
f 924 923 925
f 926 924 925
f 896 895 897
f 898 896 897
f 892 891 893
f 894 892 893
f 888 887 889
f 890 888 889
f 884 886 883
f 884 883 885
f 880 879 881
f 882 880 881
f 876 875 877
f 878 876 877
f 872 871 873
f 874 872 873
f 540 539 541
f 542 540 541
f 528 527 529
f 530 528 529
f 496 495 497
f 498 496 497
f 484 483 485
f 486 484 485
f 314 313 315
f 316 314 315
f 310 309 311
f 312 310 311
f 306 305 307
f 308 306 307
f 302 301 303
f 304 302 303
f 298 297 299
f 300 298 299
f 294 293 295
f 296 294 295
f 290 289 291
f 292 290 291
f 286 285 287
f 288 286 287
f 282 281 283
f 284 282 283
f 278 277 279
f 280 278 279
f 262 261 263
f 264 262 263
f 222 221 223
f 224 222 223
f 218 217 219
f 220 218 219
f 202 201 203
f 204 202 203
f 170 172 169
f 170 169 171
f 154 156 153
f 154 153 155
f 138 140 137
f 138 137 139
f 126 125 127
f 128 126 127
f 122 121 123
f 122 123 124
f 110 109 111
f 112 110 111
f 106 105 107
f 106 107 108
f 73 72 74
f 74 76 73
f 67 80 66
f 66 65 67
f 67 65 68
f 68 65 69
f 69 65 74
f 71 69 74
f 75 71 74
f 72 75 74
f 72 82 75
f 82 80 75
f 70 69 71
f 70 71 88
f 88 71 67
f 68 88 67
f 80 82 66
f 82 83 66
f 83 84 66
f 84 83 87
f 87 83 73
f 85 87 73
f 81 85 73
f 73 76 81
f 81 76 77
f 77 76 66
f 79 77 66
f 84 79 66
f 86 87 85
f 86 85 78
f 78 79 86
f 78 77 79
f 936 935 937
f 935 938 937
f 182 181 183
f 183 181 184
f 180 177 178
f 178 177 179
f 174 173 175
f 173 176 175
f 166 165 167
f 167 165 168
f 164 161 162
f 162 161 163
f 158 157 159
f 157 160 159
f 150 149 151
f 151 149 152
f 148 145 146
f 146 145 147
f 142 141 143
f 141 144 143
f 134 133 135
f 135 133 136
f 132 129 130
f 130 129 131
f 118 117 119
f 119 117 120
f 116 113 114
f 114 113 115
f 102 101 103
f 103 101 104
f 100 97 98
f 98 97 99
f 94 93 95
f 93 96 95
f 54 53 55
f 55 53 59
f 57 55 59
f 58 57 59
f 59 63 58
f 58 63 64
f 64 63 61
f 62 64 61
f 61 60 62
f 62 60 56
f 56 57 62
f 56 55 57
f 8 7 2
f 3 8 2
f 2 1 3
f 3 1 4
f 4 1 6
f 5 4 6
f 6 7 5
f 5 7 8
f 16 14 15
f 14 13 15
f 186 185 187
f 191 190 192
f 192 190 187
f 188 192 187
f 187 185 188
f 188 185 189
f 194 193 189
f 189 193 188
f 10 9 11
f 12 10 11
f 644 643 645
f 646 644 645
f 640 639 641
f 642 640 641
f 636 635 637
f 638 636 637
f 632 631 633
f 634 632 633
f 628 627 629
f 630 628 629
f 624 623 625
f 626 624 625
f 620 619 621
f 622 620 621
f 596 595 597
f 598 596 597
f 592 591 593
f 594 592 593
f 588 587 589
f 590 588 589
f 584 583 585
f 586 584 585
f 580 579 581
f 582 580 581
f 576 575 577
f 578 576 577
f 572 571 573
f 574 572 573
f 536 535 537
f 538 536 537
f 532 531 533
f 534 532 533
f 492 491 493
f 494 492 493
f 488 487 489
f 490 488 489
f 274 273 275
f 276 274 275
f 270 269 271
f 272 270 271
f 266 265 267
f 268 266 267
f 214 213 215
f 216 214 215
f 210 209 211
f 212 210 211
f 206 205 207
f 208 206 207
f 198 199 200
f 196 199 198
f 198 195 196
f 196 195 197
f 18 17 19
f 20 18 19
f 42 41 43
f 44 42 43
f 46 45 47
f 48 46 47
f 50 49 51
f 52 50 51
f 604 603 605
f 606 604 605
f 664 663 665
f 666 664 665
f 660 659 661
f 662 660 661
f 656 655 657
f 658 656 657
f 616 615 617
f 618 616 617
f 608 607 609
f 610 608 609
f 39 38 37
f 37 40 39
f 28 40 37
f 29 40 28
f 28 27 29
f 27 25 29
f 26 25 27
f 26 27 34
f 34 33 26
f 33 34 31
f 34 35 31
f 35 36 31
f 36 35 28
f 37 36 28
f 32 33 31
f 31 30 32
f 32 30 24
f 24 25 32
f 24 23 25
f 25 23 29
f 23 21 29
f 22 21 23
f 250 249 251
f 250 251 252
f 246 245 247
f 246 247 248
f 240 239 241
f 236 1087 238
f 236 239 240
f 233 242 243
f 243 244 233
f 1088 244 232
f 232 231 1088
f 232 234 1089
f 1090 1089 234
f 234 235 1090
f 238 235 236
f 236 235 237
f 226 225 227
f 227 225 228
f 228 229 227
f 230 229 228
f 920 919 921
f 919 922 921
f 568 567 569
f 567 570 569
f 326 325 327
f 327 325 323
f 324 1091 323
f 329 328 318
f 318 330 329
f 319 330 1092
f 1092 317 319
f 1093 320 319
f 320 1093 1094
f 1094 321 320
f 323 321 324
f 322 321 323
f 916 915 917
f 918 916 917
f 912 911 913
f 914 912 913
f 908 907 909
f 910 908 909
f 903 904 906
f 903 902 904
f 905 902 903
f 900 902 905
f 900 905 899
f 900 899 901
f 398 397 399
f 399 397 392
f 393 399 392
f 392 391 393
f 393 391 394
f 394 391 396
f 395 394 396
f 396 402 395
f 395 402 401
f 401 400 395
f 868 867 869
f 870 868 869
f 864 863 865
f 866 864 865
f 860 859 861
f 862 860 861
f 856 855 857
f 858 856 857
f 564 563 565
f 566 564 565
f 560 559 561
f 562 560 561
f 556 555 557
f 558 556 557
f 552 551 553
f 554 552 553
f 524 523 525
f 526 524 525
f 520 519 521
f 522 520 521
f 516 515 517
f 518 516 517
f 512 511 513
f 514 512 513
f 508 507 509
f 510 508 509
f 388 387 389
f 390 388 389
f 384 383 385
f 386 384 385
f 380 379 381
f 382 380 381
f 376 375 377
f 378 376 377
f 372 371 373
f 374 372 373
f 368 367 369
f 370 368 369
f 364 363 365
f 366 364 365
f 360 359 361
f 362 360 361
f 356 355 357
f 358 356 357
f 352 351 353
f 354 352 353
f 348 347 349
f 350 348 349
f 344 343 345
f 346 344 345
f 258 257 259
f 258 259 260
f 254 253 255
f 254 255 256
f 544 543 545
f 544 549 543
f 544 546 549
f 549 546 547
f 547 546 548
f 547 548 550
f 500 499 501
f 501 505 500
f 503 505 501
f 503 501 502
f 503 502 504
f 504 506 503
f 336 340 341
f 341 342 336
f 336 342 335
f 335 334 336
f 335 331 334
f 334 331 332
f 332 331 333
f 333 338 332
f 333 337 338
f 338 337 339
f 404 403 405
f 406 404 405
f 420 419 421
f 422 420 421
f 416 415 417
f 418 416 417
f 412 411 413
f 414 412 413
f 408 407 409
f 410 408 409
f 1084 1083 1085
f 1086 1084 1085
f 1080 1079 1081
f 1080 1081 1082
f 1076 1075 1077
f 1078 1076 1077
f 1072 1071 1073
f 1072 1073 1074
f 1068 1067 1069
f 1070 1068 1069
f 1064 1063 1065
f 1066 1064 1065
f 1060 1059 1061
f 1060 1061 1062
f 1056 1055 1057
f 1058 1056 1057
f 1052 1051 1053
f 1054 1052 1053
f 1048 1047 1049
f 1050 1048 1049
f 1044 1043 1045
f 1046 1044 1045
f 1040 1039 1041
f 1040 1041 1042
f 1036 1035 1037
f 1038 1036 1037
f 1032 1031 1033
f 1034 1032 1033
f 1028 1027 1029
f 1030 1028 1029
f 1024 1023 1025
f 1026 1024 1025
f 1020 1019 1021
f 1020 1021 1022
f 1016 1015 1017
f 1018 1016 1017
f 1012 1011 1013
f 1014 1012 1013
f 1008 1007 1009
f 1010 1008 1009
f 1004 1003 1005
f 1006 1004 1005
f 1000 999 1001
f 1000 1001 1002
f 996 995 997
f 998 996 997
f 992 991 993
f 994 992 993
f 988 987 989
f 990 988 989
f 984 983 985
f 984 985 986
f 980 979 981
f 980 981 982
f 976 975 977
f 978 976 977
f 972 971 973
f 974 972 973
f 968 967 969
f 970 968 969
f 964 963 965
f 966 964 965
f 952 951 953
f 952 953 954
f 948 947 949
f 950 948 949
f 944 943 945
f 946 944 945
f 940 939 941
f 942 940 941
f 852 851 853
f 854 852 853
f 848 847 849
f 848 849 850
f 844 843 845
f 846 844 845
f 840 839 841
f 842 840 841
f 836 835 837
f 838 836 837
f 832 831 833
f 834 832 833
f 828 827 829
f 828 829 830
f 824 823 825
f 826 824 825
f 820 819 821
f 822 820 821
f 816 815 817
f 818 816 817
f 812 811 813
f 814 812 813
f 808 807 809
f 808 809 810
f 804 803 805
f 806 804 805
f 800 799 801
f 802 800 801
f 796 795 797
f 798 796 797
f 792 791 793
f 794 792 793
f 788 787 789
f 788 789 790
f 784 783 785
f 786 784 785
f 780 779 781
f 782 780 781
f 776 775 777
f 778 776 777
f 772 771 773
f 772 773 774
f 768 767 769
f 768 769 770
f 764 763 765
f 766 764 765
f 760 759 761
f 762 760 761
f 756 755 757
f 758 756 757
f 752 751 753
f 754 752 753
f 740 739 741
f 740 741 742
f 736 735 737
f 738 736 737
f 732 731 733
f 734 732 733
f 728 727 729
f 730 728 729
f 724 723 725
f 726 724 725
f 720 719 721
f 720 721 722
f 716 715 717
f 718 716 717
f 712 711 713
f 712 713 714
f 708 707 709
f 710 708 709
f 704 703 705
f 706 704 705
f 700 699 701
f 700 701 702
f 696 695 697
f 698 696 697
f 692 691 693
f 694 692 693
f 688 687 689
f 690 688 689
f 684 683 685
f 686 684 685
f 680 679 681
f 680 681 682
f 676 675 677
f 678 676 677
f 672 671 673
f 672 673 674
f 668 667 669
f 670 668 669
f 652 651 653
f 654 652 653
f 648 647 649
f 648 649 650
f 612 611 613
f 614 612 613
f 600 599 601
f 600 601 602
f 480 479 481
f 482 480 481
f 476 475 477
f 478 476 477
f 472 471 473
f 474 472 473
f 468 467 469
f 470 468 469
f 464 463 465
f 466 464 465
f 460 459 461
f 462 460 461
f 456 455 457
f 458 456 457
f 452 451 453
f 454 452 453
f 448 447 449
f 450 448 449
f 444 443 445
f 446 444 445
f 440 439 441
f 442 440 441
f 436 435 437
f 438 436 437
f 432 431 433
f 434 432 433
f 428 427 429
f 430 428 429
f 424 423 425
f 426 424 425
f 744 743 745
f 743 746 745
f 748 747 749
f 747 750 749
f 956 955 957
f 955 958 957
f 960 959 961
f 959 962 961
