# from WaterfrontDistrict_Block15_Generic_0007_LOD_0.pskx
v 36.11451721191406 -227.16677856445312 -7.736478835340677e-08
v 76.37332153320312 -463.76336669921875 2.2366335542756133e-05
v 36.11450958251953 -227.16676330566406 190.0
v 76.37332153320312 -463.76336669921875 190.00001525878906
v 81.292724609375 -462.92108154296875 2.2507732865051366e-05
v 41.046119689941406 -226.32449340820312 6.456758683270891e-08
v 81.292724609375 -462.92108154296875 190.00001525878906
v 41.046112060546875 -226.32447814941406 190.0
v 76.37332153320312 -463.76336669921875 190.00001525878906
v 41.04610824584961 -226.324462890625 190.0
v 36.11450958251953 -227.16676330566406 190.0
v 81.292724609375 -462.92108154296875 190.00001525878906
v -22.58910369873047 117.87712097167969 -3.280807504779659e-05
v 17.669706344604492 -118.71949005126953 -1.036437606671825e-05
v -22.589111328125 117.87715148925781 189.99996948242188
v 17.669696807861328 -118.71947479248047 189.99998474121094
v 22.589111328125 -117.87718200683594 -1.0222978744423017e-05
v -17.65749740600586 118.71940612792969 -3.2666142942616716e-05
v 22.589101791381836 -117.87716674804688 189.99998474121094
v -17.65750503540039 118.71943664550781 189.99996948242188
v 17.669700622558594 -118.71947479248047 189.99998474121094
v -17.65750503540039 118.71946716308594 189.99996948242188
v -22.589111328125 117.87715148925781 189.99996948242188
v 22.589101791381836 -117.87716674804688 189.99998474121094
v -81.292724609375 462.92108154296875 -6.55387993901968e-05
v -41.03390884399414 226.32447814941406 -4.3095093133160844e-05
v -81.292724609375 462.92108154296875 189.99993896484375
v -41.03391647338867 226.3245086669922 189.9999542236328
v -36.1145133972168 227.1544952392578 -4.295262260711752e-05
v -76.36111450195312 463.76336669921875 -6.539686000905931e-05
v -36.11452102661133 227.15452575683594 189.9999542236328
v -76.36111450195312 463.76336669921875 189.99993896484375
f 2 1 3
f 4 2 3
f 30 29 31
f 32 30 31
f 26 25 27
f 28 26 27
f 18 17 19
f 20 18 19
f 14 13 15
f 16 14 15
f 6 5 7
f 8 6 7
f 9 10 12
f 10 9 11
f 21 22 24
f 22 21 23
