# from WaterfrontDistrict_Block19_Industrial Zone (LC)_0003_LOD_0.pskx
v -194.52593994140625 -2014.55859375 -0.025204075500369072
v 449.14898681640625 -2248.8408203125 -0.025155460461974144
v -194.52603149414062 -2014.55859375 583.0248413085938
v 449.1490173339844 -2248.8408203125 583.02490234375
v 449.116943359375 -2248.855712890625 -0.025155456736683846
v 1081.8974609375 -510.38153076171875 -0.025279775261878967
v 548.6951904296875 -1975.279052734375 100.02481842041016
v 548.6951904296875 -1975.279052734375 360.4628601074219
v 593.8028564453125 -1851.351806640625 360.4628601074219
v 449.1169738769531 -2248.855712890625 583.02490234375
v 1081.8974609375 -510.38153076171875 583.0247192382812
v 593.8028564453125 -1851.351806640625 100.02481079101562
v 1081.912353515625 -510.41357421875 -0.025279782712459564
v 987.8956909179688 -476.1923828125 -0.025286879390478134
v 1081.912353515625 -510.41357421875 583.0247192382812
v 987.895751953125 -476.1923828125 583.0247192382812
v -194.52603149414062 -2014.55859375 582.9747924804688
v 449.1490173339844 -2248.8408203125 582.974853515625
v -194.52603149414062 -2014.55859375 600.0248413085938
v 449.1490173339844 -2248.8408203125 600.02490234375
v 449.1169738769531 -2248.855712890625 582.974853515625
v 1081.8974609375 -510.38153076171875 582.9746704101562
v 449.1169738769531 -2248.855712890625 600.02490234375
v 1081.8974609375 -510.38153076171875 600.0247192382812
v 1081.912353515625 -510.41357421875 582.9746704101562
v 987.895751953125 -476.1923828125 582.9746704101562
v 1081.912353515625 -510.41357421875 600.0247192382812
v 987.895751953125 -476.1923828125 600.0247192382812
v -1806.17138671875 -1427.9619140625 599.974609375
v 449.1490173339844 -2248.8408203125 599.974853515625
v -1806.17138671875 -1427.9619140625 1200.024658203125
v 449.1488037109375 -2248.8408203125 1200.0247802734375
v 449.1169738769531 -2248.855712890625 599.974853515625
v 483.3374328613281 -2154.840087890625 599.9747924804688
v 483.3371887207031 -2154.840087890625 825.9747314453125
v 914.2992553710938 -970.8334350585938 825.9746704101562
v 1044.2548828125 -613.7991333007812 825.974609375
v 681.7166137695312 -1609.821044921875 1050.0247802734375
v 821.9502563476562 -1224.549072265625 1115.6746826171875
v 844.3021850585938 -1163.140625 1115.6746826171875
v 449.1141052246094 -2248.863037109375 1200.0235595703125
v 900.6007690429688 -1008.4678344726562 825.9746704101562
v 704.0685424804688 -1548.412353515625 1115.6746826171875
v 770.6450805664062 -1365.502197265625 825.9746704101562
v 681.7166137695312 -1609.821044921875 1115.6746826171875
v 756.9468383789062 -1403.13671875 825.9746704101562
v 626.9910278320312 -1760.171142578125 825.9747314453125
v 613.2926635742188 -1797.805419921875 825.9747314453125
v 613.2926635742188 -1797.805419921875 599.9747924804688
v 626.9910278320312 -1760.171142578125 599.9747924804688
v 756.9468383789062 -1403.13671875 599.9747314453125
v 770.6450805664062 -1365.502197265625 599.9747314453125
v 900.6007690429688 -1008.4678344726562 599.9747314453125
v 914.2992553710938 -970.8334350585938 599.9747314453125
v 1044.2548828125 -613.7991333007812 599.9746704101562
v 1081.8974609375 -510.38153076171875 599.9746704101562
v 1081.9002685546875 -510.374267578125 1200.0234375
v 704.0685424804688 -1548.412353515625 1050.0247802734375
v 844.3021850585938 -1163.140625 1050.0247802734375
v 821.9502563476562 -1224.549072265625 1050.0247802734375
v 1081.912353515625 -510.41357421875 599.9746704101562
v 987.895751953125 -476.1923828125 599.9745483398438
v 1081.9124755859375 -510.41357421875 1200.024658203125
v 987.8956298828125 -476.1923828125 1200.0245361328125
v 672.279052734375 -1606.43896484375 1115.69970703125
v 694.6651611328125 -1544.9368896484375 1115.69970703125
v 681.7230224609375 -1609.87646484375 1115.69970703125
v 704.109130859375 -1548.3740234375 1115.69970703125
v 672.279052734375 -1606.43896484375 1049.999755859375
v 681.7230224609375 -1609.87646484375 1049.999755859375
v 694.6651611328125 -1544.9368896484375 1049.999755859375
v 704.109130859375 -1548.3740234375 1049.999755859375
v 672.28759765625 -1606.41552734375 1115.7247314453125
v 681.7315673828125 -1609.85302734375 1049.9747314453125
v 672.28759765625 -1606.41552734375 1049.9747314453125
v 681.7315673828125 -1609.85302734375 1115.7247314453125
v 694.6566162109375 -1544.96044921875 1115.7247314453125
v 694.6566162109375 -1544.96044921875 1049.9747314453125
v 704.1005859375 -1548.3974609375 1049.9747314453125
v 704.1005859375 -1548.3974609375 1115.7247314453125
v 812.5126953125 -1221.167236328125 1115.69970703125
v 834.8988037109375 -1159.6650390625 1115.69970703125
v 821.9566650390625 -1224.6044921875 1115.69970703125
v 844.3427734375 -1163.102294921875 1115.69970703125
v 812.5126953125 -1221.167236328125 1049.999755859375
v 821.9566650390625 -1224.6044921875 1049.999755859375
v 834.8988037109375 -1159.6650390625 1049.999755859375
v 844.3427734375 -1163.102294921875 1049.999755859375
v 812.521240234375 -1221.143798828125 1115.7247314453125
v 821.9652099609375 -1224.5810546875 1049.9747314453125
v 812.521240234375 -1221.143798828125 1049.9747314453125
v 821.9652099609375 -1224.5810546875 1115.7247314453125
v 834.8902587890625 -1159.6884765625 1115.7247314453125
v 834.8902587890625 -1159.6884765625 1049.9747314453125
v 844.334228515625 -1163.125732421875 1049.9747314453125
v 844.334228515625 -1163.125732421875 1115.7247314453125
v 473.8997497558594 -2151.4580078125 825.999755859375
v 603.8895263671875 -1794.330078125 825.999755859375
v 483.3435974121094 -2154.8955078125 825.999755859375
v 613.333251953125 -1797.76708984375 825.999755859375
v 473.8997497558594 -2151.4580078125 599.9998168945312
v 483.3438415527344 -2154.8955078125 599.9998168945312
v 603.8895263671875 -1794.330078125 599.9998168945312
v 613.333251953125 -1797.76708984375 599.9998168945312
v 473.9082946777344 -2151.4345703125 826.0247802734375
v 483.3523864746094 -2154.8720703125 599.9747924804688
v 473.9082946777344 -2151.4345703125 599.9747924804688
v 483.3521423339844 -2154.8720703125 826.0247802734375
v 603.8809814453125 -1794.353515625 826.0247802734375
v 603.8809814453125 -1794.353515625 599.9747924804688
v 613.32470703125 -1797.79052734375 599.9747924804688
v 613.32470703125 -1797.79052734375 826.0247802734375
v 617.5537109375 -1756.78955078125 825.999755859375
v 747.543701171875 -1399.6611328125 825.9996948242188
v 626.9974365234375 -1760.2265625 825.999755859375
v 756.9874267578125 -1403.098388671875 825.9996948242188
v 617.5537109375 -1756.78955078125 599.9998168945312
v 626.9974365234375 -1760.2265625 599.9998168945312
v 747.543701171875 -1399.6611328125 599.999755859375
v 756.9874267578125 -1403.098388671875 599.999755859375
v 617.562255859375 -1756.76611328125 826.0247802734375
v 627.0059814453125 -1760.203125 599.9747924804688
v 617.562255859375 -1756.76611328125 599.9747924804688
v 627.0059814453125 -1760.203125 826.0247802734375
v 747.53515625 -1399.6845703125 826.0247192382812
v 747.53515625 -1399.6845703125 599.9747314453125
v 756.9788818359375 -1403.121826171875 599.9747314453125
v 756.9788818359375 -1403.121826171875 826.0247192382812
v 761.207763671875 -1362.12060546875 825.9996948242188
v 891.1976318359375 -1004.9918823242188 825.9996948242188
v 770.6514892578125 -1365.5576171875 825.9996948242188
v 900.641357421875 -1008.4293823242188 825.9996948242188
v 761.207763671875 -1362.12060546875 599.999755859375
v 770.6514892578125 -1365.5576171875 599.999755859375
v 891.1976318359375 -1004.9918823242188 599.999755859375
v 900.641357421875 -1008.4293823242188 599.999755859375
v 761.21630859375 -1362.09716796875 826.0247192382812
v 770.6600341796875 -1365.5341796875 599.9747314453125
v 761.21630859375 -1362.09716796875 599.9747314453125
v 770.6600341796875 -1365.5341796875 826.0247192382812
v 891.1890869140625 -1005.015380859375 826.0247192382812
v 891.1890869140625 -1005.015380859375 599.9747314453125
v 900.6328125 -1008.452880859375 599.9747314453125
v 900.6328125 -1008.452880859375 826.0247192382812
v 904.8619384765625 -967.4514770507812 825.9996948242188
v 1034.8516845703125 -610.3229370117188 825.9996337890625
v 914.3056640625 -970.8889770507812 825.9996948242188
v 1044.2955322265625 -613.7606811523438 825.9996337890625
v 904.8619384765625 -967.4514770507812 599.999755859375
v 914.3056640625 -970.8889770507812 599.999755859375
v 1034.851806640625 -610.3231811523438 599.9996948242188
v 1044.29541015625 -613.7606811523438 599.9996948242188
v 904.8704833984375 -967.427978515625 826.0247192382812
v 914.314208984375 -970.865478515625 599.9747314453125
v 904.8704833984375 -967.427978515625 599.9747314453125
v 914.314208984375 -970.865478515625 826.0247192382812
v 1034.8431396484375 -610.346435546875 826.024658203125
v 1034.84326171875 -610.3466796875 599.9746704101562
v 1044.286865234375 -613.7841796875 599.9746704101562
v 1044.286865234375 -613.7841796875 826.024658203125
v -1815.5421142578125 -1424.5782470703125 1199.9920654296875
v 449.1406555175781 -2248.86328125 1199.9921875
v -1499.7183837890625 -556.9200439453125 1500.0074462890625
v 764.9572143554688 -1381.2020263671875 1500.007568359375
v 764.9229736328125 -1381.2230224609375 1500.048583984375
v 766.0909423828125 -1378.0145263671875 1500.048583984375
v 1081.920654296875 -510.3912353515625 1199.991943359375
v -1182.7501220703125 313.8814697265625 1199.9918212890625
v 766.1036987304688 -1378.0526123046875 1500.0074462890625
v -1498.5745849609375 -553.7777099609375 1500.0074462890625
v 765.4620361328125 -1379.632080078125 1510.0
v 449.0729064941406 -2248.847900390625 1209.9921875
v 467.93096923828125 -2255.7255859375 1209.9923095703125
v 784.316650390625 -1386.5037841796875 1510.0076904296875
v 765.446533203125 -1379.6016845703125 1480.0074462890625
v 467.9308166503906 -2255.72607421875 1179.9921875
v 449.0729064941406 -2248.847900390625 1179.9921875
v 784.316650390625 -1386.5037841796875 1480.0076904296875
v 449.0810546875 -2248.82568359375 1210.02490234375
v 467.93896484375 -2255.70361328125 1179.974853515625
v 467.93896484375 -2255.70361328125 1210.02490234375
v 449.0810546875 -2248.82568359375 1179.974853515625
v 467.9042663574219 -2255.725830078125 1210.023681640625
v 784.296142578125 -1386.48681640625 1479.9761962890625
v 784.2908935546875 -1386.5013427734375 1510.0238037109375
v 467.9095458984375 -2255.71142578125 1179.97607421875
v 784.3084716796875 -1386.526123046875 1510.0250244140625
v 765.4383544921875 -1379.6240234375 1479.9747314453125
v 765.4383544921875 -1379.6240234375 1510.02490234375
v 784.3084716796875 -1386.526123046875 1479.9749755859375
v 765.4677734375 -1379.6163330078125 1510.023681640625
v 449.0986328125 -2248.8505859375 1179.97607421875
v 449.0933532714844 -2248.864990234375 1210.023681640625
v 765.4730224609375 -1379.601806640625 1479.9759521484375
v 784.30029296875 -1386.5484619140625 1510.0076904296875
v 1100.6988525390625 -517.2655029296875 1209.9920654296875
v 1081.852783203125 -510.3758544921875 1209.9920654296875
v 765.43017578125 -1379.6463623046875 1510.007568359375
v 784.30029296875 -1386.5484619140625 1480.0076904296875
v 1081.852783203125 -510.3758544921875 1179.9920654296875
v 1100.6988525390625 -517.2655029296875 1179.9920654296875
v 765.43017578125 -1379.6463623046875 1480.0074462890625
v 765.4383544921875 -1379.6240234375 1510.02490234375
v 784.3084716796875 -1386.526123046875 1479.9749755859375
v 784.3084716796875 -1386.526123046875 1510.0250244140625
v 765.4383544921875 -1379.6240234375 1479.9747314453125
v 784.279052734375 -1386.5338134765625 1510.0238037109375
v 1100.673095703125 -517.2630615234375 1179.9759521484375
v 1100.678466796875 -517.24853515625 1210.0235595703125
v 784.2738037109375 -1386.54833984375 1479.9761962890625
v 1100.690673828125 -517.2879028320312 1210.0247802734375
v 1081.8447265625 -510.3981628417969 1179.9747314453125
v 1081.8447265625 -510.3981628417969 1210.0247802734375
v 1100.690673828125 -517.2879028320312 1179.9747314453125
v 1081.87939453125 -510.3760070800781 1210.0235595703125
v 765.45068359375 -1379.663330078125 1479.9759521484375
v 765.4559326171875 -1379.6488037109375 1510.023681640625
v 1081.8740234375 -510.3905029296875 1179.9759521484375
v -1166.5716552734375 329.3225402832031 1209.9996337890625
v -1173.4249267578125 310.45233154296875 1209.9996337890625
v 1107.5352783203125 -498.42889404296875 1209.9998779296875
v 1100.68212890625 -517.3113403320312 1209.999755859375
v -1166.5716552734375 329.3225402832031 1179.9996337890625
v 1107.5352783203125 -498.42889404296875 1179.9998779296875
v -1173.4249267578125 310.45233154296875 1179.9996337890625
v 1100.68212890625 -517.3113403320312 1179.999755859375
v 1107.526611328125 -498.452392578125 1210.02490234375
v -1166.5802001953125 329.299072265625 1179.974609375
v -1166.5802001953125 329.299072265625 1210.024658203125
v 1107.526611328125 -498.452392578125 1179.974853515625
v -1166.5482177734375 329.31402587890625 1210.024658203125
v -1173.4013671875 310.44378662109375 1179.974609375
v -1173.4013671875 310.44378662109375 1210.024658203125
v -1166.5482177734375 329.31402587890625 1179.974609375
v -1173.416259765625 310.475830078125 1210.024658203125
v 1100.690673828125 -517.287841796875 1179.9747314453125
v 1100.690673828125 -517.287841796875 1210.0247802734375
v -1173.416259765625 310.475830078125 1179.974609375
v 1100.65869140625 -517.3027954101562 1210.0247802734375
v 1107.51171875 -498.42034912109375 1179.974853515625
v 1107.51171875 -498.42034912109375 1210.02490234375
v 1100.65869140625 -517.3027954101562 1179.9747314453125
v -1806.1590576171875 -1427.9285888671875 1209.999755859375
v 461.0700378417969 -2274.4765625 1210.0
v 467.947509765625 -2255.68017578125 1209.9998779296875
v -1813.0364990234375 -1446.737548828125 1209.999755859375
v -1806.1590576171875 -1427.9285888671875 1179.999755859375
v 467.947509765625 -2255.68017578125 1179.9998779296875
v 461.0700378417969 -2274.4765625 1180.0
v -1813.0364990234375 -1446.737548828125 1179.999755859375
v 467.93896484375 -2255.70361328125 1210.02490234375
v -1806.1676025390625 -1427.9521484375 1179.9747314453125
v -1806.1676025390625 -1427.9521484375 1210.0247802734375
v 467.93896484375 -2255.70361328125 1179.974853515625
v -1806.1356201171875 -1427.937255859375 1210.0247802734375
v -1813.0130615234375 -1446.74609375 1179.9747314453125
v -1813.0130615234375 -1446.74609375 1210.0247802734375
v -1806.1356201171875 -1427.937255859375 1179.9747314453125
v -1813.0279541015625 -1446.714111328125 1210.0247802734375
v 461.07861328125 -2274.453125 1179.9749755859375
v 461.07861328125 -2274.453125 1210.0250244140625
v -1813.0279541015625 -1446.714111328125 1179.9747314453125
v 461.0465393066406 -2274.468017578125 1210.0250244140625
v 467.9240417480469 -2255.671630859375 1179.974853515625
v 467.9240417480469 -2255.671630859375 1210.02490234375
v 461.0465393066406 -2274.468017578125 1179.9749755859375
v -1489.80224609375 -558.6910400390625 1510.0086669921875
v -1498.36328125 -582.2220458984375 1501.90625
v 765.4203491210938 -1379.6556396484375 1510.007568359375
v 756.8469848632812 -1403.1986083984375 1501.9052734375
v -1489.80224609375 -558.6910400390625 1500.008544921875
v 765.4203491210938 -1379.6556396484375 1500.0074462890625
v -1498.36328125 -582.2220458984375 1491.90625
v 756.8469848632812 -1403.1986083984375 1491.9052734375
v 765.4122314453125 -1379.677978515625 1510.02490234375
v -1489.810302734375 -558.71337890625 1499.975830078125
v -1489.810302734375 -558.71337890625 1510.0260009765625
v 765.4122314453125 -1379.677978515625 1499.9747314453125
v -1489.781005859375 -558.7056884765625 1510.0247802734375
v -1498.3375244140625 -582.2244873046875 1491.89013671875
v -1498.3428955078125 -582.2389526367188 1501.937744140625
v -1489.775634765625 -558.6912231445312 1499.97705078125
v -1498.3551025390625 -582.19970703125 1501.93896484375
v 756.8551025390625 -1403.17626953125 1491.887939453125
v 756.8551025390625 -1403.17626953125 1501.93798828125
v -1498.3551025390625 -582.19970703125 1491.888916015625
v 756.8204345703125 -1403.198486328125 1501.936767578125
v 765.39990234375 -1379.638671875 1499.9759521484375
v 765.3946533203125 -1379.6531982421875 1510.023681640625
v 756.82568359375 -1403.1839599609375 1491.88916015625
v -1481.2452392578125 -535.2047119140625 1501.9058837890625
v -1489.8184814453125 -558.7357177734375 1510.008544921875
v 773.9653930664062 -1356.1688232421875 1501.9051513671875
v 765.4041137695312 -1379.7003173828125 1510.0074462890625
v -1481.2452392578125 -535.2047119140625 1491.906005859375
v 773.9653930664062 -1356.1688232421875 1491.9051513671875
v -1489.8184814453125 -558.7357177734375 1500.008544921875
v 765.4041137695312 -1379.7003173828125 1500.0074462890625
v 773.957275390625 -1356.191162109375 1501.9378662109375
v -1481.2532958984375 -535.22705078125 1491.888671875
v -1481.2532958984375 -535.22705078125 1501.9385986328125
v 773.957275390625 -1356.191162109375 1491.8878173828125
v -1481.2186279296875 -535.2048950195312 1501.9373779296875
v -1489.798095703125 -558.7526245117188 1499.97705078125
v -1489.7928466796875 -558.7381591796875 1510.024658203125
v -1481.223876953125 -535.2193603515625 1491.889892578125
v -1489.810302734375 -558.71337890625 1510.02587890625
v 765.4122314453125 -1379.677978515625 1499.9747314453125
v 765.4122314453125 -1379.677978515625 1510.0247802734375
v -1489.810302734375 -558.71337890625 1499.975830078125
v 765.3828125 -1379.6856689453125 1510.0235595703125
v 773.939697265625 -1356.1663818359375 1491.8890380859375
v 773.9449462890625 -1356.15185546875 1501.9366455078125
v 765.3775634765625 -1379.7001953125 1499.9759521484375
v -1499.7349853515625 -556.9658813476562 1499.9996337890625
v 764.9405517578125 -1381.2479248046875 1499.999755859375
v -1498.5579833984375 -553.7318725585938 1499.9996337890625
v 766.120361328125 -1378.0068359375 1499.999755859375
v 458.4896240234375 -2252.269775390625 -0.025154752656817436
v 492.69873046875 -2158.253173828125 -0.02516147308051586
v 458.4896545410156 -2252.269775390625 583.02490234375
v 492.6987609863281 -2158.253173828125 583.0248413085938
v 492.71368408203125 -2158.28515625 -0.02516147494316101
v 483.26715087890625 -2154.85009765625 -0.02516218088567257
v 492.7137145996094 -2158.28515625 583.0247192382812
v 483.2671813964844 -2154.85009765625 583.0247192382812
v 449.07513427734375 -2248.81982421875 -0.025155460461974144
v 458.52166748046875 -2252.2548828125 -0.025154754519462585
v 449.0751647949219 -2248.81982421875 583.0247802734375
v 458.5216979980469 -2252.2548828125 583.0247802734375
v 458.4896545410156 -2252.269775390625 582.974853515625
v 492.6987609863281 -2158.253173828125 582.9747924804688
v 458.4896545410156 -2252.269775390625 600.02490234375
v 492.6987609863281 -2158.253173828125 600.0248413085938
v 492.7137145996094 -2158.28515625 582.9746704101562
v 483.2671813964844 -2154.85009765625 582.9746704101562
v 492.7137145996094 -2158.28515625 600.0247192382812
v 483.2671813964844 -2154.85009765625 600.0247192382812
v 449.0751647949219 -2248.81982421875 582.9747314453125
v 458.5216979980469 -2252.2548828125 582.9747314453125
v 449.0751647949219 -2248.81982421875 600.0247802734375
v 458.5216979980469 -2252.2548828125 600.0247802734375
v 458.4896545410156 -2252.269775390625 599.9750366210938
v 492.6987609863281 -2158.253173828125 599.9749755859375
v 458.4896545410156 -2252.269775390625 815.0250854492188
v 492.6985168457031 -2158.253173828125 815.0250244140625
v 492.7137145996094 -2158.28515625 599.9749755859375
v 483.2671813964844 -2154.85009765625 599.9749755859375
v 492.7134704589844 -2158.28515625 815.0250244140625
v 483.2669372558594 -2154.85009765625 815.0250244140625
v 449.0751647949219 -2248.81982421875 599.9750366210938
v 458.5216979980469 -2252.2548828125 599.9750366210938
v 449.0751647949219 -2248.81982421875 815.0250854492188
v 458.5216979980469 -2252.2548828125 815.0250854492188
v 398.6829528808594 -2241.14697265625 815.0005493164062
v 449.1307067871094 -2248.8134765625 815.0005493164062
v 455.1142272949219 -2261.67138671875 815.0001831054688
v 483.3053894042969 -2154.890625 815.00048828125
v 1038.299560546875 -483.88568115234375 815.000732421875
v 492.7049255371094 -2158.30859375 815.00048828125
v 458.5302429199219 -2252.2314453125 815.0005493164062
v 1094.6817626953125 -504.38641357421875 815.0003662109375
v 398.6914978027344 -2241.12353515625 814.9755249023438
v 455.1227722167969 -2261.64794921875 814.9751586914062
v 398.6914978027344 -2241.12353515625 825.025634765625
v 455.1227722167969 -2261.64794921875 825.025146484375
v 455.0907287597656 -2261.662841796875 814.9751586914062
v 1094.6583251953125 -504.37786865234375 814.975341796875
v 455.0907287597656 -2261.662841796875 825.025146484375
v 1094.6583251953125 -504.37786865234375 825.0254516601562
v 1094.6732177734375 -504.409912109375 814.975341796875
v 1038.291015625 -483.9091796875 814.9757080078125
v 1094.6732177734375 -504.409912109375 825.0254516601562
v 1038.291015625 -483.9091796875 825.0258178710938
v 1038.322998046875 -483.89422607421875 814.9757080078125
v 398.7064514160156 -2241.155517578125 814.9755249023438
v 1038.322998046875 -483.89422607421875 825.0258178710938
v 398.7064514160156 -2241.155517578125 825.025634765625
v 398.6829528808594 -2241.14697265625 825.0006103515625
v 455.1142272949219 -2261.67138671875 825.0001831054688
v 1038.299560546875 -483.88568115234375 825.0007934570312
v 1094.6817626953125 -504.38641357421875 825.0004272460938
v 622.625732421875 -1801.1951904296875 -0.025187011808156967
v 636.278076171875 -1763.5504150390625 -0.025189699605107307
v 622.6257934570312 -1801.1951904296875 583.0248413085938
v 636.2778930664062 -1763.5504150390625 583.0248413085938
v 636.2930297851562 -1763.58251953125 -0.02518969029188156
v 626.8587036132812 -1760.1474609375 -0.02519042231142521
v 636.2928466796875 -1763.58251953125 583.0248413085938
v 626.8585205078125 -1760.14697265625 583.0248413085938
v 613.2112426757812 -1797.74462890625 -0.025187719613313675
v 622.6577758789062 -1801.18017578125 -0.025187013670802116
v 613.2113037109375 -1797.74462890625 583.0247192382812
v 622.6578369140625 -1801.18017578125 583.0247192382812
v 622.6257934570312 -1801.1951904296875 582.9747924804688
v 636.2778930664062 -1763.5504150390625 582.9747924804688
v 622.6255493164062 -1801.1947021484375 600.0248413085938
v 636.2778930664062 -1763.5504150390625 600.0248413085938
v 636.2928466796875 -1763.58251953125 582.9747924804688
v 626.8585205078125 -1760.14697265625 582.9747924804688
v 636.2928466796875 -1763.58251953125 600.0248413085938
v 626.8585205078125 -1760.14697265625 600.0248413085938
v 613.2113037109375 -1797.74462890625 582.9746704101562
v 622.6578369140625 -1801.18017578125 582.9746704101562
v 613.2110595703125 -1797.74462890625 600.0247192382812
v 622.6575927734375 -1801.1796875 600.0247192382812
v 622.6255493164062 -1801.1947021484375 599.97509765625
v 636.2778930664062 -1763.5504150390625 599.9751586914062
v 622.6255493164062 -1801.1947021484375 815.025146484375
v 636.2778930664062 -1763.5504150390625 815.0252075195312
v 636.2928466796875 -1763.58251953125 599.9751586914062
v 626.8585205078125 -1760.14697265625 599.9751586914062
v 636.2928466796875 -1763.58251953125 815.0252075195312
v 626.8585205078125 -1760.14697265625 815.0252075195312
v 613.2110595703125 -1797.74462890625 599.9749755859375
v 622.6575927734375 -1801.1796875 599.97509765625
v 613.2110595703125 -1797.74462890625 815.0250244140625
v 622.6575927734375 -1801.1796875 815.025146484375
v 622.6490478515625 -1801.203125 815.0001220703125
v 636.3013916015625 -1763.5589599609375 815.0001831054688
v 626.8670654296875 -1760.12353515625 815.0001831054688
v 613.2025146484375 -1797.7681884765625 815.0
v 766.248779296875 -1406.531982421875 -0.025215234607458115
v 779.9254150390625 -1368.887451171875 -0.025217920541763306
v 766.2485961914062 -1406.531982421875 583.0247802734375
v 779.9252319335938 -1368.887451171875 583.0247802734375
v 779.9403686523438 -1368.91943359375 -0.025217918679118156
v 770.4819946289062 -1365.484130859375 -0.025218646973371506
v 779.940185546875 -1368.91943359375 583.024658203125
v 770.4818115234375 -1365.48388671875 583.024658203125
v 756.8345336914062 -1403.08154296875 -0.025215953588485718
v 766.2808227539062 -1406.51708984375 -0.025215229019522667
v 756.8343505859375 -1403.08154296875 583.024658203125
v 766.2806396484375 -1406.51708984375 583.024658203125
v 766.2485961914062 -1406.531982421875 582.9747314453125
v 779.9252319335938 -1368.887451171875 582.9747314453125
v 766.2485961914062 -1406.531982421875 600.0247802734375
v 779.9252319335938 -1368.887451171875 600.0247802734375
v 779.940185546875 -1368.91943359375 582.974609375
v 770.4818115234375 -1365.48388671875 582.974609375
v 779.940185546875 -1368.91943359375 600.024658203125
v 770.4818115234375 -1365.48388671875 600.024658203125
v 756.8343505859375 -1403.08154296875 582.974609375
v 766.2806396484375 -1406.51708984375 582.974609375
v 756.8343505859375 -1403.08154296875 600.024658203125
v 766.2806396484375 -1406.51708984375 600.024658203125
v 766.2485961914062 -1406.531982421875 599.9749145507812
v 779.9252319335938 -1368.887451171875 599.9750366210938
v 766.2485961914062 -1406.531982421875 815.0249633789062
v 779.9252319335938 -1368.887451171875 815.0250854492188
v 779.940185546875 -1368.91943359375 599.9750366210938
v 770.4818115234375 -1365.48388671875 599.9750366210938
v 779.940185546875 -1368.91943359375 815.0250854492188
v 770.4818115234375 -1365.48388671875 815.0250854492188
v 756.8343505859375 -1403.08154296875 599.9749145507812
v 766.2806396484375 -1406.51708984375 599.9749145507812
v 756.8343505859375 -1403.08154296875 815.0249633789062
v 766.2806396484375 -1406.51708984375 815.0249633789062
v 766.2720947265625 -1406.54052734375 814.9999389648438
v 779.94873046875 -1368.8958740234375 815.0000610351562
v 770.4903564453125 -1365.46044921875 815.0000610351562
v 756.8258056640625 -1403.1051025390625 814.9999389648438
v 909.8768310546875 -1011.8381958007812 -0.02524346113204956
v 923.5533447265625 -974.1932983398438 -0.02524614706635475
v 909.8766479492188 -1011.8381958007812 583.0247802734375
v 923.5531616210938 -974.1932983398438 583.0247802734375
v 923.5682983398438 -974.225341796875 -0.025246145203709602
v 914.1098022460938 -970.778076171875 -0.025246871635317802
v 923.568115234375 -974.225341796875 583.0247802734375
v 914.109619140625 -970.778076171875 583.0247802734375
v 900.4623413085938 -1008.38818359375 -0.025244183838367462
v 909.9088745117188 -1011.8232421875 -0.025243455544114113
v 900.462158203125 -1008.387939453125 583.024658203125
v 909.90869140625 -1011.8232421875 583.024658203125
v 909.8766479492188 -1011.8381958007812 582.9747314453125
v 923.5531616210938 -974.1932983398438 582.9747314453125
v 909.8766479492188 -1011.8381958007812 600.0247802734375
v 923.5531616210938 -974.1932983398438 600.0247802734375
v 923.568115234375 -974.225341796875 582.9747314453125
v 914.109619140625 -970.778076171875 582.9747314453125
v 923.568115234375 -974.225341796875 600.0247802734375
v 914.109619140625 -970.778076171875 600.0247802734375
v 900.462158203125 -1008.387939453125 582.974609375
v 909.90869140625 -1011.8232421875 582.974609375
v 900.462158203125 -1008.387939453125 600.024658203125
v 909.90869140625 -1011.8232421875 600.024658203125
v 909.8766479492188 -1011.8381958007812 599.9750366210938
v 923.5531616210938 -974.1932983398438 599.97509765625
v 909.8766479492188 -1011.8381958007812 815.0250854492188
v 923.5531616210938 -974.1932983398438 815.025146484375
v 923.568115234375 -974.225341796875 599.97509765625
v 914.109619140625 -970.778076171875 599.97509765625
v 923.568115234375 -974.225341796875 815.025146484375
v 914.109619140625 -970.778076171875 815.025146484375
v 900.462158203125 -1008.387939453125 599.9750366210938
v 909.90869140625 -1011.8232421875 599.9750366210938
v 900.462158203125 -1008.387939453125 815.0250854492188
v 909.90869140625 -1011.8232421875 815.0250854492188
v 909.900146484375 -1011.8467407226562 815.0000610351562
v 923.57666015625 -974.2018432617188 815.0001220703125
v 914.1181640625 -970.7545776367188 815.0001220703125
v 900.45361328125 -1008.4114379882812 815.0000610351562
v 1053.549072265625 -617.1731567382812 -0.025271683931350708
v 1091.2003173828125 -513.7694702148438 -0.025279074907302856
v 1053.549072265625 -617.1731567382812 583.0247192382812
v 1091.2003173828125 -513.7694702148438 583.0247192382812
v 1091.2152099609375 -513.801513671875 -0.025279076769948006
v 1081.7689208984375 -510.3662109375 -0.025279786437749863
v 1091.2152099609375 -513.801513671875 583.0247192382812
v 1081.7689208984375 -510.3662109375 583.0247192382812
v 1044.134765625 -613.723388671875 -0.025272391736507416
v 1053.5810546875 -617.158203125 -0.02527168206870556
v 1044.134765625 -613.723388671875 583.0245971679688
v 1053.5810546875 -617.158203125 583.0245971679688
v 1053.549072265625 -617.1731567382812 582.9746704101562
v 1091.2003173828125 -513.7694702148438 582.9746704101562
v 1053.549072265625 -617.1731567382812 600.0247192382812
v 1091.2003173828125 -513.7694702148438 600.0247192382812
v 1091.2152099609375 -513.801513671875 582.9746704101562
v 1081.7689208984375 -510.3662109375 582.9746704101562
v 1091.2152099609375 -513.801513671875 600.0247192382812
v 1081.7689208984375 -510.3662109375 600.0247192382812
v 1044.134765625 -613.723388671875 582.9745483398438
v 1053.5810546875 -617.158203125 582.9745483398438
v 1044.134765625 -613.723388671875 600.0245971679688
v 1053.5810546875 -617.158203125 600.0245971679688
v 1053.549072265625 -617.1731567382812 599.9749755859375
v 1091.2003173828125 -513.7694702148438 599.974853515625
v 1053.549072265625 -617.1731567382812 815.0250244140625
v 1091.2003173828125 -513.7694702148438 815.02490234375
v 1091.2152099609375 -513.801513671875 599.974853515625
v 1081.7689208984375 -510.3662109375 599.974853515625
v 1091.2152099609375 -513.801513671875 815.02490234375
v 1081.7689208984375 -510.3662109375 815.02490234375
v 1044.134765625 -613.723388671875 599.9749755859375
v 1053.5810546875 -617.158203125 599.9749755859375
v 1044.134765625 -613.723388671875 815.0250244140625
v 1053.5810546875 -617.158203125 815.0250244140625
v 1053.572509765625 -617.1817016601562 815.0
v 1091.2237548828125 -513.7780151367188 814.9998779296875
v 1081.7774658203125 -510.34271240234375 814.9998779296875
v 1044.126220703125 -613.7468872070312 815.0
v 987.798828125 -476.63458251953125 -0.025486845523118973
v 1063.2431640625 -269.44647216796875 -0.025501657277345657
v 987.7987670898438 -476.63458251953125 1200.0245361328125
v 1063.2431640625 -269.44647216796875 1200.0245361328125
v 994.7447509765625 -457.39752197265625 1199.9993896484375
v 1013.5783081054688 -464.25030517578125 1199.9993896484375
v 1075.1678466796875 -295.0627136230469 1199.99951171875
v 1056.322021484375 -288.19744873046875 1199.99951171875
v 994.7447509765625 -457.39752197265625 1179.9993896484375
v 1075.1678466796875 -295.0627136230469 1179.99951171875
v 1013.5783081054688 -464.25030517578125 1179.9993896484375
v 1056.322021484375 -288.19744873046875 1179.99951171875
v 994.7532958984375 -457.3740234375 1200.0244140625
v 1013.5868530273438 -464.226806640625 1179.974365234375
v 1013.5868530273438 -464.226806640625 1200.0244140625
v 994.7532958984375 -457.3740234375 1179.974365234375
v 1013.5548095703125 -464.24176025390625 1200.0244140625
v 1075.144287109375 -295.05413818359375 1179.9744873046875
v 1075.144287109375 -295.05413818359375 1200.0245361328125
v 1013.5548095703125 -464.24176025390625 1179.974365234375
v 1075.1591796875 -295.086181640625 1200.0245361328125
v 1056.3134765625 -288.220947265625 1179.9744873046875
v 1056.3134765625 -288.220947265625 1200.0245361328125
v 1075.1591796875 -295.086181640625 1179.9744873046875
v 1056.345458984375 -288.20599365234375 1200.0245361328125
v 994.7682495117188 -457.40606689453125 1179.974365234375
v 994.7682495117188 -457.40606689453125 1200.0244140625
v 1056.345458984375 -288.20599365234375 1179.9744873046875
v 1063.2666015625 -269.45501708984375 1199.99951171875
v -1192.053466796875 551.3750610351562 1199.99951171875
v 987.822265625 -476.64312744140625 1199.99951171875
v -1267.4857177734375 344.2238464355469 1199.99951171875
v 1063.140380859375 -269.47509765625 -0.024701658636331558
v 1157.1568603515625 -303.70849609375 -0.02469455823302269
v 1063.140380859375 -269.47509765625 583.0253295898438
v 1157.1568603515625 -303.70849609375 583.0253295898438
v 1157.1248779296875 -303.72344970703125 -0.02469456009566784
v 1789.90576171875 1434.7509765625 -0.02481888048350811
v 1157.1248779296875 -303.72344970703125 583.0253295898438
v 1789.90576171875 1434.7509765625 583.0252075195312
v 1789.920654296875 1434.7191162109375 -0.02481887862086296
v -465.38751220703125 2255.585693359375 -0.02498922497034073
v 1789.920654296875 1434.7191162109375 583.0252075195312
v -465.3875427246094 2255.5859375 583.0250244140625
v 1063.140380859375 -269.47509765625 582.9752807617188
v 1157.1568603515625 -303.70849609375 582.9752807617188
v 1063.140380859375 -269.47509765625 600.0253295898438
v 1157.1568603515625 -303.70849609375 600.0253295898438
v 1157.1248779296875 -303.72344970703125 582.9752807617188
v 1789.90576171875 1434.7509765625 582.9751586914062
v 1157.1248779296875 -303.72344970703125 600.0253295898438
v 1789.90576171875 1434.7509765625 600.0252075195312
v 1789.920654296875 1434.7191162109375 582.9751586914062
v -465.3875427246094 2255.5859375 582.9749755859375
v 1789.920654296875 1434.7191162109375 600.0252075195312
v -465.3875427246094 2255.5859375 600.0250244140625
v 1063.140380859375 -269.47509765625 599.9752807617188
v 1157.1568603515625 -303.70849609375 599.9752807617188
v 1063.140380859375 -269.47509765625 1200.0252685546875
v 1157.156982421875 -303.70849609375 1200.0252685546875
v 1157.1248779296875 -303.72344970703125 599.9752807617188
v 1191.3455810546875 -209.70770263671875 599.9752807617188
v 1191.3455810546875 -209.70770263671875 825.9752807617188
v 1622.3074951171875 974.2992553710938 825.9751586914062
v 1752.263427734375 1331.333740234375 825.9752197265625
v 1389.724853515625 335.31158447265625 1050.025146484375
v 1529.95849609375 720.5836791992188 1115.6751708984375
v 1552.3104248046875 781.9922485351562 1115.6751708984375
v 1157.122314453125 -303.730712890625 1200.0240478515625
v 1608.6092529296875 936.6648559570312 825.9751586914062
v 1412.076904296875 396.72039794921875 1115.675048828125
v 1478.6536865234375 579.6304321289062 825.9752197265625
v 1389.724853515625 335.31158447265625 1115.675048828125
v 1464.955322265625 541.9957885742188 825.9752197265625
v 1334.99951171875 184.96148681640625 825.9752807617188
v 1321.3011474609375 147.32684326171875 825.9752807617188
v 1321.3011474609375 147.32684326171875 599.9752807617188
v 1334.99951171875 184.96148681640625 599.9752807617188
v 1464.955322265625 541.9957885742188 599.9752197265625
v 1478.6536865234375 579.6304321289062 599.9752197265625
v 1608.6092529296875 936.6647338867188 599.9751586914062
v 1622.3074951171875 974.2992553710938 599.9751586914062
v 1752.263427734375 1331.333740234375 599.9752197265625
v 1789.90576171875 1434.7509765625 599.9751586914062
v 1789.9085693359375 1434.7584228515625 1200.02392578125
v 1412.076904296875 396.72039794921875 1050.025146484375
v 1552.3104248046875 781.9922485351562 1050.0252685546875
v 1529.95849609375 720.5836791992188 1050.0252685546875
v 1789.920654296875 1434.7191162109375 599.9751586914062
v 1662.3214111328125 1481.16162109375 599.9751586914062
v 1662.3212890625 1481.16162109375 799.9751586914062
v 1286.4910888671875 1617.952880859375 799.9751586914062
v 1789.9207763671875 1434.7191162109375 1200.025146484375
v 1286.4910888671875 1617.952880859375 599.9751586914062
v -465.3875427246094 2255.5859375 599.9749755859375
v -465.3875732421875 2255.5859375 1200.025146484375
v 1520.5213623046875 723.9656372070312 1115.7001953125
v 1542.9072265625 785.4682006835938 1115.7001953125
v 1529.96484375 720.5281372070312 1115.7001953125
v 1552.3509521484375 782.0307006835938 1115.7001953125
v 1520.5213623046875 723.9656372070312 1050.000244140625
v 1529.96484375 720.5281372070312 1050.000244140625
v 1542.9072265625 785.4682006835938 1050.000244140625
v 1552.3509521484375 782.0307006835938 1050.000244140625
v 1520.5299072265625 723.9891357421875 1115.7252197265625
v 1529.973388671875 720.5516357421875 1049.9752197265625
v 1520.5299072265625 723.9891357421875 1049.9752197265625
v 1529.973388671875 720.5516357421875 1115.7252197265625
v 1542.898681640625 785.4447021484375 1115.7252197265625
v 1542.898681640625 785.4447021484375 1049.9752197265625
v 1552.3424072265625 782.0072021484375 1049.9752197265625
v 1552.3424072265625 782.0072021484375 1115.7252197265625
v 1380.2874755859375 338.69354248046875 1115.7000732421875
v 1402.673583984375 400.19635009765625 1115.7000732421875
v 1389.731201171875 335.25604248046875 1115.7000732421875
v 1412.117431640625 396.75885009765625 1115.7000732421875
v 1380.2874755859375 338.69354248046875 1050.0001220703125
v 1389.731201171875 335.25604248046875 1050.0001220703125
v 1402.673583984375 400.19635009765625 1050.0001220703125
v 1412.117431640625 396.75885009765625 1050.0001220703125
v 1380.2960205078125 338.717041015625 1115.72509765625
v 1389.73974609375 335.279541015625 1049.97509765625
v 1380.2960205078125 338.717041015625 1049.97509765625
v 1389.73974609375 335.279541015625 1115.72509765625
v 1402.6650390625 400.1728515625 1115.72509765625
v 1402.6650390625 400.1728515625 1049.97509765625
v 1412.10888671875 396.7353515625 1049.97509765625
v 1412.10888671875 396.7353515625 1115.72509765625
v 1181.9080810546875 -206.3257293701172 826.0003051757812
v 1311.8978271484375 150.80279541015625 826.0003051757812
v 1191.3519287109375 -209.76324462890625 826.0003051757812
v 1321.3416748046875 147.3652801513672 826.0003051757812
v 1181.9080810546875 -206.3257293701172 600.0003051757812
v 1191.3519287109375 -209.76324462890625 600.0003051757812
v 1311.8978271484375 150.80279541015625 600.0003051757812
v 1321.3416748046875 147.3652801513672 600.0003051757812
v 1181.9166259765625 -206.30224609375 826.0253295898438
v 1191.3604736328125 -209.73974609375 599.9752807617188
v 1181.9166259765625 -206.30224609375 599.9752807617188
v 1191.3604736328125 -209.73974609375 826.0253295898438
v 1311.8892822265625 150.779296875 826.0253295898438
v 1311.8892822265625 150.779296875 599.9752807617188
v 1321.3331298828125 147.341796875 599.9752807617188
v 1321.3331298828125 147.341796875 826.0253295898438
v 1325.5621337890625 188.3432159423828 826.0003051757812
v 1455.552001953125 545.4717407226562 826.000244140625
v 1335.005859375 184.90594482421875 826.0003051757812
v 1464.995849609375 542.0342407226562 826.000244140625
v 1325.5621337890625 188.3432159423828 600.0003051757812
v 1335.005859375 184.90594482421875 600.0003051757812
v 1455.552001953125 545.4717407226562 600.000244140625
v 1464.995849609375 542.0342407226562 600.000244140625
v 1325.5706787109375 188.36669921875 826.0253295898438
v 1335.014404296875 184.929443359375 599.9752807617188
v 1325.5706787109375 188.36669921875 599.9752807617188
v 1335.014404296875 184.929443359375 826.0253295898438
v 1455.54345703125 545.4482421875 826.0252685546875
v 1455.54345703125 545.4482421875 599.9752197265625
v 1464.9873046875 542.0107421875 599.9752197265625
v 1464.9873046875 542.0107421875 826.0252685546875
v 1469.2161865234375 583.0121459960938 826.000244140625
v 1599.2059326171875 940.1408081054688 826.0001831054688
v 1478.6600341796875 579.5748901367188 826.000244140625
v 1608.6497802734375 936.7033081054688 826.0001831054688
v 1469.2161865234375 583.0121459960938 600.000244140625
v 1478.6600341796875 579.5748901367188 600.000244140625
v 1599.2059326171875 940.1406860351562 600.0001831054688
v 1608.6497802734375 936.7031860351562 600.0001831054688
v 1469.2247314453125 583.03564453125 826.0252685546875
v 1478.6685791015625 579.598388671875 599.9752197265625
v 1469.2247314453125 583.03564453125 599.9752197265625
v 1478.6685791015625 579.598388671875 826.0252685546875
v 1599.1973876953125 940.1173095703125 826.0252075195312
v 1599.1973876953125 940.1171875 599.9751586914062
v 1608.6412353515625 936.6796875 599.9751586914062
v 1608.6412353515625 936.6798095703125 826.0252075195312
v 1612.8702392578125 977.6812133789062 826.0001831054688
v 1742.8599853515625 1334.8096923828125 826.000244140625
v 1622.3138427734375 974.2437133789062 826.0001831054688
v 1752.303955078125 1331.3720703125 826.000244140625
v 1612.8702392578125 977.6812133789062 600.0001831054688
v 1622.3138427734375 974.2437133789062 600.0001831054688
v 1742.8599853515625 1334.8095703125 600.000244140625
v 1752.303955078125 1331.3720703125 600.000244140625
v 1612.8787841796875 977.7047119140625 826.0252075195312
v 1622.3223876953125 974.2672119140625 599.9751586914062
v 1612.8787841796875 977.7047119140625 599.9751586914062
v 1622.3223876953125 974.2672119140625 826.0252075195312
v 1742.8514404296875 1334.7862548828125 826.0252685546875
v 1742.8514404296875 1334.7861328125 599.9752197265625
v 1752.29541015625 1331.3486328125 599.9752197265625
v 1752.29541015625 1331.3486328125 826.0252685546875
v -1107.5340576171875 520.5418701171875 1199.9925537109375
v 1157.14892578125 -303.7308349609375 1199.9925537109375
v -791.7100219726562 1388.20068359375 1500.0076904296875
v 1472.9656982421875 563.9312744140625 1500.0078125
v 1472.931396484375 563.9102172851562 1500.0489501953125
v 1474.099365234375 567.1178588867188 1500.0489501953125
v 1789.928955078125 1434.741455078125 1199.992431640625
v -474.7420959472656 2259.001953125 1199.992431640625
v 1474.112060546875 567.0797119140625 1500.0078125
v -790.56640625 1391.3426513671875 1500.0076904296875
v 1473.4541015625 565.5523681640625 1510.0079345703125
v 1157.0802001953125 -303.6939697265625 1209.99267578125
v 1175.9384765625 -310.5716552734375 1209.9927978515625
v 1492.32421875 558.6505126953125 1510.0081787109375
v 1473.4541015625 565.5523681640625 1480.0079345703125
v 1175.9384765625 -310.5716552734375 1179.9927978515625
v 1157.0802001953125 -303.6939697265625 1179.99267578125
v 1492.32421875 558.6505126953125 1480.008056640625
v 1157.08837890625 -303.6716003417969 1210.025390625
v 1175.946533203125 -310.5493469238281 1179.9754638671875
v 1175.946533203125 -310.5493469238281 1210.0255126953125
v 1157.08837890625 -303.6716003417969 1179.975341796875
v 1175.911865234375 -310.5715026855469 1210.0242919921875
v 1492.3038330078125 558.66748046875 1479.9765625
v 1492.2984619140625 558.6529541015625 1510.0242919921875
v 1175.917236328125 -310.5570068359375 1179.9766845703125
v 1492.3160400390625 558.6281127929688 1510.0255126953125
v 1473.446044921875 565.5300903320312 1479.9752197265625
v 1473.446044921875 565.5300903320312 1510.0252685546875
v 1492.3160400390625 558.6281127929688 1479.975341796875
v 1473.475341796875 565.5377197265625 1510.0240478515625
v 1157.10595703125 -303.6964111328125 1179.9765625
v 1157.1005859375 -303.7109069824219 1210.024169921875
v 1473.480712890625 565.55224609375 1479.9764404296875
v 1492.29248046875 558.63623046875 1510.0006103515625
v 1808.7060546875 1427.888671875 1209.99267578125
v 1789.867919921875 1434.762939453125 1209.996337890625
v 1473.4378662109375 565.5076904296875 1510.0079345703125
v 1492.3079833984375 558.6058349609375 1480.008056640625
v 1789.8602294921875 1434.7783203125 1179.9925537109375
v 1808.7060546875 1427.888671875 1179.99267578125
v 1473.4378662109375 565.5076904296875 1480.0079345703125
v 1473.446044921875 565.5300903320312 1510.0252685546875
v 1492.3160400390625 558.6281127929688 1479.975341796875
v 1492.3160400390625 558.6281127929688 1510.0255126953125
v 1473.446044921875 565.5300903320312 1479.9752197265625
v 1492.2867431640625 558.6204833984375 1510.0242919921875
v 1808.6802978515625 1427.89111328125 1179.9765625
v 1808.6856689453125 1427.9056396484375 1210.024169921875
v 1492.2813720703125 558.60595703125 1479.9765625
v 1808.6978759765625 1427.8663330078125 1210.025390625
v 1789.8521728515625 1434.7559814453125 1179.9752197265625
v 1789.8521728515625 1434.7559814453125 1210.0252685546875
v 1808.6978759765625 1427.8663330078125 1179.975341796875
v 1789.8868408203125 1434.7781982421875 1210.0240478515625
v 1473.458251953125 565.49072265625 1479.9764404296875
v 1473.463623046875 565.5052490234375 1510.0240478515625
v 1789.8814697265625 1434.763671875 1179.9764404296875
v -458.564697265625 2274.4765625 1210.0003662109375
v -465.41766357421875 2255.6064453125 1210.000244140625
v 1815.5426025390625 1446.725341796875 1210.0003662109375
v 1808.6893310546875 1427.8428955078125 1210.0003662109375
v -458.564697265625 2274.4765625 1180.0003662109375
v 1815.5426025390625 1446.725341796875 1180.0003662109375
v -465.41766357421875 2255.6064453125 1180.000244140625
v 1808.6893310546875 1427.8428955078125 1180.0003662109375
v 1815.533935546875 1446.7017822265625 1210.025390625
v -458.5732421875 2274.453125 1179.975341796875
v -458.5732421875 2274.453125 1210.025390625
v 1815.533935546875 1446.7017822265625 1179.975341796875
v -458.54119873046875 2274.468017578125 1210.025390625
v -465.3941650390625 2255.597900390625 1179.9752197265625
v -465.3941650390625 2255.597900390625 1210.0252685546875
v -458.54119873046875 2274.468017578125 1179.975341796875
v -465.40911865234375 2255.6298828125 1210.0252685546875
v 1808.6978759765625 1427.8663330078125 1179.975341796875
v 1808.6978759765625 1427.8663330078125 1210.025390625
v -465.40911865234375 2255.6298828125 1179.9752197265625
v 1808.6658935546875 1427.851318359375 1210.025390625
v 1815.51904296875 1446.73388671875 1179.975341796875
v 1815.51904296875 1446.73388671875 1210.025390625
v 1808.6658935546875 1427.851318359375 1179.975341796875
v -1098.15185546875 517.2257080078125 1210.000244140625
v 1169.077392578125 -329.3228454589844 1210.00048828125
v 1175.955078125 -310.52587890625 1210.00048828125
v -1105.029296875 498.416259765625 1210.0003662109375
v -1098.15185546875 517.2257080078125 1180.000244140625
v 1175.955078125 -310.52587890625 1180.00048828125
v 1169.077392578125 -329.3228454589844 1180.00048828125
v -1105.029296875 498.416259765625 1180.0003662109375
v 1175.946533203125 -310.54931640625 1210.0255126953125
v -1098.160400390625 517.2021484375 1179.9752197265625
v -1098.160400390625 517.2021484375 1210.0252685546875
v 1175.946533203125 -310.54931640625 1179.9754638671875
v -1098.12841796875 517.2171020507812 1210.0252685546875
v -1105.005859375 498.4076843261719 1179.975341796875
v -1105.005859375 498.4076843261719 1210.025390625
v -1098.12841796875 517.2171020507812 1179.9752197265625
v -1105.020751953125 498.439697265625 1210.025390625
v 1169.0859375 -329.29931640625 1179.9754638671875
v 1169.0859375 -329.29931640625 1210.0255126953125
v -1105.020751953125 498.439697265625 1179.975341796875
v 1169.053955078125 -329.3142395019531 1210.0255126953125
v 1175.931640625 -310.5173034667969 1179.9754638671875
v 1175.931640625 -310.5173034667969 1210.0255126953125
v 1169.053955078125 -329.3142395019531 1179.9754638671875
v -781.7950439453125 1386.462890625 1510.0089111328125
v -790.3562622070312 1362.9317626953125 1501.906494140625
v 1473.4276123046875 565.4986572265625 1510.0079345703125
v 1464.8544921875 541.9554443359375 1501.9056396484375
v -781.7950439453125 1386.462890625 1500.0089111328125
v 1473.4276123046875 565.4986572265625 1500.0079345703125
v -790.3562622070312 1362.9317626953125 1491.9066162109375
v 1464.8544921875 541.9554443359375 1491.905517578125
v 1473.41943359375 565.476318359375 1510.0252685546875
v -781.8031616210938 1386.4405517578125 1499.9761962890625
v -781.8031616210938 1386.4405517578125 1510.0262451171875
v 1473.41943359375 565.476318359375 1499.9752197265625
v -781.7737426757812 1386.4482421875 1510.0250244140625
v -790.33056640625 1362.9293212890625 1491.8905029296875
v -790.3358154296875 1362.914794921875 1501.93798828125
v -781.7684936523438 1386.4627685546875 1499.9774169921875
v -790.34814453125 1362.9541015625 1501.939208984375
v 1464.862548828125 541.977783203125 1491.88818359375
v 1464.862548828125 541.977783203125 1501.9383544921875
v -790.34814453125 1362.9541015625 1491.8892822265625
v 1464.827880859375 541.9556274414062 1501.9371337890625
v 1473.4072265625 565.5155639648438 1499.9764404296875
v 1473.4019775390625 565.5010986328125 1510.0240478515625
v 1464.8331298828125 541.9700927734375 1491.889404296875
v -773.2378540039062 1409.9490966796875 1501.90625
v -781.8113403320312 1386.4180908203125 1510.0089111328125
v 1481.9727783203125 588.9847412109375 1501.905517578125
v 1473.411376953125 565.4539794921875 1510.0078125
v -773.2378540039062 1409.9490966796875 1491.90625
v 1481.9727783203125 588.9847412109375 1491.905517578125
v -781.8113403320312 1386.4180908203125 1500.0087890625
v 1473.411376953125 565.4539794921875 1500.0079345703125
v 1481.964599609375 588.96240234375 1501.938232421875
v -773.2459716796875 1409.9267578125 1491.888916015625
v -773.2459716796875 1409.9267578125 1501.93896484375
v 1481.964599609375 588.96240234375 1491.88818359375
v -773.2113037109375 1409.948974609375 1501.937744140625
v -781.7908935546875 1386.401123046875 1499.977294921875
v -781.78564453125 1386.4156494140625 1510.0250244140625
v -773.216552734375 1409.9344482421875 1491.89013671875
v -781.80322265625 1386.4404296875 1510.0262451171875
v 1473.41943359375 565.476318359375 1499.9752197265625
v 1473.41943359375 565.476318359375 1510.025146484375
v -781.80322265625 1386.4404296875 1499.97607421875
v 1473.39013671875 565.4686279296875 1510.02392578125
v 1481.947021484375 588.9871826171875 1491.889404296875
v 1481.952392578125 589.0016479492188 1501.93701171875
v 1473.384765625 565.4541625976562 1499.9764404296875
v -791.7266845703125 1388.1549072265625 1500.0
v 1472.948974609375 563.8854370117188 1500.0001220703125
v -790.5498046875 1391.388427734375 1500.0
v 1474.128662109375 567.1255493164062 1500.0001220703125
v 1166.4906005859375 -307.09747314453125 -0.02469385229051113
v 1200.699462890625 -213.08074951171875 -0.024700572714209557
v 1166.4906005859375 -307.09747314453125 583.0253295898438
v 1200.699462890625 -213.08074951171875 583.0253295898438
v 1200.71435546875 -213.11279296875 -0.024700574576854706
v 1191.2679443359375 -209.677734375 -0.024701284244656563
v 1200.71435546875 -213.11279296875 583.0253295898438
v 1191.2679443359375 -209.677734375 583.0253295898438
v 1157.0760498046875 -303.6474609375 -0.024694563820958138
v 1166.5225830078125 -307.08251953125 -0.02469385415315628
v 1157.0760498046875 -303.6474609375 583.0252075195312
v 1166.5225830078125 -307.08251953125 583.0252075195312
v 1166.4906005859375 -307.09747314453125 582.9752807617188
v 1200.699462890625 -213.08074951171875 582.9752807617188
v 1166.4906005859375 -307.09747314453125 600.0253295898438
v 1200.699462890625 -213.08074951171875 600.0253295898438
v 1200.71435546875 -213.11279296875 582.9752807617188
v 1191.2679443359375 -209.677734375 582.9752807617188
v 1200.71435546875 -213.11279296875 600.0253295898438
v 1191.2679443359375 -209.677734375 600.0253295898438
v 1157.0760498046875 -303.6474609375 582.9751586914062
v 1166.5225830078125 -307.08251953125 582.9751586914062
v 1157.0760498046875 -303.6474609375 600.0252075195312
v 1166.5225830078125 -307.08251953125 600.0252075195312
v 1166.4906005859375 -307.09747314453125 599.9754638671875
v 1200.699462890625 -213.08074951171875 599.9754638671875
v 1166.4906005859375 -307.09747314453125 815.0254516601562
v 1200.699462890625 -213.08074951171875 815.0254516601562
v 1200.71435546875 -213.11279296875 599.9754638671875
v 1191.2679443359375 -209.677734375 599.9754638671875
v 1200.71435546875 -213.11279296875 815.0254516601562
v 1191.2679443359375 -209.677734375 815.0254516601562
v 1157.0760498046875 -303.6474609375 599.9754638671875
v 1166.5225830078125 -307.08251953125 599.9754638671875
v 1157.0760498046875 -303.6474609375 815.0254516601562
v 1166.5225830078125 -307.08251953125 815.0254516601562
v 1106.6910400390625 -296.01470947265625 815.0009155273438
v 1157.1314697265625 -303.64105224609375 815.0009155273438
v 1163.12255859375 -316.5392761230469 815.0005493164062
v 1191.3062744140625 -209.71832275390625 815.0009155273438
v 1746.3077392578125 1461.246826171875 815.001220703125
v 1200.705810546875 -213.13629150390625 815.0009155273438
v 1166.53125 -307.0589294433594 815.0009155273438
v 1802.6900634765625 1440.746337890625 815.0007934570312
v 1106.6995849609375 -295.9912109375 814.9758911132812
v 1163.1309814453125 -316.515869140625 814.9755249023438
v 1106.6995849609375 -295.9912109375 825.0260009765625
v 1163.1309814453125 -316.515869140625 825.0255126953125
v 1163.0989990234375 -316.53082275390625 814.9755249023438
v 1802.6666259765625 1440.7545166015625 814.9757690429688
v 1163.0989990234375 -316.53082275390625 825.0255126953125
v 1802.6666259765625 1440.7545166015625 825.02587890625
v 1802.6815185546875 1440.722900390625 814.9757690429688
v 1746.2991943359375 1461.2232666015625 814.9761962890625
v 1802.6815185546875 1440.722900390625 825.02587890625
v 1746.2991943359375 1461.2232666015625 825.0262451171875
v 1746.3311767578125 1461.2381591796875 814.9761962890625
v 1106.7144775390625 -296.02325439453125 814.9758911132812
v 1746.3311767578125 1461.2381591796875 825.0262451171875
v 1106.7144775390625 -296.02325439453125 825.0260009765625
v 1106.6910400390625 -296.01470947265625 825.0009765625
v 1163.1224365234375 -316.53936767578125 825.0006103515625
v 1746.3077392578125 1461.246826171875 825.001220703125
v 1802.6900634765625 1440.746337890625 825.0008544921875
v 1330.637939453125 143.96136474609375 -0.02472611330449581
v 1344.2904052734375 181.60577392578125 -0.02472880482673645
v 1330.637939453125 143.96136474609375 583.0253295898438
v 1344.2904052734375 181.60577392578125 583.0253295898438
v 1344.3052978515625 181.57371520996094 -0.02472880482673645
v 1334.87109375 185.00904846191406 -0.024729514494538307
v 1344.3052978515625 181.57371520996094 583.0253295898438
v 1334.87109375 185.00904846191406 583.0253295898438
v 1321.2235107421875 147.4111328125 -0.02472682297229767
v 1330.669921875 143.976318359375 -0.02472611330449581
v 1321.2235107421875 147.4111328125 583.0253295898438
v 1330.669921875 143.976318359375 583.0253295898438
v 1330.637939453125 143.96136474609375 582.9752807617188
v 1344.2904052734375 181.60577392578125 582.9752807617188
v 1330.637939453125 143.96136474609375 600.0253295898438
v 1344.2904052734375 181.60577392578125 600.0253295898438
v 1344.3052978515625 181.57371520996094 582.9752807617188
v 1334.87109375 185.00904846191406 582.9752807617188
v 1344.3052978515625 181.57371520996094 600.0253295898438
v 1334.87109375 185.00904846191406 600.0253295898438
v 1321.2235107421875 147.4111328125 582.9752807617188
v 1330.669921875 143.976318359375 582.9752807617188
v 1321.2235107421875 147.4111328125 600.0253295898438
v 1330.669921875 143.976318359375 600.0253295898438
v 1330.637939453125 143.96136474609375 599.9755859375
v 1344.2904052734375 181.60577392578125 599.9756469726562
v 1330.637939453125 143.96136474609375 815.0256958007812
v 1344.2904052734375 181.60577392578125 815.0256958007812
v 1344.3052978515625 181.57371520996094 599.9756469726562
v 1334.87109375 185.00904846191406 599.9756469726562
v 1344.3052978515625 181.57371520996094 815.0256958007812
v 1334.87109375 185.00904846191406 815.0256958007812
v 1321.2235107421875 147.4111328125 599.9754638671875
v 1330.669921875 143.976318359375 599.9755859375
v 1321.2235107421875 147.4111328125 815.0254516601562
v 1330.669921875 143.976318359375 815.0256958007812
v 1330.6614990234375 143.95285034179688 815.0006713867188
v 1344.31396484375 181.5972442626953 815.000732421875
v 1334.879638671875 185.0325164794922 815.000732421875
v 1321.2149658203125 147.3876190185547 815.0005493164062
v 1474.2572021484375 538.6376342773438 -0.024754337966442108
v 1487.9337158203125 576.2822875976562 -0.024757027626037598
v 1474.2572021484375 538.6376342773438 583.0252685546875
v 1487.9337158203125 576.2822875976562 583.0252685546875
v 1487.94873046875 576.250244140625 -0.024757029488682747
v 1478.489990234375 579.68505859375 -0.024757741019129753
v 1487.94873046875 576.250244140625 583.025146484375
v 1478.489990234375 579.68505859375 583.025146484375
v 1464.8426513671875 542.087646484375 -0.024755047634243965
v 1474.2891845703125 538.652587890625 -0.024754337966442108
v 1464.8426513671875 542.087646484375 583.025146484375
v 1474.2891845703125 538.652587890625 583.025146484375
v 1474.2572021484375 538.6376342773438 582.9752197265625
v 1487.9337158203125 576.2822875976562 582.9752197265625
v 1474.2572021484375 538.6376342773438 600.0252685546875
v 1487.9337158203125 576.2822875976562 600.0252685546875
v 1487.94873046875 576.250244140625 582.97509765625
v 1478.489990234375 579.68505859375 582.97509765625
v 1487.94873046875 576.250244140625 600.025146484375
v 1478.489990234375 579.68505859375 600.025146484375
v 1464.8426513671875 542.087646484375 582.97509765625
v 1474.2891845703125 538.652587890625 582.97509765625
v 1464.8426513671875 542.087646484375 600.025146484375
v 1474.2891845703125 538.652587890625 600.025146484375
v 1474.2572021484375 538.6376342773438 599.9754028320312
v 1487.9337158203125 576.2822875976562 599.9755249023438
v 1474.2572021484375 538.6376342773438 815.025390625
v 1487.9337158203125 576.2822875976562 815.025634765625
v 1487.94873046875 576.250244140625 599.9755249023438
v 1478.489990234375 579.68505859375 599.9755249023438
v 1487.94873046875 576.250244140625 815.025634765625
v 1478.489990234375 579.68505859375 815.025634765625
v 1464.8426513671875 542.087646484375 599.9754028320312
v 1474.2891845703125 538.652587890625 599.9754028320312
v 1464.8426513671875 542.087646484375 815.025390625
v 1474.2891845703125 538.652587890625 815.025390625
v 1474.28076171875 538.6290893554688 815.0003662109375
v 1487.9571533203125 576.2737426757812 815.00048828125
v 1478.49853515625 579.7085571289062 815.00048828125
v 1464.8341064453125 542.0641479492188 815.0003662109375
v 1617.8443603515625 933.3651733398438 -0.024582572281360626
v 1631.5208740234375 971.0098266601562 -0.024585261940956116
v 1617.8443603515625 933.3651733398438 583.0252685546875
v 1631.5208740234375 971.0098266601562 583.0252685546875
v 1631.5357666015625 970.977783203125 -0.024585261940956116
v 1622.0771484375 974.4251708984375 -0.024585973471403122
v 1631.5357666015625 970.977783203125 583.025390625
v 1622.0771484375 974.4251708984375 583.025390625
v 1608.4420166015625 936.815185546875 -0.024583280086517334
v 1617.8763427734375 933.380126953125 -0.024582570418715477
v 1608.4420166015625 936.815185546875 583.025390625
v 1617.8763427734375 933.380126953125 583.025390625
v 1617.8443603515625 933.3651733398438 582.9752197265625
v 1631.5208740234375 971.0098266601562 582.9752197265625
v 1617.8443603515625 933.3651733398438 600.0253295898438
v 1631.5208740234375 971.0098266601562 600.0253295898438
v 1631.5357666015625 970.977783203125 582.975341796875
v 1622.0771484375 974.4251708984375 582.975341796875
v 1631.5357666015625 970.977783203125 600.025390625
v 1622.0771484375 974.4251708984375 600.025390625
v 1608.4420166015625 936.815185546875 582.975341796875
v 1617.8763427734375 933.380126953125 582.975341796875
v 1608.4420166015625 936.815185546875 600.025390625
v 1617.8763427734375 933.380126953125 600.025390625
v 1617.9014892578125 933.3182983398438 599.9754638671875
v 1631.578125 970.9629516601562 599.9755249023438
v 1617.9014892578125 933.3184204101562 815.0255737304688
v 1631.578125 970.9630737304688 815.0255737304688
v 1631.593017578125 970.930908203125 599.9755249023438
v 1622.1346435546875 974.378173828125 599.9755249023438
v 1631.593017578125 970.9310302734375 815.0255737304688
v 1622.1346435546875 974.3782958984375 815.0255737304688
v 1608.487060546875 936.768310546875 599.9754638671875
v 1617.9334716796875 933.333251953125 599.9754638671875
v 1608.487060546875 936.7684326171875 815.0255737304688
v 1617.9334716796875 933.3333740234375 815.0255737304688
v 1617.925048828125 933.3098754882812 815.0005493164062
v 1631.6016845703125 970.9545288085938 815.0006103515625
v 1622.1431884765625 974.4017944335938 815.0006103515625
v 1608.4783935546875 936.7449340820312 815.0005493164062
v 1761.5572509765625 1327.98388671875 -0.024810785427689552
v 1799.2088623046875 1431.3876953125 -0.0248181764036417
v 1761.5572509765625 1327.98388671875 583.0252685546875
v 1799.2088623046875 1431.3876953125 583.0252075195312
v 1799.2237548828125 1431.355712890625 -0.02481817826628685
v 1789.7772216796875 1434.790771484375 -0.024818887934088707
v 1799.2237548828125 1431.355712890625 583.0250854492188
v 1789.7772216796875 1434.790771484375 583.0250854492188
v 1752.14306640625 1331.433837890625 -0.024811502546072006
v 1761.5892333984375 1327.998779296875 -0.02481079287827015
v 1752.14306640625 1331.433837890625 583.025146484375
v 1761.5892333984375 1327.998779296875 583.025146484375
v 1761.5572509765625 1327.98388671875 582.9752197265625
v 1799.2088623046875 1431.3876953125 582.9751586914062
v 1761.5572509765625 1327.98388671875 600.0252685546875
v 1799.2088623046875 1431.3876953125 600.0252075195312
v 1799.2237548828125 1431.355712890625 582.9750366210938
v 1789.7772216796875 1434.790771484375 582.9750366210938
v 1799.2237548828125 1431.355712890625 600.0250854492188
v 1789.7772216796875 1434.790771484375 600.0250854492188
v 1752.14306640625 1331.433837890625 582.97509765625
v 1761.5892333984375 1327.998779296875 582.97509765625
v 1752.14306640625 1331.433837890625 600.025146484375
v 1761.5892333984375 1327.998779296875 600.025146484375
v 1761.5572509765625 1327.98388671875 599.9755249023438
v 1799.2088623046875 1431.3876953125 599.975341796875
v 1761.5572509765625 1327.9840087890625 815.025634765625
v 1799.2088623046875 1431.3876953125 815.0253295898438
v 1799.2237548828125 1431.355712890625 599.975341796875
v 1789.7772216796875 1434.790771484375 599.975341796875
v 1799.2237548828125 1431.355712890625 815.0253295898438
v 1789.7772216796875 1434.7908935546875 815.0253295898438
v 1752.14306640625 1331.433837890625 599.9755249023438
v 1761.5892333984375 1327.998779296875 599.9755249023438
v 1752.14306640625 1331.4339599609375 815.025634765625
v 1761.5892333984375 1327.9989013671875 815.025634765625
v 1761.5806884765625 1327.975341796875 815.0006103515625
v 1799.2322998046875 1431.379150390625 815.0004272460938
v 1789.7857666015625 1434.814453125 815.0004272460938
v 1752.134521484375 1331.4105224609375 815.0006103515625
v 1662.3682861328125 1481.14453125 599.9751586914062
v 1286.4442138671875 1617.969970703125 599.9751586914062
v 1286.4442138671875 1617.969970703125 800.0252075195312
v 1662.3681640625 1481.14453125 800.0252075195312
v 1492.30810546875 558.6063232421875 1510.008056640625
v 765.4463500976562 -1379.6021728515625 1510.0074462890625
v 467.9153137207031 -2255.695556640625 1209.999755859375
f 14 13 15
f 16 14 15
f 2 1 3
f 4 2 3
f 1086 1085 1087
f 1088 1086 1087
f 1082 1081 1083
f 1084 1082 1083
f 1078 1077 1079
f 1080 1078 1079
f 1046 1045 1047
f 1048 1046 1047
f 1042 1041 1043
f 1044 1042 1043
f 1038 1037 1039
f 1040 1038 1039
f 1006 1005 1007
f 1008 1006 1007
f 1002 1001 1003
f 1004 1002 1003
f 998 997 999
f 1000 998 999
f 966 965 967
f 968 966 967
f 962 961 963
f 964 962 963
f 958 957 959
f 960 958 959
f 902 901 903
f 904 902 903
f 898 897 899
f 900 898 899
f 894 893 895
f 896 894 895
f 584 583 585
f 586 584 585
f 580 579 581
f 582 580 581
f 576 575 577
f 578 576 577
f 544 543 545
f 546 544 545
f 512 511 513
f 514 512 513
f 508 507 509
f 510 508 509
f 504 503 505
f 506 504 505
f 472 471 473
f 474 472 473
f 468 467 469
f 470 468 469
f 464 463 465
f 466 464 465
f 432 431 433
f 434 432 433
f 428 427 429
f 430 428 429
f 424 423 425
f 426 424 425
f 392 391 393
f 394 392 393
f 388 387 389
f 390 388 389
f 384 383 385
f 386 384 385
f 328 327 329
f 330 328 329
f 324 323 325
f 326 324 325
f 320 319 321
f 322 320 321
f 7 12 6
f 6 5 7
f 7 5 8
f 8 5 10
f 9 8 10
f 10 11 9
f 9 11 12
f 12 11 6
f 18 17 19
f 20 18 19
f 1098 1097 1099
f 1100 1098 1099
f 1094 1093 1095
f 1096 1094 1095
f 1090 1089 1091
f 1092 1090 1091
f 1058 1057 1059
f 1060 1058 1059
f 1054 1053 1055
f 1056 1054 1055
f 1050 1049 1051
f 1052 1050 1051
f 1018 1017 1019
f 1020 1018 1019
f 1014 1013 1015
f 1016 1014 1015
f 1010 1009 1011
f 1012 1010 1011
f 978 977 979
f 980 978 979
f 974 973 975
f 976 974 975
f 970 969 971
f 972 970 971
f 914 913 915
f 916 914 915
f 910 909 911
f 912 910 911
f 906 905 907
f 908 906 907
f 596 595 597
f 598 596 597
f 592 591 593
f 594 592 593
f 588 587 589
f 590 588 589
f 572 571 573
f 573 574 572
f 524 523 525
f 526 524 525
f 520 519 521
f 522 520 521
f 516 515 517
f 518 516 517
f 484 483 485
f 486 484 485
f 480 479 481
f 482 480 481
f 476 475 477
f 478 476 477
f 444 443 445
f 446 444 445
f 440 439 441
f 442 440 441
f 436 435 437
f 438 436 437
f 404 403 405
f 406 404 405
f 400 399 401
f 402 400 401
f 396 395 397
f 398 396 397
f 340 339 341
f 342 340 341
f 336 335 337
f 338 336 337
f 332 331 333
f 334 332 333
f 26 25 27
f 28 26 27
f 24 22 23
f 22 21 23
f 72 70 71
f 70 69 71
f 42 44 38
f 58 60 37
f 38 58 37
f 37 36 38
f 36 42 38
f 36 54 42
f 54 53 42
f 60 59 37
f 56 55 37
f 37 57 56
f 59 57 37
f 40 57 59
f 41 57 40
f 40 39 41
f 57 41 165
f 166 57 165
f 52 51 46
f 44 52 46
f 44 46 38
f 46 47 38
f 38 47 41
f 45 38 41
f 43 45 41
f 39 43 41
f 39 60 43
f 60 58 43
f 50 49 48
f 47 50 48
f 47 48 41
f 48 35 41
f 35 33 41
f 34 33 35
f 616 617 608
f 622 621 616
f 614 622 616
f 614 616 608
f 612 614 608
f 620 619 618
f 617 620 618
f 617 618 611
f 608 617 611
f 615 608 611
f 613 615 611
f 618 605 611
f 605 603 611
f 604 603 605
f 627 611 739
f 740 627 739
f 611 627 610
f 610 627 629
f 629 627 607
f 630 629 607
f 626 625 607
f 607 627 626
f 624 623 612
f 606 624 612
f 606 612 608
f 607 606 608
f 608 628 607
f 628 630 607
f 630 628 613
f 609 630 613
f 609 613 611
f 610 609 611
f 66 65 67
f 66 67 68
f 62 61 63
f 64 62 63
f 30 29 31
f 32 30 31
f 1110 1109 1111
f 1112 1110 1111
f 1106 1105 1107
f 1108 1106 1107
f 1102 1101 1103
f 1104 1102 1103
f 1070 1069 1071
f 1072 1070 1071
f 1066 1065 1067
f 1068 1066 1067
f 1062 1061 1063
f 1064 1062 1063
f 1030 1029 1031
f 1032 1030 1031
f 1026 1025 1027
f 1028 1026 1027
f 1022 1021 1023
f 1024 1022 1023
f 990 989 991
f 992 990 991
f 986 985 987
f 988 986 987
f 982 981 983
f 984 982 983
f 926 925 927
f 928 926 927
f 922 921 923
f 924 922 923
f 918 917 919
f 920 918 919
f 724 723 725
f 726 724 725
f 720 719 721
f 720 721 722
f 708 707 709
f 710 708 709
f 704 703 705
f 704 705 706
f 692 691 693
f 694 692 693
f 688 687 689
f 688 689 690
f 676 675 677
f 678 676 677
f 672 671 673
f 672 673 674
f 660 659 661
f 662 660 661
f 656 655 657
f 656 657 658
f 644 643 645
f 646 644 645
f 640 639 641
f 640 641 642
f 600 599 601
f 602 600 601
f 536 535 537
f 538 536 537
f 532 531 533
f 534 532 533
f 528 527 529
f 530 528 529
f 496 495 497
f 498 496 497
f 492 491 493
f 494 492 493
f 488 487 489
f 490 488 489
f 456 455 457
f 458 456 457
f 452 451 453
f 454 452 453
f 448 447 449
f 450 448 449
f 416 415 417
f 418 416 417
f 412 411 413
f 414 412 413
f 408 407 409
f 410 408 409
f 352 351 353
f 354 352 353
f 348 347 349
f 350 348 349
f 344 343 345
f 346 344 345
f 150 149 151
f 152 150 151
f 146 145 147
f 146 147 148
f 134 133 135
f 136 134 135
f 130 129 131
f 130 131 132
f 118 117 119
f 120 118 119
f 114 113 115
f 114 115 116
f 102 101 103
f 104 102 103
f 98 97 99
f 98 99 100
f 86 85 87
f 88 86 87
f 82 81 83
f 82 83 84
f 76 73 74
f 74 73 75
f 78 77 79
f 79 77 80
f 92 89 90
f 90 89 91
f 94 93 95
f 95 93 96
f 108 105 106
f 106 105 107
f 110 109 111
f 111 109 112
f 124 121 122
f 122 121 123
f 126 125 127
f 127 125 128
f 140 137 138
f 138 137 139
f 142 141 143
f 143 141 144
f 156 153 154
f 154 153 155
f 158 157 159
f 159 157 160
f 420 419 421
f 419 422 421
f 460 459 461
f 459 462 461
f 500 499 501
f 499 502 501
f 540 539 541
f 539 542 541
f 632 631 633
f 633 631 635
f 634 633 635
f 635 638 634
f 634 638 637
f 637 636 634
f 1114 1113 1115
f 1113 1116 1115
f 1074 1073 1075
f 1073 1076 1075
f 1034 1033 1035
f 1033 1036 1035
f 994 993 995
f 993 996 995
f 732 731 733
f 733 731 734
f 730 727 728
f 728 727 729
f 716 715 717
f 717 715 718
f 714 711 712
f 712 711 713
f 700 699 701
f 701 699 702
f 698 695 696
f 696 695 697
f 684 683 685
f 685 683 686
f 682 679 680
f 680 679 681
f 668 667 669
f 669 667 670
f 666 663 664
f 664 663 665
f 652 651 653
f 653 651 654
f 650 647 648
f 648 647 649
f 162 161 163
f 164 162 163
f 742 741 743
f 744 742 743
f 736 735 737
f 738 736 737
f 168 167 169
f 170 168 169
f 190 187 188
f 188 187 189
f 954 953 955
f 955 956 954
f 950 949 951
f 952 950 951
f 946 945 947
f 948 946 947
f 942 941 943
f 944 942 943
f 938 937 939
f 940 938 939
f 890 889 891
f 891 892 890
f 870 869 871
f 870 871 872
f 866 865 867
f 868 866 867
f 846 845 847
f 846 847 848
f 842 841 843
f 844 842 843
f 798 797 799
f 799 800 798
f 794 793 795
f 795 796 794
f 552 554 551
f 552 551 553
f 380 379 381
f 381 382 380
f 376 375 377
f 378 376 377
f 372 371 373
f 374 372 373
f 368 367 369
f 370 368 369
f 364 363 365
f 366 364 365
f 316 315 317
f 318 316 317
f 296 295 297
f 296 297 298
f 292 291 293
f 294 292 293
f 272 271 273
f 272 273 274
f 268 267 269
f 270 268 269
f 224 223 225
f 225 226 224
f 220 219 221
f 221 222 220
f 934 936 933
f 933 932 934
f 933 929 932
f 932 929 930
f 930 929 931
f 930 931 935
f 360 362 359
f 359 358 360
f 359 355 358
f 358 355 356
f 356 355 357
f 356 357 361
f 194 191 192
f 192 191 193
f 196 195 197
f 197 195 198
f 202 199 200
f 200 199 201
f 206 203 204
f 204 203 205
f 210 207 208
f 208 207 209
f 214 211 212
f 212 211 213
f 218 215 216
f 216 215 217
f 230 227 228
f 228 227 229
f 234 231 232
f 232 231 233
f 238 235 236
f 236 235 237
f 242 239 240
f 240 239 241
f 243 244 246
f 244 243 245
f 248 247 249
f 250 249 247
f 254 251 252
f 252 251 253
f 258 255 256
f 256 255 257
f 262 259 260
f 260 259 261
f 266 263 264
f 264 263 265
f 278 275 276
f 276 275 277
f 282 279 280
f 280 279 281
f 286 283 284
f 284 283 285
f 290 287 288
f 288 287 289
f 302 299 300
f 300 299 301
f 306 303 304
f 304 303 305
f 310 307 308
f 308 307 309
f 314 311 312
f 312 311 313
f 548 547 549
f 547 550 549
f 558 555 556
f 556 555 557
f 562 559 560
f 560 559 561
f 566 563 564
f 564 563 565
f 570 567 568
f 568 567 569
f 746 745 747
f 747 745 748
f 752 749 750
f 750 749 751
f 756 753 754
f 754 753 755
f 760 757 758
f 758 757 759
f 764 761 762
f 762 761 763
f 768 765 766
f 766 765 767
f 770 769 771
f 771 1121 772
f 776 773 774
f 774 773 775
f 780 777 778
f 778 777 779
f 784 781 782
f 782 781 783
f 788 785 786
f 786 785 787
f 792 789 790
f 790 789 791
f 804 801 802
f 802 801 803
f 808 805 806
f 806 805 807
f 812 809 810
f 810 809 811
f 816 813 814
f 814 813 815
f 817 818 820
f 818 817 819
f 822 821 823
f 824 823 821
f 828 825 826
f 826 825 827
f 832 829 830
f 830 829 831
f 836 833 834
f 834 833 835
f 840 837 838
f 838 837 839
f 852 849 850
f 850 849 851
f 856 853 854
f 854 853 855
f 860 857 858
f 858 857 859
f 864 861 862
f 862 861 863
f 876 873 874
f 874 873 875
f 880 877 878
f 878 877 879
f 884 881 882
f 882 881 883
f 888 885 886
f 886 885 887
f 172 171 173
f 1123 1122 174
f 178 175 176
f 176 175 177
f 182 179 180
f 180 179 181
f 186 183 184
f 184 183 185
f 1118 1117 1119
f 1119 1117 1120
