# from WaterfrontDistrict_Block12_Residental (UC)_0004_LOD_0.pskx
v -1774.993896484375 1037.4998779296875 -6.338151433737949e-05
v -1775.018310546875 512.4998779296875 -1.74856286321301e-05
v -1774.993896484375 1037.4998779296875 49.999935150146484
v -1775.018310546875 512.4998779296875 49.99998092651367
v -1775.018310546875 512.4998779296875 -1.74856286321301e-05
v -229.9986572265625 512.4998779296875 5.0049315177602693e-05
v -1775.018310546875 512.4998779296875 49.99998092651367
v -229.9986572265625 512.4998779296875 50.00004959106445
v -1824.993896484375 1037.499755859375 49.999935150146484
v -1775.006103515625 637.4998779296875 49.999969482421875
v -1774.993896484375 1037.4998779296875 49.999935150146484
v -1825.006103515625 637.4998779296875 49.999969482421875
v -1824.993896484375 1037.499755859375 24.999935150146484
v -1825.006103515625 637.4998779296875 49.999969482421875
v -1824.993896484375 1037.499755859375 49.999935150146484
v -1825.006103515625 637.4998779296875 24.999969482421875
v -1874.993896484375 1037.499755859375 24.99993324279785
v -1825.006103515625 637.4998779296875 24.999969482421875
v -1824.993896484375 1037.499755859375 24.999935150146484
v -1875.006103515625 637.4998779296875 24.999967575073242
v -1874.993896484375 1037.499755859375 -6.775264773750678e-05
v -1875.006103515625 637.4998779296875 24.999967575073242
v -1874.993896484375 1037.499755859375 24.99993324279785
v -1875.006103515625 637.4998779296875 -3.278408621554263e-05
v -1875.006103515625 637.4998779296875 -50.00003433227539
v -1774.993896484375 1037.4998779296875 -6.338151433737949e-05
v -1775.006103515625 637.4998779296875 -2.8412950996425934e-05
v -1874.993896484375 1037.499755859375 -50.00006866455078
v -1874.993896484375 1037.499755859375 -6.775264773750678e-05
v -1874.993896484375 1037.499755859375 24.99993324279785
v -1824.993896484375 1037.499755859375 24.999935150146484
v -1824.993896484375 1037.499755859375 49.999935150146484
v -1774.993896484375 1037.4998779296875 49.999935150146484
v -1774.993896484375 1037.4998779296875 -6.338151433737949e-05
v -1874.993896484375 1037.499755859375 -50.00006866455078
v -1875.006103515625 637.4998779296875 -50.00003433227539
v -1775.006103515625 637.4998779296875 -2.8412950996425934e-05
v -1875.006103515625 637.4998779296875 -3.278408621554263e-05
v -1775.006103515625 637.4998779296875 49.999969482421875
v -1825.006103515625 637.4998779296875 49.999969482421875
v -1825.006103515625 637.4998779296875 24.999969482421875
v -1875.006103515625 637.4998779296875 24.999967575073242
v -1875.006103515625 637.4998779296875 -50.00003433227539
v -1874.993896484375 1037.499755859375 -50.00006866455078
v -1775.006103515625 637.4998779296875 49.999969482421875
v -1774.993896484375 1037.4998779296875 -6.338151433737949e-05
v -1774.993896484375 1037.4998779296875 49.999935150146484
v -1775.006103515625 637.4998779296875 -2.8412950996425934e-05
v -1875.006103515625 637.4998779296875 99.99996948242188
v -1875.006103515625 612.4998779296875 99.99996948242188
v -1775.006103515625 612.4998779296875 149.99996948242188
v -1775.006103515625 637.4998779296875 149.99996948242188
v -1775.006103515625 612.4998779296875 -2.622736974444706e-05
v -1875.006103515625 612.4998779296875 -50.000030517578125
v -1875.006103515625 637.4998779296875 99.99996948242188
v -1875.006103515625 612.4998779296875 -50.000030517578125
v -1875.006103515625 612.4998779296875 99.99996948242188
v -1875.006103515625 612.4998779296875 99.99996948242188
v -1775.006103515625 612.4998779296875 -2.622736974444706e-05
v -1775.006103515625 612.4998779296875 149.99996948242188
v -1875.006103515625 612.4998779296875 -50.000030517578125
v -1775.006103515625 612.4998779296875 149.99996948242188
v -1775.006103515625 637.4998779296875 149.99996948242188
v -1775.006103515625 612.4998779296875 -2.622736974444706e-05
v -1775.006103515625 637.4998779296875 149.99996948242188
v -1875.006103515625 637.4998779296875 -50.00003433227539
v -1875.006103515625 637.4998779296875 99.99996948242188
v -1775.006103515625 637.4998779296875 -2.8412950996425934e-05
v -229.9986572265625 537.4998779296875 50.00004577636719
v -229.998779296875 1037.5 50.000003814697266
v -740.923583984375 952.5595703125 49.9999885559082
v -742.3330078125 930.1783447265625 49.9999885559082
v -1132.762939453125 787.179443359375 49.9999885559082
v -1275.006103515625 787.4998779296875 49.99998092651367
v -1417.249267578125 787.179443359375 49.999977111816406
v -1632.324951171875 810.9124755859375 49.999961853027344
v -1749.993896484375 537.4998779296875 49.99998092651367
v -746.60107421875 917.756591796875 49.99999237060547
v -750.006103515625 912.4998779296875 49.99999237060547
v -917.68701171875 810.91259765625 49.99999237060547
v -797.19970703125 866.59814453125 49.999996185302734
v -749.993896484375 1037.4998779296875 49.99998092651367
v -747.092041015625 1004.0689697265625 49.99998474121094
v -1749.993896484375 637.4998779296875 49.99997329711914
v -1752.8125 866.59814453125 49.99995422363281
v -1775.000732421875 888.1790771484375 49.99994659423828
v -1774.993896484375 637.4998779296875 49.999969482421875
v -1802.903076171875 1004.0689697265625 49.99993896484375
v -1799.993896484375 1037.4998779296875 49.999935150146484
v -1800.006103515625 912.4998779296875 49.99994659423828
v -1809.082763671875 952.5595703125 49.999942779541016
v -1803.41064453125 917.756591796875 49.99994659423828
v -1807.677490234375 930.1783447265625 49.999942779541016
v -1775.000732421875 888.1790771484375 49.99994659423828
v -1774.993896484375 1037.4998779296875 49.999935150146484
v -229.9986572265625 537.4998779296875 50.00004577636719
v -204.9986572265625 512.4998779296875 50.00004959106445
v -229.9986572265625 512.4998779296875 50.00004959106445
v -1799.993896484375 1037.4998779296875 49.999935150146484
v -1802.903076171875 1004.0689697265625 49.99993896484375
v -1799.993896484375 1037.4998779296875 149.99993896484375
v -1802.903076171875 1004.0689697265625 149.99993896484375
v -1809.082763671875 952.5595703125 49.999942779541016
v -1809.082763671875 952.5595703125 149.99993896484375
v -1807.677490234375 930.1783447265625 49.999942779541016
v -1807.677490234375 930.1783447265625 149.99993896484375
v -1803.41064453125 917.7564697265625 49.99994659423828
v -1803.41064453125 917.7564697265625 149.99993896484375
v -1800.006103515625 912.4998779296875 49.99994659423828
v -1800.006103515625 912.4998779296875 149.99993896484375
v -1752.8125 866.59814453125 49.99995422363281
v -1752.8125 866.59814453125 149.99993896484375
v -1632.324951171875 810.912353515625 49.999961853027344
v -1632.324951171875 810.912353515625 149.99996948242188
v -1417.249267578125 787.179443359375 49.999977111816406
v -1417.249267578125 787.179443359375 149.99996948242188
v -1275.006103515625 787.4998779296875 49.99998092651367
v -1275.006103515625 787.4998779296875 149.99998474121094
v -1132.762939453125 787.179443359375 49.9999885559082
v -1132.762939453125 787.179443359375 149.99998474121094
v -917.68701171875 810.91259765625 49.99999237060547
v -917.68701171875 810.91259765625 150.0
v -797.19970703125 866.59814453125 49.999996185302734
v -797.19970703125 866.59814453125 150.0
v -750.006103515625 912.4998779296875 49.99999237060547
v -750.006103515625 912.4998779296875 149.99998474121094
v -746.60107421875 917.756591796875 49.99999237060547
v -746.60107421875 917.756591796875 149.99998474121094
v -742.3330078125 930.1783447265625 49.9999885559082
v -742.3330078125 930.1783447265625 149.99998474121094
v -740.923583984375 952.5595703125 49.9999885559082
v -740.923583984375 952.5595703125 149.99998474121094
v -747.092041015625 1004.0689697265625 49.99998474121094
v -747.092041015625 1004.0689697265625 149.99996948242188
v -749.993896484375 1037.4998779296875 49.99998092651367
v -749.993896484375 1037.4998779296875 149.99996948242188
v -1802.903076171875 1004.0689697265625 149.99993896484375
v -1800.006103515625 912.4998779296875 149.99993896484375
v -1799.993896484375 1037.4998779296875 149.99993896484375
v -1809.082763671875 952.5595703125 149.99993896484375
v -1807.677490234375 930.1783447265625 149.99993896484375
v -1803.41064453125 917.756591796875 149.99993896484375
v -1752.8125 866.59814453125 149.9999542236328
v -1632.324951171875 810.9124755859375 149.99996948242188
v -1417.249267578125 787.179443359375 149.99996948242188
v -1275.006103515625 787.4998779296875 149.99998474121094
v -1132.762939453125 787.179443359375 149.99998474121094
v -917.68701171875 810.91259765625 150.0
v -797.19970703125 866.59814453125 150.0
v -750.006103515625 912.4998779296875 149.99998474121094
v -749.993896484375 1037.4998779296875 149.99998474121094
v -746.60107421875 917.756591796875 149.99998474121094
v -747.092041015625 1004.0689697265625 149.99998474121094
v -742.3330078125 930.1783447265625 149.99998474121094
v -740.923583984375 952.5595703125 149.99998474121094
v -1774.993896484375 512.4998779296875 49.99998092651367
v -204.9989013671875 512.4998779296875 50.00004959106445
v -1774.993896484375 512.4998779296875 149.99998474121094
v -204.9990234375 512.4998779296875 150.00006103515625
v -204.9986572265625 512.4998779296875 50.00004959106445
v -229.9986572265625 537.4998779296875 50.00004577636719
v -204.998779296875 512.4998779296875 150.00006103515625
v -229.998779296875 537.4998779296875 150.00006103515625
v -229.9986572265625 537.4998779296875 50.00004577636719
v -1749.993896484375 537.4998779296875 49.99998092651367
v -229.998779296875 537.4998779296875 150.0000457763672
v -1749.993896484375 537.4998779296875 149.99996948242188
v -1749.993896484375 537.4998779296875 49.99998092651367
v -1749.993896484375 637.4998779296875 49.99997329711914
v -1749.993896484375 537.4998779296875 149.99998474121094
v -1749.993896484375 637.4998779296875 149.99996948242188
v -1749.993896484375 637.4998779296875 49.99997329711914
v -1774.993896484375 637.4998779296875 49.999969482421875
v -1749.993896484375 637.4998779296875 149.99996948242188
v -1774.993896484375 637.4998779296875 149.99996948242188
v -1774.993896484375 637.4998779296875 49.999969482421875
v -1774.993896484375 512.4998779296875 49.99998092651367
v -1774.993896484375 637.4998779296875 149.99996948242188
v -1774.993896484375 512.4998779296875 149.99998474121094
v -204.998779296875 512.4998779296875 150.00006103515625
v -229.998779296875 537.4998779296875 150.00006103515625
v -1749.993896484375 537.4998779296875 149.99998474121094
v -1749.993896484375 637.4998779296875 149.99996948242188
v -1774.993896484375 512.4998779296875 149.99998474121094
v -1774.993896484375 637.4998779296875 149.99996948242188
v 174.9818115234375 512.4998779296875 6.775157817173749e-05
v 1774.9818115234375 512.5 0.00013768979988526553
v 174.9818115234375 512.4998779296875 50.00006866455078
v 1774.981689453125 512.5 50.00013732910156
v 1774.9818115234375 512.5 0.00013768979988526553
v 1775.006103515625 1037.5 9.179391781799495e-05
v 1774.981689453125 512.5 50.00013732910156
v 1775.006103515625 1037.5 50.000091552734375
v 1824.993896484375 637.5 50.00012969970703
v 1775.006103515625 1037.5 50.000091552734375
v 1774.993896484375 637.5 50.000125885009766
v 1825.006103515625 1037.5 50.00009536743164
v 1824.993896484375 637.5 25.0001277923584
v 1825.006103515625 1037.5 50.00009536743164
v 1824.993896484375 637.5 50.00012969970703
v 1825.006103515625 1037.5 25.000093460083008
v 1874.993896484375 637.5 25.000131607055664
v 1825.006103515625 1037.5 25.000093460083008
v 1824.993896484375 637.5 25.0001277923584
v 1875.006103515625 1037.5 25.000097274780273
v 1874.993896484375 637.5 0.0001311336236540228
v 1875.006103515625 1037.5 25.000097274780273
v 1874.993896484375 637.5 25.000131607055664
v 1875.006103515625 1037.5 9.616505121812224e-05
v 1875.006103515625 1037.5 -49.99990463256836
v 1774.993896484375 637.5 0.00012676249025389552
v 1775.006103515625 1037.5 9.179391781799495e-05
v 1874.993896484375 637.5 -49.99987030029297
v 1874.993896484375 637.5 0.0001311336236540228
v 1874.993896484375 637.5 25.000131607055664
v 1824.993896484375 637.5 25.0001277923584
v 1824.993896484375 637.5 50.00012969970703
v 1774.993896484375 637.5 50.000125885009766
v 1774.993896484375 637.5 0.00012676249025389552
v 1874.993896484375 637.5 -49.99987030029297
v 1875.006103515625 1037.5 -49.99990463256836
v 1775.006103515625 1037.5 9.179391781799495e-05
v 1875.006103515625 1037.5 9.616505121812224e-05
v 1775.006103515625 1037.5 50.000091552734375
v 1825.006103515625 1037.5 50.00009536743164
v 1825.006103515625 1037.5 25.000093460083008
v 1875.006103515625 1037.5 25.000097274780273
v 1875.006103515625 1037.5 -49.99990463256836
v 1874.993896484375 637.5 -49.99987030029297
v 1775.006103515625 1037.5 50.000091552734375
v 1774.993896484375 637.5 0.00012676249025389552
v 1774.993896484375 637.5 50.000125885009766
v 1775.006103515625 1037.5 9.179391781799495e-05
v 1874.993896484375 637.5 100.00012969970703
v 1774.993896484375 637.5 150.0001220703125
v 1874.993896484375 612.5 100.00012969970703
v 1774.993896484375 612.5 150.0001220703125
v 1874.993896484375 612.5 -49.9998664855957
v 1774.993896484375 612.5 0.0001289480715058744
v 1874.993896484375 612.5 100.00012969970703
v 1874.993896484375 637.5 100.00012969970703
v 1874.993896484375 612.5 -49.9998664855957
v 1874.993896484375 637.5 100.00012969970703
v 1774.993896484375 637.5 0.00012676249025389552
v 1774.993896484375 637.5 150.0001220703125
v 1874.993896484375 637.5 -49.99987030029297
v 1774.993896484375 637.5 150.0001220703125
v 1774.993896484375 612.5 0.0001289480715058744
v 1774.993896484375 612.5 150.0001220703125
v 1774.993896484375 612.5 150.0001220703125
v 1874.993896484375 612.5 -49.9998664855957
v 1874.993896484375 612.5 100.00012969970703
v 1774.993896484375 612.5 0.0001289480715058744
v 174.9818115234375 512.4998779296875 50.00006866455078
v 175.0062255859375 537.4998779296875 50.000064849853516
v 175.006103515625 1037.5 50.000022888183594
v 1750.006103515625 537.5 50.0001335144043
v 1750.006103515625 637.5 50.000125885009766
v 1749.993896484375 912.5 50.00010299682617
v 1702.8001708984375 866.5982666015625 50.00010299682617
v 1367.237060546875 787.1795654296875 50.00009536743164
v 1224.993896484375 787.5 50.000091552734375
v 1082.7508544921875 787.1795654296875 50.000083923339844
v 692.322509765625 930.178466796875 50.00005340576172
v 690.9172973632812 952.5596923828125 50.00005340576172
v 1582.31298828125 810.9127197265625 50.00010299682617
v 696.5892333984375 917.7567138671875 50.000057220458984
v 699.9939575195312 912.5 50.000057220458984
v 747.1875610351562 866.5982666015625 50.00006103515625
v 867.6748657226562 810.91259765625 50.00007247924805
v 1774.987548828125 637.5 50.000125885009766
v 1759.0762939453125 952.5596923828125 50.000099182128906
v 1757.6669921875 930.178466796875 50.000099182128906
v 1753.39892578125 917.7567138671875 50.00010299682617
v 1750.006103515625 1037.5 50.000091552734375
v 1752.907958984375 1004.069091796875 50.00009536743164
v 697.0971069335938 1004.069091796875 50.00004959106445
v 700.0061645507812 1037.5 50.00004577636719
v 150.0062255859375 512.4998779296875 50.00006866455078
v 175.0062255859375 537.4998779296875 50.000064849853516
v 174.9818115234375 512.4998779296875 50.00006866455078
v 700.0061645507812 1037.5 50.00004577636719
v 697.0971069335938 1004.069091796875 50.00004959106445
v 700.0061645507812 1037.5 150.0000457763672
v 697.0971069335938 1004.069091796875 150.0000457763672
v 690.9171752929688 952.5596923828125 50.00005340576172
v 690.9171752929688 952.5596923828125 150.0000457763672
v 692.322509765625 930.178466796875 50.00005340576172
v 692.322509765625 930.178466796875 150.0000457763672
v 696.5892333984375 917.7567138671875 50.000057220458984
v 696.5892333984375 917.7567138671875 150.0000457763672
v 699.9939575195312 912.5 50.000057220458984
v 699.9939575195312 912.5 150.0000457763672
v 747.1875610351562 866.5982666015625 50.00006103515625
v 747.1875610351562 866.5982666015625 150.0000457763672
v 867.6748657226562 810.91259765625 50.00007247924805
v 867.6748657226562 810.91259765625 150.0000762939453
v 1082.7508544921875 787.1795654296875 50.000083923339844
v 1082.7508544921875 787.1795654296875 150.0000762939453
v 1224.993896484375 787.5 50.000091552734375
v 1224.993896484375 787.5 150.00009155273438
v 1367.237060546875 787.1795654296875 50.00009536743164
v 1367.237060546875 787.1795654296875 150.00009155273438
v 1582.31298828125 810.9127197265625 50.00010299682617
v 1582.31298828125 810.9127197265625 150.00010681152344
v 1702.8001708984375 866.5982666015625 50.00010299682617
v 1702.8001708984375 866.5982666015625 150.00010681152344
v 1749.993896484375 912.5 50.00010299682617
v 1749.993896484375 912.5 150.00009155273438
v 1753.39892578125 917.7567138671875 50.00010299682617
v 1753.39892578125 917.7567138671875 150.00009155273438
v 1757.6669921875 930.178466796875 50.000099182128906
v 1757.6669921875 930.178466796875 150.00009155273438
v 1759.0762939453125 952.5596923828125 50.000099182128906
v 1759.0762939453125 952.5596923828125 150.00009155273438
v 1752.907958984375 1004.069091796875 50.00009536743164
v 1752.907958984375 1004.069091796875 150.0000762939453
v 1750.006103515625 1037.5 50.000091552734375
v 1750.006103515625 1037.5 150.0000762939453
v 697.0971069335938 1004.069091796875 150.0000457763672
v 699.9939575195312 912.5 150.0000457763672
v 700.0061645507812 1037.5 150.0000457763672
v 690.9171752929688 952.5596923828125 150.0000457763672
v 692.322509765625 930.178466796875 150.0000457763672
v 696.5892333984375 917.7567138671875 150.0000457763672
v 747.1875610351562 866.5982666015625 150.00006103515625
v 867.6748657226562 810.91259765625 150.0000762939453
v 1082.7508544921875 787.1795654296875 150.0000762939453
v 1224.993896484375 787.5 150.00009155273438
v 1367.237060546875 787.1795654296875 150.00009155273438
v 1582.31298828125 810.9127197265625 150.00010681152344
v 1702.8001708984375 866.5982666015625 150.00010681152344
v 1749.993896484375 912.5 150.00009155273438
v 1750.006103515625 1037.5 150.00009155273438
v 1753.39892578125 917.7567138671875 150.00009155273438
v 1752.907958984375 1004.069091796875 150.00009155273438
v 1757.6669921875 930.178466796875 150.00009155273438
v 1759.0762939453125 952.5596923828125 150.00009155273438
v 1750.006103515625 637.5 50.000125885009766
v 1750.006103515625 537.5 50.0001335144043
v 1750.006103515625 637.5 150.0001220703125
v 1750.006103515625 537.5 150.00013732910156
v 1750.006103515625 537.5 50.0001335144043
v 175.0062255859375 537.4998779296875 50.000064849853516
v 1750.006103515625 537.5 150.00013732910156
v 175.006103515625 537.4998779296875 150.0000762939453
v 175.0062255859375 537.4998779296875 50.000064849853516
v 150.0062255859375 512.4998779296875 50.00006866455078
v 175.006103515625 537.4998779296875 150.0000762939453
v 150.006103515625 512.4998779296875 150.0000762939453
v 150.0062255859375 512.4998779296875 50.00006866455078
v 1775.006103515625 512.5 50.00013732910156
v 150.006103515625 512.4998779296875 150.0000762939453
v 1775.006103515625 512.5 150.00013732910156
v 1775.006103515625 512.5 50.00013732910156
v 1775.006103515625 637.5 50.000125885009766
v 1775.006103515625 512.5 150.00013732910156
v 1775.006103515625 637.5 150.0001220703125
v 1775.006103515625 637.5 50.000125885009766
v 1750.006103515625 637.5 50.000125885009766
v 1775.006103515625 637.5 150.0001220703125
v 1750.006103515625 637.5 150.0001220703125
v 1750.006103515625 637.5 150.0001220703125
v 1750.006103515625 537.5 150.00013732910156
v 1775.006103515625 637.5 150.0001220703125
v 175.006103515625 537.4998779296875 150.0000762939453
v 150.006103515625 512.4998779296875 150.0000762939453
v 1775.006103515625 512.5 150.00013732910156
v -1775.018310546875 1037.4998779296875 149.99993896484375
v -1775.018310546875 937.4998779296875 149.99993896484375
v -1775.018310546875 1037.5 1350.0
v -1775.018310546875 937.5 1350.0
v -1774.066650390625 928.4149169921875 149.99993896484375
v -1774.066650390625 928.4150390625 1350.0
v -1766.72021484375 911.92919921875 149.99993896484375
v -1766.72021484375 911.9293212890625 1350.0
v -1743.440673828125 891.137451171875 149.9999542236328
v -1743.440673828125 891.1375732421875 1350.0
v -1661.630615234375 861.9139404296875 149.9999542236328
v -1661.630615234375 861.9140625 1350.0
v -1424.84814453125 839.0623779296875 149.99996948242188
v -1557.3837890625 851.8531494140625 349.99993896484375
v -1557.3837890625 851.8531494140625 489.99993896484375
v -1424.84814453125 839.0623779296875 489.9999694824219
v -1557.3837890625 851.853271484375 700.0
v -1557.3837890625 851.853271484375 839.9999389648438
v -1424.84814453125 839.0625 839.9999389648438
v -1557.3837890625 851.853271484375 1100.0
v -1557.3837890625 851.853271484375 1240.0
v -1424.84814453125 839.0625 1240.0
v -1424.84814453125 839.0623779296875 349.9999694824219
v -1424.84814453125 839.0625 700.0
v -1424.84814453125 839.0625 1100.0
v -1424.84814453125 839.0625 1350.0
v -1417.9765625 838.9908447265625 1240.0
v -1358.0029296875 838.3653564453125 1300.0
v -1323.0048828125 838.0003662109375 1300.0
v -1417.9765625 838.9908447265625 1100.0
v -1417.9765625 838.9908447265625 839.9999389648438
v -1417.9765625 838.9908447265625 700.0
v -1417.9765625 838.99072265625 489.9999694824219
v -1417.9765625 838.99072265625 349.9999694824219
v -1358.0029296875 838.365234375 199.99996948242188
v -1275.018310546875 837.4998779296875 149.99998474121094
v -1275.018310546875 837.5 1350.0
v -1323.0048828125 838.000244140625 199.99996948242188
v -1125.1884765625 839.0623779296875 149.99998474121094
v -1205.02197265625 838.2298583984375 199.99998474121094
v -1205.02197265625 838.22998046875 1300.0
v -1170.024169921875 838.594970703125 1300.0
v -1125.1884765625 839.0625 1350.0
v -1170.024169921875 838.5948486328125 199.99998474121094
v -888.406005859375 861.9139404296875 150.0
v -1125.027099609375 839.077880859375 349.9999694824219
v -1125.027099609375 839.077880859375 489.9999694824219
v -985.674560546875 852.526611328125 489.9999694824219
v -1125.027099609375 839.0780029296875 700.0
v -1125.027099609375 839.0780029296875 839.9999389648438
v -985.674560546875 852.5267333984375 839.9999389648438
v -1125.027099609375 839.0780029296875 1100.0
v -1125.027099609375 839.0780029296875 1240.0
v -985.674560546875 852.5267333984375 1240.0
v -888.406005859375 861.9140625 1350.0
v -985.674560546875 852.5267333984375 1100.0
v -985.674560546875 852.5267333984375 700.0
v -985.674560546875 852.526611328125 349.9999694824219
v -806.595703125 891.1375732421875 150.0
v -806.595703125 891.1376953125 1349.999755859375
v -783.31640625 911.92919921875 149.99998474121094
v -783.31640625 911.9293212890625 1350.0
v -775.97021484375 928.414794921875 149.99998474121094
v -775.97021484375 928.4149169921875 1349.999755859375
v -775.018310546875 937.4998779296875 149.99998474121094
v -775.018310546875 937.5 1349.999755859375
v -775.018310546875 1037.4998779296875 149.99998474121094
v -775.018310546875 1037.5 1350.0
v -1424.84814453125 839.0625 839.9999389648438
v -1557.3837890625 851.853271484375 839.9999389648438
v -1555.546142578125 871.7686767578125 839.9999389648438
v -1417.9765625 838.9908447265625 839.9999389648438
v -1416.138916015625 858.90625 839.9999389648438
v -1424.84814453125 839.0625 700.0
v -1555.546142578125 871.7686767578125 700.0
v -1557.3837890625 851.853271484375 700.0
v -1417.9765625 838.9908447265625 700.0
v -1416.138916015625 858.90625 700.0
v -1555.546142578125 871.7686767578125 839.9999389648438
v -1557.3837890625 851.853271484375 700.0
v -1555.546142578125 871.7686767578125 700.0
v -1557.3837890625 851.853271484375 839.9999389648438
v -1416.138916015625 858.90625 839.9999389648438
v -1416.138916015625 858.90625 700.0
v -1417.9765625 838.9908447265625 700.0
v -1417.9765625 838.9908447265625 839.9999389648438
v -1424.84814453125 839.0625 1240.0
v -1557.3837890625 851.853271484375 1240.0
v -1555.546142578125 871.7686767578125 1240.0
v -1417.9765625 838.9908447265625 1240.0
v -1416.138916015625 858.90625 1240.0
v -1424.84814453125 839.0625 1100.0
v -1555.546142578125 871.7686767578125 1100.0
v -1557.3837890625 851.853271484375 1100.0
v -1417.9765625 838.9908447265625 1100.0
v -1416.138916015625 858.90625 1100.0
v -1555.546142578125 871.7686767578125 1240.0
v -1557.3837890625 851.853271484375 1100.0
v -1555.546142578125 871.7686767578125 1100.0
v -1557.3837890625 851.853271484375 1240.0
v -1416.138916015625 858.90625 1240.0
v -1416.138916015625 858.90625 1100.0
v -1417.9765625 838.9908447265625 1100.0
v -1417.9765625 838.9908447265625 1240.0
v -1424.84814453125 839.0623779296875 489.9999694824219
v -1557.3837890625 851.8531494140625 489.99993896484375
v -1555.546142578125 871.7685546875 489.99993896484375
v -1417.9765625 838.99072265625 489.9999694824219
v -1416.138916015625 858.9061279296875 489.9999694824219
v -1424.84814453125 839.0623779296875 349.9999694824219
v -1555.546142578125 871.7685546875 349.99993896484375
v -1557.3837890625 851.8531494140625 349.99993896484375
v -1417.9765625 838.99072265625 349.9999694824219
v -1416.138916015625 858.9061279296875 349.9999694824219
v -1555.546142578125 871.7685546875 489.99993896484375
v -1557.3837890625 851.8531494140625 349.99993896484375
v -1555.546142578125 871.7685546875 349.99993896484375
v -1557.3837890625 851.8531494140625 489.99993896484375
v -1416.138916015625 858.9061279296875 489.9999694824219
v -1416.138916015625 858.9061279296875 349.9999694824219
v -1417.9765625 838.99072265625 349.9999694824219
v -1417.9765625 838.99072265625 489.9999694824219
v -1357.898681640625 848.3648681640625 1300.0
v -1358.0029296875 838.365234375 199.99996948242188
v -1357.898681640625 848.36474609375 199.99996948242188
v -1358.0029296875 838.3653564453125 1300.0
v -1322.900634765625 847.9998779296875 1300.0
v -1322.900634765625 847.999755859375 199.99996948242188
v -1323.0048828125 838.000244140625 199.99996948242188
v -1323.0048828125 838.0003662109375 1300.0
v -1323.0048828125 838.0003662109375 1300.0
v -1358.0029296875 838.3653564453125 1300.0
v -1357.898681640625 848.3648681640625 1300.0
v -1322.900634765625 847.9998779296875 1300.0
v -1323.0048828125 838.000244140625 199.99996948242188
v -1357.898681640625 848.36474609375 199.99996948242188
v -1358.0029296875 838.365234375 199.99996948242188
v -1322.900634765625 847.999755859375 199.99996948242188
v -1126.9482421875 858.9853515625 489.9999694824219
v -1125.027099609375 839.077880859375 349.9999694824219
v -1126.9482421875 858.9853515625 349.9999694824219
v -1125.027099609375 839.077880859375 489.9999694824219
v -987.595947265625 872.43408203125 489.9999694824219
v -987.595947265625 872.43408203125 349.9999694824219
v -985.674560546875 852.526611328125 349.9999694824219
v -985.674560546875 852.526611328125 489.9999694824219
v -1126.9482421875 858.9853515625 489.9999694824219
v -987.595947265625 872.43408203125 489.9999694824219
v -1125.027099609375 839.077880859375 489.9999694824219
v -985.674560546875 852.526611328125 489.9999694824219
v -1126.9482421875 858.9853515625 349.9999694824219
v -1125.027099609375 839.077880859375 349.9999694824219
v -987.595947265625 872.43408203125 349.9999694824219
v -985.674560546875 852.526611328125 349.9999694824219
v -1126.9482421875 858.9854736328125 839.9999389648438
v -1125.027099609375 839.0780029296875 700.0
v -1126.9482421875 858.9854736328125 700.0
v -1125.027099609375 839.0780029296875 839.9999389648438
v -987.595947265625 872.4342041015625 839.9999389648438
v -987.595947265625 872.4342041015625 700.0
v -985.674560546875 852.5267333984375 700.0
v -985.674560546875 852.5267333984375 839.9999389648438
v -1126.9482421875 858.9854736328125 839.9999389648438
v -987.595947265625 872.4342041015625 839.9999389648438
v -1125.027099609375 839.0780029296875 839.9999389648438
v -985.674560546875 852.5267333984375 839.9999389648438
v -1126.9482421875 858.9854736328125 700.0
v -1125.027099609375 839.0780029296875 700.0
v -987.595947265625 872.4342041015625 700.0
v -985.674560546875 852.5267333984375 700.0
v -1126.9482421875 858.9854736328125 1240.0
v -1125.027099609375 839.0780029296875 1100.0
v -1126.9482421875 858.9854736328125 1100.0
v -1125.027099609375 839.0780029296875 1240.0
v -987.595947265625 872.4342041015625 1240.0
v -987.595947265625 872.4342041015625 1100.0
v -985.674560546875 852.5267333984375 1100.0
v -985.674560546875 852.5267333984375 1240.0
v -1126.9482421875 858.9854736328125 1240.0
v -987.595947265625 872.4342041015625 1240.0
v -1125.027099609375 839.0780029296875 1240.0
v -985.674560546875 852.5267333984375 1240.0
v -1126.9482421875 858.9854736328125 1100.0
v -1125.027099609375 839.0780029296875 1100.0
v -987.595947265625 872.4342041015625 1100.0
v -985.674560546875 852.5267333984375 1100.0
v -1205.12646484375 848.2293701171875 1300.0
v -1205.02197265625 838.2298583984375 199.99998474121094
v -1205.12646484375 848.229248046875 199.99998474121094
v -1205.02197265625 838.22998046875 1300.0
v -1170.12841796875 848.5943603515625 1300.0
v -1170.12841796875 848.59423828125 199.99998474121094
v -1170.024169921875 838.5948486328125 199.99998474121094
v -1170.024169921875 838.594970703125 1300.0
v -1205.12646484375 848.2293701171875 1300.0
v -1170.12841796875 848.5943603515625 1300.0
v -1205.02197265625 838.22998046875 1300.0
v -1170.024169921875 838.594970703125 1300.0
v -1205.12646484375 848.229248046875 199.99998474121094
v -1205.02197265625 838.2298583984375 199.99998474121094
v -1170.12841796875 848.59423828125 199.99998474121094
v -1170.024169921875 838.5948486328125 199.99998474121094
v -1825.006103515625 1037.5 1350.0
v -1823.910888671875 878.4149169921875 1350.0
v -1825.006103515625 887.5 1350.0
v -1815.471923828125 861.9293212890625 1350.0
v -1788.814208984375 841.1376953125 1350.0
v -1775.018310546875 1037.5 1350.0
v -1695.798095703125 811.9140625 1350.0
v -1766.72021484375 911.9293212890625 1350.0
v -1743.440673828125 891.1376953125 1350.0
v -1775.018310546875 937.5 1350.0
v -1774.066650390625 928.4149169921875 1350.0
v -1432.6484375 789.0625 1350.0
v -1661.630615234375 861.9140625 1350.0
v -1275.006103515625 787.5 1350.0
v -1424.84814453125 839.0625 1350.0
v -1275.018310546875 837.5 1350.0
v -1117.36376953125 789.0625 1350.0
v -1125.1884765625 839.0625 1350.0
v -854.214111328125 811.9140625 1350.0
v -888.406005859375 861.9140625 1350.0
v -761.19775390625 841.1376953125 1350.0
v -775.97021484375 928.4149169921875 1350.0
v -775.018310546875 937.5 1350.0
v -783.31640625 911.9293212890625 1350.0
v -806.595703125 891.1376953125 1350.0
v -734.540283203125 861.9293212890625 1350.0
v -726.1015625 878.4149169921875 1350.0
v -725.006103515625 1037.5 1350.0
v -775.018310546875 1037.5 1350.0
v -725.006103515625 887.5 1350.0
v -1825.006103515625 1037.5 1350.0
v -1825.006103515625 887.5 1350.0
v -1825.006103515625 1037.5 1375.0
v -1825.006103515625 887.5 1375.0
v -1823.910888671875 878.4150390625 1350.0
v -1823.910888671875 878.4150390625 1375.0
v -1815.471923828125 861.9293212890625 1350.0
v -1815.471923828125 861.9293212890625 1375.0
v -1788.814208984375 841.1376953125 1350.0
v -1788.814208984375 841.1376953125 1375.0
v -1695.798095703125 811.9140625 1350.0
v -1695.798095703125 811.9140625 1375.0
v -1432.6484375 789.0625 1350.0
v -1432.6484375 789.0625 1375.0
v -1275.006103515625 787.5 1350.0
v -1275.006103515625 787.5 1375.0
v -1117.36376953125 789.0625 1350.0
v -1117.36376953125 789.0625 1375.0
v -854.214111328125 811.9140625 1350.0
v -854.214111328125 811.9140625 1375.0
v -761.19775390625 841.1376953125 1350.0
v -761.19775390625 841.1376953125 1375.0
v -734.540283203125 861.9293212890625 1350.0
v -734.540283203125 861.9293212890625 1375.0
v -726.1015625 878.4149169921875 1350.0
v -726.1015625 878.4149169921875 1375.0
v -725.006103515625 887.5 1350.0
v -725.006103515625 887.5 1375.0
v -725.006103515625 1037.5 1350.0
v -725.006103515625 1037.5 1375.0
v -725.006103515625 1037.5 1350.0
v -1825.006103515625 1037.5 1350.0
v -725.006103515625 1037.5 1375.0
v -1825.006103515625 1037.5 1375.0
v -1825.006103515625 1037.5 1375.0
v -1825.006103515625 887.5 1375.0
v -1823.910888671875 878.4149169921875 1375.0
v -1815.471923828125 861.9293212890625 1375.0
v -1788.814208984375 841.1376953125 1375.0
v -1695.798095703125 811.9140625 1375.0
v -1432.6484375 789.0625 1375.0
v -1275.006103515625 787.5 1375.0
v -1117.36376953125 789.0625 1375.0
v -854.214111328125 811.9140625 1375.0
v -761.19775390625 841.1376953125 1375.0
v -734.540283203125 861.9293212890625 1375.0
v -726.1015625 878.4149169921875 1375.0
v -725.006103515625 1037.5 1375.0
v -725.006103515625 887.5 1375.0
v -1800.006103515625 1012.5 1375.0
v -1800.006103515625 889.001708984375 1375.0
v -1800.006103515625 889.001708984375 1415.0
v -1800.006103515625 1012.5 1415.0
v -1790.00634765625 1002.5 1375.0
v -1790.00634765625 1002.5 1415.0
v -1790.00634765625 889.602294921875 1415.0
v -1790.00634765625 889.602294921875 1375.0
v -1800.006103515625 889.001708984375 1375.0
v -1799.624267578125 885.8358154296875 1375.0
v -1799.624267578125 885.8358154296875 1415.0
v -1800.006103515625 889.001708984375 1415.0
v -1790.00634765625 889.602294921875 1375.0
v -1790.00634765625 889.602294921875 1415.0
v -1789.90966796875 888.80419921875 1415.0
v -1789.90966796875 888.80419921875 1375.0
v -1795.737548828125 878.2421875 1375.0
v -1795.737548828125 878.2421875 1415.0
v -1787.84326171875 884.767333984375 1415.0
v -1787.84326171875 884.767333984375 1375.0
v -1777.005859375 863.6324462890625 1375.0
v -1777.005859375 863.6324462890625 1415.0
v -1772.282470703125 872.6304931640625 1415.0
v -1772.282470703125 872.6304931640625 1375.0
v -1690.91259765625 836.5838623046875 1375.0
v -1690.91259765625 836.5838623046875 1415.0
v -1688.9580078125 846.4517822265625 1415.0
v -1688.9580078125 846.4517822265625 1375.0
v -1431.441162109375 814.0517578125 1375.0
v -1431.441162109375 814.0517578125 1415.0
v -1430.95849609375 824.0474853515625 1415.0
v -1430.95849609375 824.0474853515625 1375.0
v -1275.006103515625 812.501220703125 1375.0
v -1275.006103515625 812.501220703125 1415.0
v -1275.006103515625 822.501708984375 1415.0
v -1275.006103515625 822.501708984375 1375.0
v -1118.571044921875 814.0517578125 1375.0
v -1118.571044921875 814.0517578125 1415.0
v -1119.053466796875 824.0474853515625 1415.0
v -1119.053466796875 824.0474853515625 1375.0
v -859.099853515625 836.5838623046875 1375.0
v -859.099853515625 836.5838623046875 1415.0
v -861.05419921875 846.4517822265625 1415.0
v -861.05419921875 846.4517822265625 1375.0
v -773.00634765625 863.632568359375 1375.0
v -773.00634765625 863.632568359375 1415.0
v -777.729736328125 872.6304931640625 1415.0
v -777.729736328125 872.6304931640625 1375.0
v -754.274658203125 878.2420654296875 1375.0
v -754.274658203125 878.2420654296875 1415.0
v -762.1689453125 884.76708984375 1415.0
v -762.1689453125 884.76708984375 1375.0
v -750.3876953125 885.8358154296875 1375.0
v -750.3876953125 885.8358154296875 1415.0
v -760.1025390625 888.80419921875 1415.0
v -760.1025390625 888.80419921875 1375.0
v -750.006103515625 889.001708984375 1375.0
v -750.006103515625 889.001708984375 1415.0
v -760.006103515625 889.602294921875 1415.0
v -760.006103515625 889.602294921875 1375.0
v -750.006103515625 1012.5 1375.0
v -750.006103515625 1012.5 1415.0
v -760.006103515625 1002.5 1415.0
v -760.006103515625 1002.5 1375.0
v -750.006103515625 1012.5 1375.0
v -1800.006103515625 1012.5 1375.0
v -1800.006103515625 1012.5 1415.0
v -750.006103515625 1012.5 1415.0
v -760.006103515625 1002.5 1375.0
v -760.006103515625 1002.5 1415.0
v -1790.00634765625 1002.5 1415.0
v -1790.00634765625 1002.5 1375.0
v -1800.006103515625 1012.5 1415.0
v -1800.006103515625 889.001708984375 1415.0
v -1790.00634765625 889.602294921875 1415.0
v -1790.00634765625 1002.5 1415.0
v -1799.624267578125 885.8358154296875 1415.0
v -1789.90966796875 888.80419921875 1415.0
v -1795.737548828125 878.2421875 1415.0
v -1787.84326171875 884.767333984375 1415.0
v -1777.005859375 863.6324462890625 1415.0
v -1772.282470703125 872.6304931640625 1415.0
v -1690.91259765625 836.5838623046875 1415.0
v -1688.9580078125 846.4517822265625 1415.0
v -1431.441162109375 814.0517578125 1415.0
v -1430.95849609375 824.0474853515625 1415.0
v -1275.006103515625 812.501220703125 1415.0
v -1275.006103515625 822.501708984375 1415.0
v -1118.571044921875 814.0517578125 1415.0
v -1119.053466796875 824.0474853515625 1415.0
v -859.099853515625 836.5838623046875 1415.0
v -861.05419921875 846.4517822265625 1415.0
v -773.00634765625 863.632568359375 1415.0
v -777.729736328125 872.6304931640625 1415.0
v -754.274658203125 878.2420654296875 1415.0
v -762.1689453125 884.76708984375 1415.0
v -750.3876953125 885.8358154296875 1415.0
v -760.1025390625 888.80419921875 1415.0
v -750.006103515625 889.001708984375 1415.0
v -760.006103515625 889.602294921875 1415.0
v -750.006103515625 1012.5 1415.0
v -760.006103515625 1002.5 1415.0
v 724.9817504882812 1037.5 150.0000457763672
v 724.9817504882812 937.5 150.0000457763672
v 724.981689453125 1037.5 1350.0001220703125
v 724.981689453125 937.5001220703125 1350.0001220703125
v 725.9337158203125 928.4149169921875 150.0000457763672
v 725.9336547851562 928.4150390625 1350.0001220703125
v 733.2799682617188 911.9293212890625 150.0000457763672
v 733.2799072265625 911.929443359375 1350.0001220703125
v 756.5592651367188 891.1376953125 150.00006103515625
v 756.5592041015625 891.1378173828125 1350.0001220703125
v 838.3692626953125 861.9140625 150.0000762939453
v 838.3692016601562 861.9141845703125 1350.0001220703125
v 1075.15185546875 839.0625 150.0000762939453
v 942.616455078125 851.853271484375 350.00006103515625
v 942.6163940429688 851.853271484375 490.00006103515625
v 1075.15185546875 839.0625 490.00006103515625
v 942.6163940429688 851.8533935546875 700.0000610351562
v 942.6163940429688 851.8533935546875 840.0
v 1075.1517333984375 839.0626220703125 840.0000610351562
v 942.6163940429688 851.8533935546875 1100.0001220703125
v 942.6163940429688 851.8533935546875 1240.0001220703125
v 1075.1517333984375 839.0626220703125 1240.0001220703125
v 1075.15185546875 839.0625 350.00006103515625
v 1075.1517333984375 839.0626220703125 700.0001220703125
v 1075.1517333984375 839.0626220703125 1100.0001220703125
v 1075.1517333984375 839.0626220703125 1350.0001220703125
v 1082.02392578125 838.9908447265625 1240.0001220703125
v 1141.9969482421875 838.365478515625 1300.0001220703125
v 1176.9949951171875 838.00048828125 1300.0001220703125
v 1082.02392578125 838.9908447265625 1100.0001220703125
v 1082.02392578125 838.9908447265625 840.0000610351562
v 1082.02392578125 838.9908447265625 700.0001220703125
v 1082.02392578125 838.99072265625 490.00006103515625
v 1082.02392578125 838.99072265625 350.00006103515625
v 1141.9970703125 838.3653564453125 200.0000762939453
v 1224.981689453125 837.5 150.00009155273438
v 1224.981689453125 837.5001220703125 1350.0001220703125
v 1176.9951171875 838.0003662109375 200.00009155273438
v 1374.811767578125 839.0625 150.00009155273438
v 1294.9779052734375 838.22998046875 200.00009155273438
v 1294.977783203125 838.2301025390625 1300.0001220703125
v 1329.9759521484375 838.5950927734375 1300.0001220703125
v 1374.8116455078125 839.0626220703125 1350.0001220703125
v 1329.97607421875 838.594970703125 200.00009155273438
v 1611.5941162109375 861.9140625 150.00010681152344
v 1374.972900390625 839.0780029296875 350.0000915527344
v 1374.972900390625 839.0780029296875 490.0000915527344
v 1514.3253173828125 852.5267333984375 490.0000915527344
v 1374.972900390625 839.078125 700.0001220703125
v 1374.972900390625 839.078125 840.0000610351562
v 1514.3253173828125 852.52685546875 840.0000610351562
v 1374.9727783203125 839.078125 1100.0001220703125
v 1374.9727783203125 839.078125 1240.0001220703125
v 1514.3253173828125 852.52685546875 1240.0001220703125
v 1611.5941162109375 861.9141845703125 1350.0001220703125
v 1514.3253173828125 852.52685546875 1100.0001220703125
v 1514.3253173828125 852.52685546875 700.0001220703125
v 1514.3253173828125 852.5267333984375 350.0000915527344
v 1693.404296875 891.1376953125 150.00010681152344
v 1693.4041748046875 891.1378173828125 1349.9998779296875
v 1716.68359375 911.9293212890625 150.00009155273438
v 1716.68359375 911.929443359375 1350.0001220703125
v 1724.02978515625 928.4149169921875 150.00009155273438
v 1724.0296630859375 928.4150390625 1349.9998779296875
v 1724.981689453125 937.5 150.00009155273438
v 1724.981689453125 937.5001220703125 1349.9998779296875
v 1724.981689453125 1037.5 150.00009155273438
v 1724.981689453125 1037.5001220703125 1350.0001220703125
v 1075.15185546875 839.0625 490.00006103515625
v 942.6163940429688 851.853271484375 490.00006103515625
v 944.453857421875 871.7686767578125 490.00006103515625
v 1082.02392578125 838.99072265625 490.00006103515625
v 1083.861328125 858.9061279296875 490.00006103515625
v 1075.15185546875 839.0625 350.00006103515625
v 944.4539184570312 871.7686767578125 350.00006103515625
v 942.616455078125 851.853271484375 350.00006103515625
v 1082.02392578125 838.99072265625 350.00006103515625
v 1083.861328125 858.9061279296875 350.00006103515625
v 944.453857421875 871.7686767578125 490.00006103515625
v 942.616455078125 851.853271484375 350.00006103515625
v 944.4539184570312 871.7686767578125 350.00006103515625
v 942.6163940429688 851.853271484375 490.00006103515625
v 1083.861328125 858.9061279296875 490.00006103515625
v 1083.861328125 858.9061279296875 350.00006103515625
v 1082.02392578125 838.99072265625 350.00006103515625
v 1082.02392578125 838.99072265625 490.00006103515625
v 1075.1517333984375 839.0626220703125 840.0000610351562
v 942.6163940429688 851.8533935546875 840.0
v 944.453857421875 871.768798828125 840.0
v 1082.02392578125 838.9908447265625 840.0000610351562
v 1083.861328125 858.90625 840.0000610351562
v 1075.1517333984375 839.0626220703125 700.0001220703125
v 944.453857421875 871.768798828125 700.0000610351562
v 942.6163940429688 851.8533935546875 700.0000610351562
v 1082.02392578125 838.9908447265625 700.0001220703125
v 1083.861328125 858.90625 700.0001220703125
v 944.453857421875 871.768798828125 840.0
v 942.6163940429688 851.8533935546875 700.0000610351562
v 944.453857421875 871.768798828125 700.0000610351562
v 942.6163940429688 851.8533935546875 840.0
v 1083.861328125 858.90625 840.0000610351562
v 1083.861328125 858.90625 700.0001220703125
v 1082.02392578125 838.9908447265625 700.0001220703125
v 1082.02392578125 838.9908447265625 840.0000610351562
v 1075.1517333984375 839.0626220703125 1240.0001220703125
v 942.6163940429688 851.8533935546875 1240.0001220703125
v 944.453857421875 871.768798828125 1240.0001220703125
v 1082.02392578125 838.9908447265625 1240.0001220703125
v 1083.861328125 858.90625 1240.0001220703125
v 1075.1517333984375 839.0626220703125 1100.0001220703125
v 944.453857421875 871.768798828125 1100.0001220703125
v 942.6163940429688 851.8533935546875 1100.0001220703125
v 1082.02392578125 838.9908447265625 1100.0001220703125
v 1083.861328125 858.90625 1100.0001220703125
v 944.453857421875 871.768798828125 1240.0001220703125
v 942.6163940429688 851.8533935546875 1100.0001220703125
v 944.453857421875 871.768798828125 1100.0001220703125
v 942.6163940429688 851.8533935546875 1240.0001220703125
v 1083.861328125 858.90625 1240.0001220703125
v 1083.861328125 858.90625 1100.0001220703125
v 1082.02392578125 838.9908447265625 1100.0001220703125
v 1082.02392578125 838.9908447265625 1240.0001220703125
v 1142.101318359375 848.364990234375 1300.0001220703125
v 1141.9970703125 838.3653564453125 200.0000762939453
v 1142.101318359375 848.3648681640625 200.0000762939453
v 1141.9969482421875 838.365478515625 1300.0001220703125
v 1177.099365234375 848.0 1300.0001220703125
v 1177.099365234375 847.9998779296875 200.00009155273438
v 1176.9951171875 838.0003662109375 200.00009155273438
v 1176.9949951171875 838.00048828125 1300.0001220703125
v 1176.9949951171875 838.00048828125 1300.0001220703125
v 1141.9969482421875 838.365478515625 1300.0001220703125
v 1142.101318359375 848.364990234375 1300.0001220703125
v 1177.099365234375 848.0 1300.0001220703125
v 1176.9951171875 838.0003662109375 200.00009155273438
v 1142.101318359375 848.3648681640625 200.0000762939453
v 1141.9970703125 838.3653564453125 200.0000762939453
v 1177.099365234375 847.9998779296875 200.00009155273438
v 1373.0516357421875 858.9854736328125 490.0000915527344
v 1374.972900390625 839.0780029296875 350.0000915527344
v 1373.0516357421875 858.9854736328125 350.0000915527344
v 1374.972900390625 839.0780029296875 490.0000915527344
v 1512.404052734375 872.4342041015625 490.0000915527344
v 1512.404052734375 872.4342041015625 350.0000915527344
v 1514.3253173828125 852.5267333984375 350.0000915527344
v 1514.3253173828125 852.5267333984375 490.0000915527344
v 1373.0516357421875 858.9854736328125 490.0000915527344
v 1512.404052734375 872.4342041015625 490.0000915527344
v 1374.972900390625 839.0780029296875 490.0000915527344
v 1514.3253173828125 852.5267333984375 490.0000915527344
v 1373.0516357421875 858.9854736328125 350.0000915527344
v 1374.972900390625 839.0780029296875 350.0000915527344
v 1512.404052734375 872.4342041015625 350.0000915527344
v 1514.3253173828125 852.5267333984375 350.0000915527344
v 1373.051513671875 858.985595703125 840.0000610351562
v 1374.972900390625 839.078125 700.0001220703125
v 1373.0516357421875 858.985595703125 700.0001220703125
v 1374.972900390625 839.078125 840.0000610351562
v 1512.404052734375 872.434326171875 840.0000610351562
v 1512.404052734375 872.434326171875 700.0001220703125
v 1514.3253173828125 852.52685546875 700.0001220703125
v 1514.3253173828125 852.52685546875 840.0000610351562
v 1373.051513671875 858.985595703125 840.0000610351562
v 1512.404052734375 872.434326171875 840.0000610351562
v 1374.972900390625 839.078125 840.0000610351562
v 1514.3253173828125 852.52685546875 840.0000610351562
v 1373.0516357421875 858.985595703125 700.0001220703125
v 1374.972900390625 839.078125 700.0001220703125
v 1512.404052734375 872.434326171875 700.0001220703125
v 1514.3253173828125 852.52685546875 700.0001220703125
v 1373.051513671875 858.985595703125 1240.0001220703125
v 1374.9727783203125 839.078125 1100.0001220703125
v 1373.051513671875 858.985595703125 1100.0001220703125
v 1374.9727783203125 839.078125 1240.0001220703125
v 1512.404052734375 872.434326171875 1240.0001220703125
v 1512.404052734375 872.434326171875 1100.0001220703125
v 1514.3253173828125 852.52685546875 1100.0001220703125
v 1514.3253173828125 852.52685546875 1240.0001220703125
v 1373.051513671875 858.985595703125 1240.0001220703125
v 1512.404052734375 872.434326171875 1240.0001220703125
v 1374.9727783203125 839.078125 1240.0001220703125
v 1514.3253173828125 852.52685546875 1240.0001220703125
v 1373.051513671875 858.985595703125 1100.0001220703125
v 1374.9727783203125 839.078125 1100.0001220703125
v 1512.404052734375 872.434326171875 1100.0001220703125
v 1514.3253173828125 852.52685546875 1100.0001220703125
v 1294.87353515625 848.2294921875 1300.0001220703125
v 1294.9779052734375 838.22998046875 200.00009155273438
v 1294.87353515625 848.2293701171875 200.00009155273438
v 1294.977783203125 838.2301025390625 1300.0001220703125
v 1329.8717041015625 848.594482421875 1300.0001220703125
v 1329.8717041015625 848.5943603515625 200.00009155273438
v 1329.97607421875 838.594970703125 200.00009155273438
v 1329.9759521484375 838.5950927734375 1300.0001220703125
v 1294.87353515625 848.2294921875 1300.0001220703125
v 1329.8717041015625 848.594482421875 1300.0001220703125
v 1294.977783203125 838.2301025390625 1300.0001220703125
v 1329.9759521484375 838.5950927734375 1300.0001220703125
v 1294.87353515625 848.2293701171875 200.00009155273438
v 1294.9779052734375 838.22998046875 200.00009155273438
v 1329.8717041015625 848.5943603515625 200.00009155273438
v 1329.97607421875 838.594970703125 200.00009155273438
v 674.993896484375 1037.5 1350.0001220703125
v 676.0892944335938 878.4150390625 1350.0001220703125
v 674.993896484375 887.5001220703125 1350.0001220703125
v 684.528076171875 861.929443359375 1350.0001220703125
v 711.1856689453125 841.1378173828125 1350.0001220703125
v 724.981689453125 1037.5 1350.0001220703125
v 804.2017211914062 811.9141845703125 1350.0001220703125
v 733.2799072265625 911.929443359375 1350.0001220703125
v 756.5592041015625 891.1378173828125 1350.0001220703125
v 724.981689453125 937.5001220703125 1350.0001220703125
v 725.9336547851562 928.4150390625 1350.0001220703125
v 1067.3514404296875 789.0626220703125 1350.0001220703125
v 838.3692016601562 861.9141845703125 1350.0001220703125
v 1224.993896484375 787.5001220703125 1350.0001220703125
v 1075.1517333984375 839.0626220703125 1350.0001220703125
v 1224.981689453125 837.5001220703125 1350.0001220703125
v 1382.6363525390625 789.0626220703125 1350.0001220703125
v 1374.8116455078125 839.0626220703125 1350.0001220703125
v 1645.7860107421875 811.9141845703125 1350.0001220703125
v 1611.5941162109375 861.9141845703125 1350.0001220703125
v 1738.8021240234375 841.1378173828125 1350.0001220703125
v 1724.0296630859375 928.4150390625 1350.0001220703125
v 1724.981689453125 937.5001220703125 1350.0001220703125
v 1716.68359375 911.929443359375 1350.0001220703125
v 1693.4041748046875 891.1378173828125 1350.0001220703125
v 1765.4598388671875 861.929443359375 1350.0001220703125
v 1773.8984375 878.4150390625 1350.0001220703125
v 1774.993896484375 1037.5001220703125 1350.0001220703125
v 1724.981689453125 1037.5001220703125 1350.0001220703125
v 1774.993896484375 887.5001220703125 1350.0001220703125
v 674.993896484375 1037.5 1350.0001220703125
v 674.993896484375 887.5001220703125 1350.0001220703125
v 674.993896484375 1037.5 1375.0001220703125
v 674.993896484375 887.5001220703125 1375.0001220703125
v 676.0892944335938 878.4150390625 1350.0001220703125
v 676.0892944335938 878.4150390625 1375.0001220703125
v 684.528076171875 861.929443359375 1350.0001220703125
v 684.528076171875 861.929443359375 1375.0001220703125
v 711.1856689453125 841.1378173828125 1350.0001220703125
v 711.1856689453125 841.1378173828125 1375.0001220703125
v 804.2017211914062 811.9141845703125 1350.0001220703125
v 804.2017211914062 811.9141845703125 1375.0001220703125
v 1067.3514404296875 789.0626220703125 1350.0001220703125
v 1067.3514404296875 789.0626220703125 1375.0001220703125
v 1224.993896484375 787.5001220703125 1350.0001220703125
v 1224.993896484375 787.5001220703125 1375.0001220703125
v 1382.6363525390625 789.0626220703125 1350.0001220703125
v 1382.6363525390625 789.0626220703125 1375.0001220703125
v 1645.7860107421875 811.9141845703125 1350.0001220703125
v 1645.7860107421875 811.9141845703125 1375.0001220703125
v 1738.8021240234375 841.1378173828125 1350.0001220703125
v 1738.8021240234375 841.1378173828125 1375.0001220703125
v 1765.4598388671875 861.929443359375 1350.0001220703125
v 1765.4598388671875 861.929443359375 1375.0001220703125
v 1773.8984375 878.4150390625 1350.0001220703125
v 1773.8984375 878.4150390625 1375.0001220703125
v 1774.993896484375 887.5001220703125 1350.0001220703125
v 1774.993896484375 887.5001220703125 1375.0001220703125
v 1774.993896484375 1037.5001220703125 1350.0001220703125
v 1774.993896484375 1037.5001220703125 1375.0001220703125
v 674.993896484375 1037.5 1375.0001220703125
v 674.993896484375 887.5001220703125 1375.0001220703125
v 676.0892944335938 878.4150390625 1375.0001220703125
v 684.528076171875 861.929443359375 1375.0001220703125
v 711.1856689453125 841.1378173828125 1375.0001220703125
v 804.2017211914062 811.9141845703125 1375.0001220703125
v 1067.3514404296875 789.0626220703125 1375.0001220703125
v 1224.993896484375 787.5001220703125 1375.0001220703125
v 1382.6363525390625 789.0626220703125 1375.0001220703125
v 1645.7860107421875 811.9141845703125 1375.0001220703125
v 1738.8021240234375 841.1378173828125 1375.0001220703125
v 1765.4598388671875 861.929443359375 1375.0001220703125
v 1773.8984375 878.4150390625 1375.0001220703125
v 1774.993896484375 1037.5001220703125 1375.0001220703125
v 1774.993896484375 887.5001220703125 1375.0001220703125
v 699.993896484375 1012.5001220703125 1375.0001220703125
v 699.993896484375 889.0018310546875 1375.0001220703125
v 699.993896484375 889.0018310546875 1415.0001220703125
v 699.993896484375 1012.5001220703125 1415.0001220703125
v 709.9939575195312 1002.5001220703125 1375.0001220703125
v 709.9939575195312 1002.5001220703125 1415.0001220703125
v 709.9939575195312 889.6024169921875 1415.0001220703125
v 709.9939575195312 889.6024169921875 1375.0001220703125
v 699.993896484375 889.0018310546875 1375.0001220703125
v 700.3755493164062 885.8359375 1375.0001220703125
v 700.3755493164062 885.8359375 1415.0001220703125
v 699.993896484375 889.0018310546875 1415.0001220703125
v 709.9939575195312 889.6024169921875 1375.0001220703125
v 709.9939575195312 889.6024169921875 1415.0001220703125
v 710.0901489257812 888.8043212890625 1415.0001220703125
v 710.0901489257812 888.8043212890625 1375.0001220703125
v 704.2627563476562 878.2423095703125 1375.0001220703125
v 704.2627563476562 878.2423095703125 1415.0001220703125
v 712.1565551757812 884.7674560546875 1415.0001220703125
v 712.1565551757812 884.7674560546875 1375.0001220703125
v 722.9942626953125 863.632568359375 1375.0001220703125
v 722.9942626953125 863.632568359375 1415.0001220703125
v 727.7177124023438 872.630615234375 1415.0001220703125
v 727.7177124023438 872.630615234375 1375.0001220703125
v 809.0874633789062 836.583984375 1375.0001220703125
v 809.0874633789062 836.583984375 1415.0001220703125
v 811.0418090820312 846.451904296875 1415.0001220703125
v 811.0418090820312 846.451904296875 1375.0001220703125
v 1068.558837890625 814.0518798828125 1375.0001220703125
v 1068.558837890625 814.0518798828125 1415.0001220703125
v 1069.04150390625 824.047607421875 1415.0001220703125
v 1069.04150390625 824.047607421875 1375.0001220703125
v 1224.993896484375 812.5013427734375 1375.0001220703125
v 1224.993896484375 812.5013427734375 1415.0001220703125
v 1224.993896484375 822.5018310546875 1415.0001220703125
v 1224.993896484375 822.5018310546875 1375.0001220703125
v 1381.428955078125 814.0518798828125 1375.0001220703125
v 1381.428955078125 814.0518798828125 1415.0001220703125
v 1380.946533203125 824.047607421875 1415.0001220703125
v 1380.946533203125 824.047607421875 1375.0001220703125
v 1640.9002685546875 836.583984375 1375.0001220703125
v 1640.9002685546875 836.583984375 1415.0001220703125
v 1638.94580078125 846.451904296875 1415.0001220703125
v 1638.94580078125 846.451904296875 1375.0001220703125
v 1726.99365234375 863.6326904296875 1375.0001220703125
v 1726.99365234375 863.6326904296875 1415.0001220703125
v 1722.270263671875 872.630615234375 1415.0001220703125
v 1722.270263671875 872.630615234375 1375.0001220703125
v 1745.72509765625 878.2421875 1375.0001220703125
v 1745.72509765625 878.2421875 1415.0001220703125
v 1737.8311767578125 884.7672119140625 1415.0001220703125
v 1737.8311767578125 884.7672119140625 1375.0001220703125
v 1749.6121826171875 885.8359375 1375.0001220703125
v 1749.6121826171875 885.8359375 1415.0001220703125
v 1739.8975830078125 888.8043212890625 1415.0001220703125
v 1739.8975830078125 888.8043212890625 1375.0001220703125
v 1749.993896484375 889.0018310546875 1375.0001220703125
v 1749.993896484375 889.0018310546875 1415.0001220703125
v 1739.993896484375 889.6024169921875 1415.0001220703125
v 1739.993896484375 889.6024169921875 1375.0001220703125
v 1749.993896484375 1012.5001220703125 1375.0001220703125
v 1749.993896484375 1012.5001220703125 1415.0001220703125
v 1739.993896484375 1002.5001220703125 1415.0001220703125
v 1739.993896484375 1002.5001220703125 1375.0001220703125
v 1749.993896484375 1012.5001220703125 1375.0001220703125
v 699.993896484375 1012.5001220703125 1375.0001220703125
v 699.993896484375 1012.5001220703125 1415.0001220703125
v 1749.993896484375 1012.5001220703125 1415.0001220703125
v 1739.993896484375 1002.5001220703125 1375.0001220703125
v 1739.993896484375 1002.5001220703125 1415.0001220703125
v 709.9939575195312 1002.5001220703125 1415.0001220703125
v 709.9939575195312 1002.5001220703125 1375.0001220703125
v 699.993896484375 1012.5001220703125 1415.0001220703125
v 699.993896484375 889.0018310546875 1415.0001220703125
v 709.9939575195312 889.6024169921875 1415.0001220703125
v 709.9939575195312 1002.5001220703125 1415.0001220703125
v 700.3755493164062 885.8359375 1415.0001220703125
v 710.0901489257812 888.8043212890625 1415.0001220703125
v 704.2627563476562 878.2423095703125 1415.0001220703125
v 712.1565551757812 884.7674560546875 1415.0001220703125
v 722.9942626953125 863.632568359375 1415.0001220703125
v 727.7177124023438 872.630615234375 1415.0001220703125
v 809.0874633789062 836.583984375 1415.0001220703125
v 811.0418090820312 846.451904296875 1415.0001220703125
v 1068.558837890625 814.0518798828125 1415.0001220703125
v 1069.04150390625 824.047607421875 1415.0001220703125
v 1224.993896484375 812.5013427734375 1415.0001220703125
v 1224.993896484375 822.5018310546875 1415.0001220703125
v 1381.428955078125 814.0518798828125 1415.0001220703125
v 1380.946533203125 824.047607421875 1415.0001220703125
v 1640.9002685546875 836.583984375 1415.0001220703125
v 1638.94580078125 846.451904296875 1415.0001220703125
v 1726.99365234375 863.6326904296875 1415.0001220703125
v 1722.270263671875 872.630615234375 1415.0001220703125
v 1745.72509765625 878.2421875 1415.0001220703125
v 1737.8311767578125 884.7672119140625 1415.0001220703125
v 1749.6121826171875 885.8359375 1415.0001220703125
v 1739.8975830078125 888.8043212890625 1415.0001220703125
v 1749.993896484375 889.0018310546875 1415.0001220703125
v 1739.993896484375 889.6024169921875 1415.0001220703125
v 1749.993896484375 1012.5001220703125 1415.0001220703125
v 1739.993896484375 1002.5001220703125 1415.0001220703125
v -229.998779296875 612.4998779296875 50.00004196166992
v 175.006103515625 612.4998779296875 50.00006103515625
v 175.0062255859375 -837.5 0.00018577338778413832
v 174.9940185546875 12.4998779296875 0.00011146349424961954
v 175.0062255859375 -837.5 50.000186920166016
v 174.9940185546875 12.4998779296875 50.0001106262207
v 174.9940185546875 12.4998779296875 0.00011146349424961954
v 74.9940185546875 12.4998779296875 0.00010709236084949225
v 174.9940185546875 12.4998779296875 50.0001106262207
v 74.9940185546875 12.4998779296875 50.00010681152344
v 74.9940185546875 312.4998779296875 8.086553862085566e-05
v 174.9940185546875 312.4998779296875 8.523667202098295e-05
v 74.9940185546875 312.4998779296875 50.000083923339844
v 174.9940185546875 312.4998779296875 50.00008773803711
v 174.9940185546875 312.4998779296875 8.523667202098295e-05
v 175.0062255859375 612.4998779296875 5.9010377299273387e-05
v 174.9940185546875 312.4998779296875 50.00008773803711
v 175.006103515625 612.4998779296875 50.00006103515625
v -229.9986572265625 612.4998779296875 4.130704837734811e-05
v -229.9986572265625 -437.5 0.00013310096983332187
v -229.998779296875 612.4998779296875 50.00004196166992
v -229.9986572265625 -437.5 50.0001335144043
v -229.9986572265625 -437.5 0.00013310096983332187
v -129.9986572265625 -437.5 0.0001374721177853644
v -229.9986572265625 -437.5 50.0001335144043
v -129.9986572265625 -437.5 50.00013732910156
v -129.9986572265625 -737.5 0.0001636989472899586
v -229.9986572265625 -737.5 0.00015932779933791608
v -129.9986572265625 -737.5 50.00016403198242
v -229.9986572265625 -737.5 50.000160217285156
v -229.9986572265625 -737.5 0.00015932779933791608
v -229.9986572265625 -837.5 0.00016807006613817066
v -229.9986572265625 -737.5 50.000160217285156
v -229.9986572265625 -837.5 50.00016784667969
v -179.9925537109375 -437.5 50.00013732910156
v -129.9986572265625 -737.5 50.00016403198242
v -129.9986572265625 -437.5 50.00013732910156
v -179.9925537109375 -737.5 50.00016403198242
v -179.9925537109375 -437.5 25.000133514404297
v -179.9925537109375 -737.5 50.00016403198242
v -179.9925537109375 -437.5 50.00013732910156
v -179.9925537109375 -737.5 25.000160217285156
v -229.9864501953125 -437.5 25.000131607055664
v -179.9925537109375 -737.5 25.000160217285156
v -179.9925537109375 -437.5 25.000133514404297
v -229.9864501953125 -737.5 25.000158309936523
v -229.9864501953125 -437.5 0.00013310150825418532
v -229.9864501953125 -737.5 25.000158309936523
v -229.9864501953125 -437.5 25.000131607055664
v -229.9864501953125 -737.5 0.00015932833775877953
v -129.9986572265625 -437.5 0.0001374721177853644
v -129.9986572265625 -737.5 0.0001636989472899586
v -229.9864501953125 -437.5 -49.9998664855957
v -229.9864501953125 -737.5 -49.999839782714844
v -229.9864501953125 -737.5 -49.999839782714844
v -129.9986572265625 -737.5 0.0001636989472899586
v -229.9864501953125 -737.5 0.00015932833775877953
v -129.9986572265625 -737.5 50.00016403198242
v -179.9925537109375 -737.5 50.00016403198242
v -179.9925537109375 -737.5 25.000160217285156
v -229.9864501953125 -737.5 25.000158309936523
v -229.9864501953125 -437.5 0.00013310150825418532
v -229.9864501953125 -437.5 25.000131607055664
v -179.9925537109375 -437.5 25.000133514404297
v -179.9925537109375 -437.5 50.00013732910156
v -129.9986572265625 -437.5 50.00013732910156
v -129.9986572265625 -437.5 0.0001374721177853644
v -229.9864501953125 -437.5 -49.9998664855957
v -229.9864501953125 -737.5 -49.999839782714844
v -229.9864501953125 -437.5 -49.9998664855957
v -129.9986572265625 -737.5 50.00016403198242
v -129.9986572265625 -437.5 0.0001374721177853644
v -129.9986572265625 -437.5 50.00013732910156
v -129.9986572265625 -737.5 0.0001636989472899586
v 124.9879150390625 12.4998779296875 50.00010681152344
v 74.9818115234375 312.4998779296875 50.000083923339844
v 74.9818115234375 12.4998779296875 50.00010681152344
v 124.9879150390625 312.4998779296875 50.000083923339844
v 124.9879150390625 12.4998779296875 25.00010871887207
v 124.9879150390625 312.4998779296875 50.000083923339844
v 124.9879150390625 12.4998779296875 50.00010681152344
v 124.9879150390625 312.4998779296875 25.00008201599121
v 174.9940185546875 12.4998779296875 25.000112533569336
v 124.9879150390625 312.4998779296875 25.00008201599121
v 124.9879150390625 12.4998779296875 25.00010871887207
v 174.9940185546875 312.4998779296875 25.000085830688477
v 174.9940185546875 312.4998779296875 25.000085830688477
v 174.9940185546875 12.4998779296875 25.000112533569336
v 74.9818115234375 12.4998779296875 0.0001070918224286288
v 74.9818115234375 312.4998779296875 8.086500019999221e-05
v 174.9940185546875 12.4998779296875 -49.9998893737793
v 174.9940185546875 312.4998779296875 -49.99991226196289
v 174.9940185546875 12.4998779296875 0.00011146349424961954
v 174.9940185546875 12.4998779296875 25.000112533569336
v 124.9879150390625 12.4998779296875 25.00010871887207
v 124.9879150390625 12.4998779296875 50.00010681152344
v 74.9818115234375 12.4998779296875 50.00010681152344
v 74.9818115234375 12.4998779296875 0.0001070918224286288
v 174.9940185546875 12.4998779296875 -49.9998893737793
v 174.9940185546875 312.4998779296875 -49.99991226196289
v 74.9818115234375 312.4998779296875 8.086500019999221e-05
v 174.9940185546875 312.4998779296875 8.523667202098295e-05
v 74.9818115234375 312.4998779296875 50.000083923339844
v 124.9879150390625 312.4998779296875 50.000083923339844
v 124.9879150390625 312.4998779296875 25.00008201599121
v 174.9940185546875 312.4998779296875 25.000085830688477
v 174.9940185546875 312.4998779296875 -49.99991226196289
v 174.9940185546875 12.4998779296875 -49.9998893737793
v 74.9818115234375 312.4998779296875 50.000083923339844
v 74.9818115234375 12.4998779296875 0.0001070918224286288
v 74.9818115234375 12.4998779296875 50.00010681152344
v 74.9818115234375 312.4998779296875 8.086500019999221e-05
v 175.0062255859375 -837.5 50.000186920166016
v 174.9940185546875 12.4998779296875 50.0001106262207
v 74.9940185546875 12.4998779296875 50.00010681152344
v 74.9940185546875 312.4998779296875 50.000083923339844
v -229.9986572265625 -837.5 50.00016784667969
v 174.9940185546875 312.4998779296875 50.00008773803711
v -229.9986572265625 -437.5 50.0001335144043
v -229.9986572265625 -737.5 50.000160217285156
v -129.9986572265625 -437.5 50.00013732910156
v -204.9986572265625 -412.5 50.00012969970703
v -129.9986572265625 -412.5 50.0001335144043
v -229.9986572265625 -437.5 50.0001335144043
v 174.9940185546875 312.4998779296875 50.00008773803711
v 149.9940185546875 337.4998779296875 50.000083923339844
v 74.9940185546875 312.4998779296875 50.000083923339844
v 74.9940185546875 337.4998779296875 50.00008010864258
v 175.0062255859375 512.4998779296875 50.00006866455078
v 74.9940185546875 12.4998779296875 50.00010681152344
v 149.9940185546875 -12.5 50.00011444091797
v 74.9940185546875 -12.5 50.0001106262207
v 174.9940185546875 12.4998779296875 50.0001106262207
v 150.0062255859375 -837.5 50.000186920166016
v 175.0062255859375 -837.5 50.000186920166016
v -229.9986572265625 -837.5 50.00016784667969
v -204.9986572265625 -762.5 50.000160217285156
v -204.9986572265625 -837.5 50.00016784667969
v -129.9986572265625 -737.5 50.00016403198242
v -129.9986572265625 -762.5 50.00016403198242
v -229.9986572265625 -737.5 50.000160217285156
v -229.9986572265625 -437.5 150.00013732910156
v -129.9986572265625 -437.5 150.00013732910156
v -129.9986572265625 -412.5 50.0001335144043
v -129.9986572265625 -437.5 150.00013732910156
v -129.9986572265625 -412.5 150.00013732910156
v -129.9986572265625 -412.5 50.0001335144043
v -204.9986572265625 -412.5 50.00012969970703
v -129.9986572265625 -412.5 150.00013732910156
v -204.9986572265625 -412.5 150.00013732910156
v -204.9986572265625 -412.5 50.00012969970703
v -204.9986572265625 512.4998779296875 50.00004959106445
v -204.9986572265625 -412.5 150.00013732910156
v -204.998779296875 512.4998779296875 150.00006103515625
v -204.9986572265625 512.4998779296875 50.00004959106445
v -229.9986572265625 512.4998779296875 50.00004959106445
v -204.998779296875 512.4998779296875 150.00006103515625
v -229.998779296875 512.4998779296875 150.00006103515625
v -229.9986572265625 512.4998779296875 50.00004959106445
v -229.998779296875 512.4998779296875 150.00006103515625
v -229.9986572265625 -437.5 150.00013732910156
v -129.9986572265625 -437.5 150.00013732910156
v -129.9986572265625 -412.5 150.00013732910156
v -204.9986572265625 -412.5 150.00013732910156
v -229.9986572265625 -437.5 150.00013732910156
v -229.998779296875 512.4998779296875 150.00006103515625
v 150.0062255859375 512.4998779296875 50.00006866455078
v 149.9940185546875 337.4998779296875 50.000083923339844
v 150.006103515625 512.4998779296875 150.0000762939453
v 149.9940185546875 337.4998779296875 150.00009155273438
v 149.9940185546875 337.4998779296875 50.000083923339844
v 74.9940185546875 337.4998779296875 50.00008010864258
v 149.9940185546875 337.4998779296875 150.00009155273438
v 74.9940185546875 337.4998779296875 150.0000762939453
v 74.9940185546875 337.4998779296875 50.00008010864258
v 74.9940185546875 312.4998779296875 50.000083923339844
v 74.9940185546875 337.4998779296875 150.0000762939453
v 74.9940185546875 312.4998779296875 150.0000762939453
v 74.9940185546875 312.4998779296875 150.0000762939453
v 174.9940185546875 312.4998779296875 150.00009155273438
v 175.0062255859375 512.4998779296875 50.00006866455078
v 174.9940185546875 312.4998779296875 150.00009155273438
v 175.006103515625 512.4998779296875 150.0000762939453
v 175.0062255859375 512.4998779296875 50.00006866455078
v 150.0062255859375 512.4998779296875 50.00006866455078
v 175.006103515625 512.4998779296875 150.0000762939453
v 150.006103515625 512.4998779296875 150.0000762939453
v 174.9940185546875 312.4998779296875 150.00009155273438
v 149.9940185546875 337.4998779296875 150.00009155273438
v 74.9940185546875 312.4998779296875 150.0000762939453
v 74.9940185546875 337.4998779296875 150.0000762939453
v 175.006103515625 512.4998779296875 150.0000762939453
v 74.9940185546875 12.4998779296875 50.00010681152344
v 74.9940185546875 -12.5 50.0001106262207
v 74.9940185546875 12.4998779296875 150.00010681152344
v 74.9940185546875 -12.5 150.00010681152344
v 74.9940185546875 -12.5 50.0001106262207
v 149.9940185546875 -12.5 50.00011444091797
v 74.9940185546875 -12.5 150.00010681152344
v 149.9940185546875 -12.5 150.0001220703125
v 149.9940185546875 -12.5 50.00011444091797
v 150.0062255859375 -837.5 50.000186920166016
v 149.9940185546875 -12.5 150.0001220703125
v 150.0062255859375 -837.5 150.00018310546875
v 150.0062255859375 -837.5 50.000186920166016
v 175.0062255859375 -837.5 50.000186920166016
v 150.0062255859375 -837.5 150.00018310546875
v 175.0062255859375 -837.5 150.00018310546875
v 175.0062255859375 -837.5 150.00018310546875
v 174.9940185546875 12.4998779296875 150.0001220703125
v 174.9940185546875 12.4998779296875 150.0001220703125
v 74.9940185546875 12.4998779296875 150.00010681152344
v 74.9940185546875 12.4998779296875 150.00010681152344
v 74.9940185546875 -12.5 150.00010681152344
v 149.9940185546875 -12.5 150.0001220703125
v 150.0062255859375 -837.5 150.00018310546875
v 174.9940185546875 12.4998779296875 150.0001220703125
v 175.0062255859375 -837.5 150.00018310546875
v -204.9986572265625 -837.5 50.00016784667969
v -204.9986572265625 -762.5 50.000160217285156
v -204.9986572265625 -837.5 150.0001678466797
v -204.9986572265625 -762.5 150.0001678466797
v -204.9986572265625 -762.5 50.000160217285156
v -129.9986572265625 -762.5 50.00016403198242
v -204.9986572265625 -762.5 150.0001678466797
v -129.9986572265625 -762.5 150.0001678466797
v -129.9986572265625 -762.5 50.00016403198242
v -129.9986572265625 -762.5 150.0001678466797
v -129.9986572265625 -737.5 150.0001678466797
v -129.9986572265625 -737.5 150.0001678466797
v -229.9986572265625 -737.5 150.0001678466797
v -229.9986572265625 -737.5 150.0001678466797
v -229.9986572265625 -837.5 150.0001678466797
v -229.9986572265625 -837.5 50.00016784667969
v -204.9986572265625 -837.5 50.00016784667969
v -229.9986572265625 -837.5 150.0001678466797
v -204.9986572265625 -837.5 150.0001678466797
v -229.9986572265625 -837.5 150.0001678466797
v -204.9986572265625 -837.5 150.0001678466797
v -204.9986572265625 -762.5 150.0001678466797
v -129.9986572265625 -762.5 150.0001678466797
v -129.9986572265625 -737.5 150.0001678466797
v -229.9986572265625 -737.5 150.0001678466797
v -199.9937744140625 367.5047607421875 -49.999935150146484
v -224.9937744140625 367.5047607421875 -49.99993896484375
v -199.9937744140625 367.5047607421875 6.403675797628239e-05
v -224.9937744140625 367.5047607421875 6.294397462625057e-05
v -224.9937744140625 367.5047607421875 -49.99993896484375
v -224.9937744140625 342.5047607421875 -49.999935150146484
v -224.9937744140625 367.5047607421875 6.294397462625057e-05
v -224.9937744140625 342.5047607421875 6.512954132631421e-05
v -224.9937744140625 342.5047607421875 -49.999935150146484
v -199.9937744140625 342.5047607421875 -49.99993133544922
v -224.9937744140625 342.5047607421875 6.512954132631421e-05
v -199.9937744140625 342.5047607421875 6.622232467634603e-05
v -199.9937744140625 342.5047607421875 -49.99993133544922
v -199.9937744140625 367.5047607421875 -49.999935150146484
v -199.9937744140625 342.5047607421875 6.622232467634603e-05
v -199.9937744140625 367.5047607421875 6.403675797628239e-05
v -224.9937744140625 367.5047607421875 6.294397462625057e-05
v -224.9937744140625 342.5047607421875 6.512954132631421e-05
v -199.9937744140625 367.5047607421875 6.403675797628239e-05
v -199.9937744140625 342.5047607421875 6.622232467634603e-05
v 150.0062255859375 342.5047607421875 -49.999916076660156
v 175.0062255859375 342.5047607421875 -49.999916076660156
v 150.0062255859375 342.5047607421875 8.15213134046644e-05
v 175.0062255859375 342.5047607421875 8.261409675469622e-05
v 175.0062255859375 342.5047607421875 -49.999916076660156
v 175.0062255859375 367.5047607421875 -49.99991989135742
v 175.0062255859375 342.5047607421875 8.261409675469622e-05
v 175.0062255859375 367.5047607421875 8.042853005463257e-05
v 175.0062255859375 367.5047607421875 -49.99991989135742
v 150.0062255859375 367.5047607421875 -49.99991989135742
v 175.0062255859375 367.5047607421875 8.042853005463257e-05
v 150.0062255859375 367.5047607421875 7.933574670460075e-05
v 150.0062255859375 367.5047607421875 -49.99991989135742
v 150.0062255859375 342.5047607421875 -49.999916076660156
v 150.0062255859375 367.5047607421875 7.933574670460075e-05
v 150.0062255859375 342.5047607421875 8.15213134046644e-05
v 150.0062255859375 342.5047607421875 8.15213134046644e-05
v 175.0062255859375 342.5047607421875 8.261409675469622e-05
v 175.0062255859375 367.5047607421875 8.042853005463257e-05
v 150.0062255859375 367.5047607421875 7.933574670460075e-05
v 266.5101318359375 -963.14697265625 -227.95660400390625
v 316.5101318359375 -963.14697265625 -227.95660400390625
v 266.5101318359375 -963.14697265625 -127.95659637451172
v 316.5101318359375 -963.14697265625 -127.95659637451172
v 316.5101318359375 -963.14697265625 -227.95660400390625
v 316.5101318359375 -913.14697265625 -227.95660400390625
v 316.5101318359375 -963.14697265625 -127.95659637451172
v 316.5101318359375 -913.14697265625 -127.95659637451172
v 316.5101318359375 -913.14697265625 -227.95660400390625
v 266.5101318359375 -913.14697265625 -227.95660400390625
v 316.5101318359375 -913.14697265625 -127.95659637451172
v 266.5101318359375 -913.14697265625 -127.95659637451172
v 266.5101318359375 -913.14697265625 -227.95660400390625
v 266.5101318359375 -963.14697265625 -227.95660400390625
v 266.5101318359375 -913.14697265625 -127.95659637451172
v 266.5101318359375 -963.14697265625 -127.95659637451172
v 266.5101318359375 -913.14697265625 -127.95659637451172
v 266.5101318359375 -963.14697265625 -127.95659637451172
v 316.5101318359375 -963.14697265625 -127.95659637451172
v 316.5101318359375 -913.14697265625 -127.95659637451172
v -333.4776611328125 -913.14697265625 -227.95663452148438
v -383.4775390625 -913.14697265625 -227.95663452148438
v -333.4776611328125 -913.14697265625 -127.95662689208984
v -383.4775390625 -913.14697265625 -127.95662689208984
v -383.4775390625 -913.14697265625 -227.95663452148438
v -383.4775390625 -963.14697265625 -227.95663452148438
v -383.4775390625 -913.14697265625 -127.95662689208984
v -383.4775390625 -963.14697265625 -127.95662689208984
v -383.4775390625 -963.14697265625 -227.95663452148438
v -333.4776611328125 -963.14697265625 -227.95663452148438
v -383.4775390625 -963.14697265625 -127.95662689208984
v -333.4776611328125 -963.14697265625 -127.95662689208984
v -333.4776611328125 -963.14697265625 -227.95663452148438
v -333.4776611328125 -913.14697265625 -227.95663452148438
v -333.4776611328125 -963.14697265625 -127.95662689208984
v -333.4776611328125 -913.14697265625 -127.95662689208984
v -333.4776611328125 -913.14697265625 -127.95662689208984
v -383.4775390625 -913.14697265625 -127.95662689208984
v -333.4776611328125 -963.14697265625 -127.95662689208984
v -383.4775390625 -963.14697265625 -127.95662689208984
v -229.9986572265625 -1037.5 0.00018555462884251028
v 175.0062255859375 -1037.5 0.00020325795048847795
v -229.9986572265625 -850.90625 50.00017547607422
v 175.0062255859375 -850.90625 50.00019454956055
v 175.0062255859375 -1037.5 0.00020325795048847795
v 175.0062255859375 -850.90625 50.000186920166016
v 175.0062255859375 -837.5 0.00018577338778413832
v -229.9986572265625 -837.5 0.00016807006613817066
v 175.0062255859375 -837.5 50.000186920166016
v -229.9986572265625 -837.5 50.00016784667969
v -229.9986572265625 -1037.5 0.00018555462884251028
v -229.9986572265625 -850.90625 50.00016784667969
v -229.9986572265625 -850.90625 50.00016784667969
v 175.0062255859375 -850.90625 50.000186920166016
v -1357.898681640625 848.36474609375 199.99996948242188
v -1322.900634765625 847.999755859375 199.99996948242188
v -1322.900634765625 847.9998779296875 1300.0
v -1357.898681640625 848.3648681640625 1300.0
v -1205.12646484375 848.229248046875 199.99998474121094
v -1170.12841796875 848.59423828125 199.99998474121094
v -1170.12841796875 848.5943603515625 1300.0
v -1205.12646484375 848.2293701171875 1300.0
v 1142.101318359375 848.3648681640625 200.0000762939453
v 1177.099365234375 847.9998779296875 200.00009155273438
v 1177.099365234375 848.0 1300.0001220703125
v 1142.101318359375 848.364990234375 1300.0001220703125
v 1294.87353515625 848.2293701171875 200.00009155273438
v 1329.8717041015625 848.5943603515625 200.00009155273438
v 1329.8717041015625 848.594482421875 1300.0001220703125
v 1294.87353515625 848.2294921875 1300.0001220703125
f 163 162 164
f 165 163 164
f 1331 1330 1332
f 1333 1331 1332
f 1327 1326 1328
f 1329 1327 1328
f 1323 1322 1324
f 1325 1323 1324
f 1314 1313 1315
f 1316 1314 1315
f 1310 1309 1311
f 1312 1310 1311
f 1306 1305 1307
f 1308 1306 1307
f 1302 1301 1303
f 1304 1302 1303
f 1298 1297 1299
f 1300 1298 1299
f 1294 1293 1295
f 1296 1294 1295
f 1248 1247 1249
f 1248 1249 1253
f 1253 1252 1248
f 1252 1250 1248
f 1251 1250 1252
f 1261 1258 1259
f 1259 1258 1260
f 1257 1254 1255
f 1255 1254 1256
f 1235 1232 1233
f 1233 1232 1234
f 1231 1228 1229
f 1229 1228 1230
f 1227 1224 1225
f 1225 1224 1226
f 1223 1220 1221
f 1221 1220 1222
f 1219 1216 1217
f 1217 1216 1218
f 1215 1212 1213
f 1213 1212 1214
f 74 71 72
f 72 71 73
f 70 67 68
f 68 67 69
f 66 63 64
f 64 63 65
f 62 59 60
f 60 59 61
f 52 51 53
f 51 54 53
f 1524 1523 1525
f 1525 1523 1526
f 1520 1519 1521
f 1521 1519 1522
f 1516 1515 1517
f 1517 1515 1518
f 1512 1511 1513
f 1513 1511 1514
f 1468 1467 1469
f 1467 1470 1469
f 1448 1447 1449
f 1447 1450 1449
f 1376 1375 1377
f 1377 1375 1379
f 1378 1377 1379
f 1379 1380 1378
f 1337 1335 1336
f 1335 1334 1336
f 1241 1240 1242
f 1240 1245 1242
f 1242 1245 1244
f 1243 1242 1244
f 1240 1246 1245
f 1239 1237 1238
f 1237 1236 1238
f 1206 1205 1207
f 1205 1210 1207
f 1207 1210 1209
f 1208 1207 1209
f 1205 1211 1210
f 1193 1190 1191
f 1191 1190 1192
f 1189 1186 1187
f 1187 1186 1188
f 1185 1182 1183
f 1183 1182 1184
f 1181 1178 1179
f 1179 1178 1180
f 636 634 635
f 637 636 635
f 638 1527 1528
f 639 638 1528
f 640 638 639
f 641 640 639
f 642 640 641
f 643 642 641
f 626 624 625
f 627 626 625
f 628 626 627
f 629 628 627
f 630 628 629
f 631 630 629
f 632 630 631
f 633 632 631
f 634 632 633
f 635 634 633
f 615 614 616
f 617 615 616
f 618 615 617
f 619 618 617
f 620 618 619
f 621 620 619
f 622 1529 1530
f 623 622 1530
f 624 622 623
f 625 624 623
f 56 58 55
f 56 55 57
f 6 5 7
f 8 6 7
f 2 1 3
f 4 2 3
f 1504 1503 1505
f 1506 1504 1505
f 1500 1499 1501
f 1502 1500 1501
f 1496 1495 1497
f 1498 1496 1497
f 1488 1487 1489
f 1490 1488 1489
f 1484 1483 1485
f 1486 1484 1485
f 1480 1479 1481
f 1482 1480 1481
f 1476 1475 1477
f 1478 1476 1477
f 1472 1471 1473
f 1474 1472 1473
f 1464 1463 1465
f 1466 1464 1465
f 1460 1459 1461
f 1462 1460 1461
f 1456 1455 1457
f 1458 1456 1457
f 1452 1451 1453
f 1454 1452 1453
f 1444 1443 1445
f 1446 1444 1445
f 1440 1439 1441
f 1442 1440 1441
f 1436 1435 1437
f 1438 1436 1437
f 1432 1431 1433
f 1434 1432 1433
f 1428 1427 1429
f 1430 1428 1429
f 1424 1423 1425
f 1426 1424 1425
f 1420 1419 1421
f 1422 1420 1421
f 1416 1415 1417
f 1418 1416 1417
f 1412 1411 1413
f 1414 1412 1413
f 1402 1401 1403
f 1404 1402 1403
f 1398 1397 1399
f 1400 1398 1399
f 1394 1393 1395
f 1396 1394 1395
f 1390 1389 1391
f 1392 1390 1391
f 1386 1385 1387
f 1388 1386 1387
f 1382 1381 1383
f 1384 1382 1383
f 1372 1371 1373
f 1374 1372 1373
f 1368 1367 1369
f 1370 1368 1369
f 1364 1363 1365
f 1366 1364 1365
f 1360 1359 1361
f 1362 1360 1361
f 1356 1355 1357
f 1358 1356 1357
f 1352 1351 1353
f 1354 1352 1353
f 1346 380 1350
f 380 1346 1347
f 1347 1346 1348
f 1348 1349 1347
f 377 376 378
f 378 381 377
f 377 381 380
f 379 377 380
f 1343 1342 1344
f 1345 1343 1344
f 1339 1338 1340
f 1341 1339 1340
f 1199 1198 1200
f 1199 1200 1204
f 1204 1203 1199
f 1203 1201 1199
f 1202 1201 1203
f 265 262 263
f 263 262 264
f 261 258 259
f 259 258 260
f 257 254 255
f 255 254 256
f 253 250 251
f 251 250 252
f 1318 1317 1319
f 1319 1317 1320
f 186 1531 1320
f 1320 1321 186
f 187 186 188
f 188 186 190
f 189 1532 190
f 190 191 189
f 1406 1405 1407
f 1405 1410 1407
f 1407 1410 1409
f 1408 1407 1409
f 1195 1194 1196
f 1197 1195 1196
f 1175 1174 1176
f 1177 1175 1176
f 1171 1170 1172
f 1173 1171 1172
f 1167 1166 1168
f 1169 1167 1168
f 1163 1162 1164
f 1165 1163 1164
f 1159 1158 1160
f 1161 1159 1160
f 1155 1154 1156
f 1157 1155 1156
f 1151 1150 1152
f 1153 1151 1152
f 1147 1146 1148
f 1149 1147 1148
f 645 644 646
f 647 645 646
f 373 372 374
f 375 373 374
f 369 368 370
f 371 369 370
f 365 364 366
f 367 365 366
f 361 360 362
f 363 361 362
f 357 356 358
f 359 357 358
f 353 352 354
f 355 353 354
f 247 246 248
f 247 248 249
f 243 242 244
f 245 243 244
f 197 196 198
f 199 197 198
f 193 192 194
f 195 193 194
f 183 182 184
f 185 183 184
f 179 178 180
f 181 179 180
f 175 174 176
f 177 175 176
f 171 170 172
f 173 171 172
f 167 166 168
f 169 167 168
f 142 141 140
f 141 139 140
f 140 139 138
f 139 137 138
f 138 137 136
f 137 135 136
f 136 135 134
f 135 133 134
f 134 133 132
f 133 131 132
f 1534 1533 130
f 1533 129 130
f 130 129 128
f 129 127 128
f 128 127 126
f 127 125 126
f 126 125 124
f 125 123 124
f 124 123 122
f 123 121 122
f 122 121 120
f 121 119 120
f 120 119 118
f 119 117 118
f 118 117 116
f 117 115 116
f 1536 1535 114
f 1535 113 114
f 114 113 112
f 113 111 112
f 112 111 110
f 111 109 110
f 110 109 108
f 109 106 108
f 108 106 107
f 106 105 107
f 332 331 330
f 331 329 330
f 330 329 328
f 329 327 328
f 328 327 326
f 327 325 326
f 326 325 324
f 325 323 324
f 324 323 322
f 323 321 322
f 1538 1537 320
f 1537 319 320
f 320 319 318
f 319 317 318
f 318 317 316
f 317 315 316
f 316 315 314
f 315 313 314
f 314 313 312
f 313 311 312
f 312 311 310
f 311 309 310
f 310 309 308
f 309 307 308
f 308 307 306
f 307 305 306
f 1540 1539 304
f 1539 303 304
f 304 303 302
f 303 301 302
f 302 301 300
f 301 299 300
f 300 299 298
f 299 296 298
f 298 296 297
f 296 295 297
f 1026 1025 1024
f 1025 1023 1024
f 1024 1023 1022
f 1023 1021 1022
f 1022 1021 1020
f 1021 1019 1020
f 1542 1541 1018
f 1541 1017 1018
f 1018 1017 1016
f 1017 1015 1016
f 1016 1015 1014
f 1015 1013 1014
f 1014 1013 1012
f 1013 1011 1012
f 1012 1011 1010
f 1011 1009 1010
f 1010 1009 1008
f 1009 1007 1008
f 1008 1007 1006
f 1007 1005 1006
f 1006 1005 1004
f 1005 1003 1004
f 1544 1543 1002
f 1543 1001 1002
f 1002 1001 1000
f 1001 998 1000
f 1000 998 999
f 998 997 999
f 46 43 44
f 44 43 45
f 29 35 34
f 30 29 31
f 29 34 31
f 31 34 33
f 32 31 33
f 994 995 989
f 994 993 996
f 994 989 993
f 993 989 992
f 992 989 987
f 988 987 989
f 990 987 988
f 985 987 990
f 985 990 991
f 991 986 985
f 983 985 986
f 986 984 983
f 980 983 984
f 984 982 980
f 981 980 982
f 978 980 981
f 981 979 978
f 973 978 979
f 979 975 973
f 974 973 975
f 971 973 974
f 971 974 977
f 971 977 976
f 971 976 972
f 972 967 971
f 971 967 970
f 970 967 968
f 968 967 969
f 1047 1046 1048
f 1048 1046 1049
f 1043 1042 1044
f 1044 1042 1045
f 1028 1027 1029
f 1029 1027 1030
f 1030 1027 1031
f 1031 1027 1032
f 1032 1027 1033
f 1033 1027 1034
f 1034 1027 1035
f 1035 1027 1036
f 1036 1027 1037
f 1037 1027 1038
f 1038 1027 1039
f 1039 1027 1040
f 1041 1039 1040
f 611 612 606
f 611 610 613
f 611 606 610
f 610 606 609
f 609 606 604
f 605 604 606
f 607 604 605
f 602 604 607
f 602 607 608
f 608 603 602
f 600 602 603
f 603 601 600
f 597 600 601
f 601 599 597
f 598 597 599
f 595 597 598
f 598 596 595
f 590 595 596
f 596 592 590
f 591 590 592
f 588 590 591
f 588 591 594
f 588 594 593
f 588 593 589
f 589 584 588
f 588 584 587
f 587 584 585
f 585 584 586
f 237 234 235
f 235 234 236
f 25 26 28
f 26 25 27
f 24 21 22
f 22 21 23
f 20 17 18
f 18 17 19
f 16 13 14
f 14 13 15
f 12 9 10
f 10 9 11
f 1111 1110 1112
f 1112 1110 1113
f 1107 1106 1108
f 1108 1106 1109
f 732 731 733
f 733 731 734
f 728 727 729
f 729 727 730
f 668 667 669
f 669 667 670
f 664 663 665
f 665 663 666
f 241 238 239
f 239 238 240
f 221 220 222
f 220 225 222
f 222 225 224
f 223 222 224
f 220 226 225
f 216 217 219
f 217 216 218
f 215 212 213
f 213 212 214
f 211 208 209
f 209 208 210
f 207 204 205
f 205 204 206
f 203 200 201
f 201 200 202
f 50 47 48
f 48 47 49
f 1092 1093 1096
f 1096 1093 1097
f 1096 1097 1100
f 1100 1097 1101
f 1100 1101 1104
f 1104 1101 1105
f 1072 1073 1076
f 1076 1073 1077
f 1076 1077 1080
f 1080 1077 1081
f 1080 1081 1084
f 1084 1081 1085
f 1084 1085 1088
f 1088 1085 1089
f 1088 1089 1545
f 1545 1089 1546
f 1055 1054 1056
f 1056 1054 1057
f 1056 1057 1060
f 1060 1057 1061
f 1548 1547 1064
f 1064 1547 1065
f 1064 1065 1068
f 1068 1065 1069
f 1068 1069 1072
f 1072 1069 1073
f 713 714 717
f 717 714 718
f 717 718 721
f 721 718 722
f 721 722 725
f 725 722 726
f 693 694 697
f 697 694 698
f 697 698 701
f 701 698 702
f 701 702 705
f 705 702 706
f 705 706 709
f 709 706 710
f 709 710 1549
f 1549 710 1550
f 676 675 677
f 677 675 678
f 677 678 681
f 681 678 682
f 1552 1551 685
f 685 1551 686
f 685 686 689
f 689 686 690
f 689 690 693
f 693 690 694
f 1139 1136 1137
f 1136 1134 1137
f 1137 1134 1135
f 1134 1132 1135
f 1135 1132 1133
f 1132 1130 1133
f 1133 1130 1131
f 1130 1128 1131
f 1131 1128 1129
f 1128 1126 1129
f 1129 1126 1127
f 1126 1124 1127
f 1127 1124 1125
f 1124 1122 1125
f 1125 1122 1123
f 1122 1120 1123
f 1123 1120 1121
f 1120 1118 1121
f 1121 1118 1119
f 1118 1115 1119
f 1119 1115 1116
f 1115 1114 1116
f 1116 1114 1117
f 1114 1142 1117
f 1117 1142 1143
f 1142 1140 1143
f 1143 1140 1141
f 1140 1138 1141
f 1141 1138 1139
f 1138 1136 1139
f 752 749 750
f 749 747 750
f 750 747 748
f 747 745 748
f 748 745 746
f 745 743 746
f 746 743 744
f 743 741 744
f 744 741 742
f 741 739 742
f 742 739 740
f 739 736 740
f 740 736 737
f 736 735 737
f 737 735 738
f 735 763 738
f 738 763 764
f 763 761 764
f 764 761 762
f 761 759 762
f 762 759 760
f 759 757 760
f 760 757 758
f 757 755 758
f 758 755 756
f 755 753 756
f 756 753 754
f 753 751 754
f 754 751 752
f 751 749 752
f 723 719 724
f 724 719 720
f 719 715 720
f 720 715 716
f 715 711 716
f 716 711 712
f 1553 707 1554
f 1554 707 708
f 707 703 708
f 708 703 704
f 703 699 704
f 704 699 700
f 699 695 700
f 700 695 696
f 695 691 696
f 696 691 692
f 691 687 692
f 692 687 688
f 687 683 688
f 688 683 684
f 683 679 684
f 684 679 680
f 1555 672 1556
f 1556 672 673
f 672 671 673
f 673 671 674
f 1102 1098 1103
f 1103 1098 1099
f 1098 1094 1099
f 1099 1094 1095
f 1094 1090 1095
f 1095 1090 1091
f 1557 1086 1558
f 1558 1086 1087
f 1086 1082 1087
f 1087 1082 1083
f 1082 1078 1083
f 1083 1078 1079
f 1078 1074 1079
f 1079 1074 1075
f 1074 1070 1075
f 1075 1070 1071
f 1070 1066 1071
f 1071 1066 1067
f 1066 1062 1067
f 1067 1062 1063
f 1062 1058 1063
f 1063 1058 1059
f 1559 1051 1560
f 1560 1051 1052
f 1051 1050 1052
f 1052 1050 1053
f 649 648 650
f 650 648 651
f 651 648 652
f 652 648 653
f 653 648 654
f 654 648 655
f 655 648 656
f 656 648 657
f 657 648 658
f 658 648 659
f 659 648 660
f 660 648 661
f 662 660 661
f 37 36 38
f 37 38 42
f 42 41 37
f 41 39 37
f 40 39 41
f 228 227 229
f 228 229 233
f 233 232 228
f 232 230 228
f 231 230 232
f 157 158 156
f 159 158 157
f 158 159 160
f 160 159 161
f 153 152 154
f 154 152 155
f 155 152 156
f 147 146 148
f 148 146 143
f 143 144 148
f 144 143 145
f 145 149 144
f 149 145 150
f 150 145 151
f 151 145 152
f 152 145 157
f 156 152 157
f 343 342 344
f 344 342 345
f 345 342 346
f 337 336 338
f 338 336 333
f 333 334 338
f 334 333 335
f 335 339 334
f 339 335 340
f 340 335 341
f 341 335 342
f 342 335 347
f 346 342 347
f 347 348 346
f 349 348 347
f 348 349 350
f 350 349 351
f 293 292 294
f 1277 1279 1278
f 1278 1276 1277
f 1277 1276 292
f 1280 292 1276
f 1508 1507 1509
f 1507 1510 1509
f 1290 1288 1291
f 1290 1292 1288
f 1288 1292 1287
f 1288 1287 1289
f 1268 1265 1145
f 1265 1144 1145
f 1145 1144 268
f 1144 76 268
f 1265 1264 1266
f 1266 1270 1265
f 1270 1144 1265
f 1269 1144 1270
f 1263 1262 1264
f 1264 1262 1266
f 1266 1262 1267
f 1267 1271 1266
f 89 88 77
f 77 88 76
f 76 75 77
f 77 75 78
f 78 75 84
f 84 75 85
f 85 75 87
f 87 75 86
f 86 75 83
f 79 86 83
f 81 79 83
f 80 79 81
f 82 81 83
f 83 90 82
f 90 91 82
f 91 90 93
f 93 92 91
f 1492 1491 1493
f 1494 1492 1493
f 1285 1286 1284
f 1284 1282 1285
f 1284 1281 1282
f 1282 1281 1283
f 289 288 284
f 284 288 287
f 283 284 287
f 284 283 285
f 285 283 270
f 286 285 270
f 270 271 286
f 270 269 271
f 271 269 272
f 272 269 278
f 278 269 273
f 267 266 268
f 267 268 291
f 290 267 291
f 277 267 290
f 277 276 267
f 276 279 267
f 279 280 267
f 280 281 267
f 281 282 267
f 282 269 267
f 275 269 282
f 273 269 275
f 274 273 275
f 103 102 104
f 103 104 1275
f 1275 1273 103
f 1275 1272 1273
f 1273 1272 1274
f 98 97 99
f 94 97 98
f 98 96 94
f 95 94 96
f 96 100 95
f 95 100 101
f 463 460 461
f 461 460 462
f 815 819 821
f 813 803 814
f 814 803 807
f 816 814 807
f 817 816 807
f 818 817 807
f 807 819 818
f 818 819 820
f 820 819 815
f 816 820 815
f 815 814 816
f 803 800 804
f 804 808 803
f 808 807 803
f 806 807 808
f 801 807 806
f 806 805 801
f 805 800 801
f 804 800 805
f 821 819 809
f 812 821 809
f 813 821 812
f 812 811 813
f 811 803 813
f 810 803 811
f 809 803 810
f 810 822 809
f 822 812 809
f 785 784 776
f 786 785 776
f 790 786 776
f 792 786 790
f 793 792 790
f 790 801 793
f 793 801 802
f 802 801 800
f 799 802 800
f 800 777 799
f 799 777 787
f 787 798 799
f 798 797 799
f 791 786 792
f 791 792 794
f 787 777 778
f 777 775 778
f 778 775 779
f 779 775 781
f 780 779 781
f 788 780 781
f 797 780 788
f 788 796 797
f 797 796 799
f 796 792 799
f 781 775 782
f 795 792 796
f 794 792 795
f 789 794 795
f 795 783 789
f 789 783 784
f 783 782 784
f 784 782 776
f 782 775 776
f 776 775 774
f 775 773 774
f 774 773 772
f 773 771 772
f 1562 1561 770
f 1561 769 770
f 770 769 768
f 769 766 768
f 768 766 767
f 766 765 767
f 432 436 438
f 432 431 433
f 433 437 432
f 437 436 432
f 435 436 437
f 424 436 435
f 435 434 424
f 434 433 424
f 433 431 424
f 431 420 424
f 430 420 431
f 438 436 426
f 429 438 426
f 430 438 429
f 429 428 430
f 428 420 430
f 427 420 428
f 426 420 427
f 427 439 426
f 439 429 426
f 423 422 418
f 418 424 423
f 423 424 425
f 425 424 420
f 421 425 420
f 420 417 421
f 421 417 422
f 422 417 418
f 404 394 395
f 416 394 404
f 417 394 416
f 416 419 417
f 419 418 417
f 410 418 419
f 407 418 410
f 410 409 407
f 409 403 407
f 408 403 409
f 412 409 413
f 413 409 416
f 402 401 393
f 403 402 393
f 407 403 393
f 408 409 411
f 411 409 412
f 406 411 412
f 412 400 406
f 406 400 401
f 400 399 401
f 401 399 393
f 399 392 393
f 393 392 391
f 392 390 391
f 398 392 399
f 404 415 416
f 415 414 416
f 414 413 416
f 405 413 414
f 414 397 405
f 405 397 398
f 397 396 398
f 396 392 398
f 395 392 396
f 394 392 395
f 956 955 957
f 957 955 958
f 954 951 952
f 952 951 953
f 940 939 941
f 941 939 942
f 938 935 936
f 936 935 937
f 924 923 925
f 925 923 926
f 922 919 920
f 920 919 921
f 908 907 909
f 909 907 910
f 906 903 904
f 904 903 905
f 899 900 902
f 900 899 901
f 896 895 897
f 898 897 895
f 892 891 893
f 893 891 894
f 890 887 888
f 888 887 889
f 884 883 885
f 885 883 886
f 882 879 880
f 880 879 881
f 870 869 871
f 872 871 869
f 873 871 872
f 964 963 965
f 965 966 964
f 960 959 961
f 961 962 960
f 948 947 949
f 949 950 948
f 944 943 945
f 945 946 944
f 932 931 933
f 933 934 932
f 928 927 929
f 929 930 928
f 916 915 917
f 917 918 916
f 912 911 913
f 913 914 912
f 581 580 582
f 582 583 581
f 577 576 578
f 578 579 577
f 565 564 566
f 566 567 565
f 561 560 562
f 562 563 561
f 549 548 550
f 550 551 549
f 545 544 546
f 546 547 545
f 533 532 534
f 534 535 533
f 529 528 530
f 530 531 529
f 492 491 493
f 491 492 494
f 494 492 495
f 866 865 867
f 867 865 868
f 864 861 862
f 862 861 863
f 859 857 860
f 856 857 859
f 857 856 858
f 852 851 853
f 854 853 851
f 855 853 854
f 391 390 389
f 390 388 389
f 1564 1563 387
f 1563 386 387
f 387 386 385
f 386 383 385
f 385 383 384
f 383 382 384
f 449 448 447
f 448 446 447
f 447 446 445
f 446 444 445
f 445 444 443
f 444 442 443
f 1566 1565 441
f 1565 440 441
f 441 440 436
f 440 426 436
f 832 831 830
f 831 829 830
f 830 829 828
f 829 827 828
f 828 827 826
f 827 825 826
f 1568 1567 824
f 1567 823 824
f 824 823 819
f 823 809 819
f 451 450 452
f 453 452 450
f 454 452 453
f 848 847 849
f 849 847 850
f 846 843 844
f 844 843 845
f 573 572 574
f 574 572 575
f 571 568 569
f 569 568 570
f 557 556 558
f 558 556 559
f 555 552 553
f 553 552 554
f 541 540 542
f 542 540 543
f 539 536 537
f 537 536 538
f 525 524 526
f 526 524 527
f 523 520 521
f 521 520 522
f 516 517 519
f 517 516 518
f 513 512 514
f 515 514 512
f 509 508 510
f 510 508 511
f 507 504 505
f 505 504 506
f 501 500 502
f 502 500 503
f 499 496 497
f 497 496 498
f 487 486 488
f 489 488 486
f 490 488 489
f 458 456 459
f 455 456 458
f 456 455 457
f 834 833 835
f 836 835 833
f 837 835 836
f 483 482 484
f 484 482 485
f 481 478 479
f 479 478 480
f 476 474 477
f 473 474 476
f 474 473 475
f 469 468 470
f 471 470 468
f 472 470 471
f 841 839 842
f 838 839 841
f 839 838 840
f 877 875 878
f 874 875 877
f 875 874 876
f 465 464 466
f 466 464 467
