# from WaterfrontDistrict_Block01_Generic_0019_LOD_0.pskx
v 574.6361083984375 449.99755859375 240.00022888183594
v 574.6361083984375 1149.99755859375 240.0001678466797
v 574.6361083984375 449.99755859375 275.00018310546875
v 574.6361083984375 1149.99755859375 275.0001220703125
v 574.6361083984375 1149.99755859375 240.0001678466797
v 274.6361083984375 1149.99755859375 240.00015258789062
v 574.6361083984375 1149.99755859375 275.0001220703125
v 274.6361083984375 1149.99755859375 275.0001220703125
v 274.6361083984375 1149.99755859375 240.00015258789062
v 274.6361083984375 449.99755859375 240.00030517578125
v 274.6361083984375 1149.99755859375 275.0001220703125
v 274.6361083984375 449.99755859375 275.00030517578125
v 274.6361083984375 449.99755859375 240.00030517578125
v 574.6361083984375 449.99755859375 240.00022888183594
v 274.6361083984375 449.99755859375 275.00030517578125
v 574.6361083984375 449.99755859375 275.00018310546875
v 574.6361083984375 449.99755859375 300.00018310546875
v 574.6361083984375 1149.99755859375 300.0001220703125
v 574.6361083984375 1149.99755859375 300.0001220703125
v 274.6361083984375 1149.99755859375 300.0001220703125
v 274.6361083984375 449.99755859375 275.0002746582031
v 274.6361083984375 1149.99755859375 300.0001220703125
v 274.6361083984375 449.99755859375 300.0002746582031
v 274.6361083984375 449.99755859375 275.0002746582031
v 274.6361083984375 449.99755859375 300.0002746582031
v 574.6361083984375 449.99755859375 300.00018310546875
v 274.6361083984375 449.99755859375 300.0002746582031
v 574.6361083984375 449.99755859375 300.00018310546875
v 574.6361083984375 1149.99755859375 300.0001220703125
v 274.6361083984375 1149.99755859375 300.0001220703125
v 574.6361083984375 1149.99755859375 310.0001220703125
v 574.6361083984375 449.99755859375 310.00018310546875
v 549.6361083984375 474.99755859375 300.00018310546875
v 549.6361083984375 474.99755859375 310.00018310546875
v 549.6361083984375 1124.99755859375 310.0001525878906
v 549.6361083984375 1124.99755859375 300.0001525878906
v 274.6361083984375 1149.99755859375 310.0001220703125
v 574.6361083984375 1149.99755859375 310.0001220703125
v 549.6361083984375 1124.99755859375 300.0001525878906
v 549.6361083984375 1124.99755859375 310.0001525878906
v 299.6361083984375 1124.99755859375 310.0001525878906
v 299.6361083984375 1124.99755859375 300.0001525878906
v 274.6361083984375 449.99755859375 310.00030517578125
v 274.6361083984375 1149.99755859375 310.0001220703125
v 299.6361083984375 1124.99755859375 300.0001525878906
v 299.6361083984375 1124.99755859375 310.0001525878906
v 299.6361083984375 474.99755859375 310.00030517578125
v 299.6361083984375 474.99755859375 300.0002746582031
v 574.6361083984375 449.99755859375 310.00018310546875
v 274.6361083984375 449.99755859375 310.00030517578125
v 299.6361083984375 474.99755859375 300.0002746582031
v 299.6361083984375 474.99755859375 310.00030517578125
v 549.6361083984375 474.99755859375 310.00018310546875
v 549.6361083984375 474.99755859375 300.00018310546875
v 574.6361083984375 449.99755859375 310.00018310546875
v 574.6361083984375 1149.99755859375 310.0001220703125
v 549.6361083984375 1124.99755859375 310.0001525878906
v 549.6361083984375 474.99755859375 310.00018310546875
v 274.6361083984375 1149.99755859375 310.0001220703125
v 299.6361083984375 1124.99755859375 310.0001525878906
v 274.6361083984375 449.99755859375 310.00030517578125
v 299.6361083984375 474.99755859375 310.00030517578125
v -1725.3638916015625 1749.9974365234375 239.9998016357422
v -1725.3638916015625 1249.9974365234375 239.99984741210938
v -325.3638916015625 1249.99755859375 240.00010681152344
v -325.36376953125 -750.0025634765625 240.00009155273438
v 874.6361083984375 1749.99755859375 240.00010681152344
v -1725.36376953125 -750.0025634765625 240.00022888183594
v -1725.36376953125 -1750.0025634765625 240.00030517578125
v 874.6363525390625 -1750.0025634765625 240.0004119873047
v 874.6363525390625 -550.0028076171875 0.0003059797454625368
v 1574.6361083984375 -550.0025634765625 0.00023657770361751318
v 874.6363525390625 -550.0028076171875 215.0003204345703
v 1574.6361083984375 -550.0025634765625 215.000244140625
v 1574.6361083984375 -550.0025634765625 0.00023657770361751318
v 1609.7923583984375 -494.8756103515625 0.00023329508258029819
v 1574.6361083984375 -550.0025634765625 215.000244140625
v 1609.7923583984375 -494.8756103515625 215.000244140625
v 1666.0423583984375 -390.481201171875 0.0002266273950226605
v 1666.0423583984375 -390.481201171875 215.000244140625
v 1703.5423583984375 -291.946044921875 0.00021965234191156924
v 1703.5423583984375 -291.946044921875 215.00022888183594
v 1722.2923583984375 -196.926513671875 0.00021216506138443947
v 1722.2923583984375 -196.926513671875 215.00022888183594
v 1722.2923583984375 -103.07861328125 0.00020396063337102532
v 1722.2923583984375 -103.07861328125 215.00021362304688
v 1703.5423583984375 -8.05908203125 0.0001948341669049114
v 1703.5423583984375 -8.05908203125 215.0001983642578
v 1666.0423583984375 90.4759521484375 0.00018458080012351274
v 1666.0423583984375 90.4759521484375 215.0001983642578
v 1609.7923583984375 194.8704833984375 0.00017299555474892259
v 1609.7923583984375 194.8704833984375 215.00018310546875
v 1574.6361083984375 249.9974365234375 0.00016663948190398514
v 1574.6361083984375 249.9974365234375 215.0001678466797
v 1574.6361083984375 249.9974365234375 0.00016663948190398514
v 874.6363525390625 249.997314453125 0.00013604153355117887
v 1574.6361083984375 249.9974365234375 215.0001678466797
v 874.6363525390625 249.997314453125 215.00013732910156
v 934.6378173828125 249.99560546875 240.00025939941406
v 874.6414794921875 1750.002685546875 240.00010681152344
v 874.6378173828125 249.99560546875 240.000244140625
v 934.6414794921875 1750.002685546875 240.0001220703125
v 934.6378173828125 249.99560546875 216.00025939941406
v 934.6414794921875 1750.002685546875 240.0001220703125
v 934.6378173828125 249.99560546875 240.00025939941406
v 934.6414794921875 1750.0025634765625 216.0001220703125
v 994.6378173828125 249.99560546875 216.00025939941406
v 934.6414794921875 1750.0025634765625 216.0001220703125
v 934.6378173828125 249.99560546875 216.00025939941406
v 994.6414794921875 1750.002685546875 216.0001220703125
v 994.6378173828125 249.99560546875 192.000244140625
v 994.6414794921875 1750.002685546875 216.0001220703125
v 994.6378173828125 249.99560546875 216.00025939941406
v 994.6414794921875 1750.002685546875 192.00010681152344
v 1054.6378173828125 249.99560546875 192.000244140625
v 994.6414794921875 1750.002685546875 192.00010681152344
v 994.6378173828125 249.99560546875 192.000244140625
v 1054.6414794921875 1750.002685546875 192.00010681152344
v 1054.6378173828125 249.99560546875 168.000244140625
v 1054.6414794921875 1750.002685546875 192.00010681152344
v 1054.6378173828125 249.99560546875 192.000244140625
v 1054.6414794921875 1750.002685546875 168.00010681152344
v 1114.6378173828125 249.99560546875 168.000244140625
v 1054.6414794921875 1750.002685546875 168.00010681152344
v 1054.6378173828125 249.99560546875 168.000244140625
v 1114.6414794921875 1750.002685546875 168.00010681152344
v 1114.6378173828125 249.99560546875 144.000244140625
v 1114.6414794921875 1750.002685546875 168.00010681152344
v 1114.6378173828125 249.99560546875 168.000244140625
v 1114.6414794921875 1750.002685546875 144.00010681152344
v 1174.6375732421875 249.99560546875 144.000244140625
v 1114.6414794921875 1750.002685546875 144.00010681152344
v 1114.6378173828125 249.99560546875 144.000244140625
v 1174.6414794921875 1750.002685546875 144.00010681152344
v 1174.6375732421875 249.99560546875 120.00025939941406
v 1174.6414794921875 1750.002685546875 144.00010681152344
v 1174.6375732421875 249.99560546875 144.000244140625
v 1174.6414794921875 1750.002685546875 120.00012969970703
v 1234.6375732421875 249.99560546875 120.00025939941406
v 1174.6414794921875 1750.002685546875 120.00012969970703
v 1174.6375732421875 249.99560546875 120.00025939941406
v 1234.6414794921875 1750.002685546875 120.00012969970703
v 1234.6375732421875 249.99560546875 96.00025177001953
v 1234.6414794921875 1750.002685546875 120.00012969970703
v 1234.6375732421875 249.99560546875 120.00025939941406
v 1234.6414794921875 1750.002685546875 96.0001220703125
v 1294.6378173828125 249.99560546875 96.00025177001953
v 1234.6414794921875 1750.002685546875 96.0001220703125
v 1234.6375732421875 249.99560546875 96.00025177001953
v 1294.6414794921875 1750.002685546875 96.0001220703125
v 1294.6378173828125 249.99560546875 72.00025177001953
v 1294.6414794921875 1750.002685546875 96.0001220703125
v 1294.6378173828125 249.99560546875 96.00025177001953
v 1294.6414794921875 1750.002685546875 72.0001220703125
v 1354.6378173828125 249.99560546875 72.00025939941406
v 1294.6414794921875 1750.002685546875 72.0001220703125
v 1294.6378173828125 249.99560546875 72.00025177001953
v 1354.6414794921875 1750.002685546875 72.00012969970703
v 1354.6378173828125 249.99560546875 48.0002555847168
v 1354.6414794921875 1750.002685546875 72.00012969970703
v 1354.6378173828125 249.99560546875 72.00025939941406
v 1354.6414794921875 1750.002685546875 48.000125885009766
v 1414.6375732421875 249.99560546875 48.00025939941406
v 1354.6414794921875 1750.002685546875 48.000125885009766
v 1354.6378173828125 249.99560546875 48.0002555847168
v 1414.6414794921875 1750.002685546875 48.00012969970703
v 1414.6375732421875 249.99560546875 24.000259399414062
v 1414.6414794921875 1750.002685546875 48.00012969970703
v 1414.6375732421875 249.99560546875 48.00025939941406
v 1414.6414794921875 1750.002685546875 24.0001277923584
v 1474.6375732421875 249.99560546875 24.000261306762695
v 1414.6414794921875 1750.002685546875 24.0001277923584
v 1414.6375732421875 249.99560546875 24.000259399414062
v 1474.6414794921875 1750.002685546875 24.00012969970703
v 1474.6375732421875 249.99560546875 0.00026226858608424664
v 1474.6414794921875 1750.002685546875 24.00012969970703
v 1474.6375732421875 249.99560546875 24.000261306762695
v 1474.6414794921875 1750.002685546875 0.00013113395834807307
v 934.6412353515625 -1279.9974365234375 240.00039672851562
v 874.6412353515625 -549.9974365234375 240.0003204345703
v 874.6412353515625 -1249.9974365234375 240.00038146972656
v 934.6412353515625 -549.9974365234375 240.00033569335938
v 934.6412353515625 -1279.9974365234375 216.00039672851562
v 934.6412353515625 -549.9974365234375 240.00033569335938
v 934.6412353515625 -1279.9974365234375 240.00039672851562
v 934.6412353515625 -549.9974365234375 216.00033569335938
v 994.6412353515625 -1309.9974365234375 216.00039672851562
v 934.6412353515625 -549.9974365234375 216.00033569335938
v 934.6412353515625 -1279.9974365234375 216.00039672851562
v 994.6412353515625 -549.9974365234375 216.00033569335938
v 994.6412353515625 -1309.9974365234375 192.00038146972656
v 994.6412353515625 -549.9974365234375 216.00033569335938
v 994.6412353515625 -1309.9974365234375 216.00039672851562
v 994.6412353515625 -549.9974365234375 192.0003204345703
v 1054.6417236328125 -1339.9974365234375 192.00038146972656
v 994.6412353515625 -549.9974365234375 192.0003204345703
v 994.6412353515625 -1309.9974365234375 192.00038146972656
v 1054.6414794921875 -549.9974365234375 192.0003204345703
v 1054.6417236328125 -1339.9974365234375 168.00038146972656
v 1054.6414794921875 -549.9974365234375 192.0003204345703
v 1054.6417236328125 -1339.9974365234375 192.00038146972656
v 1054.6414794921875 -549.9974365234375 168.0003204345703
v 1114.6417236328125 -1369.9971923828125 168.00038146972656
v 1054.6414794921875 -549.9974365234375 168.0003204345703
v 1054.6417236328125 -1339.9974365234375 168.00038146972656
v 1114.6412353515625 -549.9971923828125 168.0003204345703
v 1114.6417236328125 -1369.9971923828125 144.00038146972656
v 1114.6412353515625 -549.9971923828125 168.0003204345703
v 1114.6417236328125 -1369.9971923828125 168.00038146972656
v 1114.6412353515625 -549.9971923828125 144.0003204345703
v 1174.6417236328125 -1399.9971923828125 144.00038146972656
v 1114.6412353515625 -549.9971923828125 144.0003204345703
v 1114.6417236328125 -1369.9971923828125 144.00038146972656
v 1174.6414794921875 -549.9971923828125 144.0003204345703
v 1174.6417236328125 -1399.9971923828125 120.00040435791016
v 1174.6414794921875 -549.9971923828125 144.0003204345703
v 1174.6417236328125 -1399.9971923828125 144.00038146972656
v 1174.6414794921875 -549.9971923828125 120.00032806396484
v 1234.6414794921875 -1429.9971923828125 120.00040435791016
v 1174.6414794921875 -549.9971923828125 120.00032806396484
v 1174.6417236328125 -1399.9971923828125 120.00040435791016
v 1234.6412353515625 -549.9971923828125 120.00032806396484
v 1234.6414794921875 -1429.9971923828125 96.00039672851562
v 1234.6412353515625 -549.9971923828125 120.00032806396484
v 1234.6414794921875 -1429.9971923828125 120.00040435791016
v 1234.6412353515625 -549.9971923828125 96.00032043457031
v 1294.6414794921875 -1459.9971923828125 96.00040435791016
v 1234.6412353515625 -549.9971923828125 96.00032043457031
v 1234.6414794921875 -1429.9971923828125 96.00039672851562
v 1294.6412353515625 -549.9971923828125 96.00032043457031
v 1294.6414794921875 -1459.9971923828125 72.00040435791016
v 1294.6412353515625 -549.9971923828125 96.00032043457031
v 1294.6414794921875 -1459.9971923828125 96.00040435791016
v 1294.6412353515625 -549.9971923828125 72.00032043457031
v 1354.6417236328125 -1489.9971923828125 72.00041198730469
v 1294.6412353515625 -549.9971923828125 72.00032043457031
v 1294.6414794921875 -1459.9971923828125 72.00040435791016
v 1354.6414794921875 -549.9971923828125 72.00032806396484
v 1354.6417236328125 -1489.9971923828125 48.00040817260742
v 1354.6414794921875 -549.9971923828125 72.00032806396484
v 1354.6417236328125 -1489.9971923828125 72.00041198730469
v 1354.6414794921875 -549.9971923828125 48.00032424926758
v 1414.6417236328125 -1519.9969482421875 48.00041580200195
v 1354.6414794921875 -549.9971923828125 48.00032424926758
v 1354.6417236328125 -1489.9971923828125 48.00040817260742
v 1414.6414794921875 -549.9971923828125 48.000328063964844
v 1414.6417236328125 -1519.9969482421875 24.00041389465332
v 1414.6414794921875 -549.9971923828125 48.000328063964844
v 1414.6417236328125 -1519.9969482421875 48.00041580200195
v 1414.6414794921875 -549.9971923828125 24.000329971313477
v 1474.6417236328125 -1549.9971923828125 24.00041961669922
v 1414.6414794921875 -549.9971923828125 24.000329971313477
v 1414.6417236328125 -1519.9969482421875 24.00041389465332
v 1474.6414794921875 -549.9971923828125 24.00033187866211
v 1474.6417236328125 -1549.9971923828125 0.000419629126554355
v 1474.6414794921875 -549.9971923828125 24.00033187866211
v 1474.6417236328125 -1549.9971923828125 24.00041961669922
v 1474.6414794921875 -549.9971923828125 0.00033220634213648736
v 874.6363525390625 -550.0028076171875 240.0003204345703
v 1574.6361083984375 -550.0025634765625 240.000244140625
v 1574.6361083984375 -550.0025634765625 240.000244140625
v 1609.7923583984375 -494.8756103515625 240.000244140625
v 1666.0423583984375 -390.481201171875 240.000244140625
v 1703.5423583984375 -291.946044921875 240.00022888183594
v 1722.2923583984375 -196.926513671875 240.00022888183594
v 1722.2923583984375 -103.07861328125 240.00021362304688
v 1703.5423583984375 -8.05908203125 240.0001983642578
v 1666.0423583984375 90.4759521484375 240.0001983642578
v 1609.7923583984375 194.8704833984375 240.00018310546875
v 1574.6361083984375 249.9974365234375 240.0001678466797
v 1574.6361083984375 249.9974365234375 240.0001678466797
v 874.6363525390625 249.997314453125 240.00013732910156
v 874.6363525390625 -543.7427978515625 339.88031005859375
v 1570.2733154296875 -542.0455322265625 335.8192443847656
v 874.6363525390625 -542.0457763671875 335.8193054199219
v 1571.2037353515625 -543.7425537109375 339.8802490234375
v 1571.2037353515625 -543.7425537109375 331.8002624511719
v 874.6363525390625 -543.7427978515625 331.8003234863281
v 1573.3748779296875 -547.7025146484375 330.5734558105469
v 874.6363525390625 -547.7027587890625 330.5735168457031
v 1575.5462646484375 -551.6624755859375 331.8002624511719
v 874.6363525390625 -551.6627197265625 331.8003234863281
v 1576.3201904296875 -553.0738525390625 335.9334411621094
v 874.6363525390625 -553.0740966796875 335.9335021972656
v 1575.5462646484375 -551.6624755859375 339.8802490234375
v 874.6363525390625 -551.6627197265625 339.88031005859375
v 1573.3311767578125 -547.6224365234375 341.2932434082031
v 874.6363525390625 -547.6226806640625 341.2933044433594
v 1571.2037353515625 -543.7425537109375 339.8802490234375
v 1602.9263916015625 -490.8436279296875 335.8192443847656
v 1570.2733154296875 -542.0455322265625 335.8192443847656
v 1604.3907470703125 -491.7037353515625 339.8802490234375
v 1604.3907470703125 -491.7037353515625 331.8002624511719
v 1571.2037353515625 -543.7425537109375 331.8002624511719
v 1607.8079833984375 -493.7100830078125 330.5734558105469
v 1611.2247314453125 -495.7166748046875 331.8002624511719
v 1575.5462646484375 -551.6624755859375 331.8002624511719
v 1612.4427490234375 -496.4320068359375 335.9334411621094
v 1576.3201904296875 -553.0738525390625 335.9334411621094
v 1611.2247314453125 -495.7166748046875 339.8802490234375
v 1575.5462646484375 -551.6624755859375 339.8802490234375
v 1607.7386474609375 -493.6695556640625 341.2932434082031
v 1573.3311767578125 -547.6224365234375 341.2932434082031
v 1658.7906494140625 -387.1646728515625 335.8192443847656
v 1660.3370361328125 -387.8720703125 339.8802490234375
v 1660.3370361328125 -387.8720703125 331.8002624511719
v 1663.9461669921875 -389.5224609375 330.5734558105469
v 1667.5552978515625 -391.1729736328125 331.8002624511719
v 1668.8416748046875 -391.7613525390625 335.9334411621094
v 1667.5552978515625 -391.1729736328125 339.8802490234375
v 1663.8734130859375 -389.4891357421875 341.2932434082031
v 1695.8660888671875 -289.7451171875 335.8192443847656
v 1697.5032958984375 -290.2144775390625 339.8802490234375
v 1697.5032958984375 -290.2144775390625 331.8002624511719
v 1701.3236083984375 -291.3099365234375 330.5734558105469
v 1705.1436767578125 -292.405029296875 331.8002624511719
v 1706.5057373046875 -292.7955322265625 335.9334411621094
v 1705.1436767578125 -292.405029296875 339.8802490234375
v 1701.2467041015625 -291.2877197265625 341.2932434082031
v 1714.3353271484375 -196.1488037109375 335.8192138671875
v 1716.0323486328125 -196.3148193359375 339.8802185058594
v 1716.0323486328125 -196.3148193359375 331.80023193359375
v 1719.9925537109375 -196.7015380859375 330.57342529296875
v 1723.9525146484375 -197.088623046875 331.80023193359375
v 1725.3638916015625 -197.2264404296875 335.93341064453125
v 1723.9525146484375 -197.088623046875 339.8802185058594
v 1719.9124755859375 -196.6937255859375 341.293212890625
v 1714.3353271484375 -103.856201171875 335.8192138671875
v 1716.0323486328125 -103.6904296875 339.8802185058594
v 1716.0323486328125 -103.6904296875 331.80023193359375
v 1719.9925537109375 -103.303466796875 330.57342529296875
v 1723.9525146484375 -102.91650390625 331.80023193359375
v 1725.3638916015625 -102.778564453125 335.93341064453125
v 1723.9525146484375 -102.91650390625 339.8802185058594
v 1719.9124755859375 -103.311279296875 341.293212890625
v 1695.8660888671875 -10.2601318359375 335.8192138671875
v 1697.5032958984375 -9.790771484375 339.8802185058594
v 1697.5032958984375 -9.790771484375 331.80023193359375
v 1701.3236083984375 -8.6953125 330.57342529296875
v 1705.1436767578125 -7.5999755859375 331.80023193359375
v 1706.5057373046875 -7.2095947265625 335.93341064453125
v 1705.1436767578125 -7.5999755859375 339.8802185058594
v 1701.2467041015625 -8.717529296875 341.293212890625
v 1658.7906494140625 87.1595458984375 335.8191833496094
v 1660.3370361328125 87.8668212890625 339.88018798828125
v 1660.3370361328125 87.8668212890625 331.8002014160156
v 1663.9461669921875 89.5174560546875 330.5733947753906
v 1667.5552978515625 91.1678466796875 331.8002014160156
v 1668.8416748046875 91.756103515625 335.9333801269531
v 1667.5552978515625 91.1678466796875 339.88018798828125
v 1663.8734130859375 89.4840087890625 341.2931823730469
v 1602.9263916015625 190.838623046875 335.8191833496094
v 1604.3907470703125 191.698486328125 339.88018798828125
v 1604.3907470703125 191.698486328125 331.8002014160156
v 1607.8079833984375 193.705078125 330.5733947753906
v 1611.2247314453125 195.711669921875 331.8002014160156
v 1612.4427490234375 196.4267578125 335.9333801269531
v 1611.2247314453125 195.711669921875 339.88018798828125
v 1607.7386474609375 193.66455078125 341.2931823730469
v 1570.2733154296875 242.0404052734375 335.8191833496094
v 1571.2037353515625 243.7374267578125 339.88018798828125
v 1571.2037353515625 243.7374267578125 331.8002014160156
v 1573.3748779296875 247.697509765625 330.5733947753906
v 1575.5462646484375 251.657470703125 331.8002014160156
v 1576.3201904296875 253.0689697265625 335.9333801269531
v 1575.5462646484375 251.657470703125 339.88018798828125
v 1573.3311767578125 247.6175537109375 341.2931823730469
v 1571.2037353515625 243.7374267578125 339.88018798828125
v 874.6363525390625 242.040283203125 335.81915283203125
v 1570.2733154296875 242.0404052734375 335.8191833496094
v 874.6363525390625 243.7373046875 339.8801574707031
v 874.6363525390625 243.7373046875 331.8001708984375
v 1571.2037353515625 243.7374267578125 331.8002014160156
v 874.6363525390625 247.697509765625 330.5733642578125
v 874.6363525390625 251.6573486328125 331.8001708984375
v 1575.5462646484375 251.657470703125 331.8002014160156
v 874.6363525390625 253.06884765625 335.933349609375
v 1576.3201904296875 253.0689697265625 335.9333801269531
v 874.6363525390625 251.6573486328125 339.8801574707031
v 1575.5462646484375 251.657470703125 339.88018798828125
v 874.6363525390625 247.617431640625 341.29315185546875
v 1573.3311767578125 247.6175537109375 341.2931823730469
v 874.6363525390625 -542.0457763671875 335.8193054199219
v 874.6363525390625 -553.0740966796875 335.9335021972656
v 874.6363525390625 -543.7427978515625 339.88031005859375
v 874.6363525390625 -543.7427978515625 331.8003234863281
v 874.6363525390625 -551.6627197265625 331.8003234863281
v 874.6363525390625 -547.7027587890625 330.5735168457031
v 874.6363525390625 -551.6627197265625 339.88031005859375
v 874.6363525390625 -547.6226806640625 341.2933044433594
v 874.6363525390625 243.7373046875 339.8801574707031
v 874.6363525390625 253.06884765625 335.933349609375
v 874.6363525390625 242.040283203125 335.81915283203125
v 874.6363525390625 251.6573486328125 331.8001708984375
v 874.6363525390625 243.7373046875 331.8001708984375
v 874.6363525390625 247.697509765625 330.5733642578125
v 874.6363525390625 251.6573486328125 339.8801574707031
v 874.6363525390625 247.617431640625 341.29315185546875
v 874.6363525390625 -547.6026611328125 329.8003234863281
v 1573.2655029296875 -547.5025634765625 250.000244140625
v 874.6363525390625 -547.5028076171875 250.00030517578125
v 1573.3199462890625 -547.6024169921875 329.8002624511719
v 874.6363525390625 -547.5028076171875 250.00030517578125
v 1573.3199462890625 -547.6024169921875 329.8002624511719
v 874.6363525390625 -547.6026611328125 329.8003234863281
v 1573.2655029296875 -547.5025634765625 250.000244140625
v 1573.3199462890625 -547.6024169921875 329.8002624511719
v 1607.6351318359375 -493.6087646484375 250.000244140625
v 1573.2655029296875 -547.5025634765625 250.000244140625
v 1607.7213134765625 -493.6595458984375 329.8002624511719
v 1573.2655029296875 -547.5025634765625 250.000244140625
v 1607.7213134765625 -493.6595458984375 329.8002624511719
v 1573.3199462890625 -547.6024169921875 329.8002624511719
v 1607.6351318359375 -493.6087646484375 250.000244140625
v 1663.7637939453125 -389.439208984375 250.000244140625
v 1663.8551025390625 -389.48095703125 329.8002624511719
v 1663.8551025390625 -389.48095703125 329.8002624511719
v 1663.7637939453125 -389.439208984375 250.000244140625
v 1701.1307373046875 -291.254638671875 250.00022888183594
v 1701.2271728515625 -291.281982421875 329.8002624511719
v 1701.2271728515625 -291.281982421875 329.8002624511719
v 1701.1307373046875 -291.254638671875 250.00022888183594
v 1719.7921142578125 -196.68212890625 250.00022888183594
v 1719.8922119140625 -196.69189453125 329.80023193359375
v 1719.8922119140625 -196.69189453125 329.80023193359375
v 1719.7921142578125 -196.68212890625 250.00022888183594
v 1719.7921142578125 -103.322998046875 250.00021362304688
v 1719.8922119140625 -103.313232421875 329.80023193359375
v 1719.8922119140625 -103.313232421875 329.80023193359375
v 1719.7921142578125 -103.322998046875 250.00021362304688
v 1701.1307373046875 -8.750732421875 250.00021362304688
v 1701.2271728515625 -8.7230224609375 329.80023193359375
v 1701.2271728515625 -8.7230224609375 329.80023193359375
v 1701.1307373046875 -8.750732421875 250.00021362304688
v 1663.7637939453125 89.4339599609375 250.0001983642578
v 1663.8551025390625 89.4757080078125 329.8002014160156
v 1663.8551025390625 89.4757080078125 329.8002014160156
v 1663.7637939453125 89.4339599609375 250.0001983642578
v 1607.6351318359375 193.603759765625 250.00018310546875
v 1607.7213134765625 193.654541015625 329.8002014160156
v 1607.7213134765625 193.654541015625 329.8002014160156
v 1607.6351318359375 193.603759765625 250.00018310546875
v 1573.2655029296875 247.4974365234375 250.0001678466797
v 1573.3199462890625 247.597412109375 329.8002014160156
v 1573.3199462890625 247.597412109375 329.8002014160156
v 1573.2655029296875 247.4974365234375 250.0001678466797
v 1573.3199462890625 247.597412109375 329.8002014160156
v 874.6363525390625 247.4974365234375 250.00013732910156
v 1573.2655029296875 247.4974365234375 250.0001678466797
v 874.6363525390625 247.597412109375 329.8001708984375
v 1573.2655029296875 247.4974365234375 250.0001678466797
v 874.6363525390625 247.597412109375 329.8001708984375
v 1573.3199462890625 247.597412109375 329.8002014160156
v 874.6363525390625 247.4974365234375 250.00013732910156
v 874.6363525390625 -530.0025634765625 250.0002899169922
v 1563.6700439453125 -530.0023193359375 240.00022888183594
v 874.6363525390625 -530.0025634765625 240.00030517578125
v 1563.6700439453125 -530.0023193359375 250.00022888183594
v 874.6363525390625 -530.0025634765625 240.00030517578125
v 1574.6361083984375 -550.0025634765625 240.000244140625
v 874.6363525390625 -550.0028076171875 240.0003204345703
v 1563.6700439453125 -530.0023193359375 240.00022888183594
v 1574.6361083984375 -550.0025634765625 250.000244140625
v 874.6363525390625 -550.0028076171875 250.00030517578125
v 874.6363525390625 -550.0028076171875 250.00030517578125
v 1563.6700439453125 -530.0023193359375 250.00022888183594
v 874.6363525390625 -530.0025634765625 250.0002899169922
v 1574.6361083984375 -550.0025634765625 250.000244140625
v 1563.6700439453125 -530.0023193359375 250.00022888183594
v 1592.5343017578125 -484.7413330078125 240.000244140625
v 1563.6700439453125 -530.0023193359375 240.00022888183594
v 1592.5343017578125 -484.7413330078125 250.000244140625
v 1609.7923583984375 -494.8756103515625 240.000244140625
v 1592.5343017578125 -484.7413330078125 240.000244140625
v 1609.7923583984375 -494.8756103515625 250.000244140625
v 1574.6361083984375 -550.0025634765625 250.000244140625
v 1592.5343017578125 -484.7413330078125 250.000244140625
v 1609.7923583984375 -494.8756103515625 250.000244140625
v 1647.8153076171875 -382.145263671875 240.000244140625
v 1647.8153076171875 -382.145263671875 250.000244140625
v 1666.0423583984375 -390.481201171875 240.000244140625
v 1647.8153076171875 -382.145263671875 240.000244140625
v 1666.0423583984375 -390.481201171875 250.000244140625
v 1647.8153076171875 -382.145263671875 250.000244140625
v 1666.0423583984375 -390.481201171875 250.000244140625
v 1684.2484130859375 -286.4139404296875 240.00022888183594
v 1684.2484130859375 -286.4139404296875 250.00022888183594
v 1703.5423583984375 -291.946044921875 240.00022888183594
v 1684.2484130859375 -286.4139404296875 240.00022888183594
v 1703.5423583984375 -291.946044921875 250.00022888183594
v 1684.2484130859375 -286.4139404296875 250.00022888183594
v 1703.5423583984375 -291.946044921875 250.00022888183594
v 1702.2923583984375 -194.9720458984375 240.00022888183594
v 1702.2923583984375 -194.9720458984375 250.00022888183594
v 1722.2923583984375 -196.926513671875 240.00022888183594
v 1702.2923583984375 -194.9720458984375 240.00022888183594
v 1722.2923583984375 -196.926513671875 250.00022888183594
v 1702.2923583984375 -194.9720458984375 250.00022888183594
v 1722.2923583984375 -196.926513671875 250.00022888183594
v 1702.2923583984375 -105.0330810546875 240.00021362304688
v 1702.2923583984375 -105.0330810546875 250.00021362304688
v 1722.2923583984375 -103.07861328125 240.00021362304688
v 1702.2923583984375 -105.0330810546875 240.00021362304688
v 1722.2923583984375 -103.07861328125 250.00021362304688
v 1702.2923583984375 -105.0330810546875 250.00021362304688
v 1722.2923583984375 -103.07861328125 250.00021362304688
v 1684.2484130859375 -13.59130859375 240.00021362304688
v 1684.2484130859375 -13.59130859375 250.00021362304688
v 1703.5423583984375 -8.05908203125 240.0001983642578
v 1684.2484130859375 -13.59130859375 240.00021362304688
v 1703.5423583984375 -8.05908203125 250.0001983642578
v 1684.2484130859375 -13.59130859375 250.00021362304688
v 1703.5423583984375 -8.05908203125 250.0001983642578
v 1647.8153076171875 82.14013671875 240.0001983642578
v 1647.8153076171875 82.14013671875 250.0001983642578
v 1666.0423583984375 90.4759521484375 240.0001983642578
v 1647.8153076171875 82.14013671875 240.0001983642578
v 1666.0423583984375 90.4759521484375 250.0001983642578
v 1647.8153076171875 82.14013671875 250.0001983642578
v 1666.0423583984375 90.4759521484375 250.0001983642578
v 1592.5343017578125 184.7364501953125 240.00018310546875
v 1592.5343017578125 184.7364501953125 250.00018310546875
v 1609.7923583984375 194.8704833984375 240.00018310546875
v 1592.5343017578125 184.7364501953125 240.00018310546875
v 1609.7923583984375 194.8704833984375 250.00018310546875
v 1592.5343017578125 184.7364501953125 250.00018310546875
v 1609.7923583984375 194.8704833984375 250.00018310546875
v 1563.6700439453125 229.9974365234375 240.0001678466797
v 1563.6700439453125 229.9974365234375 250.0001678466797
v 1574.6361083984375 249.9974365234375 240.0001678466797
v 1563.6700439453125 229.9974365234375 240.0001678466797
v 1574.6361083984375 249.9974365234375 250.0001678466797
v 1563.6700439453125 229.9974365234375 250.0001678466797
v 1574.6361083984375 249.9974365234375 250.0001678466797
v 1563.6700439453125 229.9974365234375 250.0001678466797
v 874.6363525390625 229.9974365234375 240.00013732910156
v 1563.6700439453125 229.9974365234375 240.0001678466797
v 874.6363525390625 229.9974365234375 250.00013732910156
v 874.6363525390625 249.997314453125 240.00013732910156
v 874.6363525390625 229.9974365234375 240.00013732910156
v 874.6363525390625 249.997314453125 250.00013732910156
v 1574.6361083984375 249.9974365234375 250.0001678466797
v 874.6363525390625 229.9974365234375 250.00013732910156
v 874.6363525390625 249.997314453125 250.00013732910156
v 874.6363525390625 -530.0025634765625 240.00030517578125
v 874.6363525390625 -550.0028076171875 240.0003204345703
v 874.6363525390625 -530.0025634765625 250.0002899169922
v 874.6363525390625 -550.0028076171875 250.00030517578125
v 874.6363525390625 229.9974365234375 250.00013732910156
v 874.6363525390625 249.997314453125 240.00013732910156
v 874.6363525390625 229.9974365234375 240.00013732910156
v 874.6363525390625 249.997314453125 250.00013732910156
v 874.6363525390625 -550.0028076171875 240.0003204345703
v 1574.6361083984375 -550.0025634765625 240.000244140625
v 1574.6361083984375 249.9974365234375 240.0001678466797
v 1609.7923583984375 -494.8756103515625 240.000244140625
v 1609.7923583984375 194.8704833984375 240.00018310546875
v 1666.0423583984375 -390.481201171875 240.000244140625
v 1666.0423583984375 90.4759521484375 240.0001983642578
v 1703.5423583984375 -291.946044921875 240.00022888183594
v 1703.5423583984375 -8.05908203125 240.0001983642578
v 1722.2923583984375 -196.926513671875 240.00022888183594
v 1722.2923583984375 -103.07861328125 240.00021362304688
v 874.6363525390625 249.997314453125 240.00013732910156
v 879.6412353515625 -550.0028076171875 250.00030517578125
v 879.6412353515625 -544.9979248046875 250.00030517578125
v 879.6412353515625 -550.0028076171875 335.00030517578125
v 879.6412353515625 -544.9979248046875 335.00030517578125
v 879.6412353515625 -544.9979248046875 250.00030517578125
v 874.6363525390625 -544.9979248046875 250.00030517578125
v 879.6412353515625 -544.9979248046875 335.00030517578125
v 874.6363525390625 -544.9979248046875 335.00030517578125
v 874.6363525390625 -544.9979248046875 250.00030517578125
v 874.6363525390625 -544.9979248046875 335.00030517578125
v 874.6363525390625 -550.0028076171875 335.00030517578125
v 879.6412353515625 -550.0028076171875 250.00030517578125
v 874.6363525390625 -550.0028076171875 335.00030517578125
v 879.6412353515625 -550.0028076171875 335.00030517578125
v 874.6363525390625 -550.0028076171875 335.00030517578125
v 879.6412353515625 -550.0028076171875 335.00030517578125
v 879.6412353515625 -544.9979248046875 335.00030517578125
v 874.6363525390625 -544.9979248046875 335.00030517578125
v 1574.6361083984375 -550.0025634765625 250.00033569335938
v 1574.6361083984375 -544.9976806640625 250.00033569335938
v 1574.6361083984375 -550.0025634765625 335.0003356933594
v 1574.6361083984375 -544.9976806640625 335.0003356933594
v 1574.6361083984375 -544.9976806640625 250.00033569335938
v 1569.6312255859375 -544.9976806640625 250.00033569335938
v 1574.6361083984375 -544.9976806640625 335.0003356933594
v 1569.6312255859375 -544.9976806640625 335.0003356933594
v 1569.6312255859375 -544.9976806640625 250.00033569335938
v 1569.6312255859375 -550.0025634765625 250.00033569335938
v 1569.6312255859375 -544.9976806640625 335.0003356933594
v 1569.6312255859375 -550.0025634765625 335.0003356933594
v 1569.6312255859375 -550.0025634765625 250.00033569335938
v 1574.6361083984375 -550.0025634765625 250.00033569335938
v 1569.6312255859375 -550.0025634765625 335.0003356933594
v 1574.6361083984375 -550.0025634765625 335.0003356933594
v 1569.6312255859375 -550.0025634765625 335.0003356933594
v 1574.6361083984375 -550.0025634765625 335.0003356933594
v 1574.6361083984375 -544.9976806640625 335.0003356933594
v 1569.6312255859375 -544.9976806640625 335.0003356933594
v 879.6412353515625 244.992431640625 250.00022888183594
v 879.6412353515625 249.997314453125 250.00022888183594
v 879.6412353515625 244.992431640625 335.000244140625
v 879.6412353515625 249.997314453125 335.000244140625
v 879.6412353515625 249.997314453125 250.00022888183594
v 874.6363525390625 249.997314453125 250.00022888183594
v 879.6412353515625 249.997314453125 335.000244140625
v 874.6363525390625 249.997314453125 335.000244140625
v 874.6363525390625 249.997314453125 250.00022888183594
v 874.6363525390625 244.992431640625 250.00022888183594
v 874.6363525390625 249.997314453125 335.000244140625
v 874.6363525390625 244.992431640625 335.000244140625
v 874.6363525390625 244.992431640625 250.00022888183594
v 879.6412353515625 244.992431640625 250.00022888183594
v 874.6363525390625 244.992431640625 335.000244140625
v 879.6412353515625 244.992431640625 335.000244140625
v 874.6363525390625 244.992431640625 335.000244140625
v 879.6412353515625 244.992431640625 335.000244140625
v 879.6412353515625 249.997314453125 335.000244140625
v 874.6363525390625 249.997314453125 335.000244140625
v 1574.6361083984375 244.9925537109375 250.00025939941406
v 1574.6361083984375 249.9974365234375 250.00025939941406
v 1574.6361083984375 244.9925537109375 335.0002746582031
v 1574.6361083984375 249.9974365234375 335.0002746582031
v 1574.6361083984375 249.9974365234375 250.00025939941406
v 1569.6312255859375 249.9974365234375 250.00025939941406
v 1574.6361083984375 249.9974365234375 335.0002746582031
v 1569.6312255859375 249.9974365234375 335.0002746582031
v 1569.6312255859375 249.9974365234375 250.00025939941406
v 1569.6312255859375 244.9925537109375 250.00025939941406
v 1569.6312255859375 249.9974365234375 335.0002746582031
v 1569.6312255859375 244.9925537109375 335.0002746582031
v 1569.6312255859375 244.9925537109375 250.00025939941406
v 1574.6361083984375 244.9925537109375 250.00025939941406
v 1569.6312255859375 244.9925537109375 335.0002746582031
v 1574.6361083984375 244.9925537109375 335.0002746582031
v 1569.6312255859375 244.9925537109375 335.0002746582031
v 1574.6361083984375 244.9925537109375 335.0002746582031
v 1574.6361083984375 249.9974365234375 335.0002746582031
v 1569.6312255859375 249.9974365234375 335.0002746582031
v 1721.2791748046875 -147.829833984375 250.00030517578125
v 1716.2742919921875 -147.829833984375 250.00030517578125
v 1721.2791748046875 -147.829833984375 335.00030517578125
v 1716.2742919921875 -147.829833984375 335.00030517578125
v 1716.2742919921875 -147.829833984375 250.00030517578125
v 1716.2742919921875 -152.834716796875 250.00030517578125
v 1716.2742919921875 -147.829833984375 335.00030517578125
v 1716.2742919921875 -152.834716796875 335.00030517578125
v 1716.2742919921875 -152.834716796875 250.00030517578125
v 1721.2791748046875 -152.834716796875 250.00030517578125
v 1716.2742919921875 -152.834716796875 335.00030517578125
v 1721.2791748046875 -152.834716796875 335.00030517578125
v 1721.2791748046875 -152.834716796875 250.00030517578125
v 1721.2791748046875 -147.829833984375 250.00030517578125
v 1721.2791748046875 -152.834716796875 335.00030517578125
v 1721.2791748046875 -147.829833984375 335.00030517578125
v 1716.2742919921875 -147.829833984375 335.00030517578125
v 1716.2742919921875 -152.834716796875 335.00030517578125
v 1721.2791748046875 -147.829833984375 335.00030517578125
v 1721.2791748046875 -152.834716796875 335.00030517578125
v 74.6361083984375 249.99755859375 239.9904022216797
v 474.6361083984375 249.99755859375 239.99041748046875
v 74.6361083984375 249.99755859375 344.99041748046875
v 474.6361083984375 249.99755859375 344.99041748046875
v 474.6361083984375 249.99755859375 239.99041748046875
v 474.6361083984375 449.99755859375 239.9904022216797
v 474.6361083984375 249.99755859375 344.99041748046875
v 474.6361083984375 449.99755859375 344.9903869628906
v 474.6361083984375 449.99755859375 239.9904022216797
v 274.6361083984375 449.99755859375 239.9904022216797
v 474.6361083984375 449.99755859375 344.9903869628906
v 274.6361083984375 449.99755859375 344.9903869628906
v 274.6361083984375 449.99755859375 239.9904022216797
v 274.6361083984375 749.9974975585938 239.99037170410156
v 274.6361083984375 449.99755859375 344.9903869628906
v 274.6361083984375 749.9974975585938 344.9903869628906
v 274.6361083984375 749.9974975585938 239.99037170410156
v 74.6361083984375 749.9974975585938 239.9903564453125
v 274.6361083984375 749.9974975585938 344.9903869628906
v 74.6361083984375 749.9974975585938 344.9903869628906
v 74.6361083984375 749.9974975585938 239.9903564453125
v 74.6361083984375 249.99755859375 239.9904022216797
v 74.6361083984375 749.9974975585938 344.9903869628906
v 74.6361083984375 249.99755859375 344.99041748046875
v 74.6361083984375 249.99755859375 369.99041748046875
v 474.6361083984375 249.99755859375 369.99041748046875
v 474.6361083984375 249.99755859375 369.99041748046875
v 474.6361083984375 449.99755859375 369.9903869628906
v 474.6361083984375 449.99755859375 369.9903869628906
v 274.6361083984375 449.99755859375 369.9903869628906
v 274.6361083984375 449.99755859375 369.9903869628906
v 274.6361083984375 749.99755859375 369.9903869628906
v 274.6361083984375 749.99755859375 369.9903869628906
v 74.6361083984375 749.99755859375 369.9903869628906
v 74.6361083984375 749.99755859375 369.9903869628906
v 74.6361083984375 249.99755859375 369.99041748046875
v 474.6361083984375 249.99755859375 369.99041748046875
v 474.6361083984375 449.99755859375 369.9903869628906
v 274.6361083984375 449.99755859375 369.9903869628906
v 274.6361083984375 749.99755859375 369.9903869628906
v 74.6361083984375 249.99755859375 369.99041748046875
v 74.6361083984375 749.99755859375 369.9903869628906
v 474.6361083984375 249.99755859375 379.99041748046875
v 74.6361083984375 249.99755859375 379.99041748046875
v 99.6361083984375 274.99755859375 369.99041748046875
v 99.6361083984375 274.99755859375 379.99041748046875
v 449.6361083984375 274.99755859375 379.99041748046875
v 449.6361083984375 274.99755859375 369.99041748046875
v 474.6361083984375 449.99755859375 379.9903869628906
v 474.6361083984375 249.99755859375 379.99041748046875
v 449.6361083984375 274.99755859375 369.99041748046875
v 449.6361083984375 274.99755859375 379.99041748046875
v 449.6361083984375 424.99755859375 379.99041748046875
v 449.6361083984375 424.99755859375 369.99041748046875
v 274.6361083984375 449.99755859375 379.9903869628906
v 474.6361083984375 449.99755859375 379.9903869628906
v 449.6361083984375 424.99755859375 369.99041748046875
v 449.6361083984375 424.99755859375 379.99041748046875
v 249.6361083984375 424.99755859375 379.99041748046875
v 249.6361083984375 424.99755859375 369.99041748046875
v 274.6361083984375 749.99755859375 379.9903869628906
v 274.6361083984375 449.99755859375 379.9903869628906
v 249.6361083984375 424.99755859375 369.99041748046875
v 249.6361083984375 424.99755859375 379.99041748046875
v 249.6361083984375 724.99755859375 379.9903869628906
v 249.6361083984375 724.99755859375 369.9903869628906
v 74.6361083984375 749.99755859375 379.9903869628906
v 274.6361083984375 749.99755859375 379.9903869628906
v 249.6361083984375 724.99755859375 369.9903869628906
v 249.6361083984375 724.99755859375 379.9903869628906
v 99.6361083984375 724.99755859375 379.9903869628906
v 99.6361083984375 724.99755859375 369.9903869628906
v 74.6361083984375 249.99755859375 379.99041748046875
v 74.6361083984375 749.99755859375 379.9903869628906
v 99.6361083984375 724.99755859375 369.9903869628906
v 99.6361083984375 724.99755859375 379.9903869628906
v 99.6361083984375 274.99755859375 379.99041748046875
v 99.6361083984375 274.99755859375 369.99041748046875
v 74.6361083984375 249.99755859375 379.99041748046875
v 474.6361083984375 249.99755859375 379.99041748046875
v 449.6361083984375 274.99755859375 379.99041748046875
v 99.6361083984375 274.99755859375 379.99041748046875
v 474.6361083984375 449.99755859375 379.9903869628906
v 449.6361083984375 424.99755859375 379.99041748046875
v 274.6361083984375 449.99755859375 379.9903869628906
v 249.6361083984375 424.99755859375 379.99041748046875
v 274.6361083984375 749.99755859375 379.9903869628906
v 249.6361083984375 724.99755859375 379.9903869628906
v 74.6361083984375 749.99755859375 379.9903869628906
v 99.6361083984375 724.99755859375 379.9903869628906
f 6 5 7
f 8 6 7
f 2 1 3
f 4 2 3
f 1050 1049 1051
f 1052 1050 1051
f 1046 1045 1047
f 1048 1046 1047
f 1042 1041 1043
f 1044 1042 1043
f 1038 1037 1039
f 1040 1038 1039
f 1034 1033 1035
f 1036 1034 1035
f 1030 1029 1031
f 1032 1030 1031
f 110 109 111
f 112 110 111
f 86 85 87
f 88 86 87
f 14 13 15
f 16 14 15
f 10 9 11
f 12 10 11
f 108 107 106
f 107 105 106
f 106 105 104
f 105 103 104
f 104 103 102
f 103 101 102
f 102 101 100
f 101 99 100
f 100 99 98
f 99 97 98
f 98 97 96
f 97 95 96
f 96 95 94
f 95 93 94
f 94 93 92
f 93 90 92
f 92 90 91
f 90 89 91
f 30 29 31
f 32 30 31
f 26 25 27
f 28 26 27
f 22 21 23
f 24 22 23
f 18 17 19
f 20 18 19
f 1074 1073 1075
f 1076 1074 1075
f 1070 1069 1071
f 1072 1070 1071
f 1066 1065 1067
f 1068 1066 1067
f 1062 1061 1063
f 1064 1062 1063
f 1058 1057 1059
f 1060 1058 1059
f 1054 1053 1055
f 1056 1054 1055
f 298 297 299
f 300 298 299
f 274 273 275
f 276 274 275
f 926 924 927
f 924 925 927
f 924 922 925
f 922 923 925
f 922 920 923
f 920 921 923
f 920 918 921
f 918 919 921
f 918 917 919
f 917 928 919
f 296 295 294
f 295 293 294
f 294 293 292
f 293 291 292
f 292 291 290
f 291 289 290
f 290 289 288
f 289 287 288
f 288 287 286
f 287 285 286
f 286 285 284
f 285 283 284
f 284 283 282
f 283 281 282
f 282 281 280
f 281 278 280
f 280 278 279
f 278 277 279
f 78 77 79
f 79 77 81
f 80 79 81
f 81 84 80
f 80 84 83
f 83 82 80
f 272 269 270
f 270 269 271
f 268 265 266
f 266 265 267
f 264 261 262
f 262 261 263
f 260 257 258
f 258 257 259
f 256 253 254
f 254 253 255
f 252 249 250
f 250 249 251
f 248 245 246
f 246 245 247
f 244 241 242
f 242 241 243
f 240 237 238
f 238 237 239
f 236 233 234
f 234 233 235
f 232 229 230
f 230 229 231
f 228 225 226
f 226 225 227
f 224 221 222
f 222 221 223
f 220 217 218
f 218 217 219
f 216 213 214
f 214 213 215
f 212 209 210
f 210 209 211
f 208 205 206
f 206 205 207
f 204 201 202
f 202 201 203
f 200 197 198
f 198 197 199
f 196 193 194
f 194 193 195
f 192 189 190
f 190 189 191
f 188 185 186
f 186 185 187
f 184 181 182
f 182 181 183
f 180 177 178
f 178 177 179
f 176 173 174
f 174 173 175
f 172 169 170
f 170 169 171
f 168 165 166
f 166 165 167
f 164 161 162
f 162 161 163
f 160 157 158
f 158 157 159
f 156 153 154
f 154 153 155
f 152 149 150
f 150 149 151
f 148 145 146
f 146 145 147
f 144 141 142
f 142 141 143
f 140 137 138
f 138 137 139
f 136 133 134
f 134 133 135
f 132 129 130
f 130 129 131
f 128 125 126
f 126 125 127
f 124 121 122
f 122 121 123
f 120 117 118
f 118 117 119
f 116 113 114
f 114 113 115
f 34 33 35
f 33 36 35
f 1078 1077 1079
f 1079 1077 1081
f 1080 1079 1081
f 1081 1082 1080
f 50 49 51
f 51 49 52
f 910 909 911
f 912 910 911
f 906 908 905
f 906 905 907
f 902 904 901
f 902 901 903
f 898 900 897
f 898 897 899
f 894 896 893
f 894 893 895
f 890 892 889
f 890 889 891
f 884 886 883
f 884 883 885
f 880 882 879
f 880 879 881
f 876 878 875
f 876 875 877
f 870 872 869
f 870 869 871
f 866 868 865
f 866 865 867
f 862 864 861
f 862 861 863
f 856 858 855
f 856 855 857
f 852 854 851
f 852 851 853
f 848 850 847
f 848 847 849
f 842 844 841
f 842 841 843
f 838 840 837
f 838 837 839
f 834 836 833
f 834 833 835
f 828 830 827
f 828 827 829
f 824 826 823
f 824 823 825
f 820 822 819
f 820 819 821
f 814 816 813
f 814 813 815
f 810 812 809
f 810 809 811
f 806 808 805
f 806 805 807
f 800 802 799
f 800 799 801
f 796 798 795
f 796 795 797
f 792 794 791
f 792 791 793
f 786 788 785
f 786 785 787
f 782 784 781
f 782 781 783
f 778 780 777
f 778 777 779
f 770 772 769
f 770 769 771
f 766 768 765
f 766 765 767
f 762 764 761
f 762 761 763
f 758 760 757
f 758 757 759
f 754 756 753
f 754 753 755
f 750 752 749
f 750 749 751
f 69 75 72
f 71 69 72
f 70 69 71
f 74 70 71
f 73 70 74
f 76 73 74
f 75 73 76
f 72 75 76
f 46 45 47
f 47 45 48
f 42 41 43
f 43 41 44
f 38 37 39
f 39 37 40
f 1128 1127 1129
f 1129 1127 1130
f 1124 1123 1125
f 1125 1123 1126
f 1120 1119 1121
f 1121 1119 1122
f 1116 1115 1117
f 1117 1115 1118
f 1112 1111 1113
f 1113 1111 1114
f 1108 1107 1109
f 1109 1107 1110
f 1104 1103 1105
f 1105 1103 1106
f 1100 1099 1101
f 1101 1099 1102
f 1096 1095 1097
f 1097 1095 1098
f 1092 1091 1093
f 1093 1091 1094
f 1088 1087 1089
f 1089 1087 1090
f 1084 1083 1085
f 1085 1083 1086
f 916 913 914
f 914 913 915
f 66 65 67
f 67 65 68
f 62 61 63
f 63 61 64
f 58 57 59
f 59 57 60
f 54 53 55
f 55 53 56
f 1136 1132 1133
f 1132 1131 1133
f 1133 1131 1134
f 1131 1141 1134
f 1134 1141 1142
f 1141 1139 1142
f 1142 1139 1140
f 1139 1137 1140
f 1140 1137 1138
f 1137 1135 1138
f 1138 1135 1136
f 1135 1132 1136
f 887 888 874
f 887 874 873
f 873 874 860
f 873 860 859
f 859 860 846
f 859 846 845
f 845 846 832
f 845 832 831
f 831 832 818
f 831 818 817
f 817 818 804
f 817 804 803
f 803 804 790
f 803 790 789
f 789 790 776
f 789 776 774
f 774 776 773
f 774 773 775
f 302 304 301
f 302 301 303
f 318 320 317
f 318 317 319
f 314 316 313
f 314 313 315
f 310 312 309
f 1144 1143 311
f 306 308 305
f 306 305 307
f 1026 1025 1027
f 1028 1026 1027
f 1022 1021 1023
f 1024 1022 1023
f 1018 1017 1019
f 1020 1018 1019
f 1014 1013 1015
f 1016 1014 1015
f 1010 1009 1011
f 1012 1010 1011
f 1002 1001 1003
f 1004 1002 1003
f 998 997 999
f 1000 998 999
f 994 993 995
f 996 994 995
f 990 989 991
f 992 990 991
f 982 981 983
f 984 982 983
f 978 977 979
f 980 978 979
f 974 973 975
f 976 974 975
f 970 969 971
f 972 970 971
f 962 961 963
f 964 962 963
f 958 957 959
f 960 958 959
f 954 953 955
f 956 954 955
f 950 949 951
f 952 950 951
f 942 941 943
f 944 942 943
f 938 937 939
f 940 938 939
f 934 933 935
f 936 934 935
f 930 929 931
f 932 930 931
f 642 644 641
f 642 641 643
f 638 640 637
f 1146 1145 639
f 634 636 633
f 634 633 635
f 630 632 629
f 630 629 631
f 626 628 625
f 626 625 627
f 622 624 621
f 1148 1147 623
f 618 620 617
f 618 617 619
f 614 616 613
f 614 613 615
f 610 612 609
f 610 609 611
f 606 608 605
f 1150 1149 607
f 602 604 574
f 602 574 603
f 572 574 544
f 572 544 573
f 542 544 541
f 542 541 543
f 600 601 599
f 600 599 570
f 570 571 569
f 570 569 538
f 538 540 537
f 538 537 539
f 596 598 595
f 596 595 597
f 592 594 591
f 1152 1151 593
f 588 590 587
f 588 587 589
f 584 586 583
f 584 583 585
f 580 582 579
f 580 579 581
f 576 578 575
f 576 575 577
f 566 568 565
f 566 565 567
f 562 564 561
f 562 561 563
f 558 560 557
f 558 557 559
f 554 556 553
f 554 553 555
f 550 552 549
f 550 549 551
f 546 548 545
f 546 545 547
f 534 536 533
f 534 533 535
f 530 532 529
f 530 529 531
f 526 528 525
f 526 525 527
f 522 524 521
f 522 521 523
f 518 520 517
f 518 517 519
f 514 516 513
f 514 513 515
f 510 512 509
f 510 509 511
f 506 508 505
f 506 505 507
f 502 504 501
f 502 501 503
f 498 500 497
f 498 497 499
f 494 496 493
f 494 493 495
f 490 492 489
f 490 489 491
f 486 488 485
f 486 485 487
f 482 484 481
f 482 481 483
f 478 480 477
f 478 477 479
f 474 476 473
f 474 473 475
f 470 472 469
f 470 469 471
f 466 468 465
f 466 465 467
f 462 464 461
f 462 461 463
f 458 460 457
f 458 457 459
f 454 456 453
f 454 453 455
f 450 452 449
f 1154 1153 451
f 446 448 445
f 446 445 447
f 442 444 441
f 442 441 443
f 438 440 437
f 438 437 439
f 434 436 433
f 1156 1155 435
f 430 432 429
f 430 429 431
f 426 428 425
f 426 425 427
f 422 424 421
f 422 421 423
f 418 420 417
f 418 417 419
f 414 416 386
f 414 386 415
f 384 386 356
f 384 356 385
f 354 356 353
f 354 353 355
f 412 413 411
f 412 411 382
f 382 383 381
f 382 381 350
f 350 352 349
f 350 349 351
f 408 410 407
f 408 407 409
f 404 406 403
f 404 403 405
f 400 402 399
f 400 399 401
f 396 398 395
f 396 395 397
f 392 394 391
f 392 391 393
f 388 390 387
f 388 387 389
f 378 380 377
f 378 377 379
f 374 376 373
f 374 373 375
f 370 372 369
f 370 369 371
f 366 368 365
f 366 365 367
f 362 364 361
f 362 361 363
f 358 360 357
f 358 357 359
f 346 348 345
f 346 345 347
f 342 344 341
f 342 341 343
f 338 340 337
f 338 337 339
f 334 336 333
f 334 333 335
f 330 332 329
f 330 329 331
f 326 328 325
f 1158 1157 327
f 322 324 321
f 322 321 323
f 659 660 653
f 659 653 654
f 654 653 655
f 655 656 654
f 656 655 657
f 656 657 658
f 649 650 648
f 649 648 645
f 645 646 649
f 646 645 647
f 651 646 647
f 651 647 652
f 946 945 947
f 945 948 947
f 966 965 967
f 965 968 967
f 986 985 987
f 985 988 987
f 1006 1005 1007
f 1005 1008 1007
f 662 664 661
f 662 661 663
f 746 748 745
f 746 745 747
f 742 744 741
f 742 741 743
f 738 740 737
f 738 737 739
f 734 736 733
f 734 733 735
f 730 732 729
f 730 729 731
f 726 728 725
f 726 725 727
f 722 724 721
f 722 721 723
f 718 720 717
f 718 717 719
f 714 716 713
f 714 713 715
f 710 712 709
f 710 709 711
f 706 708 705
f 706 705 707
f 702 704 701
f 702 701 703
f 698 700 697
f 698 697 699
f 694 696 693
f 694 693 695
f 690 692 689
f 690 689 691
f 686 688 685
f 686 685 687
f 682 684 681
f 682 681 683
f 678 680 677
f 678 677 679
f 674 676 673
f 674 673 675
f 670 672 669
f 670 669 671
f 666 668 665
f 666 665 667
