# from WaterfrontDistrict_Block12_Residental (UC)_0002_LOD_0.pskx
v 1055.006103515625 599.9998779296875 -0.00010490732529433444
v -744.9938354492188 599.9998779296875 -0.0001835878356359899
v 298.03594970703125 599.9998779296875 33.352760314941406
v 298.03594970703125 599.9998779296875 364.1497497558594
v 150.0360107421875 599.9998779296875 364.1497497558594
v 1055.006103515625 599.9998779296875 499.9999084472656
v -744.9938354492188 599.9998779296875 499.99981689453125
v 150.0360107421875 599.9998779296875 33.352752685546875
v -744.9938354492188 599.9998779296875 -0.0001835878356359899
v -744.9937744140625 394.9949951171875 -0.00016566574049647897
v -744.9938354492188 599.9998779296875 499.99981689453125
v -744.9938354492188 394.9949951171875 499.9998474121094
v -744.9937744140625 -600.0001220703125 -7.868050306569785e-05
v -744.9937744140625 190.4906005859375 149.99984741210938
v -744.9937744140625 190.4906005859375 349.9998474121094
v -744.9937744140625 -209.50927734375 349.9998779296875
v -744.9937744140625 -600.0000610351562 499.9999084472656
v -744.9937744140625 -209.50927734375 149.99989318847656
v -744.9937133789062 -1000.0001220703125 -4.371138857095502e-05
v -744.9937744140625 -750.0001220703125 49.999935150146484
v -744.9937744140625 -750.0001220703125 310.4879455566406
v -744.9937744140625 -881.93115234375 310.4879455566406
v -744.9937744140625 -1000.0001220703125 499.9999694824219
v -744.9937133789062 -881.93115234375 49.99994659423828
v 1055.00634765625 -1000.0 3.4969114494742826e-05
v 1055.006103515625 599.9998779296875 -0.00010490732529433444
v 1055.00634765625 -1000.0 500.00006103515625
v 1055.006103515625 599.9998779296875 499.9999084472656
v -741.9029541015625 394.9949951171875 611.9388427734375
v -728.4439086914062 -600.0000610351562 611.970947265625
v -728.4439697265625 394.9949951171875 611.9708251953125
v -741.9028930664062 -600.0000610351562 611.93896484375
v -741.910400390625 394.9949951171875 606.2278442382812
v -741.9028930664062 -600.0000610351562 611.93896484375
v -741.9029541015625 394.9949951171875 611.9388427734375
v -741.9103393554688 -600.0000610351562 606.2279663085938
v -728.4418334960938 394.9949951171875 606.2238159179688
v -741.9103393554688 -600.0000610351562 606.2279663085938
v -741.910400390625 394.9949951171875 606.2278442382812
v -728.4418334960938 -600.0000610351562 606.2239379882812
v -728.4439697265625 394.9949951171875 611.9708251953125
v -728.4418334960938 -600.0000610351562 606.2239379882812
v -728.4418334960938 394.9949951171875 606.2238159179688
v -728.4439086914062 -600.0000610351562 611.970947265625
v -736.8486938476562 394.9949951171875 581.47802734375
v -733.46728515625 -600.0000610351562 581.4781494140625
v -733.4673461914062 394.9949951171875 581.47802734375
v -736.8486328125 -600.0000610351562 581.4781494140625
v -736.6298828125 394.9949951171875 576.1857299804688
v -736.8486328125 -600.0000610351562 581.4781494140625
v -736.8486938476562 394.9949951171875 581.47802734375
v -736.6298828125 -600.0000610351562 576.1858520507812
v -733.24853515625 394.9949951171875 576.1857299804688
v -736.6298828125 -600.0000610351562 576.1858520507812
v -736.6298828125 394.9949951171875 576.1857299804688
v -733.24853515625 -600.0000610351562 576.1858520507812
v -733.4673461914062 394.9949951171875 581.47802734375
v -733.24853515625 -600.0000610351562 576.1858520507812
v -733.24853515625 394.9949951171875 576.1857299804688
v -733.46728515625 -600.0000610351562 581.4781494140625
v -736.9171752929688 394.9949951171875 542.0908813476562
v -733.1619262695312 -600.0000610351562 542.0910034179688
v -733.1619873046875 394.9949951171875 542.0908813476562
v -736.9171142578125 -600.0000610351562 542.0910034179688
v -736.8504028320312 394.9949951171875 537.4920654296875
v -736.9171142578125 -600.0000610351562 542.0910034179688
v -736.9171752929688 394.9949951171875 542.0908813476562
v -736.850341796875 -600.0000610351562 537.4921875
v -733.1079711914062 394.9949951171875 537.5197143554688
v -736.850341796875 -600.0000610351562 537.4921875
v -736.8504028320312 394.9949951171875 537.4920654296875
v -733.1079711914062 -600.0000610351562 537.5198364257812
v -733.1619873046875 394.9949951171875 542.0908813476562
v -733.1079711914062 -600.0000610351562 537.5198364257812
v -733.1079711914062 394.9949951171875 537.5197143554688
v -733.1619262695312 -600.0000610351562 542.0910034179688
v -728.4418334960938 394.9949951171875 606.2238159179688
v -741.910400390625 394.9949951171875 606.2278442382812
v -741.9029541015625 394.9949951171875 611.9388427734375
v -728.4439697265625 394.9949951171875 611.9708251953125
v -733.24853515625 394.9949951171875 576.1857299804688
v -736.6298828125 394.9949951171875 576.1857299804688
v -733.4673461914062 394.9949951171875 581.47802734375
v -736.8486938476562 394.9949951171875 581.47802734375
v -736.9171752929688 394.9949951171875 542.0908813476562
v -733.1619873046875 394.9949951171875 542.0908813476562
v -733.1079711914062 394.9949951171875 537.5197143554688
v -736.8504028320312 394.9949951171875 537.4920654296875
v -741.9028930664062 -600.0000610351562 611.93896484375
v -741.9103393554688 -600.0000610351562 606.2279663085938
v -728.4418334960938 -600.0000610351562 606.2239379882812
v -728.4439086914062 -600.0000610351562 611.970947265625
v -733.46728515625 -600.0000610351562 581.4781494140625
v -736.6298828125 -600.0000610351562 576.1858520507812
v -733.24853515625 -600.0000610351562 576.1858520507812
v -736.8486328125 -600.0000610351562 581.4781494140625
v -733.1079711914062 -600.0000610351562 537.5198364257812
v -733.1619262695312 -600.0000610351562 542.0910034179688
v -736.9171142578125 -600.0000610351562 542.0910034179688
v -736.850341796875 -600.0000610351562 537.4921875
v 150.0360107421875 580.0047607421875 364.1497497558594
v 298.03594970703125 599.9998779296875 364.1497497558594
v 298.03594970703125 580.0047607421875 364.1497497558594
v 150.0360107421875 599.9998779296875 364.1497497558594
v 150.0360107421875 580.0047607421875 33.352752685546875
v 298.03594970703125 580.0047607421875 33.352760314941406
v 298.03594970703125 599.9998779296875 33.352760314941406
v 150.0360107421875 599.9998779296875 33.352752685546875
v 298.03594970703125 580.0047607421875 364.1497497558594
v 298.03594970703125 599.9998779296875 33.352760314941406
v 298.03594970703125 580.0047607421875 33.352760314941406
v 298.03594970703125 599.9998779296875 364.1497497558594
v 150.0360107421875 580.0047607421875 364.1497497558594
v 150.0360107421875 580.0047607421875 33.352752685546875
v 150.0360107421875 599.9998779296875 33.352752685546875
v 150.0360107421875 599.9998779296875 364.1497497558594
v 1054.993896484375 999.9998779296875 499.9998779296875
v -745.0060424804688 999.9998779296875 499.9997863769531
v 1054.993896484375 599.9998779296875 499.9999084472656
v -745.0060424804688 599.9998779296875 499.99981689453125
v 1054.993896484375 999.9998779296875 449.9998779296875
v 1054.993896484375 599.9998779296875 449.9999084472656
v -745.0060424804688 999.9998779296875 449.9997863769531
v -745.0060424804688 599.9998779296875 449.99981689453125
v 1054.993896484375 599.9998779296875 499.9999084472656
v 1054.993896484375 999.9998779296875 449.9998779296875
v 1054.993896484375 999.9998779296875 499.9998779296875
v 1054.993896484375 599.9998779296875 449.9999084472656
v 1054.993896484375 999.9998779296875 499.9998779296875
v -745.0060424804688 999.9998779296875 449.9997863769531
v -745.0060424804688 999.9998779296875 499.9997863769531
v 1054.993896484375 999.9998779296875 449.9998779296875
v -745.0060424804688 999.9998779296875 499.9997863769531
v -745.0060424804688 599.9998779296875 449.99981689453125
v -745.0060424804688 599.9998779296875 499.99981689453125
v -745.0060424804688 999.9998779296875 449.9997863769531
v -745.0060424804688 599.9998779296875 499.99981689453125
v 1054.993896484375 599.9998779296875 449.9999084472656
v 1054.993896484375 599.9998779296875 499.9999084472656
v -745.0060424804688 599.9998779296875 449.99981689453125
v -744.9937744140625 -600.0000610351562 499.9999084472656
v -744.9937744140625 -1000.0001220703125 499.9999694824219
v -739.9888916015625 -109.9976806640625 499.9998779296875
v -729.9913330078125 -109.9976806640625 499.9998779296875
v -729.9913330078125 -119.9952392578125 499.9998779296875
v -244.99383544921875 599.9998779296875 499.9998474121094
v -744.9938354492188 394.9949951171875 499.9998474121094
v -744.9938354492188 599.9998779296875 499.99981689453125
v -244.99383544921875 499.9998779296875 499.9998474121094
v -739.9888916015625 -119.9952392578125 499.9998779296875
v -244.99380493164062 99.9998779296875 499.9998779296875
v -244.9937744140625 -500.00006103515625 499.99993896484375
v -244.9937744140625 -900.0000610351562 499.9999694824219
v -244.99374389648438 -1000.0000610351562 500.0
v -144.9937744140625 -900.0000610351562 499.9999694824219
v -144.9937744140625 -500.00006103515625 499.99993896484375
v -144.99383544921875 99.9998779296875 499.9998779296875
v -144.99383544921875 499.9998779296875 499.9998474121094
v -244.99383544921875 999.9998779296875 499.99981689453125
v 1055.006103515625 999.9998779296875 499.9998779296875
v -244.99383544921875 599.9998779296875 499.9998474121094
v 1055.006103515625 599.9998779296875 499.9999084472656
v -244.99383544921875 999.9998779296875 499.99981689453125
v -244.99383544921875 499.9998779296875 499.9998474121094
v -244.99383544921875 899.9998779296875 639.9998168945312
v -244.99386596679688 899.9998779296875 844.9998168945312
v -244.99386596679688 799.9998779296875 844.9998168945312
v -244.99386596679688 999.9998779296875 899.999755859375
v -244.99383544921875 500.0 899.9998168945312
v -244.99383544921875 799.9998779296875 639.9998168945312
v -244.99383544921875 499.9998779296875 499.9998474121094
v -144.99383544921875 499.9998779296875 499.9998474121094
v -244.99383544921875 500.0 899.9998168945312
v -144.99383544921875 500.0 899.9998168945312
v -144.99383544921875 499.9998779296875 499.9998474121094
v -144.99383544921875 362.9027099609375 499.9998779296875
v -144.99383544921875 362.90283203125 830.7968139648438
v -144.99383544921875 214.90283203125 830.796875
v -144.99383544921875 500.0 899.9998168945312
v -144.99383544921875 214.9027099609375 499.9998779296875
v -144.99383544921875 99.9998779296875 499.9998779296875
v -144.99383544921875 100.0 899.9998779296875
v -144.99383544921875 99.9998779296875 499.9998779296875
v -244.99380493164062 99.9998779296875 499.9998779296875
v -144.99383544921875 100.0 899.9998779296875
v -244.99383544921875 100.0 899.9998779296875
v -244.99380493164062 99.9998779296875 499.9998779296875
v -244.9937744140625 -500.00006103515625 499.99993896484375
v -244.99380493164062 -80.0001220703125 639.9998779296875
v -244.99380493164062 -80.0 844.9998779296875
v -244.99380493164062 -180.0 844.9998779296875
v -244.99383544921875 100.0 899.9998779296875
v -244.99380493164062 -500.00006103515625 899.9999389648438
v -244.99380493164062 -180.0001220703125 639.9998779296875
v -244.9937744140625 -500.00006103515625 499.99993896484375
v -144.9937744140625 -500.00006103515625 499.99993896484375
v -244.99380493164062 -500.00006103515625 899.9999389648438
v -144.9937744140625 -500.00006103515625 899.9999389648438
v -144.9937744140625 -500.00006103515625 499.99993896484375
v -144.9937744140625 -623.2544555664062 499.99993896484375
v -144.9937744140625 -623.2544555664062 830.7969360351562
v -144.9937744140625 -771.25439453125 830.7969360351562
v -144.9937744140625 -500.00006103515625 899.9999389648438
v -144.9937744140625 -771.25439453125 499.9999694824219
v -144.9937744140625 -900.0000610351562 499.9999694824219
v -144.9937744140625 -900.0000610351562 899.9999389648438
v -144.9937744140625 -900.0000610351562 499.9999694824219
v -244.9937744140625 -900.0000610351562 499.9999694824219
v -144.9937744140625 -900.0000610351562 899.9999389648438
v -244.9937744140625 -900.0000610351562 899.9999389648438
v -244.9937744140625 -900.0000610351562 499.9999694824219
v -244.99374389648438 -1000.0000610351562 500.0
v -244.9937744140625 -900.0000610351562 899.9999389648438
v -244.9937744140625 -1000.0 899.9999389648438
v 1055.006103515625 999.9998779296875 499.9998779296875
v 1055.006103515625 -999.9999389648438 900.0
v 1055.006103515625 999.9998779296875 899.9998168945312
v -244.99386596679688 899.9998779296875 844.9998168945312
v -224.99383544921875 899.9998779296875 844.9998168945312
v -244.99386596679688 799.9998779296875 844.9998168945312
v -224.99383544921875 799.9998779296875 844.9998168945312
v -244.99383544921875 899.9998779296875 639.9998168945312
v -244.99383544921875 799.9998779296875 639.9998168945312
v -224.99383544921875 899.9998779296875 639.9998168945312
v -224.99383544921875 799.9998779296875 639.9998168945312
v -224.99383544921875 899.9998779296875 844.9998168945312
v -244.99383544921875 899.9998779296875 639.9998168945312
v -224.99383544921875 899.9998779296875 639.9998168945312
v -244.99386596679688 899.9998779296875 844.9998168945312
v -224.99383544921875 799.9998779296875 844.9998168945312
v -224.99383544921875 799.9998779296875 639.9998168945312
v -244.99383544921875 799.9998779296875 639.9998168945312
v -244.99386596679688 799.9998779296875 844.9998168945312
v -244.99380493164062 -80.0 844.9998779296875
v -224.99383544921875 -80.0 844.9998779296875
v -244.99380493164062 -180.0 844.9998779296875
v -224.99383544921875 -180.0 844.9998779296875
v -244.99380493164062 -80.0001220703125 639.9998779296875
v -244.99380493164062 -180.0001220703125 639.9998779296875
v -224.9937744140625 -80.0001220703125 639.9998779296875
v -224.9937744140625 -180.0001220703125 639.9998779296875
v -224.99383544921875 -80.0 844.9998779296875
v -244.99380493164062 -80.0001220703125 639.9998779296875
v -224.9937744140625 -80.0001220703125 639.9998779296875
v -244.99380493164062 -80.0 844.9998779296875
v -224.99383544921875 -180.0 844.9998779296875
v -224.9937744140625 -180.0001220703125 639.9998779296875
v -244.99380493164062 -180.0001220703125 639.9998779296875
v -244.99380493164062 -180.0 844.9998779296875
v -444.99383544921875 409.99755859375 899.9998168945312
v -244.99386596679688 999.9998779296875 899.999755859375
v -444.9937744140625 -1000.0 899.9999389648438
v -444.9938659667969 999.9998779296875 899.999755859375
v -244.9937744140625 -900.0000610351562 899.9999389648438
v -244.9937744140625 -1000.0 899.9999389648438
v -244.99380493164062 -500.00006103515625 899.9999389648438
v -244.99383544921875 100.0 899.9998779296875
v -244.99383544921875 500.0 899.9998168945312
v -144.9937744140625 -500.00006103515625 899.9999389648438
v -144.9937744140625 -900.0000610351562 899.9999389648438
v -144.99383544921875 500.0 899.9998168945312
v -144.99383544921875 100.0 899.9998779296875
v -444.99383544921875 409.99755859375 899.9998168945312
v -444.9937744140625 -1000.0 899.9999389648438
v -444.99383544921875 409.99755859375 949.9998168945312
v -444.9937744140625 -1000.0 949.9999389648438
v 1055.006103515625 -999.9999389648438 950.0
v 1055.006103515625 999.9998779296875 949.9998168945312
v -441.90289306640625 409.99755859375 1061.93896484375
v -428.4440002441406 -1000.0 1061.970947265625
v -428.4440612792969 409.99755859375 1061.9708251953125
v -441.90283203125 -1000.0 1061.9390869140625
v -441.9103088378906 409.99755859375 1056.2279052734375
v -441.90283203125 -1000.0 1061.9390869140625
v -441.90289306640625 409.99755859375 1061.93896484375
v -441.9102478027344 -1000.0 1056.22802734375
v -428.4418640136719 409.99755859375 1056.223876953125
v -441.9102478027344 -1000.0 1056.22802734375
v -441.9103088378906 409.99755859375 1056.2279052734375
v -428.4418029785156 -1000.0 1056.2239990234375
v -428.4440612792969 409.99755859375 1061.9708251953125
v -428.4418029785156 -1000.0 1056.2239990234375
v -428.4418640136719 409.99755859375 1056.223876953125
v -428.4440002441406 -1000.0 1061.970947265625
v -436.8486022949219 409.99755859375 1031.4781494140625
v -433.4671936035156 -1000.0 1031.478271484375
v -433.4672546386719 409.99755859375 1031.4781494140625
v -436.8485412597656 -1000.0 1031.478271484375
v -436.6299133300781 409.99755859375 1026.185791015625
v -436.8485412597656 -1000.0 1031.478271484375
v -436.8486022949219 409.99755859375 1031.4781494140625
v -436.6298522949219 -1000.0 1026.1859130859375
v -433.2485656738281 409.99755859375 1026.185791015625
v -436.6298522949219 -1000.0 1026.1859130859375
v -436.6299133300781 409.99755859375 1026.185791015625
v -433.2485046386719 -1000.0 1026.1859130859375
v -433.4672546386719 409.99755859375 1031.4781494140625
v -433.2485046386719 -1000.0 1026.1859130859375
v -433.2485656738281 409.99755859375 1026.185791015625
v -433.4671936035156 -1000.0 1031.478271484375
v -436.9170837402344 409.99755859375 992.0908813476562
v -433.16192626953125 -1000.0 992.0910034179688
v -433.1619873046875 409.99755859375 992.0908813476562
v -436.9170227050781 -1000.0 992.0910034179688
v -436.85040283203125 409.99755859375 987.4920654296875
v -436.9170227050781 -1000.0 992.0910034179688
v -436.9170837402344 409.99755859375 992.0908813476562
v -436.850341796875 -1000.0 987.4921875
v -433.1080017089844 409.99755859375 987.519775390625
v -436.850341796875 -1000.0 987.4921875
v -436.85040283203125 409.99755859375 987.4920654296875
v -433.1079406738281 -1000.0 987.5198974609375
v -433.1619873046875 409.99755859375 992.0908813476562
v -433.1079406738281 -1000.0 987.5198974609375
v -433.1080017089844 409.99755859375 987.519775390625
v -433.16192626953125 -1000.0 992.0910034179688
v -428.4418640136719 409.99755859375 1056.223876953125
v -441.9103088378906 409.99755859375 1056.2279052734375
v -441.90289306640625 409.99755859375 1061.93896484375
v -428.4440612792969 409.99755859375 1061.9708251953125
v -433.2485656738281 409.99755859375 1026.185791015625
v -436.6299133300781 409.99755859375 1026.185791015625
v -433.4672546386719 409.99755859375 1031.4781494140625
v -436.8486022949219 409.99755859375 1031.4781494140625
v -436.9170837402344 409.99755859375 992.0908813476562
v -433.1619873046875 409.99755859375 992.0908813476562
v -433.1080017089844 409.99755859375 987.519775390625
v -436.85040283203125 409.99755859375 987.4920654296875
v -441.90283203125 -1000.0 1061.9390869140625
v -441.9102478027344 -1000.0 1056.22802734375
v -428.4418029785156 -1000.0 1056.2239990234375
v -428.4440002441406 -1000.0 1061.970947265625
v -433.4671936035156 -1000.0 1031.478271484375
v -436.6298522949219 -1000.0 1026.1859130859375
v -433.2485046386719 -1000.0 1026.1859130859375
v -436.8485412597656 -1000.0 1031.478271484375
v -433.1079406738281 -1000.0 987.5198974609375
v -433.16192626953125 -1000.0 992.0910034179688
v -436.9170227050781 -1000.0 992.0910034179688
v -436.850341796875 -1000.0 987.4921875
v -444.9938659667969 999.9998779296875 949.999755859375
v -444.99383544921875 415.00244140625 949.9998168945312
v -434.99627685546875 415.00244140625 949.9998168945312
v -434.99627685546875 405.0048828125 949.9998168945312
v -429.9913635253906 -490.00250244140625 949.9999389648438
v -429.9913635253906 -500.00006103515625 949.9999389648438
v 55.00616455078125 999.9998779296875 949.9998168945312
v -444.99383544921875 405.0048828125 949.9998168945312
v -444.9937744140625 -1000.0 949.9999389648438
v -439.9889221191406 -490.00250244140625 949.9999389648438
v 55.00616455078125 500.0 949.9998779296875
v -439.9889221191406 -500.00006103515625 949.9999389648438
v 55.00616455078125 100.0 949.9999389648438
v 55.0062255859375 -500.0 950.0
v 55.0062255859375 -900.0 950.0
v 55.0062255859375 -1000.0 950.0
v 155.0062255859375 -900.0 950.0
v 155.0062255859375 -500.0 950.0
v 155.00616455078125 100.0 949.9999389648438
v 155.00616455078125 500.0 949.9998779296875
v 55.00616455078125 999.9998779296875 949.9998168945312
v 55.00616455078125 500.0 949.9998779296875
v 55.00616455078125 899.9998779296875 1089.999755859375
v 55.006103515625 899.9998779296875 1294.999755859375
v 55.006103515625 799.9998779296875 1294.999755859375
v 55.006103515625 999.9998779296875 1349.999755859375
v 55.00616455078125 500.0 1349.9998779296875
v 55.00616455078125 799.9998779296875 1089.999755859375
v 55.00616455078125 500.0 949.9998779296875
v 155.00616455078125 500.0 949.9998779296875
v 55.00616455078125 500.0 1349.9998779296875
v 155.00616455078125 500.0 1349.9998779296875
v 155.00616455078125 500.0 949.9998779296875
v 155.00616455078125 360.0 949.9998779296875
v 155.00616455078125 360.0 1280.796875
v 155.00616455078125 211.9998779296875 1280.796875
v 155.00616455078125 500.0 1349.9998779296875
v 155.00616455078125 211.9998779296875 949.9999389648438
v 155.00616455078125 100.0 949.9999389648438
v 155.00616455078125 100.0 1349.9998779296875
v 155.00616455078125 100.0 949.9999389648438
v 55.00616455078125 100.0 949.9999389648438
v 155.00616455078125 100.0 1349.9998779296875
v 55.00616455078125 100.0 1349.9998779296875
v 55.00616455078125 100.0 949.9999389648438
v 55.0062255859375 -500.0 950.0
v 55.00616455078125 3.0029296875 1049.9998779296875
v 55.00616455078125 3.0029296875 1249.9998779296875
v 55.00616455078125 -396.9970703125 1249.9998779296875
v 55.00616455078125 100.0 1349.9998779296875
v 55.00616455078125 -499.99993896484375 1349.9998779296875
v 55.00616455078125 -396.9970703125 1049.9998779296875
v 55.0062255859375 -500.0 950.0
v 155.0062255859375 -500.0 950.0
v 55.00616455078125 -499.99993896484375 1349.9998779296875
v 155.00616455078125 -499.99993896484375 1349.9998779296875
v 155.0062255859375 -500.0 950.0
v 155.0062255859375 -639.9999389648438 950.0
v 155.00616455078125 -639.9998779296875 1280.796875
v 155.0062255859375 -788.0000610351562 1280.796875
v 155.00616455078125 -499.99993896484375 1349.9998779296875
v 155.0062255859375 -788.0001220703125 950.0
v 155.0062255859375 -900.0 950.0
v 155.0062255859375 -899.9999389648438 1350.0
v 155.0062255859375 -900.0 950.0
v 55.0062255859375 -900.0 950.0
v 155.0062255859375 -899.9999389648438 1350.0
v 55.0062255859375 -899.9999389648438 1350.0
v 55.0062255859375 -900.0 950.0
v 55.0062255859375 -1000.0 950.0
v 55.0062255859375 -899.9999389648438 1350.0
v 55.0062255859375 -1000.0 1350.0
v 1055.006103515625 699.9998779296875 1049.9998779296875
v 1055.006103515625 699.9998779296875 1249.9998779296875
v 1055.006103515625 899.9998779296875 1249.9998779296875
v 1055.006103515625 -999.9998779296875 1350.0001220703125
v 1055.006103515625 999.9998779296875 1349.9998779296875
v 1055.006103515625 899.9998779296875 1049.9998779296875
v 55.006103515625 899.9998779296875 1294.999755859375
v 75.006103515625 899.9998779296875 1294.999755859375
v 55.006103515625 799.9998779296875 1294.999755859375
v 75.006103515625 799.9998779296875 1294.999755859375
v 55.00616455078125 899.9998779296875 1089.999755859375
v 55.00616455078125 799.9998779296875 1089.999755859375
v 75.00616455078125 899.9998779296875 1089.999755859375
v 75.00616455078125 799.9998779296875 1089.999755859375
v 75.006103515625 899.9998779296875 1294.999755859375
v 55.00616455078125 899.9998779296875 1089.999755859375
v 75.00616455078125 899.9998779296875 1089.999755859375
v 55.006103515625 899.9998779296875 1294.999755859375
v 75.006103515625 799.9998779296875 1294.999755859375
v 75.00616455078125 799.9998779296875 1089.999755859375
v 55.00616455078125 799.9998779296875 1089.999755859375
v 55.006103515625 799.9998779296875 1294.999755859375
v 1035.006103515625 699.9998779296875 1249.9998779296875
v 1055.006103515625 899.9998779296875 1249.9998779296875
v 1055.006103515625 699.9998779296875 1249.9998779296875
v 1035.006103515625 899.9998779296875 1249.9998779296875
v 1035.006103515625 699.9998779296875 1049.9998779296875
v 1055.006103515625 699.9998779296875 1049.9998779296875
v 1055.006103515625 899.9998779296875 1049.9998779296875
v 1035.006103515625 899.9998779296875 1049.9998779296875
v 1035.006103515625 699.9998779296875 1249.9998779296875
v 1055.006103515625 699.9998779296875 1049.9998779296875
v 1035.006103515625 699.9998779296875 1049.9998779296875
v 1055.006103515625 699.9998779296875 1249.9998779296875
v 1035.006103515625 899.9998779296875 1249.9998779296875
v 1035.006103515625 899.9998779296875 1049.9998779296875
v 1055.006103515625 899.9998779296875 1049.9998779296875
v 1055.006103515625 899.9998779296875 1249.9998779296875
v -144.993896484375 999.9998779296875 1349.999755859375
v 55.006103515625 999.9998779296875 1349.999755859375
v -144.9937744140625 -1000.0 1350.0
v 55.0062255859375 -899.9999389648438 1350.0
v 55.0062255859375 -1000.0 1350.0
v 55.00616455078125 -499.99993896484375 1349.9998779296875
v 55.00616455078125 100.0 1349.9998779296875
v 55.00616455078125 500.0 1349.9998779296875
v 155.00616455078125 -499.99993896484375 1349.9998779296875
v 155.0062255859375 -899.9999389648438 1350.0
v 155.00616455078125 500.0 1349.9998779296875
v 155.00616455078125 100.0 1349.9998779296875
v -144.993896484375 999.9998779296875 1349.999755859375
v -144.9937744140625 -1000.0 1350.0
v -144.993896484375 1000.0001220703125 1399.999755859375
v -144.9937744140625 -1000.0 1400.0
v 1055.006103515625 -999.9998779296875 1400.0001220703125
v 1055.006103515625 1000.0001220703125 1399.9998779296875
v -144.993896484375 1000.0001220703125 1399.999755859375
v -144.9937744140625 -1000.0 1400.0
v 331.70745849609375 1000.0001220703125 1799.999755859375
v 331.70758056640625 -999.9998779296875 1800.0
v 1055.006103515625 700.0001220703125 1474.9998779296875
v 1055.006103515625 700.0001220703125 1674.9998779296875
v 1055.006103515625 900.0001220703125 1674.9998779296875
v 1055.006103515625 -999.9998779296875 1800.0001220703125
v 1055.006103515625 1000.0001220703125 1799.9998779296875
v 1055.006103515625 900.0001220703125 1474.9998779296875
v 344.79827880859375 1000.0001220703125 1911.9388427734375
v 358.25738525390625 -999.9998779296875 1911.970947265625
v 358.25714111328125 1000.0001220703125 1911.970703125
v 344.79852294921875 -999.9998779296875 1911.9390869140625
v 344.79083251953125 1000.0001220703125 1906.227783203125
v 344.79852294921875 -999.9998779296875 1911.9390869140625
v 344.79827880859375 1000.0001220703125 1911.9388427734375
v 344.79107666015625 -999.9998779296875 1906.22802734375
v 358.25933837890625 1000.0001220703125 1906.223876953125
v 344.79107666015625 -999.9998779296875 1906.22802734375
v 344.79083251953125 1000.0001220703125 1906.227783203125
v 358.25958251953125 -999.9998779296875 1906.22412109375
v 358.25714111328125 1000.0001220703125 1911.970703125
v 358.25958251953125 -999.9998779296875 1906.22412109375
v 358.25933837890625 1000.0001220703125 1906.223876953125
v 358.25738525390625 -999.9998779296875 1911.970947265625
v 349.85260009765625 1000.0001220703125 1881.4779052734375
v 353.23406982421875 -999.9998779296875 1881.4781494140625
v 353.23394775390625 1000.0001220703125 1881.4779052734375
v 349.85284423828125 -999.9998779296875 1881.4781494140625
v 350.07135009765625 1000.0001220703125 1876.185791015625
v 349.85284423828125 -999.9998779296875 1881.4781494140625
v 349.85260009765625 1000.0001220703125 1881.4779052734375
v 350.07147216796875 -999.9998779296875 1876.18603515625
v 353.45257568359375 1000.0001220703125 1876.185791015625
v 350.07147216796875 -999.9998779296875 1876.18603515625
v 350.07135009765625 1000.0001220703125 1876.185791015625
v 353.45281982421875 -999.9998779296875 1876.18603515625
v 353.23394775390625 1000.0001220703125 1881.4779052734375
v 353.45281982421875 -999.9998779296875 1876.18603515625
v 353.45257568359375 1000.0001220703125 1876.185791015625
v 353.23406982421875 -999.9998779296875 1881.4781494140625
v 349.78411865234375 1000.0001220703125 1842.0906982421875
v 353.53936767578125 -999.9998779296875 1842.0909423828125
v 353.53912353515625 1000.0001220703125 1842.0906982421875
v 349.78436279296875 -999.9998779296875 1842.0909423828125
v 349.85089111328125 1000.0001220703125 1837.4921875
v 349.78436279296875 -999.9998779296875 1842.0909423828125
v 349.78411865234375 1000.0001220703125 1842.0906982421875
v 349.85101318359375 -999.9998779296875 1837.492431640625
v 353.59307861328125 1000.0001220703125 1837.51953125
v 349.85101318359375 -999.9998779296875 1837.492431640625
v 349.85089111328125 1000.0001220703125 1837.4921875
v 353.59344482421875 -999.9998779296875 1837.519775390625
v 353.53912353515625 1000.0001220703125 1842.0906982421875
v 353.59344482421875 -999.9998779296875 1837.519775390625
v 353.59307861328125 1000.0001220703125 1837.51953125
v 353.53936767578125 -999.9998779296875 1842.0909423828125
v 1041.915283203125 -999.9998779296875 1911.939208984375
v 1028.456298828125 1000.0001220703125 1911.9708251953125
v 1028.45654296875 -999.9998779296875 1911.9710693359375
v 1041.9150390625 1000.0001220703125 1911.93896484375
v 1041.922607421875 -999.9998779296875 1906.2281494140625
v 1041.9150390625 1000.0001220703125 1911.93896484375
v 1041.915283203125 -999.9998779296875 1911.939208984375
v 1041.922607421875 1000.0001220703125 1906.2279052734375
v 1028.4541015625 -999.9998779296875 1906.2242431640625
v 1041.922607421875 1000.0001220703125 1906.2279052734375
v 1041.922607421875 -999.9998779296875 1906.2281494140625
v 1028.4541015625 1000.0001220703125 1906.2239990234375
v 1028.45654296875 -999.9998779296875 1911.9710693359375
v 1028.4541015625 1000.0001220703125 1906.2239990234375
v 1028.4541015625 -999.9998779296875 1906.2242431640625
v 1028.456298828125 1000.0001220703125 1911.9708251953125
v 1036.861083984375 -999.9998779296875 1881.478271484375
v 1033.4794921875 1000.0001220703125 1881.47802734375
v 1033.479736328125 -999.9998779296875 1881.478271484375
v 1036.86083984375 1000.0001220703125 1881.47802734375
v 1036.64208984375 -999.9998779296875 1876.1861572265625
v 1036.86083984375 1000.0001220703125 1881.47802734375
v 1036.861083984375 -999.9998779296875 1881.478271484375
v 1036.64208984375 1000.0001220703125 1876.1859130859375
v 1033.2607421875 -999.9998779296875 1876.1861572265625
v 1036.64208984375 1000.0001220703125 1876.1859130859375
v 1036.64208984375 -999.9998779296875 1876.1861572265625
v 1033.2607421875 1000.0001220703125 1876.1859130859375
v 1033.479736328125 -999.9998779296875 1881.478271484375
v 1033.2607421875 1000.0001220703125 1876.1859130859375
v 1033.2607421875 -999.9998779296875 1876.1861572265625
v 1033.4794921875 1000.0001220703125 1881.47802734375
v 1036.929443359375 -999.9998779296875 1842.091064453125
v 1033.174072265625 1000.0001220703125 1842.0908203125
v 1033.17431640625 -999.9998779296875 1842.091064453125
v 1036.929443359375 1000.0001220703125 1842.0908203125
v 1036.86279296875 -999.9998779296875 1837.4925537109375
v 1036.929443359375 1000.0001220703125 1842.0908203125
v 1036.929443359375 -999.9998779296875 1842.091064453125
v 1036.862548828125 1000.0001220703125 1837.4923095703125
v 1033.120361328125 -999.9998779296875 1837.5198974609375
v 1036.862548828125 1000.0001220703125 1837.4923095703125
v 1036.86279296875 -999.9998779296875 1837.4925537109375
v 1033.1201171875 1000.0001220703125 1837.5196533203125
v 1033.17431640625 -999.9998779296875 1842.091064453125
v 1033.1201171875 1000.0001220703125 1837.5196533203125
v 1033.120361328125 -999.9998779296875 1837.5198974609375
v 1033.174072265625 1000.0001220703125 1842.0908203125
v 358.25933837890625 1000.0001220703125 1906.223876953125
v 344.79083251953125 1000.0001220703125 1906.227783203125
v 344.79827880859375 1000.0001220703125 1911.9388427734375
v 358.25714111328125 1000.0001220703125 1911.970703125
v 353.45257568359375 1000.0001220703125 1876.185791015625
v 350.07135009765625 1000.0001220703125 1876.185791015625
v 353.23394775390625 1000.0001220703125 1881.4779052734375
v 349.85260009765625 1000.0001220703125 1881.4779052734375
v 349.78411865234375 1000.0001220703125 1842.0906982421875
v 353.53912353515625 1000.0001220703125 1842.0906982421875
v 353.59307861328125 1000.0001220703125 1837.51953125
v 349.85089111328125 1000.0001220703125 1837.4921875
v 344.79852294921875 -999.9998779296875 1911.9390869140625
v 344.79107666015625 -999.9998779296875 1906.22802734375
v 358.25958251953125 -999.9998779296875 1906.22412109375
v 358.25738525390625 -999.9998779296875 1911.970947265625
v 353.23406982421875 -999.9998779296875 1881.4781494140625
v 350.07147216796875 -999.9998779296875 1876.18603515625
v 353.45281982421875 -999.9998779296875 1876.18603515625
v 349.85284423828125 -999.9998779296875 1881.4781494140625
v 353.59344482421875 -999.9998779296875 1837.519775390625
v 353.53936767578125 -999.9998779296875 1842.0909423828125
v 349.78436279296875 -999.9998779296875 1842.0909423828125
v 349.85101318359375 -999.9998779296875 1837.492431640625
v 1028.4541015625 -999.9998779296875 1906.2242431640625
v 1041.922607421875 -999.9998779296875 1906.2281494140625
v 1041.915283203125 -999.9998779296875 1911.939208984375
v 1028.45654296875 -999.9998779296875 1911.9710693359375
v 1033.2607421875 -999.9998779296875 1876.1861572265625
v 1036.64208984375 -999.9998779296875 1876.1861572265625
v 1033.479736328125 -999.9998779296875 1881.478271484375
v 1036.861083984375 -999.9998779296875 1881.478271484375
v 1036.929443359375 -999.9998779296875 1842.091064453125
v 1033.17431640625 -999.9998779296875 1842.091064453125
v 1033.120361328125 -999.9998779296875 1837.5198974609375
v 1036.86279296875 -999.9998779296875 1837.4925537109375
v 1041.9150390625 1000.0001220703125 1911.93896484375
v 1041.922607421875 1000.0001220703125 1906.2279052734375
v 1028.4541015625 1000.0001220703125 1906.2239990234375
v 1028.456298828125 1000.0001220703125 1911.9708251953125
v 1033.4794921875 1000.0001220703125 1881.47802734375
v 1036.64208984375 1000.0001220703125 1876.1859130859375
v 1033.2607421875 1000.0001220703125 1876.1859130859375
v 1036.86083984375 1000.0001220703125 1881.47802734375
v 1033.1201171875 1000.0001220703125 1837.5196533203125
v 1033.174072265625 1000.0001220703125 1842.0908203125
v 1036.929443359375 1000.0001220703125 1842.0908203125
v 1036.862548828125 1000.0001220703125 1837.4923095703125
v 331.70745849609375 1000.0001220703125 1694.9998779296875
v 321.70758056640625 -999.9998779296875 1704.9998779296875
v 321.70733642578125 1000.0001220703125 1704.9996337890625
v 331.70758056640625 -999.9998779296875 1695.0001220703125
v 321.70733642578125 1000.0001220703125 1704.9996337890625
v 321.70758056640625 -999.9998779296875 1725.0
v 321.70733642578125 1000.0001220703125 1724.999755859375
v 321.70758056640625 -999.9998779296875 1704.9998779296875
v 321.70733642578125 1000.0001220703125 1724.999755859375
v 311.70758056640625 -999.9998779296875 1735.0
v 311.70733642578125 1000.0001220703125 1734.999755859375
v 321.70758056640625 -999.9998779296875 1725.0
v 311.70733642578125 1000.0001220703125 1734.999755859375
v 311.70758056640625 -999.9998779296875 1775.0
v 311.70733642578125 1000.0001220703125 1774.999755859375
v 311.70758056640625 -999.9998779296875 1735.0
v 311.70733642578125 1000.0001220703125 1774.999755859375
v 301.70758056640625 -999.9999389648438 1785.0
v 301.70733642578125 1000.0001220703125 1784.999755859375
v 311.70758056640625 -999.9998779296875 1775.0
v 301.70733642578125 1000.0001220703125 1784.999755859375
v 301.70758056640625 -999.9999389648438 1795.0001220703125
v 301.70733642578125 1000.0001220703125 1794.9998779296875
v 301.70758056640625 -999.9999389648438 1785.0
v 301.70733642578125 1000.0001220703125 1794.9998779296875
v 351.70758056640625 -999.9998779296875 1795.0001220703125
v 351.70733642578125 1000.0001220703125 1794.9998779296875
v 301.70758056640625 -999.9999389648438 1795.0001220703125
v 1055.006103515625 -999.9998779296875 1695.000244140625
v 1065.006103515625 1000.0001220703125 1704.999755859375
v 1065.006103515625 -999.9998779296875 1705.0
v 1055.006103515625 1000.0001220703125 1695.0
v 1065.006103515625 -999.9998779296875 1705.0
v 1065.006103515625 1000.0001220703125 1724.9998779296875
v 1065.006103515625 -999.9998779296875 1725.0001220703125
v 1065.006103515625 1000.0001220703125 1704.999755859375
v 1065.006103515625 -999.9998779296875 1725.0001220703125
v 1075.006103515625 1000.0001220703125 1734.9998779296875
v 1075.00634765625 -999.9998779296875 1735.0001220703125
v 1065.006103515625 1000.0001220703125 1724.9998779296875
v 1075.00634765625 -999.9998779296875 1735.0001220703125
v 1075.006103515625 1000.0001220703125 1774.9998779296875
v 1075.00634765625 -999.9998779296875 1775.0001220703125
v 1075.006103515625 1000.0001220703125 1734.9998779296875
v 1075.00634765625 -999.9998779296875 1775.0001220703125
v 1085.005859375 1000.0001220703125 1784.9998779296875
v 1085.006103515625 -999.9998779296875 1785.0001220703125
v 1075.006103515625 1000.0001220703125 1774.9998779296875
v 1085.006103515625 -999.9998779296875 1785.0001220703125
v 1085.005859375 1000.0001220703125 1795.0
v 1085.006103515625 -999.9998779296875 1795.000244140625
v 1085.005859375 1000.0001220703125 1784.9998779296875
v 1085.006103515625 -999.9998779296875 1795.000244140625
v 1035.005859375 1000.0001220703125 1795.0
v 1035.006103515625 -999.9998779296875 1795.000244140625
v 1085.005859375 1000.0001220703125 1795.0
v 331.70745849609375 1000.0001220703125 1694.9998779296875
v 321.70733642578125 1000.0001220703125 1704.9996337890625
v 321.70733642578125 1000.0001220703125 1724.999755859375
v 311.70733642578125 1000.0001220703125 1734.999755859375
v 311.70733642578125 1000.0001220703125 1774.999755859375
v 301.70733642578125 1000.0001220703125 1784.999755859375
v 351.70733642578125 1000.0001220703125 1794.9998779296875
v 301.70733642578125 1000.0001220703125 1794.9998779296875
v 321.70758056640625 -999.9998779296875 1725.0
v 321.70758056640625 -999.9998779296875 1704.9998779296875
v 331.70758056640625 -999.9998779296875 1695.0001220703125
v 311.70758056640625 -999.9998779296875 1775.0
v 311.70758056640625 -999.9998779296875 1735.0
v 351.70758056640625 -999.9998779296875 1795.0001220703125
v 301.70758056640625 -999.9999389648438 1785.0
v 301.70758056640625 -999.9999389648438 1795.0001220703125
v 1055.006103515625 -999.9998779296875 1695.000244140625
v 1065.006103515625 -999.9998779296875 1705.0
v 1065.006103515625 -999.9998779296875 1725.0001220703125
v 1075.00634765625 -999.9998779296875 1735.0001220703125
v 1075.00634765625 -999.9998779296875 1775.0001220703125
v 1085.006103515625 -999.9998779296875 1785.0001220703125
v 1035.006103515625 -999.9998779296875 1795.000244140625
v 1085.006103515625 -999.9998779296875 1795.000244140625
v 1065.006103515625 1000.0001220703125 1724.9998779296875
v 1065.006103515625 1000.0001220703125 1704.999755859375
v 1055.006103515625 1000.0001220703125 1695.0
v 1075.006103515625 1000.0001220703125 1774.9998779296875
v 1075.006103515625 1000.0001220703125 1734.9998779296875
v 1035.005859375 1000.0001220703125 1795.0
v 1085.005859375 1000.0001220703125 1784.9998779296875
v 1085.005859375 1000.0001220703125 1795.0
v 1035.006103515625 700.0001220703125 1674.9998779296875
v 1055.006103515625 900.0001220703125 1674.9998779296875
v 1055.006103515625 700.0001220703125 1674.9998779296875
v 1035.006103515625 900.0001220703125 1674.9998779296875
v 1035.006103515625 700.0001220703125 1474.9998779296875
v 1055.006103515625 700.0001220703125 1474.9998779296875
v 1055.006103515625 900.0001220703125 1474.9998779296875
v 1035.006103515625 900.0001220703125 1474.9998779296875
v 1035.006103515625 700.0001220703125 1674.9998779296875
v 1055.006103515625 700.0001220703125 1474.9998779296875
v 1035.006103515625 700.0001220703125 1474.9998779296875
v 1055.006103515625 700.0001220703125 1674.9998779296875
v 1035.006103515625 900.0001220703125 1674.9998779296875
v 1035.006103515625 900.0001220703125 1474.9998779296875
v 1055.006103515625 900.0001220703125 1474.9998779296875
v 1055.006103515625 900.0001220703125 1674.9998779296875
v 331.70745849609375 1000.0001220703125 1799.999755859375
v 331.70758056640625 -999.9998779296875 1800.0
v 1055.006103515625 1000.0001220703125 1799.9998779296875
v 1055.006103515625 -999.9998779296875 1800.0001220703125
v -444.99383544921875 405.0048828125 949.9998168945312
v -434.9962158203125 405.0048828125 949.9998168945312
v -444.99383544921875 405.0048828125 1059.9998779296875
v -434.9962158203125 405.0048828125 1059.9998779296875
v -434.9962158203125 405.0048828125 949.9998168945312
v -434.9962158203125 415.00244140625 949.9998168945312
v -434.9962158203125 405.0048828125 1059.9998779296875
v -434.9962158203125 415.00244140625 1059.9998779296875
v -434.9962158203125 415.00244140625 949.9998168945312
v -444.99383544921875 415.00244140625 949.9998168945312
v -434.9962158203125 415.00244140625 1059.9998779296875
v -444.99383544921875 415.00244140625 1059.9998779296875
v -444.99383544921875 415.00244140625 949.9998168945312
v -444.99383544921875 405.0048828125 949.9998168945312
v -444.99383544921875 415.00244140625 1059.9998779296875
v -444.99383544921875 405.0048828125 1059.9998779296875
v -444.99383544921875 405.0048828125 1059.9998779296875
v -434.9962158203125 405.0048828125 1059.9998779296875
v -434.9962158203125 415.00244140625 1059.9998779296875
v -444.99383544921875 415.00244140625 1059.9998779296875
v -439.9889221191406 -490.00250244140625 949.9999389648438
v -439.9889221191406 -500.00006103515625 949.9999389648438
v -439.9889221191406 -490.00244140625 1059.9998779296875
v -439.9889221191406 -500.0 1059.9998779296875
v -439.9889221191406 -500.00006103515625 949.9999389648438
v -429.9913024902344 -500.00006103515625 949.9999389648438
v -439.9889221191406 -500.0 1059.9998779296875
v -429.9913024902344 -500.0 1059.9998779296875
v -429.9913024902344 -500.00006103515625 949.9999389648438
v -429.9913024902344 -490.00250244140625 949.9999389648438
v -429.9913024902344 -500.0 1059.9998779296875
v -429.9913024902344 -490.00244140625 1059.9998779296875
v -429.9913024902344 -490.00250244140625 949.9999389648438
v -439.9889221191406 -490.00250244140625 949.9999389648438
v -429.9913024902344 -490.00244140625 1059.9998779296875
v -439.9889221191406 -490.00244140625 1059.9998779296875
v -439.9889221191406 -490.00244140625 1059.9998779296875
v -439.9889221191406 -500.0 1059.9998779296875
v -429.9913024902344 -490.00244140625 1059.9998779296875
v -429.9913024902344 -500.0 1059.9998779296875
v -739.9888916015625 -109.9976806640625 499.9998779296875
v -739.9888916015625 -119.9952392578125 499.9998779296875
v -739.9888916015625 -109.9976806640625 609.9998779296875
v -739.9888916015625 -119.9952392578125 609.9998779296875
v -739.9888916015625 -119.9952392578125 499.9998779296875
v -729.9913330078125 -119.9952392578125 499.9998779296875
v -739.9888916015625 -119.9952392578125 609.9998779296875
v -729.9913330078125 -119.9952392578125 609.9998779296875
v -729.9913330078125 -119.9952392578125 499.9998779296875
v -729.9913330078125 -109.9976806640625 499.9998779296875
v -729.9913330078125 -119.9952392578125 609.9998779296875
v -729.9913330078125 -109.9976806640625 609.9998779296875
v -729.9913330078125 -109.9976806640625 499.9998779296875
v -739.9888916015625 -109.9976806640625 499.9998779296875
v -729.9913330078125 -109.9976806640625 609.9998779296875
v -739.9888916015625 -109.9976806640625 609.9998779296875
v -739.9888916015625 -109.9976806640625 609.9998779296875
v -739.9888916015625 -119.9952392578125 609.9998779296875
v -729.9913330078125 -109.9976806640625 609.9998779296875
v -729.9913330078125 -119.9952392578125 609.9998779296875
v -744.9937744140625 -600.0000610351562 449.9999084472656
v -1084.99609375 -600.0000610351562 449.9999084472656
v -744.9937744140625 -600.0000610351562 499.9999084472656
v -1084.99609375 -600.0000610351562 499.9999084472656
v -1084.99609375 -600.0000610351562 449.9999084472656
v -1084.99609375 -1000.0001220703125 449.9999694824219
v -1084.99609375 -600.0000610351562 499.9999084472656
v -1084.99609375 -1000.0001220703125 499.9999694824219
v -1084.99609375 -600.0000610351562 449.9999084472656
v -744.9937744140625 -600.0000610351562 449.9999084472656
v -1084.99609375 -1000.0001220703125 449.9999694824219
v -744.9937744140625 -1000.0001220703125 449.9999694824219
v -1081.9052734375 -600.0000610351562 611.93896484375
v -1068.4464111328125 -1000.0000610351562 611.970947265625
v -1068.4464111328125 -600.0000610351562 611.970947265625
v -1081.9052734375 -1000.0000610351562 611.93896484375
v -1081.91259765625 -600.0000610351562 606.2279663085938
v -1081.9052734375 -1000.0000610351562 611.93896484375
v -1081.9052734375 -600.0000610351562 611.93896484375
v -1081.91259765625 -1000.0000610351562 606.2279663085938
v -1068.4442138671875 -600.0000610351562 606.2239379882812
v -1081.91259765625 -1000.0000610351562 606.2279663085938
v -1081.91259765625 -600.0000610351562 606.2279663085938
v -1068.4442138671875 -1000.0000610351562 606.2239379882812
v -1068.4464111328125 -600.0000610351562 611.970947265625
v -1068.4442138671875 -1000.0000610351562 606.2239379882812
v -1068.4442138671875 -600.0000610351562 606.2239379882812
v -1068.4464111328125 -1000.0000610351562 611.970947265625
v -1076.8509521484375 -600.0000610351562 581.4781494140625
v -1073.4696044921875 -1000.0000610351562 581.4781494140625
v -1073.4696044921875 -600.0000610351562 581.4781494140625
v -1076.8509521484375 -1000.0000610351562 581.4781494140625
v -1076.6322021484375 -600.0000610351562 576.1858520507812
v -1076.8509521484375 -1000.0000610351562 581.4781494140625
v -1076.8509521484375 -600.0000610351562 581.4781494140625
v -1076.6322021484375 -1000.0000610351562 576.1858520507812
v -1073.2509765625 -600.0000610351562 576.1858520507812
v -1076.6322021484375 -1000.0000610351562 576.1858520507812
v -1076.6322021484375 -600.0000610351562 576.1858520507812
v -1073.2509765625 -1000.0000610351562 576.1858520507812
v -1073.4696044921875 -600.0000610351562 581.4781494140625
v -1073.2509765625 -1000.0000610351562 576.1858520507812
v -1073.2509765625 -600.0000610351562 576.1858520507812
v -1073.4696044921875 -1000.0000610351562 581.4781494140625
v -1076.91943359375 -600.0000610351562 542.0910034179688
v -1073.164306640625 -1000.0000610351562 542.0910034179688
v -1073.164306640625 -600.0000610351562 542.0910034179688
v -1076.91943359375 -1000.0000610351562 542.0910034179688
v -1076.852783203125 -600.0000610351562 537.4921875
v -1076.91943359375 -1000.0000610351562 542.0910034179688
v -1076.91943359375 -600.0000610351562 542.0910034179688
v -1076.8526611328125 -1000.0000610351562 537.4921875
v -1073.1103515625 -600.0000610351562 537.5198364257812
v -1076.8526611328125 -1000.0000610351562 537.4921875
v -1076.852783203125 -600.0000610351562 537.4921875
v -1073.1103515625 -1000.0000610351562 537.5198364257812
v -1073.164306640625 -600.0000610351562 542.0910034179688
v -1073.1103515625 -1000.0000610351562 537.5198364257812
v -1073.1103515625 -600.0000610351562 537.5198364257812
v -1073.164306640625 -1000.0000610351562 542.0910034179688
v -1068.4442138671875 -600.0000610351562 606.2239379882812
v -1081.91259765625 -600.0000610351562 606.2279663085938
v -1081.9052734375 -600.0000610351562 611.93896484375
v -1068.4464111328125 -600.0000610351562 611.970947265625
v -1073.2509765625 -600.0000610351562 576.1858520507812
v -1076.6322021484375 -600.0000610351562 576.1858520507812
v -1073.4696044921875 -600.0000610351562 581.4781494140625
v -1076.8509521484375 -600.0000610351562 581.4781494140625
v -1076.91943359375 -600.0000610351562 542.0910034179688
v -1073.164306640625 -600.0000610351562 542.0910034179688
v -1073.1103515625 -600.0000610351562 537.5198364257812
v -1076.852783203125 -600.0000610351562 537.4921875
v -1081.9052734375 -1000.0000610351562 611.93896484375
v -1081.91259765625 -1000.0000610351562 606.2279663085938
v -1068.4442138671875 -1000.0000610351562 606.2239379882812
v -1068.4464111328125 -1000.0000610351562 611.970947265625
v -1073.4696044921875 -1000.0000610351562 581.4781494140625
v -1076.6322021484375 -1000.0000610351562 576.1858520507812
v -1073.2509765625 -1000.0000610351562 576.1858520507812
v -1076.8509521484375 -1000.0000610351562 581.4781494140625
v -1073.1103515625 -1000.0000610351562 537.5198364257812
v -1073.164306640625 -1000.0000610351562 542.0910034179688
v -1076.91943359375 -1000.0000610351562 542.0910034179688
v -1076.8526611328125 -1000.0000610351562 537.4921875
v -1070.0181884765625 -600.0000610351562 499.9999084472656
v -1070.0181884765625 -609.9976196289062 499.9999084472656
v -760.0206909179688 -600.0000610351562 499.9999084472656
v -1080.0157470703125 -609.9976196289062 499.9999084472656
v -1080.0157470703125 -600.0000610351562 499.9999084472656
v -1084.99609375 -1000.0001220703125 499.9999694824219
v -744.9937744140625 -605.0049438476562 499.9999084472656
v -760.0206909179688 -605.0049438476562 499.9999084472656
v -1084.99609375 -600.0000610351562 499.9999084472656
v -744.9937744140625 -605.0049438476562 499.9999084472656
v -730.0157470703125 -595.0073852539062 499.9999084472656
v -730.0157470703125 -605.0049438476562 499.9999084472656
v -760.0206909179688 -595.0073852539062 499.9999084472656
v -744.9937744140625 -600.0000610351562 499.9999084472656
v -760.0206909179688 -600.0000610351562 499.9999084472656
v -760.0206909179688 -605.0049438476562 499.9999084472656
v -730.0157470703125 -605.0049438476562 499.9999084472656
v -760.0206909179688 -605.0049438476562 609.9999389648438
v -730.0158081054688 -605.0049438476562 609.9999389648438
v -730.0157470703125 -605.0049438476562 499.9999084472656
v -730.0157470703125 -595.0073852539062 499.9999084472656
v -730.0158081054688 -605.0049438476562 609.9999389648438
v -730.0158081054688 -595.0073852539062 609.9999389648438
v -730.0157470703125 -595.0073852539062 499.9999084472656
v -760.0206909179688 -595.0073852539062 499.9999084472656
v -730.0158081054688 -595.0073852539062 609.9999389648438
v -760.0206909179688 -595.0073852539062 609.9999389648438
v -760.0206909179688 -595.0073852539062 499.9999084472656
v -760.0206909179688 -605.0049438476562 499.9999084472656
v -760.0206909179688 -595.0073852539062 609.9999389648438
v -760.0206909179688 -605.0049438476562 609.9999389648438
v -760.0206909179688 -605.0049438476562 609.9999389648438
v -730.0158081054688 -605.0049438476562 609.9999389648438
v -730.0158081054688 -595.0073852539062 609.9999389648438
v -760.0206909179688 -595.0073852539062 609.9999389648438
v -1080.0157470703125 -600.0000610351562 499.9999084472656
v -1080.0157470703125 -609.9976196289062 499.9999084472656
v -1080.0157470703125 -600.0000610351562 609.9999389648438
v -1080.0157470703125 -609.9976196289062 609.9999389648438
v -1080.0157470703125 -609.9976196289062 499.9999084472656
v -1070.0181884765625 -609.9976196289062 499.9999084472656
v -1080.0157470703125 -609.9976196289062 609.9999389648438
v -1070.0181884765625 -609.9976196289062 609.9999389648438
v -1070.0181884765625 -609.9976196289062 499.9999084472656
v -1070.0181884765625 -600.0000610351562 499.9999084472656
v -1070.0181884765625 -609.9976196289062 609.9999389648438
v -1070.0181884765625 -600.0000610351562 609.9999389648438
v -1070.0181884765625 -600.0000610351562 499.9999084472656
v -1080.0157470703125 -600.0000610351562 499.9999084472656
v -1070.0181884765625 -600.0000610351562 609.9999389648438
v -1080.0157470703125 -600.0000610351562 609.9999389648438
v -1080.0157470703125 -600.0000610351562 609.9999389648438
v -1080.0157470703125 -609.9976196289062 609.9999389648438
v -1070.0181884765625 -600.0000610351562 609.9999389648438
v -1070.0181884765625 -609.9976196289062 609.9999389648438
v -764.9889526367188 400.0 949.9998168945312
v -764.9889526367188 400.0 899.9998168945312
v -764.99365234375 -600.0003662109375 499.9999084472656
v -764.99365234375 -600.0003662109375 449.9999084472656
v -764.99365234375 -600.0003662109375 449.9999084472656
v -744.9985961914062 -600.0003662109375 449.9999084472656
v -764.99365234375 -600.0003662109375 499.9999084472656
v -744.9985961914062 -600.0003662109375 499.9999084472656
v -744.9938354492188 400.0 899.9998168945312
v -744.9985961914062 -600.0003662109375 499.9999084472656
v -744.9985961914062 -600.0003662109375 449.9999084472656
v -744.9938354492188 400.0 949.9998168945312
v -764.9889526367188 400.0 899.9998168945312
v -744.9938354492188 400.0 899.9998168945312
v -764.99365234375 -600.0003662109375 449.9999084472656
v -744.9985961914062 -600.0003662109375 449.9999084472656
v -748.0895385742188 -600.0003662109375 611.93896484375
v -761.5436401367188 400.0 1061.9708251953125
v -761.5484008789062 -600.000244140625 611.970947265625
v -748.0847778320312 400.0 1061.93896484375
v -748.0820922851562 -600.0003662109375 606.2279663085938
v -748.0847778320312 400.0 1061.93896484375
v -748.0895385742188 -600.0003662109375 611.93896484375
v -748.0773315429688 400.0 1056.2279052734375
v -761.550537109375 -600.000244140625 606.2239379882812
v -748.0773315429688 400.0 1056.2279052734375
v -748.0820922851562 -600.0003662109375 606.2279663085938
v -761.5458374023438 400.0 1056.223876953125
v -761.5484008789062 -600.000244140625 611.970947265625
v -761.5458374023438 400.0 1056.223876953125
v -761.550537109375 -600.000244140625 606.2239379882812
v -761.5436401367188 400.0 1061.9708251953125
v -753.143798828125 -600.0003662109375 581.4781494140625
v -756.5203857421875 400.0 1031.4781494140625
v -756.525146484375 -600.000244140625 581.4781494140625
v -753.1390991210938 400.0 1031.4781494140625
v -753.362548828125 -600.0003662109375 576.1858520507812
v -753.1390991210938 400.0 1031.4781494140625
v -753.143798828125 -600.0003662109375 581.4781494140625
v -753.3577880859375 400.0 1026.185791015625
v -756.7438354492188 -600.000244140625 576.1858520507812
v -753.3577880859375 400.0 1026.185791015625
v -753.362548828125 -600.0003662109375 576.1858520507812
v -756.7390747070312 400.0 1026.185791015625
v -756.525146484375 -600.000244140625 581.4781494140625
v -756.7390747070312 400.0 1026.185791015625
v -756.7438354492188 -600.000244140625 576.1858520507812
v -756.5203857421875 400.0 1031.4781494140625
v -753.0753173828125 -600.0003662109375 542.0910034179688
v -756.82568359375 400.0 992.0908813476562
v -756.8303833007812 -600.000244140625 542.0910034179688
v -753.0706176757812 400.0 992.0908813476562
v -753.1420288085938 -600.0003662109375 537.4921875
v -753.0706176757812 400.0 992.0908813476562
v -753.0753173828125 -600.0003662109375 542.0910034179688
v -753.1372680664062 400.0 987.4920654296875
v -756.8843383789062 -600.000244140625 537.5198364257812
v -753.1372680664062 400.0 987.4920654296875
v -753.1420288085938 -600.0003662109375 537.4921875
v -756.879638671875 400.0 987.519775390625
v -756.8303833007812 -600.000244140625 542.0910034179688
v -756.879638671875 400.0 987.519775390625
v -756.8843383789062 -600.000244140625 537.5198364257812
v -756.82568359375 400.0 992.0908813476562
v -761.550537109375 -600.000244140625 606.2239379882812
v -748.0820922851562 -600.0003662109375 606.2279663085938
v -748.0895385742188 -600.0003662109375 611.93896484375
v -761.5484008789062 -600.000244140625 611.970947265625
v -756.7438354492188 -600.000244140625 576.1858520507812
v -753.362548828125 -600.0003662109375 576.1858520507812
v -756.525146484375 -600.000244140625 581.4781494140625
v -753.143798828125 -600.0003662109375 581.4781494140625
v -753.0753173828125 -600.0003662109375 542.0910034179688
v -756.8303833007812 -600.000244140625 542.0910034179688
v -756.8843383789062 -600.000244140625 537.5198364257812
v -753.1420288085938 -600.0003662109375 537.4921875
v -748.0847778320312 400.0 1061.93896484375
v -748.0773315429688 400.0 1056.2279052734375
v -761.5458374023438 400.0 1056.223876953125
v -761.5436401367188 400.0 1061.9708251953125
v -756.5203857421875 400.0 1031.4781494140625
v -753.3577880859375 400.0 1026.185791015625
v -756.7390747070312 400.0 1026.185791015625
v -753.1390991210938 400.0 1031.4781494140625
v -756.879638671875 400.0 987.519775390625
v -756.82568359375 400.0 992.0908813476562
v -753.0706176757812 400.0 992.0908813476562
v -753.1372680664062 400.0 987.4920654296875
v -764.9889526367188 400.0 949.9998168945312
v -764.99365234375 -600.0003662109375 499.9999084472656
v -744.9938354492188 400.0 949.9998168945312
v -744.9985961914062 -600.0003662109375 499.9999084472656
v -1085.0013427734375 399.9996337890625 949.9998168945312
v -1085.0013427734375 399.9996337890625 899.9998168945312
v -1085.006103515625 -600.000732421875 499.9999084472656
v -1085.006103515625 -600.000732421875 449.9999084472656
v -1085.006103515625 -600.000732421875 449.9999084472656
v -1065.010986328125 -600.000732421875 449.9999084472656
v -1085.006103515625 -600.000732421875 499.9999084472656
v -1065.010986328125 -600.000732421875 499.9999084472656
v -1065.0062255859375 399.9996337890625 899.9998168945312
v -1065.010986328125 -600.000732421875 499.9999084472656
v -1065.010986328125 -600.000732421875 449.9999084472656
v -1065.0062255859375 399.9996337890625 949.9998168945312
v -1085.0013427734375 399.9996337890625 899.9998168945312
v -1065.0062255859375 399.9996337890625 899.9998168945312
v -1085.006103515625 -600.000732421875 449.9999084472656
v -1065.010986328125 -600.000732421875 449.9999084472656
v -1068.1019287109375 -600.000732421875 611.93896484375
v -1081.5560302734375 399.9996337890625 1061.9708251953125
v -1081.560791015625 -600.0006103515625 611.970947265625
v -1068.09716796875 399.9996337890625 1061.93896484375
v -1068.094482421875 -600.000732421875 606.2279663085938
v -1068.09716796875 399.9996337890625 1061.93896484375
v -1068.1019287109375 -600.000732421875 611.93896484375
v -1068.0897216796875 399.9996337890625 1056.2279052734375
v -1081.56298828125 -600.0006103515625 606.2239379882812
v -1068.0897216796875 399.9996337890625 1056.2279052734375
v -1068.094482421875 -600.000732421875 606.2279663085938
v -1081.5582275390625 399.9996337890625 1056.223876953125
v -1081.560791015625 -600.0006103515625 611.970947265625
v -1081.5582275390625 399.9996337890625 1056.223876953125
v -1081.56298828125 -600.0006103515625 606.2239379882812
v -1081.5560302734375 399.9996337890625 1061.9708251953125
v -1073.15625 -600.000732421875 581.4781494140625
v -1076.53271484375 399.9996337890625 1031.4781494140625
v -1076.5374755859375 -600.0006103515625 581.4781494140625
v -1073.1514892578125 399.9996337890625 1031.4781494140625
v -1073.375 -600.000732421875 576.1858520507812
v -1073.1514892578125 399.9996337890625 1031.4781494140625
v -1073.15625 -600.000732421875 581.4781494140625
v -1073.3701171875 399.9996337890625 1026.185791015625
v -1076.7562255859375 -600.0006103515625 576.1858520507812
v -1073.3701171875 399.9996337890625 1026.185791015625
v -1073.375 -600.000732421875 576.1858520507812
v -1076.75146484375 399.9996337890625 1026.185791015625
v -1076.5374755859375 -600.0006103515625 581.4781494140625
v -1076.75146484375 399.9996337890625 1026.185791015625
v -1076.7562255859375 -600.0006103515625 576.1858520507812
v -1076.53271484375 399.9996337890625 1031.4781494140625
v -1073.0877685546875 -600.000732421875 542.0910034179688
v -1076.8380126953125 399.9996337890625 992.0908813476562
v -1076.8427734375 -600.0006103515625 542.0910034179688
v -1073.0830078125 399.9996337890625 992.0908813476562
v -1073.1544189453125 -600.000732421875 537.4921875
v -1073.0830078125 399.9996337890625 992.0908813476562
v -1073.0877685546875 -600.000732421875 542.0910034179688
v -1073.149658203125 399.9996337890625 987.4920654296875
v -1076.896728515625 -600.0006103515625 537.5198364257812
v -1073.149658203125 399.9996337890625 987.4920654296875
v -1073.1544189453125 -600.000732421875 537.4921875
v -1076.89208984375 399.9996337890625 987.519775390625
v -1076.8427734375 -600.0006103515625 542.0910034179688
v -1076.89208984375 399.9996337890625 987.519775390625
v -1076.896728515625 -600.0006103515625 537.5198364257812
v -1076.8380126953125 399.9996337890625 992.0908813476562
v -1081.56298828125 -600.0006103515625 606.2239379882812
v -1068.094482421875 -600.000732421875 606.2279663085938
v -1068.1019287109375 -600.000732421875 611.93896484375
v -1081.560791015625 -600.0006103515625 611.970947265625
v -1076.7562255859375 -600.0006103515625 576.1858520507812
v -1073.375 -600.000732421875 576.1858520507812
v -1076.5374755859375 -600.0006103515625 581.4781494140625
v -1073.15625 -600.000732421875 581.4781494140625
v -1073.0877685546875 -600.000732421875 542.0910034179688
v -1076.8427734375 -600.0006103515625 542.0910034179688
v -1076.896728515625 -600.0006103515625 537.5198364257812
v -1073.1544189453125 -600.000732421875 537.4921875
v -1068.09716796875 399.9996337890625 1061.93896484375
v -1068.0897216796875 399.9996337890625 1056.2279052734375
v -1081.5582275390625 399.9996337890625 1056.223876953125
v -1081.5560302734375 399.9996337890625 1061.9708251953125
v -1076.53271484375 399.9996337890625 1031.4781494140625
v -1073.3701171875 399.9996337890625 1026.185791015625
v -1076.75146484375 399.9996337890625 1026.185791015625
v -1073.1514892578125 399.9996337890625 1031.4781494140625
v -1076.89208984375 399.9996337890625 987.519775390625
v -1076.8380126953125 399.9996337890625 992.0908813476562
v -1073.0830078125 399.9996337890625 992.0908813476562
v -1073.149658203125 399.9996337890625 987.4920654296875
v -1085.0013427734375 399.9996337890625 949.9998168945312
v -1085.006103515625 -600.000732421875 499.9999084472656
v -1065.0062255859375 399.9996337890625 949.9998168945312
v -1065.010986328125 -600.000732421875 499.9999084472656
f 26 25 27
f 28 26 27
f 215 27 216
f 217 215 216
f 712 714 711
f 712 711 713
f 417 416 467
f 468 417 467
f 478 477 468
f 473 478 468
f 468 467 473
f 473 467 474
f 474 467 476
f 475 474 476
f 476 477 475
f 475 477 478
f 413 267 414
f 414 267 416
f 415 414 416
f 416 417 415
f 415 417 418
f 418 417 268
f 413 418 268
f 268 267 413
f 436 438 435
f 436 435 437
f 424 423 425
f 426 424 425
f 420 419 421
f 420 421 422
f 410 409 411
f 412 410 411
f 406 405 407
f 408 406 407
f 394 393 395
f 396 394 395
f 382 381 383
f 384 382 383
f 370 369 371
f 372 370 371
f 362 361 363
f 363 368 362
f 368 367 362
f 365 367 368
f 366 367 365
f 365 364 366
f 364 361 366
f 363 361 364
f 724 723 725
f 725 723 726
f 722 719 720
f 720 719 721
f 716 715 717
f 715 718 717
f 448 447 449
f 449 447 450
f 446 443 444
f 444 443 445
f 440 439 441
f 439 442 441
f 432 431 433
f 433 431 434
f 430 427 428
f 428 427 429
f 247 246 248
f 248 246 249
f 245 242 243
f 243 242 244
f 231 230 232
f 232 230 233
f 229 226 227
f 227 226 228
f 140 137 138
f 138 137 139
f 136 133 134
f 134 133 135
f 132 129 130
f 130 129 131
f 128 125 126
f 126 125 127
f 114 113 115
f 115 113 116
f 112 109 110
f 110 109 111
f 106 105 107
f 105 108 107
f 19 13 20
f 20 24 19
f 24 23 19
f 22 23 24
f 17 23 22
f 22 21 17
f 14 18 13
f 13 10 14
f 14 10 15
f 15 10 12
f 16 15 12
f 12 17 16
f 16 17 18
f 18 17 13
f 21 13 17
f 20 13 21
f 10 9 11
f 12 10 11
f 239 238 240
f 241 239 240
f 235 234 236
f 235 236 237
f 223 222 224
f 225 223 224
f 219 218 220
f 219 220 221
f 212 211 213
f 214 212 213
f 208 207 209
f 210 208 209
f 196 195 197
f 198 196 197
f 188 187 189
f 189 194 188
f 194 193 188
f 191 193 194
f 192 193 191
f 191 190 192
f 190 187 192
f 189 187 190
f 8 7 2
f 3 8 2
f 2 1 3
f 3 1 4
f 4 1 6
f 5 4 6
f 6 7 5
f 5 7 8
f 386 385 387
f 387 392 386
f 392 391 386
f 389 391 392
f 390 391 389
f 389 388 390
f 388 385 390
f 387 385 388
f 184 183 185
f 186 184 185
f 172 171 173
f 174 172 173
f 164 163 165
f 165 170 164
f 170 169 164
f 167 169 170
f 168 169 167
f 167 166 168
f 166 163 168
f 165 163 166
f 102 104 101
f 102 101 103
f 30 32 29
f 30 29 31
f 54 56 53
f 54 53 55
f 50 52 49
f 50 49 51
f 46 48 45
f 46 45 47
f 42 44 41
f 42 41 43
f 38 40 37
f 38 37 39
f 34 36 33
f 34 33 35
f 1092 1091 1093
f 1094 1092 1093
f 1084 1086 1083
f 1084 1083 1085
f 1080 1082 1079
f 1080 1079 1081
f 1076 1078 1075
f 1076 1075 1077
f 1072 1074 1071
f 1072 1071 1073
f 1068 1070 1067
f 1068 1067 1069
f 1064 1066 1063
f 1064 1063 1065
f 1060 1062 1059
f 1060 1059 1061
f 1056 1058 1055
f 1056 1055 1057
f 1052 1054 1051
f 1052 1051 1053
f 1048 1050 1047
f 1048 1047 1049
f 1044 1046 1043
f 1044 1043 1045
f 1040 1042 1039
f 1040 1039 1041
f 1000 999 1001
f 1002 1000 1001
f 992 994 991
f 992 991 993
f 988 990 987
f 988 987 989
f 984 986 983
f 984 983 985
f 980 982 979
f 980 979 981
f 976 978 975
f 976 975 977
f 972 974 971
f 972 971 973
f 968 970 967
f 968 967 969
f 964 966 963
f 964 963 965
f 960 962 959
f 960 959 961
f 956 958 955
f 956 955 957
f 952 954 951
f 952 951 953
f 948 950 947
f 948 947 949
f 928 927 929
f 930 928 929
f 924 923 925
f 926 924 925
f 920 919 921
f 922 920 921
f 916 915 917
f 918 916 917
f 912 911 913
f 914 912 913
f 904 903 905
f 906 904 905
f 900 899 901
f 902 900 901
f 896 895 897
f 898 896 897
f 892 891 893
f 894 892 893
f 856 855 857
f 858 856 857
f 848 850 847
f 848 847 849
f 844 846 843
f 844 843 845
f 840 842 839
f 840 839 841
f 836 838 835
f 836 835 837
f 832 834 831
f 832 831 833
f 828 830 827
f 828 827 829
f 824 826 823
f 824 823 825
f 820 822 819
f 820 819 821
f 816 818 815
f 816 815 817
f 812 814 811
f 812 811 813
f 808 810 807
f 808 807 809
f 804 806 803
f 804 803 805
f 788 787 789
f 790 788 789
f 784 783 785
f 786 784 785
f 780 779 781
f 782 780 781
f 776 775 777
f 778 776 777
f 772 771 773
f 774 772 773
f 768 767 769
f 770 768 769
f 764 763 765
f 766 764 765
f 760 759 761
f 762 760 761
f 756 755 757
f 758 756 757
f 752 751 753
f 754 752 753
f 744 743 745
f 746 744 745
f 740 739 741
f 742 740 741
f 736 735 737
f 738 736 737
f 732 731 733
f 734 732 733
f 604 603 605
f 606 604 605
f 580 579 581
f 582 580 581
f 572 574 571
f 572 571 573
f 568 570 567
f 568 567 569
f 564 566 563
f 564 563 565
f 560 562 559
f 560 559 561
f 556 558 555
f 556 555 557
f 552 554 551
f 552 551 553
f 548 550 547
f 548 547 549
f 544 546 543
f 544 543 545
f 540 542 539
f 540 539 541
f 536 538 535
f 536 535 537
f 532 534 531
f 532 531 533
f 528 530 527
f 528 527 529
f 524 526 523
f 524 523 525
f 520 522 519
f 520 519 521
f 516 518 515
f 516 515 517
f 512 514 511
f 512 511 513
f 508 510 507
f 508 507 509
f 504 506 503
f 504 503 505
f 500 502 499
f 500 499 501
f 496 498 495
f 496 495 497
f 492 494 491
f 492 491 493
f 488 490 487
f 488 487 489
f 484 486 483
f 484 483 485
f 480 482 479
f 480 479 481
f 322 321 323
f 324 322 323
f 314 316 313
f 314 313 315
f 310 312 309
f 310 309 311
f 306 308 305
f 306 305 307
f 302 304 301
f 302 301 303
f 298 300 297
f 298 297 299
f 294 296 293
f 294 293 295
f 290 292 289
f 290 289 291
f 286 288 285
f 286 285 287
f 282 284 281
f 282 281 283
f 278 280 277
f 278 277 279
f 274 276 273
f 274 273 275
f 270 272 269
f 270 269 271
f 82 81 83
f 84 82 83
f 74 76 73
f 74 73 75
f 70 72 69
f 70 69 71
f 66 68 65
f 66 65 67
f 62 64 61
f 62 61 63
f 58 60 57
f 58 57 59
f 78 77 79
f 79 77 80
f 86 85 87
f 87 85 88
f 90 89 91
f 89 92 91
f 96 93 94
f 94 93 95
f 98 97 99
f 97 100 99
f 318 317 319
f 319 317 320
f 326 325 327
f 327 325 328
f 330 329 331
f 329 332 331
f 336 333 334
f 334 333 335
f 338 337 339
f 337 340 339
f 576 575 577
f 577 575 578
f 584 583 585
f 585 583 586
f 588 587 589
f 587 590 589
f 594 591 592
f 592 591 593
f 596 595 597
f 595 598 597
f 600 599 601
f 601 599 602
f 608 607 609
f 609 607 610
f 612 611 613
f 611 614 613
f 618 615 616
f 616 615 617
f 620 619 621
f 619 622 621
f 748 747 749
f 747 750 749
f 852 851 853
f 853 851 854
f 860 859 861
f 861 859 862
f 864 863 865
f 863 866 865
f 870 867 868
f 868 867 869
f 872 871 873
f 871 874 873
f 908 907 909
f 907 910 909
f 996 995 997
f 997 995 998
f 1004 1003 1005
f 1005 1003 1006
f 1008 1007 1009
f 1007 1010 1009
f 1014 1011 1012
f 1012 1011 1013
f 1016 1015 1017
f 1015 1018 1017
f 1088 1087 1089
f 1089 1087 1090
f 1096 1095 1097
f 1097 1095 1098
f 1100 1099 1101
f 1099 1102 1101
f 1106 1103 1104
f 1104 1103 1105
f 1108 1107 1109
f 1107 1110 1109
f 160 159 161
f 160 161 162
f 882 881 883
f 877 883 876
f 883 881 876
f 876 881 880
f 878 876 880
f 879 878 880
f 880 884 879
f 876 875 877
f 118 117 119
f 120 118 119
f 346 345 347
f 347 351 346
f 344 343 345
f 345 343 347
f 343 341 347
f 342 341 343
f 359 353 360
f 353 351 360
f 351 353 346
f 353 354 346
f 346 354 349
f 352 346 349
f 350 352 349
f 349 348 350
f 350 348 344
f 344 345 350
f 357 355 358
f 355 354 358
f 354 355 349
f 355 356 349
f 889 888 890
f 886 888 889
f 886 889 885
f 886 885 887
f 143 150 142
f 150 145 142
f 145 152 142
f 151 152 145
f 157 151 158
f 151 149 158
f 149 151 145
f 146 149 145
f 145 144 146
f 144 143 146
f 143 148 146
f 147 148 143
f 141 147 143
f 142 141 143
f 155 153 156
f 153 152 156
f 152 153 142
f 153 154 142
f 264 263 265
f 266 264 265
f 254 252 255
f 251 253 250
f 251 250 252
f 251 252 258
f 259 254 260
f 259 256 254
f 256 252 254
f 257 252 256
f 258 252 257
f 261 258 257
f 261 257 262
f 1031 1032 1034
f 1032 1031 1033
f 939 940 942
f 940 939 941
f 459 454 460
f 459 456 454
f 457 453 456
f 456 453 454
f 454 453 455
f 452 451 453
f 452 453 458
f 458 453 457
f 461 458 457
f 461 457 462
f 704 703 705
f 703 706 705
f 706 708 705
f 709 708 706
f 710 708 709
f 707 706 703
f 698 697 699
f 697 695 699
f 699 695 701
f 700 699 701
f 702 700 701
f 696 695 697
f 691 690 687
f 688 687 689
f 687 690 689
f 690 692 689
f 693 692 690
f 694 692 693
f 682 681 683
f 686 684 685
f 684 683 685
f 683 679 685
f 681 679 683
f 680 679 681
f 122 121 123
f 122 123 124
f 1112 1111 1113
f 1114 1112 1113
f 1036 1035 1037
f 1036 1037 1038
f 1028 1027 1029
f 1030 1028 1029
f 1024 1023 1025
f 1025 1026 1024
f 1020 1019 1021
f 1022 1020 1021
f 944 943 945
f 944 945 946
f 936 935 937
f 938 936 937
f 932 931 933
f 933 934 932
f 800 799 801
f 800 801 802
f 796 795 797
f 798 796 797
f 792 791 793
f 794 792 793
f 728 727 729
f 730 728 729
f 676 678 675
f 676 675 677
f 672 674 671
f 672 671 673
f 668 670 667
f 668 667 669
f 664 666 663
f 664 663 665
f 660 662 659
f 660 659 661
f 656 658 655
f 656 655 657
f 652 654 651
f 652 651 653
f 648 650 647
f 648 647 649
f 644 646 643
f 644 643 645
f 640 642 639
f 640 639 641
f 636 638 635
f 636 635 637
f 632 634 631
f 632 631 633
f 628 630 627
f 628 627 629
f 624 626 623
f 624 623 625
f 464 463 465
f 466 464 465
f 217 216 267
f 268 217 267
f 176 175 177
f 177 175 179
f 178 177 179
f 179 182 178
f 178 182 181
f 181 180 178
f 398 397 399
f 399 397 401
f 400 399 401
f 401 404 400
f 400 404 403
f 403 402 400
f 200 199 201
f 201 199 203
f 202 201 203
f 203 206 202
f 202 206 205
f 205 204 202
f 374 373 375
f 375 373 377
f 376 375 377
f 377 380 376
f 376 380 379
f 379 378 376
f 470 469 471
f 472 470 471
f 1116 1115 1117
f 1117 1115 1118
f 1120 1119 1121
f 1121 1119 1122
