# from WaterfrontDistrict_Block09_Generic_0007_LOD_0.pskx
v -181.359619140625 -928.3021240234375 9.340007818536833e-05
v 155.6641845703125 -833.9172973632812 -0.00010011947597377002
v -181.35968017578125 -928.3019409179688 1759.9998779296875
v 155.66412353515625 -833.9171142578125 1759.9996337890625
v 155.6641845703125 -833.917236328125 -0.00010011951962951571
v 190.3199462890625 -772.283935546875 -0.00010399282473372295
v 155.66412353515625 -833.9171142578125 1760.0
v 190.31988525390625 -772.2838134765625 1760.0
v -218.9207763671875 -886.8958740234375 8.813838212518021e-05
v -181.359619140625 -928.3021240234375 9.340007818536833e-05
v -218.92083740234375 -886.895751953125 1760.000244140625
v -181.35968017578125 -928.3019409179688 1760.000244140625
v -218.92083740234375 -886.895751953125 1760.000244140625
v -181.35968017578125 -928.3019409179688 1760.000244140625
v 155.66412353515625 -833.9171142578125 1760.0
v 190.31988525390625 -772.2838134765625 1760.0
v -218.90863037109375 -886.932373046875 1760.000244140625
v 647.7417602539062 -644.1832885742188 1760.000244140625
v -175.74456787109375 -1040.997314453125 1760.0009765625
v 690.9180297851562 -798.2481689453125 1760.0009765625
v -218.90863037109375 -886.932373046875 1760.000244140625
v -175.74456787109375 -1040.997314453125 1760.0009765625
v -218.90863037109375 -886.932373046875 1780.000244140625
v -175.74456787109375 -1040.997314453125 1780.0010986328125
v -175.74456787109375 -1040.997314453125 1760.0009765625
v 690.9179077148438 -798.2481689453125 1760.0009765625
v -175.74456787109375 -1040.997314453125 1780.0010986328125
v 690.9179077148438 -798.2481689453125 1780.0010986328125
v 690.9180297851562 -798.2481689453125 1760.0009765625
v 647.7417602539062 -644.1832885742188 1760.000244140625
v 690.9180297851562 -798.2481689453125 1780.0010986328125
v 647.7417602539062 -644.1832885742188 1780.000244140625
v -218.90863037109375 -886.932373046875 1780.000244140625
v -175.74456787109375 -1040.997314453125 1780.0010986328125
v 647.7417602539062 -644.1832885742188 1780.000244140625
v 690.9180297851562 -798.2481689453125 1780.0010986328125
v -199.64593505859375 -881.536865234375 1780.000244140625
v -156.48187255859375 -1035.601806640625 1780.0010986328125
v -175.74456787109375 -1040.997314453125 1780.0010986328125
v -218.93304443359375 -886.8834228515625 1780.0001220703125
v 647.7051391601562 -644.1466064453125 1780.0001220703125
v 690.9180297851562 -798.2481689453125 1780.0010986328125
v 671.6553344726562 -803.6436767578125 1780.0010986328125
v 628.4790649414062 -649.5787963867188 1780.000244140625
v -156.48187255859375 -1035.601806640625 1780.0010986328125
v -175.74456787109375 -1040.9971923828125 1930.0010986328125
v -156.48187255859375 -1035.6016845703125 1930.0010986328125
v -156.48187255859375 -1035.601806640625 1780.0010986328125
v -199.64593505859375 -881.536865234375 1780.000244140625
v -156.48187255859375 -1035.6016845703125 1930.0010986328125
v -199.64593505859375 -881.536865234375 1930.000244140625
v -218.93304443359375 -886.8834228515625 1780.0001220703125
v -218.93304443359375 -886.8834228515625 1930.0001220703125
v -175.74456787109375 -1040.9971923828125 1930.0010986328125
v -199.64593505859375 -881.536865234375 1930.000244140625
v -175.74456787109375 -1040.9971923828125 1930.0010986328125
v -156.48187255859375 -1035.6016845703125 1930.0010986328125
v -218.93304443359375 -886.8834228515625 1930.0001220703125
v 690.9180297851562 -798.2482299804688 1930.0008544921875
v -175.74456787109375 -1040.9971923828125 1930.0008544921875
v 647.7417602539062 -644.1832885742188 1930.00048828125
v -218.90863037109375 -886.932373046875 1930.00048828125
v -175.74456787109375 -1040.9971923828125 1930.0008544921875
v 690.9179077148438 -798.2482299804688 1930.0008544921875
v -175.74456787109375 -1040.9971923828125 1950.0009765625
v 690.9179077148438 -798.2482299804688 1950.0009765625
v 690.9180297851562 -798.2482299804688 1930.0008544921875
v 647.7417602539062 -644.1832885742188 1930.00048828125
v 690.9180297851562 -798.2482299804688 1950.0009765625
v 647.7417602539062 -644.1832885742188 1950.0006103515625
v -218.90863037109375 -886.932373046875 1930.00048828125
v -175.74456787109375 -1040.9971923828125 1930.0008544921875
v -218.90863037109375 -886.932373046875 1950.0006103515625
v -175.74456787109375 -1040.9971923828125 1950.0009765625
v 690.9180297851562 -798.2482299804688 1950.0009765625
v 647.7417602539062 -644.1832885742188 1950.0006103515625
v -175.74456787109375 -1040.9971923828125 1950.0009765625
v -218.90863037109375 -886.932373046875 1950.0006103515625
v 647.7051391601562 -644.1466064453125 1780.0001220703125
v 690.9180297851562 -798.2481689453125 1930.0010986328125
v 647.705078125 -644.1466064453125 1930.0001220703125
v 628.47900390625 -649.5787963867188 1780.000244140625
v 671.6553344726562 -803.6436767578125 1780.0010986328125
v 628.47900390625 -649.5787963867188 1930.000244140625
v 671.6553344726562 -803.6436767578125 1930.0010986328125
v 671.6553344726562 -803.6436767578125 1780.0010986328125
v 690.9180297851562 -798.2481689453125 1780.0010986328125
v 671.6553344726562 -803.6436767578125 1930.0010986328125
v 690.9180297851562 -798.2481689453125 1930.0010986328125
v 190.3199462890625 -772.2595825195312 0.00019600504310801625
v 251.9532470703125 -806.9275512695312 0.0002017298829741776
v 190.31988525390625 -772.2593994140625 1760.000244140625
v 251.95318603515625 -806.9274291992188 1760.000244140625
v 251.9532470703125 -806.9275512695312 0.0002017298829741776
v 613.0616455078125 -705.7922973632812 0.00010867290257010609
v 251.95318603515625 -806.9274291992188 1760.000244140625
v 613.0615844726562 -705.7921142578125 1760.0
v 613.0616455078125 -705.792236328125 0.00010867290257010609
v 647.7174682617188 -644.158935546875 0.00010479960474185646
v 613.0615844726562 -705.7921142578125 1760.0
v 647.7174072265625 -644.1588134765625 1760.0
v 647.7296142578125 -644.1467895507812 0.00020479907107073814
v 422.1590881347656 161.1947021484375 0.00012453387898858637
v 422.1590576171875 161.1947021484375 259.71014404296875
v 388.8408508300781 280.14862060546875 259.7101135253906
v 647.7296142578125 -644.146728515625 400.00018310546875
v 388.8408508300781 280.14862060546875 0.00011267822264926508
v 175.7325439453125 1040.9970703125 3.684747207444161e-05
v 175.73251342773438 1040.9970703125 400.0
v 175.73248291015625 1040.997314453125 3.6847453884547576e-05
v -690.9178466796875 798.2482299804688 2.0186753317830153e-05
v 136.44451904296875 1029.99267578125 10.000036239624023
v 136.44448852539062 1029.99267578125 269.6999816894531
v 17.5216064453125 996.6823120117188 269.6999816894531
v -62.26397705078125 974.3344116210938 299.99993896484375
v -447.439697265625 866.4465942382812 299.9999084472656
v 175.73245239257812 1040.997314453125 400.0
v -690.91796875 798.2482299804688 400.0
v -447.439697265625 866.4465942382812 99.99991607666016
v -62.26397705078125 974.3344116210938 99.99992370605469
v 17.5216064453125 996.6823120117188 10.00003433227539
v -690.9178466796875 798.2482299804688 2.0186753317830153e-05
v -218.9329833984375 -886.8834228515625 0.00018813674978446215
v -463.1248779296875 -15.04345703125 10.000102043151855
v -601.3800048828125 478.57025146484375 300.0000305175781
v -493.4967041015625 93.3935546875 300.00006103515625
v -690.91796875 798.2482299804688 400.0
v -601.3800048828125 478.57025146484375 100.00006103515625
v -218.9329833984375 -886.8833618164062 400.00018310546875
v -429.8157958984375 -133.9666748046875 269.7000732421875
v -429.8157958984375 -133.96670532226562 10.000113487243652
v -493.4967041015625 93.3935546875 100.0000991821289
v -463.1248779296875 -15.04345703125 269.7000427246094
v 139.13919067382812 1020.3721313476562 269.6999816894531
v 20.21630859375 987.0618286132812 269.6999816894531
v 136.44448852539062 1029.99267578125 269.6999816894531
v 17.5216064453125 996.6823120117188 269.6999816894531
v 139.13922119140625 1020.3721313476562 10.00003719329834
v 136.44451904296875 1029.99267578125 10.000036239624023
v 20.21630859375 987.0618286132812 10.000035285949707
v 17.5216064453125 996.6823120117188 10.00003433227539
v 139.13919067382812 1020.3721313476562 269.6999816894531
v 136.44451904296875 1029.99267578125 10.000036239624023
v 139.13922119140625 1020.3721313476562 10.00003719329834
v 136.44448852539062 1029.99267578125 269.6999816894531
v 20.21630859375 987.0618286132812 269.6999816894531
v 20.21630859375 987.0618286132812 10.000035285949707
v 17.5216064453125 996.6823120117188 10.00003433227539
v 17.5216064453125 996.6823120117188 269.6999816894531
v -429.8157958984375 -133.9666748046875 269.7000732421875
v -463.1248779296875 -15.04345703125 269.7000427246094
v -453.503662109375 -12.34869384765625 269.7000427246094
v -420.1947021484375 -131.27194213867188 269.7000732421875
v -429.8157958984375 -133.96670532226562 10.000113487243652
v -453.503662109375 -12.34869384765625 10.000101089477539
v -463.1248779296875 -15.04345703125 10.000102043151855
v -420.1947021484375 -131.27197265625 10.000113487243652
v -453.503662109375 -12.34869384765625 269.7000427246094
v -463.1248779296875 -15.04345703125 10.000102043151855
v -453.503662109375 -12.34869384765625 10.000101089477539
v -463.1248779296875 -15.04345703125 269.7000427246094
v -420.1947021484375 -131.27194213867188 269.7000732421875
v -420.1947021484375 -131.27197265625 10.000113487243652
v -429.8157958984375 -133.96670532226562 10.000113487243652
v -429.8157958984375 -133.9666748046875 269.7000732421875
v -218.9329833984375 -886.8958740234375 400.00018310546875
v 647.7174072265625 -644.158935546875 400.00018310546875
v -190.9058837890625 -879.0457763671875 1789.131103515625
v -190.9058837890625 -879.0457153320312 1924.1309814453125
v 617.9656372070312 -652.4918212890625 1924.1309814453125
v -218.93304443359375 -886.895751953125 1950.0
v 647.7173461914062 -644.1587524414062 1950.0
v 617.9656372070312 -652.4918212890625 1789.131103515625
v 647.7174072265625 -644.158935546875 400.00018310546875
v 175.73251342773438 1040.997314453125 400.0
v 647.7173461914062 -644.1587524414062 1950.000244140625
v 505.08587646484375 -134.91302490234375 1949.999755859375
v 175.73245239257812 1040.997314453125 400.0
v -690.9178466796875 798.2482299804688 400.0
v 505.08575439453125 -134.91290283203125 1949.9996337890625
v -361.5621337890625 -377.6615905761719 1950.0
v -218.9329833984375 -886.8960571289062 400.00018310546875
v -362.84271240234375 -373.08990478515625 1394.579833984375
v -362.84271240234375 -373.08990478515625 1460.27978515625
v -345.20391845703125 -436.06646728515625 1460.27978515625
v -361.562255859375 -377.6616516113281 1950.000244140625
v -218.932861328125 -886.8958740234375 1950.000244140625
v -345.20391845703125 -436.06646728515625 1394.579833984375
v 493.1435546875 -92.279541015625 1974.733154296875
v -378.71905517578125 -316.4112243652344 1948.4669189453125
v 487.928955078125 -73.66278076171875 1948.466552734375
v -373.50445556640625 -335.0279846191406 1974.7335205078125
v 486.97607421875 -70.2606201171875 1950.1331787109375
v -373.50445556640625 -335.0279846191406 1974.7335205078125
v 493.1435546875 -92.279541015625 1974.733154296875
v -379.67193603515625 -313.009033203125 1950.133544921875
v 487.928955078125 -73.66278076171875 1948.466552734375
v -379.67193603515625 -313.009033203125 1950.133544921875
v 486.97607421875 -70.2606201171875 1950.1331787109375
v -378.71905517578125 -316.4112243652344 1948.4669189453125
v 464.0137939453125 11.71807861328125 1975.3997802734375
v -409.251220703125 -207.4066162109375 1947.93359375
v 457.3967590332031 35.341796875 1947.9332275390625
v -402.63427734375 -231.03036499023438 1975.400146484375
v 457.2888488769531 35.72698974609375 1955.399658203125
v -402.63427734375 -231.03036499023438 1975.400146484375
v 464.0137939453125 11.71807861328125 1975.3997802734375
v -409.359130859375 -207.02139282226562 1955.400146484375
v 457.3967590332031 35.341796875 1947.9332275390625
v -409.359130859375 -207.02139282226562 1955.400146484375
v 457.2888488769531 35.72698974609375 1955.399658203125
v -409.251220703125 -207.4066162109375 1947.93359375
v 478.2550048828125 -39.12518310546875 1974.733154296875
v -394.7943115234375 -259.0201416015625 1947.6669921875
v 471.853759765625 -16.271728515625 1947.66650390625
v -388.39300537109375 -281.8735656738281 1974.7335205078125
v 471.0804443359375 -13.51092529296875 1949.0665283203125
v -388.39300537109375 -281.8735656738281 1974.7335205078125
v 478.2550048828125 -39.12518310546875 1974.733154296875
v -395.567626953125 -256.2593994140625 1949.06689453125
v 471.853759765625 -16.271728515625 1947.66650390625
v -395.567626953125 -256.2593994140625 1949.06689453125
v 471.0804443359375 -13.51092529296875 1949.0665283203125
v -394.7943115234375 -259.0201416015625 1947.6669921875
v 504.870361328125 -134.14614868164062 1949.37939453125
v -358.9176025390625 -387.1053466796875 1975.196044921875
v 507.73046875 -144.35690307617188 1975.1956787109375
v -361.7777099609375 -376.8945617675781 1949.3797607421875
v 507.723388671875 -144.33181762695312 1947.9837646484375
v -361.7777099609375 -376.8945617675781 1949.3797607421875
v 504.870361328125 -134.14614868164062 1949.37939453125
v -358.924560546875 -387.08026123046875 1947.984130859375
v 487.928955078125 -73.66278076171875 1948.466552734375
v 486.97607421875 -70.2606201171875 1950.1331787109375
v 493.1435546875 -92.279541015625 1974.733154296875
v 457.3967590332031 35.341796875 1947.9332275390625
v 457.2888488769531 35.72698974609375 1955.399658203125
v 464.0137939453125 11.71807861328125 1975.3997802734375
v 471.853759765625 -16.271728515625 1947.66650390625
v 471.0804443359375 -13.51092529296875 1949.0665283203125
v 478.2550048828125 -39.12518310546875 1974.733154296875
v 507.723388671875 -144.33181762695312 1947.9837646484375
v 504.870361328125 -134.14614868164062 1949.37939453125
v 507.73046875 -144.35690307617188 1975.1956787109375
v -373.50445556640625 -335.0279846191406 1974.7335205078125
v -379.67193603515625 -313.009033203125 1950.133544921875
v -378.71905517578125 -316.4112243652344 1948.4669189453125
v -402.63427734375 -231.03036499023438 1975.400146484375
v -409.359130859375 -207.02139282226562 1955.400146484375
v -409.251220703125 -207.4066162109375 1947.93359375
v -388.39300537109375 -281.8735656738281 1974.7335205078125
v -395.567626953125 -256.2593994140625 1949.06689453125
v -394.7943115234375 -259.0201416015625 1947.6669921875
v -358.9176025390625 -387.1053466796875 1975.196044921875
v -361.7777099609375 -376.8945617675781 1949.3797607421875
v -358.924560546875 -387.08026123046875 1947.984130859375
v 412.2276916503906 196.60205078125 1599.7330322265625
v -459.6348876953125 -27.52960205078125 1573.4669189453125
v 407.01312255859375 215.21881103515625 1573.4664306640625
v -454.4202880859375 -46.14642333984375 1599.7335205078125
v 406.0601806640625 218.62091064453125 1575.133056640625
v -454.4202880859375 -46.14642333984375 1599.7335205078125
v 412.2276916503906 196.60205078125 1599.7330322265625
v -460.587890625 -24.12744140625 1575.133544921875
v 407.01312255859375 215.21881103515625 1573.4664306640625
v -460.587890625 -24.12744140625 1575.133544921875
v 406.0601806640625 218.62091064453125 1575.133056640625
v -459.6348876953125 -27.52960205078125 1573.4669189453125
v 383.09796142578125 300.5997314453125 1600.399658203125
v -490.1671142578125 81.47503662109375 1572.9334716796875
v 376.4809265136719 324.223388671875 1572.9329833984375
v -483.550048828125 57.8511962890625 1600.400146484375
v 376.3730163574219 324.60870361328125 1580.399658203125
v -483.550048828125 57.8511962890625 1600.400146484375
v 383.09796142578125 300.5997314453125 1600.399658203125
v -490.2750244140625 81.860107421875 1580.400146484375
v 376.4809265136719 324.223388671875 1572.9329833984375
v -490.2750244140625 81.860107421875 1580.400146484375
v 376.3730163574219 324.60870361328125 1580.399658203125
v -490.1671142578125 81.47503662109375 1572.9334716796875
v 397.339111328125 249.7564697265625 1599.7330322265625
v -475.7100830078125 29.86138916015625 1572.6669921875
v 390.9378662109375 272.6099853515625 1572.6663818359375
v -469.308837890625 7.008056640625 1599.7335205078125
v 390.1645812988281 275.37066650390625 1574.06640625
v -469.308837890625 7.008056640625 1599.7335205078125
v 397.339111328125 249.7564697265625 1599.7330322265625
v -476.4833984375 32.6221923828125 1574.06689453125
v 390.9378662109375 272.6099853515625 1572.6663818359375
v -476.4833984375 32.6221923828125 1574.06689453125
v 390.1645812988281 275.37066650390625 1574.06640625
v -475.7100830078125 29.86138916015625 1572.6669921875
v 423.95452880859375 154.7354736328125 1574.379150390625
v -439.83349609375 -98.22369384765625 1600.196044921875
v 426.8145751953125 144.5247802734375 1600.195556640625
v -442.6934814453125 -88.01290893554688 1574.379638671875
v 426.80755615234375 144.54974365234375 1572.983642578125
v -442.6934814453125 -88.01290893554688 1574.379638671875
v 423.95452880859375 154.7354736328125 1574.379150390625
v -439.8404541015625 -98.1986083984375 1572.984130859375
v 407.01312255859375 215.21881103515625 1573.4664306640625
v 406.0601806640625 218.62091064453125 1575.133056640625
v 412.2276916503906 196.60205078125 1599.7330322265625
v 376.4809265136719 324.223388671875 1572.9329833984375
v 376.3730163574219 324.60870361328125 1580.399658203125
v 383.09796142578125 300.5997314453125 1600.399658203125
v 390.9378662109375 272.6099853515625 1572.6663818359375
v 390.1645812988281 275.37066650390625 1574.06640625
v 397.339111328125 249.7564697265625 1599.7330322265625
v 426.80755615234375 144.54974365234375 1572.983642578125
v 423.95452880859375 154.7354736328125 1574.379150390625
v 426.8145751953125 144.5247802734375 1600.195556640625
v -454.4202880859375 -46.14642333984375 1599.7335205078125
v -460.587890625 -24.12744140625 1575.133544921875
v -459.6348876953125 -27.52960205078125 1573.4669189453125
v -483.550048828125 57.8511962890625 1600.400146484375
v -490.2750244140625 81.860107421875 1580.400146484375
v -490.1671142578125 81.47503662109375 1572.9334716796875
v -469.308837890625 7.008056640625 1599.7335205078125
v -476.4833984375 32.6221923828125 1574.06689453125
v -475.7100830078125 29.86138916015625 1572.6669921875
v -439.83349609375 -98.22369384765625 1600.196044921875
v -442.6934814453125 -88.01290893554688 1574.379638671875
v -439.8404541015625 -98.1986083984375 1572.984130859375
v 328.6146545410156 495.11322021484375 1199.7330322265625
v -543.248046875 270.9815673828125 1173.466796875
v 323.40008544921875 513.7299194335938 1173.4664306640625
v -538.033447265625 252.36474609375 1199.7333984375
v 322.4471435546875 517.1320190429688 1175.133056640625
v -538.033447265625 252.36474609375 1199.7333984375
v 328.6146545410156 495.11322021484375 1199.7330322265625
v -544.200927734375 274.38372802734375 1175.1334228515625
v 323.40008544921875 513.7299194335938 1173.4664306640625
v -544.200927734375 274.38372802734375 1175.1334228515625
v 322.4471435546875 517.1320190429688 1175.133056640625
v -543.248046875 270.9815673828125 1173.466796875
v 299.48486328125 599.1109008789062 1200.399658203125
v -573.7802734375 379.9862060546875 1172.933349609375
v 292.8678894042969 622.7345581054688 1172.9329833984375
v -567.1632080078125 356.36236572265625 1200.4000244140625
v 292.7599792480469 623.1198120117188 1180.399658203125
v -567.1632080078125 356.36236572265625 1200.4000244140625
v 299.48486328125 599.1109008789062 1200.399658203125
v -573.8880615234375 380.37127685546875 1180.4000244140625
v 292.8678894042969 622.7345581054688 1172.9329833984375
v -573.8880615234375 380.37127685546875 1180.4000244140625
v 292.7599792480469 623.1198120117188 1180.399658203125
v -573.7802734375 379.9862060546875 1172.933349609375
v 313.72607421875 548.2676391601562 1199.7330322265625
v -559.3232421875 328.37255859375 1172.6668701171875
v 307.3248291015625 571.1210327148438 1172.6663818359375
v -552.9219970703125 305.51910400390625 1199.7333984375
v 306.5515441894531 573.8817749023438 1174.06640625
v -552.9219970703125 305.51910400390625 1199.7333984375
v 313.72607421875 548.2676391601562 1199.7330322265625
v -560.0965576171875 331.13330078125 1174.0667724609375
v 307.3248291015625 571.1210327148438 1172.6663818359375
v -560.0965576171875 331.13330078125 1174.0667724609375
v 306.5515441894531 573.8817749023438 1174.06640625
v -559.3232421875 328.37255859375 1172.6668701171875
v 340.34149169921875 453.24652099609375 1174.3790283203125
v -523.4464111328125 200.28741455078125 1200.1959228515625
v 343.2015380859375 443.03594970703125 1200.195556640625
v -526.3065185546875 210.49822998046875 1174.37939453125
v 343.19451904296875 443.06097412109375 1172.983642578125
v -526.3065185546875 210.49822998046875 1174.37939453125
v 340.34149169921875 453.24652099609375 1174.3790283203125
v -523.4534912109375 200.3123779296875 1172.9840087890625
v 323.40008544921875 513.7299194335938 1173.4664306640625
v 322.4471435546875 517.1320190429688 1175.133056640625
v 328.6146545410156 495.11322021484375 1199.7330322265625
v 292.8678894042969 622.7345581054688 1172.9329833984375
v 292.7599792480469 623.1198120117188 1180.399658203125
v 299.48486328125 599.1109008789062 1200.399658203125
v 307.3248291015625 571.1210327148438 1172.6663818359375
v 306.5515441894531 573.8817749023438 1174.06640625
v 313.72607421875 548.2676391601562 1199.7330322265625
v 343.19451904296875 443.06097412109375 1172.983642578125
v 340.34149169921875 453.24652099609375 1174.3790283203125
v 343.2015380859375 443.03594970703125 1200.195556640625
v -538.033447265625 252.36474609375 1199.7333984375
v -544.200927734375 274.38372802734375 1175.1334228515625
v -543.248046875 270.9815673828125 1173.466796875
v -567.1632080078125 356.36236572265625 1200.4000244140625
v -573.8880615234375 380.37127685546875 1180.4000244140625
v -573.7802734375 379.9862060546875 1172.933349609375
v -552.9219970703125 305.51910400390625 1199.7333984375
v -560.0965576171875 331.13330078125 1174.0667724609375
v -559.3232421875 328.37255859375 1172.6668701171875
v -523.4464111328125 200.28741455078125 1200.1959228515625
v -526.3065185546875 210.49822998046875 1174.37939453125
v -523.4534912109375 200.3123779296875 1172.9840087890625
v 239.60720825195312 812.8831176757812 799.7329711914062
v -632.25537109375 588.7512817382812 773.4666748046875
v 234.39266967773438 831.4996948242188 773.4663696289062
v -627.0408935546875 570.1345825195312 799.7333374023438
v 233.43966674804688 834.9019165039062 775.1329345703125
v -627.0408935546875 570.1345825195312 799.7333374023438
v 239.60720825195312 812.8831176757812 799.7329711914062
v -633.2083740234375 592.1536254882812 775.1333618164062
v 234.39266967773438 831.4996948242188 773.4663696289062
v -633.2083740234375 592.1536254882812 775.1333618164062
v 233.43966674804688 834.9019165039062 775.1329345703125
v -632.25537109375 588.7512817382812 773.4666748046875
v 210.47747802734375 916.8804321289062 800.399658203125
v -662.78759765625 697.7560424804688 772.9332885742188
v 203.86041259765625 940.5044555664062 772.9329833984375
v -656.170654296875 674.1322631835938 800.3999633789062
v 203.75253295898438 940.8895874023438 780.399658203125
v -656.170654296875 674.1322631835938 800.3999633789062
v 210.47747802734375 916.8804321289062 800.399658203125
v -662.8956298828125 698.1411743164062 780.4000244140625
v 203.86041259765625 940.5044555664062 772.9329833984375
v -662.8956298828125 698.1411743164062 780.4000244140625
v 203.75253295898438 940.8895874023438 780.399658203125
v -662.78759765625 697.7560424804688 772.9332885742188
v 224.71865844726562 866.0374145507812 799.7329711914062
v -648.3306884765625 646.1423950195312 772.6666870117188
v 218.31735229492188 888.8909301757812 772.6663208007812
v -641.929443359375 623.2890014648438 799.7333374023438
v 217.54409790039062 891.6515502929688 774.0663452148438
v -641.929443359375 623.2890014648438 799.7333374023438
v 224.71865844726562 866.0374145507812 799.7329711914062
v -649.1038818359375 648.9033813476562 774.0667114257812
v 218.31735229492188 888.8909301757812 772.6663208007812
v -649.1038818359375 648.9033813476562 774.0667114257812
v 217.54409790039062 891.6515502929688 774.0663452148438
v -648.3306884765625 646.1423950195312 772.6666870117188
v 251.33401489257812 771.0164184570312 774.3790283203125
v -612.4539794921875 518.0573120117188 800.1958618164062
v 254.194091796875 760.8056030273438 800.195556640625
v -615.31396484375 528.2681274414062 774.37939453125
v 254.18704223632812 760.8307495117188 772.9835815429688
v -615.31396484375 528.2681274414062 774.37939453125
v 251.33401489257812 771.0164184570312 774.3790283203125
v -612.4609375 518.0823364257812 772.9839477539062
v 234.39266967773438 831.4996948242188 773.4663696289062
v 233.43966674804688 834.9019165039062 775.1329345703125
v 239.60720825195312 812.8831176757812 799.7329711914062
v 203.86041259765625 940.5044555664062 772.9329833984375
v 203.75253295898438 940.8895874023438 780.399658203125
v 210.47747802734375 916.8804321289062 800.399658203125
v 218.31735229492188 888.8909301757812 772.6663208007812
v 217.54409790039062 891.6515502929688 774.0663452148438
v 224.71865844726562 866.0374145507812 799.7329711914062
v 254.18704223632812 760.8307495117188 772.9835815429688
v 251.33401489257812 771.0164184570312 774.3790283203125
v 254.194091796875 760.8056030273438 800.195556640625
v -627.0408935546875 570.1345825195312 799.7333374023438
v -633.2083740234375 592.1536254882812 775.1333618164062
v -632.25537109375 588.7512817382812 773.4666748046875
v -656.170654296875 674.1322631835938 800.3999633789062
v -662.8956298828125 698.1411743164062 780.4000244140625
v -662.78759765625 697.7560424804688 772.9332885742188
v -641.929443359375 623.2890014648438 799.7333374023438
v -649.1038818359375 648.9033813476562 774.0667114257812
v -648.3306884765625 646.1423950195312 772.6666870117188
v -612.4539794921875 518.0573120117188 800.1958618164062
v -615.31396484375 528.2681274414062 774.37939453125
v -612.4609375 518.0823364257812 772.9839477539062
v 623.3598022460938 -671.7506713867188 1924.1309814453125
v 617.9656372070312 -652.4918212890625 1924.1309814453125
v -185.51171875 -898.3045654296875 1924.1309814453125
v -190.9058837890625 -879.0457153320312 1924.1309814453125
v 623.3598022460938 -671.7506713867188 1789.131103515625
v -185.51171875 -898.3045654296875 1789.131103515625
v 617.9656372070312 -652.4918212890625 1789.131103515625
v -190.9058837890625 -879.0457763671875 1789.131103515625
v -185.51171875 -898.3045654296875 1924.1309814453125
v -190.9058837890625 -879.0457763671875 1789.131103515625
v -185.51171875 -898.3045654296875 1789.131103515625
v -190.9058837890625 -879.0457153320312 1924.1309814453125
v 623.3598022460938 -671.7506713867188 1924.1309814453125
v 623.3598022460938 -671.7506713867188 1789.131103515625
v 617.9656372070312 -652.4918212890625 1789.131103515625
v 617.9656372070312 -652.4918212890625 1924.1309814453125
v -218.93304443359375 -886.895751953125 2000.0
v 647.7173461914062 -644.1587524414062 2000.0
v 647.7173461914062 -644.1587524414062 2000.000244140625
v 515.7101440429688 -172.84561157226562 1999.999755859375
v 515.7100830078125 -172.84548950195312 1999.9996337890625
v -350.93792724609375 -415.59417724609375 2000.0
v -350.9378662109375 -415.5941162109375 2000.000244140625
v -218.932861328125 -886.8958740234375 2000.000244140625
v 647.7173461914062 -644.1587524414062 2000.000244140625
v 515.7101440429688 -172.8455810546875 1999.999755859375
v -218.93304443359375 -886.895751953125 2000.000244140625
v -350.93792724609375 -415.59405517578125 2000.000244140625
f 10 9 11
f 12 10 11
f 6 5 7
f 8 6 7
f 2 1 3
f 4 2 3
f 470 469 471
f 471 472 470
f 466 465 467
f 467 468 466
f 178 177 179
f 180 178 179
f 142 141 143
f 143 144 142
f 138 137 139
f 139 140 138
f 102 101 103
f 104 102 103
f 98 97 99
f 100 98 99
f 94 93 95
f 96 94 95
f 111 110 108
f 108 112 111
f 109 112 108
f 108 107 109
f 107 105 109
f 106 105 107
f 478 477 479
f 479 477 480
f 476 473 474
f 474 473 475
f 166 165 167
f 167 165 168
f 164 161 162
f 162 161 163
f 157 158 160
f 158 157 159
f 154 153 155
f 156 155 153
f 150 149 151
f 151 149 152
f 148 145 146
f 146 145 147
f 123 122 124
f 123 124 117
f 117 118 123
f 117 116 118
f 115 124 114
f 114 113 115
f 115 113 116
f 116 113 120
f 118 116 120
f 119 118 120
f 120 121 119
f 119 121 122
f 122 121 114
f 124 122 114
f 189 188 190
f 190 191 189
f 189 191 192
f 192 191 186
f 187 192 186
f 186 185 187
f 187 185 188
f 188 185 190
f 126 125 127
f 127 134 126
f 134 132 126
f 133 132 134
f 129 132 133
f 133 136 129
f 136 135 129
f 135 136 127
f 131 135 127
f 127 125 131
f 131 125 130
f 128 131 130
f 129 128 130
f 130 132 129
f 172 169 174
f 173 172 174
f 174 175 173
f 173 175 176
f 176 175 170
f 171 176 170
f 170 169 171
f 171 169 172
f 14 13 15
f 15 13 16
f 498 497 499
f 499 500 498
f 90 89 91
f 92 90 91
f 86 85 87
f 88 86 87
f 82 81 83
f 84 82 83
f 78 77 79
f 79 80 78
f 74 73 75
f 76 74 75
f 70 69 71
f 72 70 71
f 66 65 67
f 68 66 67
f 62 61 63
f 63 64 62
f 54 53 55
f 56 54 55
f 50 49 51
f 52 50 51
f 46 45 47
f 48 46 47
f 34 33 35
f 35 36 34
f 30 29 31
f 32 30 31
f 26 25 27
f 28 26 27
f 22 21 23
f 24 22 23
f 18 17 19
f 19 20 18
f 38 37 39
f 40 39 37
f 42 41 43
f 44 43 41
f 57 58 60
f 58 57 59
f 182 181 183
f 184 182 183
f 238 237 239
f 218 220 217
f 218 217 219
f 206 208 205
f 206 205 207
f 210 212 209
f 210 209 211
f 214 216 213
f 214 213 215
f 222 224 221
f 222 221 223
f 226 228 225
f 226 225 227
f 230 232 229
f 230 229 231
f 234 236 233
f 234 233 235
f 262 264 261
f 262 261 263
f 266 268 265
f 266 265 267
f 270 272 269
f 270 269 271
f 274 276 273
f 274 273 275
f 278 280 277
f 278 277 279
f 282 284 281
f 282 281 283
f 286 288 285
f 286 285 287
f 290 292 289
f 290 289 291
f 294 296 293
f 294 293 295
f 298 300 297
f 298 297 299
f 302 304 301
f 302 301 303
f 346 348 345
f 346 345 347
f 350 352 349
f 350 349 351
f 354 356 353
f 354 353 355
f 358 360 357
f 358 357 359
f 362 364 361
f 362 361 363
f 366 368 365
f 366 365 367
f 370 372 369
f 370 369 371
f 406 408 405
f 406 405 407
f 410 412 409
f 410 409 411
f 414 416 413
f 414 413 415
f 418 420 417
f 418 417 419
f 422 424 421
f 422 421 423
f 426 428 425
f 426 425 427
f 430 432 429
f 430 429 431
f 434 436 433
f 434 433 435
f 438 440 437
f 438 437 439
f 482 481 483
f 484 482 483
f 486 485 487
f 488 486 487
f 490 489 491
f 492 490 491
f 494 493 495
f 496 494 495
f 194 196 193
f 194 193 195
f 198 200 197
f 198 197 199
f 202 204 201
f 202 201 203
f 241 240 242
f 463 462 464
f 244 243 245
f 460 459 461
f 247 246 248
f 457 456 458
f 250 249 251
f 454 453 455
f 253 252 254
f 451 450 452
f 256 255 257
f 448 447 449
f 259 258 260
f 445 444 446
f 306 305 307
f 442 441 443
f 309 308 310
f 402 404 401
f 402 401 403
f 398 400 397
f 398 397 399
f 395 394 396
f 312 311 313
f 392 391 393
f 315 314 316
f 389 388 390
f 318 317 319
f 386 385 387
f 321 320 322
f 383 382 384
f 324 323 325
f 380 379 381
f 327 326 328
f 377 376 378
f 330 332 329
f 330 329 331
f 334 336 333
f 334 333 335
f 338 340 337
f 338 337 339
f 342 344 341
f 342 341 343
f 374 373 375
f 502 501 503
f 503 501 504
f 506 505 507
f 507 505 508
