# from WaterfrontDistrict_Block17_High-street (shop) (MC)_0001_LOD_0.pskx
v 1696.6417236328125 1526.4400634765625 -0.02499999850988388
v 1901.319580078125 856.9707641601562 -0.024932529777288437
v 1696.6417236328125 1526.4400634765625 1.024999976158142
v 1901.319580078125 856.9707641601562 1.0250674486160278
v 1901.323974609375 857.016845703125 -0.024932531639933586
v 1569.3302001953125 232.63172912597656 -0.02489246055483818
v 1901.323974609375 857.016845703125 1.0250674486160278
v 1569.3302001953125 232.63172912597656 1.025107502937317
v 1569.365966796875 232.66123962402344 -0.02489246428012848
v 1091.168701171875 86.46742248535156 -0.024900585412979126
v 1569.365966796875 232.66123962402344 1.025107502937317
v 1091.168701171875 86.46742248535156 1.0250993967056274
v 1091.199951171875 86.45082092285156 -0.024900581687688828
v 740.3428955078125 1234.05712890625 -0.025016240775585175
v 1091.199951171875 86.45082092285156 1.0250991582870483
v 740.3428955078125 1234.05712890625 1.024983525276184
v 740.3741455078125 1234.0406494140625 -0.025016238912940025
v 166.53480529785156 1058.5986328125 -0.0250259842723608
v 740.3741455078125 1234.0406494140625 1.0249837636947632
v 166.53480529785156 1058.5986328125 1.02497398853302
v 166.55140686035156 1058.6298828125 -0.02502598613500595
v 751.319580078125 -854.0155029296875 -0.02483322098851204
v 166.55140686035156 1058.6298828125 1.02497398853302
v 751.319580078125 -854.0155029296875 1.0251667499542236
v 751.288330078125 -853.9989013671875 -0.02483322098851204
v 2090.16650390625 -444.6702880859375 -0.024810481816530228
v 751.288330078125 -853.9989013671875 1.0251667499542236
v 2090.16650390625 -444.6702880859375 1.0251895189285278
v 2090.150146484375 -444.7015075683594 -0.024810481816530228
v 1943.9439697265625 33.50791549682617 -0.02485867403447628
v 2090.150146484375 -444.7015075683594 1.0251895189285278
v 1943.9439697265625 33.50791549682617 1.0251413583755493
v 1943.9395751953125 33.461936950683594 -0.02485867403447628
v 2209.539306640625 532.968994140625 -0.024890730157494545
v 1943.9395751953125 33.461936950683594 1.0251413583755493
v 2209.539306640625 532.968994140625 1.0251092910766602
v 2209.534912109375 532.9229736328125 -0.024890730157494545
v 1887.901611328125 1584.91162109375 -0.02499675191938877
v 2209.534912109375 532.9229736328125 1.025109052658081
v 1887.901611328125 1584.91162109375 1.0250029563903809
v 1887.9327392578125 1584.8951416015625 -0.024996750056743622
v 1696.6251220703125 1526.4088134765625 -0.02499999850988388
v 1887.9327392578125 1584.8951416015625 1.0250029563903809
v 1696.6251220703125 1526.4088134765625 1.024999737739563
v 1901.2662353515625 856.9992065429688 1.0000674724578857
v 1887.9254150390625 1584.9190673828125 1.0000032186508179
v 1696.6177978515625 1526.4327392578125 1.0
v 1943.997314453125 33.47957992553711 1.0001413822174072
v 1569.3126220703125 232.6895751953125 1.0001075267791748
v 1091.209228515625 86.50595092773438 1.0000994205474854
v 751.295654296875 -854.0227661132812 1.0001667737960815
v 2090.174072265625 -444.6942138671875 1.0001895427703857
v 740.3668212890625 1234.0645751953125 0.9999837875366211
v 166.52749633789062 1058.62255859375 0.9999740123748779
v 2209.573486328125 532.9424438476562 1.000109314918518
v 1734.1021728515625 1506.521728515625 0.9750034809112549
v 1933.641845703125 853.8585205078125 0.9750691652297974
v 1933.641845703125 853.8585205078125 4.025069236755371
v 1734.1021728515625 1506.521728515625 4.025003433227539
v 1777.805908203125 1483.28369140625 0.9750074148178101
v 1777.805908203125 1483.28369140625 4.025007247924805
v 1971.3511962890625 850.2274780273438 4.025071144104004
v 1971.3511962890625 850.2274780273438 0.9750711917877197
v 1933.646240234375 853.904541015625 0.9750691652297974
v 1589.9847412109375 207.57569885253906 0.975110650062561
v 1589.9847412109375 207.57569885253906 4.025110721588135
v 1933.646240234375 853.904541015625 4.025069236755371
v 1971.3555908203125 850.2734985351562 0.9750711917877197
v 1971.3555908203125 850.2734985351562 4.025071144104004
v 1614.08154296875 178.34352111816406 4.0251145362854
v 1614.08154296875 178.34352111816406 0.9751142263412476
v 1590.0203857421875 207.60508728027344 0.975110650062561
v 1071.25048828125 49.00746154785156 0.9751018285751343
v 1071.25048828125 49.00746154785156 4.025101661682129
v 1590.0203857421875 207.60508728027344 4.025110721588135
v 1614.1171875 178.37290954589844 0.9751142263412476
v 1614.1171875 178.37290954589844 4.0251145362854
v 1048.0126953125 5.3040924072265625 4.025104522705078
v 1048.0126953125 5.3040924072265625 0.9751046895980835
v 1071.28173828125 48.99086380004883 0.9751018285751343
v 720.4249267578125 1196.596923828125 0.97498619556427
v 720.4249267578125 1196.596923828125 4.024986267089844
v 1071.28173828125 48.99086380004883 4.025101661682129
v 1048.0439453125 5.287493705749512 0.9751046895980835
v 1048.0439453125 5.287493705749512 4.025104522705078
v 697.187255859375 1152.89306640625 4.024989128112793
v 697.187255859375 1152.89306640625 0.9749889969825745
v 720.4561767578125 1196.580322265625 0.97498619556427
v 203.99537658691406 1038.6807861328125 0.9749773740768433
v 203.99537658691406 1038.6807861328125 4.024977207183838
v 720.4561767578125 1196.580322265625 4.024986267089844
v 697.218505859375 1152.87646484375 0.9749889969825745
v 697.218505859375 1152.87646484375 4.024989128112793
v 247.69911193847656 1015.4432983398438 4.0249810218811035
v 247.69911193847656 1015.4432983398438 0.9749813079833984
v 204.01197814941406 1038.7120361328125 0.9749773740768433
v 771.2373657226562 -816.5552978515625 0.9751644134521484
v 771.2373657226562 -816.5552978515625 4.025164604187012
v 204.01197814941406 1038.7120361328125 4.024977207183838
v 247.71571350097656 1015.4745483398438 0.9749813079833984
v 247.71571350097656 1015.4745483398438 4.0249810218811035
v 794.4749755859375 -772.8519287109375 4.0251617431640625
v 794.4749755859375 -772.8519287109375 0.9751615524291992
v 771.2061157226562 -816.5386962890625 0.9751644134521484
v 2052.706298828125 -424.752197265625 0.9751862287521362
v 2052.706298828125 -424.752197265625 4.025186538696289
v 771.2061157226562 -816.5386962890625 4.025164604187012
v 794.4437255859375 -772.8353271484375 0.9751615524291992
v 794.4437255859375 -772.8353271484375 4.0251617431640625
v 2009.0023193359375 -401.514404296875 4.025182247161865
v 2009.0023193359375 -401.514404296875 0.975182294845581
v 2052.689697265625 -424.7834167480469 0.9751862287521362
v 1911.62158203125 36.62034225463867 0.9751397371292114
v 1911.62158203125 36.62034225463867 4.025139808654785
v 2052.689697265625 -424.7834167480469 4.025186538696289
v 2008.9857177734375 -401.5456237792969 0.975182294845581
v 2008.9857177734375 -401.5456237792969 4.025182247161865
v 1873.9122314453125 40.25132369995117 4.025137424468994
v 1873.9122314453125 40.25132369995117 0.9751377105712891
v 1911.6171875 36.574363708496094 0.9751397371292114
v 2177.216796875 536.081298828125 0.9751075506210327
v 2177.216796875 536.081298828125 4.0251078605651855
v 1911.6171875 36.574363708496094 4.025139808654785
v 1873.9078369140625 40.205345153808594 0.9751377105712891
v 1873.9078369140625 40.205345153808594 4.025137424468994
v 2139.50732421875 539.71240234375 4.025105953216553
v 2139.50732421875 539.71240234375 0.9751056432723999
v 2177.21240234375 536.0352783203125 0.9751075506210327
v 1867.983642578125 1547.451904296875 0.9750057458877563
v 1867.983642578125 1547.451904296875 4.02500581741333
v 2177.21240234375 536.0352783203125 4.0251078605651855
v 2139.5029296875 539.6663818359375 0.9751056432723999
v 2139.5029296875 539.6663818359375 4.025105953216553
v 1844.74609375 1503.7486572265625 4.025008678436279
v 1844.74609375 1503.7486572265625 0.975008487701416
v 1868.014892578125 1547.435302734375 0.9750057458877563
v 1734.0855712890625 1506.490478515625 0.9750034809112549
v 1734.0855712890625 1506.490478515625 4.025003433227539
v 1868.014892578125 1547.435302734375 4.02500581741333
v 1844.77734375 1503.7320556640625 0.975008487701416
v 1844.77734375 1503.7320556640625 4.025008678436279
v 1777.789306640625 1483.25244140625 4.025007247924805
v 1777.789306640625 1483.25244140625 0.9750074148178101
v 1734.0938720703125 1506.506103515625 4.000003337860107
v 1933.6082763671875 853.8502807617188 4.0000691413879395
v 1971.3668212890625 850.2492065429688 4.000071048736572
v 1777.808837890625 1483.2137451171875 4.000007152557373
v 1589.955078125 207.59361267089844 4.000110626220703
v 1614.10791015625 178.3477783203125 4.000114440917969
v 1071.2449951171875 49.0504150390625 4.000101566314697
v 1048.0283203125 5.295793056488037 4.0001044273376465
v 720.4405517578125 1196.588623046875 3.999986171722412
v 697.1486206054688 1152.87353515625 3.9999890327453613
v 204.00711059570312 1038.702880859375 3.9999773502349854
v 247.71859741210938 1015.4046630859375 3.999981164932251
v 771.2217407226562 -816.5469970703125 4.00016450881958
v 794.5136108398438 -772.8324584960938 4.000161647796631
v 2052.697998046875 -424.767822265625 4.000186443328857
v 2008.9827880859375 -401.4757385253906 4.000182151794434
v 1911.6551513671875 36.628631591796875 4.0001397132873535
v 1873.8966064453125 40.22962951660156 4.0001373291015625
v 2177.22802734375 536.0570068359375 4.000107765197754
v 2139.475830078125 539.7269287109375 4.000105857849121
v 1867.999267578125 1547.443603515625 4.000005722045898
v 1844.7073974609375 1503.7291259765625 4.000008583068848
v 398.035888671875 -1066.6009521484375 -100.02482604980469
v -245.20396423339844 1037.31640625 -100.02503967285156
v 398.035888671875 -1066.6009521484375 0.025169922038912773
v -245.20396423339844 1037.31640625 0.02495788037776947
v 398.035888671875 -1066.6009521484375 -0.024830076843500137
v 354.1650390625 -923.1075439453125 -0.024844534695148468
v 354.1659851074219 -923.1072998046875 327.8751525878906
v 229.95062255859375 -516.8214721679688 327.8751220703125
v -48.06687927246094 392.5177917480469 327.8900451660156
v -235.08436584472656 1004.217529296875 327.88995361328125
v 398.035888671875 -1066.6009521484375 400.025146484375
v 229.94969177246094 -516.8218994140625 -0.024885477498173714
v -48.06687927246094 392.5176696777344 -0.02497714012861252
v -235.08436584472656 1004.217529296875 -0.025038788095116615
v -245.20396423339844 1037.31640625 -0.02504211850464344
v -245.20396423339844 1037.31640625 400.0249328613281
v 300.2814636230469 -233.7811279296875 400.0
v 541.5045776367188 -1022.7337646484375 400.0001525878906
v 398.0108642578125 -1066.6043701171875 400.0001525878906
v 259.0069580078125 328.7787780761719 399.9996337890625
v 419.8127136230469 -197.2332763671875 399.99969482421875
v 139.4635009765625 292.2310485839844 399.9998779296875
v -245.22787475585938 1037.3092041015625 399.99993896484375
v -101.7352294921875 1081.18359375 399.99993896484375
v 541.480712890625 -1022.7410888671875 399.97515869140625
v 300.242919921875 -233.74061584472656 399.9750061035156
v 541.480712890625 -1022.7410888671875 500.025146484375
v 300.242919921875 -233.74061584472656 500.0249938964844
v 300.2263488769531 -233.77183532714844 399.9750061035156
v 419.8053894042969 -197.20936584472656 399.9747009277344
v 300.2263488769531 -233.77183532714844 500.0249938964844
v 419.8053894042969 -197.20936584472656 500.02471923828125
v 419.7887878417969 -197.24058532714844 399.9747009277344
v 258.9830627441406 328.7713317871094 399.9746398925781
v 412.4654846191406 -173.28492736816406 420.0246887207031
v 313.0659484863281 151.86082458496094 479.97467041015625
v 269.2278747558594 295.2596740722656 479.97467041015625
v 419.7887878417969 -197.24058532714844 500.02471923828125
v 412.4654846191406 -173.28492736816406 479.9747009277344
v 318.927490234375 132.68678283691406 479.97467041015625
v 362.7658996582031 -10.712054252624512 479.97467041015625
v 368.6274108886719 -29.886213302612305 479.97467041015625
v 258.9830627441406 328.7713317871094 500.024658203125
v 368.6274108886719 -29.886213302612305 420.024658203125
v 269.2278747558594 295.2596740722656 420.024658203125
v 362.765869140625 -10.712054252624512 420.024658203125
v 318.9274597167969 132.68678283691406 420.024658203125
v 313.0659484863281 151.86082458496094 420.024658203125
v 259.0142517089844 328.7548828125 399.9746398925781
v 139.42298889160156 292.1925048828125 399.9748840332031
v 259.0142517089844 328.7548828125 500.024658203125
v 139.42298889160156 292.1925048828125 500.0248718261719
v 139.45420837402344 292.1759338378906 399.9748840332031
v -101.75914001464844 1081.1763916015625 399.9749450683594
v 139.45420837402344 292.1759338378906 500.0248718261719
v -101.75914001464844 1081.1763916015625 500.0249328613281
v 523.143310546875 -1028.347900390625 610.0050659179688
v 279.9459228515625 -239.94651794433594 609.5950927734375
v 521.1837158203125 -1028.947021484375 609.5952758789062
v 281.9055480957031 -239.3473358154297 610.0048828125
v 523.119873046875 -1028.3551025390625 581.1751708984375
v 281.882080078125 -239.35450744628906 610.0250244140625
v 523.119873046875 -1028.3551025390625 610.0252075195312
v 281.882080078125 -239.35450744628906 581.175048828125
v 521.1837158203125 -1028.947021484375 580.7952880859375
v 281.9055480957031 -239.3473358154297 581.2049560546875
v 523.143310546875 -1028.347900390625 581.205078125
v 279.9459228515625 -239.94651794433594 580.795166015625
v 521.2071533203125 -1028.9398193359375 609.6251831054688
v 279.9693603515625 -239.93934631347656 580.7750244140625
v 521.2071533203125 -1028.9398193359375 580.775146484375
v 279.9693603515625 -239.93934631347656 609.625
v 523.1437377929688 -1028.3477783203125 547.2001953125
v 279.9454650878906 -239.9466552734375 547.2000122070312
v 521.1832275390625 -1028.9471435546875 547.2001953125
v 281.906005859375 -239.34719848632812 547.2000122070312
v 523.119873046875 -1028.3551025390625 518.3751831054688
v 281.882080078125 -239.35450744628906 547.2250366210938
v 523.119873046875 -1028.3551025390625 547.2252197265625
v 281.882080078125 -239.35450744628906 518.375
v 521.1832275390625 -1028.9471435546875 518.4002075195312
v 281.906005859375 -239.34719848632812 518.4000244140625
v 523.1437377929688 -1028.3477783203125 518.4002075195312
v 279.9454650878906 -239.9466552734375 518.4000244140625
v 521.2071533203125 -1028.9398193359375 547.2252197265625
v 279.9693603515625 -239.93934631347656 518.375
v 521.2071533203125 -1028.9398193359375 518.3751831054688
v 279.9693603515625 -239.93934631347656 547.2250366210938
v 401.451171875 -202.84657287597656 610.0045166015625
v 238.68580627441406 322.5665588378906 609.5947875976562
v 399.4915466308594 -203.4455108642578 609.5947875976562
v 240.64541625976562 323.16546630859375 610.0045166015625
v 401.4277038574219 -202.85374450683594 581.1746215820312
v 240.62196350097656 323.1582946777344 610.024658203125
v 401.4277038574219 -202.85374450683594 610.024658203125
v 240.62196350097656 323.1582946777344 581.1746215820312
v 399.4915466308594 -203.4455108642578 580.7947387695312
v 240.64541625976562 323.16546630859375 581.2045288085938
v 401.451171875 -202.84657287597656 581.2045288085938
v 238.68580627441406 322.5665588378906 580.7947387695312
v 399.5149841308594 -203.43833923339844 609.6246948242188
v 238.70924377441406 322.5736999511719 580.7745971679688
v 399.5149841308594 -203.43833923339844 580.7745971679688
v 238.70924377441406 322.5736999511719 609.6246948242188
v 401.4516296386719 -202.846435546875 547.1996459960938
v 238.68533325195312 322.56640625 547.1996459960938
v 399.4910888671875 -203.44564819335938 547.1996459960938
v 240.6458740234375 323.1656188964844 547.1996459960938
v 401.4277038574219 -202.85374450683594 518.3746337890625
v 240.62196350097656 323.1582946777344 547.2246704101562
v 401.4277038574219 -202.85374450683594 547.2246704101562
v 240.62196350097656 323.1582946777344 518.3746337890625
v 399.4910888671875 -203.44564819335938 518.399658203125
v 240.6458740234375 323.1656188964844 518.399658203125
v 401.4516296386719 -202.846435546875 518.399658203125
v 238.68533325195312 322.56640625 518.399658203125
v 399.5149841308594 -203.43833923339844 547.2246704101562
v 238.70924377441406 322.5736999511719 518.3746337890625
v 399.5149841308594 -203.43833923339844 518.3746337890625
v 238.70924377441406 322.5736999511719 547.2246704101562
v 121.11656951904297 286.5697937011719 610.0047607421875
v -122.05638885498047 1074.9710693359375 609.5950927734375
v 119.1569595336914 285.97064208984375 609.594970703125
v -120.0967788696289 1075.5701904296875 610.0048828125
v 121.09312438964844 286.5626525878906 581.1748046875
v -120.12022399902344 1075.56298828125 610.0250244140625
v 121.09312438964844 286.5626525878906 610.02490234375
v -120.12022399902344 1075.56298828125 581.1749877929688
v 119.1569595336914 285.97064208984375 580.7949829101562
v -120.0967788696289 1075.5701904296875 581.2048950195312
v 121.11656951904297 286.5697937011719 581.2047119140625
v -122.05638885498047 1074.9710693359375 580.7951049804688
v 119.18040466308594 285.9778137207031 609.6248779296875
v -122.03294372558594 1074.978271484375 580.7749633789062
v 119.18040466308594 285.9778137207031 580.7748413085938
v -122.03294372558594 1074.978271484375 609.625
v 121.11703491210938 286.5699462890625 547.1998901367188
v -122.05685424804688 1074.970947265625 547.2000122070312
v 119.15650177001953 285.9704895019531 547.1998901367188
v -120.0963134765625 1075.5703125 547.2000122070312
v 121.09312438964844 286.5626525878906 518.3748168945312
v -120.12022399902344 1075.56298828125 547.2250366210938
v 121.09312438964844 286.5626525878906 547.2249145507812
v -120.12022399902344 1075.56298828125 518.375
v 119.15650177001953 285.9704895019531 518.3998413085938
v -120.0963134765625 1075.5703125 518.4000244140625
v 121.11703491210938 286.5699462890625 518.3998413085938
v -122.05685424804688 1074.970947265625 518.4000244140625
v 119.18040466308594 285.9778137207031 547.2249145507812
v -122.03294372558594 1074.978271484375 518.375
v 119.18040466308594 285.9778137207031 518.3748168945312
v -122.03294372558594 1074.978271484375 547.2250366210938
v 521.1806030273438 -1028.9217529296875 580.775634765625
v 523.1411743164062 -1028.3223876953125 581.1756591796875
v 521.1712036132812 -1028.9246826171875 609.6246948242188
v 523.1317749023438 -1028.3253173828125 610.0247192382812
v 521.1759033203125 -1028.9232177734375 518.3751831054688
v 523.136474609375 -1028.3238525390625 518.3751831054688
v 521.1759033203125 -1028.9232177734375 547.2252197265625
v 523.136474609375 -1028.3238525390625 547.2252197265625
v 279.9480895996094 -239.9720001220703 609.62451171875
v 281.9179992675781 -239.3696746826172 581.175537109375
v 279.95745849609375 -239.96913146972656 580.7755126953125
v 281.90863037109375 -239.37254333496094 610.0245361328125
v 279.9527893066406 -239.97056579589844 547.2250366210938
v 281.9132995605469 -239.37110900878906 518.375
v 279.9527893066406 -239.97056579589844 518.375
v 281.9132995605469 -239.37110900878906 547.2250366210938
v 399.48846435546875 -203.42030334472656 580.7750854492188
v 401.4490051269531 -202.8210906982422 581.1751098632812
v 399.4790954589844 -203.4231719970703 609.6242065429688
v 401.43963623046875 -202.82395935058594 610.024169921875
v 399.4837951660156 -203.42173767089844 518.3746337890625
v 401.4443054199219 -202.82252502441406 518.3746337890625
v 399.4837951660156 -203.42173767089844 547.2246704101562
v 401.4443054199219 -202.82252502441406 547.2246704101562
v 238.68795776367188 322.54107666015625 609.6242065429688
v 240.65786743164062 323.14312744140625 581.1751098632812
v 238.69732666015625 322.5439453125 580.7750854492188
v 240.64849853515625 323.1402587890625 610.024169921875
v 238.69264221191406 322.5425109863281 547.2246704101562
v 240.65318298339844 323.1416931152344 518.3746337890625
v 238.69264221191406 322.5425109863281 518.3746337890625
v 240.65318298339844 323.1416931152344 547.2246704101562
v 119.15387725830078 285.9958190917969 580.7753295898438
v 121.11441040039062 286.5953063964844 581.17529296875
v 119.14450073242188 285.9929504394531 609.6243896484375
v 121.10503387451172 286.5924377441406 610.0244140625
v 119.14918518066406 285.994384765625 518.3748168945312
v 121.10972595214844 286.5938720703125 518.3748168945312
v 119.14918518066406 285.994384765625 547.2249145507812
v 121.10972595214844 286.5938720703125 547.2249145507812
v -122.05422973632812 1074.945556640625 609.62451171875
v -120.08432006835938 1075.5478515625 581.1754760742188
v -122.04485321044922 1074.948486328125 580.7754516601562
v -120.09369659423828 1075.544921875 610.0245361328125
v -122.04954528808594 1074.947021484375 547.2250366210938
v -120.08900451660156 1075.54638671875 518.375
v -122.04954528808594 1074.947021484375 518.375
v -120.08900451660156 1075.54638671875 547.2250366210938
v 368.63671875 -29.83108901977539 479.9996643066406
v 412.5039978027344 -173.325439453125 479.99969482421875
v 402.89306640625 -176.26364135742188 479.99969482421875
v 359.0257873535156 -32.769168853759766 479.9996643066406
v 368.63671875 -29.83108901977539 419.9996643066406
v 402.89306640625 -176.26364135742188 419.99969482421875
v 412.5039978027344 -173.325439453125 419.99969482421875
v 359.0257873535156 -32.769168853759766 419.9996643066406
v 402.8857727050781 -176.23973083496094 480.0246887207031
v 412.4966735839844 -173.30152893066406 419.9747009277344
v 402.8857727050781 -176.23973083496094 419.9747009277344
v 412.4966735839844 -173.30152893066406 480.0246887207031
v 359.0331115722656 -32.79307556152344 480.024658203125
v 359.0331115722656 -32.79307556152344 419.97467041015625
v 368.6440124511719 -29.854995727539062 419.97467041015625
v 368.6440124511719 -29.854995727539062 480.024658203125
v 318.936767578125 132.74191284179688 479.9996643066406
v 362.8044128417969 -10.75256061553955 479.9996643066406
v 353.1934814453125 -13.690640449523926 479.9996643066406
v 309.3260803222656 129.8038330078125 479.9996643066406
v 318.936767578125 132.74191284179688 419.9996643066406
v 353.1934814453125 -13.690640449523926 419.9996643066406
v 362.8044128417969 -10.75256061553955 419.9996643066406
v 309.3260803222656 129.8038330078125 419.9996643066406
v 353.1861877441406 -13.666732788085938 480.024658203125
v 362.7970886230469 -10.728652954101562 419.97467041015625
v 353.1861877441406 -13.666732788085938 419.97467041015625
v 362.7970886230469 -10.728652954101562 480.024658203125
v 309.3334045410156 129.77992248535156 480.024658203125
v 309.3334045410156 129.77992248535156 419.97467041015625
v 318.9440612792969 132.71800231933594 419.97467041015625
v 318.9440612792969 132.71800231933594 480.024658203125
v 269.2371826171875 295.3147888183594 479.9996643066406
v 313.1044616699219 151.8203125 479.9996643066406
v 303.4935302734375 148.88223266601562 479.9996643066406
v 259.6263732910156 292.3765869140625 479.9996643066406
v 269.2371826171875 295.3147888183594 419.9996643066406
v 303.4935302734375 148.88223266601562 419.9996643066406
v 313.1044616699219 151.8203125 419.9996643066406
v 259.6263732910156 292.3765869140625 419.9996643066406
v 303.4862365722656 148.90614318847656 480.024658203125
v 313.0971374511719 151.84422302246094 419.97467041015625
v 303.4862365722656 148.90614318847656 419.97467041015625
v 313.0971374511719 151.84422302246094 480.024658203125
v 259.6336975097656 292.3526611328125 480.024658203125
v 259.6336975097656 292.3526611328125 419.97467041015625
v 269.2444763183594 295.2908935546875 419.97467041015625
v 269.2444763183594 295.2908935546875 480.024658203125
v -2540.34521484375 335.62451171875 499.9999084472656
v -1897.1051025390625 -1768.2928466796875 500.0001220703125
v -101.7352294921875 1081.18359375 499.99993896484375
v 300.2814636230469 -233.7811279296875 500.0
v 259.0069580078125 328.7787780761719 499.9996643066406
v 139.4635009765625 292.2310485839844 499.9998779296875
v 541.5045776367188 -1022.7337646484375 500.0001525878906
v 419.8127136230469 -197.2332763671875 499.9997253417969
v 2262.891357421875 -496.4337158203125 0.00020159437553957105
v 2039.61474609375 62.76046371459961 0.00014294835273176432
v 2215.028564453125 -511.0662536621094 0.00020078144734725356
v 2098.439453125 41.531795501708984 0.00014737552555743605
v 2262.867431640625 -496.4410095214844 -25.024797439575195
v 2098.399658203125 41.52488327026367 0.02514737658202648
v 2262.867431640625 -496.4410095214844 0.025201592594385147
v 2098.399658203125 41.52488327026367 -25.024852752685547
v 2310.706298828125 -481.8157958984375 -24.999797821044922
v 2098.3916015625 41.51717758178711 -24.999853134155273
v 2262.843505859375 -496.4483337402344 -24.999797821044922
v 2157.21630859375 20.288511276245117 -24.999847412109375
v 2310.682373046875 -481.8230895996094 -50.02479934692383
v 2157.176513671875 20.281597137451172 -24.9748477935791
v 2310.682373046875 -481.8230895996094 -24.97479820251465
v 2157.176513671875 20.281597137451172 -50.02484893798828
v 2358.521240234375 -467.1978759765625 -49.999794006347656
v 2157.16845703125 20.273893356323242 -49.999847412109375
v 2310.658447265625 -481.8304138183594 -49.99979782104492
v 2215.9931640625 -0.9547749757766724 -49.99984359741211
v 2358.497314453125 -467.2051696777344 -75.02479553222656
v 2215.953369140625 -0.9616880416870117 -49.9748420715332
v 2358.497314453125 -467.2051696777344 -49.97479248046875
v 2215.953369140625 -0.9616880416870117 -75.02484130859375
v 2406.336181640625 -452.5799560546875 -74.99979400634766
v 2215.9453125 -0.9693934321403503 -74.99983978271484
v 2358.473388671875 -467.2124938964844 -74.99979400634766
v 2274.77001953125 -22.198060989379883 -74.99983978271484
v 2406.312255859375 -452.5872497558594 -100.02479553222656
v 2274.730224609375 -22.204975128173828 -74.97483825683594
v 2406.312255859375 -452.5872497558594 -74.97479248046875
v 2274.730224609375 -22.204975128173828 -100.02484130859375
v 2098.420654296875 41.465728759765625 0.00014738048776052892
v 2305.1923828125 562.254638671875 0.00011088996689068154
v 2039.599609375 62.732486724853516 0.00014295012806542218
v 2364.013671875 540.9878540039062 0.00011532030475791544
v 2098.395263671875 41.478904724121094 -25.024852752685547
v 2363.994873046875 540.9981689453125 0.025115318596363068
v 2098.395263671875 41.478904724121094 0.025147374719381332
v 2363.994873046875 540.9981689453125 -25.024885177612305
v 2157.197509765625 20.222442626953125 -24.999847412109375
v 2363.969482421875 541.0113525390625 -24.99988555908203
v 2098.37646484375 41.489200592041016 -24.999853134155273
v 2422.79052734375 519.7445678710938 -24.999879837036133
v 2157.172119140625 20.23561668395996 -50.02484893798828
v 2422.771728515625 519.7548828125 -24.97488021850586
v 2157.172119140625 20.23561668395996 -24.9748477935791
v 2422.771728515625 519.7548828125 -50.02488327026367
v 2215.974365234375 -1.0208439826965332 -49.99984359741211
v 2422.746337890625 519.76806640625 -49.999881744384766
v 2157.1533203125 20.24591636657715 -49.999847412109375
v 2481.5673828125 498.50128173828125 -49.999874114990234
v 2215.948974609375 -1.0076693296432495 -75.02484130859375
v 2481.548583984375 498.5115661621094 -49.97487258911133
v 2215.948974609375 -1.0076693296432495 -49.9748420715332
v 2481.548583984375 498.5115661621094 -75.0248794555664
v 2274.751220703125 -22.264129638671875 -74.99983978271484
v 2481.523193359375 498.5247497558594 -74.9998779296875
v 2215.93017578125 -0.9973704218864441 -74.99983978271484
v 2540.34423828125 477.25799560546875 -74.99987030029297
v 2274.725830078125 -22.25095558166504 -100.02484130859375
v 2540.325439453125 477.2682800292969 -74.97486877441406
v 2274.725830078125 -22.25095558166504 -74.97483825683594
v 2540.325439453125 477.2682800292969 -100.02487182617188
v 2363.998291015625 540.9598999023438 0.00011532208736753091
v 1954.3448486328125 1709.8067626953125 -4.768274720845511e-06
v 2305.173583984375 562.1885375976562 0.00011089490726590157
v 2002.2076416015625 1724.4393310546875 -3.955342890549218e-06
v 2363.990234375 540.9521484375 -25.024885177612305
v 2002.1837158203125 1724.4320068359375 0.024996047839522362
v 2363.990234375 540.9521484375 0.025115320459008217
v 2002.1837158203125 1724.4320068359375 -25.02500343322754
v 2422.775146484375 519.7166137695312 -24.999879837036133
v 2002.1597900390625 1724.4246826171875 -25.000003814697266
v 2363.950439453125 540.9452514648438 -24.99988555908203
v 2050.0224609375 1739.0572509765625 -25.000003814697266
v 2422.76708984375 519.7088623046875 -50.02488327026367
v 2049.99853515625 1739.0499267578125 -24.975004196166992
v 2422.76708984375 519.7088623046875 -24.97488021850586
v 2049.99853515625 1739.0499267578125 -50.02500534057617
v 2481.552001953125 498.4732971191406 -49.999874114990234
v 2049.974609375 1739.0426025390625 -50.000003814697266
v 2422.727294921875 519.7019653320312 -49.999881744384766
v 2097.83740234375 1753.6751708984375 -50.0
v 2481.5439453125 498.4656066894531 -75.0248794555664
v 2097.8134765625 1753.6678466796875 -49.974998474121094
v 2481.5439453125 498.4656066894531 -49.97487258911133
v 2097.8134765625 1753.6678466796875 -75.02500915527344
v 2540.3291015625 477.2300109863281 -74.99987030029297
v 2097.78955078125 1753.6605224609375 -75.00000762939453
v 2481.504150390625 498.45867919921875 -74.9998779296875
v 2145.65234375 1768.2930908203125 -75.0
v 2540.321044921875 477.2223205566406 -100.02487182617188
v 2145.62841796875 1768.2857666015625 -74.9749984741211
v 2540.321044921875 477.2223205566406 -74.97486877441406
v 2145.62841796875 1768.2857666015625 -100.0250015258789
v -245.19125366210938 1037.3214111328125 -4.2122515878872946e-05
v 398.060791015625 -1066.5960693359375 0.00016992523160297424
v 806.823974609375 1358.9718017578125 -2.4257040422526188e-05
v 2039.6761474609375 62.75204086303711 0.00014295167056843638
v 1954.3804931640625 1709.8336181640625 -4.76906416224665e-06
v 1805.697265625 827.7999877929688 6.584162474609911e-05
v 1157.65185546875 211.40829467773438 9.140132169704884e-05
v 2215.076416015625 -511.0516357421875 0.00020078217494301498
v 1540.12548828125 328.3682861328125 9.789480827748775e-05
v 2305.252197265625 562.2149047851562 0.00011089603503933176
v 1571.8131103515625 1592.8634033203125 -1.1265759894740768e-05
v 806.7978515625 1358.9716796875 -0.025024253875017166
v 1157.642578125 211.35316467285156 -0.02490859478712082
v 806.7978515625 1358.9716796875 75.02497863769531
v 1157.642578125 211.35316467285156 75.02509307861328
v 1157.611328125 211.36976623535156 -0.02490859664976597
v 1540.178955078125 328.3399658203125 -0.0249021016061306
v 1157.611328125 211.36976623535156 75.02509307861328
v 1540.178955078125 328.3399658203125 75.02510070800781
v 1540.143310546875 328.3105773925781 -0.0249021016061306
v 1805.7548828125 827.817626953125 -0.024934155866503716
v 1540.143310546875 328.3105773925781 75.02510070800781
v 1805.7548828125 827.817626953125 75.02507019042969
v 1805.7506103515625 827.7716064453125 -0.024934155866503716
v 1571.8370361328125 1592.870849609375 -0.02501126378774643
v 1805.7506103515625 827.7716064453125 75.02507019042969
v 1571.8370361328125 1592.870849609375 75.02498626708984
v 806.7739868164062 1358.96435546875 74.9999771118164
v 1157.61865234375 211.34585571289062 75.00009155273438
v 1540.1844482421875 328.2969970703125 75.0000991821289
v 1571.8609619140625 1592.8780517578125 74.99998474121094
v 1805.789306640625 827.7910766601562 75.00006866455078
v 806.7978515625 1358.9716796875 74.9749755859375
v 1157.642578125 211.35316467285156 74.97509002685547
v 1157.642578125 211.35316467285156 85.02509307861328
v 806.7978515625 1358.9716796875 85.02497863769531
v 819.2845458984375 1352.3323974609375 74.9749755859375
v 819.2845458984375 1352.3323974609375 85.02497863769531
v 1164.2821044921875 223.84010314941406 85.02509307861328
v 1164.2821044921875 223.84010314941406 74.97509002685547
v 1157.611328125 211.36976623535156 74.97509002685547
v 1540.178955078125 328.3399658203125 74.97509765625
v 1540.178955078125 328.3399658203125 85.02510070800781
v 1157.611328125 211.36976623535156 85.02509307861328
v 1164.2508544921875 223.85670471191406 74.97509002685547
v 1164.2508544921875 223.85670471191406 85.02509307861328
v 1533.294189453125 336.69189453125 85.02510070800781
v 1533.294189453125 336.69189453125 74.97509765625
v 1540.143310546875 328.3105773925781 74.97509765625
v 1805.7550048828125 827.817626953125 74.97506713867188
v 1805.7550048828125 827.817626953125 85.02507019042969
v 1540.143310546875 328.3105773925781 85.02510070800781
v 1533.258544921875 336.6625061035156 74.97509765625
v 1533.258544921875 336.6625061035156 85.02510070800781
v 1794.98095703125 828.855224609375 85.02507019042969
v 1794.98095703125 828.855224609375 74.97506713867188
v 1805.7506103515625 827.7716064453125 74.97506713867188
v 1571.8370361328125 1592.8707275390625 74.97498321533203
v 1571.8370361328125 1592.8707275390625 85.02498626708984
v 1805.7506103515625 827.7716064453125 85.02507019042969
v 1794.9765625 828.8092041015625 74.97506713867188
v 1794.9765625 828.8092041015625 85.02507019042969
v 1565.19775390625 1580.3839111328125 85.02498626708984
v 1565.19775390625 1580.3839111328125 74.97498321533203
v 1571.8682861328125 1592.8541259765625 74.97498321533203
v 806.78125 1358.9404296875 74.9749755859375
v 806.78125 1358.9404296875 85.02497863769531
v 1571.8682861328125 1592.8541259765625 85.02498626708984
v 1565.22900390625 1580.3673095703125 74.97498321533203
v 1565.22900390625 1580.3673095703125 85.02498626708984
v 819.2679443359375 1352.3011474609375 85.02497863769531
v 819.2679443359375 1352.3011474609375 74.9749755859375
v 806.7930297851562 1358.9625244140625 84.9999771118164
v 1157.626953125 211.36146545410156 85.00009155273438
v 1164.32080078125 223.85958862304688 85.00009155273438
v 819.2874145507812 1352.262451171875 84.9999771118164
v 1540.169677734375 328.3148193359375 85.0000991821289
v 1533.2822265625 336.724365234375 85.0000991821289
v 1805.7662353515625 827.7933349609375 85.00006866455078
v 1794.9495849609375 828.8697509765625 85.00006866455078
v 1571.8526611328125 1592.8624267578125 84.99998474121094
v 1565.1590576171875 1580.3643798828125 84.99998474121094
v 402.9169616699219 -176.25633239746094 419.9747009277344
v 359.0497131347656 -32.76185989379883 419.97467041015625
v 359.0497131347656 -32.76185989379883 480.024658203125
v 402.9169616699219 -176.25633239746094 480.0246887207031
v 353.2173767089844 -13.683331489562988 419.97467041015625
v 309.3500061035156 129.81114196777344 419.97467041015625
v 309.3500061035156 129.81114196777344 480.024658203125
v 353.2173767089844 -13.683331489562988 480.024658203125
v 303.5174255371094 148.88954162597656 419.97467041015625
v 259.6502990722656 292.3838806152344 419.97467041015625
v 259.6502990722656 292.3838806152344 480.024658203125
v 303.5174255371094 148.88954162597656 480.024658203125
v 794.4382934570312 -772.7923583984375 4.000161647796631
v 2008.9427490234375 -401.5511169433594 4.000182151794434
v 1911.6485595703125 36.559814453125 4.0001397132873535
v 2139.46923828125 539.6581420898438 4.000105857849121
v 1844.7828369140625 1503.6890869140625 4.000008583068848
v 1777.848876953125 1483.2891845703125 4.000007152557373
v 1933.6148681640625 853.9190673828125 4.0000691413879395
v 1590.0084228515625 207.63758850097656 4.000110626220703
v 1071.3204345703125 49.01034164428711 4.000101566314697
v 697.2239379882812 1152.83349609375 3.9999890327453613
v 204.000244140625 1038.68994140625 3.9999773502349854
v 247.7586669921875 1015.47998046875 3.999981164932251
v 1164.245361328125 223.899658203125 85.00009155273438
v 1533.2288818359375 336.680419921875 85.0000991821289
v 1794.9429931640625 828.8009643554688 85.00006866455078
v 1565.2344970703125 1580.3243408203125 84.99998474121094
v 806.7861328125 1358.9495849609375 84.9999771118164
v 819.3275146484375 1352.337890625 84.9999771118164
f 18 17 19
f 20 18 19
f 523 528 522
f 519 518 520
f 520 524 519
f 524 526 519
f 526 525 519
f 523 525 526
f 521 525 523
f 522 521 523
f 521 522 527
f 433 430 431
f 431 430 432
f 429 426 427
f 427 426 428
f 425 422 423
f 423 422 424
f 517 514 515
f 515 514 516
f 513 510 511
f 511 510 512
f 509 506 507
f 507 506 508
f 505 502 503
f 503 502 504
f 501 498 499
f 499 498 500
f 497 494 495
f 495 494 496
f 493 490 491
f 491 490 492
f 489 486 487
f 487 486 488
f 485 482 483
f 483 482 484
f 481 478 479
f 479 478 480
f 477 474 475
f 475 474 476
f 473 470 471
f 471 470 472
f 469 466 467
f 467 466 468
f 465 462 463
f 463 462 464
f 461 458 459
f 459 458 460
f 457 454 455
f 455 454 456
f 453 450 451
f 451 450 452
f 449 446 447
f 447 446 448
f 445 442 443
f 443 442 444
f 441 438 439
f 439 438 440
f 437 434 435
f 435 434 436
f 141 140 142
f 142 140 143
f 137 136 138
f 138 136 139
f 133 132 134
f 134 132 135
f 129 128 130
f 130 128 131
f 125 124 126
f 126 124 127
f 121 120 122
f 122 120 123
f 117 116 118
f 118 116 119
f 113 112 114
f 114 112 115
f 109 108 110
f 110 108 111
f 105 104 106
f 106 104 107
f 101 100 102
f 102 100 103
f 97 96 98
f 98 96 99
f 93 92 94
f 94 92 95
f 89 88 90
f 90 88 91
f 85 84 86
f 86 84 87
f 81 80 82
f 82 80 83
f 77 76 78
f 78 76 79
f 73 72 74
f 74 72 75
f 69 68 70
f 70 68 71
f 65 64 66
f 66 64 67
f 61 60 62
f 62 60 63
f 57 56 58
f 58 56 59
f 156 154 157
f 159 156 612
f 158 156 159
f 161 158 613
f 160 158 161
f 163 614 161
f 162 614 163
f 165 162 615
f 164 162 165
f 147 164 616
f 144 164 147
f 146 144 617
f 145 144 146
f 149 618 146
f 148 618 149
f 151 619 149
f 150 619 151
f 153 620 151
f 152 620 153
f 155 152 621
f 622 152 155
f 157 154 623
f 417 420 415
f 415 414 416
f 416 419 415
f 419 417 415
f 418 417 419
f 417 418 421
f 591 590 592
f 595 591 624
f 594 591 595
f 597 594 625
f 596 594 597
f 599 596 626
f 598 596 599
f 593 598 627
f 628 598 593
f 592 590 629
f 14 13 15
f 16 14 15
f 10 9 11
f 12 10 11
f 6 5 7
f 8 6 7
f 2 1 3
f 4 2 3
f 188 184 187
f 188 187 189
f 183 182 184
f 187 184 182
f 187 182 185
f 186 185 182
f 22 21 23
f 24 22 23
f 26 25 27
f 28 26 27
f 30 29 31
f 32 30 31
f 34 33 35
f 36 34 35
f 38 37 39
f 40 38 39
f 42 41 43
f 44 42 43
f 53 51 54
f 51 53 50
f 50 49 51
f 49 52 51
f 48 52 49
f 45 48 49
f 48 45 55
f 45 46 55
f 46 45 47
f 169 167 168
f 167 166 168
f 542 541 543
f 544 542 543
f 538 537 539
f 540 538 539
f 534 533 535
f 536 534 535
f 530 529 531
f 532 530 531
f 178 177 173
f 173 174 178
f 173 172 174
f 174 172 176
f 175 174 176
f 176 181 175
f 175 181 180
f 180 179 175
f 171 170 172
f 172 170 176
f 551 550 552
f 552 550 553
f 555 554 556
f 556 554 557
f 559 558 560
f 560 558 561
f 563 562 564
f 564 562 565
f 567 566 568
f 568 566 569
f 571 570 572
f 572 570 573
f 575 574 576
f 576 574 577
f 579 578 580
f 580 578 581
f 583 582 584
f 584 582 585
f 587 586 588
f 588 586 589
f 195 194 196
f 197 195 196
f 211 212 199
f 206 207 203
f 206 211 207
f 211 209 207
f 209 211 199
f 200 209 199
f 199 198 200
f 200 198 204
f 204 198 203
f 207 204 203
f 202 201 203
f 203 208 202
f 202 208 210
f 210 208 199
f 213 210 199
f 212 213 199
f 213 212 205
f 201 213 205
f 201 205 203
f 205 206 203
f 609 608 610
f 610 608 611
f 605 604 606
f 606 604 607
f 601 600 602
f 602 600 603
f 411 410 412
f 412 410 413
f 409 406 407
f 407 406 408
f 402 403 405
f 403 402 404
f 399 398 400
f 401 400 398
f 395 394 396
f 396 394 397
f 393 390 391
f 391 390 392
f 386 387 389
f 387 386 388
f 383 382 384
f 385 384 382
f 379 378 380
f 380 378 381
f 377 374 375
f 375 374 376
f 370 371 373
f 371 370 372
f 367 366 368
f 369 368 366
f 215 214 216
f 217 215 216
f 219 218 220
f 221 219 220
f 191 190 192
f 193 191 192
f 223 225 222
f 223 222 224
f 315 317 314
f 315 314 316
f 311 313 310
f 311 310 312
f 307 309 306
f 307 306 308
f 303 305 302
f 303 302 304
f 299 301 298
f 299 298 300
f 295 297 294
f 295 294 296
f 291 293 290
f 291 290 292
f 287 289 286
f 287 286 288
f 283 285 282
f 283 282 284
f 279 281 278
f 279 278 280
f 275 277 274
f 275 274 276
f 271 273 270
f 271 270 272
f 267 269 266
f 267 266 268
f 263 265 262
f 263 262 264
f 259 261 258
f 259 258 260
f 255 257 254
f 255 254 256
f 251 253 250
f 251 250 252
f 247 249 246
f 247 246 248
f 243 245 242
f 243 242 244
f 239 241 238
f 239 238 240
f 235 237 234
f 235 234 236
f 231 233 230
f 231 230 232
f 227 229 226
f 227 226 228
f 319 318 320
f 320 321 319
f 355 354 356
f 357 355 356
f 351 350 352
f 352 353 351
f 339 338 340
f 341 339 340
f 335 334 336
f 336 337 335
f 323 322 324
f 325 323 324
f 326 327 329
f 327 326 328
f 333 330 331
f 331 330 332
f 342 343 345
f 343 342 344
f 349 346 347
f 347 346 348
f 358 359 361
f 359 358 360
f 365 362 363
f 363 362 364
f 546 545 547
f 547 545 548
f 548 549 547
