# from WaterfrontDistrict_Block18_Residental (UC)_0005_LOD_0.pskx
v 527.34765625 63.80345153808594 94.97541046142578
v 521.7718505859375 83.0169677734375 94.97529602050781
v 527.3475952148438 63.803565979003906 1125.0264892578125
v 521.7718505859375 83.01708221435547 1125.0264892578125
v 521.8027954101562 82.99992370605469 94.97529602050781
v -467.43475341796875 -203.95327758789062 94.97528076171875
v 507.14013671875 78.74666595458984 109.13440704345703
v 507.1160583496094 78.73981475830078 1109.1103515625
v -453.24639892578125 -199.8375244140625 1109.1102294921875
v 521.8027954101562 83.00003814697266 1125.0262451171875
v -467.4347839355469 -203.9531707763672 1125.026123046875
v -453.24639892578125 -199.83761596679688 109.15939331054688
v -467.41778564453125 -203.92230224609375 94.97528076171875
v -461.84716796875 -223.14688110351562 94.97539520263672
v -467.4178161621094 -203.9222412109375 1125.0263671875
v -461.8471984863281 -223.14678955078125 1125.0263671875
v -461.8781433105469 -223.12982177734375 94.97539520263672
v 527.3645629882812 63.83442687988281 94.97541046142578
v -461.878173828125 -223.12973022460938 1125.0263671875
v 527.3645629882812 63.834510803222656 1125.0264892578125
v -467.4418029785156 -203.92926025390625 95.00028228759766
v 521.7958374023438 83.02393341064453 95.00029754638672
v 527.3716430664062 63.81041717529297 95.00041198730469
v -461.8711853027344 -223.15383911132812 95.00039672851562
v -467.44183349609375 -203.92919921875 1125.0013427734375
v 527.37158203125 63.81053161621094 1125.00146484375
v 521.7958374023438 83.0240478515625 1125.00146484375
v -461.8712158203125 -223.15374755859375 1125.0013427734375
v 476.72552490234375 59.487274169921875 79.97460174560547
v -416.48187255859375 -199.6832275390625 79.97477722167969
v 476.72552490234375 59.487274169921875 85.02461242675781
v -416.48187255859375 -199.6832275390625 85.0247802734375
v -416.4648132324219 -199.65223693847656 79.97477722167969
v -413.6691589355469 -209.310302734375 79.97477722167969
v -416.4648132324219 -199.65223693847656 85.0247802734375
v -413.6691589355469 -209.310302734375 85.0247802734375
v 479.4902648925781 49.84623336791992 79.97459411621094
v 476.6945495605469 59.50432205200195 79.97460174560547
v 479.4902648925781 49.84623336791992 85.02460479736328
v 476.6945495605469 59.50432205200195 85.02461242675781
v -416.48883056640625 -199.65919494628906 79.9997787475586
v 476.71856689453125 59.511268615722656 79.99960327148438
v 479.5142822265625 49.853187561035156 79.99959564208984
v -413.69317626953125 -209.31724548339844 79.9997787475586
v -416.48883056640625 -199.65919494628906 84.99978637695312
v 479.5142822265625 49.853187561035156 84.99960327148438
v 476.71856689453125 59.511268615722656 84.9996109008789
v -413.69317626953125 -209.31724548339844 84.99978637695312
v 476.76300048828125 59.51031494140625 59.974666595458984
v -416.44439697265625 -199.66018676757812 59.974853515625
v 476.76300048828125 59.51031494140625 65.0246810913086
v -416.44439697265625 -199.66018676757812 65.02485656738281
v -416.4273376464844 -199.6291961669922 59.974853515625
v -413.6316833496094 -209.28726196289062 59.974857330322266
v -416.4273376464844 -199.6291961669922 65.02485656738281
v -413.6316833496094 -209.28726196289062 65.02485656738281
v 479.5277404785156 49.86927032470703 59.974666595458984
v 476.7320251464844 59.52736282348633 59.974666595458984
v 479.5277404785156 49.86927032470703 65.02467346191406
v 476.7320251464844 59.52736282348633 65.0246810913086
v -416.45135498046875 -199.6361541748047 59.999855041503906
v 476.75604248046875 59.53430938720703 59.99966812133789
v 479.5517578125 49.876224517822266 59.99966812133789
v -413.65570068359375 -209.29420471191406 59.99985885620117
v -416.45135498046875 -199.6361541748047 64.99986267089844
v 479.5517578125 49.876224517822266 64.99967193603516
v 476.75604248046875 59.53430938720703 64.99967956542969
v -413.65570068359375 -209.29420471191406 64.99986267089844
v 476.8004150390625 59.533363342285156 39.974552154541016
v -416.4069519042969 -199.63711547851562 39.9747314453125
v 476.8004150390625 59.533363342285156 45.024559020996094
v -416.4069519042969 -199.63711547851562 45.024742126464844
v -416.389892578125 -199.6061248779297 39.9747314453125
v -413.59423828125 -209.26422119140625 39.974735260009766
v -416.389892578125 -199.6061248779297 45.024742126464844
v -413.59423828125 -209.26422119140625 45.02474594116211
v 479.565185546875 49.89232635498047 39.974552154541016
v 476.7694396972656 59.550411224365234 39.974552154541016
v 479.565185546875 49.89232635498047 45.024559020996094
v 476.7694396972656 59.550411224365234 45.024559020996094
v -416.4139099121094 -199.6130828857422 39.999732971191406
v 476.79345703125 59.55735778808594 39.99955368041992
v 479.5892028808594 49.8992805480957 39.99955368041992
v -413.6182556152344 -209.2711639404297 39.99973678588867
v -416.4139099121094 -199.6130828857422 44.99974060058594
v 479.5892028808594 49.8992805480957 44.99955749511719
v 476.79345703125 59.55735778808594 44.99955749511719
v -413.6182556152344 -209.2711639404297 44.9997444152832
v 446.82000732421875 19.53849220275879 -0.024983463808894157
v 399.3829650878906 182.84312438964844 -0.024799808859825134
v 446.82000732421875 19.53849220275879 10.025025367736816
v 399.3829650878906 182.84312438964844 10.025209426879883
v 399.4139709472656 182.82608032226562 -0.024799810722470284
v 389.755859375 180.0303955078125 -0.02479998767375946
v 399.4139709472656 182.82608032226562 10.025209426879883
v 389.755859375 180.0303955078125 10.025209426879883
v 389.77288818359375 180.0613555908203 -0.02479998581111431
v 437.2099609375 16.756738662719727 -0.024983640760183334
v 389.77288818359375 180.0613555908203 10.025209426879883
v 437.2099609375 16.756738662719727 10.025025367736816
v 399.4070129394531 182.85011291503906 0.00020021628006361425
v 446.8439636230469 19.545459747314453 1.65073561220197e-05
v 389.7489318847656 180.0543975830078 0.00020003847021143883
v 437.1858825683594 16.74974250793457 1.6329535355907865e-05
v 399.4070129394531 182.85011291503906 10.00020980834961
v 389.7489318847656 180.0543975830078 10.00020980834961
v 441.2676086425781 38.7425422668457 10.00002384185791
v 431.6121826171875 35.947574615478516 10.00002384185791
v 446.8199768066406 19.53849220275879 9.97502613067627
v 441.23236083984375 38.78435516357422 9.97512435913086
v 446.8199462890625 19.53858184814453 1080.0260009765625
v 441.2322998046875 38.784446716308594 1080.026123046875
v 441.2633361816406 38.767295837402344 9.97512435913086
v 431.605224609375 35.97161102294922 9.97512435913086
v 441.2632751464844 38.76738739013672 1080.026123046875
v 431.6051940917969 35.971702575683594 1080.026123046875
v 431.6222839355469 36.00257110595703 9.97512435913086
v 437.2099304199219 16.756738662719727 9.97502613067627
v 431.62225341796875 36.002662658691406 1080.026123046875
v 437.2098693847656 16.75682830810547 1080.0260009765625
v 441.2563781738281 38.79132843017578 10.000123977661133
v 446.8439636230469 19.545455932617188 10.000025749206543
v 431.5982971191406 35.99560546875 10.000123977661133
v 437.1858825683594 16.749746322631836 10.000025749206543
v 441.2563171386719 38.791419982910156 1080.0010986328125
v 431.5982666015625 35.995697021484375 1080.0010986328125
v 446.84393310546875 19.545547485351562 1080.0009765625
v 437.18585205078125 16.74983787536621 1080.0009765625
v 43.44004821777344 -97.47404479980469 -0.02499086782336235
v -3.9969944953918457 65.83061218261719 -0.024807212874293327
v 43.44004440307617 -97.47404479980469 10.025017738342285
v -3.996992588043213 65.83061218261719 10.025201797485352
v -3.9660065174102783 65.81355285644531 -0.024807218462228775
v -13.624089241027832 63.01786804199219 -0.024807391688227654
v -3.9660046100616455 65.81355285644531 10.025201797485352
v -13.6240873336792 63.017860412597656 10.025201797485352
v -13.607048988342285 63.048824310302734 -0.024807371199131012
v 33.82997131347656 -100.25579833984375 -0.024991046637296677
v -13.607047080993652 63.0488166809082 10.025201797485352
v 33.82997131347656 -100.25579833984375 10.025018692016602
v -3.972964286804199 65.83759307861328 0.00019281351706013083
v 43.46403503417969 -97.46707916259766 9.10461039893562e-06
v -13.631033897399902 63.0418586730957 0.00019263572175987065
v 33.80595779418945 -100.26280212402344 8.926798727770802e-06
v -3.9729626178741455 65.83759307861328 10.000202178955078
v -13.63103199005127 63.04185104370117 10.000202178955078
v 37.887638092041016 -78.27001953125 10.000016212463379
v 28.232227325439453 -81.06498718261719 10.000016212463379
v 43.440040588378906 -97.47404479980469 9.975018501281738
v 37.852378845214844 -78.22819519042969 9.975116729736328
v 43.439998626708984 -97.47395324707031 1080.0260009765625
v 37.85232925415039 -78.22809600830078 1080.026123046875
v 37.883358001708984 -78.24524688720703 9.975116729736328
v 28.225269317626953 -81.04094696044922 9.975116729736328
v 37.883304595947266 -78.24515533447266 1080.026123046875
v 28.225217819213867 -81.04084777832031 1080.026123046875
v 28.242311477661133 -81.0099868774414 9.975116729736328
v 33.82998275756836 -100.25582122802734 9.975019454956055
v 28.242259979248047 -81.0098876953125 1080.026123046875
v 33.82993698120117 -100.25572967529297 1080.0260009765625
v 37.876399993896484 -78.2212142944336 10.000116348266602
v 43.46403121948242 -97.46707916259766 10.000018119812012
v 28.21832275390625 -81.01695251464844 10.000116348266602
v 33.80595779418945 -100.2627944946289 10.000019073486328
v 37.876346588134766 -78.22112274169922 1080.0010986328125
v 28.218271255493164 -81.01685333251953 1080.0010986328125
v 43.4639892578125 -97.46698760986328 1080.0009765625
v 33.805912017822266 -100.26270294189453 1080.0009765625
v -359.9347229003906 -214.4755096435547 -0.024998269975185394
v -407.37176513671875 -51.17087936401367 -0.02481461502611637
v -359.9347229003906 -214.4755096435547 10.02501106262207
v -407.37176513671875 -51.17087936401367 10.025195121765137
v -407.34075927734375 -51.18793487548828 -0.02481461502611637
v -416.9989013671875 -53.983619689941406 -0.024814791977405548
v -407.34075927734375 -51.18793487548828 10.025195121765137
v -416.9989013671875 -53.983619689941406 10.02519416809082
v -416.98187255859375 -53.95266342163086 -0.024814791977405548
v -369.5447692871094 -217.25726318359375 -0.02499844692647457
v -416.98187255859375 -53.95266342163086 10.02519416809082
v -369.5447692871094 -217.25726318359375 10.025010108947754
v -407.34771728515625 -51.16389846801758 0.00018541005556471646
v -359.9107666015625 -214.4685516357422 1.7011320778692607e-06
v -417.0058288574219 -53.95962905883789 0.00018523226026445627
v -369.56878662109375 -217.26429748535156 1.523326318420004e-06
v -407.34771728515625 -51.16389846801758 10.000195503234863
v -417.0058288574219 -53.95962905883789 10.000194549560547
v -365.4871520996094 -195.271484375 10.000009536743164
v -375.1425476074219 -198.0664825439453 10.000008583068848
v -359.93475341796875 -214.4755096435547 9.975011825561523
v -365.5223693847656 -195.2296905517578 9.975110054016113
v -359.9347839355469 -214.4753875732422 1080.0260009765625
v -365.52239990234375 -195.2295684814453 1080.026123046875
v -365.49139404296875 -195.24673461914062 9.975110054016113
v -375.1495056152344 -198.04244995117188 9.975109100341797
v -365.4914245605469 -195.24661254882812 1080.026123046875
v -375.1495666503906 -198.0423583984375 1080.026123046875
v -375.1324462890625 -198.01148986816406 9.975109100341797
v -369.5447692871094 -217.25730895996094 9.975010871887207
v -375.13250732421875 -198.0113983154297 1080.026123046875
v -369.5448303222656 -217.25718688964844 1080.0260009765625
v -365.49835205078125 -195.2227020263672 10.000109672546387
v -359.9107666015625 -214.4685516357422 10.000011444091797
v -375.15643310546875 -198.01844787597656 10.00010871887207
v -369.56878662109375 -217.26429748535156 10.00001049041748
v -365.4983825683594 -195.2225799560547 1080.0010986328125
v -375.156494140625 -198.0183563232422 1080.0010986328125
v -359.9107971191406 -214.4684295654297 1080.0009765625
v -369.56884765625 -217.26417541503906 1080.0009765625
v 691.4620361328125 111.28001403808594 9.974828720092773
v 643.474365234375 276.1228332519531 9.975213050842285
v 691.4620361328125 111.28001403808594 20.02483558654785
v 643.474365234375 276.1228332519531 20.025218963623047
v 643.5053100585938 276.10577392578125 9.975213050842285
v -691.4790649414062 -111.2986831665039 9.975188255310059
v 643.5053100585938 276.10577392578125 20.025218963623047
v -691.4790649414062 -111.2986831665039 20.02519416809082
v -691.4619140625 -111.26771545410156 9.975188255310059
v -643.4742431640625 -276.1228332519531 9.974804878234863
v -691.4619140625 -111.26771545410156 20.025196075439453
v -643.4742431640625 -276.1228332519531 20.024812698364258
v -643.5051879882812 -276.10577392578125 9.974804878234863
v 691.4790649414062 111.31092071533203 9.974828720092773
v -643.5051879882812 -276.10577392578125 20.024812698364258
v 691.4790649414062 111.31092071533203 20.024837493896484
v -636.6505126953125 -263.7204895019531 9.974703788757324
v -672.8826904296875 -138.8067626953125 9.974690437316895
v -636.6505126953125 -263.7204895019531 20.02471351623535
v -672.8826904296875 -138.8067626953125 20.024700164794922
v -672.8997192382812 -138.83775329589844 9.974690437316895
v 643.0171508789062 243.03707885742188 9.974715232849121
v -672.8997192382812 -138.83775329589844 20.024700164794922
v 643.0171508789062 243.03707885742188 20.02472496032715
v 642.986083984375 243.05409240722656 9.974715232849121
v 679.2060546875 118.16472625732422 9.974727630615234
v 642.986083984375 243.05409240722656 20.02472496032715
v 679.2060546875 118.16472625732422 20.024738311767578
v 679.2230834960938 118.1957015991211 9.974727630615234
v -636.6810913085938 -263.70330810546875 9.974703788757324
v 679.2230834960938 118.1957015991211 20.024738311767578
v -636.6810913085938 -263.70330810546875 20.02471351623535
v 643.4983520507812 276.12982177734375 10.000213623046875
v 679.1680908203125 118.20578002929688 9.999725341796875
v 642.9760131835938 242.9990997314453 9.999712944030762
v 691.4860229492188 111.28699493408203 9.999829292297363
v -691.4857788085938 -111.27466583251953 10.000189781188965
v -643.4982299804688 -276.12982177734375 9.999805450439453
v -672.8447265625 -138.8478240966797 9.999689102172852
v -636.6404418945312 -263.6654968261719 9.999702453613281
v 643.4983520507812 276.12982177734375 20.000221252441406
v 642.9760131835938 242.9990997314453 19.99982261657715
v 679.1680908203125 118.20578002929688 19.999835968017578
v 691.4860229492188 111.28699493408203 19.99983787536621
v -691.4857788085938 -111.27466583251953 20.000198364257812
v -643.4982299804688 -276.12982177734375 19.999813079833984
v -636.6404418945312 -263.6654968261719 19.999813079833984
v -672.8447265625 -138.8478240966797 19.999799728393555
v 679.1168212890625 118.12212371826172 15.338132858276367
v 641.4197998046875 247.80880737304688 15.3383207321167
v 679.1168212890625 118.12212371826172 17.388137817382812
v 641.4197998046875 247.80880737304688 17.388322830200195
v 641.4507446289062 247.79177856445312 15.3383207321167
v -674.4418334960938 -134.0830841064453 15.338297843933105
v 641.4507446289062 247.79177856445312 17.388322830200195
v -674.4418334960938 -134.0830841064453 17.388296127319336
v -674.4248046875 -134.0519561767578 15.338297843933105
v -636.7276611328125 -263.7508850097656 15.338109016418457
v -674.4248046875 -134.0519561767578 17.388296127319336
v -636.7276611328125 -263.7508850097656 17.388113021850586
v -636.7586059570312 -263.73382568359375 15.338109016418457
v 679.1339721679688 118.15311431884766 15.338132858276367
v -636.7586059570312 -263.73382568359375 17.388113021850586
v 679.1339721679688 118.15311431884766 17.388137817382812
v -674.4487915039062 -134.05892944335938 15.363297462463379
v 641.4437866210938 247.8157958984375 15.363320350646973
v 679.1408081054688 118.12910461425781 15.36313247680664
v -636.7516479492188 -263.7578430175781 15.36310863494873
v -674.4487915039062 -134.05892944335938 17.363296508789062
v 679.1408081054688 118.12910461425781 17.363136291503906
v 641.4437866210938 247.8157958984375 17.363323211669922
v -636.7516479492188 -263.7578430175781 17.36311149597168
v -453.29443359375 -199.85153198242188 109.10939025878906
v -453.29443359375 -199.8514404296875 1109.1602783203125
v 507.1640930175781 78.75374603271484 1109.160400390625
f 2 1 3
f 4 2 3
f 18 17 19
f 20 18 19
f 14 13 15
f 16 14 15
f 9 8 10
f 10 11 9
f 9 11 12
f 12 11 6
f 7 12 6
f 6 5 7
f 7 5 8
f 8 5 10
f 25 26 28
f 26 25 27
f 22 21 23
f 24 23 21
f 42 41 43
f 44 43 41
f 38 37 39
f 40 38 39
f 34 33 35
f 36 34 35
f 30 29 31
f 32 30 31
f 238 237 239
f 240 238 239
f 234 233 235
f 236 234 235
f 230 229 231
f 232 230 231
f 226 225 227
f 228 226 227
f 222 221 223
f 224 222 223
f 218 217 219
f 220 218 219
f 214 213 215
f 216 214 215
f 210 209 211
f 212 210 211
f 206 205 207
f 207 208 206
f 202 201 203
f 203 204 202
f 198 197 199
f 200 198 199
f 194 193 195
f 196 194 195
f 190 189 191
f 192 190 191
f 186 185 187
f 187 188 186
f 182 181 183
f 183 184 182
f 178 177 179
f 180 178 179
f 174 173 175
f 176 174 175
f 170 169 171
f 172 170 171
f 166 165 167
f 167 168 166
f 162 161 163
f 163 164 162
f 158 157 159
f 160 158 159
f 154 153 155
f 156 154 155
f 150 149 151
f 152 150 151
f 146 145 147
f 147 148 146
f 142 141 143
f 143 144 142
f 138 137 139
f 140 138 139
f 134 133 135
f 136 134 135
f 130 129 131
f 132 130 131
f 126 125 127
f 127 128 126
f 122 121 123
f 123 124 122
f 118 117 119
f 120 118 119
f 114 113 115
f 116 114 115
f 110 109 111
f 112 110 111
f 106 105 107
f 107 108 106
f 102 101 103
f 103 104 102
f 98 97 99
f 100 98 99
f 94 93 95
f 96 94 95
f 90 89 91
f 92 90 91
f 78 77 79
f 80 78 79
f 74 73 75
f 76 74 75
f 70 69 71
f 72 70 71
f 58 57 59
f 60 58 59
f 54 53 55
f 56 54 55
f 50 49 51
f 52 50 51
f 241 245 243
f 242 241 243
f 244 241 242
f 242 248 244
f 246 244 248
f 247 246 248
f 245 246 247
f 247 243 245
f 85 86 88
f 86 85 87
f 82 81 83
f 84 83 81
f 65 66 68
f 66 65 67
f 62 61 63
f 64 63 61
f 45 46 48
f 46 45 47
f 250 249 251
f 251 249 252
f 252 255 251
f 255 252 254
f 255 254 256
f 256 254 253
f 253 250 256
f 250 253 249
f 281 7 282
f 282 7 283
f 258 257 259
f 260 258 259
f 270 269 271
f 272 270 271
f 266 265 267
f 268 266 267
f 262 261 263
f 264 262 263
f 274 273 275
f 276 275 273
f 277 278 280
f 278 277 279
