# from FD_B07_DempseysSign_LOD_0.pskx
v -21.393291473388672 294.00872802734375 -2.7573320039664395e-05
v -8.427484512329102 294.7117614746094 -2.6501273168832995e-05
v 21.393291473388672 -294.00872802734375 2.7573320039664395e-05
v 8.427484512329102 -294.7117614746094 2.6501273168832995e-05
v 8.427484512329102 -294.7117614746094 2.6501273168832995e-05
v 8.427457809448242 -294.71173095703125 299.65509033203125
v -21.39331817626953 294.0087585449219 299.655029296875
v -21.393291473388672 294.00872802734375 -2.7573320039664395e-05
v -8.427484512329102 294.7117614746094 -2.6501273168832995e-05
v -8.427511215209961 294.7117919921875 299.655029296875
v 21.393264770507812 -294.0086975097656 299.65509033203125
v 21.393291473388672 -294.00872802734375 2.7573320039664395e-05
v 21.393264770507812 -294.0086975097656 299.65509033203125
v -8.427511215209961 294.7117919921875 299.655029296875
v -21.39331817626953 294.0087585449219 299.655029296875
v 8.427457809448242 -294.71173095703125 299.65509033203125
v 21.393264770507812 -294.0086975097656 299.65509033203125
v 8.427457809448242 -294.71173095703125 299.65509033203125
v 8.427484512329102 -294.7117614746094 2.6501273168832995e-05
v 21.393291473388672 -294.00872802734375 2.7573320039664395e-05
v -21.393291473388672 294.00872802734375 -2.7573320039664395e-05
v -21.39331817626953 294.0087585449219 299.655029296875
v -8.427511215209961 294.7117919921875 299.655029296875
v -8.427484512329102 294.7117614746094 -2.6501273168832995e-05
v 29.36983871459961 -232.66012573242188 48.61876678466797
v 28.6441650390625 -218.81336975097656 48.61876678466797
v 27.408687591552734 -195.2198028564453 136.54403686523438
v 27.947912216186523 -205.5281219482422 150.01646423339844
v 26.380084991455078 -182.25437927246094 148.9734344482422
v 26.6524658203125 -184.8815460205078 135.51754760742188
v 25.342424392700195 -161.0139923095703 135.9729461669922
v 25.997562408447266 -172.1206817626953 126.54874420166016
v 25.209888458251953 -152.4049530029297 109.8409423828125
v 25.91498565673828 -166.73736572265625 107.68525695800781
v 25.696502685546875 -156.756103515625 85.43692779541016
v 26.13582992553711 -170.95140075683594 87.4336929321289
v 26.736474990844727 -182.41246032714844 68.36345672607422
v 30.32368278503418 -250.86056518554688 48.618770599365234
v 30.509231567382812 -254.40110778808594 35.1463508605957
v 29.56422996520996 -236.36935424804688 35.14634704589844
v 29.890974044799805 -242.60398864746094 11.519755363464355
v 29.166749954223633 -228.784912109375 11.519754409790039
v 28.83656120300293 -222.55113220214844 35.14634704589844
v 26.938846588134766 -191.85614013671875 43.03070831298828
v 27.610885620117188 -199.09713745117188 54.187496185302734
v 26.238828659057617 -170.6199493408203 60.763519287109375
v 23.637359619140625 -123.27755737304688 35.146339416503906
v 23.45180892944336 -119.73703002929688 48.61875915527344
v 24.759065628051758 -144.68106079101562 48.61875915527344
v 23.451810836791992 -119.73703002929688 72.19549560546875
v 23.26640510559082 -116.19927978515625 85.49064636230469
v 24.237930297851562 -134.73721313476562 85.49065399169922
v 24.43217658996582 -138.4436798095703 72.19550323486328
v 22.603931427001953 -103.55854797363281 109.06739044189453
v 22.418521881103516 -100.02076721191406 122.36254119873047
v 24.449861526489258 -138.7811279296875 122.362548828125
v 23.91118812561035 -128.5025634765625 109.06739044189453
v 25.668699264526367 -162.0378875732422 35.14634323120117
v 21.83186912536621 -88.82667541503906 122.36254119873047
v 23.050703048706055 -112.08341979980469 35.11309814453125
v 22.32647705078125 -98.26437377929688 35.113094329833984
v 21.31087875366211 -78.88556671142578 107.84867858886719
v 20.90455436706543 -70.9657211303711 85.65684509277344
v 21.58456802368164 -84.10782623291016 35.113094329833984
v 20.86034393310547 -70.28874969482422 35.113094329833984
v 20.26861000061035 -58.997825622558594 77.97888946533203
v 19.840251922607422 -50.82421875 93.92615509033203
v 19.138059616088867 -37.42557907104492 105.82391357421875
v 20.127277374267578 -56.30095672607422 35.11309051513672
v 19.403053283691406 -42.481876373291016 35.11309051513672
v 18.175373077392578 -19.05638313293457 122.36253356933594
v 18.961498260498047 -34.05654525756836 122.36253356933594
v 20.312822341918945 -59.84146499633789 103.79918670654297
v 20.983993530273438 -72.64817810058594 99.91590118408203
v 21.215497970581055 -77.02779388427734 122.36251068115234
v 18.815814971923828 -31.276710510253906 35.146331787109375
v 18.091588973999023 -17.457618713378906 35.14632797241211
v 17.720972061157227 -10.378453254699707 61.73663330078125
v 16.590227127075195 11.190117835998535 122.36253356933594
v 17.056859970092773 2.286289930343628 109.0673828125
v 16.588781356811523 9.41329288482666 109.0673828125
v 15.666789054870605 28.88519859313965 115.54185485839844
v 16.155925750732422 19.47715187072754 106.2033920288086
v 15.988061904907227 22.680204391479492 98.1155014038086
v 15.280927658081055 36.1348991394043 98.11271667480469
v 16.100261688232422 19.427860260009766 86.38129425048828
v 15.896807670593262 30.66286277770996 79.1142578125
v 16.52833366394043 12.37121295928955 64.7682113647461
v 16.807157516479492 7.845303535461426 76.34506225585938
v 17.53377914428711 -6.813943862915039 75.03178405761719
v 17.596981048583984 -8.019944190979004 122.36253356933594
v 12.783486366271973 83.8509750366211 109.06735229492188
v 12.596843719482422 87.3886489868164 122.3625259399414
v 13.807623863220215 64.25120544433594 122.16172790527344
v 15.552891731262207 30.983821868896484 48.618743896484375
v 15.738295555114746 27.446062088012695 35.146324157714844
v 14.722555160522461 46.8276252746582 35.146324157714844
v 14.541699409484863 50.259559631347656 48.618736267089844
v 13.93622875213623 61.80514907836914 41.476776123046875
v 14.28100299835205 55.2529296875 56.382564544677734
v 13.587712287902832 68.53339385986328 56.24685287475586
v 14.694007873535156 47.41695785522461 99.74968719482422
v 13.999486923217773 60.62457275390625 101.3201675415039
v 14.44615650177002 52.03277587890625 114.56095123291016
v 13.730158805847168 65.74609375 108.90157318115234
v 11.353952407836914 111.10456848144531 35.14631652832031
v 11.168403625488281 114.64509582519531 48.618736267089844
v 12.475662231445312 89.70103454589844 48.61874008178711
v 11.168402671813965 114.64509582519531 72.19548034667969
v 10.98299789428711 118.18283081054688 85.49063110351562
v 11.954524993896484 99.64490509033203 85.49063110351562
v 12.148774147033691 95.93842315673828 72.19548034667969
v 10.320525169372559 130.82357788085938 109.06737518310547
v 10.135119438171387 134.36134338378906 122.36251831054688
v 12.166455268859863 95.60099029541016 122.3625259399414
v 11.627781867980957 105.8795394897461 109.06737518310547
v 13.385293006896973 72.34420013427734 35.14632034301758
v 8.41632080078125 167.15814208984375 35.14631271362305
v 7.197341442108154 190.41769409179688 122.36251831054688
v 7.921710968017578 176.59584045410156 122.36251831054688
v 8.663623809814453 162.43930053710938 69.22344970703125
v 9.153735160827637 153.08734130859375 108.61448669433594
v 8.75190258026123 160.75479125976562 122.36251831054688
v 9.581367492675781 144.9275665283203 122.36251831054688
v 9.893976211547852 138.962646484375 108.3610610961914
v 9.308263778686523 150.13877868652344 93.17688751220703
v 10.004075050354004 136.86184692382812 93.17688751220703
v 9.144891738891602 153.25607299804688 79.59921264648438
v 9.761326789855957 141.4937744140625 74.35498046875
v 8.857870101928711 158.7328338623047 55.89506149291992
v 9.140545845031738 153.33905029296875 35.14631271362305
v 6.263504981994629 208.23641967773438 94.88587188720703
v 5.874861717224121 215.6521759033203 122.36251831054688
v 6.599087238311768 201.83306884765625 122.36251831054688
v 6.987729549407959 194.41734313964844 94.88587188720703
v 27.408687591552734 -195.2198028564453 136.54403686523438
v 28.6441650390625 -218.81336975097656 48.61876678466797
v 10.9415864944458 -219.7411346435547 48.61876678466797
v 9.698302268981934 -196.1475372314453 136.54403686523438
v 26.6524658203125 -184.8815460205078 135.51754760742188
v 27.408687591552734 -195.2198028564453 136.54403686523438
v 9.698302268981934 -196.1475372314453 136.54403686523438
v 8.949893951416016 -185.80929565429688 135.51754760742188
v 25.997562408447266 -172.1206817626953 126.54874420166016
v 8.294988632202148 -173.04844665527344 126.54874420166016
v 25.91498565673828 -166.73736572265625 107.68525695800781
v 8.212406158447266 -167.66510009765625 107.68525695800781
v 26.13582992553711 -170.95140075683594 87.4336929321289
v 8.43325424194336 -171.87913513183594 87.4336929321289
v 26.736474990844727 -182.41246032714844 68.36345672607422
v 9.03390121459961 -183.34019470214844 68.36345672607422
v 27.610885620117188 -199.09713745117188 54.187496185302734
v 9.908306121826172 -200.02488708496094 54.187496185302734
v 28.6441650390625 -218.81336975097656 48.61876678466797
v 10.9415864944458 -219.7411346435547 48.61876678466797
v 29.36983871459961 -232.66012573242188 48.61876678466797
v 27.947912216186523 -205.5281219482422 150.01646423339844
v 10.24533462524414 -206.4558868408203 150.01646423339844
v 11.667262077331543 -233.58786010742188 48.61876678466797
v 30.32368278503418 -250.86056518554688 48.618770599365234
v 29.36983871459961 -232.66012573242188 48.61876678466797
v 11.667262077331543 -233.58786010742188 48.61876678466797
v 12.621105194091797 -251.788330078125 48.618770599365234
v 30.509231567382812 -254.40110778808594 35.1463508605957
v 30.32368278503418 -250.86056518554688 48.618770599365234
v 12.621105194091797 -251.788330078125 48.618770599365234
v 12.806654930114746 -255.32884216308594 35.1463508605957
v 29.56422996520996 -236.36935424804688 35.14634704589844
v 30.509231567382812 -254.40110778808594 35.1463508605957
v 12.806654930114746 -255.32884216308594 35.1463508605957
v 11.861652374267578 -237.29710388183594 35.14634704589844
v 29.890974044799805 -242.60398864746094 11.519755363464355
v 29.56422996520996 -236.36935424804688 35.14634704589844
v 11.861652374267578 -237.29710388183594 35.14634704589844
v 12.188396453857422 -243.53172302246094 11.519755363464355
v 29.166749954223633 -228.784912109375 11.519754409790039
v 29.890974044799805 -242.60398864746094 11.519755363464355
v 12.188396453857422 -243.53172302246094 11.519755363464355
v 11.46417236328125 -229.712646484375 11.519754409790039
v 28.83656120300293 -222.55113220214844 35.14634704589844
v 29.166749954223633 -228.784912109375 11.519754409790039
v 11.46417236328125 -229.712646484375 11.519754409790039
v 11.133983612060547 -223.47496032714844 35.14634704589844
v 26.938846588134766 -191.85614013671875 43.03070831298828
v 28.83656120300293 -222.55113220214844 35.14634704589844
v 11.133983612060547 -223.47496032714844 35.14634704589844
v 9.2284574508667 -192.78778076171875 43.03070831298828
v 26.238828659057617 -170.6199493408203 60.763519287109375
v 8.536249160766602 -171.5476837158203 60.763519287109375
v 25.696502685546875 -156.756103515625 85.43692779541016
v 7.993922233581543 -157.67994689941406 85.43692779541016
v 25.209888458251953 -152.4049530029297 109.8409423828125
v 7.507315635681152 -153.33270263671875 109.8409423828125
v 25.342424392700195 -161.0139923095703 135.9729461669922
v 7.6398468017578125 -161.94564819335938 135.97296142578125
v 26.380084991455078 -182.25437927246094 148.9734344482422
v 8.677508354187012 -183.17822265625 148.9734344482422
v 27.947912216186523 -205.5281219482422 150.01646423339844
v 10.24533462524414 -206.4558868408203 150.01646423339844
v 22.418521881103516 -100.02076721191406 122.36254119873047
v 22.603931427001953 -103.55854797363281 109.06739044189453
v 4.9013543128967285 -104.48628997802734 109.06739044189453
v 4.715948104858398 -100.94853210449219 122.36254119873047
v 24.449861526489258 -138.7811279296875 122.362548828125
v 22.418521881103516 -100.02076721191406 122.36254119873047
v 4.715948104858398 -100.94853210449219 122.36254119873047
v 6.74728536605835 -139.70887756347656 122.362548828125
v 25.668699264526367 -162.0378875732422 35.14634323120117
v 24.449861526489258 -138.7811279296875 122.362548828125
v 6.74728536605835 -139.70887756347656 122.362548828125
v 7.96612024307251 -162.96563720703125 35.14634323120117
v 23.637359619140625 -123.27755737304688 35.146339416503906
v 25.668699264526367 -162.0378875732422 35.14634323120117
v 7.96612024307251 -162.96563720703125 35.14634323120117
v 5.934782981872559 -124.20530700683594 35.146339416503906
v 23.45180892944336 -119.73703002929688 48.61875915527344
v 23.637359619140625 -123.27755737304688 35.146339416503906
v 5.934782981872559 -124.20530700683594 35.146339416503906
v 5.749233245849609 -120.66477966308594 48.61875915527344
v 24.759065628051758 -144.68106079101562 48.61875915527344
v 23.45180892944336 -119.73703002929688 48.61875915527344
v 5.749233245849609 -120.66477966308594 48.61875915527344
v 7.056489944458008 -145.6088104248047 48.61875915527344
v 24.43217658996582 -138.4436798095703 72.19550323486328
v 24.759065628051758 -144.68106079101562 48.61875915527344
v 7.056489944458008 -145.6088104248047 48.61875915527344
v 6.729602813720703 -139.37142944335938 72.19550323486328
v 23.451810836791992 -119.73703002929688 72.19549560546875
v 24.43217658996582 -138.4436798095703 72.19550323486328
v 6.729602813720703 -139.37142944335938 72.19550323486328
v 5.749231815338135 -120.66477966308594 72.19549560546875
v 23.26640510559082 -116.19927978515625 85.49064636230469
v 23.451810836791992 -119.73703002929688 72.19549560546875
v 5.749231815338135 -120.66477966308594 72.19549560546875
v 5.563826560974121 -117.12702941894531 85.49064636230469
v 24.237930297851562 -134.73721313476562 85.49065399169922
v 23.26640510559082 -116.19927978515625 85.49064636230469
v 5.563826560974121 -117.12702941894531 85.49064636230469
v 6.535353183746338 -135.66494750976562 85.49065399169922
v 23.91118812561035 -128.5025634765625 109.06739044189453
v 24.237930297851562 -134.73721313476562 85.49065399169922
v 6.535353183746338 -135.66494750976562 85.49065399169922
v 6.208611488342285 -129.43031311035156 109.06739044189453
v 22.603931427001953 -103.55854797363281 109.06739044189453
v 23.91118812561035 -128.5025634765625 109.06739044189453
v 6.208611488342285 -129.43031311035156 109.06739044189453
v 4.9013543128967285 -104.48628997802734 109.06739044189453
v 18.175373077392578 -19.05638313293457 122.36253356933594
v 19.403053283691406 -42.481876373291016 35.11309051513672
v 1.7004759311676025 -43.40962600708008 35.113094329833984
v 0.4727984368801117 -19.984130859375 122.36253356933594
v 18.961498260498047 -34.05654525756836 122.36253356933594
v 18.175373077392578 -19.05638313293457 122.36253356933594
v 0.4727984368801117 -19.984130859375 122.36253356933594
v 1.2589210271835327 -34.98429489135742 122.36253356933594
v 20.312822341918945 -59.84146499633789 103.79918670654297
v 2.610247850418091 -60.76921844482422 103.79918670654297
v 21.215497970581055 -77.02779388427734 122.36251068115234
v 20.312822341918945 -59.84146499633789 103.79918670654297
v 2.610247850418091 -60.76921844482422 103.79918670654297
v 3.5129234790802 -77.95944213867188 122.36251068115234
v 21.83186912536621 -88.82667541503906 122.36254119873047
v 4.129291534423828 -89.75442504882812 122.36254119873047
v 23.050703048706055 -112.08341979980469 35.11309814453125
v 21.83186912536621 -88.82667541503906 122.36254119873047
v 4.129291534423828 -89.75442504882812 122.36254119873047
v 5.348126411437988 -113.01118469238281 35.113101959228516
v 22.32647705078125 -98.26437377929688 35.113094329833984
v 23.050703048706055 -112.08341979980469 35.11309814453125
v 5.348126411437988 -113.01118469238281 35.113101959228516
v 4.623902320861816 -99.1921157836914 35.11309814453125
v 21.31087875366211 -78.88556671142578 107.84867858886719
v 22.32647705078125 -98.26437377929688 35.113094329833984
v 4.623902320861816 -99.1921157836914 35.11309814453125
v 3.6083035469055176 -79.81331634521484 107.84867858886719
v 20.983993530273438 -72.64817810058594 99.91590118408203
v 21.31087875366211 -78.88556671142578 107.84867858886719
v 3.6083035469055176 -79.81331634521484 107.84867858886719
v 3.281416654586792 -73.575927734375 99.91590118408203
v 20.90455436706543 -70.9657211303711 85.65684509277344
v 3.2019786834716797 -71.890869140625 85.65684509277344
v 21.58456802368164 -84.10782623291016 35.113094329833984
v 3.8819925785064697 -85.03558349609375 35.11309814453125
v 20.86034393310547 -70.28874969482422 35.113094329833984
v 21.58456802368164 -84.10782623291016 35.113094329833984
v 3.8819925785064697 -85.03558349609375 35.11309814453125
v 3.1577677726745605 -71.21649932861328 35.11309814453125
v 20.26861000061035 -58.997825622558594 77.97888946533203
v 20.86034393310547 -70.28874969482422 35.113094329833984
v 3.1577677726745605 -71.21649932861328 35.11309814453125
v 2.566035747528076 -59.92557907104492 77.97888946533203
v 19.840251922607422 -50.82421875 93.92615509033203
v 2.1376755237579346 -51.7519645690918 93.92615509033203
v 19.138059616088867 -37.42557907104492 105.82391357421875
v 1.4354844093322754 -38.353328704833984 105.82391357421875
v 20.127277374267578 -56.30095672607422 35.11309051513672
v 19.138059616088867 -37.42557907104492 105.82391357421875
v 1.4354844093322754 -38.353328704833984 105.82391357421875
v 2.4247004985809326 -57.228702545166016 35.113094329833984
v 19.403053283691406 -42.481876373291016 35.11309051513672
v 20.127277374267578 -56.30095672607422 35.11309051513672
v 2.4247004985809326 -57.228702545166016 35.113094329833984
v 1.7004759311676025 -43.40962600708008 35.113094329833984
v 18.815814971923828 -31.276710510253906 35.146331787109375
v 17.596981048583984 -8.019944190979004 122.36253356933594
v -0.10559484362602234 -8.947694778442383 122.36253356933594
v 1.1132398843765259 -32.20446014404297 35.146331787109375
v 18.091588973999023 -17.457618713378906 35.14632797241211
v 18.815814971923828 -31.276710510253906 35.146331787109375
v 1.1132398843765259 -32.20446014404297 35.146331787109375
v 0.3890143632888794 -18.385366439819336 35.14632797241211
v 17.720972061157227 -10.378453254699707 61.73663330078125
v 18.091588973999023 -17.457618713378906 35.14632797241211
v 0.3890143632888794 -18.385366439819336 35.14632797241211
v 0.018394710496068 -11.31010913848877 61.73663330078125
v 16.52833366394043 12.37121295928955 64.7682113647461
v 17.720972061157227 -10.378453254699707 61.73663330078125
v 0.018394710496068 -11.31010913848877 61.73663330078125
v -1.1742444038391113 11.443462371826172 64.7682113647461
v 15.896807670593262 30.66286277770996 79.1142578125
v -1.8057688474655151 29.7351131439209 79.1142578125
v 15.280927658081055 36.1348991394043 98.11271667480469
v -2.421647071838379 35.207149505615234 98.11271667480469
v 15.666789054870605 28.88519859313965 115.54185485839844
v -2.035787582397461 27.95484733581543 115.54185485839844
v 16.590227127075195 11.190117835998535 122.36253356933594
v -1.1123483180999756 10.262368202209473 122.36253356933594
v 17.596981048583984 -8.019944190979004 122.36253356933594
v -0.10559484362602234 -8.947694778442383 122.36253356933594
v 17.056859970092773 2.286289930343628 109.0673828125
v 17.53377914428711 -6.813943862915039 75.03178405761719
v -0.16879655420780182 -7.74169397354126 75.03178405761719
v -0.6457193493843079 1.3585401773452759 109.0673828125
v 16.588781356811523 9.41329288482666 109.0673828125
v 17.056859970092773 2.286289930343628 109.0673828125
v -0.6457193493843079 1.3585401773452759 109.0673828125
v -1.1137975454330444 8.485543251037598 109.06736755371094
v 16.155925750732422 19.47715187072754 106.2033920288086
v -1.5466512441635132 18.549402236938477 106.2033920288086
v 15.988061904907227 22.680204391479492 98.1155014038086
v 16.155925750732422 19.47715187072754 106.2033920288086
v -1.5466512441635132 18.549402236938477 106.2033920288086
v -1.7145153284072876 21.752456665039062 98.1155014038086
v 16.100261688232422 19.427860260009766 86.38129425048828
v -1.6023129224777222 18.500112533569336 86.38129425048828
v 16.807157516479492 7.845303535461426 76.34506225585938
v -0.8954172730445862 6.917553901672363 76.34506225585938
v 17.53377914428711 -6.813943862915039 75.03178405761719
v -0.16879655420780182 -7.74169397354126 75.03178405761719
v 12.596843719482422 87.3886489868164 122.3625259399414
v 12.783486366271973 83.8509750366211 109.06735229492188
v -4.926903247833252 82.9232177734375 109.06735229492188
v -5.1057305335998535 86.46089935302734 122.3625259399414
v 13.807623863220215 64.25120544433594 122.16172790527344
v 12.596843719482422 87.3886489868164 122.3625259399414
v -5.1057305335998535 86.46089935302734 122.3625259399414
v -3.8949506282806396 63.32345962524414 122.16172790527344
v 14.44615650177002 52.03277587890625 114.56095123291016
v -3.2564213275909424 51.10893249511719 114.56092834472656
v 14.694007873535156 47.41695785522461 99.74968719482422
v -3.0085668563842773 46.486602783203125 99.74968719482422
v 14.28100299835205 55.2529296875 56.382564544677734
v -3.421572208404541 54.3251838684082 56.382564544677734
v 14.541699409484863 50.259559631347656 48.618736267089844
v -3.160876989364624 49.327903747558594 48.618736267089844
v 15.552891731262207 30.983821868896484 48.618743896484375
v -2.149686098098755 30.056072235107422 48.618743896484375
v 15.738295555114746 27.446062088012695 35.146324157714844
v 15.552891731262207 30.983821868896484 48.618743896484375
v -2.149686098098755 30.056072235107422 48.618743896484375
v -1.9642797708511353 26.518312454223633 35.146324157714844
v 14.722555160522461 46.8276252746582 35.146324157714844
v 15.738295555114746 27.446062088012695 35.146324157714844
v -1.9642797708511353 26.518312454223633 35.146324157714844
v -2.980020761489868 45.89987564086914 35.146324157714844
v 13.93622875213623 61.80514907836914 41.476776123046875
v -3.771554470062256 60.877410888671875 41.476776123046875
v 13.587712287902832 68.53339385986328 56.24685287475586
v -4.114862442016602 67.60042572021484 56.246856689453125
v 13.999486923217773 60.62457275390625 101.3201675415039
v -3.7030887603759766 59.69682312011719 101.3201675415039
v 13.730158805847168 65.74609375 108.90157318115234
v -3.9724159240722656 64.81248474121094 108.9015884399414
v 12.783486366271973 83.8509750366211 109.06735229492188
v -4.926903247833252 82.9232177734375 109.06735229492188
v 10.135119438171387 134.36134338378906 122.36251831054688
v 10.320525169372559 130.82357788085938 109.06737518310547
v -7.38205099105835 129.8958282470703 109.06737518310547
v -7.5674567222595215 133.43359375 122.36251831054688
v 12.166455268859863 95.60099029541016 122.3625259399414
v 10.135119438171387 134.36134338378906 122.36251831054688
v -7.5674567222595215 133.43359375 122.36251831054688
v -5.536120414733887 94.6732406616211 122.3625259399414
v 13.385293006896973 72.34420013427734 35.14632034301758
v 12.166455268859863 95.60099029541016 122.3625259399414
v -5.536120414733887 94.6732406616211 122.3625259399414
v -4.317284107208252 71.41645050048828 35.14632034301758
v 11.353952407836914 111.10456848144531 35.14631652832031
v 13.385293006896973 72.34420013427734 35.14632034301758
v -4.317284107208252 71.41645050048828 35.14632034301758
v -6.348621845245361 110.17681121826172 35.14631652832031
v 11.168403625488281 114.64509582519531 48.618736267089844
v 11.353952407836914 111.10456848144531 35.14631652832031
v -6.348621845245361 110.17681121826172 35.14631652832031
v -6.534172534942627 113.71734619140625 48.61873245239258
v 12.475662231445312 89.70103454589844 48.61874008178711
v 11.168403625488281 114.64509582519531 48.618736267089844
v -6.534172534942627 113.71734619140625 48.61873245239258
v -5.226913928985596 88.77328491210938 48.618736267089844
v 12.148774147033691 95.93842315673828 72.19548034667969
v 12.475662231445312 89.70103454589844 48.61874008178711
v -5.226913928985596 88.77328491210938 48.618736267089844
v -5.553802490234375 95.01067352294922 72.19548034667969
v 11.168402671813965 114.64509582519531 72.19548034667969
v 12.148774147033691 95.93842315673828 72.19548034667969
v -5.553802490234375 95.01067352294922 72.19548034667969
v -6.534173965454102 113.71734619140625 72.19548034667969
v 10.98299789428711 118.18283081054688 85.49063110351562
v 11.168402671813965 114.64509582519531 72.19548034667969
v -6.534173965454102 113.71734619140625 72.19548034667969
v -6.719578742980957 117.25507354736328 85.49063110351562
v 11.954524993896484 99.64490509033203 85.49063110351562
v 10.98299789428711 118.18283081054688 85.49063110351562
v -6.719578742980957 117.25507354736328 85.49063110351562
v -5.748050212860107 98.71715545654297 85.49063110351562
v 11.627781867980957 105.8795394897461 109.06737518310547
v 11.954524993896484 99.64490509033203 85.49063110351562
v -5.748050212860107 98.71715545654297 85.49063110351562
v -6.074793815612793 104.95179748535156 109.06737518310547
v 10.320525169372559 130.82357788085938 109.06737518310547
v 11.627781867980957 105.8795394897461 109.06737518310547
v -6.074793815612793 104.95179748535156 109.06737518310547
v -7.38205099105835 129.8958282470703 109.06737518310547
v 8.75190258026123 160.75479125976562 122.36251831054688
v 9.153735160827637 153.08734130859375 108.61448669433594
v -8.54884147644043 152.1595916748047 108.614501953125
v -8.95067310333252 159.82705688476562 122.36251831054688
v 9.581367492675781 144.9275665283203 122.36251831054688
v 8.75190258026123 160.75479125976562 122.36251831054688
v -8.95067310333252 159.82705688476562 122.36251831054688
v -8.121208190917969 143.99981689453125 122.36251831054688
v 9.893976211547852 138.962646484375 108.3610610961914
v 9.581367492675781 144.9275665283203 122.36251831054688
v -8.121208190917969 143.99981689453125 122.36251831054688
v -7.808599948883057 138.03489685058594 108.3610610961914
v 10.004075050354004 136.86184692382812 93.17688751220703
v -7.698500633239746 135.93409729003906 93.17688751220703
v 9.761326789855957 141.4937744140625 74.35498046875
v -7.941247940063477 140.56602478027344 74.35498046875
v 8.857870101928711 158.7328338623047 55.89506149291992
v -8.844704627990723 157.80506896972656 55.89506149291992
v 9.140545845031738 153.33905029296875 35.14631271362305
v 8.857870101928711 158.7328338623047 55.89506149291992
v -8.844704627990723 157.80506896972656 55.89506149291992
v -8.562029838562012 152.41131591796875 35.14631652832031
v 8.41632080078125 167.15814208984375 35.14631271362305
v 9.140545845031738 153.33905029296875 35.14631271362305
v -8.562029838562012 152.41131591796875 35.14631652832031
v -9.2862548828125 166.23037719726562 35.14631271362305
v 7.197341442108154 190.41769409179688 122.36251831054688
v 8.41632080078125 167.15814208984375 35.14631271362305
v -9.2862548828125 166.23037719726562 35.14631271362305
v -10.50523567199707 189.4899444580078 122.36251831054688
v 7.921710968017578 176.59584045410156 122.36251831054688
v 7.197341442108154 190.41769409179688 122.36251831054688
v -10.50523567199707 189.4899444580078 122.36251831054688
v -9.780864715576172 175.66807556152344 122.36251831054688
v 8.663623809814453 162.43930053710938 69.22344970703125
v 7.921710968017578 176.59584045410156 122.36251831054688
v -9.780864715576172 175.66807556152344 122.36251831054688
v -9.038952827453613 161.51153564453125 69.22345733642578
v 9.144891738891602 153.25607299804688 79.59921264648438
v 8.663623809814453 162.43930053710938 69.22344970703125
v -9.038952827453613 161.51153564453125 69.22345733642578
v -8.557682991027832 152.3283233642578 79.59921264648438
v 9.308263778686523 150.13877868652344 93.17688751220703
v -8.394311904907227 149.21102905273438 93.17688751220703
v 5.874861717224121 215.6521759033203 122.36251831054688
v 6.263504981994629 208.23641967773438 94.88587188720703
v -11.439070701599121 207.3086700439453 94.88587188720703
v -11.827714920043945 214.7244415283203 122.36251831054688
v 6.599087238311768 201.83306884765625 122.36251831054688
v 5.874861717224121 215.6521759033203 122.36251831054688
v -11.827714920043945 214.7244415283203 122.36251831054688
v -11.103489875793457 200.90533447265625 122.36251831054688
v 6.987729549407959 194.41734313964844 94.88587188720703
v 6.599087238311768 201.83306884765625 122.36251831054688
v -11.103489875793457 200.90533447265625 122.36251831054688
v -10.71484661102295 193.48960876464844 94.88587188720703
v 6.263504981994629 208.23641967773438 94.88587188720703
v 6.987729549407959 194.41734313964844 94.88587188720703
v -10.71484661102295 193.48960876464844 94.88587188720703
v -11.439070701599121 207.3086700439453 94.88587188720703
v 6.62649393081665 205.2176971435547 272.1842956542969
v 7.3847832679748535 192.4113006591797 276.4634704589844
v 7.914661884307861 180.3638458251953 275.2397155761719
v 8.70974063873291 165.57852172851562 267.8600158691406
v 9.309487342834473 153.70584106445312 252.09934997558594
v 24.26211166381836 -131.52162170410156 133.0068359375
v 24.214229583740234 -130.6713104248047 129.6224822998047
v 23.328441619873047 -113.7480697631836 129.62246704101562
v 23.372665405273438 -114.59188079833984 144.86305236816406
v 21.622329711914062 -81.30269622802734 141.1446533203125
v 22.66448211669922 -101.05067443847656 161.51194763183594
v 22.147836685180664 -91.17759704589844 166.30899047851562
v 21.07545280456543 -73.86692810058594 160.45309448242188
v 17.465328216552734 -1.7419742345809937 132.1574249267578
v 18.63707160949707 -24.317026138305664 167.1539764404297
v 17.711217880249023 -6.543852806091309 163.4879608154297
v 17.0797061920166 5.447900295257568 133.99044799804688
v 15.499537467956543 35.63609313964844 152.34910583496094
v 15.623663902282715 33.23780059814453 226.41751098632812
v 13.97063159942627 64.83590698242188 184.97793579101562
v 14.937759399414062 46.35537338256836 237.56515502929688
v 13.658537864685059 70.75950622558594 187.52169799804688
v 14.087611198425293 62.577125549316406 242.50306701660156
v 13.230020523071289 79.08209228515625 237.70602416992188
v 11.88839054107666 104.61088562011719 209.48692321777344
v 11.324399948120117 110.99685668945312 165.2210693359375
v 10.198963165283203 136.77696228027344 163.5055694580078
v 4.137148857116699 252.443115234375 135.537353515625
v 3.656564712524414 261.6131591796875 138.0767059326172
v 3.6020188331604004 262.6017761230469 139.77105712890625
v 5.43301248550415 227.61790466308594 134.6923370361328
v 4.935469150543213 237.21023559570312 153.3173065185547
v 5.883594989776611 219.15892028808594 154.16229248046875
v 6.3226637840271 210.6890869140625 138.25367736816406
v 6.01479434967041 216.6155548095703 153.3173065185547
v 7.872722148895264 181.06997680664062 159.5270538330078
v 7.692861080169678 184.59617614746094 131.5940704345703
v 9.11963939666748 157.37168884277344 131.3124237060547
v 9.260139465332031 154.6907501220703 133.5679168701172
v 9.518797874450684 149.75523376464844 147.4067840576172
v 7.7466583251953125 183.61004638671875 192.5475616455078
v 9.982227325439453 141.00994873046875 155.03366088867188
v 11.263542175292969 116.46353149414062 212.0262908935547
v 10.108895301818848 138.4695281982422 232.34561157226562
v 9.932926177978516 141.85311889648438 234.0355682373047
v 9.513952255249023 149.38026428222656 242.68467712402344
v 7.611666679382324 185.85751342773438 183.29019165039062
v 7.611666679382324 184.9275665283203 185.91552734375
v 7.656223297119141 184.4787139892578 181.84530639648438
v 7.404601573944092 190.09645080566406 184.08010864257812
v 7.566771984100342 186.9935760498047 186.61949157714844
v 7.370492935180664 190.41680908203125 176.8843994140625
v 7.256730079650879 193.16915893554688 175.89898681640625
v 7.301183223724365 191.62564086914062 178.38980102539062
v 7.256730556488037 192.5675811767578 183.69497680664062
v 7.122389316558838 195.45602416992188 177.0253448486328
v 7.179229259490967 194.32827758789062 172.50994873046875
v 6.8101935386657715 201.38314819335938 178.71975708007812
v 6.901791572570801 199.6905975341797 180.69137573242188
v 7.21227502822876 193.76622009277344 183.23512268066406
v 6.27955436706543 211.5414581298828 213.7118682861328
v 6.10346794128418 214.9234619140625 218.7949676513672
v 5.885725498199463 219.15518188476562 232.34117126464844
v 6.014790058135986 216.6155548095703 254.6365509033203
v 7.611666679382324 184.9275665283203 185.91552734375
v 7.611666679382324 185.85751342773438 183.29019165039062
v -6.452123641967773 185.11990356445312 183.29054260253906
v -6.45212459564209 184.18997192382812 185.9158935546875
v 7.656223297119141 184.4787139892578 181.84530639648438
v 7.611666679382324 184.9275665283203 185.91552734375
v -6.45212459564209 184.18997192382812 185.9158935546875
v -6.407567024230957 183.74107360839844 181.84567260742188
v 7.404601573944092 190.09645080566406 184.08010864257812
v 7.656223297119141 184.4787139892578 181.84530639648438
v -6.407567024230957 183.74107360839844 181.84567260742188
v -6.6591901779174805 189.35882568359375 184.0804901123047
v 7.370492935180664 190.41680908203125 176.8843994140625
v 7.404601573944092 190.09645080566406 184.08010864257812
v -6.6591901779174805 189.35882568359375 184.0804901123047
v -6.693297863006592 189.67919921875 176.8848114013672
v 7.256730079650879 193.16915893554688 175.89898681640625
v 7.370492935180664 190.41680908203125 176.8843994140625
v -6.693297863006592 189.67919921875 176.8848114013672
v -6.807061195373535 192.4315643310547 175.8993682861328
v 7.301183223724365 191.62564086914062 178.38980102539062
v 7.256730079650879 193.16915893554688 175.89898681640625
v -6.807061195373535 192.4315643310547 175.8993682861328
v -6.762607574462891 190.88803100585938 178.3901824951172
v 7.256730556488037 192.5675811767578 183.69497680664062
v -6.807061672210693 191.82998657226562 183.69534301757812
v 7.21227502822876 193.76622009277344 183.23512268066406
v -6.851515293121338 193.0286102294922 183.23548889160156
v 7.122389316558838 195.45602416992188 177.0253448486328
v 7.21227502822876 193.76622009277344 183.23512268066406
v -6.851515293121338 193.0286102294922 183.23548889160156
v -6.941402435302734 194.72232055664062 177.02569580078125
v 7.179229259490967 194.32827758789062 172.50994873046875
v -6.8767499923706055 193.59068298339844 172.51034545898438
v 6.8101935386657715 201.38314819335938 178.71975708007812
v 7.179229259490967 194.32827758789062 172.50994873046875
v -6.8767499923706055 193.59068298339844 172.51034545898438
v -7.253596782684326 200.6455535888672 178.72012329101562
v 6.901791572570801 199.6905975341797 180.69137573242188
v 6.8101935386657715 201.38314819335938 178.71975708007812
v -7.253596782684326 200.6455535888672 178.72012329101562
v -7.161999225616455 198.95298767089844 180.69174194335938
v 6.27955436706543 211.5414581298828 213.7118682861328
v 6.901791572570801 199.6905975341797 180.69137573242188
v -7.161999225616455 198.95298767089844 180.69174194335938
v -7.784236907958984 210.79861450195312 213.7122039794922
v 6.10346794128418 214.9234619140625 218.7949676513672
v -7.960322856903076 214.1858673095703 218.79534912109375
v 5.885725498199463 219.15518188476562 232.34117126464844
v -8.178065299987793 218.4175567626953 232.34153747558594
v 6.014790058135986 216.6155548095703 254.6365509033203
v -8.049001693725586 215.87789916992188 254.6368865966797
v 6.62649393081665 205.2176971435547 272.1842956542969
v -7.437296390533447 204.4840087890625 272.18463134765625
v 7.3847832679748535 192.4113006591797 276.4634704589844
v -6.6790080070495605 191.67369079589844 276.4638366699219
v 7.914661884307861 180.3638458251953 275.2397155761719
v -6.149128437042236 179.62623596191406 275.24005126953125
v 8.70974063873291 165.57852172851562 267.8600158691406
v -5.3540496826171875 164.83700561523438 267.86041259765625
v 9.309487342834473 153.70584106445312 252.09934997558594
v -4.754303455352783 152.96823120117188 252.09976196289062
v 9.513952255249023 149.38026428222656 242.68467712402344
v -4.549839019775391 148.64266967773438 242.6850128173828
v 9.932926177978516 141.85311889648438 234.0355682373047
v -4.130864143371582 141.11550903320312 234.0359344482422
v 10.108895301818848 138.4695281982422 232.34561157226562
v -3.955021619796753 137.72952270507812 232.34591674804688
v 11.263542175292969 116.46353149414062 212.0262908935547
v -2.8002495765686035 115.72593688964844 212.02667236328125
v 11.88839054107666 104.61088562011719 209.48692321777344
v -2.1753995418548584 103.87848663330078 209.4872589111328
v 13.230020523071289 79.08209228515625 237.70602416992188
v 11.88839054107666 104.61088562011719 209.48692321777344
v -2.1753995418548584 103.87848663330078 209.4872589111328
v -0.8415829539299011 78.34447479248047 237.7063751220703
v 14.087611198425293 62.577125549316406 242.50306701660156
v 0.023820772767066956 61.839515686035156 242.50343322753906
v 14.937759399414062 46.35537338256836 237.56515502929688
v 0.8739675879478455 45.617767333984375 237.56553649902344
v 15.623663902282715 33.23780059814453 226.41751098632812
v 1.5598738193511963 32.50019073486328 226.41787719726562
v 17.711217880249023 -6.543852806091309 163.4879608154297
v 3.6474289894104004 -7.281460285186768 163.48834228515625
v 18.63707160949707 -24.317026138305664 167.1539764404297
v 17.711217880249023 -6.543852806091309 163.4879608154297
v 3.6474289894104004 -7.281460285186768 163.48834228515625
v 4.573280334472656 -25.052024841308594 167.1543426513672
v 21.07545280456543 -73.86692810058594 160.45309448242188
v 7.011659145355225 -74.60714721679688 160.4534454345703
v 22.147836685180664 -91.17759704589844 166.30899047851562
v 8.078838348388672 -91.91259765625 166.3093719482422
v 22.66448211669922 -101.05067443847656 161.51194763183594
v 8.600691795349121 -101.78827667236328 161.51231384277344
v 23.372665405273438 -114.59188079833984 144.86305236816406
v 9.308871269226074 -115.32949829101562 144.86341857910156
v 24.26211166381836 -131.52162170410156 133.0068359375
v 10.198321342468262 -132.25926208496094 133.0072021484375
v 24.214229583740234 -130.6713104248047 129.6224822998047
v 24.26211166381836 -131.52162170410156 133.0068359375
v 10.198321342468262 -132.25926208496094 133.0072021484375
v 10.150436401367188 -131.41285705566406 129.62283325195312
v 23.328441619873047 -113.7480697631836 129.62246704101562
v 24.214229583740234 -130.6713104248047 129.6224822998047
v 10.150436401367188 -131.41285705566406 129.62283325195312
v 9.264649391174316 -114.48568725585938 129.62283325195312
v 21.622329711914062 -81.30269622802734 141.1446533203125
v 7.558535099029541 -82.04419708251953 141.14501953125
v 17.465328216552734 -1.7419742345809937 132.1574249267578
v 3.4015371799468994 -2.4834892749786377 132.1577606201172
v 17.0797061920166 5.447900295257568 133.99044799804688
v 3.01591420173645 4.710293292999268 133.9907684326172
v 15.499537467956543 35.63609313964844 152.34910583496094
v 1.435745358467102 34.89848327636719 152.34945678710938
v 13.97063159942627 64.83590698242188 184.97793579101562
v -0.0931621566414833 64.09829711914062 184.97830200195312
v 13.658537864685059 70.75950622558594 187.52169799804688
v -0.40525296330451965 70.02580261230469 187.52206420898438
v 11.324399948120117 110.99685668945312 165.2210693359375
v -2.7354843616485596 110.25730895996094 165.2213592529297
v 10.198963165283203 136.77696228027344 163.5055694580078
v -3.864830493927002 136.0393524169922 163.50592041015625
v 9.982227325439453 141.00994873046875 155.03366088867188
v 10.198963165283203 136.77696228027344 163.5055694580078
v -3.864830493927002 136.0393524169922 163.50592041015625
v -4.081564426422119 140.2723388671875 155.0340118408203
v 9.518797874450684 149.75523376464844 147.4067840576172
v -4.5449934005737305 149.0176239013672 147.4071502685547
v 9.260139465332031 154.6907501220703 133.5679168701172
v -4.803652286529541 153.95314025878906 133.56826782226562
v 9.11963939666748 157.37168884277344 131.3124237060547
v -4.944153785705566 156.63406372070312 131.31277465820312
v 7.692861080169678 184.59617614746094 131.5940704345703
v -6.3709306716918945 183.85855102539062 131.5944366455078
v 6.3226637840271 210.6890869140625 138.25367736816406
v -7.741128444671631 209.9553680419922 138.2540283203125
v 5.43301248550415 227.61790466308594 134.6923370361328
v -8.630777359008789 226.88417053222656 134.69273376464844
v 4.137148857116699 252.443115234375 135.537353515625
v -9.926643371582031 251.7054901123047 135.53770446777344
v 3.656564712524414 261.6131591796875 138.0767059326172
v -10.407225608825684 260.87554931640625 138.0770721435547
v 3.6020188331604004 262.6017761230469 139.77105712890625
v -10.461771965026855 261.86029052734375 139.77142333984375
v 4.935469150543213 237.21023559570312 153.3173065185547
v 3.6020188331604004 262.6017761230469 139.77105712890625
v -10.461771965026855 261.86029052734375 139.77142333984375
v -9.128321647644043 236.47262573242188 153.31765747070312
v 5.883594989776611 219.15892028808594 154.16229248046875
v -8.176289558410645 218.41543579101562 154.1626434326172
v 6.01479434967041 216.6155548095703 153.3173065185547
v -8.048996925354004 215.87789916992188 153.31765747070312
v 7.872722148895264 181.06997680664062 159.5270538330078
v -6.185861587524414 180.33236694335938 159.5274200439453
v 7.7466583251953125 183.61004638671875 192.5475616455078
v 7.872722148895264 181.06997680664062 159.5270538330078
v -6.185861587524414 180.33236694335938 159.5274200439453
v -6.317133903503418 182.8685302734375 192.5479278564453
v 7.566771984100342 186.9935760498047 186.61949157714844
v 7.7466583251953125 183.61004638671875 192.5475616455078
v -6.317133903503418 182.8685302734375 192.5479278564453
v -6.497020244598389 186.25599670410156 186.61985778808594
v 7.611666679382324 185.85751342773438 183.29019165039062
v -6.452123641967773 185.11990356445312 183.29054260253906
v 3.4314584732055664 262.2981262207031 109.06733703613281
v 3.2448182106018066 265.8357849121094 122.36251068115234
v 4.455597400665283 242.69834899902344 122.16171264648438
v 6.200863838195801 209.4309539794922 48.61872863769531
v 6.386269569396973 205.89320373535156 35.14630889892578
v 5.370528221130371 225.27474975585938 35.146305084228516
v 5.189672946929932 228.7067108154297 48.61872100830078
v 4.584202289581299 240.2522735595703 41.47675704956055
v 4.9289774894714355 233.70008850097656 56.38254928588867
v 4.235684871673584 246.98052978515625 56.2468376159668
v 5.341982364654541 225.8640899658203 99.74967193603516
v 4.6474609375 239.07171630859375 101.32015228271484
v 5.0941290855407715 230.47991943359375 114.5609359741211
v 4.378133296966553 244.1932373046875 108.90155792236328
v 3.2448182106018066 265.8357849121094 122.36251068115234
v 3.4314584732055664 262.2981262207031 109.06733703613281
v -14.278926849365234 261.370361328125 109.06733703613281
v -14.457756042480469 264.9080505371094 122.36251068115234
v 4.455597400665283 242.69834899902344 122.16171264648438
v 3.2448182106018066 265.8357849121094 122.36251068115234
v -14.457756042480469 264.9080505371094 122.36251068115234
v -13.246975898742676 241.77061462402344 122.16171264648438
v 5.0941290855407715 230.47991943359375 114.5609359741211
v -12.60844612121582 229.5561065673828 114.5609130859375
v 5.341982364654541 225.8640899658203 99.74967193603516
v -12.360594749450684 224.9337615966797 99.74967193603516
v 4.9289774894714355 233.70008850097656 56.38254928588867
v -12.773598670959473 232.77235412597656 56.38254165649414
v 5.189672946929932 228.7067108154297 48.61872100830078
v -12.51290225982666 227.77505493164062 48.61872100830078
v 6.200863838195801 209.4309539794922 48.61872863769531
v -11.501712799072266 208.5032196044922 48.61872482299805
v 6.386269569396973 205.89320373535156 35.14630889892578
v 6.200863838195801 209.4309539794922 48.61872863769531
v -11.501712799072266 208.5032196044922 48.61872482299805
v -11.316305160522461 204.96546936035156 35.146305084228516
v 5.370528221130371 225.27474975585938 35.146305084228516
v 6.386269569396973 205.89320373535156 35.14630889892578
v -11.316305160522461 204.96546936035156 35.146305084228516
v -12.332049369812012 224.34701538085938 35.146305084228516
v 4.584202289581299 240.2522735595703 41.47675704956055
v -13.123578071594238 239.3245391845703 41.47676086425781
v 4.235684871673584 246.98052978515625 56.2468376159668
v -13.466888427734375 246.0475616455078 56.24684143066406
v 4.6474609375 239.07171630859375 101.32015228271484
v -13.05511474609375 238.14398193359375 101.32015228271484
v 4.378133296966553 244.1932373046875 108.90155792236328
v -13.324440002441406 243.25962829589844 108.90157318115234
v 3.4314584732055664 262.2981262207031 109.06733703613281
v -14.278926849365234 261.370361328125 109.06733703613281
f 203 202 204
f 205 204 202
f 134 122 135
f 123 122 124
f 124 122 125
f 125 122 134
f 133 125 134
f 132 125 133
f 131 132 133
f 130 132 131
f 129 130 131
f 126 130 129
f 128 126 129
f 127 126 128
f 73 72 74
f 71 70 72
f 72 70 74
f 74 70 75
f 70 69 75
f 62 61 63
f 63 61 64
f 64 61 77
f 76 64 77
f 75 76 77
f 65 76 75
f 69 65 75
f 68 65 69
f 67 65 68
f 66 65 67
f 193 192 194
f 195 194 192
f 189 188 190
f 191 190 188
f 185 184 186
f 187 186 184
f 181 180 182
f 183 182 180
f 177 176 178
f 179 178 176
f 173 172 174
f 175 174 172
f 169 168 170
f 171 170 168
f 165 164 166
f 167 166 164
f 155 154 156
f 157 156 154
f 154 158 157
f 159 157 158
f 894 160 895
f 161 895 160
f 160 162 161
f 163 161 162
f 530 485 531
f 486 531 485
f 485 484 486
f 487 486 484
f 667 665 666
f 662 666 665
f 665 664 662
f 663 662 664
f 34 35 36
f 33 35 34
f 32 33 34
f 31 33 32
f 30 31 32
f 29 31 30
f 27 29 30
f 28 29 27
f 25 28 27
f 26 25 27
f 39 38 40
f 38 41 40
f 40 41 44
f 41 45 44
f 44 45 46
f 45 47 46
f 47 37 46
f 46 37 48
f 37 35 48
f 36 35 37
f 42 40 43
f 43 40 44
f 151 150 152
f 153 152 150
f 145 144 146
f 147 146 144
f 144 148 147
f 149 147 148
f 574 572 588
f 589 574 588
f 587 589 588
f 583 587 588
f 586 587 583
f 585 586 583
f 584 585 583
f 581 584 583
f 582 581 583
f 580 581 582
f 578 581 580
f 579 578 580
f 577 578 579
f 575 578 577
f 576 575 577
f 141 140 142
f 143 142 140
f 137 136 138
f 139 138 136
f 97 96 98
f 98 96 109
f 108 98 109
f 107 108 109
f 106 108 107
f 105 106 107
f 104 106 105
f 103 104 105
f 102 104 103
f 101 102 103
f 99 102 101
f 100 99 101
f 94 93 95
f 93 92 95
f 92 78 95
f 79 78 80
f 80 78 92
f 91 80 92
f 90 80 91
f 88 90 91
f 89 90 88
f 87 89 88
f 86 87 88
f 84 87 86
f 85 84 86
f 83 84 85
f 81 84 83
f 82 81 83
f 554 553 555
f 553 556 555
f 555 556 557
f 556 558 557
f 558 559 557
f 559 560 557
f 557 560 561
f 560 562 561
f 562 563 561
f 561 563 564
f 564 563 565
f 563 566 565
f 565 566 567
f 566 568 567
f 567 568 569
f 568 570 569
f 570 571 569
f 571 572 569
f 569 572 573
f 573 572 574
f 572 590 588
f 590 591 588
f 591 592 588
f 592 593 588
f 588 593 608
f 593 552 608
f 608 552 609
f 609 552 610
f 610 552 611
f 552 548 611
f 551 548 552
f 550 548 551
f 549 548 550
f 595 594 596
f 596 594 597
f 594 598 597
f 597 598 608
f 598 588 608
f 600 599 601
f 601 599 602
f 599 597 602
f 602 597 608
f 607 602 608
f 606 607 608
f 603 607 606
f 605 603 606
f 604 603 605
f 827 826 828
f 828 826 839
f 838 828 839
f 837 838 839
f 836 838 837
f 835 836 837
f 834 836 835
f 833 834 835
f 832 834 833
f 831 832 833
f 829 832 831
f 830 829 831
f 50 49 51
f 51 49 60
f 55 51 60
f 54 55 60
f 52 55 54
f 53 52 54
f 57 56 58
f 56 59 58
f 58 59 60
f 59 54 60
f 111 110 112
f 112 110 121
f 116 112 121
f 115 116 121
f 113 116 115
f 114 113 115
f 118 117 119
f 117 120 119
f 119 120 121
f 120 115 121
f 197 196 198
f 199 198 196
f 896 200 897
f 201 897 200
f 22 21 23
f 24 23 21
f 18 17 19
f 20 19 17
f 14 13 15
f 16 15 13
f 2 1 3
f 4 3 1
f 891 890 892
f 893 892 890
f 887 886 888
f 889 888 886
f 883 882 884
f 885 884 882
f 879 878 880
f 881 880 878
f 873 872 874
f 875 874 872
f 872 876 875
f 877 875 876
f 669 668 670
f 671 670 668
f 668 672 671
f 673 671 672
f 869 868 870
f 871 870 868
f 865 864 866
f 867 866 864
f 861 860 862
f 863 862 860
f 857 856 858
f 859 858 856
f 853 852 854
f 855 854 852
f 849 848 850
f 851 850 848
f 845 844 846
f 847 846 844
f 841 840 842
f 843 842 840
f 823 822 824
f 825 824 822
f 819 818 820
f 821 820 818
f 815 814 816
f 817 816 814
f 809 808 810
f 811 810 808
f 808 812 811
f 813 811 812
f 675 674 676
f 677 676 674
f 674 678 677
f 679 677 678
f 678 680 679
f 681 679 680
f 803 802 804
f 805 804 802
f 802 806 805
f 807 805 806
f 207 206 208
f 209 208 206
f 211 210 212
f 213 212 210
f 215 214 216
f 217 216 214
f 219 218 220
f 221 220 218
f 223 222 224
f 225 224 222
f 227 226 228
f 229 228 226
f 231 230 232
f 233 232 230
f 235 234 236
f 237 236 234
f 239 238 240
f 241 240 238
f 243 242 244
f 245 244 242
f 247 246 248
f 249 248 246
f 251 250 252
f 253 252 250
f 255 254 256
f 257 256 254
f 259 258 260
f 261 260 258
f 263 262 264
f 265 264 262
f 267 266 268
f 269 268 266
f 271 270 272
f 273 272 270
f 270 274 273
f 275 273 274
f 795 794 796
f 797 796 794
f 794 798 797
f 799 797 798
f 898 800 899
f 801 899 800
f 277 276 278
f 279 278 276
f 281 280 282
f 283 282 280
f 285 284 286
f 287 286 284
f 289 288 290
f 291 290 288
f 293 292 294
f 295 294 292
f 297 296 298
f 299 298 296
f 296 300 299
f 301 299 300
f 791 790 792
f 793 792 790
f 779 778 780
f 781 780 778
f 900 782 901
f 783 901 782
f 902 784 903
f 785 903 784
f 784 786 785
f 787 785 786
f 786 788 787
f 789 787 788
f 303 302 304
f 305 304 302
f 307 306 308
f 309 308 306
f 311 310 312
f 313 312 310
f 310 314 313
f 315 313 314
f 904 316 905
f 317 905 316
f 775 774 776
f 777 776 774
f 771 770 772
f 773 772 770
f 767 766 768
f 769 768 766
f 763 762 764
f 765 764 762
f 757 756 758
f 759 758 756
f 906 760 907
f 761 907 760
f 319 318 320
f 321 320 318
f 323 322 324
f 325 324 322
f 327 326 328
f 329 328 326
f 331 330 332
f 333 332 330
f 335 334 336
f 337 336 334
f 339 338 340
f 341 340 338
f 338 342 341
f 343 341 342
f 908 344 909
f 345 909 344
f 753 752 754
f 755 754 752
f 749 748 750
f 751 750 748
f 743 742 744
f 745 744 742
f 742 746 745
f 747 745 746
f 347 346 348
f 349 348 346
f 351 350 352
f 353 352 350
f 350 354 353
f 355 353 354
f 739 738 740
f 741 740 738
f 733 732 734
f 735 734 732
f 910 736 911
f 737 911 736
f 357 356 358
f 359 358 356
f 361 360 362
f 363 362 360
f 360 364 363
f 365 363 364
f 729 728 730
f 731 730 728
f 725 724 726
f 727 726 724
f 721 720 722
f 723 722 720
f 717 716 718
f 719 718 716
f 713 712 714
f 715 714 712
f 705 704 706
f 707 706 704
f 704 708 707
f 709 707 708
f 708 710 709
f 711 709 710
f 367 366 368
f 369 368 366
f 371 370 372
f 373 372 370
f 375 374 376
f 377 376 374
f 379 378 380
f 381 380 378
f 383 382 384
f 385 384 382
f 387 386 388
f 389 388 386
f 391 390 392
f 393 392 390
f 395 394 396
f 397 396 394
f 399 398 400
f 401 400 398
f 403 402 404
f 405 404 402
f 407 406 408
f 409 408 406
f 411 410 412
f 413 412 410
f 415 414 416
f 417 416 414
f 414 418 417
f 419 417 418
f 701 700 702
f 703 702 700
f 695 694 696
f 697 696 694
f 694 698 697
f 699 697 698
f 421 420 422
f 423 422 420
f 425 424 426
f 427 426 424
f 429 428 430
f 431 430 428
f 433 432 434
f 435 434 432
f 437 436 438
f 439 438 436
f 441 440 442
f 443 442 440
f 445 444 446
f 447 446 444
f 449 448 450
f 451 450 448
f 453 452 454
f 455 454 452
f 457 456 458
f 459 458 456
f 461 460 462
f 463 462 460
f 465 464 466
f 467 466 464
f 469 468 470
f 471 470 468
f 473 472 474
f 475 474 472
f 477 476 478
f 479 478 476
f 481 480 482
f 483 482 480
f 489 488 490
f 491 490 488
f 493 492 494
f 495 494 492
f 492 496 495
f 497 495 496
f 687 686 688
f 689 688 686
f 686 690 689
f 691 689 690
f 912 692 913
f 693 913 692
f 499 498 500
f 501 500 498
f 498 502 501
f 503 501 502
f 683 682 684
f 685 684 682
f 659 658 660
f 661 660 658
f 655 654 656
f 657 656 654
f 651 650 652
f 653 652 650
f 647 646 648
f 649 648 646
f 643 642 644
f 645 644 642
f 639 638 640
f 641 640 638
f 633 632 634
f 635 634 632
f 632 636 635
f 637 635 636
f 505 504 506
f 507 506 504
f 509 508 510
f 511 510 508
f 513 512 514
f 515 514 512
f 517 516 518
f 519 518 516
f 521 520 522
f 523 522 520
f 525 524 526
f 527 526 524
f 524 528 527
f 529 527 528
f 629 628 630
f 631 630 628
f 625 624 626
f 627 626 624
f 621 620 622
f 623 622 620
f 617 616 618
f 619 618 616
f 613 612 614
f 615 614 612
f 545 544 546
f 547 546 544
f 541 540 542
f 543 542 540
f 537 536 538
f 539 538 536
f 533 532 534
f 535 534 532
f 6 5 7
f 8 7 5
f 10 9 11
f 12 11 9
