# from FD_Block12_Fence07_LOD_0.pskx
v -671.015625 -581.12109375 221.02781677246094
v -671.0155639648438 -581.12109375 -183.3449249267578
v -626.5077514648438 -588.0859375 -183.3509063720703
v -626.515625 -588.078125 221.01292419433594
v -883.5313110351562 -370.89453125 221.0370635986328
v -883.5234375 -370.89459228515625 -183.33575439453125
v -841.40625 -458.88677978515625 -183.3404083251953
v -841.40625 -458.88671875 221.03231811523438
v -900.8984375 -310.99609375 221.03948974609375
v -900.890625 -310.99615478515625 -183.33319091796875
v -909.4219360351562 -185.98049926757812 221.04510498046875
v -909.4140014648438 -185.98052978515625 -183.32765197753906
v -909.59375 -248.80084228515625 -183.330322265625
v -909.6015625 -248.80081176757812 221.04241943359375
v -725.3125 -560.7930297851562 221.02867126464844
v -725.3124389648438 -560.7930297851562 -183.3440704345703
v -671.0155639648438 -581.12109375 -183.3449249267578
v -671.015625 -581.12109375 221.02781677246094
v -770.0703125 -536.6992797851562 221.02951049804688
v -770.0624389648438 -536.6992797851562 -183.34315490722656
v -813.671875 -493.9179382324219 221.03123474121094
v -813.671875 -493.9179992675781 -183.3415069580078
v -770.0624389648438 -536.6992797851562 -183.34315490722656
v -770.0703125 -536.6992797851562 221.02951049804688
v -841.40625 -458.88671875 221.03231811523438
v -841.40625 -458.88677978515625 -183.3404083251953
v -894.453125 -111.87892150878906 221.0477752685547
v -894.4453125 -111.87895965576172 -183.32496643066406
v -909.4140014648438 -185.98052978515625 -183.32765197753906
v -909.4219360351562 -185.98049926757812 221.04510498046875
v -863.5859375 -22.660175323486328 221.05255126953125
v -863.5859375 -22.66020965576172 -183.3201904296875
v -847.2031860351562 6.457014083862305 221.05340576171875
v -847.1953125 6.4569783210754395 -183.31927490234375
v -863.5859375 -22.66020965576172 -183.3201904296875
v -863.5859375 -22.660175323486328 221.05255126953125
v -812.9609375 53.4023323059082 221.05523681640625
v -812.9609375 53.40229797363281 -183.31752014160156
v -769.578125 85.59764862060547 221.05621337890625
v -769.578125 85.59761047363281 -183.3165283203125
v -812.9609375 53.40229797363281 -183.31752014160156
v -812.9609375 53.4023323059082 221.05523681640625
v -718.6875 113.17578125 221.05694580078125
v -718.6796875 113.17574310302734 -183.31581115722656
v -675.5390625 126.15234375 221.0570526123047
v -675.5390625 126.15230560302734 -183.3091583251953
v -718.6796875 113.17574310302734 -183.31581115722656
v -718.6875 113.17578125 221.05694580078125
v -354.74212646484375 -612.6015625 -183.36026000976562
v -354.7421569824219 -612.6015625 220.99954223632812
v -155.4296875 -617.90625 220.3455047607422
v -155.4296417236328 -617.90625 -184.01416015625
v 313.5625305175781 -616.7734375 215.3736114501953
v 313.5625305175781 -616.7734375 -188.98605346679688
v 787.8515625 -598.2421264648438 206.01963806152344
v 787.8516235351562 -598.2421264648438 -198.3400421142578
v 909.5858764648438 617.9063110351562 183.30274963378906
v 909.578125 617.9063110351562 -221.0570526123047
v 282.1796875 419.3437194824219 -186.18670654296875
v 282.17962646484375 419.3437805175781 218.17308044433594
v -38.499996185302734 313.4843444824219 -183.31961059570312
v -38.500030517578125 313.4844055175781 221.04013061523438
v -243.05467224121094 248.48434448242188 -183.30258178710938
v -243.05471801757812 248.484375 221.05706787109375
v -466.6953125 180.66403198242188 -183.30259704589844
v -466.6953430175781 180.6640625 221.05706787109375
f 52 51 53
f 54 53 51
f 12 11 13
f 14 13 11
f 13 14 10
f 9 10 14
f 10 9 6
f 5 6 9
f 6 5 7
f 8 7 5
f 48 47 45
f 46 45 47
f 45 46 75
f 74 75 46
f 75 74 73
f 72 73 74
f 73 72 70
f 71 70 72
f 20 19 16
f 15 16 19
f 16 15 17
f 18 17 15
f 26 25 22
f 21 22 25
f 22 21 23
f 24 23 21
f 32 31 28
f 27 28 31
f 28 27 29
f 30 29 27
f 38 37 34
f 33 34 37
f 34 33 35
f 36 35 33
f 44 43 40
f 39 40 43
f 40 39 41
f 42 41 39
f 2 1 3
f 4 3 1
f 3 4 49
f 50 49 4
f 56 55 57
f 58 57 55
f 60 59 61
f 62 61 59
f 64 63 65
f 66 65 63
f 65 67 68
f 69 68 67
