# from FD_Block29_FWmetalSupports_LOD_0.pskx
v -816.3535766601562 -720.3717651367188 -394.50390625
v -778.0513916015625 -688.2323608398438 -394.50390625
v -745.9119262695312 -726.5346069335938 -394.50390625
v -784.2141723632812 -758.6740112304688 -394.50390625
v -816.3535766601562 -720.3717651367188 -394.50390625
v -784.2141723632812 -758.6740112304688 -394.50390625
v -784.2141723632812 -758.6740112304688 -389.50390625
v -816.3535766601562 -720.3717651367188 -389.50390625
v -784.2141723632812 -758.6740112304688 -394.50390625
v -745.9119262695312 -726.5346069335938 -394.50390625
v -745.9119262695312 -726.5346069335938 -389.50390625
v -784.2141723632812 -758.6740112304688 -389.50390625
v -745.9119262695312 -726.5346069335938 -394.50390625
v -778.0513916015625 -688.2323608398438 -394.50390625
v -778.0513916015625 -688.2323608398438 -389.50390625
v -745.9119262695312 -726.5346069335938 -389.50390625
v -778.0513916015625 -688.2323608398438 -394.50390625
v -816.3535766601562 -720.3717651367188 -394.50390625
v -816.3535766601562 -720.3717651367188 -389.50390625
v -778.0513916015625 -688.2323608398438 -389.50390625
v -816.3535766601562 -720.3717651367188 -389.50390625
v -784.2141723632812 -758.6740112304688 -389.50390625
v -786.1513671875 -733.0294799804688 -389.50390625
v -791.43505859375 -726.7326049804688 -389.50390625
v -745.9119262695312 -726.5346069335938 -389.50390625
v -771.556396484375 -728.4718017578125 -389.50390625
v -777.8533325195312 -733.7554931640625 -389.50390625
v -778.0513916015625 -688.2323608398438 -389.50390625
v -776.1141357421875 -713.8768920898438 -389.50390625
v -770.8304443359375 -720.1737670898438 -389.50390625
v -790.708984375 -718.4345703125 -389.50390625
v -784.412109375 -713.15087890625 -389.50390625
v -787.1302490234375 -734.9099731445312 1.9516249895095825
v -793.4569091796875 -727.3701171875 1.9516239166259766
v -793.4569091796875 -727.3701171875 -17.031713485717773
v -787.1302490234375 -734.9099731445312 -17.03171157836914
v -766.64404296875 -738.1978759765625 -3.602510929107666
v -769.1279907226562 -740.2821655273438 -3.602510929107666
v -769.1279907226562 -740.2821655273438 -11.477510452270508
v -766.64404296875 -738.1978759765625 -11.477510452270508
v -775.13525390625 -711.9963989257812 1.9516241550445557
v -768.80859375 -719.5362548828125 1.9516252279281616
v -768.80859375 -719.5362548828125 -17.031713485717773
v -775.13525390625 -711.9963989257812 -17.031713485717773
v -795.6214599609375 -708.70849609375 -3.6025161743164062
v -793.1375122070312 -706.6242065429688 -3.602515935897827
v -793.1375122070312 -706.6242065429688 -11.477516174316406
v -795.6214599609375 -708.70849609375 -11.477516174316406
v -786.1513671875 -733.0294799804688 8.495631217956543
v -784.4535522460938 -729.7898559570312 10.396693229675293
v -787.9498291015625 -725.6231689453125 10.396693229675293
v -791.43505859375 -726.7326049804688 8.495631217956543
v -771.5564575195312 -728.4718017578125 8.49563217163086
v -774.7960815429688 -726.7739868164062 10.396693229675293
v -778.9627685546875 -730.270263671875 10.396693229675293
v -777.8533325195312 -733.7554931640625 8.495631217956543
v -776.1141357421875 -713.8768920898438 8.49562931060791
v -777.8119506835938 -717.1165161132812 10.396692276000977
v -774.315673828125 -721.283203125 10.396693229675293
v -770.8304443359375 -720.1737670898438 8.495631217956543
v -790.7090454101562 -718.4345703125 8.495630264282227
v -787.4694213867188 -720.1323852539062 10.396692276000977
v -783.302734375 -716.6361083984375 10.396692276000977
v -784.4121704101562 -713.15087890625 8.49562931060791
v -784.2141723632812 -758.6738891601562 394.50390625
v -745.9119873046875 -726.5345458984375 394.50390625
v -778.0514526367188 -688.2323608398438 394.50390625
v -816.3535766601562 -720.3717041015625 394.50390625
v -784.2141723632812 -758.6738891601562 394.50390625
v -816.3535766601562 -720.3717041015625 394.50390625
v -816.3535766601562 -720.3717041015625 389.5038757324219
v -784.2141723632812 -758.6738891601562 389.5038757324219
v -816.3535766601562 -720.3717041015625 394.50390625
v -778.0514526367188 -688.2323608398438 394.50390625
v -778.0514526367188 -688.2323608398438 389.5038757324219
v -816.3535766601562 -720.3717041015625 389.5038757324219
v -778.0514526367188 -688.2323608398438 394.50390625
v -745.9119873046875 -726.5345458984375 394.50390625
v -745.9119873046875 -726.5345458984375 389.5038757324219
v -778.0514526367188 -688.2323608398438 389.5038757324219
v -745.9119873046875 -726.5345458984375 394.50390625
v -784.2141723632812 -758.6738891601562 394.50390625
v -784.2141723632812 -758.6738891601562 389.5038757324219
v -745.9119873046875 -726.5345458984375 389.5038757324219
v -784.2141723632812 -758.6738891601562 389.5038757324219
v -816.3535766601562 -720.3717041015625 389.5038757324219
v -791.4351196289062 -726.7324829101562 389.5038757324219
v -786.1512451171875 -733.029541015625 389.5038757324219
v -778.0514526367188 -688.2323608398438 389.5038757324219
v -784.4121704101562 -713.1508178710938 389.5038757324219
v -790.7090454101562 -718.4345092773438 389.5038757324219
v -745.9119873046875 -726.5345458984375 389.5038757324219
v -770.8303833007812 -720.1737670898438 389.5038757324219
v -776.1142578125 -713.876708984375 389.5038757324219
v -777.8533325195312 -733.7554321289062 389.5038757324219
v -771.5564575195312 -728.4717407226562 389.5038757324219
v -793.4569091796875 -727.3701171875 1.9516239166259766
v -792.5895385742188 -717.4556884765625 1.9516230821609497
v -792.5895385742188 -717.4556884765625 -17.031713485717773
v -793.4569091796875 -727.3701171875 -17.031713485717773
v -777.2158203125 -735.77734375 1.951625943183899
v -787.1302490234375 -734.9099731445312 1.9516249895095825
v -787.1302490234375 -734.9099731445312 -17.03171157836914
v -777.2158203125 -735.77734375 -17.03171157836914
v -768.80859375 -719.5362548828125 1.9516252279281616
v -769.6759643554688 -729.45068359375 1.9516260623931885
v -769.6759643554688 -729.45068359375 -17.031713485717773
v -768.80859375 -719.5362548828125 -17.031713485717773
v -785.0496826171875 -711.1290283203125 1.9516233205795288
v -775.13525390625 -711.9963989257812 1.9516241550445557
v -775.13525390625 -711.9963989257812 -17.031713485717773
v -785.0496826171875 -711.1290283203125 -17.031713485717773
v -791.43505859375 -726.7326049804688 8.495631217956543
v -787.9498291015625 -725.6231689453125 10.396693229675293
v -787.4694213867188 -720.1323852539062 10.396692276000977
v -790.7090454101562 -718.4345703125 8.495630264282227
v -777.8533325195312 -733.7554931640625 8.495631217956543
v -778.9627685546875 -730.270263671875 10.396693229675293
v -784.4535522460938 -729.7898559570312 10.396693229675293
v -786.1513671875 -733.0294799804688 8.495631217956543
v -770.8304443359375 -720.1737670898438 8.495631217956543
v -774.315673828125 -721.283203125 10.396693229675293
v -774.7960815429688 -726.7739868164062 10.396693229675293
v -771.5564575195312 -728.4718017578125 8.49563217163086
v -784.4121704101562 -713.15087890625 8.49562931060791
v -783.302734375 -716.6361083984375 10.396692276000977
v -777.8119506835938 -717.1165161132812 10.396692276000977
v -776.1141357421875 -713.8768920898438 8.49562931060791
v -784.45361328125 -729.7896728515625 387.6591796875
v -787.9497680664062 -725.6232299804688 387.6591796875
v -787.9498291015625 -725.6231689453125 10.396693229675293
v -784.4535522460938 -729.7898559570312 10.396693229675293
v -774.796142578125 -726.7738647460938 387.6591796875
v -778.9628295898438 -730.2701416015625 387.6591796875
v -778.9627685546875 -730.270263671875 10.396693229675293
v -774.7960815429688 -726.7739868164062 10.396693229675293
v -777.8118896484375 -717.1165771484375 387.6591796875
v -774.3157958984375 -721.2830200195312 387.6591796875
v -774.315673828125 -721.283203125 10.396693229675293
v -777.8119506835938 -717.1165161132812 10.396692276000977
v -787.4693603515625 -720.1323852539062 387.6591796875
v -783.3026733398438 -716.6361083984375 387.6591796875
v -783.302734375 -716.6361083984375 10.396692276000977
v -787.4694213867188 -720.1323852539062 10.396692276000977
v -787.9497680664062 -725.6232299804688 387.6591796875
v -787.4693603515625 -720.1323852539062 387.6591796875
v -787.4694213867188 -720.1323852539062 10.396692276000977
v -787.9498291015625 -725.6231689453125 10.396693229675293
v -778.9628295898438 -730.2701416015625 387.6591796875
v -784.45361328125 -729.7896728515625 387.6591796875
v -784.4535522460938 -729.7898559570312 10.396693229675293
v -778.9627685546875 -730.270263671875 10.396693229675293
v -774.3157958984375 -721.2830200195312 387.6591796875
v -774.796142578125 -726.7738647460938 387.6591796875
v -774.7960815429688 -726.7739868164062 10.396693229675293
v -774.315673828125 -721.283203125 10.396693229675293
v -783.3026733398438 -716.6361083984375 387.6591796875
v -777.8118896484375 -717.1165771484375 387.6591796875
v -777.8119506835938 -717.1165161132812 10.396692276000977
v -783.302734375 -716.6361083984375 10.396692276000977
v -786.1512451171875 -733.029541015625 389.5038757324219
v -791.4351196289062 -726.7324829101562 389.5038757324219
v -787.9497680664062 -725.6232299804688 387.6591796875
v -784.45361328125 -729.7896728515625 387.6591796875
v -771.5564575195312 -728.4717407226562 389.5038757324219
v -777.8533325195312 -733.7554321289062 389.5038757324219
v -778.9628295898438 -730.2701416015625 387.6591796875
v -774.796142578125 -726.7738647460938 387.6591796875
v -776.1142578125 -713.876708984375 389.5038757324219
v -770.8303833007812 -720.1737670898438 389.5038757324219
v -774.3157958984375 -721.2830200195312 387.6591796875
v -777.8118896484375 -717.1165771484375 387.6591796875
v -790.7090454101562 -718.4345092773438 389.5038757324219
v -784.4121704101562 -713.1508178710938 389.5038757324219
v -783.3026733398438 -716.6361083984375 387.6591796875
v -787.4693603515625 -720.1323852539062 387.6591796875
v -791.4351196289062 -726.7324829101562 389.5038757324219
v -790.7090454101562 -718.4345092773438 389.5038757324219
v -787.4693603515625 -720.1323852539062 387.6591796875
v -787.9497680664062 -725.6232299804688 387.6591796875
v -777.8533325195312 -733.7554321289062 389.5038757324219
v -786.1512451171875 -733.029541015625 389.5038757324219
v -784.45361328125 -729.7896728515625 387.6591796875
v -778.9628295898438 -730.2701416015625 387.6591796875
v -770.8303833007812 -720.1737670898438 389.5038757324219
v -771.5564575195312 -728.4717407226562 389.5038757324219
v -774.796142578125 -726.7738647460938 387.6591796875
v -774.3157958984375 -721.2830200195312 387.6591796875
v -784.4121704101562 -713.1508178710938 389.5038757324219
v -776.1142578125 -713.876708984375 389.5038757324219
v -777.8118896484375 -717.1165771484375 387.6591796875
v -783.3026733398438 -716.6361083984375 387.6591796875
v -786.1513671875 -733.0294799804688 8.495631217956543
v -791.43505859375 -726.7326049804688 8.495631217956543
v -791.43505859375 -726.7326049804688 1.9516240358352661
v -786.1513671875 -733.0294799804688 1.9516249895095825
v -791.43505859375 -726.7326049804688 -389.50390625
v -786.1513671875 -733.0294799804688 -389.50390625
v -786.1513671875 -733.0294799804688 -17.03171157836914
v -791.43505859375 -726.7326049804688 -17.031713485717773
v -771.5564575195312 -728.4718017578125 8.49563217163086
v -777.8533325195312 -733.7554931640625 8.495631217956543
v -777.8533325195312 -733.7554931640625 1.9516257047653198
v -771.5564575195312 -728.4718017578125 1.9516258239746094
v -777.8533325195312 -733.7554931640625 -389.50390625
v -771.556396484375 -728.4718017578125 -389.50390625
v -771.5564575195312 -728.4718017578125 -17.031713485717773
v -777.8533325195312 -733.7554931640625 -17.03171157836914
v -776.1141357421875 -713.8768920898438 8.49562931060791
v -770.8304443359375 -720.1737670898438 8.495631217956543
v -770.8304443359375 -720.1737670898438 1.951625108718872
v -776.1141357421875 -713.8768920898438 1.9516242742538452
v -770.8304443359375 -720.1737670898438 -389.50390625
v -776.1141357421875 -713.8768920898438 -389.50390625
v -776.1141357421875 -713.8768920898438 -17.031713485717773
v -770.8304443359375 -720.1737670898438 -17.031713485717773
v -790.7090454101562 -718.4345703125 8.495630264282227
v -784.4121704101562 -713.15087890625 8.49562931060791
v -784.4121704101562 -713.15087890625 1.9516234397888184
v -790.7090454101562 -718.4345703125 1.9516233205795288
v -784.412109375 -713.15087890625 -389.50390625
v -790.708984375 -718.4345703125 -389.50390625
v -790.7090454101562 -718.4345703125 -17.031713485717773
v -784.4121704101562 -713.15087890625 -17.031713485717773
v -791.43505859375 -726.7326049804688 8.495631217956543
v -790.7090454101562 -718.4345703125 8.495630264282227
v -790.7090454101562 -718.4345703125 1.9516233205795288
v -791.43505859375 -726.7326049804688 1.9516240358352661
v -790.708984375 -718.4345703125 -389.50390625
v -791.43505859375 -726.7326049804688 -389.50390625
v -791.43505859375 -726.7326049804688 -17.031713485717773
v -790.7090454101562 -718.4345703125 -17.031713485717773
v -777.8533325195312 -733.7554931640625 8.495631217956543
v -786.1513671875 -733.0294799804688 8.495631217956543
v -786.1513671875 -733.0294799804688 1.9516249895095825
v -777.8533325195312 -733.7554931640625 1.9516257047653198
v -786.1513671875 -733.0294799804688 -389.50390625
v -777.8533325195312 -733.7554931640625 -389.50390625
v -777.8533325195312 -733.7554931640625 -17.03171157836914
v -786.1513671875 -733.0294799804688 -17.03171157836914
v -770.8304443359375 -720.1737670898438 8.495631217956543
v -771.5564575195312 -728.4718017578125 8.49563217163086
v -771.5564575195312 -728.4718017578125 1.9516258239746094
v -770.8304443359375 -720.1737670898438 1.951625108718872
v -771.556396484375 -728.4718017578125 -389.50390625
v -770.8304443359375 -720.1737670898438 -389.50390625
v -770.8304443359375 -720.1737670898438 -17.031713485717773
v -771.5564575195312 -728.4718017578125 -17.031713485717773
v -784.4121704101562 -713.15087890625 8.49562931060791
v -776.1141357421875 -713.8768920898438 8.49562931060791
v -776.1141357421875 -713.8768920898438 1.9516242742538452
v -784.4121704101562 -713.15087890625 1.9516234397888184
v -776.1141357421875 -713.8768920898438 -389.50390625
v -784.412109375 -713.15087890625 -389.50390625
v -784.4121704101562 -713.15087890625 -17.031713485717773
v -776.1141357421875 -713.8768920898438 -17.031713485717773
v -786.1513671875 -733.0294799804688 1.9516249895095825
v -791.43505859375 -726.7326049804688 1.9516240358352661
v -793.4569091796875 -727.3701171875 1.9516239166259766
v -787.1302490234375 -734.9099731445312 1.9516249895095825
v -790.7090454101562 -718.4345703125 1.9516233205795288
v -792.5895385742188 -717.4556884765625 1.9516230821609497
v -784.4121704101562 -713.15087890625 1.9516234397888184
v -785.0496826171875 -711.1290283203125 1.9516233205795288
v -776.1141357421875 -713.8768920898438 1.9516242742538452
v -775.13525390625 -711.9963989257812 1.9516241550445557
v -770.8304443359375 -720.1737670898438 1.951625108718872
v -768.80859375 -719.5362548828125 1.9516252279281616
v -771.5564575195312 -728.4718017578125 1.9516258239746094
v -769.6759643554688 -729.45068359375 1.9516260623931885
v -777.8533325195312 -733.7554931640625 1.9516257047653198
v -777.2158203125 -735.77734375 1.951625943183899
v -791.43505859375 -726.7326049804688 -17.031713485717773
v -786.1513671875 -733.0294799804688 -17.03171157836914
v -787.1302490234375 -734.9099731445312 -17.03171157836914
v -793.4569091796875 -727.3701171875 -17.031713485717773
v -777.8533325195312 -733.7554931640625 -17.03171157836914
v -777.2158203125 -735.77734375 -17.03171157836914
v -771.5564575195312 -728.4718017578125 -17.031713485717773
v -769.6759643554688 -729.45068359375 -17.031713485717773
v -770.8304443359375 -720.1737670898438 -17.031713485717773
v -768.80859375 -719.5362548828125 -17.031713485717773
v -776.1141357421875 -713.8768920898438 -17.031713485717773
v -775.13525390625 -711.9963989257812 -17.031713485717773
v -784.4121704101562 -713.15087890625 -17.031713485717773
v -785.0496826171875 -711.1290283203125 -17.031713485717773
v -790.7090454101562 -718.4345703125 -17.031713485717773
v -792.5895385742188 -717.4556884765625 -17.031713485717773
v -769.6759643554688 -729.45068359375 -17.031713485717773
v -769.6759643554688 -729.45068359375 1.9516260623931885
v -772.2039184570312 -731.5718994140625 -1.348361611366272
v -772.2039184570312 -731.5718994140625 -13.73169231414795
v -777.2158203125 -735.77734375 1.951625943183899
v -774.6878662109375 -733.6561889648438 -1.3483617305755615
v -777.2158203125 -735.77734375 -17.03171157836914
v -774.6878662109375 -733.6561889648438 -13.731693267822266
v -792.5895385742188 -717.4556884765625 -17.031713485717773
v -792.5895385742188 -717.4556884765625 1.9516230821609497
v -790.0615844726562 -715.33447265625 -1.3483647108078003
v -790.0615844726562 -715.33447265625 -13.731695175170898
v -785.0496826171875 -711.1290283203125 1.9516233205795288
v -787.57763671875 -713.2501831054688 -1.3483647108078003
v -785.0496826171875 -711.1290283203125 -17.031713485717773
v -787.57763671875 -713.2501831054688 -13.731696128845215
v -772.2039184570312 -731.5718994140625 -13.73169231414795
v -772.2039184570312 -731.5718994140625 -1.348361611366272
v -766.64404296875 -738.1978759765625 -3.602510929107666
v -766.64404296875 -738.1978759765625 -11.477510452270508
v -772.2039184570312 -731.5718994140625 -1.348361611366272
v -774.6878662109375 -733.6561889648438 -1.3483617305755615
v -769.1279907226562 -740.2821655273438 -3.602510929107666
v -766.64404296875 -738.1978759765625 -3.602510929107666
v -774.6878662109375 -733.6561889648438 -1.3483617305755615
v -774.6878662109375 -733.6561889648438 -13.731693267822266
v -769.1279907226562 -740.2821655273438 -11.477510452270508
v -769.1279907226562 -740.2821655273438 -3.602510929107666
v -774.6878662109375 -733.6561889648438 -13.731693267822266
v -772.2039184570312 -731.5718994140625 -13.73169231414795
v -766.64404296875 -738.1978759765625 -11.477510452270508
v -769.1279907226562 -740.2821655273438 -11.477510452270508
v -790.0615844726562 -715.33447265625 -13.731695175170898
v -790.0615844726562 -715.33447265625 -1.3483647108078003
v -795.6214599609375 -708.70849609375 -3.6025161743164062
v -795.6214599609375 -708.70849609375 -11.477516174316406
v -790.0615844726562 -715.33447265625 -1.3483647108078003
v -787.57763671875 -713.2501831054688 -1.3483647108078003
v -793.1375122070312 -706.6242065429688 -3.602515935897827
v -795.6214599609375 -708.70849609375 -3.6025161743164062
v -787.57763671875 -713.2501831054688 -1.3483647108078003
v -787.57763671875 -713.2501831054688 -13.731696128845215
v -793.1375122070312 -706.6242065429688 -11.477516174316406
v -793.1375122070312 -706.6242065429688 -3.602515935897827
v -787.57763671875 -713.2501831054688 -13.731696128845215
v -790.0615844726562 -715.33447265625 -13.731695175170898
v -795.6214599609375 -708.70849609375 -11.477516174316406
v -793.1375122070312 -706.6242065429688 -11.477516174316406
v -781.83203125 -403.0523376464844 -394.5039367675781
v -733.5357666015625 -390.1114501953125 -394.5039367675781
v -720.5948486328125 -438.40771484375 -394.5039367675781
v -768.89111328125 -451.3486633300781 -394.5039367675781
v -781.83203125 -403.0523376464844 -394.5039367675781
v -768.89111328125 -451.3486633300781 -394.5039367675781
v -768.89111328125 -451.3486633300781 -389.5039367675781
v -781.83203125 -403.0523376464844 -389.5039367675781
v -768.89111328125 -451.3486633300781 -394.5039367675781
v -720.5948486328125 -438.40771484375 -394.5039367675781
v -720.5948486328125 -438.40771484375 -389.5039367675781
v -768.89111328125 -451.3486633300781 -389.5039367675781
v -720.5948486328125 -438.40771484375 -394.5039367675781
v -733.5357666015625 -390.1114501953125 -394.5039367675781
v -733.5357666015625 -390.1114501953125 -389.5039367675781
v -720.5948486328125 -438.40771484375 -389.5039367675781
v -733.5357666015625 -390.1114501953125 -394.5039367675781
v -781.83203125 -403.0523376464844 -394.5039367675781
v -781.83203125 -403.0523376464844 -389.5039367675781
v -733.5357666015625 -390.1114501953125 -389.5039367675781
v -781.83203125 -403.0523376464844 -389.5039367675781
v -768.89111328125 -451.3486633300781 -389.5039367675781
v -759.8088989257812 -427.2882080078125 -389.5039367675781
v -761.9364013671875 -419.3482666015625 -389.5039367675781
v -720.5948486328125 -438.40771484375 -389.5039367675781
v -744.6552124023438 -429.3255615234375 -389.5039367675781
v -752.59521484375 -431.45306396484375 -389.5039367675781
v -733.5357666015625 -390.1114501953125 -389.5039367675781
v -742.617919921875 -414.1718444824219 -389.5039367675781
v -740.4904174804688 -422.11181640625 -389.5039367675781
v -757.7715454101562 -412.134521484375 -389.5039367675781
v -749.8316040039062 -410.00701904296875 -389.5039367675781
v -761.4908447265625 -428.5787048339844 1.9516005516052246
v -764.038330078125 -419.0715026855469 1.951599359512329
v -764.038330078125 -419.0715026855469 -17.031740188598633
v -761.4908447265625 -428.5787048339844 -17.031736373901367
v -744.3135986328125 -440.2164611816406 -3.6025352478027344
v -747.4456787109375 -441.0556945800781 -3.6025352478027344
v -747.4456787109375 -441.0556945800781 -11.477535247802734
v -744.3135986328125 -440.2164611816406 -11.477535247802734
v -740.9359741210938 -412.8813171386719 1.9516009092330933
v -738.3885498046875 -422.3885498046875 1.9516018629074097
v -738.3885498046875 -422.3885498046875 -17.031736373901367
v -740.9359741210938 -412.8813171386719 -17.031736373901367
v -758.11328125 -401.2435607910156 -3.6025397777557373
v -754.981201171875 -400.4043273925781 -3.602539539337158
v -754.981201171875 -400.4043273925781 -11.4775390625
v -758.11328125 -401.2435607910156 -11.477540016174316
v -759.8088989257812 -427.2881774902344 8.495606422424316
v -756.901123046875 -425.0695495605469 10.396668434143066
v -758.3088989257812 -419.8157043457031 10.39666748046875
v -761.9364013671875 -419.3482360839844 8.49560546875
v -744.6552734375 -429.3255310058594 8.49560832977295
v -746.8739013671875 -426.417724609375 10.3966703414917
v -752.1277465820312 -427.8254699707031 10.3966703414917
v -752.59521484375 -431.4530334472656 8.49560832977295
v -742.617919921875 -414.17181396484375 8.495607376098633
v -745.5257568359375 -416.39044189453125 10.396669387817383
v -744.1179809570312 -421.64434814453125 10.3966703414917
v -740.4904174804688 -422.1117858886719 8.49560832977295
v -757.7715454101562 -412.1344909667969 8.49560546875
v -755.552978515625 -415.0423278808594 10.39666748046875
v -750.2991333007812 -413.63458251953125 10.396669387817383
v -749.8316650390625 -410.0069885253906 8.495607376098633
v -768.89111328125 -451.3486022949219 394.5038757324219
v -720.5949096679688 -438.40765380859375 394.5038757324219
v -733.5357666015625 -390.11138916015625 394.5038757324219
v -781.83203125 -403.0522766113281 394.5038757324219
v -768.89111328125 -451.3486022949219 394.5038757324219
v -781.83203125 -403.0522766113281 394.5038757324219
v -781.83203125 -403.0522766113281 389.50384521484375
v -768.89111328125 -451.3486022949219 389.50384521484375
v -781.83203125 -403.0522766113281 394.5038757324219
v -733.5357666015625 -390.11138916015625 394.5038757324219
v -733.5357666015625 -390.11138916015625 389.50384521484375
v -781.83203125 -403.0522766113281 389.50384521484375
v -733.5357666015625 -390.11138916015625 394.5038757324219
v -720.5949096679688 -438.40765380859375 394.5038757324219
v -720.5949096679688 -438.40765380859375 389.50384521484375
v -733.5357666015625 -390.11138916015625 389.50384521484375
v -720.5949096679688 -438.40765380859375 394.5038757324219
v -768.89111328125 -451.3486022949219 394.5038757324219
v -768.89111328125 -451.3486022949219 389.50384521484375
v -720.5949096679688 -438.40765380859375 389.50384521484375
v -768.89111328125 -451.3486022949219 389.50384521484375
v -781.83203125 -403.0522766113281 389.50384521484375
v -761.9364624023438 -419.34808349609375 389.50384521484375
v -759.8088989257812 -427.2882080078125 389.50384521484375
v -733.5357666015625 -390.11138916015625 389.50384521484375
v -749.8316650390625 -410.0069580078125 389.50384521484375
v -757.7715454101562 -412.13446044921875 389.50384521484375
v -720.5949096679688 -438.40765380859375 389.50384521484375
v -740.4904174804688 -422.11187744140625 389.50384521484375
v -742.617919921875 -414.1717529296875 389.50384521484375
v -752.59521484375 -431.4530029296875 389.50384521484375
v -744.6552734375 -429.32550048828125 389.50384521484375
v -764.038330078125 -419.0715026855469 1.951599359512329
v -759.0621337890625 -410.45257568359375 1.9515992403030396
v -759.0621337890625 -410.45257568359375 -17.03173828125
v -764.038330078125 -419.0715026855469 -17.031740188598633
v -752.8718872070312 -433.554931640625 1.9516017436981201
v -761.4908447265625 -428.5787048339844 1.9516005516052246
v -761.4908447265625 -428.5787048339844 -17.031736373901367
v -752.8718872070312 -433.554931640625 -17.031736373901367
v -738.3885498046875 -422.3885498046875 1.9516018629074097
v -743.3646850585938 -431.0074157714844 1.9516022205352783
v -743.3646850585938 -431.0074157714844 -17.031734466552734
v -738.3885498046875 -422.3885498046875 -17.031736373901367
v -749.554931640625 -407.9051208496094 1.9515997171401978
v -740.9359741210938 -412.8813171386719 1.9516009092330933
v -740.9359741210938 -412.8813171386719 -17.031736373901367
v -749.554931640625 -407.9051208496094 -17.03173828125
v -761.9364013671875 -419.3482360839844 8.49560546875
v -758.3088989257812 -419.8157043457031 10.39666748046875
v -755.552978515625 -415.0423278808594 10.39666748046875
v -757.7715454101562 -412.1344909667969 8.49560546875
v -752.59521484375 -431.4530334472656 8.49560832977295
v -752.1277465820312 -427.8254699707031 10.3966703414917
v -756.901123046875 -425.0695495605469 10.396668434143066
v -759.8088989257812 -427.2881774902344 8.495606422424316
v -740.4904174804688 -422.1117858886719 8.49560832977295
v -744.1179809570312 -421.64434814453125 10.3966703414917
v -746.8739013671875 -426.417724609375 10.3966703414917
v -744.6552734375 -429.3255310058594 8.49560832977295
v -749.8316650390625 -410.0069885253906 8.495607376098633
v -750.2991333007812 -413.63458251953125 10.396669387817383
v -745.5257568359375 -416.39044189453125 10.396669387817383
v -742.617919921875 -414.17181396484375 8.495607376098633
v -756.901123046875 -425.0693664550781 387.6591491699219
v -758.3087768554688 -419.81573486328125 387.6591491699219
v -758.3088989257812 -419.8157043457031 10.39666748046875
v -756.901123046875 -425.0695495605469 10.396668434143066
v -746.8739013671875 -426.4176025390625 387.6591491699219
v -752.1278076171875 -427.8253173828125 387.6591491699219
v -752.1277465820312 -427.8254699707031 10.3966703414917
v -746.8739013671875 -426.417724609375 10.3966703414917
v -745.5258178710938 -416.39056396484375 387.6591491699219
v -744.1180419921875 -421.6441650390625 387.6591491699219
v -744.1179809570312 -421.64434814453125 10.3966703414917
v -745.5257568359375 -416.39044189453125 10.396669387817383
v -755.552978515625 -415.0423583984375 387.6591491699219
v -750.299072265625 -413.6346435546875 387.6591491699219
v -750.2991333007812 -413.63458251953125 10.396669387817383
v -755.552978515625 -415.0423278808594 10.39666748046875
v -758.3087768554688 -419.81573486328125 387.6591491699219
v -755.552978515625 -415.0423583984375 387.6591491699219
v -755.552978515625 -415.0423278808594 10.39666748046875
v -758.3088989257812 -419.8157043457031 10.39666748046875
v -752.1278076171875 -427.8253173828125 387.6591491699219
v -756.901123046875 -425.0693664550781 387.6591491699219
v -756.901123046875 -425.0695495605469 10.396668434143066
v -752.1277465820312 -427.8254699707031 10.3966703414917
v -744.1180419921875 -421.6441650390625 387.6591491699219
v -746.8739013671875 -426.4176025390625 387.6591491699219
v -746.8739013671875 -426.417724609375 10.3966703414917
v -744.1179809570312 -421.64434814453125 10.3966703414917
v -750.299072265625 -413.6346435546875 387.6591491699219
v -745.5258178710938 -416.39056396484375 387.6591491699219
v -745.5257568359375 -416.39044189453125 10.396669387817383
v -750.2991333007812 -413.63458251953125 10.396669387817383
v -759.8088989257812 -427.2882080078125 389.50384521484375
v -761.9364624023438 -419.34808349609375 389.50384521484375
v -758.3087768554688 -419.81573486328125 387.6591491699219
v -756.901123046875 -425.0693664550781 387.6591491699219
v -744.6552734375 -429.32550048828125 389.50384521484375
v -752.59521484375 -431.4530029296875 389.50384521484375
v -752.1278076171875 -427.8253173828125 387.6591491699219
v -746.8739013671875 -426.4176025390625 387.6591491699219
v -742.617919921875 -414.1717529296875 389.50384521484375
v -740.4904174804688 -422.11187744140625 389.50384521484375
v -744.1180419921875 -421.6441650390625 387.6591491699219
v -745.5258178710938 -416.39056396484375 387.6591491699219
v -757.7715454101562 -412.13446044921875 389.50384521484375
v -749.8316650390625 -410.0069580078125 389.50384521484375
v -750.299072265625 -413.6346435546875 387.6591491699219
v -755.552978515625 -415.0423583984375 387.6591491699219
v -761.9364624023438 -419.34808349609375 389.50384521484375
v -757.7715454101562 -412.13446044921875 389.50384521484375
v -755.552978515625 -415.0423583984375 387.6591491699219
v -758.3087768554688 -419.81573486328125 387.6591491699219
v -752.59521484375 -431.4530029296875 389.50384521484375
v -759.8088989257812 -427.2882080078125 389.50384521484375
v -756.901123046875 -425.0693664550781 387.6591491699219
v -752.1278076171875 -427.8253173828125 387.6591491699219
v -740.4904174804688 -422.11187744140625 389.50384521484375
v -744.6552734375 -429.32550048828125 389.50384521484375
v -746.8739013671875 -426.4176025390625 387.6591491699219
v -744.1180419921875 -421.6441650390625 387.6591491699219
v -749.8316650390625 -410.0069580078125 389.50384521484375
v -742.617919921875 -414.1717529296875 389.50384521484375
v -745.5258178710938 -416.39056396484375 387.6591491699219
v -750.299072265625 -413.6346435546875 387.6591491699219
v -759.8088989257812 -427.2881774902344 8.495606422424316
v -761.9364013671875 -419.3482360839844 8.49560546875
v -761.9364013671875 -419.3482360839844 1.9515998363494873
v -759.8088989257812 -427.2881774902344 1.951600432395935
v -761.9364013671875 -419.3482666015625 -389.5039367675781
v -759.8088989257812 -427.2882080078125 -389.5039367675781
v -759.8088989257812 -427.2881774902344 -17.031736373901367
v -761.9364013671875 -419.3482360839844 -17.03173828125
v -744.6552734375 -429.3255310058594 8.49560832977295
v -752.59521484375 -431.4530334472656 8.49560832977295
v -752.59521484375 -431.4530334472656 1.951601505279541
v -744.6552734375 -429.3255310058594 1.9516021013259888
v -752.59521484375 -431.45306396484375 -389.5039367675781
v -744.6552124023438 -429.3255615234375 -389.5039367675781
v -744.6552734375 -429.3255310058594 -17.031734466552734
v -752.59521484375 -431.4530334472656 -17.031736373901367
v -742.617919921875 -414.17181396484375 8.495607376098633
v -740.4904174804688 -422.1117858886719 8.49560832977295
v -740.4904174804688 -422.1117858886719 1.9516017436981201
v -742.617919921875 -414.17181396484375 1.9516009092330933
v -740.4904174804688 -422.11181640625 -389.5039367675781
v -742.617919921875 -414.1718444824219 -389.5039367675781
v -742.617919921875 -414.17181396484375 -17.031736373901367
v -740.4904174804688 -422.1117858886719 -17.031736373901367
v -757.7715454101562 -412.1344909667969 8.49560546875
v -749.8316650390625 -410.0069885253906 8.495607376098633
v -749.8316650390625 -410.0069885253906 1.9515999555587769
v -757.7715454101562 -412.1344909667969 1.951599359512329
v -749.8316040039062 -410.00701904296875 -389.5039367675781
v -757.7715454101562 -412.134521484375 -389.5039367675781
v -757.7715454101562 -412.1344909667969 -17.03173828125
v -749.8316650390625 -410.0069885253906 -17.03173828125
v -761.9364013671875 -419.3482360839844 8.49560546875
v -757.7715454101562 -412.1344909667969 8.49560546875
v -757.7715454101562 -412.1344909667969 1.951599359512329
v -761.9364013671875 -419.3482360839844 1.9515998363494873
v -757.7715454101562 -412.134521484375 -389.5039367675781
v -761.9364013671875 -419.3482666015625 -389.5039367675781
v -761.9364013671875 -419.3482360839844 -17.03173828125
v -757.7715454101562 -412.1344909667969 -17.03173828125
v -752.59521484375 -431.4530334472656 8.49560832977295
v -759.8088989257812 -427.2881774902344 8.495606422424316
v -759.8088989257812 -427.2881774902344 1.951600432395935
v -752.59521484375 -431.4530334472656 1.951601505279541
v -759.8088989257812 -427.2882080078125 -389.5039367675781
v -752.59521484375 -431.45306396484375 -389.5039367675781
v -752.59521484375 -431.4530334472656 -17.031736373901367
v -759.8088989257812 -427.2881774902344 -17.031736373901367
v -740.4904174804688 -422.1117858886719 8.49560832977295
v -744.6552734375 -429.3255310058594 8.49560832977295
v -744.6552734375 -429.3255310058594 1.9516021013259888
v -740.4904174804688 -422.1117858886719 1.9516017436981201
v -744.6552124023438 -429.3255615234375 -389.5039367675781
v -740.4904174804688 -422.11181640625 -389.5039367675781
v -740.4904174804688 -422.1117858886719 -17.031736373901367
v -744.6552734375 -429.3255310058594 -17.031734466552734
v -749.8316650390625 -410.0069885253906 8.495607376098633
v -742.617919921875 -414.17181396484375 8.495607376098633
v -742.617919921875 -414.17181396484375 1.9516009092330933
v -749.8316650390625 -410.0069885253906 1.9515999555587769
v -742.617919921875 -414.1718444824219 -389.5039367675781
v -749.8316040039062 -410.00701904296875 -389.5039367675781
v -749.8316650390625 -410.0069885253906 -17.03173828125
v -742.617919921875 -414.17181396484375 -17.031736373901367
v -759.8088989257812 -427.2881774902344 1.951600432395935
v -761.9364013671875 -419.3482360839844 1.9515998363494873
v -764.038330078125 -419.0715026855469 1.951599359512329
v -761.4908447265625 -428.5787048339844 1.9516005516052246
v -757.7715454101562 -412.1344909667969 1.951599359512329
v -759.0621337890625 -410.45257568359375 1.9515992403030396
v -749.8316650390625 -410.0069885253906 1.9515999555587769
v -749.554931640625 -407.9051208496094 1.9515997171401978
v -742.617919921875 -414.17181396484375 1.9516009092330933
v -740.9359741210938 -412.8813171386719 1.9516009092330933
v -740.4904174804688 -422.1117858886719 1.9516017436981201
v -738.3885498046875 -422.3885498046875 1.9516018629074097
v -744.6552734375 -429.3255310058594 1.9516021013259888
v -743.3646850585938 -431.0074157714844 1.9516022205352783
v -752.59521484375 -431.4530334472656 1.951601505279541
v -752.8718872070312 -433.554931640625 1.9516017436981201
v -761.9364013671875 -419.3482360839844 -17.03173828125
v -759.8088989257812 -427.2881774902344 -17.031736373901367
v -761.4908447265625 -428.5787048339844 -17.031736373901367
v -764.038330078125 -419.0715026855469 -17.031740188598633
v -752.59521484375 -431.4530334472656 -17.031736373901367
v -752.8718872070312 -433.554931640625 -17.031736373901367
v -744.6552734375 -429.3255310058594 -17.031734466552734
v -743.3646850585938 -431.0074157714844 -17.031734466552734
v -740.4904174804688 -422.1117858886719 -17.031736373901367
v -738.3885498046875 -422.3885498046875 -17.031736373901367
v -742.617919921875 -414.17181396484375 -17.031736373901367
v -740.9359741210938 -412.8813171386719 -17.031736373901367
v -749.8316650390625 -410.0069885253906 -17.03173828125
v -749.554931640625 -407.9051208496094 -17.03173828125
v -757.7715454101562 -412.1344909667969 -17.03173828125
v -759.0621337890625 -410.45257568359375 -17.03173828125
v -743.3646850585938 -431.0074157714844 -17.031734466552734
v -743.3646850585938 -431.0074157714844 1.9516022205352783
v -746.55224609375 -431.8615417480469 -1.3483856916427612
v -746.55224609375 -431.8615417480469 -13.731717109680176
v -752.8718872070312 -433.554931640625 1.9516017436981201
v -749.684326171875 -432.7007751464844 -1.3483859300613403
v -752.8718872070312 -433.554931640625 -17.031736373901367
v -749.684326171875 -432.7007751464844 -13.731717109680176
v -759.0621337890625 -410.45257568359375 -17.03173828125
v -759.0621337890625 -410.45257568359375 1.9515992403030396
v -755.8745727539062 -409.5984802246094 -1.348388433456421
v -755.8745727539062 -409.5984802246094 -13.731719970703125
v -749.554931640625 -407.9051208496094 1.9515997171401978
v -752.7424926757812 -408.7592468261719 -1.3483881950378418
v -749.554931640625 -407.9051208496094 -17.03173828125
v -752.7424926757812 -408.7592468261719 -13.731720924377441
v -746.55224609375 -431.8615417480469 -13.731717109680176
v -746.55224609375 -431.8615417480469 -1.3483856916427612
v -744.3135986328125 -440.2164611816406 -3.6025352478027344
v -744.3135986328125 -440.2164611816406 -11.477535247802734
v -746.55224609375 -431.8615417480469 -1.3483856916427612
v -749.684326171875 -432.7007751464844 -1.3483859300613403
v -747.4456787109375 -441.0556945800781 -3.6025352478027344
v -744.3135986328125 -440.2164611816406 -3.6025352478027344
v -749.684326171875 -432.7007751464844 -1.3483859300613403
v -749.684326171875 -432.7007751464844 -13.731717109680176
v -747.4456787109375 -441.0556945800781 -11.477535247802734
v -747.4456787109375 -441.0556945800781 -3.6025352478027344
v -749.684326171875 -432.7007751464844 -13.731717109680176
v -746.55224609375 -431.8615417480469 -13.731717109680176
v -744.3135986328125 -440.2164611816406 -11.477535247802734
v -747.4456787109375 -441.0556945800781 -11.477535247802734
v -755.8745727539062 -409.5984802246094 -13.731719970703125
v -755.8745727539062 -409.5984802246094 -1.348388433456421
v -758.11328125 -401.2435607910156 -3.6025397777557373
v -758.11328125 -401.2435607910156 -11.477540016174316
v -755.8745727539062 -409.5984802246094 -1.348388433456421
v -752.7424926757812 -408.7592468261719 -1.3483881950378418
v -754.981201171875 -400.4043273925781 -3.602539539337158
v -758.11328125 -401.2435607910156 -3.6025397777557373
v -752.7424926757812 -408.7592468261719 -1.3483881950378418
v -752.7424926757812 -408.7592468261719 -13.731720924377441
v -754.981201171875 -400.4043273925781 -11.4775390625
v -754.981201171875 -400.4043273925781 -3.602539539337158
v -752.7424926757812 -408.7592468261719 -13.731720924377441
v -755.8745727539062 -409.5984802246094 -13.731719970703125
v -758.11328125 -401.2435607910156 -11.477540016174316
v -754.981201171875 -400.4043273925781 -11.4775390625
v -639.3873291015625 434.57000732421875 -394.5039978027344
v -601.0850219726562 466.7093505859375 -394.5039978027344
v -568.9457397460938 428.40716552734375 -394.5039978027344
v -607.2479248046875 396.26776123046875 -394.5039978027344
v -639.3873291015625 434.57000732421875 -394.5039978027344
v -607.2479248046875 396.26776123046875 -394.5039978027344
v -607.2479248046875 396.26776123046875 -389.5039978027344
v -639.3873291015625 434.57000732421875 -389.5039978027344
v -607.2479248046875 396.26776123046875 -394.5039978027344
v -568.9457397460938 428.40716552734375 -394.5039978027344
v -568.9457397460938 428.40716552734375 -389.5039978027344
v -607.2479248046875 396.26776123046875 -389.5039978027344
v -568.9457397460938 428.40716552734375 -394.5039978027344
v -601.0850219726562 466.7093505859375 -394.5039978027344
v -601.0850219726562 466.7093505859375 -389.5039978027344
v -568.9457397460938 428.40716552734375 -389.5039978027344
v -601.0850219726562 466.7093505859375 -394.5039978027344
v -639.3873291015625 434.57000732421875 -394.5039978027344
v -639.3873291015625 434.57000732421875 -389.5039978027344
v -601.0850219726562 466.7093505859375 -389.5039978027344
v -639.3873291015625 434.57000732421875 -389.5039978027344
v -607.2479248046875 396.26776123046875 -389.5039978027344
v -609.1851806640625 421.9122619628906 -389.5039978027344
v -614.4688720703125 428.2091369628906 -389.5039978027344
v -568.9457397460938 428.40716552734375 -389.5039978027344
v -594.5902099609375 426.469970703125 -389.5039978027344
v -600.8870849609375 421.186279296875 -389.5039978027344
v -601.0850219726562 466.7093505859375 -389.5039978027344
v -599.14794921875 441.06488037109375 -389.5039978027344
v -593.8642578125 434.76800537109375 -389.5039978027344
v -613.7427978515625 436.5071716308594 -389.5039978027344
v -607.4459838867188 441.7908630371094 -389.5039978027344
v -610.1640625 420.0318603515625 1.9515396356582642
v -616.49072265625 427.5716552734375 1.951538324356079
v -616.49072265625 427.5716552734375 -17.03179931640625
v -610.1640625 420.0318603515625 -17.031797409057617
v -589.6778564453125 416.7438659667969 -3.6025962829589844
v -592.1617431640625 414.65960693359375 -3.6025967597961426
v -592.1617431640625 414.65960693359375 -11.477596282958984
v -589.6778564453125 416.7438659667969 -11.477596282958984
v -598.1690673828125 442.9453430175781 1.9515385627746582
v -591.8424072265625 435.4055480957031 1.9515398740768433
v -591.8424072265625 435.4055480957031 -17.03179931640625
v -598.1690673828125 442.9453430175781 -17.03179931640625
v -618.6552734375 446.2332763671875 -3.6026017665863037
v -616.1713256835938 448.3175964355469 -3.6026012897491455
v -616.1713256835938 448.3175964355469 -11.477601051330566
v -618.6552734375 446.2332763671875 -11.477601051330566
v -609.1851806640625 421.91229248046875 8.495545387268066
v -607.4873046875 425.1519470214844 10.396607398986816
v -610.9835815429688 429.3186340332031 10.396607398986816
v -614.4688720703125 428.20916748046875 8.49554443359375
v -594.5902099609375 426.4700012207031 8.4955472946167
v -597.8298950195312 428.1678466796875 10.39660930633545
v -601.99658203125 424.6715393066406 10.396607398986816
v -600.8870849609375 421.1863098144531 8.495545387268066
v -599.14794921875 441.0649108886719 8.495545387268066
v -600.8457641601562 437.82525634765625 10.3966064453125
v -597.3494873046875 433.65863037109375 10.396608352661133
v -593.8642578125 434.7680358886719 8.495546340942383
v -613.7428588867188 436.5072021484375 8.49554443359375
v -610.503173828125 434.8094177246094 10.3966064453125
v -606.3365478515625 438.3056335449219 10.3966064453125
v -607.4459838867188 441.7908935546875 8.49554443359375
v -607.2479248046875 396.267822265625 394.5038146972656
v -568.9457397460938 428.4072265625 394.5038146972656
v -601.0850830078125 466.70941162109375 394.5038146972656
v -639.3873291015625 434.570068359375 394.5038146972656
v -607.2479248046875 396.267822265625 394.5038146972656
v -639.3873291015625 434.570068359375 394.5038146972656
v -639.3873291015625 434.570068359375 389.5038146972656
v -607.2479248046875 396.267822265625 389.5038146972656
v -639.3873291015625 434.570068359375 394.5038146972656
v -601.0850830078125 466.70941162109375 394.5038146972656
v -601.0850830078125 466.70941162109375 389.5038146972656
v -639.3873291015625 434.570068359375 389.5038146972656
v -601.0850830078125 466.70941162109375 394.5038146972656
v -568.9457397460938 428.4072265625 394.5038146972656
v -568.9457397460938 428.4072265625 389.5038146972656
v -601.0850830078125 466.70941162109375 389.5038146972656
v -568.9457397460938 428.4072265625 394.5038146972656
v -607.2479248046875 396.267822265625 394.5038146972656
v -607.2479248046875 396.267822265625 389.5038146972656
v -568.9457397460938 428.4072265625 389.5038146972656
v -607.2479248046875 396.267822265625 389.5038146972656
v -639.3873291015625 434.570068359375 389.5038146972656
v -614.4689331054688 428.20928955078125 389.5038146972656
v -609.18505859375 421.9122314453125 389.5038146972656
v -601.0850830078125 466.70941162109375 389.5038146972656
v -607.4459838867188 441.7909240722656 389.5038146972656
v -613.7428588867188 436.5072326660156 389.5038146972656
v -568.9457397460938 428.4072265625 389.5038146972656
v -593.8641357421875 434.76800537109375 389.5038146972656
v -599.1480712890625 441.0650329589844 389.5038146972656
v -600.8870849609375 421.18634033203125 389.5038146972656
v -594.5902099609375 426.47003173828125 389.5038146972656
v -616.49072265625 427.5716552734375 1.951538324356079
v -615.623291015625 437.486083984375 1.9515374898910522
v -615.623291015625 437.486083984375 -17.03179931640625
v -616.49072265625 427.5716552734375 -17.03179931640625
v -600.2496337890625 419.1644287109375 1.9515405893325806
v -610.1640625 420.0318603515625 1.9515396356582642
v -610.1640625 420.0318603515625 -17.031797409057617
v -600.2496337890625 419.1644287109375 -17.031797409057617
v -591.8424072265625 435.4055480957031 1.9515398740768433
v -592.7097778320312 425.4911193847656 1.9515407085418701
v -592.7097778320312 425.4911193847656 -17.03179931640625
v -591.8424072265625 435.4055480957031 -17.03179931640625
v -608.08349609375 443.8127746582031 1.9515377283096313
v -598.1690673828125 442.9453430175781 1.9515385627746582
v -598.1690673828125 442.9453430175781 -17.03179931640625
v -608.08349609375 443.8127746582031 -17.03179931640625
v -614.4688720703125 428.20916748046875 8.49554443359375
v -610.9835815429688 429.3186340332031 10.396607398986816
v -610.503173828125 434.8094177246094 10.3966064453125
v -613.7428588867188 436.5072021484375 8.49554443359375
v -600.8870849609375 421.1863098144531 8.495545387268066
v -601.99658203125 424.6715393066406 10.396607398986816
v -607.4873046875 425.1519470214844 10.396607398986816
v -609.1851806640625 421.91229248046875 8.495545387268066
v -593.8642578125 434.7680358886719 8.495546340942383
v -597.3494873046875 433.65863037109375 10.396608352661133
v -597.8298950195312 428.1678466796875 10.39660930633545
v -594.5902099609375 426.4700012207031 8.4955472946167
v -607.4459838867188 441.7908935546875 8.49554443359375
v -606.3365478515625 438.3056335449219 10.3966064453125
v -600.8457641601562 437.82525634765625 10.3966064453125
v -599.14794921875 441.0649108886719 8.495545387268066
v -607.4874267578125 425.1520690917969 387.6590881347656
v -610.9835205078125 429.3185119628906 387.6590881347656
v -610.9835815429688 429.3186340332031 10.396607398986816
v -607.4873046875 425.1519470214844 10.396607398986816
v -597.8299560546875 428.16790771484375 387.6590881347656
v -601.99658203125 424.6716613769531 387.6590881347656
v -601.99658203125 424.6715393066406 10.396607398986816
v -597.8298950195312 428.1678466796875 10.39660930633545
v -600.845703125 437.8251953125 387.6590881347656
v -597.3496704101562 433.65869140625 387.6590881347656
v -597.3494873046875 433.65863037109375 10.396608352661133
v -600.8457641601562 437.82525634765625 10.3966064453125
v -610.503173828125 434.80938720703125 387.6590881347656
v -606.3364868164062 438.30560302734375 387.6590881347656
v -606.3365478515625 438.3056335449219 10.3966064453125
v -610.503173828125 434.8094177246094 10.3966064453125
v -610.9835205078125 429.3185119628906 387.6590881347656
v -610.503173828125 434.80938720703125 387.6590881347656
v -610.503173828125 434.8094177246094 10.3966064453125
v -610.9835815429688 429.3186340332031 10.396607398986816
v -601.99658203125 424.6716613769531 387.6590881347656
v -607.4874267578125 425.1520690917969 387.6590881347656
v -607.4873046875 425.1519470214844 10.396607398986816
v -601.99658203125 424.6715393066406 10.396607398986816
v -597.3496704101562 433.65869140625 387.6590881347656
v -597.8299560546875 428.16790771484375 387.6590881347656
v -597.8298950195312 428.1678466796875 10.39660930633545
v -597.3494873046875 433.65863037109375 10.396608352661133
v -606.3364868164062 438.30560302734375 387.6590881347656
v -600.845703125 437.8251953125 387.6590881347656
v -600.8457641601562 437.82525634765625 10.3966064453125
v -606.3365478515625 438.3056335449219 10.3966064453125
v -609.18505859375 421.9122314453125 389.5038146972656
v -614.4689331054688 428.20928955078125 389.5038146972656
v -610.9835205078125 429.3185119628906 387.6590881347656
v -607.4874267578125 425.1520690917969 387.6590881347656
v -594.5902099609375 426.47003173828125 389.5038146972656
v -600.8870849609375 421.18634033203125 389.5038146972656
v -601.99658203125 424.6716613769531 387.6590881347656
v -597.8299560546875 428.16790771484375 387.6590881347656
v -599.1480712890625 441.0650329589844 389.5038146972656
v -593.8641357421875 434.76800537109375 389.5038146972656
v -597.3496704101562 433.65869140625 387.6590881347656
v -600.845703125 437.8251953125 387.6590881347656
v -613.7428588867188 436.5072326660156 389.5038146972656
v -607.4459838867188 441.7909240722656 389.5038146972656
v -606.3364868164062 438.30560302734375 387.6590881347656
v -610.503173828125 434.80938720703125 387.6590881347656
v -614.4689331054688 428.20928955078125 389.5038146972656
v -613.7428588867188 436.5072326660156 389.5038146972656
v -610.503173828125 434.80938720703125 387.6590881347656
v -610.9835205078125 429.3185119628906 387.6590881347656
v -600.8870849609375 421.18634033203125 389.5038146972656
v -609.18505859375 421.9122314453125 389.5038146972656
v -607.4874267578125 425.1520690917969 387.6590881347656
v -601.99658203125 424.6716613769531 387.6590881347656
v -593.8641357421875 434.76800537109375 389.5038146972656
v -594.5902099609375 426.47003173828125 389.5038146972656
v -597.8299560546875 428.16790771484375 387.6590881347656
v -597.3496704101562 433.65869140625 387.6590881347656
v -607.4459838867188 441.7909240722656 389.5038146972656
v -599.1480712890625 441.0650329589844 389.5038146972656
v -600.845703125 437.8251953125 387.6590881347656
v -606.3364868164062 438.30560302734375 387.6590881347656
v -609.1851806640625 421.91229248046875 8.495545387268066
v -614.4688720703125 428.20916748046875 8.49554443359375
v -614.4688720703125 428.20916748046875 1.9515385627746582
v -609.1851806640625 421.91229248046875 1.9515396356582642
v -614.4688720703125 428.2091369628906 -389.5039978027344
v -609.1851806640625 421.9122619628906 -389.5039978027344
v -609.1851806640625 421.91229248046875 -17.031797409057617
v -614.4688720703125 428.20916748046875 -17.03179931640625
v -594.5902099609375 426.4700012207031 8.4955472946167
v -600.8870849609375 421.1863098144531 8.495545387268066
v -600.8870849609375 421.1863098144531 1.9515403509140015
v -594.5902099609375 426.4700012207031 1.9515403509140015
v -600.8870849609375 421.186279296875 -389.5039978027344
v -594.5902099609375 426.469970703125 -389.5039978027344
v -594.5902099609375 426.4700012207031 -17.03179931640625
v -600.8870849609375 421.1863098144531 -17.031797409057617
v -599.14794921875 441.0649108886719 8.495545387268066
v -593.8642578125 434.7680358886719 8.495546340942383
v -593.8642578125 434.7680358886719 1.9515396356582642
v -599.14794921875 441.0649108886719 1.9515386819839478
v -593.8642578125 434.76800537109375 -389.5039978027344
v -599.14794921875 441.06488037109375 -389.5039978027344
v -599.14794921875 441.0649108886719 -17.03179931640625
v -593.8642578125 434.7680358886719 -17.03179931640625
v -613.7428588867188 436.5072021484375 8.49554443359375
v -607.4459838867188 441.7908935546875 8.49554443359375
v -607.4459838867188 441.7908935546875 1.951537847518921
v -613.7428588867188 436.5072021484375 1.951537847518921
v -607.4459838867188 441.7908630371094 -389.5039978027344
v -613.7427978515625 436.5071716308594 -389.5039978027344
v -613.7428588867188 436.5072021484375 -17.03179931640625
v -607.4459838867188 441.7908935546875 -17.03179931640625
v -614.4688720703125 428.20916748046875 8.49554443359375
v -613.7428588867188 436.5072021484375 8.49554443359375
v -613.7428588867188 436.5072021484375 1.951537847518921
v -614.4688720703125 428.20916748046875 1.9515385627746582
v -613.7427978515625 436.5071716308594 -389.5039978027344
v -614.4688720703125 428.2091369628906 -389.5039978027344
v -614.4688720703125 428.20916748046875 -17.03179931640625
v -613.7428588867188 436.5072021484375 -17.03179931640625
v -600.8870849609375 421.1863098144531 8.495545387268066
v -609.1851806640625 421.91229248046875 8.495545387268066
v -609.1851806640625 421.91229248046875 1.9515396356582642
v -600.8870849609375 421.1863098144531 1.9515403509140015
v -609.1851806640625 421.9122619628906 -389.5039978027344
v -600.8870849609375 421.186279296875 -389.5039978027344
v -600.8870849609375 421.1863098144531 -17.031797409057617
v -609.1851806640625 421.91229248046875 -17.031797409057617
v -593.8642578125 434.7680358886719 8.495546340942383
v -594.5902099609375 426.4700012207031 8.4955472946167
v -594.5902099609375 426.4700012207031 1.9515403509140015
v -593.8642578125 434.7680358886719 1.9515396356582642
v -594.5902099609375 426.469970703125 -389.5039978027344
v -593.8642578125 434.76800537109375 -389.5039978027344
v -593.8642578125 434.7680358886719 -17.03179931640625
v -594.5902099609375 426.4700012207031 -17.03179931640625
v -607.4459838867188 441.7908935546875 8.49554443359375
v -599.14794921875 441.0649108886719 8.495545387268066
v -599.14794921875 441.0649108886719 1.9515386819839478
v -607.4459838867188 441.7908935546875 1.951537847518921
v -599.14794921875 441.06488037109375 -389.5039978027344
v -607.4459838867188 441.7908630371094 -389.5039978027344
v -607.4459838867188 441.7908935546875 -17.03179931640625
v -599.14794921875 441.0649108886719 -17.03179931640625
v -609.1851806640625 421.91229248046875 1.9515396356582642
v -614.4688720703125 428.20916748046875 1.9515385627746582
v -616.49072265625 427.5716552734375 1.951538324356079
v -610.1640625 420.0318603515625 1.9515396356582642
v -613.7428588867188 436.5072021484375 1.951537847518921
v -615.623291015625 437.486083984375 1.9515374898910522
v -607.4459838867188 441.7908935546875 1.951537847518921
v -608.08349609375 443.8127746582031 1.9515377283096313
v -599.14794921875 441.0649108886719 1.9515386819839478
v -598.1690673828125 442.9453430175781 1.9515385627746582
v -593.8642578125 434.7680358886719 1.9515396356582642
v -591.8424072265625 435.4055480957031 1.9515398740768433
v -594.5902099609375 426.4700012207031 1.9515403509140015
v -592.7097778320312 425.4911193847656 1.9515407085418701
v -600.8870849609375 421.1863098144531 1.9515403509140015
v -600.2496337890625 419.1644287109375 1.9515405893325806
v -614.4688720703125 428.20916748046875 -17.03179931640625
v -609.1851806640625 421.91229248046875 -17.031797409057617
v -610.1640625 420.0318603515625 -17.031797409057617
v -616.49072265625 427.5716552734375 -17.03179931640625
v -600.8870849609375 421.1863098144531 -17.031797409057617
v -600.2496337890625 419.1644287109375 -17.031797409057617
v -594.5902099609375 426.4700012207031 -17.03179931640625
v -592.7097778320312 425.4911193847656 -17.03179931640625
v -593.8642578125 434.7680358886719 -17.03179931640625
v -591.8424072265625 435.4055480957031 -17.03179931640625
v -599.14794921875 441.0649108886719 -17.03179931640625
v -598.1690673828125 442.9453430175781 -17.03179931640625
v -607.4459838867188 441.7908935546875 -17.03179931640625
v -608.08349609375 443.8127746582031 -17.03179931640625
v -613.7428588867188 436.5072021484375 -17.03179931640625
v -615.623291015625 437.486083984375 -17.03179931640625
v -592.7097778320312 425.4911193847656 -17.03179931640625
v -592.7097778320312 425.4911193847656 1.9515407085418701
v -595.2377319335938 423.3699035644531 -1.3484470844268799
v -595.2377319335938 423.3699035644531 -13.731778144836426
v -600.2496337890625 419.1644287109375 1.9515405893325806
v -597.7216796875 421.2856140136719 -1.3484472036361694
v -600.2496337890625 419.1644287109375 -17.031797409057617
v -597.7216796875 421.2856140136719 -13.731778144836426
v -615.623291015625 437.486083984375 -17.03179931640625
v -615.623291015625 437.486083984375 1.9515374898910522
v -613.0953369140625 439.6072998046875 -1.3484501838684082
v -613.0953369140625 439.6072998046875 -13.731781005859375
v -608.08349609375 443.8127746582031 1.9515377283096313
v -610.6114501953125 441.6915588378906 -1.3484501838684082
v -608.08349609375 443.8127746582031 -17.03179931640625
v -610.6114501953125 441.6915588378906 -13.731781005859375
v -595.2377319335938 423.3699035644531 -13.731778144836426
v -595.2377319335938 423.3699035644531 -1.3484470844268799
v -589.6778564453125 416.7438659667969 -3.6025962829589844
v -589.6778564453125 416.7438659667969 -11.477596282958984
v -595.2377319335938 423.3699035644531 -1.3484470844268799
v -597.7216796875 421.2856140136719 -1.3484472036361694
v -592.1617431640625 414.65960693359375 -3.6025967597961426
v -589.6778564453125 416.7438659667969 -3.6025962829589844
v -597.7216796875 421.2856140136719 -1.3484472036361694
v -597.7216796875 421.2856140136719 -13.731778144836426
v -592.1617431640625 414.65960693359375 -11.477596282958984
v -592.1617431640625 414.65960693359375 -3.6025967597961426
v -597.7216796875 421.2856140136719 -13.731778144836426
v -595.2377319335938 423.3699035644531 -13.731778144836426
v -589.6778564453125 416.7438659667969 -11.477596282958984
v -592.1617431640625 414.65960693359375 -11.477596282958984
v -613.0953369140625 439.6072998046875 -13.731781005859375
v -613.0953369140625 439.6072998046875 -1.3484501838684082
v -618.6552734375 446.2332763671875 -3.6026017665863037
v -618.6552734375 446.2332763671875 -11.477601051330566
v -613.0953369140625 439.6072998046875 -1.3484501838684082
v -610.6114501953125 441.6915588378906 -1.3484501838684082
v -616.1713256835938 448.3175964355469 -3.6026012897491455
v -618.6552734375 446.2332763671875 -3.6026017665863037
v -610.6114501953125 441.6915588378906 -1.3484501838684082
v -610.6114501953125 441.6915588378906 -13.731781005859375
v -616.1713256835938 448.3175964355469 -11.477601051330566
v -616.1713256835938 448.3175964355469 -3.6026012897491455
v -610.6114501953125 441.6915588378906 -13.731781005859375
v -613.0953369140625 439.6072998046875 -13.731781005859375
v -618.6552734375 446.2332763671875 -11.477601051330566
v -616.1713256835938 448.3175964355469 -11.477601051330566
v 752.2747192382812 741.5865478515625 -394.50390625
v 799.25927734375 758.6876220703125 -394.50390625
v 816.3604125976562 711.7030639648438 -394.50390625
v 769.3758544921875 694.60205078125 -394.50390625
v 752.2747192382812 741.5865478515625 -394.50390625
v 769.3758544921875 694.60205078125 -394.50390625
v 769.3758544921875 694.60205078125 -389.5038757324219
v 752.2747192382812 741.5865478515625 -389.5038757324219
v 769.3758544921875 694.60205078125 -394.50390625
v 816.3604125976562 711.7030639648438 -394.50390625
v 816.3604125976562 711.7030639648438 -389.5038757324219
v 769.3758544921875 694.60205078125 -389.5038757324219
v 816.3604125976562 711.7030639648438 -394.50390625
v 799.25927734375 758.6876220703125 -394.50390625
v 799.25927734375 758.6876220703125 -389.5038757324219
v 816.3604125976562 711.7030639648438 -389.5038757324219
v 799.25927734375 758.6876220703125 -394.50390625
v 752.2747192382812 741.5865478515625 -394.50390625
v 752.2747192382812 741.5865478515625 -389.5038757324219
v 799.25927734375 758.6876220703125 -389.5038757324219
v 752.2747192382812 741.5865478515625 -389.5038757324219
v 769.3758544921875 694.60205078125 -389.5038757324219
v 776.3262329101562 719.3624267578125 -389.5038757324219
v 773.5149536132812 727.0867919921875 -389.5038757324219
v 816.3604125976562 711.7030639648438 -389.5038757324219
v 791.599853515625 718.653564453125 -389.5038757324219
v 783.8756713867188 715.84228515625 -389.5038757324219
v 799.25927734375 758.6876220703125 -389.5038757324219
v 792.308837890625 733.92724609375 -389.5038757324219
v 795.1201782226562 726.202880859375 -389.5038757324219
v 777.0352172851562 734.6361083984375 -389.5038757324219
v 784.7593994140625 737.4473876953125 -389.5038757324219
v 774.7632446289062 717.9302368164062 1.9516347646713257
v 771.39697265625 727.1793212890625 1.9516335725784302
v 771.39697265625 727.1793212890625 -17.031702041625977
v 774.7632446289062 717.9302368164062 -17.031702041625977
v 792.8895263671875 707.833984375 -3.602501153945923
v 789.8424072265625 706.7249145507812 -3.6025009155273438
v 789.8424072265625 706.7249145507812 -11.47750186920166
v 792.8895263671875 707.833984375 -11.47750186920166
v 793.871826171875 735.3594970703125 1.9516347646713257
v 797.2380981445312 726.1104125976562 1.9516358375549316
v 797.2380981445312 726.1104125976562 -17.031702041625977
v 793.871826171875 735.3594970703125 -17.03170394897461
v 775.7455444335938 745.4557495117188 -3.602505683898926
v 778.7926635742188 746.5648803710938 -3.602505683898926
v 778.7926635742188 746.5648803710938 -11.47750473022461
v 775.7455444335938 745.4557495117188 -11.477505683898926
v 776.3262329101562 719.3624877929688 8.495640754699707
v 779.0296630859375 721.8261108398438 10.396702766418457
v 777.1693725585938 726.9373168945312 10.39670181274414
v 773.514892578125 727.0868530273438 8.495638847351074
v 791.599853515625 718.6536254882812 8.495641708374023
v 789.1363525390625 721.3571166992188 10.396703720092773
v 784.0250244140625 719.4966430664062 10.396703720092773
v 783.8756713867188 715.8423461914062 8.495641708374023
v 792.308837890625 733.9273071289062 8.495640754699707
v 789.6054077148438 731.4636840820312 10.396702766418457
v 791.4656982421875 726.3524780273438 10.396702766418457
v 795.1201782226562 726.2029418945312 8.495640754699707
v 777.0352172851562 734.6361694335938 8.49563980102539
v 779.4987182617188 731.9326782226562 10.39670181274414
v 784.6100463867188 733.7930908203125 10.396702766418457
v 784.7593994140625 737.4474487304688 8.49563980102539
v 769.3758544921875 694.6021118164062 305.64312744140625
v 816.3604125976562 711.703125 305.64312744140625
v 799.25927734375 758.6876831054688 305.64312744140625
v 752.274658203125 741.5866088867188 305.64312744140625
v 769.3758544921875 694.6021118164062 305.64312744140625
v 752.274658203125 741.5866088867188 305.64312744140625
v 752.274658203125 741.5866088867188 300.64312744140625
v 769.3758544921875 694.6021118164062 300.64312744140625
v 752.274658203125 741.5866088867188 305.64312744140625
v 799.25927734375 758.6876831054688 305.64312744140625
v 799.25927734375 758.6876831054688 300.64312744140625
v 752.274658203125 741.5866088867188 300.64312744140625
v 799.25927734375 758.6876831054688 305.64312744140625
v 816.3604125976562 711.703125 305.64312744140625
v 816.3604125976562 711.703125 300.64312744140625
v 799.25927734375 758.6876831054688 300.64312744140625
v 816.3604125976562 711.703125 305.64312744140625
v 769.3758544921875 694.6021118164062 305.64312744140625
v 769.3758544921875 694.6021118164062 300.64312744140625
v 816.3604125976562 711.703125 300.64312744140625
v 769.3758544921875 694.6021118164062 300.64312744140625
v 752.274658203125 741.5866088867188 300.64312744140625
v 773.5148315429688 727.0869140625 300.64312744140625
v 776.3262329101562 719.3623657226562 300.64312744140625
v 799.25927734375 758.6876831054688 300.64312744140625
v 784.7593383789062 737.4474487304688 300.64312744140625
v 777.03515625 734.6361694335938 300.64312744140625
v 816.3604125976562 711.703125 300.64312744140625
v 795.1202392578125 726.2028198242188 300.64312744140625
v 792.3087768554688 733.9273681640625 300.64312744140625
v 783.8756713867188 715.8423461914062 300.64312744140625
v 791.599853515625 718.6536254882812 300.64312744140625
v 771.39697265625 727.1793212890625 1.9516335725784302
v 775.6029052734375 736.1991577148438 1.951633095741272
v 775.6029052734375 736.1991577148438 -17.03170394897461
v 771.39697265625 727.1793212890625 -17.031702041625977
v 783.7831420898438 713.7243041992188 1.9516358375549316
v 774.7632446289062 717.9302368164062 1.9516347646713257
v 774.7632446289062 717.9302368164062 -17.031702041625977
v 783.7831420898438 713.7243041992188 -17.031702041625977
v 797.2380981445312 726.1104125976562 1.9516358375549316
v 793.0321655273438 717.0906372070312 1.9516363143920898
v 793.0321655273438 717.0906372070312 -17.031702041625977
v 797.2380981445312 726.1104125976562 -17.031702041625977
v 784.8519287109375 739.5654907226562 1.9516336917877197
v 793.871826171875 735.3594970703125 1.9516347646713257
v 793.871826171875 735.3594970703125 -17.03170394897461
v 784.8519287109375 739.5654907226562 -17.03170394897461
v 773.514892578125 727.0868530273438 8.495638847351074
v 777.1693725585938 726.9373168945312 10.39670181274414
v 779.4987182617188 731.9326782226562 10.39670181274414
v 777.0352172851562 734.6361694335938 8.49563980102539
v 783.8756713867188 715.8423461914062 8.495641708374023
v 784.0250244140625 719.4966430664062 10.396703720092773
v 779.0296630859375 721.8261108398438 10.396702766418457
v 776.3262329101562 719.3624877929688 8.495640754699707
v 795.1201782226562 726.2029418945312 8.495640754699707
v 791.4656982421875 726.3524780273438 10.396702766418457
v 789.1363525390625 721.3571166992188 10.396703720092773
v 791.599853515625 718.6536254882812 8.495641708374023
v 784.7593994140625 737.4474487304688 8.49563980102539
v 784.6100463867188 733.7930908203125 10.396702766418457
v 789.6054077148438 731.4636840820312 10.396702766418457
v 792.308837890625 733.9273071289062 8.495640754699707
v 779.02978515625 721.8263549804688 298.79840087890625
v 777.16943359375 726.9371948242188 298.79840087890625
v 777.1693725585938 726.9373168945312 10.39670181274414
v 779.0296630859375 721.8261108398438 10.396702766418457
v 789.13623046875 721.357177734375 298.79840087890625
v 784.025146484375 719.4968872070312 298.79840087890625
v 784.0250244140625 719.4966430664062 10.396703720092773
v 789.1363525390625 721.3571166992188 10.396703720092773
v 789.6052856445312 731.4634399414062 298.79840087890625
v 791.465576171875 726.3526000976562 298.79840087890625
v 791.4656982421875 726.3524780273438 10.396702766418457
v 789.6054077148438 731.4636840820312 10.396702766418457
v 779.498779296875 731.9326171875 298.79840087890625
v 784.6099243164062 733.7929077148438 298.79840087890625
v 784.6100463867188 733.7930908203125 10.396702766418457
v 779.4987182617188 731.9326782226562 10.39670181274414
v 777.16943359375 726.9371948242188 298.79840087890625
v 779.498779296875 731.9326171875 298.79840087890625
v 779.4987182617188 731.9326782226562 10.39670181274414
v 777.1693725585938 726.9373168945312 10.39670181274414
v 784.025146484375 719.4968872070312 298.79840087890625
v 779.02978515625 721.8263549804688 298.79840087890625
v 779.0296630859375 721.8261108398438 10.396702766418457
v 784.0250244140625 719.4966430664062 10.396703720092773
v 791.465576171875 726.3526000976562 298.79840087890625
v 789.13623046875 721.357177734375 298.79840087890625
v 789.1363525390625 721.3571166992188 10.396703720092773
v 791.4656982421875 726.3524780273438 10.396702766418457
v 784.6099243164062 733.7929077148438 298.79840087890625
v 789.6052856445312 731.4634399414062 298.79840087890625
v 789.6054077148438 731.4636840820312 10.396702766418457
v 784.6100463867188 733.7930908203125 10.396702766418457
v 776.3262329101562 719.3623657226562 300.64312744140625
v 773.5148315429688 727.0869140625 300.64312744140625
v 777.16943359375 726.9371948242188 298.79840087890625
v 779.02978515625 721.8263549804688 298.79840087890625
v 791.599853515625 718.6536254882812 300.64312744140625
v 783.8756713867188 715.8423461914062 300.64312744140625
v 784.025146484375 719.4968872070312 298.79840087890625
v 789.13623046875 721.357177734375 298.79840087890625
v 792.3087768554688 733.9273681640625 300.64312744140625
v 795.1202392578125 726.2028198242188 300.64312744140625
v 791.465576171875 726.3526000976562 298.79840087890625
v 789.6052856445312 731.4634399414062 298.79840087890625
v 777.03515625 734.6361694335938 300.64312744140625
v 784.7593383789062 737.4474487304688 300.64312744140625
v 784.6099243164062 733.7929077148438 298.79840087890625
v 779.498779296875 731.9326171875 298.79840087890625
v 773.5148315429688 727.0869140625 300.64312744140625
v 777.03515625 734.6361694335938 300.64312744140625
v 779.498779296875 731.9326171875 298.79840087890625
v 777.16943359375 726.9371948242188 298.79840087890625
v 783.8756713867188 715.8423461914062 300.64312744140625
v 776.3262329101562 719.3623657226562 300.64312744140625
v 779.02978515625 721.8263549804688 298.79840087890625
v 784.025146484375 719.4968872070312 298.79840087890625
v 795.1202392578125 726.2028198242188 300.64312744140625
v 791.599853515625 718.6536254882812 300.64312744140625
v 789.13623046875 721.357177734375 298.79840087890625
v 791.465576171875 726.3526000976562 298.79840087890625
v 784.7593383789062 737.4474487304688 300.64312744140625
v 792.3087768554688 733.9273681640625 300.64312744140625
v 789.6052856445312 731.4634399414062 298.79840087890625
v 784.6099243164062 733.7929077148438 298.79840087890625
v 776.3262329101562 719.3624877929688 8.495640754699707
v 773.514892578125 727.0868530273438 8.495638847351074
v 773.514892578125 727.0868530273438 1.9516336917877197
v 776.3262329101562 719.3624877929688 1.9516346454620361
v 773.5149536132812 727.0867919921875 -389.5038757324219
v 776.3262329101562 719.3624267578125 -389.5038757324219
v 776.3262329101562 719.3624877929688 -17.031702041625977
v 773.514892578125 727.0868530273438 -17.031702041625977
v 791.599853515625 718.6536254882812 8.495641708374023
v 783.8756713867188 715.8423461914062 8.495641708374023
v 783.8756713867188 715.8423461914062 1.9516355991363525
v 791.599853515625 718.6536254882812 1.9516360759735107
v 783.8756713867188 715.84228515625 -389.5038757324219
v 791.599853515625 718.653564453125 -389.5038757324219
v 791.599853515625 718.6536254882812 -17.031702041625977
v 783.8756713867188 715.8423461914062 -17.031702041625977
v 792.308837890625 733.9273071289062 8.495640754699707
v 795.1201782226562 726.2029418945312 8.495640754699707
v 795.1201782226562 726.2029418945312 1.9516355991363525
v 792.308837890625 733.9273071289062 1.9516348838806152
v 795.1201782226562 726.202880859375 -389.5038757324219
v 792.308837890625 733.92724609375 -389.5038757324219
v 792.308837890625 733.9273071289062 -17.03170394897461
v 795.1201782226562 726.2029418945312 -17.031702041625977
v 777.0352172851562 734.6361694335938 8.49563980102539
v 784.7593994140625 737.4474487304688 8.49563980102539
v 784.7593994140625 737.4474487304688 1.9516338109970093
v 777.0352172851562 734.6361694335938 1.951633334159851
v 784.7593994140625 737.4473876953125 -389.5038757324219
v 777.0352172851562 734.6361083984375 -389.5038757324219
v 777.0352172851562 734.6361694335938 -17.03170394897461
v 784.7593994140625 737.4474487304688 -17.03170394897461
v 773.514892578125 727.0868530273438 8.495638847351074
v 777.0352172851562 734.6361694335938 8.49563980102539
v 777.0352172851562 734.6361694335938 1.951633334159851
v 773.514892578125 727.0868530273438 1.9516336917877197
v 777.0352172851562 734.6361083984375 -389.5038757324219
v 773.5149536132812 727.0867919921875 -389.5038757324219
v 773.514892578125 727.0868530273438 -17.031702041625977
v 777.0352172851562 734.6361694335938 -17.03170394897461
v 783.8756713867188 715.8423461914062 8.495641708374023
v 776.3262329101562 719.3624877929688 8.495640754699707
v 776.3262329101562 719.3624877929688 1.9516346454620361
v 783.8756713867188 715.8423461914062 1.9516355991363525
v 776.3262329101562 719.3624267578125 -389.5038757324219
v 783.8756713867188 715.84228515625 -389.5038757324219
v 783.8756713867188 715.8423461914062 -17.031702041625977
v 776.3262329101562 719.3624877929688 -17.031702041625977
v 795.1201782226562 726.2029418945312 8.495640754699707
v 791.599853515625 718.6536254882812 8.495641708374023
v 791.599853515625 718.6536254882812 1.9516360759735107
v 795.1201782226562 726.2029418945312 1.9516355991363525
v 791.599853515625 718.653564453125 -389.5038757324219
v 795.1201782226562 726.202880859375 -389.5038757324219
v 795.1201782226562 726.2029418945312 -17.031702041625977
v 791.599853515625 718.6536254882812 -17.031702041625977
v 784.7593994140625 737.4474487304688 8.49563980102539
v 792.308837890625 733.9273071289062 8.495640754699707
v 792.308837890625 733.9273071289062 1.9516348838806152
v 784.7593994140625 737.4474487304688 1.9516338109970093
v 792.308837890625 733.92724609375 -389.5038757324219
v 784.7593994140625 737.4473876953125 -389.5038757324219
v 784.7593994140625 737.4474487304688 -17.03170394897461
v 792.308837890625 733.9273071289062 -17.03170394897461
v 776.3262329101562 719.3624877929688 1.9516346454620361
v 773.514892578125 727.0868530273438 1.9516336917877197
v 771.39697265625 727.1793212890625 1.9516335725784302
v 774.7632446289062 717.9302368164062 1.9516347646713257
v 777.0352172851562 734.6361694335938 1.951633334159851
v 775.6029052734375 736.1991577148438 1.951633095741272
v 784.7593994140625 737.4474487304688 1.9516338109970093
v 784.8519287109375 739.5654907226562 1.9516336917877197
v 792.308837890625 733.9273071289062 1.9516348838806152
v 793.871826171875 735.3594970703125 1.9516347646713257
v 795.1201782226562 726.2029418945312 1.9516355991363525
v 797.2380981445312 726.1104125976562 1.9516358375549316
v 791.599853515625 718.6536254882812 1.9516360759735107
v 793.0321655273438 717.0906372070312 1.9516363143920898
v 783.8756713867188 715.8423461914062 1.9516355991363525
v 783.7831420898438 713.7243041992188 1.9516358375549316
v 773.514892578125 727.0868530273438 -17.031702041625977
v 776.3262329101562 719.3624877929688 -17.031702041625977
v 774.7632446289062 717.9302368164062 -17.031702041625977
v 771.39697265625 727.1793212890625 -17.031702041625977
v 783.8756713867188 715.8423461914062 -17.031702041625977
v 783.7831420898438 713.7243041992188 -17.031702041625977
v 791.599853515625 718.6536254882812 -17.031702041625977
v 793.0321655273438 717.0906372070312 -17.031702041625977
v 795.1201782226562 726.2029418945312 -17.031702041625977
v 797.2380981445312 726.1104125976562 -17.031702041625977
v 792.308837890625 733.9273071289062 -17.03170394897461
v 793.871826171875 735.3594970703125 -17.03170394897461
v 784.7593994140625 737.4474487304688 -17.03170394897461
v 784.8519287109375 739.5654907226562 -17.03170394897461
v 777.0352172851562 734.6361694335938 -17.03170394897461
v 775.6029052734375 736.1991577148438 -17.03170394897461
v 793.0321655273438 717.0906372070312 -17.031702041625977
v 793.0321655273438 717.0906372070312 1.9516363143920898
v 789.9310913085938 715.9619140625 -1.3483517169952393
v 789.9310913085938 715.9619140625 -13.731683731079102
v 783.7831420898438 713.7243041992188 1.9516358375549316
v 786.8841552734375 714.8529663085938 -1.3483517169952393
v 783.7831420898438 713.7243041992188 -17.031702041625977
v 786.8841552734375 714.8529663085938 -13.731683731079102
v 775.6029052734375 736.1991577148438 -17.03170394897461
v 775.6029052734375 736.1991577148438 1.951633095741272
v 778.7039794921875 737.3278198242188 -1.348354458808899
v 778.7039794921875 737.3278198242188 -13.731685638427734
v 784.8519287109375 739.5654907226562 1.9516336917877197
v 781.7509155273438 738.4368286132812 -1.3483543395996094
v 784.8519287109375 739.5654907226562 -17.03170394897461
v 781.7509155273438 738.4368286132812 -13.731685638427734
v 789.9310913085938 715.9619140625 -13.731683731079102
v 789.9310913085938 715.9619140625 -1.3483517169952393
v 792.8895263671875 707.833984375 -3.602501153945923
v 792.8895263671875 707.833984375 -11.47750186920166
v 789.9310913085938 715.9619140625 -1.3483517169952393
v 786.8841552734375 714.8529663085938 -1.3483517169952393
v 789.8424072265625 706.7249145507812 -3.6025009155273438
v 792.8895263671875 707.833984375 -3.602501153945923
v 786.8841552734375 714.8529663085938 -1.3483517169952393
v 786.8841552734375 714.8529663085938 -13.731683731079102
v 789.8424072265625 706.7249145507812 -11.47750186920166
v 789.8424072265625 706.7249145507812 -3.6025009155273438
v 786.8841552734375 714.8529663085938 -13.731683731079102
v 789.9310913085938 715.9619140625 -13.731683731079102
v 792.8895263671875 707.833984375 -11.47750186920166
v 789.8424072265625 706.7249145507812 -11.47750186920166
v 778.7039794921875 737.3278198242188 -13.731685638427734
v 778.7039794921875 737.3278198242188 -1.348354458808899
v 775.7455444335938 745.4557495117188 -3.602505683898926
v 775.7455444335938 745.4557495117188 -11.477505683898926
v 778.7039794921875 737.3278198242188 -1.348354458808899
v 781.7509155273438 738.4368286132812 -1.3483543395996094
v 778.7926635742188 746.5648803710938 -3.602505683898926
v 775.7455444335938 745.4557495117188 -3.602505683898926
v 781.7509155273438 738.4368286132812 -1.3483543395996094
v 781.7509155273438 738.4368286132812 -13.731685638427734
v 778.7926635742188 746.5648803710938 -11.47750473022461
v 778.7926635742188 746.5648803710938 -3.602505683898926
v 781.7509155273438 738.4368286132812 -13.731685638427734
v 778.7039794921875 737.3278198242188 -13.731685638427734
v 775.7455444335938 745.4557495117188 -11.477505683898926
v 778.7926635742188 746.5648803710938 -11.47750473022461
f 78 77 79
f 80 79 77
f 1266 1265 1267
f 1267 1270 1266
f 1269 1266 1270
f 1270 1272 1269
f 1271 1269 1272
f 1272 1274 1271
f 1273 1271 1274
f 1274 1276 1273
f 1275 1273 1276
f 1276 1278 1275
f 1277 1275 1278
f 1278 1280 1277
f 1279 1277 1280
f 1280 1268 1279
f 1265 1279 1268
f 1268 1267 1265
f 74 73 75
f 76 75 73
f 70 69 71
f 72 71 69
f 66 65 67
f 68 67 65
f 62 61 63
f 64 63 61
f 58 57 59
f 60 59 57
f 54 53 55
f 56 55 53
f 50 49 51
f 52 51 49
f 46 45 47
f 48 47 45
f 42 41 43
f 44 43 41
f 38 37 39
f 40 39 37
f 34 33 35
f 36 35 33
f 18 17 19
f 20 19 17
f 14 13 15
f 16 15 13
f 10 9 11
f 12 11 9
f 6 5 7
f 8 7 5
f 2 1 3
f 4 3 1
f 1342 1341 1343
f 1344 1343 1341
f 1338 1337 1339
f 1340 1339 1337
f 1334 1333 1335
f 1336 1335 1333
f 1330 1329 1331
f 1332 1331 1329
f 1326 1325 1327
f 1328 1327 1325
f 1322 1321 1323
f 1324 1323 1321
f 1318 1317 1319
f 1320 1319 1317
f 1314 1313 1315
f 1316 1315 1313
f 1262 1261 1263
f 1264 1263 1261
f 1258 1257 1259
f 1260 1259 1257
f 1254 1253 1255
f 1256 1255 1253
f 1250 1249 1251
f 1252 1251 1249
f 1246 1245 1247
f 1248 1247 1245
f 1242 1241 1243
f 1244 1243 1241
f 1238 1237 1239
f 1240 1239 1237
f 1234 1233 1235
f 1236 1235 1233
f 1230 1229 1231
f 1232 1231 1229
f 1226 1225 1227
f 1228 1227 1225
f 1222 1221 1223
f 1224 1223 1221
f 1218 1217 1219
f 1220 1219 1217
f 1214 1213 1215
f 1216 1215 1213
f 1210 1209 1211
f 1212 1211 1209
f 1206 1205 1207
f 1208 1207 1205
f 1202 1201 1203
f 1204 1203 1201
f 1198 1197 1199
f 1200 1199 1197
f 1194 1193 1195
f 1196 1195 1193
f 1190 1189 1191
f 1192 1191 1189
f 1186 1185 1187
f 1188 1187 1185
f 1182 1181 1183
f 1184 1183 1181
f 1178 1177 1179
f 1180 1179 1177
f 1174 1173 1175
f 1176 1175 1173
f 1170 1169 1171
f 1172 1171 1169
f 1166 1165 1167
f 1168 1167 1165
f 1162 1161 1163
f 1164 1163 1161
f 1158 1157 1159
f 1160 1159 1157
f 1154 1153 1155
f 1156 1155 1153
f 1150 1149 1151
f 1152 1151 1149
f 1146 1145 1147
f 1148 1147 1145
f 1142 1141 1143
f 1144 1143 1141
f 1138 1137 1139
f 1140 1139 1137
f 1134 1133 1135
f 1136 1135 1133
f 1130 1129 1131
f 1132 1131 1129
f 1126 1125 1127
f 1128 1127 1125
f 1122 1121 1123
f 1124 1123 1121
f 1118 1117 1119
f 1120 1119 1117
f 1114 1113 1115
f 1116 1115 1113
f 1110 1109 1111
f 1112 1111 1109
f 1106 1105 1107
f 1108 1107 1105
f 1090 1089 1091
f 1092 1091 1089
f 1086 1085 1087
f 1088 1087 1085
f 1082 1081 1083
f 1084 1083 1081
f 1078 1077 1079
f 1080 1079 1077
f 1074 1073 1075
f 1076 1075 1073
f 1070 1069 1071
f 1072 1071 1069
f 1066 1065 1067
f 1068 1067 1065
f 1062 1061 1063
f 1064 1063 1061
f 1058 1057 1059
f 1060 1059 1057
f 1054 1053 1055
f 1056 1055 1053
f 1050 1049 1051
f 1052 1051 1049
f 1046 1045 1047
f 1048 1047 1045
f 1042 1041 1043
f 1044 1043 1041
f 1026 1025 1027
f 1028 1027 1025
f 1022 1021 1023
f 1024 1023 1021
f 1018 1017 1019
f 1020 1019 1017
f 1014 1013 1015
f 1016 1015 1013
f 1010 1009 1011
f 1012 1011 1009
f 1006 1005 1007
f 1008 1007 1005
f 1002 1001 1003
f 1004 1003 1001
f 998 997 999
f 1000 999 997
f 994 993 995
f 996 995 993
f 990 989 991
f 992 991 989
f 986 985 987
f 988 987 985
f 982 981 983
f 984 983 981
f 978 977 979
f 980 979 977
f 957 955 958
f 958 960 957
f 959 957 960
f 960 948 959
f 945 959 948
f 948 947 945
f 946 945 947
f 947 950 946
f 949 946 950
f 950 952 949
f 951 949 952
f 952 954 951
f 953 951 954
f 954 956 953
f 955 953 956
f 956 958 955
f 1094 1093 1095
f 1094 1095 1099
f 1099 1098 1094
f 1097 1094 1098
f 1097 1098 1102
f 1102 1101 1097
f 1100 1097 1101
f 1100 1101 1104
f 1104 1103 1100
f 1093 1100 1103
f 1093 1103 1096
f 1096 1095 1093
f 1030 1029 1031
f 1035 1030 1031
f 1035 1034 1030
f 1033 1030 1034
f 1038 1033 1034
f 1038 1037 1033
f 1036 1033 1037
f 1040 1036 1037
f 1040 1039 1036
f 1029 1036 1039
f 1032 1029 1039
f 1032 1031 1029
f 970 969 971
f 971 974 970
f 973 970 974
f 974 976 973
f 975 973 976
f 976 972 975
f 969 975 972
f 972 971 969
f 941 939 942
f 942 944 941
f 943 941 944
f 944 932 943
f 929 943 932
f 932 931 929
f 930 929 931
f 931 934 930
f 933 930 934
f 934 936 933
f 935 933 936
f 936 938 935
f 937 935 938
f 938 940 937
f 939 937 940
f 940 942 939
f 962 961 963
f 963 966 962
f 965 962 966
f 966 968 965
f 967 965 968
f 968 964 967
f 961 967 964
f 964 963 961
f 926 925 927
f 928 927 925
f 922 921 923
f 924 923 921
f 918 917 919
f 920 919 917
f 914 913 915
f 916 915 913
f 910 909 911
f 912 911 909
f 906 905 907
f 908 907 905
f 902 901 903
f 904 903 901
f 898 897 899
f 900 899 897
f 894 893 895
f 896 895 893
f 890 889 891
f 892 891 889
f 886 885 887
f 888 887 885
f 882 881 883
f 884 883 881
f 878 877 879
f 880 879 877
f 874 873 875
f 876 875 873
f 870 869 871
f 872 871 869
f 866 865 867
f 868 867 865
f 862 861 863
f 864 863 861
f 858 857 859
f 860 859 857
f 854 853 855
f 856 855 853
f 850 849 851
f 852 851 849
f 846 845 847
f 848 847 845
f 842 841 843
f 844 843 841
f 838 837 839
f 840 839 837
f 834 833 835
f 836 835 833
f 830 829 831
f 832 831 829
f 826 825 827
f 828 827 825
f 822 821 823
f 824 823 821
f 818 817 819
f 820 819 817
f 814 813 815
f 816 815 813
f 810 809 811
f 812 811 809
f 806 805 807
f 808 807 805
f 802 801 803
f 804 803 801
f 798 797 799
f 800 799 797
f 794 793 795
f 796 795 793
f 790 789 791
f 792 791 789
f 786 785 787
f 788 787 785
f 782 781 783
f 784 783 781
f 778 777 779
f 780 779 777
f 774 773 775
f 776 775 773
f 770 769 771
f 772 771 769
f 754 753 755
f 756 755 753
f 750 749 751
f 752 751 749
f 746 745 747
f 748 747 745
f 742 741 743
f 744 743 741
f 738 737 739
f 740 739 737
f 734 733 735
f 736 735 733
f 730 729 731
f 732 731 729
f 726 725 727
f 728 727 725
f 722 721 723
f 724 723 721
f 718 717 719
f 720 719 717
f 714 713 715
f 716 715 713
f 710 709 711
f 712 711 709
f 706 705 707
f 708 707 705
f 690 689 691
f 692 691 689
f 686 685 687
f 688 687 685
f 682 681 683
f 684 683 681
f 678 677 679
f 680 679 677
f 674 673 675
f 676 675 673
f 670 669 671
f 672 671 669
f 666 665 667
f 668 667 665
f 662 661 663
f 664 663 661
f 658 657 659
f 660 659 657
f 654 653 655
f 656 655 653
f 650 649 651
f 652 651 649
f 646 645 647
f 648 647 645
f 642 641 643
f 644 643 641
f 605 603 606
f 606 608 605
f 607 605 608
f 608 596 607
f 593 607 596
f 596 595 593
f 594 593 595
f 595 598 594
f 597 594 598
f 598 600 597
f 599 597 600
f 600 602 599
f 601 599 602
f 602 604 601
f 603 601 604
f 604 606 603
f 758 757 759
f 758 759 763
f 763 762 758
f 761 758 762
f 761 762 766
f 766 765 761
f 764 761 765
f 764 765 768
f 768 767 764
f 757 764 767
f 757 767 760
f 760 759 757
f 694 693 695
f 699 694 695
f 699 698 694
f 697 694 698
f 702 697 698
f 702 701 697
f 700 697 701
f 704 700 701
f 704 703 700
f 693 700 703
f 696 693 703
f 696 695 693
f 422 421 423
f 422 423 427
f 427 426 422
f 425 422 426
f 425 426 430
f 430 429 425
f 428 425 429
f 428 429 432
f 432 431 428
f 421 428 431
f 421 431 424
f 424 423 421
f 358 357 359
f 363 358 359
f 363 362 358
f 361 358 362
f 366 361 362
f 366 365 361
f 364 361 365
f 368 364 365
f 368 367 364
f 357 364 367
f 360 357 367
f 360 359 357
f 298 297 299
f 299 302 298
f 301 298 302
f 302 304 301
f 303 301 304
f 304 300 303
f 297 303 300
f 300 299 297
f 590 589 591
f 592 591 589
f 586 585 587
f 588 587 585
f 582 581 583
f 584 583 581
f 578 577 579
f 580 579 577
f 574 573 575
f 576 575 573
f 570 569 571
f 572 571 569
f 566 565 567
f 568 567 565
f 562 561 563
f 564 563 561
f 558 557 559
f 560 559 557
f 554 553 555
f 556 555 553
f 550 549 551
f 552 551 549
f 546 545 547
f 548 547 545
f 542 541 543
f 544 543 541
f 538 537 539
f 540 539 537
f 534 533 535
f 536 535 533
f 530 529 531
f 532 531 529
f 526 525 527
f 528 527 525
f 522 521 523
f 524 523 521
f 518 517 519
f 520 519 517
f 514 513 515
f 516 515 513
f 510 509 511
f 512 511 509
f 506 505 507
f 508 507 505
f 502 501 503
f 504 503 501
f 498 497 499
f 500 499 497
f 494 493 495
f 496 495 493
f 490 489 491
f 492 491 489
f 486 485 487
f 488 487 485
f 482 481 483
f 484 483 481
f 478 477 479
f 480 479 477
f 474 473 475
f 476 475 473
f 470 469 471
f 472 471 469
f 466 465 467
f 468 467 465
f 462 461 463
f 464 463 461
f 458 457 459
f 460 459 457
f 454 453 455
f 456 455 453
f 450 449 451
f 452 451 449
f 446 445 447
f 448 447 445
f 442 441 443
f 444 443 441
f 438 437 439
f 440 439 437
f 434 433 435
f 436 435 433
f 418 417 419
f 420 419 417
f 414 413 415
f 416 415 413
f 410 409 411
f 412 411 409
f 406 405 407
f 408 407 405
f 402 401 403
f 404 403 401
f 398 397 399
f 400 399 397
f 394 393 395
f 396 395 393
f 390 389 391
f 392 391 389
f 386 385 387
f 388 387 385
f 382 381 383
f 384 383 381
f 378 377 379
f 380 379 377
f 374 373 375
f 376 375 373
f 370 369 371
f 372 371 369
f 354 353 355
f 356 355 353
f 350 349 351
f 352 351 349
f 346 345 347
f 348 347 345
f 342 341 343
f 344 343 341
f 338 337 339
f 340 339 337
f 334 333 335
f 336 335 333
f 330 329 331
f 332 331 329
f 326 325 327
f 328 327 325
f 322 321 323
f 324 323 321
f 318 317 319
f 320 319 317
f 314 313 315
f 316 315 313
f 310 309 311
f 312 311 309
f 306 305 307
f 308 307 305
f 269 267 270
f 270 272 269
f 271 269 272
f 272 260 271
f 257 271 260
f 260 259 257
f 258 257 259
f 259 262 258
f 261 258 262
f 262 264 261
f 263 261 264
f 264 266 263
f 265 263 266
f 266 268 265
f 267 265 268
f 268 270 267
f 290 289 291
f 291 294 290
f 293 290 294
f 294 296 293
f 295 293 296
f 296 292 295
f 289 295 292
f 292 291 289
f 254 253 255
f 256 255 253
f 250 249 251
f 252 251 249
f 246 245 247
f 248 247 245
f 242 241 243
f 244 243 241
f 238 237 239
f 240 239 237
f 234 233 235
f 236 235 233
f 230 229 231
f 232 231 229
f 226 225 227
f 228 227 225
f 222 221 223
f 224 223 221
f 218 217 219
f 220 219 217
f 214 213 215
f 216 215 213
f 210 209 211
f 212 211 209
f 206 205 207
f 208 207 205
f 202 201 203
f 204 203 201
f 198 197 199
f 200 199 197
f 194 193 195
f 196 195 193
f 190 189 191
f 192 191 189
f 186 185 187
f 188 187 185
f 182 181 183
f 184 183 181
f 178 177 179
f 180 179 177
f 174 173 175
f 176 175 173
f 170 169 171
f 172 171 169
f 166 165 167
f 168 167 165
f 162 161 163
f 164 163 161
f 158 157 159
f 160 159 157
f 154 153 155
f 156 155 153
f 150 149 151
f 152 151 149
f 146 145 147
f 148 147 145
f 142 141 143
f 144 143 141
f 138 137 139
f 140 139 137
f 134 133 135
f 136 135 133
f 130 129 131
f 132 131 129
f 126 125 127
f 128 127 125
f 122 121 123
f 124 123 121
f 118 117 119
f 120 119 117
f 114 113 115
f 116 115 113
f 110 109 111
f 112 111 109
f 106 105 107
f 108 107 105
f 102 101 103
f 104 103 101
f 98 97 99
f 100 99 97
f 24 21 31
f 21 28 31
f 32 31 28
f 32 28 29
f 28 25 29
f 30 29 25
f 30 25 26
f 25 22 26
f 27 26 22
f 27 22 23
f 22 21 23
f 24 23 21
f 86 85 87
f 86 87 91
f 91 90 86
f 89 86 90
f 89 90 94
f 94 93 89
f 92 89 93
f 92 93 96
f 96 95 92
f 85 92 95
f 85 95 88
f 88 87 85
f 1306 1305 1307
f 1307 1310 1306
f 1309 1306 1310
f 1310 1312 1309
f 1311 1309 1312
f 1312 1308 1311
f 1305 1311 1308
f 1308 1307 1305
f 82 81 83
f 84 83 81
f 1282 1281 1283
f 1283 1286 1282
f 1285 1282 1286
f 1286 1288 1285
f 1287 1285 1288
f 1288 1290 1287
f 1289 1287 1290
f 1290 1292 1289
f 1291 1289 1292
f 1292 1294 1291
f 1293 1291 1294
f 1294 1296 1293
f 1295 1293 1296
f 1296 1284 1295
f 1281 1295 1284
f 1284 1283 1281
f 1298 1297 1299
f 1299 1302 1298
f 1301 1298 1302
f 1302 1304 1301
f 1303 1301 1304
f 1304 1300 1303
f 1297 1303 1300
f 1300 1299 1297
f 610 609 611
f 611 614 610
f 613 610 614
f 614 616 613
f 615 613 616
f 616 618 615
f 617 615 618
f 618 620 617
f 619 617 620
f 620 622 619
f 621 619 622
f 622 624 621
f 623 621 624
f 624 612 623
f 609 623 612
f 612 611 609
f 634 633 635
f 635 638 634
f 637 634 638
f 638 640 637
f 639 637 640
f 640 636 639
f 633 639 636
f 636 635 633
f 286 288 285
f 285 283 286
f 284 286 283
f 283 281 284
f 282 284 281
f 281 279 282
f 280 282 279
f 279 277 280
f 278 280 277
f 277 274 278
f 275 278 274
f 274 273 275
f 276 275 273
f 273 287 276
f 288 276 287
f 287 285 288
f 626 625 627
f 627 630 626
f 629 626 630
f 630 632 629
f 631 629 632
f 632 628 631
f 625 631 628
f 628 627 625
