# from FD_B26_BaronyAuto_VertexLit_LOD_0.pskx
v -4.1869498090818524e-05 -390.266357421875 3.4118165785912424e-05
v -3.981912959716283e-05 -371.93035888671875 1.9034661054611206
v 23.1021728515625 -371.93035888671875 1.903464913368225
v 23.102170944213867 -390.266357421875 3.3108339266618714e-05
v -3.823774750344455e-05 -359.48516845703125 7.536016941070557
v 23.1021728515625 -359.48516845703125 7.536016464233398
v -3.6879930121358484e-05 -351.14947509765625 18.1402645111084
v 23.102176666259766 -351.14947509765625 18.1402645111084
v -3.586781895137392e-05 -347.7771911621094 33.01786804199219
v 23.1021785736084 -347.7771911621094 33.01786422729492
v -3.570710396161303e-05 -353.3069763183594 50.266780853271484
v 23.102176666259766 -353.3069763183594 50.266780853271484
v -3.695214763865806e-05 -369.1217041015625 60.59892272949219
v 23.102176666259766 -369.1217041015625 60.598915100097656
v -3.695214763865806e-05 -369.1217041015625 60.59892272949219
v -3.522080078255385e-05 -357.2262878417969 71.0115737915039
v 23.1021785736084 -357.2262878417969 71.0115737915039
v 23.102176666259766 -369.1217041015625 60.598915100097656
v -3.419680433580652e-05 -353.2861633300781 84.76737976074219
v 23.1021785736084 -353.2861633300781 84.76737976074219
v -3.401771391509101e-05 -357.7441101074219 99.8060302734375
v 23.10218048095703 -357.7441101074219 99.8060302734375
v -3.487482536002062e-05 -370.0713806152344 110.45331573486328
v 23.1021785736084 -370.0713806152344 110.45330810546875
v -3.696533167385496e-05 -390.9660949707031 113.9117202758789
v 23.102174758911133 -390.9660949707031 113.9117202758789
v -4.154044290771708e-05 -433.6107482910156 113.9117202758789
v 23.1021728515625 -433.6107482910156 113.9117202758789
v -4.154044290771708e-05 -433.6107482910156 113.9117202758789
v -4.651967901736498e-05 -433.6107482910156 3.7907455407548696e-05
v 23.10216522216797 -433.6107482910156 3.6897628888254985e-05
v 23.1021728515625 -433.6107482910156 113.9117202758789
v -4.651967901736498e-05 -433.6107482910156 3.7907455407548696e-05
v 23.10216522216797 -433.6107482910156 3.6897628888254985e-05
v -4.0510243707103655e-05 -418.5054626464844 100.40580749511719
v -3.807314351433888e-05 -395.78924560546875 100.40580749511719
v 23.102176666259766 -395.78924560546875 100.40580749511719
v 23.1021728515625 -418.5054626464844 100.40580749511719
v -3.628779813880101e-05 -378.50146484375 98.81892395019531
v 23.102176666259766 -378.50146484375 98.81891632080078
v -3.571325942175463e-05 -370.7489013671875 92.93505859375
v 23.102176666259766 -370.7489013671875 92.93505096435547
v -3.585715967346914e-05 -368.0360412597656 82.9847412109375
v 23.102176666259766 -368.0360412597656 82.98472595214844
v -3.6602239561034366e-05 -370.9432373046875 73.07466125488281
v 23.102174758911133 -370.9432373046875 73.07465362548828
v -3.7776586395921186e-05 -379.587158203125 67.424072265625
v 23.102174758911133 -379.587158203125 67.42406463623047
v -3.9372760511469096e-05 -393.9288330078125 66.10790252685547
v 23.1021728515625 -393.9288330078125 66.10790252685547
v -4.2009447497548535e-05 -418.5054626464844 66.10790252685547
v 23.102169036865234 -418.5054626464844 66.10790252685547
v -4.2009447497548535e-05 -418.5054626464844 66.10790252685547
v -4.0510243707103655e-05 -418.5054626464844 100.40580749511719
v 23.1021728515625 -418.5054626464844 100.40580749511719
v 23.102169036865234 -418.5054626464844 66.10790252685547
v -4.259980778442696e-05 -418.5054626464844 52.60199737548828
v -3.9780206861905754e-05 -392.22393798828125 52.601993560791016
v 23.1021728515625 -392.22393798828125 52.601993560791016
v 23.1021671295166 -418.5054626464844 52.601993560791016
v -3.807918619713746e-05 -375.59423828125 50.70133972167969
v 23.102174758911133 -375.59423828125 50.70133972167969
v -3.7394747778307647e-05 -366.5282897949219 44.1080436706543
v 23.102174758911133 -366.5282897949219 44.10803985595703
v -3.7524932849919423e-05 -363.2378845214844 33.0539665222168
v 23.102174758911133 -363.2378845214844 33.05396270751953
v -3.818517870968208e-05 -365.4884338378906 23.472938537597656
v 23.102176666259766 -365.4884338378906 23.47293472290039
v -3.907768041244708e-05 -371.23199462890625 17.15176010131836
v 23.102174758911133 -371.23199462890625 17.15176010131836
v -4.014597652712837e-05 -379.9259033203125 14.050176620483398
v 23.102170944213867 -379.9259033203125 14.050174713134766
v -4.126900967094116e-05 -390.1719665527344 13.505943298339844
v 23.102170944213867 -390.1719665527344 13.505941390991211
v -4.4308755605015904e-05 -418.5054626464844 13.505945205688477
v 23.10216522216797 -418.5054626464844 13.50594425201416
v -4.4308755605015904e-05 -418.5054626464844 13.505945205688477
v -4.259980778442696e-05 -418.5054626464844 52.60199737548828
v 23.1021671295166 -418.5054626464844 52.601993560791016
v 23.10216522216797 -418.5054626464844 13.50594425201416
v -2.917012716352474e-05 -271.895263671875 2.376983866270166e-05
v -2.7625823349808343e-05 -257.50079345703125 2.2511436327476986e-05
v 23.102184295654297 -257.50079345703125 2.1501606170204468e-05
v 23.102182388305664 -271.895263671875 2.276000850542914e-05
v -2.7625823349808343e-05 -257.50079345703125 2.2511436327476986e-05
v -2.755386049102526e-05 -260.9050598144531 10.001727104187012
v 23.102184295654297 -260.9050598144531 10.001725196838379
v 23.102184295654297 -257.50079345703125 2.1501606170204468e-05
v -2.6567680833977647e-05 -261.7658386230469 34.675559997558594
v 23.102184295654297 -261.7658386230469 34.67555618286133
v -2.5754477974260226e-05 -261.7658386230469 53.27949905395508
v 23.102184295654297 -261.7658386230469 53.27949523925781
v -2.5266735974582843e-05 -262.465576171875 66.15509796142578
v 23.10218620300293 -262.465576171875 66.15509796142578
v -2.5318786356365308e-05 -266.8277893066406 75.6708755493164
v 23.102188110351562 -266.8277893066406 75.6708755493164
v -2.6089674065588042e-05 -276.5615539550781 81.9254150390625
v 23.102188110351562 -276.5615539550781 81.9254150390625
v -2.78272018476855e-05 -293.77020263671875 84.41195678710938
v 23.10218620300293 -293.77020263671875 84.41195678710938
v -2.9968219678266905e-05 -312.5393371582031 81.497802734375
v 23.102184295654297 -312.5393371582031 81.497802734375
v -3.165999805787578e-05 -324.9206848144531 73.1829605102539
v 23.1021785736084 -324.9206848144531 73.1829605102539
v -3.29399699694477e-05 -331.0724792480469 58.99952697753906
v 23.1021785736084 -331.0724792480469 58.99951934814453
v -3.29399699694477e-05 -331.0724792480469 58.99952697753906
v -3.154960722895339e-05 -317.3888854980469 57.222434997558594
v 23.1021785736084 -317.3888854980469 57.222434997558594
v 23.1021785736084 -331.0724792480469 58.99951934814453
v -3.154960722895339e-05 -317.3888854980469 57.222434997558594
v -3.0264256565715186e-05 -310.37628173828125 69.41634368896484
v 23.10218048095703 -310.37628173828125 69.41634368896484
v 23.1021785736084 -317.3888854980469 57.222434997558594
v -3.0264256565715186e-05 -310.37628173828125 69.41634368896484
v -2.8537668185890652e-05 -295.6861267089844 72.86084747314453
v 23.102182388305664 -295.6861267089844 72.86084747314453
v 23.10218048095703 -310.37628173828125 69.41634368896484
v -2.7021516871172935e-05 -279.62286376953125 68.12100982666016
v 23.10218620300293 -279.62286376953125 68.12100219726562
v -2.7021516871172935e-05 -279.62286376953125 68.12100982666016
v -2.7119354854221456e-05 -275.6271667480469 56.075645446777344
v 23.102184295654297 -275.6271667480469 56.075645446777344
v 23.10218620300293 -279.62286376953125 68.12100219726562
v -2.7287303964840248e-05 -275.7049255371094 52.42427062988281
v 23.102184295654297 -275.7049255371094 52.42427062988281
v -2.7287303964840248e-05 -275.7049255371094 52.42427062988281
v -3.019403993675951e-05 -300.8369140625 47.60946273803711
v 23.10218048095703 -300.8369140625 47.60946273803711
v 23.102184295654297 -275.7049255371094 52.42427062988281
v -3.162948996759951e-05 -313.3626403808594 45.5130500793457
v 23.10218048095703 -313.3626403808594 45.5130500793457
v -3.291738175903447e-05 -323.5003967285156 40.93148422241211
v 23.10218048095703 -323.5003967285156 40.93148422241211
v -3.404978633625433e-05 -330.78094482421875 32.89430236816406
v 23.10218048095703 -330.78094482421875 32.8942985534668
v -3.483159525785595e-05 -333.5604248046875 21.830509185791016
v 23.10218048095703 -333.5604248046875 21.830509185791016
v -3.478402868495323e-05 -326.2035217285156 4.862044811248779
v 23.102176666259766 -326.2035217285156 4.862044334411621
v -3.478402868495323e-05 -326.2035217285156 4.862044811248779
v -3.2815725717227906e-05 -305.15191650390625 -1.7770665884017944
v 23.10218048095703 -305.15191650390625 -1.7770675420761108
v 23.102176666259766 -326.2035217285156 4.862044334411621
v -3.1029740057419986e-05 -289.6162414550781 0.9510478377342224
v 23.102182388305664 -289.6162414550781 0.9510469436645508
v -2.902463347709272e-05 -274.7386474609375 10.30716609954834
v 23.102182388305664 -274.7386474609375 10.307164192199707
v -2.902463347709272e-05 -274.7386474609375 10.30716609954834
v -2.917012716352474e-05 -271.895263671875 2.376983866270166e-05
v 23.102182388305664 -271.895263671875 2.276000850542914e-05
v 23.102182388305664 -274.7386474609375 10.307164192199707
v -2.799175854306668e-05 -275.7049255371094 36.308258056640625
v -2.884375317080412e-05 -277.9818115234375 22.405284881591797
v 23.10218620300293 -277.9818115234375 22.405284881591797
v 23.102184295654297 -275.7049255371094 36.308258056640625
v -3.0266779504017904e-05 -287.3212890625 12.772883415222168
v 23.102182388305664 -287.3212890625 12.772881507873535
v -3.197872138116509e-05 -301.83929443359375 9.240912437438965
v 23.10218048095703 -301.83929443359375 9.240911483764648
v -3.315928188385442e-05 -314.3553161621094 12.951983451843262
v 23.1021785736084 -314.3553161621094 12.951982498168945
v -3.315928188385442e-05 -314.3553161621094 12.951983451843262
v -3.321261829114519e-05 -318.6328430175781 22.230356216430664
v 23.10218048095703 -318.6328430175781 22.23035430908203
v 23.1021785736084 -314.3553161621094 12.951982498168945
v -3.271450623287819e-05 -316.6835632324219 28.841699600219727
v 23.10218048095703 -316.6835632324219 28.841697692871094
v -3.192292933817953e-05 -311.1482238769531 33.36495590209961
v 23.10218048095703 -311.1482238769531 33.364952087402344
v -3.0488034099107608e-05 -298.9071044921875 36.147212982177734
v 23.102182388305664 -298.9071044921875 36.14720916748047
v -2.7798701921710745e-05 -275.98260498046875 41.40629577636719
v 23.102184295654297 -275.98260498046875 41.40629577636719
v -2.7798701921710745e-05 -275.98260498046875 41.40629577636719
v 23.102184295654297 -275.98260498046875 41.40629577636719
v -2.4289372959174216e-05 -226.4016876220703 1.9792665625573136e-05
v -2.2398613509722054e-05 -226.4016876220703 43.255584716796875
v 23.102190017700195 -226.4016876220703 43.255584716796875
v 23.102188110351562 -226.4016876220703 1.8782833649311215e-05
v -2.143481106031686e-05 -224.07481384277344 59.59373474121094
v 23.102190017700195 -224.07481384277344 59.593727111816406
v -2.0545943698380142e-05 -218.91152954101562 67.25606536865234
v 23.102191925048828 -218.91152954101562 67.25605773925781
v -1.955105472006835e-05 -210.76327514648438 70.01750183105469
v 23.102191925048828 -210.76327514648438 70.01748657226562
v -1.859028634498827e-05 -200.6143798828125 67.08806610107422
v 23.10219383239746 -200.6143798828125 67.08806610107422
v -1.859028634498827e-05 -200.6143798828125 67.08806610107422
v -1.74947599589359e-05 -195.65797424316406 79.98587799072266
v 23.102195739746094 -195.65797424316406 79.98587799072266
v 23.10219383239746 -200.6143798828125 67.08806610107422
v -1.74947599589359e-05 -195.65797424316406 79.98587799072266
v -1.8839633412426338e-05 -209.9969024658203 84.41195678710938
v 23.102195739746094 -209.9969024658203 84.41194915771484
v 23.102195739746094 -195.65797424316406 79.98587799072266
v -1.9921702914871275e-05 -218.94760131835938 81.62553405761719
v 23.102195739746094 -218.94760131835938 81.62552642822266
v -2.1377938537625596e-05 -227.8233642578125 70.09525299072266
v 23.102190017700195 -227.8233642578125 70.09524536132812
v -2.1377938537625596e-05 -227.8233642578125 70.09525299072266
v -2.082981518469751e-05 -227.8233642578125 82.6348648071289
v 23.10219383239746 -227.8233642578125 82.63485717773438
v 23.102190017700195 -227.8233642578125 70.09524536132812
v -2.082981518469751e-05 -227.8233642578125 82.6348648071289
v -2.2183459805091843e-05 -240.4407196044922 82.63485717773438
v 23.10219383239746 -240.4407196044922 82.63485717773438
v 23.10219383239746 -227.8233642578125 82.63485717773438
v -2.2183459805091843e-05 -240.4407196044922 82.63485717773438
v -2.5795543479034677e-05 -240.44073486328125 2.101999598380644e-05
v 23.10218620300293 -240.44073486328125 2.0010167645523325e-05
v 23.10219383239746 -240.4407196044922 82.63485717773438
v -2.5795543479034677e-05 -240.44073486328125 2.101999598380644e-05
v -2.4289372959174216e-05 -226.4016876220703 1.9792665625573136e-05
v 23.102188110351562 -226.4016876220703 1.8782833649311215e-05
v 23.10218620300293 -240.44073486328125 2.0010167645523325e-05
v -1.9094168237643316e-05 -181.77719116210938 9.32697868347168
v -1.6574647816014476e-05 -153.76853942871094 -1.7770799398422241
v 23.102195739746094 -153.76853942871094 -1.7770806550979614
v 23.10219383239746 -181.77719116210938 9.326977729797363
v -1.4216191630112007e-05 -133.8415069580078 3.269585609436035
v 23.10219955444336 -133.8415069580078 3.2695846557617188
v -1.2104737834306434e-05 -119.93435668945312 17.440515518188477
v 23.10219955444336 -119.93435668945312 17.440515518188477
v -1.0497509720153175e-05 -115.1556396484375 42.480873107910156
v 23.102201461791992 -115.1556396484375 42.48086929321289
v -1.0310241123079322e-05 -125.95426940917969 73.26900482177734
v 23.102201461791992 -125.95426940917969 73.26900482177734
v -1.0310241123079322e-05 -125.95426940917969 73.26900482177734
v -1.2807206985598896e-05 -153.76852416992188 84.41194915771484
v 23.10219955444336 -153.76852416992188 84.41194915771484
v 23.102201461791992 -125.95426940917969 73.26900482177734
v -1.5991592590580694e-05 -179.7168731689453 75.24880981445312
v 23.102197647094727 -179.7168731689453 75.24880981445312
v -1.5991592590580694e-05 -179.7168731689453 75.24880981445312
v -1.8841832570615225e-05 -192.45921325683594 41.317440032958984
v 23.10219383239746 -192.45921325683594 41.31743240356445
v 23.102197647094727 -179.7168731689453 75.24880981445312
v -1.9094168237643316e-05 -181.77719116210938 9.32697868347168
v 23.10219383239746 -181.77719116210938 9.326977729797363
v -1.5520134184043854e-05 -171.15628051757812 65.0235824584961
v -1.3312121154740453e-05 -153.76852416992188 72.86083984375
v 23.102197647094727 -153.76852416992188 72.86083984375
v 23.102197647094727 -171.15628051757812 65.0235824584961
v -1.3312121154740453e-05 -153.76852416992188 72.86083984375
v -1.1803474990301766e-05 -136.49740600585938 64.98470306396484
v 23.10219955444336 -136.49740600585938 64.98469543457031
v 23.102197647094727 -153.76852416992188 72.86083984375
v -1.1803474990301766e-05 -136.49740600585938 64.98470306396484
v -1.2070577213307843e-05 -129.55010986328125 41.822792053222656
v 23.10219955444336 -129.55010986328125 41.822792053222656
v 23.10219955444336 -136.49740600585938 64.98469543457031
v -1.3866665540263057e-05 -136.45855712890625 17.689029693603516
v 23.10219955444336 -136.45855712890625 17.68903160095215
v -1.3866665540263057e-05 -136.45855712890625 17.689029693603516
v -1.606973455636762e-05 -153.76853942871094 9.774025917053223
v 23.102195739746094 -153.76853942871094 9.774024963378906
v 23.10219955444336 -136.45855712890625 17.68903160095215
v -1.606973455636762e-05 -153.76853942871094 9.774025917053223
v -1.7590891729923896e-05 -171.1562957763672 17.650163650512695
v 23.102195739746094 -171.1562957763672 17.650161743164062
v 23.102195739746094 -153.76853942871094 9.774024963378906
v -1.7590891729923896e-05 -171.1562957763672 17.650163650512695
v -1.729583163978532e-05 -178.0647430419922 41.35630798339844
v 23.102195739746094 -178.0647430419922 41.35630798339844
v 23.102195739746094 -171.1562957763672 17.650161743164062
v -1.5520134184043854e-05 -171.15628051757812 65.0235824584961
v 23.102197647094727 -171.15628051757812 65.0235824584961
v -9.094215783989057e-06 -84.76734161376953 7.410596026602434e-06
v -7.122499027900631e-06 -84.767333984375 45.107635498046875
v 23.102205276489258 -84.767333984375 45.10763168334961
v 23.102203369140625 -84.76734161376953 6.400766778824618e-06
v -5.48776324649225e-06 -78.30734252929688 66.65071868896484
v 23.10220718383789 -78.30734252929688 66.65071868896484
v -5.48776324649225e-06 -78.30734252929688 66.65071868896484
v -3.5917939840146573e-06 -62.947967529296875 72.32770538330078
v 23.102209091186523 -62.947967529296875 72.32769775390625
v 23.10220718383789 -78.30734252929688 66.65071868896484
v -2.660556219780119e-06 -53.23781967163086 69.79951477050781
v 23.102209091186523 -53.23781967163086 69.79951477050781
v -2.3378493096970487e-06 -47.47338104248047 63.03406524658203
v 23.102210998535156 -47.473384857177734 63.03406524658203
v -2.7227476948610274e-06 -45.849002838134766 50.241764068603516
v 23.102209091186523 -45.84900665283203 50.241764068603516
v -4.918884314975003e-06 -45.8490104675293 4.008247742603999e-06
v 23.102209091186523 -45.8490104675293 2.9984182674525073e-06
v -4.918884314975003e-06 -45.8490104675293 4.008247742603999e-06
v -3.4127128856198397e-06 -31.809959411621094 2.780914883260266e-06
v 23.102209091186523 -31.80996322631836 1.7710858628561255e-06
v 23.102209091186523 -45.8490104675293 2.9984182674525073e-06
v -3.4127128856198397e-06 -31.809959411621094 2.780914883260266e-06
v -1.194121978187468e-06 -31.80995750427246 50.75545120239258
v 23.102210998535156 -31.809959411621094 50.75544738769531
v 23.102209091186523 -31.80996322631836 1.7710858628561255e-06
v -6.826264780102065e-07 -32.58466720581055 64.35855102539062
v 23.102210998535156 -32.58467102050781 64.35855102539062
v -6.968132311158115e-07 -36.928829193115234 74.69623565673828
v 23.102210998535156 -36.9288330078125 74.69623565673828
v -1.3921835488872603e-06 -46.2765998840332 81.73102569580078
v 23.102214813232422 -46.27660369873047 81.73102569580078
v -2.7439321002020733e-06 -59.968570709228516 84.41194152832031
v 23.102210998535156 -59.968570709228516 84.41193389892578
v -6.147217845864361e-06 -86.18901824951172 70.90879821777344
v 23.102205276489258 -86.18901824951172 70.90879821777344
v -6.147217845864361e-06 -86.18901824951172 70.90879821777344
v -5.634656190522946e-06 -86.18902587890625 82.63484191894531
v 23.102209091186523 -86.18902587890625 82.63484191894531
v 23.102205276489258 -86.18901824951172 70.90879821777344
v -5.634656190522946e-06 -86.18902587890625 82.63484191894531
v -6.988303084654035e-06 -98.806396484375 82.63484954833984
v 23.10220718383789 -98.806396484375 82.63484954833984
v 23.102209091186523 -86.18902587890625 82.63484191894531
v -6.988303084654035e-06 -98.806396484375 82.63484954833984
v -1.0600386303849518e-05 -98.806396484375 8.637930477561895e-06
v 23.102201461791992 -98.806396484375 7.628100775036728e-06
v 23.10220718383789 -98.806396484375 82.63484954833984
v -1.0600386303849518e-05 -98.806396484375 8.637930477561895e-06
v -9.094215783989057e-06 -84.76734161376953 7.410596026602434e-06
v 23.102203369140625 -84.76734161376953 6.400766778824618e-06
v 23.102201461791992 -98.806396484375 7.628100775036728e-06
v -1.6557886510781827e-06 -1.8215126991271973 -33.40935516357422
v -2.810826345012174e-07 9.683768272399902 -30.19809341430664
v 23.10221290588379 9.68376636505127 -30.198091506958008
v 23.10221290588379 -1.8215153217315674 -33.40935516357422
v 1.0777936267913901e-06 18.234676361083984 -20.097816467285156
v 23.102214813232422 18.23467445373535 -20.097816467285156
v 2.735390125963022e-06 26.08717155456543 -1.449444055557251
v 23.102214813232422 26.08717155456543 -1.4494452476501465
v 9.763073649082799e-06 57.333499908447266 82.63482666015625
v 23.102224349975586 57.333499908447266 82.63482666015625
v 9.763073649082799e-06 57.333499908447266 82.63482666015625
v 8.264049938588869e-06 43.3610725402832 82.63482666015625
v 23.102222442626953 43.36106872558594 82.63482666015625
v 23.102224349975586 57.333499908447266 82.63482666015625
v 8.264049938588869e-06 43.3610725402832 82.63482666015625
v 4.2666315493988805e-06 25.756736755371094 34.392303466796875
v 23.102216720581055 25.75673484802246 34.392303466796875
v 23.102222442626953 43.36106872558594 82.63482666015625
v 2.8377189664752223e-06 19.964534759521484 15.918867111206055
v 23.102216720581055 19.96453285217285 15.918864250183105
v 2.8377189664752223e-06 19.964534759521484 15.918867111206055
v 3.026001650141552e-06 13.952961921691895 34.98097229003906
v 23.102216720581055 13.952960014343262 34.9809684753418
v 23.102216720581055 19.96453285217285 15.918864250183105
v 3.258180868215277e-06 -3.2987167835235596 82.63483428955078
v 23.102216720581055 -3.2987194061279297 82.63483428955078
v 3.258180868215277e-06 -3.2987167835235596 82.63483428955078
v 1.6483418221469037e-06 -18.304058074951172 82.63483428955078
v 23.102214813232422 -18.304059982299805 82.63483428955078
v 23.102216720581055 -3.2987194061279297 82.63483428955078
v 1.6483418221469037e-06 -18.304058074951172 82.63483428955078
v 1.4046514706933522e-06 13.150479316711426 -0.14161327481269836
v 23.102214813232422 13.150477409362793 -0.14161428809165955
v 23.102214813232422 -18.304059982299805 82.63483428955078
v 1.1215430504307733e-06 11.906546592712402 -3.5652949810028076
v 23.102214813232422 11.90654468536377 -3.565295696258545
v 2.067227455881948e-07 7.627622127532959 -13.991833686828613
v 23.10221290588379 7.627619743347168 -13.991833686828613
v -4.759276066579332e-07 3.0391111373901367 -18.34709930419922
v 23.10221290588379 3.0391085147857666 -18.34710121154785
v -1.3451533504849067e-06 -4.428851127624512 -19.903444290161133
v 23.102210998535156 -4.428853988647461 -19.903446197509766
v -2.1503337848116644e-06 -12.439655303955078 -18.662256240844727
v 23.102210998535156 -12.439657211303711 -18.662256240844727
v -2.1503337848116644e-06 -12.439655303955078 -18.662256240844727
v -2.5491995074844453e-06 -10.840254783630371 -31.71278190612793
v 23.102210998535156 -10.840256690979004 -31.712783813476562
v 23.102210998535156 -12.439657211303711 -18.662256240844727
v -2.5491995074844453e-06 -10.840254783630371 -31.71278190612793
v 23.102210998535156 -10.840256690979004 -31.712783813476562
v 1.3727117220696528e-05 127.95071411132812 -1.1185807125002611e-05
v 1.6557360140723176e-05 140.28488159179688 34.4755973815918
v 23.102230072021484 140.28488159179688 34.4755973815918
v 23.10222625732422 127.95071411132812 -1.2195636372780427e-05
v 1.6557360140723176e-05 140.28488159179688 34.4755973815918
v 2.1694002498406917e-05 188.16363525390625 34.47559356689453
v 23.102235794067383 188.16363525390625 34.47559356689453
v 23.102230072021484 140.28488159179688 34.4755973815918
v 2.1694002498406917e-05 188.16363525390625 34.47559356689453
v 2.160114854632411e-05 201.34469604492188 -1.7602111256564967e-05
v 23.10223388671875 201.34469604492188 -1.8611941413837485e-05
v 23.102235794067383 188.16363525390625 34.47559356689453
v 2.160114854632411e-05 201.34469604492188 -1.7602111256564967e-05
v 2.34418530453695e-05 218.50193786621094 -1.9102048099739477e-05
v 23.102235794067383 218.50193786621094 -2.0111878257011995e-05
v 23.10223388671875 201.34469604492188 -1.8611941413837485e-05
v 2.34418530453695e-05 218.50193786621094 -1.9102048099739477e-05
v 2.3435775801772252e-05 172.0337371826172 113.91166687011719
v 23.102235794067383 172.0337371826172 113.91165161132812
v 23.102235794067383 218.50193786621094 -2.0111878257011995e-05
v 2.3435775801772252e-05 172.0337371826172 113.91166687011719
v 2.165553996746894e-05 155.4401397705078 113.91166687011719
v 23.10223388671875 155.4401397705078 113.91165161132812
v 23.102235794067383 172.0337371826172 113.91165161132812
v 2.165553996746894e-05 155.4401397705078 113.91166687011719
v 1.2013015293632634e-05 111.97352600097656 -9.78903699433431e-06
v 23.102224349975586 111.97352600097656 -1.0798866242112126e-05
v 23.10223388671875 155.4401397705078 113.91165161132812
v 1.2013015293632634e-05 111.97352600097656 -9.78903699433431e-06
v 1.3727117220696528e-05 127.95071411132812 -1.1185807125002611e-05
v 23.10222625732422 127.95071411132812 -1.2195636372780427e-05
v 23.102224349975586 111.97352600097656 -1.0798866242112126e-05
v 2.0359135305625387e-05 157.0895233154297 80.2052001953125
v 2.1997229850967415e-05 163.4037628173828 102.18284606933594
v 23.10223388671875 163.4037628173828 102.18284606933594
v 23.10223388671875 157.0895233154297 80.2052001953125
v 2.1997229850967415e-05 163.4037628173828 102.18284606933594
v 2.1843701688339934e-05 171.67835998535156 78.3614730834961
v 23.102235794067383 171.67835998535156 78.3614730834961
v 23.10223388671875 163.4037628173828 102.18284606933594
v 2.1721183657064103e-05 183.4210662841797 46.73754119873047
v 23.10223388671875 183.4210662841797 46.73754119873047
v 2.1721183657064103e-05 183.4210662841797 46.73754119873047
v 1.7570278942002915e-05 144.7303924560547 46.737545013427734
v 23.10222816467285 144.7303924560547 46.737545013427734
v 23.10223388671875 183.4210662841797 46.73754119873047
v 1.7570278942002915e-05 144.7303924560547 46.737545013427734
v 23.10222816467285 144.7303924560547 46.737545013427734
v 3.168676630593836e-05 295.3529357910156 -2.5820572773227468e-05
v 3.52988499798812e-05 295.3529357910156 82.63481140136719
v 23.102249145507812 295.3529357910156 82.63481140136719
v 23.102243423461914 295.3529357910156 -2.6830402930499986e-05
v 3.52988499798812e-05 295.3529357910156 82.63481140136719
v 3.379267582204193e-05 281.31390380859375 82.63481140136719
v 23.102249145507812 281.31390380859375 82.63481140136719
v 23.102249145507812 295.3529357910156 82.63481140136719
v 3.379267582204193e-05 281.31390380859375 82.63481140136719
v 3.186040703440085e-05 281.31390380859375 38.42961883544922
v 23.102245330810547 281.31390380859375 38.42961120605469
v 23.102249145507812 281.31390380859375 82.63481140136719
v 3.090985774178989e-05 279.0216979980469 22.309438705444336
v 23.102243423461914 279.0216979980469 22.30944061279297
v 2.9688602808164433e-05 271.21502685546875 13.530876159667969
v 23.10224151611328 271.21502685546875 13.530875205993652
v 2.8281021513976157e-05 259.408447265625 10.30711841583252
v 23.102237701416016 259.408447265625 10.307116508483887
v 2.7285035685054027e-05 248.8430633544922 13.453129768371582
v 23.102237701416016 248.8430633544922 13.453129768371582
v 2.7063757443102077e-05 243.25076293945312 22.116458892822266
v 23.10224151611328 243.25076293945312 22.116458892822266
v 2.7617232262855396e-05 242.39556884765625 36.87744140625
v 23.10224151611328 242.39556884765625 36.87744140625
v 2.9617349355248734e-05 242.3955841064453 82.63481903076172
v 23.102245330810547 242.3955841064453 82.63481140136719
v 2.9617349355248734e-05 242.3955841064453 82.63481903076172
v 2.811118247336708e-05 228.35655212402344 82.63481140136719
v 23.10224151611328 228.35655212402344 82.63481140136719
v 23.102245330810547 242.3955841064453 82.63481140136719
v 2.811118247336708e-05 228.35655212402344 82.63481140136719
v 2.587559720268473e-05 228.35653686523438 31.49062728881836
v 23.10223960876465 228.35653686523438 31.490629196166992
v 23.10224151611328 228.35655212402344 82.63481140136719
v 2.5396528144483455e-05 229.21173095703125 18.4317684173584
v 23.102237701416016 229.21173095703125 18.431766510009766
v 2.5405437554582022e-05 233.52256774902344 8.05521011352539
v 23.102237701416016 233.52256774902344 8.05521011352539
v 2.610647425171919e-05 242.9231414794922 1.0204190015792847
v 23.10223960876465 242.9231414794922 1.0204180479049683
v 2.7446863896329887e-05 256.5567932128906 -1.7771157026290894
v 23.10223960876465 256.5567932128906 -1.7771166563034058
v 3.086849756073207e-05 282.7355651855469 12.24803638458252
v 23.102243423461914 282.7355651855469 12.248034477233887
v 3.086849756073207e-05 282.7355651855469 12.24803638458252
v 3.0333118047565222e-05 282.7355651855469 -2.4717528503970243e-05
v 23.102243423461914 282.7355651855469 -2.572735866124276e-05
v 23.102243423461914 282.7355651855469 12.248034477233887
v 3.0333118047565222e-05 282.7355651855469 -2.4717528503970243e-05
v 3.168676630593836e-05 295.3529357910156 -2.5820572773227468e-05
v 23.102243423461914 295.3529357910156 -2.6830402930499986e-05
v 23.102243423461914 282.7355651855469 -2.572735866124276e-05
v 3.718478910741396e-05 341.74896240234375 11.906496047973633
v 3.6710895074065775e-05 336.9188537597656 12.919995307922363
v 23.10224723815918 336.9188537597656 12.91999340057373
v 23.102249145507812 341.74896240234375 11.906493186950684
v 3.656895205494948e-05 334.4836730957031 15.649499893188477
v 23.102249145507812 334.4836730957031 15.649499893188477
v 3.6826379073318094e-05 333.7381591796875 23.368749618530273
v 23.102251052856445 333.7381591796875 23.368749618530273
v 3.8943140680203214e-05 333.7381591796875 71.79454040527344
v 23.102251052856445 333.7381591796875 71.79454040527344
v 3.8943140680203214e-05 333.7381591796875 71.79454040527344
v 4.046838148497045e-05 347.95489501953125 71.79454040527344
v 23.102252960205078 347.95489501953125 71.79454040527344
v 23.102251052856445 333.7381591796875 71.79454040527344
v 4.046838148497045e-05 347.95489501953125 71.79454040527344
v 4.094222094863653e-05 347.95489501953125 82.63480377197266
v 23.10225486755371 347.95489501953125 82.63480377197266
v 23.102252960205078 347.95489501953125 71.79454040527344
v 4.094222094863653e-05 347.95489501953125 82.63480377197266
v 3.9416980143869296e-05 333.7381591796875 82.63480377197266
v 23.102252960205078 333.7381591796875 82.63480377197266
v 23.10225486755371 347.95489501953125 82.63480377197266
v 3.9416980143869296e-05 333.7381591796875 82.63480377197266
v 4.067635745741427e-05 333.7381591796875 111.44593048095703
v 23.102252960205078 333.7381591796875 111.44593048095703
v 23.102252960205078 333.7381591796875 82.63480377197266
v 4.067635745741427e-05 333.7381591796875 111.44593048095703
v 3.880363510688767e-05 319.6990661621094 103.0602798461914
v 23.102251052856445 319.6990661621094 103.0602798461914
v 23.102252960205078 333.7381591796875 111.44593048095703
v 3.880363510688767e-05 319.6990661621094 103.0602798461914
v 3.791080598603003e-05 319.6990661621094 82.63481140136719
v 23.102251052856445 319.6990661621094 82.63481140136719
v 23.102251052856445 319.6990661621094 103.0602798461914
v 3.791080598603003e-05 319.6990661621094 82.63481140136719
v 3.680501686176285e-05 309.3919677734375 82.63481140136719
v 23.102251052856445 309.3919677734375 82.63481140136719
v 23.102251052856445 319.6990661621094 82.63481140136719
v 3.680501686176285e-05 309.3919677734375 82.63481140136719
v 3.633117376011796e-05 309.3919677734375 71.79454803466797
v 23.102249145507812 309.3919677734375 71.79454803466797
v 23.102251052856445 309.3919677734375 82.63481140136719
v 3.633117376011796e-05 309.3919677734375 71.79454803466797
v 3.7436966522363946e-05 319.6990661621094 71.79454803466797
v 23.102249145507812 319.6990661621094 71.79454803466797
v 23.102249145507812 309.3919677734375 71.79454803466797
v 3.7436966522363946e-05 319.6990661621094 71.79454803466797
v 3.535795985953882e-05 319.6990661621094 24.2323055267334
v 23.102249145507812 319.6990661621094 24.2323055267334
v 23.102249145507812 319.6990661621094 71.79454803466797
v 3.481858584564179e-05 321.4109191894531 7.6914544105529785
v 23.10224723815918 321.4109191894531 7.6914520263671875
v 3.5175627999706194e-05 327.3239440917969 1.346674919128418
v 23.10224723815918 327.3239440917969 1.346673846244812
v 3.633889718912542e-05 339.14990234375 -1.0662856101989746
v 23.102249145507812 339.14990234375 -1.0662868022918701
v 3.7528196116909385e-05 349.73199462890625 0.16934862732887268
v 23.102251052856445 349.73199462890625 0.1693476140499115
v 3.7528196116909385e-05 349.73199462890625 0.16934862732887268
v 3.787728928728029e-05 347.95489501953125 12.517372131347656
v 23.102249145507812 347.95489501953125 12.517370223999023
v 23.102251052856445 349.73199462890625 0.1693476140499115
v 3.787728928728029e-05 347.95489501953125 12.517372131347656
v 23.102249145507812 347.95489501953125 12.517370223999023
v 3.9779915823601186e-05 366.9891662597656 9.32693099975586
v 4.2299430788261816e-05 394.9978332519531 -1.7771278619766235
v 23.10225486755371 394.9978332519531 -1.77712881565094
v 23.102252960205078 366.9891662597656 9.32693099975586
v 4.465789970709011e-05 414.9249267578125 3.269537925720215
v 23.102256774902344 414.9249267578125 3.2695367336273193
v 4.676934622693807e-05 428.83203125 17.44046974182129
v 23.102258682250977 428.83203125 17.44046974182129
v 4.837657616008073e-05 433.6107482910156 42.4808235168457
v 23.10226058959961 433.6107482910156 42.48081970214844
v 4.8563844757154584e-05 422.8121337890625 73.26896667480469
v 23.10226058959961 422.8121337890625 73.26896667480469
v 4.8563844757154584e-05 422.8121337890625 73.26896667480469
v 4.60668743471615e-05 394.9978332519531 84.41189575195312
v 23.102258682250977 394.9978332519531 84.4118881225586
v 23.10226058959961 422.8121337890625 73.26896667480469
v 4.2882489651674405e-05 369.04949951171875 75.24876403808594
v 23.102256774902344 369.04949951171875 75.24876403808594
v 4.2882489651674405e-05 369.04949951171875 75.24876403808594
v 4.003224603366107e-05 356.30718994140625 41.31739044189453
v 23.102252960205078 356.30718994140625 41.3173828125
v 23.102256774902344 369.04949951171875 75.24876403808594
v 3.9779915823601186e-05 366.9891662597656 9.32693099975586
v 23.102252960205078 366.9891662597656 9.32693099975586
v 4.335394623922184e-05 377.6100769042969 65.0235366821289
v 4.556195926852524e-05 394.9978332519531 72.86079406738281
v 23.10225486755371 394.9978332519531 72.86078643798828
v 23.102252960205078 377.6100769042969 65.0235366821289
v 4.556195926852524e-05 394.9978332519531 72.86079406738281
v 4.7070607251953334e-05 412.26898193359375 64.98466491699219
v 23.102258682250977 412.26898193359375 64.98465728759766
v 23.10225486755371 394.9978332519531 72.86078643798828
v 4.7070607251953334e-05 412.26898193359375 64.98466491699219
v 4.680350684793666e-05 419.21630859375 41.82274627685547
v 23.102258682250977 419.21630859375 41.82274627685547
v 23.102258682250977 412.26898193359375 64.98465728759766
v 4.500742215896025e-05 412.3078918457031 17.68898582458496
v 23.102256774902344 412.3078918457031 17.68898582458496
v 4.500742215896025e-05 412.3078918457031 17.68898582458496
v 4.2804345866898075e-05 394.9978332519531 9.773978233337402
v 23.10225486755371 394.9978332519531 9.773977279663086
v 23.102256774902344 412.3078918457031 17.68898582458496
v 4.2804345866898075e-05 394.9978332519531 9.773978233337402
v 4.12831905123312e-05 377.6100769042969 17.650114059448242
v 23.10225486755371 377.6100769042969 17.65011215209961
v 23.10225486755371 394.9978332519531 9.773977279663086
v 4.12831905123312e-05 377.6100769042969 17.650114059448242
v 4.157825242145918e-05 370.7016296386719 41.35626220703125
v 23.10225486755371 370.7016296386719 41.356258392333984
v 23.10225486755371 377.6100769042969 17.65011215209961
v 4.335394623922184e-05 377.6100769042969 65.0235366821289
v 23.102252960205078 377.6100769042969 65.0235366821289
v 23.102170944213867 -390.266357421875 3.3108339266618714e-05
v 23.102174758911133 -371.23199462890625 17.15176010131836
v 23.102170944213867 -379.9259033203125 14.050174713134766
v 23.1021728515625 -371.93035888671875 1.903464913368225
v 23.102174758911133 -379.587158203125 67.42406463623047
v 23.102176666259766 -351.14947509765625 18.1402645111084
v 23.1021785736084 -347.7771911621094 33.01786422729492
v 23.102176666259766 -353.3069763183594 50.266780853271484
v 23.102176666259766 -369.1217041015625 60.598915100097656
v 23.102170944213867 -390.1719665527344 13.505941390991211
v 23.1021728515625 -359.48516845703125 7.536016464233398
v 23.102174758911133 -370.9432373046875 73.07465362548828
v 23.1021785736084 -357.2262878417969 71.0115737915039
v 23.102176666259766 -368.0360412597656 82.98472595214844
v 23.1021785736084 -353.2861633300781 84.76737976074219
v 23.10218048095703 -357.7441101074219 99.8060302734375
v 23.102176666259766 -370.7489013671875 92.93505096435547
v 23.1021785736084 -370.0713806152344 110.45330810546875
v 23.102176666259766 -378.50146484375 98.81891632080078
v 23.102174758911133 -390.9660949707031 113.9117202758789
v 23.102176666259766 -395.78924560546875 100.40580749511719
v 23.1021728515625 -433.6107482910156 113.9117202758789
v 23.1021728515625 -418.5054626464844 100.40580749511719
v 23.10216522216797 -433.6107482910156 3.6897628888254985e-05
v 23.102169036865234 -418.5054626464844 66.10790252685547
v 23.102176666259766 -365.4884338378906 23.47293472290039
v 23.10216522216797 -418.5054626464844 13.50594425201416
v 23.102174758911133 -363.2378845214844 33.05396270751953
v 23.1021671295166 -418.5054626464844 52.601993560791016
v 23.1021728515625 -393.9288330078125 66.10790252685547
v 23.1021728515625 -392.22393798828125 52.601993560791016
v 23.102174758911133 -375.59423828125 50.70133972167969
v 23.102174758911133 -366.5282897949219 44.10803985595703
v 23.102182388305664 -274.7386474609375 10.307164192199707
v 23.102182388305664 -271.895263671875 2.276000850542914e-05
v 23.102184295654297 -275.7049255371094 36.308258056640625
v 23.10218620300293 -277.9818115234375 22.405284881591797
v 23.102182388305664 -287.3212890625 12.772881507873535
v 23.102182388305664 -289.6162414550781 0.9510469436645508
v 23.10218048095703 -301.83929443359375 9.240911483764648
v 23.10218048095703 -305.15191650390625 -1.7770675420761108
v 23.102184295654297 -257.50079345703125 2.1501606170204468e-05
v 23.102184295654297 -260.9050598144531 10.001725196838379
v 23.102184295654297 -261.7658386230469 34.67555618286133
v 23.1021785736084 -324.9206848144531 73.1829605102539
v 23.1021785736084 -331.0724792480469 58.99951934814453
v 23.1021785736084 -317.3888854980469 57.222434997558594
v 23.10218048095703 -310.37628173828125 69.41634368896484
v 23.102184295654297 -312.5393371582031 81.497802734375
v 23.102184295654297 -261.7658386230469 53.27949523925781
v 23.102184295654297 -275.98260498046875 41.40629577636719
v 23.102182388305664 -295.6861267089844 72.86084747314453
v 23.10218620300293 -293.77020263671875 84.41195678710938
v 23.102176666259766 -326.2035217285156 4.862044334411621
v 23.1021785736084 -314.3553161621094 12.951982498168945
v 23.10218048095703 -333.5604248046875 21.830509185791016
v 23.10218048095703 -318.6328430175781 22.23035430908203
v 23.10218048095703 -330.78094482421875 32.8942985534668
v 23.10218048095703 -316.6835632324219 28.841697692871094
v 23.10218048095703 -323.5003967285156 40.93148422241211
v 23.10218048095703 -311.1482238769531 33.364952087402344
v 23.10218048095703 -313.3626403808594 45.5130500793457
v 23.102182388305664 -298.9071044921875 36.14720916748047
v 23.10218048095703 -300.8369140625 47.60946273803711
v 23.102184295654297 -275.7049255371094 52.42427062988281
v 23.102184295654297 -275.6271667480469 56.075645446777344
v 23.10218620300293 -262.465576171875 66.15509796142578
v 23.10218620300293 -279.62286376953125 68.12100219726562
v 23.102188110351562 -266.8277893066406 75.6708755493164
v 23.102188110351562 -276.5615539550781 81.9254150390625
v 23.10219383239746 -200.6143798828125 67.08806610107422
v 23.102195739746094 -195.65797424316406 79.98587799072266
v 23.102195739746094 -209.9969024658203 84.41194915771484
v 23.102191925048828 -210.76327514648438 70.01748657226562
v 23.102195739746094 -218.94760131835938 81.62552642822266
v 23.102190017700195 -227.8233642578125 70.09524536132812
v 23.102191925048828 -218.91152954101562 67.25605773925781
v 23.102190017700195 -224.07481384277344 59.593727111816406
v 23.10219383239746 -240.4407196044922 82.63485717773438
v 23.10218620300293 -240.44073486328125 2.0010167645523325e-05
v 23.102188110351562 -226.4016876220703 1.8782833649311215e-05
v 23.102190017700195 -226.4016876220703 43.255584716796875
v 23.10219383239746 -227.8233642578125 82.63485717773438
v 23.102195739746094 -153.76853942871094 9.774024963378906
v 23.10219383239746 -181.77719116210938 9.326977729797363
v 23.102195739746094 -153.76853942871094 -1.7770806550979614
v 23.102195739746094 -171.1562957763672 17.650161743164062
v 23.10219383239746 -192.45921325683594 41.31743240356445
v 23.102195739746094 -178.0647430419922 41.35630798339844
v 23.102197647094727 -179.7168731689453 75.24880981445312
v 23.102197647094727 -171.15628051757812 65.0235824584961
v 23.10219955444336 -153.76852416992188 84.41194915771484
v 23.102197647094727 -153.76852416992188 72.86083984375
v 23.102201461791992 -125.95426940917969 73.26900482177734
v 23.10219955444336 -136.49740600585938 64.98469543457031
v 23.102201461791992 -115.1556396484375 42.48086929321289
v 23.10219955444336 -129.55010986328125 41.822792053222656
v 23.10219955444336 -133.8415069580078 3.2695846557617188
v 23.10219955444336 -136.45855712890625 17.68903160095215
v 23.10219955444336 -119.93435668945312 17.440515518188477
v 23.10220718383789 -98.806396484375 82.63484954833984
v 23.102201461791992 -98.806396484375 7.628100775036728e-06
v 23.102203369140625 -84.76734161376953 6.400766778824618e-06
v 23.102205276489258 -84.767333984375 45.10763168334961
v 23.102205276489258 -86.18901824951172 70.90879821777344
v 23.102209091186523 -86.18902587890625 82.63484191894531
v 23.10220718383789 -78.30734252929688 66.65071868896484
v 23.102210998535156 -59.968570709228516 84.41193389892578
v 23.102209091186523 -62.947967529296875 72.32769775390625
v 23.102209091186523 -45.8490104675293 2.9984182674525073e-06
v 23.102209091186523 -31.80996322631836 1.7710858628561255e-06
v 23.102210998535156 -31.809959411621094 50.75544738769531
v 23.102209091186523 -45.84900665283203 50.241764068603516
v 23.102210998535156 -32.58467102050781 64.35855102539062
v 23.102210998535156 -47.473384857177734 63.03406524658203
v 23.102210998535156 -36.9288330078125 74.69623565673828
v 23.102209091186523 -53.23781967163086 69.79951477050781
v 23.102214813232422 -46.27660369873047 81.73102569580078
v 23.102216720581055 -3.2987194061279297 82.63483428955078
v 23.102214813232422 -18.304059982299805 82.63483428955078
v 23.102214813232422 13.150477409362793 -0.14161428809165955
v 23.102216720581055 13.952960014343262 34.9809684753418
v 23.102216720581055 19.96453285217285 15.918864250183105
v 23.102214813232422 26.08717155456543 -1.4494452476501465
v 23.102224349975586 57.333499908447266 82.63482666015625
v 23.102222442626953 43.36106872558594 82.63482666015625
v 23.102216720581055 25.75673484802246 34.392303466796875
v 23.102214813232422 18.23467445373535 -20.097816467285156
v 23.102214813232422 11.90654468536377 -3.565295696258545
v 23.10221290588379 7.627619743347168 -13.991833686828613
v 23.102210998535156 -4.428853988647461 -19.903446197509766
v 23.102210998535156 -12.439657211303711 -18.662256240844727
v 23.102210998535156 -10.840256690979004 -31.712783813476562
v 23.10221290588379 -1.8215153217315674 -33.40935516357422
v 23.10221290588379 9.68376636505127 -30.198091506958008
v 23.10221290588379 3.0391085147857666 -18.34710121154785
v 23.10223388671875 163.4037628173828 102.18284606933594
v 23.10222625732422 127.95071411132812 -1.2195636372780427e-05
v 23.102230072021484 140.28488159179688 34.4755973815918
v 23.10223388671875 201.34469604492188 -1.8611941413837485e-05
v 23.102235794067383 218.50193786621094 -2.0111878257011995e-05
v 23.102235794067383 172.0337371826172 113.91165161132812
v 23.102235794067383 188.16363525390625 34.47559356689453
v 23.10223388671875 155.4401397705078 113.91165161132812
v 23.102224349975586 111.97352600097656 -1.0798866242112126e-05
v 23.102235794067383 171.67835998535156 78.3614730834961
v 23.10223388671875 183.4210662841797 46.73754119873047
v 23.10222816467285 144.7303924560547 46.737545013427734
v 23.10223388671875 157.0895233154297 80.2052001953125
v 23.102243423461914 282.7355651855469 12.248034477233887
v 23.102243423461914 282.7355651855469 -2.572735866124276e-05
v 23.102243423461914 295.3529357910156 -2.6830402930499986e-05
v 23.102249145507812 295.3529357910156 82.63481140136719
v 23.102249145507812 281.31390380859375 82.63481140136719
v 23.102245330810547 281.31390380859375 38.42961120605469
v 23.102243423461914 279.0216979980469 22.30944061279297
v 23.10224151611328 271.21502685546875 13.530875205993652
v 23.10223960876465 256.5567932128906 -1.7771166563034058
v 23.102237701416016 259.408447265625 10.307116508483887
v 23.102245330810547 242.3955841064453 82.63481140136719
v 23.10224151611328 228.35655212402344 82.63481140136719
v 23.10223960876465 228.35653686523438 31.490629196166992
v 23.10224151611328 242.39556884765625 36.87744140625
v 23.10224151611328 243.25076293945312 22.116458892822266
v 23.102237701416016 229.21173095703125 18.431766510009766
v 23.102237701416016 233.52256774902344 8.05521011352539
v 23.102237701416016 248.8430633544922 13.453129768371582
v 23.10223960876465 242.9231414794922 1.0204180479049683
v 23.102252960205078 333.7381591796875 82.63480377197266
v 23.102252960205078 333.7381591796875 111.44593048095703
v 23.102251052856445 319.6990661621094 103.0602798461914
v 23.102251052856445 319.6990661621094 82.63481140136719
v 23.102249145507812 339.14990234375 -1.0662868022918701
v 23.102251052856445 349.73199462890625 0.1693476140499115
v 23.102249145507812 347.95489501953125 12.517370223999023
v 23.102249145507812 341.74896240234375 11.906493186950684
v 23.10224723815918 327.3239440917969 1.346673846244812
v 23.10224723815918 336.9188537597656 12.91999340057373
v 23.10224723815918 321.4109191894531 7.6914520263671875
v 23.102249145507812 334.4836730957031 15.649499893188477
v 23.102249145507812 319.6990661621094 24.2323055267334
v 23.102251052856445 333.7381591796875 23.368749618530273
v 23.102251052856445 333.7381591796875 71.79454040527344
v 23.102249145507812 319.6990661621094 71.79454803466797
v 23.102251052856445 309.3919677734375 82.63481140136719
v 23.102249145507812 309.3919677734375 71.79454803466797
v 23.10225486755371 347.95489501953125 82.63480377197266
v 23.102252960205078 347.95489501953125 71.79454040527344
v 23.10225486755371 394.9978332519531 9.773977279663086
v 23.102252960205078 366.9891662597656 9.32693099975586
v 23.10225486755371 394.9978332519531 -1.77712881565094
v 23.10225486755371 377.6100769042969 17.65011215209961
v 23.102252960205078 356.30718994140625 41.3173828125
v 23.10225486755371 370.7016296386719 41.356258392333984
v 23.102256774902344 369.04949951171875 75.24876403808594
v 23.102252960205078 377.6100769042969 65.0235366821289
v 23.102258682250977 394.9978332519531 84.4118881225586
v 23.10225486755371 394.9978332519531 72.86078643798828
v 23.10226058959961 422.8121337890625 73.26896667480469
v 23.102258682250977 412.26898193359375 64.98465728759766
v 23.10226058959961 433.6107482910156 42.48081970214844
v 23.102258682250977 419.21630859375 41.82274627685547
v 23.102256774902344 414.9249267578125 3.2695367336273193
v 23.102256774902344 412.3078918457031 17.68898582458496
v 23.102258682250977 428.83203125 17.44046974182129
f 64 63 65
f 65 63 66
f 802 803 804
f 800 803 802
f 801 800 802
f 798 800 801
f 799 800 798
f 796 799 798
f 797 796 798
f 787 786 788
f 788 786 789
f 789 786 790
f 790 786 791
f 791 786 792
f 792 786 793
f 786 794 793
f 793 794 795
f 794 803 795
f 804 803 794
f 721 720 722
f 722 720 734
f 720 735 734
f 734 735 736
f 735 733 736
f 736 733 732
f 731 732 733
f 730 732 731
f 729 730 731
f 728 730 729
f 727 728 729
f 726 728 727
f 725 726 727
f 724 726 725
f 723 724 725
f 721 724 723
f 720 721 723
f 36 35 37
f 37 35 38
f 16 15 17
f 17 15 18
f 826 825 827
f 827 825 839
f 825 840 839
f 839 840 841
f 840 838 841
f 841 838 837
f 836 837 838
f 835 837 836
f 834 835 836
f 833 835 834
f 832 833 834
f 831 833 832
f 830 831 832
f 829 831 830
f 828 829 830
f 826 829 828
f 825 826 828
f 805 823 819
f 819 823 824
f 820 805 819
f 808 805 820
f 807 805 808
f 806 805 807
f 822 821 820
f 821 808 820
f 810 809 811
f 811 809 812
f 809 813 812
f 812 813 814
f 813 815 814
f 814 815 816
f 815 817 816
f 816 817 818
f 818 817 819
f 817 820 819
f 777 776 778
f 776 779 778
f 774 773 775
f 775 773 784
f 783 775 784
f 779 775 783
f 782 779 783
f 773 779 782
f 778 779 773
f 780 778 773
f 774 780 773
f 781 780 774
f 784 773 785
f 658 659 660
f 659 661 660
f 640 638 647
f 637 638 640
f 638 637 639
f 639 637 646
f 646 637 663
f 637 660 663
f 663 660 665
f 660 661 665
f 661 666 665
f 665 666 667
f 666 641 667
f 667 641 668
f 668 641 669
f 645 648 649
f 641 648 645
f 644 641 645
f 643 641 644
f 642 641 643
f 641 642 669
f 642 664 669
f 662 664 642
f 647 662 642
f 638 662 647
f 657 659 658
f 656 657 658
f 655 657 656
f 654 655 656
f 653 655 654
f 652 653 654
f 650 653 652
f 651 650 652
f 649 650 651
f 648 650 649
f 628 627 629
f 629 627 630
f 624 623 625
f 625 623 626
f 614 613 615
f 615 613 616
f 610 609 611
f 611 609 612
f 578 577 579
f 579 577 580
f 560 559 561
f 561 559 562
f 556 555 557
f 557 555 558
f 552 551 553
f 553 551 554
f 548 547 549
f 549 547 550
f 544 543 545
f 545 543 546
f 540 539 541
f 541 539 542
f 536 535 537
f 537 535 538
f 532 531 533
f 533 531 534
f 528 527 529
f 529 527 530
f 516 515 517
f 517 515 518
f 515 581 518
f 518 581 582
f 742 741 737
f 738 737 739
f 739 737 740
f 737 741 740
f 740 741 743
f 741 744 743
f 743 744 745
f 744 753 745
f 754 753 744
f 752 753 754
f 751 753 752
f 750 751 752
f 749 751 750
f 748 749 750
f 746 749 748
f 747 746 748
f 715 719 712
f 708 707 709
f 707 710 709
f 709 710 711
f 711 710 712
f 710 713 712
f 713 714 712
f 714 715 712
f 718 715 714
f 717 715 718
f 716 715 717
f 33 30 34
f 34 30 31
f 30 29 31
f 31 29 32
f 27 25 28
f 28 25 26
f 25 23 26
f 26 23 24
f 23 20 24
f 24 20 21
f 20 19 21
f 21 19 22
f 13 11 14
f 14 11 12
f 11 8 12
f 12 8 9
f 8 7 9
f 9 7 10
f 5 2 6
f 6 2 3
f 2 1 3
f 3 1 4
f 1 39 4
f 4 39 40
f 635 632 636
f 636 632 633
f 632 631 633
f 633 631 634
f 621 618 622
f 622 618 619
f 618 617 619
f 619 617 620
f 601 598 602
f 602 598 599
f 598 597 599
f 599 597 600
f 595 593 596
f 596 593 594
f 593 590 594
f 594 590 591
f 590 589 591
f 591 589 592
f 587 584 588
f 588 584 585
f 584 583 585
f 585 583 586
f 575 572 576
f 576 572 573
f 572 571 573
f 573 571 574
f 569 567 570
f 570 567 568
f 567 564 568
f 568 564 565
f 564 563 565
f 565 563 566
f 525 523 526
f 526 523 524
f 523 520 524
f 524 520 521
f 520 519 521
f 521 519 522
f 505 503 506
f 506 503 504
f 503 500 504
f 504 500 501
f 500 499 501
f 501 499 502
f 497 495 498
f 498 495 496
f 495 492 496
f 496 492 493
f 492 491 493
f 493 491 494
f 485 483 486
f 486 483 484
f 483 480 484
f 484 480 481
f 480 479 481
f 481 479 482
f 477 474 478
f 478 474 475
f 474 473 475
f 475 473 476
f 471 469 472
f 472 469 470
f 469 466 470
f 470 466 467
f 466 465 467
f 467 465 468
f 449 446 450
f 450 446 447
f 446 445 447
f 447 445 448
f 401 398 402
f 402 398 399
f 398 397 399
f 399 397 400
f 395 393 396
f 396 393 394
f 393 391 394
f 394 391 392
f 391 388 392
f 392 388 389
f 388 387 389
f 389 387 390
f 381 378 382
f 382 378 379
f 378 377 379
f 379 377 380
f 375 372 376
f 376 372 373
f 372 371 373
f 373 371 374
f 365 363 366
f 366 363 364
f 363 360 364
f 364 360 361
f 360 359 361
f 361 359 362
f 337 335 338
f 338 335 336
f 335 332 336
f 336 332 333
f 332 331 333
f 333 331 334
f 329 327 330
f 330 327 328
f 327 324 328
f 328 324 325
f 324 323 325
f 325 323 326
f 309 306 310
f 310 306 307
f 306 305 307
f 307 305 308
f 303 300 304
f 304 300 301
f 300 299 301
f 301 299 302
f 297 294 298
f 298 294 295
f 294 293 295
f 295 293 296
f 283 280 284
f 284 280 281
f 280 279 281
f 281 279 282
f 269 266 270
f 270 266 267
f 266 265 267
f 267 265 268
f 263 260 264
f 264 260 261
f 260 259 261
f 261 259 262
f 257 255 258
f 258 255 256
f 255 252 256
f 256 252 253
f 252 251 253
f 253 251 254
f 249 246 250
f 250 246 247
f 246 245 247
f 247 245 248
f 223 220 224
f 224 220 221
f 220 219 221
f 221 219 222
f 213 210 214
f 214 210 211
f 210 209 211
f 211 209 212
f 207 205 208
f 208 205 206
f 205 202 206
f 206 202 203
f 202 201 203
f 203 201 204
f 197 195 198
f 198 195 196
f 195 192 196
f 196 192 193
f 192 191 193
f 193 191 194
f 189 186 190
f 190 186 187
f 186 185 187
f 187 185 188
f 183 180 184
f 184 180 181
f 180 179 181
f 181 179 182
f 177 174 178
f 178 174 175
f 174 173 175
f 175 173 176
f 173 199 176
f 176 199 200
f 167 165 168
f 168 165 166
f 165 162 166
f 166 162 163
f 162 161 163
f 163 161 164
f 159 157 160
f 160 157 158
f 157 154 158
f 158 154 155
f 154 153 155
f 155 153 156
f 151 149 152
f 152 149 150
f 149 146 150
f 150 146 147
f 146 145 147
f 147 145 148
f 143 140 144
f 144 140 141
f 140 139 141
f 141 139 142
f 137 134 138
f 138 134 135
f 134 133 135
f 135 133 136
f 119 117 120
f 120 117 118
f 117 115 118
f 118 115 116
f 115 112 116
f 116 112 113
f 112 111 113
f 113 111 114
f 109 107 110
f 110 107 108
f 107 105 108
f 108 105 106
f 105 103 106
f 106 103 104
f 103 100 104
f 104 100 101
f 100 99 101
f 101 99 102
f 89 87 90
f 90 87 88
f 87 84 88
f 88 84 85
f 84 83 85
f 85 83 86
f 81 79 82
f 82 79 80
f 79 76 80
f 80 76 77
f 76 75 77
f 77 75 78
f 73 71 74
f 74 71 72
f 71 68 72
f 72 68 69
f 68 67 69
f 69 67 70
f 679 672 680
f 680 672 686
f 672 687 686
f 672 670 673
f 671 670 672
f 671 672 679
f 678 671 679
f 686 702 703
f 701 702 686
f 687 701 686
f 700 701 687
f 699 700 687
f 698 700 699
f 697 698 699
f 696 698 697
f 695 696 697
f 694 696 695
f 693 694 695
f 692 694 693
f 691 692 693
f 690 692 691
f 676 690 691
f 677 690 676
f 675 677 676
f 674 675 676
f 670 675 674
f 673 670 674
f 607 604 608
f 608 604 605
f 604 603 605
f 605 603 606
f 61 59 62
f 62 59 60
f 59 56 60
f 60 56 57
f 56 55 57
f 57 55 58
f 53 50 54
f 54 50 51
f 50 49 51
f 51 49 52
f 47 45 48
f 48 45 46
f 45 42 46
f 46 42 43
f 42 41 43
f 43 41 44
f 682 681 683
f 683 681 684
f 681 685 684
f 684 685 688
f 685 689 688
f 704 688 689
f 706 704 689
f 705 704 706
f 703 704 705
f 702 704 703
f 512 511 513
f 513 511 514
f 508 507 509
f 509 507 510
f 488 487 489
f 489 487 490
f 462 461 463
f 463 461 464
f 458 457 459
f 459 457 460
f 452 451 453
f 453 451 454
f 442 441 443
f 443 441 444
f 441 455 444
f 444 455 456
f 756 755 757
f 755 758 757
f 758 759 757
f 759 760 757
f 763 760 759
f 762 760 763
f 761 760 762
f 760 764 757
f 757 764 765
f 765 764 766
f 764 771 766
f 766 771 772
f 771 770 772
f 770 767 772
f 769 767 770
f 768 767 769
f 317 315 318
f 318 315 316
f 315 312 316
f 316 312 313
f 312 311 313
f 313 311 314
f 438 437 439
f 439 437 440
f 434 433 435
f 435 433 436
f 430 429 431
f 431 429 432
f 426 425 427
f 427 425 428
f 422 421 423
f 423 421 424
f 418 417 419
f 419 417 420
f 414 413 415
f 415 413 416
f 410 409 411
f 411 409 412
f 404 403 405
f 405 403 406
f 384 383 385
f 385 383 386
f 368 367 369
f 369 367 370
f 356 355 357
f 357 355 358
f 355 407 358
f 358 407 408
f 92 91 93
f 93 91 94
f 96 95 97
f 97 95 98
f 122 121 123
f 123 121 124
f 126 125 127
f 127 125 128
f 130 129 131
f 131 129 132
f 170 169 171
f 171 169 172
f 216 215 217
f 217 215 218
f 226 225 227
f 227 225 228
f 230 229 231
f 231 229 232
f 234 233 235
f 235 233 236
f 238 237 239
f 239 237 240
f 242 241 243
f 243 241 244
f 272 271 273
f 273 271 274
f 276 275 277
f 277 275 278
f 286 285 287
f 287 285 288
f 290 289 291
f 291 289 292
f 320 319 321
f 321 319 322
f 340 339 341
f 341 339 342
f 344 343 345
f 345 343 346
f 348 347 349
f 349 347 350
f 352 351 353
f 353 351 354
