# from FD_B12_ParkingBays_LOD_0.pskx
v -1173.850341796875 -889.2766723632812 -4.058193735545501e-05
v -1195.84814453125 -1288.670654296875 9.059229341801256e-05
v -696.667724609375 -1317.2144775390625 0.00023832859005779028
v -674.6702880859375 -917.8204345703125 0.00010715433745644987
v -1129.0003662109375 -205.5802001953125 -9.839213453233242e-05
v -1150.998291015625 -604.9742431640625 3.278209260315634e-05
v -651.81787109375 -633.5178833007812 0.00018051837105304003
v -629.8203735351562 -234.12368774414062 4.9344118451699615e-05
v -1091.3157958984375 478.58807373046875 -0.0003189952694810927
v -1113.3135986328125 79.1935043334961 -0.00018782101687975228
v -614.1332397460938 50.64983367919922 -4.008472751593217e-05
v -592.1354370117188 450.04449462890625 -0.00017125900194514543
v -1046.4654541015625 1162.290283203125 -0.00037680595414713025
v -1068.46337890625 762.8955078125 -0.0002456316724419594
v -569.2828979492188 734.3519287109375 -9.789538307813928e-05
v -547.2852172851562 1133.7464599609375 -0.00022906965750735253
v -1001.6152954101562 1845.992919921875 -0.00043461666791699827
v -1023.613037109375 1446.59814453125 -0.00030344235710799694
v -524.4326782226562 1418.054443359375 -0.0001557061041239649
v -502.4349060058594 1817.4490966796875 -0.0002868803858291358
v 749.6741943359375 -1320.818603515625 0.0001663589500822127
v 1053.166748046875 -1060.2578125 0.0002663745544850826
v 728.2640991210938 -680.2130126953125 0.0003052554093301296
v 424.77191162109375 -940.77392578125 0.00020523989223875105
v 193.28858947753906 -1797.1729736328125 0.00016077754844445735
v 496.781005859375 -1536.6124267578125 0.00026079313829541206
v 171.87841796875 -1156.567626953125 0.0002996740222442895
v -131.61376953125 -1417.12841796875 0.0001996584760490805
f 2 1 3
f 4 3 1
f 6 5 7
f 8 7 5
f 10 9 11
f 12 11 9
f 14 13 15
f 16 15 13
f 18 17 19
f 20 19 17
f 22 21 23
f 24 23 21
f 26 25 27
f 28 27 25
