# from FD_B37_ApSalesB05_VertexLit_LOD_0 .pskx
v -4.731788794742897e-05 -569.1973266601562 817.430908203125
v 2.2463648319244385 -569.197265625 819.67724609375
v -2.4626067897770554e-05 -569.197265625 821.9236450195312
v -2.2464139461517334 -569.197265625 819.67724609375
v -2.71580574917607e-05 -320.0845947265625 817.4307861328125
v -2.2463529109954834 -320.08447265625 819.6771850585938
v 3.654174361145124e-05 -320.08447265625 821.9236450195312
v 2.246426820755005 -320.08447265625 819.6771850585938
v 0.00011303225619485602 -569.19775390625 -821.9234619140625
v 2.2465033531188965 -569.19775390625 -819.677001953125
v 0.00018150040705222636 -569.19775390625 -817.4304809570312
v -2.246276378631592 -569.19775390625 -819.677001953125
v 0.00013319207937456667 -320.08489990234375 -821.9234619140625
v -2.2462573051452637 -320.08489990234375 -819.677001953125
v 0.00020070653408765793 -320.08489990234375 -817.4304809570312
v 2.246521472930908 -320.08489990234375 -819.677001953125
v 0.00011303225619485602 -569.19775390625 -821.9234619140625
v -2.246276378631592 -569.19775390625 -819.677001953125
v -2.2462573051452637 -320.08489990234375 -819.677001953125
v 0.00013319207937456667 -320.08489990234375 -821.9234619140625
v 0.00018150040705222636 -569.19775390625 -817.4304809570312
v 0.00020070653408765793 -320.08489990234375 -817.4304809570312
v 2.2465033531188965 -569.19775390625 -819.677001953125
v 2.246521472930908 -320.08489990234375 -819.677001953125
v 0.00020070653408765793 -320.08489990234375 -817.4304809570312
v 0.00018150040705222636 -569.19775390625 -817.4304809570312
v -4.731788794742897e-05 -569.1973266601562 817.430908203125
v -2.71580574917607e-05 -320.0845947265625 817.4307861328125
v 0.0025153576862066984 320.0838623046875 817.4307861328125
v 2.248927593231201 320.0839538574219 819.67724609375
v 0.002538049593567848 320.0839538574219 821.9235229492188
v -2.2438511848449707 320.0839538574219 819.67724609375
v 0.0025355175603181124 569.1966552734375 817.4307861328125
v -2.2437901496887207 569.1968383789062 819.6771850585938
v 0.002599217463284731 569.1968383789062 821.9235229492188
v 2.2489895820617676 569.1968383789062 819.6771850585938
v 0.0026757079176604748 320.0835876464844 -821.9234619140625
v 2.249066114425659 320.0835876464844 -819.677001953125
v 0.0027441761922091246 320.0835876464844 -817.4306030273438
v -2.243713617324829 320.0835876464844 -819.677001953125
v 0.002695867558941245 569.1962890625 -821.9234619140625
v -2.243694543838501 569.1962890625 -819.6770629882812
v 0.0027633821591734886 569.1962890625 -817.4306030273438
v 2.249084234237671 569.1962890625 -819.6770629882812
v 0.0026757079176604748 320.0835876464844 -821.9234619140625
v -2.243713617324829 320.0835876464844 -819.677001953125
v -2.243694543838501 569.1962890625 -819.6770629882812
v 0.002695867558941245 569.1962890625 -821.9234619140625
v 0.0027441761922091246 320.0835876464844 -817.4306030273438
v 0.0027633821591734886 569.1962890625 -817.4306030273438
v 2.249066114425659 320.0835876464844 -819.677001953125
v 2.249084234237671 569.1962890625 -819.6770629882812
v 0.0027633821591734886 569.1962890625 -817.4306030273438
v 0.0027441761922091246 320.0835876464844 -817.4306030273438
v 0.0025153576862066984 320.0838623046875 817.4307861328125
v 0.0025355175603181124 569.1966552734375 817.4307861328125
f 12 11 13
f 14 13 11
f 56 52 55
f 49 55 52
f 52 51 49
f 50 49 51
f 51 54 50
f 53 50 54
f 26 22 25
f 19 25 22
f 22 21 19
f 20 19 21
f 21 24 20
f 23 20 24
f 8 7 5
f 6 5 7
f 5 6 1
f 4 1 6
f 4 3 1
f 2 1 3
f 9 4 10
f 6 10 4
f 58 57 59
f 60 59 57
f 46 45 47
f 48 47 45
f 42 41 43
f 44 43 41
f 39 34 40
f 36 40 34
f 38 37 35
f 36 35 37
f 35 36 31
f 34 31 36
f 34 33 31
f 32 31 33
f 16 15 17
f 18 17 15
f 28 27 29
f 30 29 27
