# from FD_B04_Grate_VertexLit_LOD_0.pskx
v -293.1568298339844 -359.7414855957031 151.92755126953125
v -243.1473846435547 -359.7454528808594 151.9275360107422
v -243.15086364746094 640.259033203125 151.92738342285156
v -293.1507263183594 640.2627563476562 151.9273681640625
v -293.1568298339844 -359.7414855957031 151.92755126953125
v -293.1507263183594 640.2627563476562 151.9273681640625
v -293.1465759277344 640.2593383789062 162.52850341796875
v -293.15093994140625 -359.7443542480469 162.52867126464844
v -243.14747619628906 -359.745361328125 162.52865600585938
v -243.1473846435547 -359.7454528808594 151.9275360107422
v -293.1568298339844 -359.7414855957031 151.92755126953125
v -293.15093994140625 -359.7443542480469 162.52867126464844
v -243.15086364746094 640.259033203125 151.92738342285156
v -243.1471405029297 640.2566528320312 162.52850341796875
v -293.1465759277344 640.2593383789062 162.52850341796875
v -293.1507263183594 640.2627563476562 151.9273681640625
v -243.1471405029297 640.2566528320312 162.52850341796875
v -243.15086364746094 640.259033203125 151.92738342285156
v -243.1473846435547 -359.7454528808594 151.9275360107422
v -243.14747619628906 -359.745361328125 162.52865600585938
v -293.156005859375 -359.7444763183594 162.5286865234375
v -243.15252685546875 -359.7454833984375 162.52865600585938
v -243.1522216796875 640.2567138671875 162.52850341796875
v -293.1515808105469 640.2593994140625 162.52850341796875
f 2 1 3
f 4 3 1
f 6 5 7
f 8 7 5
f 10 9 11
f 12 11 9
f 14 13 15
f 16 15 13
f 18 17 19
f 20 19 17
f 22 21 23
f 24 23 21
