# from FD_B05_FestivalBanners_VertexLit_LOD_0.pskx
v 151.6709442138672 -140.5262451171875 576.2960815429688
v 153.9777069091797 -138.219482421875 568.4208984375
v -138.20126342773438 153.95921325683594 568.4208984375
v -140.50765991210938 151.65281677246094 576.2960815429688
v 146.1024627685547 -146.0947265625 579.55810546875
v -146.07647705078125 146.08399963378906 579.5580444335938
v 140.5339813232422 -151.6632080078125 576.2960815429688
v -151.64495849609375 140.51551818847656 576.2960815429688
v 138.2273406982422 -153.9698486328125 568.4208984375
v -153.95162963867188 138.20884704589844 568.4208984375
v 140.5339813232422 -151.6632080078125 560.545654296875
v -151.64495849609375 140.51551818847656 560.545654296875
v 146.1024627685547 -146.0947265625 557.28369140625
v -146.07647705078125 146.08399963378906 557.2837524414062
v 151.6709442138672 -140.5262451171875 560.545654296875
v -140.50765991210938 151.65281677246094 560.545654296875
v -146.07647705078125 146.08399963378906 579.5580444335938
v -140.50765991210938 151.65281677246094 576.2960815429688
v -138.20126342773438 153.95921325683594 568.4208984375
v -140.50765991210938 151.65281677246094 560.545654296875
v -146.07647705078125 146.08399963378906 557.2837524414062
v -151.64495849609375 140.51551818847656 560.545654296875
v -153.95162963867188 138.20884704589844 568.4208984375
v -151.64495849609375 140.51551818847656 576.2960815429688
v 140.5339813232422 -151.6632080078125 560.545654296875
v 146.1024627685547 -146.0947265625 557.28369140625
v 151.6709442138672 -140.5262451171875 560.545654296875
v 153.9777069091797 -138.219482421875 568.4208984375
v 151.6709442138672 -140.5262451171875 576.2960815429688
v 146.1024627685547 -146.0947265625 579.55810546875
v 140.5339813232422 -151.6632080078125 576.2960815429688
v 138.2273406982422 -153.9698486328125 568.4208984375
v 151.67083740234375 -140.5263214111328 -826.55517578125
v 153.97760009765625 -138.2195587158203 -834.430419921875
v -138.20126342773438 153.95909118652344 -834.4302978515625
v -140.50765991210938 151.65269470214844 -826.5550537109375
v 146.1024932861328 -146.09481811523438 -823.2930908203125
v -146.07647705078125 146.08387756347656 -823.2930908203125
v 140.5340118408203 -151.66329956054688 -826.55517578125
v -151.64495849609375 140.51539611816406 -826.5550537109375
v 138.22723388671875 -153.9699249267578 -834.430419921875
v -153.95169067382812 138.2086639404297 -834.4302978515625
v 140.53399658203125 -151.6632843017578 -842.3054809570312
v -151.64495849609375 140.51539611816406 -842.3054809570312
v 146.10247802734375 -146.0948028564453 -845.567626953125
v -146.07647705078125 146.08387756347656 -845.5674438476562
v 151.67083740234375 -140.5263214111328 -842.3054809570312
v -140.50765991210938 151.65269470214844 -842.3054809570312
v -146.07647705078125 146.08387756347656 -823.2930908203125
v -140.50765991210938 151.65269470214844 -826.5550537109375
v -138.20126342773438 153.95909118652344 -834.4302978515625
v -140.50765991210938 151.65269470214844 -842.3054809570312
v -146.07647705078125 146.08387756347656 -845.5674438476562
v -151.64495849609375 140.51539611816406 -842.3054809570312
v -153.95169067382812 138.2086639404297 -834.4302978515625
v -151.64495849609375 140.51539611816406 -826.5550537109375
v 140.53399658203125 -151.6632843017578 -842.3054809570312
v 146.10247802734375 -146.0948028564453 -845.567626953125
v 151.67083740234375 -140.5263214111328 -842.3054809570312
v 153.97760009765625 -138.2195587158203 -834.430419921875
v 151.67083740234375 -140.5263214111328 -826.55517578125
v 146.1024932861328 -146.09481811523438 -823.2930908203125
v 140.5340118408203 -151.66329956054688 -826.55517578125
v 138.22723388671875 -153.9699249267578 -834.430419921875
v 128.8143310546875 -133.8922882080078 561.1708374023438
v -129.69564819335938 124.61747741699219 561.1708374023438
v -129.6956329345703 124.61722564697266 -826.3805541992188
v 128.814208984375 -133.89234924316406 -826.3805541992188
v 491.9666442871094 -480.82196044921875 576.296142578125
v 494.2734375 -478.5151672363281 568.4210205078125
v 202.09449768066406 -186.33651733398438 568.4209594726562
v 199.78810119628906 -188.64291381835938 576.2960815429688
v 486.3981628417969 -486.39044189453125 579.5582275390625
v 194.2192840576172 -194.21173095703125 579.55810546875
v 480.8296813964844 -491.95892333984375 576.296142578125
v 188.6508026123047 -199.78021240234375 576.2960815429688
v 478.5230407714844 -494.26556396484375 568.4210205078125
v 186.34413146972656 -202.08688354492188 568.4209594726562
v 480.8296813964844 -491.95892333984375 560.5457763671875
v 188.6508026123047 -199.78021240234375 560.5457153320312
v 486.3981628417969 -486.39044189453125 557.2837524414062
v 194.2192840576172 -194.21173095703125 557.2838134765625
v 491.9666442871094 -480.82196044921875 560.5457763671875
v 199.78810119628906 -188.64291381835938 560.5457153320312
v 194.2192840576172 -194.21173095703125 579.55810546875
v 199.78810119628906 -188.64291381835938 576.2960815429688
v 202.09449768066406 -186.33651733398438 568.4209594726562
v 199.78810119628906 -188.64291381835938 560.5457153320312
v 194.2192840576172 -194.21173095703125 557.2838134765625
v 188.6508026123047 -199.78021240234375 560.5457153320312
v 186.34413146972656 -202.08688354492188 568.4209594726562
v 188.6508026123047 -199.78021240234375 576.2960815429688
v 480.8296813964844 -491.95892333984375 560.5457763671875
v 486.3981628417969 -486.39044189453125 557.2837524414062
v 491.9666442871094 -480.82196044921875 560.5457763671875
v 494.2734375 -478.5151672363281 568.4210205078125
v 491.9666442871094 -480.82196044921875 576.296142578125
v 486.3981628417969 -486.39044189453125 579.5582275390625
v 480.8296813964844 -491.95892333984375 576.296142578125
v 478.5230407714844 -494.26556396484375 568.4210205078125
v 491.96649169921875 -480.8219909667969 -826.5550537109375
v 494.27325439453125 -478.5152282714844 -834.4302978515625
v 202.09446716308594 -186.33660888671875 -834.4303588867188
v 199.78807067871094 -188.64300537109375 -826.5551147460938
v 486.398193359375 -486.3905334472656 -823.2930908203125
v 194.21925354003906 -194.21182250976562 -823.2930297851562
v 480.8297119140625 -491.9590148925781 -826.5550537109375
v 188.65077209472656 -199.78030395507812 -826.5551147460938
v 478.52288818359375 -494.2655944824219 -834.4302978515625
v 186.3440399169922 -202.0870361328125 -834.4303588867188
v 480.8297119140625 -491.9590148925781 -842.3053588867188
v 188.65077209472656 -199.78030395507812 -842.305419921875
v 486.398193359375 -486.3905334472656 -845.5675048828125
v 194.21925354003906 -194.21182250976562 -845.5673828125
v 491.96649169921875 -480.8219909667969 -842.3053588867188
v 199.78807067871094 -188.64300537109375 -842.305419921875
v 194.21925354003906 -194.21182250976562 -823.2930297851562
v 199.78807067871094 -188.64300537109375 -826.5551147460938
v 202.09446716308594 -186.33660888671875 -834.4303588867188
v 199.78807067871094 -188.64300537109375 -842.305419921875
v 194.21925354003906 -194.21182250976562 -845.5673828125
v 188.65077209472656 -199.78030395507812 -842.305419921875
v 186.3440399169922 -202.0870361328125 -834.4303588867188
v 188.65077209472656 -199.78030395507812 -826.5551147460938
v 480.8297119140625 -491.9590148925781 -842.3053588867188
v 486.398193359375 -486.3905334472656 -845.5675048828125
v 491.96649169921875 -480.8219909667969 -842.3053588867188
v 494.27325439453125 -478.5152282714844 -834.4302978515625
v 491.96649169921875 -480.8219909667969 -826.5550537109375
v 486.398193359375 -486.3905334472656 -823.2930908203125
v 480.8297119140625 -491.9590148925781 -826.5550537109375
v 478.52288818359375 -494.2655944824219 -834.4302978515625
v 469.1100769042969 -474.18804931640625 561.1708984375
v 210.60009765625 -215.67823791503906 561.1708984375
v 210.60011291503906 -215.67849731445312 -826.3804931640625
v 469.1098937988281 -474.18804931640625 -826.3804931640625
f 28 27 29
f 26 25 27
f 27 25 31
f 29 27 31
f 30 29 31
f 31 25 32
f 163 157 164
f 158 157 159
f 159 157 163
f 161 159 163
f 162 161 163
f 160 159 161
f 155 149 156
f 150 149 151
f 151 149 155
f 153 151 155
f 154 153 155
f 152 151 153
f 122 121 123
f 120 119 121
f 121 119 123
f 119 117 123
f 123 117 124
f 118 117 119
f 115 109 116
f 110 109 111
f 111 109 115
f 113 111 115
f 114 113 115
f 112 111 113
f 79 73 80
f 74 73 75
f 75 73 79
f 77 75 79
f 78 77 79
f 76 75 77
f 71 65 72
f 66 65 67
f 67 65 71
f 69 67 71
f 70 69 71
f 68 67 69
f 38 37 39
f 36 35 37
f 37 35 39
f 35 33 39
f 39 33 40
f 34 33 35
f 147 126 148
f 127 148 126
f 126 125 127
f 128 127 125
f 63 42 64
f 43 64 42
f 42 41 43
f 44 43 41
f 4 3 1
f 2 1 3
f 3 24 2
f 23 2 24
f 142 141 143
f 144 143 141
f 141 145 144
f 146 144 145
f 10 8 9
f 5 9 8
f 8 7 5
f 6 5 7
f 136 135 137
f 138 137 135
f 135 139 138
f 140 138 139
f 12 11 13
f 14 13 11
f 11 15 14
f 16 14 15
f 130 129 131
f 132 131 129
f 129 133 132
f 134 132 133
f 18 17 19
f 20 19 17
f 17 21 20
f 22 20 21
f 107 86 108
f 87 108 86
f 86 85 87
f 88 87 85
f 46 45 47
f 48 47 45
f 45 49 48
f 50 48 49
f 102 101 103
f 104 103 101
f 101 105 104
f 106 104 105
f 52 51 53
f 54 53 51
f 51 55 54
f 56 54 55
f 96 95 97
f 98 97 95
f 95 99 98
f 100 98 99
f 58 57 59
f 60 59 57
f 57 61 60
f 62 60 61
f 94 92 93
f 89 93 92
f 92 91 89
f 90 89 91
f 82 81 83
f 84 83 81
f 166 165 167
f 168 167 165
