# from FD_B34_Cable03_VertexLit_LOD_0.pskx
v 263.96295166015625 74.72836303710938 -17.156457901000977
v 264.0862121582031 73.4903335571289 -13.548834800720215
v 361.3746032714844 113.96408081054688 -1.6032460927963257
v 265.2247009277344 71.39392852783203 -16.22306251525879
v -295.5298156738281 -126.91902160644531 -13.551284790039062
v -296.2525329589844 -125.89411926269531 -17.155628204345703
v -385.6169128417969 -152.25848388671875 -5.198357582092285
v -384.7813720703125 -153.2500762939453 -1.6090940237045288
v -384.50567626953125 -155.6449737548828 -4.261078357696533
v -295.117431640625 -129.27357482910156 -16.221542358398438
v -20.091230392456055 -38.03318405151367 -31.598655700683594
v -21.29349708557129 -34.67597579956055 -32.52891540527344
v 73.87086486816406 -3.578078031539917 -29.890182495117188
v -112.91007232666016 -70.46755981445312 -29.890161514282227
v -114.09074401855469 -67.1028060913086 -30.820816040039062
v -113.58378601074219 -68.19730377197266 -27.20022201538086
v -205.1307373046875 -98.56816864013672 -22.08173942565918
v -20.88874626159668 -35.80619812011719 -28.90645980834961
v -204.5855255126953 -100.88105773925781 -24.76451301574707
v -205.7438201904297 -97.50887298583984 -25.6964168548584
v 362.6163330078125 111.91062927246094 -4.264779090881348
v 361.3365783691406 115.23756408691406 -5.2003912925720215
v 459.8542785644531 157.7672576904297 10.171483993530273
v 459.81134033203125 156.4588165283203 13.755985260009766
v 461.15118408203125 154.4477081298828 11.109766006469727
v 559.3966674804688 200.97459411621094 32.52888870239258
v 559.5161743164062 202.3174591064453 28.959148406982422
v 72.95452117919922 -1.3946783542633057 -27.200164794921875
v 167.94615173339844 35.037452697753906 -22.081050872802734
v 167.7333526611328 36.23965835571289 -25.696638107299805
v 72.64785766601562 -0.22847723960876465 -30.820825576782227
v 168.97618103027344 32.89766311645508 -24.764923095703125
v -473.8367919921875 -176.60183715820312 10.175472259521484
v -472.74993896484375 -179.9950714111328 11.116999626159668
v -560.8228759765625 -199.00152587890625 29.261337280273438
v -472.8857116699219 -177.56155395507812 13.744607925415039
v -559.8460693359375 -200.8829345703125 31.427501678466797
v -559.8499755859375 -202.32359313964844 29.91309928894043
v -560.5579833984375 -200.05722045898438 29.281747817993164
v -560.5557250976562 -199.23397827148438 30.14712142944336
v -560.1995239257812 -199.54393005371094 31.328166961669922
v 560.8292236328125 199.00515747070312 29.90054702758789
v 559.4663696289062 201.75791931152344 30.446542739868164
v -559.84326171875 -199.85386657714844 32.509220123291016
f 66 49 47
f 58 69 60
f 59 58 60
f 60 48 59
f 70 59 48
f 49 70 48
f 48 47 49
f 47 48 8
f 8 9 47
f 9 8 10
f 5 10 8
f 48 60 8
f 7 8 60
f 8 7 5
f 6 5 7
f 5 6 28
f 10 5 18
f 28 18 5
f 18 28 17
f 27 17 28
f 17 27 19
f 43 19 27
f 19 43 38
f 41 38 43
f 38 41 39
f 40 39 41
f 2 4 39
f 42 39 4
f 39 42 38
f 21 38 42
f 38 21 19
f 20 19 21
f 19 20 17
f 16 17 20
f 17 16 18
f 26 18 16
f 18 26 10
f 39 40 1
f 1 2 39
f 2 1 3
f 4 2 3
f 3 29 4
f 29 3 34
f 33 34 3
f 34 33 35
f 64 35 33
f 35 64 67
f 35 67 34
f 67 64 71
f 71 64 63
f 33 63 64
f 63 33 3
f 3 62 63
f 62 3 1
f 57 56 45
f 46 57 45
f 45 44 46
f 44 45 51
f 50 51 45
f 51 50 23
f 22 23 50
f 23 22 24
f 24 25 23
f 25 24 15
f 14 15 24
f 15 14 12
f 11 12 14
f 12 11 13
f 13 55 12
f 55 13 54
f 65 54 13
f 54 65 52
f 52 53 54
f 53 52 31
f 30 31 52
f 31 30 32
f 36 32 30
f 32 36 37
f 61 37 36
f 68 69 58
f 68 58 66
f 66 58 59
f 66 59 49
f 49 59 70
