# from FD_Block33_FWsupport04_LOD_0.pskx
v 1696.54736328125 712.8930053710938 268.56317138671875
v 1607.27880859375 632.6986083984375 268.56317138671875
v 1171.246337890625 1118.0682373046875 268.5631103515625
v 1260.5147705078125 1198.2626953125 268.5631408691406
v 1577.5228271484375 605.9671020507812 308.8770751953125
v 1577.522705078125 605.9671630859375 368.56317138671875
v 1141.490234375 1091.3367919921875 368.5631103515625
v 1141.490234375 1091.3367919921875 308.8770446777344
v 2142.809326171875 -23.2814998626709 264.8116149902344
v 2291.590087890625 110.37588500976562 264.8116455078125
v 2291.590087890625 110.37589263916016 368.56329345703125
v 2142.809326171875 -23.281490325927734 368.56329345703125
v 1290.270751953125 1224.994140625 308.87701416015625
v 1290.270751953125 1224.994140625 368.5631103515625
v 1726.303466796875 739.6245727539062 368.56317138671875
v 1726.303466796875 739.62451171875 308.8770751953125
v 315.7583312988281 2309.772705078125 264.81121826171875
v 166.97756958007812 2176.115478515625 264.8112487792969
v 166.97756958007812 2176.115478515625 368.56292724609375
v 315.7582702636719 2309.772705078125 368.56292724609375
v 2006.0587158203125 188.79685974121094 168.56329345703125
v 2095.3271484375 268.99127197265625 168.5632781982422
v 2291.590087890625 110.37588500976562 264.8116455078125
v 2142.809326171875 -23.2814998626709 264.8116149902344
v 2125.083251953125 295.7227783203125 210.03631591796875
v 2291.590087890625 110.37589263916016 368.56329345703125
v 2291.590087890625 110.37588500976562 264.8116455078125
v 1976.302490234375 162.0653839111328 210.0363311767578
v 2142.809326171875 -23.2814998626709 264.8116149902344
v 2142.809326171875 -23.281490325927734 368.56329345703125
v 861.7349243164062 1642.1644287109375 168.56304931640625
v 772.4664306640625 1561.969970703125 168.56304931640625
v 166.97756958007812 2176.115478515625 264.8112487792969
v 315.7583312988281 2309.772705078125 264.81121826171875
v 742.7102661132812 1535.238525390625 210.03610229492188
v 166.97756958007812 2176.115478515625 368.56292724609375
v 166.97756958007812 2176.115478515625 264.8112487792969
v 891.490966796875 1668.8958740234375 210.03610229492188
v 315.7583312988281 2309.772705078125 264.81121826171875
v 315.7582702636719 2309.772705078125 368.56292724609375
v 1934.938232421875 447.5281066894531 168.56326293945312
v 1845.669921875 367.3337097167969 168.56326293945312
v 1815.91357421875 340.60223388671875 209.1959991455078
v 903.0991821289062 1356.70166015625 209.1958465576172
v 1051.8798828125 1490.359130859375 209.19583129882812
v 1964.6944580078125 474.2596435546875 209.19601440429688
v 1977.3572998046875 393.7646484375 -380.2451477050781
v 2046.398681640625 316.91351318359375 -380.2451477050781
v 2044.9761962890625 290.35638427734375 -380.2451477050781
v 1990.193115234375 241.1434326171875 -380.2451477050781
v 1963.635986328125 242.5657958984375 -380.2451477050781
v 1894.5977783203125 319.4141845703125 -380.2451477050781
v 1896.0201416015625 345.9713134765625 -380.2451477050781
v 1950.80322265625 395.18426513671875 -380.2451477050781
v 772.4664306640625 1561.969970703125 168.56304931640625
v 769.4417724609375 1505.482421875 168.56304931640625
v 742.7102661132812 1535.238525390625 210.03610229492188
v 2006.0587158203125 188.79685974121094 168.56329345703125
v 1976.302490234375 162.0653839111328 210.0363311767578
v 1949.5712890625 191.82151794433594 168.56329345703125
v 861.7349243164062 1642.1644287109375 168.56304931640625
v 891.490966796875 1668.8958740234375 210.03610229492188
v 918.2225341796875 1639.1397705078125 168.5630645751953
v 2095.3271484375 268.99127197265625 168.5632781982422
v 2098.351806640625 325.4789123535156 168.5632781982422
v 2125.083251953125 295.7227783203125 210.03631591796875
v 1025.1483154296875 1520.115234375 168.56307983398438
v 1051.8798828125 1490.359130859375 209.19583129882812
v 1022.1236572265625 1463.6275634765625 168.56307983398438
v 1842.645263671875 310.8460998535156 168.56326293945312
v 1815.91357421875 340.60223388671875 209.1959991455078
v 1845.669921875 367.3337097167969 168.56326293945312
v 1991.4259033203125 444.5034484863281 168.56326293945312
v 1934.938232421875 447.5281066894531 168.56326293945312
v 1964.6944580078125 474.2596435546875 209.19601440429688
v 876.36767578125 1386.4578857421875 168.56307983398438
v 932.8552856445312 1383.4332275390625 168.56307983398438
v 903.0991821289062 1356.70166015625 209.1958465576172
v 1976.302490234375 162.0653839111328 210.0363311767578
v 2006.0587158203125 188.79685974121094 168.56329345703125
v 2142.809326171875 -23.2814998626709 264.8116149902344
v 2095.3271484375 268.99127197265625 168.5632781982422
v 2125.083251953125 295.7227783203125 210.03631591796875
v 2291.590087890625 110.37588500976562 264.8116455078125
v 891.490966796875 1668.8958740234375 210.03610229492188
v 861.7349243164062 1642.1644287109375 168.56304931640625
v 315.7583312988281 2309.772705078125 264.81121826171875
v 772.4664306640625 1561.969970703125 168.56304931640625
v 742.7102661132812 1535.238525390625 210.03610229492188
v 166.97756958007812 2176.115478515625 264.8112487792969
v 1260.5147705078125 1198.2626953125 268.5631408691406
v 1290.270751953125 1224.994140625 308.87701416015625
v 1726.303466796875 739.62451171875 308.8770751953125
v 1696.54736328125 712.8930053710938 268.56317138671875
v 1964.6944580078125 474.2596435546875 209.19601440429688
v 1934.938232421875 447.5281066894531 168.56326293945312
v 1607.27880859375 632.6986083984375 268.56317138671875
v 1577.5228271484375 605.9671020507812 308.8770751953125
v 1141.490234375 1091.3367919921875 308.8770446777344
v 1171.246337890625 1118.0682373046875 268.5631103515625
v 903.0991821289062 1356.70166015625 209.1958465576172
v 932.8552856445312 1383.4332275390625 168.56307983398438
v 1022.1236572265625 1463.6275634765625 168.56307983398438
v 1051.8798828125 1490.359130859375 209.19583129882812
v 1845.669921875 367.3337097167969 168.56326293945312
v 1815.91357421875 340.60223388671875 209.1959991455078
v 769.4417724609375 1505.482421875 168.56304931640625
v 876.36767578125 1386.4578857421875 168.56307983398438
v 1842.645263671875 310.8460998535156 168.56326293945312
v 1949.5712890625 191.82151794433594 168.56329345703125
v 2098.351806640625 325.4789123535156 168.5632781982422
v 1991.4259033203125 444.5034484863281 168.56326293945312
v 1025.1483154296875 1520.115234375 168.56307983398438
v 918.2225341796875 1639.1397705078125 168.5630645751953
v 2095.3271484375 268.99127197265625 168.5632781982422
v 2006.0587158203125 188.79685974121094 168.56329345703125
v 1997.0548095703125 214.31478881835938 168.56329345703125
v 2070.916748046875 280.6684875488281 168.5632781982422
v 1949.5712890625 191.82151794433594 168.56329345703125
v 1961.2484130859375 216.23207092285156 168.56329345703125
v 1842.645263671875 310.8460998535156 168.56326293945312
v 1868.1630859375 319.8498840332031 168.56326293945312
v 1845.669921875 367.3337097167969 168.56326293945312
v 1870.080322265625 355.6564636230469 168.56326293945312
v 1934.938232421875 447.5281066894531 168.56326293945312
v 1943.9420166015625 422.0102233886719 168.5632781982422
v 1991.4259033203125 444.5034484863281 168.56326293945312
v 1979.748779296875 420.0929260253906 168.5632781982422
v 2098.351806640625 325.4789123535156 168.5632781982422
v 2072.833984375 316.4750671386719 168.5632781982422
v 772.4664306640625 1561.969970703125 168.56304931640625
v 861.7349243164062 1642.1644287109375 168.56304931640625
v 870.7387084960938 1616.6466064453125 168.56304931640625
v 796.8770141601562 1550.2928466796875 168.56304931640625
v 918.2225341796875 1639.1397705078125 168.5630645751953
v 906.5452270507812 1614.729248046875 168.5630645751953
v 1025.1483154296875 1520.115234375 168.56307983398438
v 999.6304931640625 1511.1114501953125 168.5630645751953
v 1022.1236572265625 1463.6275634765625 168.56307983398438
v 997.7131958007812 1475.3048095703125 168.56307983398438
v 932.8552856445312 1383.4332275390625 168.56307983398438
v 923.8515014648438 1408.9510498046875 168.56307983398438
v 876.36767578125 1386.4578857421875 168.56307983398438
v 888.0448608398438 1410.868408203125 168.56307983398438
v 769.4417724609375 1505.482421875 168.56304931640625
v 794.959716796875 1514.4862060546875 168.56304931640625
v 2070.916748046875 280.6684875488281 168.5632781982422
v 1997.0548095703125 214.31478881835938 168.56329345703125
v 1990.193115234375 241.1434326171875 -380.2451477050781
v 2044.9761962890625 290.35638427734375 -380.2451477050781
v 1997.0548095703125 214.31478881835938 168.56329345703125
v 1961.2484130859375 216.23207092285156 168.56329345703125
v 1963.635986328125 242.5657958984375 -380.2451477050781
v 1990.193115234375 241.1434326171875 -380.2451477050781
v 1961.2484130859375 216.23207092285156 168.56329345703125
v 1868.1630859375 319.8498840332031 168.56326293945312
v 1894.5977783203125 319.4141845703125 -380.2451477050781
v 1963.635986328125 242.5657958984375 -380.2451477050781
v 1868.1630859375 319.8498840332031 168.56326293945312
v 1870.080322265625 355.6564636230469 168.56326293945312
v 1896.0201416015625 345.9713134765625 -380.2451477050781
v 1894.5977783203125 319.4141845703125 -380.2451477050781
v 1870.080322265625 355.6564636230469 168.56326293945312
v 1943.9420166015625 422.0102233886719 168.5632781982422
v 1950.80322265625 395.18426513671875 -380.2451477050781
v 1896.0201416015625 345.9713134765625 -380.2451477050781
v 1943.9420166015625 422.0102233886719 168.5632781982422
v 1979.748779296875 420.0929260253906 168.5632781982422
v 1977.3572998046875 393.7646484375 -380.2451477050781
v 1950.80322265625 395.18426513671875 -380.2451477050781
v 1979.748779296875 420.0929260253906 168.5632781982422
v 2072.833984375 316.4750671386719 168.5632781982422
v 2046.398681640625 316.91351318359375 -380.2451477050781
v 1977.3572998046875 393.7646484375 -380.2451477050781
v 2072.833984375 316.4750671386719 168.5632781982422
v 2070.916748046875 280.6684875488281 168.5632781982422
v 2044.9761962890625 290.35638427734375 -380.2451477050781
v 2046.398681640625 316.91351318359375 -380.2451477050781
v 870.7387084960938 1616.6466064453125 168.56304931640625
v 876.7083740234375 1593.3092041015625 -380.2453918457031
v 819.445068359375 1541.867919921875 -380.245361328125
v 796.8770141601562 1550.2928466796875 168.56304931640625
v 906.5452270507812 1614.729248046875 168.5630645751953
v 904.4678344726562 1591.822509765625 -380.2453918457031
v 876.7083740234375 1593.3092041015625 -380.2453918457031
v 870.7387084960938 1616.6466064453125 168.56304931640625
v 999.6304931640625 1511.1114501953125 168.5630645751953
v 976.6299438476562 1511.4915771484375 -380.245361328125
v 904.4678344726562 1591.822509765625 -380.2453918457031
v 906.5452270507812 1614.729248046875 168.5630645751953
v 997.7131958007812 1475.3048095703125 168.56307983398438
v 975.1432495117188 1483.7320556640625 -380.245361328125
v 976.6299438476562 1511.4915771484375 -380.245361328125
v 999.6304931640625 1511.1114501953125 168.5630645751953
v 923.8515014648438 1408.9510498046875 168.56307983398438
v 917.8823852539062 1432.2933349609375 -380.245361328125
v 975.1432495117188 1483.7320556640625 -380.245361328125
v 997.7131958007812 1475.3048095703125 168.56307983398438
v 888.0448608398438 1410.868408203125 168.56307983398438
v 890.1253051757812 1433.777587890625 -380.245361328125
v 917.8823852539062 1432.2933349609375 -380.245361328125
v 923.8515014648438 1408.9510498046875 168.56307983398438
v 794.959716796875 1514.4862060546875 168.56304931640625
v 817.9583740234375 1514.1083984375 -380.245361328125
v 890.1253051757812 1433.777587890625 -380.245361328125
v 888.0448608398438 1410.868408203125 168.56307983398438
v 796.8770141601562 1550.2928466796875 168.56304931640625
v 819.445068359375 1541.867919921875 -380.245361328125
v 817.9583740234375 1514.1083984375 -380.245361328125
v 794.959716796875 1514.4862060546875 168.56304931640625
v 932.8552856445312 1383.4332275390625 168.56307983398438
v 1022.1236572265625 1463.6275634765625 168.56307983398438
v -452.821044921875 -1695.23828125 282.83697509765625
v -517.8068237304688 -1796.118896484375 282.8369445800781
v -1063.4007568359375 -1444.655029296875 282.83685302734375
v -998.4153442382812 -1343.7747802734375 282.8369140625
v -539.4686889648438 -1829.7457275390625 323.1508483886719
v -539.4686889648438 -1829.7457275390625 382.8369445800781
v -1085.0628662109375 -1478.281982421875 382.83685302734375
v -1085.0628662109375 -1478.281982421875 323.1507568359375
v 205.6954803466797 -2309.76904296875 279.08538818359375
v 314.0049743652344 -2141.63525390625 279.0853576660156
v 314.00494384765625 -2141.63525390625 382.8370361328125
v 205.6954803466797 -2309.76904296875 382.8370666503906
v -976.7534790039062 -1310.14794921875 323.1507873535156
v -976.7534790039062 -1310.14794921875 382.8369140625
v -431.1592712402344 -1661.611572265625 382.83697509765625
v -431.15924072265625 -1661.611572265625 323.1508483886719
v -2183.27392578125 -532.925537109375 279.0850524902344
v -2291.583251953125 -701.0595703125 279.08502197265625
v -2291.583251953125 -701.0595092773438 382.83673095703125
v -2183.27392578125 -532.9254760742188 382.83673095703125
v -16.162382125854492 -2119.2705078125 182.8370361328125
v 48.823204040527344 -2018.3902587890625 182.8370361328125
v 314.0049743652344 -2141.63525390625 279.0853576660156
v 205.6954803466797 -2309.76904296875 279.08538818359375
v 70.48527526855469 -1984.7633056640625 224.31005859375
v 314.00494384765625 -2141.63525390625 382.8370361328125
v 314.0049743652344 -2141.63525390625 279.0853576660156
v -37.824195861816406 -2152.8974609375 224.31007385253906
v 205.6954803466797 -2309.76904296875 279.08538818359375
v 205.6954803466797 -2309.76904296875 382.8370666503906
v -1500.0595703125 -1020.6228637695312 182.83680725097656
v -1565.0452880859375 -1121.5035400390625 182.83680725097656
v -2291.583251953125 -701.0595703125 279.08502197265625
v -2183.27392578125 -532.925537109375 279.0850524902344
v -1586.7071533203125 -1155.1302490234375 224.3098602294922
v -2291.583251953125 -701.0595092773438 382.83673095703125
v -2291.583251953125 -701.0595703125 279.08502197265625
v -1478.397705078125 -986.9961547851562 224.3098602294922
v -2183.27392578125 -532.925537109375 279.0850524902344
v -2183.27392578125 -532.9254760742188 382.83673095703125
v -152.93760681152344 -1888.4188232421875 182.83700561523438
v -217.92318725585938 -1989.2991943359375 182.8369903564453
v -1363.2845458984375 -1251.4747314453125 182.8368377685547
v -1298.2987060546875 -1150.59423828125 182.8368377685547
v -239.5851593017578 -2022.9261474609375 223.46975708007812
v -1384.9464111328125 -1285.1015625 223.46958923339844
v -1276.6368408203125 -1116.967529296875 223.46957397460938
v -131.2758026123047 -1854.7919921875 223.46975708007812
v -97.84805297851562 -1929.1082763671875 -380.2451171875
v -11.000872611999512 -1985.0531005859375 -380.2451171875
v -5.3740668296813965 -2011.0477294921875 -380.2451171875
v -45.256378173828125 -2072.955810546875 -380.2451171875
v -71.24830627441406 -2078.580078125 -380.2451171875
v -158.09548950195312 -2022.6351318359375 -380.2451171875
v -163.7222900390625 -1996.640380859375 -380.2451171875
v -123.84246063232422 -1934.735107421875 -380.2451171875
v -1418.3702392578125 -1210.7840576171875 -380.2453308105469
v -1505.2174072265625 -1154.83935546875 -380.2453308105469
v -1510.84423828125 -1128.8447265625 -380.2453308105469
v -1470.96435546875 -1066.9393310546875 -380.2453308105469
v -1444.969970703125 -1061.3125 -380.2453308105469
v -1358.1226806640625 -1117.257080078125 -380.2453308105469
v -1352.495849609375 -1143.2515869140625 -380.2453308105469
v -1392.378173828125 -1205.159912109375 -380.2453308105469
v -1565.0452880859375 -1121.5035400390625 182.83680725097656
v -1553.080322265625 -1176.7921142578125 182.83682250976562
v -1586.7071533203125 -1155.1302490234375 224.3098602294922
v -16.162382125854492 -2119.2705078125 182.8370361328125
v -37.824195861816406 -2152.8974609375 224.31007385253906
v -71.4510269165039 -2131.235595703125 182.8370361328125
v -1500.0595703125 -1020.6228637695312 182.83680725097656
v -1478.397705078125 -986.9961547851562 224.3098602294922
v -1444.7708740234375 -1008.6580200195312 182.83680725097656
v 48.823204040527344 -2018.3902587890625 182.8370361328125
v 36.858360290527344 -1963.1014404296875 182.83702087402344
v 70.48527526855469 -1984.7633056640625 224.31005859375
v -1310.2637939453125 -1095.3056640625 182.83682250976562
v -1276.6368408203125 -1116.967529296875 223.46957397460938
v -1298.2987060546875 -1150.59423828125 182.8368377685547
v -205.95834350585938 -2044.588134765625 182.83700561523438
v -239.5851593017578 -2022.9261474609375 223.46975708007812
v -217.92318725585938 -1989.2991943359375 182.8369903564453
v -97.64886474609375 -1876.4539794921875 182.83700561523438
v -152.93760681152344 -1888.4188232421875 182.83700561523438
v -131.2758026123047 -1854.7919921875 223.46975708007812
v -1418.5732421875 -1263.4398193359375 182.8368377685547
v -1363.2845458984375 -1251.4747314453125 182.8368377685547
v -1384.9464111328125 -1285.1015625 223.46958923339844
v -37.824195861816406 -2152.8974609375 224.31007385253906
v -16.162382125854492 -2119.2705078125 182.8370361328125
v 205.6954803466797 -2309.76904296875 279.08538818359375
v 48.823204040527344 -2018.3902587890625 182.8370361328125
v 70.48527526855469 -1984.7633056640625 224.31005859375
v 314.0049743652344 -2141.63525390625 279.0853576660156
v -1478.397705078125 -986.9961547851562 224.3098602294922
v -1500.0595703125 -1020.6228637695312 182.83680725097656
v -2183.27392578125 -532.925537109375 279.0850524902344
v -1565.0452880859375 -1121.5035400390625 182.83680725097656
v -1586.7071533203125 -1155.1302490234375 224.3098602294922
v -2291.583251953125 -701.0595703125 279.08502197265625
v -998.4153442382812 -1343.7747802734375 282.8369140625
v -976.7534790039062 -1310.14794921875 323.1507873535156
v -431.15924072265625 -1661.611572265625 323.1508483886719
v -452.821044921875 -1695.23828125 282.83697509765625
v -131.2758026123047 -1854.7919921875 223.46975708007812
v -152.93760681152344 -1888.4188232421875 182.83700561523438
v -517.8068237304688 -1796.118896484375 282.8369445800781
v -539.4686889648438 -1829.7457275390625 323.1508483886719
v -1085.0628662109375 -1478.281982421875 323.1507568359375
v -1063.4007568359375 -1444.655029296875 282.83685302734375
v -1384.9464111328125 -1285.1015625 223.46958923339844
v -1363.2845458984375 -1251.4747314453125 182.8368377685547
v -1298.2987060546875 -1150.59423828125 182.8368377685547
v -1276.6368408203125 -1116.967529296875 223.46957397460938
v -217.92318725585938 -1989.2991943359375 182.8369903564453
v -239.5851593017578 -2022.9261474609375 223.46975708007812
v -1553.080322265625 -1176.7921142578125 182.83682250976562
v -1418.5732421875 -1263.4398193359375 182.8368377685547
v -205.95834350585938 -2044.588134765625 182.83700561523438
v -71.4510269165039 -2131.235595703125 182.8370361328125
v 36.858360290527344 -1963.1014404296875 182.83702087402344
v -97.64886474609375 -1876.4539794921875 182.83700561523438
v -1310.2637939453125 -1095.3056640625 182.83682250976562
v -1444.7708740234375 -1008.6580200195312 182.83680725097656
v 48.823204040527344 -2018.3902587890625 182.8370361328125
v -16.162382125854492 -2119.2705078125 182.8370361328125
v -31.571327209472656 -2097.026611328125 182.8370361328125
v 22.198606491088867 -2013.5570068359375 182.8370361328125
v -71.4510269165039 -2131.235595703125 182.8370361328125
v -66.61781311035156 -2104.61083984375 182.8370361328125
v -205.95834350585938 -2044.588134765625 182.83700561523438
v -183.71429443359375 -2029.17919921875 182.83700561523438
v -217.92318725585938 -1989.2991943359375 182.8369903564453
v -191.2985076904297 -1994.1324462890625 182.8369903564453
v -152.93760681152344 -1888.4188232421875 182.83700561523438
v -137.52867126464844 -1910.662841796875 182.83700561523438
v -97.64886474609375 -1876.4539794921875 182.83700561523438
v -102.48216247558594 -1903.07861328125 182.83700561523438
v 36.858360290527344 -1963.1014404296875 182.83702087402344
v 14.614306449890137 -1978.51025390625 182.83702087402344
v -1565.0452880859375 -1121.5035400390625 182.83680725097656
v -1500.0595703125 -1020.6228637695312 182.83680725097656
v -1484.6507568359375 -1042.8670654296875 182.83680725097656
v -1538.420654296875 -1126.3367919921875 182.83680725097656
v -1444.7708740234375 -1008.6580200195312 182.83680725097656
v -1449.6041259765625 -1035.28271484375 182.83680725097656
v -1310.2637939453125 -1095.3056640625 182.83682250976562
v -1332.5078125 -1110.71435546875 182.83682250976562
v -1298.2987060546875 -1150.59423828125 182.8368377685547
v -1324.9234619140625 -1145.760986328125 182.8368377685547
v -1363.2845458984375 -1251.4747314453125 182.8368377685547
v -1378.6932373046875 -1229.2305908203125 182.8368377685547
v -1418.5732421875 -1263.4398193359375 182.8368377685547
v -1413.739990234375 -1236.8150634765625 182.8368377685547
v -1553.080322265625 -1176.7921142578125 182.83682250976562
v -1530.836181640625 -1161.3831787109375 182.83682250976562
v 22.198606491088867 -2013.5570068359375 182.8370361328125
v -31.571327209472656 -2097.026611328125 182.8370361328125
v -45.256378173828125 -2072.955810546875 -380.2451171875
v -5.3740668296813965 -2011.0477294921875 -380.2451171875
v -31.571327209472656 -2097.026611328125 182.8370361328125
v -66.61781311035156 -2104.61083984375 182.8370361328125
v -71.24830627441406 -2078.580078125 -380.2451171875
v -45.256378173828125 -2072.955810546875 -380.2451171875
v -66.61781311035156 -2104.61083984375 182.8370361328125
v -183.71429443359375 -2029.17919921875 182.83700561523438
v -158.09548950195312 -2022.6351318359375 -380.2451171875
v -71.24830627441406 -2078.580078125 -380.2451171875
v -183.71429443359375 -2029.17919921875 182.83700561523438
v -191.2985076904297 -1994.1324462890625 182.8369903564453
v -163.7222900390625 -1996.640380859375 -380.2451171875
v -158.09548950195312 -2022.6351318359375 -380.2451171875
v -191.2985076904297 -1994.1324462890625 182.8369903564453
v -137.52867126464844 -1910.662841796875 182.83700561523438
v -123.84246063232422 -1934.735107421875 -380.2451171875
v -163.7222900390625 -1996.640380859375 -380.2451171875
v -137.52867126464844 -1910.662841796875 182.83700561523438
v -102.48216247558594 -1903.07861328125 182.83700561523438
v -97.84805297851562 -1929.1082763671875 -380.2451171875
v -123.84246063232422 -1934.735107421875 -380.2451171875
v -102.48216247558594 -1903.07861328125 182.83700561523438
v 14.614306449890137 -1978.51025390625 182.83702087402344
v -11.000872611999512 -1985.0531005859375 -380.2451171875
v -97.84805297851562 -1929.1082763671875 -380.2451171875
v 14.614306449890137 -1978.51025390625 182.83702087402344
v 22.198606491088867 -2013.5570068359375 182.8370361328125
v -5.3740668296813965 -2011.0477294921875 -380.2451171875
v -11.000872611999512 -1985.0531005859375 -380.2451171875
v -1538.420654296875 -1126.3367919921875 182.83680725097656
v -1484.6507568359375 -1042.8670654296875 182.83680725097656
v -1470.96435546875 -1066.9393310546875 -380.2453308105469
v -1510.84423828125 -1128.8447265625 -380.2453308105469
v -1484.6507568359375 -1042.8670654296875 182.83680725097656
v -1449.6041259765625 -1035.28271484375 182.83680725097656
v -1444.969970703125 -1061.3125 -380.2453308105469
v -1470.96435546875 -1066.9393310546875 -380.2453308105469
v -1449.6041259765625 -1035.28271484375 182.83680725097656
v -1332.5078125 -1110.71435546875 182.83682250976562
v -1358.1226806640625 -1117.257080078125 -380.2453308105469
v -1444.969970703125 -1061.3125 -380.2453308105469
v -1332.5078125 -1110.71435546875 182.83682250976562
v -1324.9234619140625 -1145.760986328125 182.8368377685547
v -1352.495849609375 -1143.2515869140625 -380.2453308105469
v -1358.1226806640625 -1117.257080078125 -380.2453308105469
v -1324.9234619140625 -1145.760986328125 182.8368377685547
v -1378.6932373046875 -1229.2305908203125 182.8368377685547
v -1392.378173828125 -1205.159912109375 -380.2453308105469
v -1352.495849609375 -1143.2515869140625 -380.2453308105469
v -1378.6932373046875 -1229.2305908203125 182.8368377685547
v -1413.739990234375 -1236.8150634765625 182.8368377685547
v -1418.3702392578125 -1210.7840576171875 -380.2453308105469
v -1392.378173828125 -1205.159912109375 -380.2453308105469
v -1413.739990234375 -1236.8150634765625 182.8368377685547
v -1530.836181640625 -1161.3831787109375 182.83682250976562
v -1505.2174072265625 -1154.83935546875 -380.2453308105469
v -1418.3702392578125 -1210.7840576171875 -380.2453308105469
v -1530.836181640625 -1161.3831787109375 182.83682250976562
v -1538.420654296875 -1126.3367919921875 182.83680725097656
v -1510.84423828125 -1128.8447265625 -380.2453308105469
v -1505.2174072265625 -1154.83935546875 -380.2453308105469
f 56 55 57
f 326 325 327
f 328 327 325
f 332 331 322
f 321 322 331
f 322 321 323
f 324 323 321
f 318 317 319
f 320 319 317
f 330 329 314
f 313 314 329
f 314 313 315
f 316 315 313
f 270 269 271
f 271 269 275
f 273 271 275
f 274 273 275
f 272 271 273
f 269 276 275
f 244 243 245
f 246 245 243
f 241 240 242
f 242 240 218
f 336 335 240
f 257 240 335
f 257 218 240
f 257 217 218
f 218 217 219
f 220 219 217
f 258 219 220
f 219 258 248
f 247 248 258
f 248 247 249
f 247 258 333
f 334 333 258
f 311 310 312
f 112 111 46
f 25 46 111
f 26 25 27
f 25 26 46
f 15 46 26
f 46 15 16
f 16 15 13
f 14 13 15
f 45 13 14
f 45 14 38
f 45 38 113
f 114 113 38
f 39 38 40
f 40 38 14
f 308 307 309
f 110 109 28
f 43 28 109
f 29 28 30
f 30 28 6
f 43 6 28
f 43 5 6
f 6 5 7
f 8 7 5
f 44 7 8
f 7 44 36
f 35 36 44
f 36 35 37
f 108 107 44
f 35 44 107
f 106 105 98
f 97 98 105
f 98 97 99
f 100 99 97
f 438 437 101
f 102 101 437
f 104 103 92
f 91 92 103
f 92 91 93
f 94 93 91
f 440 439 95
f 96 95 439
f 22 21 23
f 24 23 21
f 18 17 19
f 20 19 17
f 10 9 11
f 12 11 9
f 434 433 435
f 436 435 433
f 430 429 431
f 432 431 429
f 426 425 427
f 428 427 425
f 422 421 423
f 424 423 421
f 418 417 419
f 420 419 417
f 414 413 415
f 416 415 413
f 410 409 411
f 412 411 409
f 406 405 407
f 408 407 405
f 402 401 403
f 404 403 401
f 398 397 399
f 400 399 397
f 394 393 395
f 396 395 393
f 390 389 391
f 392 391 389
f 386 385 387
f 388 387 385
f 382 381 383
f 384 383 381
f 378 377 379
f 380 379 377
f 374 373 375
f 376 375 373
f 353 351 354
f 354 356 353
f 355 353 356
f 356 344 355
f 341 355 344
f 344 343 341
f 342 341 343
f 343 346 342
f 345 342 346
f 346 348 345
f 347 345 348
f 348 350 347
f 349 347 350
f 350 352 349
f 351 349 352
f 352 354 351
f 305 304 306
f 262 261 263
f 263 261 267
f 265 263 267
f 266 265 267
f 264 263 265
f 261 268 267
f 251 250 252
f 252 250 226
f 338 337 260
f 237 260 337
f 237 238 260
f 227 260 238
f 260 227 228
f 228 227 225
f 226 225 227
f 259 225 226
f 259 226 250
f 259 250 339
f 340 339 250
f 238 237 239
f 302 301 303
f 234 233 235
f 236 235 233
f 230 229 231
f 232 231 229
f 222 221 223
f 224 223 221
f 254 253 214
f 213 214 253
f 214 213 215
f 216 215 213
f 215 216 255
f 256 255 216
f 208 207 209
f 210 209 207
f 204 203 205
f 206 205 203
f 200 199 201
f 202 201 199
f 196 195 197
f 198 197 195
f 192 191 193
f 194 193 191
f 188 187 189
f 190 189 187
f 184 183 185
f 186 185 183
f 180 179 181
f 182 181 179
f 176 175 177
f 178 177 175
f 172 171 173
f 174 173 171
f 168 167 169
f 170 169 167
f 164 163 165
f 166 165 163
f 160 159 161
f 162 161 159
f 156 155 157
f 158 157 155
f 152 151 153
f 154 153 151
f 148 147 149
f 150 149 147
f 48 47 49
f 49 47 53
f 51 49 53
f 52 51 53
f 50 49 51
f 47 54 53
f 42 41 2
f 1 2 41
f 2 1 3
f 4 3 1
f 3 4 211
f 212 211 4
f 32 31 33
f 34 33 31
f 368 370 367
f 367 365 368
f 366 368 365
f 365 363 366
f 364 366 363
f 363 361 364
f 362 364 361
f 361 358 362
f 359 362 358
f 358 357 359
f 360 359 357
f 357 371 360
f 372 360 371
f 371 369 372
f 370 372 369
f 369 367 370
f 299 298 300
f 137 135 138
f 138 140 137
f 139 137 140
f 140 142 139
f 141 139 142
f 142 144 141
f 143 141 144
f 144 146 143
f 145 143 146
f 146 134 145
f 131 145 134
f 134 133 131
f 132 131 133
f 133 136 132
f 135 132 136
f 136 138 135
f 296 295 297
f 117 120 116
f 116 115 117
f 118 117 115
f 115 129 118
f 130 118 129
f 129 127 130
f 128 130 127
f 127 125 128
f 126 128 125
f 125 123 126
f 124 126 123
f 123 121 124
f 122 124 121
f 121 119 122
f 120 122 119
f 119 116 120
f 293 292 294
f 59 58 60
f 290 289 291
f 62 61 63
f 287 286 288
f 65 64 66
f 284 283 285
f 68 67 69
f 281 280 282
f 71 70 72
f 278 277 279
f 74 73 75
f 89 88 90
f 77 76 78
f 86 85 87
f 80 79 81
f 83 82 84
