# from FinancialDistrict_Block20_High-street (shop) (MC)_0002_LOD_0.pskx
v 400.02484130859375 1789.997314453125 -0.02499999850988388
v 299.974853515625 1789.997314453125 -0.025004373863339424
v 299.9748229980469 1789.997314453125 329.3900146484375
v -342.6751708984375 1789.997314453125 329.3899841308594
v 400.0248107910156 1789.9974365234375 800.0250244140625
v -342.6751708984375 1789.997314453125 -0.025032464414834976
v -400.0001525878906 1789.997314453125 -0.05003496631979942
v -400.0002136230469 1789.997314453125 800.0499267578125
v -400.0001525878906 1790.0223388671875 -0.025034969672560692
v -400.0000915527344 189.97232055664062 -0.024895092472434044
v -400.0002136230469 1790.0223388671875 800.0249633789062
v -400.0001525878906 189.97232055664062 800.0250854492188
v -400.0000915527344 189.997314453125 -0.04989509657025337
v -386.32757568359375 189.997314453125 -0.02489449642598629
v -386.32757568359375 189.997314453125 252.37510681152344
v -156.37762451171875 189.997314453125 252.37510681152344
v -24.1328067779541 189.997314453125 299.9751281738281
v 125.81719207763672 189.997314453125 299.97515869140625
v -400.0001525878906 189.997314453125 800.050048828125
v -156.37762451171875 189.997314453125 -0.02488444186747074
v 400.02490234375 189.997314453125 -0.024860119447112083
v -24.1328067779541 189.997314453125 100.0251235961914
v 400.0248718261719 189.9974365234375 800.025146484375
v 125.81719207763672 189.997314453125 100.0251235961914
v 400.0248107910156 1789.9722900390625 669.0
v -400.025146484375 1800.0223388671875 668.9999389648438
v 400.0248107910156 1800.0223388671875 669.0
v -400.025146484375 1789.9722900390625 668.9999389648438
v 400.0248107910156 1799.9749755859375 668.9888305664062
v -400.025146484375 1820.0196533203125 679.0111083984375
v 400.0248107910156 1820.0196533203125 679.0111694335938
v -400.025146484375 1799.9749755859375 668.98876953125
v 400.0248107910156 1819.997314453125 678.9749755859375
v -400.02520751953125 1819.997314453125 719.0249633789062
v 400.0248107910156 1819.9974365234375 719.0250244140625
v -400.025146484375 1819.997314453125 678.9749145507812
v 400.0248107910156 1820.019775390625 718.9888305664062
v -400.02520751953125 1799.9749755859375 729.0111083984375
v 400.0248107910156 1799.97509765625 729.0111694335938
v -400.02520751953125 1820.0196533203125 718.98876953125
v 400.0248107910156 1799.9974365234375 728.9749755859375
v -400.02520751953125 1799.997314453125 739.0249633789062
v 400.0248107910156 1799.9974365234375 739.0250244140625
v -400.02520751953125 1799.997314453125 728.9749145507812
v 400.0248107910156 1799.97509765625 738.9888305664062
v -400.02520751953125 1820.0196533203125 749.0111083984375
v 400.0248107910156 1820.019775390625 749.0111694335938
v -400.02520751953125 1799.9749755859375 738.98876953125
v 400.0248107910156 1819.9974365234375 748.9749755859375
v -400.02520751953125 1819.997314453125 789.0250244140625
v 400.0248107910156 1819.9974365234375 789.0250854492188
v -400.02520751953125 1819.997314453125 748.9749145507812
v 400.0248107910156 1820.019775390625 788.9888916015625
v -400.02520751953125 1799.9749755859375 799.0111083984375
v 400.0248107910156 1799.97509765625 799.0111694335938
v -400.02520751953125 1820.0196533203125 788.9888305664062
v 400.0248107910156 1800.0224609375 799.0
v -400.02520751953125 1779.9722900390625 798.9999389648438
v 400.0248107910156 1779.972412109375 799.0
v -400.02520751953125 1800.0223388671875 798.9999389648438
v -400.02508544921875 190.02230834960938 669.0000610351562
v 400.0248718261719 179.97232055664062 669.0001220703125
v -400.02508544921875 179.97232055664062 669.0000610351562
v 400.0248718261719 190.02230834960938 669.0001220703125
v -400.02508544921875 180.01966857910156 668.9888916015625
v 400.0248718261719 159.97508239746094 679.0112915039062
v -400.02508544921875 159.97508239746094 679.01123046875
v 400.0248718261719 180.01966857910156 668.9889526367188
v -400.02508544921875 159.9974365234375 678.9750366210938
v 400.0248718261719 159.99755859375 719.025146484375
v -400.025146484375 159.9974365234375 719.0250854492188
v 400.0248718261719 159.9974365234375 678.97509765625
v -400.025146484375 159.97508239746094 718.9888916015625
v 400.0248718261719 180.01979064941406 729.0112915039062
v -400.025146484375 180.01966857910156 729.01123046875
v 400.0248718261719 159.97520446777344 718.9889526367188
v -400.025146484375 179.997314453125 728.9750366210938
v 400.0248718261719 179.9974365234375 739.025146484375
v -400.025146484375 179.997314453125 739.0250854492188
v 400.0248718261719 179.9974365234375 728.97509765625
v -400.025146484375 180.01966857910156 738.9888916015625
v 400.0248718261719 159.97520446777344 749.0112915039062
v -400.025146484375 159.97508239746094 749.01123046875
v 400.0248718261719 180.01979064941406 738.9889526367188
v -400.025146484375 159.9974365234375 748.9750366210938
v 400.0248718261719 159.99755859375 789.0252075195312
v -400.025146484375 159.9974365234375 789.025146484375
v 400.0248718261719 159.99755859375 748.97509765625
v -400.025146484375 159.97508239746094 788.9889526367188
v 400.0248718261719 180.01979064941406 799.0112915039062
v -400.025146484375 180.01966857910156 799.01123046875
v 400.0248718261719 159.97520446777344 788.989013671875
v -400.025146484375 179.97232055664062 799.0000610351562
v 400.0248718261719 200.02243041992188 799.0001220703125
v -400.025146484375 200.02230834960938 799.0000610351562
v 400.0248718261719 179.97244262695312 799.0001220703125
v 399.99981689453125 1789.972412109375 668.9730834960938
v 399.99981689453125 1800.008544921875 668.95263671875
v 399.99981689453125 1820.033447265625 678.9776611328125
v 399.99981689453125 1820.0335693359375 719.0223388671875
v 399.99981689453125 1800.0335693359375 729.0223388671875
v 399.99981689453125 1800.0335693359375 738.9776611328125
v 399.99981689453125 1820.0335693359375 748.9776611328125
v 399.99981689453125 1820.0335693359375 789.0223999023438
v 399.99981689453125 1779.9725341796875 799.0230712890625
v 399.99981689453125 1800.0086669921875 799.04736328125
v -400.0001525878906 1820.033447265625 678.9776000976562
v -400.0001525878906 1800.008544921875 668.9525756835938
v -400.0001525878906 1789.972412109375 668.9730224609375
v -400.0002136230469 1820.033447265625 719.0222778320312
v -400.0002136230469 1800.033447265625 729.0222778320312
v -400.0002136230469 1820.033447265625 789.0223388671875
v -400.0002136230469 1820.033447265625 748.9776000976562
v -400.0002136230469 1800.033447265625 738.9776000976562
v -400.0002136230469 1779.972412109375 799.0230102539062
v -400.0002136230469 1800.008544921875 799.0473022460938
v -400.0000915527344 190.02224731445312 668.97314453125
v -400.0000915527344 179.9861297607422 668.9526977539062
v -400.0000915527344 159.9612579345703 678.9777221679688
v -400.0001525878906 159.9612579345703 719.0223999023438
v -400.0001525878906 179.9611358642578 729.0223999023438
v -400.0001525878906 179.9611358642578 738.9777221679688
v -400.0001525878906 159.9612579345703 748.9777221679688
v -400.0001525878906 159.9612579345703 789.0224609375
v -400.0001525878906 200.02224731445312 799.0231323242188
v -400.0001525878906 179.9861297607422 799.0474243164062
v 399.9998779296875 159.9612579345703 678.977783203125
v 399.9998779296875 179.9861297607422 668.9527587890625
v 399.9998779296875 190.02224731445312 668.9732055664062
v 399.9998779296875 159.9613800048828 719.0224609375
v 399.9998779296875 179.9612579345703 729.0224609375
v 399.9998779296875 159.9613800048828 789.0225219726562
v 399.9998779296875 159.9613800048828 748.977783203125
v 399.9998779296875 179.9612579345703 738.977783203125
v 399.9998779296875 200.02236938476562 799.023193359375
v 399.9998779296875 179.9862518310547 799.0474853515625
v -24.18280601501465 200.02230834960938 300.0001220703125
v 125.86719512939453 200.02230834960938 300.0001525878906
v -24.18280601501465 189.97232055664062 300.0001220703125
v 125.86719512939453 189.97232055664062 300.0001525878906
v -24.18280601501465 200.02230834960938 100.0001220703125
v -24.18280601501465 189.97232055664062 100.0001220703125
v 125.86719512939453 200.02230834960938 100.0001220703125
v 125.86719512939453 189.97232055664062 100.0001220703125
v -24.157806396484375 200.02230834960938 300.0251159667969
v -24.157806396484375 189.97232055664062 99.9751205444336
v -24.157806396484375 200.02230834960938 99.9751205444336
v -24.157806396484375 189.97232055664062 300.0251159667969
v 125.84219360351562 200.02230834960938 300.025146484375
v 125.84219360351562 200.02230834960938 99.9751205444336
v 125.84219360351562 189.97232055664062 99.9751205444336
v 125.84219360351562 189.97232055664062 300.025146484375
v -400.0002136230469 1790.0223388671875 799.9999389648438
v -400.02520751953125 1489.9722900390625 799.9999389648438
v 400.0248107910156 1790.0224609375 800.0
v 400.0248107910156 1489.9722900390625 800.0
v 1200.0250244140625 -1810.0277099609375 800.0003662109375
v 399.9748840332031 190.02243041992188 800.0001220703125
v 1200.02490234375 490.0224304199219 800.0001831054688
v -400.0250244140625 -1810.0277099609375 800.000244140625
v 399.9748840332031 490.0224304199219 800.0001220703125
v -400.025146484375 190.02230834960938 800.0000610351562
v -400.0250244140625 -1810.002685546875 799.9752197265625
v 1200.0250244140625 -1810.002685546875 799.975341796875
v -400.0250244140625 -1810.002685546875 1200.025390625
v 1200.0250244140625 -1810.00244140625 1200.025390625
v 1200.0 -1810.0277099609375 799.975341796875
v 1199.9998779296875 490.0224304199219 799.9751586914062
v 1200.0 -1810.0274658203125 1200.025390625
v 1199.9998779296875 490.0224304199219 1200.025146484375
v 400.0248107910156 1489.997314453125 799.9749755859375
v -400.02520751953125 1489.997314453125 799.9749145507812
v 400.0248107910156 1489.9974365234375 1200.0250244140625
v -400.02520751953125 1489.997314453125 1200.0250244140625
v 400.0248107910156 1479.99755859375 1220.025146484375
v -400.02520751953125 1479.99755859375 1189.9749755859375
v 400.0248107910156 1479.99755859375 1189.9749755859375
v -400.02520751953125 1479.99755859375 1220.025146484375
v 400.0248107910156 1479.9725341796875 1190.0
v -400.02520751953125 1520.0223388671875 1190.0
v 400.0248107910156 1520.0223388671875 1190.0
v -400.02520751953125 1479.9725341796875 1190.0
v 400.0248107910156 1519.997314453125 1189.9749755859375
v -400.02520751953125 1519.997314453125 1220.025146484375
v 400.0248107910156 1519.997314453125 1220.025146484375
v -400.02520751953125 1519.997314453125 1189.9749755859375
v 400.0248107910156 1520.0223388671875 1220.0001220703125
v -400.02520751953125 1479.9725341796875 1220.0001220703125
v 400.0248107910156 1479.9725341796875 1220.0001220703125
v -400.02520751953125 1520.0223388671875 1220.0001220703125
v 399.99981689453125 1479.9725341796875 1189.9749755859375
v 399.99981689453125 1520.0223388671875 1189.9749755859375
v 399.99981689453125 1479.9725341796875 1220.025146484375
v 399.99981689453125 1520.0223388671875 1220.025146484375
v -400.0002136230469 1479.9725341796875 1220.025146484375
v -400.0002136230469 1520.0223388671875 1189.9749755859375
v -400.0002136230469 1479.9725341796875 1189.9749755859375
v -400.0002136230469 1520.0223388671875 1220.025146484375
v 1200.0250244140625 -1810.0274658203125 1200.0003662109375
v 1200.02490234375 490.0224304199219 1200.0001220703125
v 1099.9749755859375 -1709.9774169921875 1200.0003662109375
v -400.0250244140625 -1810.0277099609375 1200.0003662109375
v 1099.974853515625 490.0224304199219 1200.0001220703125
v -400.0250244140625 -1709.9776611328125 1200.0003662109375
v -400.0250244140625 -1710.002685546875 1199.975341796875
v 1100.0250244140625 -1710.00244140625 1199.975341796875
v -400.02508544921875 -1710.00244140625 2800.025146484375
v 1100.02490234375 -1710.00244140625 2800.025146484375
v 1100.0 -1710.0274658203125 1199.975341796875
v 1099.9998779296875 490.0224304199219 1199.97509765625
v 1099.9998779296875 -1710.0274658203125 2800.02490234375
v 1099.999755859375 490.0225524902344 2800.024658203125
v 400.0248107910156 1489.9974365234375 1199.9749755859375
v -400.02520751953125 1489.997314453125 1199.9749755859375
v 400.02471923828125 1489.99755859375 2800.02490234375
v -400.0252685546875 1489.99755859375 2800.02490234375
v -400.025146484375 -1700.002685546875 2420.025146484375
v 1090.0247802734375 -1700.002685546875 2389.975341796875
v -400.025146484375 -1700.002685546875 2389.975341796875
v 1090.0247802734375 -1700.002685546875 2420.025146484375
v -400.025146484375 -1699.9776611328125 2390.000244140625
v 1130.017578125 -1740.009765625 2390.000244140625
v -400.02508544921875 -1740.0274658203125 2390.000244140625
v 1090.0174560546875 -1699.9599609375 2390.000244140625
v -400.02508544921875 -1740.00244140625 2389.975341796875
v 1130.02490234375 -1740.00244140625 2420.025146484375
v -400.02508544921875 -1740.00244140625 2420.025146484375
v 1130.02490234375 -1740.00244140625 2389.975341796875
v -400.02508544921875 -1740.0274658203125 2420.000244140625
v 1090.0174560546875 -1699.9599609375 2420.000244140625
v -400.025146484375 -1699.9776611328125 2420.000244140625
v 1130.017578125 -1740.009765625 2420.000244140625
v 1089.999755859375 -1700.0277099609375 2420.025146484375
v 1089.999755859375 490.0225524902344 2389.97509765625
v 1089.999755859375 -1700.0277099609375 2389.975341796875
v 1089.999755859375 490.0225524902344 2420.02490234375
v 1089.95703125 -1700.0203857421875 2390.000244140625
v 1130.0247802734375 490.0225524902344 2390.0
v 1130.0072021484375 -1740.0201416015625 2390.000244140625
v 1089.9747314453125 490.0225524902344 2390.0
v 1129.9998779296875 -1740.0274658203125 2389.975341796875
v 1129.999755859375 490.0225524902344 2420.02490234375
v 1129.9998779296875 -1740.0274658203125 2420.025146484375
v 1129.999755859375 490.0225524902344 2389.97509765625
v 1130.0072021484375 -1740.0201416015625 2420.000244140625
v 1089.9747314453125 490.0225524902344 2420.0
v 1089.95703125 -1700.0203857421875 2420.000244140625
v 1130.0247802734375 490.0225524902344 2420.0
v 400.0247497558594 1479.99755859375 2420.02490234375
v -400.0252685546875 1479.9974365234375 2389.97509765625
v 400.0247497558594 1479.99755859375 2389.97509765625
v -400.0252685546875 1479.9974365234375 2420.02490234375
v 400.0247497558594 1479.9725341796875 2390.0
v -400.0252685546875 1520.0224609375 2390.0
v 400.0247497558594 1520.0224609375 2390.0
v -400.0252685546875 1479.972412109375 2390.0
v 400.0247497558594 1519.9974365234375 2389.97509765625
v -400.0252685546875 1519.9974365234375 2420.02490234375
v 400.0247497558594 1519.9974365234375 2420.02490234375
v -400.0252685546875 1519.9974365234375 2389.97509765625
v 400.0247497558594 1520.0224609375 2420.0
v -400.0252685546875 1479.972412109375 2420.0
v 400.0247497558594 1479.9725341796875 2420.0
v -400.0252685546875 1520.0224609375 2420.0
v -400.0001525878906 -1699.9776611328125 2389.975341796875
v -400.0000915527344 -1740.0274658203125 2389.975341796875
v -400.0001525878906 -1699.9776611328125 2420.025146484375
v -400.0000915527344 -1740.0274658203125 2420.025146484375
v 1089.9747314453125 489.99755859375 2420.02490234375
v 1130.0247802734375 489.99755859375 2389.97509765625
v 1089.9747314453125 489.99755859375 2389.97509765625
v 1130.0247802734375 489.99755859375 2420.02490234375
v 399.999755859375 1479.9725341796875 2389.97509765625
v 399.999755859375 1520.0224609375 2389.97509765625
v 399.999755859375 1479.9725341796875 2420.02490234375
v 399.999755859375 1520.0224609375 2420.02490234375
v -400.0002746582031 1479.972412109375 2420.02490234375
v -400.0002746582031 1520.0224609375 2389.97509765625
v -400.0002746582031 1479.972412109375 2389.97509765625
v -400.0002746582031 1520.0224609375 2420.02490234375
v -400.02508544921875 -1700.002685546875 2020.025390625
v 1090.02490234375 -1700.002685546875 1989.9752197265625
v -400.02508544921875 -1700.002685546875 1989.9752197265625
v 1090.02490234375 -1700.002685546875 2020.025390625
v -400.02508544921875 -1699.9776611328125 1990.000244140625
v 1130.0177001953125 -1740.009765625 1990.0003662109375
v -400.0250244140625 -1740.0274658203125 1990.0003662109375
v 1090.017578125 -1699.9599609375 1990.000244140625
v -400.0250244140625 -1740.00244140625 1989.975341796875
v 1130.0250244140625 -1740.00244140625 2020.0255126953125
v -400.0250244140625 -1740.00244140625 2020.0255126953125
v 1130.0250244140625 -1740.00244140625 1989.975341796875
v -400.0250244140625 -1740.0274658203125 2020.00048828125
v 1090.017578125 -1699.9599609375 2020.0003662109375
v -400.02508544921875 -1699.9776611328125 2020.0003662109375
v 1130.0177001953125 -1740.009765625 2020.00048828125
v 1089.9998779296875 -1700.0277099609375 2020.025390625
v 1089.999755859375 490.0225524902344 1989.97509765625
v 1089.9998779296875 -1700.0277099609375 1989.9752197265625
v 1089.999755859375 490.0225524902344 2020.0252685546875
v 1089.9571533203125 -1700.0203857421875 1990.000244140625
v 1130.02490234375 490.0225524902344 1990.0001220703125
v 1130.00732421875 -1740.0201416015625 1990.0003662109375
v 1089.9747314453125 490.0225524902344 1990.0001220703125
v 1130.0 -1740.0274658203125 1989.975341796875
v 1129.9998779296875 490.0225524902344 2020.0252685546875
v 1130.0 -1740.0274658203125 2020.0255126953125
v 1129.9998779296875 490.0225524902344 1989.97509765625
v 1130.00732421875 -1740.0201416015625 2020.00048828125
v 1089.9747314453125 490.0225524902344 2020.000244140625
v 1089.9571533203125 -1700.0203857421875 2020.0003662109375
v 1130.02490234375 490.0225524902344 2020.000244140625
v 400.0247802734375 1479.9974365234375 2020.025146484375
v -400.02520751953125 1479.9974365234375 1989.9749755859375
v 400.0247802734375 1479.9974365234375 1989.9749755859375
v -400.02520751953125 1479.9974365234375 2020.025146484375
v 400.0247802734375 1479.972412109375 1990.0
v -400.02520751953125 1520.0224609375 1990.0
v 400.0247802734375 1520.0224609375 1990.0
v -400.02520751953125 1479.972412109375 1990.0
v 400.0247802734375 1519.9974365234375 1989.9749755859375
v -400.02520751953125 1519.9974365234375 2020.025146484375
v 400.0247497558594 1519.9974365234375 2020.025146484375
v -400.02520751953125 1519.9974365234375 1989.9749755859375
v 400.0247497558594 1520.0224609375 2020.0001220703125
v -400.02520751953125 1479.972412109375 2020.0001220703125
v 400.0247802734375 1479.972412109375 2020.0001220703125
v -400.02520751953125 1520.0224609375 2020.0001220703125
v -400.0000915527344 -1699.9776611328125 1989.9752197265625
v -400.0000305175781 -1740.0274658203125 1989.975341796875
v -400.0000915527344 -1699.9776611328125 2020.025390625
v -400.0000305175781 -1740.0274658203125 2020.0255126953125
v 1089.9747314453125 489.99755859375 2020.0252685546875
v 1130.02490234375 489.99755859375 1989.97509765625
v 1089.9747314453125 489.99755859375 1989.97509765625
v 1130.02490234375 489.99755859375 2020.0252685546875
v 399.9997863769531 1479.972412109375 1989.9749755859375
v 399.9997863769531 1520.0224609375 1989.9749755859375
v 399.9997863769531 1479.972412109375 2020.025146484375
v 399.999755859375 1520.0224609375 2020.025146484375
v -400.0002136230469 1479.972412109375 2020.025146484375
v -400.0002136230469 1520.0224609375 1989.9749755859375
v -400.0002136230469 1479.972412109375 1989.9749755859375
v -400.0002136230469 1520.0224609375 2020.025146484375
v -400.02508544921875 -1700.0029296875 1620.025390625
v 1090.02490234375 -1700.002685546875 1589.9752197265625
v -400.02508544921875 -1700.0029296875 1589.9752197265625
v 1090.02490234375 -1700.002685546875 1620.025390625
v -400.02508544921875 -1699.9779052734375 1590.000244140625
v 1130.0177001953125 -1740.009765625 1590.0003662109375
v -400.0250244140625 -1740.0277099609375 1590.0003662109375
v 1090.017578125 -1699.9599609375 1590.000244140625
v -400.0250244140625 -1740.002685546875 1589.975341796875
v 1130.0250244140625 -1740.00244140625 1620.0255126953125
v -400.0250244140625 -1740.002685546875 1620.0255126953125
v 1130.0250244140625 -1740.00244140625 1589.975341796875
v -400.0250244140625 -1740.0277099609375 1620.00048828125
v 1090.017578125 -1699.9599609375 1620.0003662109375
v -400.02508544921875 -1699.9779052734375 1620.0003662109375
v 1130.0177001953125 -1740.009765625 1620.00048828125
v 1089.9998779296875 -1700.0277099609375 1620.025390625
v 1089.999755859375 490.0224304199219 1589.97509765625
v 1089.9998779296875 -1700.0277099609375 1589.9752197265625
v 1089.999755859375 490.0224304199219 1620.0252685546875
v 1089.9571533203125 -1700.0203857421875 1590.000244140625
v 1130.02490234375 490.0224304199219 1590.0001220703125
v 1130.00732421875 -1740.0201416015625 1590.0003662109375
v 1089.9747314453125 490.0224304199219 1590.0001220703125
v 1130.0 -1740.0274658203125 1589.975341796875
v 1129.9998779296875 490.0224304199219 1620.0252685546875
v 1130.0 -1740.0274658203125 1620.0255126953125
v 1129.9998779296875 490.0224304199219 1589.97509765625
v 1130.00732421875 -1740.0201416015625 1620.00048828125
v 1089.9747314453125 490.0224304199219 1620.000244140625
v 1089.9571533203125 -1700.0203857421875 1620.0003662109375
v 1130.02490234375 490.0224304199219 1620.000244140625
v 400.0247802734375 1479.9974365234375 1620.025146484375
v -400.02520751953125 1479.997314453125 1589.9749755859375
v 400.0247802734375 1479.9974365234375 1589.9749755859375
v -400.02520751953125 1479.997314453125 1620.025146484375
v 400.0247802734375 1479.972412109375 1590.0
v -400.02520751953125 1520.0223388671875 1590.0
v 400.0247802734375 1520.0224609375 1590.0
v -400.02520751953125 1479.9722900390625 1590.0
v 400.0247802734375 1519.9974365234375 1589.9749755859375
v -400.02520751953125 1519.997314453125 1620.025146484375
v 400.0247802734375 1519.9974365234375 1620.025146484375
v -400.02520751953125 1519.997314453125 1589.9749755859375
v 400.0247802734375 1520.0224609375 1620.0001220703125
v -400.02520751953125 1479.9722900390625 1620.0001220703125
v 400.0247802734375 1479.972412109375 1620.0001220703125
v -400.02520751953125 1520.0223388671875 1620.0001220703125
v -400.0000915527344 -1699.9779052734375 1589.9752197265625
v -400.0000305175781 -1740.0277099609375 1589.975341796875
v -400.0000915527344 -1699.9779052734375 1620.025390625
v -400.0000305175781 -1740.0277099609375 1620.0255126953125
v 1089.9747314453125 489.9974365234375 1620.0252685546875
v 1130.02490234375 489.9974365234375 1589.97509765625
v 1089.9747314453125 489.9974365234375 1589.97509765625
v 1130.02490234375 489.9974365234375 1620.0252685546875
v 399.9997863769531 1479.972412109375 1589.9749755859375
v 399.9997863769531 1520.0224609375 1589.9749755859375
v 399.9997863769531 1479.972412109375 1620.025146484375
v 399.9997863769531 1520.0224609375 1620.025146484375
v -400.0002136230469 1479.9722900390625 1620.025146484375
v -400.0002136230469 1520.0223388671875 1589.9749755859375
v -400.0002136230469 1479.9722900390625 1589.9749755859375
v -400.0002136230469 1520.0223388671875 1620.025146484375
v 400.02471923828125 1790.0225830078125 2850.0
v -400.0252685546875 1790.0225830078125 2850.0
v 400.0247802734375 489.9725646972656 2850.0
v -400.02520751953125 489.9725646972656 2850.0
v 400.02471923828125 1790.0225830078125 2800.0
v 400.0247802734375 489.9725646972656 2800.0
v -400.0252685546875 1790.0225830078125 2800.0
v -400.02520751953125 489.9725646972656 2800.0
v 400.02471923828125 1789.99755859375 2850.02490234375
v -400.0252685546875 1789.99755859375 2799.97509765625
v -400.0252685546875 1789.99755859375 2850.02490234375
v 400.02471923828125 1789.99755859375 2799.97509765625
v -400.0002746582031 1790.0225830078125 2850.02490234375
v -400.0002136230469 489.9725646972656 2799.97509765625
v -400.0002136230469 489.9725646972656 2850.02490234375
v -400.0002746582031 1790.0225830078125 2799.97509765625
v -400.02520751953125 489.99755859375 2850.02490234375
v 400.0247802734375 489.99755859375 2799.97509765625
v 400.0247802734375 489.99755859375 2850.02490234375
v -400.02520751953125 489.99755859375 2799.97509765625
v 399.9997863769531 489.9725646972656 2850.02490234375
v 399.9997253417969 1790.0225830078125 2799.97509765625
v 399.9997253417969 1790.0225830078125 2850.02490234375
v 399.9997863769531 489.9725646972656 2799.97509765625
v -400.02520751953125 489.9725646972656 2800.0
v 400.0247802734375 489.9725646972656 2800.0
v 400.02471923828125 1490.0225830078125 2800.0
v -400.0252685546875 1490.0225830078125 2800.0
v 1200.02490234375 -1810.0274658203125 2800.000244140625
v 1099.974853515625 -1709.9774169921875 2800.000244140625
v 1200.0247802734375 490.0225524902344 2800.0
v -400.02508544921875 -1810.0274658203125 2800.000244140625
v 1099.9747314453125 490.0225524902344 2800.0
v -400.02508544921875 -1709.9774169921875 2800.000244140625
v -400.02508544921875 -1810.00244140625 2799.975341796875
v 1200.02490234375 -1810.00244140625 2799.975341796875
v -400.02508544921875 -1810.00244140625 3200.025146484375
v 1200.02490234375 -1810.00244140625 3200.025146484375
v 1199.9998779296875 -1810.0274658203125 2799.975341796875
v 1199.999755859375 490.0225524902344 2799.97509765625
v 1199.9998779296875 -1810.0274658203125 3200.025146484375
v 1199.999755859375 490.0226745605469 3200.02490234375
v 1200.0247802734375 489.99755859375 2799.97509765625
v -400.02520751953125 489.99755859375 2799.97509765625
v 1200.0247802734375 489.9976806640625 3200.02490234375
v -400.02520751953125 489.99755859375 3200.02490234375
v -400.02508544921875 -1800.002685546875 3210.02490234375
v 1190.02490234375 -1800.002685546875 3179.975341796875
v -400.02508544921875 -1800.002685546875 3179.975341796875
v 1190.02490234375 -1800.002685546875 3210.02490234375
v -400.02508544921875 -1799.9776611328125 3180.000244140625
v 1230.017578125 -1840.009765625 3180.000244140625
v -400.02508544921875 -1840.0274658203125 3180.000244140625
v 1190.017578125 -1799.9599609375 3180.000244140625
v -400.02508544921875 -1840.00244140625 3179.975341796875
v 1230.02490234375 -1840.00244140625 3210.02490234375
v -400.02508544921875 -1840.00244140625 3210.02490234375
v 1230.02490234375 -1840.00244140625 3179.975341796875
v -400.02508544921875 -1840.0274658203125 3210.0
v 1190.017578125 -1799.9599609375 3210.0
v -400.02508544921875 -1799.9776611328125 3210.0
v 1230.017578125 -1840.009765625 3210.0
v 1189.9998779296875 -1800.0277099609375 3210.02490234375
v 1189.999755859375 480.0226745605469 3179.97509765625
v 1189.9998779296875 -1800.0277099609375 3179.975341796875
v 1189.999755859375 480.0226745605469 3210.024658203125
v 1189.9571533203125 -1800.0203857421875 3180.000244140625
v 1230.007080078125 520.0152587890625 3180.0
v 1230.0072021484375 -1840.0201416015625 3180.000244140625
v 1189.95703125 480.0153503417969 3180.0
v 1229.9998779296875 -1840.0274658203125 3179.975341796875
v 1229.999755859375 520.0225830078125 3210.024658203125
v 1229.9998779296875 -1840.0274658203125 3210.02490234375
v 1229.999755859375 520.0225830078125 3179.97509765625
v 1230.0072021484375 -1840.0201416015625 3210.0
v 1189.95703125 480.0153503417969 3209.999755859375
v 1189.9571533203125 -1800.0203857421875 3210.0
v 1230.007080078125 520.0152587890625 3209.999755859375
v 1190.0247802734375 479.9976806640625 3210.024658203125
v -400.02520751953125 479.99755859375 3179.97509765625
v 1190.0247802734375 479.9976806640625 3179.97509765625
v -400.02520751953125 479.99755859375 3210.024658203125
v 1190.0174560546875 479.95501708984375 3180.0
v -400.02520751953125 520.0224609375 3180.0
v 1230.0174560546875 520.0048828125 3180.0
v -400.02520751953125 479.9725646972656 3180.0
v 1230.0247802734375 519.99755859375 3179.97509765625
v -400.02520751953125 519.9974365234375 3210.024658203125
v 1230.0247802734375 519.99755859375 3210.024658203125
v -400.02520751953125 519.9974365234375 3179.97509765625
v 1230.0174560546875 520.0048828125 3209.999755859375
v -400.02520751953125 479.9725646972656 3209.999755859375
v 1190.0174560546875 479.95501708984375 3209.999755859375
v -400.02520751953125 520.0224609375 3209.999755859375
v -400.0000915527344 -1799.9776611328125 3179.975341796875
v -400.0000915527344 -1840.0274658203125 3179.975341796875
v -400.0000915527344 -1799.9776611328125 3210.02490234375
v -400.0000915527344 -1840.0274658203125 3210.02490234375
v -400.0002136230469 479.9725646972656 3210.024658203125
v -400.0002136230469 520.0224609375 3179.97509765625
v -400.0002136230469 479.9725646972656 3179.97509765625
v -400.0002136230469 520.0224609375 3210.024658203125
v -400.02508544921875 -1810.0274658203125 3200.000244140625
v 1200.02490234375 -1810.0274658203125 3200.000244140625
v 1200.0247802734375 490.0226745605469 3200.0
v -400.02520751953125 490.0225524902344 3200.0
v 399.9750061035156 -1810.002685546875 -0.02468527853488922
v 1100.0 -1810.002685546875 -0.049654677510261536
v 399.9749755859375 -1810.002685546875 800.0253295898438
v 1100.0 -1810.002685546875 800.0503540039062
v 1200.0250244140625 -1810.002685546875 -0.02465030923485756
v 1200.0250244140625 -1810.002685546875 800.025390625
v 1200.0 -1810.0277099609375 -0.02465030923485756
v 1200.0 -1209.9776611328125 -0.024702763184905052
v 1200.0 -1209.9776611328125 254.9752960205078
v 1200.0 -1086.5277099609375 254.97528076171875
v 1200.0 -1810.0277099609375 800.025390625
v 1200.0 -1086.5277099609375 -0.024713555350899696
v 1199.9998779296875 490.0223083496094 -0.02485138177871704
v 1199.9998779296875 490.0224304199219 800.0252075195312
v 399.9999084472656 490.0223083496094 -0.024886354804039
v 400.0 -1810.0277099609375 -0.02468527853488922
v 399.9998779296875 490.0224304199219 800.025146484375
v 399.9999694824219 -1810.0277099609375 800.0253295898438
v 1099.9749755859375 -1809.9776611328125 669.0003662109375
v 1210.017822265625 -1820.009765625 669.0003662109375
v 1099.9749755859375 -1820.0274658203125 669.0003662109375
v 1200.0177001953125 -1809.9599609375 669.0003662109375
v 1099.9749755859375 -1819.9801025390625 668.9891967773438
v 1230.0186767578125 -1840.0101318359375 679.0040893554688
v 1099.9749755859375 -1840.0250244140625 679.0115356445312
v 1210.018798828125 -1819.9652099609375 668.9817504882812
v 1099.9749755859375 -1840.002685546875 678.975341796875
v 1230.0250244140625 -1840.002685546875 719.025390625
v 1099.9749755859375 -1840.002685546875 719.025390625
v 1230.0250244140625 -1840.002685546875 678.975341796875
v 1099.9749755859375 -1840.0250244140625 718.9891967773438
v 1210.0186767578125 -1819.9652099609375 729.0189819335938
v 1099.9749755859375 -1819.9801025390625 729.0115356445312
v 1230.0186767578125 -1840.0101318359375 718.9966430664062
v 1099.9749755859375 -1820.00244140625 728.975341796875
v 1210.0250244140625 -1820.00244140625 739.025390625
v 1099.9749755859375 -1820.00244140625 739.025390625
v 1210.0250244140625 -1820.00244140625 728.975341796875
v 1099.9749755859375 -1819.9801025390625 738.9891967773438
v 1230.0186767578125 -1840.0101318359375 749.0040893554688
v 1099.9749755859375 -1840.0250244140625 749.0115356445312
v 1210.0186767578125 -1819.9652099609375 738.9817504882812
v 1099.9749755859375 -1840.002685546875 748.975341796875
v 1230.0250244140625 -1840.002685546875 789.0254516601562
v 1099.9749755859375 -1840.002685546875 789.0254516601562
v 1230.0250244140625 -1840.002685546875 748.975341796875
v 1099.9749755859375 -1840.0250244140625 788.9892578125
v 1210.0186767578125 -1819.9652099609375 799.0189819335938
v 1099.9749755859375 -1819.9801025390625 799.0115356445312
v 1230.0186767578125 -1840.0101318359375 788.9967041015625
v 1099.9749755859375 -1820.0274658203125 799.0003662109375
v 1190.0177001953125 -1799.960205078125 799.0003662109375
v 1099.9749755859375 -1799.9779052734375 799.0003662109375
v 1210.0177001953125 -1820.009765625 799.0003662109375
v 1199.957275390625 -1810.0203857421875 669.0003662109375
v 1210.0250244140625 490.0224304199219 669.0001831054688
v 1210.0074462890625 -1820.0201416015625 669.0003662109375
v 1199.974853515625 490.0224304199219 669.0001831054688
v 1209.962890625 -1820.0211181640625 668.9817504882812
v 1230.022216796875 490.0224304199219 679.0113525390625
v 1230.0074462890625 -1840.0213623046875 679.0040893554688
v 1209.9776611328125 490.0224304199219 668.989013671875
v 1230.0 -1840.0277099609375 678.975341796875
v 1229.9998779296875 490.0224304199219 719.0252075195312
v 1230.0 -1840.0277099609375 719.025390625
v 1229.9998779296875 490.0224304199219 678.9751586914062
v 1230.0074462890625 -1840.0213623046875 718.9966430664062
v 1209.9775390625 490.0224304199219 729.0113525390625
v 1209.9627685546875 -1820.0211181640625 729.0189819335938
v 1230.022216796875 490.0224304199219 718.989013671875
v 1210.0 -1820.0274658203125 728.975341796875
v 1209.9998779296875 490.0224304199219 739.0252075195312
v 1210.0 -1820.0274658203125 739.025390625
v 1209.9998779296875 490.0224304199219 728.9751586914062
v 1209.9627685546875 -1820.0211181640625 738.9817504882812
v 1230.022216796875 490.0224304199219 749.0113525390625
v 1230.0074462890625 -1840.0213623046875 749.0040893554688
v 1209.9775390625 490.0224304199219 738.989013671875
v 1230.0 -1840.0277099609375 748.975341796875
v 1229.9998779296875 490.0224304199219 789.0252685546875
v 1230.0 -1840.0277099609375 789.0254516601562
v 1229.9998779296875 490.0224304199219 748.9751586914062
v 1230.0074462890625 -1840.0213623046875 788.9967041015625
v 1209.9775390625 490.0224304199219 799.0113525390625
v 1209.9627685546875 -1820.0211181640625 799.0189819335938
v 1230.022216796875 490.0224304199219 788.9890747070312
v 1210.00732421875 -1820.0201416015625 799.0003662109375
v 1189.974853515625 490.0224304199219 799.0001831054688
v 1189.957275390625 -1800.0206298828125 799.0003662109375
v 1210.02490234375 490.0224304199219 799.0001831054688
v 400.0248718261719 490.0223083496094 669.0001220703125
v 389.9749755859375 -1810.0277099609375 669.0003051757812
v 389.9748840332031 490.0223083496094 669.0001220703125
v 400.02496337890625 -1810.0277099609375 669.0003051757812
v 390.0222473144531 490.0223083496094 668.9889526367188
v 369.97760009765625 -1810.0277099609375 679.011474609375
v 369.9775085449219 490.0223083496094 679.0112915039062
v 390.0223388671875 -1810.0277099609375 668.9891357421875
v 369.9998779296875 490.0223083496094 678.97509765625
v 369.9999694824219 -1810.0277099609375 719.0253295898438
v 369.9998779296875 490.0224304199219 719.025146484375
v 369.9999694824219 -1810.0277099609375 678.9752807617188
v 369.9775085449219 490.0224304199219 718.9889526367188
v 390.0223388671875 -1810.0277099609375 729.011474609375
v 390.0222473144531 490.0224304199219 729.0112915039062
v 369.97760009765625 -1810.0277099609375 718.9891357421875
v 389.9998779296875 490.0224304199219 728.97509765625
v 389.9999694824219 -1810.0277099609375 739.0253295898438
v 389.9998779296875 490.0224304199219 739.025146484375
v 389.9999694824219 -1810.0277099609375 728.9752807617188
v 390.0222473144531 490.0224304199219 738.9889526367188
v 369.97760009765625 -1810.0277099609375 749.011474609375
v 369.9775085449219 490.0224304199219 749.0112915039062
v 390.0223388671875 -1810.0277099609375 738.9891357421875
v 369.9998779296875 490.0224304199219 748.97509765625
v 369.9999694824219 -1810.0277099609375 789.025390625
v 369.9998779296875 490.0224304199219 789.0252075195312
v 369.9999694824219 -1810.0277099609375 748.9752807617188
v 369.9775085449219 490.0224304199219 788.989013671875
v 390.0223388671875 -1810.0277099609375 799.011474609375
v 390.0222473144531 490.0224304199219 799.0112915039062
v 369.97760009765625 -1810.0277099609375 788.9891967773438
v 389.9748840332031 490.0224304199219 799.0001220703125
v 410.02496337890625 -1810.0277099609375 799.0003051757812
v 410.0248718261719 490.0224304199219 799.0001220703125
v 389.9749755859375 -1810.0277099609375 799.0003051757812
v 1100.0 -1809.977783203125 668.9734497070312
v 1100.0 -1820.013671875 668.9530029296875
v 1100.0 -1840.038818359375 678.97802734375
v 1100.0 -1840.038818359375 719.022705078125
v 1100.0 -1820.03857421875 729.022705078125
v 1100.0 -1820.03857421875 738.97802734375
v 1100.0 -1840.038818359375 748.97802734375
v 1100.0 -1840.038818359375 789.0227661132812
v 1100.0 -1799.97802734375 799.0234375
v 1100.0 -1820.013671875 799.0477294921875
v 1230.0360107421875 489.9974365234375 678.9778442382812
v 1210.01123046875 489.9974365234375 668.9528198242188
v 1199.9749755859375 489.9974365234375 668.9732666015625
v 1230.0360107421875 489.9974365234375 719.0225219726562
v 1210.0360107421875 489.9974365234375 729.0225219726562
v 1230.0360107421875 489.9974365234375 789.0225830078125
v 1230.0360107421875 489.9974365234375 748.9778442382812
v 1210.0360107421875 489.9974365234375 738.9778442382812
v 1189.9749755859375 489.9974365234375 799.0232543945312
v 1210.0111083984375 489.9974365234375 799.0475463867188
v 400.0248107910156 489.997314453125 668.9732055664062
v 389.98870849609375 489.997314453125 668.9527587890625
v 369.96368408203125 489.997314453125 678.977783203125
v 369.96368408203125 489.9974365234375 719.0224609375
v 389.96368408203125 489.9974365234375 729.0224609375
v 389.96368408203125 489.9974365234375 738.977783203125
v 369.96368408203125 489.9974365234375 748.977783203125
v 369.96368408203125 489.9974365234375 789.0225219726562
v 410.0248107910156 489.9974365234375 799.023193359375
v 389.98870849609375 489.9974365234375 799.0474853515625
v 369.9637756347656 -1810.002685546875 678.9779663085938
v 389.9888000488281 -1810.002685546875 668.9529418945312
v 400.02490234375 -1810.002685546875 668.973388671875
v 369.9637756347656 -1810.002685546875 719.0226440429688
v 389.9637756347656 -1810.002685546875 729.0226440429688
v 369.9637756347656 -1810.002685546875 789.022705078125
v 369.9637756347656 -1810.002685546875 748.9779663085938
v 389.9637756347656 -1810.002685546875 738.9779663085938
v 410.02490234375 -1810.002685546875 799.0233764648438
v 389.9888000488281 -1810.002685546875 799.0476684570312
v 400.02496337890625 -1010.002685546875 -0.024755215272307396
v 258.1292724609375 -1010.002685546875 -0.024761419743299484
v 258.1292419433594 -1010.002685546875 200.93524169921875
v 154.08924865722656 -1010.002685546875 200.9352264404297
v 400.0249328613281 -1010.002685546875 800.0252685546875
v 154.08926391601562 -1010.002685546875 -0.024765964597463608
v -0.02503051608800888 -1010.002685546875 -0.024772703647613525
v -0.02506103552877903 -1010.002685546875 800.0252685546875
v -3.0517578125e-05 -1009.9776611328125 -0.024772701784968376
v 1.907348723406699e-09 -1810.0277099609375 -0.024702763184905052
v -6.103706255089492e-05 -1009.9776611328125 800.0252685546875
v -3.0517578125e-05 -1810.0277099609375 800.0253295898438
v 400.0249328613281 -1010.0277099609375 670.000244140625
v -10.017738342285156 -999.995361328125 670.000244140625
v 400.0249328613281 -999.9776611328125 670.000244140625
v -0.0177387036383152 -1010.0453491210938 670.000244140625
v 400.0249328613281 -1000.0250244140625 669.9890747070312
v -30.018726348876953 -979.9952392578125 680.0039672851562
v 400.0249328613281 -979.9803466796875 680.0114135742188
v -10.018694877624512 -1000.0399780273438 669.9816284179688
v 400.0249328613281 -980.002685546875 679.9752197265625
v -30.02509117126465 -980.002685546875 720.0252685546875
v 400.0249328613281 -980.002685546875 720.0252685546875
v -30.02509117126465 -980.002685546875 679.9752197265625
v 400.0249328613281 -979.9803466796875 719.9890747070312
v -10.018694877624512 -1000.0399780273438 730.0188598632812
v 400.0249328613281 -1000.0250244140625 730.0114135742188
v -30.018726348876953 -979.9952392578125 719.9965209960938
v 400.0249328613281 -1000.002685546875 729.9752197265625
v -10.025060653686523 -1000.002685546875 740.0252075195312
v 400.0249328613281 -1000.002685546875 740.0252075195312
v -10.025060653686523 -1000.002685546875 729.9752197265625
v 400.0249328613281 -1000.0250244140625 739.989013671875
v -30.018726348876953 -979.9952392578125 750.0039672851562
v 400.0249328613281 -979.9803466796875 750.0114135742188
v -10.018694877624512 -1000.0399780273438 739.9815673828125
v 400.0249328613281 -980.002685546875 749.9752197265625
v -30.02509117126465 -980.002685546875 790.0252075195312
v 400.0249328613281 -980.002685546875 790.0252075195312
v -30.02509117126465 -980.002685546875 749.9752197265625
v 400.0249328613281 -979.9803466796875 789.989013671875
v -10.018694877624512 -1000.0399780273438 800.0188598632812
v 400.0249328613281 -1000.0250244140625 800.0114135742188
v -30.018726348876953 -979.9952392578125 789.9964599609375
v 400.0249328613281 -999.9776611328125 800.000244140625
v 9.982261657714844 -1020.0453491210938 800.000244140625
v 400.0249328613281 -1020.0277099609375 800.000244140625
v -10.017738342285156 -999.995361328125 800.000244140625
v 0.04261663556098938 -1009.9849853515625 670.000244140625
v -10.025030136108398 -1810.0277099609375 670.0003051757812
v -10.007383346557617 -999.9849853515625 670.000244140625
v 0.02496948279440403 -1810.0277099609375 670.0003051757812
v -9.962793350219727 -999.9840698242188 669.9816284179688
v -30.02242088317871 -1810.0277099609375 680.011474609375
v -30.007545471191406 -979.9840698242188 680.0039672851562
v -9.977669715881348 -1810.0277099609375 669.9891357421875
v -30.000091552734375 -979.9776611328125 679.9752197265625
v -30.00006103515625 -1810.0277099609375 720.0253295898438
v -30.000091552734375 -979.9776611328125 720.0252685546875
v -30.00006103515625 -1810.0277099609375 679.9752807617188
v -30.007545471191406 -979.9840698242188 719.9965209960938
v -9.977669715881348 -1810.0277099609375 730.011474609375
v -9.962793350219727 -999.9840698242188 730.0188598632812
v -30.02242088317871 -1810.0277099609375 719.9891357421875
v -10.00006103515625 -999.9776611328125 729.9752197265625
v -10.000030517578125 -1810.0277099609375 740.0252685546875
v -10.00006103515625 -999.9776611328125 740.0252075195312
v -10.000030517578125 -1810.0277099609375 729.9752807617188
v -9.962793350219727 -999.9840698242188 739.9815673828125
v -30.02242088317871 -1810.0277099609375 750.011474609375
v -30.007545471191406 -979.9840698242188 750.0039672851562
v -9.977669715881348 -1810.0277099609375 739.9890747070312
v -30.000091552734375 -979.9776611328125 749.9752197265625
v -30.00006103515625 -1810.0277099609375 790.0252685546875
v -30.000091552734375 -979.9776611328125 790.0252075195312
v -30.00006103515625 -1810.0277099609375 749.9752807617188
v -30.007545471191406 -979.9840698242188 789.9964599609375
v -9.977669715881348 -1810.0277099609375 800.011474609375
v -9.962793350219727 -999.9840698242188 800.0188598632812
v -30.02242088317871 -1810.0277099609375 789.9890747070312
v -10.007383346557617 -999.9849853515625 800.000244140625
v 10.024969100952148 -1810.0277099609375 800.0003051757812
v 10.042616844177246 -1019.9849853515625 800.000244140625
v -10.025030136108398 -1810.0277099609375 800.0003051757812
v 399.99993896484375 -1010.027587890625 669.9733276367188
v 399.99993896484375 -999.9915161132812 669.952880859375
v 399.99993896484375 -979.9664916992188 679.9779052734375
v 399.99993896484375 -979.9664916992188 720.0225830078125
v 399.99993896484375 -999.9664916992188 730.0225830078125
v 399.99993896484375 -999.9664916992188 739.9778442382812
v 399.99993896484375 -979.9664916992188 749.9779052734375
v 399.99993896484375 -979.9664916992188 790.0225219726562
v 399.99993896484375 -1020.027587890625 800.0233154296875
v 399.99993896484375 -999.9915161132812 800.047607421875
v -30.03624153137207 -1810.002685546875 679.9779663085938
v -10.011210441589355 -1810.002685546875 669.9529418945312
v 0.024895844981074333 -1810.002685546875 669.973388671875
v -30.03624153137207 -1810.002685546875 720.0226440429688
v -10.036211013793945 -1810.002685546875 730.0226440429688
v -30.03624153137207 -1810.002685546875 790.0225830078125
v -30.03624153137207 -1810.002685546875 749.9779663085938
v -10.036211013793945 -1810.002685546875 739.9779052734375
v 10.024895668029785 -1810.002685546875 800.0233764648438
v -10.011210441589355 -1810.002685546875 800.0476684570312
v -800.025146484375 1789.997314453125 -0.025052450597286224
v -425.025146484375 1789.997314453125 10.02496337890625
v -425.025146484375 1789.997314453125 267.9749450683594
v -647.97509765625 1789.997314453125 267.97491455078125
v -800.025146484375 1789.997314453125 800.0249633789062
v -647.97509765625 1789.997314453125 10.024953842163086
v -799.9835205078125 1790.0159912109375 -0.025052454322576523
v -1200.0167236328125 1339.978515625 -0.02503059431910515
v -799.9835205078125 1790.0159912109375 800.0249633789062
v -1200.0167236328125 1339.9786376953125 800.0250244140625
v -1200.0001220703125 1340.0223388671875 -0.025030596181750298
v -1200.0 189.97219848632812 -0.024930056184530258
v -1200.0001220703125 949.9722900390625 20.02500343322754
v -1200.0001220703125 949.9722900390625 385.9750061035156
v -1200.0001220703125 485.0223083496094 385.9750671386719
v -1200.0001220703125 1340.0223388671875 800.0250244140625
v -1200.0 189.97232055664062 800.0250854492188
v -1200.0001220703125 485.0221862792969 20.025043487548828
v -1200.0250244140625 189.9971923828125 -0.024930065497756004
v -649.9749755859375 189.997314453125 100.02509307861328
v -649.9749755859375 189.997314453125 299.97509765625
v -500.02508544921875 189.997314453125 299.9751281738281
v -1200.0250244140625 189.997314453125 800.0250854492188
v -500.02508544921875 189.997314453125 100.02510070800781
v -400.0000915527344 189.97232055664062 -0.024895092472434044
v -400.0001525878906 1790.0223388671875 -0.025034969672560692
v -400.0001525878906 189.97232055664062 800.0250854492188
v -400.0002136230469 1790.0223388671875 800.0249633789062
v -399.9995422363281 1789.997314453125 668.9999389648438
v -804.5130615234375 1800.0120849609375 668.9999389648438
v -399.97515869140625 1800.0223388671875 668.9999389648438
v -800.02294921875 1789.9620361328125 668.9999389648438
v -399.97515869140625 1799.9749755859375 668.98876953125
v -813.4952392578125 1820.0113525390625 679.0069580078125
v -399.97515869140625 1820.0196533203125 679.0111083984375
v -804.5140380859375 1799.9666748046875 668.984619140625
v -399.97515869140625 1819.997314453125 678.9749145507812
v -813.4970703125 1819.997314453125 719.0249633789062
v -399.9752197265625 1819.997314453125 719.0249633789062
v -813.4970703125 1819.997314453125 678.9749145507812
v -399.99884033203125 1819.997314453125 718.9999389648438
v -804.5126342773438 1799.9666748046875 729.0152587890625
v -399.9752197265625 1799.9749755859375 729.0111083984375
v -813.4952392578125 1820.0113525390625 718.992919921875
v -399.9752197265625 1799.997314453125 728.9749145507812
v -804.515869140625 1799.997314453125 739.0249633789062
v -399.9752197265625 1799.997314453125 739.0249633789062
v -804.515869140625 1799.997314453125 728.9749145507812
v -399.9988708496094 1799.997314453125 738.9999389648438
v -813.493896484375 1820.0113525390625 749.0069580078125
v -399.9752197265625 1820.0196533203125 749.0111083984375
v -804.5140380859375 1799.9666748046875 738.984619140625
v -399.9752197265625 1819.997314453125 748.9749145507812
v -813.4970703125 1819.997314453125 789.0250244140625
v -399.9752197265625 1819.997314453125 789.0250244140625
v -813.4970703125 1819.997314453125 748.9749145507812
v -399.99884033203125 1819.997314453125 789.0
v -804.5126342773438 1799.9666748046875 799.0152587890625
v -399.9752197265625 1799.9749755859375 799.0111083984375
v -813.4952392578125 1820.0113525390625 788.9929809570312
v -399.9752197265625 1800.0223388671875 798.9999389648438
v -795.5322265625 1779.9620361328125 798.9999389648438
v -399.9752197265625 1779.9722900390625 798.9999389648438
v -804.513671875 1800.0120849609375 798.9999389648438
v -799.9998168945312 1789.9976806640625 668.9999389648438
v -1210.0274658203125 1343.7928466796875 669.0
v -804.4866943359375 1800.024169921875 668.9999389648438
v -1199.9903564453125 1339.9573974609375 669.0
v -804.4525146484375 1799.9942626953125 668.984619140625
v -1230.027099609375 1351.395751953125 679.007568359375
v -813.4671020507812 1820.02392578125 679.0069580078125
v -1209.9937744140625 1343.761962890625 668.9852294921875
v -813.4554443359375 1820.0159912109375 678.9749145507812
v -1230.0166015625 1351.3846435546875 719.0250244140625
v -813.4554443359375 1820.0159912109375 719.0249633789062
v -1230.0166015625 1351.3846435546875 678.9749755859375
v -813.4671020507812 1820.02392578125 718.992919921875
v -1209.9937744140625 1343.761962890625 729.0147705078125
v -804.4525146484375 1799.9942626953125 729.0152587890625
v -1230.027099609375 1351.395751953125 718.992431640625
v -804.4742431640625 1800.0159912109375 728.9749145507812
v -1210.0167236328125 1343.7806396484375 739.0250244140625
v -804.4742431640625 1800.0159912109375 739.0249633789062
v -1210.0167236328125 1343.7806396484375 728.9749755859375
v -804.4525146484375 1799.9942626953125 738.984619140625
v -1230.027099609375 1351.395751953125 749.007568359375
v -813.4671020507812 1820.02392578125 749.0069580078125
v -1209.9937744140625 1343.761962890625 738.9852294921875
v -813.4554443359375 1820.0159912109375 748.9749145507812
v -1230.0166015625 1351.3846435546875 789.0250854492188
v -813.4554443359375 1820.0159912109375 789.0250244140625
v -1230.0166015625 1351.3846435546875 748.9749755859375
v -813.4671020507812 1820.02392578125 788.9929809570312
v -1209.9937744140625 1343.761962890625 799.0147705078125
v -804.4525146484375 1799.9942626953125 799.0152587890625
v -1230.027099609375 1351.395751953125 788.9924926757812
v -804.4866943359375 1800.024169921875 798.9999389648438
v -1189.9903564453125 1336.1553955078125 799.0
v -795.4678955078125 1779.990966796875 798.9999389648438
v -1210.0277099609375 1343.7926025390625 799.0
v -1200.0001220703125 1339.99755859375 669.0
v -1210.00732421875 179.9798583984375 669.0000610351562
v -1210.0162353515625 1343.8226318359375 669.0
v -1199.957275390625 189.97962951660156 669.0000610351562
v -1209.9705810546875 1343.822998046875 668.9852294921875
v -1230.00732421875 159.9788055419922 679.0037841796875
v -1230.01513671875 1351.427001953125 679.007568359375
v -1209.9627685546875 179.9786834716797 668.9814453125
v -1230.0 1351.4283447265625 678.9749755859375
v -1229.9998779296875 159.97244262695312 719.0250854492188
v -1230.0 1351.4283447265625 719.0250244140625
v -1229.9998779296875 159.97244262695312 678.9750366210938
v -1230.01513671875 1351.427001953125 718.992431640625
v -1209.9627685546875 179.9786834716797 729.0186767578125
v -1209.9705810546875 1343.822998046875 729.0147705078125
v -1230.00732421875 159.9788055419922 718.996337890625
v -1210.0001220703125 1343.8243408203125 728.9749755859375
v -1210.0 179.97232055664062 739.0250854492188
v -1210.0001220703125 1343.8243408203125 739.0250244140625
v -1210.0 179.97232055664062 728.9750366210938
v -1209.9705810546875 1343.822998046875 738.9852294921875
v -1230.00732421875 159.9788055419922 749.0037841796875
v -1230.01513671875 1351.427001953125 749.007568359375
v -1209.9627685546875 179.9786834716797 738.9814453125
v -1230.0 1351.4283447265625 748.9749755859375
v -1229.9998779296875 159.97244262695312 789.025146484375
v -1230.0 1351.4283447265625 789.0250854492188
v -1229.9998779296875 159.97244262695312 748.9750366210938
v -1230.0 1351.40380859375 789.0000610351562
v -1209.9627685546875 179.97915649414062 799.0186767578125
v -1209.9705810546875 1343.822998046875 799.0147705078125
v -1230.00732421875 159.9788055419922 788.9963989257812
v -1210.0162353515625 1343.8226318359375 799.0
v -1189.957275390625 199.97962951660156 799.0000610351562
v -1189.9661865234375 1336.2186279296875 799.0
v -1210.00732421875 179.97962951660156 799.0000610351562
v -1200.0177001953125 190.0399932861328 669.0000610351562
v -399.97509765625 179.97232055664062 669.0000610351562
v -1210.0177001953125 179.989990234375 669.0000610351562
v -399.97509765625 190.02230834960938 669.0000610351562
v -1210.0186767578125 180.03457641601562 668.9814453125
v -399.97509765625 159.97508239746094 679.01123046875
v -1230.0185546875 159.989990234375 679.0037841796875
v -399.97509765625 180.01966857910156 668.9888916015625
v -1230.02490234375 159.9974365234375 678.9750366210938
v -399.97515869140625 159.9974365234375 719.0250854492188
v -1230.02490234375 159.9974365234375 719.0250854492188
v -399.97509765625 159.9974365234375 678.9750366210938
v -1230.0185546875 159.989990234375 718.996337890625
v -399.97515869140625 180.01966857910156 729.01123046875
v -1210.0186767578125 180.03457641601562 729.0186767578125
v -399.97515869140625 159.97508239746094 718.9888916015625
v -1210.0250244140625 179.997314453125 728.9750366210938
v -399.97515869140625 179.997314453125 739.0250854492188
v -1210.0250244140625 179.997314453125 739.0250854492188
v -399.97515869140625 179.997314453125 728.9750366210938
v -1210.0186767578125 180.03457641601562 738.9814453125
v -399.97515869140625 159.97508239746094 749.01123046875
v -1230.0185546875 159.989990234375 749.0037841796875
v -399.97515869140625 180.01966857910156 738.9888916015625
v -1230.02490234375 159.9974365234375 748.9750366210938
v -399.97515869140625 159.9974365234375 789.025146484375
v -1230.02490234375 159.9974365234375 789.025146484375
v -399.97515869140625 159.9974365234375 748.9750366210938
v -1230.0006103515625 159.99742126464844 789.0001220703125
v -399.975830078125 180.01966857910156 799.01123046875
v -1210.0186767578125 180.03457641601562 799.0186767578125
v -399.97515869140625 159.97508239746094 788.9889526367188
v -1210.0177001953125 179.989990234375 799.0000610351562
v -399.97515869140625 200.02230834960938 799.0000610351562
v -1190.0177001953125 200.0399932861328 799.0000610351562
v -399.97515869140625 179.97232055664062 799.0000610351562
v -400.0001525878906 1789.972412109375 668.9730224609375
v -400.0001525878906 1800.008544921875 668.9525756835938
v -400.0001525878906 1820.033447265625 678.9776000976562
v -400.0002136230469 1820.033447265625 719.0222778320312
v -400.0002136230469 1800.033447265625 729.0222778320312
v -400.0002136230469 1800.033447265625 738.9776000976562
v -400.0002136230469 1820.033447265625 748.9776000976562
v -400.0002136230469 1820.033447265625 789.0223388671875
v -400.0002136230469 1779.972412109375 799.0230102539062
v -400.0002136230469 1800.008544921875 799.0473022460938
v -400.0000915527344 159.9612579345703 678.9777221679688
v -400.0000915527344 179.9861297607422 668.9526977539062
v -400.0000915527344 190.02224731445312 668.97314453125
v -400.0001525878906 159.9612579345703 719.0223999023438
v -400.0001525878906 179.9611358642578 729.0223999023438
v -400.0001525878906 159.9612579345703 789.0224609375
v -400.0001525878906 159.9612579345703 748.9777221679688
v -400.0001525878906 179.9611358642578 738.9777221679688
v -400.0001525878906 200.02224731445312 799.0231323242188
v -400.0001525878906 179.9861297607422 799.0474243164062
v -648.025146484375 1767.1015625 267.9999084472656
v -424.97515869140625 1790.0223388671875 267.99993896484375
v -424.97515869140625 1767.1015625 267.99993896484375
v -648.025146484375 1790.0223388671875 267.9999084472656
v -648.025146484375 1767.1015625 9.999956130981445
v -424.97515869140625 1767.1015625 9.99996566772461
v -424.97515869140625 1790.0223388671875 9.999963760375977
v -648.025146484375 1790.0223388671875 9.999954223632812
v -425.0001525878906 1767.1015625 268.0249328613281
v -425.0001525878906 1790.0223388671875 9.974964141845703
v -425.0001525878906 1767.1015625 9.974966049194336
v -425.0001525878906 1790.0223388671875 268.0249328613281
v -648.0001220703125 1767.1015625 268.02490234375
v -648.0001220703125 1767.1015625 9.974956512451172
v -648.0001220703125 1790.0223388671875 9.974954605102539
v -648.0001220703125 1790.0223388671875 268.02490234375
v -1200.025146484375 950.0223388671875 386.0
v -1099.97509765625 950.0223388671875 386.0
v -1200.025146484375 484.9723205566406 386.00006103515625
v -1099.97509765625 484.9723205566406 386.00006103515625
v -1200.025146484375 950.0223388671875 20.000003814697266
v -1200.025146484375 484.9721984863281 20.000043869018555
v -1099.97509765625 950.0223388671875 20.000009536743164
v -1099.97509765625 484.9721984863281 20.000049591064453
v -1099.97509765625 949.997314453125 386.0249938964844
v -1200.025146484375 949.997314453125 19.975004196166992
v -1099.97509765625 949.997314453125 19.97500991821289
v -1200.025146484375 949.997314453125 386.0249938964844
v -1099.97509765625 484.997314453125 386.0250549316406
v -1099.97509765625 484.9971923828125 19.97504997253418
v -1200.025146484375 484.9971923828125 19.97504425048828
v -1200.025146484375 484.997314453125 386.0250549316406
v -650.0250244140625 200.02230834960938 300.0000915527344
v -499.97509765625 200.02230834960938 300.0001220703125
v -650.0250244140625 189.97232055664062 300.0000915527344
v -499.97509765625 189.97232055664062 300.0001220703125
v -650.0250244140625 200.02230834960938 100.00009155273438
v -650.0250244140625 189.97232055664062 100.00009155273438
v -499.97509765625 200.02230834960938 100.0000991821289
v -499.97509765625 189.97232055664062 100.0000991821289
v -650.0 200.02230834960938 300.02508544921875
v -650.0 189.97232055664062 99.97509002685547
v -650.0 200.02230834960938 99.97509002685547
v -650.0 189.97232055664062 300.02508544921875
v -500.0000915527344 200.02230834960938 300.0251159667969
v -500.0000915527344 200.02230834960938 99.97509765625
v -500.0000915527344 189.97232055664062 99.97509765625
v -500.0000915527344 189.97232055664062 300.0251159667969
v -399.97515869140625 189.97232055664062 800.0000610351562
v -800.018798828125 1790.0389404296875 799.9999389648438
v -1200.0250244140625 189.97232055664062 800.0000610351562
v -1200.0438232421875 1340.013916015625 800.0
v -459.9781494140625 1840.0025634765625 800.0249633789062
v -530.023193359375 1840.0025634765625 800.0249633789062
v -459.9781494140625 1840.0025634765625 1400.0250244140625
v -530.023193359375 1840.0025634765625 1400.0250244140625
v -529.9981689453125 1840.027587890625 800.0249633789062
v -529.9981689453125 1799.97509765625 800.0249633789062
v -529.9981689453125 1840.027587890625 1400.0250244140625
v -529.9981689453125 1799.9752197265625 1400.0250244140625
v -460.0031433105469 1799.97509765625 800.0249633789062
v -460.0031433105469 1840.027587890625 800.0249633789062
v -460.0031433105469 1799.9752197265625 1400.0250244140625
v -460.0031433105469 1840.027587890625 1400.0250244140625
v -459.97808837890625 1840.027587890625 599.9999389648438
v -459.97808837890625 1799.97509765625 599.9999389648438
v -530.0230712890625 1840.027587890625 599.9999389648438
v -530.0230712890625 1799.97509765625 599.9999389648438
v -459.97808837890625 1840.0025634765625 599.9749145507812
v -530.0230712890625 1840.0025634765625 599.9749145507812
v -529.998046875 1840.027587890625 599.9749145507812
v -529.998046875 1799.97509765625 599.9749145507812
v -460.0030822753906 1799.97509765625 599.9749145507812
v -460.0030822753906 1840.027587890625 599.9749145507812
v -530.0189208984375 1800.0252685546875 1400.0
v -459.9727783203125 1789.972412109375 1400.0
v -530.0179443359375 1789.972412109375 1400.0
v -459.9781494140625 1800.0252685546875 1400.0
v -529.998291015625 1840.027587890625 1399.9749755859375
v -529.992919921875 1789.972412109375 1399.9749755859375
v -529.998291015625 1840.027587890625 1500.0250244140625
v -529.992919921875 1789.972412109375 1500.0250244140625
v -459.9977722167969 1789.972412109375 1399.9749755859375
v -460.0031433105469 1840.027587890625 1399.9749755859375
v -459.9977722167969 1789.972412109375 1500.0250244140625
v -460.0031433105469 1840.027587890625 1500.0250244140625
v -459.9781494140625 1840.0025634765625 1399.9749755859375
v -530.0233154296875 1840.0025634765625 1399.9749755859375
v -459.9781494140625 1840.0025634765625 1500.0250244140625
v -530.0233154296875 1840.0025634765625 1500.0250244140625
v -530.0233154296875 1840.027587890625 1500.0
v -530.0179443359375 1789.972412109375 1500.0
v -459.9727783203125 1789.972412109375 1500.0
v -459.9781494140625 1840.027587890625 1500.0
v -419.9953308105469 1789.9722900390625 800.0249633789062
v -420.0007019042969 1800.025146484375 800.0249633789062
v -419.9953308105469 1789.972412109375 1400.02490234375
v -420.0007019042969 1800.0252685546875 1400.02490234375
v -419.9757080078125 1800.0001220703125 800.0249633789062
v -570.0257568359375 1800.0001220703125 800.0249633789062
v -419.9757080078125 1800.000244140625 1400.0250244140625
v -570.0257568359375 1800.000244140625 1400.0250244140625
v -570.000732421875 1800.025146484375 800.0249633789062
v -569.995361328125 1789.9722900390625 800.0249633789062
v -570.000732421875 1800.0252685546875 1400.02490234375
v -569.995361328125 1789.972412109375 1400.02490234375
v -419.97564697265625 1800.025146484375 599.9999389648438
v -419.97027587890625 1789.9722900390625 599.9999389648438
v -570.025634765625 1800.025146484375 599.9999389648438
v -570.020263671875 1789.9722900390625 599.9999389648438
v -419.9952697753906 1789.9722900390625 599.9749145507812
v -420.0006408691406 1800.025146484375 599.9749145507812
v -419.97564697265625 1800.0001220703125 599.9749145507812
v -570.025634765625 1800.0001220703125 599.9749145507812
v -570.0006103515625 1800.025146484375 599.9749145507812
v -569.9952392578125 1789.9722900390625 599.9749145507812
v -419.9757080078125 1800.0252685546875 1400.0
v -570.0257568359375 1800.0252685546875 1400.0
v -419.9703369140625 1789.972412109375 1400.0
v -570.0203857421875 1789.972412109375 1400.0
v -570.000732421875 1800.025146484375 799.9749145507812
v -569.995361328125 1789.9722900390625 799.9749145507812
v -419.9757080078125 1800.0001220703125 799.9749145507812
v -570.0257568359375 1800.0001220703125 799.9749145507812
v -419.9953308105469 1789.9722900390625 799.9749145507812
v -420.0007019042969 1800.025146484375 799.9749145507812
v -460.0031433105469 1799.97509765625 799.9749145507812
v -460.0031433105469 1840.027587890625 799.9749145507812
v -529.9981689453125 1840.027587890625 799.9749145507812
v -529.9981689453125 1799.97509765625 799.9749145507812
v -459.9781494140625 1840.0025634765625 799.9749145507812
v -530.023193359375 1840.0025634765625 799.9749145507812
v -799.9589233398438 1789.9906005859375 668.9999389648438
v -1210.0003662109375 1343.7989501953125 669.0
v -399.9765930175781 1820.0196533203125 788.9888305664062
v -804.4922485351562 1799.997314453125 798.9999389648438
v -399.9765625 1799.9749755859375 738.98876953125
v -813.473388671875 1819.997314453125 748.9999389648438
v -399.9765930175781 1820.0196533203125 718.98876953125
v -804.4922485351562 1799.997314453125 728.9999389648438
v -399.97576904296875 1789.9722900390625 668.9999389648438
v -804.491455078125 1799.997314453125 668.9999389648438
v -1230.017822265625 159.989990234375 788.9963989257812
v -399.9994812011719 179.99732971191406 799.0000610351562
v -1230.01513671875 1351.426513671875 788.9924926757812
v -1210.0 179.99684143066406 799.0000610351562
v -1199.9661865234375 1340.0205078125 669.0
v -1210.0 179.99710083007812 669.0000610351562
f 10 9 11
f 12 10 11
f 7 6 4
f 2 1 3
f 3 1 5
f 4 3 5
f 5 8 4
f 4 8 7
f 787 7 8
f 786 7 787
f 785 7 786
f 786 790 785
f 790 789 785
f 788 789 790
f 8 789 788
f 788 787 8
f 1022 1021 1023
f 1023 1021 1024
f 1020 1017 1018
f 1018 1017 1019
f 1006 1005 1007
f 1007 1005 1008
f 1004 1001 1002
f 1002 1001 1003
f 990 989 991
f 991 989 992
f 988 985 986
f 986 985 987
f 982 981 983
f 981 984 983
f 150 149 151
f 151 149 152
f 148 145 146
f 146 145 147
f 682 681 683
f 683 681 685
f 684 683 685
f 685 688 684
f 684 688 687
f 687 686 684
f 14 13 15
f 18 23 24
f 24 23 21
f 22 24 21
f 21 20 22
f 22 20 16
f 16 17 22
f 16 15 17
f 17 15 19
f 15 13 19
f 808 19 13
f 19 23 18
f 18 17 19
f 804 808 13
f 13 803 804
f 804 803 805
f 805 803 807
f 806 805 807
f 807 19 806
f 806 19 808
f 522 521 523
f 523 521 525
f 524 523 525
f 525 528 524
f 524 528 527
f 527 526 524
f 1014 1013 1015
f 1016 1014 1015
f 1010 1009 1011
f 1010 1011 1012
f 998 997 999
f 1000 998 999
f 994 993 995
f 994 995 996
f 978 980 977
f 978 977 979
f 810 809 811
f 812 810 811
f 792 791 793
f 794 792 793
f 690 689 691
f 692 690 691
f 530 529 531
f 532 530 531
f 516 515 517
f 518 516 517
f 519 516 518
f 520 519 518
f 799 801 802
f 802 801 796
f 797 802 796
f 796 795 797
f 797 795 798
f 798 795 800
f 799 798 800
f 800 801 799
f 138 137 139
f 138 139 140
f 142 141 143
f 144 142 143
f 70 72 69
f 70 69 71
f 66 68 65
f 66 65 67
f 62 64 61
f 62 61 63
f 58 60 57
f 58 57 59
f 54 56 53
f 54 53 55
f 50 52 49
f 50 49 51
f 46 48 45
f 46 45 47
f 42 44 41
f 42 41 43
f 38 40 37
f 38 37 39
f 34 36 33
f 34 33 35
f 30 32 29
f 30 29 31
f 26 28 25
f 26 25 27
f 1092 1091 1079
f 1080 1092 1079
f 1090 1089 1075
f 1076 1090 1075
f 1088 1087 1071
f 1072 1088 1071
f 1084 1083 1085
f 1084 1085 1086
f 1050 1049 1037
f 1038 1050 1037
f 1048 1047 1033
f 1034 1048 1033
f 1046 1045 1029
f 1030 1046 1029
f 1042 1041 1043
f 1042 1043 1044
f 973 972 974
f 968 967 969
f 967 970 969
f 970 971 969
f 971 974 969
f 974 975 969
f 972 975 974
f 976 975 972
f 963 962 964
f 958 957 959
f 959 957 960
f 960 957 961
f 961 957 962
f 962 957 965
f 964 962 965
f 966 964 965
f 776 775 777
f 775 778 777
f 778 779 777
f 779 782 777
f 782 783 777
f 780 783 782
f 784 783 780
f 781 780 782
f 662 661 663
f 663 661 664
f 664 661 665
f 665 661 666
f 666 661 669
f 668 666 669
f 670 668 669
f 667 666 668
f 878 880 877
f 878 877 879
f 874 876 873
f 874 873 875
f 870 872 869
f 870 869 871
f 866 868 865
f 866 865 867
f 862 864 861
f 862 861 863
f 858 860 857
f 858 857 859
f 854 856 853
f 854 853 855
f 850 852 849
f 1110 1109 851
f 846 848 845
f 846 845 847
f 842 844 841
f 1112 1111 843
f 838 840 837
f 838 837 839
f 834 836 833
f 1114 1113 835
f 830 832 829
f 830 829 831
f 826 828 825
f 1116 1115 827
f 822 824 821
f 822 821 823
f 818 820 817
f 818 817 819
f 814 816 813
f 1118 1117 815
f 774 772 773
f 771 770 772
f 772 770 773
f 770 765 773
f 769 765 770
f 768 765 769
f 767 765 768
f 766 765 767
f 652 651 653
f 651 654 653
f 654 655 653
f 655 658 653
f 658 659 653
f 656 659 658
f 660 659 656
f 657 656 658
f 128 127 129
f 127 130 129
f 130 131 129
f 131 134 129
f 134 135 129
f 132 135 134
f 136 135 132
f 133 132 134
f 118 117 119
f 119 117 120
f 120 117 121
f 121 117 122
f 122 117 125
f 124 122 125
f 126 124 125
f 123 122 124
f 762 764 761
f 762 761 763
f 758 760 757
f 758 757 759
f 754 756 753
f 754 753 755
f 750 752 749
f 750 749 751
f 746 748 745
f 746 745 747
f 742 744 741
f 742 741 743
f 738 740 737
f 738 737 739
f 734 736 733
f 734 733 735
f 730 732 729
f 730 729 731
f 726 728 725
f 726 725 727
f 722 724 721
f 722 721 723
f 718 720 717
f 718 717 719
f 714 716 713
f 714 713 715
f 710 712 709
f 710 709 711
f 706 708 705
f 706 705 707
f 702 704 701
f 702 701 703
f 698 700 697
f 698 697 699
f 694 696 693
f 694 693 695
f 677 676 678
f 672 671 673
f 671 674 673
f 674 675 673
f 675 678 673
f 678 679 673
f 676 679 678
f 680 679 676
f 647 646 648
f 642 641 643
f 643 641 644
f 644 641 645
f 645 641 646
f 646 641 649
f 648 646 649
f 650 648 649
f 512 511 513
f 511 514 513
f 510 507 508
f 508 507 509
f 432 429 430
f 430 429 431
f 428 425 426
f 426 425 427
f 424 421 422
f 422 421 423
f 420 417 418
f 418 417 419
f 408 405 406
f 406 405 407
f 400 397 398
f 398 397 399
f 344 341 342
f 342 341 343
f 336 333 334
f 334 333 335
f 280 277 278
f 278 277 279
f 272 269 270
f 270 269 271
f 198 195 196
f 196 195 197
f 98 97 99
f 99 97 100
f 100 97 101
f 101 97 102
f 102 97 105
f 104 102 105
f 106 104 105
f 103 102 104
f 113 112 114
f 108 107 109
f 107 110 109
f 110 111 109
f 111 114 109
f 114 115 109
f 112 115 114
f 116 115 112
f 954 956 953
f 954 953 955
f 950 952 949
f 1120 1119 951
f 946 948 945
f 946 945 947
f 942 944 941
f 942 941 943
f 938 940 937
f 938 937 939
f 934 936 933
f 934 933 935
f 930 932 929
f 930 929 931
f 926 928 925
f 926 925 927
f 922 924 921
f 922 921 923
f 918 920 917
f 918 917 919
f 914 916 913
f 1122 1121 915
f 910 912 909
f 910 909 911
f 906 908 905
f 906 905 907
f 902 904 901
f 902 901 903
f 898 900 897
f 898 897 899
f 894 896 893
f 894 893 895
f 890 892 889
f 890 889 891
f 886 888 885
f 1124 1123 887
f 882 884 881
f 882 881 883
f 638 640 637
f 638 637 639
f 634 636 633
f 634 633 635
f 630 632 629
f 630 629 631
f 626 628 625
f 626 625 627
f 622 624 621
f 622 621 623
f 618 620 617
f 618 617 619
f 614 616 613
f 614 613 615
f 610 612 609
f 610 609 611
f 606 608 605
f 606 605 607
f 602 604 601
f 602 601 603
f 598 600 597
f 598 597 599
f 594 596 593
f 594 593 595
f 590 592 589
f 590 589 591
f 586 588 585
f 586 585 587
f 582 584 581
f 582 581 583
f 578 580 577
f 578 577 579
f 574 576 573
f 574 573 575
f 570 572 569
f 570 569 571
f 566 568 565
f 566 565 567
f 562 564 561
f 562 561 563
f 558 560 557
f 558 557 559
f 554 556 553
f 554 553 555
f 550 552 549
f 550 549 551
f 546 548 545
f 546 545 547
f 542 544 541
f 542 541 543
f 538 540 537
f 538 537 539
f 534 536 533
f 534 533 535
f 504 503 505
f 506 504 505
f 500 502 499
f 500 499 501
f 496 498 495
f 496 495 497
f 492 494 491
f 492 491 493
f 488 490 487
f 488 487 489
f 484 486 483
f 484 483 485
f 480 482 479
f 480 479 481
f 476 478 475
f 476 475 477
f 472 474 471
f 472 471 473
f 468 470 467
f 468 467 469
f 464 466 463
f 464 463 465
f 460 462 459
f 460 459 461
f 456 458 455
f 456 455 457
f 414 413 415
f 414 415 416
f 410 409 411
f 412 410 411
f 402 401 403
f 404 402 403
f 394 393 395
f 396 394 395
f 390 392 389
f 390 389 391
f 386 388 385
f 386 385 387
f 382 384 381
f 382 381 383
f 378 380 377
f 378 377 379
f 374 376 373
f 374 373 375
f 370 372 369
f 370 369 371
f 366 368 365
f 366 365 367
f 362 364 361
f 362 361 363
f 358 360 357
f 358 357 359
f 354 356 353
f 354 353 355
f 350 352 349
f 350 349 351
f 346 348 345
f 346 345 347
f 338 337 339
f 340 338 339
f 330 329 331
f 332 330 331
f 326 328 325
f 326 325 327
f 322 324 321
f 322 321 323
f 318 320 317
f 318 317 319
f 314 316 313
f 314 313 315
f 310 312 309
f 310 309 311
f 306 308 305
f 306 305 307
f 302 304 301
f 302 301 303
f 298 300 297
f 298 297 299
f 294 296 293
f 294 293 295
f 290 292 289
f 290 289 291
f 286 288 285
f 286 285 287
f 282 284 281
f 282 281 283
f 274 273 275
f 276 274 275
f 266 265 267
f 268 266 267
f 262 264 261
f 262 261 263
f 258 260 257
f 258 257 259
f 254 256 253
f 254 253 255
f 250 252 249
f 250 249 251
f 246 248 245
f 246 245 247
f 242 244 241
f 242 241 243
f 238 240 237
f 238 237 239
f 234 236 233
f 234 233 235
f 230 232 229
f 230 229 231
f 226 228 225
f 226 225 227
f 222 224 221
f 222 221 223
f 218 220 217
f 218 217 219
f 192 191 193
f 194 192 193
f 188 190 187
f 188 187 189
f 184 186 183
f 184 183 185
f 180 182 179
f 180 179 181
f 176 178 175
f 176 175 177
f 94 96 93
f 94 93 95
f 90 92 89
f 90 89 91
f 86 88 85
f 86 85 87
f 82 84 81
f 82 81 83
f 78 80 77
f 78 77 79
f 74 76 73
f 74 73 75
f 154 153 155
f 156 154 155
f 153 1025 1026
f 1026 1025 1027
f 1027 1028 1026
f 158 162 160
f 160 157 158
f 158 157 159
f 159 161 158
f 168 167 169
f 170 168 169
f 164 163 165
f 166 164 165
f 1094 1093 1095
f 1096 1094 1095
f 1098 1097 1081
f 1082 1098 1081
f 1100 1099 1077
f 1078 1100 1077
f 1102 1101 1073
f 1074 1102 1073
f 1064 1063 1065
f 1066 1064 1065
f 1060 1059 1061
f 1062 1060 1061
f 1056 1055 1057
f 1058 1056 1057
f 1052 1054 1051
f 1052 1051 1053
f 1104 1103 1039
f 1040 1104 1039
f 1106 1105 1035
f 1036 1106 1035
f 1108 1107 1031
f 1032 1108 1031
f 452 451 453
f 454 452 453
f 448 447 449
f 450 448 449
f 444 443 445
f 446 444 445
f 201 203 200
f 200 199 201
f 201 199 202
f 202 204 201
f 1068 1067 1069
f 1067 1070 1069
f 434 433 435
f 433 436 435
f 438 442 440
f 440 437 438
f 438 437 439
f 439 441 438
f 172 171 173
f 174 172 173
f 214 213 215
f 216 214 215
f 210 209 211
f 212 210 211
f 206 205 207
f 208 206 207
