# from FinancialDistrict_Block13_Generic_0002_LOD_0.pskx
v 380.00323486328125 -274.9627380371094 4.392702248878777e-05
v 379.99114990234375 -174.96273803710938 3.518420999171212e-05
v 380.00323486328125 -274.9627380371094 5.000044345855713
v 379.99114990234375 -174.96273803710938 5.000034809112549
v 379.99114990234375 -174.96273803710938 3.518420999171212e-05
v 369.99359130859375 -174.96270751953125 3.4747194149531424e-05
v 379.99114990234375 -174.96273803710938 5.000034809112549
v 369.99359130859375 -174.96270751953125 5.000034332275391
v 369.99359130859375 -174.962646484375 3.4747194149531424e-05
v 369.99359130859375 -264.965087890625 4.2615458369255066e-05
v 369.99359130859375 -174.962646484375 5.000034332275391
v 369.99359130859375 -264.965087890625 5.000042915344238
v 369.99359130859375 -264.9651184082031 4.261546564521268e-05
v -824.9981079101562 -265.0097961425781 -9.61538989940891e-06
v 369.99359130859375 -264.9651184082031 5.000042915344238
v -824.9981079101562 -265.0097961425781 4.999989986419678
v -824.9981079101562 -275.0072937011719 -8.741380042920355e-06
v 380.00323486328125 -274.9627380371094 4.392702248878777e-05
v -824.9981079101562 -275.0072937011719 4.999991416931152
v 380.00323486328125 -274.9627380371094 5.000044345855713
v 379.99114990234375 -174.96273803710938 5.000034809112549
v 369.99359130859375 -174.96270751953125 5.000034332275391
v 369.99359130859375 -264.9651184082031 5.000042915344238
v -824.9981689453125 -265.0097961425781 4.999989986419678
v 380.00323486328125 -274.9627380371094 5.000044345855713
v -824.9981079101562 -275.0072937011719 4.999991416931152
v 377.50079345703125 -272.472412109375 5.000043869018555
v 372.49591064453125 -267.4674987792969 5.0000433921813965
v 377.50091552734375 -267.46746826171875 5.000042915344238
v 372.49603271484375 -272.4723815917969 5.0000433921813965
v 377.5008544921875 -179.96768188476562 5.000035285949707
v 372.49603271484375 -174.96270751953125 5.000034809112549
v 377.50091552734375 -174.96270751953125 5.000035285949707
v 372.4959716796875 -179.96762084960938 5.000035285949707
v -819.9932250976562 -272.5048828125 4.999991416931152
v -824.9981689453125 -267.51220703125 4.999990940093994
v -819.9932250976562 -267.51220703125 4.999990463256836
v -824.9981689453125 -272.5049133300781 4.999990940093994
v -427.50421142578125 -272.4969787597656 5.004908561706543
v -432.4969177246094 -267.4920654296875 5.004907608032227
v -427.50421142578125 -267.4920654296875 5.004907608032227
v -432.49688720703125 -272.4969787597656 5.004908084869385
v -232.49688720703125 -272.4847412109375 5.004916667938232
v -232.49688720703125 -267.4798583984375 5.004916667938232
v -227.504150390625 -272.4847412109375 5.004917621612549
v -227.504150390625 -267.4798583984375 5.004916667938232
v -32.496826171875 -272.4847717285156 5.004925727844238
v -32.49676513671875 -267.4798583984375 5.00492525100708
v -27.50408935546875 -272.4847412109375 5.004925727844238
v -27.50408935546875 -267.4798583984375 5.00492525100708
v 172.4959716796875 -272.4725341796875 5.004934310913086
v 167.50323486328125 -267.4676513671875 5.004933834075928
v 172.4959716796875 -267.4676208496094 5.004934310913086
v 167.50323486328125 -272.4725341796875 5.004934787750244
v 373.75714111328125 -268.4765625 5.0000433921813965
v 376.24737548828125 -270.97894287109375 5.000043869018555
v -819.9933471679688 -268.75726318359375 4.999990463256836
v 376.247314453125 -179.97555541992188 5.000035285949707
v 373.74505615234375 -179.97555541992188 5.000035285949707
v -819.9933471679688 -271.2597351074219 4.999990940093994
v 377.50079345703125 -272.472412109375 5.000043869018555
v 377.50091552734375 -267.46746826171875 5.000042915344238
v 377.50079345703125 -272.472412109375 325.00006103515625
v 377.50091552734375 -267.46746826171875 325.00006103515625
v 377.50091552734375 -267.467529296875 5.000042915344238
v 372.49603271484375 -267.4675598144531 5.0000433921813965
v 377.50091552734375 -267.467529296875 325.00006103515625
v 372.49603271484375 -267.4675598144531 325.00006103515625
v 372.49603271484375 -267.4675598144531 5.0000433921813965
v 372.4959716796875 -272.4723205566406 5.0000433921813965
v 372.49603271484375 -267.4675598144531 325.00006103515625
v 372.4959716796875 -272.4723205566406 325.00006103515625
v 372.49603271484375 -272.472412109375 5.0000433921813965
v 377.50079345703125 -272.472412109375 5.000043869018555
v 372.49603271484375 -272.472412109375 325.00006103515625
v 377.50079345703125 -272.472412109375 325.00006103515625
v 377.50079345703125 -267.46746826171875 325.00006103515625
v 372.48760986328125 170.00625610351562 325.0000305175781
v 377.4925537109375 170.00631713867188 325.0000305175781
v 372.49615478515625 -267.4674987792969 325.00006103515625
v 372.49603271484375 -272.472412109375 325.00006103515625
v -824.9982299804688 -267.51214599609375 325.0
v -824.9982299804688 -272.5047302246094 325.0
v 377.49249267578125 170.00634765625 325.0000305175781
v 377.50079345703125 -272.472412109375 330.00006103515625
v 377.49249267578125 170.00634765625 330.0000305175781
v 372.48760986328125 170.00625610351562 325.0000305175781
v 372.48760986328125 170.00625610351562 330.0000305175781
v 372.49603271484375 -267.4675598144531 330.00006103515625
v -824.998046875 -267.5121154785156 325.0
v 372.49603271484375 -267.4675598144531 330.00006103515625
v -824.998046875 -267.5121154785156 330.0
v -824.9982299804688 -272.5047302246094 325.0
v -824.9982299804688 -272.5047302246094 330.0
v 377.50079345703125 -272.472412109375 330.00006103515625
v 377.50048828125 -249.9968719482422 330.00006103515625
v 377.4925537109375 170.00631713867188 330.0000305175781
v 372.48760986328125 170.00625610351562 330.0000305175781
v 372.49560546875 -249.9969024658203 330.00006103515625
v 377.50079345703125 -272.472412109375 330.00006103515625
v 370.00103759765625 -274.9969177246094 330.00006103515625
v -824.9982299804688 -272.5047302246094 330.0
v 395.0009765625 -249.9968719482422 330.00006103515625
v 377.50048828125 -249.9968719482422 330.00006103515625
v 395.01324462890625 -662.521484375 330.0000915527344
v -825.006591796875 -274.996826171875 330.0
v 370.01324462890625 -662.521484375 330.00006103515625
v -824.9982299804688 -267.51214599609375 330.0
v -825.006591796875 -249.996826171875 330.0
v 372.49615478515625 -267.4674987792969 330.00006103515625
v 372.49560546875 -249.9969024658203 330.00006103515625
v -825.006591796875 -249.99681091308594 330.0
v -825.006591796875 -274.996826171875 330.0
v -825.0066528320312 -249.996826171875 400.0
v -825.006591796875 -274.996826171875 400.0
v -825.006591796875 -274.996826171875 330.0
v 370.00103759765625 -274.9969177246094 330.00006103515625
v -825.006591796875 -274.996826171875 400.0
v 370.0009765625 -274.996826171875 400.00006103515625
v 370.00103759765625 -274.9969177246094 330.00006103515625
v 370.0133056640625 -662.521484375 330.00006103515625
v 370.0009765625 -274.996826171875 400.00006103515625
v 370.01324462890625 -662.5214233398438 400.00006103515625
v 370.0133056640625 -662.521484375 330.00006103515625
v 395.01324462890625 -662.521484375 330.0000915527344
v 370.01324462890625 -662.5214233398438 400.00006103515625
v 395.01318359375 -662.5214233398438 400.0000915527344
v 395.01324462890625 -662.521484375 330.0000915527344
v 395.00103759765625 -249.9969024658203 330.00006103515625
v 395.01324462890625 -662.5213623046875 400.0000915527344
v 395.0009765625 -249.9968719482422 400.00006103515625
v 395.00103759765625 -249.9969024658203 330.00006103515625
v -825.006591796875 -249.99681091308594 330.0
v 395.0009765625 -249.9968719482422 400.00006103515625
v -825.0066528320312 -249.996826171875 400.0
v -825.006591796875 -275.01348876953125 409.9665222167969
v 396.26702880859375 -248.72996520996094 409.9833984375
v -825.0066528320312 -248.7300262451172 409.98333740234375
v 369.98431396484375 -275.01348876953125 409.9665832519531
v -825.006591796875 -282.996826171875 405.533203125
v 369.98431396484375 -275.01348876953125 409.9665832519531
v -825.006591796875 -275.01348876953125 409.9665222167969
v 362.0010986328125 -282.9968566894531 405.53326416015625
v -825.006591796875 -282.996826171875 393.99981689453125
v 362.0010986328125 -282.9968566894531 405.53326416015625
v -825.006591796875 -282.996826171875 405.533203125
v 362.0010986328125 -282.99688720703125 393.9998779296875
v -825.0066528320312 -279.2635192871094 390.26654052734375
v 362.0010986328125 -282.99688720703125 393.9998779296875
v -825.006591796875 -282.996826171875 393.99981689453125
v 365.73443603515625 -279.2635498046875 390.2666015625
v -825.006591796875 -279.26348876953125 374.533203125
v 365.73443603515625 -279.2635498046875 390.2666015625
v -825.0066528320312 -279.2635192871094 390.26654052734375
v 365.73443603515625 -279.2635498046875 374.53326416015625
v -825.006591796875 -274.66351318359375 369.9998779296875
v 365.73443603515625 -279.2635498046875 374.53326416015625
v -825.006591796875 -279.26348876953125 374.533203125
v 370.33428955078125 -274.66351318359375 369.99993896484375
v -825.006591796875 -248.73013305664062 369.9998779296875
v 370.33428955078125 -274.66351318359375 369.99993896484375
v -825.006591796875 -274.66351318359375 369.9998779296875
v 396.26690673828125 -248.7301483154297 369.99993896484375
v -825.0066528320312 -248.7300262451172 409.98333740234375
v 396.26690673828125 -248.7301483154297 369.99993896484375
v -825.006591796875 -248.73013305664062 369.9998779296875
v 396.26702880859375 -248.72996520996094 409.9833984375
v 396.27996826171875 -662.5206298828125 409.9834289550781
v 369.99652099609375 -662.5213623046875 409.9665832519531
v 362.0010986328125 -282.9968566894531 405.53326416015625
v 369.99652099609375 -662.5213623046875 409.9665832519531
v 369.98431396484375 -275.01348876953125 409.9665832519531
v 362.01324462890625 -662.5216064453125 405.53326416015625
v 362.0010986328125 -282.99688720703125 393.9998779296875
v 362.01324462890625 -662.5216064453125 405.53326416015625
v 362.0010986328125 -282.9968566894531 405.53326416015625
v 362.01324462890625 -662.5216064453125 393.9998779296875
v 365.73443603515625 -279.2635498046875 390.2666015625
v 362.01324462890625 -662.5216064453125 393.9998779296875
v 362.0010986328125 -282.99688720703125 393.9998779296875
v 365.74664306640625 -662.5216064453125 390.2666015625
v 365.73443603515625 -279.2635498046875 374.53326416015625
v 365.74664306640625 -662.5216064453125 390.2666015625
v 365.73443603515625 -279.2635498046875 390.2666015625
v 365.74664306640625 -662.5216064453125 374.53326416015625
v 370.33428955078125 -274.66351318359375 369.99993896484375
v 365.74664306640625 -662.5216064453125 374.53326416015625
v 365.73443603515625 -279.2635498046875 374.53326416015625
v 370.3465576171875 -662.521484375 369.99993896484375
v 370.3465576171875 -662.521484375 369.99993896484375
v 396.27984619140625 -662.5206298828125 369.9999694824219
v 396.26702880859375 -248.72996520996094 409.9833984375
v 396.27984619140625 -662.5206298828125 369.9999694824219
v 396.26690673828125 -248.7301483154297 369.99993896484375
v 396.27996826171875 -662.5206298828125 409.9834289550781
v -825.006591796875 -248.73013305664062 369.9998779296875
v -825.006591796875 -274.66351318359375 369.9998779296875
v -825.006591796875 -279.26348876953125 374.533203125
v -825.0066528320312 -279.2635192871094 390.26654052734375
v -825.006591796875 -282.996826171875 393.99981689453125
v -825.006591796875 -282.996826171875 405.533203125
v -825.006591796875 -275.01348876953125 409.9665222167969
v -825.0066528320312 -248.7300262451172 409.98333740234375
v 365.74664306640625 -662.5216064453125 374.53326416015625
v 370.3465576171875 -662.521484375 369.99993896484375
v 396.27984619140625 -662.5206298828125 369.9999694824219
v 365.74664306640625 -662.5216064453125 390.2666015625
v 362.01324462890625 -662.5216064453125 405.53326416015625
v 362.01324462890625 -662.5216064453125 393.9998779296875
v 369.99652099609375 -662.5213623046875 409.9665832519531
v 396.27996826171875 -662.5206298828125 409.9834289550781
v 377.50091552734375 -174.96270751953125 5.000035285949707
v 372.49603271484375 -174.96273803710938 5.000034809112549
v 377.5008544921875 -174.9626922607422 325.0000305175781
v 372.49603271484375 -174.9626922607422 325.0000305175781
v 372.49603271484375 -174.962646484375 5.000034809112549
v 372.4959716796875 -179.96762084960938 5.000035285949707
v 372.49603271484375 -174.9626007080078 325.0000305175781
v 372.4959716796875 -179.9675750732422 325.0000305175781
v 372.49603271484375 -179.9676513671875 5.000035285949707
v 377.5008544921875 -179.96768188476562 5.000035285949707
v 372.4959716796875 -179.9676055908203 325.0000305175781
v 377.5008544921875 -179.96763610839844 325.0000305175781
v 377.5008544921875 -179.96768188476562 5.000035285949707
v 377.50091552734375 -174.96270751953125 5.000035285949707
v 377.5008544921875 -179.96763610839844 325.0000305175781
v 377.5008544921875 -174.9626922607422 325.0000305175781
v 377.5008544921875 -179.96763610839844 325.0000305175781
v 377.5008544921875 -174.9626922607422 325.0000305175781
v 372.49603271484375 -174.96266174316406 325.0000305175781
v 372.4959716796875 -179.9675750732422 325.0000305175781
v -819.9932250976562 -272.5048828125 4.999991416931152
v -819.9932250976562 -267.51220703125 4.999990463256836
v -819.9932861328125 -272.5048522949219 325.0
v -819.9932250976562 -267.51214599609375 325.0
v -819.9932250976562 -267.51220703125 4.999990463256836
v -824.9981079101562 -267.5121765136719 4.999990940093994
v -819.9932250976562 -267.51214599609375 325.0
v -824.9981689453125 -267.51214599609375 325.0
v -824.9981079101562 -272.5048828125 4.999990940093994
v -819.9932250976562 -272.5048828125 4.999991416931152
v -824.9981689453125 -272.5048522949219 325.0
v -819.9932861328125 -272.5048522949219 325.0
v -427.50421142578125 -267.4920654296875 5.004907608032227
v -432.4969177246094 -267.4920654296875 5.004907608032227
v -427.50421142578125 -267.4920349121094 325.0049133300781
v -432.49688720703125 -267.4920349121094 325.0049133300781
v -432.4969177246094 -267.4920654296875 5.004907608032227
v -432.49688720703125 -272.4969787597656 5.004908084869385
v -432.4969177246094 -267.4920349121094 325.0049133300781
v -432.4969177246094 -272.4969482421875 325.0049133300781
v -432.49688720703125 -272.4969787597656 5.004908084869385
v -427.50421142578125 -272.4969787597656 5.004908561706543
v -432.4969177246094 -272.4969482421875 325.0049133300781
v -427.50421142578125 -272.4969482421875 325.0049133300781
v -427.5041809082031 -272.4969787597656 5.004908561706543
v -427.50421142578125 -267.4920654296875 5.004907608032227
v -427.50421142578125 -272.4969482421875 325.0049133300781
v -427.50421142578125 -267.4920349121094 325.0049133300781
v -232.49688720703125 -267.4798583984375 5.004916667938232
v -232.49688720703125 -272.4847412109375 5.004916667938232
v -232.49688720703125 -267.4798278808594 325.0049133300781
v -232.49688720703125 -272.4847412109375 325.0049133300781
v -232.49688720703125 -272.4847412109375 5.004916667938232
v -227.504150390625 -272.4847412109375 5.004917621612549
v -232.49688720703125 -272.4847412109375 325.0049133300781
v -227.50418090820312 -272.4847106933594 325.0049133300781
v -227.504150390625 -272.4847717285156 5.004917621612549
v -227.50418090820312 -267.4798583984375 5.004916667938232
v -227.50418090820312 -272.4847412109375 325.0049133300781
v -227.50421142578125 -267.4798278808594 325.0049133300781
v -227.504150390625 -267.4798583984375 5.004916667938232
v -232.49688720703125 -267.4798583984375 5.004916667938232
v -227.504150390625 -267.4798278808594 325.0049133300781
v -232.49688720703125 -267.4798278808594 325.0049133300781
v -32.49676513671875 -267.4798583984375 5.00492525100708
v -32.49676513671875 -272.4847106933594 5.004925727844238
v -32.49676513671875 -267.4798278808594 325.00494384765625
v -32.49676513671875 -272.48468017578125 325.00494384765625
v -32.49676513671875 -272.4847412109375 5.004925727844238
v -27.50408935546875 -272.4847106933594 5.004925727844238
v -32.49676513671875 -272.4847106933594 325.00494384765625
v -27.504150390625 -272.48468017578125 325.00494384765625
v -27.50408935546875 -272.4847412109375 5.004925727844238
v -27.50408935546875 -267.4798278808594 5.00492525100708
v -27.50408935546875 -272.4847106933594 325.00494384765625
v -27.50408935546875 -267.4798278808594 325.00494384765625
v -27.50408935546875 -267.4798278808594 5.00492525100708
v -32.49676513671875 -267.4798583984375 5.00492525100708
v -27.50408935546875 -267.4798278808594 325.00494384765625
v -32.49676513671875 -267.4798278808594 325.00494384765625
v 172.49591064453125 -267.4676818847656 5.004934310913086
v 167.50323486328125 -267.4676513671875 5.004933834075928
v 172.49591064453125 -267.4676513671875 325.00494384765625
v 167.503173828125 -267.4676208496094 325.00494384765625
v 167.50323486328125 -267.4676513671875 5.004933834075928
v 167.50323486328125 -272.4725646972656 5.004934787750244
v 167.503173828125 -267.4676208496094 325.00494384765625
v 167.503173828125 -272.4725341796875 325.00494384765625
v 167.50323486328125 -272.4725646972656 5.004934787750244
v 172.4959716796875 -272.4725341796875 5.004934310913086
v 167.503173828125 -272.4725341796875 325.00494384765625
v 172.49591064453125 -272.4725036621094 325.00494384765625
v 172.4959716796875 -272.4725341796875 5.004934310913086
v 172.49591064453125 -267.4676818847656 5.004934310913086
v 172.49591064453125 -272.4725036621094 325.00494384765625
v 172.49591064453125 -267.4676513671875 325.00494384765625
v 373.7572021484375 -268.47662353515625 5.0000433921813965
v -819.9932861328125 -268.7572326660156 4.999990463256836
v 373.7572021484375 -268.47662353515625 325.00006103515625
v -819.9932861328125 -268.7572326660156 325.0
v -819.9932250976562 -271.2597351074219 4.999990940093994
v 376.24749755859375 -270.9790344238281 5.000043869018555
v -819.9932250976562 -271.2597351074219 324.99993896484375
v 376.24749755859375 -270.9790344238281 325.0
v 376.24737548828125 -270.97900390625 5.000043869018555
v 376.24737548828125 -179.97561645507812 5.000035285949707
v 376.24737548828125 -270.97900390625 325.0
v 376.24737548828125 -179.97557067871094 324.9999694824219
v 373.74505615234375 -179.97549438476562 5.000035285949707
v 373.75714111328125 -268.47650146484375 5.0000433921813965
v 373.7449951171875 -179.97544860839844 325.0000305175781
v 373.75714111328125 -268.47650146484375 325.00006103515625
v 373.75714111328125 -268.4765625 325.00006103515625
v -819.9932861328125 -268.7572326660156 325.0
v 376.24737548828125 -270.97900390625 325.00006103515625
v 376.24737548828125 -179.97557067871094 325.0000305175781
v 373.74505615234375 -179.9755096435547 325.0000305175781
v -819.9933471679688 -271.25970458984375 325.0
v 369.99700927734375 55.01568603515625 1.464199522160925e-05
v 379.9945068359375 55.01568603515625 1.5079000149853528e-05
v 369.99700927734375 55.01568603515625 5.000014781951904
v 379.9945068359375 55.01568603515625 5.0000152587890625
v 379.9945068359375 55.01568603515625 1.5079000149853528e-05
v 379.9578857421875 170.0242919921875 5.023022822570056e-06
v 379.9945068359375 55.01568603515625 5.0000152587890625
v 379.9578857421875 170.0242919921875 5.00000524520874
v 369.9482421875 170.02435302734375 4.5854867494199425e-06
v 369.99700927734375 55.0157470703125 1.464199522160925e-05
v 369.9482421875 170.02435302734375 5.000004768371582
v 369.99700927734375 55.0157470703125 5.000014781951904
v 369.99700927734375 55.01568603515625 5.000014781951904
v 379.9945068359375 55.01568603515625 5.0000152587890625
v 369.9482421875 170.02435302734375 5.000004768371582
v 379.95782470703125 170.02432250976562 5.00000524520874
v 377.49212646484375 55.01568603515625 5.000014781951904
v 372.48724365234375 60.0084228515625 5.000014305114746
v 377.49212646484375 60.0084228515625 5.000014781951904
v 372.48724365234375 55.0157470703125 5.000014781951904
v 372.48712158203125 145.00592041015625 5.000007152557373
v 372.487060546875 170.00592041015625 5.000004768371582
v 377.4920654296875 145.0059814453125 5.000007152557373
v 377.49200439453125 170.00592041015625 5.000004768371582
v 376.24700927734375 60.0084228515625 5.000014305114746
v 373.74456787109375 145.0059814453125 5.000007152557373
v 376.23480224609375 145.0059814453125 5.000007152557373
v 373.74468994140625 60.0084228515625 5.000014305114746
v 377.49212646484375 55.015655517578125 5.000014781951904
v 377.49212646484375 60.0084228515625 5.000014781951904
v 377.49212646484375 55.01568603515625 325.0
v 377.49212646484375 60.008453369140625 325.0
v 377.49212646484375 60.0084228515625 5.000014781951904
v 372.48724365234375 60.008392333984375 5.000014305114746
v 377.49212646484375 60.008453369140625 325.0
v 372.48724365234375 60.0084228515625 325.0
v 372.48724365234375 60.0084228515625 5.000014305114746
v 372.48724365234375 55.0157470703125 5.000014781951904
v 372.4871826171875 60.00848388671875 325.0
v 372.4871826171875 55.0157470703125 325.0
v 372.48724365234375 55.01568603515625 5.000014781951904
v 377.49212646484375 55.015655517578125 5.000014781951904
v 372.48724365234375 55.015716552734375 325.0
v 377.49212646484375 55.01568603515625 325.0
v 377.49212646484375 55.01568603515625 325.0
v 377.49212646484375 60.008453369140625 325.0
v 372.48724365234375 60.0084228515625 325.0
v 372.48724365234375 55.0157470703125 325.0
v 372.48712158203125 145.00592041015625 5.000007152557373
v 377.49212646484375 145.0059814453125 5.000007152557373
v 372.48712158203125 145.00592041015625 325.0000305175781
v 377.49212646484375 145.0059814453125 325.0000305175781
v 377.4920654296875 145.0059814453125 5.000007152557373
v 377.49200439453125 170.00595092773438 5.000004768371582
v 377.4920654296875 145.00604248046875 324.9999694824219
v 377.49200439453125 170.0059814453125 324.9999694824219
v 372.487060546875 170.00592041015625 5.000004768371582
v 372.48712158203125 145.00592041015625 5.000007152557373
v 372.487060546875 170.00595092773438 324.9999694824219
v 372.48712158203125 145.00592041015625 324.9999694824219
v 376.24700927734375 60.0084228515625 5.000014305114746
v 376.23480224609375 145.0059814453125 5.000007152557373
v 376.24700927734375 60.00848388671875 325.0
v 376.2347412109375 145.00601196289062 325.0000305175781
v 376.23480224609375 145.0059814453125 5.000007152557373
v 373.74456787109375 145.0059814453125 5.000007152557373
v 376.2347412109375 145.00601196289062 325.0000305175781
v 373.7445068359375 145.00601196289062 325.0000305175781
v 373.7445068359375 145.00604248046875 5.000007152557373
v 373.74456787109375 60.0084228515625 5.000014305114746
v 373.7445068359375 145.00604248046875 325.0000305175781
v 373.74456787109375 60.00848388671875 325.0
v 373.74462890625 60.0084228515625 5.000014305114746
v 376.24700927734375 60.0084228515625 5.000014305114746
v 373.74456787109375 60.0084228515625 325.0
v 376.24700927734375 60.0084228515625 325.0
v -619.9976196289062 -267.4914855957031 5.004899501800537
v -624.9903564453125 -267.4914855957031 5.004899024963379
v -619.9976806640625 -267.491455078125 325.0049133300781
v -624.9903564453125 -267.491455078125 325.0049133300781
v -624.9903564453125 -267.4914855957031 5.004899024963379
v -624.9903564453125 -272.49639892578125 5.004899978637695
v -624.9903564453125 -267.491455078125 325.0049133300781
v -624.9903564453125 -272.4963684082031 325.0049133300781
v -624.9903564453125 -272.49639892578125 5.004899978637695
v -619.9976196289062 -272.49639892578125 5.004899978637695
v -624.9903564453125 -272.4963684082031 325.0049133300781
v -619.9976806640625 -272.4963684082031 325.0049133300781
v -619.9976196289062 -272.49639892578125 5.004899978637695
v -619.9976196289062 -267.4914855957031 5.004899501800537
v -619.9976806640625 -272.4963684082031 325.0049133300781
v -619.9976806640625 -267.491455078125 325.0049133300781
v 370.00262451171875 -274.9952087402344 0.00014349271077662706
v 370.02093505859375 -364.9866027832031 0.0001513608149252832
v 370.00262451171875 -274.9952087402344 5.000143527984619
v 370.02093505859375 -364.9866027832031 5.000151634216309
v 370.02093505859375 -364.9866027832031 0.0001513608149252832
v 380.01861572265625 -364.9866638183594 0.00015179782349150628
v 370.02093505859375 -364.9866027832031 5.000151634216309
v 380.01861572265625 -364.9866638183594 5.000151634216309
v 380.01849365234375 -364.9866638183594 0.0001517978380434215
v 380.00048828125 -274.99444580078125 0.00014392966113518924
v 380.01849365234375 -364.9866638183594 5.000151634216309
v 380.00048828125 -274.99444580078125 5.0001444816589355
v 380.00054931640625 -274.99456787109375 0.00014392966113518924
v 370.00262451171875 -274.9952087402344 0.00014349271077662706
v 380.00054931640625 -274.99456787109375 5.0001444816589355
v 370.00262451171875 -274.9952087402344 5.000143527984619
v 370.00262451171875 -274.9952087402344 5.000143527984619
v 370.02093505859375 -364.9866027832031 5.000151634216309
v 380.01849365234375 -364.9866638183594 5.000151634216309
v 380.00054931640625 -274.9945068359375 5.0001444816589355
v 372.50653076171875 -359.986328125 5.00015115737915
v 377.51409912109375 -364.986572265625 5.000151634216309
v 372.5101318359375 -364.9903259277344 5.000152111053467
v 377.51043701171875 -359.9825744628906 5.00015115737915
v 372.50640869140625 -359.9862976074219 5.00015115737915
v 372.5101318359375 -364.9903564453125 5.000152111053467
v 372.50640869140625 -359.98626708984375 325.0001525878906
v 372.5101318359375 -364.9903564453125 325.0001525878906
v 372.5101318359375 -364.9903564453125 5.000152111053467
v 377.51409912109375 -364.9866027832031 5.000151634216309
v 372.5101318359375 -364.9903564453125 325.0001525878906
v 377.51409912109375 -364.986572265625 325.0001525878906
v 377.51409912109375 -364.986572265625 5.000151634216309
v 377.51043701171875 -359.9825744628906 5.00015115737915
v 377.51409912109375 -364.986572265625 325.0001525878906
v 377.51043701171875 -359.9825439453125 325.0001525878906
v 377.51043701171875 -359.9825744628906 5.00015115737915
v 372.50640869140625 -359.9862976074219 5.00015115737915
v 377.51043701171875 -359.9825439453125 325.0001525878906
v 372.50640869140625 -359.98626708984375 325.0001525878906
v 377.51409912109375 -364.986572265625 325.0001525878906
v 377.53851318359375 -662.4881591796875 325.0002746582031
v 372.5167236328125 -364.9903564453125 325.0001525878906
v 372.53363037109375 -662.488037109375 325.0002746582031
v 372.516357421875 -359.98626708984375 325.0001525878906
v 377.5123291015625 -267.4876708984375 325.0001525878906
v 377.51043701171875 -359.9825439453125 325.0001525878906
v 372.51116943359375 -267.4768371582031 325.0001525878906
v 372.51116943359375 -267.4768981933594 325.0001525878906
v 372.53369140625 -662.488037109375 325.0002746582031
v 372.51116943359375 -267.4768981933594 330.0001525878906
v 372.53369140625 -662.488037109375 330.0002746582031
v 377.53851318359375 -662.4881591796875 325.0002746582031
v 377.5123291015625 -267.4876708984375 325.0001525878906
v 377.53851318359375 -662.4881591796875 330.0002746582031
v 377.5123291015625 -267.4876708984375 330.0001525878906
v 377.5123291015625 -267.4876708984375 325.0001525878906
v 372.51116943359375 -267.4768981933594 325.0001525878906
v 377.5123291015625 -267.4876708984375 330.0001525878906
v 372.51116943359375 -267.4768981933594 330.0001525878906
v 372.53363037109375 -662.488037109375 330.0002746582031
v 377.53851318359375 -662.4881591796875 330.0002746582031
v 377.5123291015625 -267.4876708984375 330.0001525878906
v 372.51116943359375 -267.4768981933594 330.0001525878906
v 380.01885986328125 -564.9865112304688 0.00016928237164393067
v 370.02130126953125 -564.9865112304688 0.00016884534852579236
v 380.01885986328125 -564.9865112304688 5.000169277191162
v 370.02130126953125 -564.9865112304688 5.000168800354004
v 370.02130126953125 -564.986572265625 0.00016884534852579236
v 370.0135498046875 -662.4794921875 0.00017736811423674226
v 370.02130126953125 -564.986572265625 5.000168800354004
v 370.0135498046875 -662.4794921875 5.000177383422852
v 370.0135498046875 -662.4794921875 0.00017736811423674226
v 380.03497314453125 -662.492431640625 0.00017780732014216483
v 370.0135498046875 -662.4794921875 5.000177383422852
v 380.03497314453125 -662.492431640625 5.00017786026001
v 380.03497314453125 -662.492431640625 0.00017780732014216483
v 380.01885986328125 -564.9865112304688 0.00016928237164393067
v 380.03497314453125 -662.492431640625 5.00017786026001
v 380.01885986328125 -564.9865112304688 5.000169277191162
v 380.01885986328125 -564.9865112304688 5.000169277191162
v 370.02130126953125 -564.986572265625 5.000168800354004
v 370.0135498046875 -662.4794921875 5.000177383422852
v 380.03497314453125 -662.492431640625 5.00017786026001
v 372.5238037109375 -564.986572265625 5.000169277191162
v 377.52862548828125 -569.979248046875 5.0001702308654785
v 372.5238037109375 -569.9793090820312 5.000169277191162
v 377.52874755859375 -564.9866333007812 5.000169277191162
v 377.52862548828125 -654.9766845703125 5.000177383422852
v 377.51959228515625 -662.4860229492188 5.00017786026001
v 372.52374267578125 -654.9766845703125 5.000176906585693
v 372.51556396484375 -662.48974609375 5.00017786026001
v 373.76885986328125 -569.9791870117188 5.000169277191162
v 376.27130126953125 -654.976806640625 5.000176906585693
v 373.78106689453125 -654.9768676757812 5.000176906585693
v 376.27130126953125 -569.979248046875 5.00016975402832
v 372.52374267578125 -564.986572265625 5.000169277191162
v 372.5238037109375 -569.9793090820312 5.000169277191162
v 372.52374267578125 -564.986572265625 325.0001525878906
v 372.52374267578125 -569.9793701171875 325.0001525878906
v 372.5238037109375 -569.9793090820312 5.000169277191162
v 377.52862548828125 -569.979248046875 5.0001702308654785
v 372.52374267578125 -569.9793701171875 325.0001525878906
v 377.52862548828125 -569.9793090820312 325.0001525878906
v 377.52862548828125 -569.979248046875 5.0001702308654785
v 377.52874755859375 -564.9866333007812 5.000169277191162
v 377.52862548828125 -569.979248046875 325.0001525878906
v 377.52862548828125 -564.9866943359375 325.0001525878906
v 377.5286865234375 -564.986572265625 5.000169277191162
v 372.52374267578125 -564.986572265625 5.000169277191162
v 377.52862548828125 -564.986572265625 325.0001525878906
v 372.52374267578125 -564.986572265625 325.0001525878906
v 372.52374267578125 -564.986572265625 325.0001525878906
v 372.52374267578125 -569.9793701171875 325.0001525878906
v 377.52862548828125 -569.979248046875 325.0001525878906
v 377.52862548828125 -564.9866943359375 325.0001525878906
v 377.52862548828125 -654.9766845703125 5.000177383422852
v 372.52374267578125 -654.9766845703125 5.000176906585693
v 377.52862548828125 -654.9767456054688 325.0001525878906
v 372.523681640625 -654.9767456054688 325.0001525878906
v 372.52374267578125 -654.9766845703125 5.000176906585693
v 372.51556396484375 -662.4898071289062 5.00017786026001
v 372.523681640625 -654.9767456054688 325.0001525878906
v 372.51544189453125 -662.4898681640625 325.00018310546875
v 377.51953125 -662.486083984375 5.00017786026001
v 377.52862548828125 -654.9766845703125 5.000177383422852
v 377.51947021484375 -662.486083984375 325.0001525878906
v 377.52862548828125 -654.9767456054688 325.0001220703125
v 373.76885986328125 -569.979248046875 5.000169277191162
v 373.78106689453125 -654.9768676757812 5.000176906585693
v 373.76885986328125 -569.979248046875 325.0001220703125
v 373.78106689453125 -654.9769287109375 325.0001220703125
v 373.7811279296875 -654.976806640625 5.000176906585693
v 376.27130126953125 -654.976806640625 5.000176906585693
v 373.78106689453125 -654.9768676757812 325.0001525878906
v 376.27130126953125 -654.9768676757812 325.0001525878906
v 376.27130126953125 -654.9768676757812 5.000176906585693
v 376.27130126953125 -569.979248046875 5.00016975402832
v 376.27117919921875 -654.9769287109375 325.0001220703125
v 376.27117919921875 -569.979248046875 325.0001220703125
v 376.2713623046875 -569.979248046875 5.00016975402832
v 373.76885986328125 -569.9791870117188 5.000169277191162
v 376.27130126953125 -569.979248046875 325.0001525878906
v 373.76885986328125 -569.979248046875 325.0001525878906
v 377.5164794921875 -367.4767150878906 7.500152111053467
v 372.51165771484375 -367.4766845703125 7.500152111053467
v 377.5164794921875 -367.4767150878906 12.500152587890625
v 372.51165771484375 -367.4766845703125 12.500152587890625
v 372.51153564453125 -367.4766540527344 7.500152111053467
v 372.52386474609375 -562.4840698242188 7.500169277191162
v 372.51153564453125 -367.4766540527344 12.500152587890625
v 372.52386474609375 -562.4840698242188 12.500168800354004
v 372.52386474609375 -562.4840087890625 7.500169277191162
v 377.52874755859375 -562.4840087890625 7.500168800354004
v 372.52386474609375 -562.4840087890625 12.500168800354004
v 377.52874755859375 -562.4840087890625 12.50016975402832
v 377.52874755859375 -562.4840698242188 7.500168800354004
v 377.51641845703125 -367.4766540527344 7.500152111053467
v 377.52874755859375 -562.4840698242188 12.50016975402832
v 377.51641845703125 -367.4766540527344 12.500152587890625
v 377.51641845703125 -367.4766540527344 12.500152587890625
v 372.51153564453125 -367.4766540527344 12.500152587890625
v 377.52874755859375 -562.4840698242188 12.50016975402832
v 372.52386474609375 -562.4840698242188 12.500168800354004
v 372.5115966796875 -367.47662353515625 12.500152587890625
v 377.51654052734375 -372.4815673828125 12.500152587890625
v 372.51153564453125 -372.48150634765625 12.500152587890625
v 377.51641845703125 -367.4766540527344 12.500152587890625
v 377.52886962890625 -557.479248046875 12.500167846679688
v 377.52874755859375 -562.4840087890625 12.50016975402832
v 372.52386474609375 -557.4791259765625 12.500168800354004
v 372.52386474609375 -562.4840087890625 12.500168800354004
v 373.7689208984375 -372.48150634765625 12.500152587890625
v 376.27142333984375 -557.4791259765625 12.500167846679688
v 373.76898193359375 -557.479248046875 12.500168800354004
v 376.27130126953125 -372.48150634765625 12.500152587890625
v 372.51153564453125 -372.4815368652344 12.500152587890625
v 372.51153564453125 -367.4766540527344 112.50012969970703
v 372.51153564453125 -372.4815368652344 112.50012969970703
v 372.51153564453125 -372.4815368652344 12.500152587890625
v 377.51641845703125 -372.4815979003906 12.500152587890625
v 372.51153564453125 -372.4815368652344 112.50012969970703
v 377.51641845703125 -372.4815979003906 112.50012969970703
v 377.5164794921875 -372.4815673828125 12.500152587890625
v 377.5164794921875 -372.4815673828125 112.50012969970703
v 377.51641845703125 -367.4766540527344 112.50012969970703
v 377.51641845703125 -367.4766540527344 12.500152587890625
v 372.51153564453125 -367.4766540527344 12.500152587890625
v 377.51641845703125 -367.4766540527344 112.50012969970703
v 372.51153564453125 -367.4766540527344 112.50012969970703
v 402.51641845703125 -367.4766540527344 112.5001449584961
v 377.5164794921875 -372.4815673828125 112.50013732910156
v 377.51641845703125 -367.4766540527344 112.50013732910156
v 402.51654052734375 -562.484130859375 112.50016021728516
v 372.51153564453125 -372.4815368652344 112.50013732910156
v 372.5115966796875 -367.47662353515625 112.50013732910156
v 347.52374267578125 -367.4766540527344 112.50013732910156
v 347.5238037109375 -562.4840087890625 112.50016021728516
v 402.51641845703125 -367.4766540527344 112.5001449584961
v 347.5238037109375 -367.4766540527344 112.50013732910156
v 402.51641845703125 -367.4766540527344 117.5001449584961
v 347.5238037109375 -367.4766540527344 117.50013732910156
v 347.52374267578125 -367.4766540527344 112.50013732910156
v 347.5238037109375 -562.4840087890625 112.50016021728516
v 347.52374267578125 -367.4766540527344 117.50013732910156
v 347.5238037109375 -562.4840087890625 117.50016021728516
v 347.52386474609375 -562.484130859375 112.50016021728516
v 402.51654052734375 -562.484130859375 112.50016021728516
v 347.52386474609375 -562.484130859375 117.50016021728516
v 402.51654052734375 -562.484130859375 117.50016021728516
v 402.51654052734375 -562.484130859375 112.50016021728516
v 402.51641845703125 -367.4766540527344 112.5001449584961
v 402.51654052734375 -562.484130859375 117.50016021728516
v 402.51641845703125 -367.4766540527344 117.5001449584961
v 402.51641845703125 -367.4766540527344 117.5001449584961
v 377.51641845703125 -367.4766540527344 117.50013732910156
v 377.51654052734375 -372.4815673828125 117.50013732910156
v 377.5164794921875 -427.4864501953125 117.5001449584961
v 372.52374267578125 -427.4864196777344 117.5001449584961
v 377.51641845703125 -502.4864196777344 117.50016021728516
v 377.5164794921875 -507.4790344238281 117.50016021728516
v 377.52874755859375 -557.4791870117188 117.50016021728516
v 402.51654052734375 -562.484130859375 117.50016021728516
v 377.5164794921875 -422.4815673828125 117.5001449584961
v 372.52374267578125 -422.4815368652344 117.5001449584961
v 372.51153564453125 -372.48150634765625 117.50013732910156
v 347.52374267578125 -367.4766540527344 117.50013732910156
v 347.5238037109375 -562.4840087890625 117.50016021728516
v 372.52386474609375 -562.4840698242188 117.50016021728516
v 372.52386474609375 -557.4791870117188 117.50016021728516
v 372.52374267578125 -502.4864196777344 117.50015258789062
v 372.52374267578125 -507.4791259765625 117.50016021728516
v 372.51165771484375 -367.4766845703125 117.50013732910156
v 377.52874755859375 -562.4840698242188 117.50016021728516
v 372.51153564453125 -367.4766540527344 117.50013732910156
v 372.51153564453125 -372.4815368652344 117.50013732910156
v 372.51153564453125 -367.47662353515625 317.5001220703125
v 372.51153564453125 -372.48150634765625 317.5001220703125
v 372.51153564453125 -372.4815368652344 117.50013732910156
v 377.51641845703125 -372.4815979003906 117.50013732910156
v 372.51153564453125 -372.48150634765625 317.5001220703125
v 377.51641845703125 -372.4815673828125 317.5001220703125
v 377.5164794921875 -372.4815673828125 117.50013732910156
v 377.51641845703125 -367.4766540527344 117.50013732910156
v 377.5164794921875 -372.4815673828125 317.5001220703125
v 377.51641845703125 -367.47662353515625 317.5001220703125
v 377.51641845703125 -367.4766540527344 117.50013732910156
v 372.51153564453125 -367.4766540527344 117.50013732910156
v 377.51641845703125 -367.47662353515625 317.5001220703125
v 372.51153564453125 -367.47662353515625 317.5001220703125
v 372.51190185546875 -372.48150634765625 317.5001525878906
v 377.52874755859375 -562.4840698242188 317.5001525878906
v 372.5238037109375 -562.4840087890625 317.5001525878906
v 377.5164794921875 -372.4815673828125 317.5001525878906
v 372.52374267578125 -562.4840087890625 317.5001525878906
v 377.52874755859375 -562.484130859375 317.5001525878906
v 372.52374267578125 -562.4840087890625 322.5001525878906
v 377.52874755859375 -562.484130859375 322.5001525878906
v 377.52874755859375 -562.484130859375 317.5001525878906
v 377.51641845703125 -367.47662353515625 317.5001525878906
v 377.52874755859375 -562.484130859375 322.5001525878906
v 377.51641845703125 -367.47662353515625 322.5001525878906
v 377.51641845703125 -367.47662353515625 317.5001525878906
v 372.51153564453125 -367.47662353515625 317.5001525878906
v 377.51641845703125 -367.47662353515625 322.5001525878906
v 372.51153564453125 -367.47662353515625 322.5001525878906
v 372.51153564453125 -367.47662353515625 317.5001525878906
v 372.52374267578125 -562.4840087890625 317.5001525878906
v 372.51153564453125 -367.47662353515625 322.5001525878906
v 372.52374267578125 -562.4840087890625 322.5001525878906
v 372.51153564453125 -367.47662353515625 322.5001525878906
v 372.52374267578125 -562.4840087890625 322.5001525878906
v 377.52874755859375 -562.484130859375 322.5001525878906
v 377.51641845703125 -367.47662353515625 322.5001525878906
v 377.52874755859375 -562.484130859375 117.50016021728516
v 377.5286865234375 -557.479248046875 117.50016021728516
v 377.52874755859375 -562.484130859375 317.5001220703125
v 377.5286865234375 -557.479248046875 317.5001220703125
v 377.52874755859375 -557.479248046875 117.50016021728516
v 372.52386474609375 -557.4791870117188 117.50016021728516
v 377.52874755859375 -557.479248046875 317.5001220703125
v 372.52386474609375 -557.4791870117188 317.5001220703125
v 372.52374267578125 -557.4791259765625 117.50016021728516
v 372.52374267578125 -562.4840087890625 117.50016021728516
v 372.52374267578125 -557.4791259765625 317.5001220703125
v 372.52374267578125 -562.4840087890625 317.5001220703125
v 372.52374267578125 -562.484130859375 117.50016021728516
v 377.52874755859375 -562.4840698242188 117.50016021728516
v 372.52374267578125 -562.484130859375 317.5001220703125
v 377.52874755859375 -562.4840698242188 317.5001220703125
v 372.52374267578125 -422.4815673828125 117.5001449584961
v 372.52374267578125 -427.48651123046875 117.5001449584961
v 372.52374267578125 -422.4815673828125 317.5001220703125
v 372.52374267578125 -427.48651123046875 317.5001220703125
v 372.52374267578125 -427.48651123046875 117.5001449584961
v 377.51641845703125 -427.4864807128906 117.5001449584961
v 372.52374267578125 -427.48651123046875 317.5001525878906
v 377.51641845703125 -427.4864501953125 317.5001525878906
v 377.51641845703125 -427.4864807128906 117.5001449584961
v 377.5164794921875 -422.4815979003906 117.5001449584961
v 377.51641845703125 -427.4864501953125 317.5001220703125
v 377.5164794921875 -422.4815673828125 317.5001220703125
v 377.5164794921875 -422.4815979003906 117.5001449584961
v 372.52374267578125 -422.4815673828125 117.5001449584961
v 377.5164794921875 -422.4815673828125 317.5001525878906
v 372.52374267578125 -422.4815673828125 317.5001525878906
v 372.523681640625 -507.4791564941406 117.50016021728516
v 377.51641845703125 -507.47906494140625 117.50016021728516
v 372.523681640625 -507.4791259765625 317.5001525878906
v 377.51641845703125 -507.47906494140625 317.5001525878906
v 377.51641845703125 -507.47906494140625 117.50016021728516
v 377.51641845703125 -502.4864501953125 117.50016021728516
v 377.51641845703125 -507.47906494140625 317.5001525878906
v 377.51641845703125 -502.4864501953125 317.5001525878906
v 377.51641845703125 -502.4864501953125 117.50016021728516
v 372.52362060546875 -502.48638916015625 117.50015258789062
v 377.51641845703125 -502.4864501953125 317.5001525878906
v 372.52362060546875 -502.48638916015625 317.5001525878906
v 372.52374267578125 -502.4863586425781 117.50015258789062
v 372.523681640625 -507.4791564941406 117.50016021728516
v 372.52374267578125 -502.486328125 317.5001525878906
v 372.523681640625 -507.4791259765625 317.5001525878906
v 372.52374267578125 -422.4815368652344 117.5001449584961
v 372.51153564453125 -372.4815368652344 122.50012969970703
v 372.52374267578125 -422.4815368652344 122.50013732910156
v 372.52374267578125 -422.4815368652344 117.5001449584961
v 377.5164794921875 -422.4815673828125 117.5001449584961
v 372.52374267578125 -422.4815368652344 122.50013732910156
v 377.5164794921875 -422.4815673828125 122.50013732910156
v 377.51654052734375 -372.48162841796875 117.50013732910156
v 377.5164794921875 -422.4815979003906 122.50013732910156
v 377.51654052734375 -372.48162841796875 122.50012969970703
v 377.51654052734375 -372.4815673828125 117.50013732910156
v 372.51153564453125 -372.48150634765625 117.50013732910156
v 377.51654052734375 -372.4815673828125 122.50012969970703
v 372.51153564453125 -372.48150634765625 122.50012969970703
v 372.51153564453125 -372.4815368652344 122.50012969970703
v 372.52374267578125 -422.4815673828125 122.50013732910156
v 377.5164794921875 -422.4815979003906 122.50013732910156
v 377.51654052734375 -372.48162841796875 122.50012969970703
v 372.52374267578125 -557.4791259765625 117.50016021728516
v 377.52874755859375 -557.4791870117188 117.50016021728516
v 372.52374267578125 -557.4791259765625 122.50015258789062
v 377.52874755859375 -557.4791870117188 122.50015258789062
v 377.5164794921875 -507.4790344238281 117.50016021728516
v 377.5286865234375 -557.479248046875 122.50015258789062
v 377.5164794921875 -507.4790344238281 122.50015258789062
v 377.51654052734375 -507.4790954589844 117.50016021728516
v 372.52374267578125 -507.4791259765625 117.50016021728516
v 377.51654052734375 -507.4790954589844 122.50015258789062
v 372.52374267578125 -507.4791259765625 122.50015258789062
v 372.52374267578125 -507.4791259765625 117.50016021728516
v 372.52374267578125 -507.4791259765625 122.50015258789062
v 372.52374267578125 -557.4791259765625 122.50015258789062
v 372.52374267578125 -507.4791259765625 122.50015258789062
v 372.52374267578125 -557.4791259765625 122.50015258789062
v 377.5286865234375 -557.479248046875 122.50015258789062
v 377.5164794921875 -507.4790344238281 122.50015258789062
v 373.768798828125 -507.4791259765625 122.50015258789062
v 376.27130126953125 -557.479248046875 122.50015258789062
v 373.7689208984375 -557.4791870117188 122.50015258789062
v 376.271240234375 -507.4790954589844 122.50015258789062
v 373.76885986328125 -557.479248046875 122.50015258789062
v 376.27130126953125 -557.479248046875 122.50015258789062
v 373.76885986328125 -557.479248046875 222.5001678466797
v 376.27130126953125 -557.479248046875 222.5001678466797
v 376.27130126953125 -557.479248046875 122.50015258789062
v 376.271240234375 -507.4790954589844 122.50015258789062
v 376.27130126953125 -557.479248046875 222.5001678466797
v 376.271240234375 -507.47906494140625 222.50015258789062
v 376.27117919921875 -507.4791259765625 122.50015258789062
v 373.768798828125 -507.4791259765625 122.50015258789062
v 376.27117919921875 -507.4791259765625 222.50015258789062
v 373.768798828125 -507.4791259765625 222.50015258789062
v 373.768798828125 -507.4791259765625 122.50015258789062
v 373.76885986328125 -557.479248046875 122.50015258789062
v 373.768798828125 -507.4791259765625 222.50015258789062
v 373.76885986328125 -557.479248046875 222.5001678466797
v 377.52874755859375 -557.4791870117188 12.500167846679688
v 377.52874755859375 -562.484130859375 112.50015258789062
v 377.5286865234375 -557.479248046875 112.50015258789062
v 377.52886962890625 -557.479248046875 12.500167846679688
v 372.52386474609375 -557.4791259765625 12.500168800354004
v 377.52874755859375 -557.479248046875 112.50015258789062
v 372.52386474609375 -557.4791870117188 112.50015258789062
v 372.5238037109375 -557.4791259765625 12.500168800354004
v 372.5238037109375 -562.4840087890625 12.500168800354004
v 372.52374267578125 -557.4791259765625 112.50015258789062
v 372.52374267578125 -562.4840087890625 112.50015258789062
v 372.52386474609375 -562.4840698242188 12.500168800354004
v 372.52374267578125 -562.484130859375 112.50015258789062
v 377.52874755859375 -562.4840698242188 112.50015258789062
v 373.76898193359375 -557.479248046875 12.500168800354004
v 376.27142333984375 -557.479248046875 12.500167846679688
v 373.76898193359375 -557.479248046875 112.50016021728516
v 376.27130126953125 -557.479248046875 112.50016021728516
v 376.27130126953125 -557.4791259765625 12.500167846679688
v 376.27130126953125 -372.4815368652344 12.500152587890625
v 376.27130126953125 -557.479248046875 112.50016021728516
v 376.27130126953125 -372.4815368652344 112.50013732910156
v 376.27130126953125 -372.48150634765625 12.500152587890625
v 373.76885986328125 -372.4814758300781 12.500152587890625
v 376.27130126953125 -372.48150634765625 112.50013732910156
v 373.76885986328125 -372.4814758300781 112.50013732910156
v 373.76885986328125 -372.4814453125 12.500152587890625
v 373.7689208984375 -557.4791870117188 12.500168800354004
v 373.76885986328125 -372.4814453125 112.50013732910156
v 373.76885986328125 -557.479248046875 112.50016021728516
v 372.523681640625 -502.486572265625 217.50018310546875
v 377.51629638671875 -502.48651123046875 217.50018310546875
v 372.523681640625 -502.486572265625 222.5001678466797
v 377.51629638671875 -502.48651123046875 222.5001678466797
v 377.51641845703125 -502.48651123046875 217.50018310546875
v 377.51629638671875 -427.48651123046875 217.50018310546875
v 377.51641845703125 -502.48651123046875 222.5001678466797
v 377.51629638671875 -427.48651123046875 222.5001678466797
v 377.51629638671875 -427.48651123046875 217.50018310546875
v 372.52374267578125 -427.48651123046875 217.50018310546875
v 377.51629638671875 -427.48651123046875 222.5001678466797
v 372.52374267578125 -427.48651123046875 222.5001678466797
v 372.523681640625 -427.4864501953125 217.50018310546875
v 372.523681640625 -502.486572265625 217.50018310546875
v 372.523681640625 -427.4864501953125 222.5001678466797
v 372.523681640625 -502.486572265625 222.5001678466797
v 372.52374267578125 -427.48651123046875 217.50018310546875
v 377.51629638671875 -502.48651123046875 217.50018310546875
v 372.523681640625 -502.486572265625 217.50018310546875
v 377.51629638671875 -427.48651123046875 217.50018310546875
v 372.52374267578125 -427.48651123046875 222.5001678466797
v 372.523681640625 -502.486572265625 222.5001678466797
v 377.51629638671875 -502.48651123046875 222.5001678466797
v 377.51629638671875 -427.48651123046875 222.5001678466797
v 373.76885986328125 -422.4815979003906 122.50015258789062
v 376.271240234375 -422.481689453125 122.50015258789062
v 373.76885986328125 -422.4815673828125 222.50015258789062
v 376.271240234375 -422.481689453125 222.50015258789062
v 376.27117919921875 -422.48162841796875 122.50015258789062
v 376.27117919921875 -372.4816589355469 122.5001449584961
v 376.27117919921875 -422.48162841796875 222.50015258789062
v 376.27117919921875 -372.4816589355469 222.50015258789062
v 376.27117919921875 -372.4816589355469 122.5001449584961
v 373.768798828125 -372.4816589355469 122.5001449584961
v 376.27117919921875 -372.4816589355469 222.50015258789062
v 373.768798828125 -372.4816589355469 222.50015258789062
v 373.768798828125 -372.4816589355469 122.5001449584961
v 373.76873779296875 -422.4816589355469 122.50015258789062
v 373.768798828125 -372.4816589355469 222.50015258789062
v 373.76873779296875 -422.48162841796875 222.50015258789062
v 373.76885986328125 -557.4793090820312 222.5001678466797
v 376.271240234375 -557.4793701171875 222.5001678466797
v 373.76885986328125 -557.4793090820312 317.5001525878906
v 376.271240234375 -557.4793701171875 317.5001525878906
v 376.271240234375 -557.4793701171875 317.5001220703125
v 376.27117919921875 -372.48162841796875 317.5001220703125
v 376.27117919921875 -372.48162841796875 317.5001525878906
v 373.768798828125 -372.48162841796875 317.5001525878906
v 373.768798828125 -372.48162841796875 317.5001220703125
v 373.76885986328125 -557.4793701171875 317.5001220703125
v 373.74554443359375 -272.4898681640625 5.000143527984619
v 373.76348876953125 -359.98846435546875 5.00015115737915
v 373.74554443359375 -272.4898681640625 325.0001525878906
v 373.76348876953125 -359.98846435546875 325.0001525878906
v 373.76348876953125 -359.98846435546875 5.00015115737915
v 376.24847412109375 -359.9832458496094 5.00015115737915
v 373.76348876953125 -359.98846435546875 325.0001525878906
v 376.24847412109375 -359.98321533203125 325.0001525878906
v 376.24847412109375 -359.9832458496094 5.00015115737915
v 376.24755859375 -272.488037109375 5.000144004821777
v 376.24847412109375 -359.98321533203125 325.0001525878906
v 376.24755859375 -272.488037109375 325.0001525878906
v 376.24755859375 -272.488037109375 5.000144004821777
v 373.74560546875 -272.48992919921875 5.000143527984619
v 376.24755859375 -272.488037109375 325.0001525878906
v 373.74560546875 -272.48992919921875 325.0001525878906
v 819.9874877929688 -267.468994140625 5.000062465667725
v 819.9873657226562 -272.47393798828125 5.000063419342041
v 819.9874877929688 -267.468994140625 325.00006103515625
v 819.9873657226562 -272.47393798828125 325.00006103515625
v 819.9873657226562 -272.47393798828125 5.000063419342041
v 824.9861450195312 -272.4739990234375 5.000062942504883
v 819.9873657226562 -272.47393798828125 325.00006103515625
v 824.9861450195312 -272.4739990234375 325.00006103515625
v 824.9861450195312 -267.46905517578125 5.000062942504883
v 819.9874877929688 -267.468994140625 5.000062465667725
v 824.9861450195312 -267.46905517578125 325.00006103515625
v 819.9874877929688 -267.468994140625 325.00006103515625
v 734.9879760742188 -271.23260498046875 5.000059127807617
v 819.9855346679688 -271.220458984375 5.000062942504883
v 734.9879760742188 -271.23260498046875 325.00006103515625
v 819.9855346679688 -271.220458984375 325.00006103515625
v 819.9854125976562 -271.22052001953125 5.000062942504883
v 819.9855346679688 -268.730224609375 5.000062465667725
v 819.9854125976562 -271.22052001953125 325.00006103515625
v 819.9855346679688 -268.730224609375 325.00006103515625
v 819.9855346679688 -268.730224609375 5.000062465667725
v 734.9879760742188 -268.73016357421875 5.000059127807617
v 819.9855346679688 -268.730224609375 325.00006103515625
v 734.9879760742188 -268.73016357421875 325.00006103515625
v 734.9878540039062 -268.730224609375 5.000059127807617
v 734.9879760742188 -271.2325439453125 5.000059127807617
v 734.9878540039062 -268.730224609375 325.00006103515625
v 734.9879760742188 -271.2325439453125 325.00006103515625
v 729.9951782226562 -272.47772216796875 5.000059127807617
v 734.9879760742188 -272.47772216796875 5.000059127807617
v 729.9951782226562 -272.47772216796875 325.00006103515625
v 734.9879760742188 -272.47772216796875 325.00006103515625
v 734.9878540039062 -272.4776611328125 5.000059127807617
v 734.9878540039062 -267.47283935546875 5.000058174133301
v 734.9878540039062 -272.4776611328125 325.00006103515625
v 734.9878540039062 -267.47283935546875 325.00006103515625
v 734.9878540039062 -267.4727783203125 5.000058174133301
v 729.9951782226562 -267.472900390625 5.000058650970459
v 734.9878540039062 -267.4727783203125 325.00006103515625
v 729.9951782226562 -267.472900390625 325.00006103515625
v 729.9950561523438 -267.4727783203125 5.000058650970459
v 729.9951782226562 -272.47772216796875 5.000059127807617
v 729.9950561523438 -267.4727783203125 325.00006103515625
v 729.9951782226562 -272.47772216796875 325.00006103515625
v 729.9951782226562 -272.47772216796875 325.00006103515625
v 734.9879760742188 -272.47772216796875 325.00006103515625
v 734.9878540039062 -267.47283935546875 325.00006103515625
v 729.9951782226562 -267.47283935546875 325.00006103515625
v 729.9953002929688 -264.982666015625 5.835316551383585e-05
v 729.9951782226562 -274.98028564453125 5.92271753703244e-05
v 729.9953002929688 -264.982666015625 5.000058650970459
v 729.9951782226562 -274.98028564453125 5.000059604644775
v 729.9954223632812 -274.980224609375 5.9227186284260824e-05
v 825.0026245117188 -274.94354248046875 6.337687227642164e-05
v 729.9954223632812 -274.980224609375 5.000059604644775
v 825.0026245117188 -274.94354248046875 5.000063419342041
v 825.0026245117188 -264.93389892578125 6.250180013012141e-05
v 729.9954223632812 -264.98260498046875 5.835316551383585e-05
v 825.0026245117188 -264.93389892578125 5.000062465667725
v 729.9954223632812 -264.98260498046875 5.000058650970459
v 729.9953002929688 -264.982666015625 5.000058650970459
v 729.9951782226562 -274.98028564453125 5.000059604644775
v 825.0026245117188 -264.93389892578125 5.000062465667725
v 825.0026245117188 -274.94354248046875 5.000063419342041
v 462.50616455078125 -267.4713439941406 5.000047206878662
v 462.50628662109375 -272.47613525390625 5.000047206878662
v 462.50616455078125 -267.4713439941406 325.00006103515625
v 462.50628662109375 -272.47613525390625 325.00006103515625
v 462.50628662109375 -272.4761657714844 5.000047206878662
v 467.49896240234375 -272.47625732421875 5.00004768371582
v 462.50628662109375 -272.4761657714844 325.00006103515625
v 467.49896240234375 -272.47625732421875 325.00006103515625
v 467.49896240234375 -272.47625732421875 5.00004768371582
v 467.49896240234375 -267.4713439941406 5.000046730041504
v 467.49896240234375 -272.47625732421875 325.00006103515625
v 467.49896240234375 -267.4713439941406 325.00006103515625
v 467.49896240234375 -267.4713439941406 5.000046730041504
v 462.50616455078125 -267.4713439941406 5.000047206878662
v 467.49896240234375 -267.4713439941406 325.00006103515625
v 462.50616455078125 -267.4713439941406 325.00006103515625
v 467.49896240234375 -267.47735595703125 325.00006103515625
v 825.0064086914062 -267.47735595703125 325.00006103515625
v 467.49896240234375 -272.4761962890625 325.00006103515625
v 825.0064086914062 -272.4761962890625 325.00006103515625
v 377.50885009765625 -267.477294921875 325.00006103515625
v 462.50628662109375 -267.47735595703125 325.00006103515625
v 377.50872802734375 -272.4761962890625 325.00006103515625
v 462.50628662109375 -272.47613525390625 325.00006103515625
v 377.50872802734375 -267.47735595703125 325.00006103515625
v 377.50872802734375 -272.4761962890625 325.00006103515625
v 377.50872802734375 -267.47735595703125 330.00006103515625
v 377.50872802734375 -272.4761962890625 330.00006103515625
v 377.5087890625 -272.4762268066406 325.00006103515625
v 825.0064086914062 -272.47613525390625 325.00006103515625
v 377.5087890625 -272.4762268066406 330.00006103515625
v 825.0064086914062 -272.47613525390625 330.00006103515625
v 825.0065307617188 -267.4774169921875 325.00006103515625
v 377.5089111328125 -267.4773254394531 325.00006103515625
v 825.0065307617188 -267.4774169921875 330.00006103515625
v 377.5089111328125 -267.4773254394531 330.00006103515625
v 377.50872802734375 -267.47735595703125 330.00006103515625
v 377.50872802734375 -272.4761962890625 330.00006103515625
v 394.99822998046875 -267.4773864746094 330.00006103515625
v 394.9981689453125 -272.47613525390625 330.00006103515625
v 394.99810791015625 -277.4817810058594 330.0001525878906
v 825.0032348632812 -272.47613525390625 330.0001525878906
v 825.0031127929688 -277.4818115234375 330.0001525878906
v 394.9981689453125 -272.47613525390625 330.0001525878906
v 394.99822998046875 -267.4773864746094 330.0001525878906
v 825.0031127929688 -262.48541259765625 330.0001525878906
v 825.0031127929688 -267.47735595703125 330.0001525878906
v 394.99822998046875 -262.4853820800781 330.0001525878906
v 367.53253173828125 170.00973510742188 330.0001220703125
v 382.534912109375 170.00970458984375 330.0001220703125
v 367.5279541015625 -252.4874725341797 330.0001525878906
v 382.53045654296875 -252.4875030517578 330.0001525878906
v 394.99810791015625 -277.4817810058594 330.0001525878906
v 825.0028686523438 -277.4818115234375 330.0001525878906
v 394.99810791015625 -277.4817199707031 400.0001525878906
v 825.0028686523438 -277.4817199707031 400.0001525878906
v 825.0031127929688 -262.48541259765625 330.0001525878906
v 394.99822998046875 -262.4853820800781 330.0001525878906
v 825.0029907226562 -262.4853515625 400.0001525878906
v 394.99822998046875 -262.4853515625 400.0001525878906
v 367.53253173828125 170.009765625 330.0001220703125
v 367.5279541015625 -252.4874725341797 330.0001525878906
v 367.53253173828125 170.00979614257812 400.0001220703125
v 367.52789306640625 -252.48744201660156 400.0001525878906
v 382.5303955078125 -252.48744201660156 330.0001525878906
v 382.534912109375 170.00973510742188 330.0001220703125
v 382.53033447265625 -252.48741149902344 400.0001525878906
v 382.534912109375 170.009765625 400.0001220703125
v 377.50677490234375 -271.228759765625 5.000043869018555
v 462.50433349609375 -271.2165832519531 5.000046730041504
v 377.50677490234375 -271.228759765625 325.00006103515625
v 462.50433349609375 -271.2165832519531 325.00006103515625
v 462.50433349609375 -271.21661376953125 5.000046730041504
v 462.50433349609375 -268.7264099121094 5.000046730041504
v 462.50433349609375 -271.21661376953125 325.00006103515625
v 462.50433349609375 -268.7264099121094 325.00006103515625
v 462.50433349609375 -268.7264099121094 5.000046730041504
v 377.5067138671875 -268.72637939453125 5.000042915344238
v 462.50433349609375 -268.7264099121094 325.00006103515625
v 377.5067138671875 -268.72637939453125 325.00006103515625
v 377.50677490234375 -268.7264404296875 5.000042915344238
v 377.50677490234375 -271.228759765625 5.000043869018555
v 377.50677490234375 -268.7264404296875 325.00006103515625
v 377.50677490234375 -271.228759765625 325.00006103515625
v 380.00909423828125 -264.97882080078125 4.3054449633928016e-05
v 380.00921630859375 -274.976318359375 4.392845949041657e-05
v 380.00909423828125 -264.97882080078125 5.000042915344238
v 380.00921630859375 -274.976318359375 5.000044345855713
v 380.00921630859375 -274.9764404296875 4.3928466766374186e-05
v 467.52142333984375 -274.9397277832031 4.775054185301997e-05
v 380.00921630859375 -274.9764404296875 5.000044345855713
v 467.52142333984375 -274.9397277832031 5.0000481605529785
v 467.52142333984375 -274.9397277832031 4.775054185301997e-05
v 467.52142333984375 -264.9300231933594 4.687546970671974e-05
v 467.52142333984375 -274.9397277832031 5.0000481605529785
v 467.52142333984375 -264.9300231933594 5.000046730041504
v 467.52142333984375 -264.9300231933594 4.687546970671974e-05
v 380.00909423828125 -264.97882080078125 4.3054449633928016e-05
v 467.52142333984375 -264.9300231933594 5.000046730041504
v 380.00909423828125 -264.97882080078125 5.000042915344238
v 380.00909423828125 -264.97882080078125 5.000042915344238
v 380.00921630859375 -274.97637939453125 5.000044345855713
v 467.52142333984375 -264.9300231933594 5.000046730041504
v 467.52142333984375 -274.9397277832031 5.0000481605529785
v -624.9771728515625 674.9967651367188 -8.30501812743023e-05
v -624.9939575195312 150.00332641601562 -3.7154524761717767e-05
v -624.9771728515625 674.9967651367188 0.9999169707298279
v -624.9939575195312 150.00332641601562 0.9999628067016602
v -624.9939575195312 150.00323486328125 -3.715451748576015e-05
v -824.9940185546875 150.00320434570312 -4.5896798837929964e-05
v -624.9939575195312 150.00323486328125 0.9999628067016602
v -824.9940185546875 150.00320434570312 0.999954104423523
v -824.9940185546875 150.00323486328125 -4.5896798837929964e-05
v -824.9940185546875 -264.9991455078125 -9.616140232537873e-06
v -824.9940185546875 150.00323486328125 0.999954104423523
v -824.9940185546875 -264.9991455078125 0.9999904036521912
v -824.9940185546875 -264.99932861328125 -9.616123861633241e-06
v 375.00628662109375 -264.99932861328125 4.2837567889364436e-05
v -824.9940185546875 -264.99932861328125 0.9999901652336121
v 375.00628662109375 -264.99932861328125 1.0000426769256592
v 375.00628662109375 -264.99932861328125 4.2837567889364436e-05
v 375.00653076171875 -674.9969482421875 7.868069224059582e-05
v 375.00628662109375 -264.99932861328125 1.0000429153442383
v 375.00653076171875 -674.9969482421875 1.0000786781311035
v 375.00653076171875 -674.9969482421875 7.868069951655343e-05
v 825.0065307617188 -674.9970092773438 9.835082164499909e-05
v 375.00653076171875 -674.9969482421875 1.0000786781311035
v 825.0065307617188 -674.9970092773438 1.0000983476638794
v 825.0066528320312 -674.9969482421875 9.835081436904147e-05
v 825.0066528320312 150.00338745117188 2.622701140353456e-05
v 825.0066528320312 -674.9969482421875 1.0000983476638794
v 825.0066528320312 150.00338745117188 1.0000262260437012
v 825.0065307617188 150.0032958984375 2.622701140353456e-05
v 175.00628662109375 150.0032958984375 -2.1853993530385196e-06
v 825.0065307617188 150.0032958984375 1.0000262260437012
v 175.00628662109375 150.0032958984375 0.9999978542327881
v 175.00628662109375 150.0032958984375 -2.1853993530385196e-06
v 175.02313232421875 674.9970092773438 -4.8081070417538285e-05
v 175.00628662109375 150.0032958984375 0.9999978542327881
v 175.02313232421875 674.9970092773438 0.999951958656311
v 175.023193359375 674.9968872070312 -4.808106314158067e-05
v -624.9771728515625 674.9967651367188 -8.305017399834469e-05
v 175.023193359375 674.9968872070312 0.999951958656311
v -624.9771728515625 674.9967651367188 0.9999169707298279
v 175.00628662109375 150.00326538085938 0.9999978542327881
v -624.9771728515625 674.9967651367188 0.9999169707298279
v -624.9939575195312 150.00323486328125 0.9999628067016602
v 375.00628662109375 -264.99932861328125 1.0000429153442383
v -824.9940185546875 -264.99932861328125 0.9999904036521912
v -824.9940185546875 150.00320434570312 0.999954104423523
v 375.0064697265625 -674.9969482421875 1.0000786781311035
v 825.0065307617188 150.0032958984375 1.0000262260437012
v 825.0065307617188 -674.9970092773438 1.0000983476638794
v 175.02313232421875 674.9968872070312 0.999951958656311
f 40 42 39
f 40 39 41
f 36 38 35
f 36 35 37
f 32 34 31
f 32 31 33
f 28 30 27
f 28 27 29
f 18 17 19
f 20 18 19
f 14 13 15
f 16 14 15
f 10 9 11
f 12 10 11
f 6 5 7
f 8 6 7
f 2 1 3
f 4 2 3
f 1079 1078 1080
f 1081 1079 1080
f 1075 1074 1076
f 1077 1075 1076
f 1071 1070 1072
f 1073 1071 1072
f 1067 1066 1068
f 1069 1067 1068
f 1063 1062 1064
f 1065 1063 1064
f 1043 1042 1044
f 1045 1043 1044
f 1039 1038 1040
f 1041 1039 1040
f 1035 1034 1036
f 1037 1035 1036
f 1031 1030 1032
f 1033 1031 1032
f 1027 1026 1028
f 1027 1028 1029
f 1023 1025 1022
f 1023 1022 1024
f 1019 1021 1018
f 1019 1018 1020
f 1015 1014 1016
f 1017 1015 1016
f 1011 1010 1012
f 1013 1011 1012
f 1007 1006 1008
f 1009 1007 1008
f 1003 1002 1004
f 1005 1003 1004
f 999 998 1000
f 999 1000 1001
f 995 994 996
f 995 996 997
f 991 990 992
f 993 991 992
f 987 986 988
f 989 987 988
f 983 982 984
f 985 983 984
f 979 978 980
f 981 979 980
f 975 974 976
f 977 975 976
f 971 970 972
f 973 971 972
f 967 966 968
f 969 967 968
f 963 962 964
f 965 963 964
f 955 954 956
f 957 955 956
f 951 950 952
f 953 951 952
f 947 946 948
f 949 947 948
f 943 942 944
f 945 943 944
f 923 922 924
f 925 923 924
f 919 918 920
f 921 919 920
f 915 914 916
f 917 915 916
f 863 865 862
f 863 862 864
f 859 858 860
f 861 859 860
f 855 854 856
f 857 855 856
f 851 850 852
f 853 851 852
f 847 846 848
f 849 847 848
f 827 826 828
f 829 827 828
f 823 822 824
f 825 823 824
f 819 818 820
f 821 819 820
f 815 814 816
f 817 815 816
f 795 797 794
f 795 794 796
f 787 786 788
f 789 787 788
f 783 782 784
f 785 783 784
f 779 778 780
f 781 779 780
f 775 774 776
f 777 775 776
f 767 766 768
f 769 767 768
f 763 762 764
f 765 763 764
f 759 758 760
f 761 759 760
f 755 754 756
f 757 755 756
f 751 750 752
f 753 751 752
f 747 746 748
f 749 747 748
f 743 742 744
f 745 743 744
f 739 738 740
f 741 739 740
f 735 734 736
f 737 735 736
f 731 730 732
f 733 731 732
f 727 726 728
f 729 727 728
f 723 722 724
f 725 723 724
f 719 718 720
f 721 719 720
f 715 714 716
f 717 715 716
f 711 710 712
f 713 711 712
f 707 706 708
f 709 707 708
f 699 698 700
f 701 699 700
f 695 694 696
f 697 695 696
f 691 690 692
f 693 691 692
f 687 686 688
f 689 687 688
f 683 685 682
f 683 682 684
f 679 678 680
f 681 679 680
f 675 674 676
f 677 675 676
f 671 670 672
f 673 671 672
f 667 666 668
f 669 667 668
f 643 642 644
f 645 643 644
f 639 638 640
f 641 639 640
f 635 634 636
f 637 635 636
f 631 630 632
f 633 631 632
f 619 618 620
f 621 619 620
f 615 614 616
f 617 615 616
f 611 610 612
f 613 611 612
f 607 606 608
f 609 607 608
f 603 605 602
f 603 602 604
f 599 598 600
f 599 600 601
f 595 597 594
f 595 594 596
f 591 590 592
f 593 591 592
f 587 586 588
f 589 587 588
f 583 582 584
f 585 583 584
f 579 578 580
f 581 579 580
f 575 574 576
f 577 575 576
f 555 554 556
f 557 555 556
f 551 550 552
f 553 551 552
f 547 546 548
f 549 547 548
f 539 538 540
f 541 539 540
f 535 534 536
f 537 535 536
f 531 530 532
f 533 531 532
f 527 526 528
f 529 527 528
f 523 525 522
f 523 522 524
f 519 518 520
f 519 520 521
f 515 517 514
f 515 514 516
f 507 506 508
f 509 507 508
f 503 502 504
f 505 503 504
f 499 498 500
f 501 499 500
f 495 494 496
f 497 495 496
f 487 486 488
f 489 487 488
f 483 482 484
f 485 483 484
f 479 478 480
f 481 479 480
f 471 470 472
f 471 472 473
f 467 466 468
f 469 467 468
f 463 462 464
f 465 463 464
f 459 458 460
f 461 459 460
f 455 454 456
f 457 455 456
f 451 453 450
f 451 450 452
f 443 442 444
f 445 443 444
f 439 438 440
f 441 439 440
f 435 434 436
f 437 435 436
f 431 430 432
f 433 431 432
f 427 426 428
f 429 427 428
f 423 422 424
f 425 423 424
f 419 418 420
f 421 419 420
f 415 414 416
f 417 415 416
f 395 394 396
f 397 395 396
f 391 390 392
f 393 391 392
f 387 386 388
f 389 387 388
f 379 378 380
f 381 379 380
f 375 374 376
f 377 375 376
f 371 370 372
f 373 371 372
f 367 366 368
f 369 367 368
f 363 365 362
f 363 362 364
f 359 358 360
f 359 360 361
f 355 357 354
f 355 354 356
f 351 350 352
f 353 351 352
f 347 346 348
f 349 347 348
f 343 342 344
f 345 343 344
f 339 338 340
f 341 339 340
f 313 312 314
f 315 313 314
f 309 308 310
f 311 309 310
f 305 304 306
f 307 305 306
f 301 300 302
f 303 301 302
f 297 296 298
f 299 297 298
f 293 292 294
f 295 293 294
f 289 288 290
f 291 289 290
f 285 284 286
f 287 285 286
f 281 280 282
f 283 281 282
f 277 276 278
f 279 277 278
f 273 272 274
f 275 273 274
f 269 268 270
f 271 269 270
f 265 264 266
f 267 265 266
f 261 260 262
f 263 261 262
f 257 256 258
f 259 257 258
f 253 252 254
f 255 253 254
f 249 248 250
f 251 249 250
f 245 244 246
f 247 245 246
f 241 240 242
f 243 241 242
f 233 232 234
f 235 233 234
f 229 228 230
f 231 229 230
f 225 224 226
f 227 225 226
f 221 220 222
f 223 221 222
f 97 96 98
f 99 97 98
f 93 92 94
f 95 93 94
f 89 88 90
f 91 89 90
f 85 84 86
f 87 85 86
f 81 80 82
f 82 83 81
f 78 1132 77
f 78 77 79
f 74 73 75
f 76 74 75
f 70 69 71
f 72 70 71
f 66 65 67
f 68 66 67
f 62 61 63
f 64 62 63
f 55 58 59
f 56 58 55
f 56 1133 57
f 57 60 56
f 52 54 51
f 52 51 53
f 48 47 49
f 48 49 50
f 44 43 45
f 44 45 46
f 660 659 661
f 661 659 663
f 663 659 662
f 662 659 658
f 650 662 658
f 651 662 650
f 650 649 651
f 651 649 654
f 649 646 654
f 655 646 649
f 648 646 655
f 647 646 648
f 665 653 654
f 653 652 654
f 652 651 654
f 22 21 23
f 23 21 25
f 24 23 25
f 25 26 24
f 959 958 960
f 958 961 960
f 867 866 868
f 866 869 868
f 791 790 792
f 790 793 792
f 771 770 772
f 770 773 772
f 703 702 704
f 702 705 704
f 658 664 657
f 657 656 658
f 656 650 658
f 626 627 628
f 628 629 626
f 626 629 625
f 625 623 626
f 625 622 623
f 623 622 624
f 237 236 238
f 236 239 238
f 383 382 384
f 382 385 384
f 447 446 448
f 446 449 448
f 477 474 475
f 475 474 476
f 491 490 492
f 492 490 493
f 511 510 512
f 512 510 513
f 543 542 544
f 542 545 544
f 100 103 102
f 101 100 102
f 105 111 109
f 104 107 108
f 109 107 104
f 109 1134 105
f 1136 1135 106
f 106 110 1136
f 113 112 114
f 113 114 115
f 117 116 118
f 119 117 118
f 121 120 122
f 123 121 122
f 125 124 126
f 127 125 126
f 129 128 130
f 131 129 130
f 133 132 134
f 135 133 134
f 137 136 138
f 139 137 138
f 145 147 144
f 145 144 146
f 141 143 140
f 141 140 142
f 201 203 200
f 201 200 202
f 197 199 196
f 197 196 198
f 193 195 192
f 193 192 194
f 189 191 188
f 189 188 190
f 185 187 184
f 185 184 186
f 181 183 180
f 181 180 182
f 177 179 176
f 177 176 178
f 173 175 172
f 173 172 174
f 169 171 168
f 169 168 170
f 165 167 164
f 165 164 166
f 161 163 160
f 161 160 162
f 157 159 156
f 157 156 158
f 153 155 152
f 153 152 154
f 149 151 148
f 149 148 150
f 208 207 209
f 209 207 210
f 210 207 211
f 207 204 211
f 206 204 207
f 205 204 206
f 213 212 214
f 212 215 214
f 215 219 214
f 218 219 215
f 216 218 215
f 217 216 215
f 1085 1083 1084
f 1083 1082 1084
f 1124 1125 1126
f 1126 1127 1124
f 1130 1128 1129
f 1128 1125 1129
f 1125 1122 1129
f 1122 1125 1124
f 1123 1122 1124
f 1122 1123 1131
f 1087 1086 1088
f 1089 1087 1088
f 1091 1090 1092
f 1093 1091 1092
f 1095 1094 1096
f 1097 1095 1096
f 1099 1098 1100
f 1101 1099 1100
f 1103 1102 1104
f 1105 1103 1104
f 1107 1106 1108
f 1109 1107 1108
f 1111 1110 1112
f 1113 1111 1112
f 1115 1114 1116
f 1117 1115 1116
f 1119 1118 1120
f 1121 1119 1120
f 325 324 326
f 327 325 326
f 321 320 322
f 323 321 322
f 317 316 318
f 319 317 318
f 1059 1058 1060
f 1061 1059 1060
f 1055 1054 1056
f 1057 1055 1056
f 1051 1050 1052
f 1053 1051 1052
f 1047 1046 1048
f 1049 1047 1048
f 939 938 940
f 941 939 940
f 935 934 936
f 937 935 936
f 931 930 932
f 933 931 932
f 927 926 928
f 929 927 928
f 911 910 912
f 913 911 912
f 907 906 908
f 909 907 908
f 903 902 904
f 905 903 904
f 899 898 900
f 901 899 900
f 813 884 896
f 897 813 896
f 883 882 884
f 885 883 884
f 811 810 812
f 813 811 812
f 893 892 894
f 895 893 894
f 877 804 890
f 891 877 890
f 803 802 804
f 805 803 804
f 875 874 876
f 877 875 876
f 887 886 888
f 889 887 888
f 879 878 880
f 881 879 880
f 871 870 872
f 873 871 872
f 843 842 844
f 845 843 844
f 839 838 840
f 841 839 840
f 835 834 836
f 837 835 836
f 831 830 832
f 833 831 832
f 807 806 808
f 809 807 808
f 799 798 800
f 801 799 800
f 571 570 572
f 573 571 572
f 567 566 568
f 569 567 568
f 563 562 564
f 565 563 564
f 559 558 560
f 561 559 560
f 411 410 412
f 413 411 412
f 407 406 408
f 409 407 408
f 403 402 404
f 405 403 404
f 399 398 400
f 401 399 400
f 329 328 330
f 331 329 330
f 334 337 333
f 333 332 334
f 1137 335 334
f 336 335 1137
