# from FinancialDistrict_Block20_Upmarket Corporate (UC)_0002_LOD_0.pskx
v 1763.9215087890625 1148.9637451171875 49.99989700317383
v -786.1138916015625 1098.91357421875 49.99979019165039
v 1713.9215087890625 1098.9136962890625 49.999900817871094
v -836.1138916015625 1148.963623046875 49.99978256225586
v 1763.9288330078125 1148.9564208984375 24.974897384643555
v -836.1212158203125 1148.956298828125 50.024784088134766
v 1763.9288330078125 1148.9564208984375 50.024898529052734
v -836.1212158203125 1148.956298828125 24.97478485107422
v 1813.9215087890625 1198.9637451171875 24.999895095825195
v -836.1138916015625 1148.91357421875 24.999784469604492
v 1763.9215087890625 1148.9136962890625 24.999897003173828
v -886.1138916015625 1198.963623046875 24.999778747558594
v 1813.9288330078125 1198.9564208984375 -0.025104908272624016
v -886.1212158203125 1198.956298828125 25.024778366088867
v 1813.9288330078125 1198.9564208984375 25.02489471435547
v -886.1212158203125 1198.956298828125 -0.025222929194569588
v 2063.939208984375 848.9564208984375 49.99993896484375
v 1713.868408203125 1098.9564208984375 49.999900817871094
v 2013.90380859375 798.9210815429688 49.99993896484375
v 1763.90380859375 1148.9918212890625 49.99989700317383
v 2063.92138671875 848.938720703125 24.974937438964844
v 1763.8861083984375 1148.97412109375 50.024898529052734
v 2063.92138671875 848.938720703125 50.024940490722656
v 1763.8861083984375 1148.97412109375 24.974897384643555
v 2113.939208984375 898.9564208984375 24.99993324279785
v 1763.868408203125 1148.9564208984375 24.999897003173828
v 2063.90380859375 848.9210815429688 24.999937057495117
v 1813.90380859375 1198.9918212890625 24.999895095825195
v 2113.92138671875 898.938720703125 -0.02506556734442711
v 1813.8861083984375 1198.97412109375 25.02489471435547
v 2113.92138671875 898.938720703125 25.024932861328125
v 1813.8861083984375 1198.97412109375 -0.025104908272624016
v 2063.9111328125 848.97412109375 49.99993896484375
v 2013.861083984375 798.97412109375 49.99993896484375
v 2013.8787841796875 98.93142700195312 50.0
v 2063.9287109375 98.93142700195312 50.000003814697266
v 2063.90380859375 848.9814453125 24.974937438964844
v 2063.90380859375 848.9814453125 50.024940490722656
v 2063.90380859375 98.93142700195312 50.02500534057617
v 2063.90380859375 98.93142700195312 24.97500228881836
v 2113.9111328125 898.97412109375 24.99993324279785
v 2063.861083984375 848.97412109375 24.999937057495117
v 2063.87890625 98.93142700195312 25.000001907348633
v 2113.9287109375 98.93142700195312 25.000003814697266
v 2113.90380859375 898.9814453125 -0.02506556734442711
v 2113.90380859375 898.9814453125 25.024932861328125
v 2113.90380859375 98.93142700195312 25.02500343322754
v 2113.90380859375 98.93142700195312 -0.024995628744363785
v -1436.131591796875 548.956298828125 49.99980926513672
v -1386.09619140625 498.9208984375 49.99981689453125
v -786.0608520507812 1098.956298828125 49.99979019165039
v -836.09619140625 1148.99169921875 49.99978256225586
v -1436.1138916015625 548.9385986328125 24.974809646606445
v -1436.1138916015625 548.9385986328125 50.024810791015625
v -836.0784912109375 1148.9739990234375 50.024784088134766
v -836.0784912109375 1148.9739990234375 24.97478485107422
v -1486.131591796875 598.956298828125 24.99980354309082
v -1436.09619140625 548.9209594726562 24.99980926513672
v -836.0608520507812 1148.956298828125 24.999784469604492
v -886.09619140625 1198.99169921875 24.999778747558594
v -1486.1138916015625 598.9385986328125 -0.025196699425578117
v -1486.1138916015625 598.9385986328125 25.024803161621094
v -886.0784912109375 1198.9739990234375 25.024778366088867
v -886.0784912109375 1198.9739990234375 -0.02522292733192444
v -1386.1212158203125 -1.0187240839004517 49.99985885620117
v -1286.0711669921875 -401.0687255859375 49.99989700317383
v -1286.0711669921875 -1.0187164545059204 49.99986267089844
v -1386.1212158203125 -401.0687255859375 49.99989318847656
v -1386.09619140625 -1.0187240839004517 24.97486114501953
v -1386.09619140625 -401.0687255859375 50.02489471435547
v -1386.09619140625 -1.0187240839004517 50.02486038208008
v -1386.09619140625 -401.0687255859375 24.974895477294922
v -1486.1212158203125 -1.018731713294983 24.99985694885254
v -1386.0711669921875 -401.0687255859375 24.999895095825195
v -1386.0711669921875 -1.0187240839004517 24.999860763549805
v -1486.1212158203125 -401.0687255859375 24.99989128112793
v -1486.09619140625 -1.018731713294983 -0.025144247338175774
v -1486.09619140625 -401.0687255859375 25.024890899658203
v -1486.09619140625 -1.018731713294983 25.024856567382812
v -1486.09619140625 -401.0687255859375 -0.02510927803814411
v 2013.9288330078125 98.93142700195312 50.0
v 2013.946533203125 798.97412109375 49.99993896484375
v 1713.9215087890625 1098.9991455078125 49.999900817871094
v -586.0711669921875 98.93131256103516 49.99988555908203
v -786.1138916015625 1098.9990234375 49.99979019165039
v -986.1212158203125 -401.0686950683594 49.99991226196289
v -986.1212158203125 -801.0186767578125 49.99995040893555
v -986.1212158203125 -1.0187088251113892 49.9998779296875
v -986.1388549804688 98.93861389160156 49.99987030029297
v -1386.131591796875 498.9562683105469 49.99981689453125
v -1286.1212158203125 -1.0187164545059204 49.99986267089844
v -1286.1212158203125 -401.0687255859375 49.99989700317383
v -2086.12109375 -801.0187377929688 49.999900817871094
v -2086.12109375 -1301.0687255859375 49.999942779541016
v -1686.09619140625 -1301.09375 49.999961853027344
v -586.0711669921875 -1301.0687255859375 50.00000762939453
v 1513.9288330078125 448.9936218261719 249.9999542236328
v 113.8788070678711 398.9435729980469 249.99989318847656
v 1513.9288330078125 398.9436340332031 249.9999542236328
v 113.8788070678711 448.9935607910156 249.99989318847656
v 1513.9288330078125 448.9686279296875 224.97496032714844
v 113.8788070678711 448.96856689453125 250.02488708496094
v 1513.9288330078125 448.9686279296875 250.0249481201172
v 113.8788070678711 448.96856689453125 224.9748992919922
v 1513.9288330078125 498.9936218261719 224.9999542236328
v 113.8788070678711 448.9435729980469 224.99989318847656
v 1513.9288330078125 448.9436340332031 224.9999542236328
v 113.8788070678711 498.9935607910156 224.99989318847656
v 1513.9288330078125 498.9686279296875 199.97496032714844
v 113.8788070678711 498.96856689453125 225.02488708496094
v 1513.9288330078125 498.9686279296875 225.0249481201172
v 113.8788070678711 498.96856689453125 199.9748992919922
v 1513.9288330078125 548.99365234375 199.99993896484375
v 113.8788070678711 498.9435729980469 199.99989318847656
v 1513.9288330078125 498.9436340332031 199.9999542236328
v 113.8788070678711 548.9935913085938 199.9998779296875
v 1513.9288330078125 548.9686279296875 174.97494506835938
v 113.8788070678711 548.9685668945312 200.02487182617188
v 1513.9288330078125 548.9686279296875 200.02493286132812
v 113.8788070678711 548.9685668945312 174.97488403320312
v 1513.9288330078125 598.99365234375 174.99993896484375
v 113.8788070678711 548.9435424804688 174.9998779296875
v 1513.9288330078125 548.943603515625 174.99993896484375
v 113.8788070678711 598.9935913085938 174.9998779296875
v 1513.9288330078125 598.9686279296875 149.97494506835938
v 113.8788070678711 598.9685668945312 175.02487182617188
v 1513.9288330078125 598.9686279296875 175.02493286132812
v 113.8788070678711 598.9685668945312 149.97488403320312
v 1513.9288330078125 648.99365234375 149.99993896484375
v 113.8788070678711 598.9435424804688 149.9998779296875
v 1513.9288330078125 598.943603515625 149.99993896484375
v 113.8788070678711 648.9935913085938 149.9998779296875
v 1513.9288330078125 648.9686279296875 124.97492980957031
v 113.8788070678711 648.9685668945312 150.02487182617188
v 1513.9288330078125 648.9686279296875 150.02493286132812
v 113.8788070678711 648.9685668945312 124.97486877441406
v 1513.9288330078125 698.99365234375 124.99992370605469
v 113.8788070678711 648.9435424804688 124.99987030029297
v 1513.9288330078125 648.943603515625 124.99993133544922
v 113.8788070678711 698.9935913085938 124.99986267089844
v 1513.9288330078125 698.9686279296875 99.97492218017578
v 113.8788070678711 698.9685668945312 125.02486419677734
v 1513.9288330078125 698.9686279296875 125.0249252319336
v 113.8788070678711 698.9685668945312 99.97486114501953
v 1513.9288330078125 748.99365234375 99.99992370605469
v 113.8788070678711 698.9435424804688 99.99986267089844
v 1513.9288330078125 698.943603515625 99.99992370605469
v 113.8788070678711 748.9935913085938 99.99986267089844
v 1513.9288330078125 748.9686279296875 74.97492218017578
v 113.8788070678711 748.9685668945312 100.02486419677734
v 1513.9288330078125 748.9686279296875 100.0249252319336
v 113.8788070678711 748.9685668945312 74.97486114501953
v 1513.9288330078125 798.99365234375 74.99991607666016
v 113.8788070678711 748.9435424804688 74.99986267089844
v 1513.9288330078125 748.943603515625 74.99992370605469
v 113.8788070678711 798.9935913085938 74.9998550415039
v 1513.9288330078125 798.9686279296875 49.97491455078125
v 113.8788070678711 798.9685668945312 75.02485656738281
v 1513.9288330078125 798.9686279296875 75.02491760253906
v 113.8788070678711 798.9685668945312 49.974853515625
v 1513.896484375 448.9862976074219 249.9999542236328
v 1513.8787841796875 398.9436340332031 249.9999542236328
v 1563.9215087890625 398.9613037109375 249.9999542236328
v 1513.8861083984375 448.9862976074219 224.97496032714844
v 1513.8861083984375 448.9862976074219 250.0249481201172
v 1563.9215087890625 398.9509582519531 250.0249481201172
v 1563.9215087890625 398.9509582519531 224.97496032714844
v 1513.896484375 498.9862976074219 224.9999542236328
v 1513.861083984375 448.9509582519531 224.9999542236328
v 1563.8861083984375 398.92596435546875 224.9999542236328
v 1613.9215087890625 398.9613037109375 224.9999542236328
v 1513.8861083984375 498.9862976074219 199.97496032714844
v 1513.8861083984375 498.9862976074219 225.0249481201172
v 1613.9215087890625 398.9509582519531 225.0249481201172
v 1613.9215087890625 398.9509582519531 199.97496032714844
v 1513.896484375 548.986328125 199.99993896484375
v 1513.861083984375 498.9509582519531 199.9999542236328
v 1613.8861083984375 398.92596435546875 199.9999542236328
v 1663.9215087890625 398.9613037109375 199.9999542236328
v 1513.8861083984375 548.986328125 174.97494506835938
v 1513.8861083984375 548.986328125 200.02493286132812
v 1663.9215087890625 398.9509582519531 200.0249481201172
v 1663.9215087890625 398.9509582519531 174.97496032714844
v 1513.896484375 598.986328125 174.99993896484375
v 1513.861083984375 548.950927734375 174.99993896484375
v 1663.8861083984375 398.92596435546875 174.9999542236328
v 1713.9215087890625 398.9613037109375 174.9999542236328
v 1513.8861083984375 598.986328125 149.97494506835938
v 1513.8861083984375 598.986328125 175.02493286132812
v 1713.9215087890625 398.9509582519531 175.0249481201172
v 1713.9215087890625 398.9509582519531 149.97496032714844
v 1513.896484375 648.986328125 149.99993896484375
v 1513.861083984375 598.950927734375 149.99993896484375
v 1713.8861083984375 398.92596435546875 149.9999542236328
v 1763.9215087890625 398.9613037109375 149.9999542236328
v 1513.8861083984375 648.986328125 124.97492980957031
v 1513.8861083984375 648.986328125 150.02493286132812
v 1763.9215087890625 398.9509582519531 150.0249481201172
v 1763.9215087890625 398.9509582519531 124.97496795654297
v 1513.896484375 698.986328125 124.99992370605469
v 1513.861083984375 648.950927734375 124.99993133544922
v 1763.8861083984375 398.92596435546875 124.99996948242188
v 1813.9215087890625 398.9613037109375 124.99996948242188
v 1513.8861083984375 698.986328125 99.97492218017578
v 1513.8861083984375 698.986328125 125.0249252319336
v 1813.9215087890625 398.9509582519531 125.02497100830078
v 1813.9215087890625 398.9509582519531 99.97496795654297
v 1513.896484375 748.986328125 99.99992370605469
v 1513.861083984375 698.950927734375 99.99992370605469
v 1813.8861083984375 398.92596435546875 99.99996948242188
v 1863.9215087890625 398.9613037109375 99.99996948242188
v 1513.8861083984375 748.986328125 74.97492218017578
v 1513.8861083984375 748.986328125 100.0249252319336
v 1863.9215087890625 398.9509582519531 100.02497100830078
v 1863.9215087890625 398.9509582519531 74.97496795654297
v 1513.896484375 798.986328125 74.99991607666016
v 1513.861083984375 748.950927734375 74.99992370605469
v 1863.8861083984375 398.92596435546875 74.99996948242188
v 1913.9215087890625 398.9613037109375 74.99996948242188
v 1513.8861083984375 798.986328125 49.97491455078125
v 1513.8861083984375 798.986328125 75.02491760253906
v 1913.9215087890625 398.9509582519531 75.02497100830078
v 1913.9215087890625 398.9509582519531 49.97496795654297
v 113.9111328125 448.9862365722656 249.99989318847656
v 63.886131286621094 398.96124267578125 249.9998779296875
v 113.9288101196289 398.9435729980469 249.99989318847656
v 113.9214859008789 448.9862365722656 224.9748992919922
v 63.886131286621094 398.9508972167969 250.02487182617188
v 113.9214859008789 448.9862365722656 250.02488708496094
v 63.886131286621094 398.9508972167969 224.97488403320312
v 113.9111328125 498.9862365722656 224.99989318847656
v 63.921485900878906 398.9259033203125 224.9998779296875
v 113.94648742675781 448.9508972167969 224.99989318847656
v 13.886131286621094 398.96124267578125 224.9998779296875
v 113.9214859008789 498.9862365722656 199.9748992919922
v 13.886131286621094 398.9508972167969 225.02487182617188
v 113.9214859008789 498.9862365722656 225.02488708496094
v 13.886131286621094 398.9508972167969 199.97488403320312
v 113.9111328125 548.9862670898438 199.9998779296875
v 13.921485900878906 398.9259033203125 199.9998779296875
v 113.94648742675781 498.9508972167969 199.99989318847656
v -36.113868713378906 398.96124267578125 199.9998779296875
v 113.9214859008789 548.9862670898438 174.97488403320312
v -36.113868713378906 398.9508972167969 200.02487182617188
v 113.9214859008789 548.9862670898438 200.02487182617188
v -36.113868713378906 398.9508972167969 174.97488403320312
v 113.9111328125 598.9862670898438 174.9998779296875
v -36.078514099121094 398.9259033203125 174.9998779296875
v 113.94648742675781 548.9508666992188 174.9998779296875
v -86.1138687133789 398.9612121582031 174.9998779296875
v 113.9214859008789 598.9862670898438 149.97488403320312
v -86.1138687133789 398.95086669921875 175.02487182617188
v 113.9214859008789 598.9862670898438 175.02487182617188
v -86.1138687133789 398.95086669921875 149.97488403320312
v 113.9111328125 648.9862670898438 149.9998779296875
v -86.0785140991211 398.9258728027344 149.9998779296875
v 113.94648742675781 598.9508666992188 149.9998779296875
v -136.11387634277344 398.9612121582031 149.9998779296875
v 113.9214859008789 648.9862670898438 124.97486877441406
v -136.11387634277344 398.95086669921875 150.02487182617188
v 113.9214859008789 648.9862670898438 150.02487182617188
v -136.11387634277344 398.95086669921875 124.97488403320312
v 113.9111328125 698.9862670898438 124.99986267089844
v -136.07850646972656 398.9258728027344 124.99988555908203
v 113.94648742675781 648.9508666992188 124.99987030029297
v -186.11387634277344 398.9612121582031 124.9998779296875
v 113.9214859008789 698.9862670898438 99.97486114501953
v -186.11387634277344 398.95086669921875 125.0248794555664
v 113.9214859008789 698.9862670898438 125.02486419677734
v -186.11387634277344 398.95086669921875 99.9748764038086
v 113.9111328125 748.9862670898438 99.99986267089844
v -186.07850646972656 398.9258728027344 99.9998779296875
v 113.94648742675781 698.9508666992188 99.99986267089844
v -236.11387634277344 398.9612121582031 99.9998779296875
v 113.9214859008789 748.9862670898438 74.97486114501953
v -236.11387634277344 398.95086669921875 100.0248794555664
v 113.9214859008789 748.9862670898438 100.02486419677734
v -236.11387634277344 398.95086669921875 74.9748764038086
v 113.9111328125 798.9862670898438 74.9998550415039
v -236.07850646972656 398.9258728027344 74.9998779296875
v 113.94648742675781 748.9508666992188 74.99986267089844
v -286.1138610839844 398.9612121582031 74.9998779296875
v 113.9214859008789 798.9862670898438 49.974853515625
v -286.1138610839844 398.95086669921875 75.0248794555664
v 113.9214859008789 798.9862670898438 75.02485656738281
v -286.1138610839844 398.95086669921875 49.97487258911133
v 63.878807067871094 98.94355773925781 249.99990844726562
v 113.9288101196289 98.94355773925781 249.9999237060547
v 113.9288101196289 398.9935607910156 249.99989318847656
v 63.878807067871094 398.9935607910156 249.9998779296875
v 63.90380859375 98.94355773925781 224.97491455078125
v 63.90380859375 98.94355773925781 250.02490234375
v 63.90380859375 398.9935607910156 250.02487182617188
v 63.90380859375 398.9935607910156 224.97488403320312
v 13.878808975219727 98.94355010986328 224.99990844726562
v 63.928810119628906 98.94355773925781 224.99990844726562
v 63.928810119628906 398.9935607910156 224.9998779296875
v 13.878808975219727 398.9935607910156 224.9998779296875
v 13.90380859375 98.94355010986328 199.97491455078125
v 13.90380859375 98.94355010986328 225.02490234375
v 13.90380859375 398.9935607910156 225.02487182617188
v 13.90380859375 398.9935607910156 199.97488403320312
v -36.121192932128906 98.94355010986328 199.99990844726562
v 13.928808212280273 98.94355010986328 199.99990844726562
v 13.928808212280273 398.9935607910156 199.9998779296875
v -36.121192932128906 398.9935607910156 199.9998779296875
v -36.09619140625 98.94354248046875 174.97491455078125
v -36.09619140625 98.94355010986328 200.02490234375
v -36.09619140625 398.9935607910156 200.02487182617188
v -36.09619140625 398.9935607910156 174.97488403320312
v -86.1211929321289 98.94354248046875 174.99990844726562
v -36.071189880371094 98.94354248046875 174.99990844726562
v -36.071189880371094 398.9935607910156 174.9998779296875
v -86.1211929321289 398.9935302734375 174.9998779296875
v -86.09619140625 98.94354248046875 149.97491455078125
v -86.09619140625 98.94354248046875 175.02490234375
v -86.09619140625 398.9935302734375 175.02487182617188
v -86.09619140625 398.9935302734375 149.97488403320312
v -136.12118530273438 98.94354248046875 149.99990844726562
v -86.0711898803711 98.94354248046875 149.99990844726562
v -86.0711898803711 398.9935302734375 149.9998779296875
v -136.12118530273438 398.9935302734375 149.9998779296875
v -136.09619140625 98.94353485107422 124.97490692138672
v -136.09619140625 98.94354248046875 150.02490234375
v -136.09619140625 398.9935302734375 150.02487182617188
v -136.09619140625 398.9935302734375 124.97488403320312
v -186.12118530273438 98.94353485107422 124.9999008178711
v -136.07119750976562 98.94353485107422 124.99990844726562
v -136.07119750976562 398.9935302734375 124.99988555908203
v -186.12118530273438 398.9935302734375 124.9998779296875
v -186.09619140625 98.94353485107422 99.97489929199219
v -186.09619140625 98.94353485107422 125.02490234375
v -186.09619140625 398.9935302734375 125.0248794555664
v -186.09619140625 398.9935302734375 99.9748764038086
v -236.12118530273438 98.94352722167969 99.9999008178711
v -186.07119750976562 98.94353485107422 99.9999008178711
v -186.07119750976562 398.9935302734375 99.9998779296875
v -236.12118530273438 398.9935302734375 99.9998779296875
v -236.09619140625 98.94352722167969 74.97489929199219
v -236.09619140625 98.94352722167969 100.02490234375
v -236.09619140625 398.9935302734375 100.0248794555664
v -236.09619140625 398.9935302734375 74.9748764038086
v -286.1211853027344 98.94352722167969 74.9999008178711
v -236.07119750976562 98.94352722167969 74.9999008178711
v -236.07119750976562 398.9935302734375 74.9998779296875
v -286.1211853027344 398.9935302734375 74.9998779296875
v -286.09619140625 98.94352722167969 49.97489929199219
v -286.09619140625 98.94352722167969 75.02490234375
v -286.09619140625 398.9935302734375 75.0248794555664
v -286.09619140625 398.9935302734375 49.97487258911133
v 1563.9288330078125 398.9936218261719 249.9999542236328
v 1513.8787841796875 398.9936218261719 249.9999542236328
v 1513.8787841796875 98.9436264038086 249.99998474121094
v 1563.9288330078125 98.9436264038086 249.99998474121094
v 1563.90380859375 398.9936218261719 224.97496032714844
v 1563.90380859375 398.9936218261719 250.0249481201172
v 1563.90380859375 98.9436264038086 250.0249786376953
v 1563.90380859375 98.9436264038086 224.97499084472656
v 1613.9288330078125 398.9936218261719 224.9999542236328
v 1563.8787841796875 398.9936218261719 224.9999542236328
v 1563.8787841796875 98.9436264038086 224.99998474121094
v 1613.9288330078125 98.9436264038086 224.99998474121094
v 1613.90380859375 398.9936218261719 199.97496032714844
v 1613.90380859375 398.9936218261719 225.0249481201172
v 1613.90380859375 98.9436264038086 225.0249786376953
v 1613.90380859375 98.9436264038086 199.97499084472656
v 1663.9288330078125 398.9936218261719 199.9999542236328
v 1613.8787841796875 398.9936218261719 199.9999542236328
v 1613.8787841796875 98.9436264038086 199.99998474121094
v 1663.9288330078125 98.9436264038086 199.99998474121094
v 1663.90380859375 398.9936218261719 174.97496032714844
v 1663.90380859375 398.9936218261719 200.0249481201172
v 1663.90380859375 98.9436264038086 200.0249786376953
v 1663.90380859375 98.9436264038086 174.97499084472656
v 1713.9288330078125 398.9936218261719 174.9999542236328
v 1663.8787841796875 398.9936218261719 174.9999542236328
v 1663.8787841796875 98.9436264038086 174.99998474121094
v 1713.9288330078125 98.9436264038086 174.99998474121094
v 1713.90380859375 398.9936218261719 149.97496032714844
v 1713.90380859375 398.9936218261719 175.0249481201172
v 1713.90380859375 98.9436264038086 175.0249786376953
v 1713.90380859375 98.9436264038086 149.97499084472656
v 1763.9288330078125 398.9936218261719 149.9999542236328
v 1713.8787841796875 398.9936218261719 149.9999542236328
v 1713.8787841796875 98.9436264038086 149.99998474121094
v 1763.9288330078125 98.9436264038086 149.99998474121094
v 1763.90380859375 398.9936218261719 124.97496795654297
v 1763.90380859375 398.9936218261719 150.0249481201172
v 1763.90380859375 98.9436264038086 150.0249786376953
v 1763.90380859375 98.9436264038086 124.97499084472656
v 1813.9288330078125 398.9936218261719 124.99996948242188
v 1763.8787841796875 398.9936218261719 124.99996948242188
v 1763.8787841796875 98.9436264038086 124.99999237060547
v 1813.9288330078125 98.9436264038086 124.99999237060547
v 1813.90380859375 398.9936218261719 99.97496795654297
v 1813.90380859375 398.9936218261719 125.02497100830078
v 1813.90380859375 98.9436264038086 125.02499389648438
v 1813.90380859375 98.9436264038086 99.97499084472656
v 1863.9288330078125 398.9936218261719 99.99996948242188
v 1813.8787841796875 398.9936218261719 99.99996948242188
v 1813.8787841796875 98.9436264038086 99.99999237060547
v 1863.9288330078125 98.9436264038086 99.99999237060547
v 1863.90380859375 398.9936218261719 74.97496795654297
v 1863.90380859375 398.9936218261719 100.02497100830078
v 1863.90380859375 98.9436264038086 100.02499389648438
v 1863.90380859375 98.9436264038086 74.97499084472656
v 1913.9288330078125 398.9936218261719 74.99996948242188
v 1863.8787841796875 398.9936218261719 74.99996948242188
v 1863.8787841796875 98.9436264038086 74.99999237060547
v 1913.9288330078125 98.9436264038086 74.99999237060547
v 1913.90380859375 398.9936218261719 49.97496795654297
v 1913.90380859375 398.9936218261719 75.02497100830078
v 1913.90380859375 98.9436264038086 75.02499389648438
v 1913.90380859375 98.9436264038086 49.97499465942383
v 113.8788070678711 -1.0442413091659546 249.99993896484375
v 1513.9288330078125 -1.0441802740097046 250.0
v 1513.9288330078125 399.0058288574219 249.9999542236328
v 113.8788070678711 399.0057678222656 249.99989318847656
v 1043.90869140625 398.99359130859375 -0.025068627670407295
v 1043.90869140625 348.9435729980469 -0.025064250454306602
v 1043.90869140625 398.99359130859375 280.0248718261719
v 1043.90869140625 348.9436340332031 280.0248718261719
v 1043.8836669921875 348.96856689453125 -0.02506425604224205
v 1093.9337158203125 348.98077392578125 -0.02506207302212715
v 1043.8836669921875 348.9686279296875 280.0249328613281
v 1093.9337158203125 348.9808349609375 280.0249328613281
v 1093.90869140625 348.9557800292969 -0.025062067434191704
v 1093.90869140625 399.00579833984375 -0.025066442787647247
v 1093.90869140625 348.9558410644531 280.0248718261719
v 1093.90869140625 399.00579833984375 280.0248718261719
v 1093.9337158203125 398.9808044433594 -0.025066442787647247
v 1043.8836669921875 398.9685974121094 -0.025068627670407295
v 1093.9337158203125 398.9808044433594 280.0249328613281
v 1043.8836669921875 398.9685974121094 280.0249328613281
v 1073.9263916015625 398.9563903808594 279.9749450683594
v 1063.8787841796875 398.9563903808594 279.9749450683594
v 1073.9263916015625 398.9564208984375 405.02496337890625
v 1063.8787841796875 398.9564208984375 405.02496337890625
v 1063.90380859375 398.98138427734375 279.9749450683594
v 1063.90380859375 388.93377685546875 279.9749450683594
v 1063.90380859375 398.9814147949219 405.02496337890625
v 1063.90380859375 388.9338073730469 405.02496337890625
v 1063.8787841796875 388.9587707519531 279.9749450683594
v 1073.9263916015625 388.9587707519531 279.9749450683594
v 1063.8787841796875 388.95880126953125 405.02496337890625
v 1073.9263916015625 388.95880126953125 405.02496337890625
v 1073.9013671875 388.93377685546875 279.9749450683594
v 1073.9013671875 398.98138427734375 279.9749450683594
v 1073.9013671875 388.9338073730469 405.02496337890625
v 1073.9013671875 398.9814147949219 405.02496337890625
v 1063.8787841796875 398.9814147949219 404.9999694824219
v 1063.8787841796875 388.9338073730469 404.9999694824219
v 1073.9263916015625 398.9814147949219 404.9999694824219
v 1073.9263916015625 388.9338073730469 404.9999694824219
v 1043.8836669921875 398.9685974121094 -0.025068627670407295
v 1093.9337158203125 398.9808044433594 -0.025066442787647247
v 1043.8836669921875 398.9685974121094 280.0249328613281
v 1093.9337158203125 398.9808044433594 280.0249328613281
v 1093.90869140625 398.9446105957031 -0.022427257150411606
v 1093.90869140625 799.0291748046875 80.02224731445312
v 1093.90869140625 398.96697998046875 280.0222473144531
v 1093.90869140625 799.0067749023438 -200.02243041992188
v 1093.9337158203125 798.9929809570312 -200.0251007080078
v 1043.8836669921875 798.9807739257812 -200.0251007080078
v 1093.9337158203125 798.9929809570312 80.02489471435547
v 1043.8836669921875 798.9807739257812 80.02488708496094
v 1043.90869140625 798.9945678710938 -200.0224609375
v 1043.90869140625 398.9324035644531 -0.02245328389108181
v 1043.90869140625 799.0169677734375 80.02220153808594
v 1043.90869140625 398.95477294921875 280.0222473144531
v 1066.5086669921875 398.9670104980469 355.2223205566406
v 1066.508544921875 799.0068359375 145.1775360107422
v 1066.5086669921875 398.94464111328125 345.17755126953125
v 1066.508544921875 799.0292358398438 155.22225952148438
v 1071.333740234375 398.9584655761719 355.21112060546875
v 1066.4835205078125 799.015380859375 155.188720703125
v 1066.483642578125 398.9584655761719 355.21112060546875
v 1071.3336181640625 799.015380859375 155.188720703125
v 1071.3087158203125 398.94464111328125 345.17755126953125
v 1071.30859375 799.0292358398438 155.22225952148438
v 1071.3087158203125 398.9670104980469 355.2223205566406
v 1071.30859375 799.0068359375 145.1775360107422
v 1066.483642578125 398.9584655761719 345.2110900878906
v 1071.3336181640625 799.015380859375 145.18870544433594
v 1071.333740234375 398.9584655761719 345.2110900878906
v 1066.4835205078125 799.015380859375 145.18870544433594
v 1070.53369140625 398.9584655761719 399.611083984375
v 1065.6834716796875 799.015380859375 199.58868408203125
v 1065.68359375 398.9584655761719 399.611083984375
v 1070.5335693359375 799.015380859375 199.58868408203125
v 1070.5086669921875 398.94464111328125 389.5775451660156
v 1070.508544921875 799.0292358398438 199.62222290039062
v 1070.5086669921875 398.9670104980469 399.6222839355469
v 1070.508544921875 799.0068359375 189.57752990722656
v 1065.68359375 398.9584655761719 389.611083984375
v 1070.5335693359375 799.015380859375 189.5886993408203
v 1070.53369140625 398.9584655761719 389.611083984375
v 1065.6834716796875 799.015380859375 189.5886993408203
v 1065.7086181640625 398.9670104980469 399.6222839355469
v 1065.70849609375 799.0068359375 189.57752990722656
v 1065.7086181640625 398.94464111328125 389.5775451660156
v 1065.70849609375 799.0292358398438 199.62222290039062
v 1070.9337158203125 398.9584655761719 305.6111145019531
v 1066.0836181640625 799.0153198242188 105.5887222290039
v 1066.0836181640625 398.9584655761719 305.6111145019531
v 1070.9337158203125 799.0153198242188 105.5887222290039
v 1066.108642578125 398.9670104980469 305.622314453125
v 1066.108642578125 799.0067749023438 95.57752227783203
v 1066.108642578125 398.9446105957031 295.5775451660156
v 1066.108642578125 799.0291748046875 105.62226104736328
v 1066.0836181640625 398.95843505859375 295.611083984375
v 1070.9337158203125 799.0153198242188 95.58870697021484
v 1070.9337158203125 398.95843505859375 295.611083984375
v 1066.0836181640625 799.0153198242188 95.58870697021484
v 1070.90869140625 398.9446105957031 295.5775451660156
v 1070.90869140625 799.0291748046875 105.62226104736328
v 1070.90869140625 398.9670104980469 305.622314453125
v 1070.90869140625 799.0067749023438 95.57752227783203
v 1066.483642578125 398.9808349609375 345.1749267578125
v 1071.333740234375 398.9808349609375 345.1749267578125
v 1066.483642578125 398.9808349609375 355.2249450683594
v 1071.333740234375 398.9808349609375 355.2249450683594
v 1065.68359375 398.9808349609375 389.5749206542969
v 1070.53369140625 398.9808349609375 389.5749206542969
v 1065.68359375 398.9808349609375 399.6249084472656
v 1070.53369140625 398.9808349609375 399.6249084472656
v 1070.9337158203125 398.9808044433594 295.5749206542969
v 1070.9337158203125 398.9808349609375 305.62493896484375
v 1066.0836181640625 398.9808349609375 305.62493896484375
v 1066.0836181640625 398.9808044433594 295.5749206542969
v 1066.4835205078125 798.9930419921875 155.2248992919922
v 1071.3336181640625 798.9930419921875 145.17489624023438
v 1066.4835205078125 798.9930419921875 145.17489624023438
v 1071.3336181640625 798.9930419921875 155.2248992919922
v 1065.6834716796875 798.9930419921875 199.62486267089844
v 1070.5335693359375 798.9930419921875 189.57489013671875
v 1065.6834716796875 798.9930419921875 189.57489013671875
v 1070.5335693359375 798.9930419921875 199.62486267089844
v 1066.0836181640625 798.9929809570312 105.6249008178711
v 1070.9337158203125 798.9929809570312 105.6249008178711
v 1070.9337158203125 798.9929809570312 95.57488250732422
v 1066.0836181640625 798.9929809570312 95.57488250732422
v 1043.8836669921875 398.94622802734375 280.0111083984375
v 1093.9337158203125 398.95843505859375 280.0111083984375
v 1093.9337158203125 799.0153198242188 79.98871612548828
v 1043.8836669921875 799.0031127929688 79.98870086669922
v 1093.9337158203125 848.9807739257812 -0.025105781853199005
v 1043.8836669921875 848.9685668945312 -0.025107966735959053
v 1093.9337158203125 848.9807739257812 80.02489471435547
v 1043.8836669921875 848.9685668945312 80.02488708496094
v 1043.90869140625 848.9935913085938 -0.025107964873313904
v 1043.90869140625 798.9435424804688 -0.02510359324514866
v 1043.90869140625 848.9935913085938 80.02488708496094
v 1043.90869140625 798.9435424804688 80.02489471435547
v 1043.8836669921875 798.9685668945312 -0.025103595107793808
v 1093.9337158203125 798.9807739257812 -0.02510141022503376
v 1043.8836669921875 798.9685668945312 80.02489471435547
v 1093.9337158203125 798.9807739257812 80.02490234375
v 1093.90869140625 798.9557495117188 -0.02510141208767891
v 1093.90869140625 849.0057983398438 -0.025105783715844154
v 1093.90869140625 798.9557495117188 80.02490234375
v 1093.90869140625 849.0057983398438 80.02489471435547
v 1043.8836669921875 848.9935913085938 79.99988555908203
v 1043.8836669921875 798.9435424804688 79.99989318847656
v 1063.9288330078125 808.928955078125 79.9999008178711
v 1073.8763427734375 808.928955078125 79.9999008178711
v 1073.8763427734375 798.9508666992188 79.9999008178711
v 1093.9337158203125 849.0057983398438 79.99989318847656
v 1063.9288330078125 798.9484252929688 79.9999008178711
v 1093.9337158203125 798.9557495117188 79.9999008178711
v 1073.9263916015625 808.9539794921875 79.97489929199219
v 1063.8787841796875 808.9539794921875 79.97489929199219
v 1073.9263916015625 808.9540405273438 205.0248565673828
v 1063.8787841796875 808.9540405273438 205.0248565673828
v 1063.90380859375 808.97900390625 79.97489929199219
v 1063.90380859375 798.9313354492188 79.97489929199219
v 1063.90380859375 808.9790649414062 205.0248565673828
v 1063.90380859375 798.931396484375 205.0248565673828
v 1063.8787841796875 798.9563598632812 79.97489929199219
v 1073.9263916015625 798.9563598632812 79.97489929199219
v 1063.8787841796875 798.9564208984375 205.0248565673828
v 1073.9263916015625 798.9564208984375 205.0248565673828
v 1073.9013671875 798.9313354492188 79.97489929199219
v 1073.9013671875 808.97900390625 79.97489929199219
v 1073.9013671875 798.931396484375 205.0248565673828
v 1073.9013671875 808.9790649414062 205.0248565673828
v 1063.8787841796875 808.9790649414062 204.99989318847656
v 1063.8787841796875 798.931396484375 204.99989318847656
v 1073.9263916015625 808.9790649414062 204.99989318847656
v 1073.9263916015625 798.931396484375 204.99989318847656
v 533.9111328125 399.0179443359375 -0.02509092353284359
v 533.9111328125 348.96795654296875 -0.025086548179388046
v 533.9111328125 399.0179748535156 280.02484130859375
v 533.9111328125 348.9679870605469 280.02484130859375
v 533.8861083984375 348.9929504394531 -0.025086551904678345
v 583.9361572265625 349.0051574707031 -0.025084367021918297
v 533.8861083984375 348.99298095703125 280.02490234375
v 583.9361572265625 349.00518798828125 280.02490234375
v 583.9111328125 348.98016357421875 -0.025084363296628
v 583.9111328125 399.0301513671875 -0.025088738650083542
v 583.9111328125 348.9801940917969 280.02484130859375
v 583.9111328125 399.0301818847656 280.02484130859375
v 583.9361572265625 399.0051574707031 -0.025088738650083542
v 533.8861083984375 398.9929504394531 -0.02509092353284359
v 583.9361572265625 399.00518798828125 280.02490234375
v 533.8861083984375 398.99298095703125 280.02490234375
v 563.9288330078125 398.98077392578125 279.97491455078125
v 553.8812255859375 398.98077392578125 279.97491455078125
v 563.9288330078125 398.98077392578125 405.0249328613281
v 553.8812255859375 398.98077392578125 405.0249328613281
v 553.90625 399.0057678222656 279.97491455078125
v 553.90625 388.9582824707031 279.97491455078125
v 553.90625 399.0057678222656 405.0249328613281
v 553.90625 388.9582824707031 405.0249328613281
v 553.8812255859375 388.9832763671875 279.97491455078125
v 563.9288330078125 388.9832763671875 279.97491455078125
v 553.8812255859375 388.9832763671875 405.0249328613281
v 563.9288330078125 388.9832763671875 405.0249328613281
v 563.90380859375 388.9582824707031 279.97491455078125
v 563.90380859375 399.0057678222656 279.97491455078125
v 563.90380859375 388.9582824707031 405.0249328613281
v 563.90380859375 399.0057678222656 405.0249328613281
v 553.8812255859375 399.0057678222656 404.99993896484375
v 553.8812255859375 388.9582824707031 404.99993896484375
v 563.9288330078125 399.0057678222656 404.99993896484375
v 563.9288330078125 388.9582824707031 404.99993896484375
v 533.8861083984375 398.9929504394531 -0.02509092353284359
v 583.9361572265625 399.0051574707031 -0.025088738650083542
v 533.8861083984375 398.99298095703125 280.02490234375
v 583.9361572265625 399.00518798828125 280.02490234375
v 583.9111328125 398.9689636230469 -0.02244955115020275
v 583.9111328125 799.0535888671875 80.02222442626953
v 583.9111328125 398.9913635253906 280.022216796875
v 583.9111328125 799.0311889648438 -200.02244567871094
v 583.9361572265625 799.0173950195312 -200.02511596679688
v 533.8861083984375 799.0051879882812 -200.02511596679688
v 583.9361572265625 799.0173950195312 80.02487182617188
v 533.8861083984375 799.0051879882812 80.02487182617188
v 533.9111328125 799.0189819335938 -200.02247619628906
v 533.9111328125 398.9567565917969 -0.022475577890872955
v 533.9111328125 799.0413818359375 80.02218627929688
v 533.9111328125 398.9791564941406 280.022216796875
v 556.5111083984375 398.9913635253906 355.2222900390625
v 556.5111083984375 799.0311889648438 145.17752075195312
v 556.5111083984375 398.968994140625 345.1775207519531
v 556.5111083984375 799.0535888671875 155.2222442626953
v 561.336181640625 398.9828186035156 355.2110900878906
v 556.486083984375 799.0397338867188 155.18870544433594
v 556.486083984375 398.9828186035156 355.2110900878906
v 561.336181640625 799.0397338867188 155.18870544433594
v 561.3111572265625 398.968994140625 345.1775207519531
v 561.3111572265625 799.0535888671875 155.2222442626953
v 561.3111572265625 398.9913635253906 355.2222900390625
v 561.3111572265625 799.0311889648438 145.17752075195312
v 556.486083984375 398.9828186035156 345.2110595703125
v 561.336181640625 799.0397338867188 145.18869018554688
v 561.336181640625 398.9828186035156 345.2110595703125
v 556.486083984375 799.0397338867188 145.18869018554688
v 560.5361328125 398.9828186035156 399.6110534667969
v 555.68603515625 799.0397338867188 199.5886688232422
v 555.68603515625 398.9828186035156 399.6110534667969
v 560.5361328125 799.0397338867188 199.5886688232422
v 560.5111083984375 398.968994140625 389.5775146484375
v 560.5111083984375 799.0535888671875 199.62220764160156
v 560.5111083984375 398.9913635253906 399.62225341796875
v 560.5111083984375 799.0311889648438 189.5775146484375
v 555.68603515625 398.9828186035156 389.6110534667969
v 560.5361328125 799.0397338867188 189.58868408203125
v 560.5361328125 398.9828186035156 389.6110534667969
v 555.68603515625 799.0397338867188 189.58868408203125
v 555.7110595703125 398.9913635253906 399.62225341796875
v 555.7110595703125 799.0311889648438 189.5775146484375
v 555.7110595703125 398.968994140625 389.5775146484375
v 555.7110595703125 799.0535888671875 199.62220764160156
v 560.9361572265625 398.9828186035156 305.611083984375
v 556.0860595703125 799.0397338867188 105.58869934082031
v 556.0860595703125 398.9828186035156 305.611083984375
v 560.9361572265625 799.0397338867188 105.58869934082031
v 556.111083984375 398.9913635253906 305.6222839355469
v 556.111083984375 799.0311889648438 95.57749938964844
v 556.111083984375 398.968994140625 295.5775146484375
v 556.111083984375 799.0535888671875 105.62223815917969
v 556.0860595703125 398.9828186035156 295.6110534667969
v 560.9361572265625 799.0397338867188 95.58868408203125
v 560.9361572265625 398.9828186035156 295.6110534667969
v 556.0860595703125 799.0397338867188 95.58868408203125
v 560.9111328125 398.968994140625 295.5775146484375
v 560.9111328125 799.0535888671875 105.62223815917969
v 560.9111328125 398.9913635253906 305.6222839355469
v 560.9111328125 799.0311889648438 95.57749938964844
v 556.486083984375 399.00518798828125 345.1748962402344
v 561.336181640625 399.00518798828125 345.1748962402344
v 556.486083984375 399.00518798828125 355.22491455078125
v 561.336181640625 399.00518798828125 355.22491455078125
v 555.68603515625 399.00518798828125 389.57489013671875
v 560.5361328125 399.00518798828125 389.57489013671875
v 555.68603515625 399.00518798828125 399.6248779296875
v 560.5361328125 399.00518798828125 399.6248779296875
v 560.9361572265625 399.00518798828125 295.57489013671875
v 560.9361572265625 399.00518798828125 305.6249084472656
v 556.0860595703125 399.00518798828125 305.6249084472656
v 556.0860595703125 399.00518798828125 295.57489013671875
v 556.486083984375 799.0173950195312 155.22488403320312
v 561.336181640625 799.0173950195312 145.1748809814453
v 556.486083984375 799.0173950195312 145.1748809814453
v 561.336181640625 799.0173950195312 155.22488403320312
v 555.68603515625 799.0173950195312 199.62484741210938
v 560.5361328125 799.0173950195312 189.5748748779297
v 555.68603515625 799.0173950195312 189.5748748779297
v 560.5361328125 799.0173950195312 199.62484741210938
v 556.0860595703125 799.0173950195312 105.6248779296875
v 560.9361572265625 799.0173950195312 105.6248779296875
v 560.9361572265625 799.0173950195312 95.57485961914062
v 556.0860595703125 799.0173950195312 95.57485961914062
v 533.8861083984375 398.9706115722656 280.0110778808594
v 583.9361572265625 398.9828186035156 280.0110778808594
v 583.9361572265625 799.0397338867188 79.98869323730469
v 533.8861083984375 799.0275268554688 79.98868560791016
v 583.9361572265625 849.005126953125 -0.0251280777156353
v 533.8861083984375 848.992919921875 -0.0251302607357502
v 583.9361572265625 849.005126953125 80.02487182617188
v 533.8861083984375 848.992919921875 80.02487182617188
v 533.9111328125 849.0179443359375 -0.025130262598395348
v 533.9111328125 798.9678955078125 -0.025125892832875252
v 533.9111328125 849.0179443359375 80.02487182617188
v 533.9111328125 798.9678955078125 80.0248794555664
v 533.8861083984375 798.992919921875 -0.025125890970230103
v 583.9361572265625 799.005126953125 -0.025123706087470055
v 533.8861083984375 798.992919921875 80.0248794555664
v 583.9361572265625 799.005126953125 80.0248794555664
v 583.9111328125 798.9801025390625 -0.025123707950115204
v 583.9111328125 849.0301513671875 -0.02512807957828045
v 583.9111328125 798.9801025390625 80.0248794555664
v 583.9111328125 849.0301513671875 80.02487182617188
v 533.8861083984375 849.0179443359375 79.99987030029297
v 533.8861694335938 798.9678955078125 79.9998779296875
v 553.9312744140625 808.9533081054688 79.9998779296875
v 563.8787841796875 808.9533081054688 79.9998779296875
v 563.8787841796875 798.9752807617188 79.9998779296875
v 583.9360961914062 849.0301513671875 79.99987030029297
v 553.9312744140625 798.9728393554688 79.9998779296875
v 583.9361572265625 798.9801025390625 79.9998779296875
v 563.9288330078125 808.9783325195312 79.9748764038086
v 553.8812255859375 808.9783325195312 79.9748764038086
v 563.9288330078125 808.9783325195312 205.02484130859375
v 553.8812255859375 808.9783325195312 205.02484130859375
v 553.90625 809.0033569335938 79.9748764038086
v 553.90625 798.9556884765625 79.9748764038086
v 553.90625 809.0033569335938 205.02484130859375
v 553.90625 798.9556884765625 205.02484130859375
v 553.8812255859375 798.980712890625 79.9748764038086
v 563.9288330078125 798.980712890625 79.9748764038086
v 553.8812255859375 798.980712890625 205.02484130859375
v 563.9288330078125 798.980712890625 205.02484130859375
v 563.90380859375 798.9556884765625 79.9748764038086
v 563.90380859375 809.0033569335938 79.9748764038086
v 563.90380859375 798.9556884765625 205.02484130859375
v 563.90380859375 809.0033569335938 205.02484130859375
v 553.8812255859375 809.0033569335938 204.9998779296875
v 553.8812255859375 798.9556884765625 204.9998779296875
v 563.9288330078125 809.0033569335938 204.9998779296875
v 563.9288330078125 798.9556884765625 204.9998779296875
v -1763.9219970703125 876.7611083984375 -0.025233130902051926
v -1728.531494140625 912.151611328125 -0.0298334788531065
v -1763.9219970703125 876.7611694335938 400.0247802734375
v -1675.5986328125 965.0842895507812 400.02020263671875
v -1728.534423828125 912.11328125 -0.024814175441861153
v -1746.2474365234375 929.8262939453125 -0.02481645718216896
v -1675.5950927734375 965.0524291992188 400.02435302734375
v -1693.30810546875 982.7654418945312 400.0243225097656
v -1746.209228515625 929.8292846679688 -0.029835790395736694
v -1781.5994873046875 894.4388427734375 -0.025235451757907867
v -1693.2763671875 982.7619018554688 400.0201721191406
v -1781.5994873046875 894.4387817382812 400.0247802734375
v -1781.5712890625 894.4812622070312 399.9997863769531
v -1763.868896484375 876.7788696289062 399.9997863769531
v -1778.037353515625 862.5775146484375 399.9997863769531
v -1795.7607421875 880.28857421875 399.9997863769531
v -1675.615966796875 965.031494140625 399.9997863769531
v -1693.3291015625 982.7445068359375 399.999755859375
v -1693.210693359375 982.8629760742188 399.999755859375
v -1675.49755859375 965.1499633789062 399.9997863769531
v -1693.1929931640625 982.8453369140625 399.9747619628906
v -1795.7430419921875 880.2708740234375 399.97479248046875
v -1693.1929931640625 982.8453979492188 920.0247802734375
v -1795.7430419921875 880.2709350585938 920.0247802734375
v -1795.7430419921875 880.3062744140625 399.97479248046875
v -1778.0196533203125 862.5950927734375 399.97479248046875
v -1795.7430419921875 880.3063354492188 920.0247802734375
v -1778.0196533203125 862.5951538085938 920.0247802734375
v -1778.0550537109375 862.59521484375 399.97479248046875
v -1675.5152587890625 965.1676635742188 399.97479248046875
v -1778.0550537109375 862.5952758789062 920.0247802734375
v -1675.5152587890625 965.167724609375 920.0247802734375
v -1675.5152587890625 965.1322631835938 399.97479248046875
v -1693.2283935546875 982.8453369140625 399.9747619628906
v -1675.5152587890625 965.13232421875 920.0247802734375
v -1693.2283935546875 982.8453979492188 920.0247802734375
v -1795.7607421875 880.2886352539062 919.999755859375
v -1778.037353515625 862.5775756835938 919.999755859375
v -1693.210693359375 982.863037109375 919.999755859375
v -1675.49755859375 965.1500244140625 919.999755859375
v -2064.4072265625 1248.02734375 -0.02987750992178917
v -2099.79736328125 1212.6368408203125 -0.02527717873454094
v -2011.474365234375 1300.959716796875 400.0201416015625
v -2099.79736328125 1212.6368408203125 400.02471923828125
v -2082.11962890625 1194.959228515625 -0.025274857878684998
v -2046.7294921875 1230.349609375 -0.029875200241804123
v -2082.11962890625 1194.959228515625 400.02471923828125
v -1993.796630859375 1283.2822265625 400.0201416015625
v -2046.732421875 1230.3114013671875 -0.024849804118275642
v -2064.445556640625 1248.0244140625 -0.0248520877212286
v -1993.7930908203125 1283.2503662109375 400.0242614746094
v -2011.506103515625 1300.96337890625 400.0242614746094
v -2099.76513671875 1212.675048828125 399.9997253417969
v -2082.066650390625 1194.9769287109375 399.9997253417969
v -2096.22802734375 1180.7813720703125 399.9997253417969
v -2113.939208984375 1198.492431640625 399.9997253417969
v -1993.8189697265625 1283.2255859375 399.9997253417969
v -2011.5291748046875 1300.93994140625 399.9997253417969
v -2011.4156494140625 1301.07666015625 399.9997253417969
v -1993.6707763671875 1283.327392578125 399.9997253417969
v -2011.3958740234375 1301.0614013671875 399.9747314453125
v -2113.92138671875 1198.4747314453125 399.9747314453125
v -2011.3958740234375 1301.0614013671875 920.0247192382812
v -2113.92138671875 1198.4747314453125 920.0247192382812
v -2113.92138671875 1198.5101318359375 399.9747314453125
v -2096.21044921875 1180.7989501953125 399.9747314453125
v -2113.92138671875 1198.5101318359375 920.0247192382812
v -2096.21044921875 1180.7989501953125 920.0247192382812
v -2096.24560546875 1180.7989501953125 399.9747314453125
v -1993.6834716796875 1283.3489990234375 399.9747314453125
v -2096.24560546875 1180.7989501953125 920.0245971679688
v -1993.6834716796875 1283.3489990234375 920.0245971679688
v -1993.6834716796875 1283.3135986328125 399.9747314453125
v -2011.4312744140625 1301.0614013671875 399.9747314453125
v -1993.6834716796875 1283.3135986328125 920.0247192382812
v -2011.4312744140625 1301.0614013671875 920.0247192382812
v -2113.939208984375 1198.492431640625 919.9996948242188
v -2096.22802734375 1180.78125 919.9996948242188
v -2011.41357421875 1301.0791015625 919.9996948242188
v -1993.665771484375 1283.331298828125 919.9996948242188
v -1445.7235107421875 558.5631103515625 -0.025191407650709152
v -1410.33349609375 593.9535522460938 -0.02979174628853798
v -1445.7235107421875 558.5631713867188 400.0248107910156
v -1357.401123046875 646.886474609375 400.02020263671875
v -1410.33642578125 593.9152221679688 -0.024769028648734093
v -1428.0494384765625 611.628173828125 -0.024770788848400116
v -1357.3970947265625 646.8543701171875 400.0243225097656
v -1375.110107421875 664.5672607421875 400.0243225097656
v -1428.01123046875 611.6311645507812 -0.02979406900703907
v -1463.4012451171875 576.24072265625 -0.0251937136054039
v -1375.078369140625 664.5637817382812 400.02020263671875
v -1463.4007568359375 576.240478515625 400.0248107910156
v -1463.373291015625 576.2833862304688 399.99981689453125
v -1445.67041015625 558.5808715820312 399.99981689453125
v -1459.8515625 544.3794555664062 399.99981689453125
v -1477.562744140625 562.0904541015625 399.99981689453125
v -1357.41796875 646.8334350585938 399.9997863769531
v -1375.131103515625 664.5463256835938 399.9997863769531
v -1375.0126953125 664.6649169921875 399.9997863769531
v -1357.299560546875 646.9519653320312 399.9997863769531
v -1374.9949951171875 664.6472778320312 399.97479248046875
v -1477.5450439453125 562.07275390625 399.9748229980469
v -1374.9949951171875 664.6473388671875 920.0248413085938
v -1477.5450439453125 562.0728149414062 920.0247802734375
v -1477.5450439453125 562.108154296875 399.9748229980469
v -1459.8338623046875 544.39697265625 399.9748229980469
v -1477.5450439453125 562.1082763671875 920.0247802734375
v -1459.8338623046875 544.3970947265625 920.0248413085938
v -1459.8692626953125 544.3970947265625 399.9748229980469
v -1357.3172607421875 646.9696655273438 399.97479248046875
v -1459.8692626953125 544.3970947265625 920.0248413085938
v -1357.3172607421875 646.9697265625 920.0248413085938
v -1357.3172607421875 646.9342651367188 399.97479248046875
v -1375.0303955078125 664.6472778320312 399.97479248046875
v -1357.3172607421875 646.934326171875 920.0248413085938
v -1375.0303955078125 664.6473388671875 920.0248413085938
v -1477.562744140625 562.0905151367188 919.999755859375
v -1459.8515625 544.3794555664062 919.9998168945312
v -1375.0126953125 664.6649780273438 919.9998168945312
v -1357.299560546875 646.9520263671875 919.9998168945312
v -1127.5257568359375 240.36509704589844 -0.025149676948785782
v -1092.13525390625 275.7554626464844 -0.029750008136034012
v -1127.5257568359375 240.36512756347656 400.0248718261719
v -1039.20263671875 328.68798828125 400.020263671875
v -1092.13818359375 275.7171630859375 -0.024728426709771156
v -1109.8511962890625 293.4302062988281 -0.024727681651711464
v -1039.1990966796875 328.6562805175781 400.0244140625
v -1056.912109375 346.36932373046875 400.0244140625
v -1109.81298828125 293.4331359863281 -0.0297523345798254
v -1145.2032470703125 258.0428161621094 -0.025151999667286873
v -1056.88037109375 346.3658142089844 400.020263671875
v -1145.2034912109375 258.0429992675781 400.02484130859375
v -1039.1845703125 328.67071533203125 399.9998474121094
v -1056.897705078125 346.3837890625 399.9998474121094
v -1127.508056640625 240.3474578857422 399.9998779296875
v -1145.220947265625 258.0605163574219 399.9998474121094
v -2011.4013671875 1265.71533203125 399.9997253417969
v -1074.439453125 328.771240234375 399.9998474121094
v -1145.185546875 258.025146484375 399.9998474121094
v -2082.152099609375 1194.9769287109375 399.9997253417969
v -1159.364501953125 243.8925018310547 399.9998474121094
v -1056.814453125 346.4669494628906 399.9998474121094
v -1141.6533203125 226.1814727783203 399.9998474121094
v -1039.1015625 328.7539367675781 399.9998474121094
v -1145.2032470703125 258.0428466796875 399.974853515625
v -1074.4571533203125 328.7888488769531 399.974853515625
v -1145.2032470703125 258.0428466796875 430.0248718261719
v -1074.4571533203125 328.78887939453125 430.0248718261719
v -1074.4571533203125 328.7535705566406 399.974853515625
v -2011.4190673828125 1265.6978759765625 399.9747314453125
v -1074.4571533203125 328.75360107421875 430.0248718261719
v -2011.4190673828125 1265.6978759765625 430.0247497558594
v -2011.3836669921875 1265.6976318359375 399.9747314453125
v -2082.13427734375 1194.9593505859375 399.9747314453125
v -2011.3836669921875 1265.6976318359375 430.0247497558594
v -2082.13427734375 1194.9593505859375 430.0247497558594
v -2011.4013671875 1265.71533203125 429.999755859375
v -1145.185546875 258.025146484375 429.9998779296875
v -1074.439453125 328.771240234375 429.9998779296875
v -2082.152099609375 1194.97705078125 429.999755859375
v -2029.0771484375 1248.03955078125 429.999755859375
v -1092.1171875 311.093505859375 429.9998779296875
v -1145.185546875 258.025146484375 429.9998779296875
v -2082.152099609375 1194.97705078125 429.999755859375
v -1145.2032470703125 258.0428466796875 429.9748840332031
v -1092.1348876953125 311.1111755371094 429.9748840332031
v -1145.2032470703125 258.0428771972656 880.02490234375
v -1092.1348876953125 311.1112060546875 880.02490234375
v -1092.1348876953125 311.0758972167969 429.9748840332031
v -2029.0948486328125 1248.0218505859375 429.9747619628906
v -1092.1348876953125 311.0758972167969 880.02490234375
v -2029.0948486328125 1248.0218505859375 880.0247192382812
v -2029.0594482421875 1248.0218505859375 429.9747619628906
v -2082.13427734375 1194.9593505859375 429.9747619628906
v -2029.0594482421875 1248.0218505859375 880.024658203125
v -2082.13427734375 1194.9593505859375 880.024658203125
v -2029.0771484375 1248.03955078125 879.9996948242188
v -1145.185546875 258.0251770019531 879.9998779296875
v -1092.1171875 311.09356689453125 879.9998779296875
v -2082.152099609375 1194.97705078125 879.9996948242188
v -2011.4013671875 1265.71533203125 879.9996948242188
v -1074.439453125 328.7712707519531 879.9998779296875
v -1152.22900390625 250.9329071044922 880.0000610351562
v -2089.191162109375 1187.8822021484375 879.9998779296875
v -1152.2467041015625 250.9506072998047 879.9750366210938
v -1074.4571533203125 328.7889099121094 879.974853515625
v -1152.2467041015625 250.9506072998047 915.025146484375
v -1074.4571533203125 328.7889099121094 915.0249633789062
v -1074.4571533203125 328.7536315917969 879.974853515625
v -2011.4190673828125 1265.6976318359375 879.9746704101562
v -1074.4571533203125 328.7536315917969 915.0249633789062
v -2011.4190673828125 1265.6976318359375 915.0247802734375
v -2011.3836669921875 1265.6976318359375 879.9746704101562
v -2089.17333984375 1187.864501953125 879.974853515625
v -2011.3836669921875 1265.6976318359375 915.0247802734375
v -2089.17333984375 1187.864501953125 915.0249633789062
v -2089.17333984375 1187.900146484375 879.974853515625
v -1152.2113037109375 250.95059204101562 879.9750366210938
v -2089.17333984375 1187.900146484375 915.0249633789062
v -1152.2113037109375 250.95059204101562 915.025146484375
v -2011.4013671875 1265.71533203125 914.999755859375
v -1152.22900390625 250.9329071044922 915.0001220703125
v -1074.439453125 328.7712707519531 914.9999389648438
v -2089.191162109375 1187.8822021484375 914.9999389648438
v -1056.7967529296875 346.44927978515625 399.974853515625
v -1159.3468017578125 243.87481689453125 399.974853515625
v -1056.7967529296875 346.4493103027344 920.02490234375
v -1159.3468017578125 243.87486267089844 920.02490234375
v -1159.3468017578125 243.91021728515625 399.974853515625
v -1141.6356201171875 226.19911193847656 399.974853515625
v -1159.3468017578125 243.91026306152344 920.02490234375
v -1141.6356201171875 226.1991424560547 920.02490234375
v -1141.6710205078125 226.19915771484375 399.974853515625
v -1039.1192626953125 328.7716064453125 399.974853515625
v -1141.6710205078125 226.19920349121094 920.02490234375
v -1039.1192626953125 328.7716369628906 920.02490234375
v -1039.1192626953125 328.73626708984375 399.974853515625
v -1056.8321533203125 346.44927978515625 399.974853515625
v -1039.1192626953125 328.7362976074219 920.02490234375
v -1056.8321533203125 346.4493103027344 920.02490234375
v -1159.364501953125 243.89254760742188 919.9998779296875
v -1141.6533203125 226.18150329589844 919.9998779296875
v -1056.814453125 346.46697998046875 919.9998779296875
v -1039.1015625 328.75396728515625 919.9998779296875
f 8 5 6
f 6 5 7
f 87 86 85
f 92 91 88
f 86 92 88
f 86 88 85
f 88 89 85
f 89 90 85
f 94 93 95
f 95 93 87
f 87 96 95
f 85 96 87
f 84 96 85
f 84 85 83
f 83 81 84
f 82 81 83
f 4 1 2
f 2 1 3
f 80 77 78
f 78 77 79
f 76 73 74
f 74 73 75
f 72 69 70
f 70 69 71
f 68 65 66
f 66 65 67
f 62 61 63
f 63 61 64
f 58 57 59
f 59 57 60
f 54 53 55
f 55 53 56
f 50 49 51
f 51 49 52
f 46 45 47
f 47 45 48
f 42 41 43
f 43 41 44
f 38 37 39
f 39 37 40
f 34 33 35
f 35 33 36
f 32 29 30
f 30 29 31
f 28 25 26
f 26 25 27
f 24 21 22
f 22 21 23
f 20 17 18
f 18 17 19
f 16 13 14
f 14 13 15
f 12 9 10
f 10 9 11
f 162 161 163
f 238 235 236
f 236 235 237
f 234 231 232
f 232 231 233
f 230 227 228
f 228 227 229
f 173 172 174
f 174 172 175
f 169 168 170
f 170 168 171
f 165 164 166
f 166 164 167
f 108 105 106
f 106 105 107
f 104 101 102
f 102 101 103
f 100 97 98
f 98 97 99
f 416 415 417
f 415 418 417
f 412 411 413
f 413 411 414
f 408 407 409
f 409 407 410
f 404 403 405
f 405 403 406
f 400 399 401
f 401 399 402
f 396 395 397
f 397 395 398
f 392 391 393
f 393 391 394
f 388 387 389
f 389 387 390
f 384 383 385
f 385 383 386
f 380 379 381
f 381 379 382
f 376 375 377
f 377 375 378
f 372 371 373
f 373 371 374
f 368 367 369
f 369 367 370
f 364 363 365
f 365 363 366
f 360 359 361
f 361 359 362
f 356 355 357
f 357 355 358
f 352 351 353
f 353 351 354
f 348 347 349
f 349 347 350
f 344 343 345
f 345 343 346
f 340 339 341
f 341 339 342
f 336 335 337
f 337 335 338
f 332 331 333
f 333 331 334
f 328 327 329
f 329 327 330
f 324 323 325
f 325 323 326
f 320 319 321
f 321 319 322
f 316 315 317
f 317 315 318
f 312 311 313
f 313 311 314
f 308 307 309
f 309 307 310
f 304 303 305
f 305 303 306
f 300 299 301
f 301 299 302
f 296 295 297
f 297 295 298
f 292 291 293
f 293 291 294
f 288 287 289
f 289 287 290
f 286 283 284
f 284 283 285
f 282 279 280
f 280 279 281
f 278 275 276
f 276 275 277
f 274 271 272
f 272 271 273
f 270 267 268
f 268 267 269
f 266 263 264
f 264 263 265
f 262 259 260
f 260 259 261
f 258 255 256
f 256 255 257
f 254 251 252
f 252 251 253
f 250 247 248
f 248 247 249
f 246 243 244
f 244 243 245
f 242 239 240
f 240 239 241
f 221 220 222
f 222 220 223
f 217 216 218
f 218 216 219
f 213 212 214
f 214 212 215
f 209 208 210
f 210 208 211
f 205 204 206
f 206 204 207
f 201 200 202
f 202 200 203
f 197 196 198
f 198 196 199
f 193 192 194
f 194 192 195
f 189 188 190
f 190 188 191
f 185 184 186
f 186 184 187
f 181 180 182
f 182 180 183
f 177 176 178
f 178 176 179
f 160 157 158
f 158 157 159
f 156 153 154
f 154 153 155
f 152 149 150
f 150 149 151
f 148 145 146
f 146 145 147
f 144 141 142
f 142 141 143
f 140 137 138
f 138 137 139
f 136 133 134
f 134 133 135
f 132 129 130
f 130 129 131
f 124 121 122
f 122 121 123
f 120 117 118
f 118 117 119
f 116 113 114
f 114 113 115
f 112 109 110
f 110 109 111
f 128 125 126
f 126 125 127
f 225 224 226
f 426 424 425
f 424 423 425
f 420 419 421
f 422 420 421
f 732 731 733
f 734 732 733
f 728 727 729
f 730 728 729
f 724 723 725
f 726 724 725
f 720 719 721
f 722 720 721
f 640 639 641
f 641 642 640
f 636 635 637
f 638 636 637
f 628 627 629
f 630 628 629
f 604 603 605
f 606 604 605
f 600 599 601
f 602 600 601
f 596 595 597
f 598 596 597
f 592 591 593
f 594 592 593
f 560 559 561
f 562 560 561
f 556 555 557
f 558 556 557
f 552 551 553
f 554 552 553
f 548 547 549
f 550 548 549
f 468 467 469
f 469 470 468
f 464 463 465
f 466 464 465
f 456 455 457
f 458 456 457
f 432 431 433
f 434 432 433
f 428 427 429
f 430 428 429
f 570 567 568
f 567 566 568
f 566 563 568
f 565 563 566
f 564 563 565
f 569 564 565
f 742 739 740
f 739 738 740
f 738 735 740
f 737 735 738
f 736 735 737
f 741 736 737
f 459 460 462
f 460 459 461
f 544 543 545
f 543 546 545
f 631 632 634
f 632 631 633
f 716 715 717
f 715 718 717
f 764 763 765
f 766 764 765
f 768 767 769
f 770 768 769
f 984 983 985
f 985 986 984
f 980 979 981
f 982 980 981
f 976 975 977
f 978 976 977
f 972 971 973
f 974 972 973
f 968 967 969
f 970 968 969
f 960 959 961
f 962 960 961
f 956 955 957
f 958 956 957
f 952 951 953
f 954 952 953
f 948 947 949
f 950 948 949
f 936 935 937
f 938 936 937
f 928 927 929
f 930 928 929
f 916 915 917
f 918 916 917
f 912 911 913
f 914 912 913
f 908 907 909
f 910 908 909
f 904 903 905
f 905 906 904
f 896 895 897
f 897 898 896
f 892 891 893
f 894 892 893
f 888 887 889
f 890 888 889
f 884 883 885
f 886 884 885
f 880 879 881
f 881 882 880
f 876 875 877
f 878 876 877
f 872 871 873
f 874 872 873
f 868 867 869
f 870 868 869
f 864 863 865
f 866 864 865
f 852 851 853
f 854 852 853
f 848 847 849
f 850 848 849
f 844 843 845
f 846 844 845
f 840 839 841
f 841 842 840
f 836 835 837
f 838 836 837
f 832 831 833
f 834 832 833
f 828 827 829
f 830 828 829
f 824 823 825
f 826 824 825
f 812 811 813
f 814 812 813
f 808 807 809
f 810 808 809
f 804 803 805
f 806 804 805
f 800 799 801
f 801 802 800
f 796 795 797
f 798 796 797
f 792 791 793
f 794 792 793
f 788 787 789
f 790 788 789
f 784 783 785
f 786 784 785
f 774 772 773
f 772 771 773
f 776 775 777
f 778 777 775
f 780 779 781
f 782 781 779
f 816 815 817
f 818 817 815
f 820 819 821
f 822 821 819
f 856 855 857
f 858 857 855
f 860 859 861
f 862 861 859
f 900 899 901
f 902 901 899
f 919 920 922
f 920 919 921
f 924 923 925
f 926 925 923
f 939 940 942
f 940 939 941
f 944 943 945
f 946 945 943
f 963 964 966
f 964 963 965
f 436 435 437
f 438 436 437
f 440 439 441
f 442 440 441
f 760 759 761
f 762 760 761
f 756 755 757
f 758 756 757
f 752 751 753
f 754 752 753
f 748 747 749
f 750 748 749
f 744 743 745
f 746 744 745
f 696 695 697
f 698 696 697
f 692 691 693
f 694 692 693
f 688 690 687
f 688 687 689
f 684 686 683
f 684 683 685
f 680 682 679
f 680 679 681
f 676 678 675
f 676 675 677
f 672 674 671
f 672 671 673
f 668 670 667
f 668 667 669
f 664 666 663
f 664 663 665
f 660 662 659
f 660 659 661
f 656 658 655
f 656 655 657
f 652 654 651
f 652 651 653
f 648 650 647
f 648 647 649
f 644 646 643
f 644 643 645
f 624 623 625
f 626 624 625
f 620 619 621
f 622 620 621
f 616 615 617
f 618 616 617
f 612 611 613
f 614 612 613
f 608 607 609
f 610 608 609
f 588 587 589
f 590 588 589
f 584 583 585
f 586 584 585
f 580 579 581
f 582 580 581
f 576 575 577
f 578 576 577
f 572 571 573
f 574 572 573
f 524 523 525
f 526 524 525
f 520 519 521
f 522 520 521
f 516 518 515
f 516 515 517
f 512 514 511
f 512 511 513
f 508 510 507
f 508 507 509
f 504 506 503
f 504 503 505
f 500 502 499
f 500 499 501
f 496 498 495
f 496 495 497
f 492 494 491
f 492 491 493
f 488 490 487
f 488 487 489
f 484 486 483
f 484 483 485
f 480 482 479
f 480 479 481
f 476 478 475
f 476 475 477
f 472 474 471
f 472 471 473
f 452 451 453
f 454 452 453
f 448 447 449
f 450 448 449
f 446 444 445
f 444 443 445
f 528 527 529
f 527 530 529
f 534 531 532
f 532 531 533
f 538 535 536
f 536 535 537
f 540 539 541
f 541 539 542
f 700 699 701
f 699 702 701
f 706 703 704
f 704 703 705
f 710 707 708
f 708 707 709
f 712 711 713
f 713 711 714
f 932 931 933
f 934 932 933
