# from FinancialDistrict_Block09_Upmarket Corporate (UC)_0003_LOD_0.pskx
v -295.2243957519531 855.5345458984375 1.5454257663805038e-05
v -365.92767333984375 926.2498779296875 6.181593107612571e-06
v -295.22442626953125 855.53466796875 600.0000610351562
v -365.92767333984375 926.2499389648438 600.0
v -365.92767333984375 926.2498779296875 6.181594926601974e-06
v -931.6135864257812 360.55157470703125 3.090958489337936e-05
v -491.457275390625 800.717529296875 300.0
v -491.457275390625 800.717529296875 496.9369812011719
v -700.6914672851562 591.478759765625 496.93701171875
v -365.92767333984375 926.2498779296875 600.0
v -931.6136474609375 360.5516357421875 600.0
v -700.6914672851562 591.4786987304688 300.0000305175781
v -507.34600830078125 -63.7037353515625 8.654449629830196e-05
v -83.0906982421875 -487.9591064453125 0.00014217887655831873
v -295.7093200683594 -275.3404541015625 492.9710693359375
v -295.7093200683594 -275.3404541015625 552.9711303710938
v -147.21693420410156 -423.8328857421875 552.9711303710938
v -507.3460693359375 -63.7037353515625 600.0001220703125
v -83.09072875976562 -487.9591064453125 600.0001220703125
v -147.21693420410156 -423.8328857421875 492.97113037109375
v -83.09066772460938 -487.9591064453125 0.00014217887655831873
v -436.6428527832031 -841.5235595703125 0.00015763418923597783
v -83.0906982421875 -487.9591064453125 600.0001220703125
v -436.64288330078125 -841.5235595703125 600.0001831054688
v -436.6428527832031 -841.5235595703125 0.00015763418923597783
v 341.1770935058594 -1619.3311767578125 0.0002596318954601884
v -436.64288330078125 -841.5235595703125 600.0001831054688
v 341.17706298828125 -1619.3311767578125 600.000244140625
v 341.177001953125 -1619.3311767578125 0.00025963186635635793
v 836.1517333984375 -1124.3565673828125 0.00023799586051609367
v 578.4819946289062 -1382.0260009765625 3.5887489318847656
v 578.4819946289062 -1382.0260009765625 255.98873901367188
v 741.1165771484375 -1219.3917236328125 255.98873901367188
v 836.1516723632812 -1124.3565673828125 366.000244140625
v 1118.994384765625 -841.5135498046875 366.000244140625
v 341.1769714355469 -1619.3311767578125 600.000244140625
v 741.1165771484375 -1219.3917236328125 3.5887417793273926
v 1118.994384765625 -841.5135498046875 0.00022563239326700568
v 1229.82421875 -730.6837158203125 0.00022078785696066916
v 1229.82421875 -730.6837158203125 329.4152526855469
v 1684.2818603515625 -276.2259521484375 329.4151916503906
v 1684.281982421875 -276.2259521484375 0.0002009228919632733
v 1967.5198974609375 7.011962890625 0.00018854218069463968
v 1967.5198974609375 7.011962890625 600.0001831054688
v 1967.5196533203125 7.011962890625 0.00018854216614272445
v 1401.8336181640625 572.6976928710938 0.00011436141357989982
v 1967.5196533203125 7.011962890625 600.0001831054688
v 1401.8336181640625 572.69775390625 600.0001220703125
v 1401.8336181640625 572.6976318359375 0.00011436142085585743
v 1331.1304931640625 501.98236083984375 0.00011745301162591204
v 1401.8336181640625 572.6976928710938 600.0001220703125
v 1331.1304931640625 501.982421875 600.0001220703125
v 1331.1304931640625 501.98236083984375 0.00011745301162591204
v 694.7290649414062 1138.3837890625 3.3999040169874206e-05
v 1181.935791015625 651.1770629882812 200.00009155273438
v 1181.935791015625 651.1771240234375 452.400146484375
v 1019.3013305664062 813.8116455078125 452.40008544921875
v 1331.1304931640625 501.982421875 600.0001220703125
v 694.7290649414062 1138.3837890625 600.0
v 795.9428100585938 1037.1700439453125 400.9599914550781
v 1019.3013305664062 813.8116455078125 200.0000762939453
v 795.9428100585938 1037.1700439453125 200.0000457763672
v 869.545654296875 963.5672607421875 200.0000457763672
v 869.545654296875 963.5672607421875 400.96002197265625
v 694.7291870117188 1138.3836669921875 3.399905108381063e-05
v 765.4445190429688 1209.0867919921875 3.0909053748473525e-05
v 694.7291870117188 1138.3837890625 600.0
v 765.4445190429688 1209.0869140625 600.0000610351562
v 341.1768493652344 1633.3543701171875 -2.472691994626075e-05
v 270.49822998046875 1562.61474609375 -2.1632124116877094e-05
v 341.1768493652344 1633.3544921875 599.9999389648438
v 270.49822998046875 1562.61474609375 599.9999389648438
v 270.49822998046875 1562.61474609375 -2.1632124116877094e-05
v 341.20135498046875 1491.8992919921875 -1.2359455467958469e-05
v 270.49822998046875 1562.61474609375 599.9998168945312
v 341.2013244628906 1491.8994140625 599.9998779296875
v 341.20135498046875 1491.8992919921875 -1.2359455467958469e-05
v -295.224365234375 855.5346069335938 1.5454255844815634e-05
v 341.2013244628906 1491.8994140625 600.0
v -295.2243957519531 855.53466796875 600.0000610351562
v -484.3861083984375 793.646484375 496.9369812011719
v -693.6203002929688 584.4077758789062 496.93701171875
v -491.457275390625 800.717529296875 496.9369812011719
v -700.6914672851562 591.478759765625 496.93701171875
v -484.3861083984375 793.646484375 300.0
v -491.457275390625 800.717529296875 300.0
v -693.6203002929688 584.40771484375 300.0000305175781
v -700.6914672851562 591.4786987304688 300.0000305175781
v -484.3861083984375 793.646484375 496.9369812011719
v -491.457275390625 800.717529296875 300.0
v -484.3861083984375 793.646484375 300.0
v -491.457275390625 800.717529296875 496.9369812011719
v -693.6203002929688 584.4077758789062 496.93701171875
v -693.6203002929688 584.40771484375 300.0000305175781
v -700.6914672851562 591.4786987304688 300.0000305175781
v -700.6914672851562 591.478759765625 496.93701171875
v 570.4298706054688 -1373.9737548828125 255.98873901367188
v 733.064453125 -1211.3394775390625 255.98873901367188
v 578.4819946289062 -1382.0260009765625 255.98873901367188
v 741.1165771484375 -1219.3917236328125 255.98873901367188
v 570.4298706054688 -1373.9737548828125 3.588747978210449
v 578.4819946289062 -1382.0260009765625 3.5887489318847656
v 733.064453125 -1211.3394775390625 3.5887410640716553
v 741.1165771484375 -1219.3917236328125 3.5887417793273926
v 570.4298706054688 -1373.9737548828125 255.98873901367188
v 578.4819946289062 -1382.0260009765625 3.5887489318847656
v 570.4298706054688 -1373.9737548828125 3.588747978210449
v 578.4819946289062 -1382.0260009765625 255.98873901367188
v 733.064453125 -1211.3394775390625 255.98873901367188
v 733.064453125 -1211.3394775390625 3.5887410640716553
v 741.1165771484375 -1219.3917236328125 3.5887417793273926
v 741.1165771484375 -1219.3917236328125 255.98873901367188
v -436.64288330078125 -841.5235595703125 600.0001831054688
v -931.6136474609375 360.5516357421875 600.0
v -507.3460693359375 -63.7037353515625 600.0001220703125
v -1568.0150146484375 -275.837646484375 600.0000610351562
v -12.375213623046875 -1831.4649658203125 600.000244140625
v 270.461669921875 -1548.6280517578125 600.000244140625
v -83.0906982421875 -487.9591064453125 600.0001220703125
v 765.4445190429688 1209.0869140625 600.0000610351562
v 1401.8336181640625 572.6976928710938 600.0001220703125
v 1331.1304931640625 501.982421875 600.0001220703125
v 694.7291870117188 1138.3837890625 600.0
v -365.9276123046875 926.2498779296875 600.0
v 270.49822998046875 1562.61474609375 599.9999389648438
v -295.22442626953125 855.53466796875 600.0000610351562
v 341.1768493652344 1633.3544921875 599.9999389648438
v 341.2013244628906 1491.8994140625 600.0
v -1568.0147705078125 -275.83740234375 600.0000610351562
v 341.1764831542969 1633.3551025390625 8599.998046875
v -1568.01513671875 -275.836669921875 8599.998046875
v -12.375213623046875 -1831.4649658203125 600.000244140625
v 270.46160888671875 -1548.6280517578125 600.000244140625
v -12.375564575195312 -1831.4642333984375 8600.0
v 270.46124267578125 -1548.6273193359375 8600.0
v 270.461669921875 -1548.6280517578125 600.000244140625
v 341.1769714355469 -1619.3311767578125 600.000244140625
v 270.4613037109375 -1548.6273193359375 8600.0
v 341.1766357421875 -1619.3304443359375 8600.0
v 341.1766357421875 -1619.3304443359375 8599.998046875
v 1967.51953125 7.0126953125 8599.998046875
v 1967.5196533203125 7.01171875 600.0001831054688
v 341.1766662597656 1633.3546142578125 599.9999389648438
v 1967.519287109375 7.012451171875 8599.998046875
v 341.1763000488281 1633.3553466796875 8599.998046875
v 341.1764831542969 1633.3551025390625 8600.0
v -1575.0865478515625 -268.7657470703125 8600.0
v 341.1764831542969 1647.497314453125 8600.0
v -1568.015380859375 -275.8369140625 8600.0
v 341.1764831542969 1647.497314453125 8600.0
v -1589.228515625 -254.623779296875 8610.0
v 341.1764831542969 1675.781494140625 8610.0
v -1575.0865478515625 -268.7657470703125 8600.0
v 341.1764831542969 1675.781494140625 8610.0
v -1589.228515625 -254.623779296875 8650.0
v 341.1764831542969 1675.781494140625 8650.0
v -1589.228515625 -254.623779296875 8610.0
v 341.1764831542969 1675.781494140625 8650.0
v -1575.0865478515625 -268.7657470703125 8660.0
v 341.1764831542969 1647.497314453125 8660.0
v -1589.228515625 -254.623779296875 8650.0
v 341.1764831542969 1647.497314453125 8660.0
v -1575.0865478515625 -268.7657470703125 8670.0
v 341.1764831542969 1647.497314453125 8670.0
v -1575.0865478515625 -268.7657470703125 8660.0
v 341.1764831542969 1647.497314453125 8670.0
v -1589.228515625 -254.623779296875 8680.0
v 341.1764831542969 1675.781494140625 8680.0
v -1575.0865478515625 -268.7657470703125 8670.0
v 341.1764831542969 1675.781494140625 8680.0
v -1589.228515625 -254.623779296875 8720.0
v 341.1764831542969 1675.781494140625 8720.0
v -1589.228515625 -254.623779296875 8680.0
v 341.1764831542969 1675.781494140625 8720.0
v -1575.0865478515625 -268.7657470703125 8730.0
v 341.1764831542969 1647.497314453125 8730.0
v -1589.228515625 -254.623779296875 8720.0
v 341.1764831542969 1647.497314453125 8730.0
v -1560.9442138671875 -282.9080810546875 8730.0
v 341.1764831542969 1619.2130126953125 8730.0
v -1575.0865478515625 -268.7657470703125 8730.0
v -12.375564575195312 -1831.4642333984375 8600.0
v 270.4619140625 -1562.7686767578125 8600.0
v -5.304496765136719 -1838.5350341796875 8600.0
v 270.4613037109375 -1548.6273193359375 8600.0
v -5.304496765136719 -1838.5350341796875 8600.0
v 270.463134765625 -1591.0521240234375 8610.0
v 8.837635040283203 -1852.6773681640625 8610.0
v 270.4619140625 -1562.7686767578125 8600.0
v 8.837635040283203 -1852.6773681640625 8610.0
v 270.463134765625 -1591.0521240234375 8650.0
v 8.837635040283203 -1852.6773681640625 8650.0
v 270.463134765625 -1591.0521240234375 8610.0
v 8.837635040283203 -1852.6773681640625 8650.0
v 270.4619140625 -1562.7686767578125 8660.0
v -5.304496765136719 -1838.5350341796875 8660.0
v 270.463134765625 -1591.0521240234375 8650.0
v -5.304496765136719 -1838.5350341796875 8660.0
v 270.4619140625 -1562.7686767578125 8670.0
v -5.304496765136719 -1838.5350341796875 8670.0
v 270.4619140625 -1562.7686767578125 8660.0
v -5.304496765136719 -1838.5350341796875 8670.0
v 270.463134765625 -1591.0521240234375 8680.0
v 8.837635040283203 -1852.6773681640625 8680.0
v 270.4619140625 -1562.7686767578125 8670.0
v 8.837635040283203 -1852.6773681640625 8680.0
v 270.463134765625 -1591.0521240234375 8720.0
v 8.837631225585938 -1852.6773681640625 8720.0
v 270.463134765625 -1591.0521240234375 8680.0
v 8.837631225585938 -1852.6773681640625 8720.0
v 270.4619140625 -1562.7686767578125 8730.0
v -5.304500579833984 -1838.5350341796875 8730.0
v 270.463134765625 -1591.0521240234375 8720.0
v -5.304500579833984 -1838.5350341796875 8730.0
v 270.460693359375 -1534.4859619140625 8730.0
v -19.446632385253906 -1824.3934326171875 8730.0
v 270.4619140625 -1562.7686767578125 8730.0
v 341.17724609375 -1633.4718017578125 8600.0
v 341.1766357421875 -1619.3304443359375 8600.0
v 270.4619140625 -1562.7686767578125 8600.0
v 341.178466796875 -1661.7552490234375 8610.0
v 270.463134765625 -1591.0521240234375 8610.0
v 341.17724609375 -1633.4718017578125 8600.0
v 270.463134765625 -1591.0521240234375 8610.0
v 341.178466796875 -1661.7552490234375 8650.0
v 270.463134765625 -1591.0521240234375 8650.0
v 341.178466796875 -1661.7552490234375 8610.0
v 270.463134765625 -1591.0521240234375 8650.0
v 341.17724609375 -1633.4718017578125 8660.0
v 270.4619140625 -1562.7686767578125 8660.0
v 341.178466796875 -1661.7552490234375 8650.0
v 270.4619140625 -1562.7686767578125 8660.0
v 341.17724609375 -1633.4718017578125 8670.0
v 270.4619140625 -1562.7686767578125 8670.0
v 341.17724609375 -1633.4718017578125 8660.0
v 270.4619140625 -1562.7686767578125 8670.0
v 341.178466796875 -1661.7552490234375 8680.0
v 270.463134765625 -1591.0521240234375 8680.0
v 341.17724609375 -1633.4718017578125 8670.0
v 270.463134765625 -1591.0521240234375 8680.0
v 341.178466796875 -1661.7552490234375 8720.0
v 270.463134765625 -1591.0521240234375 8720.0
v 341.178466796875 -1661.7552490234375 8680.0
v 270.463134765625 -1591.0521240234375 8720.0
v 341.17724609375 -1633.4718017578125 8730.0
v 270.4619140625 -1562.7686767578125 8730.0
v 341.178466796875 -1661.7552490234375 8720.0
v 341.176025390625 -1605.1890869140625 8730.0
v 341.17724609375 -1633.4718017578125 8730.0
v 1981.6614990234375 7.012451171875 8600.0
v 1967.519287109375 7.012451171875 8600.0
v 341.17724609375 -1633.4718017578125 8600.0
v 2009.94580078125 7.012451171875 8610.0
v 341.178466796875 -1661.7552490234375 8610.0
v 1981.6614990234375 7.012451171875 8600.0
v 341.178466796875 -1661.7552490234375 8610.0
v 2009.94580078125 7.012451171875 8650.0
v 341.178466796875 -1661.7552490234375 8650.0
v 2009.94580078125 7.012451171875 8610.0
v 341.178466796875 -1661.7552490234375 8650.0
v 1981.6614990234375 7.012451171875 8660.0
v 341.17724609375 -1633.4718017578125 8660.0
v 2009.94580078125 7.012451171875 8650.0
v 341.17724609375 -1633.4718017578125 8660.0
v 1981.6614990234375 7.012451171875 8670.0
v 341.17724609375 -1633.4718017578125 8670.0
v 1981.6614990234375 7.012451171875 8660.0
v 341.17724609375 -1633.4718017578125 8670.0
v 2009.94580078125 7.012451171875 8680.0
v 341.178466796875 -1661.7552490234375 8680.0
v 1981.6614990234375 7.012451171875 8670.0
v 341.178466796875 -1661.7552490234375 8680.0
v 2009.94580078125 7.012451171875 8720.0
v 341.178466796875 -1661.7552490234375 8720.0
v 2009.94580078125 7.012451171875 8680.0
v 341.178466796875 -1661.7552490234375 8720.0
v 1981.6614990234375 7.012451171875 8730.0
v 341.17724609375 -1633.4718017578125 8730.0
v 2009.94580078125 7.012451171875 8720.0
v 1953.3770751953125 7.012451171875 8730.0
v 1981.6614990234375 7.012451171875 8730.0
v 1981.6614990234375 7.012451171875 8600.0
v 341.1764831542969 1675.781494140625 8610.0
v 2009.94580078125 7.012451171875 8610.0
v 341.1764831542969 1647.497314453125 8600.0
v 2009.94580078125 7.012451171875 8610.0
v 341.1764831542969 1675.781494140625 8650.0
v 2009.94580078125 7.012451171875 8650.0
v 341.1764831542969 1675.781494140625 8610.0
v 2009.94580078125 7.012451171875 8650.0
v 341.1764831542969 1647.497314453125 8660.0
v 1981.6614990234375 7.012451171875 8660.0
v 341.1764831542969 1675.781494140625 8650.0
v 1981.6614990234375 7.012451171875 8660.0
v 341.1764831542969 1647.497314453125 8670.0
v 1981.6614990234375 7.012451171875 8670.0
v 341.1764831542969 1647.497314453125 8660.0
v 1981.6614990234375 7.012451171875 8670.0
v 341.1764831542969 1675.781494140625 8680.0
v 2009.94580078125 7.012451171875 8680.0
v 341.1764831542969 1647.497314453125 8670.0
v 2009.94580078125 7.012451171875 8680.0
v 341.1764831542969 1675.781494140625 8720.0
v 2009.94580078125 7.012451171875 8720.0
v 341.1764831542969 1675.781494140625 8680.0
v 2009.94580078125 7.012451171875 8720.0
v 341.1764831542969 1647.497314453125 8730.0
v 1981.6614990234375 7.012451171875 8730.0
v 341.1764831542969 1675.781494140625 8720.0
v -1589.228515625 -254.623779296875 8610.0
v -1575.0865478515625 -268.7657470703125 8600.0
v -1568.015380859375 -275.8369140625 8600.0
v -1589.228515625 -254.623779296875 8650.0
v -1575.0865478515625 -268.7657470703125 8660.0
v -1589.228515625 -254.623779296875 8720.0
v -1589.228515625 -254.623779296875 8680.0
v -1575.0865478515625 -268.7657470703125 8670.0
v -1560.9442138671875 -282.9080810546875 8730.0
v -1575.0865478515625 -268.7657470703125 8730.0
v -12.375564575195312 -1831.4642333984375 8600.0
v -5.304496765136719 -1838.5350341796875 8600.0
v 8.837635040283203 -1852.6773681640625 8610.0
v 8.837635040283203 -1852.6773681640625 8650.0
v -5.304496765136719 -1838.5350341796875 8660.0
v -5.304496765136719 -1838.5350341796875 8670.0
v 8.837635040283203 -1852.6773681640625 8680.0
v 8.837631225585938 -1852.6773681640625 8720.0
v -19.446632385253906 -1824.3934326171875 8730.0
v -5.304500579833984 -1838.5350341796875 8730.0
v 341.1768493652344 1619.2122802734375 620.0001220703125
v -1560.94384765625 -282.9088134765625 590.0001831054688
v 341.1768493652344 1619.2122802734375 590.0000610351562
v -1560.94384765625 -282.9088134765625 620.000244140625
v 341.1768493652344 1619.2122802734375 590.0000610351562
v -1589.2281494140625 -254.62451171875 590.0001831054688
v 341.17681884765625 1675.78076171875 590.0000610351562
v -1560.94384765625 -282.9088134765625 590.0001831054688
v 341.17681884765625 1675.78076171875 590.0000610351562
v -1589.2281494140625 -254.62451171875 620.000244140625
v 341.17681884765625 1675.78076171875 620.0001220703125
v -1589.2281494140625 -254.62451171875 590.0001831054688
v 341.17681884765625 1675.78076171875 620.0001220703125
v -1560.94384765625 -282.9088134765625 620.000244140625
v 341.1768493652344 1619.2122802734375 620.0001220703125
v -1589.2281494140625 -254.62451171875 620.000244140625
v -19.446273803710938 -1824.3941650390625 620.0004272460938
v 270.4610595703125 -1534.4866943359375 590.0003662109375
v -19.446273803710938 -1824.3941650390625 590.0003662109375
v 270.4610595703125 -1534.4866943359375 620.0004272460938
v -19.446273803710938 -1824.3941650390625 590.0003662109375
v 270.4635009765625 -1591.0528564453125 590.0003662109375
v 8.83798599243164 -1852.6781005859375 590.0003662109375
v 270.4610595703125 -1534.4866943359375 590.0003662109375
v 8.83798599243164 -1852.6781005859375 590.0003662109375
v 270.4635009765625 -1591.0528564453125 620.0004272460938
v 8.83798599243164 -1852.6781005859375 620.0004272460938
v 270.4635009765625 -1591.0528564453125 590.0003662109375
v 8.83798599243164 -1852.6781005859375 620.0004272460938
v 270.4610595703125 -1534.4866943359375 620.0004272460938
v -19.446273803710938 -1824.3941650390625 620.0004272460938
v 270.4635009765625 -1591.0528564453125 620.0004272460938
v 270.4610595703125 -1534.4866943359375 620.0004272460938
v 341.1763610839844 -1605.1898193359375 590.0003662109375
v 270.4610595703125 -1534.4866943359375 590.0003662109375
v 341.1763610839844 -1605.1898193359375 620.0004272460938
v 341.1788024902344 -1661.7559814453125 590.0003662109375
v 341.1763610839844 -1605.1898193359375 590.0003662109375
v 270.4635009765625 -1591.0528564453125 590.0003662109375
v 341.1788024902344 -1661.7559814453125 620.0004272460938
v 270.4635009765625 -1591.0528564453125 620.0004272460938
v 341.1788024902344 -1661.7559814453125 590.0003662109375
v 341.1763610839844 -1605.1898193359375 620.0004272460938
v 341.1788024902344 -1661.7559814453125 620.0004272460938
v 341.1763610839844 -1605.1898193359375 620.0004272460938
v 1953.37744140625 7.01171875 590.0003051757812
v 341.1763610839844 -1605.1898193359375 590.0003662109375
v 1953.37744140625 7.01171875 620.0003662109375
v 2009.9461669921875 7.01171875 590.0003051757812
v 1953.37744140625 7.01171875 590.0003051757812
v 341.1788024902344 -1661.7559814453125 590.0003662109375
v 2009.9461669921875 7.01171875 620.0003662109375
v 341.1788024902344 -1661.7559814453125 620.0004272460938
v 2009.9461669921875 7.01171875 590.0003051757812
v 1953.37744140625 7.01171875 620.0003662109375
v 2009.9461669921875 7.01171875 620.0003662109375
v 1953.37744140625 7.01171875 620.0003662109375
v 341.1768493652344 1619.2122802734375 590.0000610351562
v 1953.37744140625 7.01171875 590.0003051757812
v 341.1768493652344 1619.2122802734375 620.0001220703125
v 2009.9461669921875 7.01171875 590.0003051757812
v 341.17681884765625 1675.78076171875 620.0001220703125
v 2009.9461669921875 7.01171875 620.0003662109375
v 341.17681884765625 1675.78076171875 590.0000610351562
v -1560.94384765625 -282.9088134765625 620.000244140625
v -1589.2281494140625 -254.62451171875 590.0001831054688
v -1560.94384765625 -282.9088134765625 590.0001831054688
v -1589.2281494140625 -254.62451171875 620.000244140625
v -19.446273803710938 -1824.3941650390625 590.0003662109375
v 8.83798599243164 -1852.6781005859375 590.0003662109375
v -19.446273803710938 -1824.3941650390625 620.0004272460938
v 8.83798599243164 -1852.6781005859375 620.0004272460938
v -1568.015380859375 -275.8369140625 8600.0
v -12.375564575195312 -1831.4642333984375 8600.0
v 270.4613037109375 -1548.6273193359375 8600.0
v 341.1764831542969 1633.3551025390625 8600.0
v 341.1766357421875 -1619.3304443359375 8600.0
v 1967.519287109375 7.012451171875 8600.0
v -648.7766723632812 -205.1221923828125 9.272556053474545e-05
v -507.35821533203125 -63.7037353515625 8.654396515339613e-05
v -648.7766723632812 -205.1221923828125 600.0000610351562
v -507.3582763671875 -63.7037353515625 600.0001220703125
v -931.6257934570312 360.56378173828125 3.090798782068305e-05
v -1073.0443115234375 219.14532470703125 3.7089579564053565e-05
v -931.6258544921875 360.5638427734375 600.0
v -1073.0443115234375 219.1453857421875 600.0
v -1073.0443115234375 219.14532470703125 3.7089579564053565e-05
v -648.776611328125 -205.1221923828125 9.272556053474545e-05
v -1073.0443115234375 219.1453857421875 600.0
v -648.776611328125 -205.1221923828125 600.0000610351562
v 526.8092651367188 -1504.4508056640625 0.000257702951785177
v 544.4850463867188 -1486.7750244140625 0.0002569303323980421
v 526.8092041015625 -1504.4508056640625 425.0002746582031
v 544.4849853515625 -1486.7750244140625 425.0002746582031
v 544.4850463867188 -1486.7750244140625 0.0002569303323980421
v 526.8092651367188 -1469.0992431640625 0.0002546124451328069
v 544.4849853515625 -1486.7750244140625 425.0002746582031
v 526.8092041015625 -1469.0992431640625 425.0002746582031
v 526.8092651367188 -1469.0992431640625 0.0002546124451328069
v 509.13360595703125 -1486.7750244140625 0.0002553850645199418
v 526.8092041015625 -1469.0992431640625 425.0002746582031
v 509.1335754394531 -1486.7750244140625 425.0002746582031
v 509.13360595703125 -1486.7750244140625 0.0002553850645199418
v 526.8092651367188 -1504.4508056640625 0.000257702951785177
v 509.1335754394531 -1486.7750244140625 425.0002746582031
v 526.8092041015625 -1504.4508056640625 425.0002746582031
v 526.803466796875 -1504.4451904296875 425.0002746582031
v 500.2834777832031 -1530.9644775390625 425.0002746582031
v 509.1335754394531 -1486.7750244140625 425.0002746582031
v 526.8092041015625 -1469.0992431640625 425.0002746582031
v 1808.4498291015625 -152.119140625 425.0002136230469
v 544.4793701171875 -1486.7694091796875 425.0002746582031
v 464.9440612792969 -1495.6251220703125 425.0002746582031
v 1843.8013916015625 -187.470703125 425.0002136230469
v 500.2834777832031 -1530.9644775390625 425.0002746582031
v 1843.8013916015625 -187.4705810546875 425.0002136230469
v 500.2834777832031 -1530.9644775390625 450.0002746582031
v 1843.8013916015625 -187.4705810546875 450.0002136230469
v 1843.8013916015625 -187.470703125 425.0002136230469
v 1808.4498291015625 -152.119140625 425.0002136230469
v 1843.8013916015625 -187.470703125 450.0002136230469
v 1808.4498291015625 -152.119140625 450.0002136230469
v 1808.4498291015625 -152.119140625 425.0002136230469
v 464.94390869140625 -1495.6253662109375 425.0002746582031
v 1808.4498291015625 -152.119140625 450.0002136230469
v 464.94390869140625 -1495.6253662109375 450.0002746582031
v 464.9440612792969 -1495.6251220703125 425.0002746582031
v 500.2834777832031 -1530.9644775390625 425.0002746582031
v 464.9440612792969 -1495.6251220703125 450.0002746582031
v 500.2834777832031 -1530.9644775390625 450.0002746582031
v 1843.8013916015625 -187.470703125 450.0002136230469
v 1808.4498291015625 -152.119140625 450.0002136230469
v 500.2834777832031 -1530.9644775390625 450.0002746582031
v 464.9440612792969 -1495.6251220703125 450.0002746582031
v 827.3219604492188 -1168.5743408203125 0.0002414755435893312
v 845.0099487304688 -1186.2501220703125 0.00024379396927542984
v 827.3218994140625 -1168.5743408203125 425.000244140625
v 845.0098876953125 -1186.2501220703125 425.000244140625
v 845.0099487304688 -1186.2501220703125 0.00024379396927542984
v 862.685791015625 -1168.5743408203125 0.00024302134988829494
v 845.0098876953125 -1186.2501220703125 425.000244140625
v 862.6857299804688 -1168.5743408203125 425.000244140625
v 862.685791015625 -1168.5743408203125 0.00024302134988829494
v 845.0099487304688 -1150.8985595703125 0.0002407034335192293
v 862.6857299804688 -1168.5743408203125 425.000244140625
v 845.0098876953125 -1150.8985595703125 425.000244140625
v 845.0099487304688 -1150.8985595703125 0.0002407034335192293
v 827.3219604492188 -1168.5743408203125 0.0002414755435893312
v 845.0098876953125 -1150.8985595703125 425.000244140625
v 827.3218994140625 -1168.5743408203125 425.000244140625
v 827.3218994140625 -1168.5743408203125 425.000244140625
v 845.0098876953125 -1186.2501220703125 425.000244140625
v 845.0098876953125 -1150.8985595703125 425.000244140625
v 862.6857299804688 -1168.5743408203125 425.000244140625
v 482.607666015625 -1477.9371337890625 0.0002534529485274106
v 500.295654296875 -1495.6251220703125 0.0002557724656071514
v 482.6076354980469 -1477.9371337890625 400.0002746582031
v 500.2956237792969 -1495.6251220703125 400.0002746582031
v 500.295654296875 -1495.6251220703125 0.0002557724656071514
v 535.6471557617188 -1460.2735595703125 0.0002542271977290511
v 500.2956237792969 -1495.6251220703125 400.0002136230469
v 535.6470947265625 -1460.2735595703125 400.0002136230469
v 535.6471557617188 -1460.2735595703125 0.0002542271977290511
v 517.9714965820312 -1442.5855712890625 0.00025190823362208903
v 535.6470947265625 -1460.2735595703125 400.0002746582031
v 517.971435546875 -1442.5855712890625 400.0002746582031
v 517.971435546875 -1442.5855712890625 0.00025190823362208903
v 482.607666015625 -1477.9371337890625 0.0002534529485274106
v 517.971435546875 -1442.5855712890625 400.0002746582031
v 482.6076354980469 -1477.9371337890625 400.0002746582031
v 1808.4498291015625 -187.470703125 400.0002136230469
v 535.6470947265625 -1460.2735595703125 400.0002746582031
v 1790.7618408203125 -169.794921875 400.00018310546875
v 517.971435546875 -1442.5855712890625 400.0002746582031
v 482.6076354980469 -1477.9371337890625 600.000244140625
v 500.2956237792969 -1495.6251220703125 600.000244140625
v 500.2956237792969 -1495.6251220703125 400.0002746582031
v 1808.4498291015625 -187.470703125 400.0002136230469
v 500.2956237792969 -1495.6251220703125 600.000244140625
v 1808.4498291015625 -187.470703125 600.0001831054688
v 1808.4498291015625 -187.470703125 400.0002136230469
v 1790.7618408203125 -169.794921875 400.00018310546875
v 1808.4498291015625 -187.470703125 600.0001831054688
v 1790.7618408203125 -169.794921875 600.0001831054688
v 1790.7618408203125 -169.794921875 400.00018310546875
v 482.6078186035156 -1477.9368896484375 400.0002746582031
v 1790.7618408203125 -169.794921875 600.0001831054688
v 482.6078186035156 -1477.9368896484375 600.000244140625
v 482.6076354980469 -1477.9371337890625 600.000244140625
v 500.2956237792969 -1495.6251220703125 600.000244140625
v 1790.7618408203125 -169.794921875 600.0001831054688
v 1808.4498291015625 -187.470703125 600.0001831054688
v 1145.522705078125 -850.3858642578125 0.00022756762336939573
v 1163.198486328125 -868.0616455078125 0.00022988551063463092
v 1145.522705078125 -850.3858642578125 425.000244140625
v 1163.198486328125 -868.0616455078125 425.000244140625
v 1163.198486328125 -868.0616455078125 0.00022988551063463092
v 1180.886474609375 -850.3858642578125 0.00022911341511644423
v 1163.198486328125 -868.0616455078125 425.000244140625
v 1180.886474609375 -850.3858642578125 425.000244140625
v 1180.886474609375 -850.3858642578125 0.00022911341511644423
v 1163.198486328125 -832.6978759765625 0.00022679392714053392
v 1180.886474609375 -850.3858642578125 425.000244140625
v 1163.198486328125 -832.6978759765625 425.000244140625
v 1163.198486328125 -832.6978759765625 0.00022679392714053392
v 1145.522705078125 -850.3858642578125 0.00022756762336939573
v 1163.198486328125 -832.6978759765625 425.000244140625
v 1145.522705078125 -850.3858642578125 425.000244140625
v 1145.522705078125 -850.3858642578125 425.000244140625
v 1163.198486328125 -868.0616455078125 425.000244140625
v 1163.198486328125 -832.6978759765625 425.000244140625
v 1180.886474609375 -850.3858642578125 425.000244140625
v 853.8600463867188 -1142.0728759765625 0.0002403187390882522
v 836.1720581054688 -1124.3848876953125 0.00023799922200851142
v 853.8599853515625 -1142.0728759765625 400.000244140625
v 836.1719970703125 -1124.3848876953125 400.000244140625
v 836.1720581054688 -1124.3848876953125 0.00023799922200851142
v 800.808349609375 -1159.7364501953125 0.00023954396601766348
v 836.1719970703125 -1124.3848876953125 400.000244140625
v 800.8082885742188 -1159.7364501953125 400.000244140625
v 800.808349609375 -1159.7364501953125 0.00023954396601766348
v 818.496337890625 -1177.4366455078125 0.00024186453083530068
v 800.8082885742188 -1159.7364501953125 400.000244140625
v 818.4962768554688 -1177.4366455078125 400.000244140625
v 818.4963989257812 -1177.4366455078125 0.00024186453083530068
v 853.8600463867188 -1142.0728759765625 0.0002403187390882522
v 818.496337890625 -1177.4366455078125 400.000244140625
v 853.8599853515625 -1142.0728759765625 400.000244140625
v 853.8599853515625 -1142.0728759765625 400.000244140625
v 836.1719970703125 -1124.3848876953125 400.000244140625
v 818.4962768554688 -1177.4366455078125 400.000244140625
v 800.8082885742188 -1159.7364501953125 400.000244140625
v 1119.009033203125 -841.5357666015625 0.00022563495440408587
v 1136.697021484375 -859.2359619140625 0.0002279555337736383
v 1119.009033203125 -841.5357666015625 400.000244140625
v 1136.697021484375 -859.2359619140625 400.000244140625
v 1136.697021484375 -859.2359619140625 0.0002279555337736383
v 1172.048583984375 -823.8843994140625 0.00022641026589553803
v 1136.697021484375 -859.2359619140625 400.00018310546875
v 1172.048583984375 -823.8843994140625 400.00018310546875
v 1172.048583984375 -823.8843994140625 0.00022641026589553803
v 1154.360595703125 -806.1842041015625 0.00022408970107790083
v 1172.048583984375 -823.8843994140625 400.000244140625
v 1154.360595703125 -806.1842041015625 400.000244140625
v 1154.360595703125 -806.1842041015625 0.00022408970107790083
v 1119.009033203125 -841.5357666015625 0.00022563495440408587
v 1154.360595703125 -806.1842041015625 400.000244140625
v 1119.009033203125 -841.5357666015625 400.000244140625
v 1119.009033203125 -841.5357666015625 400.000244140625
v 1136.697021484375 -859.2359619140625 400.000244140625
v 1154.360595703125 -806.1842041015625 400.000244140625
v 1172.048583984375 -823.8843994140625 400.000244140625
v 1781.948486328125 -214.0087890625 0.00019975283066742122
v 1799.624267578125 -231.6845703125 0.0002020707179326564
v 1781.9483642578125 -214.0087890625 425.00018310546875
v 1799.6241455078125 -231.6845703125 425.00018310546875
v 1799.624267578125 -231.6845703125 0.0002020707179326564
v 1817.312255859375 -214.0087890625 0.00020129862241446972
v 1799.6241455078125 -231.6845703125 425.00018310546875
v 1817.3121337890625 -214.0087890625 425.0002136230469
v 1817.312255859375 -214.0087890625 0.00020129862241446972
v 1799.624267578125 -196.32080078125 0.0001989791344385594
v 1817.3121337890625 -214.0087890625 425.0002136230469
v 1799.6241455078125 -196.32080078125 425.00018310546875
v 1799.624267578125 -196.32080078125 0.0001989791344385594
v 1781.948486328125 -214.0087890625 0.00019975283066742122
v 1799.6241455078125 -196.32080078125 425.00018310546875
v 1781.9483642578125 -214.0087890625 425.00018310546875
v 1781.9483642578125 -214.0087890625 425.00018310546875
v 1799.6241455078125 -231.6845703125 425.00018310546875
v 1799.6241455078125 -196.32080078125 425.00018310546875
v 1817.3121337890625 -214.0087890625 425.0002136230469
v 1755.434814453125 -205.15869140625 0.0001978201762540266
v 1773.122802734375 -222.85888671875 0.00020014075562357903
v 1755.4346923828125 -205.15869140625 400.00018310546875
v 1773.1226806640625 -222.85888671875 400.00018310546875
v 1773.122802734375 -222.85888671875 0.00020014075562357903
v 1808.474365234375 -187.50732421875 0.00019859548774547875
v 1773.1226806640625 -222.85888671875 400.0001220703125
v 1808.4742431640625 -187.50732421875 400.0001525878906
v 1808.474365234375 -187.50732421875 0.00019859548774547875
v 1790.7862548828125 -169.80712890625 0.00019627492292784154
v 1808.4742431640625 -187.50732421875 400.0002136230469
v 1790.7862548828125 -169.80712890625 400.00018310546875
v 1790.7862548828125 -169.80712890625 0.00019627492292784154
v 1755.434814453125 -205.15869140625 0.0001978201762540266
v 1790.7862548828125 -169.80712890625 400.00018310546875
v 1755.4346923828125 -205.15869140625 400.00018310546875
v 1755.4346923828125 -205.15869140625 400.00018310546875
v 1773.1226806640625 -222.85888671875 400.00018310546875
v 1790.7862548828125 -169.80712890625 400.00018310546875
v 1808.4742431640625 -187.50732421875 400.0002136230469
v -931.6135864257812 -912.2266845703125 600.0001220703125
v -507.345947265625 -1336.4942626953125 600.000244140625
v -578.0613403320312 -1407.2095947265625 600.000244140625
v -1002.328857421875 -982.9420166015625 600.0001220703125
v 1118.996826171875 -841.5113525390625 260.000244140625
v 836.1476440429688 -1124.3604736328125 260.000244140625
v 1118.996826171875 -841.5113525390625 375.0002136230469
v 836.1476440429688 -1124.3604736328125 375.0002136230469
v 836.1476440429688 -1124.3604736328125 260.000244140625
v 843.2277221679688 -1131.4283447265625 260.000244140625
v 836.1476440429688 -1124.3604736328125 375.000244140625
v 843.2277221679688 -1131.4283447265625 375.000244140625
v 843.2277221679688 -1131.4283447265625 260.000244140625
v 1126.064697265625 -848.5792236328125 260.000244140625
v 843.2277221679688 -1131.4283447265625 375.000244140625
v 1126.064697265625 -848.5792236328125 375.000244140625
v 1126.064697265625 -848.5792236328125 260.000244140625
v 1118.996826171875 -841.5113525390625 260.000244140625
v 1126.064697265625 -848.5792236328125 375.0002136230469
v 1118.996826171875 -841.5113525390625 375.0002136230469
v 836.1476440429688 -1124.3604736328125 260.000244140625
v 1118.996826171875 -841.5113525390625 260.000244140625
v 843.2277221679688 -1131.4283447265625 260.000244140625
v 1126.064697265625 -848.5792236328125 260.000244140625
v 836.1476440429688 -1124.3604736328125 375.000244140625
v 843.2277221679688 -1131.4283447265625 375.000244140625
v 1118.996826171875 -841.5113525390625 375.000244140625
v 1126.064697265625 -848.5792236328125 375.000244140625
v 228.0787353515625 1392.887939453125 199.99998474121094
v 235.1465301513672 1385.8201904296875 200.0
v 228.07872009277344 1392.8880615234375 550.0
v 235.14651489257812 1385.8203125 550.0
v 341.2012023925781 1491.8992919921875 199.99998474121094
v 334.1333312988281 1498.9671630859375 199.99998474121094
v 341.2012023925781 1491.8994140625 549.9999389648438
v 334.1333312988281 1498.9671630859375 549.9999389648438
v 334.1333312988281 1498.9671630859375 199.99998474121094
v 228.0787353515625 1392.887939453125 199.99998474121094
v 334.1333312988281 1498.9671630859375 550.0
v 228.07872009277344 1392.8880615234375 550.0
v -302.2557678222656 862.5657958984375 550.0
v 228.07872009277344 1392.8880615234375 550.0
v -295.18798828125 855.4857177734375 550.0000610351562
v 235.14651489257812 1385.8203125 550.0
v 341.2134094238281 1491.88720703125 550.0
v 334.1333312988281 1498.955078125 550.0
v 341.2134094238281 1491.88720703125 600.0
v 334.1333312988281 1498.955078125 600.0
v 334.1333312988281 1498.955078125 550.0
v -302.25579833984375 862.5657958984375 550.0
v 334.1333312988281 1498.955078125 600.0
v -302.25579833984375 862.5657958984375 600.0
v -302.2557373046875 862.5657958984375 550.0
v -295.1879577636719 855.4857177734375 550.0000610351562
v -302.2557373046875 862.5657958984375 600.0
v -295.1879577636719 855.4857177734375 600.0000610351562
v -196.1888427734375 954.5092163085938 200.0
v -203.26882934570312 961.5770874023438 200.0
v -196.18885803222656 954.5092163085938 550.0
v -203.26882934570312 961.5771484375 550.0
v -203.26882934570312 961.5770874023438 200.0
v -302.2923583984375 862.6024780273438 200.00001525878906
v -203.26882934570312 961.5771484375 550.0
v -302.2923583984375 862.6025390625 550.0
v -302.2923278808594 862.6024780273438 200.00001525878906
v -295.22442626953125 855.5346069335938 200.00001525878906
v -302.2923278808594 862.6025390625 549.9999389648438
v -295.22442626953125 855.53466796875 550.0
v -1670.5296630859375 -31.880126953125 595.0001831054688
v -1670.5296630859375 116.618408203125 595.0001831054688
v -1670.5296630859375 -31.880126953125 600.0001831054688
v -1670.5296630859375 116.618408203125 600.0001831054688
v -1670.5296630859375 116.618408203125 595.0001831054688
v -1811.9603271484375 258.0369873046875 595.0001220703125
v -1670.5296630859375 116.618408203125 600.0001831054688
v -1811.9603271484375 258.0369873046875 600.0001220703125
v -1811.9603271484375 258.0369873046875 595.0001220703125
v -1960.4466552734375 258.0369873046875 595.0001220703125
v -1811.9603271484375 258.0369873046875 600.0001220703125
v -1960.4466552734375 258.0369873046875 600.0001220703125
v -1960.4466552734375 258.0369873046875 595.0001220703125
v -2009.9461669921875 208.5374755859375 595.0001220703125
v -1960.4466552734375 258.0369873046875 600.0001220703125
v -2009.9461669921875 208.5374755859375 600.0001220703125
v -2009.9461669921875 208.5374755859375 595.0001220703125
v -2002.8782958984375 201.4696044921875 595.0001220703125
v -2009.9461669921875 208.5374755859375 600.0001220703125
v -2002.8782958984375 201.4696044921875 600.0001220703125
v -2002.8782958984375 201.4696044921875 595.0001220703125
v -1953.3787841796875 250.9691162109375 595.0001220703125
v -2002.8782958984375 201.4696044921875 600.0001220703125
v -1953.3787841796875 250.9691162109375 600.0001220703125
v -1953.3787841796875 250.9691162109375 595.0001220703125
v -1819.0281982421875 250.9691162109375 595.0001220703125
v -1953.3787841796875 250.9691162109375 600.0001220703125
v -1819.0281982421875 250.9691162109375 600.0001220703125
v -1819.0281982421875 250.9691162109375 595.0001220703125
v -1677.6097412109375 109.538330078125 595.0001831054688
v -1819.0281982421875 250.9691162109375 600.0001220703125
v -1677.6097412109375 109.538330078125 600.0001831054688
v -1677.6097412109375 109.538330078125 595.0001831054688
v -1677.6097412109375 -24.812255859375 595.0001831054688
v -1677.6097412109375 109.538330078125 600.0001831054688
v -1677.6097412109375 -24.812255859375 600.0001831054688
v -1677.6097412109375 -24.812255859375 595.0001831054688
v -1727.0970458984375 -74.299560546875 595.0001831054688
v -1677.6097412109375 -24.812255859375 600.0001831054688
v -1727.0970458984375 -74.299560546875 600.0001831054688
v -1727.0970458984375 -74.299560546875 595.0001831054688
v -1720.0291748046875 -81.379638671875 595.0001831054688
v -1727.0970458984375 -74.299560546875 600.0001831054688
v -1720.0291748046875 -81.379638671875 600.0001831054688
v -1720.0291748046875 -81.379638671875 595.0001831054688
v -1670.5296630859375 -31.880126953125 595.0001831054688
v -1720.0291748046875 -81.379638671875 600.0001831054688
v -1670.5296630859375 -31.880126953125 600.0001831054688
v -1670.5296630859375 -31.880126953125 595.0001831054688
v -1677.6097412109375 -24.812255859375 595.0001831054688
v -1670.5296630859375 116.618408203125 595.0001831054688
v -1720.0291748046875 -81.379638671875 595.0001831054688
v -1677.6097412109375 109.538330078125 595.0001831054688
v -1811.9603271484375 258.0369873046875 595.0001220703125
v -1960.4466552734375 258.0369873046875 595.0001220703125
v -1819.0281982421875 250.9691162109375 595.0001220703125
v -1953.3787841796875 250.9691162109375 595.0001220703125
v -2009.9461669921875 208.5374755859375 595.0001220703125
v -2002.8782958984375 201.4696044921875 595.0001220703125
v -1727.0970458984375 -74.299560546875 595.0001831054688
v -1670.5296630859375 -31.880126953125 600.0001831054688
v -1670.5296630859375 116.618408203125 600.0001831054688
v -1677.6097412109375 -24.812255859375 600.0001831054688
v -1720.0291748046875 -81.379638671875 600.0001831054688
v -1677.6097412109375 109.538330078125 600.0001831054688
v -1811.9603271484375 258.0369873046875 600.0001220703125
v -1960.4466552734375 258.0369873046875 600.0001220703125
v -1953.3787841796875 250.9691162109375 600.0001220703125
v -1819.0281982421875 250.9691162109375 600.0001220703125
v -2009.9461669921875 208.5374755859375 600.0001220703125
v -2002.8782958984375 201.4696044921875 600.0001220703125
v -1727.0970458984375 -74.299560546875 600.0001831054688
v 765.7007446289062 1208.8304443359375 200.00003051757812
v 977.5904541015625 1420.68359375 200.00003051757812
v 769.236572265625 1212.36572265625 340.0000305175781
v 769.236572265625 1212.36572265625 457.0
v 948.1500244140625 1391.248291015625 456.9999694824219
v 765.7007446289062 1208.8304443359375 595.0000610351562
v 977.5903930664062 1420.68359375 595.0000610351562
v 948.1500244140625 1391.248291015625 340.0
v 977.5904541015625 1420.68359375 200.00003051757812
v 553.0908203125 1845.20751953125 199.9999542236328
v 846.7794189453125 1551.5020751953125 340.0
v 846.7793579101562 1551.5020751953125 456.9999694824219
v 667.886474609375 1730.4052734375 456.9999694824219
v 977.5903930664062 1420.68359375 595.0000610351562
v 553.0908203125 1845.20751953125 594.9999389648438
v 667.886474609375 1730.4052734375 340.0
v 553.0909423828125 1845.2073974609375 199.9999542236328
v 454.08172607421875 1746.2266845703125 199.99996948242188
v 454.08172607421875 1746.226806640625 455.0
v 366.7414855957031 1658.91162109375 455.0
v 553.0908813476562 1845.20751953125 594.9999389648438
v 366.7414855957031 1658.91162109375 199.99996948242188
v 340.9327087402344 1633.110107421875 199.99998474121094
v 340.9327087402344 1633.1102294921875 594.9999389648438
v 758.6309204101562 1222.9732666015625 457.0
v 937.5443115234375 1401.855712890625 456.9999694824219
v 769.236572265625 1212.36572265625 457.0
v 948.1500244140625 1391.248291015625 456.9999694824219
v 758.6309204101562 1222.97314453125 340.0000305175781
v 769.236572265625 1212.36572265625 340.0000305175781
v 937.5443115234375 1401.855712890625 340.0
v 948.1500244140625 1391.248291015625 340.0
v 758.6309204101562 1222.9732666015625 457.0
v 769.236572265625 1212.36572265625 340.0000305175781
v 758.6309204101562 1222.97314453125 340.0000305175781
v 769.236572265625 1212.36572265625 457.0
v 937.5443115234375 1401.855712890625 456.9999694824219
v 937.5443115234375 1401.855712890625 340.0
v 948.1500244140625 1391.248291015625 340.0
v 948.1500244140625 1391.248291015625 456.9999694824219
v 667.886474609375 1730.4052734375 456.9999694824219
v 846.7793579101562 1551.5020751953125 456.9999694824219
v 836.1724853515625 1540.895751953125 456.9999694824219
v 657.279541015625 1719.799072265625 456.9999694824219
v 667.886474609375 1730.4052734375 340.0
v 836.1725463867188 1540.895751953125 340.0
v 846.7794189453125 1551.5020751953125 340.0
v 657.279541015625 1719.799072265625 340.0
v 836.1724853515625 1540.895751953125 456.9999694824219
v 846.7794189453125 1551.5020751953125 340.0
v 836.1725463867188 1540.895751953125 340.0
v 846.7793579101562 1551.5020751953125 456.9999694824219
v 657.279541015625 1719.799072265625 456.9999694824219
v 657.279541015625 1719.799072265625 340.0
v 667.886474609375 1730.4052734375 340.0
v 667.886474609375 1730.4052734375 456.9999694824219
v 461.15179443359375 1739.1546630859375 455.0
v 373.8115234375 1651.8394775390625 455.0
v 454.08172607421875 1746.226806640625 455.0
v 366.7414855957031 1658.91162109375 455.0
v 461.15179443359375 1739.154541015625 199.99996948242188
v 454.08172607421875 1746.2266845703125 199.99996948242188
v 373.8115234375 1651.8394775390625 199.99996948242188
v 366.7414855957031 1658.91162109375 199.99996948242188
v 461.15179443359375 1739.1546630859375 455.0
v 454.08172607421875 1746.2266845703125 199.99996948242188
v 461.15179443359375 1739.154541015625 199.99996948242188
v 454.08172607421875 1746.226806640625 455.0
v 373.8115234375 1651.8394775390625 455.0
v 373.8115234375 1651.8394775390625 199.99996948242188
v 366.7414855957031 1658.91162109375 199.99996948242188
v 366.7414855957031 1658.91162109375 455.0
v 765.7007446289062 1208.8304443359375 615.0000610351562
v 977.5903930664062 1420.68359375 615.0000610351562
v 977.5903930664062 1420.68359375 615.0000610351562
v 553.0908203125 1845.20751953125 614.9999389648438
v 553.0908813476562 1845.20751953125 614.9999389648438
v 340.9327087402344 1633.1102294921875 614.9999389648438
v 787.095458984375 1230.221435546875 615.0000610351562
v 783.2911376953125 1234.0257568359375 615.0000610351562
v 765.7007446289062 1208.8304443359375 615.0000610351562
v 553.2252197265625 1838.5057373046875 614.9999389648438
v 970.5957641601562 1421.4892578125 615.0000610351562
v 365.9205322265625 1651.0423583984375 614.9999389648438
v 362.3927001953125 1654.5640869140625 614.9999389648438
v 340.9327087402344 1633.1102294921875 614.9999389648438
v 787.095458984375 1230.221435546875 615.0000610351562
v 977.5903930664062 1420.68359375 615.0000610351562
v 790.3590698242188 1226.9578857421875 615.0000610351562
v 984.7315063476562 1421.50146484375 615.0000610351562
v 553.2130126953125 1852.653564453125 614.9999389648438
v 358.84039306640625 1658.1102294921875 614.9999389648438
v 553.0908813476562 1845.20751953125 614.9999389648438
v 362.3927001953125 1654.5640869140625 614.9999389648438
v 553.2252197265625 1838.5057373046875 614.9999389648438
v 970.5957641601562 1421.4892578125 615.0000610351562
v 553.2252197265625 1838.5057373046875 619.9999389648438
v 970.5957641601562 1421.4892578125 620.0000610351562
v 970.5957641601562 1421.4892578125 615.0000610351562
v 783.2911376953125 1234.0257568359375 615.0000610351562
v 970.5957641601562 1421.4892578125 620.0000610351562
v 783.2911376953125 1234.0257568359375 620.0000610351562
v 783.2911376953125 1234.0257568359375 615.0000610351562
v 790.3590698242188 1226.9578857421875 615.0000610351562
v 783.2911376953125 1234.0257568359375 620.0000610351562
v 790.3590698242188 1226.9578857421875 620.0000610351562
v 790.3590698242188 1226.9578857421875 615.0000610351562
v 984.7315063476562 1421.50146484375 615.0000610351562
v 790.3590698242188 1226.9578857421875 620.0000610351562
v 984.7315063476562 1421.50146484375 620.0000610351562
v 984.7315063476562 1421.50146484375 615.0000610351562
v 553.2129516601562 1852.6536865234375 614.9999389648438
v 984.7315063476562 1421.50146484375 620.0000610351562
v 553.2129516601562 1852.6536865234375 619.9999389648438
v 553.2130126953125 1852.653564453125 614.9999389648438
v 358.84039306640625 1658.1102294921875 614.9999389648438
v 553.2130126953125 1852.653564453125 619.9999389648438
v 358.84039306640625 1658.1102294921875 619.9999389648438
v 358.84039306640625 1658.1102294921875 614.9999389648438
v 365.9205322265625 1651.0423583984375 614.9999389648438
v 358.84039306640625 1658.1102294921875 619.9999389648438
v 365.9205322265625 1651.0423583984375 619.9999389648438
v 365.9205017089844 1651.0423583984375 614.9999389648438
v 553.2252197265625 1838.5057373046875 614.9999389648438
v 365.9205017089844 1651.0423583984375 619.9999389648438
v 553.2252197265625 1838.5057373046875 619.9999389648438
v 553.2130126953125 1852.653564453125 619.9999389648438
v 553.2252197265625 1838.5057373046875 619.9999389648438
v 970.5957641601562 1421.4892578125 620.0000610351562
v 984.7315063476562 1421.50146484375 620.0000610351562
v 783.2911376953125 1234.0257568359375 620.0000610351562
v 790.3590698242188 1226.9578857421875 620.0000610351562
v 358.84039306640625 1658.1102294921875 619.9999389648438
v 365.9205322265625 1651.0423583984375 619.9999389648438
v 553.2008056640625 1838.5301513671875 589.9999389648438
v 970.5713500976562 1421.5135498046875 590.0000610351562
v 553.2008056640625 1838.5301513671875 594.9999389648438
v 970.5713500976562 1421.5135498046875 595.0000610351562
v 970.5713500976562 1421.5135498046875 590.0000610351562
v 783.2667846679688 1234.0501708984375 590.0000610351562
v 970.5713500976562 1421.5135498046875 595.0000610351562
v 783.2667846679688 1234.0501708984375 595.0000610351562
v 783.2667846679688 1234.0501708984375 590.0000610351562
v 790.334716796875 1226.982421875 590.0000610351562
v 783.2667846679688 1234.0501708984375 595.0000610351562
v 790.334716796875 1226.982421875 595.0000610351562
v 790.334716796875 1226.982421875 590.0000610351562
v 984.7070922851562 1421.5257568359375 590.0000610351562
v 790.334716796875 1226.982421875 595.0000610351562
v 984.7070922851562 1421.5257568359375 595.0000610351562
v 984.7070922851562 1421.5257568359375 590.0000610351562
v 553.1885986328125 1852.6781005859375 589.9999389648438
v 984.7070922851562 1421.5257568359375 595.0000610351562
v 553.1885986328125 1852.6781005859375 594.9999389648438
v 553.1885986328125 1852.67822265625 589.9999389648438
v 358.8160400390625 1658.1346435546875 589.9999389648438
v 553.1885986328125 1852.67822265625 594.9999389648438
v 358.8160400390625 1658.1346435546875 594.9999389648438
v 358.8160400390625 1658.1346435546875 589.9999389648438
v 365.8961486816406 1651.0667724609375 589.9999389648438
v 358.8160400390625 1658.1346435546875 594.9999389648438
v 365.8961486816406 1651.0667724609375 594.9999389648438
v 365.8961486816406 1651.0667724609375 589.9999389648438
v 553.2008056640625 1838.5301513671875 589.9999389648438
v 365.8961486816406 1651.0667724609375 594.9999389648438
v 553.2008056640625 1838.5301513671875 594.9999389648438
v 553.1885986328125 1852.67822265625 594.9999389648438
v 553.2008056640625 1838.5301513671875 594.9999389648438
v 970.5713500976562 1421.5135498046875 595.0000610351562
v 984.7070922851562 1421.5257568359375 595.0000610351562
v 783.2667846679688 1234.0501708984375 595.0000610351562
v 790.334716796875 1226.982421875 595.0000610351562
v 358.8160400390625 1658.1346435546875 594.9999389648438
v 365.8961486816406 1651.0667724609375 594.9999389648438
f 22 21 23
f 24 22 23
f 2 1 3
f 4 2 3
f 860 859 861
f 861 862 860
f 856 855 857
f 857 858 856
f 828 827 829
f 829 830 828
f 824 823 825
f 825 826 824
f 724 723 725
f 726 724 725
f 720 719 721
f 722 720 721
f 716 715 717
f 718 716 717
f 712 711 713
f 714 712 713
f 708 707 709
f 710 708 709
f 704 703 705
f 706 704 705
f 700 699 701
f 701 702 700
f 696 695 697
f 698 696 697
f 692 691 693
f 694 692 693
f 688 687 689
f 690 688 689
f 452 451 453
f 454 452 453
f 448 447 449
f 450 448 449
f 444 443 445
f 446 444 445
f 102 101 103
f 103 104 102
f 98 97 99
f 99 100 98
f 86 85 87
f 87 88 86
f 82 81 83
f 83 84 82
f 74 73 75
f 76 74 75
f 70 69 71
f 72 70 71
f 66 65 67
f 68 66 67
f 54 53 55
f 55 61 54
f 55 53 56
f 56 53 58
f 57 56 58
f 58 59 57
f 57 59 60
f 60 59 62
f 62 59 54
f 63 62 54
f 61 63 54
f 63 61 64
f 64 61 57
f 60 64 57
f 868 867 869
f 869 867 870
f 866 863 864
f 864 863 865
f 852 851 853
f 853 851 854
f 850 847 848
f 848 847 849
f 843 844 846
f 844 843 845
f 840 839 841
f 842 841 839
f 836 835 837
f 837 835 838
f 834 831 832
f 832 831 833
f 110 109 111
f 111 109 112
f 108 105 106
f 106 105 107
f 94 93 95
f 95 93 96
f 92 89 90
f 90 89 91
f 39 38 40
f 40 38 35
f 41 40 35
f 43 42 41
f 41 44 43
f 35 44 41
f 36 44 35
f 35 34 36
f 34 32 36
f 33 32 34
f 33 34 37
f 37 34 30
f 31 37 30
f 30 29 31
f 31 29 32
f 32 29 36
f 816 815 817
f 817 815 819
f 818 817 819
f 819 822 818
f 818 822 821
f 821 820 818
f 50 49 51
f 52 50 51
f 46 45 47
f 48 46 47
f 26 25 27
f 28 26 27
f 808 807 809
f 809 814 808
f 814 813 808
f 811 813 814
f 812 813 811
f 811 810 812
f 810 807 812
f 809 807 810
f 7 12 6
f 6 5 7
f 7 5 8
f 8 5 10
f 9 8 10
f 10 11 9
f 9 11 12
f 12 11 6
f 806 805 800
f 801 806 800
f 800 799 801
f 801 799 802
f 802 799 804
f 803 802 804
f 804 805 803
f 803 805 806
f 14 13 15
f 15 20 14
f 20 19 14
f 17 19 20
f 18 19 17
f 17 16 18
f 16 13 18
f 15 13 16
f 78 77 79
f 80 78 79
f 158 160 157
f 158 157 159
f 884 886 887
f 884 883 885
f 885 886 884
f 886 885 888
f 888 885 890
f 889 888 890
f 127 124 125
f 125 124 126
f 126 128 125
f 394 396 393
f 394 393 395
f 390 392 389
f 390 389 391
f 386 388 385
f 386 385 387
f 382 384 381
f 382 381 383
f 378 380 377
f 378 377 379
f 374 376 373
f 374 373 375
f 370 372 369
f 370 369 371
f 366 368 365
f 366 365 367
f 362 364 361
f 362 361 363
f 358 360 357
f 358 357 359
f 354 356 353
f 354 353 355
f 350 352 349
f 350 349 351
f 345 344 346
f 340 339 341
f 341 339 342
f 342 339 343
f 343 339 344
f 344 339 347
f 346 344 347
f 348 346 347
f 335 334 336
f 330 329 331
f 329 332 331
f 332 333 331
f 333 336 331
f 336 337 331
f 334 337 336
f 338 337 334
f 154 156 153
f 154 153 155
f 150 152 149
f 150 149 151
f 118 113 117
f 116 117 113
f 116 113 114
f 114 113 115
f 119 115 113
f 121 120 122
f 123 122 120
f 660 659 661
f 662 661 659
f 438 437 439
f 439 437 440
f 441 439 440
f 441 440 442
f 432 429 430
f 430 429 431
f 892 891 893
f 893 894 892
f 894 895 979
f 897 979 895
f 895 896 980
f 980 896 898
f 978 977 971
f 971 972 978
f 981 971 973
f 973 971 974
f 982 974 976
f 976 975 982
f 968 967 969
f 970 968 969
f 964 963 965
f 966 964 965
f 960 959 961
f 962 960 961
f 956 955 957
f 958 956 957
f 952 951 953
f 954 952 953
f 948 947 949
f 950 948 949
f 944 943 945
f 946 944 945
f 940 939 941
f 942 940 941
f 938 937 931
f 931 932 938
f 983 931 933
f 933 931 934
f 984 934 936
f 936 935 984
f 928 927 929
f 930 928 929
f 924 923 925
f 926 924 925
f 920 919 921
f 922 920 921
f 916 915 917
f 918 916 917
f 912 911 913
f 914 912 913
f 908 907 909
f 910 908 909
f 904 903 905
f 906 904 905
f 900 899 901
f 902 900 901
f 880 879 881
f 882 880 881
f 876 875 877
f 878 876 877
f 872 871 873
f 874 872 873
f 772 771 773
f 774 772 773
f 768 767 769
f 770 768 769
f 764 763 765
f 766 764 765
f 760 759 761
f 762 760 761
f 756 755 757
f 758 756 757
f 752 751 753
f 754 752 753
f 748 747 749
f 750 748 749
f 744 743 745
f 746 744 745
f 740 739 741
f 742 740 741
f 736 735 737
f 738 736 737
f 732 731 733
f 734 732 733
f 728 727 729
f 730 728 729
f 656 655 657
f 657 658 656
f 652 651 653
f 654 652 653
f 648 647 649
f 650 648 649
f 644 643 645
f 646 644 645
f 616 615 617
f 617 618 616
f 612 611 613
f 614 612 613
f 608 607 609
f 610 608 609
f 604 603 605
f 606 604 605
f 596 595 597
f 597 598 596
f 592 591 593
f 594 592 593
f 584 583 585
f 586 584 585
f 580 579 581
f 582 580 581
f 556 555 557
f 557 558 556
f 552 551 553
f 554 552 553
f 548 547 549
f 550 548 549
f 544 543 545
f 546 544 545
f 540 539 541
f 542 540 541
f 536 535 537
f 537 538 536
f 532 531 533
f 534 532 533
f 528 527 529
f 530 528 529
f 524 523 525
f 526 524 525
f 520 519 521
f 522 520 521
f 434 433 435
f 436 434 435
f 426 428 425
f 426 425 427
f 422 424 421
f 422 421 423
f 418 420 417
f 418 417 419
f 414 416 413
f 414 413 415
f 410 412 409
f 410 409 411
f 406 408 405
f 406 405 407
f 402 404 401
f 402 401 403
f 398 400 397
f 398 397 399
f 326 328 325
f 326 325 327
f 322 324 321
f 322 321 323
f 318 320 317
f 318 317 319
f 314 316 313
f 314 313 315
f 310 312 309
f 310 309 311
f 306 308 305
f 306 305 307
f 302 304 301
f 302 301 303
f 298 300 297
f 298 297 299
f 294 296 293
f 294 293 295
f 290 292 289
f 290 289 291
f 286 288 285
f 286 285 287
f 282 284 281
f 282 281 283
f 278 280 277
f 278 277 279
f 274 276 273
f 274 273 275
f 270 272 269
f 270 269 271
f 266 268 265
f 266 265 267
f 262 264 261
f 262 261 263
f 258 260 257
f 258 257 259
f 254 256 253
f 254 253 255
f 250 252 249
f 250 249 251
f 246 248 245
f 246 245 247
f 242 244 241
f 242 241 243
f 238 240 237
f 238 237 239
f 234 236 233
f 234 233 235
f 230 232 229
f 230 229 231
f 226 228 225
f 226 225 227
f 222 224 221
f 222 221 223
f 218 220 217
f 218 217 219
f 214 216 213
f 214 213 215
f 210 212 209
f 210 209 211
f 206 208 205
f 206 205 207
f 202 204 201
f 202 201 203
f 198 200 197
f 198 197 199
f 194 196 193
f 194 193 195
f 190 192 189
f 190 189 191
f 186 188 185
f 186 185 187
f 182 184 181
f 182 181 183
f 178 180 177
f 178 177 179
f 174 176 173
f 174 173 175
f 170 172 169
f 170 169 171
f 166 168 165
f 166 165 167
f 162 164 161
f 162 161 163
f 790 798 789
f 789 787 790
f 788 787 985
f 985 791 788
f 986 792 788
f 792 986 795
f 987 793 792
f 794 793 987
f 793 988 797
f 797 796 793
f 781 784 785
f 785 783 781
f 782 781 989
f 780 781 782
f 990 779 780
f 777 780 779
f 777 991 776
f 776 775 777
f 778 775 992
f 992 786 778
f 130 129 131
f 132 130 131
f 146 145 147
f 148 146 147
f 142 141 143
f 144 142 143
f 138 137 139
f 140 138 139
f 134 133 135
f 136 134 135
f 456 455 457
f 458 456 457
f 684 683 685
f 685 686 684
f 680 679 681
f 681 682 680
f 676 675 677
f 678 676 677
f 672 671 673
f 674 672 673
f 668 667 669
f 670 668 669
f 664 663 665
f 666 664 665
f 640 639 641
f 642 640 641
f 636 635 637
f 636 637 638
f 632 631 633
f 634 632 633
f 628 627 629
f 630 628 629
f 624 623 625
f 626 624 625
f 620 619 621
f 622 620 621
f 600 599 601
f 602 600 601
f 588 587 589
f 590 588 589
f 576 575 577
f 576 577 578
f 572 571 573
f 574 572 573
f 568 567 569
f 570 568 569
f 564 563 565
f 566 564 565
f 560 559 561
f 562 560 561
f 516 515 517
f 516 517 518
f 512 511 513
f 514 512 513
f 508 507 509
f 510 508 509
f 504 503 505
f 506 504 505
f 500 499 501
f 502 500 501
f 496 495 497
f 497 498 496
f 492 491 493
f 494 492 493
f 488 487 489
f 490 488 489
f 484 483 485
f 486 484 485
f 480 479 481
f 482 480 481
f 468 467 469
f 470 468 469
f 464 463 465
f 466 464 465
f 476 478 475
f 475 474 476
f 475 473 474
f 475 477 473
f 473 477 472
f 472 471 473
f 462 460 461
f 460 459 461
