# from FinancialDistrict_Block43_High-street (shop) (MC)_0002_LOD_0.pskx
v 2246.71533203125 190.288818359375 0.0
v -43.25634765625 1880.0101318359375 -0.0002478179812896997
v 1789.47900390625 527.6737670898438 4.999950408935547
v 552.833251953125 1440.1680908203125 262.99981689453125
v 373.394775390625 1572.5721435546875 262.9997863769531
v 2246.71533203125 190.2888641357422 500.0
v 1789.47900390625 527.673828125 262.99993896484375
v 1610.040283203125 660.0776977539062 262.99993896484375
v -43.25634765625 1880.0101318359375 499.999755859375
v 1610.0404052734375 660.07763671875 4.999931335449219
v 373.3948974609375 1572.5721435546875 4.999797344207764
v 552.8333740234375 1440.1680908203125 4.99981689453125
v -43.256591796875 1880.0103759765625 -0.00024781801039353013
v -552.43017578125 1189.9468994140625 -0.00020974743529222906
v -43.256591796875 1880.0103759765625 499.999755859375
v -552.43017578125 1189.947021484375 499.9997863769531
v -552.43017578125 1189.9468994140625 -0.00020974743529222906
v -252.79638671875 968.853271484375 -0.0001773214025888592
v -552.43017578125 1189.947021484375 499.99969482421875
v -252.79638671875 968.8533325195312 499.9997253417969
v -252.79638671875 968.8532104492188 -0.0001773214025888592
v -1183.637451171875 -208.45425415039062 -0.00011508626630529761
v -376.149658203125 812.8385009765625 120.11183166503906
v -786.43603515625 293.91778564453125 490.1119079589844
v -1063.051513671875 -55.93925476074219 490.1119079589844
v -252.79638671875 968.853271484375 499.99981689453125
v -376.149658203125 812.8385620117188 490.1118469238281
v -664.54931640625 448.0773010253906 490.11187744140625
v -1183.637451171875 -208.4542236328125 499.9998779296875
v -664.54931640625 448.0772705078125 120.11184692382812
v -1063.051513671875 -55.93928527832031 120.11187744140625
v -786.43603515625 293.9177551269531 120.11186218261719
v -1183.637451171875 -208.45404052734375 -0.00011508628813317046
v -1443.036865234375 -17.035568237304688 -0.00014315932639874518
v -1183.637451171875 -208.45401000976562 499.9998779296875
v -1443.036865234375 -17.0355224609375 499.9998779296875
v -1443.036865234375 -17.035537719726562 -0.00014315932639874518
v -1939.70458984375 -690.1311645507812 -0.00010602547263260931
v -1443.036865234375 -17.035491943359375 499.9998779296875
v -1939.70458984375 -690.131103515625 499.9999084472656
v -1939.70458984375 -690.1312866210938 -0.0001060254653566517
v -1175.275634765625 -1254.181396484375 -2.3300399334402755e-05
v -1482.46630859375 -1027.51416015625 4.999943256378174
v -1482.46630859375 -1027.51416015625 262.99993896484375
v -1303.027099609375 -1159.917236328125 262.9999694824219
v -1939.70458984375 -690.1312255859375 499.9999084472656
v -1175.275634765625 -1254.181396484375 499.9999694824219
v -1303.027099609375 -1159.917236328125 4.999963283538818
v -1175.275634765625 -1254.1815185546875 -2.3300384782487527e-05
v -813.07470703125 -763.3612060546875 -5.037695154896937e-05
v -1175.275634765625 -1254.1815185546875 499.9999694824219
v -813.07470703125 -763.3611450195312 499.9999694824219
v -813.07470703125 -763.3612060546875 -5.037695154896937e-05
v -780.888427734375 -787.1106567382812 -4.689379784394987e-05
v -780.888427734375 -787.1106567382812 254.9999237060547
v -681.512939453125 -860.43701171875 254.99993896484375
v -813.07470703125 -763.3611450195312 499.9998779296875
v -681.512939453125 -860.43701171875 -3.613955414039083e-05
v 80.095458984375 -1422.4066162109375 4.628034002962522e-05
v -289.77880859375 -1149.486572265625 106.91949462890625
v -289.77880859375 -1149.486572265625 243.9195098876953
v -188.391845703125 -1224.29736328125 243.9195098876953
v 80.095458984375 -1422.4066162109375 499.9999694824219
v -188.391845703125 -1224.29736328125 106.91950988769531
v 80.095458984375 -1422.4066162109375 4.628034002962522e-05
v -282.09326171875 -1913.214599609375 7.335636473726481e-05
v 80.095458984375 -1422.4066162109375 500.00006103515625
v -282.09326171875 -1913.214599609375 500.00006103515625
v -282.09326171875 -1913.214599609375 7.335636473726481e-05
v 350.2677001953125 -2379.840576171875 0.00014179147547110915
v -80.36181640625 -2062.074462890625 5.000095367431641
v -80.36181640625 -2062.074462890625 263.0000915527344
v 99.073974609375 -2194.482177734375 263.0001220703125
v -282.09326171875 -1913.214599609375 500.00006103515625
v 350.2677001953125 -2379.840576171875 500.0001220703125
v 99.073974609375 -2194.482177734375 5.000114440917969
v 350.2677001953125 -2379.840576171875 0.00014179147547110915
v 2246.715576171875 190.28939819335938 -4.16864286145735e-11
v 491.5389404296875 -2188.385009765625 40.98773193359375
v 1877.0989990234375 -310.6274719238281 400.9875793457031
v 2146.0634765625 53.88214111328125 400.9875793457031
v 350.2677001953125 -2379.840576171875 500.0001220703125
v 491.5389404296875 -2188.385009765625 400.9877014160156
v 1682.71044921875 -574.0694580078125 400.98760986328125
v 1413.74609375 -938.5789794921875 400.9876403808594
v 1233.204833984375 -1183.254638671875 400.9876708984375
v 964.2403564453125 -1547.76416015625 400.9876708984375
v 760.5032958984375 -1823.8756103515625 400.9877014160156
v 2246.715576171875 190.2894287109375 500.0
v 760.5032958984375 -1823.8756103515625 40.987709045410156
v 2146.0634765625 53.882110595703125 40.987606048583984
v 964.240478515625 -1547.76416015625 40.987693786621094
v 1233.204833984375 -1183.254638671875 40.9876708984375
v 1413.74609375 -938.5789794921875 40.9876594543457
v 1682.71044921875 -574.0695190429688 40.98764419555664
v 1877.0989990234375 -310.62750244140625 40.98762512207031
v 1610.040283203125 660.0776977539062 262.99993896484375
v 1789.47900390625 527.673828125 262.99993896484375
v 1777.604248046875 511.5806579589844 262.99993896484375
v 1598.16552734375 643.9845581054688 262.99993896484375
v 1610.0404052734375 660.07763671875 4.999931335449219
v 1777.604248046875 511.58062744140625 4.999951362609863
v 1789.47900390625 527.6737670898438 4.999950408935547
v 1598.1656494140625 643.9844970703125 4.999932289123535
v 1777.604248046875 511.5806579589844 262.99993896484375
v 1789.47900390625 527.6737670898438 4.999950408935547
v 1777.604248046875 511.58062744140625 4.999951362609863
v 1789.47900390625 527.673828125 262.99993896484375
v 1598.16552734375 643.9845581054688 262.99993896484375
v 1598.1656494140625 643.9844970703125 4.999932289123535
v 1610.0404052734375 660.07763671875 4.999931335449219
v 1610.040283203125 660.0776977539062 262.99993896484375
v 373.394775390625 1572.5721435546875 262.9997863769531
v 552.833251953125 1440.1680908203125 262.99981689453125
v 540.95849609375 1424.074951171875 262.99981689453125
v 361.52001953125 1556.4788818359375 262.9997863769531
v 373.3948974609375 1572.5721435546875 4.999797344207764
v 540.9586181640625 1424.074951171875 4.999817848205566
v 552.8333740234375 1440.1680908203125 4.99981689453125
v 361.5201416015625 1556.4788818359375 4.99979829788208
v 540.95849609375 1424.074951171875 262.99981689453125
v 552.8333740234375 1440.1680908203125 4.99981689453125
v 540.9586181640625 1424.074951171875 4.999817848205566
v 552.833251953125 1440.1680908203125 262.99981689453125
v 361.52001953125 1556.4788818359375 262.9997863769531
v 361.5201416015625 1556.4788818359375 4.99979829788208
v 373.3948974609375 1572.5721435546875 4.999797344207764
v 373.394775390625 1572.5721435546875 262.9997863769531
v -1303.027099609375 -1159.917236328125 262.9999694824219
v -1482.46630859375 -1027.51416015625 262.99993896484375
v -1470.591552734375 -1011.4208984375 262.99993896484375
v -1291.15234375 -1143.8240966796875 262.9999694824219
v -1303.027099609375 -1159.917236328125 4.999963283538818
v -1470.591552734375 -1011.4208984375 4.999942302703857
v -1482.46630859375 -1027.51416015625 4.999943256378174
v -1291.15234375 -1143.8240966796875 4.999962329864502
v -1470.591552734375 -1011.4208984375 262.99993896484375
v -1482.46630859375 -1027.51416015625 4.999943256378174
v -1470.591552734375 -1011.4208984375 4.999942302703857
v -1482.46630859375 -1027.51416015625 262.99993896484375
v -1291.15234375 -1143.8240966796875 262.9999694824219
v -1291.15234375 -1143.8240966796875 4.999962329864502
v -1303.027099609375 -1159.917236328125 4.999963283538818
v -1303.027099609375 -1159.917236328125 262.9999694824219
v -681.512939453125 -860.43701171875 254.99993896484375
v -780.888427734375 -787.1106567382812 254.9999237060547
v -777.924072265625 -783.0931396484375 254.9999237060547
v -678.54833984375 -856.4195556640625 254.99993896484375
v -681.512939453125 -860.43701171875 -3.613955414039083e-05
v -777.924072265625 -783.0931396484375 -4.7115438064793125e-05
v -780.888427734375 -787.1106567382812 -4.689379784394987e-05
v -678.54833984375 -856.4195556640625 -3.636120891314931e-05
v -777.924072265625 -783.0931396484375 254.9999237060547
v -780.888427734375 -787.1106567382812 -4.689379784394987e-05
v -777.924072265625 -783.0931396484375 -4.7115438064793125e-05
v -780.888427734375 -787.1106567382812 254.9999237060547
v -678.54833984375 -856.4195556640625 254.99993896484375
v -678.54833984375 -856.4195556640625 -3.636120891314931e-05
v -681.512939453125 -860.43701171875 -3.613955414039083e-05
v -681.512939453125 -860.43701171875 254.99993896484375
v -188.391845703125 -1224.29736328125 243.9195098876953
v -289.77880859375 -1149.486572265625 243.9195098876953
v -281.460205078125 -1138.212646484375 243.9195098876953
v -180.0732421875 -1213.0234375 243.9195098876953
v -188.391845703125 -1224.29736328125 106.91950988769531
v -281.460205078125 -1138.212646484375 106.91950225830078
v -289.77880859375 -1149.486572265625 106.91949462890625
v -180.0732421875 -1213.0234375 106.91950988769531
v -281.460205078125 -1138.212646484375 243.9195098876953
v -289.77880859375 -1149.486572265625 106.91949462890625
v -281.460205078125 -1138.212646484375 106.91950225830078
v -289.77880859375 -1149.486572265625 243.9195098876953
v -180.0732421875 -1213.0234375 243.9195098876953
v -180.0732421875 -1213.0234375 106.91950988769531
v -188.391845703125 -1224.29736328125 106.91950988769531
v -188.391845703125 -1224.29736328125 243.9195098876953
v 99.073974609375 -2194.482177734375 263.0001220703125
v -80.36181640625 -2062.074462890625 263.0000915527344
v -68.4833984375 -2045.97705078125 263.0000915527344
v 110.952392578125 -2178.385009765625 263.0001220703125
v 99.073974609375 -2194.482177734375 5.000114440917969
v -68.4833984375 -2045.97705078125 5.000094413757324
v -80.36181640625 -2062.074462890625 5.000095367431641
v 110.952392578125 -2178.385009765625 5.000113487243652
v -68.4833984375 -2045.97705078125 263.0000915527344
v -80.36181640625 -2062.074462890625 5.000095367431641
v -68.4833984375 -2045.97705078125 5.000094413757324
v -80.36181640625 -2062.074462890625 263.0000915527344
v 110.952392578125 -2178.385009765625 263.0001220703125
v 110.952392578125 -2178.385009765625 5.000113487243652
v 99.073974609375 -2194.482177734375 5.000114440917969
v 99.073974609375 -2194.482177734375 263.0001220703125
v 460.1448974609375 -2165.22021484375 400.9877014160156
v 729.1092529296875 -1800.710693359375 400.9877014160156
v 491.5389404296875 -2188.385009765625 400.9877014160156
v 760.5032958984375 -1823.8756103515625 400.9877014160156
v 460.1448974609375 -2165.22021484375 40.987728118896484
v 491.5389404296875 -2188.385009765625 40.98773193359375
v 729.1092529296875 -1800.710693359375 40.987709045410156
v 760.5032958984375 -1823.8756103515625 40.987709045410156
v 460.1448974609375 -2165.22021484375 400.9877014160156
v 491.5389404296875 -2188.385009765625 40.98773193359375
v 460.1448974609375 -2165.22021484375 40.987728118896484
v 491.5389404296875 -2188.385009765625 400.9877014160156
v 729.1092529296875 -1800.710693359375 400.9877014160156
v 729.1092529296875 -1800.710693359375 40.987709045410156
v 760.5032958984375 -1823.8756103515625 40.987709045410156
v 760.5032958984375 -1823.8756103515625 400.9877014160156
v 932.8463134765625 -1524.59912109375 400.9876708984375
v 1201.8106689453125 -1160.089599609375 400.9876708984375
v 964.2403564453125 -1547.76416015625 400.9876708984375
v 1233.204833984375 -1183.254638671875 400.9876708984375
v 932.846435546875 -1524.59912109375 40.98768997192383
v 964.240478515625 -1547.76416015625 40.987693786621094
v 1201.8106689453125 -1160.089599609375 40.9876708984375
v 1233.204833984375 -1183.254638671875 40.9876708984375
v 932.8463134765625 -1524.59912109375 400.9876708984375
v 964.240478515625 -1547.76416015625 40.987693786621094
v 932.846435546875 -1524.59912109375 40.98768997192383
v 964.2403564453125 -1547.76416015625 400.9876708984375
v 1201.8106689453125 -1160.089599609375 400.9876708984375
v 1201.8106689453125 -1160.089599609375 40.9876708984375
v 1233.204833984375 -1183.254638671875 40.9876708984375
v 1233.204833984375 -1183.254638671875 400.9876708984375
v 1382.35205078125 -915.4139404296875 400.9876403808594
v 1651.31640625 -550.9044189453125 400.98760986328125
v 1413.74609375 -938.5789794921875 400.9876403808594
v 1682.71044921875 -574.0694580078125 400.98760986328125
v 1382.35205078125 -915.4139404296875 40.98765563964844
v 1413.74609375 -938.5789794921875 40.9876594543457
v 1651.31640625 -550.9044799804688 40.98763656616211
v 1682.71044921875 -574.0695190429688 40.98764419555664
v 1382.35205078125 -915.4139404296875 400.9876403808594
v 1413.74609375 -938.5789794921875 40.9876594543457
v 1382.35205078125 -915.4139404296875 40.98765563964844
v 1413.74609375 -938.5789794921875 400.9876403808594
v 1651.31640625 -550.9044189453125 400.98760986328125
v 1651.31640625 -550.9044799804688 40.98763656616211
v 1682.71044921875 -574.0695190429688 40.98764419555664
v 1682.71044921875 -574.0694580078125 400.98760986328125
v 1845.705078125 -287.4624328613281 400.9875793457031
v 2114.66943359375 77.04714965820312 400.9875793457031
v 1877.0989990234375 -310.6274719238281 400.9875793457031
v 2146.0634765625 53.88214111328125 400.9875793457031
v 1845.705078125 -287.46246337890625 40.98762130737305
v 1877.0989990234375 -310.62750244140625 40.98762512207031
v 2114.66943359375 77.04711151123047 40.98760223388672
v 2146.0634765625 53.882110595703125 40.987606048583984
v 1845.705078125 -287.4624328613281 400.9875793457031
v 1877.0989990234375 -310.62750244140625 40.98762512207031
v 1845.705078125 -287.46246337890625 40.98762130737305
v 1877.0989990234375 -310.6274719238281 400.9875793457031
v 2114.66943359375 77.04714965820312 400.9875793457031
v 2114.66943359375 77.04711151123047 40.98760223388672
v 2146.0634765625 53.882110595703125 40.987606048583984
v 2146.0634765625 53.88214111328125 400.9875793457031
v 2206.462646484375 219.95196533203125 500.0003662109375
v 2246.715087890625 190.2892608642578 5009.9990234375
v 2206.46240234375 219.95236206054688 5009.99951171875
v 66.087890625 1799.3096923828125 499.99993896484375
v -43.256591796875 1880.0103759765625 499.999755859375
v 66.087646484375 1799.3101806640625 5010.0
v -43.2568359375 1880.0108642578125 5010.0
v -122.16162109375 1773.0736083984375 861.1067504882812
v -122.161865234375 1773.0738525390625 4461.10693359375
v -478.4013671875 1290.2762451171875 4461.10693359375
v -43.2568359375 1880.0108642578125 5010.0
v -552.430419921875 1189.947265625 5010.0
v -478.401123046875 1290.2760009765625 861.1067504882812
v -552.43017578125 1189.947021484375 499.9997863769531
v -252.79638671875 968.8533325195312 499.99981689453125
v -552.430419921875 1189.947265625 5009.9990234375
v -252.796630859375 968.8536987304688 5009.9990234375
v -1183.637451171875 -208.44183349609375 499.9998779296875
v -335.22119140625 864.605224609375 861.1068115234375
v -335.221435546875 864.6055297851562 4461.10693359375
v -1079.482666015625 -76.71014404296875 4461.10693359375
v -252.796630859375 968.8536376953125 5010.0
v -1183.6376953125 -208.44143676757812 5010.0
v -1079.482421875 -76.71047973632812 861.1068725585938
v -1183.637451171875 -208.44180297851562 499.9998779296875
v -1443.04296875 -17.0355224609375 499.9998779296875
v -1183.6376953125 -208.44140625 5010.0
v -1443.043212890625 -17.035125732421875 5010.0
v -1443.04296875 -17.035491943359375 499.9998779296875
v -1519.067138671875 -120.06661987304688 900.0574340820312
v -1519.0673828125 -120.06631469726562 4500.0576171875
v -1875.310546875 -602.861328125 4500.0576171875
v -1443.043212890625 -17.03509521484375 5010.0
v -1939.70458984375 -690.1307373046875 5010.0
v -1875.310546875 -602.8616333007812 900.0574951171875
v -1778.77294921875 -808.8812255859375 499.9999084472656
v -1939.70458984375 -690.130859375 5009.9990234375
v -1778.773193359375 -808.880859375 5009.9990234375
v 2246.715087890625 190.28866577148438 500.0
v 350.2674560546875 -2379.840087890625 5010.0
v 2246.71484375 190.2890625 5010.0
v -325.99951171875 1026.7320556640625 2487.4013671875
v -1299.026611328125 -117.20782470703125 2487.399658203125
v -368.185791015625 1060.087158203125 2487.39990234375
v -1256.84033203125 -150.56298828125 2487.401123046875
v -1355.819580078125 -72.30398559570312 2494.999755859375
v -424.978759765625 1104.9910888671875 2495.0
v -1355.819580078125 -72.30398559570312 2504.199462890625
v -424.978759765625 1104.9910888671875 2504.19970703125
v -1297.4580078125 -118.44818115234375 2513.799560546875
v -366.6171875 1058.846923828125 2513.7998046875
v -1257.138671875 -150.3270263671875 2513.799560546875
v -326.2978515625 1026.968017578125 2513.7998046875
v -1198.77685546875 -196.47140502929688 2504.199462890625
v -267.936279296875 980.8236083984375 2504.19970703125
v -1198.77685546875 -196.47140502929688 2494.999755859375
v -267.936279296875 980.8236083984375 2495.0
v -1256.8251953125 -150.57510375976562 2487.399658203125
v -325.984130859375 1026.719970703125 2487.39990234375
v 425.3580322265625 -2435.248046875 2487.401611328125
v 2365.079833984375 102.95008087158203 2487.39990234375
v 468.63232421875 -2467.179443359375 2487.400146484375
v 2321.8056640625 134.8813018798828 2487.4013671875
v 2423.337158203125 59.96321105957031 2495.0
v 526.8896484375 -2510.166259765625 2495.000244140625
v 2423.337158203125 59.96321105957031 2504.19970703125
v 526.8896484375 -2510.166259765625 2504.199951171875
v 2363.470703125 104.13749694824219 2513.7998046875
v 467.0230712890625 -2465.991943359375 2513.800048828125
v 2322.11181640625 134.6553955078125 2513.7998046875
v 425.6640625 -2435.47412109375 2513.800048828125
v 2262.2451171875 178.82984924316406 2504.19970703125
v 365.79736328125 -2391.299560546875 2504.199951171875
v 2262.2451171875 178.82984924316406 2495.0
v 365.79736328125 -2391.299560546875 2495.000244140625
v 2321.7900390625 134.89288330078125 2487.39990234375
v 425.34228515625 -2435.236328125 2487.400146484375
v -325.99951171875 1026.7320556640625 2487.4013671875
v -368.185791015625 1060.087158203125 2487.39990234375
v -267.936279296875 980.8236083984375 2495.0
v -1198.77685546875 -196.47140502929688 2494.999755859375
v -1299.026611328125 -117.20782470703125 2487.399658203125
v -1256.84033203125 -150.56298828125 2487.401123046875
v 425.3580322265625 -2435.248046875 2487.401611328125
v 468.63232421875 -2467.179443359375 2487.400146484375
v 365.79736328125 -2391.299560546875 2495.000244140625
v 2262.2451171875 178.82984924316406 2495.0
v 2365.079833984375 102.95008087158203 2487.39990234375
v 2321.8056640625 134.8813018798828 2487.4013671875
v -325.99951171875 1026.732177734375 3707.4013671875
v -1299.02685546875 -117.20770263671875 3707.3994140625
v -368.185791015625 1060.0872802734375 3707.399658203125
v -1256.840576171875 -150.5628662109375 3707.401123046875
v -1355.81982421875 -72.30386352539062 3714.99951171875
v -424.978759765625 1104.9912109375 3714.999755859375
v -1355.81982421875 -72.30386352539062 3724.199462890625
v -424.978759765625 1104.9912109375 3724.19970703125
v -1297.458251953125 -118.44805908203125 3733.799560546875
v -366.6171875 1058.846923828125 3733.7998046875
v -1257.138916015625 -150.326904296875 3733.799560546875
v -326.2978515625 1026.968017578125 3733.7998046875
v -1198.777099609375 -196.47128295898438 3724.199462890625
v -267.936279296875 980.8236694335938 3724.19970703125
v -1198.777099609375 -196.47128295898438 3714.99951171875
v -267.936279296875 980.8236694335938 3714.999755859375
v -1256.825439453125 -150.57498168945312 3707.3994140625
v -325.984130859375 1026.719970703125 3707.399658203125
v 425.3580322265625 -2435.248046875 3707.401611328125
v 2365.079833984375 102.95018005371094 3707.399658203125
v 468.63232421875 -2467.179443359375 3707.39990234375
v 2321.8056640625 134.88140869140625 3707.4013671875
v 2423.337158203125 59.96331787109375 3714.999755859375
v 526.8896484375 -2510.166259765625 3715.0
v 2423.337158203125 59.96331787109375 3724.19970703125
v 526.8896484375 -2510.166259765625 3724.199951171875
v 2363.470703125 104.13760375976562 3733.7998046875
v 467.0230712890625 -2465.991943359375 3733.800048828125
v 2322.11181640625 134.65550231933594 3733.7998046875
v 425.6640625 -2435.47412109375 3733.800048828125
v 2262.2451171875 178.8299560546875 3724.19970703125
v 365.79736328125 -2391.299560546875 3724.199951171875
v 2262.2451171875 178.8299560546875 3714.999755859375
v 365.79736328125 -2391.299560546875 3715.0
v 2321.789794921875 134.8929901123047 3707.399658203125
v 425.34228515625 -2435.236328125 3707.39990234375
v -325.99951171875 1026.732177734375 3707.4013671875
v -368.185791015625 1060.0872802734375 3707.399658203125
v -267.936279296875 980.8236694335938 3714.999755859375
v -1198.777099609375 -196.47128295898438 3714.99951171875
v -1299.02685546875 -117.20770263671875 3707.3994140625
v -1256.840576171875 -150.5628662109375 3707.401123046875
v 425.3580322265625 -2435.248046875 3707.401611328125
v 468.63232421875 -2467.179443359375 3707.39990234375
v 365.79736328125 -2391.299560546875 3715.0
v 2262.2451171875 178.8299560546875 3714.999755859375
v 2365.079833984375 102.95018005371094 3707.399658203125
v 2321.8056640625 134.88140869140625 3707.4013671875
v -325.99951171875 1026.732177734375 4997.4013671875
v -1299.02685546875 -117.20761108398438 4997.39990234375
v -368.185791015625 1060.08740234375 4997.39990234375
v -1256.840576171875 -150.56277465820312 4997.4013671875
v -1355.81982421875 -72.30377197265625 5005.0
v -424.978759765625 1104.9912109375 5005.0
v -1355.81982421875 -72.30377197265625 5014.19970703125
v -424.978759765625 1104.9912109375 5014.19970703125
v -1297.458251953125 -118.44796752929688 5023.7998046875
v -366.6171875 1058.8470458984375 5023.7998046875
v -1257.138916015625 -150.32681274414062 5023.7998046875
v -326.2978515625 1026.96826171875 5023.7998046875
v -1198.777099609375 -196.47119140625 5014.19970703125
v -267.936279296875 980.8237915039062 5014.19970703125
v -1198.777099609375 -196.47119140625 5005.0
v -267.936279296875 980.8237915039062 5005.0
v -1256.825439453125 -150.57489013671875 4997.39990234375
v -325.984130859375 1026.72021484375 4997.39990234375
v 425.35791015625 -2435.247802734375 4997.4013671875
v 2365.079833984375 102.9502944946289 4997.39990234375
v 468.6322021484375 -2467.17919921875 4997.39990234375
v 2321.805419921875 134.88153076171875 4997.4013671875
v 2423.3369140625 59.96343994140625 5005.0
v 526.8895263671875 -2510.166015625 5005.0
v 2423.3369140625 59.96343994140625 5014.19970703125
v 526.8895263671875 -2510.166015625 5014.19970703125
v 2363.470703125 104.1377182006836 5023.7998046875
v 467.02294921875 -2465.99169921875 5023.7998046875
v 2322.11181640625 134.65560913085938 5023.7998046875
v 425.6639404296875 -2435.473876953125 5023.7998046875
v 2262.2451171875 178.83006286621094 5014.19970703125
v 365.7972412109375 -2391.29931640625 5014.19970703125
v 2262.2451171875 178.83006286621094 5005.0
v 365.7972412109375 -2391.29931640625 5005.0
v 2321.789794921875 134.89309692382812 4997.39990234375
v 425.3421630859375 -2435.236083984375 4997.39990234375
v -325.99951171875 1026.732177734375 4997.4013671875
v -368.185791015625 1060.08740234375 4997.39990234375
v -267.936279296875 980.8237915039062 5005.0
v -1198.777099609375 -196.47119140625 5005.0
v -1299.02685546875 -117.20761108398438 4997.39990234375
v -1256.840576171875 -150.56277465820312 4997.4013671875
v 425.35791015625 -2435.247802734375 4997.4013671875
v 468.6322021484375 -2467.17919921875 4997.39990234375
v 365.7972412109375 -2391.29931640625 5005.0
v 2262.2451171875 178.83006286621094 5005.0
v 2365.079833984375 102.9502944946289 4997.39990234375
v 2321.805419921875 134.88153076171875 4997.4013671875
v -325.999267578125 1026.73193359375 1317.401123046875
v -1299.026611328125 -117.20791625976562 1317.3997802734375
v -368.185546875 1060.087158203125 1317.399658203125
v -1256.84033203125 -150.56307983398438 1317.4012451171875
v -1355.819580078125 -72.3040771484375 1324.999755859375
v -424.978515625 1104.990966796875 1324.9996337890625
v -1355.819580078125 -72.3040771484375 1334.1998291015625
v -424.978515625 1104.990966796875 1334.19970703125
v -1297.4580078125 -118.44827270507812 1343.7998046875
v -366.616943359375 1058.8466796875 1343.7996826171875
v -1257.138671875 -150.32711791992188 1343.7998046875
v -326.297607421875 1026.9678955078125 1343.7996826171875
v -1198.77685546875 -196.47149658203125 1334.1998291015625
v -267.93603515625 980.823486328125 1334.19970703125
v -1198.77685546875 -196.47149658203125 1324.999755859375
v -267.93603515625 980.823486328125 1324.9996337890625
v -1256.8251953125 -150.5751953125 1317.3997802734375
v -325.98388671875 1026.7198486328125 1317.399658203125
v 425.3580322265625 -2435.248291015625 1317.4014892578125
v 2365.080078125 102.9499740600586 1317.39990234375
v 468.63232421875 -2467.1796875 1317.4000244140625
v 2321.8056640625 134.88119506835938 1317.4013671875
v 2423.337158203125 59.96311950683594 1324.9998779296875
v 526.8896484375 -2510.16650390625 1325.0
v 2423.337158203125 59.96311950683594 1334.199951171875
v 526.8896484375 -2510.16650390625 1334.2000732421875
v 2363.470703125 104.13739013671875 1343.7999267578125
v 467.0230712890625 -2465.9921875 1343.800048828125
v 2322.11181640625 134.65528869628906 1343.7999267578125
v 425.6640625 -2435.474365234375 1343.800048828125
v 2262.2451171875 178.82974243164062 1334.199951171875
v 365.79736328125 -2391.2998046875 1334.2000732421875
v 2262.2451171875 178.82974243164062 1324.9998779296875
v 365.79736328125 -2391.2998046875 1325.0
v 2321.7900390625 134.8927764892578 1317.39990234375
v 425.34228515625 -2435.236572265625 1317.4000244140625
v -325.999267578125 1026.73193359375 1317.401123046875
v -368.185546875 1060.087158203125 1317.399658203125
v -267.93603515625 980.823486328125 1324.9996337890625
v -1198.77685546875 -196.47149658203125 1324.999755859375
v -1299.026611328125 -117.20791625976562 1317.3997802734375
v -1256.84033203125 -150.56307983398438 1317.4012451171875
v 425.3580322265625 -2435.248291015625 1317.4014892578125
v 468.63232421875 -2467.1796875 1317.4000244140625
v 365.79736328125 -2391.2998046875 1325.0
v 2262.2451171875 178.82974243164062 1324.9998779296875
v 2365.080078125 102.9499740600586 1317.39990234375
v 2321.8056640625 134.88119506835938 1317.4013671875
v -74.90283203125 1738.203125 4461.10693359375
v -431.142333984375 1255.405517578125 4461.10693359375
v -122.161865234375 1773.0738525390625 4461.10693359375
v -478.4013671875 1290.2762451171875 4461.10693359375
v -74.902587890625 1738.202880859375 861.1067504882812
v -122.16162109375 1773.0736083984375 861.1067504882812
v -431.14208984375 1255.4052734375 861.1067504882812
v -478.401123046875 1290.2760009765625 861.1067504882812
v -74.90283203125 1738.203125 4461.10693359375
v -122.16162109375 1773.0736083984375 861.1067504882812
v -74.902587890625 1738.202880859375 861.1067504882812
v -122.161865234375 1773.0738525390625 4461.10693359375
v -431.142333984375 1255.405517578125 4461.10693359375
v -431.14208984375 1255.4052734375 861.1067504882812
v -478.401123046875 1290.2760009765625 861.1067504882812
v -478.4013671875 1290.2762451171875 4461.10693359375
v -289.15087890625 828.1792602539062 4461.10693359375
v -1033.412353515625 -113.13638305664062 4461.10693359375
v -335.221435546875 864.6055297851562 4461.10693359375
v -1079.482666015625 -76.71014404296875 4461.10693359375
v -289.150634765625 828.178955078125 861.1068115234375
v -335.22119140625 864.605224609375 861.1068115234375
v -1033.412109375 -113.13671875 861.1068725585938
v -1079.482421875 -76.71047973632812 861.1068725585938
v -289.15087890625 828.1792602539062 4461.10693359375
v -335.22119140625 864.605224609375 861.1068115234375
v -289.150634765625 828.178955078125 861.1068115234375
v -335.221435546875 864.6055297851562 4461.10693359375
v -1033.412353515625 -113.13638305664062 4461.10693359375
v -1033.412109375 -113.13671875 861.1068725585938
v -1079.482421875 -76.71047973632812 861.1068725585938
v -1079.482666015625 -76.71014404296875 4461.10693359375
v -1471.80859375 -154.93740844726562 4500.0576171875
v -1828.0517578125 -637.732421875 4500.0576171875
v -1519.0673828125 -120.06631469726562 4500.0576171875
v -1875.310546875 -602.861328125 4500.0576171875
v -1471.808349609375 -154.93771362304688 900.0574340820312
v -1519.067138671875 -120.06661987304688 900.0574340820312
v -1828.051513671875 -637.7327270507812 900.0574951171875
v -1875.310546875 -602.8616333007812 900.0574951171875
v -1471.80859375 -154.93740844726562 4500.0576171875
v -1519.067138671875 -120.06661987304688 900.0574340820312
v -1471.808349609375 -154.93771362304688 900.0574340820312
v -1519.0673828125 -120.06631469726562 4500.0576171875
v -1828.0517578125 -637.732421875 4500.0576171875
v -1828.051513671875 -637.7327270507812 900.0574951171875
v -1875.310546875 -602.8616333007812 900.0574951171875
v -1875.310546875 -602.861328125 4500.0576171875
v 2246.715087890625 190.2892608642578 5010.0
v 2206.46240234375 219.95236206054688 5010.0
v 350.2674560546875 -2379.840087890625 5010.0
v 66.087646484375 1799.3101806640625 5010.0
v -43.2568359375 1880.0108642578125 5010.0
v -252.796630859375 968.8536376953125 5010.0
v -1183.6376953125 -208.44140625 5010.0
v -1443.043212890625 -17.03509521484375 5010.0
v -1778.773193359375 -808.880859375 5010.0
v -552.430419921875 1189.947265625 5010.0
v -1939.70458984375 -690.130859375 5010.0
v 242.3878173828125 1054.168212890625 757.924560546875
v -743.21337890625 1510.5733642578125 757.9244384765625
v -482.013916015625 1588.238037109375 757.9244384765625
v -1063.837646484375 -716.0833129882812 757.9246215820312
v -1230.385009765625 1166.13720703125 757.9244995117188
v -1605.646728515625 657.567626953125 757.9244384765625
v -1788.239501953125 -182.0135498046875 757.924560546875
v -1791.070068359375 90.475341796875 757.9244995117188
v 2726.40869140625 1114.569091796875 4897.85205078125
v -110.016845703125 -2698.992919921875 4897.85205078125
v 577.3424072265625 2698.992919921875 4897.853515625
v -2242.98779296875 -1126.41015625 4897.8525390625
v 242.3878173828125 1054.168212890625 757.924560546875
v -482.013916015625 1588.238037109375 757.9244384765625
v 242.3878173828125 1054.168212890625 812.924560546875
v -482.013916015625 1588.238037109375 812.9244384765625
v -482.013916015625 1588.238037109375 757.9244384765625
v -743.21337890625 1510.5733642578125 757.9243774414062
v -482.013916015625 1588.238037109375 812.9244384765625
v -743.21337890625 1510.5733642578125 812.92431640625
v -1230.385009765625 1166.1373291015625 757.9244384765625
v -1230.385009765625 1166.1373291015625 812.9243774414062
v -1605.646728515625 657.5676879882812 757.9243774414062
v -1605.646728515625 657.5676879882812 812.92431640625
v -1791.070068359375 90.475341796875 757.9244384765625
v -1791.070068359375 90.475341796875 812.9243774414062
v -1788.239501953125 -182.0135498046875 757.924560546875
v -1788.239501953125 -182.0135498046875 812.924560546875
v -1788.239501953125 -182.0135498046875 757.924560546875
v -1063.837646484375 -716.0833129882812 757.9246215820312
v -1788.239501953125 -182.0135498046875 812.924560546875
v -1063.837646484375 -716.0833129882812 812.9246215820312
v 257.6387939453125 1074.854248046875 806.7245483398438
v -481.956298828125 1588.56787109375 806.7244262695312
v 242.5655517578125 1054.409423828125 806.7245483398438
v -477.0673828125 1616.5211181640625 806.7244262695312
v 301.7886962890625 1134.73828125 797.924560546875
v -462.747802734375 1698.397705078125 797.9244384765625
v 301.7886962890625 1134.73828125 788.7245483398438
v -462.747802734375 1698.397705078125 788.7244262695312
v 257.4013671875 1074.5322265625 780.3245239257812
v -477.14453125 1616.0809326171875 780.3244018554688
v 242.7080078125 1054.6025390625 780.3245239257812
v -477.140625 1616.102294921875 780.325927734375
v 257.4129638671875 1074.548095703125 780.3260498046875
v -481.91015625 1588.831787109375 780.3244018554688
v -477.0673828125 1616.5211181640625 806.7244262695312
v -743.34619140625 1510.8465576171875 806.7244262695312
v -481.956298828125 1588.56787109375 806.7244262695312
v -754.5947265625 1534.0015869140625 806.7244262695312
v -462.747802734375 1698.397705078125 797.9244384765625
v -787.542236328125 1601.8240966796875 797.9243774414062
v -462.747802734375 1698.397705078125 788.7244262695312
v -787.542236328125 1601.8240966796875 788.724365234375
v -477.14453125 1616.0809326171875 780.3244018554688
v -754.417724609375 1533.636962890625 780.3243408203125
v -754.42626953125 1533.65478515625 780.3258666992188
v -743.452392578125 1511.0654296875 780.3243408203125
v -1230.597900390625 1166.35400390625 806.724365234375
v -1248.605224609375 1184.73046875 806.7243041992188
v -1301.349853515625 1238.5560302734375 797.92431640625
v -1301.349853515625 1238.5560302734375 788.7243041992188
v -1248.32177734375 1184.44091796875 780.3243408203125
v -1248.33544921875 1184.455078125 780.3258056640625
v -1230.76806640625 1166.527587890625 780.3244018554688
v -1605.916748046875 657.7066650390625 806.7243041992188
v -1628.78662109375 669.4929809570312 806.7243041992188
v -1695.775146484375 704.0155029296875 797.9243774414062
v -1695.775146484375 704.0155029296875 788.724365234375
v -1628.426513671875 669.307373046875 780.3243408203125
v -1628.444091796875 669.31640625 780.3258056640625
v -1606.1328125 657.818115234375 780.3243408203125
v -1791.3701171875 90.52159881591797 806.7244873046875
v -1816.81298828125 94.44015502929688 806.7244873046875
v -1891.3359375 105.91770935058594 797.9244384765625
v -1891.3359375 105.91770935058594 788.7244262695312
v -1816.412109375 94.37844848632812 780.3244018554688
v -1816.431640625 94.38140869140625 780.325927734375
v -1791.610595703125 90.55860137939453 780.3244018554688
v -1788.537841796875 -182.16604614257812 806.7245483398438
v -1813.80517578125 -195.09490966796875 806.7245483398438
v -1887.81591796875 -232.96417236328125 797.924560546875
v -1887.81591796875 -232.96417236328125 788.7245483398438
v -1813.4072265625 -194.89129638671875 780.3245239257812
v -1813.4267578125 -194.90130615234375 780.3260498046875
v -1788.776123046875 -182.2882080078125 780.3245239257812
v -1813.80517578125 -195.09490966796875 806.7245483398438
v -1064.015380859375 -716.3245849609375 806.724609375
v -1788.537841796875 -182.16604614257812 806.7245483398438
v -1079.0888671875 -736.7694702148438 806.724609375
v -1887.81591796875 -232.96417236328125 797.924560546875
v -1123.238525390625 -796.6535034179688 797.9246215820312
v -1887.81591796875 -232.96417236328125 788.7245483398438
v -1123.238525390625 -796.6535034179688 788.724609375
v -1813.4072265625 -194.89129638671875 780.3245239257812
v -1078.85107421875 -736.447509765625 780.3245849609375
v -1078.863037109375 -736.463134765625 780.3261108398438
v -1064.158203125 -716.5176391601562 780.3245849609375
v 257.4013671875 1074.5322265625 780.3245239257812
v 301.7886962890625 1134.73828125 788.7245483398438
v 301.7886962890625 1134.73828125 797.924560546875
v 242.5655517578125 1054.409423828125 806.7245483398438
v 257.6387939453125 1074.854248046875 806.7245483398438
v -1123.238525390625 -796.6535034179688 797.9246215820312
v -1123.238525390625 -796.6535034179688 788.724609375
v -1078.85107421875 -736.447509765625 780.3245849609375
v -1064.015380859375 -716.3245849609375 806.724609375
v -1079.0888671875 -736.7694702148438 806.724609375
v 242.3878173828125 1054.168212890625 812.924560546875
v -482.013916015625 1588.238037109375 812.9244384765625
v -743.21337890625 1510.5733642578125 812.9244384765625
v -1063.837646484375 -716.0833129882812 812.9246215820312
v -1230.385009765625 1166.13720703125 812.9243774414062
v -1605.646728515625 657.567626953125 812.92431640625
v -1788.239501953125 -182.0135498046875 812.924560546875
v -1791.070068359375 90.475341796875 812.9244995117188
v -482.013916015625 1588.238037109375 824.9244384765625
v 242.3878173828125 1054.168212890625 824.924560546875
v 228.4013671875 1052.055908203125 812.924560546875
v 228.4013671875 1052.055908203125 824.924560546875
v -483.938720703125 1577.2330322265625 824.9244384765625
v -483.938720703125 1577.2330322265625 812.9244384765625
v -482.013916015625 1588.238037109375 812.9244384765625
v -743.21337890625 1510.5733642578125 812.9244384765625
v -743.21337890625 1510.5733642578125 824.9244384765625
v -482.013916015625 1588.238037109375 824.9244384765625
v -483.938720703125 1577.2330322265625 812.9244384765625
v -483.938720703125 1577.2330322265625 824.9244384765625
v -738.784912109375 1501.45751953125 824.9244384765625
v -738.784912109375 1501.45751953125 812.9244384765625
v -1230.385009765625 1166.13720703125 812.9243774414062
v -1230.385009765625 1166.13720703125 824.9243774414062
v -1223.2958984375 1158.902587890625 824.9243774414062
v -1223.2958984375 1158.902587890625 812.9243774414062
v -1605.646728515625 657.567626953125 812.92431640625
v -1605.646728515625 657.567626953125 824.92431640625
v -1596.643310546875 652.9276123046875 824.92431640625
v -1596.643310546875 652.9276123046875 812.92431640625
v -1791.070068359375 90.475341796875 812.9244995117188
v -1791.070068359375 90.475341796875 824.9244995117188
v -1781.053466796875 88.9324951171875 824.9244995117188
v -1781.053466796875 88.9324951171875 812.9244995117188
v -1788.239501953125 -182.0135498046875 812.924560546875
v -1788.239501953125 -182.0135498046875 824.924560546875
v -1778.2919921875 -176.92349243164062 824.924560546875
v -1778.2919921875 -176.92349243164062 812.924560546875
v -1063.837646484375 -716.0833129882812 824.9246215820312
v -1788.239501953125 -182.0135498046875 824.924560546875
v -1778.2919921875 -176.92349243164062 812.924560546875
v -1778.2919921875 -176.92349243164062 824.924560546875
v -1065.949462890625 -702.1024780273438 824.9246215820312
v -1065.949462890625 -702.1024780273438 812.9246215820312
v -1063.837646484375 -716.0833129882812 812.9246215820312
v 242.3878173828125 1054.168212890625 812.924560546875
v 242.3878173828125 1054.168212890625 824.924560546875
v -1063.837646484375 -716.0833129882812 824.9246215820312
v -1065.949462890625 -702.1024780273438 812.9246215820312
v -1065.949462890625 -702.1024780273438 824.9246215820312
v 228.4013671875 1052.055908203125 824.924560546875
v 228.4013671875 1052.055908203125 812.924560546875
v 242.3878173828125 1054.168212890625 824.924560546875
v -482.013916015625 1588.238037109375 824.9244384765625
v -483.938720703125 1577.2330322265625 824.9244384765625
v 228.4013671875 1052.055908203125 824.924560546875
v -743.21337890625 1510.5733642578125 824.9244384765625
v -738.784912109375 1501.45751953125 824.9244384765625
v -1230.385009765625 1166.13720703125 824.9243774414062
v -1223.2958984375 1158.902587890625 824.9243774414062
v -1605.646728515625 657.567626953125 824.92431640625
v -1596.643310546875 652.9276123046875 824.92431640625
v -1791.070068359375 90.475341796875 824.9244995117188
v -1781.053466796875 88.9324951171875 824.9244995117188
v -1788.239501953125 -182.0135498046875 824.924560546875
v -1778.2919921875 -176.92349243164062 824.924560546875
v -1063.837646484375 -716.0833129882812 824.9246215820312
v -1065.949462890625 -702.1024780273438 824.9246215820312
v 577.3424072265625 2698.992919921875 4897.853515625
v -2242.98779296875 -1126.41015625 4897.8525390625
v 577.3424072265625 2698.992919921875 5847.853515625
v -2242.98779296875 -1126.41015625 5847.8525390625
v -110.016845703125 -2698.992919921875 4897.85205078125
v 2726.408935546875 1114.5693359375 4897.85205078125
v -110.01708984375 -2698.992919921875 5847.85205078125
v 2726.40869140625 1114.5694580078125 5847.85205078125
v 2726.40869140625 1114.569091796875 5847.85205078125
v 577.3424072265625 2698.992919921875 5847.853515625
v -110.01708984375 -2698.992919921875 5847.85205078125
v -2242.98779296875 -1126.41015625 5847.8525390625
v -2342.17041015625 -804.6082763671875 6116.6826171875
v 108.4580078125 2519.342041015625 6116.6806640625
v -2301.9296875 -834.28369140625 6116.6826171875
v 148.70458984375 2489.666748046875 6116.6806640625
v -2654.37109375 -959.7720947265625 4599.67333984375
v -78.931884765625 2533.465576171875 4599.6728515625
v -1958.14306640625 -1473.0777587890625 4599.6748046875
v 617.296142578125 2020.15966796875 4599.6748046875
v 2235.411376953125 1476.544189453125 5847.8505859375
v -584.925537109375 -2348.87109375 5847.85205078125
v 995.8848876953125 2390.411376953125 5847.85302734375
v -1824.44580078125 -1434.9915771484375 5847.85205078125
v -410.938720703125 -2337.554931640625 5849.67138671875
v -1876.65478515625 -1256.8909912109375 5847.8505859375
v -1864.7958984375 -1240.8021240234375 5847.85205078125
v -399.0673828125 -2321.453857421875 5849.67236328125
v -173.5546875 -2015.570068359375 5849.67138671875
v -1639.283447265625 -934.9427490234375 5847.85205078125
v -1627.418212890625 -918.8416748046875 5847.8505859375
v -161.689453125 -1999.468994140625 5849.67041015625
v 301.182861328125 -1371.6492919921875 5849.66943359375
v -1164.552001953125 -291.0340576171875 5847.8505859375
v -1152.6806640625 -274.9330749511719 5847.85205078125
v 313.0419921875 -1355.5482177734375 5849.669921875
v 63.817138671875 -1693.6097412109375 5849.67236328125
v -1401.917724609375 -612.9823608398438 5847.8505859375
v -1390.04638671875 -596.8934936523438 5847.8505859375
v 75.682373046875 -1677.5086669921875 5849.66943359375
v 775.92041015625 -727.7405395507812 5849.67041015625
v -689.814453125 352.88690185546875 5847.85205078125
v -677.943115234375 368.9879150390625 5847.8515625
v 787.78564453125 -711.6394653320312 5849.66943359375
v 538.548583984375 -1049.6888427734375 5849.67138671875
v -927.186279296875 30.926406860351562 5847.8515625
v -915.31494140625 47.02748107910156 5847.8515625
v 550.419921875 -1033.5999755859375 5849.67138671875
v 1013.212890625 -405.87774658203125 5849.66943359375
v -452.515869140625 674.7496337890625 5847.85009765625
v -440.650634765625 690.8507080078125 5847.84912109375
v 1025.078125 -389.77667236328125 5849.6689453125
v 1487.950439453125 238.04319763183594 5849.66796875
v 22.215576171875 1318.6705322265625 5847.85107421875
v 34.0869140625 1334.7593994140625 5847.85205078125
v 1499.8095703125 254.14427185058594 5849.669921875
v 1250.584716796875 -83.917236328125 5849.67236328125
v -215.150146484375 996.7100830078125 5847.84912109375
v -203.27880859375 1012.7989501953125 5847.84912109375
v 1262.449951171875 -67.828369140625 5849.66796875
v 1725.316162109375 560.003662109375 5849.66943359375
v 259.5811767578125 1640.6187744140625 5847.85009765625
v 271.4525146484375 1656.7198486328125 5847.85009765625
v 1737.1875 576.092529296875 5849.66943359375
v 108.4580078125 2519.342041015625 6116.6806640625
v -2342.17041015625 -804.608642578125 6116.6826171875
v 108.4580078125 2519.342041015625 6126.68017578125
v -2342.17041015625 -804.608642578125 6126.68212890625
v -2342.17041015625 -804.6082763671875 6116.6826171875
v -2301.9296875 -834.28369140625 6116.6826171875
v -2342.17041015625 -804.6082763671875 6126.68212890625
v -2301.9296875 -834.28369140625 6126.68212890625
v -2301.9296875 -834.28369140625 6116.6826171875
v 148.7041015625 2489.666259765625 6116.6806640625
v -2301.9296875 -834.28369140625 6126.68212890625
v 148.7041015625 2489.666259765625 6126.68017578125
v 148.70458984375 2489.666748046875 6116.6806640625
v 108.4580078125 2519.342041015625 6116.6806640625
v 148.70458984375 2489.666748046875 6126.68017578125
v 108.4580078125 2519.342041015625 6126.68017578125
v 210.744140625 2443.930419921875 6105.2822265625
v -2444.47216796875 -729.184814453125 6105.28271484375
v 6.156005859375 2594.765625 6105.28076171875
v -2239.88427734375 -880.02001953125 6105.28369140625
v -2503.39013671875 -685.7465209960938 6122.88232421875
v -52.76220703125 2638.203857421875 6122.88037109375
v -2503.39013671875 -685.7465209960938 6132.08251953125
v -52.76220703125 2638.203857421875 6132.08056640625
v -2443.505859375 -729.8966674804688 6147.2822265625
v 7.121826171875 2594.053466796875 6147.2802734375
v -2240.83447265625 -879.320068359375 6147.2822265625
v 209.794189453125 2444.630615234375 6147.2802734375
v -2180.9501953125 -923.47021484375 6132.08251953125
v 269.6783447265625 2400.480224609375 6132.08056640625
v -2180.9501953125 -923.47021484375 6122.88232421875
v 269.6783447265625 2400.480224609375 6122.88037109375
v -2239.8681640625 -880.0318603515625 6105.28271484375
v 210.7601318359375 2443.91845703125 6105.28076171875
v 210.744140625 2443.930419921875 6105.2822265625
v 6.156005859375 2594.765625 6105.28076171875
v 269.6783447265625 2400.480224609375 6122.88037109375
v -2180.9501953125 -923.47021484375 6122.88232421875
v -2444.47216796875 -729.184814453125 6105.28271484375
v -2239.88427734375 -880.02001953125 6105.28369140625
v -2342.17041015625 -804.6082763671875 6126.68212890625
v -2301.9296875 -834.28369140625 6126.68212890625
v 108.4580078125 2519.342041015625 6126.68017578125
v 148.70458984375 2489.666748046875 6126.68017578125
v -78.931884765625 2533.465576171875 4599.6728515625
v -2654.37109375 -959.7720947265625 4599.67333984375
v -106.730224609375 2495.760498046875 4658.9296875
v -106.730224609375 2495.760498046875 4938.9296875
v -2587.22265625 -868.694580078125 4938.9296875
v -78.931884765625 2533.465576171875 5009.6728515625
v -2654.37109375 -959.77197265625 5009.67333984375
v -2587.22265625 -868.6947021484375 4658.9296875
v -49.408203125 2511.698974609375 4997.07470703125
v -2668.13427734375 -949.6248779296875 4997.0732421875
v -92.6953125 2543.61279296875 4997.07275390625
v -2624.84765625 -981.53857421875 4997.07470703125
v -2726.40869140625 -906.6611328125 5004.67333984375
v -150.969482421875 2586.576416015625 5004.6728515625
v -2726.40869140625 -906.6611328125 5013.873046875
v -150.969482421875 2586.576416015625 5013.873046875
v -2666.52490234375 -950.8116455078125 5023.47314453125
v -91.08544921875 2542.426025390625 5023.47314453125
v -2625.15380859375 -981.312744140625 5023.47314453125
v -49.714599609375 2511.924560546875 5023.47314453125
v -2565.26953125 -1025.46337890625 5013.873046875
v 10.169921875 2467.77392578125 5013.873046875
v -2565.26953125 -1025.46337890625 5004.67333984375
v 10.169921875 2467.77392578125 5004.6728515625
v -2624.83154296875 -981.5504150390625 4997.0732421875
v -49.392578125 2511.687255859375 4997.07275390625
v -49.408203125 2511.698974609375 4997.07470703125
v -92.6953125 2543.61279296875 4997.07275390625
v 10.169921875 2467.77392578125 5004.6728515625
v -2565.26953125 -1025.46337890625 5004.67333984375
v -2668.13427734375 -949.6248779296875 4997.0732421875
v -2624.84765625 -981.53857421875 4997.07470703125
v -49.408203125 2511.698974609375 4587.07470703125
v -2668.13427734375 -949.625 4587.07373046875
v -92.6953125 2543.61279296875 4587.0732421875
v -2624.84765625 -981.5386962890625 4587.0751953125
v -2726.40869140625 -906.6612548828125 4594.67333984375
v -150.969482421875 2586.576416015625 4594.67333984375
v -2726.40869140625 -906.6612548828125 4603.87353515625
v -150.969482421875 2586.576416015625 4603.873046875
v -2666.52490234375 -950.811767578125 4613.4736328125
v -91.08544921875 2542.426025390625 4613.47314453125
v -2625.15380859375 -981.3128662109375 4613.4736328125
v -49.714599609375 2511.924560546875 4613.47314453125
v -2565.26953125 -1025.4635009765625 4603.87353515625
v 10.169921875 2467.77392578125 4603.873046875
v -2565.26953125 -1025.4635009765625 4594.67333984375
v 10.169921875 2467.77392578125 4594.67333984375
v -2624.83154296875 -981.550537109375 4587.07373046875
v -49.392578125 2511.687255859375 4587.0732421875
v -49.408203125 2511.698974609375 4587.07470703125
v -92.6953125 2543.61279296875 4587.0732421875
v 10.169921875 2467.77392578125 4594.67333984375
v -2565.26953125 -1025.4635009765625 4594.67333984375
v -2668.13427734375 -949.625 4587.07373046875
v -2624.84765625 -981.5386962890625 4587.0751953125
v -74.53466796875 2472.023681640625 4938.9296875
v -2555.02685546875 -892.4312744140625 4938.9296875
v -106.730224609375 2495.760498046875 4938.9296875
v -2587.22265625 -868.694580078125 4938.9296875
v -74.53466796875 2472.023681640625 4658.9296875
v -106.730224609375 2495.760498046875 4658.9296875
v -2555.02685546875 -892.431396484375 4658.9296875
v -2587.22265625 -868.6947021484375 4658.9296875
v -74.53466796875 2472.023681640625 4938.9296875
v -106.730224609375 2495.760498046875 4658.9296875
v -74.53466796875 2472.023681640625 4658.9296875
v -106.730224609375 2495.760498046875 4938.9296875
v -2555.02685546875 -892.4312744140625 4938.9296875
v -2555.02685546875 -892.431396484375 4658.9296875
v -2587.22265625 -868.6947021484375 4658.9296875
v -2587.22265625 -868.694580078125 4938.9296875
v -2654.37109375 -959.77197265625 5009.67333984375
v -1958.14306640625 -1473.07763671875 5009.67431640625
v -78.931884765625 2533.465576171875 5009.6728515625
v 617.296142578125 2020.1597900390625 5009.6748046875
v -1166.6455078125 788.4703979492188 5999.6748046875
v -418.958740234375 1802.6549072265625 5009.67578125
v -1158.61328125 782.5499877929688 5999.6748046875
v -410.908203125 1796.7222900390625 5009.67578125
v -1378.18115234375 484.7471008300781 5009.6748046875
v -1502.796630859375 315.7163391113281 5009.6748046875
v -1386.2255859375 490.6797180175781 5009.67578125
v -1510.841064453125 321.6489562988281 5009.6748046875
v -1166.6455078125 788.4702758789062 5009.67529296875
v -418.958740234375 1802.6549072265625 5999.67578125
v -1158.61328125 782.5498657226562 5009.67431640625
v -410.908203125 1796.7222900390625 5999.67529296875
v -1944.03173828125 -265.9365234375 5009.67529296875
v -1220.07568359375 716.0460815429688 5999.6728515625
v -1935.99951171875 -271.85693359375 5009.67333984375
v -1212.03125 710.1134643554688 5999.67333984375
v -1944.03173828125 -265.9364318847656 5999.6748046875
v -1220.07568359375 716.0459594726562 5009.67236328125
v -1935.99951171875 -271.8568420410156 5999.67333984375
v -1212.03125 710.1133422851562 5009.673828125
v -1166.6455078125 788.4703979492188 5999.6748046875
v -418.958740234375 1802.6549072265625 5049.67578125
v -418.958740234375 1802.6549072265625 5009.67578125
v -1166.6455078125 788.4703979492188 6039.67431640625
v -1166.6455078125 788.4703979492188 5999.6748046875
v -1158.61328125 782.5499877929688 5999.6748046875
v -1166.6455078125 788.4703979492188 6039.67431640625
v -1158.61328125 782.5499877929688 6039.67431640625
v -1158.61328125 782.5499877929688 6039.67431640625
v -1158.61328125 782.5499877929688 5999.6748046875
v -410.908203125 1796.7222900390625 5049.6767578125
v -410.908203125 1796.7222900390625 5009.67626953125
v -410.908203125 1796.7222900390625 5009.67578125
v -418.958740234375 1802.6549072265625 5009.67578125
v -410.908203125 1796.7222900390625 5049.67626953125
v -418.958740234375 1802.6549072265625 5049.67578125
v -1166.6455078125 788.4703979492188 6039.6748046875
v -1158.61328125 782.5499877929688 6039.6748046875
v -418.958740234375 1802.6549072265625 5049.67578125
v -410.908203125 1796.7222900390625 5049.67626953125
v -1378.18115234375 484.7471008300781 5009.6748046875
v -1386.2255859375 490.6797180175781 5009.67578125
v -1378.18115234375 484.7471008300781 5019.6748046875
v -1386.2255859375 490.6797180175781 5019.67578125
v -1386.2255859375 490.6796569824219 5009.67578125
v -1510.841064453125 321.64898681640625 5009.6748046875
v -1386.2255859375 490.6796569824219 5019.67578125
v -1510.841064453125 321.64898681640625 5019.6748046875
v -1510.841064453125 321.64898681640625 5009.6748046875
v -1502.796630859375 315.71630859375 5009.6748046875
v -1510.841064453125 321.64898681640625 5019.6748046875
v -1502.796630859375 315.71630859375 5019.6748046875
v -1502.796630859375 315.71630859375 5009.6748046875
v -1378.18115234375 484.7471008300781 5009.6748046875
v -1502.796630859375 315.71630859375 5019.6748046875
v -1378.18115234375 484.7471008300781 5019.6748046875
v -1378.18115234375 484.7471008300781 5019.6748046875
v -1386.2255859375 490.6796875 5019.67578125
v -1502.796630859375 315.71630859375 5019.6748046875
v -1510.841064453125 321.64898681640625 5019.6748046875
v -418.958740234375 1802.6549072265625 6039.67578125
v -418.958740234375 1802.6549072265625 5999.67578125
v -1166.6455078125 788.4702758789062 5049.6748046875
v -1166.6455078125 788.4702758789062 5009.67529296875
v -1166.6455078125 788.4702758789062 5009.67529296875
v -1158.61328125 782.5498657226562 5009.67431640625
v -1166.6455078125 788.4702758789062 5049.6748046875
v -1158.61328125 782.5498657226562 5049.67431640625
v -410.908203125 1796.7222900390625 5999.6748046875
v -1158.61328125 782.5498657226562 5049.67431640625
v -1158.61328125 782.5498657226562 5009.67431640625
v -410.908203125 1796.7222900390625 6039.67529296875
v -410.908203125 1796.7222900390625 5999.67529296875
v -418.958740234375 1802.6549072265625 5999.67578125
v -410.908203125 1796.7222900390625 6039.67529296875
v -418.958740234375 1802.6549072265625 6039.67578125
v -1166.6455078125 788.4702758789062 5049.67529296875
v -1158.61328125 782.5498657226562 5049.6748046875
v -418.958740234375 1802.6549072265625 6039.67578125
v -410.908203125 1796.7222900390625 6039.67529296875
v -1220.07568359375 716.0460815429688 6039.6728515625
v -1220.07568359375 716.0460815429688 5999.6728515625
v -1944.03173828125 -265.9366149902344 5049.6748046875
v -1944.03173828125 -265.9366149902344 5009.67529296875
v -1944.03173828125 -265.9365234375 5009.67529296875
v -1935.99951171875 -271.85693359375 5009.67333984375
v -1944.03173828125 -265.9365234375 5049.6748046875
v -1935.99951171875 -271.85693359375 5049.67333984375
v -1212.03125 710.1135864257812 5999.67333984375
v -1935.99951171875 -271.85693359375 5049.67333984375
v -1935.99951171875 -271.85693359375 5009.67333984375
v -1212.03125 710.1135864257812 6039.673828125
v -1212.03125 710.1134643554688 5999.67333984375
v -1220.07568359375 716.0460815429688 5999.6728515625
v -1212.03125 710.1134643554688 6039.673828125
v -1220.07568359375 716.0460815429688 6039.6728515625
v -1944.03173828125 -265.9365234375 5049.67529296875
v -1935.99951171875 -271.85693359375 5049.67333984375
v -1220.07568359375 716.0460815429688 6039.6728515625
v -1212.03125 710.1134643554688 6039.673828125
v -1944.03173828125 -265.9365234375 5999.6748046875
v -1220.07568359375 716.0459594726562 5049.6728515625
v -1220.07568359375 716.0459594726562 5009.67236328125
v -1944.03173828125 -265.9365234375 6039.67431640625
v -1944.03173828125 -265.9364318847656 5999.6748046875
v -1935.99951171875 -271.8568420410156 5999.67333984375
v -1944.03173828125 -265.9364318847656 6039.67431640625
v -1935.99951171875 -271.8568420410156 6039.67333984375
v -1935.99951171875 -271.8568420410156 6039.67333984375
v -1935.99951171875 -271.8568420410156 5999.67333984375
v -1212.03125 710.1134643554688 5049.673828125
v -1212.03125 710.1134643554688 5009.673828125
v -1212.03125 710.1133422851562 5009.673828125
v -1220.07568359375 716.0459594726562 5009.67236328125
v -1212.03125 710.1133422851562 5049.673828125
v -1220.07568359375 716.0459594726562 5049.6728515625
v -1944.03173828125 -265.9364318847656 6039.6748046875
v -1935.99951171875 -271.8568420410156 6039.673828125
v -1220.07568359375 716.0459594726562 5049.6728515625
v -1212.03125 710.1133422851562 5049.67431640625
v 2235.411376953125 1476.544189453125 5847.8505859375
v 995.884765625 2390.411376953125 5847.85302734375
v 2235.411376953125 1476.5443115234375 6577.85107421875
v 995.884765625 2390.411376953125 6577.853515625
v 995.8848876953125 2390.411376953125 5847.85302734375
v -1824.44580078125 -1434.991943359375 5847.85205078125
v 995.8848876953125 2390.411376953125 6577.853515625
v -1824.44580078125 -1434.9918212890625 6577.85205078125
v -1824.44580078125 -1434.9915771484375 5847.85205078125
v -584.925537109375 -2348.87109375 5847.85205078125
v -1824.44580078125 -1434.991455078125 6577.85205078125
v -584.925537109375 -2348.87109375 6577.85205078125
v -584.925537109375 -2348.87109375 5847.85205078125
v 2235.410888671875 1476.54345703125 5847.8505859375
v -584.925537109375 -2348.87109375 6577.85205078125
v 2235.410888671875 1476.5435791015625 6577.85107421875
v 996.010986328125 2390.318603515625 5978.73486328125
v -1889.51611328125 -1387.017578125 6080.73486328125
v 930.8145751953125 2438.385498046875 6080.736328125
v -1824.31982421875 -1435.08447265625 5978.73388671875
v 968.12158203125 2410.88037109375 6528.18505859375
v -1967.05517578125 -1329.8509521484375 6543.55224609375
v 853.275390625 2495.552001953125 6543.55322265625
v -1852.208984375 -1414.5225830078125 6528.1845703125
v -1967.05517578125 -1329.8509521484375 6556.55224609375
v 853.275390625 2495.552001953125 6556.552734375
v -1824.481689453125 -1434.965087890625 6580.28564453125
v 995.8489990234375 2390.437744140625 6580.28662109375
v -585.051513671875 -2348.778076171875 5978.73388671875
v 2300.481689453125 1428.5701904296875 6080.73388671875
v -519.855224609375 -2396.844970703125 6080.73486328125
v 2235.28515625 1476.6370849609375 5978.73291015625
v -557.162109375 -2369.340087890625 6528.1845703125
v 2378.020751953125 1371.4036865234375 6543.55078125
v -442.31591796875 -2454.011474609375 6543.55224609375
v 2263.174560546875 1456.0755615234375 6528.18310546875
v 2378.020751953125 1371.4036865234375 6556.55126953125
v -442.31591796875 -2454.011474609375 6556.55224609375
v 2235.447021484375 1476.5179443359375 6580.2841796875
v -584.8896484375 -2348.8974609375 6580.28564453125
v -1924.3271484375 -1361.3524169921875 6267.38525390625
v 896.0032958984375 2464.050537109375 6267.3857421875
v -1903.802734375 -1376.4844970703125 6415.73388671875
v 916.5279541015625 2448.91845703125 6415.73486328125
v -1852.208984375 -1414.5225830078125 6528.1845703125
v 968.12158203125 2410.88037109375 6528.18505859375
v 2335.29296875 1402.905029296875 6267.3837890625
v -485.043701171875 -2422.509765625 6267.38525390625
v 2314.768310546875 1418.037353515625 6415.732421875
v -505.568603515625 -2407.3779296875 6415.73388671875
v 2263.174560546875 1456.0755615234375 6528.18310546875
v -557.162109375 -2369.340087890625 6528.1845703125
v 996.010986328125 2390.318603515625 5978.73486328125
v 930.8145751953125 2438.385498046875 6080.736328125
v 896.0032958984375 2464.050537109375 6267.3857421875
v 916.5279541015625 2448.91845703125 6415.73486328125
v 968.12158203125 2410.88037109375 6528.18505859375
v 853.275390625 2495.552001953125 6543.55322265625
v 853.275390625 2495.552001953125 6556.552734375
v 995.8489990234375 2390.437744140625 6580.28662109375
v -1924.3271484375 -1361.3524169921875 6267.38525390625
v -1889.51611328125 -1387.017578125 6080.73486328125
v -1824.31982421875 -1435.08447265625 5978.73388671875
v -1903.802734375 -1376.4844970703125 6415.73388671875
v -1852.208984375 -1414.5225830078125 6528.1845703125
v -1967.05517578125 -1329.8509521484375 6556.55224609375
v -1967.05517578125 -1329.8509521484375 6543.55224609375
v -1824.481689453125 -1434.965087890625 6580.28564453125
v -585.051513671875 -2348.778076171875 5978.73388671875
v -519.855224609375 -2396.844970703125 6080.73486328125
v -485.043701171875 -2422.509765625 6267.38525390625
v -505.568603515625 -2407.3779296875 6415.73388671875
v -557.162109375 -2369.340087890625 6528.1845703125
v -442.31591796875 -2454.011474609375 6543.55224609375
v -442.31591796875 -2454.011474609375 6556.55224609375
v -584.8896484375 -2348.8974609375 6580.28564453125
v 2335.29296875 1402.905029296875 6267.3837890625
v 2300.481689453125 1428.5701904296875 6080.73388671875
v 2235.28515625 1476.6370849609375 5978.73291015625
v 2314.768310546875 1418.037353515625 6415.732421875
v 2263.174560546875 1456.0755615234375 6528.18310546875
v 2378.020751953125 1371.4036865234375 6556.55126953125
v 2378.020751953125 1371.4036865234375 6543.55078125
v 2235.447021484375 1476.5179443359375 6580.2841796875
v 2235.411376953125 1476.5443115234375 6577.85107421875
v 995.8848876953125 2390.411376953125 6577.853515625
v -584.925537109375 -2348.87109375 6577.85205078125
v -1824.44580078125 -1434.991455078125 6577.85205078125
v -1876.65478515625 -1256.8909912109375 5847.8505859375
v -410.938720703125 -2337.554931640625 5849.67138671875
v -1914.2626953125 -1229.1629638671875 6590.0
v -373.406005859375 -2365.227783203125 6590.0
v -410.938720703125 -2337.554931640625 5849.67138671875
v -399.0673828125 -2321.453857421875 5849.67236328125
v -373.406005859375 -2365.227783203125 6590.0
v -361.534423828125 -2349.126220703125 6590.0
v -1902.40380859375 -1213.074462890625 6590.0
v -361.534423828125 -2349.12646484375 6590.0
v -399.0673828125 -2321.453857421875 5849.67236328125
v -1864.7958984375 -1240.8021240234375 5847.85205078125
v -1864.7958984375 -1240.8021240234375 5847.85205078125
v -1876.65478515625 -1256.8909912109375 5847.8505859375
v -1902.40380859375 -1213.074462890625 6590.0
v -1914.2626953125 -1229.162841796875 6590.0
v -373.406005859375 -2365.227783203125 6590.0
v -1902.40380859375 -1213.074462890625 6590.0
v -1914.2626953125 -1229.1629638671875 6590.0
v -361.534423828125 -2349.126220703125 6590.0
v -1639.283447265625 -934.9427490234375 5847.85205078125
v -173.5546875 -2015.570068359375 5849.67138671875
v -1676.891845703125 -907.2154541015625 6590.0
v -136.02392578125 -2043.240234375 6590.0
v -173.5546875 -2015.570068359375 5849.67138671875
v -161.689453125 -1999.468994140625 5849.67041015625
v -136.023681640625 -2043.240478515625 6590.0
v -124.158447265625 -2027.139404296875 6590.0
v -1665.026611328125 -891.1143798828125 6590.0
v -124.158447265625 -2027.139404296875 6590.0
v -161.689453125 -1999.468994140625 5849.67041015625
v -1627.418212890625 -918.8416748046875 5847.8505859375
v -1627.418212890625 -918.8416748046875 5847.8505859375
v -1639.283447265625 -934.9427490234375 5847.85205078125
v -1665.026611328125 -891.1143798828125 6590.0
v -1676.891845703125 -907.215576171875 6590.0
v -136.023681640625 -2043.240478515625 6589.99951171875
v -1665.026611328125 -891.1143798828125 6589.99951171875
v -1676.891845703125 -907.2154541015625 6589.99951171875
v -124.158447265625 -2027.139404296875 6589.99951171875
v -1164.552001953125 -291.0340576171875 5847.8505859375
v 301.182861328125 -1371.6492919921875 5849.66943359375
v -1202.16064453125 -263.3067626953125 6590.0
v 338.7144775390625 -1399.3192138671875 6590.0
v 301.182861328125 -1371.6492919921875 5849.66943359375
v 313.0419921875 -1355.5482177734375 5849.669921875
v 338.71435546875 -1399.3192138671875 6590.0
v 350.5732421875 -1383.21826171875 6590.0
v -1190.289306640625 -247.205810546875 6590.0
v 350.5732421875 -1383.21826171875 6590.0
v 313.0419921875 -1355.5482177734375 5849.669921875
v -1152.6806640625 -274.9330749511719 5847.85205078125
v -1152.6806640625 -274.9330749511719 5847.85205078125
v -1164.552001953125 -291.0340576171875 5847.8505859375
v -1190.289306640625 -247.2056884765625 6590.0
v -1202.16064453125 -263.3067321777344 6590.0
v 338.71435546875 -1399.3192138671875 6590.0
v -1190.289306640625 -247.2056884765625 6590.0
v -1202.16064453125 -263.3067626953125 6590.0
v 350.5732421875 -1383.21826171875 6590.0
v -1401.917724609375 -612.9823608398438 5847.8505859375
v 63.817626953125 -1693.6099853515625 5849.67236328125
v -1439.5263671875 -585.2548828125 6590.0
v 101.348876953125 -1721.2802734375 6590.0
v 63.817138671875 -1693.6097412109375 5849.67236328125
v 75.682373046875 -1677.5086669921875 5849.66943359375
v 101.3486328125 -1721.2801513671875 6590.0
v 113.214111328125 -1705.1788330078125 6590.0
v -1427.655517578125 -569.1658935546875 6590.0
v 113.21435546875 -1705.1790771484375 6590.0
v 75.682373046875 -1677.5086669921875 5849.66943359375
v -1390.04638671875 -596.893310546875 5847.8505859375
v -1390.04638671875 -596.8934326171875 5847.8505859375
v -1401.917724609375 -612.9823608398438 5847.8505859375
v -1427.655029296875 -569.1661376953125 6590.0
v -1439.5263671875 -585.2549438476562 6590.0
v 101.3486328125 -1721.2801513671875 6590.0
v -1427.655029296875 -569.1661376953125 6590.0
v -1439.5263671875 -585.2548828125 6590.0
v 113.21435546875 -1705.1790771484375 6590.0
v -689.814453125 352.88690185546875 5847.85205078125
v 775.9205322265625 -727.7405395507812 5849.67041015625
v -727.423583984375 380.61468505859375 6590.0
v 813.4522705078125 -755.4111328125 6590.0
v 775.92041015625 -727.7405395507812 5849.67041015625
v 787.78564453125 -711.6394653320312 5849.66943359375
v 813.4520263671875 -755.4111328125 6590.0
v 825.3173828125 -739.31005859375 6590.0
v -715.55224609375 396.71588134765625 6590.0
v 825.3172607421875 -739.31005859375 6590.0
v 787.78564453125 -711.6394653320312 5849.66943359375
v -677.943115234375 368.98797607421875 5847.8515625
v -677.943115234375 368.9879150390625 5847.8515625
v -689.814453125 352.88690185546875 5847.85205078125
v -715.55224609375 396.7158203125 6590.0
v -727.423583984375 380.61468505859375 6590.0
v 813.4520263671875 -755.4111328125 6589.99951171875
v -715.55224609375 396.71575927734375 6589.99951171875
v -727.423583984375 380.61468505859375 6589.99951171875
v 825.3172607421875 -739.31005859375 6589.99951171875
v -927.186279296875 30.926406860351562 5847.8515625
v 538.548583984375 -1049.6888427734375 5849.67138671875
v -964.794677734375 58.65338134765625 6590.0
v 576.079833984375 -1077.358642578125 6590.0
v 538.548583984375 -1049.6888427734375 5849.67138671875
v 550.419921875 -1033.5999755859375 5849.67138671875
v 576.079833984375 -1077.3587646484375 6590.0
v 587.951171875 -1061.27001953125 6590.0
v -952.923583984375 74.75483703613281 6590.0
v 587.9510498046875 -1061.27001953125 6590.0
v 550.419921875 -1033.5999755859375 5849.67138671875
v -915.3154296875 47.02766418457031 5847.8515625
v -915.31494140625 47.02752685546875 5847.8515625
v -927.186279296875 30.926406860351562 5847.8515625
v -952.92333984375 74.75468444824219 6590.0
v -964.794677734375 58.65342712402344 6590.0
v 576.079833984375 -1077.3587646484375 6590.0
v -952.92333984375 74.75466918945312 6590.0
v -964.794677734375 58.65336608886719 6590.0
v 587.9510498046875 -1061.27001953125 6590.0
v -452.515869140625 674.7496337890625 5847.85009765625
v 1013.212890625 -405.8778076171875 5849.66943359375
v -490.12353515625 702.4765625 6590.0
v 1050.7449951171875 -433.54876708984375 6590.0
v 1013.212890625 -405.8778076171875 5849.66943359375
v 1025.078125 -389.7767333984375 5849.6689453125
v 1050.744873046875 -433.5487060546875 6590.0
v 1062.610107421875 -417.4476318359375 6590.0
v -478.25830078125 718.5774536132812 6590.0
v 1062.6102294921875 -417.44769287109375 6590.0
v 1025.078125 -389.7767333984375 5849.6689453125
v -440.650634765625 690.8505859375 5847.84912109375
v -440.650634765625 690.8507080078125 5847.84912109375
v -452.515869140625 674.7496337890625 5847.85009765625
v -478.258544921875 718.57763671875 6590.0
v -490.12353515625 702.4765625 6590.0
v 1050.744873046875 -433.5487060546875 6590.0
v -478.258544921875 718.57763671875 6590.0
v -490.12353515625 702.4765625 6590.0
v 1062.6102294921875 -417.44769287109375 6590.0
v 22.215576171875 1318.6705322265625 5847.85107421875
v 1487.950439453125 238.04319763183594 5849.66796875
v -15.391357421875 1346.396728515625 6590.0
v 1525.481689453125 210.37298583984375 6590.0
v 1487.950439453125 238.04319763183594 5849.66796875
v 1499.8095703125 254.14427185058594 5849.669921875
v 1525.481689453125 210.37298583984375 6590.0
v 1537.3408203125 226.47415161132812 6590.0
v -3.52001953125 1362.4854736328125 6590.0
v 1537.3408203125 226.47415161132812 6590.0
v 1499.8095703125 254.14427185058594 5849.669921875
v 34.086669921875 1334.759521484375 5847.85205078125
v 34.0869140625 1334.7593994140625 5847.85205078125
v 22.215576171875 1318.6705322265625 5847.85107421875
v -3.52001953125 1362.4853515625 6590.0
v -15.391357421875 1346.396728515625 6590.0
v 1525.481689453125 210.37298583984375 6590.0
v -3.52001953125 1362.4853515625 6590.0
v -15.391357421875 1346.396728515625 6590.0
v 1537.3408203125 226.47415161132812 6590.0
v -215.150146484375 996.7100830078125 5847.84912109375
v 1250.58447265625 -83.91714477539062 5849.67236328125
v -252.758056640625 1024.4368896484375 6590.0
v 1288.115478515625 -111.5872802734375 6590.0
v 1250.584716796875 -83.917236328125 5849.67236328125
v 1262.449951171875 -67.828369140625 5849.66796875
v 1288.11572265625 -111.58737182617188 6590.0
v 1299.981201171875 -95.49868774414062 6590.0
v -240.886474609375 1040.525634765625 6590.0
v 1299.981201171875 -95.498779296875 6590.0
v 1262.449951171875 -67.828369140625 5849.66796875
v -203.2783203125 1012.7986450195312 5847.84912109375
v -203.27880859375 1012.7989501953125 5847.84912109375
v -215.150146484375 996.7100830078125 5847.84912109375
v -240.88671875 1040.52587890625 6590.0
v -252.758056640625 1024.43701171875 6590.0
v 1288.11572265625 -111.58737182617188 6590.0
v -240.88671875 1040.52587890625 6590.0
v -252.758056640625 1024.43701171875 6590.0
v 1299.981201171875 -95.498779296875 6590.0
v 259.5811767578125 1640.6187744140625 5847.85009765625
v 1725.316162109375 560.003662109375 5849.66943359375
v 221.971923828125 1668.3465576171875 6590.0
v 1762.848388671875 532.3330688476562 6590.0
v 1725.316162109375 560.003662109375 5849.66943359375
v 1737.1875 576.092529296875 5849.66943359375
v 1762.848388671875 532.3329467773438 6590.0
v 1774.7197265625 548.421630859375 6590.0
v 233.84326171875 1684.44775390625 6590.0
v 1774.7197265625 548.421630859375 6590.0
v 1737.1875 576.092529296875 5849.66943359375
v 271.4525146484375 1656.7198486328125 5847.85009765625
v 271.4525146484375 1656.7198486328125 5847.85009765625
v 259.5811767578125 1640.6187744140625 5847.85009765625
v 233.84326171875 1684.44775390625 6590.0
v 221.9716796875 1668.3465576171875 6590.0
v 1762.848388671875 532.3329467773438 6590.0
v 233.84326171875 1684.44775390625 6590.0
v 221.971923828125 1668.3465576171875 6590.0
v 1774.7197265625 548.421630859375 6590.0
v -520.612548828125 1601.4459228515625 -0.00024433102225884795
v -1244.806884765625 2135.80859375 -0.0003227020497433841
v -520.612548828125 1601.4459228515625 21.999755859375
v -1244.806884765625 2135.80859375 21.999677658081055
v -1244.806884765625 2135.80859375 -0.0003227020497433841
v -1506.006103515625 2058.14404296875 -0.0003601422649808228
v -1244.806884765625 2135.80859375 21.999677658081055
v -1506.006103515625 2058.14404296875 21.9996395111084
v -1993.17626953125 1713.707763671875 -0.0003888256032951176
v -1993.17626953125 1713.707763671875 21.99961280822754
v -2368.43603515625 1205.138427734375 -0.0003607681719586253
v -2368.43603515625 1205.138427734375 21.999635696411133
v -2553.857421875 638.0460205078125 -0.00028179638320580125
v -2553.857421875 638.0460205078125 21.999713897705078
v -2551.0263671875 365.5571594238281 -0.0002250384131912142
v -2551.0263671875 365.5571594238281 21.999771118164062
v -2551.0263671875 365.5571594238281 -0.0002250384131912142
v -1826.838134765625 -168.80560302734375 -0.0001466676767449826
v -2551.0263671875 365.5571594238281 21.999774932861328
v -1826.838134765625 -168.80560302734375 21.999853134155273
v -520.612548828125 1601.4459228515625 21.999755859375
v -1244.806884765625 2135.80859375 21.999677658081055
v -1506.006103515625 2058.14404296875 21.9996395111084
v -1826.838134765625 -168.80560302734375 21.999853134155273
v -1993.17626953125 1713.7078857421875 21.999610900878906
v -2368.43603515625 1205.138427734375 21.999637603759766
v -2551.0263671875 365.5571594238281 21.999774932861328
v -2553.857421875 638.0460205078125 21.999717712402344
v -74.902587890625 1738.202880859375 861.1067504882812
v -431.14208984375 1255.4052734375 861.1067504882812
v -431.142333984375 1255.405517578125 4461.10693359375
v -74.90283203125 1738.203125 4461.10693359375
v -289.150634765625 828.178955078125 861.1068115234375
v -1033.412109375 -113.13671875 861.1068725585938
v -1033.412353515625 -113.13638305664062 4461.10693359375
v -289.15087890625 828.1792602539062 4461.10693359375
v -1471.808349609375 -154.93771362304688 900.0574340820312
v -1828.051513671875 -637.7327270507812 900.0574951171875
v -1828.0517578125 -637.732421875 4500.0576171875
v -1471.80859375 -154.93740844726562 4500.0576171875
v -74.53466796875 2472.023681640625 4658.9296875
v -2555.02685546875 -892.431396484375 4658.9296875
v -2555.02685546875 -892.4312744140625 4938.9296875
v -74.53466796875 2472.023681640625 4938.9296875
f 14 13 15
f 16 14 15
f 92 93 78
f 92 90 88
f 90 92 78
f 79 90 78
f 78 77 79
f 79 77 83
f 83 77 82
f 88 83 82
f 87 88 82
f 87 92 88
f 86 87 82
f 93 94 78
f 94 93 86
f 85 94 86
f 85 86 82
f 84 85 82
f 96 91 78
f 91 89 78
f 81 89 91
f 82 89 81
f 81 80 82
f 80 84 82
f 80 96 84
f 96 95 84
f 95 96 78
f 94 95 78
f 1585 1584 1586
f 1587 1585 1586
f 1569 1568 1570
f 1571 1569 1570
f 246 245 247
f 247 248 246
f 242 241 243
f 243 244 242
f 230 229 231
f 231 232 230
f 226 225 227
f 227 228 226
f 214 213 215
f 215 216 214
f 210 209 211
f 211 212 210
f 198 197 199
f 199 200 198
f 194 193 195
f 195 196 194
f 66 65 67
f 68 66 67
f 50 49 51
f 52 50 51
f 42 41 43
f 43 48 42
f 48 47 42
f 45 47 48
f 46 47 45
f 45 44 46
f 44 41 46
f 43 41 44
f 8 7 6
f 7 1 6
f 3 1 7
f 2 1 3
f 3 10 2
f 10 12 2
f 12 10 8
f 4 12 8
f 4 8 6
f 5 4 6
f 6 9 5
f 5 9 11
f 11 9 2
f 12 11 2
f 1589 1588 1590
f 1590 1588 1591
f 1591 1592 1590
f 1592 1591 1593
f 1593 1591 1594
f 1594 1595 1593
f 38 37 39
f 40 38 39
f 34 33 35
f 36 34 35
f 18 17 19
f 20 18 19
f 76 75 70
f 71 76 70
f 70 69 71
f 71 69 72
f 72 69 74
f 73 72 74
f 74 75 73
f 73 75 76
f 25 24 26
f 26 29 25
f 25 29 31
f 31 29 22
f 32 31 22
f 30 32 22
f 32 30 28
f 24 32 28
f 24 28 26
f 28 27 26
f 27 21 26
f 23 21 27
f 22 21 23
f 23 30 22
f 254 253 255
f 255 253 256
f 252 249 250
f 250 249 251
f 238 237 239
f 239 237 240
f 236 233 234
f 234 233 235
f 222 221 223
f 223 221 224
f 220 217 218
f 218 217 219
f 206 205 207
f 207 205 208
f 204 201 202
f 202 201 203
f 190 189 191
f 191 189 192
f 188 185 186
f 186 185 187
f 181 182 184
f 182 181 183
f 178 177 179
f 180 179 177
f 174 173 175
f 175 173 176
f 172 169 170
f 170 169 171
f 165 166 168
f 166 165 167
f 162 161 163
f 164 163 161
f 158 157 159
f 159 157 160
f 156 153 154
f 154 153 155
f 149 150 152
f 150 149 151
f 146 145 147
f 148 147 145
f 142 141 143
f 143 141 144
f 140 137 138
f 138 137 139
f 133 134 136
f 134 133 135
f 130 129 131
f 132 131 129
f 126 125 127
f 127 125 128
f 124 121 122
f 122 121 123
f 117 118 120
f 118 117 119
f 114 113 115
f 116 115 113
f 110 109 111
f 111 109 112
f 108 105 106
f 106 105 107
f 101 102 104
f 102 101 103
f 98 97 99
f 100 99 97
f 1583 1582 1581
f 1582 1580 1581
f 1581 1580 1579
f 1580 1578 1579
f 1579 1578 1577
f 1578 1576 1577
f 1577 1576 1575
f 1576 1573 1575
f 1575 1573 1574
f 1573 1572 1574
f 54 53 55
f 55 53 57
f 56 55 57
f 57 63 56
f 56 63 62
f 62 63 64
f 64 63 59
f 60 64 59
f 59 58 60
f 60 58 61
f 61 58 56
f 62 61 56
f 370 369 371
f 1160 1161 1163
f 1161 1160 1162
f 1133 1132 1134
f 1134 1132 1135
f 1131 1128 1129
f 1129 1128 1130
f 654 653 655
f 655 653 656
f 652 649 650
f 650 649 651
f 638 637 639
f 639 637 640
f 636 633 634
f 634 633 635
f 622 621 623
f 623 621 624
f 620 617 618
f 618 617 619
f 1609 1608 1610
f 1610 1608 1611
f 1564 1565 1567
f 1565 1564 1566
f 1557 1556 1558
f 1558 1556 1559
f 1544 1545 1547
f 1545 1544 1546
f 1537 1536 1538
f 1538 1536 1539
f 1524 1525 1527
f 1525 1524 1526
f 1517 1516 1518
f 1518 1516 1519
f 1504 1505 1507
f 1505 1504 1506
f 1497 1496 1498
f 1498 1496 1499
f 1484 1485 1487
f 1485 1484 1486
f 1477 1476 1478
f 1478 1476 1479
f 1464 1465 1467
f 1465 1464 1466
f 1457 1456 1458
f 1458 1456 1459
f 1444 1445 1447
f 1445 1444 1446
f 1437 1436 1438
f 1438 1436 1439
f 1424 1425 1427
f 1425 1424 1426
f 1417 1416 1418
f 1418 1416 1419
f 1404 1405 1407
f 1405 1404 1406
f 1397 1396 1398
f 1398 1396 1399
f 1384 1385 1387
f 1385 1384 1386
f 1377 1376 1378
f 1378 1376 1379
f 1240 1241 1243
f 1241 1240 1242
f 1228 1229 1231
f 1229 1228 1230
f 1208 1209 1211
f 1209 1208 1210
f 975 974 976
f 977 976 974
f 971 970 972
f 973 972 970
f 967 966 968
f 969 968 966
f 963 962 964
f 965 964 962
f 959 958 960
f 961 960 958
f 955 954 956
f 957 956 954
f 951 950 952
f 953 952 950
f 947 946 948
f 949 948 946
f 943 942 944
f 945 944 942
f 939 938 940
f 941 940 938
f 910 908 911
f 913 910 1612
f 912 910 913
f 901 912 1613
f 898 912 901
f 900 898 1614
f 899 898 900
f 903 899 1615
f 902 899 903
f 905 902 903
f 904 902 905
f 907 904 905
f 906 904 907
f 909 906 1616
f 1617 906 909
f 911 908 1618
f 1185 1184 1186
f 1187 1185 1186
f 1181 1180 1182
f 1183 1181 1182
f 1177 1176 1178
f 1178 1179 1177
f 1173 1172 1174
f 1175 1173 1174
f 1169 1168 1170
f 1170 1171 1169
f 1165 1164 1166
f 1167 1165 1166
f 1157 1156 1158
f 1158 1159 1157
f 1153 1152 1154
f 1154 1155 1153
f 1149 1148 1150
f 1150 1151 1149
f 1145 1144 1146
f 1146 1147 1145
f 1141 1140 1142
f 1142 1143 1141
f 1137 1136 1138
f 1138 1139 1137
f 1125 1124 1126
f 1126 1127 1125
f 1121 1120 1122
f 1122 1123 1121
f 1118 1117 1119
f 895 894 896
f 896 894 897
f 891 890 892
f 892 890 893
f 887 886 888
f 888 886 889
f 883 882 884
f 884 882 885
f 863 862 864
f 864 862 865
f 864 865 868
f 868 865 869
f 868 869 872
f 872 869 873
f 872 873 876
f 876 873 877
f 876 877 880
f 880 877 881
f 855 854 856
f 856 854 857
f 851 850 852
f 852 850 853
f 838 837 839
f 837 840 839
f 841 840 837
f 833 832 834
f 834 832 835
f 836 834 835
f 1115 1114 1116
f 293 295 296
f 296 295 290
f 291 296 290
f 290 289 291
f 291 289 292
f 292 289 294
f 293 292 294
f 294 295 293
f 878 874 879
f 879 874 875
f 874 870 875
f 875 870 871
f 870 866 871
f 871 866 867
f 866 859 867
f 867 859 860
f 859 858 860
f 860 858 861
f 298 297 299
f 300 298 299
f 306 308 305
f 306 305 307
f 310 312 309
f 310 309 311
f 314 316 313
f 314 313 315
f 318 320 317
f 318 317 319
f 322 324 321
f 322 321 323
f 326 328 325
f 326 325 327
f 330 332 329
f 330 329 331
f 334 336 333
f 334 333 335
f 338 340 337
f 338 337 339
f 342 344 341
f 342 341 343
f 346 348 345
f 346 345 347
f 350 352 349
f 350 349 351
f 354 356 353
f 354 353 355
f 358 360 357
f 358 357 359
f 362 364 361
f 362 361 363
f 366 368 365
f 366 365 367
f 426 428 425
f 426 425 427
f 430 432 429
f 430 429 431
f 434 436 433
f 434 433 435
f 438 440 437
f 438 437 439
f 442 444 441
f 442 441 443
f 558 560 557
f 558 557 559
f 562 564 561
f 562 561 563
f 566 568 565
f 566 565 567
f 570 572 569
f 570 569 571
f 574 576 573
f 574 573 575
f 578 580 577
f 578 577 579
f 582 584 581
f 582 581 583
f 586 588 585
f 586 585 587
f 590 592 589
f 590 589 591
f 594 596 593
f 594 593 595
f 701 703 700
f 701 700 702
f 705 707 704
f 705 704 706
f 709 711 708
f 709 708 710
f 713 715 712
f 713 712 714
f 717 719 716
f 717 716 718
f 721 723 720
f 721 720 722
f 725 727 724
f 725 724 726
f 802 803 785
f 802 785 784
f 784 785 767
f 784 767 766
f 766 767 749
f 766 749 748
f 748 749 731
f 748 731 729
f 729 731 728
f 729 728 730
f 1111 1113 1110
f 1111 1110 1112
f 1107 1109 1106
f 1107 1106 1108
f 1103 1105 1102
f 1103 1102 1104
f 1099 1101 1098
f 1099 1098 1100
f 1095 1097 1094
f 1095 1094 1096
f 1091 1093 1090
f 1091 1090 1092
f 1087 1089 1086
f 1087 1086 1088
f 1083 1085 1082
f 1083 1082 1084
f 1080 1079 1081
f 733 735 732
f 733 732 734
f 737 739 736
f 737 736 738
f 741 743 740
f 741 740 742
f 745 747 744
f 745 744 746
f 751 753 750
f 751 750 752
f 755 757 754
f 1620 1619 756
f 759 761 758
f 759 758 760
f 763 765 762
f 763 762 764
f 769 771 768
f 769 768 770
f 773 775 772
f 1622 1621 774
f 777 779 776
f 777 776 778
f 781 783 780
f 781 780 782
f 787 789 786
f 787 786 788
f 791 793 790
f 1624 1623 792
f 795 797 794
f 795 794 796
f 799 801 798
f 799 798 800
f 805 807 804
f 805 804 806
f 809 811 808
f 809 1625 810
f 813 815 812
f 813 812 814
f 817 819 816
f 817 816 818
f 821 823 820
f 821 820 822
f 825 827 824
f 825 824 826
f 829 831 828
f 829 828 830
f 923 922 924
f 924 925 923
f 927 926 928
f 928 929 927
f 931 930 932
f 932 933 931
f 935 934 936
f 936 937 935
f 995 997 994
f 995 994 996
f 999 1001 998
f 999 998 1000
f 1003 1005 1002
f 1003 1002 1004
f 1007 1009 1006
f 1007 1006 1008
f 1011 1013 1010
f 1011 1010 1012
f 1015 1017 1014
f 1015 1014 1016
f 1019 1021 1018
f 1019 1018 1020
f 1023 1025 1022
f 1023 1022 1024
f 1061 1063 1060
f 1061 1060 1062
f 1065 1067 1064
f 1065 1064 1066
f 1069 1071 1068
f 1069 1068 1070
f 1073 1075 1072
f 1073 1072 1074
f 1189 1188 1190
f 1191 1189 1190
f 1193 1192 1194
f 1195 1193 1194
f 1197 1196 1198
f 1198 1199 1197
f 1201 1200 1202
f 1202 1203 1201
f 1205 1204 1206
f 1207 1205 1206
f 1213 1212 1214
f 1215 1213 1214
f 1217 1216 1218
f 1218 1219 1217
f 1221 1220 1222
f 1222 1223 1221
f 1225 1224 1226
f 1227 1225 1226
f 1233 1232 1234
f 1235 1233 1234
f 1237 1236 1238
f 1238 1239 1237
f 1245 1244 1246
f 1247 1245 1246
f 1249 1248 1250
f 1250 1251 1249
f 1253 1252 1254
f 1255 1253 1254
f 1257 1256 1258
f 1258 1259 1257
f 1277 1279 1276
f 1277 1276 1278
f 1281 1283 1280
f 1281 1280 1282
f 1285 1287 1284
f 1285 1284 1286
f 1289 1291 1288
f 1289 1288 1290
f 1293 1295 1292
f 1293 1292 1294
f 1297 1299 1296
f 1297 1296 1298
f 1301 1303 1300
f 1301 1300 1302
f 1305 1307 1304
f 1305 1304 1306
f 1365 1364 1366
f 1366 1367 1365
f 1369 1368 1370
f 1371 1369 1370
f 1373 1372 1374
f 1375 1373 1374
f 1381 1380 1382
f 1383 1381 1382
f 1389 1388 1390
f 1391 1389 1390
f 1393 1392 1394
f 1395 1393 1394
f 1401 1400 1402
f 1403 1401 1402
f 1409 1408 1410
f 1411 1409 1410
f 1413 1412 1414
f 1415 1413 1414
f 1421 1420 1422
f 1423 1421 1422
f 1429 1428 1430
f 1431 1429 1430
f 1433 1432 1434
f 1435 1433 1434
f 1441 1440 1442
f 1443 1441 1442
f 1449 1448 1450
f 1451 1449 1450
f 1453 1452 1454
f 1455 1453 1454
f 1461 1460 1462
f 1463 1461 1462
f 1469 1468 1470
f 1471 1469 1470
f 1473 1472 1474
f 1475 1473 1474
f 1481 1480 1482
f 1483 1481 1482
f 1489 1488 1490
f 1491 1489 1490
f 1493 1492 1494
f 1495 1493 1494
f 1501 1500 1502
f 1503 1501 1502
f 1509 1508 1510
f 1511 1509 1510
f 1513 1512 1514
f 1515 1513 1514
f 1521 1520 1522
f 1523 1521 1522
f 1529 1528 1530
f 1531 1529 1530
f 1533 1532 1534
f 1535 1533 1534
f 1541 1540 1542
f 1543 1541 1542
f 1549 1548 1550
f 1551 1549 1550
f 1553 1552 1554
f 1555 1553 1554
f 1561 1560 1562
f 1563 1561 1562
f 258 257 259
f 260 258 259
f 262 261 263
f 264 262 263
f 266 265 267
f 267 272 266
f 272 271 266
f 269 271 272
f 270 271 269
f 269 268 270
f 268 265 270
f 267 265 268
f 1077 1076 1078
f 274 273 275
f 276 274 275
f 278 277 279
f 279 284 278
f 284 283 278
f 281 283 284
f 282 283 281
f 281 280 282
f 280 277 282
f 279 277 280
f 1057 1059 1056
f 1057 1056 1058
f 1053 1055 1052
f 1053 1052 1054
f 1049 1051 1048
f 1049 1048 1050
f 1045 1047 1044
f 1045 1044 1046
f 1037 1036 1038
f 1038 1043 1037
f 1043 1042 1037
f 1040 1042 1043
f 1041 1042 1040
f 1040 1039 1041
f 1039 1036 1041
f 1038 1036 1039
f 286 285 287
f 288 286 287
f 373 372 374
f 1030 1029 1031
f 376 375 377
f 1027 1026 1028
f 379 378 380
f 697 696 698
f 699 697 698
f 685 684 686
f 687 685 686
f 688 685 687
f 689 688 687
f 690 688 689
f 691 690 689
f 692 690 691
f 693 692 691
f 694 692 693
f 695 694 693
f 382 384 381
f 382 381 383
f 386 388 385
f 386 385 387
f 390 392 389
f 390 389 391
f 394 396 393
f 394 393 395
f 398 400 397
f 398 397 399
f 402 404 401
f 402 401 403
f 406 408 405
f 406 405 407
f 410 412 409
f 410 409 411
f 414 416 413
f 414 413 415
f 418 420 417
f 418 417 419
f 422 424 421
f 422 421 423
f 446 445 447
f 681 680 682
f 683 681 682
f 646 645 647
f 647 648 646
f 642 641 643
f 643 644 642
f 630 629 631
f 631 632 630
f 626 625 627
f 627 628 626
f 614 613 615
f 615 616 614
f 610 609 611
f 611 612 610
f 607 606 608
f 449 448 450
f 604 603 605
f 452 451 453
f 601 600 602
f 455 454 456
f 598 597 599
f 458 460 457
f 458 457 459
f 462 464 461
f 462 461 463
f 466 468 465
f 466 465 467
f 470 472 469
f 470 469 471
f 474 476 473
f 474 473 475
f 478 480 477
f 478 477 479
f 482 484 481
f 482 481 483
f 486 488 485
f 486 485 487
f 490 492 489
f 490 489 491
f 494 496 493
f 494 493 495
f 498 500 497
f 498 497 499
f 502 504 501
f 502 501 503
f 506 508 505
f 506 505 507
f 510 512 509
f 510 509 511
f 514 516 513
f 514 513 515
f 518 520 517
f 518 517 519
f 522 521 523
f 554 556 553
f 554 553 555
f 550 552 549
f 550 549 551
f 546 548 545
f 546 545 547
f 542 544 541
f 542 541 543
f 538 540 537
f 538 537 539
f 534 536 533
f 534 533 535
f 531 530 532
f 525 524 526
f 528 527 529
f 302 301 303
f 304 302 303
f 1329 1331 1328
f 1329 1328 1330
f 1325 1327 1324
f 1325 1324 1326
f 1321 1323 1320
f 1321 1320 1322
f 1317 1319 1316
f 1317 1316 1318
f 1313 1315 1312
f 1313 1312 1314
f 1309 1311 1308
f 1309 1308 1310
f 919 918 920
f 921 919 920
f 915 914 916
f 917 915 916
f 1597 1596 1598
f 1598 1596 1599
f 1601 1600 1602
f 1602 1600 1603
f 1605 1604 1606
f 1606 1604 1607
f 677 676 678
f 678 679 677
f 662 666 661
f 660 659 661
f 661 659 662
f 662 659 663
f 663 659 665
f 664 663 665
f 665 667 664
f 659 660 658
f 658 657 659
f 673 675 674
f 674 671 673
f 673 671 672
f 669 672 671
f 671 668 669
f 669 668 670
f 843 842 844
f 844 842 845
f 845 846 844
f 846 845 847
f 847 845 848
f 848 849 847
f 981 979 980
f 979 978 980
f 1033 1032 1034
f 1034 1035 1033
f 991 990 992
f 993 991 992
f 987 986 988
f 989 987 988
f 983 982 984
f 985 983 984
f 1337 1336 1338
f 1338 1336 1339
f 1336 1332 1339
f 1335 1332 1336
f 1334 1332 1335
f 1333 1332 1334
f 1357 1356 1358
f 1356 1359 1358
f 1359 1360 1358
f 1360 1363 1358
f 1361 1363 1360
f 1362 1361 1360
f 1349 1348 1350
f 1350 1348 1351
f 1351 1348 1352
f 1352 1348 1355
f 1354 1352 1355
f 1353 1352 1354
f 1341 1340 1342
f 1340 1343 1342
f 1343 1344 1342
f 1344 1347 1342
f 1345 1347 1344
f 1346 1345 1344
f 1261 1260 1262
f 1263 1261 1262
f 1273 1272 1274
f 1275 1273 1274
f 1269 1268 1270
f 1271 1269 1270
f 1265 1264 1266
f 1267 1265 1266
