# from FinancialDistrict_Block06_Upmarket Corporate (UC)_0005_LOD_0.pskx
v 251.28973388671875 2098.1474609375 -0.025236377492547035
v -1127.6029052734375 719.2544555664062 -0.02523789368569851
v -647.1836547851562 1199.6610107421875 3.6545915603637695
v 182.44110107421875 2029.2767333984375 6.242747783660889
v 183.0185546875 2028.6995849609375 336.59173583984375
v -120.93107604980469 1724.7496337890625 336.5917663574219
v -153.82826232910156 1691.852294921875 336.6937561035156
v -457.77777099609375 1387.9024658203125 336.6937561035156
v -646.5440673828125 1199.021484375 369.6034851074219
v -975.3131713867188 870.2521362304688 369.603515625
v 252.68812561035156 2096.7490234375 800.0247802734375
v -1127.602783203125 716.4581298828125 800.0247802734375
v -975.9527587890625 870.8916625976562 3.6546058654785156
v -121.5086441040039 1725.326904296875 6.242761611938477
v -458.3553466796875 1388.4798583984375 6.344775199890137
v -154.4055938720703 1692.4298095703125 6.344761848449707
v -1127.585205078125 719.297119140625 -0.02508879452943802
v -1127.585205078125 587.9239501953125 -0.02516469545662403
v -1127.585205078125 587.9239501953125 323.68682861328125
v -1127.585205078125 140.4740753173828 323.6868591308594
v -1127.585205078125 716.5008544921875 800.02490234375
v -1127.585205078125 140.4740447998047 -0.02512557990849018
v -1127.585205078125 12.142633438110352 -0.025114359334111214
v -1127.585205078125 12.142724990844727 800.02490234375
v -1127.5675048828125 12.185311317443848 -0.025114363059401512
v -1375.0882568359375 -235.33535766601562 -0.02510354109108448
v -1215.9879150390625 -76.23523712158203 4.925689220428467
v -1215.9879150390625 -76.2352066040039 259.8756408691406
v -1303.2803955078125 -163.5274200439453 259.8756408691406
v -1127.5675048828125 12.185401916503906 800.0247802734375
v -1375.0882568359375 -235.33531188964844 800.0248413085938
v -1303.2803955078125 -163.52745056152344 4.925693035125732
v -1375.070556640625 -235.29269409179688 -0.025103546679019928
v -1375.070556640625 -518.1918334960938 -0.02507881633937359
v -1375.070556640625 -235.29263305664062 800.0249633789062
v -1375.070556640625 -518.1917724609375 800.0249633789062
v -1375.0455322265625 -518.1668090820312 -0.02507881633937359
v -1657.9447021484375 -518.1668701171875 -0.025091178715229034
v -1375.0455322265625 -518.166748046875 800.0249633789062
v -1657.9447021484375 -518.1668090820312 800.02490234375
v -1657.9019775390625 -518.149169921875 -0.025091180577874184
v -2046.8411865234375 -907.0883178710938 -0.025074180215597153
v -1657.9019775390625 -518.1491088867188 800.02490234375
v -2046.8411865234375 -907.0883178710938 800.0249633789062
v -2046.823486328125 -907.0455932617188 -0.025074182078242302
v -2046.823486328125 -1064.8714599609375 -0.025060389190912247
v -2046.823486328125 -907.0455932617188 800.0249633789062
v -2046.823486328125 -1064.8714599609375 800.0249633789062
v -2046.8485107421875 -1064.846435546875 -0.025060389190912247
v -1905.3800048828125 -1064.846435546875 -0.02505420707166195
v -2046.8485107421875 -1064.846435546875 800.0249633789062
v -1905.3800048828125 -1064.846435546875 800.0249633789062
v -1905.405029296875 -1064.8214111328125 -0.0250542052090168
v -1905.405029296875 -1685.0008544921875 -0.024999991059303284
v -1905.405029296875 -1142.5203857421875 49.87535858154297
v -1905.405029296875 -1142.5203857421875 415.8253479003906
v -1905.405029296875 -1607.4705810546875 415.82537841796875
v -1905.405029296875 -1064.8214111328125 800.0249633789062
v -1905.405029296875 -1685.0008544921875 800.0250244140625
v -1905.405029296875 -1607.4705810546875 49.87540054321289
v -1905.3800048828125 -1684.975830078125 -0.024999992921948433
v -2046.8485107421875 -1684.975830078125 -0.02500617504119873
v -1905.3800048828125 -1684.975830078125 800.0250244140625
v -2046.8485107421875 -1684.975830078125 800.0250244140625
v -2046.823486328125 -1684.9508056640625 -0.02500617504119873
v -2046.823486328125 -2109.18310546875 -0.024969084188342094
v -2046.823486328125 -1684.9508056640625 800.0250244140625
v -2046.823486328125 -2109.182861328125 800.0250244140625
v -2046.8485107421875 -2109.158203125 -0.02496909163892269
v 1170.53564453125 -2109.157958984375 -0.024828454479575157
v -2046.8485107421875 -2109.157958984375 800.0250244140625
v 1170.5355224609375 -2109.157958984375 800.025146484375
v 1170.492919921875 -2109.175537109375 -0.024828460067510605
v 1594.7958984375 -1684.8848876953125 -0.02484700083732605
v 1327.6900634765625 -1951.9830322265625 400.025146484375
v 1327.6900634765625 -1951.9830322265625 659.6851196289062
v 1415.0062255859375 -1864.6693115234375 659.6851806640625
v 1170.4927978515625 -2109.175537109375 800.025146484375
v 1594.7957763671875 -1684.8848876953125 800.0252075195312
v 1415.0062255859375 -1864.6693115234375 400.025146484375
v 1594.7781982421875 -1684.9276123046875 -0.0248470026999712
v 1594.778076171875 -164.58966064453125 -0.024979913607239723
v 1594.778076171875 -632.4971313476562 100.02506256103516
v 1594.778076171875 -632.4971313476562 299.9750671386719
v 1594.778076171875 -232.54714965820312 299.97503662109375
v 1594.778076171875 -1684.9276123046875 800.0252075195312
v 1594.778076171875 -164.58956909179688 800.0250854492188
v 1594.778076171875 -232.54714965820312 100.0250244140625
v 1594.7603759765625 -164.6321563720703 -0.024979908019304276
v 1661.702880859375 -97.68968963623047 -0.024982836097478867
v 1661.702880859375 -97.68965911865234 323.68701171875
v 1978.0977783203125 218.70530700683594 323.68701171875
v 1594.7603759765625 -164.63206481933594 800.0250854492188
v 1978.0977783203125 218.7052764892578 -0.024996668100357056
v 2054.414794921875 295.0223693847656 -0.025000005960464478
v 2054.414794921875 295.0224304199219 800.0250244140625
v 2054.414794921875 294.9870300292969 -0.02499999850988388
v 251.25440979003906 2098.147216796875 -0.02517464943230152
v 946.6676025390625 1402.7342529296875 9.024853706359863
v 946.6676025390625 1402.7342529296875 261.37481689453125
v 784.0684814453125 1565.3333740234375 261.3747863769531
v 770.2088623046875 1579.1929931640625 338.3898010253906
v 315.7865905761719 2033.6151123046875 338.3897705078125
v 2054.414794921875 294.9870910644531 800.02490234375
v 252.65284729003906 2096.748779296875 800.0247192382812
v 784.0684814453125 1565.3333740234375 9.024833679199219
v 315.7865905761719 2033.6151123046875 9.024771690368652
v 770.2088623046875 1579.1929931640625 9.02483081817627
v 252.67050170898438 2096.7314453125 669.999755859375
v -1137.6123046875 720.6126098632812 669.9998168945312
v 252.677734375 2110.89111328125 669.999755859375
v -1127.5771484375 716.43505859375 669.9998168945312
v 252.70994567871094 2110.8603515625 669.9811401367188
v -1157.612060546875 728.8959350585938 680.0071411132812
v 252.67831420898438 2139.176513671875 680.0034790039062
v -1137.5804443359375 720.5800170898438 669.9847412109375
v 252.68809509277344 2139.175537109375 679.9747314453125
v -1157.6029052734375 728.884521484375 720.0248413085938
v 252.68809509277344 2139.175537109375 720.0247802734375
v -1157.6029052734375 728.884521484375 679.9747924804688
v 252.67831420898438 2139.176513671875 719.9960327148438
v -1137.5804443359375 720.5800170898438 730.014892578125
v 252.70994567871094 2110.8603515625 730.0183715820312
v -1157.612060546875 728.8959350585938 719.9924926757812
v 252.68809509277344 2110.89111328125 729.9747314453125
v -1137.6029052734375 720.6002197265625 740.0247802734375
v 252.68809509277344 2110.89111328125 740.0247192382812
v -1137.6029052734375 720.6002197265625 729.9747924804688
v 252.70994567871094 2110.8603515625 739.9810791015625
v -1157.612060546875 728.8959350585938 750.0071411132812
v 252.67831420898438 2139.176513671875 750.0034790039062
v -1137.5804443359375 720.5800170898438 739.9846801757812
v 252.68809509277344 2139.175537109375 749.9747314453125
v -1157.6029052734375 728.884521484375 790.0247802734375
v 252.68809509277344 2139.175537109375 790.0247192382812
v -1157.6029052734375 728.884521484375 749.9747924804688
v 252.6706085205078 2139.158203125 789.9996948242188
v -1137.580322265625 720.5802612304688 800.014892578125
v 252.70994567871094 2110.8603515625 800.0183715820312
v -1157.612060546875 728.8959350585938 789.992431640625
v 252.677734375 2110.89111328125 799.999755859375
v -1117.5771484375 712.29296875 799.9998168945312
v 252.7130889892578 2082.57177734375 799.999755859375
v -1137.6124267578125 720.6124877929688 799.9998168945312
v -1127.585205078125 716.4761962890625 669.9998168945312
v -1137.6102294921875 12.143049240112305 669.9998779296875
v -1137.6005859375 720.6409912109375 669.9998168945312
v -1127.5601806640625 12.142694473266602 669.9998779296875
v -1137.5550537109375 720.641357421875 669.9847412109375
v -1157.6075439453125 12.142694473266602 680.0110473632812
v -1157.599853515625 728.9256591796875 680.0071411132812
v -1137.5628662109375 12.142694473266602 669.9887084960938
v -1157.585205078125 728.92724609375 679.9747924804688
v -1157.585205078125 12.142694473266602 720.02490234375
v -1157.585205078125 728.92724609375 720.0248413085938
v -1157.585205078125 12.142694473266602 679.974853515625
v -1157.599853515625 728.9256591796875 719.9924926757812
v -1137.5628662109375 12.142724990844727 730.0110473632812
v -1137.5550537109375 720.641357421875 730.014892578125
v -1157.6075439453125 12.142694473266602 719.9887084960938
v -1137.585205078125 720.6429443359375 729.9747924804688
v -1137.585205078125 12.142724990844727 740.0248413085938
v -1137.585205078125 720.6429443359375 740.0247802734375
v -1137.585205078125 12.142724990844727 729.974853515625
v -1137.5550537109375 720.641357421875 739.9846801757812
v -1157.6075439453125 12.142724990844727 750.0110473632812
v -1157.599853515625 728.9256591796875 750.0071411132812
v -1137.5628662109375 12.142724990844727 739.9886474609375
v -1157.585205078125 728.92724609375 749.9747924804688
v -1157.585205078125 12.142724990844727 790.0248413085938
v -1157.585205078125 728.92724609375 790.0247802734375
v -1157.585205078125 12.142724990844727 749.974853515625
v -1157.585205078125 728.9030151367188 789.999755859375
v -1137.5628662109375 12.14350414276123 800.0110473632812
v -1137.5550537109375 720.641357421875 800.014892578125
v -1157.6075439453125 12.142724990844727 789.9886474609375
v -1137.6005859375 720.6409912109375 799.9998168945312
v -1117.5601806640625 12.142724990844727 799.9998779296875
v -1117.5506591796875 712.3568115234375 799.9998168945312
v -1137.6102294921875 12.142724990844727 799.9998779296875
v -1375.0697021484375 -518.166748046875 669.9999389648438
v -1662.083984375 -508.1513366699219 669.9998779296875
v -1375.0455322265625 -508.1416931152344 669.9999389648438
v -1657.9427490234375 -518.2013549804688 669.9998779296875
v -1375.0455322265625 -508.1890563964844 669.98876953125
v -1670.369384765625 -488.15228271484375 680.0072021484375
v -1375.0455322265625 -488.1444396972656 680.0111083984375
v -1662.085205078125 -508.1968688964844 669.9848022460938
v -1375.0455322265625 -488.16680908203125 679.9749145507812
v -1670.3709716796875 -488.1668701171875 720.02490234375
v -1375.0455322265625 -488.16680908203125 720.0249633789062
v -1670.3709716796875 -488.1668701171875 679.974853515625
v -1375.0455322265625 -488.1444396972656 719.98876953125
v -1662.085205078125 -508.1968688964844 730.0149536132812
v -1375.0455322265625 -508.1890563964844 730.0111083984375
v -1670.369384765625 -488.15228271484375 719.9925537109375
v -1375.0455322265625 -508.16668701171875 729.9749145507812
v -1662.0867919921875 -508.166748046875 740.0248413085938
v -1375.0455322265625 -508.16668701171875 740.02490234375
v -1662.0867919921875 -508.166748046875 729.974853515625
v -1375.0455322265625 -508.1890563964844 739.9887084960938
v -1670.369384765625 -488.15228271484375 750.0072021484375
v -1375.0455322265625 -488.1444396972656 750.0111083984375
v -1662.085205078125 -508.1968688964844 739.9847412109375
v -1375.0455322265625 -488.16680908203125 749.9749145507812
v -1670.3709716796875 -488.1668701171875 790.0248413085938
v -1375.0455322265625 -488.16680908203125 790.02490234375
v -1670.3709716796875 -488.1668701171875 749.974853515625
v -1375.05810546875 -488.1556396484375 789.9942626953125
v -1662.083251953125 -508.1968078613281 800.014892578125
v -1375.0455322265625 -508.1890563964844 800.0111083984375
v -1670.369384765625 -488.15228271484375 789.9924926757812
v -1375.0455322265625 -508.1416931152344 799.9999389648438
v -1653.8006591796875 -528.201416015625 799.9998779296875
v -1375.0455322265625 -528.1918334960938 799.9999389648438
v -1662.0848388671875 -508.15130615234375 799.9998779296875
v -1657.9193115234375 -518.16650390625 669.9998779296875
v -2056.850341796875 -902.9335327148438 669.9999389648438
v -1662.056396484375 -508.1394958496094 669.9998779296875
v -2046.8154296875 -907.1113891601562 669.9999389648438
v -1662.02392578125 -508.1714782714844 669.9848022460938
v -2076.850341796875 -894.6505126953125 680.0072631835938
v -1670.3397216796875 -488.1399841308594 680.0072021484375
v -2056.81884765625 -902.96630859375 669.98486328125
v -1670.3282470703125 -488.1492004394531 679.974853515625
v -2076.841064453125 -894.6619262695312 720.0249633789062
v -1670.3282470703125 -488.1492004394531 720.02490234375
v -2076.841064453125 -894.6619262695312 679.9749145507812
v -1670.3397216796875 -488.1399841308594 719.9925537109375
v -2056.81884765625 -902.96630859375 730.0150146484375
v -1662.02392578125 -508.1714782714844 730.0149536132812
v -2076.850341796875 -894.6505126953125 719.9926147460938
v -1662.0440673828125 -508.1490783691406 729.974853515625
v -2056.841064453125 -902.9461059570312 740.02490234375
v -1662.0440673828125 -508.1490783691406 740.0248413085938
v -2056.841064453125 -902.9461059570312 729.9749145507812
v -1662.02392578125 -508.1714782714844 739.9847412109375
v -2076.850341796875 -894.6505126953125 750.0072631835938
v -1670.3397216796875 -488.1399841308594 750.0072021484375
v -2056.81884765625 -902.96630859375 739.9848022460938
v -1670.3282470703125 -488.1492004394531 749.974853515625
v -2076.841064453125 -894.6619262695312 790.02490234375
v -1670.3282470703125 -488.1492004394531 790.0248413085938
v -2076.841064453125 -894.6619262695312 749.9749145507812
v -1670.3427734375 -488.1534118652344 789.9961547851562
v -2056.818115234375 -902.965576171875 800.0150146484375
v -1662.02392578125 -508.1714782714844 800.0149536132812
v -2076.850341796875 -894.6505126953125 789.9925537109375
v -1662.056396484375 -508.1394958496094 799.9998779296875
v -2036.815673828125 -911.2536010742188 799.9999389648438
v -1653.73681640625 -528.1749877929688 799.9998779296875
v -2056.850830078125 -902.933837890625 799.9999389648438
v -2046.823486328125 -907.0691528320312 669.9999389648438
v -2056.830810546875 -1074.8626708984375 669.9999389648438
v -2056.8388671875 -902.9053344726562 669.9999389648438
v -2046.78076171875 -1064.8641357421875 669.9999389648438
v -2056.79345703125 -902.9049682617188 669.98486328125
v -2076.8310546875 -1094.8651123046875 680.003662109375
v -2076.838134765625 -894.6207885742188 680.0072631835938
v -2056.7861328125 -1074.8651123046875 669.9813232421875
v -2076.823486328125 -894.6192016601562 679.9749145507812
v -2076.823486328125 -1094.8714599609375 720.0249633789062
v -2076.823486328125 -894.6192016601562 720.0249633789062
v -2076.823486328125 -1094.8714599609375 679.9749145507812
v -2076.838134765625 -894.6207885742188 719.9926147460938
v -2056.7861328125 -1074.8651123046875 730.0185546875
v -2056.79345703125 -902.9049682617188 730.0150146484375
v -2076.8310546875 -1094.8651123046875 719.9962158203125
v -2056.823486328125 -902.9033813476562 729.9749145507812
v -2056.823486328125 -1074.8714599609375 740.02490234375
v -2056.823486328125 -902.9033813476562 740.02490234375
v -2056.823486328125 -1074.8714599609375 729.9749145507812
v -2056.79345703125 -902.9049682617188 739.9848022460938
v -2076.8310546875 -1094.8651123046875 750.003662109375
v -2076.838134765625 -894.6207885742188 750.0072631835938
v -2056.7861328125 -1074.8651123046875 739.9812622070312
v -2076.823486328125 -894.6192016601562 749.9749145507812
v -2076.823486328125 -1094.8714599609375 790.02490234375
v -2076.823486328125 -894.6192016601562 790.02490234375
v -2076.823486328125 -1094.8714599609375 749.9749145507812
v -2076.830810546875 -894.6325073242188 789.9962158203125
v -2056.786376953125 -1074.8619384765625 800.0184936523438
v -2056.79345703125 -902.9049682617188 800.0150146484375
v -2076.8310546875 -1094.8651123046875 789.9961547851562
v -2056.8388671875 -902.9053344726562 799.9999389648438
v -2036.781005859375 -1054.8641357421875 799.9999389648438
v -2036.7891845703125 -911.1897583007812 799.9999389648438
v -2056.830810546875 -1074.8641357421875 799.9999389648438
v -2046.8411865234375 -1064.8037109375 669.9999389648438
v -1915.3870849609375 -1074.88916015625 669.9999389648438
v -2056.841064453125 -1074.853759765625 669.9999389648438
v -1905.3873291015625 -1064.839111328125 669.9999389648438
v -2056.842041015625 -1074.8092041015625 669.9813232421875
v -1935.3863525390625 -1094.8836669921875 680.0185546875
v -2076.842041015625 -1094.8538818359375 680.003662109375
v -1915.3861083984375 -1074.8389892578125 669.9962158203125
v -2076.848388671875 -1094.846435546875 679.9749145507812
v -1935.3800048828125 -1094.846435546875 720.0249633789062
v -2076.848388671875 -1094.846435546875 720.0249633789062
v -1935.3800048828125 -1094.846435546875 679.9749145507812
v -2076.842041015625 -1094.8538818359375 719.9962158203125
v -1915.3861083984375 -1074.8389892578125 730.003662109375
v -2056.842041015625 -1074.8092041015625 730.0185546875
v -1935.3863525390625 -1094.8836669921875 719.9813232421875
v -2056.848388671875 -1074.846435546875 729.9749145507812
v -1915.3797607421875 -1074.846435546875 740.02490234375
v -2056.848388671875 -1074.846435546875 740.02490234375
v -1915.3797607421875 -1074.846435546875 729.9749145507812
v -2056.842041015625 -1074.8092041015625 739.9812622070312
v -1935.3863525390625 -1094.8836669921875 750.0185546875
v -2076.842041015625 -1094.8538818359375 750.003662109375
v -1915.3861083984375 -1074.8389892578125 739.9961547851562
v -2076.848388671875 -1094.846435546875 749.9749145507812
v -1935.3800048828125 -1094.846435546875 790.02490234375
v -2076.848388671875 -1094.846435546875 790.02490234375
v -1935.3800048828125 -1094.846435546875 749.9749145507812
v -2076.842041015625 -1094.8538818359375 789.9961547851562
v -1915.3861083984375 -1074.8389892578125 800.003662109375
v -2056.842041015625 -1074.8092041015625 800.0185546875
v -1935.3863525390625 -1094.8836669921875 789.9812622070312
v -2056.841064453125 -1074.853759765625 799.9999389648438
v -1895.3875732421875 -1054.839111328125 799.9999389648438
v -2036.8414306640625 -1054.8037109375 799.9999389648438
v -1915.3870849609375 -1074.88916015625 799.9999389648438
v -1905.4013671875 -1064.837646484375 669.9999389648438
v -1915.447509765625 -1674.9932861328125 670.0
v -1915.447509765625 -1074.8287353515625 669.9999389648438
v -1905.397705078125 -1684.9935302734375 670.0
v -1915.3973388671875 -1074.8277587890625 669.9962158203125
v -1935.4422607421875 -1654.9947509765625 680.0186157226562
v -1935.4422607421875 -1094.8277587890625 680.0185546875
v -1915.3973388671875 -1674.9947509765625 669.9962768554688
v -1935.405029296875 -1094.8214111328125 679.9749145507812
v -1935.405029296875 -1655.0010986328125 720.0250244140625
v -1935.405029296875 -1094.8214111328125 720.0249633789062
v -1935.405029296875 -1655.0010986328125 679.9749755859375
v -1935.4422607421875 -1094.8277587890625 719.9813232421875
v -1915.3973388671875 -1674.9947509765625 730.0037231445312
v -1915.3973388671875 -1074.8277587890625 730.003662109375
v -1935.4422607421875 -1654.9947509765625 719.9813842773438
v -1915.40478515625 -1074.8214111328125 729.9749145507812
v -1915.40478515625 -1675.0010986328125 740.0249633789062
v -1915.40478515625 -1074.8214111328125 740.02490234375
v -1915.40478515625 -1675.0010986328125 729.9749755859375
v -1915.3973388671875 -1074.8277587890625 739.9961547851562
v -1935.4422607421875 -1654.9947509765625 750.0186157226562
v -1935.4422607421875 -1094.8277587890625 750.0185546875
v -1915.3973388671875 -1674.9947509765625 739.9962158203125
v -1935.405029296875 -1094.8214111328125 749.9749145507812
v -1935.405029296875 -1655.0010986328125 790.0249633789062
v -1935.405029296875 -1094.8214111328125 790.02490234375
v -1935.405029296875 -1655.0010986328125 749.9749755859375
v -1935.405029296875 -1094.845458984375 789.9998779296875
v -1915.3973388671875 -1674.9937744140625 800.0037231445312
v -1915.3973388671875 -1074.8277587890625 800.003662109375
v -1935.4422607421875 -1654.9947509765625 789.9813232421875
v -1915.447509765625 -1074.8287353515625 799.9999389648438
v -1895.39794921875 -1694.9935302734375 800.0
v -1895.39794921875 -1054.8287353515625 799.9999389648438
v -1915.447509765625 -1674.9937744140625 800.0
v -1905.3873291015625 -1684.983154296875 670.0
v -2056.841064453125 -1674.96875 670.0
v -1915.3870849609375 -1674.933349609375 670.0
v -2046.8411865234375 -1685.0185546875 670.0
v -1915.3861083984375 -1674.9835205078125 669.9962768554688
v -2076.842041015625 -1654.9686279296875 680.0037231445312
v -1935.3863525390625 -1654.9388427734375 680.0186157226562
v -2056.842041015625 -1675.0133056640625 669.9813842773438
v -1935.3800048828125 -1654.97607421875 679.9749755859375
v -2076.848388671875 -1654.97607421875 720.0250244140625
v -1935.3800048828125 -1654.97607421875 720.0250244140625
v -2076.848388671875 -1654.97607421875 679.9749755859375
v -1935.3863525390625 -1654.9388427734375 719.9813842773438
v -2056.842041015625 -1675.0133056640625 730.0186157226562
v -1915.3861083984375 -1674.9835205078125 730.0037231445312
v -2076.842041015625 -1654.9686279296875 719.9962768554688
v -1915.3797607421875 -1674.97607421875 729.9749755859375
v -2056.848388671875 -1674.97607421875 740.0249633789062
v -1915.3797607421875 -1674.97607421875 740.0249633789062
v -2056.848388671875 -1674.97607421875 729.9749755859375
v -1915.3861083984375 -1674.9835205078125 739.9962158203125
v -2076.842041015625 -1654.9686279296875 750.0037231445312
v -1935.3863525390625 -1654.9388427734375 750.0186157226562
v -2056.842041015625 -1675.0133056640625 739.9813232421875
v -1935.3800048828125 -1654.97607421875 749.9749755859375
v -2076.848388671875 -1654.97607421875 790.0249633789062
v -1935.3800048828125 -1654.97607421875 790.0249633789062
v -2076.848388671875 -1654.97607421875 749.9749755859375
v -1935.3863525390625 -1654.9388427734375 789.9813232421875
v -2056.842041015625 -1675.0133056640625 800.0186157226562
v -1915.3861083984375 -1674.9835205078125 800.0037231445312
v -2076.842041015625 -1654.9686279296875 789.9962158203125
v -1915.3870849609375 -1674.933349609375 800.0
v -2036.8414306640625 -1695.0185546875 800.0
v -1895.3875732421875 -1694.983154296875 800.0
v -2056.841064453125 -1674.96875 800.0
v -2046.823486328125 -1684.9752197265625 670.0
v -2056.830810546875 -2119.1748046875 670.0
v -2056.830810546875 -1674.9583740234375 670.0
v -2046.78076171875 -2109.175537109375 670.0
v -2056.7861328125 -1674.9573974609375 669.9813842773438
v -2076.8310546875 -2139.176513671875 680.0037231445312
v -2076.8310546875 -1654.9573974609375 680.0037231445312
v -2056.7861328125 -2119.17626953125 669.9813842773438
v -2076.823486328125 -1654.9510498046875 679.9749755859375
v -2076.823486328125 -2139.182861328125 720.0250244140625
v -2076.823486328125 -1654.9510498046875 720.0250244140625
v -2076.823486328125 -2139.182861328125 679.9749755859375
v -2076.8310546875 -1654.9573974609375 719.9962768554688
v -2056.7861328125 -2119.17626953125 730.0186157226562
v -2056.7861328125 -1674.9573974609375 730.0186157226562
v -2076.8310546875 -2139.176513671875 719.9962768554688
v -2056.823486328125 -1674.9510498046875 729.9749755859375
v -2056.823486328125 -2119.1826171875 740.0249633789062
v -2056.823486328125 -1674.9510498046875 740.0249633789062
v -2056.823486328125 -2119.1826171875 729.9749755859375
v -2056.7861328125 -1674.9573974609375 739.9813232421875
v -2076.8310546875 -2139.176513671875 750.0037231445312
v -2076.8310546875 -1654.9573974609375 750.0037231445312
v -2056.7861328125 -2119.17626953125 739.9813232421875
v -2076.823486328125 -1654.9510498046875 749.9749755859375
v -2076.823486328125 -2139.182861328125 790.0249633789062
v -2076.823486328125 -1654.9510498046875 790.0249633789062
v -2076.823486328125 -2139.182861328125 749.9749755859375
v -2076.8271484375 -1654.966796875 789.998046875
v -2056.7861328125 -2119.175048828125 800.0186157226562
v -2056.7861328125 -1674.9573974609375 800.0186157226562
v -2076.8310546875 -2139.176513671875 789.9962158203125
v -2056.830810546875 -1674.9583740234375 800.0
v -2036.781005859375 -2099.17578125 800.0
v -2036.781005859375 -1694.9581298828125 800.0
v -2056.830810546875 -2119.17529296875 800.0
v -2046.8236083984375 -2109.157958984375 670.0
v 1174.67578125 -2119.173095703125 670.0001220703125
v -2056.841064453125 -2119.1650390625 670.0
v 1170.53369140625 -2109.123291015625 670.0001220703125
v -2056.842041015625 -2119.120361328125 669.9813842773438
v 1182.960205078125 -2139.172607421875 680.0074462890625
v -2076.842041015625 -2139.16552734375 680.0037231445312
v 1174.6761474609375 -2119.127685546875 669.9850463867188
v -2076.848388671875 -2139.157958984375 679.9749755859375
v 1182.9617919921875 -2139.157958984375 720.025146484375
v -2076.848388671875 -2139.157958984375 720.0250244140625
v 1182.9617919921875 -2139.157958984375 679.97509765625
v -2076.842041015625 -2139.16552734375 719.9962768554688
v 1174.676025390625 -2119.127685546875 730.0151977539062
v -2056.842041015625 -2119.120361328125 730.0186157226562
v 1182.960205078125 -2139.172607421875 719.9927978515625
v -2056.848388671875 -2119.15771484375 729.9749755859375
v 1174.6776123046875 -2119.15771484375 740.0250854492188
v -2056.848388671875 -2119.15771484375 740.0249633789062
v 1174.6776123046875 -2119.15771484375 729.97509765625
v -2056.842041015625 -2119.120361328125 739.9813232421875
v 1182.960205078125 -2139.172607421875 750.0074462890625
v -2076.842041015625 -2139.16552734375 750.0037231445312
v 1174.676025390625 -2119.127685546875 739.9849853515625
v -2076.848388671875 -2139.157958984375 749.9749755859375
v 1182.9617919921875 -2139.157958984375 790.0250854492188
v -2076.848388671875 -2139.157958984375 790.0249633789062
v 1182.9617919921875 -2139.157958984375 749.97509765625
v -2076.832763671875 -2139.16162109375 789.998046875
v 1174.6759033203125 -2119.127685546875 800.0151977539062
v -2056.842041015625 -2119.120361328125 800.0186157226562
v 1182.960205078125 -2139.172607421875 789.9927368164062
v -2056.841064453125 -2119.1650390625 800.0
v 1166.3914794921875 -2099.12353515625 800.0001220703125
v -2036.8414306640625 -2099.115478515625 800.0
v 1174.6756591796875 -2119.173095703125 800.0001220703125
v 1170.5103759765625 -2109.158203125 670.0001220703125
v 1604.80517578125 -1689.039794921875 670.0001831054688
v 1174.6473388671875 -2119.18505859375 670.0001220703125
v 1594.77001953125 -1684.86181640625 670.0001831054688
v 1174.6148681640625 -2119.153076171875 669.9850463867188
v 1624.8050537109375 -1697.3231201171875 680.0075073242188
v 1182.9305419921875 -2139.184814453125 680.0074462890625
v 1604.7734375 -1689.007080078125 669.985107421875
v 1182.9190673828125 -2139.175537109375 679.97509765625
v 1624.7958984375 -1697.3116455078125 720.0252075195312
v 1182.9190673828125 -2139.175537109375 720.025146484375
v 1624.7958984375 -1697.3116455078125 679.9751586914062
v 1182.9305419921875 -2139.184814453125 719.9927978515625
v 1604.7734375 -1689.007080078125 730.0152587890625
v 1174.61474609375 -2119.153076171875 730.0151977539062
v 1624.8050537109375 -1697.3231201171875 719.9928588867188
v 1174.6348876953125 -2119.17529296875 729.97509765625
v 1604.7958984375 -1689.0272216796875 740.025146484375
v 1174.6348876953125 -2119.17529296875 740.0250854492188
v 1604.7958984375 -1689.0272216796875 729.9751586914062
v 1174.61474609375 -2119.153076171875 739.9849853515625
v 1624.8050537109375 -1697.3231201171875 750.0075073242188
v 1182.9305419921875 -2139.184814453125 750.0074462890625
v 1604.7734375 -1689.007080078125 739.9850463867188
v 1182.9190673828125 -2139.175537109375 749.97509765625
v 1624.7958984375 -1697.3116455078125 790.025146484375
v 1182.9190673828125 -2139.175537109375 790.0250854492188
v 1624.7958984375 -1697.3116455078125 749.9751586914062
v 1182.93359375 -2139.17138671875 789.9963989257812
v 1604.7728271484375 -1689.0076904296875 800.0152587890625
v 1174.61474609375 -2119.153076171875 800.0151977539062
v 1624.8050537109375 -1697.3231201171875 789.9927978515625
v 1174.647216796875 -2119.18505859375 800.0001220703125
v 1584.77001953125 -1680.719482421875 800.0001831054688
v 1166.32763671875 -2099.150146484375 800.0001220703125
v 1604.805419921875 -1689.03955078125 800.0001831054688
v 1594.7435302734375 -1684.9256591796875 670.0001831054688
v 1604.8126220703125 -168.73348999023438 670.0000610351562
v 1604.7935791015625 -1689.0679931640625 670.0001831054688
v 1594.7626953125 -164.59130859375 670.0000610351562
v 1604.748046875 -1689.068359375 669.985107421875
v 1624.8082275390625 -177.01736450195312 680.01513671875
v 1624.7928466796875 -1697.352783203125 680.0075073242188
v 1604.763427734375 -168.733154296875 669.9927368164062
v 1624.7781982421875 -1697.3543701171875 679.9751586914062
v 1624.778076171875 -177.01580810546875 720.0250854492188
v 1624.7781982421875 -1697.3543701171875 720.0252075195312
v 1624.778076171875 -177.01580810546875 679.9750366210938
v 1624.7928466796875 -1697.352783203125 719.9928588867188
v 1604.763427734375 -168.733154296875 730.0073852539062
v 1604.748046875 -1689.068359375 730.0152587890625
v 1624.8082275390625 -177.01736450195312 719.9849853515625
v 1604.7781982421875 -1689.0699462890625 729.9751586914062
v 1604.778076171875 -168.73159790039062 740.0250244140625
v 1604.7781982421875 -1689.0699462890625 740.025146484375
v 1604.778076171875 -168.73159790039062 729.9750366210938
v 1604.748046875 -1689.068359375 739.9850463867188
v 1624.8082275390625 -177.017333984375 750.01513671875
v 1624.7928466796875 -1697.352783203125 750.0075073242188
v 1604.763427734375 -168.733154296875 739.99267578125
v 1624.7781982421875 -1697.3543701171875 749.9751586914062
v 1624.778076171875 -177.01577758789062 790.0250244140625
v 1624.7781982421875 -1697.3543701171875 790.025146484375
v 1624.778076171875 -177.01577758789062 749.9750366210938
v 1624.7928466796875 -1697.352783203125 789.9927978515625
v 1604.763427734375 -168.73312377929688 800.0073852539062
v 1604.748046875 -1689.068359375 800.0152587890625
v 1624.8082275390625 -177.017333984375 789.9849243164062
v 1604.7935791015625 -1689.0679931640625 800.0001831054688
v 1584.7626953125 -160.4490966796875 800.0000610351562
v 1584.7435302734375 -1680.7833251953125 800.0001831054688
v 1604.8126220703125 -168.73345947265625 800.0000610351562
v 1594.77783203125 -164.6146697998047 670.0000610351562
v 2068.556640625 295.0118103027344 670.0
v 1604.7861328125 -168.79736328125 670.0000610351562
v 2054.379638671875 295.04742431640625 670.0
v 1604.751220703125 -168.76284790039062 669.9927368164062
v 2096.84228515625 295.0126647949219 680.0037231445312
v 1624.7828369140625 -177.0786895751953 680.01513671875
v 2068.526123046875 295.0442810058594 669.9813842773438
v 1624.7603759765625 -177.05848693847656 679.9750366210938
v 2096.84130859375 295.0224304199219 720.0250244140625
v 1624.7603759765625 -177.05848693847656 720.0250854492188
v 2096.84130859375 295.0224304199219 679.9749755859375
v 1624.7828369140625 -177.0786895751953 719.9849853515625
v 2068.526123046875 295.0442810058594 730.0186157226562
v 1604.751220703125 -168.76284790039062 730.0073852539062
v 2096.84228515625 295.0126647949219 719.9962768554688
v 1604.7603759765625 -168.77427673339844 729.9750366210938
v 2068.556884765625 295.0224304199219 740.0249633789062
v 1604.7603759765625 -168.77427673339844 740.0250244140625
v 2068.556884765625 295.0224304199219 729.9749755859375
v 1604.751220703125 -168.76284790039062 739.99267578125
v 2096.84228515625 295.0126647949219 750.0037231445312
v 1624.7828369140625 -177.0786590576172 750.01513671875
v 2068.526123046875 295.0442810058594 739.9813232421875
v 1624.7603759765625 -177.05845642089844 749.9750366210938
v 2096.84130859375 295.0224304199219 790.0249633789062
v 1624.7603759765625 -177.05845642089844 790.0250244140625
v 2096.84130859375 295.0224304199219 749.9749755859375
v 1624.7774658203125 -177.04139709472656 790.0
v 2068.525634765625 295.0436706542969 800.0186157226562
v 1604.751220703125 -168.7628173828125 800.0073852539062
v 2096.84228515625 295.0126647949219 789.9962158203125
v 1604.7861328125 -168.79733276367188 800.0000610351562
v 2040.2373046875 295.04742431640625 800.0
v 1584.7508544921875 -160.4776153564453 800.0000610351562
v 2068.556884765625 295.0120849609375 800.0
v 2054.397216796875 295.00469970703125 670.0
v 252.6631622314453 2110.89111328125 669.999755859375
v 2068.556884765625 294.9974365234375 670.0
v 252.6277313232422 2096.7138671875 669.999755859375
v 2068.526123046875 294.9652404785156 669.9813842773438
v 252.66250610351562 2139.176513671875 680.0034790039062
v 2096.84228515625 294.9968566894531 680.0037231445312
v 252.63087463378906 2110.8603515625 669.9811401367188
v 2096.84130859375 294.9870910644531 679.9749755859375
v 252.65272521972656 2139.175537109375 720.0247802734375
v 2096.84130859375 294.9870910644531 720.0250244140625
v 252.65272521972656 2139.175537109375 679.9747314453125
v 2096.84228515625 294.9968566894531 719.9962768554688
v 252.63087463378906 2110.8603515625 730.0183715820312
v 2068.526123046875 294.9652404785156 730.0186157226562
v 252.66250610351562 2139.176513671875 719.9960327148438
v 2068.556884765625 294.9870910644531 729.9749755859375
v 252.65272521972656 2110.89111328125 740.0247192382812
v 2068.556884765625 294.9870910644531 740.0249633789062
v 252.65272521972656 2110.89111328125 729.9747314453125
v 2068.526123046875 294.9652404785156 739.9813232421875
v 252.66250610351562 2139.176513671875 750.0034790039062
v 2096.84228515625 294.9968566894531 750.0037231445312
v 252.63087463378906 2110.8603515625 739.9810791015625
v 2096.84130859375 294.9870910644531 749.9749755859375
v 252.65272521972656 2139.175537109375 790.0247192382812
v 2096.84130859375 294.9870910644531 790.0249633789062
v 252.65272521972656 2139.175537109375 749.9747314453125
v 2096.823974609375 295.0046081542969 789.9999389648438
v 252.63104248046875 2110.860107421875 800.0183715820312
v 2068.526123046875 294.9652404785156 800.0186157226562
v 252.66250610351562 2139.176513671875 789.9959716796875
v 2068.556884765625 294.9974365234375 800.0
v 252.6277313232422 2082.57177734375 799.999755859375
v 2040.2373046875 294.96209716796875 800.0
v 252.6630859375 2110.89111328125 799.999755859375
v -1157.621337890625 12.167694091796875 679.9775390625
v -1137.596435546875 12.167694091796875 669.9525146484375
v -1127.560302734375 12.167694091796875 669.9729614257812
v -1157.621337890625 12.167694091796875 720.022216796875
v -1137.621337890625 12.167724609375 730.022216796875
v -1157.621337890625 12.167724609375 790.0221557617188
v -1157.621337890625 12.167724609375 749.9775390625
v -1137.621337890625 12.167724609375 739.9774780273438
v -1117.560302734375 12.167724609375 800.02294921875
v -1137.596435546875 12.167724609375 800.0472412109375
v -1375.070556640625 -518.191650390625 669.9730224609375
v -1375.070556640625 -508.155517578125 669.9525756835938
v -1375.070556640625 -488.130615234375 679.9776000976562
v -1375.070556640625 -488.130615234375 720.0222778320312
v -1375.070556640625 -508.1304931640625 730.0222778320312
v -1375.070556640625 -508.1304931640625 739.9775390625
v -1375.070556640625 -488.130615234375 749.9776000976562
v -1375.070556640625 -488.130615234375 790.022216796875
v -1375.070556640625 -528.1917114257812 800.0230102539062
v -1375.070556640625 -508.155517578125 800.0473022460938
v -626.1636352539062 1178.711669921875 369.557373046875
v -955.00341796875 849.8717651367188 369.5574035644531
v -646.5263671875 1199.074462890625 369.6285400390625
v -975.3661499023438 870.2344360351562 369.6285705566406
v -626.8032836914062 1179.351318359375 3.5584776401519775
v -647.166015625 1199.714111328125 3.6296534538269043
v -955.64306640625 850.5113525390625 3.5584919452667236
v -976.0057983398438 870.8740234375 3.6296677589416504
v -626.1812744140625 1178.6939697265625 369.5823669433594
v -647.1837158203125 1199.6964111328125 3.6046535968780518
v -626.8209838867188 1179.333740234375 3.533477783203125
v -646.5440063476562 1199.056640625 369.6535339355469
v -954.9857177734375 849.889404296875 369.5823974609375
v -955.6254272460938 850.529052734375 3.533492088317871
v -975.9881591796875 870.8917236328125 3.604667901992798
v -975.3484497070312 870.2520751953125 369.653564453125
v -1196.731689453125 -95.42083740234375 259.900634765625
v -1284.094970703125 -182.7837371826172 259.900634765625
v -1215.97021484375 -76.18217468261719 259.900634765625
v -1303.33349609375 -163.54510498046875 259.900634765625
v -1196.731689453125 -95.42086791992188 4.900691986083984
v -1215.97021484375 -76.18220520019531 4.900689125061035
v -1284.094970703125 -182.7837677001953 4.90069580078125
v -1303.33349609375 -163.54513549804688 4.900692939758301
v -1196.7493896484375 -95.43851470947266 259.9256286621094
v -1215.9879150390625 -76.19988250732422 4.8756890296936035
v -1196.7493896484375 -95.43854522705078 4.875691890716553
v -1215.9879150390625 -76.1998519897461 259.9256286621094
v -1284.0772705078125 -182.7660675048828 259.9256286621094
v -1284.0772705078125 -182.76609802246094 4.875695705413818
v -1303.3157958984375 -163.52745056152344 4.875692844390869
v -1303.3157958984375 -163.5274200439453 259.9256286621094
v -1905.4300537109375 -1142.4703369140625 415.850341796875
v -1858.4561767578125 -1142.4703369140625 415.850341796875
v -1905.4300537109375 -1607.5206298828125 415.8503723144531
v -1858.4561767578125 -1607.5206298828125 415.8503723144531
v -1905.4300537109375 -1142.4703369140625 49.85035705566406
v -1905.4300537109375 -1607.5206298828125 49.850399017333984
v -1858.4561767578125 -1142.4703369140625 49.85035705566406
v -1858.4561767578125 -1607.5206298828125 49.850399017333984
v -1858.4561767578125 -1142.495361328125 415.8753356933594
v -1905.4300537109375 -1142.495361328125 49.825355529785156
v -1858.4561767578125 -1142.495361328125 49.825355529785156
v -1905.4300537109375 -1142.495361328125 415.8753356933594
v -1858.4561767578125 -1607.49560546875 415.8753662109375
v -1858.4561767578125 -1607.49560546875 49.82539749145508
v -1905.4300537109375 -1607.49560546875 49.82539749145508
v -1905.4300537109375 -1607.49560546875 415.8753662109375
v -1339.75439453125 -164.61459350585938 19.99989128112793
v -1180.5771484375 -76.22348022460938 19.99989128112793
v -1215.976318359375 -40.82441711425781 19.99988555908203
v -1304.367431640625 -200.0015106201172 19.999897003173828
v -1339.75439453125 -164.61459350585938 4.99989128112793
v -1215.976318359375 -40.82441711425781 4.9998860359191895
v -1180.5771484375 -76.22348022460938 4.999890327453613
v -1304.367431640625 -200.0015106201172 4.999896049499512
v -1180.5948486328125 -76.24115753173828 20.024890899658203
v -1215.9940185546875 -40.84209442138672 4.974885940551758
v -1215.9940185546875 -40.84209442138672 20.024885177612305
v -1180.5948486328125 -76.24115753173828 4.974890232086182
v -1215.9586181640625 -40.84209442138672 20.024885177612305
v -1339.7366943359375 -164.6322784423828 4.974891185760498
v -1339.7366943359375 -164.6322784423828 20.024890899658203
v -1215.9586181640625 -40.84209442138672 4.974885940551758
v -1339.7366943359375 -164.59690856933594 20.024890899658203
v -1304.3497314453125 -199.9838409423828 4.97489595413208
v -1304.3497314453125 -199.9838409423828 20.0248966217041
v -1339.7366943359375 -164.59690856933594 4.974891185760498
v -1304.3851318359375 -199.98382568359375 20.0248966217041
v -1180.5948486328125 -76.20580291748047 4.974890232086182
v -1180.5948486328125 -76.20580291748047 20.024890899658203
v -1304.3851318359375 -199.98382568359375 4.97489595413208
v 1574.8079833984375 -164.9073486328125 799.9750366210938
v 1554.7506103515625 -164.9073486328125 799.9750366210938
v 1574.8079833984375 -164.9073486328125 810.025146484375
v 1554.7506103515625 -164.9073486328125 810.025146484375
v 1554.775634765625 -164.88235473632812 799.9750366210938
v 1554.775634765625 -1674.9300537109375 799.9751586914062
v 1554.775634765625 -164.88235473632812 810.025146484375
v 1554.775634765625 -1674.9300537109375 810.0252685546875
v 1554.7930908203125 -1674.8870849609375 799.9751586914062
v 1164.7557373046875 -2074.9228515625 799.97509765625
v 1554.7930908203125 -1674.8870849609375 810.0252685546875
v 1164.7557373046875 -2074.9228515625 810.0252075195312
v 1164.773193359375 -2074.880126953125 799.97509765625
v 1164.773193359375 -2104.922607421875 799.97509765625
v 1164.773193359375 -2074.880126953125 810.0252075195312
v 1164.773193359375 -2104.922607421875 810.0252075195312
v 1164.7557373046875 -2104.91552734375 799.97509765625
v 1574.800537109375 -1684.8846435546875 799.9751586914062
v 1164.7557373046875 -2104.91552734375 810.0252075195312
v 1574.800537109375 -1684.8846435546875 810.0252685546875
v 1574.782958984375 -1684.9276123046875 799.9751586914062
v 1574.782958984375 -164.88235473632812 799.9750366210938
v 1574.782958984375 -1684.9276123046875 810.0252685546875
v 1574.782958984375 -164.88235473632812 810.025146484375
v 1154.91650390625 -2095.310302734375 909.9031372070312
v 1559.335205078125 -1678.583251953125 905.7925415039062
v 1153.6884765625 -2094.111328125 905.7960815429688
v 1561.0460205078125 -1679.287841796875 909.8995971679688
v 1153.6884765625 -2094.111083984375 905.8421630859375
v 1561.0460205078125 -1679.287841796875 901.78076171875
v 1154.9166259765625 -2095.310302734375 901.777099609375
v 1559.3350830078125 -1678.5831298828125 905.8458251953125
v 1154.927001953125 -2095.285888671875 901.8001098632812
v 1565.01025390625 -1680.90625 900.5686645507812
v 1157.760498046875 -2098.086669921875 900.56591796875
v 1561.0159912109375 -1679.2603759765625 901.8102416992188
v 1157.726318359375 -2098.05322265625 900.56591796875
v 1568.97021484375 -1682.5184326171875 901.8048706054688
v 1160.5941162109375 -2100.85302734375 901.8074951171875
v 1564.9761962890625 -1680.8726806640625 900.5632934570312
v 1160.5712890625 -2100.83056640625 901.7764282226562
v 1570.3768310546875 -1683.0865478515625 905.9539184570312
v 1161.5926513671875 -2101.82763671875 905.9569702148438
v 1568.9537353515625 -1682.500244140625 901.7734375
v 1161.5928955078125 -2101.827880859375 905.9097290039062
v 1568.9534912109375 -1682.5 909.9068603515625
v 1160.571044921875 -2100.830322265625 909.9036254882812
v 1570.376953125 -1683.086669921875 905.9130249023438
v 1160.5943603515625 -2100.818603515625 909.8800659179688
v 1564.8963623046875 -1680.8406982421875 911.304443359375
v 1157.6693115234375 -2097.99755859375 911.3013916015625
v 1568.9700927734375 -1682.518310546875 909.8748168945312
v 1157.7030029296875 -2098.0302734375 911.3016967773438
v 1561.0164794921875 -1679.2608642578125 909.8685302734375
v 1154.892822265625 -2095.287109375 909.8715209960938
v 1564.93017578125 -1680.87353515625 911.2987060546875
v 1561.0311279296875 -1679.324462890625 909.8995971679688
v 1559.3162841796875 -164.88235473632812 905.7960205078125
v 1559.3148193359375 -1678.63330078125 905.7925415039062
v 1561.0325927734375 -164.88235473632812 909.903076171875
v 1559.314697265625 -1678.63330078125 905.8458251953125
v 1561.03271484375 -164.88235473632812 901.7770385742188
v 1561.0311279296875 -1679.324462890625 901.78076171875
v 1559.316162109375 -164.88235473632812 905.8421020507812
v 1561.02294921875 -1679.2999267578125 901.8001708984375
v 1565.0069580078125 -164.88241577148438 900.5658569335938
v 1564.9984130859375 -1680.9354248046875 900.5686645507812
v 1560.9990234375 -164.88235473632812 901.8074340820312
v 1564.9505615234375 -1680.9354248046875 900.5632934570312
v 1568.966796875 -164.88235473632812 901.8074340820312
v 1568.958251953125 -1682.5477294921875 901.8048706054688
v 1564.9591064453125 -164.88235473632812 900.5658569335938
v 1568.933837890625 -1682.5491943359375 901.7734375
v 1570.362548828125 -164.88235473632812 905.9569091796875
v 1570.361572265625 -1683.1241455078125 905.9539184570312
v 1568.934814453125 -164.88235473632812 901.7763671875
v 1570.36181640625 -1683.1241455078125 905.9130249023438
v 1568.9344482421875 -164.88235473632812 909.903564453125
v 1568.9334716796875 -1682.5491943359375 909.9068603515625
v 1570.3629150390625 -164.88235473632812 905.90966796875
v 1568.9429931640625 -1682.5245361328125 909.880126953125
v 1564.8795166015625 -164.88241577148438 911.3013305664062
v 1564.8709716796875 -1680.9029541015625 911.304443359375
v 1568.9664306640625 -164.88235473632812 909.8717651367188
v 1564.918212890625 -1680.9029541015625 911.2987060546875
v 1560.99951171875 -164.88235473632812 909.8714599609375
v 1560.9910888671875 -1679.3231201171875 909.8685302734375
v 1564.926513671875 -164.88235473632812 911.3016357421875
v 1153.679931640625 -2094.06787109375 905.819091796875
v 1161.63818359375 -2101.837158203125 905.9336547851562
v 1154.904541015625 -2095.263671875 909.9132080078125
v 1154.9053955078125 -2095.264404296875 901.7664794921875
v 1160.61669921875 -2100.840087890625 901.7681274414062
v 1157.7608642578125 -2098.052001953125 900.5255126953125
v 1160.6171875 -2100.840576171875 909.912109375
v 1157.703369140625 -2097.995849609375 911.3402709960938
v 1560.9913330078125 -164.9073486328125 909.9131469726562
v 1570.4017333984375 -164.9073486328125 905.93359375
v 1559.27978515625 -164.9073486328125 905.8190307617188
v 1568.973876953125 -164.9073486328125 901.76806640625
v 1560.9925537109375 -164.9073486328125 901.7664184570312
v 1564.9830322265625 -164.9073486328125 900.5254516601562
v 1568.974609375 -164.9073486328125 909.9120483398438
v 1564.90283203125 -164.9073486328125 911.3402099609375
v 1157.6717529296875 -2097.999755859375 899.8251342773438
v 1564.8004150390625 -1680.8128662109375 819.9751586914062
v 1157.6002197265625 -2097.93017578125 819.97509765625
v 1564.9005126953125 -1680.853759765625 899.8251342773438
v 1157.6002197265625 -2097.93017578125 819.97509765625
v 1564.9005126953125 -1680.853759765625 899.8251342773438
v 1157.6717529296875 -2097.999755859375 899.8251342773438
v 1564.8004150390625 -1680.8128662109375 819.9751586914062
v 1564.883056640625 -1680.8966064453125 899.8251342773438
v 1564.782958984375 -164.88235473632812 819.9750366210938
v 1564.782958984375 -1680.8558349609375 819.9751586914062
v 1564.8829345703125 -164.88235473632812 899.8250732421875
v 1564.782958984375 -1680.8558349609375 819.9751586914062
v 1564.8829345703125 -164.88235473632812 899.8250732421875
v 1564.883056640625 -1680.8966064453125 899.8251342773438
v 1564.782958984375 -164.88235473632812 819.9750366210938
v 1554.7506103515625 -164.88235473632812 810.0001220703125
v 1554.739501953125 -1674.9273681640625 810.000244140625
v 1574.8079833984375 -164.88235473632812 810.0001220703125
v 1164.7303466796875 -2074.8876953125 810.0001831054688
v 1164.76611328125 -2104.915283203125 810.0001831054688
v 1574.804443359375 -1684.911376953125 810.000244140625
v 1569.8397216796875 -1672.805419921875 799.9751586914062
v 1559.7921142578125 -1672.805419921875 799.9751586914062
v 1569.8397216796875 -1672.805419921875 905.5252075195312
v 1559.7921142578125 -1672.805419921875 905.5252075195312
v 1559.817138671875 -1672.7803955078125 799.9751586914062
v 1559.817138671875 -1682.8280029296875 799.9751586914062
v 1559.817138671875 -1672.7803955078125 905.5252075195312
v 1559.817138671875 -1682.8280029296875 905.5252075195312
v 1559.7921142578125 -1682.802978515625 799.9751586914062
v 1569.8397216796875 -1682.802978515625 799.9751586914062
v 1559.7921142578125 -1682.802978515625 905.5252075195312
v 1569.8397216796875 -1682.802978515625 905.5252075195312
v 1569.814697265625 -1682.8280029296875 799.9751586914062
v 1569.814697265625 -1672.7803955078125 799.9751586914062
v 1569.814697265625 -1682.8280029296875 905.5252075195312
v 1569.814697265625 -1672.7803955078125 905.5252075195312
v 1559.7921142578125 -1672.7803955078125 905.5001831054688
v 1559.7921142578125 -1682.8280029296875 905.5001831054688
v 1569.8397216796875 -1672.7803955078125 905.5001831054688
v 1569.8397216796875 -1682.8280029296875 905.5001831054688
v 1559.9141845703125 -1174.905029296875 799.97509765625
v 1569.9619140625 -1174.905029296875 799.97509765625
v 1559.9141845703125 -1174.905029296875 905.525146484375
v 1569.9619140625 -1174.905029296875 905.525146484375
v 1569.9368896484375 -1174.9300537109375 799.97509765625
v 1569.9368896484375 -1164.8824462890625 799.97509765625
v 1569.9368896484375 -1174.9300537109375 905.525146484375
v 1569.9368896484375 -1164.8824462890625 905.525146484375
v 1569.9619140625 -1164.907470703125 799.97509765625
v 1559.9141845703125 -1164.907470703125 799.97509765625
v 1569.9619140625 -1164.907470703125 905.525146484375
v 1559.9141845703125 -1164.907470703125 905.525146484375
v 1559.939208984375 -1164.8824462890625 799.97509765625
v 1559.939208984375 -1174.9300537109375 799.97509765625
v 1559.939208984375 -1164.8824462890625 905.525146484375
v 1559.939208984375 -1174.9300537109375 905.525146484375
v 1559.9141845703125 -1174.9300537109375 905.5001220703125
v 1569.9619140625 -1174.9300537109375 905.5001220703125
v 1569.9619140625 -1164.8824462890625 905.5001220703125
v 1559.9141845703125 -1164.8824462890625 905.5001220703125
v 1559.9141845703125 -664.9073486328125 799.9750366210938
v 1569.9617919921875 -664.9073486328125 799.9750366210938
v 1559.9141845703125 -664.9073486328125 905.5250854492188
v 1569.9617919921875 -664.9073486328125 905.5250854492188
v 1569.936767578125 -664.932373046875 799.9750366210938
v 1569.936767578125 -654.87255859375 799.9750366210938
v 1569.936767578125 -664.932373046875 905.5250854492188
v 1569.936767578125 -654.87255859375 905.5250854492188
v 1569.9617919921875 -654.8975830078125 799.9750366210938
v 1559.9141845703125 -654.8975830078125 799.9750366210938
v 1569.9617919921875 -654.8975830078125 905.5250854492188
v 1559.9141845703125 -654.8975830078125 905.5250854492188
v 1559.939208984375 -654.87255859375 799.9750366210938
v 1559.939208984375 -664.932373046875 799.9750366210938
v 1559.939208984375 -654.87255859375 905.5250854492188
v 1559.939208984375 -664.932373046875 905.5250854492188
v 1559.9141845703125 -664.932373046875 905.5000610351562
v 1569.9617919921875 -664.932373046875 905.5000610351562
v 1569.9617919921875 -654.87255859375 905.5000610351562
v 1559.9141845703125 -654.87255859375 905.5000610351562
v 976.0469970703125 1373.3194580078125 374.974853515625
v 989.3148193359375 1386.5872802734375 374.974853515625
v 976.0469970703125 1373.3194580078125 395.02484130859375
v 989.3148193359375 1386.5872802734375 395.02484130859375
v 989.3148193359375 1386.5518798828125 374.974853515625
v 253.86671447753906 2121.999755859375 374.9747619628906
v 989.3148193359375 1386.5518798828125 395.02484130859375
v 253.86671447753906 2121.999755859375 395.0247497558594
v 253.90208435058594 2121.999755859375 374.9747619628906
v -484.1458435058594 1383.9395751953125 374.97479248046875
v 253.90208435058594 2121.999755859375 395.0247497558594
v -484.1458435058594 1383.9395751953125 395.0247802734375
v -484.1458435058594 1383.9749755859375 374.97479248046875
v -473.4903869628906 1373.3194580078125 374.97479248046875
v -484.1458435058594 1383.9749755859375 395.0247802734375
v -473.4903869628906 1373.3194580078125 395.0247802734375
v 253.8843994140625 2121.999755859375 394.999755859375
v 976.064697265625 1373.3017578125 394.9998474121094
v 989.3324584960938 1386.569580078125 394.9998474121094
v -484.1635437011719 1383.957275390625 394.9997863769531
v -473.508056640625 1373.3017578125 394.9997863769531
v 251.3146209716797 2098.109130859375 394.999755859375
v 976.0469970703125 1373.3194580078125 624.9747924804688
v 989.3148193359375 1386.5872802734375 624.9747924804688
v 976.0469970703125 1373.3194580078125 645.0248413085938
v 989.3148193359375 1386.5872802734375 645.0248413085938
v 989.3148193359375 1386.5518798828125 624.9747924804688
v 253.86671447753906 2121.999755859375 624.9747314453125
v 989.3148193359375 1386.5518798828125 645.0248413085938
v 253.86671447753906 2121.999755859375 645.0247802734375
v 253.90208435058594 2121.999755859375 624.9747314453125
v -484.1458435058594 1383.9395751953125 624.9747314453125
v 253.90208435058594 2121.999755859375 645.0247802734375
v -484.1458435058594 1383.9395751953125 645.0247802734375
v -484.1458435058594 1383.9749755859375 624.9747314453125
v -473.4903869628906 1373.3194580078125 624.9747314453125
v -484.1458435058594 1383.9749755859375 645.0247802734375
v -473.4903869628906 1373.3194580078125 645.0247802734375
v 253.8843994140625 2121.999755859375 644.999755859375
v 976.064697265625 1373.3017578125 644.9998168945312
v 989.3324584960938 1386.569580078125 644.9998168945312
v -484.1635437011719 1383.957275390625 644.999755859375
v -473.508056640625 1373.3017578125 644.999755859375
v 251.3146209716797 2098.109130859375 644.999755859375
v -1905.5753173828125 -1615.786376953125 -0.025006050243973732
v -1935.6302490234375 -1615.786376953125 -0.02500736154615879
v -1905.5753173828125 -1615.786376953125 680.0250244140625
v -1935.6302490234375 -1615.786376953125 680.0250244140625
v -1935.605224609375 -1615.7613525390625 -0.02500736154615879
v -1935.605224609375 -1645.8162841796875 -0.025004738941788673
v -1935.605224609375 -1615.7613525390625 680.0250244140625
v -1935.605224609375 -1645.8162841796875 680.0250244140625
v -1935.6302490234375 -1645.791259765625 -0.025004738941788673
v -1905.5753173828125 -1645.791259765625 -0.025003427639603615
v -1935.6302490234375 -1645.791259765625 680.0250244140625
v -1905.5753173828125 -1645.791259765625 680.0250244140625
v -1935.6302490234375 -1615.7613525390625 680.0
v -1935.6302490234375 -1645.8162841796875 680.0
v -1905.5753173828125 -1615.7613525390625 680.0
v -1905.5753173828125 -1645.8162841796875 680.0
v -1905.5753173828125 -1109.927001953125 -0.025050275027751923
v -1935.6302490234375 -1109.927001953125 -0.02505158632993698
v -1905.5753173828125 -1109.927001953125 680.0249633789062
v -1935.6302490234375 -1109.927001953125 680.0249633789062
v -1935.605224609375 -1109.9019775390625 -0.025051584467291832
v -1935.605224609375 -1139.9447021484375 -0.025048961862921715
v -1935.605224609375 -1109.9019775390625 680.0249633789062
v -1935.605224609375 -1139.9447021484375 680.0249633789062
v -1935.6302490234375 -1139.919677734375 -0.025048963725566864
v -1905.5753173828125 -1139.919677734375 -0.025047652423381805
v -1935.6302490234375 -1139.919677734375 680.0249633789062
v -1905.5753173828125 -1139.919677734375 680.0249633789062
v -1935.6302490234375 -1109.9019775390625 679.9999389648438
v -1935.6302490234375 -1139.9447021484375 679.9999389648438
v -1905.5753173828125 -1109.9019775390625 679.9999389648438
v -1905.5753173828125 -1139.9447021484375 679.9999389648438
v -2045.602783203125 -1054.9703369140625 -0.025061193853616714
v -2045.602783203125 -1705.0203857421875 -0.025004370138049126
v -2045.602783203125 -1054.9703369140625 20.024938583374023
v -2045.602783203125 -1705.0203857421875 20.024995803833008
v -1945.602783203125 -1705.0203857421875 -0.02499999850988388
v -1945.602783203125 -1054.9703369140625 -0.02505682408809662
v -1945.602783203125 -1705.0203857421875 20.024999618530273
v -1945.602783203125 -1054.9703369140625 20.02494239807129
v -2045.6278076171875 -1054.9703369140625 19.99993896484375
v -2045.6278076171875 -1705.0203857421875 19.999996185302734
v -1945.5777587890625 -1054.9703369140625 19.999942779541016
v -1945.5777587890625 -1705.0203857421875 20.0
v -1945.602783203125 -1054.9703369140625 -0.02505682408809662
v -1945.602783203125 -1705.0203857421875 -0.02499999850988388
v -1945.602783203125 -1054.9703369140625 40.02494430541992
v -1945.602783203125 -1705.0203857421875 40.025001525878906
v -1945.6278076171875 -1054.9703369140625 39.999942779541016
v -1945.6278076171875 -1705.0203857421875 40.0
v -1845.5777587890625 -1054.9703369140625 39.99994659423828
v -1845.5777587890625 -1705.0203857421875 40.000003814697266
v 1029.0743408203125 1320.2921142578125 -0.025134453549981117
v 1046.7855224609375 1338.0032958984375 -0.0251352209597826
v 1029.0743408203125 1320.2921142578125 700.02490234375
v 1046.785400390625 1338.0032958984375 700.02490234375
v 1046.7855224609375 1337.9678955078125 -0.0251352209597826
v 976.0347900390625 1408.7186279296875 -0.02514449879527092
v 1046.785400390625 1337.9678955078125 700.02490234375
v 976.0347900390625 1408.7186279296875 700.0248413085938
v 976.0701904296875 1408.7186279296875 -0.02514449879527092
v 958.3590087890625 1391.0074462890625 -0.02514372579753399
v 976.0701904296875 1408.7186279296875 700.0248413085938
v 958.3590087890625 1391.0074462890625 700.0248413085938
v 976.052490234375 1408.736328125 699.9998168945312
v 1029.092041015625 1320.2744140625 699.9998779296875
v 1046.8031005859375 1337.985595703125 699.9998779296875
v 958.3413696289062 1391.025146484375 699.9998168945312
v 304.2939758300781 2045.0723876953125 -0.025229496881365776
v 322.0050964355469 2062.783447265625 -0.025230269879102707
v 304.2939758300781 2045.0723876953125 700.0247802734375
v 322.0050964355469 2062.783447265625 700.0247802734375
v 322.0050964355469 2062.748291015625 -0.025230269879102707
v 251.25440979003906 2133.498779296875 -0.02523954212665558
v 322.0050964355469 2062.748291015625 700.0247802734375
v 251.25440979003906 2133.498779296875 700.0247802734375
v 251.28976440429688 2133.498779296875 -0.02523953840136528
v 180.55130004882812 2062.748291015625 -0.025236446410417557
v 251.28976440429688 2133.498779296875 700.024658203125
v 180.55130004882812 2062.748291015625 700.024658203125
v 180.55128479003906 2062.783447265625 -0.025236450135707855
v 251.28977966308594 1992.0450439453125 -0.025227179750800133
v 180.55128479003906 2062.783447265625 700.0247802734375
v 251.28977966308594 1992.0450439453125 700.0248413085938
v 251.25440979003906 1992.0450439453125 -0.025227176025509834
v 304.3293151855469 2045.1077880859375 -0.025229493156075478
v 251.25440979003906 1992.0450439453125 700.0247192382812
v 304.3293151855469 2045.1077880859375 700.024658203125
v 251.2720947265625 2133.5166015625 699.999755859375
v 251.2720947265625 1992.02734375 699.9998168945312
v 304.34698486328125 2045.0546875 699.999755859375
v 322.0227966308594 2062.765869140625 699.999755859375
v 180.5336151123047 2062.765869140625 699.999755859375
v -473.4903869628906 1373.3194580078125 -0.025204770267009735
v -491.2015075683594 1391.0306396484375 -0.02520708739757538
v -473.4903869628906 1373.3194580078125 700.0247802734375
v -491.2015075683594 1391.0306396484375 700.0247802734375
v -491.1661682128906 1391.0306396484375 -0.02520708553493023
v -561.9168701171875 1320.2921142578125 -0.025203995406627655
v -491.1661682128906 1391.0306396484375 700.024658203125
v -561.9168701171875 1320.2921142578125 700.0247192382812
v -561.9168701171875 1320.3275146484375 -0.025203997269272804
v -544.2056884765625 1302.6163330078125 -0.02520168013870716
v -561.9168701171875 1320.3275146484375 700.0248413085938
v -544.2056884765625 1302.6163330078125 700.0248413085938
v -544.2410888671875 1302.6163330078125 -0.025201676413416862
v -473.4903869628906 1373.3548583984375 -0.025204766541719437
v -544.2410888671875 1302.6163330078125 700.0247192382812
v -473.4903869628906 1373.3548583984375 700.024658203125
v -473.47271728515625 1373.337158203125 699.999755859375
v -491.183837890625 1391.04833984375 699.999755859375
v -544.223388671875 1302.5986328125 699.9998168945312
v -561.9345092773438 1320.309814453125 699.9998168945312
v 1264.74853515625 -254.86875915527344 800.0
v 1584.8233642578125 -1684.9202880859375 800.0001831054688
v 1594.8031005859375 -254.8727569580078 800.0000610351562
v 1154.7259521484375 -964.90380859375 800.0000610351562
v 1164.76611328125 -2114.925048828125 800.0001220703125
v -1886.8009033203125 -1057.070556640625 749.9749145507812
v -2096.848388671875 -1057.070556640625 749.9749145507812
v -1886.8009033203125 -1057.070556640625 800.0249633789062
v -2096.848388671875 -1057.070556640625 800.0249633789062
v -2096.823486328125 -1057.0455322265625 749.9749145507812
v -2096.823486328125 -1707.0955810546875 749.9749755859375
v -2096.823486328125 -1057.0455322265625 800.0249633789062
v -2096.823486328125 -1707.0955810546875 800.0250244140625
v -2096.848388671875 -1707.070556640625 749.9749755859375
v -1886.8009033203125 -1707.070556640625 749.9749755859375
v -2096.848388671875 -1707.070556640625 800.0250244140625
v -1886.8009033203125 -1707.070556640625 800.0250244140625
v -2096.848388671875 -1057.0455322265625 749.9999389648438
v -1886.8009033203125 -1057.0455322265625 749.9999389648438
v -2096.848388671875 -1707.0955810546875 750.0
v -1886.8009033203125 -1707.0955810546875 750.0
v -2096.848388671875 -1057.0455322265625 799.9999389648438
v -2096.848388671875 -1707.0955810546875 800.0
v -1886.8009033203125 -1057.0455322265625 799.9999389648438
v -1886.8009033203125 -1707.0955810546875 800.0
v 1594.778076171875 -632.5471801757812 99.97505950927734
v 1594.778076171875 -232.49716186523438 99.97502136230469
v 1594.778076171875 -232.49716186523438 300.0250244140625
v 1594.778076171875 -632.5471801757812 300.0250549316406
v 251.2295684814453 2098.11474609375 644.999755859375
v 251.2295684814453 2098.11474609375 394.999755859375
v 1554.7689208984375 -1674.865234375 810.000244140625
v 2096.842041015625 294.99700927734375 789.9962158203125
v 252.67025756835938 2110.873779296875 799.999755859375
v 2054.37939453125 294.962158203125 670.0
v 252.6703338623047 2110.87353515625 669.999755859375
v 1624.783447265625 -177.07803344726562 789.9849243164062
v 2068.539794921875 295.00537109375 800.0
v 1594.7510986328125 -164.61956787109375 670.0000610351562
v 2068.53955078125 295.0050354003906 670.0
v 1604.77880859375 -1689.0443115234375 800.0001831054688
v 1170.4700927734375 -2109.149658203125 670.0001220703125
v 1604.7784423828125 -1689.044677734375 670.0001831054688
v 1174.6527099609375 -2119.15771484375 800.0001220703125
v -2046.841064453125 -2109.115234375 670.0
v 1174.65283203125 -2119.15771484375 670.0001220703125
v -2056.823486328125 -2119.158935546875 800.0
v -2046.78076171875 -1684.958740234375 670.0
v -2056.823486328125 -2119.158203125 670.0
v -1935.4422607421875 -1094.8287353515625 789.9812622070312
v -1915.40478515625 -1674.97705078125 800.0
v -1915.40478515625 -1674.9764404296875 670.0
v -2056.8232421875 -1074.8494873046875 800.0
v -2046.7889404296875 -907.0490112304688 669.9999389648438
v -2056.823486328125 -1074.847900390625 669.9999389648438
v -2056.82421875 -902.9291381835938 799.9999389648438
v -1657.8792724609375 -518.1752319335938 669.9998779296875
v -2056.82373046875 -902.9287109375 669.9999389648438
v -1662.063720703125 -508.16680908203125 799.9999389648438
v -1375.04638671875 -518.1917114257812 669.9999389648438
v -1662.0626220703125 -508.166748046875 669.9998779296875
v -1157.5997314453125 728.9248657226562 789.9924926757812
v -1137.585205078125 12.166945457458496 799.9998779296875
v -1127.5506591796875 716.4985961914062 669.9998168945312
v -1137.585205078125 12.167339324951172 669.9998779296875
v 252.67811584472656 2139.17626953125 789.9959716796875
v -1137.58544921875 720.6177368164062 799.9998168945312
v 252.71299743652344 2096.713623046875 669.999755859375
v -1137.5853271484375 720.6178588867188 669.9998168945312
v 1568.9581298828125 -1682.5477294921875 909.8748168945312
v 1564.903076171875 -164.9072723388672 911.2930908203125
v 1560.9903564453125 -1679.322998046875 901.8102416992188
v 1564.9830322265625 -164.90728759765625 900.5732421875
v 1160.593994140625 -2100.8525390625 909.871826171875
v 1564.9031982421875 -1680.8795166015625 911.293212890625
v 1154.8927001953125 -2095.28662109375 901.8074951171875
v 1564.9832763671875 -1680.9119873046875 900.5733642578125
f 634 633 635
f 635 636 634
f 101 100 102
f 101 102 108
f 108 106 101
f 106 108 98
f 99 106 98
f 98 97 99
f 99 97 100
f 100 97 104
f 102 100 104
f 103 102 104
f 104 105 103
f 103 105 107
f 107 105 98
f 108 107 98
f 646 645 647
f 647 645 648
f 644 641 642
f 642 641 643
f 10 9 11
f 11 12 10
f 10 12 13
f 13 12 2
f 3 13 2
f 2 1 3
f 3 1 4
f 4 1 5
f 5 1 11
f 9 5 11
f 7 5 9
f 8 7 9
f 8 9 15
f 15 9 3
f 14 15 3
f 4 14 3
f 6 5 7
f 6 7 16
f 16 14 6
f 16 15 14
f 23 22 20
f 20 24 23
f 21 24 20
f 20 19 21
f 19 17 21
f 18 17 19
f 638 637 639
f 639 640 638
f 62 61 63
f 64 62 63
f 710 709 711
f 712 710 711
f 706 705 707
f 708 706 707
f 670 669 671
f 672 670 671
f 666 665 667
f 666 667 668
f 654 653 655
f 655 656 654
f 650 649 651
f 651 652 650
f 629 628 630
f 624 623 625
f 625 623 626
f 626 623 627
f 627 623 628
f 628 623 631
f 630 628 631
f 632 630 631
f 704 701 702
f 702 701 703
f 700 697 698
f 698 697 699
f 696 693 694
f 694 693 695
f 692 689 690
f 690 689 691
f 686 685 687
f 688 687 685
f 681 682 684
f 682 681 683
f 678 677 679
f 679 677 680
f 676 673 674
f 674 673 675
f 662 661 663
f 663 661 664
f 660 657 658
f 658 657 659
f 999 1000 1002
f 1000 999 1001
f 933 932 934
f 934 932 929
f 929 930 1077
f 930 929 931
f 888 887 889
f 887 890 889
f 868 867 869
f 867 870 869
f 90 89 91
f 91 89 93
f 92 91 93
f 93 96 92
f 92 96 95
f 95 94 92
f 619 618 620
f 614 613 615
f 613 616 615
f 616 617 615
f 617 620 615
f 620 621 615
f 618 621 620
f 622 621 618
f 50 49 51
f 52 50 51
f 46 45 47
f 48 46 47
f 42 41 43
f 44 42 43
f 38 37 39
f 40 38 39
f 34 33 35
f 36 34 35
f 26 25 27
f 27 32 26
f 32 31 26
f 29 31 32
f 30 31 29
f 29 28 30
f 28 25 30
f 27 25 28
f 911 910 912
f 912 910 907
f 907 908 1078
f 908 907 909
f 88 87 82
f 83 88 82
f 82 81 83
f 83 81 84
f 84 81 86
f 85 84 86
f 86 87 85
f 85 87 88
f 55 60 54
f 54 53 55
f 55 53 56
f 56 53 58
f 57 56 58
f 58 59 57
f 57 59 60
f 60 59 54
f 1070 1069 1071
f 1072 1070 1071
f 1066 1065 1067
f 1066 1067 1068
f 1062 1061 1063
f 1064 1062 1063
f 1058 1057 1059
f 1060 1058 1059
f 1054 1053 1055
f 1056 1054 1055
f 1052 1051 1048
f 1048 1049 1052
f 1049 1048 1050
f 1024 1027 1023
f 1024 1023 1025
f 1025 1023 1026
f 66 65 67
f 68 66 67
f 70 69 71
f 72 70 71
f 74 73 75
f 75 80 74
f 80 79 74
f 77 79 80
f 78 79 77
f 77 76 78
f 76 73 78
f 75 73 76
f 1045 1044 1046
f 1046 1047 1045
f 1041 1040 1042
f 1043 1041 1042
f 1037 1036 1038
f 1039 1037 1038
f 1033 1032 1034
f 1035 1033 1034
f 1029 1028 1030
f 1031 1029 1030
f 1020 1019 1021
f 1022 1020 1021
f 1016 1015 1017
f 1018 1016 1017
f 1012 1011 1013
f 1014 1012 1013
f 1008 1007 1009
f 1010 1008 1009
f 1004 1003 1005
f 1006 1004 1005
f 996 995 997
f 998 996 997
f 992 991 993
f 994 992 993
f 988 987 989
f 990 988 989
f 984 983 985
f 986 984 985
f 976 975 977
f 978 976 977
f 972 971 973
f 974 972 973
f 964 963 965
f 966 964 965
f 960 959 961
f 962 960 961
f 952 951 953
f 954 952 953
f 948 947 949
f 950 948 949
f 944 943 945
f 946 944 945
f 936 935 937
f 938 936 937
f 926 925 927
f 928 926 927
f 914 913 915
f 916 914 915
f 904 903 905
f 906 904 905
f 892 891 893
f 894 892 893
f 884 883 885
f 886 884 885
f 880 879 881
f 882 880 881
f 876 875 877
f 878 876 877
f 872 871 873
f 874 872 873
f 864 863 865
f 866 864 865
f 860 859 861
f 862 860 861
f 856 855 857
f 858 856 857
f 852 851 853
f 854 852 853
f 848 847 849
f 850 848 849
f 844 843 845
f 846 844 845
f 840 839 841
f 842 840 841
f 836 835 837
f 838 836 837
f 832 831 833
f 834 832 833
f 826 825 827
f 827 830 826
f 1079 830 829
f 829 828 1079
f 726 725 727
f 728 726 727
f 722 721 723
f 724 722 723
f 718 717 719
f 720 718 719
f 714 713 715
f 716 714 715
f 610 612 609
f 610 609 611
f 606 608 605
f 1081 1080 607
f 602 604 601
f 602 601 603
f 598 600 597
f 598 597 599
f 594 596 593
f 594 593 595
f 590 592 589
f 590 589 591
f 586 588 585
f 586 585 587
f 582 584 581
f 582 581 583
f 578 580 577
f 1083 1082 579
f 574 576 573
f 574 573 575
f 570 572 569
f 1085 1084 571
f 566 568 565
f 566 565 567
f 562 564 561
f 562 561 563
f 558 560 557
f 558 557 559
f 554 556 553
f 554 553 555
f 550 552 549
f 550 549 551
f 546 548 545
f 546 545 547
f 542 544 541
f 1087 1086 543
f 538 540 537
f 538 537 539
f 534 536 533
f 534 533 535
f 530 532 529
f 530 529 531
f 526 528 525
f 526 525 527
f 522 524 521
f 522 521 523
f 518 520 517
f 518 517 519
f 514 516 513
f 514 513 515
f 510 512 509
f 510 509 511
f 506 508 505
f 506 505 507
f 502 504 501
f 502 501 503
f 498 500 497
f 1088 497 499
f 494 496 493
f 494 493 495
f 490 492 489
f 490 489 491
f 486 488 485
f 486 485 487
f 482 484 481
f 482 481 483
f 478 480 477
f 478 477 479
f 474 476 473
f 474 473 475
f 470 472 469
f 1090 1089 471
f 466 468 465
f 466 465 467
f 462 464 461
f 1091 461 463
f 458 460 457
f 458 457 459
f 454 456 453
f 454 453 455
f 450 452 449
f 450 449 451
f 446 448 445
f 446 445 447
f 442 444 441
f 442 441 443
f 438 440 437
f 438 437 439
f 434 436 433
f 1093 1092 435
f 430 432 429
f 430 429 431
f 426 428 425
f 1094 425 427
f 422 424 421
f 422 421 423
f 418 420 417
f 418 417 419
f 414 416 413
f 414 413 415
f 410 412 409
f 410 409 411
f 406 408 405
f 406 405 407
f 402 404 401
f 402 401 403
f 398 400 397
f 1096 1095 399
f 394 396 393
f 394 393 395
f 390 392 389
f 390 389 391
f 386 388 385
f 386 385 387
f 382 384 381
f 382 381 383
f 378 380 377
f 378 377 379
f 374 376 373
f 374 373 375
f 370 372 369
f 370 369 371
f 366 368 365
f 366 365 367
f 362 364 361
f 362 361 363
f 358 360 357
f 358 357 359
f 354 356 353
f 1098 1097 355
f 350 352 349
f 350 349 351
f 346 348 345
f 346 345 347
f 342 344 341
f 342 341 343
f 338 340 337
f 338 337 339
f 334 336 333
f 334 333 335
f 330 332 329
f 330 329 331
f 326 328 325
f 1099 325 327
f 322 324 321
f 322 321 323
f 318 320 317
f 318 317 319
f 314 316 313
f 314 313 315
f 310 312 309
f 310 309 311
f 306 308 305
f 306 305 307
f 302 304 301
f 302 301 303
f 298 300 297
f 298 297 299
f 294 296 293
f 294 293 295
f 290 292 289
f 290 289 291
f 286 288 285
f 286 285 287
f 282 284 281
f 1100 281 283
f 278 280 277
f 278 277 279
f 274 276 273
f 274 273 275
f 270 272 269
f 270 269 271
f 266 268 265
f 266 265 267
f 262 264 261
f 262 261 263
f 258 260 257
f 258 257 259
f 254 256 253
f 1102 1101 255
f 250 252 249
f 250 249 251
f 246 248 245
f 1103 245 247
f 242 244 241
f 242 241 243
f 238 240 237
f 238 237 239
f 234 236 233
f 234 233 235
f 230 232 229
f 230 229 231
f 226 228 225
f 226 225 227
f 222 224 221
f 222 221 223
f 218 220 217
f 1105 1104 219
f 214 216 213
f 214 213 215
f 210 212 209
f 1106 209 211
f 206 208 205
f 206 205 207
f 202 204 201
f 202 201 203
f 198 200 197
f 198 197 199
f 194 196 193
f 194 193 195
f 190 192 189
f 190 189 191
f 186 188 185
f 186 185 187
f 182 184 181
f 1108 1107 183
f 178 180 177
f 178 177 179
f 174 176 173
f 1110 1109 175
f 170 172 169
f 170 169 171
f 166 168 165
f 166 165 167
f 162 164 161
f 162 161 163
f 158 160 157
f 158 157 159
f 154 156 153
f 154 153 155
f 150 152 149
f 150 149 151
f 146 148 145
f 1112 1111 147
f 142 144 141
f 142 141 143
f 138 140 137
f 1114 1113 139
f 134 136 133
f 134 133 135
f 130 132 129
f 130 129 131
f 126 128 125
f 126 125 127
f 122 124 121
f 122 121 123
f 118 120 117
f 118 117 119
f 114 116 113
f 114 113 115
f 110 112 109
f 1116 1115 111
f 734 736 733
f 734 733 735
f 730 732 729
f 730 729 731
f 790 792 789
f 790 789 791
f 786 788 785
f 1118 1117 787
f 782 784 781
f 782 781 783
f 778 780 777
f 778 777 779
f 774 776 773
f 774 773 775
f 770 772 769
f 1120 1119 771
f 766 768 765
f 766 765 767
f 762 764 761
f 762 761 763
f 758 760 757
f 758 757 759
f 754 756 753
f 1122 1121 755
f 750 752 749
f 750 749 751
f 746 748 745
f 746 745 747
f 742 744 741
f 742 741 743
f 738 740 737
f 1124 1123 739
f 807 808 801
f 807 801 802
f 802 801 803
f 803 804 802
f 804 803 805
f 804 805 806
f 797 798 796
f 797 796 793
f 793 794 797
f 794 793 795
f 799 794 795
f 799 795 800
f 896 895 897
f 898 896 897
f 922 921 923
f 924 922 923
f 918 917 919
f 920 918 919
f 900 899 901
f 902 900 901
f 940 939 941
f 942 940 941
f 980 979 981
f 982 980 981
f 968 967 969
f 970 968 969
f 956 955 957
f 958 956 957
f 1074 1073 1075
f 1075 1073 1076
f 810 812 809
f 810 809 811
f 822 824 821
f 822 821 823
f 818 820 817
f 818 817 819
f 814 816 813
f 814 813 815
