# from FinancialDistrict_Block02_Upmarket Corporate (UC)_0009_LOD_0.pskx
v 1500.00048828125 -599.9888305664062 -3.496964927762747e-05
v 1500.00048828125 600.0111083984375 -0.00013987698184791952
v 1499.99951171875 -599.9867553710938 24036.0
v 1499.99951171875 600.0133056640625 24036.0
v 1500.00048828125 600.0111083984375 -0.00013987698184791952
v 600.0127563476562 1499.9989013671875 -0.0002578961430117488
v 1499.99951171875 600.0133056640625 24036.0
v 600.01171875 1500.0010986328125 24036.0
v 600.0126953125 1499.9989013671875 -0.0002578961430117488
v -599.9873046875 1499.9989013671875 -0.0003103498020209372
v 600.0116577148438 1500.0010986328125 24036.0
v -599.9884033203125 1500.0010986328125 24036.0
v -599.9873046875 1499.9989013671875 -0.0003103498020209372
v -1499.999755859375 600.0108642578125 -0.0002710111439228058
v -599.9884033203125 1500.0010986328125 24036.0
v -1500.000732421875 600.0130615234375 24036.0
v -1499.99951171875 600.0111083984375 -0.0002710111439228058
v -1499.9993896484375 -599.9889526367188 -0.00016610381135251373
v -1500.00048828125 600.0133056640625 24036.0
v -1500.00048828125 -599.9868774414062 24036.0
v -1499.9993896484375 -599.9889526367188 -0.00016610381135251373
v -599.9871826171875 -1500.0010986328125 -4.808146695722826e-05
v -1500.00048828125 -599.9868774414062 24036.0
v -599.98828125 -1499.9989013671875 24036.0
v -599.9871826171875 -1500.0010986328125 -4.8081459681270644e-05
v 600.0128173828125 -1500.0010986328125 4.372206149128033e-06
v -599.98828125 -1499.9990234375 24036.0
v 600.0117797851562 -1499.9990234375 24036.0
v 600.0128173828125 -1500.0010986328125 4.372206149128033e-06
v 1500.000732421875 -599.9886474609375 -3.4969652915606275e-05
v 600.0117797851562 -1499.9990234375 24036.0
v 1499.999755859375 -599.986572265625 24036.0
v 600.0117797851562 -1499.9990234375 24036.0
v 1499.99951171875 -599.9867553710938 24036.0
v 1499.99951171875 600.0133056640625 24036.0
v 600.0116577148438 1500.0010986328125 24036.0
v -599.9884033203125 1500.0010986328125 24036.0
v -599.98828125 -1499.9990234375 24036.0
v -1500.00048828125 600.0133056640625 24036.0
v -1500.00048828125 -599.9868774414062 24036.0
v 600.0128173828125 -1500.0010986328125 -99.80315399169922
v 1500.00048828125 599.9989013671875 -99.80329895019531
v 1500.00048828125 -599.9888305664062 -99.80319213867188
v 600.0126953125 1499.9989013671875 -99.80341339111328
v -599.9873046875 1499.9989013671875 -99.803466796875
v -599.9871826171875 -1500.0010986328125 -99.80320739746094
v -1499.99951171875 600.0111083984375 -99.80342864990234
v -1499.9993896484375 -599.9889526367188 -99.8033218383789
v 600.0117797851562 -1499.9990234375 24036.0
v 1499.99951171875 600.0133056640625 24036.0
v 1499.99951171875 -599.9867553710938 24036.0
v 600.0116577148438 1500.0010986328125 24036.0
v -599.9884033203125 1500.0010986328125 24036.0
v -599.98828125 -1499.9990234375 24036.0
v -1500.00048828125 600.0133056640625 24036.0
v -1500.00048828125 -599.9868774414062 24036.0
v 1500.00048828125 -599.9888305664062 -99.80319213867188
v 1500.00048828125 599.9986572265625 -99.80329895019531
v 1500.00048828125 -599.9888305664062 0.19680340588092804
v 1500.00048828125 599.9986572265625 0.19669850170612335
v -1499.99951171875 600.0111083984375 -99.80342864990234
v -1499.9993896484375 -599.9889526367188 -99.8033218383789
v -1499.99951171875 600.0111083984375 0.1965673714876175
v -1499.9993896484375 -599.9889526367188 0.19667227566242218
v -1499.9993896484375 -599.9889526367188 -99.8033218383789
v -599.9871826171875 -1500.0010986328125 -99.80320739746094
v -1499.9993896484375 -599.9889526367188 0.19667227566242218
v -599.9871826171875 -1500.0010986328125 0.19679029285907745
v -599.9871826171875 -1500.0010986328125 -99.80320739746094
v 600.0128173828125 -1500.0010986328125 -99.80315399169922
v -599.9871826171875 -1500.0010986328125 0.19679029285907745
v 600.0128173828125 -1500.0010986328125 0.1968427449464798
v 600.0128173828125 -1500.0010986328125 -99.80315399169922
v 1500.00048828125 -599.9889526367188 -99.80319213867188
v 600.0128173828125 -1500.0010986328125 0.1968427449464798
v 1500.00048828125 -599.9889526367188 0.19680340588092804
v 1499.99951171875 -599.9866943359375 24176.0
v 1499.99951171875 600.0133056640625 24176.0
v 600.0115356445312 1500.0010986328125 24036.0
v 1499.99951171875 600.0133056640625 24176.0
v 600.0115356445312 1500.0010986328125 24176.0
v 600.0115966796875 1500.0010986328125 24176.0
v -599.9884033203125 1500.0010986328125 24176.0
v -1500.00048828125 600.0133056640625 24036.0
v -599.9884033203125 1500.0010986328125 24176.0
v -1500.00048828125 600.0133056640625 24176.0
v -1500.00048828125 600.0133056640625 24176.0
v -1500.00048828125 -599.98681640625 24176.0
v -599.988037109375 -1499.999267578125 24036.0
v -1500.00048828125 -599.98681640625 24176.0
v -599.988037109375 -1499.999267578125 24176.0
v -599.98828125 -1499.9990234375 24176.0
v 600.0117797851562 -1499.9990234375 24176.0
v 1499.99951171875 -599.9866333007812 24036.0
v 600.0117797851562 -1499.9990234375 24176.0
v 1499.99951171875 -599.986572265625 24176.0
v 600.0117797851562 -1499.9990234375 24176.0
v 1499.99951171875 -599.9866943359375 24176.0
v 1499.99951171875 600.0133056640625 24176.0
v 600.0115966796875 1500.0010986328125 24176.0
v -599.9884033203125 1500.0010986328125 24176.0
v -599.98828125 -1499.9990234375 24176.0
v -1500.00048828125 600.0133056640625 24176.0
v -1500.00048828125 -599.98681640625 24176.0
f 2 1 3
f 4 2 3
f 30 29 31
f 32 30 31
f 26 25 27
f 28 26 27
f 22 21 23
f 24 22 23
f 18 17 19
f 20 18 19
f 14 13 15
f 16 14 15
f 10 9 11
f 12 10 11
f 6 5 7
f 8 6 7
f 58 57 59
f 60 58 59
f 74 73 75
f 76 74 75
f 70 69 71
f 72 70 71
f 66 65 67
f 68 66 67
f 62 61 63
f 64 62 63
f 34 33 35
f 33 36 35
f 33 38 36
f 38 37 36
f 38 40 37
f 40 39 37
f 110 109 111
f 109 112 111
f 109 114 112
f 114 113 112
f 114 116 113
f 116 115 113
f 45 47 48
f 45 48 46
f 44 45 46
f 44 46 41
f 42 44 41
f 42 41 43
f 53 55 56
f 53 56 54
f 52 53 54
f 52 54 49
f 50 52 49
f 50 49 51
f 78 77 79
f 80 78 79
f 106 105 107
f 108 106 107
f 102 101 103
f 104 102 103
f 98 97 99
f 100 98 99
f 94 93 95
f 96 94 95
f 90 89 91
f 92 90 91
f 86 85 87
f 88 86 87
f 82 81 83
f 84 82 83
