# from FinancialDistrict_Block12_Generic_0002_LOD_0.pskx
v 172.17962646484375 -849.93310546875 0.0
v 210.19232177734375 -837.4697265625 5.720029321309994e-07
v 172.1796112060547 -849.93310546875 255.0
v 210.19232177734375 -837.4696655273438 255.0
v 210.19232177734375 -837.4697265625 5.720029321309994e-07
v 203.95452880859375 -818.46337890625 -1.3622434380522463e-06
v 210.19232177734375 -837.4696655273438 255.0
v 203.9545135498047 -818.46337890625 255.0
v 203.95452880859375 -818.46337890625 -1.3622434380522463e-06
v 165.9540252685547 -830.9390258789062 -1.932646682689665e-06
v 203.9545135498047 -818.46337890625 255.0
v 165.95401000976562 -830.93896484375 255.0
v 210.19232177734375 -837.4696655273438 255.0
v 203.9545135498047 -818.46337890625 255.0
v 172.1796112060547 -849.93310546875 255.0
v 165.95401000976562 -830.93896484375 255.0
v 451.00042724609375 -737.40869140625 2.3504492219217354e-06
v 403.4906005859375 -752.9970703125 1.6365104329452151e-06
v 451.0003967285156 -737.40869140625 255.0
v 403.4906005859375 -752.9970703125 255.0
v 403.4906005859375 -752.9970703125 1.6365095234505134e-06
v 409.7284240722656 -772.00341796875 3.5707578263100004e-06
v 403.4906005859375 -752.9970703125 255.0
v 409.7283935546875 -772.0033569335938 255.00001525878906
v 409.7284240722656 -772.00341796875 3.5707578263100004e-06
v 457.23822021484375 -756.4149780273438 4.284694114176091e-06
v 409.7283935546875 -772.0033569335938 255.00001525878906
v 457.23822021484375 -756.4149780273438 255.0
v 403.4906005859375 -752.9970703125 255.0
v 409.7283935546875 -772.0033569335938 255.00001525878906
v 451.0003967285156 -737.40869140625 255.0
v 457.23822021484375 -756.4149780273438 255.0
v 165.95401000976562 -830.93896484375 255.0
v 451.0003967285156 -737.40869140625 255.0
v 172.1796112060547 -849.93310546875 255.0
v 457.23822021484375 -756.4149780273438 255.0
v 457.2381896972656 -756.4149780273438 255.0
v 172.17959594726562 -849.9330444335938 405.0000305175781
v 457.2381591796875 -756.4149780273438 405.0000305175781
v 165.9539794921875 -830.93896484375 255.0
v 451.0003967285156 -737.4086303710938 405.0000305175781
v 165.9539794921875 -830.93896484375 405.0000305175781
v -1184.52197265625 509.80810546875 -0.00017817567277234048
v -1172.0341796875 471.8076171875 -0.00017430770094506443
v -1184.522216796875 509.80810546875 254.99981689453125
v -1172.034423828125 471.8076171875 254.99981689453125
v -1172.0341796875 471.8076171875 -0.00017430770094506443
v -1153.0400390625 478.0576171875 -0.00017402382218278944
v -1172.034423828125 471.8076171875 254.99981689453125
v -1153.040283203125 478.0576171875 254.99981689453125
v -1153.0400390625 478.0576171875 -0.00017402382218278944
v -1165.515625 516.05810546875 -0.00017789125558920205
v -1153.040283203125 478.0576171875 254.99981689453125
v -1165.515869140625 516.05810546875 254.99981689453125
v -1184.522216796875 509.80810546875 254.99981689453125
v -1172.034423828125 471.8076171875 254.99981689453125
v -1165.515869140625 516.05810546875 254.99981689453125
v -1153.040283203125 478.0576171875 254.99981689453125
v -1071.89990234375 231.0361328125 -0.00014888177975080907
v -1087.50048828125 278.53369140625 -0.00015371607150882483
v -1071.89990234375 231.0361328125 254.99984741210938
v -1087.50048828125 278.53369140625 254.99984741210938
v -1087.50048828125 278.53369140625 -0.00015371607150882483
v -1106.5068359375 272.2958984375 -0.00015400155098177493
v -1087.50048828125 278.53369140625 254.99984741210938
v -1106.5068359375 272.2958984375 254.99984741210938
v -1106.5068359375 272.2958984375 -0.00015400155098177493
v -1090.90625 224.79833984375 -0.00014916724467184395
v -1106.5068359375 272.2958984375 254.99984741210938
v -1090.90625 224.79833984375 254.99984741210938
v -1071.89990234375 231.0361328125 254.99984741210938
v -1087.50048828125 278.53369140625 254.99984741210938
v -1090.90625 224.79833984375 254.99984741210938
v -1106.5068359375 272.2958984375 254.99984741210938
v -1090.90625 224.79833984375 254.99984741210938
v -1184.522216796875 509.80810546875 254.99981689453125
v -1165.515869140625 516.05810546875 254.99981689453125
v -1071.89990234375 231.0361328125 254.99984741210938
v -1184.522216796875 509.80810546875 404.9998474121094
v -1090.906494140625 224.79833984375 404.9998779296875
v -1071.900146484375 231.0361328125 404.9998779296875
v -1165.515869140625 516.05810546875 404.9998474121094
v -253.72366333007812 -1315.97314453125 -199.99996948242188
v -245.92337036132812 -1339.72802734375 -199.99996948242188
v -253.72366333007812 -1315.97314453125 2.212568506365642e-05
v -245.92337036132812 -1339.72802734375 2.4543363906559534e-05
v -245.92337036132812 -1339.72802734375 -199.99996948242188
v -79.6514892578125 -1285.16259765625 -99.99996948242188
v -245.92337036132812 -1339.72802734375 2.4543363906559534e-05
v -79.65150451660156 -1285.16259765625 100.00003051757812
v -87.439453125 -1261.40771484375 -99.99996948242188
v -253.72366333007812 -1315.97314453125 2.212568506365642e-05
v -87.43948364257812 -1261.40771484375 100.00003051757812
v -253.72366333007812 -1315.97314453125 -199.99996948242188
v -253.72366333007812 -1315.97314453125 2.212568506365642e-05
v -245.92337036132812 -1339.72802734375 2.4543363906559534e-05
v -87.43948364257812 -1261.40771484375 100.00003051757812
v -79.6514892578125 -1285.16259765625 100.00003051757812
v -1249.2529296875 514.883056640625 -0.0001814488205127418
v -1092.615234375 197.91845703125 -0.00014689203817397356
v -1201.74609375 530.474609375 -0.00018073528190143406
v -1140.1220703125 182.326904296875 -0.00014760556223336607
v -1249.2529296875 514.883056640625 -25.00018310546875
v -1140.1220703125 182.326904296875 -0.00014760556223336607
v -1249.2529296875 514.883056640625 -0.0001814488205127418
v -1140.1220703125 182.326904296875 -25.000146865844727
v -1296.759521484375 499.2916259765625 -25.00018310546875
v -1140.1220703125 182.326904296875 -25.000146865844727
v -1249.2529296875 514.883056640625 -25.00018310546875
v -1187.628662109375 166.73541259765625 -25.00014877319336
v -1296.759521484375 499.2916259765625 -50.00018310546875
v -1187.628662109375 166.73541259765625 -25.00014877319336
v -1296.759521484375 499.2916259765625 -25.00018310546875
v -1187.628662109375 166.73541259765625 -50.00014877319336
v -1344.266357421875 483.7001953125 -50.00018310546875
v -1187.628662109375 166.73541259765625 -50.00014877319336
v -1296.759521484375 499.2916259765625 -50.00018310546875
v -1235.135498046875 151.14398193359375 -50.00014877319336
v -1344.266357421875 483.7001953125 -75.00018310546875
v -1235.135498046875 151.14398193359375 -50.00014877319336
v -1344.266357421875 483.7001953125 -50.00018310546875
v -1235.135498046875 151.14398193359375 -75.0001449584961
v -1391.77294921875 468.1087646484375 -75.00018310546875
v -1235.135498046875 151.14398193359375 -75.0001449584961
v -1344.266357421875 483.7001953125 -75.00018310546875
v -1282.64208984375 135.55255126953125 -75.0001449584961
v -1391.77294921875 468.1087646484375 -100.00018310546875
v -1282.64208984375 135.55255126953125 -75.0001449584961
v -1391.77294921875 468.1087646484375 -75.00018310546875
v -1282.64208984375 135.55255126953125 -100.0001449584961
v -1391.77294921875 468.1087646484375 -100.00018310546875
v -1391.77294921875 468.1087646484375 -75.00018310546875
v -1344.266357421875 483.7001953125 -75.00018310546875
v -1344.266357421875 483.7001953125 -50.00018310546875
v -1296.759521484375 499.2916259765625 -50.00018310546875
v -1296.759521484375 499.2916259765625 -25.00018310546875
v -1249.2529296875 514.883056640625 -25.00018310546875
v -1249.2529296875 514.883056640625 -0.0001814488205127418
v -1201.74609375 530.474609375 -0.00018073528190143406
v -1201.74609375 530.474609375 -100.00018310546875
v -1282.64208984375 135.55255126953125 -100.0001449584961
v -1092.615234375 197.91845703125 -100.0001449584961
v -1282.64208984375 135.55255126953125 -75.0001449584961
v -1092.615234375 197.91845703125 -0.00014689203817397356
v -1140.1220703125 182.326904296875 -0.00014760556223336607
v -1140.1220703125 182.326904296875 -25.000146865844727
v -1187.628662109375 166.73541259765625 -25.00014877319336
v -1187.628662109375 166.73541259765625 -50.00014877319336
v -1235.135498046875 151.14398193359375 -50.00014877319336
v -1235.135498046875 151.14398193359375 -75.0001449584961
v -1092.615234375 197.91845703125 -0.00014689203817397356
v -1092.615234375 197.91845703125 -100.0001449584961
v -1201.74609375 530.474609375 -0.00018073528190143406
v -1201.74609375 530.474609375 -100.00018310546875
v -1100.392333984375 221.677001953125 -0.00014930902398191392
v -1146.43603515625 522.30810546875 -0.00017760366608854383
v -1193.942138671875 506.720947265625 -0.00017831755394581705
v -1052.8935546875 237.27392578125 -0.00014859630027785897
v -1037.30517578125 189.76416015625 -0.000143761484650895
v -300.9404602050781 431.4267578125 -0.00013270077761262655
v -45.60609436035156 936.19970703125 -0.00016566840349696577
v -1162.024658203125 569.81787109375 -0.0001824384817155078
v 81.04192352294922 -732.50146484375 -1.4249954801925924e-05
v 128.53958129882812 -716.9130859375 -1.3536546248360537e-05
v 175.30157470703125 -859.43310546875 9.669834071246441e-07
v 413.58587646484375 -623.37060546875 -9.254520591639448e-06
v 461.09564208984375 -607.77001953125 -8.541648639948107e-06
v 460.3454895019531 -765.8955078125 5.249330115475459e-06
v -1193.94580078125 506.7197265625 -0.00017831759760156274
v -1146.43603515625 522.30810546875 -0.00017760366608854383
v -1193.946044921875 506.7197265625 399.99981689453125
v -1146.436279296875 522.30810546875 399.99981689453125
v -1146.43603515625 522.30810546875 -0.00017760366608854383
v -1162.024658203125 569.81787109375 -0.0001824384817155078
v -1146.436279296875 522.30810546875 399.99981689453125
v -1162.024658203125 569.81787109375 399.99981689453125
v -1209.534423828125 554.2294921875 -0.00018315242778044194
v -1193.94580078125 506.7197265625 -0.00017831759760156274
v -1209.534423828125 554.2294921875 399.99981689453125
v -1193.946044921875 506.7197265625 399.99981689453125
v -1146.436279296875 522.30810546875 399.99981689453125
v -1162.024658203125 569.81787109375 399.99981689453125
v -1193.946044921875 506.7197265625 399.99981689453125
v -1209.534423828125 554.2294921875 399.99981689453125
v -1100.4033203125 221.67333984375 -0.00014930918405298144
v -1084.802734375 174.17578125 -0.00014447489229496568
v -1100.403564453125 221.67333984375 399.9997863769531
v -1084.802978515625 174.17578125 399.9997863769531
v -1037.30517578125 189.76416015625 -0.000143761484650895
v -1052.8935546875 237.27392578125 -0.00014859630027785897
v -1037.305419921875 189.76416015625 399.9998474121094
v -1052.893798828125 237.27392578125 399.9998474121094
v -1052.8935546875 237.27392578125 -0.00014859630027785897
v -1100.4033203125 221.67333984375 -0.00014930918405298144
v -1052.893798828125 237.27392578125 399.9998474121094
v -1100.403564453125 221.67333984375 399.9998474121094
v -1100.403564453125 221.67333984375 399.9998474121094
v -1084.802978515625 174.17578125 399.9998474121094
v -1052.893798828125 237.27392578125 399.9998474121094
v -1037.305419921875 189.76416015625 399.9998474121094
v 461.09564208984375 -607.77001953125 -8.541648639948107e-06
v 413.5859375 -623.37060546875 -9.254515134671237e-06
v 461.0956115722656 -607.7699584960938 399.9999694824219
v 413.5859375 -623.37060546875 399.9999694824219
v 413.5859375 -623.37060546875 -9.254515134671237e-06
v 460.3510437011719 -765.912109375 5.25102359461016e-06
v 413.5859375 -623.37060546875 399.9999694824219
v 460.35101318359375 -765.9120483398438 400.0
v 460.3510437011719 -765.912109375 5.251024504104862e-06
v 507.86083984375 -750.32373046875 5.964963747828733e-06
v 460.35101318359375 -765.9120483398438 400.0
v 507.8608093261719 -750.3236694335938 400.0
v 127.79486083984375 -875.03076171875 2.539870251894172e-07
v 175.30465698242188 -859.4423828125 9.679253025751677e-07
v 127.79484558105469 -875.0307006835938 400.0
v 175.3046417236328 -859.4423217773438 400.0
v 175.30465698242188 -859.4423828125 9.679253025751677e-07
v 128.53955078125 -716.9130859375 -1.3536548976844642e-05
v 175.3046417236328 -859.4423217773438 400.0
v 128.53953552246094 -716.9130249023438 400.0
v 128.53955078125 -716.9130859375 -1.3536548976844642e-05
v 81.04196166992188 -732.50146484375 -1.4249953892431222e-05
v 128.53953552246094 -716.9130249023438 399.99993896484375
v 81.04194641113281 -732.50146484375 399.99993896484375
v -300.9405517578125 431.4267578125 -100.00013732910156
v -1084.802734375 174.17578125 -100.0001449584961
v -300.9405517578125 431.4267578125 399.9998474121094
v -1084.802734375 174.17578125 399.9998474121094
v -1084.802734375 174.17578125 -100.0001449584961
v -656.0552368164062 -1132.2696533203125 -100.00001525878906
v -656.0552368164062 -1132.2696533203125 400.0
v -656.0552368164062 -1132.26953125 -100.00001525878906
v -157.22711181640625 -968.56103515625 -100.00000762939453
v -656.0552368164062 -1132.26953125 400.0
v -157.22711181640625 -968.56103515625 400.0
v -157.22708129882812 -968.56103515625 -100.00000762939453
v 127.80697631835938 -875.0184936523438 -100.0
v -157.22708129882812 -968.56103515625 400.0
v 127.80696105957031 -875.0184326171875 400.0
v 127.80702209472656 -875.0184936523438 -100.0
v -300.94061279296875 431.4268798828125 -100.00013732910156
v -152.827880859375 -19.890380859375 2.8305139541625977
v -152.82791137695312 -19.890380859375 260.8305358886719
v -222.36297607421875 191.9913330078125 260.8304748535156
v 127.8070068359375 -875.0184326171875 400.0
v -300.94061279296875 431.4268798828125 399.9998474121094
v -222.36294555664062 191.9913330078125 2.8304924964904785
v -222.36297607421875 191.9913330078125 260.8304748535156
v -152.82791137695312 -19.890380859375 260.8305358886719
v -171.83074951171875 -26.126708984375 260.8305358886719
v -241.36581420898438 185.7550048828125 260.8304748535156
v -222.36294555664062 191.9913330078125 2.8304924964904785
v -171.83071899414062 -26.126708984375 2.8305137157440186
v -152.827880859375 -19.890380859375 2.8305139541625977
v -241.36578369140625 185.7550048828125 2.8304920196533203
v -171.83074951171875 -26.126708984375 260.8305358886719
v -152.827880859375 -19.890380859375 2.8305139541625977
v -171.83071899414062 -26.126708984375 2.8305137157440186
v -152.82791137695312 -19.890380859375 260.8305358886719
v -241.36581420898438 185.7550048828125 260.8304748535156
v -241.36578369140625 185.7550048828125 2.8304920196533203
v -222.36294555664062 191.9913330078125 2.8304924964904785
v -222.36297607421875 191.9913330078125 260.8304748535156
v -656.0553588867188 -1132.269775390625 400.0
v -1209.534423828125 554.2296142578125 799.9998168945312
v -656.0553588867188 -1132.2696533203125 799.9999389648438
v -656.0553588867188 -1132.26953125 400.0
v 1278.929931640625 -497.2352600097656 400.0000305175781
v -656.0553588867188 -1132.26953125 799.9999389648438
v 1278.929931640625 -497.2352294921875 800.0
v 1278.929931640625 -497.2352600097656 400.0000305175781
v 1379.601318359375 1403.93701171875 399.9998779296875
v 1286.54150390625 -353.4920349121094 500.0000305175781
v 1346.3466796875 775.9259033203125 704.9999389648438
v 1356.92236328125 975.6461181640625 704.9998779296875
v 1278.929931640625 -497.2352294921875 799.9999389648438
v 1286.54150390625 -353.49200439453125 705.0
v 1336.9873046875 599.1734619140625 704.9999389648438
v 1326.41162109375 399.4532470703125 704.9999389648438
v 1317.052001953125 222.7008056640625 704.9999389648438
v 1306.4765625 22.9805908203125 705.0
v 1297.116943359375 -153.77178955078125 705.0
v 1379.601318359375 1403.93701171875 799.9998168945312
v 1297.1171875 -153.77178955078125 500.0
v 1356.92236328125 975.64599609375 499.9999084472656
v 1306.476806640625 22.9805908203125 499.9999694824219
v 1317.052001953125 222.70068359375 499.9999694824219
v 1326.41162109375 399.453125 499.99993896484375
v 1336.9873046875 599.17333984375 499.99993896484375
v 1346.3466796875 775.92578125 499.9999084472656
v -1209.534423828125 554.2294921875 409.99981689453125
v -656.0553588867188 -1132.26953125 400.0
v -1209.534423828125 554.2294921875 399.99981689453125
v -656.0553588867188 -1132.26953125 410.0
v -1209.534423828125 554.2294921875 399.99981689453125
v -668.8217163085938 -1157.5087890625 400.0
v -1228.537353515625 547.9930419921875 399.99981689453125
v -656.0553588867188 -1132.26953125 400.0
v -1228.537353515625 547.9930419921875 399.99981689453125
v -668.8217163085938 -1157.5087890625 410.0
v -1228.537353515625 547.9930419921875 409.99981689453125
v -668.8217163085938 -1157.5087890625 400.0
v -1228.537353515625 547.9930419921875 409.99981689453125
v -656.0553588867188 -1132.26953125 410.0
v -1209.534423828125 554.2294921875 409.99981689453125
v -668.8217163085938 -1157.5087890625 410.0
v -656.0553588867188 -1132.26953125 410.0
v 1278.929931640625 -497.2352600097656 400.0000305175781
v -656.0553588867188 -1132.26953125 400.0
v 1278.929931640625 -497.2352600097656 410.0000305175781
v 1298.177734375 -511.9678955078125 400.0000305175781
v 1278.929931640625 -497.2352600097656 400.0000305175781
v -668.8217163085938 -1157.5087890625 400.0
v 1298.177734375 -511.9678955078125 410.0000305175781
v -668.8217163085938 -1157.5087890625 410.0
v 1298.177734375 -511.9678955078125 400.0000305175781
v 1278.929931640625 -497.2352600097656 410.0000305175781
v 1298.177734375 -511.9678955078125 410.0000305175781
v 1278.929931640625 -497.2352600097656 410.0000305175781
v 1379.601318359375 1403.9365234375 399.9998779296875
v 1278.929931640625 -497.2352600097656 400.0000305175781
v 1379.601318359375 1403.9365234375 409.9998779296875
v 1399.5732421875 1402.879150390625 399.9998779296875
v 1379.601318359375 1403.9365234375 399.9998779296875
v 1298.177734375 -511.9678955078125 400.0000305175781
v 1399.5732421875 1402.879150390625 409.9998779296875
v 1298.177734375 -511.9678955078125 410.0000305175781
v 1399.5732421875 1402.879150390625 399.9998779296875
v 1379.601318359375 1403.9365234375 409.9998779296875
v 1399.5732421875 1402.879150390625 409.9998779296875
v -1209.534423828125 554.2294921875 399.99981689453125
v -1228.537353515625 547.9930419921875 399.99981689453125
v -1209.534423828125 554.2294921875 409.99981689453125
v -1228.537353515625 547.9930419921875 409.99981689453125
v 1379.601318359375 1403.9365234375 409.9998779296875
v 1399.5732421875 1402.879150390625 399.9998779296875
v 1379.601318359375 1403.9365234375 399.9998779296875
v 1399.5732421875 1402.879150390625 409.9998779296875
v -1209.534423828125 554.2296142578125 799.9998168945312
v -656.0553588867188 -1132.26953125 789.9999389648438
v -1209.534423828125 554.2296142578125 789.9998168945312
v -656.0553588867188 -1132.26953125 799.9999389648438
v -1209.534423828125 554.2296142578125 789.9998168945312
v -668.8217163085938 -1157.5086669921875 789.9999389648438
v -1228.537353515625 547.9931640625 789.9998168945312
v -656.0553588867188 -1132.26953125 789.9999389648438
v -1228.537353515625 547.9931640625 789.9998168945312
v -668.8217163085938 -1157.5086669921875 799.9999389648438
v -1228.537353515625 547.9931640625 799.9998168945312
v -668.8217163085938 -1157.5086669921875 789.9999389648438
v -1228.537353515625 547.9931640625 799.9998168945312
v -656.0553588867188 -1132.26953125 799.9999389648438
v -1209.534423828125 554.2296142578125 799.9998168945312
v -668.8217163085938 -1157.5086669921875 799.9999389648438
v -656.0553588867188 -1132.26953125 799.9999389648438
v 1278.929931640625 -497.2352294921875 790.0
v -656.0553588867188 -1132.26953125 789.9999389648438
v 1278.929931640625 -497.2352294921875 800.0
v 1298.177734375 -511.9678649902344 790.0000610351562
v 1278.929931640625 -497.2352294921875 790.0
v -668.8217163085938 -1157.5086669921875 789.9999389648438
v 1298.177734375 -511.9678649902344 800.0000610351562
v -668.8217163085938 -1157.5086669921875 799.9999389648438
v 1298.177734375 -511.9678649902344 790.0000610351562
v 1278.929931640625 -497.2352294921875 800.0
v 1298.177734375 -511.9678649902344 800.0000610351562
v 1278.929931640625 -497.2352294921875 800.0
v 1379.601318359375 1403.9365234375 789.9998779296875
v 1278.929931640625 -497.2352294921875 790.0
v 1379.601318359375 1403.9365234375 799.9998779296875
v 1399.5732421875 1402.879150390625 789.9998779296875
v 1379.601318359375 1403.9365234375 789.9998779296875
v 1298.177734375 -511.9678649902344 790.0000610351562
v 1399.5732421875 1402.879150390625 799.9998779296875
v 1298.177734375 -511.9678649902344 800.0000610351562
v 1399.5732421875 1402.879150390625 789.9998779296875
v 1379.601318359375 1403.9365234375 799.9998779296875
v 1399.5732421875 1402.879150390625 799.9998779296875
v -1209.534423828125 554.2296142578125 789.9998168945312
v -1228.537353515625 547.9931640625 789.9998168945312
v -1209.534423828125 554.2296142578125 799.9998168945312
v -1228.537353515625 547.9931640625 799.9998168945312
v 1379.601318359375 1403.9365234375 799.9998779296875
v 1399.5732421875 1402.879150390625 789.9998779296875
v 1379.601318359375 1403.9365234375 789.9998779296875
v 1399.5732421875 1402.879150390625 799.9998779296875
v 1276.555419921875 -352.9632263183594 705.0
v 1287.131103515625 -153.2430419921875 705.0
v 1286.54150390625 -353.49200439453125 705.0
v 1297.116943359375 -153.77178955078125 705.0
v 1276.555419921875 -352.9632568359375 500.0000305175781
v 1286.54150390625 -353.4920349121094 500.0000305175781
v 1287.131103515625 -153.2430419921875 500.0
v 1297.1171875 -153.77178955078125 500.0
v 1276.555419921875 -352.9632263183594 705.0
v 1286.54150390625 -353.4920349121094 500.0000305175781
v 1276.555419921875 -352.9632568359375 500.0000305175781
v 1286.54150390625 -353.49200439453125 705.0
v 1287.131103515625 -153.2430419921875 705.0
v 1287.131103515625 -153.2430419921875 500.0
v 1297.1171875 -153.77178955078125 500.0
v 1297.116943359375 -153.77178955078125 705.0
v 1296.490478515625 23.5093994140625 705.0
v 1307.066162109375 223.2296142578125 704.9999389648438
v 1306.4765625 22.9805908203125 705.0
v 1317.052001953125 222.7008056640625 704.9999389648438
v 1296.49072265625 23.5093994140625 499.9999694824219
v 1306.476806640625 22.9805908203125 499.9999694824219
v 1307.066162109375 223.2294921875 499.9999694824219
v 1317.052001953125 222.70068359375 499.9999694824219
v 1296.490478515625 23.5093994140625 705.0
v 1306.476806640625 22.9805908203125 499.9999694824219
v 1296.49072265625 23.5093994140625 499.9999694824219
v 1306.4765625 22.9805908203125 705.0
v 1307.066162109375 223.2296142578125 704.9999389648438
v 1307.066162109375 223.2294921875 499.9999694824219
v 1317.052001953125 222.70068359375 499.9999694824219
v 1317.052001953125 222.7008056640625 704.9999389648438
v 1316.425537109375 399.9820556640625 704.9999389648438
v 1327.001220703125 599.7022705078125 704.9999389648438
v 1326.41162109375 399.4532470703125 704.9999389648438
v 1336.9873046875 599.1734619140625 704.9999389648438
v 1316.425537109375 399.98193359375 499.99993896484375
v 1326.41162109375 399.453125 499.99993896484375
v 1327.001220703125 599.7021484375 499.99993896484375
v 1336.9873046875 599.17333984375 499.99993896484375
v 1316.425537109375 399.9820556640625 704.9999389648438
v 1326.41162109375 399.453125 499.99993896484375
v 1316.425537109375 399.98193359375 499.99993896484375
v 1326.41162109375 399.4532470703125 704.9999389648438
v 1327.001220703125 599.7022705078125 704.9999389648438
v 1327.001220703125 599.7021484375 499.99993896484375
v 1336.9873046875 599.17333984375 499.99993896484375
v 1336.9873046875 599.1734619140625 704.9999389648438
v 1336.360595703125 776.45458984375 704.9999389648438
v 1346.936279296875 976.1748046875 704.9998779296875
v 1346.3466796875 775.9259033203125 704.9999389648438
v 1356.92236328125 975.6461181640625 704.9998779296875
v 1336.360595703125 776.4544677734375 499.9999084472656
v 1346.3466796875 775.92578125 499.9999084472656
v 1346.936279296875 976.1746826171875 499.9999084472656
v 1356.92236328125 975.64599609375 499.9999084472656
v 1336.360595703125 776.45458984375 704.9999389648438
v 1346.3466796875 775.92578125 499.9999084472656
v 1336.360595703125 776.4544677734375 499.9999084472656
v 1346.3466796875 775.9259033203125 704.9999389648438
v 1346.936279296875 976.1748046875 704.9998779296875
v 1346.936279296875 976.1746826171875 499.9999084472656
v 1356.92236328125 975.64599609375 499.9999084472656
v 1356.92236328125 975.6461181640625 704.9998779296875
v -980.2011108398438 556.0240478515625 799.9998168945312
v 1116.259033203125 1224.224609375 799.9998779296875
v 1028.160888671875 -136.01690673828125 800.0
v -44.16572570800781 -710.5653076171875 800.0
v -498.78009033203125 -864.6181030273438 800.0
v -108.36260986328125 -521.1488037109375 800.0
v -45.60609436035156 936.19970703125 -100.00016021728516
v 507.87298583984375 -750.2994995117188 -99.99999237060547
v 301.9622802734375 -122.87164306640625 2.830542802810669
v 301.9622802734375 -122.87164306640625 260.8305358886719
v 371.49810791015625 -334.7532958984375 260.83056640625
v -45.606109619140625 936.19970703125 399.9998474121094
v 507.8729553222656 -750.2994384765625 400.0
v 371.49810791015625 -334.7532958984375 2.830564498901367
v 507.87298583984375 -750.29931640625 -99.99999237060547
v 816.6620483398438 -648.9443359375 -99.99998474121094
v 507.8729553222656 -750.2992553710938 400.0
v 816.6620483398438 -648.9442749023438 400.0
v 816.6619873046875 -648.9443359375 -99.99998474121094
v 1278.93017578125 -497.23529052734375 -99.99998474121094
v 816.6619873046875 -648.9442749023438 400.0
v 1278.93017578125 -497.2352600097656 400.0000305175781
v 1278.93017578125 -497.23529052734375 -99.99998474121094
v 1379.601318359375 1403.936279296875 -100.0001449584961
v 1278.93017578125 -497.2352600097656 400.0000305175781
v 1379.601318359375 1403.936279296875 399.9998779296875
v 371.49810791015625 -334.7532958984375 260.83056640625
v 301.9622802734375 -122.87164306640625 260.8305358886719
v 320.965087890625 -116.63525390625 260.8305358886719
v 390.50091552734375 -328.516845703125 260.83056640625
v 371.49810791015625 -334.7532958984375 2.830564498901367
v 320.965087890625 -116.63525390625 2.830543041229248
v 301.9622802734375 -122.87164306640625 2.830542802810669
v 390.50091552734375 -328.516845703125 2.8305647373199463
v 320.965087890625 -116.63525390625 260.8305358886719
v 301.9622802734375 -122.87164306640625 2.830542802810669
v 320.965087890625 -116.63525390625 2.830543041229248
v 301.9622802734375 -122.87164306640625 260.8305358886719
v 390.50091552734375 -328.516845703125 260.83056640625
v 390.50091552734375 -328.516845703125 2.8305647373199463
v 371.49810791015625 -334.7532958984375 2.830564498901367
v 371.49810791015625 -334.7532958984375 260.83056640625
v -991.2603149414062 -110.85845947265625 -100.00011444091797
v -1323.81640625 -220.01373291015625 -100.0001220703125
v -1086.273193359375 -142.04461669921875 -97.72391510009766
v -1086.273193359375 -142.04461669921875 157.2760772705078
v -1203.61376953125 -180.55950927734375 157.2760772705078
v -991.2603149414062 -110.8583984375 399.9998779296875
v -1323.81640625 -220.013671875 399.9998779296875
v -1203.61376953125 -180.55950927734375 -97.72392272949219
v -1323.81640625 -220.01373291015625 -100.0001220703125
v -988.6113891601562 -1241.41259765625 -100.0000228881836
v -1323.81640625 -220.013671875 399.9998779296875
v -988.6113891601562 -1241.41259765625 399.9999694824219
v -988.6113891601562 -1241.41259765625 -100.0000228881836
v -963.1793823242188 -1233.0660400390625 -2.2094045561971143e-05
v -963.1793823242188 -1233.06591796875 196.93695068359375
v -682.0287475585938 -1140.7938232421875 196.9369659423828
v -988.6113891601562 -1241.41259765625 399.9998779296875
v -682.0287475585938 -1140.7939453125 -1.7871245290734805e-05
v -988.1416625976562 -120.35968017578125 409.9999084472656
v -1311.197021484375 -226.39654541015625 379.9999084472656
v -988.1416625976562 -120.35968017578125 379.9999084472656
v -1311.197021484375 -226.39654541015625 409.9999084472656
v -988.1416625976562 -120.35968017578125 379.9999084472656
v -1361.675048828125 -200.86529541015625 379.9999084472656
v -1000.6161499023438 -82.35455322265625 379.9999084472656
v -1311.197021484375 -226.39654541015625 379.9999084472656
v -1000.6161499023438 -82.35455322265625 379.9999084472656
v -1361.675048828125 -200.86529541015625 409.9999084472656
v -1000.6161499023438 -82.35455322265625 409.9999084472656
v -1361.675048828125 -200.86529541015625 379.9999084472656
v -1000.6161499023438 -82.35455322265625 409.9999084472656
v -1311.197021484375 -226.39654541015625 409.9999084472656
v -988.1416625976562 -120.35968017578125 409.9999084472656
v -1361.675048828125 -200.86529541015625 409.9999084472656
v -1311.197021484375 -226.39654541015625 409.9999084472656
v -982.2282104492188 -1228.79296875 380.0
v -1311.197021484375 -226.39654541015625 379.9999084472656
v -982.2282104492188 -1228.79296875 410.0
v -1007.7609252929688 -1279.271728515625 380.0
v -982.2282104492188 -1228.79296875 380.0
v -1361.675048828125 -200.86529541015625 379.9999084472656
v -1007.7609252929688 -1279.271728515625 410.0
v -1361.675048828125 -200.86529541015625 409.9999084472656
v -1007.7609252929688 -1279.271728515625 380.0
v -982.2282104492188 -1228.79296875 410.0
v -1007.7609252929688 -1279.271728515625 410.0
v -982.2282104492188 -1228.79296875 410.0
v -659.173583984375 -1122.7681884765625 380.0000305175781
v -982.2282104492188 -1228.79296875 380.0
v -659.173583984375 -1122.7681884765625 410.0000305175781
v -646.7002563476562 -1160.773681640625 380.0000305175781
v -659.173583984375 -1122.7681884765625 380.0000305175781
v -1007.7609252929688 -1279.271728515625 380.0
v -646.7002563476562 -1160.773681640625 410.0000305175781
v -1007.7609252929688 -1279.271728515625 410.0
v -646.7002563476562 -1160.773681640625 380.0000305175781
v -659.173583984375 -1122.7681884765625 410.0000305175781
v -646.7002563476562 -1160.773681640625 410.0000305175781
v -988.1416625976562 -120.35968017578125 379.9999084472656
v -1000.6161499023438 -82.35455322265625 379.9999084472656
v -988.1416625976562 -120.35968017578125 409.9999084472656
v -1000.6161499023438 -82.35455322265625 409.9999084472656
v -659.173583984375 -1122.7681884765625 410.0000305175781
v -646.7002563476562 -1160.773681640625 380.0000305175781
v -659.173583984375 -1122.7681884765625 380.0000305175781
v -646.7002563476562 -1160.773681640625 410.0000305175781
v -1079.19970703125 -163.5943603515625 157.2760772705078
v -1196.54052734375 -202.1092529296875 157.2760772705078
v -1086.273193359375 -142.04461669921875 157.2760772705078
v -1203.61376953125 -180.55950927734375 157.2760772705078
v -1079.19970703125 -163.5943603515625 -97.72391510009766
v -1086.273193359375 -142.04461669921875 -97.72391510009766
v -1196.54052734375 -202.1092529296875 -97.72391510009766
v -1203.61376953125 -180.55950927734375 -97.72392272949219
v -1079.19970703125 -163.5943603515625 157.2760772705078
v -1086.273193359375 -142.04461669921875 -97.72391510009766
v -1079.19970703125 -163.5943603515625 -97.72391510009766
v -1086.273193359375 -142.04461669921875 157.2760772705078
v -1196.54052734375 -202.1092529296875 157.2760772705078
v -1196.54052734375 -202.1092529296875 -97.72391510009766
v -1203.61376953125 -180.55950927734375 -97.72392272949219
v -1203.61376953125 -180.55950927734375 157.2760772705078
v -966.2905883789062 -1223.58642578125 196.93695068359375
v -685.139892578125 -1131.314208984375 196.9369659423828
v -963.1793823242188 -1233.06591796875 196.93695068359375
v -682.0287475585938 -1140.7938232421875 196.9369659423828
v -966.2905883789062 -1223.58642578125 -2.3058775695972145e-05
v -963.1793823242188 -1233.0660400390625 -2.2094045561971143e-05
v -685.139892578125 -1131.314208984375 -1.8835971786757e-05
v -682.0287475585938 -1140.7939453125 -1.7871245290734805e-05
v -966.2905883789062 -1223.58642578125 196.93695068359375
v -963.1793823242188 -1233.0660400390625 -2.2094045561971143e-05
v -966.2905883789062 -1223.58642578125 -2.3058775695972145e-05
v -963.1793823242188 -1233.06591796875 196.93695068359375
v -685.139892578125 -1131.314208984375 196.9369659423828
v -685.139892578125 -1131.314208984375 -1.8835971786757e-05
v -682.0287475585938 -1140.7939453125 -1.7871245290734805e-05
v -682.0287475585938 -1140.7938232421875 196.9369659423828
v -1323.81640625 -220.013671875 399.9998779296875
v -1023.9142456054688 -332.08642578125 399.9999084472656
v -991.2603149414062 -110.8583984375 399.9998779296875
v -988.6113891601562 -1241.41259765625 399.9999694824219
v -992.7374877929688 -427.1060485839844 399.9999084472656
v -656.0552368164062 -1132.26953125 400.0
v -718.4209594726562 -942.2548828125 399.9999694824219
v -813.4404907226562 -973.431640625 399.9999694824219
v -844.6172485351562 -878.412109375 399.9999694824219
v -897.7178344726562 -395.9170227050781 399.9999084472656
v -749.6100463867188 -847.2352905273438 399.9999694824219
v -928.9067993164062 -300.90972900390625 399.9998779296875
v -928.9067993164062 -300.90972900390625 399.9998779296875
v -1023.9142456054688 -332.08642578125 399.9999084472656
v -928.9067993164062 -300.90972900390625 599.9998779296875
v -1023.9142456054688 -332.08642578125 599.9998779296875
v -1023.9142456054688 -332.08642578125 399.9999084472656
v -992.7374877929688 -427.1060791015625 399.9999084472656
v -1023.9142456054688 -332.08642578125 599.9998779296875
v -992.7374877929688 -427.1060485839844 599.9998779296875
v -992.7374877929688 -427.1060485839844 399.9999084472656
v -897.7178344726562 -395.9170837402344 399.9999084472656
v -992.7374877929688 -427.10601806640625 599.9998779296875
v -897.7178344726562 -395.91705322265625 599.9998779296875
v -932.7764282226562 -288.95904541015625 449.9998779296875
v -1039.6611328125 -324.02984619140625 449.9998779296875
v -893.7992553710938 -407.7334899902344 449.9999084472656
v -1000.6963500976562 -442.8042907714844 449.9999084472656
v -932.7764282226562 -288.95904541015625 399.9998779296875
v -893.7992553710938 -407.7334899902344 399.9999084472656
v -1039.6611328125 -324.02984619140625 399.9998779296875
v -1000.6963500976562 -442.8042907714844 399.9999084472656
v -932.7764282226562 -288.95904541015625 449.9998779296875
v -1039.6611328125 -324.02984619140625 399.9998779296875
v -1039.6611328125 -324.02984619140625 449.9998779296875
v -932.7764282226562 -288.95904541015625 399.9998779296875
v -1039.6611328125 -324.02984619140625 449.9998779296875
v -1000.6963500976562 -442.8042907714844 399.9999084472656
v -1000.6963500976562 -442.8042907714844 449.9999084472656
v -1039.6611328125 -324.02984619140625 399.9998779296875
v -1000.6963500976562 -442.8042907714844 449.9999084472656
v -893.7992553710938 -407.7334899902344 399.9999084472656
v -893.7992553710938 -407.7334899902344 449.9999084472656
v -1000.6963500976562 -442.8042907714844 399.9999084472656
v -893.7992553710938 -407.7334899902344 449.9999084472656
v -932.7764282226562 -288.95904541015625 399.9998779296875
v -932.7764282226562 -288.95904541015625 449.9998779296875
v -893.7992553710938 -407.7334899902344 399.9999084472656
v -932.7764282226562 -288.97125244140625 599.9998779296875
v -1039.6611328125 -324.04205322265625 599.9998779296875
v -893.7992553710938 -407.74566650390625 599.9998779296875
v -1000.6963500976562 -442.81646728515625 599.9998779296875
v -932.7764282226562 -288.97125244140625 589.9998779296875
v -893.7992553710938 -407.74566650390625 589.9998779296875
v -1039.6611328125 -324.04205322265625 589.9998779296875
v -1000.6963500976562 -442.81646728515625 589.9998779296875
v -932.7764282226562 -288.97125244140625 599.9998779296875
v -1039.6611328125 -324.04205322265625 589.9998779296875
v -1039.6611328125 -324.04205322265625 599.9998779296875
v -932.7764282226562 -288.97125244140625 589.9998779296875
v -1039.6611328125 -324.04205322265625 599.9998779296875
v -1000.6963500976562 -442.81646728515625 589.9998779296875
v -1000.6963500976562 -442.81646728515625 599.9998779296875
v -1039.6611328125 -324.04205322265625 589.9998779296875
v -1000.6963500976562 -442.81646728515625 599.9998779296875
v -893.7992553710938 -407.74566650390625 589.9998779296875
v -893.7992553710938 -407.74566650390625 599.9998779296875
v -1000.6963500976562 -442.81646728515625 589.9998779296875
v -893.7992553710938 -407.74566650390625 599.9998779296875
v -932.7764282226562 -288.97125244140625 589.9998779296875
v -932.7764282226562 -288.97125244140625 599.9998779296875
v -893.7992553710938 -407.74566650390625 589.9998779296875
v -928.9067993164062 -300.90972900390625 699.9998779296875
v -932.1602172851562 -301.97735595703125 699.9998779296875
v -1023.9142456054688 -332.08642578125 599.9998779296875
v -992.7374877929688 -427.1060485839844 599.9998779296875
v -932.1602172851562 -301.977294921875 699.9998779296875
v -900.9859008789062 -396.9897766113281 699.9998779296875
v -900.9859008789062 -396.98968505859375 699.9998779296875
v -897.7178344726562 -395.9169921875 699.9998779296875
v -900.9859008789062 -396.98974609375 699.9998779296875
v -928.9067993164062 -300.90972900390625 699.9998779296875
v -932.1602172851562 -301.977294921875 699.9998779296875
v -897.7178344726562 -395.9169921875 699.9998779296875
v -749.6100463867188 -847.2352905273438 399.9999694824219
v -844.6172485351562 -878.412109375 399.9999694824219
v -749.6100463867188 -847.2352905273438 599.9999389648438
v -844.6172485351562 -878.412109375 599.9999389648438
v -844.6172485351562 -878.412109375 399.9999694824219
v -813.4404907226562 -973.431640625 399.9999694824219
v -844.6172485351562 -878.412109375 599.9999389648438
v -813.4404907226562 -973.431640625 599.9999389648438
v -813.4404907226562 -973.4315795898438 399.9999694824219
v -718.4209594726562 -942.2549438476562 399.9999694824219
v -813.4404907226562 -973.4315795898438 599.9999389648438
v -718.4209594726562 -942.2548828125 599.9999389648438
v -753.5161743164062 -835.296875 599.9999389648438
v -860.4131469726562 -870.36767578125 599.9999389648438
v -714.5392456054688 -954.0712890625 599.9999389648438
v -821.4360961914062 -989.14208984375 599.9999389648438
v -753.5161743164062 -835.296875 589.9999389648438
v -714.5392456054688 -954.0712890625 589.9999389648438
v -860.4131469726562 -870.36767578125 589.9999389648438
v -821.4360961914062 -989.14208984375 589.9999389648438
v -753.5161743164062 -835.296875 599.9999389648438
v -860.4131469726562 -870.36767578125 589.9999389648438
v -860.4131469726562 -870.36767578125 599.9999389648438
v -753.5161743164062 -835.296875 589.9999389648438
v -860.4131469726562 -870.36767578125 599.9999389648438
v -821.4360961914062 -989.14208984375 589.9999389648438
v -821.4360961914062 -989.14208984375 599.9999389648438
v -860.4131469726562 -870.36767578125 589.9999389648438
v -821.4360961914062 -989.14208984375 599.9999389648438
v -714.5392456054688 -954.0712890625 589.9999389648438
v -714.5392456054688 -954.0712890625 599.9999389648438
v -821.4360961914062 -989.14208984375 589.9999389648438
v -714.5392456054688 -954.0712890625 599.9999389648438
v -753.5161743164062 -835.296875 589.9999389648438
v -753.5161743164062 -835.296875 599.9999389648438
v -714.5392456054688 -954.0712890625 589.9999389648438
v -753.5161743164062 -835.296875 449.9999694824219
v -860.4131469726562 -870.3677368164062 449.9999694824219
v -714.5392456054688 -954.0712890625 449.9999694824219
v -821.4360961914062 -989.14208984375 449.9999694824219
v -753.5161743164062 -835.2969360351562 399.9999694824219
v -714.5392456054688 -954.0712890625 399.9999694824219
v -860.4131469726562 -870.3677368164062 399.9999694824219
v -821.4360961914062 -989.1421508789062 399.9999694824219
v -753.5161743164062 -835.296875 449.9999694824219
v -860.4131469726562 -870.3677368164062 399.9999694824219
v -860.4131469726562 -870.3677368164062 449.9999694824219
v -753.5161743164062 -835.2969360351562 399.9999694824219
v -860.4131469726562 -870.3677368164062 449.9999694824219
v -821.4360961914062 -989.1421508789062 399.9999694824219
v -821.4360961914062 -989.14208984375 449.9999694824219
v -860.4131469726562 -870.3677368164062 399.9999694824219
v -821.4360961914062 -989.14208984375 449.9999694824219
v -714.5392456054688 -954.0712890625 399.9999694824219
v -714.5392456054688 -954.0712890625 449.9999694824219
v -821.4360961914062 -989.1421508789062 399.9999694824219
v -714.5392456054688 -954.0712890625 449.9999694824219
v -753.5161743164062 -835.2969360351562 399.9999694824219
v -753.5161743164062 -835.296875 449.9999694824219
v -714.5392456054688 -954.0712890625 399.9999694824219
v -749.610107421875 -847.2352905273438 699.9999389648438
v -752.8636474609375 -848.3029174804688 699.9999389648438
v -844.6172485351562 -878.412109375 599.9999389648438
v -813.4404907226562 -973.431640625 599.9999389648438
v -752.863525390625 -848.3031005859375 699.9999389648438
v -721.6856689453125 -943.3259887695312 700.0
v -721.6856079101562 -943.3259887695312 699.9999389648438
v -718.4209594726562 -942.2548217773438 699.9999389648438
v -721.6856079101562 -943.3259887695312 699.9999389648438
v -749.610107421875 -847.2352905273438 699.9999389648438
v -752.863525390625 -848.3031005859375 699.9999389648438
v -718.4209594726562 -942.2548828125 699.9999389648438
v -204.7459716796875 -984.1646728515625 -4.741047177958535e-06
v -63.684661865234375 -1253.61962890625 2.49814402195625e-05
v -157.2392578125 -968.5732421875 -4.027509021398146e-06
v -111.19439697265625 -1269.2080078125 2.426750143058598e-05
v -204.7459716796875 -984.1646728515625 -25.0000057220459
v -111.19439697265625 -1269.2080078125 2.426750143058598e-05
v -204.7459716796875 -984.1646728515625 -4.741047177958535e-06
v -111.19439697265625 -1269.2080078125 -24.999975204467773
v -252.25274658203125 -999.756103515625 -25.0000057220459
v -111.19439697265625 -1269.2080078125 -24.999975204467773
v -204.7459716796875 -984.1646728515625 -25.0000057220459
v -158.70413208007812 -1284.79638671875 -24.999977111816406
v -252.25274658203125 -999.756103515625 -50.00000762939453
v -158.70413208007812 -1284.79638671875 -24.999977111816406
v -252.25274658203125 -999.756103515625 -25.0000057220459
v -158.70413208007812 -1284.79638671875 -49.999977111816406
v -299.75946044921875 -1015.3475952148438 -50.000003814697266
v -158.70413208007812 -1284.79638671875 -49.999977111816406
v -252.25274658203125 -999.756103515625 -50.00000762939453
v -206.21389770507812 -1300.384765625 -49.999977111816406
v -299.75946044921875 -1015.3475952148438 -75.00000762939453
v -206.21389770507812 -1300.384765625 -49.999977111816406
v -299.75946044921875 -1015.3475952148438 -50.000003814697266
v -206.21389770507812 -1300.384765625 -74.9999771118164
v -347.26617431640625 -1030.93896484375 -75.00000762939453
v -206.21389770507812 -1300.384765625 -74.9999771118164
v -299.75946044921875 -1015.3475952148438 -75.00000762939453
v -253.72366333007812 -1315.97314453125 -74.9999771118164
v -347.26617431640625 -1030.9390869140625 -100.00000762939453
v -253.72366333007812 -1315.97314453125 -74.9999771118164
v -347.26617431640625 -1030.93896484375 -75.00000762939453
v -253.72366333007812 -1315.97314453125 -99.9999771118164
v -157.2392578125 -968.5732421875 -4.027510840387549e-06
v -24.707550048828125 -1372.3818359375 3.7067700759507716e-05
v 828.53955078125 -645.0625 1.0780046068248339e-05
v 961.0712890625 -1048.87109375 5.1875264034606516e-05
v -1399.5732421875 491.8636474609375 -200.0001983642578
v -1391.77294921875 468.1087646484375 -200.00018310546875
v -1399.5732421875 491.8636474609375 -0.00018600712064653635
v -1391.77294921875 468.1087646484375 -0.00018358943634666502
v -1391.77294921875 468.1087646484375 -200.00018310546875
v -1201.74609375 530.474609375 -100.00018310546875
v -1391.77294921875 468.1087646484375 -0.00018358943634666502
v -1201.746337890625 530.474609375 99.99981689453125
v -1209.54638671875 554.21728515625 -100.00018310546875
v -1399.5732421875 491.8636474609375 -0.00018600712064653635
v -1209.546630859375 554.21728515625 99.99981689453125
v -1399.5732421875 491.8636474609375 -200.0001983642578
v -1399.5732421875 491.8636474609375 -0.00018600712064653635
v -1391.77294921875 468.1087646484375 -0.00018358943634666502
v -1209.546630859375 554.21728515625 99.99981689453125
v -1201.746337890625 530.474609375 99.99981689453125
v -1282.6298828125 135.55255126953125 -200.00015258789062
v -1274.841796875 111.79779052734375 -200.00015258789062
v -1282.6298828125 135.55255126953125 -0.00014974563964642584
v -1274.841796875 111.79779052734375 -0.0001473285083193332
v -1274.841796875 111.79779052734375 -200.00015258789062
v -1084.802734375 174.16357421875 -100.0001449584961
v -1274.841796875 111.79779052734375 -0.0001473285083193332
v -1084.802734375 174.16357421875 99.9998550415039
v -1092.60302734375 197.91845703125 -100.0001449584961
v -1282.6298828125 135.55255126953125 -0.00014974563964642584
v -1092.60302734375 197.91845703125 99.9998550415039
v -1282.6298828125 135.55255126953125 -200.00015258789062
v -1282.6298828125 135.55255126953125 -0.00014974563964642584
v -1274.841796875 111.79779052734375 -0.0001473285083193332
v -1092.60302734375 197.91845703125 99.9998550415039
v -1084.802734375 174.16357421875 99.9998550415039
v 828.53955078125 -645.0625 -99.99998474121094
v 961.0712280273438 -1048.87109375 -99.99994659423828
v 828.53955078125 -645.0624389648438 100.00001525878906
v 961.0712280273438 -1048.87109375 100.00005340576172
v 961.0712280273438 -1048.87109375 -99.99994659423828
v -24.707412719726562 -1372.3817138671875 -99.99996185302734
v 961.0712280273438 -1048.87109375 100.00005340576172
v -24.707427978515625 -1372.3817138671875 100.00003814697266
v -24.707504272460938 -1372.3818359375 -99.99996185302734
v -63.684661865234375 -1253.61962890625 -99.99996948242188
v -24.70751953125 -1372.3818359375 100.00001525878906
v -63.684661865234375 -1253.61962890625 100.00000762939453
v -63.684661865234375 -1253.61962890625 -99.99996948242188
v -87.43942260742188 -1261.40771484375 -99.99996948242188
v -63.684661865234375 -1253.61962890625 100.00003051757812
v -87.439453125 -1261.40771484375 100.00003051757812
v -87.43942260742188 -1261.40771484375 -99.99996948242188
v -40.67448425292969 -1403.93701171875 -99.99996185302734
v -87.439453125 -1261.40771484375 100.00003051757812
v -40.67449951171875 -1403.93701171875 100.00003814697266
v -40.67448425292969 -1403.93701171875 -99.99996185302734
v 992.6141967773438 -1064.82568359375 -99.99994659423828
v -40.67449951171875 -1403.93701171875 100.00001525878906
v 992.6141967773438 -1064.82568359375 100.00003051757812
v 992.6141967773438 -1064.82568359375 -99.99994659423828
v 852.2943725585938 -637.26220703125 -99.99998474121094
v 992.6141967773438 -1064.82568359375 100.00003051757812
v 852.2943725585938 -637.26220703125 99.99999237060547
v 961.0712280273438 -1048.87109375 100.00005340576172
v 852.2943115234375 -637.2621459960938 100.00001525878906
v 828.53955078125 -645.0624389648438 100.00001525878906
v 992.6141967773438 -1064.82568359375 100.00005340576172
v -24.70751953125 -1372.3818359375 100.00003814697266
v -40.67449951171875 -1403.93701171875 100.00003814697266
v -63.684661865234375 -1253.61962890625 100.00003051757812
v -87.439453125 -1261.40771484375 100.00003051757812
v 816.6620483398438 -648.9442749023438 -99.99998474121094
v 820.55615234375 -660.82177734375 -99.99998474121094
v 816.6620483398438 -648.9442138671875 400.0
v 820.55615234375 -660.82177734375 400.0
v 820.55615234375 -660.82177734375 -99.99998474121094
v 868.0536499023438 -645.2333984375 -99.99998474121094
v 820.55615234375 -660.82177734375 400.0
v 868.0536499023438 -645.2333984375 400.0
v 868.0536499023438 -645.2333984375 -99.99998474121094
v 864.171875 -633.35595703125 -99.99998474121094
v 868.0536499023438 -645.2333984375 400.0
v 864.171875 -633.35595703125 400.0
v 816.6620483398438 -648.9442138671875 400.0
v 820.55615234375 -660.82177734375 400.0
v 864.171875 -633.35595703125 400.0
v 868.0536499023438 -645.2333984375 400.0
v -204.73687744140625 -984.1494140625 -4.741983048006659e-06
v -200.8428955078125 -996.0391235351562 -3.532340315359761e-06
v -204.73687744140625 -984.1494140625 399.9999694824219
v -200.8428955078125 -996.0390625 399.9999694824219
v -200.8428955078125 -996.0391235351562 -3.532340315359761e-06
v -153.33306884765625 -980.4385375976562 -2.8194674541737186e-06
v -200.8428955078125 -996.0390625 399.9999694824219
v -153.33306884765625 -980.4384765625 400.0
v -153.33306884765625 -980.4385375976562 -2.8194674541737186e-06
v -157.2392578125 -968.56103515625 -4.028577677672729e-06
v -153.33306884765625 -980.4384765625 400.0
v -157.2392578125 -968.5609741210938 400.0
v -204.73687744140625 -984.1494140625 399.9999694824219
v -200.8428955078125 -996.0390625 399.9999694824219
v -157.2392578125 -968.5609741210938 400.0
v -153.33306884765625 -980.4384765625 400.0
v 134.7528076171875 -912.21337890625 450.0
v -145.54498291015625 -1004.1810913085938 450.0
v 123.05848693847656 -876.5809936523438 450.0
v -157.22708129882812 -968.5609741210938 450.0
v 189.56239318847656 -854.74267578125 450.0
v 474.6087951660156 -761.1879272460938 450.0
v 201.2567138671875 -890.3749389648438 450.0
v 486.3030700683594 -796.8202514648438 450.0
v 541.1126708984375 -739.3617553710938 450.0000305175781
v 826.1591186523438 -645.8192138671875 450.0
v 552.8070068359375 -774.9940185546875 450.0000305175781
v 837.8534545898438 -681.4515991210938 450.0000305175781
v -145.54498291015625 -1004.1810913085938 450.0
v 134.7527618408203 -912.21337890625 450.0
v -95.04586791992188 -987.6119384765625 484.2790222167969
v -95.0458984375 -987.6119384765625 689.2789916992188
v 94.9865951538086 -925.2609252929688 689.2789916992188
v -145.54501342773438 -1004.1810302734375 750.0
v 134.75274658203125 -912.21337890625 750.0
v 94.98661041259766 -925.2609252929688 484.2790222167969
v 134.7528076171875 -912.21337890625 450.0
v 123.05848693847656 -876.5809936523438 450.0
v 134.75279235839844 -912.2133178710938 749.9999389648438
v 123.05847930908203 -876.5809326171875 749.9999389648438
v -157.22708129882812 -968.5609741210938 450.0
v -145.54498291015625 -1004.1810913085938 450.0
v -157.22711181640625 -968.5609741210938 750.0
v -145.54501342773438 -1004.1810302734375 750.0
v -98.1634521484375 -978.1102905273438 689.2789916992188
v 91.86904907226562 -915.75927734375 689.2789916992188
v -95.0458984375 -987.6119384765625 689.2789916992188
v 94.9865951538086 -925.2609252929688 689.2789916992188
v -98.1634521484375 -978.1103515625 484.2790222167969
v -95.04586791992188 -987.6119384765625 484.2790222167969
v 91.86906433105469 -915.75927734375 484.2790222167969
v 94.98661041259766 -925.2609252929688 484.2790222167969
v -98.1634521484375 -978.1102905273438 689.2789916992188
v -95.04586791992188 -987.6119384765625 484.2790222167969
v -98.1634521484375 -978.1103515625 484.2790222167969
v -95.0458984375 -987.6119384765625 689.2789916992188
v 91.86904907226562 -915.75927734375 689.2789916992188
v 91.86906433105469 -915.75927734375 484.2790222167969
v 94.98661041259766 -925.2609252929688 484.2790222167969
v 94.9865951538086 -925.2609252929688 689.2789916992188
v 134.75279235839844 -912.2133178710938 750.0
v 123.05847930908203 -876.5809326171875 750.0
v -145.54501342773438 -1004.1810302734375 750.0
v -157.22711181640625 -968.5609741210938 750.0
v 189.56239318847656 -854.74267578125 450.0
v 201.25669860839844 -890.3749389648438 450.0
v 189.5623779296875 -854.7426147460938 750.0
v 201.25668334960938 -890.3749389648438 750.0
v 201.25669860839844 -890.3749389648438 450.0
v 486.3030700683594 -796.8202514648438 450.0
v 251.75430297851562 -873.8012084960938 484.2790222167969
v 251.75430297851562 -873.8011474609375 689.2789916992188
v 441.78106689453125 -811.4327392578125 689.2789916992188
v 201.25668334960938 -890.3749389648438 750.0
v 486.3030700683594 -796.8201904296875 750.0
v 441.78106689453125 -811.4327392578125 484.2790222167969
v 486.3030700683594 -796.8202514648438 450.0
v 474.6087951660156 -761.1879272460938 450.0
v 486.3030700683594 -796.8201904296875 750.0
v 474.6087951660156 -761.1879272460938 750.0
v 248.63587951660156 -864.2998657226562 689.2789916992188
v 438.6626281738281 -801.931396484375 689.2789916992188
v 251.75430297851562 -873.8011474609375 689.2789916992188
v 441.78106689453125 -811.4327392578125 689.2789916992188
v 248.63589477539062 -864.2998657226562 484.2790222167969
v 251.75430297851562 -873.8012084960938 484.2790222167969
v 438.6626281738281 -801.931396484375 484.2790222167969
v 441.78106689453125 -811.4327392578125 484.2790222167969
v 248.63587951660156 -864.2998657226562 689.2789916992188
v 251.75430297851562 -873.8012084960938 484.2790222167969
v 248.63589477539062 -864.2998657226562 484.2790222167969
v 251.75430297851562 -873.8011474609375 689.2789916992188
v 438.6626281738281 -801.931396484375 689.2789916992188
v 438.6626281738281 -801.931396484375 484.2790222167969
v 441.78106689453125 -811.4327392578125 484.2790222167969
v 441.78106689453125 -811.4327392578125 689.2789916992188
v 189.5623779296875 -854.7426147460938 750.0
v 201.25668334960938 -890.3749389648438 750.0
v 474.6087951660156 -761.1879272460938 750.0
v 486.3030700683594 -796.8201904296875 750.0
v 541.1126708984375 -739.3617553710938 450.0000305175781
v 552.8070068359375 -774.9940185546875 450.0000305175781
v 541.1126708984375 -739.3616943359375 750.0
v 552.8070068359375 -774.9940185546875 750.0
v 552.8070068359375 -774.9940185546875 450.0000305175781
v 837.853515625 -681.4515991210938 450.0000305175781
v 603.3052978515625 -758.4222412109375 484.279052734375
v 603.3052978515625 -758.4222412109375 689.2789916992188
v 793.33447265625 -696.0611572265625 689.2789916992188
v 552.8070068359375 -774.9940185546875 749.9999389648438
v 837.8534545898438 -681.4515991210938 749.9999389648438
v 793.3345336914062 -696.0611572265625 484.279052734375
v 837.8534545898438 -681.45166015625 450.0000305175781
v 826.1591186523438 -645.8192138671875 450.0
v 837.8533935546875 -681.4515991210938 749.9999389648438
v 826.1590576171875 -645.8192138671875 749.9999389648438
v 600.187255859375 -748.9207763671875 689.2789916992188
v 790.2164306640625 -686.5596923828125 689.2789916992188
v 603.3052978515625 -758.4222412109375 689.2789916992188
v 793.33447265625 -696.0611572265625 689.2789916992188
v 600.187255859375 -748.9207763671875 484.279052734375
v 603.3052978515625 -758.4222412109375 484.279052734375
v 790.2164916992188 -686.5597534179688 484.279052734375
v 793.3345336914062 -696.0611572265625 484.279052734375
v 600.187255859375 -748.9207763671875 689.2789916992188
v 603.3052978515625 -758.4222412109375 484.279052734375
v 600.187255859375 -748.9207763671875 484.279052734375
v 603.3052978515625 -758.4222412109375 689.2789916992188
v 790.2164306640625 -686.5596923828125 689.2789916992188
v 790.2164916992188 -686.5597534179688 484.279052734375
v 793.3345336914062 -696.0611572265625 484.279052734375
v 793.33447265625 -696.0611572265625 689.2789916992188
v 541.1126708984375 -739.3616943359375 750.0
v 552.8070068359375 -774.9940185546875 750.0
v 826.1590576171875 -645.8192138671875 750.0
v 837.8533935546875 -681.4515991210938 750.0
v 1.90362548828125 951.33642578125 399.9998474121094
v 509.4355163574219 -755.5116577148438 400.0
v 129.3817138671875 -880.2431640625 400.0
v -1214.283203125 552.203125 399.99981689453125
v -300.9405517578125 430.95068359375 399.9998474121094
v -1089.551513671875 172.13720703125 399.9998474121094
f 30 29 31
f 31 32 30
f 529 528 530
f 531 529 530
f 521 520 522
f 522 527 521
f 527 526 521
f 524 526 527
f 525 526 524
f 524 523 525
f 523 520 525
f 522 520 523
f 1047 1046 1048
f 1050 1048 1046
f 1046 1049 1050
f 1050 1049 1051
f 501 500 502
f 503 501 502
f 497 496 498
f 499 497 498
f 480 483 479
f 475 474 476
f 474 475 481
f 481 480 474
f 480 477 474
f 479 477 480
f 478 477 479
f 477 478 482
f 478 476 482
f 475 476 478
f 1039 1038 1040
f 1040 1038 1041
f 1037 1034 1035
f 1035 1034 1036
f 1003 1002 1004
f 1004 1002 1005
f 1001 998 999
f 999 998 1000
f 967 966 968
f 968 966 969
f 965 962 963
f 963 962 964
f 892 891 893
f 891 892 890
f 890 889 891
f 886 889 890
f 886 887 889
f 887 886 888
f 850 851 853
f 851 850 852
f 834 835 837
f 835 834 836
f 623 622 624
f 624 622 625
f 621 618 619
f 619 618 620
f 607 606 608
f 608 606 609
f 605 602 603
f 603 602 604
f 471 470 472
f 472 470 473
f 469 466 467
f 467 466 468
f 455 454 456
f 456 454 457
f 453 450 451
f 451 450 452
f 439 438 440
f 440 438 441
f 437 434 435
f 435 434 436
f 423 422 424
f 424 422 425
f 421 418 419
f 419 418 420
f 280 291 279
f 279 278 280
f 280 278 284
f 284 278 283
f 289 284 283
f 288 289 283
f 287 288 283
f 288 293 289
f 293 291 289
f 291 293 279
f 293 294 279
f 294 295 279
f 295 294 287
f 286 295 287
f 286 287 283
f 285 286 283
f 281 285 283
f 281 297 285
f 297 296 285
f 296 297 279
f 295 296 279
f 282 281 283
f 283 290 282
f 282 290 292
f 292 290 279
f 297 292 279
f 26 25 27
f 28 26 27
f 22 21 23
f 24 22 23
f 18 17 19
f 20 18 19
f 14 13 15
f 15 16 14
f 10 9 11
f 12 10 11
f 6 5 7
f 8 6 7
f 2 1 3
f 4 2 3
f 1043 1042 1044
f 1044 1045 1043
f 1031 1030 1032
f 1032 1033 1031
f 1027 1026 1028
f 1028 1029 1027
f 1023 1022 1024
f 1025 1023 1024
f 1015 1014 1016
f 1016 1021 1015
f 1021 1020 1015
f 1018 1020 1021
f 1019 1020 1018
f 1018 1017 1019
f 1017 1014 1019
f 1016 1014 1017
f 97 98 100
f 98 97 99
f 78 77 79
f 80 79 77
f 533 537 238
f 238 532 533
f 533 532 534
f 534 532 536
f 535 534 536
f 536 240 535
f 535 240 537
f 537 240 238
f 239 238 240
f 241 239 240
f 1011 1010 1012
f 1013 1011 1012
f 1007 1006 1008
f 1008 1009 1007
f 995 994 996
f 996 997 995
f 991 990 992
f 992 993 991
f 987 986 988
f 989 987 988
f 975 974 976
f 977 975 976
f 971 970 972
f 972 973 971
f 959 958 960
f 960 961 959
f 955 954 956
f 956 957 955
f 951 950 952
f 953 951 952
f 947 946 948
f 949 947 948
f 939 938 940
f 940 945 939
f 945 944 939
f 942 944 945
f 943 944 942
f 942 941 943
f 941 938 943
f 940 938 941
f 979 978 980
f 980 985 979
f 985 984 979
f 982 984 985
f 983 984 982
f 982 981 983
f 981 978 983
f 980 978 981
f 935 934 936
f 936 937 935
f 931 930 932
f 932 933 931
f 927 926 928
f 928 929 927
f 923 922 924
f 924 925 923
f 907 906 908
f 908 909 907
f 883 882 884
f 885 883 884
f 879 878 880
f 881 879 880
f 875 874 876
f 877 875 876
f 871 870 872
f 873 871 872
f 867 866 868
f 869 867 868
f 863 862 864
f 865 863 864
f 859 858 860
f 861 859 860
f 855 854 856
f 856 857 855
f 847 846 848
f 848 849 847
f 843 842 844
f 845 843 844
f 839 838 840
f 840 841 839
f 831 830 832
f 832 833 831
f 827 826 828
f 829 827 828
f 615 614 616
f 616 617 615
f 611 610 612
f 612 613 611
f 599 598 600
f 600 601 599
f 595 594 596
f 596 597 595
f 463 462 464
f 464 465 463
f 459 458 460
f 460 461 459
f 447 446 448
f 448 449 447
f 443 442 444
f 444 445 443
f 431 430 432
f 432 433 431
f 427 426 428
f 428 429 427
f 415 414 416
f 416 417 415
f 411 410 412
f 412 413 411
f 275 274 276
f 277 275 276
f 271 270 272
f 273 271 272
f 236 235 194
f 237 236 194
f 192 191 193
f 194 192 193
f 204 203 205
f 205 206 204
f 200 199 201
f 202 200 201
f 196 195 197
f 198 196 197
f 188 187 189
f 189 190 188
f 184 183 185
f 186 184 185
f 180 179 181
f 182 180 181
f 176 175 177
f 178 176 177
f 102 101 103
f 103 104 102
f 94 93 95
f 95 96 94
f 90 89 91
f 92 90 91
f 86 85 87
f 88 86 87
f 82 81 83
f 84 82 83
f 74 73 75
f 75 76 74
f 70 69 71
f 72 70 71
f 66 65 67
f 68 66 67
f 62 61 63
f 64 62 63
f 58 57 59
f 59 60 58
f 54 53 55
f 56 54 55
f 50 49 51
f 52 50 51
f 46 45 47
f 48 46 47
f 42 41 43
f 44 42 43
f 38 37 39
f 40 38 39
f 34 33 35
f 35 36 34
f 112 109 110
f 110 109 111
f 172 167 173
f 172 174 171
f 171 170 172
f 170 167 172
f 169 167 170
f 167 169 166
f 166 164 167
f 164 162 167
f 161 162 164
f 162 161 163
f 165 164 166
f 162 168 167
f 142 141 143
f 140 139 141
f 139 146 141
f 141 146 143
f 143 146 145
f 144 143 145
f 138 137 139
f 137 146 139
f 823 822 824
f 824 825 823
f 158 157 159
f 160 158 159
f 155 154 156
f 156 154 148
f 149 156 148
f 148 147 149
f 151 150 152
f 152 150 148
f 154 152 148
f 153 152 154
f 108 105 106
f 106 105 107
f 821 818 819
f 819 818 820
f 817 814 815
f 815 814 816
f 813 810 811
f 811 810 812
f 809 806 807
f 807 806 808
f 805 802 803
f 803 802 804
f 801 798 799
f 799 798 800
f 797 794 795
f 795 794 796
f 793 790 791
f 791 790 792
f 136 133 134
f 134 133 135
f 132 129 130
f 130 129 131
f 128 125 126
f 126 125 127
f 124 121 122
f 122 121 123
f 120 117 118
f 118 117 119
f 116 113 114
f 114 113 115
f 212 211 213
f 214 212 213
f 208 207 209
f 210 208 209
f 493 492 494
f 495 493 494
f 243 242 244
f 245 243 244
f 232 231 233
f 234 232 233
f 228 227 229
f 230 228 229
f 224 223 225
f 226 224 225
f 220 219 221
f 222 220 221
f 216 215 217
f 218 216 217
f 489 490 488
f 488 487 489
f 487 484 489
f 486 484 487
f 485 484 486
f 486 491 485
f 491 490 485
f 488 490 491
f 517 516 518
f 518 516 519
f 515 512 513
f 513 512 514
f 508 509 511
f 509 508 510
f 505 504 506
f 507 506 504
f 267 266 268
f 268 266 269
f 265 262 263
f 263 262 264
f 258 259 261
f 259 258 260
f 255 254 256
f 257 256 254
f 249 246 251
f 250 249 251
f 251 252 250
f 250 252 253
f 253 252 247
f 248 253 247
f 247 246 248
f 248 246 249
f 307 309 306
f 307 306 308
f 303 305 302
f 303 302 304
f 299 301 298
f 299 298 300
f 919 918 920
f 921 919 920
f 915 914 916
f 917 915 916
f 911 910 912
f 913 911 912
f 903 902 904
f 905 903 904
f 899 898 900
f 901 899 900
f 895 894 896
f 897 895 896
f 587 586 588
f 589 587 588
f 583 585 582
f 583 582 584
f 579 581 578
f 579 578 580
f 575 577 574
f 575 574 576
f 571 573 570
f 571 570 572
f 567 569 566
f 567 566 568
f 563 565 562
f 563 562 564
f 559 561 558
f 559 558 560
f 555 557 554
f 555 554 556
f 551 553 550
f 551 550 552
f 547 549 546
f 547 546 548
f 543 545 542
f 543 542 544
f 539 541 538
f 539 538 540
f 403 402 404
f 405 403 404
f 399 401 398
f 399 398 400
f 395 397 394
f 395 394 396
f 391 393 390
f 391 390 392
f 387 389 386
f 387 386 388
f 383 385 382
f 383 382 384
f 379 381 378
f 379 378 380
f 375 377 374
f 375 374 376
f 371 373 370
f 371 370 372
f 367 369 366
f 367 366 368
f 363 365 362
f 363 362 364
f 359 361 358
f 359 358 360
f 355 357 354
f 355 354 356
f 347 346 348
f 349 347 348
f 343 345 342
f 343 342 344
f 339 341 338
f 339 338 340
f 335 337 334
f 335 334 336
f 331 333 330
f 331 330 332
f 327 329 326
f 327 326 328
f 323 325 322
f 323 322 324
f 319 321 318
f 319 318 320
f 315 317 314
f 315 314 316
f 311 313 310
f 311 310 312
f 634 635 636
f 635 634 629
f 629 630 635
f 630 629 627
f 627 629 626
f 627 626 628
f 628 637 627
f 634 633 629
f 633 631 629
f 632 631 633
f 593 590 591
f 591 590 592
f 409 406 407
f 407 406 408
f 353 350 351
f 351 350 352
f 639 638 640
f 641 639 640
f 783 782 784
f 785 783 784
f 779 778 780
f 781 779 780
f 775 774 776
f 777 775 776
f 755 754 756
f 756 757 755
f 751 750 752
f 752 753 751
f 731 730 732
f 732 733 731
f 727 726 728
f 728 729 727
f 723 722 724
f 725 723 724
f 719 718 720
f 721 719 720
f 715 714 716
f 717 715 716
f 707 706 708
f 709 707 708
f 703 702 704
f 705 703 704
f 699 698 700
f 701 699 700
f 679 678 680
f 680 681 679
f 675 674 676
f 676 677 675
f 655 654 656
f 656 657 655
f 651 650 652
f 652 653 651
f 647 646 648
f 649 647 648
f 645 643 644
f 643 642 644
f 661 658 659
f 659 658 660
f 665 662 663
f 663 662 664
f 669 666 667
f 667 666 668
f 673 670 671
f 671 670 672
f 685 682 683
f 683 682 684
f 689 686 687
f 687 686 688
f 693 690 691
f 691 690 692
f 697 694 695
f 695 694 696
f 710 711 713
f 711 710 712
f 737 734 735
f 735 734 736
f 741 738 739
f 739 738 740
f 745 742 743
f 743 742 744
f 749 746 747
f 747 746 748
f 761 758 759
f 759 758 760
f 765 762 763
f 763 762 764
f 769 766 767
f 767 766 768
f 773 770 771
f 771 770 772
f 786 787 789
f 787 786 788
