# from FinancialDistrict_Block35_Generic_0012_LOD_0.pskx
v -53.419273376464844 53.19467544555664 -203.0028076171875
v -80.72421264648438 236.18479919433594 -203.0028076171875
v -170.80322265625 115.22677612304688 -203.0028076171875
v 33.607845306396484 140.44895935058594 -203.0028076171875
v -1186.1988525390625 -541.3207397460938 450.0075988769531
v -1303.821533203125 12.049781799316406 450.007568359375
v -1111.019775390625 125.34333801269531 400.0018005371094
v -963.985107421875 -566.4000854492188 400.0018310546875
v -125.34341430664062 -1111.019775390625 400.001953125
v 566.4000244140625 -963.9850463867188 400.0019836425781
v -12.049690246582031 -1303.82177734375 450.0077209472656
v 541.3207397460938 -1186.1990966796875 450.00775146484375
v 125.34336853027344 1111.019775390625 400.00177001953125
v -566.4000854492188 963.98486328125 400.00177001953125
v 12.049720764160156 1303.821533203125 450.0074768066406
v -541.3208618164062 1186.19873046875 450.00750732421875
v 1186.1988525390625 541.3206787109375 450.0075988769531
v 1303.821533203125 -12.049903869628906 450.0076904296875
v 1111.019775390625 -125.34358215332031 400.0019226074219
v 963.9849853515625 566.39990234375 400.0018615722656
v -633.3904418945312 769.0299682617188 400.0
v -960.167236328125 265.8375244140625 400.0000305175781
v 265.8375244140625 960.1671142578125 400.0000305175781
v -769.0302124023438 -633.3905029296875 400.0001220703125
v 769.030029296875 633.3903198242188 400.0000915527344
v -265.8377380371094 -960.167236328125 400.00018310546875
v 633.390380859375 -769.0302124023438 400.0001525878906
v 960.1671752929688 -265.8377685546875 400.0001525878906
v -1110.9736328125 125.31324768066406 399.97564697265625
v -1303.8116455078125 12.017714500427246 449.9756774902344
v -1110.9642333984375 125.31877136230469 500.0244140625
v -1303.80224609375 12.023241996765137 550.0244750976562
v -1303.7906494140625 12.057596206665039 449.9750671386719
v -1186.1673583984375 -541.3153076171875 449.97509765625
v -1303.7906494140625 12.057596206665039 550.0250854492188
v -1186.1673583984375 -541.3153076171875 550.0250854492188
v -1186.202880859375 -541.2874145507812 449.9757080078125
v -963.9443359375 -566.3550415039062 500.0244445800781
v -1186.1920166015625 -541.2886352539062 550.0244750976562
v -963.9552001953125 -566.3538208007812 399.9756774902344
v -1128.9910888671875 155.98861694335938 487.87451171875
v -1304.629150390625 12.362303733825684 537.889404296875
v -1111.337158203125 125.9411849975586 487.8779602050781
v -1343.909423828125 29.703922271728516 537.885986328125
v -1153.1029052734375 197.0312042236328 499.0814208984375
v -1343.884765625 29.660621643066406 537.8798217773438
v -1128.967041015625 155.9470672607422 487.87322998046875
v -1397.601318359375 53.36571502685547 549.0880126953125
v -1157.962646484375 205.29629516601562 488.6625671386719
v -1397.5845947265625 53.33812713623047 549.1115112304688
v -1153.077392578125 196.99371337890625 499.09942626953125
v -1408.435791015625 58.13557815551758 538.6746826171875
v -1142.748779296875 179.40220642089844 464.6673583984375
v -1408.42822265625 58.13600158691406 538.6946411132812
v -1157.961669921875 205.3059844970703 488.69610595703125
v -1374.5721435546875 43.18541717529297 514.6658935546875
v -1142.7598876953125 179.41751098632812 450.65887451171875
v -1374.5858154296875 43.21572494506836 514.7080688476562
v -1142.751953125 179.42214965820312 464.7079772949219
v -1374.59375 43.21109390258789 500.65887451171875
v -1138.4970703125 172.16366577148438 439.06280517578125
v -1374.588134765625 43.22202682495117 500.6972961425781
v -1142.761474609375 179.43629455566406 450.7016296386719
v -1365.1036376953125 39.016422271728516 489.0584716796875
v -1130.791015625 159.0513458251953 433.0735168457031
v -1365.1134033203125 39.04863357543945 489.09259033203125
v -1138.5123291015625 172.19947814941406 439.0882263183594
v -1347.9459228515625 31.45025634765625 483.077880859375
v -1129.7901611328125 157.34165954589844 422.25921630859375
v -1347.966064453125 31.48725700378418 483.1044921875
v -1130.7999267578125 159.078857421875 433.10736083984375
v -1345.713623046875 30.480093002319336 472.25634765625
v -1126.341064453125 151.47203063964844 411.06182861328125
v -1345.7108154296875 30.496068954467773 472.29840087890625
v -1129.7923583984375 157.36273193359375 422.3029479980469
v -1338.0338134765625 27.088150024414062 461.05731201171875
v -1118.8367919921875 138.7036895751953 404.27227783203125
v -1338.040771484375 27.11807632446289 461.0933532714844
v -1126.3544921875 151.50653076171875 411.08935546875
v -1321.32568359375 19.719043731689453 454.2762756347656
v -1109.9180908203125 123.52778625488281 404.2820129394531
v -1321.3487548828125 19.7628173828125 454.29010009765625
v -1118.8594970703125 138.74493408203125 404.2781982421875
v -1301.4700927734375 10.971383094787598 454.2939453125
v -1343.90087890625 29.72281837463379 537.8834228515625
v -1186.7513427734375 -541.9877319335938 537.8834228515625
v -1304.5975341796875 12.434142112731934 537.8834228515625
v -1215.6248779296875 -573.7675170898438 537.8834228515625
v -1397.59375 53.38486862182617 549.0859375
v -1215.5771484375 -573.757568359375 537.8743896484375
v -1343.853271484375 29.733123779296875 537.8743896484375
v -1255.051513671875 -617.222900390625 549.0859985351562
v -1408.422119140625 58.15909194946289 538.6731567382812
v -1255.01708984375 -617.2176513671875 549.1099853515625
v -1397.5601806640625 53.394046783447266 549.1099243164062
v -1263.001953125 -625.9887084960938 538.6732177734375
v -1374.5443115234375 43.25343322753906 514.6602172851562
v -1263.0025634765625 -625.9881591796875 538.6914672851562
v -1408.4224853515625 58.15834045410156 538.69140625
v -1238.115478515625 -598.5924682617188 514.6602172851562
v -1374.573486328125 43.250526428222656 500.658447265625
v -1238.1431884765625 -598.6016845703125 514.70849609375
v -1374.573486328125 43.250526428222656 514.70849609375
v -1238.1431884765625 -598.6016845703125 500.65850830078125
v -1365.077880859375 39.07735824584961 489.0552673339844
v -1238.1524658203125 -598.6016235351562 500.69586181640625
v -1374.581787109375 43.24673843383789 500.69580078125
v -1231.166259765625 -590.9269409179688 489.0553283691406
v -1347.9161376953125 31.52252769470215 483.06915283203125
v -1231.1966552734375 -590.9310913085938 489.0875244140625
v -1365.107421875 39.06876754760742 489.08746337890625
v -1218.5611572265625 -577.0450439453125 483.0692138671875
v -1345.69140625 30.52580451965332 472.25567626953125
v -1218.599609375 -577.057373046875 483.1048889160156
v -1347.956298828125 31.518112182617188 483.1048278808594
v -1216.9339599609375 -575.2295532226562 472.2557373046875
v -1338.008544921875 27.146785736083984 461.0545654296875
v -1216.947509765625 -575.2310180664062 472.2973937988281
v -1345.704345703125 30.521638870239258 472.2973327636719
v -1211.289794921875 -569.0177612304688 461.05462646484375
v -1321.29638671875 19.791072845458984 454.26727294921875
v -1211.3175048828125 -569.0210571289062 461.0882263183594
v -1338.0352783203125 27.138561248779297 461.0881652832031
v -1199.0142822265625 -555.50048828125 454.267333984375
v -1301.4390869140625 11.042357444763184 454.283447265625
v -1199.0589599609375 -555.5093383789062 454.2834777832031
v -1321.3408203125 19.78098487854004 454.2834167480469
v -1184.43212890625 -539.4315795898438 454.2834777832031
v -1215.6395263671875 -573.7542114257812 537.8900756835938
v -964.03076171875 -567.0756225585938 487.8822937011719
v -1186.80859375 -541.9354858398438 537.8938598632812
v -967.9373168945312 -601.7057495117188 487.8785400390625
v -1255.0654296875 -617.2080078125 549.0917358398438
v -967.93212890625 -601.6571044921875 487.8771667480469
v -1215.6346435546875 -573.7036743164062 537.8839111328125
v -973.27099609375 -649.0062255859375 499.0849609375
v -1263.02392578125 -625.9738159179688 538.6756591796875
v -973.2636108398438 -648.9632568359375 499.1004333496094
v -1255.0621337890625 -617.1775512695312 549.112548828125
v -974.3497314453125 -658.5350341796875 488.6635437011719
v -1238.1690673828125 -598.5430297851562 514.6638793945312
v -974.3452758789062 -658.543701171875 488.6943664550781
v -1263.017333984375 -625.971435546875 538.6928100585938
v -970.9835205078125 -628.6917724609375 464.66546630859375
v -1238.1778564453125 -598.5739135742188 500.658935546875
v -970.9779052734375 -628.7098999023438 464.7080383300781
v -1238.168701171875 -598.5748901367188 514.7080688476562
v -970.9869384765625 -628.7089233398438 450.658935546875
v -1231.2147216796875 -590.8827514648438 489.0577087402344
v -970.9810791015625 -628.7277221679688 450.700927734375
v -1238.16845703125 -598.5825805664062 500.6965637207031
v -970.0435180664062 -620.3495483398438 439.06207275390625
v -1218.618408203125 -576.9921264648438 483.0747375488281
v -970.043212890625 -620.3883056640625 439.08526611328125
v -1231.2109375 -590.916015625 489.0895690917969
v -968.3372192382812 -605.2364501953125 433.0704040527344
v -1216.9727783203125 -575.1969604492188 472.2563781738281
v -968.3333740234375 -605.264404296875 433.1073913574219
v -1218.62109375 -577.0332641601562 483.10455322265625
v -968.1177368164062 -603.2665405273438 422.2592468261719
v -1211.3367919921875 -568.975341796875 461.0567626953125
v -968.1112670898438 -603.2874145507812 422.30242919921875
v -1216.9639892578125 -575.211181640625 472.2978820800781
v -967.3544311523438 -596.5023803710938 411.0613098144531
v -1199.0711669921875 -555.44775390625 454.2730712890625
v -967.3532104492188 -596.53955078125 411.08636474609375
v -1211.33154296875 -569.0056762695312 461.09027099609375
v -965.6928100585938 -581.7859497070312 404.2691345214844
v -1184.490234375 -539.37890625 454.2898254394531
v -965.6967163085938 -581.8313598632812 404.27435302734375
v -1199.074462890625 -555.49560546875 454.28619384765625
v -963.7178344726562 -564.2930297851562 404.2779541015625
v -1109.939697265625 123.51470947265625 404.2592468261719
v -1118.8731689453125 138.72000122070312 404.2356872558594
v -1126.381103515625 151.49916076660156 411.0477294921875
v -1129.8328857421875 157.37440490722656 422.26593017578125
v -1130.83984375 159.088134765625 433.0556335449219
v -1138.5372314453125 172.19004821777344 439.0455017089844
v -1142.8004150390625 179.44618225097656 450.6687927246094
v -1142.798095703125 179.4421844482422 464.66387939453125
v -1111.358154296875 125.9288330078125 487.90924072265625
v -1128.99609375 155.9503173828125 487.9327392578125
v -1157.991455078125 205.30267333984375 488.6808776855469
v -1153.11767578125 197.00704956054688 499.124755859375
v -967.3796997070312 -596.5425415039062 411.04779052734375
v -965.7185668945312 -581.8145141601562 404.2357482910156
v -963.7420654296875 -564.290283203125 404.25927734375
v -968.143310546875 -603.3136596679688 422.2659912109375
v -968.3660888671875 -605.2890014648438 433.0556945800781
v -971.0123291015625 -628.7515869140625 450.6688537597656
v -970.0691528320312 -620.388916015625 439.0455627441406
v -971.0118408203125 -628.7469482421875 464.6639404296875
v -964.055908203125 -567.072509765625 487.9092712402344
v -967.9581909179688 -601.6724853515625 487.93280029296875
v -974.3734130859375 -658.551513671875 488.6809387207031
v -973.2950439453125 -648.9907836914062 499.12481689453125
v -1186.1988525390625 -541.3207397460938 550.007568359375
v -1111.019775390625 125.34333801269531 500.0018005371094
v -1303.821533203125 12.049781799316406 550.007568359375
v -963.985107421875 -566.4000854492188 500.0018310546875
v -125.31332397460938 -1110.9736328125 399.9757995605469
v -12.017622947692871 -1303.8118896484375 449.975830078125
v -125.31886291503906 -1110.9642333984375 500.0245666503906
v -12.023150444030762 -1303.802490234375 550.0245971679688
v -12.057504653930664 -1303.7908935546875 449.9752197265625
v 541.3153076171875 -1186.1676025390625 449.9752502441406
v -12.057504653930664 -1303.7908935546875 550.0252075195312
v 541.3153076171875 -1186.1676025390625 550.0252075195312
v 541.2874145507812 -1186.203125 449.9758605957031
v 566.35498046875 -963.9442749023438 500.02459716796875
v 541.2886352539062 -1186.1922607421875 550.0245971679688
v 566.353759765625 -963.9551391601562 399.975830078125
v -155.98858642578125 -1128.9913330078125 487.87469482421875
v -12.362395286560059 -1304.62939453125 537.8895263671875
v -125.94121551513672 -1111.337158203125 487.87811279296875
v -29.70383071899414 -1343.909423828125 537.8861083984375
v -197.0312957763672 -1153.1029052734375 499.08160400390625
v -29.66053009033203 -1343.884765625 537.8799438476562
v -155.94703674316406 -1128.96728515625 487.8734130859375
v -53.365806579589844 -1397.601318359375 549.0881958007812
v -205.29632568359375 -1157.9630126953125 488.6627502441406
v -53.338218688964844 -1397.5845947265625 549.1116943359375
v -196.99380493164062 -1153.077392578125 499.099609375
v -58.1356086730957 -1408.435791015625 538.6748657226562
v -179.4022979736328 -1142.7489013671875 464.66754150390625
v -58.13603210449219 -1408.42822265625 538.69482421875
v -205.30601501464844 -1157.9620361328125 488.6962890625
v -43.185508728027344 -1374.572265625 514.666015625
v -179.4176025390625 -1142.760009765625 450.6590576171875
v -43.215816497802734 -1374.5859375 514.7081909179688
v -179.4222412109375 -1142.7520751953125 464.7081604003906
v -43.211185455322266 -1374.5938720703125 500.6590576171875
v -172.1636962890625 -1138.4971923828125 439.06298828125
v -43.22211837768555 -1374.5882568359375 500.6974792480469
v -179.43638610839844 -1142.7615966796875 450.7018127441406
v -39.01651382446289 -1365.1038818359375 489.05865478515625
v -159.05149841308594 -1130.791015625 433.0736999511719
v -39.04872512817383 -1365.1136474609375 489.0927734375
v -172.1995086669922 -1138.512451171875 439.0884094238281
v -31.450347900390625 -1347.9459228515625 483.07806396484375
v -157.3416290283203 -1129.7901611328125 422.2593994140625
v -31.487348556518555 -1347.966064453125 483.10467529296875
v -159.0790252685547 -1130.7999267578125 433.1075439453125
v -30.48012351989746 -1345.7137451171875 472.25653076171875
v -151.47210693359375 -1126.341064453125 411.06201171875
v -30.4960994720459 -1345.7109375 472.298583984375
v -157.36270141601562 -1129.7923583984375 422.3031311035156
v -27.088241577148438 -1338.033935546875 461.0574951171875
v -138.70376586914062 -1118.8367919921875 404.2724609375
v -27.118167877197266 -1338.0408935546875 461.0935363769531
v -151.50660705566406 -1126.3544921875 411.08953857421875
v -19.719013214111328 -1321.325927734375 454.2764587402344
v -123.52780151367188 -1109.9183349609375 404.28216552734375
v -19.762786865234375 -1321.3489990234375 454.290283203125
v -138.74501037597656 -1118.8594970703125 404.27838134765625
v -10.971535682678223 -1301.4703369140625 454.2940979003906
v -29.722726821899414 -1343.90087890625 537.883544921875
v 541.987548828125 -1186.75146484375 537.883544921875
v -12.434233665466309 -1304.5977783203125 537.883544921875
v 573.7675170898438 -1215.6246337890625 537.883544921875
v -53.38496017456055 -1397.59375 549.0861206054688
v 573.757568359375 -1215.576904296875 537.87451171875
v -29.7330322265625 -1343.853271484375 537.87451171875
v 617.2227783203125 -1255.05126953125 549.0861206054688
v -58.159122467041016 -1408.422119140625 538.67333984375
v 617.217529296875 -1255.016845703125 549.110107421875
v -53.39413833618164 -1397.5601806640625 549.110107421875
v 625.9886474609375 -1263.001953125 538.67333984375
v -43.25352478027344 -1374.54443359375 514.6603393554688
v 625.9880981445312 -1263.0025634765625 538.6915893554688
v -58.15837097167969 -1408.4224853515625 538.6915893554688
v 598.5922241210938 -1238.115478515625 514.660400390625
v -43.25061798095703 -1374.5736083984375 500.65863037109375
v 598.6014404296875 -1238.1431884765625 514.7086791992188
v -43.25061798095703 -1374.5736083984375 514.7086181640625
v 598.6014404296875 -1238.1431884765625 500.6586608886719
v -39.077449798583984 -1365.078125 489.0554504394531
v 598.6013793945312 -1238.1524658203125 500.6960144042969
v -43.246829986572266 -1374.5819091796875 500.69598388671875
v 590.9268798828125 -1231.166259765625 489.05548095703125
v -31.522619247436523 -1347.9161376953125 483.0693359375
v 590.9310302734375 -1231.1966552734375 489.0876770019531
v -39.0688591003418 -1365.107666015625 489.087646484375
v 577.0449829101562 -1218.5611572265625 483.0693664550781
v -30.525835037231445 -1345.6915283203125 472.255859375
v 577.0573120117188 -1218.599609375 483.10504150390625
v -31.518203735351562 -1347.956298828125 483.1050109863281
v 575.2294921875 -1216.9342041015625 472.2558898925781
v -27.14687728881836 -1338.0086669921875 461.05474853515625
v 575.23095703125 -1216.94775390625 472.29754638671875
v -30.521669387817383 -1345.7044677734375 472.2975158691406
v 569.0177612304688 -1211.289794921875 461.0547790527344
v -19.79104232788086 -1321.296630859375 454.2674560546875
v 569.0210571289062 -1211.3175048828125 461.08837890625
v -27.138652801513672 -1338.035400390625 461.0883483886719
v 555.5003051757812 -1199.0145263671875 454.2674865722656
v -11.042510032653809 -1301.4393310546875 454.2835998535156
v 555.5091552734375 -1199.0592041015625 454.28363037109375
v -19.780954360961914 -1321.341064453125 454.2835998535156
v 539.431396484375 -1184.43212890625 454.28363037109375
v 573.7542114257812 -1215.6392822265625 537.8901977539062
v 567.0756225585938 -964.0307006835938 487.8824462890625
v 541.935302734375 -1186.8087158203125 537.8939819335938
v 601.7056884765625 -967.9373779296875 487.878662109375
v 617.2078857421875 -1255.065185546875 549.0918579101562
v 601.6570434570312 -967.9321899414062 487.8772888183594
v 573.7036743164062 -1215.6343994140625 537.884033203125
v 649.0061645507812 -973.27099609375 499.0850830078125
v 625.9737548828125 -1263.02392578125 538.67578125
v 648.9631958007812 -973.2636108398438 499.1005554199219
v 617.1774291992188 -1255.0618896484375 549.1126708984375
v 658.5350341796875 -974.3496704101562 488.6636657714844
v 598.5427856445312 -1238.1690673828125 514.6640625
v 658.543701171875 -974.34521484375 488.6944885253906
v 625.9713745117188 -1263.017333984375 538.6929321289062
v 628.691650390625 -970.9835205078125 464.66558837890625
v 598.5736694335938 -1238.1778564453125 500.6590881347656
v 628.7097778320312 -970.9779052734375 464.7081604003906
v 598.5746459960938 -1238.168701171875 514.708251953125
v 628.7088012695312 -970.9869384765625 450.6590576171875
v 590.8826904296875 -1231.2147216796875 489.057861328125
v 628.7276000976562 -970.9810791015625 450.7010498046875
v 598.5823364257812 -1238.16845703125 500.69671630859375
v 620.3494873046875 -970.0435180664062 439.06219482421875
v 576.9920654296875 -1218.618408203125 483.07489013671875
v 620.3882446289062 -970.043212890625 439.08538818359375
v 590.9159545898438 -1231.2109375 489.0897216796875
v 605.2363891601562 -968.337158203125 433.070556640625
v 575.1968994140625 -1216.9730224609375 472.25653076171875
v 605.2643432617188 -968.3333129882812 433.1075134277344
v 577.033203125 -1218.62109375 483.1047058105469
v 603.266357421875 -968.11767578125 422.2593688964844
v 568.975341796875 -1211.3367919921875 461.0569152832031
v 603.2872314453125 -968.1112060546875 422.30255126953125
v 575.2111206054688 -1216.9642333984375 472.29803466796875
v 596.5023193359375 -967.3544311523438 411.0614318847656
v 555.4475708007812 -1199.0714111328125 454.2732238769531
v 596.5394897460938 -967.3532104492188 411.08648681640625
v 569.0056762695312 -1211.33154296875 461.0904235839844
v 581.785888671875 -965.69287109375 404.2692565917969
v 539.3787231445312 -1184.490234375 454.28997802734375
v 581.831298828125 -965.69677734375 404.27447509765625
v 555.4954223632812 -1199.07470703125 454.2863464355469
v 564.2928466796875 -963.7177734375 404.2781066894531
v -123.51472473144531 -1109.93994140625 404.2593994140625
v -138.72007751464844 -1118.8731689453125 404.2358703613281
v -151.49923706054688 -1126.381103515625 411.04791259765625
v -157.37437438964844 -1129.8328857421875 422.26611328125
v -159.08828735351562 -1130.83984375 433.0558166503906
v -172.19007873535156 -1138.537353515625 439.0456848144531
v -179.44627380371094 -1142.800537109375 450.6689758300781
v -179.44227600097656 -1142.7982177734375 464.6640625
v -125.92886352539062 -1111.358154296875 487.9093933105469
v -155.95028686523438 -1128.996337890625 487.93292236328125
v -205.30270385742188 -1157.9918212890625 488.6810607910156
v -197.00714111328125 -1153.11767578125 499.12493896484375
v 596.54248046875 -967.3796997070312 411.04791259765625
v 581.814453125 -965.7186279296875 404.2358703613281
v 564.2901000976562 -963.7420043945312 404.2594299316406
v 603.3134765625 -968.1432495117188 422.26611328125
v 605.2889404296875 -968.3660278320312 433.0558166503906
v 628.75146484375 -971.0123291015625 450.6689758300781
v 620.3888549804688 -970.0691528320312 439.0456848144531
v 628.746826171875 -971.0118408203125 464.6640625
v 567.072509765625 -964.0558471679688 487.909423828125
v 601.6724243164062 -967.958251953125 487.93292236328125
v 658.551513671875 -974.3733520507812 488.6810607910156
v 648.99072265625 -973.2950439453125 499.12493896484375
v -125.34342956542969 -1111.019775390625 500.001953125
v -12.049690246582031 -1303.82177734375 550.0076904296875
v 566.4000244140625 -963.9850463867188 500.0019836425781
v 541.3207397460938 -1186.1990966796875 550.0076904296875
v 125.31324768066406 1110.9736328125 399.9756164550781
v 12.017622947692871 1303.8115234375 449.9755859375
v 125.31877136230469 1110.9642333984375 500.0243835449219
v 12.023150444030762 1303.8021240234375 550.0243530273438
v 12.057504653930664 1303.79052734375 449.9749755859375
v -541.3153686523438 1186.167236328125 449.9750061035156
v 12.057504653930664 1303.79052734375 550.0249633789062
v -541.3153686523438 1186.167236328125 550.0250244140625
v -541.2875366210938 1186.2027587890625 449.9756164550781
v -566.3550415039062 963.944091796875 500.0243835449219
v -541.2887573242188 1186.19189453125 550.0244140625
v -566.3538208007812 963.9549560546875 399.9756164550781
v 125.34333801269531 1111.019775390625 400.00177001953125
v 12.049690246582031 1303.8214111328125 450.0074768066406
v 155.98846435546875 1128.990966796875 487.8744812011719
v 12.362364768981934 1304.62890625 537.8892822265625
v 125.94121551513672 1111.3369140625 487.8779296875
v 29.70389175415039 1343.9093017578125 537.8858642578125
v 197.03114318847656 1153.1026611328125 499.0813903808594
v 29.66059112548828 1343.8846435546875 537.8796997070312
v 155.94691467285156 1128.9669189453125 487.8731994628906
v 53.365623474121094 1397.601318359375 549.087890625
v 205.29623413085938 1157.9625244140625 488.66253662109375
v 53.338035583496094 1397.5845947265625 549.1113891601562
v 196.99365234375 1153.0771484375 499.0993957519531
v 58.13554763793945 1408.435791015625 538.674560546875
v 179.4021453857422 1142.7486572265625 464.6673278808594
v 58.13597106933594 1408.42822265625 538.6945190429688
v 205.30592346191406 1157.9615478515625 488.6960754394531
v 43.185447692871094 1374.5718994140625 514.665771484375
v 179.41744995117188 1142.759765625 450.6588439941406
v 43.215755462646484 1374.5855712890625 514.7079467773438
v 179.42208862304688 1142.7518310546875 464.70794677734375
v 43.211124420166016 1374.593505859375 500.6588134765625
v 172.16360473632812 1138.4969482421875 439.0627746582031
v 43.2220573425293 1374.587890625 500.6972351074219
v 179.4362335205078 1142.7613525390625 450.70159912109375
v 39.01633071899414 1365.1033935546875 489.05841064453125
v 159.05140686035156 1130.790771484375 433.073486328125
v 39.04854202270508 1365.1131591796875 489.092529296875
v 172.1994171142578 1138.51220703125 439.08819580078125
v 31.4501953125 1347.94580078125 483.07781982421875
v 157.3415069580078 1129.7899169921875 422.2591857910156
v 31.48719596862793 1347.9659423828125 483.10443115234375
v 159.0789337158203 1130.7996826171875 433.1073303222656
v 30.48006248474121 1345.7135009765625 472.25628662109375
v 151.4719696044922 1126.3408203125 411.0617980957031
v 30.49603843688965 1345.710693359375 472.29833984375
v 157.36257934570312 1129.7921142578125 422.30291748046875
v 27.088088989257812 1338.03369140625 461.0572509765625
v 138.70372009277344 1118.8365478515625 404.2722473144531
v 27.11801528930664 1338.0406494140625 461.0932922363281
v 151.5064697265625 1126.354248046875 411.0893249511719
v 19.718891143798828 1321.3255615234375 454.2762145996094
v 123.52781677246094 1109.91796875 404.281982421875
v 19.762664794921875 1321.3486328125 454.2900390625
v 138.74496459960938 1118.8592529296875 404.2781677246094
v 10.971352577209473 1301.469970703125 454.2938537597656
v 29.722787857055664 1343.9007568359375 537.88330078125
v -541.9876708984375 1186.751220703125 537.8833618164062
v 12.434203147888184 1304.5972900390625 537.88330078125
v -573.7677001953125 1215.6246337890625 537.8833618164062
v 53.3847770690918 1397.59375 549.0858154296875
v -573.7577514648438 1215.576904296875 537.8743286132812
v 29.73309326171875 1343.8531494140625 537.874267578125
v -617.2229614257812 1255.0513916015625 549.0858764648438
v 58.159061431884766 1408.422119140625 538.6730346679688
v -617.2177124023438 1255.0169677734375 549.10986328125
v 53.39395523071289 1397.5601806640625 549.1098022460938
v -625.98876953125 1263.001708984375 538.673095703125
v 43.25346374511719 1374.5440673828125 514.6600952148438
v -625.9882202148438 1263.0023193359375 538.6913452148438
v 58.15830993652344 1408.4224853515625 538.6912841796875
v -598.5924072265625 1238.1153564453125 514.66015625
v 43.25055694580078 1374.5732421875 500.65838623046875
v -598.6016235351562 1238.14306640625 514.7084350585938
v 43.25055694580078 1374.5732421875 514.7083740234375
v -598.6016235351562 1238.14306640625 500.65838623046875
v 39.077266693115234 1365.07763671875 489.0552062988281
v -598.6015625 1238.15234375 500.69573974609375
v 43.24676513671875 1374.58154296875 500.69573974609375
v -590.927001953125 1231.166015625 489.0552062988281
v 31.5224666595459 1347.916015625 483.069091796875
v -590.93115234375 1231.1964111328125 489.08740234375
v 39.06867599487305 1365.107177734375 489.08740234375
v -577.0449829101562 1218.5609130859375 483.069091796875
v 30.525774002075195 1345.6912841796875 472.255615234375
v -577.0573120117188 1218.599365234375 483.1047668457031
v 31.518051147460938 1347.9561767578125 483.1047668457031
v -575.2296142578125 1216.933837890625 472.255615234375
v 27.146724700927734 1338.0084228515625 461.05450439453125
v -575.2310791015625 1216.9473876953125 472.2972717285156
v 30.521608352661133 1345.7042236328125 472.2972717285156
v -569.017822265625 1211.2896728515625 461.05450439453125
v 19.79092025756836 1321.2962646484375 454.2672119140625
v -569.0211181640625 1211.3173828125 461.0881042480469
v 27.138500213623047 1338.03515625 461.0881042480469
v -555.5004272460938 1199.01416015625 454.2672119140625
v 11.042326927185059 1301.43896484375 454.2833557128906
v -555.50927734375 1199.058837890625 454.2833557128906
v 19.780832290649414 1321.3406982421875 454.2833557128906
v -539.4315185546875 1184.431884765625 454.28338623046875
v -573.75439453125 1215.6392822265625 537.8900146484375
v -567.07568359375 964.030517578125 487.8822326660156
v -541.9354248046875 1186.8084716796875 537.893798828125
v -601.7057495117188 967.9371337890625 487.8784484863281
v -617.2080688476562 1255.0653076171875 549.0916137695312
v -601.6571044921875 967.9319458007812 487.8770751953125
v -573.703857421875 1215.6343994140625 537.8838500976562
v -649.0062866210938 973.2708129882812 499.0848388671875
v -625.973876953125 1263.023681640625 538.675537109375
v -648.9633178710938 973.263427734375 499.1003112792969
v -617.1776123046875 1255.06201171875 549.1124267578125
v -658.5350952148438 974.3494873046875 488.6634216308594
v -598.54296875 1238.1689453125 514.663818359375
v -658.5437622070312 974.3450317382812 488.6942443847656
v -625.9714965820312 1263.01708984375 538.6926879882812
v -628.6919555664062 970.9833984375 464.6653747558594
v -598.5738525390625 1238.177734375 500.6588134765625
v -628.7100830078125 970.977783203125 464.70794677734375
v -598.5748291015625 1238.1685791015625 514.7080078125
v -628.7091064453125 970.98681640625 450.6588439941406
v -590.8828125 1231.2144775390625 489.0575866699219
v -628.7279052734375 970.98095703125 450.7008361816406
v -598.58251953125 1238.1683349609375 500.6964416503906
v -620.349609375 970.0433959960938 439.0619812011719
v -576.9920654296875 1218.6181640625 483.0746154785156
v -620.3883666992188 970.0430908203125 439.0851745605469
v -590.9160766601562 1231.210693359375 489.0894470214844
v -605.2365112304688 968.3370971679688 433.0703125
v -575.197021484375 1216.97265625 472.2562561035156
v -605.2644653320312 968.333251953125 433.1072998046875
v -577.033203125 1218.620849609375 483.10443115234375
v -603.2666015625 968.1175537109375 422.2591552734375
v -568.9754028320312 1211.336669921875 461.056640625
v -603.2874755859375 968.111083984375 422.3023376464844
v -575.2112426757812 1216.9638671875 472.2977600097656
v -596.50244140625 967.3541870117188 411.06121826171875
v -555.4476928710938 1199.071044921875 454.27294921875
v -596.5396118164062 967.3529663085938 411.0862731933594
v -569.0057373046875 1211.3314208984375 461.09014892578125
v -581.7859497070312 965.6925659179688 404.26904296875
v -539.3788452148438 1184.489990234375 454.28973388671875
v -581.8313598632812 965.6964721679688 404.2742614746094
v -555.4955444335938 1199.0743408203125 454.28607177734375
v -564.29296875 963.7176513671875 404.27789306640625
v 123.51473999023438 1109.9395751953125 404.25921630859375
v 138.72003173828125 1118.8729248046875 404.23565673828125
v 151.4990997314453 1126.380859375 411.0476989746094
v 157.37425231933594 1129.8326416015625 422.2658996582031
v 159.08819580078125 1130.839599609375 433.05560302734375
v 172.1899871826172 1138.537109375 439.04547119140625
v 179.4461212158203 1142.80029296875 450.66876220703125
v 179.44212341308594 1142.7979736328125 464.6638488769531
v 125.92886352539062 1111.35791015625 487.9092102050781
v 155.95016479492188 1128.9959716796875 487.9327087402344
v 205.3026123046875 1157.9913330078125 488.68084716796875
v 197.00698852539062 1153.117431640625 499.1247253417969
v -596.5426025390625 967.3794555664062 411.0476989746094
v -581.8145141601562 965.7183227539062 404.23565673828125
v -564.2902221679688 963.7418823242188 404.25921630859375
v -603.313720703125 968.1431274414062 422.2658996582031
v -605.2890625 968.365966796875 433.05560302734375
v -628.7517700195312 971.01220703125 450.66876220703125
v -620.3889770507812 970.0690307617188 439.04547119140625
v -628.7471313476562 971.01171875 464.6638488769531
v -567.0725708007812 964.0556640625 487.9092102050781
v -601.6724853515625 967.9580078125 487.9327087402344
v -658.5515747070312 974.3731689453125 488.6808166503906
v -648.9908447265625 973.2948608398438 499.12469482421875
v 125.34333801269531 1111.019775390625 500.00177001953125
v 12.049690246582031 1303.8214111328125 550.0074462890625
v -566.4000854492188 963.98486328125 500.00177001953125
v -541.3208618164062 1186.19873046875 550.0075073242188
v 1110.9736328125 -125.31349182128906 399.97576904296875
v 1303.8116455078125 -12.017836570739746 449.9757995605469
v 1110.96435546875 -125.31901550292969 500.0245361328125
v 1303.80224609375 -12.023364067077637 550.0245361328125
v 1303.7906494140625 -12.057718276977539 449.9751892089844
v 1186.1673583984375 541.315185546875 449.97509765625
v 1303.7906494140625 -12.057718276977539 550.025146484375
v 1186.1673583984375 541.315185546875 550.0250854492188
v 1186.202880859375 541.2872924804688 449.9757080078125
v 963.9442138671875 566.3548583984375 500.02447509765625
v 1186.1920166015625 541.2885131835938 550.0244750976562
v 963.955078125 566.3536376953125 399.9757080078125
v 1186.1988525390625 541.3206176757812 450.0075988769531
v 1128.9910888671875 -155.98873901367188 487.8746337890625
v 1304.6290283203125 -12.362608909606934 537.8894653320312
v 1111.3369140625 -125.9414291381836 487.8780822753906
v 1343.9093017578125 -29.704044342041016 537.8860473632812
v 1153.102783203125 -197.0314483642578 499.08154296875
v 1343.8846435546875 -29.660743713378906 537.8798828125
v 1128.967041015625 -155.9471893310547 487.87335205078125
v 1397.6011962890625 -53.36577606201172 549.0880737304688
v 1157.962646484375 -205.29641723632812 488.6626892089844
v 1397.58447265625 -53.33818817138672 549.111572265625
v 1153.0772705078125 -196.99395751953125 499.09954833984375
v 1408.435791015625 -58.135765075683594 538.6747436523438
v 1142.748779296875 -179.40245056152344 464.66748046875
v 1408.42822265625 -58.13618469238281 538.6947021484375
v 1157.961669921875 -205.3061065673828 488.69622802734375
v 1374.572021484375 -43.18572235107422 514.6659545898438
v 1142.7598876953125 -179.41775512695312 450.65899658203125
v 1374.585693359375 -43.21603012084961 514.7081298828125
v 1142.751953125 -179.42239379882812 464.7080993652344
v 1374.5936279296875 -43.21139907836914 500.6590270996094
v 1138.4970703125 -172.16384887695312 439.06292724609375
v 1374.5880126953125 -43.22233200073242 500.69744873046875
v 1142.761474609375 -179.43653869628906 450.7017517089844
v 1365.103515625 -39.016544342041016 489.0586242675781
v 1130.7908935546875 -159.0515899658203 433.0736389160156
v 1365.11328125 -39.04875564575195 489.0927429199219
v 1138.5123291015625 -172.1996612548828 439.0883483886719
v 1347.946044921875 -31.45050048828125 483.0780334472656
v 1129.7900390625 -157.34190368652344 422.25933837890625
v 1347.9661865234375 -31.48750114440918 483.1046447753906
v 1130.7998046875 -159.0791015625 433.10748291015625
v 1345.713623046875 -30.480337142944336 472.2565002441406
v 1126.3409423828125 -151.47227478027344 411.06195068359375
v 1345.7108154296875 -30.496313095092773 472.2985534667969
v 1129.792236328125 -157.36297607421875 422.3030700683594
v 1338.0338134765625 -27.088333129882812 461.0574645996094
v 1118.836669921875 -138.7039337158203 404.27239990234375
v 1338.040771484375 -27.11825942993164 461.093505859375
v 1126.3543701171875 -151.50677490234375 411.0894775390625
v 1321.32568359375 -19.719165802001953 454.27642822265625
v 1109.91796875 -123.52803039550781 404.2821350097656
v 1321.3487548828125 -19.762939453125 454.2902526855469
v 1118.859375 -138.74517822265625 404.2783203125
v 1301.4700927734375 -10.971688270568848 454.2940673828125
v 1343.9007568359375 -29.72294044494629 537.8834838867188
v 1186.751220703125 541.9874267578125 537.8834228515625
v 1304.597412109375 -12.434447288513184 537.8834838867188
v 1215.6248779296875 573.7674560546875 537.8834228515625
v 1397.5936279296875 -53.38492965698242 549.0859985351562
v 1215.5771484375 573.7575073242188 537.8743896484375
v 1343.8531494140625 -29.733245849609375 537.8744506835938
v 1255.05126953125 617.2227783203125 549.0859375
v 1408.422119140625 -58.15927505493164 538.6732177734375
v 1255.016845703125 617.217529296875 549.1099243164062
v 1397.56005859375 -53.394107818603516 549.1099853515625
v 1263.0018310546875 625.9885864257812 538.6731567382812
v 1374.544189453125 -43.25373840332031 514.6602783203125
v 1263.00244140625 625.988037109375 538.69140625
v 1408.4224853515625 -58.15852355957031 538.6914672851562
v 1238.1156005859375 598.5921630859375 514.6602172851562
v 1374.5733642578125 -43.250831604003906 500.6585998535156
v 1238.143310546875 598.6013793945312 514.70849609375
v 1374.5733642578125 -43.250831604003906 514.7085571289062
v 1238.143310546875 598.6013793945312 500.65850830078125
v 1365.0777587890625 -39.07748031616211 489.055419921875
v 1238.152587890625 598.601318359375 500.69586181640625
v 1374.5816650390625 -43.247039794921875 500.6959533691406
v 1231.1661376953125 590.9267578125 489.0553283691406
v 1347.916259765625 -31.52277183532715 483.0693054199219
v 1231.196533203125 590.930908203125 489.0875244140625
v 1365.1072998046875 -39.06888961791992 489.0876159667969
v 1218.5609130859375 577.0447998046875 483.0692138671875
v 1345.69140625 -30.52604866027832 472.2558288574219
v 1218.599365234375 577.05712890625 483.1048889160156
v 1347.9564208984375 -31.518356323242188 483.10498046875
v 1216.9339599609375 575.2293701171875 472.2557373046875
v 1338.008544921875 -27.146968841552734 461.0547180175781
v 1216.947509765625 575.2308349609375 472.2973937988281
v 1345.704345703125 -30.521883010864258 472.2974853515625
v 1211.289794921875 569.017578125 461.05462646484375
v 1321.29638671875 -19.791194915771484 454.2674255371094
v 1211.3175048828125 569.0208740234375 461.0882263183594
v 1338.0352783203125 -27.138744354248047 461.08831787109375
v 1199.0142822265625 555.5001831054688 454.267333984375
v 1301.4390869140625 -11.042662620544434 454.2835693359375
v 1199.0589599609375 555.509033203125 454.2834777832031
v 1321.3408203125 -19.78110694885254 454.2835693359375
v 1184.43212890625 539.4312744140625 454.2834777832031
v 1215.6395263671875 573.754150390625 537.8900756835938
v 964.0306396484375 567.075439453125 487.88232421875
v 1186.8084716796875 541.9351806640625 537.8938598632812
v 967.9371948242188 601.7054443359375 487.8785400390625
v 1255.065185546875 617.2078857421875 549.0916748046875
v 967.9320068359375 601.6567993164062 487.8771667480469
v 1215.6346435546875 573.70361328125 537.8839111328125
v 973.2709350585938 649.0060424804688 499.0849609375
v 1263.0238037109375 625.9736938476562 538.6755981445312
v 973.2635498046875 648.9630737304688 499.1004333496094
v 1255.0618896484375 617.1774291992188 549.1124877929688
v 974.3497314453125 658.5348510742188 488.6635437011719
v 1238.169189453125 598.542724609375 514.6638793945312
v 974.3452758789062 658.5435180664062 488.6943664550781
v 1263.0172119140625 625.9713134765625 538.6927490234375
v 970.9834594726562 628.6917114257812 464.66546630859375
v 1238.177978515625 598.5736083984375 500.658935546875
v 970.9778442382812 628.7098388671875 464.7080383300781
v 1238.1688232421875 598.5745849609375 514.7080688476562
v 970.9868774414062 628.7088623046875 450.658935546875
v 1231.214599609375 590.882568359375 489.0577087402344
v 970.9810180664062 628.7276611328125 450.700927734375
v 1238.1685791015625 598.582275390625 500.6965637207031
v 970.0435791015625 620.3493041992188 439.06207275390625
v 1218.6181640625 576.9918823242188 483.0747375488281
v 970.0432739257812 620.3880615234375 439.08526611328125
v 1231.2108154296875 590.9158325195312 489.0895690917969
v 968.3372192382812 605.2362670898438 433.0704040527344
v 1216.9727783203125 575.19677734375 472.2563781738281
v 968.3333740234375 605.2642211914062 433.1073913574219
v 1218.620849609375 577.0330200195312 483.10455322265625
v 968.1177368164062 603.266357421875 422.2592468261719
v 1211.3367919921875 568.9751586914062 461.0567626953125
v 968.1112670898438 603.2872314453125 422.30242919921875
v 1216.9639892578125 575.2109985351562 472.2978820800781
v 967.3543701171875 596.5021362304688 411.0613098144531
v 1199.0711669921875 555.4474487304688 454.2730712890625
v 967.3531494140625 596.539306640625 411.08636474609375
v 1211.33154296875 569.0054931640625 461.09027099609375
v 965.6926879882812 581.78564453125 404.2691345214844
v 1184.490234375 539.3786010742188 454.2898254394531
v 965.6965942382812 581.8310546875 404.27435302734375
v 1199.074462890625 555.4953002929688 454.28619384765625
v 963.7177124023438 564.292724609375 404.2779846191406
v 1109.9395751953125 -123.51495361328125 404.2593688964844
v 1118.873046875 -138.72024536132812 404.2358093261719
v 1126.3809814453125 -151.49940490722656 411.0478515625
v 1129.832763671875 -157.37464904785156 422.26605224609375
v 1130.8397216796875 -159.08837890625 433.0557556152344
v 1138.5372314453125 -172.1902313232422 439.0456237792969
v 1142.8004150390625 -179.44642639160156 450.6689147949219
v 1142.798095703125 -179.4424285888672 464.66400146484375
v 1111.35791015625 -125.9290771484375 487.90936279296875
v 1128.99609375 -155.950439453125 487.932861328125
v 1157.991455078125 -205.30279541015625 488.6809997558594
v 1153.1175537109375 -197.00729370117188 499.1248779296875
v 967.379638671875 596.5422973632812 411.04779052734375
v 965.7184448242188 581.814208984375 404.2357482910156
v 963.741943359375 564.2899780273438 404.2593078613281
v 968.143310546875 603.3134765625 422.2659912109375
v 968.3660888671875 605.288818359375 433.0556945800781
v 971.0122680664062 628.7515258789062 450.6688537597656
v 970.0692138671875 620.388671875 439.0455627441406
v 971.0117797851562 628.7468872070312 464.6639404296875
v 964.0557861328125 567.0723266601562 487.9093017578125
v 967.9580688476562 601.6721801757812 487.93280029296875
v 974.3734130859375 658.5513305664062 488.6809387207031
v 973.2949829101562 648.9906005859375 499.12481689453125
v 1186.1988525390625 541.3206176757812 550.007568359375
v 1111.0198974609375 -125.34358215332031 500.0019226074219
v 1303.821533203125 -12.049903869628906 550.0076293945312
v 963.9849853515625 566.39990234375 500.0018615722656
v -566.343505859375 963.9979858398438 399.9750061035156
v -633.3539428710938 768.9845581054688 399.9750061035156
v -566.343505859375 963.9979858398438 500.0249938964844
v -633.3539428710938 768.9845581054688 500.0249938964844
v -633.3322143554688 769.0292358398438 399.9750061035156
v -960.142822265625 265.7846374511719 399.97503662109375
v -633.3322143554688 769.0292358398438 500.0249938964844
v -960.1427612304688 265.7846984863281 500.0250244140625
v -960.1109008789062 265.8226318359375 399.97503662109375
v -1111.0087890625 125.28630828857422 399.97503662109375
v -960.11083984375 265.82269287109375 500.0250244140625
v -1111.0087890625 125.28630828857422 500.0250244140625
v -963.9982299804688 -566.343505859375 399.9750671386719
v -768.98486328125 -633.35400390625 399.9751281738281
v -963.9982299804688 -566.343505859375 500.0250549316406
v -768.9848022460938 -633.3538818359375 500.0251159667969
v -769.0294799804688 -633.332275390625 399.9751281738281
v -265.78485107421875 -960.142822265625 399.9751892089844
v -769.0294189453125 -633.3321533203125 500.0251159667969
v -265.78485107421875 -960.142822265625 500.0251770019531
v -265.8228454589844 -960.1109008789062 399.9751892089844
v -125.28650665283203 -1111.0087890625 399.9751892089844
v -265.8228454589844 -960.1109008789062 500.0251770019531
v -125.2865219116211 -1111.0087890625 500.0251770019531
v 566.3434448242188 -963.9981689453125 399.9752197265625
v 633.3538818359375 -768.98486328125 399.97515869140625
v 566.3434448242188 -963.9981689453125 500.02520751953125
v 633.3538818359375 -768.98486328125 500.025146484375
v 633.3321533203125 -769.0294799804688 399.97515869140625
v 960.1427612304688 -265.7848815917969 399.97515869140625
v 633.3321533203125 -769.0294799804688 500.025146484375
v 960.1427612304688 -265.7848815917969 500.025146484375
v 960.11083984375 -265.8228759765625 399.97515869140625
v 1111.0089111328125 -125.28655242919922 399.97515869140625
v 960.11083984375 -265.8228759765625 500.025146484375
v 1111.0089111328125 -125.28655242919922 500.025146484375
v 963.9979858398438 566.3433227539062 399.97509765625
v 768.9846801757812 633.3538208007812 399.97509765625
v 963.9979858398438 566.3433227539062 500.02508544921875
v 768.9846801757812 633.3538208007812 500.02508544921875
v 769.029296875 633.3320922851562 399.97509765625
v 265.7846374511719 960.1427001953125 399.97503662109375
v 769.029296875 633.3320922851562 500.02508544921875
v 265.7846374511719 960.1427001953125 500.0250244140625
v 265.8226318359375 960.1107788085938 399.97503662109375
v 125.28630828857422 1111.0087890625 399.9750061035156
v 265.8226318359375 960.1107788085938 500.0250244140625
v 125.28630828857422 1111.0087890625 500.0249938964844
v -599.9881591796875 975.5589599609375 487.88336181640625
v -634.012939453125 769.3089599609375 487.88336181640625
v -567.0296630859375 964.2337646484375 487.88336181640625
v -665.5792846679688 784.6856689453125 487.88336181640625
v -645.0040283203125 991.02734375 499.0891418457031
v -665.532470703125 784.6695556640625 487.8783264160156
v -599.9415283203125 975.54296875 487.87762451171875
v -708.690673828125 805.6957397460938 499.08984375
v -654.0760498046875 994.1446533203125 488.6650085449219
v -708.6502685546875 805.6817626953125 499.10028076171875
v -644.9649658203125 991.013916015625 499.1017761230469
v -717.3772583007812 809.93017578125 488.66351318359375
v -625.6697387695312 984.3837280273438 464.6677551269531
v -717.380126953125 809.93115234375 488.7005310058594
v -654.0784301757812 994.1454467773438 488.6990051269531
v -690.1715698242188 796.6766357421875 464.66925048828125
v -625.688232421875 984.3900146484375 450.6584167480469
v -690.1882934570312 796.6823120117188 464.7083740234375
v -625.688232421875 984.3900756835938 464.7083740234375
v -690.1882934570312 796.6823120117188 450.6584167480469
v -617.7303466796875 981.655517578125 439.0631103515625
v -690.203125 796.6874389648438 450.7051086425781
v -625.7020874023438 984.394775390625 450.70367431640625
v -682.5673828125 792.97021484375 439.0645751953125
v -603.3471069335938 976.7132568359375 433.07421875
v -682.604736328125 792.983154296875 439.0935974121094
v -617.7661743164062 981.6678466796875 439.0925598144531
v -668.7937622070312 786.2587890625 433.07525634765625
v -601.4733276367188 976.0693359375 422.2588195800781
v -668.8176879882812 786.2669067382812 433.1085510253906
v -603.3733520507812 976.7222900390625 433.1080017089844
v -666.9976806640625 785.3811645507812 422.2593994140625
v -595.034423828125 973.8568115234375 411.0620422363281
v -667.0149536132812 785.3871459960938 422.30615234375
v -601.4899291992188 976.0750122070312 422.3047790527344
v -660.83154296875 782.377197265625 411.0633850097656
v -581.0285034179688 969.0440673828125 404.27294921875
v -660.8668212890625 782.389404296875 411.0950012207031
v -595.0681762695312 973.868408203125 411.0938415527344
v -647.4192504882812 775.8421020507812 404.27410888671875
v -564.3816528320312 963.3238525390625 404.28338623046875
v -647.4649047851562 775.8577880859375 404.28338623046875
v -581.0736083984375 969.0595703125 404.28338623046875
v -631.4769287109375 768.072998046875 404.28338623046875
v -665.5546875 784.736083984375 487.88336181640625
v -960.7034301757812 266.2591552734375 487.8833923339844
v -633.9937133789062 769.348388671875 487.88336181640625
v -987.5978393554688 288.8326721191406 487.8833923339844
v -708.6661987304688 805.7460327148438 499.08984375
v -987.5563354492188 288.8056945800781 487.87835693359375
v -665.51318359375 784.7091674804688 487.8783264160156
v -1024.326416015625 319.67156982421875 499.0898742675781
v -717.3536376953125 809.9786376953125 488.66351318359375
v -1024.29052734375 319.648193359375 499.1003112792969
v -708.6302490234375 805.7228393554688 499.10028076171875
v -1031.7265625 325.8864440917969 488.6635437011719
v -690.1517944335938 796.7171630859375 464.66925048828125
v -1031.7291259765625 325.88812255859375 488.7005615234375
v -717.356201171875 809.9802856445312 488.7005310058594
v -1008.5476684570312 306.4302673339844 464.6692810058594
v -690.1665649414062 796.7269287109375 450.6584167480469
v -1008.5625610351562 306.4397888183594 464.7084045410156
v -690.1665649414062 796.7269287109375 464.7083740234375
v -1008.5625610351562 306.4397888183594 450.658447265625
v -682.5471801757812 793.01171875 439.0645751953125
v -1008.57568359375 306.4483947753906 450.70513916015625
v -690.1797485351562 796.7354125976562 450.7051086425781
v -1002.069580078125 300.99005126953125 439.0646057128906
v -668.7743530273438 786.298583984375 433.07525634765625
v -1002.1026611328125 301.01165771484375 439.0936279296875
v -682.580322265625 793.0331420898438 439.0935974121094
v -990.3348388671875 291.13861083984375 433.0752868652344
v -666.9764404296875 785.4248046875 422.2593994140625
v -990.3561401367188 291.1522216796875 433.10858154296875
v -668.7954711914062 786.3125 433.1085510253906
v -988.8052978515625 289.8514404296875 422.2594299316406
v -660.8110961914062 782.4190063476562 411.0633850097656
v -988.820556640625 289.8614196777344 422.3061828613281
v -666.9917602539062 785.4346923828125 422.30615234375
v -983.5517578125 285.441650390625 411.06341552734375
v -647.3998413085938 775.8819580078125 404.27410888671875
v -983.5830688476562 285.46209716796875 411.09503173828125
v -660.842529296875 782.4393310546875 411.0950012207031
v -972.1248779296875 275.8487854003906 404.2741394042969
v -631.4577026367188 768.1124267578125 404.28338623046875
v -972.1653442382812 275.8750915527344 404.2834167480469
v -647.4403076171875 775.908203125 404.28338623046875
v -958.5429077148438 264.44500732421875 404.2834167480469
v -987.561767578125 288.8756408691406 487.8833923339844
v -1111.5032958984375 125.81720733642578 487.8833923339844
v -960.6751708984375 266.29278564453125 487.8833923339844
v -1135.2547607421875 151.32003784179688 487.8833923339844
v -1024.2904052734375 319.7143859863281 499.0898742675781
v -1135.22119140625 151.283935546875 487.8776550292969
v -987.5280151367188 288.83941650390625 487.87835693359375
v -1167.695556640625 186.15249633789062 499.0892028808594
v -1031.69189453125 325.9277648925781 488.6635437011719
v -1167.6673583984375 186.12228393554688 499.1018371582031
v -1024.26123046875 319.68316650390625 499.1003112792969
v -1174.2333984375 193.1721954345703 488.6650695800781
v -1008.5187377929688 306.46478271484375 464.6692810058594
v -1174.235107421875 193.174072265625 488.6990661621094
v -1031.6939697265625 325.9299621582031 488.7005615234375
v -1153.7623291015625 171.1919403076172 464.66778564453125
v -1008.5306396484375 306.477783203125 450.658447265625
v -1153.775634765625 171.2062225341797 464.7084045410156
v -1008.5306396484375 306.477783203125 464.7084045410156
v -1153.775634765625 171.2062225341797 450.658447265625
v -1002.0398559570312 301.0254211425781 439.0646057128906
v -1153.78564453125 171.2169647216797 450.7037048339844
v -1008.5414428710938 306.4892578125 450.70513916015625
v -1148.0406494140625 165.04852294921875 439.0631408691406
v -990.306396484375 291.1725158691406 433.0752868652344
v -1148.0665283203125 165.07627868652344 439.09259033203125
v -1002.0668334960938 301.05426025390625 439.0936279296875
v -1137.675537109375 153.91900634765625 433.0742492675781
v -988.7741088867188 289.8885803222656 422.2594299316406
v -1137.6944580078125 153.93936157226562 433.1080322265625
v -990.323486328125 291.19110107421875 433.10858154296875
v -1136.3251953125 152.46913146972656 422.25885009765625
v -983.5217895507812 285.477294921875 411.06341552734375
v -1136.337158203125 152.48196411132812 422.3048095703125
v -988.7865600585938 289.90191650390625 422.3061828613281
v -1131.6849365234375 147.48683166503906 411.06207275390625
v -972.0963745117188 275.8827819824219 404.2741394042969
v -1131.7093505859375 147.51295471191406 411.0938720703125
v -983.54736328125 285.50457763671875 411.09503173828125
v -1121.591552734375 136.64938354492188 404.2729797363281
v -958.5146484375 264.4786376953125 404.2834167480469
v -1121.6240234375 136.68429565429688 404.2834167480469
v -972.1292724609375 275.9180603027344 404.2834167480469
v -1109.594970703125 123.76825714111328 404.2834167480469
v -975.5591430664062 -599.9880981445312 487.8834533691406
v -769.3090209960938 -634.0128784179688 487.88348388671875
v -964.2340087890625 -567.0297241210938 487.8834228515625
v -784.6858520507812 -665.5792236328125 487.88348388671875
v -991.027587890625 -645.0039672851562 499.0892639160156
v -784.6697387695312 -665.5324096679688 487.8784484863281
v -975.5431518554688 -599.9414672851562 487.8777160644531
v -805.6959228515625 -708.6904907226562 499.0899963378906
v -994.144775390625 -654.0758666992188 488.6651306152344
v -805.6819458007812 -708.6500854492188 499.1004333496094
v -991.01416015625 -644.9649047851562 499.1018981933594
v -809.9302978515625 -717.3770751953125 488.6636657714844
v -984.3838500976562 -625.6696166992188 464.6678466796875
v -809.9312744140625 -717.3799438476562 488.70068359375
v -994.1455688476562 -654.0782470703125 488.6991271972656
v -796.6767578125 -690.1715087890625 464.6694030761719
v -984.3901977539062 -625.6881103515625 450.65850830078125
v -796.6824340820312 -690.188232421875 464.7085266113281
v -984.3901977539062 -625.6881103515625 464.7084655761719
v -796.6824951171875 -690.188232421875 450.6585693359375
v -981.6557006835938 -617.7301635742188 439.0632019042969
v -796.6876220703125 -690.2030639648438 450.70526123046875
v -984.3949584960938 -625.7019653320312 450.7037658691406
v -792.970458984375 -682.5674438476562 439.064697265625
v -976.71337890625 -603.3470458984375 433.0743103027344
v -792.9833984375 -682.6047973632812 439.0937194824219
v -981.6680297851562 -617.7659912109375 439.0926513671875
v -786.2590942382812 -668.7938232421875 433.07537841796875
v -976.0695190429688 -601.4733276367188 422.2589111328125
v -786.2672119140625 -668.8177490234375 433.1086730957031
v -976.722412109375 -603.373291015625 433.10809326171875
v -785.3814086914062 -666.9977416992188 422.259521484375
v -973.85693359375 -595.0344848632812 411.0621337890625
v -785.3873901367188 -667.0150146484375 422.3062744140625
v -976.0751953125 -601.4899291992188 422.30487060546875
v -782.3775024414062 -660.83154296875 411.0635070800781
v -969.044189453125 -581.0284423828125 404.2730407714844
v -782.3897094726562 -660.8668212890625 411.0951232910156
v -973.8685302734375 -595.0682373046875 411.09393310546875
v -775.8423461914062 -647.4193115234375 404.27423095703125
v -963.3240966796875 -564.3816528320312 404.283447265625
v -775.8580322265625 -647.4649658203125 404.28350830078125
v -969.0596923828125 -581.0735473632812 404.2834777832031
v -768.0733032226562 -631.4769897460938 404.28350830078125
v -784.7362670898438 -665.5546264648438 487.88348388671875
v -266.2591857910156 -960.7034301757812 487.883544921875
v -769.3484497070312 -633.99365234375 487.88348388671875
v -288.8328857421875 -987.5977783203125 487.8835144042969
v -805.7462158203125 -708.666015625 499.0899963378906
v -288.805908203125 -987.5562744140625 487.87847900390625
v -784.7093505859375 -665.5131225585938 487.8784484863281
v -319.6716003417969 -1024.326416015625 499.09002685546875
v -809.978759765625 -717.3534545898438 488.6636657714844
v -319.6482238769531 -1024.29052734375 499.1004638671875
v -805.7230224609375 -708.6300659179688 499.1004333496094
v -325.88641357421875 -1031.7264404296875 488.6636962890625
v -796.71728515625 -690.1517333984375 464.6694030761719
v -325.8880920410156 -1031.72900390625 488.7007141113281
v -809.9804077148438 -717.3560180664062 488.70068359375
v -306.43035888671875 -1008.547607421875 464.66943359375
v -796.7271118164062 -690.16650390625 450.6585693359375
v -306.43988037109375 -1008.5625 464.70855712890625
v -796.72705078125 -690.16650390625 464.7085266113281
v -306.43988037109375 -1008.5625 450.6585998535156
v -793.011962890625 -682.5472412109375 439.064697265625
v -306.448486328125 -1008.5756225585938 450.7052917480469
v -796.735595703125 -690.1796875 450.70526123046875
v -300.9902038574219 -1002.0695190429688 439.0647277832031
v -786.2988891601562 -668.7744140625 433.07537841796875
v -301.0118103027344 -1002.1026000976562 439.09375
v -793.0333862304688 -682.5803833007812 439.0937194824219
v -291.1387634277344 -990.3347778320312 433.0754089355469
v -785.425048828125 -666.9765014648438 422.259521484375
v -291.1523742675781 -990.3560791015625 433.10870361328125
v -786.3128051757812 -668.7955322265625 433.1086730957031
v -289.8515319824219 -988.8052368164062 422.2595520019531
v -782.4193115234375 -660.8110961914062 411.0635070800781
v -289.86151123046875 -988.8204956054688 422.3063049316406
v -785.4349365234375 -666.9918212890625 422.3062744140625
v -285.4418640136719 -983.5516967773438 411.06353759765625
v -775.8822021484375 -647.39990234375 404.27423095703125
v -285.4623107910156 -983.5830078125 411.09515380859375
v -782.4396362304688 -660.842529296875 411.0951232910156
v -275.848876953125 -972.1249389648438 404.2742919921875
v -768.1127319335938 -631.457763671875 404.28350830078125
v -275.87518310546875 -972.1654052734375 404.2835693359375
v -775.908447265625 -647.4403686523438 404.28350830078125
v -264.4452209472656 -958.5429077148438 404.2835693359375
v -288.8758544921875 -987.5617065429688 487.8835144042969
v -125.8173599243164 -1111.50341796875 487.883544921875
v -266.2928161621094 -960.6751708984375 487.883544921875
v -151.320068359375 -1135.2547607421875 487.8835754394531
v -319.71441650390625 -1024.2904052734375 499.09002685546875
v -151.28396606445312 -1135.22119140625 487.8778381347656
v -288.8396301269531 -987.5279541015625 487.87847900390625
v -186.152587890625 -1167.695556640625 499.0893859863281
v -325.927734375 -1031.6917724609375 488.6636962890625
v -186.12237548828125 -1167.6673583984375 499.1020202636719
v -319.6831970214844 -1024.26123046875 499.1004638671875
v -193.17222595214844 -1174.2332763671875 488.6652526855469
v -306.4648742675781 -1008.5186767578125 464.66943359375
v -193.17410278320312 -1174.2349853515625 488.6992492675781
v -325.929931640625 -1031.69384765625 488.7007141113281
v -171.19203186035156 -1153.7623291015625 464.66796875
v -306.4778747558594 -1008.5305786132812 450.6585998535156
v -171.20631408691406 -1153.775634765625 464.7085876464844
v -306.4778747558594 -1008.5305786132812 464.70855712890625
v -171.20631408691406 -1153.775634765625 450.65863037109375
v -301.02557373046875 -1002.039794921875 439.0647277832031
v -171.21705627441406 -1153.78564453125 450.703857421875
v -306.4893493652344 -1008.5413818359375 450.7052917480469
v -165.04861450195312 -1148.04052734375 439.0633239746094
v -291.17266845703125 -990.3063354492188 433.0754089355469
v -165.0763702392578 -1148.06640625 439.0927734375
v -301.0544128417969 -1002.0667724609375 439.09375
v -153.91921997070312 -1137.675537109375 433.0744323730469
v -289.888671875 -988.7740478515625 422.2595520019531
v -153.9395751953125 -1137.6944580078125 433.10821533203125
v -291.1912536621094 -990.3234252929688 433.10870361328125
v -152.4692840576172 -1136.3251953125 422.2590637207031
v -285.4775085449219 -983.521728515625 411.06353759765625
v -152.48211669921875 -1136.337158203125 422.30499267578125
v -289.9020080566406 -988.7864990234375 422.3063049316406
v -147.48684692382812 -1131.6849365234375 411.062255859375
v -275.88287353515625 -972.096435546875 404.2742919921875
v -147.51296997070312 -1131.7093505859375 411.09405517578125
v -285.5047912597656 -983.5473022460938 411.09515380859375
v -136.6494598388672 -1121.5914306640625 404.2731628417969
v -264.4788513183594 -958.5146484375 404.2835693359375
v -136.6843719482422 -1121.6239013671875 404.2835998535156
v -275.91815185546875 -972.1293334960938 404.2835693359375
v -123.7684555053711 -1109.594970703125 404.2835693359375
v 599.988037109375 -975.5590209960938 487.8835754394531
v 634.0126953125 -769.3089599609375 487.8835144042969
v 567.029296875 -964.2337036132812 487.8835754394531
v 665.578857421875 -784.685791015625 487.883544921875
v 645.0038452148438 -991.027587890625 499.0893859863281
v 665.5320434570312 -784.669677734375 487.8785095214844
v 599.94140625 -975.5430297851562 487.8778381347656
v 708.690673828125 -805.6958618164062 499.09002685546875
v 654.0757446289062 -994.1448364257812 488.6652526855469
v 708.6502685546875 -805.681884765625 499.1004638671875
v 644.9647827148438 -991.01416015625 499.1020202636719
v 717.3770141601562 -809.9303588867188 488.6636962890625
v 625.6694946289062 -984.3837890625 464.66796875
v 717.3798828125 -809.9313354492188 488.7007141113281
v 654.078125 -994.1456298828125 488.6992492675781
v 690.1713256835938 -796.6766967773438 464.66943359375
v 625.68798828125 -984.39013671875 450.65863037109375
v 690.1880493164062 -796.682373046875 464.70855712890625
v 625.68798828125 -984.39013671875 464.7085876464844
v 690.1880493164062 -796.682373046875 450.6585998535156
v 617.72998046875 -981.655517578125 439.0633239746094
v 690.202880859375 -796.6875 450.7052917480469
v 625.7018432617188 -984.3948974609375 450.703857421875
v 682.567138671875 -792.9703369140625 439.06475830078125
v 603.3468627929688 -976.7133178710938 433.0744323730469
v 682.6044921875 -792.9832763671875 439.0937805175781
v 617.7658081054688 -981.6678466796875 439.0927734375
v 668.7935791015625 -786.2587890625 433.075439453125
v 601.47314453125 -976.0694580078125 422.259033203125
v 668.8175048828125 -786.2669067382812 433.1087341308594
v 603.3731079101562 -976.7223510742188 433.10821533203125
v 666.9976196289062 -785.38134765625 422.25958251953125
v 595.0341186523438 -973.8567504882812 411.062255859375
v 667.014892578125 -785.3873291015625 422.30633544921875
v 601.48974609375 -976.0751342773438 422.30499267578125
v 660.8313598632812 -782.37744140625 411.0635681152344
v 581.0281982421875 -969.0440063476562 404.2731628417969
v 660.8666381835938 -782.3896484375 411.0951843261719
v 595.06787109375 -973.8683471679688 411.09405517578125
v 647.4188842773438 -775.8421020507812 404.2742614746094
v 564.3814697265625 -963.3240356445312 404.2835998535156
v 647.4645385742188 -775.8577880859375 404.2835388183594
v 581.0733032226562 -969.0595092773438 404.2835998535156
v 631.4766845703125 -768.0731201171875 404.2835388183594
v 665.5542602539062 -784.7362060546875 487.883544921875
v 960.7032470703125 -266.2591552734375 487.8835144042969
v 633.9934692382812 -769.348388671875 487.8835144042969
v 987.5975952148438 -288.8327941894531 487.883544921875
v 708.6661987304688 -805.7461547851562 499.09002685546875
v 987.5560913085938 -288.8058166503906 487.8785095214844
v 665.5127563476562 -784.7092895507812 487.8785095214844
v 1024.326416015625 -319.67169189453125 499.09002685546875
v 717.3533935546875 -809.9788208007812 488.6636962890625
v 1024.29052734375 -319.6483154296875 499.1004638671875
v 708.6302490234375 -805.7229614257812 499.1004638671875
v 1031.7264404296875 -325.8865051269531 488.6636962890625
v 690.1515502929688 -796.7172241210938 464.66943359375
v 1031.72900390625 -325.88818359375 488.7007141113281
v 717.35595703125 -809.98046875 488.7007141113281
v 1008.5474243164062 -306.4302673339844 464.66943359375
v 690.1663208007812 -796.7269897460938 450.6585998535156
v 1008.5623168945312 -306.4397888183594 464.70855712890625
v 690.1663208007812 -796.7269897460938 464.70855712890625
v 1008.5623168945312 -306.4397888183594 450.6585998535156
v 682.5469360351562 -793.0118408203125 439.06475830078125
v 1008.575439453125 -306.4483947753906 450.7052917480469
v 690.1795043945312 -796.7354736328125 450.7052917480469
v 1002.0693359375 -300.99029541015625 439.06475830078125
v 668.774169921875 -786.298583984375 433.075439453125
v 1002.1024169921875 -301.01190185546875 439.0937805175781
v 682.580078125 -793.0332641601562 439.0937805175781
v 990.3345947265625 -291.138671875 433.075439453125
v 666.9763793945312 -785.4249877929688 422.25958251953125
v 990.3558959960938 -291.15228271484375 433.1087341308594
v 668.7952880859375 -786.3125 433.1087341308594
v 988.8052978515625 -289.8516845703125 422.25958251953125
v 660.8109130859375 -782.4192504882812 411.0635681152344
v 988.820556640625 -289.8616638183594 422.30633544921875
v 666.99169921875 -785.4348754882812 422.30633544921875
v 983.5516357421875 -285.44189453125 411.0635681152344
v 647.3994750976562 -775.8819580078125 404.2742614746094
v 983.5829467773438 -285.46234130859375 411.0951843261719
v 660.8423461914062 -782.4395751953125 411.0951843261719
v 972.1246337890625 -275.8488464355469 404.2742614746094
v 631.4574584960938 -768.112548828125 404.2835388183594
v 972.1651000976562 -275.8751525878906 404.2835388183594
v 647.43994140625 -775.908203125 404.2835388183594
v 958.542724609375 -264.4451904296875 404.2835388183594
v 987.5615234375 -288.8757629394531 487.883544921875
v 1111.5029296875 -125.81726837158203 487.8835144042969
v 960.6749877929688 -266.29278564453125 487.8835144042969
v 1135.2547607421875 -151.32015991210938 487.8835144042969
v 1024.2904052734375 -319.7145080566406 499.09002685546875
v 1135.22119140625 -151.2840576171875 487.8777770996094
v 987.5277709960938 -288.83953857421875 487.8785095214844
v 1167.6954345703125 -186.15267944335938 499.0893249511719
v 1031.6917724609375 -325.9278259277344 488.6636962890625
v 1167.667236328125 -186.12246704101562 499.1019592285156
v 1024.26123046875 -319.68328857421875 499.1004638671875
v 1174.233154296875 -193.1723175048828 488.6651916503906
v 1008.5184936523438 -306.46478271484375 464.66943359375
v 1174.23486328125 -193.1741943359375 488.6991882324219
v 1031.69384765625 -325.9300231933594 488.7007141113281
v 1153.7620849609375 -171.19212341308594 464.66790771484375
v 1008.5303955078125 -306.477783203125 450.6585998535156
v 1153.775390625 -171.20640563964844 464.7085266113281
v 1008.5303955078125 -306.477783203125 464.70855712890625
v 1153.775390625 -171.20640563964844 450.6585693359375
v 1002.0396118164062 -301.0256652832031 439.06475830078125
v 1153.785400390625 -171.21714782714844 450.7038269042969
v 1008.5411987304688 -306.4892578125 450.7052917480469
v 1148.0404052734375 -165.048583984375 439.0632629394531
v 990.30615234375 -291.1725769042969 433.075439453125
v 1148.0662841796875 -165.0763397216797 439.09271240234375
v 1002.0665893554688 -301.05450439453125 439.0937805175781
v 1137.67529296875 -153.91925048828125 433.0743713378906
v 988.7741088867188 -289.8888244628906 422.25958251953125
v 1137.6942138671875 -153.93960571289062 433.108154296875
v 990.3232421875 -291.191162109375 433.1087341308594
v 1136.324951171875 -152.4693145751953 422.2590026855469
v 983.5216674804688 -285.4775390625 411.0635681152344
v 1136.3369140625 -152.48214721679688 422.304931640625
v 988.7865600585938 -289.90216064453125 422.30633544921875
v 1131.6846923828125 -147.48695373535156 411.06219482421875
v 972.0961303710938 -275.8828430175781 404.2742614746094
v 1131.7091064453125 -147.51307678222656 411.093994140625
v 983.5472412109375 -285.50482177734375 411.0951843261719
v 1121.59130859375 -136.64938354492188 404.2731018066406
v 958.5144653320312 -264.47882080078125 404.2835388183594
v 1121.623779296875 -136.68429565429688 404.2835388183594
v 972.1290283203125 -275.9181213378906 404.2835388183594
v 1109.5948486328125 -123.76850128173828 404.2835388183594
v 975.55908203125 599.9879150390625 487.8834533691406
v 769.3088989257812 634.0127563476562 487.8834533691406
v 964.2337646484375 567.0294799804688 487.8834533691406
v 784.6857299804688 665.5791015625 487.8834533691406
v 991.0272827148438 645.0038452148438 499.0892639160156
v 784.6696166992188 665.5322875976562 487.87841796875
v 975.5430908203125 599.9412841796875 487.8777160644531
v 805.69580078125 708.6904296875 499.0899353027344
v 994.1446533203125 654.0758056640625 488.66510009765625
v 805.6818237304688 708.6500244140625 499.1003723144531
v 991.0138549804688 644.9647827148438 499.1018981933594
v 809.93017578125 717.3770141601562 488.6636047363281
v 984.3836059570312 625.6695556640625 464.6678466796875
v 809.93115234375 717.3798828125 488.70062255859375
v 994.1454467773438 654.0781860351562 488.6990966796875
v 796.6766357421875 690.1714477539062 464.6693420410156
v 984.3899536132812 625.6880493164062 450.65850830078125
v 796.6823120117188 690.1881713867188 464.7084655761719
v 984.3899536132812 625.6880493164062 464.7084655761719
v 796.6823120117188 690.1881713867188 450.65850830078125
v 981.6554565429688 617.7301635742188 439.0632019042969
v 796.6874389648438 690.2030029296875 450.7052001953125
v 984.3947143554688 625.701904296875 450.7037658691406
v 792.9702758789062 682.5671997070312 439.0646667480469
v 976.71337890625 603.346923828125 433.0743103027344
v 792.9832153320312 682.6045532226562 439.09368896484375
v 981.6677856445312 617.7659912109375 439.0926513671875
v 786.2587280273438 668.793701171875 433.0753479003906
v 976.0692749023438 601.47314453125 422.2589111328125
v 786.266845703125 668.817626953125 433.108642578125
v 976.722412109375 603.3731689453125 433.1080627441406
v 785.3811645507812 666.9974975585938 422.2594909667969
v 973.85693359375 595.0341796875 411.0621337890625
v 785.3871459960938 667.0147705078125 422.3062438964844
v 976.074951171875 601.48974609375 422.30487060546875
v 782.3772583007812 660.8313598632812 411.0634765625
v 969.0440673828125 581.0283813476562 404.2730407714844
v 782.3894653320312 660.8666381835938 411.0950927734375
v 973.8685302734375 595.0679321289062 411.09393310546875
v 775.8421630859375 647.4190063476562 404.2742004394531
v 963.3238525390625 564.3814697265625 404.2834777832031
v 775.8578491210938 647.4646606445312 404.2834777832031
v 969.0595703125 581.073486328125 404.2834777832031
v 768.0730590820312 631.4767456054688 404.2834777832031
v 784.7361450195312 665.5545043945312 487.8834533691406
v 266.25909423828125 960.7033081054688 487.8833923339844
v 769.3483276367188 633.9935302734375 487.8834533691406
v 288.8327331542969 987.5977172851562 487.8833923339844
v 805.74609375 708.6659545898438 499.0899353027344
v 288.8057556152344 987.5562133789062 487.87835693359375
v 784.709228515625 665.5130004882812 487.87841796875
v 319.6715087890625 1024.3262939453125 499.0898742675781
v 809.9786376953125 717.3533935546875 488.6636047363281
v 319.64813232421875 1024.2904052734375 499.1003112792969
v 805.722900390625 708.6300048828125 499.1003723144531
v 325.8863220214844 1031.7264404296875 488.6635437011719
v 796.7171630859375 690.1516723632812 464.6693420410156
v 325.88800048828125 1031.72900390625 488.7005615234375
v 809.9802856445312 717.35595703125 488.70062255859375
v 306.4302062988281 1008.5474853515625 464.6692810058594
v 796.7269287109375 690.1664428710938 450.65850830078125
v 306.4397277832031 1008.5623779296875 464.7084045410156
v 796.7269287109375 690.1664428710938 464.7084655761719
v 306.4397277832031 1008.5623779296875 450.658447265625
v 793.0117797851562 682.5469970703125 439.0646667480469
v 306.4483337402344 1008.5755004882812 450.70513916015625
v 796.7354125976562 690.1796264648438 450.7052001953125
v 300.9901123046875 1002.0693969726562 439.0646057128906
v 786.2985229492188 668.7742919921875 433.0753479003906
v 301.01171875 1002.1024780273438 439.0936279296875
v 793.033203125 682.5801391601562 439.09368896484375
v 291.1385498046875 990.334716796875 433.0752868652344
v 785.4248046875 666.9762573242188 422.2594909667969
v 291.15216064453125 990.3560180664062 433.10858154296875
v 786.3124389648438 668.79541015625 433.108642578125
v 289.8514404296875 988.8051147460938 422.2594299316406
v 782.4190673828125 660.8109130859375 411.0634765625
v 289.8614196777344 988.8203735351562 422.3061828613281
v 785.4346923828125 666.9915771484375 422.3062438964844
v 285.44171142578125 983.5516357421875 411.06341552734375
v 775.8820190429688 647.3995971679688 404.2742004394531
v 285.462158203125 983.5829467773438 411.09503173828125
v 782.4393920898438 660.8423461914062 411.0950927734375
v 275.8487243652344 972.124755859375 404.2741394042969
v 768.1124877929688 631.45751953125 404.2834777832031
v 275.8750305175781 972.1652221679688 404.2834167480469
v 775.9082641601562 647.4400634765625 404.2834777832031
v 264.44500732421875 958.5427856445312 404.2834167480469
v 288.8757019042969 987.5616455078125 487.8833923339844
v 125.81720733642578 1111.503173828125 487.88336181640625
v 266.292724609375 960.675048828125 487.8833923339844
v 151.3199462890625 1135.254638671875 487.88336181640625
v 319.7143249511719 1024.290283203125 499.0898742675781
v 151.28384399414062 1135.2210693359375 487.87762451171875
v 288.8394775390625 987.5278930664062 487.87835693359375
v 186.15243530273438 1167.6954345703125 499.08917236328125
v 325.9276428222656 1031.6917724609375 488.6635437011719
v 186.12222290039062 1167.667236328125 499.101806640625
v 319.68310546875 1024.2611083984375 499.1003112792969
v 193.1721954345703 1174.233154296875 488.6650085449219
v 306.4647216796875 1008.5185546875 464.6692810058594
v 193.174072265625 1174.23486328125 488.6990051269531
v 325.9298400878906 1031.69384765625 488.7005615234375
v 171.19187927246094 1153.76220703125 464.6677551269531
v 306.47772216796875 1008.5304565429688 450.658447265625
v 171.20616149902344 1153.7755126953125 464.7083740234375
v 306.47772216796875 1008.5304565429688 464.7084045410156
v 171.20616149902344 1153.7755126953125 450.6584167480469
v 301.0254821777344 1002.0396728515625 439.0646057128906
v 171.21690368652344 1153.7855224609375 450.70367431640625
v 306.48919677734375 1008.541259765625 450.70513916015625
v 165.04843139648438 1148.04052734375 439.0631103515625
v 291.1724548339844 990.3062744140625 433.0752868652344
v 165.07618713378906 1148.06640625 439.0925598144531
v 301.0543212890625 1002.066650390625 439.0936279296875
v 153.91903686523438 1137.67529296875 433.07421875
v 289.8885803222656 988.77392578125 422.2594299316406
v 153.93939208984375 1137.6942138671875 433.1080017089844
v 291.1910400390625 990.3233642578125 433.10858154296875
v 152.46913146972656 1136.324951171875 422.2588195800781
v 285.47735595703125 983.5216674804688 411.06341552734375
v 152.48196411132812 1136.3369140625 422.3047790527344
v 289.90191650390625 988.786376953125 422.3061828613281
v 147.4868621826172 1131.6846923828125 411.0620422363281
v 275.8827209472656 972.0962524414062 404.2741394042969
v 147.5129852294922 1131.7091064453125 411.0938415527344
v 285.504638671875 983.5472412109375 411.09503173828125
v 136.6492919921875 1121.5914306640625 404.27294921875
v 264.4786376953125 958.5145263671875 404.2834167480469
v 136.6842041015625 1121.6239013671875 404.28338623046875
v 275.9179992675781 972.129150390625 404.2834167480469
v 123.76822662353516 1109.5948486328125 404.28338623046875
v -564.3897705078125 963.3002319335938 404.25921630859375
v -581.0679931640625 969.03125 404.23565673828125
v -595.0848999023438 973.8477172851562 411.0476989746094
v -601.5292358398438 976.0621337890625 422.2658996582031
v -603.4091186523438 976.7081298828125 433.05560302734375
v -617.7801513671875 981.646240234375 439.04547119140625
v -625.7391357421875 984.381103515625 450.66876220703125
v -625.7347412109375 984.379638671875 464.6638488769531
v -567.0377807617188 964.2101440429688 487.9092102050781
v -599.9672241210938 975.525390625 487.9327087402344
v -654.1002807617188 994.1265258789062 488.6808166503906
v -645.0010986328125 990.9998779296875 499.12469482421875
v -1131.697265625 147.53663635253906 411.0477294921875
v -1121.5958251953125 136.69068908691406 404.2356872558594
v -1109.57666015625 123.7853012084961 404.2592468261719
v -1136.3414306640625 152.52313232421875 422.26593017578125
v -1137.696044921875 153.97776794433594 433.0556335449219
v -1153.7882080078125 171.25637817382812 450.6687927246094
v -1148.0523681640625 165.0978240966797 439.0455017089844
v -1153.7850341796875 171.25299072265625 464.66387939453125
v -1111.4849853515625 125.8342514038086 487.90924072265625
v -1135.215576171875 151.31459045410156 487.9327392578125
v -1174.2266845703125 193.20169067382812 488.6808776855469
v -1167.6693115234375 186.16098022460938 499.124755859375
v -963.3004760742188 -564.3897705078125 404.25927734375
v -969.0313720703125 -581.0679321289062 404.2357482910156
v -973.8478393554688 -595.0849609375 411.04779052734375
v -976.0623168945312 -601.5292358398438 422.2659912109375
v -976.708251953125 -603.4090576171875 433.0556945800781
v -981.6464233398438 -617.7799682617188 439.0455627441406
v -984.3812866210938 -625.739013671875 450.6688537597656
v -984.3797607421875 -625.734619140625 464.6639404296875
v -964.2103881835938 -567.037841796875 487.9092712402344
v -975.5255737304688 -599.9671630859375 487.93280029296875
v -994.1266479492188 -654.10009765625 488.6809387207031
v -991.0001220703125 -645.0010375976562 499.12481689453125
v -147.53665161132812 -1131.697265625 411.04791259765625
v -136.69076538085938 -1121.595703125 404.2358703613281
v -123.78550720214844 -1109.57666015625 404.2593994140625
v -152.52328491210938 -1136.3414306640625 422.26611328125
v -153.9779815673828 -1137.696044921875 433.0558166503906
v -171.2564697265625 -1153.7882080078125 450.6689758300781
v -165.09791564941406 -1148.05224609375 439.0456848144531
v -171.25308227539062 -1153.7850341796875 464.6640625
v -125.83440399169922 -1111.485107421875 487.9093933105469
v -151.3146209716797 -1135.215576171875 487.93292236328125
v -193.20172119140625 -1174.2265625 488.6810607910156
v -186.16107177734375 -1167.6693115234375 499.12493896484375
v 564.3895874023438 -963.3004150390625 404.2594299316406
v 581.0676879882812 -969.0311889648438 404.2358703613281
v 595.0845947265625 -973.84765625 411.04791259765625
v 601.529052734375 -976.062255859375 422.26611328125
v 603.4088745117188 -976.7081909179688 433.0558166503906
v 617.77978515625 -981.646240234375 439.0456848144531
v 625.7388916015625 -984.3812255859375 450.6689758300781
v 625.7344970703125 -984.3796997070312 464.6640625
v 567.0374145507812 -964.2100830078125 487.909423828125
v 599.9671020507812 -975.5254516601562 487.93292236328125
v 654.0999755859375 -994.126708984375 488.6810607910156
v 645.0009155273438 -991.0001220703125 499.12493896484375
v 1131.697021484375 -147.53675842285156 411.0478515625
v 1121.5955810546875 -136.69068908691406 404.2358093261719
v 1109.5765380859375 -123.7855453491211 404.2593688964844
v 1136.3411865234375 -152.5233154296875 422.26605224609375
v 1137.69580078125 -153.97801208496094 433.0557556152344
v 1153.7879638671875 -171.25656127929688 450.6689147949219
v 1148.0521240234375 -165.09788513183594 439.0456237792969
v 1153.7847900390625 -171.253173828125 464.66400146484375
v 1111.4847412109375 -125.83431243896484 487.90936279296875
v 1135.215576171875 -151.31471252441406 487.932861328125
v 1174.2264404296875 -193.20181274414062 488.6809997558594
v 1167.669189453125 -186.16116333007812 499.1248779296875
v 963.3002319335938 564.3895874023438 404.2593078613281
v 969.03125 581.06787109375 404.2357482910156
v 973.8478393554688 595.0846557617188 411.04779052734375
v 976.0620727539062 601.529052734375 422.2659912109375
v 976.708251953125 603.408935546875 433.0556945800781
v 981.6461791992188 617.7799682617188 439.0455627441406
v 984.3810424804688 625.7389526367188 450.6688537597656
v 984.3795166015625 625.7345581054688 464.6639404296875
v 964.2101440429688 567.03759765625 487.9093017578125
v 975.5255126953125 599.9669799804688 487.93280029296875
v 994.1265258789062 654.1000366210938 488.680908203125
v 990.9998168945312 645.0009155273438 499.12481689453125
v 147.5366668701172 1131.697021484375 411.0476989746094
v 136.6905975341797 1121.595703125 404.23565673828125
v 123.78527069091797 1109.57666015625 404.25921630859375
v 152.52313232421875 1136.3411865234375 422.2658996582031
v 153.97779846191406 1137.69580078125 433.05560302734375
v 171.25631713867188 1153.7880859375 450.66876220703125
v 165.0977325439453 1148.05224609375 439.04547119140625
v 171.2529296875 1153.784912109375 464.6638488769531
v 125.8342514038086 1111.48486328125 487.9092102050781
v 151.3144989013672 1135.2154541015625 487.9327087402344
v 193.20169067382812 1174.2264404296875 488.6808166503906
v 186.16091918945312 1167.669189453125 499.1247253417969
v -633.3904418945312 769.0299682617188 500.0
v -960.1671752929688 265.83758544921875 500.0000305175781
v -769.0301513671875 -633.390380859375 500.0001220703125
v 265.8375244140625 960.1671142578125 500.0000305175781
v -265.8377380371094 -960.167236328125 500.00018310546875
v 769.030029296875 633.3903198242188 500.0000915527344
v 633.390380859375 -769.0302124023438 500.0001525878906
v 960.1671752929688 -265.8377685546875 500.0001525878906
f 1 2 4
f 2 1 3
f 395 396 394
f 394 393 395
f 393 394 781
f 393 781 782
f 43 393 782
f 43 44 393
f 783 393 44
f 783 44 784
f 785 783 784
f 785 784 786
f 42 41 43
f 44 43 41
f 572 785 786
f 572 786 217
f 571 572 217
f 571 217 788
f 217 787 788
f 217 218 787
f 218 217 219
f 219 220 218
f 570 569 571
f 572 571 569
f 15 16 14
f 14 13 15
f 13 14 21
f 13 21 22
f 7 13 22
f 7 8 13
f 23 13 8
f 23 8 24
f 25 23 24
f 25 24 26
f 6 5 7
f 8 7 5
f 20 25 26
f 20 26 9
f 19 20 9
f 19 9 28
f 9 27 28
f 9 10 27
f 10 9 11
f 11 12 10
f 18 17 19
f 20 19 17
f 36 34 35
f 34 33 35
f 30 29 31
f 31 32 30
f 778 777 779
f 780 778 779
f 774 773 775
f 776 774 775
f 770 769 771
f 772 770 771
f 766 765 767
f 768 766 767
f 762 761 763
f 764 762 763
f 758 757 759
f 760 758 759
f 754 753 755
f 756 754 755
f 750 749 751
f 752 750 751
f 746 745 747
f 748 746 747
f 742 741 743
f 744 742 743
f 738 737 739
f 740 738 739
f 734 733 735
f 736 734 735
f 562 561 563
f 564 562 563
f 558 557 559
f 559 560 558
f 386 385 387
f 388 386 387
f 382 381 383
f 383 384 382
f 210 209 211
f 212 210 211
f 206 205 207
f 207 208 206
f 1415 204 1416
f 204 553 1416
f 553 204 202
f 1414 553 202
f 1414 1413 553
f 1413 555 553
f 554 553 555
f 555 556 554
f 201 202 204
f 202 201 203
f 729 730 732
f 730 729 731
f 379 380 378
f 378 377 379
f 1419 379 377
f 1420 1419 377
f 1420 377 730
f 377 732 730
f 377 1417 732
f 1417 1418 732
f 1417 1415 1418
f 1415 1416 1418
f 37 38 40
f 38 37 39
f 213 214 216
f 214 213 215
f 389 390 392
f 390 389 391
f 565 566 568
f 566 565 567
f 114 116 113
f 114 113 115
f 110 112 109
f 110 109 111
f 106 108 105
f 106 105 107
f 102 104 101
f 102 101 103
f 98 100 97
f 98 97 99
f 94 96 93
f 94 93 95
f 90 92 89
f 90 89 91
f 86 88 85
f 86 85 87
f 82 84 81
f 82 81 83
f 78 80 77
f 78 77 79
f 74 76 73
f 74 73 75
f 70 72 69
f 70 69 71
f 66 68 65
f 66 65 67
f 62 64 61
f 62 61 63
f 58 60 57
f 58 57 59
f 54 56 53
f 54 53 55
f 50 52 49
f 50 49 51
f 46 48 45
f 46 45 47
f 1314 1316 1313
f 1314 1313 1315
f 1310 1312 1309
f 1310 1309 1311
f 1306 1308 1305
f 1306 1305 1307
f 1302 1304 1301
f 1302 1301 1303
f 1298 1300 1297
f 1298 1297 1299
f 1294 1296 1293
f 1294 1293 1295
f 1290 1292 1289
f 1290 1289 1291
f 1286 1288 1285
f 1286 1285 1287
f 1282 1284 1281
f 1282 1281 1283
f 1278 1280 1277
f 1278 1277 1279
f 1274 1276 1273
f 1274 1273 1275
f 1270 1272 1269
f 1270 1269 1271
f 1266 1268 1265
f 1266 1265 1267
f 1262 1264 1261
f 1262 1261 1263
f 1258 1260 1257
f 1258 1257 1259
f 1254 1256 1253
f 1254 1253 1255
f 1250 1252 1249
f 1250 1249 1251
f 1246 1248 1245
f 1246 1245 1247
f 1242 1244 1241
f 1242 1241 1243
f 1238 1240 1237
f 1238 1237 1239
f 1234 1236 1233
f 1234 1233 1235
f 1230 1232 1229
f 1230 1229 1231
f 1226 1228 1225
f 1226 1225 1227
f 1222 1224 1221
f 1222 1221 1223
f 1218 1220 1217
f 1218 1217 1219
f 1214 1216 1213
f 1214 1213 1215
f 1210 1212 1209
f 1210 1209 1211
f 1206 1208 1205
f 1206 1205 1207
f 1202 1204 1201
f 1202 1201 1203
f 1198 1200 1197
f 1198 1197 1199
f 1194 1196 1193
f 1194 1193 1195
f 1190 1192 1189
f 1190 1189 1191
f 1186 1188 1185
f 1186 1185 1187
f 1182 1184 1181
f 1182 1181 1183
f 1178 1180 1177
f 1178 1177 1179
f 1174 1176 1173
f 1174 1173 1175
f 1170 1172 1169
f 1170 1169 1171
f 1166 1168 1165
f 1166 1165 1167
f 1162 1164 1161
f 1162 1161 1163
f 1158 1160 1157
f 1158 1157 1159
f 1154 1156 1153
f 1154 1153 1155
f 1150 1152 1149
f 1150 1149 1151
f 1146 1148 1145
f 1146 1145 1147
f 1142 1144 1141
f 1142 1141 1143
f 1138 1140 1137
f 1138 1137 1139
f 1134 1136 1133
f 1134 1133 1135
f 1130 1132 1129
f 1130 1129 1131
f 1126 1128 1125
f 1126 1125 1127
f 1122 1124 1121
f 1122 1121 1123
f 1118 1120 1117
f 1118 1117 1119
f 1114 1116 1113
f 1114 1113 1115
f 1110 1112 1109
f 1110 1109 1111
f 1106 1108 1105
f 1106 1105 1107
f 1102 1104 1101
f 1102 1101 1103
f 1098 1100 1097
f 1098 1097 1099
f 1094 1096 1093
f 1094 1093 1095
f 1090 1092 1089
f 1090 1089 1091
f 1086 1088 1085
f 1086 1085 1087
f 1082 1084 1081
f 1082 1081 1083
f 1078 1080 1077
f 1078 1077 1079
f 1074 1076 1073
f 1074 1073 1075
f 1070 1072 1069
f 1070 1069 1071
f 1066 1068 1065
f 1066 1065 1067
f 1062 1064 1061
f 1062 1061 1063
f 1058 1060 1057
f 1058 1057 1059
f 1054 1056 1053
f 1054 1053 1055
f 1050 1052 1049
f 1050 1049 1051
f 1046 1048 1045
f 1046 1045 1047
f 1042 1044 1041
f 1042 1041 1043
f 1038 1040 1037
f 1038 1037 1039
f 1034 1036 1033
f 1034 1033 1035
f 1030 1032 1029
f 1030 1029 1031
f 1026 1028 1025
f 1026 1025 1027
f 1022 1024 1021
f 1022 1021 1023
f 1018 1020 1017
f 1018 1017 1019
f 1014 1016 1013
f 1014 1013 1015
f 1010 1012 1009
f 1010 1009 1011
f 1006 1008 1005
f 1006 1005 1007
f 1002 1004 1001
f 1002 1001 1003
f 998 1000 997
f 998 997 999
f 994 996 993
f 994 993 995
f 990 992 989
f 990 989 991
f 986 988 985
f 986 985 987
f 982 984 981
f 982 981 983
f 978 980 977
f 978 977 979
f 974 976 973
f 974 973 975
f 970 972 969
f 970 969 971
f 966 968 965
f 966 965 967
f 962 964 961
f 962 961 963
f 958 960 957
f 958 957 959
f 954 956 953
f 954 953 955
f 950 952 949
f 950 949 951
f 946 948 945
f 946 945 947
f 942 944 941
f 942 941 943
f 938 940 937
f 938 937 939
f 934 936 933
f 934 933 935
f 930 932 929
f 930 929 931
f 926 928 925
f 926 925 927
f 922 924 921
f 922 921 923
f 918 920 917
f 918 917 919
f 914 916 913
f 914 913 915
f 910 912 909
f 910 909 911
f 906 908 905
f 906 905 907
f 902 904 901
f 902 901 903
f 898 900 897
f 898 897 899
f 894 896 893
f 894 893 895
f 890 892 889
f 890 889 891
f 886 888 885
f 886 885 887
f 882 884 881
f 882 881 883
f 878 880 877
f 878 877 879
f 874 876 873
f 874 873 875
f 870 872 869
f 870 869 871
f 866 868 865
f 866 865 867
f 862 864 861
f 862 861 863
f 858 860 857
f 858 857 859
f 854 856 853
f 854 853 855
f 850 852 849
f 850 849 851
f 846 848 845
f 846 845 847
f 842 844 841
f 842 841 843
f 838 840 837
f 838 837 839
f 834 836 833
f 834 833 835
f 830 832 829
f 830 829 831
f 826 828 825
f 826 825 827
f 822 824 821
f 822 821 823
f 818 820 817
f 818 817 819
f 814 816 813
f 814 813 815
f 810 812 809
f 810 809 811
f 806 808 805
f 806 805 807
f 802 804 801
f 802 801 803
f 798 800 797
f 798 797 799
f 794 796 793
f 794 793 795
f 790 792 789
f 790 789 791
f 702 704 701
f 702 701 703
f 698 700 697
f 698 697 699
f 694 696 693
f 694 693 695
f 690 692 689
f 690 689 691
f 686 688 685
f 686 685 687
f 682 684 681
f 682 681 683
f 678 680 677
f 678 677 679
f 674 676 673
f 674 673 675
f 670 672 669
f 670 669 671
f 666 668 665
f 666 665 667
f 662 664 661
f 662 661 663
f 658 660 657
f 658 657 659
f 654 656 653
f 654 653 655
f 650 652 649
f 650 649 651
f 646 648 645
f 646 645 647
f 642 644 641
f 642 641 643
f 638 640 637
f 638 637 639
f 634 636 633
f 634 633 635
f 630 632 629
f 630 629 631
f 626 628 625
f 626 625 627
f 622 624 621
f 622 621 623
f 618 620 617
f 618 617 619
f 614 616 613
f 614 613 615
f 610 612 609
f 610 609 611
f 606 608 605
f 606 605 607
f 602 604 601
f 602 601 603
f 598 600 597
f 598 597 599
f 594 596 593
f 594 593 595
f 590 592 589
f 590 589 591
f 586 588 585
f 586 585 587
f 582 584 581
f 582 581 583
f 578 580 577
f 578 577 579
f 574 576 573
f 574 573 575
f 526 528 525
f 526 525 527
f 522 524 521
f 522 521 523
f 518 520 517
f 518 517 519
f 514 516 513
f 514 513 515
f 510 512 509
f 510 509 511
f 506 508 505
f 506 505 507
f 502 504 501
f 502 501 503
f 498 500 497
f 498 497 499
f 494 496 493
f 494 493 495
f 490 492 489
f 490 489 491
f 486 488 485
f 486 485 487
f 482 484 481
f 482 481 483
f 478 480 477
f 478 477 479
f 474 476 473
f 474 473 475
f 470 472 469
f 470 469 471
f 466 468 465
f 466 465 467
f 462 464 461
f 462 461 463
f 458 460 457
f 458 457 459
f 454 456 453
f 454 453 455
f 450 452 449
f 450 449 451
f 446 448 445
f 446 445 447
f 442 444 441
f 442 441 443
f 438 440 437
f 438 437 439
f 434 436 433
f 434 433 435
f 430 432 429
f 430 429 431
f 426 428 425
f 426 425 427
f 422 424 421
f 422 421 423
f 418 420 417
f 418 417 419
f 414 416 413
f 414 413 415
f 410 412 409
f 410 409 411
f 406 408 405
f 406 405 407
f 402 404 401
f 402 401 403
f 398 400 397
f 398 397 399
f 350 352 349
f 350 349 351
f 346 348 345
f 346 345 347
f 342 344 341
f 342 341 343
f 338 340 337
f 338 337 339
f 334 336 333
f 334 333 335
f 330 332 329
f 330 329 331
f 326 328 325
f 326 325 327
f 322 324 321
f 322 321 323
f 318 320 317
f 318 317 319
f 314 316 313
f 314 313 315
f 310 312 309
f 310 309 311
f 306 308 305
f 306 305 307
f 302 304 301
f 302 301 303
f 298 300 297
f 298 297 299
f 294 296 293
f 294 293 295
f 290 292 289
f 290 289 291
f 286 288 285
f 286 285 287
f 282 284 281
f 282 281 283
f 278 280 277
f 278 277 279
f 274 276 273
f 274 273 275
f 270 272 269
f 270 269 271
f 266 268 265
f 266 265 267
f 262 264 261
f 262 261 263
f 258 260 257
f 258 257 259
f 254 256 253
f 254 253 255
f 250 252 249
f 250 249 251
f 246 248 245
f 246 245 247
f 242 244 241
f 242 241 243
f 238 240 237
f 238 237 239
f 234 236 233
f 234 233 235
f 230 232 229
f 230 229 231
f 226 228 225
f 226 225 227
f 222 224 221
f 222 221 223
f 174 176 173
f 174 173 175
f 170 172 169
f 170 169 171
f 166 168 165
f 166 165 167
f 162 164 161
f 162 161 163
f 158 160 157
f 158 157 159
f 154 156 153
f 154 153 155
f 150 152 149
f 150 149 151
f 146 148 145
f 146 145 147
f 142 144 141
f 142 141 143
f 138 140 137
f 138 137 139
f 134 136 133
f 134 133 135
f 130 132 129
f 130 129 131
f 126 128 125
f 126 125 127
f 122 124 121
f 122 121 123
f 118 120 117
f 118 117 119
f 1366 1365 1367
f 1367 1365 1368
f 1368 1365 1369
f 1369 1365 1373
f 1370 1369 1371
f 1371 1369 1372
f 1372 1369 1373
f 1373 1374 1372
f 1374 1375 1372
f 1375 1374 1376
f 1407 1406 1405
f 1406 1408 1405
f 1402 1401 1403
f 1401 1404 1403
f 1404 1405 1403
f 1405 1409 1403
f 1408 1409 1405
f 1409 1408 1410
f 1410 1408 1411
f 1411 1412 1410
f 530 529 531
f 531 529 532
f 532 529 533
f 533 529 537
f 536 533 537
f 537 538 536
f 538 539 536
f 539 538 540
f 534 533 535
f 535 533 536
f 1394 1393 1395
f 1395 1393 1396
f 1390 1389 1391
f 1391 1389 1392
f 1392 1389 1393
f 1393 1389 1397
f 1396 1393 1397
f 1397 1398 1396
f 1398 1399 1396
f 1399 1398 1400
f 1383 1382 1381
f 1382 1384 1381
f 1378 1377 1379
f 1377 1380 1379
f 1380 1381 1379
f 1381 1385 1379
f 1384 1385 1381
f 1385 1384 1386
f 1386 1384 1387
f 1387 1388 1386
f 375 376 374
f 374 372 375
f 373 372 374
f 372 373 369
f 369 373 367
f 368 369 367
f 365 368 367
f 366 365 367
f 371 370 369
f 370 372 369
f 1359 1358 1357
f 1358 1360 1357
f 1354 1353 1355
f 1353 1356 1355
f 1356 1357 1355
f 1357 1361 1355
f 1360 1361 1357
f 1361 1360 1362
f 1362 1360 1363
f 1363 1364 1362
f 178 177 179
f 179 177 180
f 180 177 181
f 181 177 185
f 184 181 185
f 185 186 184
f 186 187 184
f 187 186 188
f 182 181 183
f 183 181 184
f 1346 1345 1347
f 1347 1345 1348
f 1342 1341 1343
f 1343 1341 1344
f 1344 1341 1345
f 1345 1341 1349
f 1348 1345 1349
f 1349 1350 1348
f 1350 1351 1348
f 1351 1350 1352
f 1335 1334 1333
f 1334 1336 1333
f 1330 1329 1331
f 1329 1332 1331
f 1332 1333 1331
f 1333 1337 1331
f 1336 1337 1333
f 1337 1336 1338
f 1338 1336 1339
f 1339 1340 1338
f 190 189 191
f 189 192 191
f 192 193 191
f 193 197 191
f 196 197 193
f 197 196 198
f 198 196 199
f 199 200 198
f 195 194 193
f 194 196 193
f 1322 1321 1323
f 1323 1321 1324
f 1318 1317 1319
f 1319 1317 1320
f 1320 1317 1321
f 1321 1317 1325
f 1324 1321 1325
f 1325 1326 1324
f 1326 1327 1324
f 1327 1326 1328
f 723 722 721
f 722 724 721
f 718 717 719
f 717 720 719
f 720 721 719
f 721 725 719
f 724 725 721
f 725 724 726
f 726 724 727
f 727 728 726
f 354 353 355
f 355 353 356
f 356 353 357
f 357 353 361
f 360 357 361
f 361 362 360
f 362 363 360
f 363 362 364
f 358 357 359
f 359 357 360
f 542 541 543
f 541 544 543
f 544 545 543
f 545 549 543
f 548 549 545
f 549 548 550
f 550 548 551
f 551 552 550
f 547 546 545
f 546 548 545
f 710 709 711
f 711 709 712
f 706 705 707
f 707 705 708
f 708 705 709
f 709 705 713
f 712 709 713
f 713 714 712
f 714 715 712
f 715 714 716
