# from FinancialDistrict_Block37_Residental (UC)_0007_LOD_0.pskx
v -1399.9749755859375 -750.0001220703125 -0.02500874176621437
v -1500.0250244140625 -750.0001220703125 -0.025013113394379616
v -1399.9749755859375 -750.0001220703125 200.0249786376953
v -1500.0250244140625 -750.0001220703125 200.0249786376953
v -1500.0 -749.97509765625 -0.025013113394379616
v -1500.0 -850.025146484375 -0.025004372000694275
v -1500.0 -749.97509765625 200.0249786376953
v -1500.0 -850.025146484375 200.02499389648438
v -1500.0250244140625 -850.0001220703125 -0.025004372000694275
v -1399.9749755859375 -850.0001220703125 -0.02500000037252903
v -1500.0250244140625 -850.0001220703125 200.02499389648438
v -1399.9749755859375 -850.0001220703125 200.02499389648438
v -1500.0250244140625 -749.97509765625 199.99998474121094
v -1500.0250244140625 -850.025146484375 200.0
v -1399.9749755859375 -749.97509765625 199.99998474121094
v -1399.9749755859375 -850.025146484375 200.0
v -1900.0250244140625 -850.0001220703125 -0.025021856650710106
v -1799.9749755859375 -850.0001220703125 -0.02501748502254486
v -1900.0250244140625 -850.0001220703125 200.0249786376953
v -1799.9749755859375 -850.0001220703125 200.0249786376953
v -1800.0 -850.025146484375 -0.02501748502254486
v -1800.0 -749.97509765625 -0.0250262264162302
v -1800.0 -850.025146484375 200.0249786376953
v -1800.0 -749.97509765625 200.02496337890625
v -1799.9749755859375 -750.0001220703125 -0.0250262264162302
v -1900.0250244140625 -750.0001220703125 -0.025030598044395447
v -1799.9749755859375 -750.0001220703125 200.02496337890625
v -1900.0250244140625 -750.0001220703125 200.02496337890625
v -1900.0250244140625 -850.025146484375 199.99998474121094
v -1799.9749755859375 -850.025146484375 199.99998474121094
v -1799.9749755859375 -749.97509765625 199.99996948242188
v -1900.0250244140625 -749.97509765625 199.99996948242188
v 1250.0250244140625 -0.0 -0.024958474561572075
v 1199.9749755859375 -0.0 -0.024960659444332123
v 1250.0250244140625 -0.0 75.02503967285156
v 1199.9749755859375 -0.0 75.02503967285156
v 1200.0 0.02499999850988388 -0.024960659444332123
v 1200.0 -200.02499389648438 -0.024943174794316292
v 1200.0 0.02500000409781933 75.02503967285156
v 1200.0 -200.02499389648438 75.02506256103516
v 1199.981201171875 -199.98353576660156 -0.024943174794316292
v 1275.0 -265.625 -0.049934156239032745
v 1199.981201171875 -199.98353576660156 75.0250473022461
v 1275.0 -265.625 75.05006408691406
v 1425.0 -340.625 -0.04992104321718216
v 1425.0 -340.625 75.05007934570312
v 1575.0 -340.625 -0.049914486706256866
v 1575.0 -340.625 75.05008697509766
v 1725.0 -265.625 -0.049914486706256866
v 1725.0 -265.625 75.0500717163086
v 1800.018798828125 -199.98353576660156 -0.02491694875061512
v 1800.018798828125 -199.98353576660156 75.02507019042969
v 1800.0 -200.02499389648438 -0.02491694875061512
v 1800.0 0.02499999850988388 -0.02493443340063095
v 1800.0 -200.02499389648438 75.02508544921875
v 1800.0 0.02500000409781933 75.02506256103516
v 1800.0250244140625 -0.0 -0.02493443340063095
v 1749.9749755859375 -0.0 -0.024936618283391
v 1800.0250244140625 -0.0 75.02506256103516
v 1749.9749755859375 -0.0 75.02506256103516
v 1750.0 -0.02500000223517418 -0.024936618283391
v 1750.0 50.025001525878906 -0.024940989911556244
v 1750.0 -0.02500000037252903 75.02506256103516
v 1750.0 50.025001525878906 75.02506256103516
v 1750.0250244140625 50.0 -0.024940988048911095
v 1249.9749755859375 50.0 -0.02496284432709217
v 1750.0250244140625 50.0 75.02506256103516
v 1249.9749755859375 50.0 75.02503967285156
v 1250.0 50.025001525878906 -0.02496284618973732
v 1250.0 -0.02500000223517418 -0.024958474561572075
v 1250.0 50.025001525878906 75.02503967285156
v 1250.0 -0.02500000037252903 75.02503967285156
v 1199.9749755859375 0.02500000037252903 75.00003814697266
v 1199.95849609375 -200.01881408691406 75.00006103515625
v 1249.9749755859375 0.02500000037252903 75.00003814697266
v 1274.972412109375 -265.6661682128906 75.00006103515625
v 1424.98876953125 -340.67236328125 75.00007629394531
v 1575.01123046875 -340.67236328125 75.00008392333984
v 1725.027587890625 -265.6661682128906 75.00008392333984
v 1750.0250244140625 50.025001525878906 75.00006103515625
v 1249.9749755859375 50.025001525878906 75.00003814697266
v 1800.04150390625 -200.01881408691406 75.00008392333984
v 1800.0250244140625 0.02500000037252903 75.00006103515625
v 1750.0250244140625 0.02500000037252903 75.00006103515625
v 1250.0250244140625 -0.0 74.97503662109375
v 1199.9749755859375 -0.0 74.97503662109375
v 1199.9749755859375 -0.0 85.02503967285156
v 1250.0250244140625 -0.0 85.02503967285156
v 1270.0250244140625 -20.0 74.97503662109375
v 1270.0250244140625 -20.0 85.02503967285156
v 1219.9749755859375 -20.0 85.02503967285156
v 1219.9749755859375 -20.0 74.97503662109375
v 1200.0 0.02499999664723873 74.97503662109375
v 1200.0 -200.02499389648438 74.97505950927734
v 1200.0 -200.02499389648438 85.02506256103516
v 1200.0 0.02500000409781933 85.02503967285156
v 1220.0 -19.975000381469727 74.97503662109375
v 1220.0 -19.975000381469727 85.02503967285156
v 1220.0 -190.94961547851562 85.02505493164062
v 1220.0 -190.94961547851562 74.97505187988281
v 1199.981201171875 -199.98353576660156 74.97505950927734
v 1275.0 -265.625 74.95005798339844
v 1275.0 -265.625 85.05006408691406
v 1199.981201171875 -199.98353576660156 85.02506256103516
v 1219.981201171875 -190.9081573486328 74.97505187988281
v 1219.981201171875 -190.9081573486328 85.02505493164062
v 1286.2392578125 -248.8839111328125 85.05006408691406
v 1286.2392578125 -248.8839111328125 74.95005798339844
v 1425.0 -340.625 74.9500732421875
v 1425.0 -340.625 85.05007934570312
v 1429.721435546875 -320.625 85.05007934570312
v 1429.721435546875 -320.625 74.9500732421875
v 1575.0 -340.625 74.95008087158203
v 1575.0 -340.6249694824219 85.05008697509766
v 1570.278564453125 -320.625 85.05008697509766
v 1570.278564453125 -320.625 74.95008087158203
v 1725.0 -265.625 74.95008087158203
v 1725.0 -265.625 85.05008697509766
v 1713.7607421875 -248.8839111328125 85.05008697509766
v 1713.7607421875 -248.8839111328125 74.95008087158203
v 1800.018798828125 -199.98353576660156 74.97508239746094
v 1800.018798828125 -199.98353576660156 85.02508544921875
v 1780.018798828125 -190.9081573486328 85.02507781982422
v 1780.018798828125 -190.9081573486328 74.9750747680664
v 1800.0 -200.02499389648438 74.97508239746094
v 1800.0 0.02499999664723873 74.97505950927734
v 1800.0 0.02500000409781933 85.02506256103516
v 1800.0 -200.02499389648438 85.02508544921875
v 1780.0 -190.94961547851562 74.9750747680664
v 1780.0 -190.94961547851562 85.02507781982422
v 1780.0 -19.975000381469727 85.02506256103516
v 1780.0 -19.975000381469727 74.97505950927734
v 1800.0250244140625 -0.0 74.97505950927734
v 1749.9749755859375 -0.0 74.97505950927734
v 1749.9749755859375 -0.0 85.02506256103516
v 1800.0250244140625 -0.0 85.02506256103516
v 1780.0250244140625 -20.0 74.97505950927734
v 1780.0250244140625 -20.0 85.02506256103516
v 1729.9749755859375 -20.0 85.02506256103516
v 1729.9749755859375 -20.0 74.97505950927734
v 1750.0 -0.02500000037252903 74.97505950927734
v 1750.0 50.025001525878906 74.97505950927734
v 1750.0 50.025001525878906 85.02506256103516
v 1750.0 -0.02500000037252903 85.02506256103516
v 1730.0 -20.024999618530273 74.97505950927734
v 1730.0 -20.024999618530273 85.02506256103516
v 1730.0 30.024999618530273 85.02506256103516
v 1730.0 30.024999618530273 74.97505950927734
v 1750.0250244140625 50.0 74.97505950927734
v 1249.9749755859375 50.0 74.97503662109375
v 1249.9749755859375 50.0 85.02503967285156
v 1750.0250244140625 50.0 85.02506256103516
v 1730.0250244140625 30.0 74.97505950927734
v 1730.0250244140625 30.0 85.02506256103516
v 1269.9749755859375 30.0 85.02503967285156
v 1269.9749755859375 30.0 74.97503662109375
v 1250.0 50.025001525878906 74.97503662109375
v 1250.0 -0.02500000037252903 74.97503662109375
v 1250.0 -0.02500000037252903 85.02503967285156
v 1250.0 50.025001525878906 85.02503967285156
v 1270.0 30.024999618530273 74.97503662109375
v 1270.0 30.024999618530273 85.02503967285156
v 1270.0 -20.024999618530273 85.02503967285156
v 1270.0 -20.024999618530273 74.97503662109375
v 1249.9749755859375 0.02500000037252903 85.00003814697266
v 1199.9749755859375 0.02500000037252903 85.00003814697266
v 1220.0250244140625 -20.024999618530273 85.00003814697266
v 1270.0250244140625 -20.024999618530273 85.00003814697266
v 1199.95849609375 -200.01881408691406 85.00006103515625
v 1220.04150390625 -190.9058074951172 85.00005340576172
v 1274.972412109375 -265.6661682128906 85.00006103515625
v 1286.266845703125 -248.84274291992188 85.00006103515625
v 1424.98876953125 -340.67236328125 85.00007629394531
v 1429.732666015625 -320.57763671875 85.00007629394531
v 1575.01123046875 -340.6723327636719 85.00008392333984
v 1570.267333984375 -320.57763671875 85.00008392333984
v 1725.027587890625 -265.6661682128906 85.00008392333984
v 1713.733154296875 -248.84274291992188 85.00008392333984
v 1800.04150390625 -200.01881408691406 85.00008392333984
v 1779.95849609375 -190.9058074951172 85.00007629394531
v 1800.0250244140625 0.02500000037252903 85.00006103515625
v 1779.9749755859375 -20.024999618530273 85.00006103515625
v 1750.0250244140625 0.02500000037252903 85.00006103515625
v 1729.9749755859375 -20.024999618530273 85.00006103515625
v 1750.0250244140625 50.025001525878906 85.00006103515625
v 1729.9749755859375 29.975000381469727 85.00006103515625
v 1249.9749755859375 50.025001525878906 85.00003814697266
v 1270.0250244140625 29.975000381469727 85.00003814697266
v 799.9749755859375 -1000.0 -0.0248907208442688
v 1750.0250244140625 -1000.0 -0.024849195033311844
v 799.9749755859375 -1000.0 150.0251007080078
v 1750.0250244140625 -1000.0 150.025146484375
v 1750.0 -1000.0250244140625 -0.024849196895956993
v 1750.0 -899.9749755859375 -0.024857938289642334
v 1750.0 -1000.0250244140625 150.025146484375
v 1750.0 -899.9749755859375 150.02513122558594
v 1750.0250244140625 -900.0 -0.024857938289642334
v 1649.9749755859375 -900.0 -0.02486230991780758
v 1750.0250244140625 -900.0 150.02513122558594
v 1649.9749755859375 -900.0 150.02513122558594
v 1650.0 -899.9749755859375 -0.02486230991780758
v 1650.0 -950.0250244140625 -0.024857938289642334
v 1650.0 -899.9749755859375 150.02513122558594
v 1650.0 -950.0250244140625 150.025146484375
v 1650.0250244140625 -950.0 -0.024857938289642334
v 799.9749755859375 -950.0 -0.024895092472434044
v 1650.0250244140625 -950.0 150.025146484375
v 799.9749755859375 -950.0 150.0251007080078
v 1750.0250244140625 -1000.0250244140625 150.00015258789062
v 1750.0250244140625 -899.9749755859375 150.00013732910156
v 1649.9749755859375 -949.9749755859375 150.00015258789062
v 799.9749755859375 -1000.0250244140625 150.00010681152344
v 1649.9749755859375 -899.9749755859375 150.00013732910156
v 799.9749755859375 -949.9749755859375 150.00010681152344
v 1800.0250244140625 600.0 -0.024986887350678444
v 1749.9749755859375 600.0 -0.024989072233438492
v 1800.0250244140625 600.0 400.0250244140625
v 1749.9749755859375 600.0 400.0250244140625
v 1750.0 600.0250244140625 -0.024989072233438492
v 1750.0 549.9749755859375 -0.024984700605273247
v 1750.0 600.0250244140625 400.0250244140625
v 1750.0 549.9749755859375 400.0250244140625
v 1749.9749755859375 550.0 -0.024984700605273247
v 1800.0250244140625 550.0 -0.0249825157225132
v 1749.9749755859375 550.0 400.0250244140625
v 1800.0250244140625 550.0 400.0250244140625
v 1800.0 549.9749755859375 -0.0249825157225132
v 1800.0 600.0250244140625 -0.024986887350678444
v 1800.0 549.9749755859375 400.0250244140625
v 1800.0 600.0250244140625 400.0250244140625
v 1749.9749755859375 600.0250244140625 400.0000305175781
v 1749.9749755859375 549.9749755859375 400.0000305175781
v 1800.0250244140625 600.0250244140625 400.0000305175781
v 1800.0250244140625 549.9749755859375 400.0000305175781
v 699.9749755859375 650.0 -0.02503933757543564
v 850.0250244140625 650.0 -0.025032781064510345
v 699.9749755859375 650.0 75.02496337890625
v 850.0250244140625 650.0 75.02497100830078
v 850.0 649.9749755859375 -0.025032782927155495
v 850.0 1150.0250244140625 -0.025076493620872498
v 850.0 649.9749755859375 75.02497100830078
v 850.0 1150.0250244140625 75.0249252319336
v 850.0111694335938 1149.9776611328125 -0.025076499208807945
v 799.9888305664062 1250.022216796875 -0.025087427347898483
v 850.0111694335938 1149.9776611328125 75.0249252319336
v 799.9888305664062 1250.022216796875 75.02491760253906
v 800.0250244140625 1249.9998779296875 -0.025087423622608185
v 699.9749755859375 1249.9998779296875 -0.02509179338812828
v 800.0250244140625 1249.9998779296875 75.02491760253906
v 699.9749755859375 1249.9998779296875 75.02490997314453
v 850.0250244140625 649.9749755859375 74.99996948242188
v 850.04736328125 1150.01123046875 74.99992370605469
v 800.0223388671875 1250.0360107421875 74.99991607666016
v 699.9749755859375 649.9749755859375 74.99996185302734
v 699.9749755859375 1250.02490234375 74.99990844726562
v 699.9749755859375 650.0 74.97496032714844
v 850.0250244140625 650.0 74.97496795654297
v 850.0250244140625 650.0 85.02497100830078
v 699.9749755859375 650.0 85.02496337890625
v 719.9749755859375 670.0 74.97496032714844
v 719.9749755859375 670.0 85.02496337890625
v 830.0250244140625 670.0 85.02497100830078
v 830.0250244140625 670.0 74.97496795654297
v 850.0 649.9749755859375 74.97496795654297
v 850.0 1150.0250244140625 74.97492218017578
v 850.0 1150.0250244140625 85.0249252319336
v 850.0 649.9749755859375 85.02497100830078
v 830.0 669.9749755859375 74.97496795654297
v 830.0 669.9749755859375 85.02497100830078
v 830.0 1145.3035888671875 85.0249252319336
v 830.0 1145.3035888671875 74.97492218017578
v 850.0111694335938 1149.9776611328125 74.97492218017578
v 799.9888305664062 1250.022216796875 74.97491455078125
v 799.9888305664062 1250.022216796875 85.02491760253906
v 850.0111694335938 1149.9776611328125 85.0249252319336
v 830.0111694335938 1145.2562255859375 74.97492218017578
v 830.0111694335938 1145.2562255859375 85.0249252319336
v 787.6279907226562 1230.022216796875 85.02491760253906
v 787.6279907226562 1230.022216796875 74.97491455078125
v 800.0250244140625 1249.9998779296875 74.97491455078125
v 699.9749755859375 1249.9998779296875 74.97490692138672
v 699.9749755859375 1249.9998779296875 85.02490997314453
v 800.0250244140625 1249.9998779296875 85.02491760253906
v 787.6641845703125 1229.9998779296875 74.97491455078125
v 787.6641845703125 1229.9998779296875 85.02491760253906
v 719.9749755859375 1229.9998779296875 85.02490997314453
v 719.9749755859375 1229.9998779296875 74.97490692138672
v 700.0 1250.02490234375 74.97490692138672
v 700.0 649.9749755859375 74.97496032714844
v 700.0 649.9749755859375 85.02496337890625
v 700.0 1250.02490234375 85.02490997314453
v 720.0 1230.02490234375 74.97490692138672
v 720.0 1230.02490234375 85.02490997314453
v 720.0 669.9749755859375 85.02496337890625
v 720.0 669.9749755859375 74.97496032714844
v 699.9749755859375 649.9749755859375 84.99996185302734
v 850.0250244140625 649.9749755859375 84.99996948242188
v 829.9749755859375 670.0250244140625 84.99996948242188
v 720.0250244140625 670.0250244140625 84.99996185302734
v 850.04736328125 1150.01123046875 84.99992370605469
v 829.95263671875 1145.267333984375 84.99992370605469
v 800.0223388671875 1250.0360107421875 84.99991607666016
v 787.6168212890625 1229.9637451171875 84.99991607666016
v 699.9749755859375 1250.02490234375 84.99990844726562
v 720.0250244140625 1229.974853515625 84.99990844726562
v 1749.9749755859375 -3.814697002724188e-09 -0.024936618283391
v 1800.0250244140625 -3.814697002724188e-09 -0.02493443340063095
v 1749.9749755859375 6.103896885178983e-05 400.02508544921875
v 1800.0250244140625 6.103896885178983e-05 400.02508544921875
v 1800.0 -0.02500000037252903 -0.024934429675340652
v 1800.0 50.025001525878906 -0.024938808754086494
v 1800.0 -0.024938948452472687 400.02508544921875
v 1800.0 50.025062561035156 400.0250549316406
v 1800.0250244140625 50.0 -0.024938805028796196
v 1749.9749755859375 50.0 -0.024940989911556244
v 1800.0250244140625 50.00006103515625 400.0250549316406
v 1749.9749755859375 50.00006103515625 400.0250549316406
v 1750.0 50.025001525878906 -0.024940993636846542
v 1750.0 -0.02500000037252903 -0.0249366145581007
v 1750.0 50.025062561035156 400.0250549316406
v 1750.0 -0.024938948452472687 400.02508544921875
v 1749.9749755859375 -0.02493896521627903 400.0000915527344
v 1800.0250244140625 -0.02493896521627903 400.0000915527344
v 1800.0250244140625 50.025062561035156 400.00006103515625
v 1749.9749755859375 50.025062561035156 400.00006103515625
v 1200.0 600.0250244140625 -0.025013113394379616
v 1200.0 549.9749755859375 -0.02500874176621437
v 1200.0 600.0250244140625 400.0249938964844
v 1200.0 549.9749755859375 400.0249938964844
v 1199.9749755859375 550.0 -0.02500874176621437
v 1250.0250244140625 550.0 -0.025006556883454323
v 1199.9749755859375 550.0 400.0249938964844
v 1250.0250244140625 550.0 400.0249938964844
v 1250.0 549.9749755859375 -0.025006556883454323
v 1250.0 600.0250244140625 -0.025010928511619568
v 1250.0 549.9749755859375 400.0249938964844
v 1250.0 600.0250244140625 400.0249938964844
v 1250.0250244140625 600.0 -0.025010928511619568
v 1199.9749755859375 600.0 -0.025013113394379616
v 1250.0250244140625 600.0 400.0249938964844
v 1199.9749755859375 600.0 400.0249938964844
v 1199.9749755859375 600.0250244140625 400.0
v 1199.9749755859375 549.9749755859375 400.0
v 1250.0250244140625 600.0250244140625 400.0
v 1250.0250244140625 549.9749755859375 400.0
v 1200.0 50.025001525878906 -0.024965031072497368
v 1200.0 -0.02500000037252903 -0.024960659444332123
v 1200.0 50.025001525878906 400.0250244140625
v 1200.0 -0.024999983608722687 400.0250549316406
v 1199.9749755859375 -0.0 -0.024960659444332123
v 1250.0250244140625 -0.0 -0.024958474561572075
v 1199.9749755859375 -0.0 400.0250549316406
v 1250.0250244140625 -0.0 400.0250549316406
v 1250.0 -0.02500000037252903 -0.024958474561572075
v 1250.0 50.025001525878906 -0.02496284618973732
v 1250.0 -0.024999983608722687 400.0250549316406
v 1250.0 50.025001525878906 400.0250244140625
v 1250.0250244140625 50.0 -0.02496284618973732
v 1199.9749755859375 50.0 -0.024965031072497368
v 1250.0250244140625 50.0 400.0250244140625
v 1199.9749755859375 50.0 400.0250244140625
v 1199.9749755859375 50.025001525878906 400.0000305175781
v 1199.9749755859375 -0.02500000037252903 400.00006103515625
v 1250.0250244140625 50.025001525878906 400.0000305175781
v 1250.0250244140625 -0.02500000037252903 400.00006103515625
v 699.9749755859375 -0.0 -0.0249825157225132
v 750.0250244140625 -0.0 -0.02498033083975315
v 699.9749755859375 -0.0 400.0250244140625
v 750.0250244140625 -0.0 400.0250244140625
v 750.0 -0.02500000223517418 -0.02498033083975315
v 750.0 50.025001525878906 -0.024984700605273247
v 750.0 -0.024999985471367836 400.0250244140625
v 750.0 50.025001525878906 400.0249938964844
v 750.0250244140625 50.0 -0.024984700605273247
v 699.9749755859375 50.0 -0.024986887350678444
v 750.0250244140625 50.0 400.0249938964844
v 699.9749755859375 50.0 400.0249938964844
v 700.0 50.025001525878906 -0.024986887350678444
v 700.0 -0.02500000223517418 -0.0249825157225132
v 700.0 50.025001525878906 400.0249938964844
v 700.0 -0.024999985471367836 400.0250244140625
v 699.9749755859375 -0.02500000037252903 400.0000305175781
v 750.0250244140625 -0.02500000037252903 400.0000305175781
v 750.0250244140625 50.025001525878906 400.0
v 699.9749755859375 50.025001525878906 400.0
v 699.9749755859375 550.0 -0.025030598044395447
v 750.0250244140625 550.0 -0.0250284131616354
v 699.9749755859375 550.0 400.02496337890625
v 750.0250244140625 550.0 400.02496337890625
v 750.0 549.9749755859375 -0.0250284131616354
v 750.0 600.0250244140625 -0.025032784789800644
v 750.0 549.9749755859375 400.02496337890625
v 750.0 600.0250244140625 400.02496337890625
v 750.0250244140625 600.0 -0.025032784789800644
v 699.9749755859375 600.0 -0.025034969672560692
v 750.0250244140625 600.0 400.02496337890625
v 699.9749755859375 600.0 400.02496337890625
v 700.0 600.0250244140625 -0.025034969672560692
v 700.0 549.9749755859375 -0.025030598044395447
v 700.0 600.0250244140625 400.02496337890625
v 700.0 549.9749755859375 400.02496337890625
v 699.9749755859375 549.9749755859375 399.9999694824219
v 750.0250244140625 549.9749755859375 399.9999694824219
v 750.0250244140625 600.0250244140625 399.9999694824219
v 699.9749755859375 600.0250244140625 399.9999694824219
v 699.9749755859375 575.0250244140625 399.9999694824219
v 1199.9749755859375 549.9749755859375 400.0
v 699.9749755859375 549.9749755859375 399.9999694824219
v 1225.0 575.0250244140625 400.0
v 1199.9749755859375 50.025001525878906 400.0000305175781
v 699.9749755859375 50.0 400.0
v 699.9749755859375 24.975000381469727 400.0
v 1225.0 24.975000381469727 400.0000305175781
v 1774.9749755859375 549.9749755859375 400.0000305175781
v 1224.9749755859375 549.9749755859375 400.0
v 1800.0250244140625 575.0250244140625 400.0000305175781
v 1774.9749755859375 50.025062561035156 400.00006103515625
v 1224.9749755859375 50.025001525878906 400.0000305175781
v 1800.0250244140625 24.975061416625977 400.00006103515625
v 699.9749755859375 550.0 399.9749755859375
v 1200.0250244140625 550.0 399.9750061035156
v 699.9749755859375 550.0 425.02496337890625
v 1200.0250244140625 550.0 425.0249938964844
v 1200.0 550.0250244140625 399.9750061035156
v 1200.0 49.974998474121094 399.97503662109375
v 1200.0 550.0250244140625 425.0249938964844
v 1200.0 49.974998474121094 425.0250244140625
v 1200.0250244140625 50.0 399.97503662109375
v 699.9749755859375 50.0 399.9750061035156
v 1200.0250244140625 50.0 425.0250244140625
v 699.9749755859375 50.0 425.0249938964844
v 700.0 50.025001525878906 399.9750061035156
v 700.0 24.975000381469727 399.9750061035156
v 700.0 50.025001525878906 425.0249938964844
v 700.0 24.975000381469727 425.0249938964844
v 699.9749755859375 25.0 399.9750061035156
v 1225.0250244140625 25.0 399.97503662109375
v 699.9749755859375 25.0 425.0249938964844
v 1225.0250244140625 25.0 425.0250244140625
v 1225.0 24.975000381469727 399.97503662109375
v 1225.0 575.0250244140625 399.9750061035156
v 1225.0 24.975000381469727 425.0250244140625
v 1225.0 575.0250244140625 425.0249938964844
v 1225.0250244140625 575.0 399.9750061035156
v 699.9749755859375 575.0 399.9749755859375
v 1225.0250244140625 575.0 425.0249938964844
v 699.9749755859375 575.0 425.02496337890625
v 700.0 575.0250244140625 399.9749755859375
v 700.0 549.9749755859375 399.9749755859375
v 700.0 575.0250244140625 425.02496337890625
v 700.0 549.9749755859375 425.02496337890625
v 699.9749755859375 575.0250244140625 424.9999694824219
v 699.9749755859375 549.9749755859375 424.9999694824219
v 1199.9749755859375 549.9749755859375 425.0
v 1199.9749755859375 50.025001525878906 425.0000305175781
v 1225.0 575.0250244140625 425.0
v 699.9749755859375 50.025001525878906 425.0
v 699.9749755859375 24.975000381469727 425.0
v 1225.0 24.975000381469727 425.0000305175781
v 1224.9749755859375 550.0 399.9750061035156
v 1775.0250244140625 550.0 399.97503662109375
v 1224.9749755859375 550.0 425.0249938964844
v 1775.0250244140625 550.0 425.0250244140625
v 1775.0 550.0250244140625 399.97503662109375
v 1775.0 49.975059509277344 399.9750671386719
v 1775.0 550.0250244140625 425.0250244140625
v 1775.0 49.975059509277344 425.0250549316406
v 1775.0250244140625 50.00006103515625 399.9750671386719
v 1224.9749755859375 50.0 399.97503662109375
v 1775.0250244140625 50.00006103515625 425.0250549316406
v 1224.9749755859375 50.0 425.0250244140625
v 1225.0 50.025001525878906 399.97503662109375
v 1225.0 24.975000381469727 399.97503662109375
v 1225.0 50.025001525878906 425.0250244140625
v 1225.0 24.975000381469727 425.0250244140625
v 1224.9749755859375 25.0 399.97503662109375
v 1800.0250244140625 25.00006103515625 399.9750671386719
v 1224.9749755859375 25.0 425.0250244140625
v 1800.0250244140625 25.00006103515625 425.0250549316406
v 1800.0 24.975061416625977 399.9750671386719
v 1800.0 575.0250244140625 399.97503662109375
v 1800.0 24.975061416625977 425.0250549316406
v 1800.0 575.0250244140625 425.0250244140625
v 1800.0250244140625 575.0 399.97503662109375
v 1224.9749755859375 575.0 399.9750061035156
v 1800.0250244140625 575.0 425.0250244140625
v 1224.9749755859375 575.0 425.0249938964844
v 1225.0 575.0250244140625 399.9750061035156
v 1225.0 549.9749755859375 399.9750061035156
v 1225.0 575.0250244140625 425.0249938964844
v 1225.0 549.9749755859375 425.0249938964844
v 749.9749755859375 399.9750061035156 480.0
v 1900.0250244140625 399.9751281738281 480.00006103515625
v 1900.0250244140625 460.0251159667969 480.00006103515625
v 749.9749755859375 460.0249938964844 480.0
v 749.9749755859375 399.9750061035156 474.9999694824219
v 1900.0250244140625 460.0251159667969 475.0000305175781
v 1900.0250244140625 399.9751281738281 475.0000305175781
v 749.9749755859375 460.0249938964844 474.9999694824219
v 749.9749755859375 400.0 480.0249938964844
v 1900.0250244140625 400.0001220703125 474.97503662109375
v 1900.0250244140625 400.0001220703125 480.0250549316406
v 749.9749755859375 400.0 474.9749755859375
v 749.9749755859375 460.0 480.0249938964844
v 1900.0250244140625 460.0001220703125 480.0250549316406
v 1900.0250244140625 460.0001220703125 474.97503662109375
v 749.9749755859375 460.0 474.9749755859375
v 749.9749755859375 459.9750061035156 455.9999694824219
v 1900.0250244140625 459.9751281738281 456.0000305175781
v 1900.0250244140625 520.025146484375 456.0000305175781
v 749.9749755859375 520.0250244140625 455.9999694824219
v 749.9749755859375 459.9750061035156 450.99993896484375
v 1900.0250244140625 520.025146484375 451.0
v 1900.0250244140625 459.9751281738281 451.0
v 749.9749755859375 520.0250244140625 450.99993896484375
v 749.9749755859375 460.0 456.02496337890625
v 1900.0250244140625 460.0001220703125 450.9750061035156
v 1900.0250244140625 460.0001220703125 456.0250244140625
v 749.9749755859375 460.0 450.9749450683594
v 749.9749755859375 520.0 456.02496337890625
v 1900.0250244140625 520.0001220703125 456.0250244140625
v 1900.0250244140625 520.0001220703125 450.9750061035156
v 749.9749755859375 520.0 450.9749450683594
v 749.9749755859375 519.9749755859375 431.99993896484375
v 1900.0250244140625 519.9749755859375 432.0
v 1900.0250244140625 580.0250244140625 432.0
v 749.9749755859375 580.0250244140625 431.99993896484375
v 749.9749755859375 519.9749755859375 426.9999694824219
v 1900.0250244140625 580.0250244140625 427.0000305175781
v 1900.0250244140625 519.9749755859375 427.0000305175781
v 749.9749755859375 580.0250244140625 426.9999694824219
v 749.9749755859375 520.0 432.0249328613281
v 1900.0250244140625 520.0 426.97503662109375
v 1900.0250244140625 520.0 432.0249938964844
v 749.9749755859375 520.0 426.9749755859375
v 749.9749755859375 580.0 432.0249328613281
v 1900.0250244140625 580.0 432.0249938964844
v 1900.0250244140625 580.0 426.97503662109375
v 749.9749755859375 580.0 426.9749755859375
v 749.9749755859375 579.9749755859375 407.9999694824219
v 1900.0250244140625 579.9749755859375 408.0000305175781
v 1900.0250244140625 640.0250244140625 408.0000305175781
v 749.9749755859375 640.0250244140625 407.9999694824219
v 749.9749755859375 579.9749755859375 402.99993896484375
v 1900.0250244140625 640.0250244140625 403.0
v 1900.0250244140625 579.9749755859375 403.0
v 749.9749755859375 640.0250244140625 402.99993896484375
v 749.9749755859375 580.0 408.02496337890625
v 1900.0250244140625 580.0 402.9750061035156
v 1900.0250244140625 580.0 408.0250244140625
v 749.9749755859375 580.0 402.9749450683594
v 749.9749755859375 640.0 408.02496337890625
v 1900.0250244140625 640.0 408.0250244140625
v 1900.0250244140625 640.0 402.9750061035156
v 749.9749755859375 640.0 402.9749450683594
v 749.9749755859375 639.9749755859375 383.9999694824219
v 1900.0250244140625 639.9749755859375 384.0000305175781
v 1900.0250244140625 700.0250244140625 384.0000305175781
v 749.9749755859375 700.0250244140625 383.9999694824219
v 749.9749755859375 639.9749755859375 378.9999694824219
v 1900.0250244140625 700.0250244140625 379.0000305175781
v 1900.0250244140625 639.9749755859375 379.0000305175781
v 749.9749755859375 700.0250244140625 378.9999694824219
v 749.9749755859375 640.0 384.02496337890625
v 1900.0250244140625 640.0 378.97503662109375
v 1900.0250244140625 640.0 384.0250244140625
v 749.9749755859375 640.0 378.9749755859375
v 749.9749755859375 700.0 384.02496337890625
v 1900.0250244140625 700.0 384.0250244140625
v 1900.0250244140625 700.0 378.97503662109375
v 749.9749755859375 700.0 378.9749755859375
v 750.0 700.0250244140625 384.02496337890625
v 750.0 700.0250244140625 378.9749755859375
v 750.0 639.9749755859375 384.02496337890625
v 750.0 639.9749755859375 378.9749755859375
v 1900.0 700.0250244140625 384.0250244140625
v 1900.0 639.9749755859375 384.0250244140625
v 1900.0 700.0250244140625 378.97503662109375
v 1900.0 639.9749755859375 378.97503662109375
v 750.0 640.0250244140625 408.02496337890625
v 750.0 640.0250244140625 402.9749450683594
v 750.0 579.9749755859375 408.02496337890625
v 750.0 579.9749755859375 402.9749450683594
v 1900.0 640.0250244140625 408.0250244140625
v 1900.0 579.9749755859375 408.0250244140625
v 1900.0 640.0250244140625 402.9750061035156
v 1900.0 579.9749755859375 402.9750061035156
v 750.0 580.0250244140625 432.0249328613281
v 750.0 580.0250244140625 426.9749755859375
v 750.0 519.9749755859375 432.0249328613281
v 750.0 519.9749755859375 426.9749755859375
v 1900.0 580.0250244140625 432.0249938964844
v 1900.0 519.9749755859375 432.0249938964844
v 1900.0 580.0250244140625 426.97503662109375
v 1900.0 519.9749755859375 426.97503662109375
v 750.0 520.0250244140625 456.02496337890625
v 750.0 520.0250244140625 450.9749450683594
v 750.0 459.9750061035156 456.02496337890625
v 750.0 459.9750061035156 450.9749450683594
v 1900.0 520.025146484375 456.0250244140625
v 1900.0 459.9751281738281 456.0250244140625
v 1900.0 520.025146484375 450.9750061035156
v 1900.0 459.9751281738281 450.9750061035156
v 750.0 460.0249938964844 480.0249938964844
v 750.0 460.0249938964844 474.9749755859375
v 750.0 399.9750061035156 480.0249938964844
v 750.0 399.9750061035156 474.9749755859375
v 1900.0 460.0251159667969 480.0250549316406
v 1900.0 399.9751281738281 480.0250549316406
v 1900.0 460.0251159667969 474.97503662109375
v 1900.0 399.9751281738281 474.97503662109375
v 1900.0250244140625 200.02511596679688 480.0000915527344
v 749.9749755859375 200.02499389648438 480.0000305175781
v 749.9749755859375 139.97494506835938 480.0000305175781
v 1900.0250244140625 139.97500610351562 480.0000915527344
v 1900.0250244140625 200.02511596679688 475.00006103515625
v 749.9749755859375 139.97494506835938 475.0
v 749.9749755859375 200.02499389648438 475.0
v 1900.0250244140625 139.97500610351562 475.00006103515625
v 1900.0250244140625 200.0001220703125 480.02508544921875
v 749.9749755859375 200.0 474.9750061035156
v 749.9749755859375 200.0 480.0250244140625
v 1900.0250244140625 200.0001220703125 474.9750671386719
v 1900.0250244140625 140.0 480.02508544921875
v 749.9749755859375 139.99993896484375 480.0250244140625
v 749.9749755859375 139.99993896484375 474.9750061035156
v 1900.0250244140625 140.0 474.9750671386719
v 1900.0250244140625 140.02499389648438 456.00006103515625
v 749.9749755859375 140.02493286132812 456.0
v 749.9749755859375 79.9749984741211 456.0
v 1900.0250244140625 79.97505950927734 456.00006103515625
v 1900.0250244140625 140.02499389648438 451.0000305175781
v 749.9749755859375 79.9749984741211 450.9999694824219
v 749.9749755859375 140.02493286132812 450.9999694824219
v 1900.0250244140625 79.97505950927734 451.0000305175781
v 1900.0250244140625 140.0 456.0250549316406
v 749.9749755859375 139.99993896484375 450.9749755859375
v 749.9749755859375 139.99993896484375 456.0249938964844
v 1900.0250244140625 140.0 450.97503662109375
v 1900.0250244140625 80.00006103515625 456.0250549316406
v 749.9749755859375 80.0 456.0249938964844
v 749.9749755859375 80.0 450.9749755859375
v 1900.0250244140625 80.00006103515625 450.97503662109375
v 1900.0250244140625 80.02506256103516 432.0000305175781
v 749.9749755859375 80.0250015258789 431.9999694824219
v 749.9749755859375 19.975000381469727 432.0
v 1900.0250244140625 19.975061416625977 432.00006103515625
v 1900.0250244140625 80.02506256103516 427.00006103515625
v 749.9749755859375 19.975000381469727 427.0000305175781
v 749.9749755859375 80.0250015258789 427.0
v 1900.0250244140625 19.975061416625977 427.0000915527344
v 1900.0250244140625 80.00006103515625 432.0250244140625
v 749.9749755859375 80.0 426.9750061035156
v 749.9749755859375 80.0 432.02496337890625
v 1900.0250244140625 80.00006103515625 426.9750671386719
v 1900.0250244140625 20.00006103515625 432.0250549316406
v 749.9749755859375 20.0 432.0249938964844
v 749.9749755859375 20.0 426.97503662109375
v 1900.0250244140625 20.00006103515625 426.97509765625
v 1900.0250244140625 20.025060653686523 408.0000915527344
v 749.9749755859375 20.024999618530273 408.0000305175781
v 749.9749755859375 -40.024940490722656 408.0000305175781
v 1900.0250244140625 -40.024879455566406 408.0000915527344
v 1900.0250244140625 20.025060653686523 403.00006103515625
v 749.9749755859375 -40.024940490722656 403.0
v 749.9749755859375 20.024999618530273 403.0
v 1900.0250244140625 -40.024879455566406 403.00006103515625
v 1900.0250244140625 20.00006103515625 408.02508544921875
v 749.9749755859375 20.0 402.9750061035156
v 749.9749755859375 20.0 408.0250244140625
v 1900.0250244140625 20.00006103515625 402.9750671386719
v 1900.0250244140625 -39.9998779296875 408.02508544921875
v 749.9749755859375 -39.99993896484375 408.0250244140625
v 749.9749755859375 -39.99993896484375 402.9750061035156
v 1900.0250244140625 -39.9998779296875 402.9750671386719
v 1900.0250244140625 -39.974876403808594 384.0000915527344
v 749.9749755859375 -39.974937438964844 384.0000305175781
v 749.9749755859375 -100.0250015258789 384.0000305175781
v 1900.0250244140625 -100.02494049072266 384.0000915527344
v 1900.0250244140625 -39.974876403808594 379.0000915527344
v 749.9749755859375 -100.0250015258789 379.0000305175781
v 749.9749755859375 -39.974937438964844 379.0000305175781
v 1900.0250244140625 -100.02494049072266 379.0000915527344
v 1900.0250244140625 -39.9998779296875 384.02508544921875
v 749.9749755859375 -39.99993896484375 378.97503662109375
v 749.9749755859375 -39.99993896484375 384.0250244140625
v 1900.0250244140625 -39.9998779296875 378.97509765625
v 1900.0250244140625 -99.99993896484375 384.02508544921875
v 749.9749755859375 -100.0 384.0250244140625
v 749.9749755859375 -100.0 378.97503662109375
v 1900.0250244140625 -99.99993896484375 378.97509765625
v 1900.0 -100.02494049072266 384.02508544921875
v 1900.0 -100.02494049072266 378.97509765625
v 1900.0 -39.974876403808594 384.02508544921875
v 1900.0 -39.974876403808594 378.97509765625
v 750.0 -100.0250015258789 384.0250244140625
v 750.0 -39.974937438964844 384.0250244140625
v 750.0 -100.0250015258789 378.97503662109375
v 750.0 -39.974937438964844 378.97503662109375
v 1900.0 -40.024879455566406 408.02508544921875
v 1900.0 -40.024879455566406 402.9750671386719
v 1900.0 20.025060653686523 408.02508544921875
v 1900.0 20.025060653686523 402.9750671386719
v 750.0 -40.024940490722656 408.0250244140625
v 750.0 20.024999618530273 408.0250244140625
v 750.0 -40.024940490722656 402.9750061035156
v 750.0 20.024999618530273 402.9750061035156
v 1900.0 19.975061416625977 432.0250549316406
v 1900.0 19.975061416625977 426.97509765625
v 1900.0 80.02506256103516 432.0250244140625
v 1900.0 80.02506256103516 426.9750671386719
v 750.0 19.975000381469727 432.0249938964844
v 750.0 80.0250015258789 432.02496337890625
v 750.0 19.975000381469727 426.97503662109375
v 750.0 80.0250015258789 426.9750061035156
v 1900.0 79.97505950927734 456.0250549316406
v 1900.0 79.97505950927734 450.97503662109375
v 1900.0 140.02499389648438 456.0250549316406
v 1900.0 140.02499389648438 450.97503662109375
v 750.0 79.9749984741211 456.0249938964844
v 750.0 140.02493286132812 456.0249938964844
v 750.0 79.9749984741211 450.9749755859375
v 750.0 140.02493286132812 450.9749755859375
v 1900.0 139.97500610351562 480.02508544921875
v 1900.0 139.97500610351562 474.9750671386719
v 1900.0 200.02511596679688 480.02508544921875
v 1900.0 200.02511596679688 474.9750671386719
v 750.0 139.97494506835938 480.0250244140625
v 750.0 200.02499389648438 480.0250244140625
v 750.0 139.97494506835938 474.9750061035156
v 750.0 200.02499389648438 474.9750061035156
v 749.9749755859375 400.0249938964844 480.0
v 749.9749755859375 199.97500610351562 480.0000305175781
v 1900.0250244140625 199.97512817382812 480.0000915527344
v 1900.0250244140625 400.0251159667969 480.00006103515625
v 749.9749755859375 400.0249938964844 460.0
v 1900.0250244140625 199.97512817382812 460.0000915527344
v 749.9749755859375 199.97500610351562 460.0000305175781
v 1900.0250244140625 400.0251159667969 460.00006103515625
v 750.0 400.0249938964844 480.0249938964844
v 750.0 199.97500610351562 459.97503662109375
v 750.0 199.97500610351562 480.0250244140625
v 750.0 400.0249938964844 459.9750061035156
v 1900.0250244140625 200.0001220703125 459.97509765625
v 749.9749755859375 200.0 459.97503662109375
v 1900.0 199.97512817382812 480.02508544921875
v 1900.0 400.0251159667969 459.9750671386719
v 1900.0 400.0251159667969 480.0250549316406
v 1900.0 199.97512817382812 459.97509765625
v 749.9749755859375 400.0 459.9750061035156
v 1900.0250244140625 400.0001220703125 459.9750671386719
v 1224.9749755859375 549.9749755859375 425.0
v 1774.9749755859375 549.9749755859375 425.0000305175781
v 1774.9749755859375 50.025062561035156 425.00006103515625
v 1800.0250244140625 575.0250244140625 425.0000305175781
v 1224.9749755859375 50.025001525878906 425.0000305175781
v 1800.0250244140625 24.975061416625977 425.00006103515625
v 700.0250244140625 50.0 -0.024986885488033295
v -1000.0250244140625 49.9998779296875 -0.025061197578907013
v -61.121192932128906 49.99993896484375 5.024980068206787
v -61.121192932128906 49.99993896484375 259.9749755859375
v -184.57119750976562 49.99993896484375 259.9749755859375
v 700.0250244140625 50.0 400.0249938964844
v -1000.0250854492188 49.99993896484375 400.0249328613281
v -184.57119750976562 49.99993896484375 5.024974346160889
v -1000.0 50.024879455566406 -0.025061199441552162
v -1000.0 -200.02511596679688 -0.02503933757543564
v -1000.0000610351562 50.024940490722656 400.0249328613281
v -1000.0000610351562 -200.02505493164062 400.02496337890625
v -999.9749755859375 -200.0001220703125 -0.02503933571279049
v -1400.0250244140625 -200.0001220703125 -0.02505682408809662
v -1140.1007080078125 -200.0001220703125 5.024954795837402
v -1140.1007080078125 -200.00006103515625 259.9749450683594
v -1263.55078125 -200.0001220703125 259.9749450683594
v -999.9750366210938 -200.00006103515625 400.02496337890625
v -1400.0250244140625 -200.00006103515625 400.0249328613281
v -1263.55078125 -200.0001220703125 5.024949550628662
v -1400.0 -199.97512817382812 -0.025056829676032066
v -1400.0 -1050.025146484375 -0.0249825157225132
v -1400.0 -199.97506713867188 400.0249328613281
v -1400.0 -1050.025146484375 400.0250244140625
v -1400.0250244140625 -1050.0001220703125 -0.02498251385986805
v -43.493064880371094 -1050.0 -0.02492322027683258
v -425.2557678222656 -1050.0001220703125 5.025059700012207
v -1031.1029052734375 -1050.0001220703125 7.037632942199707
v -1031.1029052734375 -1050.0001220703125 337.38763427734375
v -601.2529907226562 -1050.0 337.38763427734375
v -1400.0250244140625 -1050.0001220703125 400.02496337890625
v -43.493064880371094 -1050.0 329.39007568359375
v -195.30575561523438 -1050.0 257.37506103515625
v -195.30575561523438 -1050.0001220703125 5.025069713592529
v 599.1568603515625 -1050.0 329.3901062011719
v -425.2557678222656 -1050.0 257.3750305175781
v -601.2529907226562 -1050.0001220703125 7.037651538848877
v 599.1568603515625 -1050.0 -0.02489512786269188
v 800.0250244140625 -1050.0 -0.024886349216103554
v 800.0250244140625 -1050.0 400.0250549316406
v 800.0 -1050.0250244140625 -0.024886351078748703
v 800.0 -649.9749755859375 -0.024921320378780365
v 800.0 -1050.0250244140625 400.0251159667969
v 800.0 -649.9749755859375 400.0250549316406
v 800.0250244140625 -650.0 -0.024921320378780365
v 699.9749755859375 -650.0 -0.02492569014430046
v 800.0250244140625 -650.0 400.0250549316406
v 699.9749755859375 -650.0 400.0250549316406
v 700.0 -650.0250244140625 -0.02492568828165531
v 700.0 50.025001525878906 -0.024986885488033295
v 700.0 -650.0250244140625 400.0250549316406
v 700.0 50.025001525878906 400.0249938964844
v -184.62118530273438 29.974939346313477 259.9999694824219
v -61.071189880371094 50.024940490722656 259.9999694824219
v -61.071189880371094 29.974939346313477 259.9999694824219
v -184.62118530273438 50.024940490722656 259.9999694824219
v -184.62118530273438 29.974939346313477 4.99997615814209
v -61.071189880371094 29.974939346313477 4.999981880187988
v -61.071189880371094 50.024940490722656 4.9999799728393555
v -184.62118530273438 50.024940490722656 4.999974250793457
v -61.09619140625 29.974939346313477 260.02496337890625
v -61.09619140625 50.024940490722656 4.974979877471924
v -61.09619140625 29.974939346313477 4.974981784820557
v -61.09619140625 50.024940490722656 260.02496337890625
v -184.59619140625 29.974939346313477 260.02496337890625
v -184.59619140625 29.974939346313477 4.974976062774658
v -184.59619140625 50.024940490722656 4.974974155426025
v -184.59619140625 50.024940490722656 260.02496337890625
v -1263.600830078125 -210.02511596679688 259.99993896484375
v -1140.0506591796875 -199.97506713867188 259.99993896484375
v -1140.0506591796875 -210.02505493164062 259.99993896484375
v -1263.600830078125 -199.97512817382812 259.99993896484375
v -1263.600830078125 -210.02511596679688 4.999950408935547
v -1140.0506591796875 -210.02511596679688 4.999955654144287
v -1140.0506591796875 -199.97512817382812 4.999954700469971
v -1263.600830078125 -199.97512817382812 4.9999494552612305
v -1140.07568359375 -210.02505493164062 260.0249328613281
v -1140.07568359375 -199.97512817382812 4.974954605102539
v -1140.07568359375 -210.02511596679688 4.9749555587768555
v -1140.07568359375 -199.97506713867188 260.0249328613281
v -1263.5758056640625 -210.02511596679688 260.0249328613281
v -1263.5758056640625 -210.02511596679688 4.974950313568115
v -1263.5758056640625 -199.97512817382812 4.974949359893799
v -1263.5758056640625 -199.97512817382812 260.0249328613281
v -425.3057556152344 -1029.973876953125 257.4000244140625
v -195.25576782226562 -1029.973876953125 257.4000549316406
v -425.3057556152344 -1050.0250244140625 257.4000244140625
v -195.25576782226562 -1050.0250244140625 257.4000549316406
v -425.3057556152344 -1029.973876953125 5.000057697296143
v -425.3057556152344 -1050.025146484375 5.000059604644775
v -195.25576782226562 -1029.973876953125 5.000067710876465
v -195.25576782226562 -1050.025146484375 5.000069618225098
v -425.28076171875 -1029.973876953125 257.4250183105469
v -425.28076171875 -1050.025146484375 4.975059509277344
v -425.28076171875 -1029.973876953125 4.975057601928711
v -425.28076171875 -1050.0250244140625 257.4250183105469
v -195.28076171875 -1029.973876953125 257.425048828125
v -195.28076171875 -1029.973876953125 4.975067615509033
v -195.28076171875 -1050.025146484375 4.975069522857666
v -195.28076171875 -1050.0250244140625 257.425048828125
v -190.02743530273438 60.028602600097656 5.499973297119141
v -190.02743530273438 19.976160049438477 5.499976634979248
v -49.974998474121094 19.976160049438477 5.499982833862305
v -49.974998474121094 60.028602600097656 5.499979496002197
v -190.02743530273438 60.028602600097656 -4.500026702880859
v -49.974998474121094 19.976160049438477 -4.500017166137695
v -190.02743530273438 19.976160049438477 -4.500023365020752
v -49.974998474121094 60.028602600097656 -4.500020503997803
v -190.00244140625 60.028602600097656 5.524973392486572
v -190.00244140625 19.976160049438477 -4.525023460388184
v -190.00244140625 19.976160049438477 5.52497673034668
v -190.00244140625 60.028602600097656 -4.525026798248291
v -190.02743530273438 20.00115966796875 5.52497673034668
v -49.974998474121094 20.00115966796875 -4.525017261505127
v -49.974998474121094 20.00115966796875 5.524982929229736
v -190.02743530273438 20.00115966796875 -4.525023460388184
v -50.0 19.976160049438477 5.524982929229736
v -50.0 60.028602600097656 -4.525020599365234
v -50.0 60.028602600097656 5.524979591369629
v -50.0 19.976160049438477 -4.525017261505127
v -49.974998474121094 60.00360107421875 5.524979591369629
v -190.02743530273438 60.00360107421875 -4.525026798248291
v -190.02743530273438 60.00360107421875 5.524973392486572
v -49.974998474121094 60.00360107421875 -4.525020599365234
v -436.4873962402344 -1019.964111328125 5.500056743621826
v -436.4873962402344 -1060.010498046875 5.500060081481934
v -186.43740844726562 -1060.010498046875 5.500071048736572
v -186.43740844726562 -1019.964111328125 5.500067710876465
v -436.4873962402344 -1019.964111328125 -4.499943256378174
v -186.43740844726562 -1060.010498046875 -4.499928951263428
v -436.4873962402344 -1060.010498046875 -4.499939918518066
v -186.43740844726562 -1019.964111328125 -4.499932289123535
v -436.4873962402344 -1059.9854736328125 5.525060176849365
v -186.43740844726562 -1059.9854736328125 -4.524929046630859
v -186.43740844726562 -1059.9854736328125 5.525071144104004
v -436.4873962402344 -1059.9854736328125 -4.524940013885498
v -186.46240234375 -1060.010498046875 5.525071144104004
v -186.46240234375 -1019.964111328125 -4.524932384490967
v -186.46240234375 -1019.964111328125 5.5250678062438965
v -186.46240234375 -1060.010498046875 -4.524929046630859
v -186.43740844726562 -1019.9891357421875 5.5250678062438965
v -436.4873962402344 -1019.9891357421875 -4.5249433517456055
v -436.4873962402344 -1019.9891357421875 5.525056838989258
v -186.43740844726562 -1019.9891357421875 -4.524932384490967
v -436.46240234375 -1019.964111328125 5.525056838989258
v -436.46240234375 -1060.010498046875 -4.524940013885498
v -436.46240234375 -1060.010498046875 5.525060176849365
v -436.46240234375 -1019.964111328125 -4.5249433517456055
v -1000.0250854492188 -49.975059509277344 399.9999694824219
v -1000.0250854492188 -199.97506713867188 399.9999694824219
v 700.0250244140625 -49.974998474121094 400.0000305175781
v -1400.0250244140625 -199.97506713867188 399.99993896484375
v -1400.0250244140625 -1050.025146484375 400.0000305175781
v 800.0250244140625 -1050.0250244140625 400.0001220703125
v 800.0250244140625 -649.9749755859375 400.00006103515625
v 700.0250244140625 -649.9749755859375 400.00006103515625
v 699.9749755859375 -0.02500000037252903 400.0000305175781
v 750.0250244140625 600.0250244140625 399.9999694824219
v 750.0250244140625 -0.02500000037252903 400.0000305175781
v 700.0250244140625 600.0250244140625 399.9999694824219
v -1000.0250854492188 49.974937438964844 399.99993896484375
v 700.0250244140625 650.0250244140625 399.9999694824219
v -1000.025146484375 650.02490234375 399.9999084472656
v -600.0001220703125 1650.02490234375 -0.02518358826637268
v -600.0001220703125 1448.61376953125 -0.0251659844070673
v -600.0001220703125 1448.61376953125 259.684814453125
v -600.0001220703125 1325.1318359375 259.6848449707031
v -600.0001220703125 1650.02490234375 400.0248107910156
v -600.0001220703125 1325.1318359375 -0.025155184790492058
v -600.0000610351562 1149.974853515625 -0.02513987012207508
v -600.0000610351562 1149.9749755859375 400.02484130859375
v -599.9750366210938 1149.9998779296875 -0.025139877572655678
v -1000.025146484375 1149.9998779296875 -0.02515736222267151
v -599.9750366210938 1150.0 400.02484130859375
v -1000.025146484375 1149.9998779296875 400.02484130859375
v -1000.0001220703125 1150.02490234375 -0.02515736222267151
v -1000.0000610351562 549.974853515625 -0.025104908272624016
v -1000.0001220703125 1150.02490234375 400.02484130859375
v -1000.0001220703125 549.974853515625 400.02490234375
v -1000.0250854492188 549.9998779296875 -0.025104910135269165
v 700.0250244140625 550.0 -0.025030596181750298
v -470.6781921386719 549.9998779296875 5.024918079376221
v -470.6781921386719 550.0 259.97491455078125
v -347.2282409667969 550.0 259.9749450683594
v -1000.025146484375 549.9998779296875 400.02490234375
v 700.0250244140625 550.0 400.02496337890625
v -347.2282409667969 549.9998779296875 5.024923801422119
v 700.0 549.9749755859375 -0.02503059431910515
v 700.0 1250.02490234375 -0.025091804563999176
v 700.0 549.9749755859375 400.02496337890625
v 700.0 1250.025146484375 400.02490234375
v 699.9749755859375 1249.9998779296875 -0.02509179338812828
v 800.0250244140625 1249.9998779296875 -0.025087423622608185
v 699.9749755859375 1250.0001220703125 400.02490234375
v 800.0250244140625 1250.0001220703125 400.02490234375
v 800.0 1249.974853515625 -0.02508740872144699
v 800.0 1650.02490234375 -0.02512240782380104
v 800.0 1249.97509765625 400.02490234375
v 800.0 1650.025146484375 400.0248718261719
v -470.7281799316406 570.0250244140625 259.9999084472656
v -347.1782531738281 570.0250244140625 259.99993896484375
v -470.7281799316406 549.9749755859375 259.9999084472656
v -347.1782531738281 549.9749755859375 259.99993896484375
v -470.7281799316406 570.02490234375 4.9999165534973145
v -470.7281799316406 549.974853515625 4.999917984008789
v -347.1782531738281 570.02490234375 4.999922275543213
v -347.1782531738281 549.974853515625 4.9999237060546875
v -470.70318603515625 570.0250244140625 260.02490234375
v -470.70318603515625 549.974853515625 4.974917888641357
v -470.70318603515625 570.02490234375 4.974916458129883
v -470.70318603515625 549.9749755859375 260.02490234375
v -347.2032470703125 570.0250244140625 260.0249328613281
v -347.2032470703125 570.02490234375 4.974922180175781
v -347.2032470703125 549.974853515625 4.974923610687256
v -347.2032470703125 549.9749755859375 260.0249328613281
v -339.9775695800781 580.023681640625 5.4999213218688965
v -480.0299377441406 580.023681640625 5.49991512298584
v -339.9774475097656 539.977294921875 5.499924659729004
v -480.0299377441406 539.977294921875 5.499918460845947
v -339.9775695800781 580.023681640625 -4.5000786781311035
v -339.9774475097656 539.977294921875 -4.500075340270996
v -480.0299377441406 580.023681640625 -4.50008487701416
v -480.0299377441406 539.977294921875 -4.500081539154053
v -340.00244140625 539.977294921875 5.5249247550964355
v -340.0025634765625 580.023681640625 -4.525078773498535
v -340.0025634765625 580.023681640625 5.524921417236328
v -340.00244140625 539.977294921875 -4.525075435638428
v -339.9775695800781 579.9986572265625 5.524921417236328
v -480.0299377441406 579.9986572265625 -4.525084972381592
v -480.0299377441406 579.9986572265625 5.5249152183532715
v -339.9775695800781 579.9986572265625 -4.525078773498535
v -480.00494384765625 580.023681640625 5.5249152183532715
v -480.00494384765625 539.977294921875 -4.525081634521484
v -480.00494384765625 539.977294921875 5.524918556213379
v -480.00494384765625 580.023681640625 -4.525084972381592
v -480.0299377441406 540.0023193359375 5.524918556213379
v -339.9774475097656 540.0023193359375 -4.525075435638428
v -339.9774475097656 540.0023193359375 5.5249247550964355
v -480.0299377441406 540.0023193359375 -4.525081634521484
v 500.0 49.974937438964844 -0.024995625019073486
v 500.0 150.02493286132812 -0.025004375725984573
v 500.0 49.974998474121094 400.0249938964844
v 500.0 150.02499389648438 400.0249938964844
v 500.0249938964844 149.99993896484375 -0.025004372000694275
v 399.9750061035156 149.99993896484375 -0.02500874176621437
v 500.0249938964844 150.0 400.0249938964844
v 399.9750061035156 150.0 400.0249938964844
v 400.0 150.02493286132812 -0.02500874549150467
v 400.0 49.974937438964844 -0.02499999664723873
v 400.0 150.02499389648438 400.0249938964844
v 400.0 49.974998474121094 400.0249938964844
v 399.9750061035156 49.974998474121094 400.0
v 500.0249938964844 49.974998474121094 400.0
v 500.0249938964844 150.02499389648438 400.0
v 399.9750061035156 150.02499389648438 400.0
v 399.9998779296875 550.0250244140625 -0.025043711066246033
v 400.0 449.9750061035156 -0.025034969672560692
v 399.9998779296875 550.0250244140625 400.02496337890625
v 400.0 449.9750061035156 400.02496337890625
v 399.9750061035156 450.0 -0.025034969672560692
v 500.0249938964844 450.0 -0.025030598044395447
v 399.9750061035156 450.0 400.02496337890625
v 500.0249938964844 450.0 400.02496337890625
v 500.0 449.9750061035156 -0.025030598044395447
v 499.9998779296875 550.0250244140625 -0.025039341300725937
v 500.0 449.9750061035156 400.02496337890625
v 499.9998779296875 550.0250244140625 400.02496337890625
v 399.9748840332031 550.0250244140625 399.9999694824219
v 399.9750061035156 449.9750061035156 399.9999694824219
v 500.0248718261719 550.0250244140625 399.9999694824219
v 500.0249938964844 449.9750061035156 399.9999694824219
v 1650.0 -950.0250244140625 -0.024857938289642334
v 1650.0 -699.9749755859375 -0.02487979456782341
v 1650.0 -950.0250244140625 75.02513885498047
v 1650.0 -699.9749755859375 75.02511596679688
v 1650.0240478515625 -699.9932861328125 -0.02487979270517826
v 1543.84765625 -729.4921875 -0.04988185316324234
v 1650.0240478515625 -699.9932861328125 75.02511596679688
v 1543.84765625 -729.4921875 75.05010986328125
v 1287.01171875 -722.8515625 -0.049893662333488464
v 1287.01171875 -722.8515625 75.05010986328125
v 1094.64111328125 -637.3779296875 -0.04990953952074051
v 1094.64111328125 -637.3779296875 75.05009460449219
v 985.2030639648438 -531.1019287109375 -0.024923624470829964
v 985.2030639648438 -531.1019287109375 75.02507781982422
v 874.12109375 -283.0078125 -0.049950167536735535
v 874.12109375 -283.0078125 75.05005645751953
v 849.9974365234375 -49.97513198852539 -0.02497158572077751
v 849.9974365234375 -49.97513198852539 75.02503204345703
v 850.0250244140625 -50.0 -0.024971583858132362
v 699.9749755859375 -50.0 -0.024978140369057655
v 850.0250244140625 -50.0 75.02503204345703
v 699.9749755859375 -50.0 75.0250244140625
v 699.9749755859375 -49.974998474121094 75.0000228881836
v 699.9749755859375 -650.0250244140625 75.00007629394531
v 799.9749755859375 -650.0250244140625 75.00008392333984
v 799.9749755859375 -950.0250244140625 75.00010681152344
v 850.0248413085938 -49.97242736816406 75.00003051757812
v 1650.0250244140625 -950.0250244140625 75.00013732910156
v 1650.018310546875 -699.9758911132812 75.00011444091797
v 1543.841552734375 -729.443115234375 75.0001220703125
v 874.1687622070312 -282.9950256347656 75.00005340576172
v 1287.0224609375 -722.8037109375 75.00010681152344
v 985.2330932617188 -531.0509643554688 75.00007629394531
v 1094.668701171875 -637.337158203125 75.00009155273438
v 699.9749755859375 -650.0 74.9750747680664
v 800.0250244140625 -650.0 74.97508239746094
v 800.0250244140625 -650.0 85.02508544921875
v 699.9749755859375 -650.0 85.02507781982422
v 719.9749755859375 -630.0 74.97506713867188
v 719.9749755859375 -630.0 85.02507019042969
v 820.0250244140625 -630.0 85.02507781982422
v 820.0250244140625 -630.0 74.9750747680664
v 800.0 -649.9749755859375 74.97508239746094
v 800.0 -950.0250244140625 74.97510528564453
v 800.0 -950.0250244140625 85.02510833740234
v 800.0 -649.9749755859375 85.02508544921875
v 820.0 -629.9749755859375 74.9750747680664
v 820.0 -629.9749755859375 85.02507781982422
v 820.0 -930.0250244140625 85.02510833740234
v 820.0 -930.0250244140625 74.97510528564453
v 799.9749755859375 -950.0 74.97510528564453
v 1650.0250244140625 -950.0 74.97513580322266
v 1650.0250244140625 -950.0 85.02513885498047
v 799.9749755859375 -950.0 85.02510833740234
v 819.9749755859375 -930.0 74.97510528564453
v 819.9749755859375 -930.0 85.02510833740234
v 1630.0250244140625 -930.0 85.02513885498047
v 1630.0250244140625 -930.0 74.97513580322266
v 1650.0 -950.0250244140625 74.97513580322266
v 1650.0 -699.9749755859375 74.97511291503906
v 1650.0 -699.9749755859375 85.02511596679688
v 1650.0 -950.0250244140625 85.02513885498047
v 1630.0 -930.0250244140625 74.97513580322266
v 1630.0 -930.0250244140625 85.02513885498047
v 1630.0 -726.2890625 85.0251235961914
v 1630.0 -726.2890625 74.9751205444336
v 1650.0240478515625 -699.9932861328125 74.97511291503906
v 1543.84765625 -729.4921875 74.95011901855469
v 1543.84765625 -729.4921875 85.05012512207031
v 1650.0240478515625 -699.9932861328125 85.02511596679688
v 1630.0240478515625 -726.307373046875 74.9751205444336
v 1630.0240478515625 -726.307373046875 85.0251235961914
v 1546.320068359375 -749.5628051757812 85.05012512207031
v 1546.320068359375 -749.5628051757812 74.95011901855469
v 1287.01171875 -722.8515625 74.95010375976562
v 1287.01171875 -722.8515625 85.05010986328125
v 1282.5224609375 -742.7421875 85.05010986328125
v 1282.5224609375 -742.7421875 74.95010375976562
v 1094.64111328125 -637.3779296875 74.95008850097656
v 1094.64111328125 -637.3779296875 85.05009460449219
v 1083.263427734375 -654.2079467773438 85.05009460449219
v 1083.263427734375 -654.2079467773438 74.95008850097656
v 985.2030639648438 -531.1019287109375 74.9750747680664
v 985.2030639648438 -531.1019287109375 85.02507781982422
v 968.4886474609375 -542.7360229492188 85.02507781982422
v 968.4886474609375 -542.7360229492188 74.9750747680664
v 874.12109375 -283.0078125 74.9500503540039
v 874.12109375 -283.0078125 85.05005645751953
v 854.557373046875 -288.25543212890625 85.05005645751953
v 854.557373046875 -288.25543212890625 74.9500503540039
v 849.9974365234375 -49.97513198852539 74.97502899169922
v 849.9974365234375 -49.97513198852539 85.02503204345703
v 831.9610595703125 -69.97513580322266 85.02503204345703
v 831.9610595703125 -69.97513580322266 74.97502899169922
v 850.0250244140625 -50.0 74.97502899169922
v 699.9749755859375 -50.0 74.97502136230469
v 699.9749755859375 -50.0 85.0250244140625
v 850.0250244140625 -50.0 85.02503204345703
v 831.9886474609375 -70.0 74.97502899169922
v 831.9886474609375 -70.0 85.02503204345703
v 719.9749755859375 -70.0 85.0250244140625
v 719.9749755859375 -70.0 74.97502136230469
v 700.0 -49.974998474121094 74.97502136230469
v 700.0 -650.0250244140625 74.9750747680664
v 700.0 -650.0250244140625 85.02507781982422
v 700.0 -49.974998474121094 85.0250244140625
v 720.0 -69.9749984741211 74.97502136230469
v 720.0 -69.9749984741211 85.0250244140625
v 720.0 -630.0250244140625 85.02507019042969
v 720.0 -630.0250244140625 74.97506713867188
v 699.9874877929688 -650.0125122070312 85.00007629394531
v 800.0177001953125 -650.0426635742188 85.00008392333984
v 820.0125122070312 -629.9874877929688 85.00007629394531
v 720.0426635742188 -630.0177001953125 85.00006866455078
v 799.9874877929688 -950.0125122070312 85.00010681152344
v 820.0426635742188 -930.0177001953125 85.00010681152344
v 1650.012451171875 -950.0125122070312 85.00013732910156
v 1630.0177001953125 -929.9573364257812 85.00013732910156
v 1650.0091552734375 -699.9879760742188 85.00011444091797
v 1629.955078125 -726.2989501953125 85.0001220703125
v 1543.841552734375 -729.443115234375 85.0001220703125
v 1546.326171875 -749.6118774414062 85.0001220703125
v 1286.988037109375 -722.821044921875 85.00010681152344
v 1282.51708984375 -742.76611328125 85.00010681152344
v 1094.668701171875 -637.337158203125 85.00009155273438
v 1083.23583984375 -654.2487182617188 85.00009155273438
v 985.1959838867188 -531.0407104492188 85.00007629394531
v 968.4864501953125 -542.7675170898438 85.00007629394531
v 874.1687622070312 -282.9950256347656 85.00005340576172
v 854.5097045898438 -288.2682189941406 85.00005340576172
v 850.0185546875 -49.99174118041992 85.00003051757812
v 831.920166015625 -69.98583221435547 85.00003051757812
v 699.9874877929688 -49.98749923706055 85.0000228881836
v 719.9822998046875 -70.04267883300781 85.0000228881836
v 1750.0 549.9749755859375 -0.024984700605273247
v 1750.0 600.0250244140625 -0.024989072233438492
v 1750.0 549.9749755859375 75.02501678466797
v 1750.0 600.0250244140625 75.02500915527344
v 1749.9749755859375 600.0 -0.024989072233438492
v 1800.0250244140625 600.0 -0.024986887350678444
v 1749.9749755859375 600.0 75.02500915527344
v 1800.0250244140625 600.0 75.02500915527344
v 1800.0 599.9749755859375 -0.024986887350678444
v 1800.0 800.0250244140625 -0.025004372000694275
v 1800.0 599.9749755859375 75.02500915527344
v 1800.0 800.0250244140625 75.02499389648438
v 1800.018798828125 799.9835205078125 -0.025004372000694275
v 1725.0 865.625 -0.050013381987810135
v 1800.018798828125 799.9835205078125 75.02497863769531
v 1725.0 865.625 75.04998779296875
v 1575.0 940.625 -0.05002649873495102
v 1575.0 940.625 75.04997253417969
v 1425.0 940.625 -0.05003305524587631
v 1425.0 940.625 75.04996490478516
v 1275.0 865.625 -0.05003305524587631
v 1275.0 865.625 75.0499496459961
v 1199.981201171875 799.9835205078125 -0.02503059431910515
v 1199.981201171875 799.9835205078125 75.02495574951172
v 1200.0 800.0250244140625 -0.025030598044395447
v 1200.0 599.9749755859375 -0.025013113394379616
v 1200.0 800.0250244140625 75.02497100830078
v 1200.0 599.9749755859375 75.02498626708984
v 1199.9749755859375 600.0 -0.025013113394379616
v 1250.0250244140625 600.0 -0.025010928511619568
v 1199.9749755859375 600.0 75.02498626708984
v 1250.0250244140625 600.0 75.02498626708984
v 1250.0 600.0250244140625 -0.025010928511619568
v 1250.0 549.9749755859375 -0.025006556883454323
v 1250.0 600.0250244140625 75.02498626708984
v 1250.0 549.9749755859375 75.02499389648438
v 1249.9749755859375 550.0 -0.025006555020809174
v 1750.0250244140625 550.0 -0.024984698742628098
v 1249.9749755859375 550.0 75.02499389648438
v 1750.0250244140625 550.0 75.02501678466797
v 1750.0250244140625 549.9749755859375 75.00001525878906
v 1750.0250244140625 599.9749755859375 75.00000762939453
v 1725.027587890625 865.6661987304688 74.99998474121094
v 1575.01123046875 940.67236328125 74.99996948242188
v 1424.98876953125 940.67236328125 74.99996185302734
v 1274.972412109375 865.6661987304688 74.99996185302734
v 1249.9749755859375 549.9749755859375 74.99999237060547
v 1800.0250244140625 599.9749755859375 75.00000762939453
v 1800.04150390625 800.018798828125 74.99999237060547
v 1199.95849609375 800.018798828125 74.99996948242188
v 1199.9749755859375 599.9749755859375 74.99998474121094
v 1249.9749755859375 599.9749755859375 74.99998474121094
v 1750.0 549.9749755859375 74.97501373291016
v 1750.0 600.0250244140625 74.97500610351562
v 1750.0 600.0250244140625 85.02500915527344
v 1750.0 549.9749755859375 85.02501678466797
v 1730.0 569.9749755859375 74.97501373291016
v 1730.0 569.9749755859375 85.02501678466797
v 1730.0 620.0250244140625 85.02500915527344
v 1730.0 620.0250244140625 74.97500610351562
v 1749.9749755859375 600.0 74.97500610351562
v 1800.0250244140625 600.0 74.97500610351562
v 1800.0250244140625 600.0 85.02500915527344
v 1749.9749755859375 600.0 85.02500915527344
v 1729.9749755859375 620.0 74.97500610351562
v 1729.9749755859375 620.0 85.02500915527344
v 1780.0250244140625 620.0 85.02500915527344
v 1780.0250244140625 620.0 74.97500610351562
v 1800.0 599.9749755859375 74.97500610351562
v 1800.0 800.0250244140625 74.97499084472656
v 1800.0 800.0250244140625 85.02499389648438
v 1800.0 599.9749755859375 85.02500915527344
v 1780.0 619.9749755859375 74.97500610351562
v 1780.0 619.9749755859375 85.02500915527344
v 1780.0 790.94970703125 85.02499389648438
v 1780.0 790.94970703125 74.97499084472656
v 1800.018798828125 799.9835205078125 74.97499084472656
v 1725.0 865.625 74.94998168945312
v 1725.0 865.625 85.04998779296875
v 1800.018798828125 799.9835205078125 85.02499389648438
v 1780.018798828125 790.908203125 74.97499084472656
v 1780.018798828125 790.908203125 85.02499389648438
v 1713.7607421875 848.8837890625 85.04999542236328
v 1713.7607421875 848.8837890625 74.94998931884766
v 1575.0 940.625 74.94996643066406
v 1575.0 940.625 85.04997253417969
v 1570.278564453125 920.6248779296875 85.04998016357422
v 1570.278564453125 920.6248779296875 74.9499740600586
v 1425.0 940.625 74.94995880126953
v 1425.0 940.625 85.04996490478516
v 1429.721435546875 920.6248779296875 85.04997253417969
v 1429.721435546875 920.6248779296875 74.94996643066406
v 1275.0 865.625 74.94995880126953
v 1275.0 865.625 85.04996490478516
v 1286.2392578125 848.8837890625 85.04997253417969
v 1286.2392578125 848.8837890625 74.94996643066406
v 1199.981201171875 799.9835205078125 74.97496795654297
v 1199.981201171875 799.9835205078125 85.02497100830078
v 1219.981201171875 790.908203125 85.02497100830078
v 1219.981201171875 790.908203125 74.97496795654297
v 1200.0 800.0250244140625 74.97496795654297
v 1200.0 599.9749755859375 74.97498321533203
v 1200.0 599.9749755859375 85.02498626708984
v 1200.0 800.0250244140625 85.02497100830078
v 1220.0 790.94970703125 74.97496795654297
v 1220.0 790.94970703125 85.02497100830078
v 1220.0 619.9749755859375 85.02498626708984
v 1220.0 619.9749755859375 74.97498321533203
v 1199.9749755859375 600.0 74.97498321533203
v 1250.0250244140625 600.0 74.97498321533203
v 1250.0250244140625 600.0 85.02498626708984
v 1199.9749755859375 600.0 85.02498626708984
v 1219.9749755859375 620.0 74.97498321533203
v 1219.9749755859375 620.0 85.02498626708984
v 1270.0250244140625 620.0 85.02498626708984
v 1270.0250244140625 620.0 74.97498321533203
v 1250.0 600.0250244140625 74.97498321533203
v 1250.0 549.9749755859375 74.97499084472656
v 1250.0 549.9749755859375 85.02499389648438
v 1250.0 600.0250244140625 85.02498626708984
v 1270.0 620.0250244140625 74.97498321533203
v 1270.0 620.0250244140625 85.02498626708984
v 1270.0 569.9749755859375 85.02499389648438
v 1270.0 569.9749755859375 74.97499084472656
v 1249.9749755859375 550.0 74.97499084472656
v 1750.0250244140625 550.0 74.97501373291016
v 1750.0250244140625 550.0 85.02501678466797
v 1249.9749755859375 550.0 85.02499389648438
v 1269.9749755859375 570.0 74.97499084472656
v 1269.9749755859375 570.0 85.02499389648438
v 1730.0250244140625 570.0 85.02501678466797
v 1730.0250244140625 570.0 74.97501373291016
v 1750.0250244140625 549.9749755859375 85.00001525878906
v 1750.0250244140625 599.9749755859375 85.00000762939453
v 1729.9749755859375 620.0250244140625 85.00000762939453
v 1729.9749755859375 570.0250244140625 85.00001525878906
v 1800.0250244140625 599.9749755859375 85.00000762939453
v 1779.9749755859375 620.0250244140625 85.00000762939453
v 1800.04150390625 800.018798828125 84.99999237060547
v 1779.95849609375 790.9058837890625 84.99999237060547
v 1725.027587890625 865.6661987304688 84.99998474121094
v 1713.733154296875 848.8425903320312 84.99999237060547
v 1575.01123046875 940.67236328125 84.99996948242188
v 1570.267333984375 920.5775146484375 84.9999771118164
v 1424.98876953125 940.67236328125 84.99996185302734
v 1429.732666015625 920.5775146484375 84.99996948242188
v 1274.972412109375 865.6661987304688 84.99996185302734
v 1286.266845703125 848.8425903320312 84.99996948242188
v 1199.95849609375 800.018798828125 84.99996948242188
v 1220.04150390625 790.9058837890625 84.99996948242188
v 1199.9749755859375 599.9749755859375 84.99998474121094
v 1220.0250244140625 620.0250244140625 84.99998474121094
v 1249.9749755859375 599.9749755859375 84.99998474121094
v 1270.0250244140625 620.0250244140625 84.99998474121094
v 1249.9749755859375 549.9749755859375 84.99999237060547
v 1270.0250244140625 570.0250244140625 84.99999237060547
v 799.97998046875 -1049.9849853515625 -0.024886349216103554
v 1600.020263671875 -1650.01513671875 -0.0247989259660244
v 799.97998046875 -1049.9849853515625 75.02511596679688
v 1600.020263671875 -1650.01513671875 75.02519989013672
v 1599.9749755859375 -1650.0 -0.02479892410337925
v 1750.0250244140625 -1650.0 -0.024792367592453957
v 1599.9749755859375 -1650.0 75.02519989013672
v 1750.0250244140625 -1650.0 75.02520751953125
v 1750.0 -1650.0250244140625 -0.024792369455099106
v 1750.0 -999.9749755859375 -0.024849195033311844
v 1750.0 -1650.0250244140625 75.02520751953125
v 1750.0 -999.9749755859375 75.02515411376953
v 799.9749755859375 -999.9749755859375 75.00011444091797
v 799.9600219726562 -1050.02001953125 75.00011444091797
v 1599.9849853515625 -1650.0450439453125 75.00019836425781
v 1750.0250244140625 -999.9749755859375 75.00015258789062
v 1750.0250244140625 -1650.0250244140625 75.00020599365234
v 800.0 -999.9749755859375 74.97511291503906
v 800.0 -1050.0250244140625 74.97511291503906
v 800.0 -1050.0250244140625 85.02511596679688
v 800.0 -999.9749755859375 85.02511596679688
v 820.0 -1019.9749755859375 74.97511291503906
v 820.0 -1019.9749755859375 85.02511596679688
v 820.0 -1040.0250244140625 85.02511596679688
v 820.0 -1040.0250244140625 74.97511291503906
v 799.97998046875 -1049.9849853515625 74.97511291503906
v 1600.02001953125 -1650.0150146484375 74.9751968383789
v 1600.02001953125 -1650.0150146484375 85.02519989013672
v 799.97998046875 -1049.9849853515625 85.02511596679688
v 819.97998046875 -1039.9849853515625 74.97511291503906
v 819.97998046875 -1039.9849853515625 85.02511596679688
v 1606.6865234375 -1630.0150146484375 85.02519989013672
v 1606.6865234375 -1630.0150146484375 74.9751968383789
v 1599.9749755859375 -1650.0 74.9751968383789
v 1750.0250244140625 -1650.0 74.97520446777344
v 1750.0250244140625 -1650.0 85.02520751953125
v 1599.9749755859375 -1650.0 85.02519989013672
v 1606.6414794921875 -1630.0 74.9751968383789
v 1606.6414794921875 -1630.0 85.02519989013672
v 1730.0250244140625 -1630.0 85.02520751953125
v 1730.0250244140625 -1630.0 74.97520446777344
v 1750.0 -1650.0250244140625 74.97520446777344
v 1750.0 -999.9749755859375 74.97515106201172
v 1750.0 -999.9749755859375 85.02515411376953
v 1750.0 -1650.0250244140625 85.02520751953125
v 1730.0 -1630.0250244140625 74.97520446777344
v 1730.0 -1630.0250244140625 85.02520751953125
v 1730.0 -1019.9749755859375 85.02515411376953
v 1730.0 -1019.9749755859375 74.97515106201172
v 1750.0250244140625 -1000.0 74.97515106201172
v 799.9749755859375 -1000.0 74.97511291503906
v 799.9749755859375 -1000.0 85.02511596679688
v 1750.0250244140625 -1000.0 85.02515411376953
v 1730.0250244140625 -1020.0 74.97515106201172
v 1730.0250244140625 -1020.0 85.02515411376953
v 819.9749755859375 -1020.0 85.02511596679688
v 819.9749755859375 -1020.0 74.97511291503906
v 799.9973754882812 -999.9888305664062 85.00011444091797
v 799.97998046875 -1050.010009765625 85.00011444091797
v 820.0335693359375 -1040.01123046875 85.00011444091797
v 819.9822998046875 -1020.0426635742188 85.00011444091797
v 1599.9925537109375 -1650.0224609375 85.00019836425781
v 1606.7052001953125 -1629.9879150390625 85.00019836425781
v 1750.012451171875 -1650.012451171875 85.00020599365234
v 1730.0177001953125 -1629.957275390625 85.00020599365234
v 1750.012451171875 -999.9874877929688 85.00015258789062
v 1729.957275390625 -1019.9822998046875 85.00015258789062
v 820.0038452148438 -1039.9576416015625 85.00011444091797
v 1606.642822265625 -1629.967041015625 85.00019836425781
v 1729.957275390625 -1630.0177001953125 85.00020599365234
v 1730.0177001953125 -1020.0426635742188 85.00015258789062
v 799.9888305664062 -999.9931030273438 85.00011444091797
v 820.0026245117188 -1040.01123046875 85.00011444091797
v 820.0426635742188 -1019.9822998046875 85.00011444091797
v 720.0426635742188 -69.9823226928711 85.0000228881836
v 719.9822998046875 -629.9573364257812 85.00006866455078
v 799.9573364257812 -649.9822998046875 85.00008392333984
v 819.9822998046875 -929.9573364257812 85.00010681152344
v 1629.957275390625 -930.0177001953125 85.00013732910156
v 1630.026611328125 -726.3533325195312 85.0001220703125
v 1287.0462646484375 -722.834228515625 85.00010681152344
v 985.2300415039062 -531.08935546875 85.00007629394531
v 850.0062866210938 -49.980682373046875 85.00003051757812
v 831.982177734375 -70.04174041748047 85.00003051757812
v 985.1749267578125 -531.0617065429688 74.9750747680664
v 985.1749267578125 -531.0617065429688 85.02507781982422
v 985.1749267578125 -531.0617065429688 -0.024923618882894516
v 985.1749267578125 -531.0617065429688 75.02507781982422
v 968.5167846679688 -542.7762451171875 74.9750747680664
v 968.5167846679688 -542.7762451171875 85.02507781982422
f 54 53 55
f 56 54 55
f 831 833 830
f 831 830 832
f 815 817 814
f 815 814 816
f 811 810 812
f 813 811 812
f 807 806 808
f 809 807 808
f 803 802 804
f 805 803 804
f 796 793 791
f 789 786 790
f 790 786 792
f 791 790 792
f 792 801 791
f 791 801 796
f 796 801 800
f 800 799 796
f 787 786 788
f 788 795 787
f 795 793 787
f 794 793 795
f 794 797 793
f 793 797 791
f 797 798 791
f 798 797 788
f 789 798 788
f 788 786 789
f 827 826 828
f 828 826 829
f 825 822 823
f 823 822 824
f 819 818 820
f 818 821 820
f 1377 1376 1378
f 1378 1376 1379
f 1373 1372 1374
f 1374 1372 1375
f 1369 1368 1370
f 1370 1368 1371
f 1365 1364 1366
f 1366 1364 1367
f 1361 1360 1362
f 1362 1360 1363
f 1357 1356 1358
f 1358 1356 1359
f 1353 1352 1354
f 1354 1352 1355
f 1349 1348 1350
f 1350 1348 1351
f 1345 1344 1346
f 1346 1344 1347
f 1341 1340 1342
f 1342 1340 1343
f 1321 1319 1322
f 1302 1321 1322
f 1299 1321 1302
f 1301 1299 1302
f 1300 1299 1301
f 1304 1300 1301
f 1303 1300 1304
f 1306 1303 1304
f 1305 1303 1306
f 1308 1305 1306
f 1307 1305 1308
f 1310 1307 1308
f 1309 1307 1310
f 1312 1309 1310
f 1311 1309 1312
f 1314 1311 1312
f 1313 1311 1314
f 1316 1313 1314
f 1315 1313 1316
f 1318 1315 1316
f 1317 1315 1318
f 1320 1317 1318
f 1319 1317 1320
f 1322 1319 1320
f 38 37 39
f 40 38 39
f 34 33 35
f 36 34 35
f 26 25 27
f 28 26 27
f 22 21 23
f 24 22 23
f 18 17 19
f 20 18 19
f 10 9 11
f 12 10 11
f 6 5 7
f 8 6 7
f 2 1 3
f 4 2 3
f 1381 1380 1382
f 1385 1381 1390
f 1384 1381 1385
f 1387 1384 1391
f 1386 1384 1387
f 1389 1386 1392
f 1388 1386 1389
f 1383 1388 1393
f 1394 1388 1383
f 1395 1394 1396
f 1296 1295 1297
f 1297 1295 1298
f 1292 1291 1293
f 1293 1291 1294
f 1288 1287 1289
f 1289 1287 1290
f 1284 1283 1285
f 1285 1283 1286
f 1280 1279 1281
f 1281 1279 1282
f 1276 1275 1277
f 1277 1275 1278
f 1272 1271 1273
f 1273 1271 1274
f 1268 1267 1269
f 1269 1267 1270
f 1248 1247 1249
f 1249 1247 1250
f 1249 1250 1253
f 1253 1250 1254
f 1253 1254 1257
f 1257 1254 1258
f 1257 1258 1261
f 1261 1258 1262
f 1261 1262 1265
f 1265 1262 1266
f 1240 1239 1241
f 1241 1239 1242
f 1236 1235 1237
f 1237 1235 1238
f 1232 1231 1233
f 1233 1231 1234
f 1228 1227 1229
f 1229 1227 1230
f 1224 1223 1225
f 1225 1223 1226
f 1220 1219 1221
f 1221 1219 1222
f 1165 1163 1166
f 1146 1165 1397
f 1143 1165 1146
f 1145 1143 1398
f 1144 1143 1145
f 1148 1399 1145
f 1147 1399 1148
f 1150 1147 1400
f 1149 1147 1150
f 1152 1149 1401
f 1151 1149 1152
f 1154 1151 1402
f 1153 1151 1154
f 1156 1153 1154
f 1155 1153 1156
f 1158 1403 1156
f 1157 1403 1158
f 1160 1157 1158
f 1159 1157 1160
f 1162 1404 1160
f 1161 1404 1162
f 1164 1161 1162
f 1405 1161 1164
f 1166 1163 1406
f 1332 1331 1333
f 1334 1332 1333
f 1328 1327 1329
f 1330 1328 1329
f 1324 1323 1325
f 1326 1324 1325
f 1263 1259 1264
f 1264 1259 1260
f 1259 1255 1260
f 1260 1255 1256
f 1255 1251 1256
f 1256 1251 1252
f 1251 1244 1252
f 1252 1244 1245
f 1244 1243 1245
f 1245 1243 1246
f 1204 1203 1205
f 1206 1204 1205
f 1200 1199 1201
f 1202 1200 1201
f 1196 1195 1197
f 1198 1196 1197
f 1192 1191 1193
f 1194 1192 1193
f 1176 1175 1177
f 1178 1176 1177
f 1172 1171 1173
f 1174 1172 1173
f 1168 1167 1169
f 1170 1168 1169
f 1052 1051 1053
f 1054 1052 1053
f 1034 1033 1035
f 1036 1034 1035
f 966 965 967
f 968 966 967
f 962 961 963
f 962 963 964
f 958 957 959
f 960 958 959
f 954 953 955
f 956 954 955
f 950 949 951
f 952 950 951
f 942 941 943
f 943 948 942
f 948 947 942
f 945 947 948
f 946 947 945
f 945 944 946
f 944 941 946
f 943 941 944
f 1140 1139 1141
f 1141 1139 1142
f 1136 1135 1137
f 1137 1135 1138
f 1132 1131 1133
f 1133 1131 1134
f 1128 1127 1129
f 1129 1127 1130
f 1096 1095 1097
f 1097 1095 1098
f 1092 1091 1093
f 1093 1091 1094
f 1088 1087 1089
f 1089 1087 1090
f 1084 1083 1085
f 1085 1083 1086
f 1080 1079 1081
f 1081 1079 1082
f 1076 1075 1077
f 1077 1075 1078
f 1072 1071 1073
f 1073 1071 1074
f 1068 1067 1069
f 1069 1067 1070
f 974 973 975
f 975 973 976
f 972 969 970
f 970 969 971
f 926 925 927
f 927 925 929
f 928 927 929
f 929 932 928
f 928 932 931
f 931 930 928
f 938 937 939
f 940 938 939
f 934 933 935
f 936 934 935
f 851 850 852
f 853 851 852
f 847 846 848
f 847 848 849
f 834 837 836
f 835 834 836
f 783 782 784
f 785 783 784
f 775 774 776
f 776 781 775
f 781 780 775
f 778 780 781
f 779 780 778
f 778 777 779
f 777 774 779
f 776 774 777
f 859 858 860
f 860 858 861
f 857 854 855
f 855 854 856
f 843 842 844
f 844 842 845
f 841 838 839
f 839 838 840
f 293 292 294
f 294 292 295
f 289 288 290
f 290 288 291
f 285 284 286
f 286 284 287
f 281 280 282
f 282 280 283
f 277 276 278
f 278 276 279
f 273 272 274
f 274 272 275
f 269 268 270
f 270 268 271
f 265 264 266
f 266 264 267
f 261 260 262
f 262 260 263
f 257 256 258
f 258 256 259
f 162 161 163
f 163 161 164
f 158 157 159
f 159 157 160
f 154 153 155
f 155 153 156
f 150 149 151
f 151 149 152
f 146 145 147
f 147 145 148
f 142 141 143
f 143 141 144
f 138 137 139
f 139 137 140
f 134 133 135
f 135 133 136
f 130 129 131
f 131 129 132
f 126 125 127
f 127 125 128
f 106 105 107
f 107 105 108
f 107 108 111
f 111 108 112
f 111 112 115
f 115 112 116
f 115 116 119
f 119 116 120
f 119 120 123
f 123 120 124
f 98 97 99
f 99 97 100
f 94 93 95
f 95 93 96
f 90 89 91
f 91 89 92
f 86 85 87
f 87 85 88
f 211 213 210
f 210 209 211
f 211 209 212
f 212 214 211
f 771 770 772
f 773 771 772
f 297 296 298
f 301 297 298
f 300 297 301
f 303 300 301
f 302 300 303
f 305 302 303
f 304 302 305
f 299 304 305
f 296 304 299
f 298 296 299
f 1190 1189 1188
f 1189 1187 1188
f 1188 1187 1186
f 1187 1185 1186
f 1186 1185 1184
f 1185 1183 1184
f 1184 1183 1182
f 1183 1180 1182
f 1182 1180 1181
f 1180 1179 1181
f 52 51 50
f 51 49 50
f 50 49 48
f 49 47 48
f 48 47 46
f 47 45 46
f 46 45 44
f 45 42 44
f 44 42 43
f 42 41 43
f 1123 1119 1124
f 1124 1119 1120
f 1119 1115 1120
f 1120 1115 1116
f 1407 1111 1408
f 1408 1111 1112
f 1111 1107 1112
f 1112 1107 1108
f 1107 1100 1108
f 1108 1100 1101
f 1100 1099 1101
f 1101 1099 1102
f 248 247 249
f 250 248 249
f 244 243 245
f 246 244 245
f 240 239 241
f 242 240 241
f 236 235 237
f 238 236 237
f 206 205 207
f 208 206 207
f 202 201 203
f 204 202 203
f 198 197 199
f 200 198 199
f 194 193 195
f 196 194 195
f 190 189 191
f 192 190 191
f 121 117 122
f 122 117 118
f 117 113 118
f 118 113 114
f 113 109 114
f 114 109 110
f 109 102 110
f 110 102 103
f 102 101 103
f 103 101 104
f 70 69 71
f 72 70 71
f 66 65 67
f 68 66 67
f 62 61 63
f 64 62 63
f 58 57 59
f 60 58 59
f 769 768 763
f 764 769 763
f 763 762 764
f 764 762 765
f 765 762 767
f 766 765 767
f 767 768 766
f 766 768 769
f 178 175 176
f 175 173 176
f 176 173 174
f 173 171 174
f 174 171 172
f 171 169 172
f 172 169 170
f 169 166 170
f 170 166 167
f 166 165 167
f 167 165 168
f 165 187 168
f 168 187 188
f 187 185 188
f 188 185 186
f 185 183 186
f 186 183 184
f 183 181 184
f 184 181 182
f 181 179 182
f 182 179 180
f 179 177 180
f 180 177 178
f 177 175 178
f 1050 1049 1048
f 1049 1047 1048
f 1048 1047 1046
f 1047 1045 1046
f 1410 1409 1044
f 1409 1043 1044
f 1044 1043 1042
f 1043 1041 1042
f 1042 1041 1040
f 1041 1038 1040
f 1040 1038 1039
f 1038 1037 1039
f 1104 1103 1105
f 1105 1103 1106
f 1105 1106 1109
f 1109 1106 1110
f 1109 1110 1113
f 1113 1110 1114
f 1113 1114 1117
f 1117 1114 1118
f 1412 1411 1121
f 1121 1411 1122
f 1121 1122 1125
f 1125 1122 1126
f 222 220 221
f 220 219 221
f 914 913 911
f 911 910 912
f 912 917 911
f 911 917 914
f 917 915 914
f 916 915 917
f 30 29 31
f 29 32 31
f 1014 1013 1015
f 1013 1016 1015
f 756 456 757
f 757 456 759
f 758 757 759
f 759 761 758
f 758 761 459
f 459 760 758
f 458 457 455
f 455 459 458
f 456 459 455
f 455 454 456
f 454 452 456
f 453 452 454
f 403 402 404
f 402 405 404
f 383 382 384
f 382 385 384
f 323 322 324
f 322 325 324
f 410 411 412
f 412 413 410
f 410 413 409
f 409 407 410
f 409 406 407
f 407 406 408
f 417 418 413
f 413 419 417
f 417 419 416
f 416 414 417
f 416 409 414
f 414 409 415
f 216 215 217
f 218 216 217
f 14 13 15
f 16 14 15
f 1030 1029 1031
f 1032 1030 1031
f 1026 1025 1027
f 1028 1026 1027
f 1022 1021 1023
f 1024 1022 1023
f 1018 1017 1019
f 1020 1018 1019
f 1010 1009 1011
f 1012 1010 1011
f 1006 1005 1007
f 1008 1006 1007
f 1002 1001 1003
f 1004 1002 1003
f 489 488 490
f 491 489 490
f 485 484 486
f 487 485 486
f 481 480 482
f 483 481 482
f 477 476 478
f 479 477 478
f 473 472 474
f 475 473 474
f 469 468 470
f 471 469 470
f 465 464 466
f 467 465 466
f 461 460 462
f 463 461 462
f 449 448 450
f 451 449 450
f 445 444 446
f 447 445 446
f 441 440 442
f 443 441 442
f 437 436 438
f 439 437 438
f 433 432 434
f 435 433 434
f 429 428 430
f 431 429 430
f 425 424 426
f 427 425 426
f 421 420 422
f 423 421 422
f 399 398 400
f 401 399 400
f 395 394 396
f 397 395 396
f 391 390 392
f 393 391 392
f 387 386 388
f 389 387 388
f 379 378 380
f 381 379 380
f 375 374 376
f 377 375 376
f 371 370 372
f 373 371 372
f 367 366 368
f 369 367 368
f 363 362 364
f 365 363 364
f 359 358 360
f 361 359 360
f 355 354 356
f 357 355 356
f 351 350 352
f 353 351 352
f 347 346 348
f 349 347 348
f 343 342 344
f 345 343 344
f 339 338 340
f 341 339 340
f 335 334 336
f 337 335 336
f 331 330 332
f 333 331 332
f 327 326 328
f 329 327 328
f 319 318 320
f 321 319 320
f 315 314 316
f 317 315 316
f 311 310 312
f 313 311 312
f 307 306 308
f 309 307 308
f 232 231 233
f 234 232 233
f 228 227 229
f 230 228 229
f 224 223 225
f 226 224 225
f 923 924 922
f 923 922 921
f 921 922 411
f 919 921 411
f 919 411 918
f 919 918 920
f 863 862 864
f 862 865 864
f 982 981 983
f 982 983 984
f 978 977 979
f 980 978 979
f 891 893 890
f 891 890 892
f 867 869 866
f 867 866 868
f 873 870 871
f 871 870 872
f 877 874 875
f 875 874 876
f 881 878 879
f 879 878 880
f 885 882 883
f 883 882 884
f 887 886 888
f 886 889 888
f 897 894 895
f 895 894 896
f 901 898 899
f 899 898 900
f 905 902 903
f 903 902 904
f 909 906 907
f 907 906 908
f 988 985 986
f 986 985 987
f 992 989 990
f 990 989 991
f 996 993 994
f 994 993 995
f 1000 997 998
f 998 997 999
f 75 81 80
f 83 82 84
f 84 82 79
f 80 84 79
f 79 75 80
f 78 75 79
f 77 75 78
f 76 75 77
f 75 76 74
f 74 73 75
f 1214 1208 1215
f 1208 1209 1215
f 1208 1207 1209
f 1209 1207 1210
f 1210 1207 1211
f 1211 1207 1212
f 1212 1207 1213
f 1213 1218 1212
f 1218 1216 1212
f 1217 1216 1218
f 1336 1335 1337
f 1337 1335 1338
f 1339 1337 1338
f 1061 1060 1062
f 1062 1060 1064
f 1064 1060 1066
f 1066 1060 1058
f 1065 1066 1058
f 1063 1065 1058
f 1059 1063 1058
f 1058 1057 1059
f 1057 1055 1059
f 1056 1055 1057
f 252 251 253
f 253 251 254
f 254 255 253
f 493 492 494
f 494 492 495
f 737 739 736
f 737 736 738
f 729 728 730
f 729 730 731
f 725 724 726
f 727 725 726
f 721 720 722
f 721 722 723
f 717 716 718
f 719 717 718
f 713 712 714
f 713 714 715
f 709 708 710
f 711 709 710
f 705 704 706
f 705 706 707
f 701 700 702
f 703 701 702
f 697 696 698
f 697 698 699
f 693 692 694
f 695 693 694
f 609 608 610
f 609 610 611
f 605 604 606
f 607 605 606
f 601 600 602
f 601 602 603
f 597 596 598
f 599 597 598
f 593 592 594
f 593 594 595
f 589 588 590
f 591 589 590
f 585 584 586
f 585 586 587
f 581 580 582
f 583 581 582
f 577 576 578
f 577 578 579
f 573 572 574
f 575 573 574
f 505 504 506
f 506 504 507
f 509 508 510
f 510 508 511
f 515 512 513
f 513 512 514
f 519 516 517
f 517 516 518
f 521 520 522
f 522 520 523
f 525 524 526
f 526 524 527
f 531 528 529
f 529 528 530
f 535 532 533
f 533 532 534
f 537 536 538
f 538 536 539
f 541 540 542
f 542 540 543
f 547 544 545
f 545 544 546
f 551 548 549
f 549 548 550
f 553 552 554
f 554 552 555
f 557 556 558
f 558 556 559
f 563 560 561
f 561 560 562
f 567 564 565
f 565 564 566
f 569 568 570
f 570 568 571
f 613 612 614
f 614 612 615
f 619 616 617
f 617 616 618
f 623 620 621
f 621 620 622
f 625 624 626
f 626 624 627
f 629 628 630
f 630 628 631
f 635 632 633
f 633 632 634
f 639 636 637
f 637 636 638
f 641 640 642
f 642 640 643
f 645 644 646
f 646 644 647
f 651 648 649
f 649 648 650
f 655 652 653
f 653 652 654
f 657 656 658
f 658 656 659
f 661 660 662
f 662 660 663
f 667 664 665
f 665 664 666
f 671 668 669
f 669 668 670
f 673 672 674
f 674 672 675
f 677 676 678
f 678 676 679
f 683 680 681
f 681 680 682
f 687 684 685
f 685 684 686
f 689 688 690
f 690 688 691
f 733 732 734
f 732 735 734
f 743 740 741
f 741 740 742
f 747 744 745
f 745 744 746
f 751 748 749
f 749 748 750
f 755 752 753
f 753 752 754
f 499 496 497
f 497 496 498
f 503 500 501
f 501 500 502
