# from FinancialDistrict_Block29_Generic_0013_LOD_0.pskx
v 1733.3126220703125 -1739.5574951171875 -0.024963272735476494
v 1733.659423828125 -1729.363525390625 -0.04996414855122566
v 1733.3126220703125 -1739.5572509765625 2420.025146484375
v 1733.659423828125 -1729.36328125 2420.050048828125
v 1727.483154296875 -1708.529296875 -0.0499662384390831
v 1727.483154296875 -1708.529052734375 2420.050048828125
v 1714.275390625 -1690.01318359375 -0.04996843263506889
v 1714.275390625 -1690.012939453125 2420.05029296875
v 1696.5869140625 -1677.391357421875 -0.04997031018137932
v 1696.5869140625 -1677.39111328125 2420.05029296875
v 1686.8846435546875 -1674.4090576171875 -0.024970997124910355
v 1686.8846435546875 -1674.4088134765625 2420.025146484375
v 1676.69140625 -1674.061767578125 -0.04997147247195244
v 1676.69140625 -1674.0615234375 2420.050048828125
v 1655.859375 -1680.23681640625 -0.049971845000982285
v 1655.859375 -1680.236572265625 2420.05029296875
v 1637.345458984375 -1693.443115234375 -0.04997149854898453
v 1637.345458984375 -1693.44287109375 2420.05029296875
v 1624.724609375 -1711.129638671875 -0.04997050017118454
v 1624.724609375 -1711.12939453125 2420.05029296875
v 1621.7420654296875 -1720.8306884765625 -0.024969786405563354
v 1621.7420654296875 -1720.8304443359375 2420.025146484375
v 1621.394287109375 -1731.02392578125 -0.049968913197517395
v 1621.394287109375 -1731.023681640625 2420.05029296875
v 1627.56787109375 -1751.860595703125 -0.049966827034950256
v 1627.56787109375 -1751.8603515625 2420.05029296875
v 1640.773681640625 -1770.3818359375 -0.049964625388383865
v 1640.773681640625 -1770.381591796875 2420.05029296875
v 1658.461181640625 -1783.00830078125 -0.04996274411678314
v 1658.461181640625 -1783.008056640625 2420.05029296875
v 1668.1639404296875 -1785.9915771484375 -0.024962058290839195
v 1668.1639404296875 -1785.9913330078125 2420.025146484375
v 1678.358154296875 -1786.3388671875 -0.04996158555150032
v 1678.358154296875 -1786.338623046875 2420.05029296875
v 1699.192626953125 -1780.16162109375 -0.049961213022470474
v 1699.192626953125 -1780.161376953125 2420.05029296875
v 1717.708984375 -1766.951416015625 -0.04996155574917793
v 1717.708984375 -1766.951171875 2420.05029296875
v 1730.33056640625 -1749.260498046875 -0.04996255040168762
v 1730.33056640625 -1749.26025390625 2420.05029296875
v 1733.32080078125 -1739.508544921875 -0.024963274598121643
v 1733.32080078125 -1739.50830078125 2420.025146484375
v 1730.3748779296875 -1749.2821044921875 2420.000244140625
v 1733.3623046875 -1739.5404052734375 2420.000244140625
v 1733.7083740234375 -1729.3570556640625 2420.000244140625
v 1727.5274658203125 -1708.5074462890625 2420.000244140625
v 1714.310302734375 -1689.97802734375 2420.000244140625
v 1717.743896484375 -1766.986083984375 2420.000244140625
v 1696.6087646484375 -1677.3465576171875 2420.000244140625
v 1699.2142333984375 -1780.2056884765625 2420.000244140625
v 1686.8677978515625 -1674.359130859375 2420.000244140625
v 1678.3643798828125 -1786.3875732421875 2420.000244140625
v 1676.6851806640625 -1674.0125732421875 2420.000244140625
v 1655.8377685546875 -1680.1922607421875 2420.000244140625
v 1658.4393310546875 -1783.05224609375 2420.000244140625
v 1668.1807861328125 -1786.041015625 2420.000244140625
v 1637.310546875 -1693.407958984375 2420.000244140625
v 1640.73876953125 -1770.41650390625 2420.000244140625
v 1624.6802978515625 -1711.1075439453125 2420.000244140625
v 1627.5235595703125 -1751.8819580078125 2420.000244140625
v 1621.6923828125 -1720.8472900390625 2420.000244140625
v 1621.3453369140625 -1731.0299072265625 2420.000244140625
v 1164.3306884765625 -2169.135009765625 -0.02495058812201023
v 1164.677490234375 -2158.941162109375 -0.0499514639377594
v 1164.3306884765625 -2169.134765625 2420.025146484375
v 1164.677490234375 -2158.94091796875 2420.05029296875
v 1158.50146484375 -2138.10693359375 -0.04995355382561684
v 1158.50146484375 -2138.106689453125 2420.050048828125
v 1145.29345703125 -2119.5908203125 -0.04995574802160263
v 1145.29345703125 -2119.590576171875 2420.05029296875
v 1127.60498046875 -2106.96875 -0.049957625567913055
v 1127.60498046875 -2106.968505859375 2420.05029296875
v 1117.9027099609375 -2103.986328125 -0.02495831437408924
v 1117.9027099609375 -2103.986083984375 2420.025146484375
v 1107.70947265625 -2103.63916015625 -0.04995878413319588
v 1107.70947265625 -2103.638916015625 2420.05029296875
v 1086.87744140625 -2109.814453125 -0.04995915666222572
v 1086.87744140625 -2109.814208984375 2420.05029296875
v 1068.363525390625 -2123.020751953125 -0.049958813935518265
v 1068.363525390625 -2123.0205078125 2420.050048828125
v 1055.74267578125 -2140.707275390625 -0.04995781555771828
v 1055.74267578125 -2140.70703125 2420.05029296875
v 1052.7601318359375 -2150.408447265625 -0.02495710179209709
v 1052.7601318359375 -2150.408203125 2420.025146484375
v 1052.412353515625 -2160.6015625 -0.04995622858405113
v 1052.412353515625 -2160.601318359375 2420.05029296875
v 1058.5859375 -2181.438232421875 -0.049954142421483994
v 1058.5859375 -2181.43798828125 2420.05029296875
v 1071.791748046875 -2199.95947265625 -0.0499519407749176
v 1071.791748046875 -2199.959228515625 2420.05029296875
v 1089.479248046875 -2212.5859375 -0.04995006322860718
v 1089.479248046875 -2212.585693359375 2420.05029296875
v 1099.1820068359375 -2215.5693359375 -0.02494937554001808
v 1099.1820068359375 -2215.569091796875 2420.025146484375
v 1109.376220703125 -2215.91650390625 -0.04994890093803406
v 1109.376220703125 -2215.916259765625 2420.05029296875
v 1130.210693359375 -2209.7392578125 -0.04994852840900421
v 1130.210693359375 -2209.739013671875 2420.05029296875
v 1148.72705078125 -2196.529052734375 -0.04994887113571167
v 1148.72705078125 -2196.52880859375 2420.05029296875
v 1161.3486328125 -2178.838134765625 -0.04994986578822136
v 1161.3486328125 -2178.837890625 2420.05029296875
v 1164.3388671875 -2169.086181640625 -0.02495058998465538
v 1164.3388671875 -2169.0859375 2420.025146484375
v 1161.3929443359375 -2178.859619140625 2420.000244140625
v 1164.38037109375 -2169.1181640625 2420.000244140625
v 1164.7264404296875 -2158.9345703125 2420.000244140625
v 1158.5455322265625 -2138.0849609375 2420.000244140625
v 1145.328369140625 -2119.5556640625 2420.000244140625
v 1148.761962890625 -2196.563720703125 2420.000244140625
v 1127.6268310546875 -2106.92431640625 2420.000244140625
v 1130.2322998046875 -2209.783447265625 2420.000244140625
v 1117.8858642578125 -2103.9365234375 2420.000244140625
v 1109.3824462890625 -2215.96533203125 2420.000244140625
v 1107.7032470703125 -2103.58984375 2420.000244140625
v 1086.8558349609375 -2109.769775390625 2420.000244140625
v 1089.4573974609375 -2212.6298828125 2420.000244140625
v 1099.1988525390625 -2215.61865234375 2420.000244140625
v 1068.32861328125 -2122.985595703125 2420.000244140625
v 1071.7568359375 -2199.994140625 2420.000244140625
v 1055.6983642578125 -2140.68505859375 2420.000244140625
v 1058.5416259765625 -2181.459716796875 2420.000244140625
v 1052.71044921875 -2150.4248046875 2420.000244140625
v 1052.3634033203125 -2160.607666015625 2420.000244140625
v -1041.7667236328125 2150.42041015625 -0.025424646213650703
v -1041.419677734375 2160.6142578125 -0.05042551830410957
v -1041.7667236328125 2150.420654296875 2420.0244140625
v -1041.419677734375 2160.614501953125 2420.049560546875
v -1047.596435546875 2181.448486328125 -0.05042761191725731
v -1047.596435546875 2181.44873046875 2420.04931640625
v -1060.803955078125 2199.964599609375 -0.0504298061132431
v -1060.803955078125 2199.96484375 2420.049560546875
v -1078.492431640625 2212.586669921875 -0.05043168365955353
v -1078.492431640625 2212.5869140625 2420.049560546875
v -1088.243408203125 2215.5771484375 -0.025432370603084564
v -1088.243408203125 2215.577392578125 2420.0244140625
v -1098.387939453125 2215.916259765625 -0.050432853400707245
v -1098.387939453125 2215.91650390625 2420.049560546875
v -1119.220458984375 2209.740966796875 -0.050433214753866196
v -1119.220458984375 2209.7412109375 2420.049560546875
v -1137.734130859375 2196.53466796875 -0.05043286830186844
v -1137.734130859375 2196.534912109375 2420.049560546875
v -1150.355224609375 2178.84814453125 -0.05043187737464905
v -1150.355224609375 2178.848388671875 2420.049560546875
v -1153.345458984375 2169.09814453125 -0.025431156158447266
v -1153.345458984375 2169.098388671875 2420.0244140625
v -1153.685302734375 2158.9541015625 -0.050430286675691605
v -1153.685302734375 2158.954345703125 2420.04931640625
v -1147.511474609375 2138.1171875 -0.05042819306254387
v -1147.511474609375 2138.117431640625 2420.049560546875
v -1134.305908203125 2119.595947265625 -0.050425998866558075
v -1134.305908203125 2119.59619140625 2420.049560546875
v -1116.618408203125 2106.969482421875 -0.05042411759495735
v -1116.618408203125 2106.9697265625 2420.049560546875
v -1106.866455078125 2103.97802734375 -0.025423431769013405
v -1106.866455078125 2103.978271484375 2420.0244140625
v -1096.720947265625 2103.638916015625 -0.05042295530438423
v -1096.720947265625 2103.63916015625 2420.049560546875
v -1075.886474609375 2109.81640625 -0.05042259022593498
v -1075.886474609375 2109.816650390625 2420.049560546875
v -1057.370361328125 2123.0263671875 -0.05042292922735214
v -1057.370361328125 2123.026611328125 2420.049560546875
v -1044.748779296875 2140.71728515625 -0.05042392760515213
v -1044.748779296875 2140.717529296875 2420.049560546875
v -1041.758544921875 2150.46923828125 -0.02542465180158615
v -1041.758544921875 2150.469482421875 2420.0244140625
v -1044.7044677734375 2140.69580078125 2419.99951171875
v -1041.717041015625 2150.437255859375 2419.99951171875
v -1041.3707275390625 2160.620849609375 2419.99951171875
v -1047.5521240234375 2181.470458984375 2419.99951171875
v -1060.76904296875 2199.999755859375 2419.99951171875
v -1057.33544921875 2122.99169921875 2419.99951171875
v -1078.4705810546875 2212.631103515625 2419.99951171875
v -1075.8648681640625 2109.772216796875 2419.99951171875
v -1088.2113037109375 2215.618896484375 2419.99951171875
v -1096.7147216796875 2103.590087890625 2419.99951171875
v -1098.3941650390625 2215.965576171875 2419.99951171875
v -1119.2420654296875 2209.78564453125 2419.99951171875
v -1116.6402587890625 2106.925537109375 2419.99951171875
v -1106.8985595703125 2103.936767578125 2419.99951171875
v -1137.76904296875 2196.56982421875 2419.99951171875
v -1134.3408203125 2119.561279296875 2419.99951171875
v -1150.3995361328125 2178.870361328125 2419.99951171875
v -1147.5557861328125 2138.095703125 2419.99951171875
v -1153.386962890625 2169.130615234375 2419.99951171875
v -1153.7342529296875 2158.947998046875 2419.99951171875
v -1621.7408447265625 1736.1746826171875 -0.02541378326714039
v -1621.394287109375 1746.368896484375 -0.05041465535759926
v -1621.7408447265625 1736.1749267578125 2420.0244140625
v -1621.394287109375 1746.369140625 2420.049560546875
v -1627.570556640625 1767.202880859375 -0.050416748970746994
v -1627.570556640625 1767.203125 2420.04931640625
v -1640.778076171875 1785.718994140625 -0.05041894316673279
v -1640.778076171875 1785.71923828125 2420.049560546875
v -1658.467041015625 1798.341064453125 -0.05042082071304321
v -1658.467041015625 1798.34130859375 2420.049560546875
v -1668.1690673828125 1801.3233642578125 -0.02542150765657425
v -1668.1690673828125 1801.3236083984375 2420.0244140625
v -1678.362548828125 1801.67041015625 -0.05042198300361633
v -1678.362548828125 1801.670654296875 2420.04931640625
v -1699.194580078125 1795.495361328125 -0.05042235180735588
v -1699.194580078125 1795.49560546875 2420.049560546875
v -1717.708251953125 1782.2890625 -0.050422005355358124
v -1717.708251953125 1782.289306640625 2420.049560546875
v -1730.329345703125 1764.602783203125 -0.05042101442813873
v -1730.329345703125 1764.60302734375 2420.049560546875
v -1733.3114013671875 1754.9014892578125 -0.02542029693722725
v -1733.3114013671875 1754.9017333984375 2420.0244140625
v -1733.659423828125 1744.70849609375 -0.05041942372918129
v -1733.659423828125 1744.708740234375 2420.049560546875
v -1727.486083984375 1723.87158203125 -0.050417330116033554
v -1727.486083984375 1723.871826171875 2420.049560546875
v -1714.280029296875 1705.3505859375 -0.05041513592004776
v -1714.280029296875 1705.350830078125 2420.049560546875
v -1696.592529296875 1692.72412109375 -0.05041325464844704
v -1696.592529296875 1692.724365234375 2420.049560546875
v -1686.8900146484375 1689.7406005859375 -0.02541257068514824
v -1686.8900146484375 1689.7408447265625 2420.0244140625
v -1676.696044921875 1689.393310546875 -0.05041209235787392
v -1676.696044921875 1689.3935546875 2420.049560546875
v -1655.861083984375 1695.57080078125 -0.05041172355413437
v -1655.861083984375 1695.571044921875 2420.04931640625
v -1637.344970703125 1708.78076171875 -0.050412070006132126
v -1637.344970703125 1708.781005859375 2420.049560546875
v -1624.722900390625 1726.4716796875 -0.050413068383932114
v -1624.722900390625 1726.471923828125 2420.04931640625
v -1621.732666015625 1736.2236328125 -0.025413792580366135
v -1621.732666015625 1736.223876953125 2420.024169921875
v -1624.6785888671875 1726.4500732421875 2419.99951171875
v -1621.691162109375 1736.1917724609375 2419.99951171875
v -1621.3453369140625 1746.3753662109375 2419.99951171875
v -1627.5262451171875 1767.2247314453125 2419.99951171875
v -1640.7431640625 1785.754150390625 2419.99951171875
v -1637.31005859375 1708.74609375 2419.99951171875
v -1658.4451904296875 1798.3856201171875 2419.99951171875
v -1655.8394775390625 1695.5267333984375 2419.99951171875
v -1668.1859130859375 1801.373291015625 2419.99951171875
v -1676.6898193359375 1689.3446044921875 2419.99951171875
v -1678.3687744140625 1801.7198486328125 2419.99951171875
v -1699.2161865234375 1795.5399169921875 2419.99951171875
v -1696.6143798828125 1692.68017578125 2419.99951171875
v -1686.8731689453125 1689.691162109375 2419.99951171875
v -1717.7431640625 1782.32421875 2419.99951171875
v -1714.31494140625 1705.31591796875 2419.99951171875
v -1730.3736572265625 1764.6248779296875 2419.99951171875
v -1727.5303955078125 1723.8502197265625 2419.99951171875
v -1733.361083984375 1754.8848876953125 2419.99951171875
v -1733.7083740234375 1744.7025146484375 2419.99951171875
v -1453.2169189453125 -344.17193603515625 -0.02522454597055912
v -1452.869873046875 -333.9779968261719 -0.05022542178630829
v -1453.2169189453125 -344.1717224121094 2420.024658203125
v -1452.869873046875 -333.977783203125 2420.0498046875
v -1459.046630859375 -313.1435852050781 -0.050227511674165726
v -1459.046630859375 -313.14337158203125 2420.049560546875
v -1472.254150390625 -294.62750244140625 -0.05022970959544182
v -1472.254150390625 -294.6272888183594 2420.049560546875
v -1489.942626953125 -282.00555419921875 -0.050231583416461945
v -1489.942626953125 -282.0053405761719 2420.0498046875
v -1499.693603515625 -279.01507568359375 -0.02523227222263813
v -1499.693603515625 -279.0148620605469 2420.024658203125
v -1509.838134765625 -278.6761474609375 -0.05023274943232536
v -1509.838134765625 -278.6759338378906 2420.0498046875
v -1530.670166015625 -284.8512878417969 -0.05023311451077461
v -1530.670166015625 -284.85107421875 2420.0498046875
v -1549.183837890625 -298.0575866699219 -0.050232771784067154
v -1549.183837890625 -298.057373046875 2420.0498046875
v -1561.804931640625 -315.7441711425781 -0.050231777131557465
v -1561.804931640625 -315.74395751953125 2420.0498046875
v -1564.795654296875 -325.4942626953125 -0.02523105777800083
v -1564.795654296875 -325.4940490722656 2420.024658203125
v -1565.135009765625 -335.6385192871094 -0.05023018270730972
v -1565.135009765625 -335.6383056640625 2420.049560546875
v -1558.961181640625 -356.47515869140625 -0.050228092819452286
v -1558.961181640625 -356.4749755859375 2420.049560546875
v -1545.755615234375 -374.9963684082031 -0.05022589489817619
v -1545.755615234375 -374.99615478515625 2420.0498046875
v -1528.068115234375 -387.6227722167969 -0.05022401735186577
v -1528.068115234375 -387.62255859375 2420.0498046875
v -1518.316650390625 -390.6142272949219 -0.02522333338856697
v -1518.316650390625 -390.614013671875 2420.024658203125
v -1508.171142578125 -390.9532775878906 -0.05022285878658295
v -1508.171142578125 -390.95306396484375 2420.0498046875
v -1487.336669921875 -384.77593994140625 -0.0502224899828434
v -1487.336669921875 -384.7757263183594 2420.0498046875
v -1468.820556640625 -371.56573486328125 -0.050222836434841156
v -1468.820556640625 -371.5655212402344 2420.0498046875
v -1456.198974609375 -353.87493896484375 -0.050223831087350845
v -1456.198974609375 -353.8747253417969 2420.0498046875
v -1453.208740234375 -344.123046875 -0.025224551558494568
v -1453.208740234375 -344.1228332519531 2420.024658203125
v -1456.1546630859375 -353.8966064453125 2419.999755859375
v -1453.167236328125 -344.1549072265625 2419.999755859375
v -1452.8209228515625 -333.9715270996094 2419.999755859375
v -1459.0023193359375 -313.1217956542969 2419.999755859375
v -1472.21923828125 -294.5924072265625 2419.999755859375
v -1468.78564453125 -371.6004638671875 2419.999755859375
v -1489.9207763671875 -281.9610900878906 2419.999755859375
v -1487.3150634765625 -384.8200988769531 2419.999755859375
v -1499.6614990234375 -278.97332763671875 2419.999755859375
v -1508.1649169921875 -391.00201416015625 2419.999755859375
v -1509.8443603515625 -278.6269836425781 2419.999755859375
v -1530.6917724609375 -284.8067932128906 2419.999755859375
v -1528.0899658203125 -387.6667785644531 2419.999755859375
v -1518.3487548828125 -390.6556091308594 2419.999755859375
v -1549.21875 -298.0225524902344 2419.999755859375
v -1545.79052734375 -375.03094482421875 2419.999755859375
v -1561.8492431640625 -315.72210693359375 2419.999755859375
v -1559.0054931640625 -356.49652099609375 2419.999755859375
v -1564.837158203125 -325.4619445800781 2419.999755859375
v -1565.1839599609375 -335.64453125 2419.999755859375
v -759.0943603515625 -1315.1192626953125 -0.025109324604272842
v -758.747802734375 -1304.92529296875 -0.05011019483208656
v -759.0943603515625 -1315.1190185546875 2420.024658203125
v -758.747802734375 -1304.925048828125 2420.0498046875
v -764.924072265625 -1284.0908203125 -0.0501122884452343
v -764.924072265625 -1284.090576171875 2420.049560546875
v -778.131591796875 -1265.57470703125 -0.05011448636651039
v -778.131591796875 -1265.574462890625 2420.0498046875
v -795.820068359375 -1252.952880859375 -0.050116363912820816
v -795.820068359375 -1252.95263671875 2420.0498046875
v -805.5226440429688 -1249.970458984375 -0.025117048993706703
v -805.5226440429688 -1249.9703369140625 2420.024658203125
v -815.715576171875 -1249.623291015625 -0.05011752247810364
v -815.715576171875 -1249.6231689453125 2420.0498046875
v -836.547607421875 -1255.79833984375 -0.050117895007133484
v -836.547607421875 -1255.798095703125 2420.0498046875
v -855.061767578125 -1269.004638671875 -0.050117552280426025
v -855.061767578125 -1269.00439453125 2420.0498046875
v -867.682373046875 -1286.691162109375 -0.050116557627916336
v -867.682373046875 -1286.6910400390625 2420.0498046875
v -870.6649169921875 -1296.3924560546875 -0.025115838274359703
v -870.6649169921875 -1296.3922119140625 2420.024658203125
v -871.012939453125 -1306.585693359375 -0.050114963203668594
v -871.012939453125 -1306.58544921875 2420.0498046875
v -864.839111328125 -1327.42236328125 -0.05011286586523056
v -864.839111328125 -1327.422119140625 2420.0498046875
v -851.633544921875 -1345.943359375 -0.050110671669244766
v -851.633544921875 -1345.943115234375 2420.0498046875
v -833.946044921875 -1358.570068359375 -0.05010880157351494
v -833.946044921875 -1358.56982421875 2420.049560546875
v -824.2434692382812 -1361.5533447265625 -0.025108110159635544
v -824.2434692382812 -1361.5531005859375 2420.0244140625
v -814.049072265625 -1361.900634765625 -0.05010763183236122
v -814.049072265625 -1361.900390625 2420.0498046875
v -793.214111328125 -1355.72314453125 -0.050107263028621674
v -793.214111328125 -1355.722900390625 2420.049560546875
v -774.697998046875 -1342.512939453125 -0.05010761320590973
v -774.697998046875 -1342.5126953125 2420.0498046875
v -762.076416015625 -1324.822265625 -0.05010861158370972
v -762.076416015625 -1324.822021484375 2420.0498046875
v -759.086181640625 -1315.0703125 -0.02510933205485344
v -759.086181640625 -1315.070068359375 2420.024658203125
v -762.0321655273438 -1324.8438720703125 2419.999755859375
v -759.0446166992188 -1315.1021728515625 2419.999755859375
v -758.6988525390625 -1304.9188232421875 2419.999755859375
v -764.8797607421875 -1284.0689697265625 2419.999755859375
v -778.0967407226562 -1265.53955078125 2419.999755859375
v -774.6631469726562 -1342.5478515625 2419.999755859375
v -795.7982177734375 -1252.908203125 2419.999755859375
v -793.1925048828125 -1355.7674560546875 2419.999755859375
v -805.5394287109375 -1249.920654296875 2419.999755859375
v -814.0428466796875 -1361.9493408203125 2419.999755859375
v -815.7218017578125 -1249.57421875 2419.999755859375
v -836.5692138671875 -1255.7540283203125 2419.999755859375
v -833.9678955078125 -1358.614013671875 2419.999755859375
v -824.2266845703125 -1361.602783203125 2419.999755859375
v -855.0966186523438 -1268.9697265625 2419.999755859375
v -851.6683959960938 -1345.978271484375 2419.999755859375
v -867.7266235351562 -1286.669189453125 2419.999755859375
v -864.8834228515625 -1327.4437255859375 2419.999755859375
v -870.7146606445312 -1296.4090576171875 2419.999755859375
v -871.0618896484375 -1306.5916748046875 2419.999755859375
v 1668.212890625 -1785.999755859375 -0.024962058290839195
v 1668.212890625 -1785.99951171875 2420.025146484375
v 1621.73388671875 -1720.879638671875 -0.024969780817627907
v 1621.73388671875 -1720.87939453125 2420.025146484375
v 1686.835693359375 -1674.40087890625 -0.024970997124910355
v 1686.835693359375 -1674.400634765625 2420.025146484375
v -824.194580078125 -1361.5615234375 -0.025108113884925842
v -824.194580078125 -1361.561279296875 2420.0244140625
v -870.673095703125 -1296.44140625 -0.025115834549069405
v -870.673095703125 -1296.441162109375 2420.024658203125
v -805.571533203125 -1249.9622802734375 -0.025117050856351852
v -805.571533203125 -1249.962158203125 2420.024658203125
v -1499.6446533203125 -279.02325439453125 -0.02523227408528328
v -1499.6446533203125 -279.0230407714844 2420.024658203125
v -1564.7874755859375 -325.44537353515625 -0.02523105964064598
v -1564.7874755859375 -325.4451599121094 2420.024658203125
v -1518.3656005859375 -390.6060485839844 -0.02522333525121212
v -1518.3656005859375 -390.6058349609375 2420.024658203125
v -1686.841064453125 1689.732421875 -0.02541256695985794
v -1686.841064453125 1689.732666015625 2420.0244140625
v -1733.319580078125 1754.8525390625 -0.02542029321193695
v -1733.319580078125 1754.852783203125 2420.0244140625
v -1668.218017578125 1801.33154296875 -0.02542150765657425
v -1668.218017578125 1801.331787109375 2420.0244140625
v -1088.1944580078125 2215.569091796875 -0.025432376191020012
v -1088.1944580078125 2215.5693359375 2420.0244140625
v -1153.3372802734375 2169.14697265625 -0.025431159883737564
v -1153.3372802734375 2169.147216796875 2420.0244140625
v -1106.9154052734375 2103.986083984375 -0.025423431769013405
v -1106.9154052734375 2103.986328125 2420.0244140625
v 1099.23095703125 -2215.577392578125 -0.02494937554001808
v 1099.23095703125 -2215.5771484375 2420.025146484375
v 1052.751953125 -2150.457275390625 -0.024957096204161644
v 1052.751953125 -2150.45703125 2420.025146484375
v 1117.853759765625 -2103.978271484375 -0.02495831437408924
v 1117.853759765625 -2103.97802734375 2420.025146484375
f 33 31 32
f 34 33 32
f 35 33 34
f 36 35 34
f 37 35 36
f 38 37 36
f 39 37 38
f 40 39 38
f 41 39 40
f 42 41 40
f 23 21 22
f 24 23 22
f 25 23 24
f 26 25 24
f 27 25 26
f 28 27 26
f 29 27 28
f 30 29 28
f 373 29 30
f 374 373 30
f 13 11 12
f 14 13 12
f 15 13 14
f 16 15 14
f 17 15 16
f 18 17 16
f 19 17 18
f 20 19 18
f 375 19 20
f 376 375 20
f 2 1 3
f 4 2 3
f 5 2 4
f 6 5 4
f 7 5 6
f 8 7 6
f 9 7 8
f 10 9 8
f 377 9 10
f 378 377 10
f 343 341 342
f 344 343 342
f 345 343 344
f 346 345 344
f 347 345 346
f 348 347 346
f 349 347 348
f 350 349 348
f 351 349 350
f 352 351 350
f 333 331 332
f 334 333 332
f 335 333 334
f 336 335 334
f 337 335 336
f 338 337 336
f 339 337 338
f 340 339 338
f 379 339 340
f 380 379 340
f 323 321 322
f 324 323 322
f 325 323 324
f 326 325 324
f 327 325 326
f 328 327 326
f 329 327 328
f 330 329 328
f 381 329 330
f 382 381 330
f 312 311 313
f 314 312 313
f 315 312 314
f 316 315 314
f 317 315 316
f 318 317 316
f 319 317 318
f 320 319 318
f 383 319 320
f 384 383 320
f 250 249 251
f 252 250 251
f 253 250 252
f 254 253 252
f 255 253 254
f 256 255 254
f 257 255 256
f 258 257 256
f 259 257 258
f 260 259 258
f 261 385 386
f 262 261 386
f 263 261 262
f 264 263 262
f 265 263 264
f 266 265 264
f 267 265 266
f 268 267 266
f 269 267 268
f 270 269 268
f 271 387 388
f 272 271 388
f 273 271 272
f 274 273 272
f 275 273 274
f 276 275 274
f 277 275 276
f 278 277 276
f 279 277 278
f 280 279 278
f 281 389 390
f 282 281 390
f 283 281 282
f 284 283 282
f 285 283 284
f 286 285 284
f 287 285 286
f 288 287 286
f 289 287 288
f 290 289 288
f 219 217 218
f 220 219 218
f 221 219 220
f 222 221 220
f 223 221 222
f 224 223 222
f 225 223 224
f 226 225 224
f 227 225 226
f 228 227 226
f 209 207 208
f 210 209 208
f 211 209 210
f 212 211 210
f 213 211 212
f 214 213 212
f 215 213 214
f 216 215 214
f 391 215 216
f 392 391 216
f 199 197 198
f 200 199 198
f 201 199 200
f 202 201 200
f 203 201 202
f 204 203 202
f 205 203 204
f 206 205 204
f 393 205 206
f 394 393 206
f 188 187 189
f 190 188 189
f 191 188 190
f 192 191 190
f 193 191 192
f 194 193 192
f 195 193 194
f 196 195 194
f 395 195 196
f 396 395 196
f 126 125 127
f 128 126 127
f 129 126 128
f 130 129 128
f 131 129 130
f 132 131 130
f 133 131 132
f 134 133 132
f 135 133 134
f 136 135 134
f 137 397 398
f 138 137 398
f 139 137 138
f 140 139 138
f 141 139 140
f 142 141 140
f 143 141 142
f 144 143 142
f 145 143 144
f 146 145 144
f 147 399 400
f 148 147 400
f 149 147 148
f 150 149 148
f 151 149 150
f 152 151 150
f 153 151 152
f 154 153 152
f 155 153 154
f 156 155 154
f 157 401 402
f 158 157 402
f 159 157 158
f 160 159 158
f 161 159 160
f 162 161 160
f 163 161 162
f 164 163 162
f 165 163 164
f 166 165 164
f 95 93 94
f 96 95 94
f 97 95 96
f 98 97 96
f 99 97 98
f 100 99 98
f 101 99 100
f 102 101 100
f 103 101 102
f 104 103 102
f 85 83 84
f 86 85 84
f 87 85 86
f 88 87 86
f 89 87 88
f 90 89 88
f 91 89 90
f 92 91 90
f 403 91 92
f 404 403 92
f 75 73 74
f 76 75 74
f 77 75 76
f 78 77 76
f 79 77 78
f 80 79 78
f 81 79 80
f 82 81 80
f 405 81 82
f 406 405 82
f 64 63 65
f 66 64 65
f 67 64 66
f 68 67 66
f 69 67 68
f 70 69 68
f 71 69 70
f 72 71 70
f 407 71 72
f 408 407 72
f 56 54 53
f 55 54 56
f 54 55 58
f 58 57 54
f 57 58 60
f 60 59 57
f 59 60 61
f 61 60 62
f 44 43 45
f 43 46 45
f 46 43 48
f 48 47 46
f 47 48 50
f 50 49 47
f 49 50 51
f 51 50 52
f 52 53 51
f 53 52 56
f 106 105 107
f 105 108 107
f 108 105 110
f 110 109 108
f 109 110 112
f 112 111 109
f 111 112 113
f 113 112 114
f 114 115 113
f 115 114 118
f 118 116 115
f 117 116 118
f 116 117 120
f 120 119 116
f 119 120 122
f 122 121 119
f 121 122 123
f 123 122 124
f 168 167 169
f 167 170 169
f 170 167 172
f 172 171 170
f 171 172 174
f 174 173 171
f 173 174 175
f 175 174 176
f 176 177 175
f 177 176 180
f 180 178 177
f 179 178 180
f 178 179 182
f 182 181 178
f 181 182 184
f 184 183 181
f 183 184 185
f 185 184 186
f 230 229 231
f 229 232 231
f 232 229 234
f 234 233 232
f 233 234 236
f 236 235 233
f 235 236 237
f 237 236 238
f 238 239 237
f 239 238 242
f 242 240 239
f 241 240 242
f 240 241 244
f 244 243 240
f 243 244 246
f 246 245 243
f 245 246 247
f 247 246 248
f 292 291 293
f 291 294 293
f 294 291 296
f 296 295 294
f 295 296 298
f 298 297 295
f 297 298 299
f 299 298 300
f 300 301 299
f 301 300 304
f 304 302 301
f 303 302 304
f 302 303 306
f 306 305 302
f 305 306 308
f 308 307 305
f 307 308 309
f 309 308 310
f 354 353 355
f 353 356 355
f 356 353 358
f 358 357 356
f 357 358 360
f 360 359 357
f 359 360 361
f 361 360 362
f 362 363 361
f 363 362 366
f 366 364 363
f 365 364 366
f 364 365 368
f 368 367 364
f 367 368 370
f 370 369 367
f 369 370 371
f 371 370 372
