# from FinancialDistrict_Block30_Generic_0023_LOD_0.pskx
v 28.851900100708008 -2.6318726539611816 -0.024484366178512573
v -46.18588638305664 -3.9877562522888184 -0.02448752522468567
v 28.851900100708008 -2.6318726539611816 470.02545166015625
v -46.18588638305664 -3.9877562522888184 470.02545166015625
v -46.161338806152344 -3.962308645248413 -0.024487527087330818
v -44.359901428222656 -104.00009155273438 -0.02447870746254921
v -46.161338806152344 -3.962308645248413 470.02545166015625
v -44.359901428222656 -104.00009155273438 470.0254821777344
v -44.38534927368164 -103.97554779052734 -0.02447870746254921
v 30.652437210083008 -102.61966705322266 -0.024475548416376114
v -44.38534927368164 -103.97554779052734 470.0254821777344
v 30.652437210083008 -102.61966705322266 470.0254821777344
v 30.627891540527344 -102.64511108398438 -0.024475548416376114
v 28.826454162597656 -2.607328176498413 -0.024484368041157722
v 30.627891540527344 -102.64511108398438 470.0254821777344
v 28.826454162597656 -2.607328176498413 470.02545166015625
v 46.16237258911133 -505.17193603515625 -0.024439675733447075
v -13.990741729736328 506.18170166015625 -0.024530716240406036
v 46.16237258911133 -505.17193603515625 100.02556610107422
v -13.990741729736328 506.18170166015625 100.02547454833984
v -13.97807788848877 506.1791076660156 -0.024530719965696335
v -39.00043869018555 456.1343688964844 -0.02452744171023369
v -13.97807788848877 506.1791076660156 100.02547454833984
v -39.00043869018555 456.1343688964844 100.02547454833984
v -38.99081802368164 456.18170166015625 -0.02452744171023369
v 21.162450790405273 -505.17193603515625 -0.024440772831439972
v -38.99081802368164 456.18170166015625 100.02547454833984
v 21.162450790405273 -505.17193603515625 100.02556610107422
v 21.135889053344727 -505.14697265625 -0.024440772831439972
v 46.185890197753906 -505.14697265625 -0.024439679458737373
v 21.135889053344727 -505.14697265625 100.02556610107422
v 46.185890197753906 -505.14697265625 100.02556610107422
v 32.70804214477539 -505.97222900390625 299.52252197265625
v -27.50491714477539 505.37799072265625 203.9984893798828
v 32.648197174072266 -505.97564697265625 203.9985809326172
v -27.445072174072266 505.38140869140625 299.5224304199219
v 31.18906593322754 -506.06256103515625 340.0255432128906
v -29.05649757385254 505.28570556640625 311.4894714355469
v 31.09661865234375 -506.06793212890625 311.48956298828125
v -28.96405029296875 505.29107666015625 340.02545166015625
v 31.43553924560547 -506.0478820800781 311.52655029296875
v -28.96434783935547 505.2910461425781 340.02545166015625
v 31.18876838684082 -506.06256103515625 340.0255432128906
v -28.71757698059082 505.30572509765625 311.5264587402344
v 33.18532180786133 -505.94342041015625 203.97557067871094
v -26.967792510986328 505.41021728515625 299.56243896484375
v 33.18532180786133 -505.94342041015625 299.5625305175781
v -26.967792510986328 505.41021728515625 203.97547912597656
v 33.18532180786133 -505.94342041015625 299.5125427246094
v -26.967792510986328 505.41021728515625 302.02545166015625
v 33.18532180786133 -505.94342041015625 302.0255432128906
v -26.967792510986328 505.41021728515625 299.512451171875
v 31.190471649169922 -506.0875244140625 298.54754638671875
v -28.965618133544922 505.3160400390625 298.5474548339844
v 29.170080184936523 -506.1825256347656 299.5587158203125
v -30.983034133911133 505.17108154296875 299.5586242675781
v 29.192401885986328 -506.18121337890625 302.0255432128906
v -30.960712432861328 505.17242431640625 302.02545166015625
v 31.190471649169922 -506.0875244140625 303.00054931640625
v -28.965618133544922 505.3160400390625 303.0004577636719
v 33.207645416259766 -505.94207763671875 301.9893798828125
v -26.945476531982422 505.4115295410156 301.9892883300781
v 33.207645416259766 -505.94207763671875 103.01174926757812
v -26.967792510986328 505.41021728515625 105.53889465332031
v 33.18532180786133 -505.94342041015625 105.53899383544922
v -26.945476531982422 505.4115295410156 103.01164245605469
v 31.190471649169922 -506.0875244140625 102.00056457519531
v -28.965618133544922 505.3160400390625 102.0004653930664
v 29.192401885986328 -506.18121337890625 102.97557067871094
v -30.960712432861328 505.17242431640625 102.97547149658203
v 29.170080184936523 -506.1825256347656 105.49848937988281
v -30.983034133911133 505.17108154296875 105.4983901977539
v 31.190471649169922 -506.0875244140625 106.50965118408203
v -28.965618133544922 505.3160400390625 106.50955200195312
v 33.20766830444336 -505.94207763671875 105.50284576416016
v -26.945457458496094 505.4115295410156 105.50275421142578
v 33.2077751159668 -505.94207763671875 201.5824737548828
v -26.967792510986328 505.41021728515625 204.0254669189453
v 33.18532180786133 -505.94342041015625 204.0255584716797
v -26.94534683227539 505.41156005859375 201.58236694335938
v 31.190471649169922 -506.0875244140625 200.60057067871094
v -28.965618133544922 505.3160400390625 200.60047912597656
v 29.192401885986328 -506.18121337890625 201.57557678222656
v -30.960712432861328 505.17242431640625 201.5754852294922
v 29.170080184936523 -506.1825256347656 203.9893798828125
v -30.983034133911133 505.17108154296875 203.98928833007812
v 31.190471649169922 -506.0875244140625 205.0005645751953
v -28.965618133544922 505.3160400390625 205.00047302246094
v 33.207645416259766 -505.94207763671875 203.9893798828125
v -26.945476531982422 505.4115295410156 203.98928833007812
v 32.68751907348633 -505.97320556640625 201.6275634765625
v -27.46877098083496 505.38043212890625 105.49346160888672
v 32.68410110473633 -505.97320556640625 105.49356079101562
v -27.465595245361328 505.38043212890625 201.62747192382812
v 33.18532180786133 -505.94342041015625 105.4889907836914
v -26.967792510986328 505.41021728515625 201.59645080566406
v 33.18532180786133 -505.94342041015625 201.59654235839844
v -26.967792510986328 505.41021728515625 105.4888916015625
v 34.201011657714844 -505.8832702636719 101.9828872680664
v -26.98543357849121 505.4091491699219 103.01814270019531
v 33.16767501831055 -505.9444580078125 103.01824951171875
v -25.95185089111328 505.4703369140625 101.9827880859375
v 33.165645599365234 -505.944580078125 301.98516845703125
v -24.088743209838867 505.580810546875 304.2518310546875
v 36.06412124633789 -505.7727966308594 304.2519226074219
v -26.98746109008789 505.4090270996094 301.9850769042969
v 31.07296371459961 -506.0442810058594 311.4897766113281
v 31.461498260498047 -506.02130126953125 311.52691650390625
v 31.1875 -506.03759765625 340.0008544921875
v 29.154802322387695 -506.1584167480469 302.0229187011719
v 33.21995544433594 -505.91632080078125 302.0229187011719
v 31.187501907348633 -506.03759765625 303.0452575683594
v 29.154802322387695 -506.1584167480469 299.5251770019531
v 33.21986389160156 -505.91632080078125 299.51513671875
v 31.18741226196289 -506.0376281738281 298.5027770996094
v 29.154802322387695 -506.1584167480469 105.53202819824219
v 33.21991729736328 -505.91632080078125 105.53636932373047
v 31.187463760375977 -506.03759765625 106.55438995361328
v 29.154802322387695 -506.1584167480469 102.97821044921875
v 33.21995544433594 -505.91632080078125 102.97820281982422
v 31.187501907348633 -506.03759765625 101.95584106445312
v 29.154802322387695 -506.1584167480469 204.02291870117188
v 33.21995544433594 -505.91632080078125 204.02291870117188
v 31.187501907348633 -506.03759765625 205.0452880859375
v 29.154802322387695 -506.1584167480469 201.57821655273438
v 33.21969223022461 -505.91632080078125 201.54905700683594
v 31.187240600585938 -506.0376281738281 200.55572509765625
v -28.962646484375 505.26611328125 340.0007629394531
v -28.688648223876953 505.28240966796875 311.5268249511719
v -29.07718276977539 505.2594299316406 311.48968505859375
v -28.962644577026367 505.26611328125 303.045166015625
v -26.930191040039062 505.38739013671875 302.0228271484375
v -30.995344161987305 505.1452941894531 302.0228271484375
v -30.995344161987305 505.1452941894531 299.52508544921875
v -26.930280685424805 505.38739013671875 299.5150451660156
v -28.96273422241211 505.2660827636719 298.502685546875
v -28.962682723999023 505.26611328125 106.55429077148438
v -26.93023109436035 505.38739013671875 105.53627014160156
v -30.995344161987305 505.1452941894531 105.53192901611328
v -26.930191040039062 505.38739013671875 102.97810363769531
v -30.995344161987305 505.1452941894531 102.97811126708984
v -28.962644577026367 505.26611328125 101.95574188232422
v -28.962644577026367 505.26611328125 205.04519653320312
v -26.930191040039062 505.38739013671875 204.0228271484375
v -30.995344161987305 505.1452941894531 204.0228271484375
v -30.995344161987305 505.1452941894531 201.578125
v -26.930452346801758 505.38739013671875 201.54896545410156
v -28.962905883789062 505.2660827636719 200.55563354492188
v -13.986662864685059 506.1694030761719 100.00047302246094
v 21.135936737060547 -505.17352294921875 100.00056457519531
v 46.18584442138672 -505.1705017089844 100.00056457519531
v -39.03657150268555 456.1663513183594 100.00047302246094
v -30.960712432861328 505.17242431640625 204.0254669189453
v 29.192401885986328 -506.18121337890625 204.0255584716797
v -30.983034133911133 505.17108154296875 201.61166381835938
v 29.170080184936523 -506.1825256347656 201.61175537109375
v -26.967792510986328 505.41021728515625 201.5464630126953
v 33.18532180786133 -505.94342041015625 201.5465545654297
v -30.960712432861328 505.17242431640625 105.5345687866211
v 29.192401885986328 -506.18121337890625 105.53466796875
v -30.983034133911133 505.17108154296875 103.01165008544922
v 29.170080184936523 -506.1825256347656 103.01174926757812
v -26.967792510986328 505.41021728515625 102.9754638671875
v 33.18532180786133 -505.94342041015625 102.9755630493164
v -26.945430755615234 505.4115295410156 299.54852294921875
v 33.20769119262695 -505.94207763671875 299.5486145019531
v -30.960712432861328 505.17242431640625 299.5224609375
v 29.192401885986328 -506.18121337890625 299.5225524902344
v -30.983034133911133 505.17108154296875 301.9892883300781
v 29.170080184936523 -506.1825256347656 301.9893798828125
f 2 1 3
f 4 2 3
f 30 29 31
f 32 30 31
f 26 25 27
f 28 26 27
f 22 21 23
f 24 22 23
f 18 17 19
f 20 18 19
f 14 13 15
f 16 14 15
f 10 9 11
f 12 10 11
f 6 5 7
f 8 6 7
f 149 150 152
f 150 149 151
f 108 107 109
f 120 121 119
f 120 119 116
f 117 120 116
f 117 116 118
f 88 90 89
f 88 89 87
f 86 88 87
f 86 87 85
f 84 153 154
f 84 154 83
f 82 155 156
f 82 156 81
f 80 82 81
f 80 81 77
f 78 157 158
f 78 158 79
f 74 76 75
f 74 75 73
f 72 74 73
f 72 73 71
f 70 159 160
f 70 160 69
f 68 161 162
f 68 162 67
f 66 68 67
f 66 67 63
f 64 163 164
f 64 164 65
f 50 49 51
f 50 52 49
f 165 53 166
f 165 54 53
f 54 55 53
f 54 56 55
f 167 57 168
f 167 58 57
f 169 59 170
f 169 60 59
f 60 61 59
f 60 62 61
f 126 127 125
f 125 123 126
f 122 123 125
f 123 122 124
f 132 131 133
f 133 134 132
f 134 135 132
f 135 134 136
f 138 137 139
f 138 139 140
f 140 139 141
f 140 141 142
f 144 143 145
f 145 146 144
f 146 147 144
f 147 146 148
f 129 128 130
f 38 40 37
f 38 37 39
f 42 44 41
f 42 41 43
f 46 48 45
f 46 45 47
f 92 94 91
f 92 91 93
f 96 98 95
f 96 95 97
f 100 102 99
f 100 99 101
f 104 106 103
f 104 103 105
f 34 36 33
f 34 33 35
f 114 115 113
f 113 111 114
f 110 111 113
f 111 110 112
