# from FinancialDistrict_Block20_Upmarket Corporate (UC)_0012_LOD_0.pskx
v 1035.0023193359375 2308.240234375 -0.025298329070210457
v 1035.00244140625 -316.8096923828125 -0.025068843737244606
v 1035.0023193359375 2308.240234375 190.02468872070312
v 1035.00244140625 -316.8096923828125 190.02491760253906
v 1034.9774169921875 -316.7846984863281 -0.025068843737244606
v 1060.0274658203125 -316.7846984863281 -0.025067750364542007
v 1034.9774169921875 -316.7846984863281 190.02491760253906
v 1060.0274658203125 -316.7846984863281 190.02491760253906
v 1060.00244140625 -316.8096923828125 -0.025067752227187157
v 1060.0023193359375 1723.40087890625 -0.05024610832333565
v 1060.00244140625 -316.8096923828125 190.02491760253906
v 1060.0023193359375 1723.3758544921875 190.02474975585938
v 1060.0023193359375 2308.240234375 -0.02529723569750786
v 1060.0023193359375 2308.265380859375 189.99969482421875
v 1045.0025634765625 -316.8096923828125 240.46731567382812
v 1044.9097900390625 1723.4259033203125 205.93116760253906
v 1044.9097900390625 -316.8096923828125 205.93133544921875
v 1045.0025634765625 1723.4259033203125 240.46714782714844
v 1045.24951171875 -316.8096923828125 205.96836853027344
v 1045.0023193359375 1723.4259033203125 240.46714782714844
v 1045.0023193359375 -316.8096923828125 240.46731567382812
v 1045.2493896484375 1723.4259033203125 205.96820068359375
v 1044.8875732421875 -316.7846984863281 205.93154907226562
v 1045.277099609375 -316.7846984863281 205.96868896484375
v 1045.00244140625 -316.7846984863281 240.44256591796875
v 1045.00244140625 1723.40087890625 240.44239807128906
v 1045.2769775390625 1723.40087890625 205.96852111816406
v 1044.8875732421875 1723.40087890625 205.93138122558594
v 1035.0023193359375 2308.240234375 189.97470092773438
v 1035.00244140625 -316.8096923828125 189.9749298095703
v 1035.0023193359375 2308.240234375 200.02468872070312
v 1035.00244140625 -316.8096923828125 200.02491760253906
v 1034.9774169921875 -316.7846984863281 189.9749298095703
v 1060.0274658203125 -316.7846984863281 189.9749298095703
v 1034.9774169921875 -316.7846984863281 200.02491760253906
v 1060.0274658203125 -316.7846984863281 200.02491760253906
v 1060.00244140625 -316.8096923828125 189.9749298095703
v 1060.0023193359375 1723.4259033203125 189.97476196289062
v 1060.00244140625 -316.8096923828125 200.02491760253906
v 1060.0023193359375 1723.40087890625 200.02474975585938
v 1060.0023193359375 2308.240234375 200.02468872070312
v 1034.977294921875 2308.240234375 199.99969482421875
v 1034.9774169921875 -316.8096923828125 199.9999237060547
v 1060.02734375 2308.240234375 199.99969482421875
v 1060.0274658203125 -316.7846984863281 199.9999237060547
v 1060.0523681640625 1723.40087890625 199.999755859375
v 1060.0274658203125 -316.7846984863281 -0.025067748501896858
v -2140.02734375 -316.7797546386719 -0.025207625702023506
v 1060.0274658203125 -316.7846984863281 190.02491760253906
v -2140.02734375 -316.77972412109375 190.0247802734375
v -2140.02734375 -341.7797546386719 -0.025205442681908607
v 1060.0274658203125 -341.78472900390625 -0.02506556548178196
v -2140.02734375 -341.77972412109375 190.02479553222656
v 1060.0274658203125 -341.7846984863281 190.02493286132812
v 1060.00244140625 -341.8097229003906 -0.025065559893846512
v 1060.00244140625 -316.75970458984375 -0.025067748501896858
v 1060.00244140625 -341.8096923828125 190.02493286132812
v 1060.00244140625 -316.75970458984375 190.02491760253906
v -2140.02734375 -326.7797546386719 240.46717834472656
v 1044.9349365234375 -326.6921081542969 205.93125915527344
v -2140.02734375 -326.6871643066406 205.9311981201172
v 1045.0274658203125 -326.78472900390625 240.46725463867188
v -2140.02734375 -327.0268249511719 205.96823120117188
v 1045.0274658203125 -326.78448486328125 240.46749877929688
v -2140.02734375 -326.7795104980469 240.46717834472656
v 1045.2744140625 -327.0317687988281 205.96853637695312
v 1045.0025634765625 -326.8096618652344 240.46725463867188
v 1044.9097900390625 -316.75970458984375 205.93133544921875
v 1044.9097900390625 -326.7171630859375 205.93125915527344
v 1045.0025634765625 -316.75970458984375 240.46731567382812
v 1045.24951171875 -327.05657958984375 205.96853637695312
v 1045.0023193359375 -316.75970458984375 240.46731567382812
v 1045.0023193359375 -326.8096618652344 240.46749877929688
v 1045.24951171875 -316.75970458984375 205.96836853027344
v -2140.00244140625 -326.6649475097656 205.93141174316406
v -2140.00244140625 -327.0543518066406 205.9685516357422
v -2140.00244140625 -326.7796936035156 240.4424285888672
v 1045.00244140625 -316.7846984863281 240.44256591796875
v 1045.277099609375 -316.7846984863281 205.96868896484375
v 1044.8875732421875 -316.7846984863281 205.93154907226562
v 1060.0274658203125 -316.7846984863281 189.9749298095703
v -2140.02734375 -316.77972412109375 189.97479248046875
v 1060.0274658203125 -316.7846984863281 200.02491760253906
v -2140.02734375 -316.77972412109375 200.0247802734375
v -2140.02734375 -341.77972412109375 189.9748077392578
v 1060.0274658203125 -341.7846984863281 189.97494506835938
v -2140.02734375 -341.77972412109375 200.02479553222656
v 1060.0274658203125 -341.7846984863281 200.02493286132812
v 1060.00244140625 -341.8096923828125 189.97494506835938
v 1060.00244140625 -316.75970458984375 189.9749298095703
v 1060.00244140625 -341.8096923828125 200.02493286132812
v 1060.00244140625 -316.75970458984375 200.02491760253906
v -2140.02734375 -316.7547302246094 199.99978637695312
v -2140.02734375 -341.8047180175781 199.9998016357422
v 1060.0274658203125 -341.8096923828125 199.99993896484375
v 2060.00244140625 -951.7572021484375 -0.024968529120087624
v 2060.00244140625 -2308.240234375 -0.024849945679306984
v 2060.00244140625 -951.7572021484375 190.0250244140625
v 2060.00244140625 -2308.240234375 190.025146484375
v 2059.9775390625 -2308.21533203125 -0.024849943816661835
v 2085.02734375 -2308.21533203125 -0.024848850443959236
v 2059.9775390625 -2308.21533203125 190.025146484375
v 2085.02734375 -2308.21533203125 190.025146484375
v 2085.00244140625 -2308.240234375 -0.024848852306604385
v 2085.00244140625 -951.7572021484375 -0.024967435747385025
v 2085.00244140625 -2308.240234375 190.025146484375
v 2085.00244140625 -951.7572021484375 190.0250244140625
v 2085.02734375 -951.7822265625 -0.024967433884739876
v 2059.9775390625 -951.7822265625 -0.024968527257442474
v 2085.02734375 -951.7822265625 190.0250244140625
v 2059.9775390625 -951.7822265625 190.0250244140625
v 2075.00244140625 -951.7572021484375 240.46742248535156
v 2075.094970703125 -2308.240234375 205.9315643310547
v 2075.094970703125 -951.7572021484375 205.9314422607422
v 2075.00244140625 -2308.240234375 240.46754455566406
v 2074.75537109375 -951.7572021484375 205.96847534179688
v 2075.002685546875 -2308.240234375 240.46754455566406
v 2075.002685546875 -951.7572021484375 240.46742248535156
v 2074.75537109375 -2308.240234375 205.96859741210938
v 2075.1171875 -951.7822265625 205.93165588378906
v 2074.727783203125 -951.7822265625 205.9687957763672
v 2075.00244140625 -951.7822265625 240.4426727294922
v 2075.00244140625 -2308.21533203125 240.4427947998047
v 2074.727783203125 -2308.21533203125 205.9689178466797
v 2075.1171875 -2308.21533203125 205.93177795410156
v 2060.00244140625 -951.7572021484375 189.97503662109375
v 2060.00244140625 -2308.240234375 189.97515869140625
v 2060.00244140625 -951.7572021484375 200.0250244140625
v 2060.00244140625 -2308.240234375 200.025146484375
v 2059.9775390625 -2308.21533203125 189.97515869140625
v 2085.02734375 -2308.21533203125 189.97515869140625
v 2059.9775390625 -2308.21533203125 200.025146484375
v 2085.02734375 -2308.21533203125 200.025146484375
v 2085.00244140625 -2308.240234375 189.97515869140625
v 2085.00244140625 -951.7572021484375 189.97503662109375
v 2085.00244140625 -2308.240234375 200.025146484375
v 2085.00244140625 -951.7572021484375 200.0250244140625
v 2085.02734375 -951.7822265625 189.97503662109375
v 2059.9775390625 -951.7822265625 189.97503662109375
v 2085.02734375 -951.7822265625 200.0250244140625
v 2059.9775390625 -951.7822265625 200.0250244140625
v 2059.9775390625 -951.7572021484375 200.00003051757812
v 2059.9775390625 -2308.240234375 200.00015258789062
v 2085.02734375 -951.7572021484375 200.00003051757812
v 2085.02734375 -2308.240234375 200.00015258789062
v 2110.00244140625 33.178123474121094 -0.025052448734641075
v 2110.00244140625 108.2281265258789 -0.025059012696146965
v 2110.00244140625 33.178184509277344 400.0249328613281
v 2110.00244140625 108.22818756103516 400.0249328613281
v 2110.02734375 108.203125 -0.025059008970856667
v 2034.9774169921875 108.203125 -0.025062287226319313
v 2110.02734375 108.20318603515625 400.0249328613281
v 2034.9774169921875 108.20318603515625 400.0249328613281
v 2035.00244140625 108.2281265258789 -0.02506229095160961
v 2035.00244140625 33.178123474121094 -0.02505572699010372
v 2035.00244140625 108.22818756103516 400.0249328613281
v 2035.00244140625 33.178184509277344 400.0249328613281
v 2034.9774169921875 33.203125 -0.02505573071539402
v 2110.02734375 33.203125 -0.025052452459931374
v 2034.9774169921875 33.20318603515625 400.0249328613281
v 2110.02734375 33.20318603515625 400.0249328613281
v 2100.00244140625 43.178184509277344 395.0249328613281
v 2100.00244140625 98.22818756103516 364.9749450683594
v 2100.00244140625 43.178184509277344 364.9749450683594
v 2100.00244140625 98.22818756103516 395.0249328613281
v 2099.959716796875 43.185508728027344 364.99993896484375
v 2140.009765625 138.2208709716797 364.99993896484375
v 2140.009765625 3.1855082511901855 364.99993896484375
v 2099.959716796875 98.22086334228516 364.99993896484375
v 2140.00244140625 3.1781859397888184 364.9749450683594
v 2140.00244140625 138.22817993164062 395.0249328613281
v 2140.00244140625 3.1781859397888184 395.0249328613281
v 2140.00244140625 138.22817993164062 364.9749450683594
v 2140.009765625 3.1855082511901855 394.99993896484375
v 2099.959716796875 98.22086334228516 394.99993896484375
v 2099.959716796875 43.185508728027344 394.99993896484375
v 2140.009765625 138.2208709716797 394.99993896484375
v 2100.02734375 98.20318603515625 395.0249328613281
v 2044.9774169921875 98.20318603515625 364.9749450683594
v 2100.02734375 98.20318603515625 364.9749450683594
v 2044.9774169921875 98.20318603515625 395.0249328613281
v 2100.02001953125 98.16050720214844 364.99993896484375
v 2004.9847412109375 138.21044921875 364.99993896484375
v 2140.02001953125 138.21051025390625 364.99993896484375
v 2044.9847412109375 98.16050720214844 364.99993896484375
v 2140.02734375 138.20318603515625 364.9749450683594
v 2004.9774169921875 138.20318603515625 395.0249328613281
v 2140.02734375 138.20318603515625 395.0249328613281
v 2004.9774169921875 138.203125 364.9749450683594
v 2140.02001953125 138.21051025390625 394.99993896484375
v 2044.9847412109375 98.16050720214844 394.99993896484375
v 2100.02001953125 98.16050720214844 394.99993896484375
v 2004.9847412109375 138.21051025390625 394.99993896484375
v 2045.00244140625 98.22818756103516 395.0249328613281
v 2045.00244140625 43.178184509277344 364.9749450683594
v 2045.00244140625 98.22818756103516 364.9749450683594
v 2045.00244140625 43.178184509277344 395.0249328613281
v 2045.045166015625 98.22086334228516 364.99993896484375
v 2004.9951171875 3.1854474544525146 364.99993896484375
v 2004.9951171875 138.22080993652344 364.99993896484375
v 2045.045166015625 43.185508728027344 364.99993896484375
v 2005.00244140625 138.22811889648438 364.9749450683594
v 2005.00244140625 3.1781859397888184 395.0249328613281
v 2005.00244140625 138.22817993164062 395.0249328613281
v 2005.00244140625 3.1781249046325684 364.9749450683594
v 2004.9951171875 138.2208709716797 394.99993896484375
v 2045.045166015625 43.185508728027344 394.99993896484375
v 2045.045166015625 98.22086334228516 394.99993896484375
v 2004.9951171875 3.1855082511901855 394.99993896484375
v 2044.9774169921875 43.20318603515625 395.0249328613281
v 2100.02734375 43.20318603515625 364.9749450683594
v 2044.9774169921875 43.20318603515625 364.9749450683594
v 2100.02734375 43.20318603515625 395.0249328613281
v 2044.9847412109375 43.24586486816406 364.99993896484375
v 2140.02001953125 3.195863723754883 364.99993896484375
v 2004.9847412109375 3.195802688598633 364.99993896484375
v 2100.02001953125 43.24586486816406 364.99993896484375
v 2004.9774169921875 3.203125 364.9749450683594
v 2140.02734375 3.20318603515625 395.0249328613281
v 2004.9774169921875 3.20318603515625 395.0249328613281
v 2140.02734375 3.20318603515625 364.9749450683594
v 2004.9847412109375 3.195863723754883 394.99993896484375
v 2100.02001953125 43.24586486816406 394.99993896484375
v 2044.9847412109375 43.24586486816406 394.99993896484375
v 2140.02001953125 3.195863723754883 394.99993896484375
v 2034.9774169921875 33.178184509277344 399.99993896484375
v 2110.02734375 33.178184509277344 399.99993896484375
v 2110.02734375 108.22818756103516 399.99993896484375
v 2034.9774169921875 108.22818756103516 399.99993896484375
v 2110.00244140625 858.1781005859375 -0.025124574080109596
v 2110.00244140625 933.2281494140625 -0.02513113245368004
v 2110.00244140625 858.1781005859375 360.0248718261719
v 2110.00244140625 933.2281494140625 360.0248718261719
v 2110.02734375 933.203125 -0.025131138041615486
v 2034.977294921875 933.203125 -0.025134416297078133
v 2110.02734375 933.203125 360.0248718261719
v 2034.977294921875 933.203125 360.0248718261719
v 2035.0023193359375 933.2281494140625 -0.025134410709142685
v 2035.0023193359375 858.1781005859375 -0.025127854198217392
v 2035.0023193359375 933.2281494140625 360.0248718261719
v 2035.0023193359375 858.1781005859375 360.0248718261719
v 2034.977294921875 858.203125 -0.02512785792350769
v 2110.02734375 858.203125 -0.025124579668045044
v 2034.977294921875 858.203125 360.0248718261719
v 2110.02734375 858.203125 360.0248718261719
v 2100.00244140625 868.1781005859375 355.0248718261719
v 2100.00244140625 923.2281494140625 324.9748840332031
v 2100.00244140625 868.1781005859375 324.9748840332031
v 2100.00244140625 923.2281494140625 355.0248718261719
v 2099.959716796875 868.1854248046875 324.9998779296875
v 2140.009765625 963.2208251953125 324.9998779296875
v 2140.009765625 828.1854248046875 324.9998779296875
v 2099.959716796875 923.2208251953125 324.9998779296875
v 2140.00244140625 828.1781005859375 324.9748840332031
v 2140.00244140625 963.2281494140625 355.0248718261719
v 2140.00244140625 828.1781005859375 355.0248718261719
v 2140.00244140625 963.2281494140625 324.9748840332031
v 2140.009765625 828.1854248046875 354.9998779296875
v 2099.959716796875 923.2208251953125 354.9998779296875
v 2099.959716796875 868.1854248046875 354.9998779296875
v 2140.009765625 963.2208251953125 354.9998779296875
v 2100.02734375 923.203125 355.0248718261719
v 2044.977294921875 923.203125 324.9748840332031
v 2100.02734375 923.203125 324.9748840332031
v 2044.977294921875 923.203125 355.0248718261719
v 2100.02001953125 923.1604614257812 324.9998779296875
v 2004.984619140625 963.21044921875 324.9998779296875
v 2140.02001953125 963.21044921875 324.9998779296875
v 2044.984619140625 923.1604614257812 324.9998779296875
v 2140.02734375 963.203125 324.9748840332031
v 2004.977294921875 963.203125 355.0248718261719
v 2140.02734375 963.203125 355.0248718261719
v 2004.977294921875 963.203125 324.9748840332031
v 2140.02001953125 963.21044921875 354.9998779296875
v 2044.984619140625 923.1604614257812 354.9998779296875
v 2100.02001953125 923.1604614257812 354.9998779296875
v 2004.984619140625 963.21044921875 354.9998779296875
v 2045.0023193359375 923.2281494140625 355.0248718261719
v 2045.0023193359375 868.1781005859375 324.9748840332031
v 2045.0023193359375 923.2281494140625 324.9748840332031
v 2045.0023193359375 868.1781005859375 355.0248718261719
v 2045.0450439453125 923.2208251953125 324.9998779296875
v 2004.9949951171875 828.1854248046875 324.9998779296875
v 2004.9949951171875 963.2208251953125 324.9998779296875
v 2045.0450439453125 868.1854248046875 324.9998779296875
v 2005.0023193359375 963.2281494140625 324.9748840332031
v 2005.0023193359375 828.1781005859375 355.0248718261719
v 2005.0023193359375 963.2281494140625 355.0248718261719
v 2005.0023193359375 828.1781005859375 324.9748840332031
v 2004.9949951171875 963.2208251953125 354.9998779296875
v 2045.0450439453125 868.1854248046875 354.9998779296875
v 2045.0450439453125 923.2208251953125 354.9998779296875
v 2004.9949951171875 828.1854248046875 354.9998779296875
v 2044.977294921875 868.203125 355.0248718261719
v 2100.02734375 868.203125 324.9748840332031
v 2044.977294921875 868.203125 324.9748840332031
v 2100.02734375 868.203125 355.0248718261719
v 2044.984619140625 868.2457885742188 324.9998779296875
v 2140.02001953125 828.19580078125 324.9998779296875
v 2004.984619140625 828.19580078125 324.9998779296875
v 2100.02001953125 868.2457885742188 324.9998779296875
v 2004.977294921875 828.203125 324.9748840332031
v 2140.02734375 828.203125 355.0248718261719
v 2004.977294921875 828.203125 355.0248718261719
v 2140.02734375 828.203125 324.9748840332031
v 2004.984619140625 828.19580078125 354.9998779296875
v 2100.02001953125 868.2457885742188 354.9998779296875
v 2044.984619140625 868.2457885742188 354.9998779296875
v 2140.02001953125 828.19580078125 354.9998779296875
v 2034.977294921875 858.1781005859375 359.9998779296875
v 2110.02734375 858.1781005859375 359.9998779296875
v 2110.02734375 933.2281494140625 359.9998779296875
v 2034.977294921875 933.2281494140625 359.9998779296875
v 2110.00244140625 1683.1781005859375 -0.025196699425578117
v 2110.00244140625 1758.2281494140625 -0.02520325593650341
v 2110.00244140625 1683.1781005859375 320.0247802734375
v 2110.00244140625 1758.2281494140625 320.0247802734375
v 2110.02734375 1758.203125 -0.02520325593650341
v 2034.977294921875 1758.203125 -0.025206534191966057
v 2110.02734375 1758.203125 320.0247802734375
v 2034.977294921875 1758.203125 320.0247802734375
v 2035.0023193359375 1758.2281494140625 -0.025206534191966057
v 2035.0023193359375 1683.1781005859375 -0.025199977681040764
v 2035.0023193359375 1758.2281494140625 320.0247802734375
v 2035.0023193359375 1683.1781005859375 320.0247802734375
v 2034.977294921875 1683.203125 -0.025199977681040764
v 2110.02734375 1683.203125 -0.025196699425578117
v 2034.977294921875 1683.203125 320.0247802734375
v 2110.02734375 1683.203125 320.0247802734375
v 2100.00244140625 1693.1781005859375 315.0247802734375
v 2100.00244140625 1748.2281494140625 284.97479248046875
v 2100.00244140625 1693.1781005859375 284.97479248046875
v 2100.00244140625 1748.2281494140625 315.0247802734375
v 2099.959716796875 1693.1854248046875 284.9997863769531
v 2140.009765625 1788.2208251953125 284.9997863769531
v 2140.009765625 1653.1854248046875 284.99981689453125
v 2099.959716796875 1748.2208251953125 284.9997863769531
v 2140.00244140625 1653.1781005859375 284.9748229980469
v 2140.00244140625 1788.2281494140625 315.0247802734375
v 2140.00244140625 1653.1781005859375 315.0248107910156
v 2140.00244140625 1788.2281494140625 284.97479248046875
v 2140.009765625 1653.1854248046875 314.99981689453125
v 2099.959716796875 1748.2208251953125 314.9997863769531
v 2099.959716796875 1693.1854248046875 314.9997863769531
v 2140.009765625 1788.2208251953125 314.9997863769531
v 2100.02734375 1748.203125 315.0247802734375
v 2044.977294921875 1748.203125 284.97479248046875
v 2100.02734375 1748.203125 284.97479248046875
v 2044.977294921875 1748.203125 315.0247802734375
v 2100.02001953125 1748.160400390625 284.9997863769531
v 2004.984619140625 1788.21044921875 284.9997863769531
v 2140.02001953125 1788.21044921875 284.9997863769531
v 2044.984619140625 1748.160400390625 284.9997863769531
v 2140.02734375 1788.203125 284.97479248046875
v 2004.977294921875 1788.203125 315.0247802734375
v 2140.02734375 1788.203125 315.0247802734375
v 2004.977294921875 1788.203125 284.97479248046875
v 2140.02001953125 1788.21044921875 314.9997863769531
v 2044.984619140625 1748.160400390625 314.9997863769531
v 2100.02001953125 1748.160400390625 314.9997863769531
v 2004.984619140625 1788.21044921875 314.9997863769531
v 2045.0023193359375 1748.2281494140625 315.0247802734375
v 2045.0023193359375 1693.1781005859375 284.97479248046875
v 2045.0023193359375 1748.2281494140625 284.97479248046875
v 2045.0023193359375 1693.1781005859375 315.0247802734375
v 2045.0450439453125 1748.2208251953125 284.9997863769531
v 2004.9949951171875 1653.1854248046875 284.99981689453125
v 2004.9949951171875 1788.2208251953125 284.9997863769531
v 2045.0450439453125 1693.1854248046875 284.9997863769531
v 2005.0023193359375 1788.2281494140625 284.97479248046875
v 2005.0023193359375 1653.1781005859375 315.0248107910156
v 2005.0023193359375 1788.2281494140625 315.0247802734375
v 2005.0023193359375 1653.1781005859375 284.9748229980469
v 2004.9949951171875 1788.2208251953125 314.9997863769531
v 2045.0450439453125 1693.1854248046875 314.9997863769531
v 2045.0450439453125 1748.2208251953125 314.9997863769531
v 2004.9949951171875 1653.1854248046875 314.99981689453125
v 2044.977294921875 1693.203125 315.0247802734375
v 2100.02734375 1693.203125 284.97479248046875
v 2044.977294921875 1693.203125 284.97479248046875
v 2100.02734375 1693.203125 315.0247802734375
v 2044.984619140625 1693.245849609375 284.9997863769531
v 2140.02001953125 1653.19580078125 284.99981689453125
v 2004.984619140625 1653.19580078125 284.99981689453125
v 2100.02001953125 1693.245849609375 284.9997863769531
v 2004.977294921875 1653.203125 284.9748229980469
v 2140.02734375 1653.203125 315.0248107910156
v 2004.977294921875 1653.203125 315.0248107910156
v 2140.02734375 1653.203125 284.9748229980469
v 2004.984619140625 1653.19580078125 314.99981689453125
v 2100.02001953125 1693.245849609375 314.9997863769531
v 2044.984619140625 1693.245849609375 314.9997863769531
v 2140.02001953125 1653.19580078125 314.99981689453125
v 2034.977294921875 1683.1781005859375 319.9997863769531
v 2110.02734375 1683.1781005859375 319.9997863769531
v 2110.02734375 1758.2281494140625 319.9997863769531
v 2034.977294921875 1758.2281494140625 319.9997863769531
v 1085.00244140625 33.190269470214844 -0.025097254663705826
v 1085.00244140625 108.24027252197266 -0.025103818625211716
v 1085.00244140625 33.190330505371094 330.02490234375
v 1085.00244140625 108.2403335571289 330.02490234375
v 1085.0274658203125 108.21527099609375 -0.025103814899921417
v 1009.9774169921875 108.21527099609375 -0.025107093155384064
v 1085.0274658203125 108.21533203125 330.02490234375
v 1009.9774169921875 108.21533203125 330.0248718261719
v 1010.00244140625 108.24027252197266 -0.025107096880674362
v 1010.00244140625 33.190269470214844 -0.025100532919168472
v 1010.00244140625 108.2403335571289 330.0248718261719
v 1010.00244140625 33.190330505371094 330.0248718261719
v 1009.9774169921875 33.21527099609375 -0.02510053478181362
v 1085.0274658203125 33.21527099609375 -0.025097256526350975
v 1009.9774169921875 33.21533203125 330.0248718261719
v 1085.0274658203125 33.21533203125 330.02490234375
v 1075.00244140625 43.190330505371094 325.02490234375
v 1075.00244140625 98.2403335571289 294.97491455078125
v 1075.00244140625 43.190330505371094 294.97491455078125
v 1075.00244140625 98.2403335571289 325.02490234375
v 1074.959716796875 43.197654724121094 294.9999084472656
v 1115.009765625 138.23301696777344 294.9999084472656
v 1115.009765625 3.1976542472839355 294.9999084472656
v 1074.959716796875 98.2330093383789 294.9999084472656
v 1115.00244140625 3.1903319358825684 294.97491455078125
v 1115.00244140625 138.24032592773438 325.02490234375
v 1115.00244140625 3.1903319358825684 325.02490234375
v 1115.00244140625 138.24032592773438 294.97491455078125
v 1115.009765625 3.1976542472839355 324.9999084472656
v 1074.959716796875 98.2330093383789 324.9999084472656
v 1074.959716796875 43.197654724121094 324.9999084472656
v 1115.009765625 138.23301696777344 324.9999084472656
v 1075.0274658203125 98.21533203125 325.02490234375
v 1019.9774169921875 98.21533203125 294.97491455078125
v 1075.0274658203125 98.21533203125 294.97491455078125
v 1019.9774169921875 98.21533203125 325.02490234375
v 1075.0201416015625 98.17265319824219 294.9999084472656
v 979.9847412109375 138.22265625 294.9998779296875
v 1115.0201416015625 138.22265625 294.9999084472656
v 1019.9847412109375 98.17265319824219 294.9999084472656
v 1115.0274658203125 138.21533203125 294.97491455078125
v 979.9774169921875 138.21533203125 325.0248718261719
v 1115.0274658203125 138.21533203125 325.02490234375
v 979.9774169921875 138.21533203125 294.9748840332031
v 1115.0201416015625 138.22265625 324.9999084472656
v 1019.9847412109375 98.17265319824219 324.9999084472656
v 1075.0201416015625 98.17265319824219 324.9999084472656
v 979.9847412109375 138.22265625 324.9998779296875
v 1020.00244140625 98.2403335571289 325.02490234375
v 1020.00244140625 43.190330505371094 294.97491455078125
v 1020.00244140625 98.2403335571289 294.97491455078125
v 1020.00244140625 43.190330505371094 325.02490234375
v 1020.0451049804688 98.2330093383789 294.9999084472656
v 979.9951171875 3.1976542472839355 294.9998779296875
v 979.9951171875 138.23301696777344 294.9998779296875
v 1020.0451049804688 43.197654724121094 294.9999084472656
v 980.00244140625 138.24032592773438 294.9748840332031
v 980.00244140625 3.1903319358825684 325.0248718261719
v 980.00244140625 138.24032592773438 325.0248718261719
v 980.00244140625 3.1903319358825684 294.9748840332031
v 979.9951171875 138.23301696777344 324.9998779296875
v 1020.0451049804688 43.197654724121094 324.9999084472656
v 1020.0451049804688 98.2330093383789 324.9999084472656
v 979.9951171875 3.1976542472839355 324.9998779296875
v 1019.9774169921875 43.21533203125 325.02490234375
v 1075.0274658203125 43.21533203125 294.97491455078125
v 1019.9774169921875 43.21533203125 294.97491455078125
v 1075.0274658203125 43.21533203125 325.02490234375
v 1019.9847412109375 43.25801086425781 294.9999084472656
v 1115.0201416015625 3.208009719848633 294.9999084472656
v 979.9847412109375 3.208009719848633 294.9998779296875
v 1075.0201416015625 43.25801086425781 294.9999084472656
v 979.9774169921875 3.21533203125 294.9748840332031
v 1115.0274658203125 3.21533203125 325.02490234375
v 979.9774169921875 3.21533203125 325.0248718261719
v 1115.0274658203125 3.21533203125 294.97491455078125
v 979.9847412109375 3.208009719848633 324.9998779296875
v 1075.0201416015625 43.25801086425781 324.9999084472656
v 1019.9847412109375 43.25801086425781 324.9999084472656
v 1115.0201416015625 3.208009719848633 324.9999084472656
v 1009.9774169921875 33.190330505371094 329.9998779296875
v 1085.0274658203125 33.190330505371094 329.9999084472656
v 1085.0274658203125 108.2403335571289 329.9999084472656
v 1009.9774169921875 108.2403335571289 329.9998779296875
v 1085.00244140625 858.1903076171875 -0.025169380009174347
v 1085.00244140625 933.2403564453125 -0.02517593652009964
v 1085.00244140625 858.1903076171875 300.02484130859375
v 1085.00244140625 933.2403564453125 300.02484130859375
v 1085.0274658203125 933.21533203125 -0.02517593465745449
v 1009.977294921875 933.21533203125 -0.025179212912917137
v 1085.0274658203125 933.21533203125 300.02484130859375
v 1009.977294921875 933.21533203125 300.0248107910156
v 1010.0023193359375 933.2403564453125 -0.025179212912917137
v 1010.0023193359375 858.1903076171875 -0.025172656401991844
v 1010.0023193359375 933.2403564453125 300.0248107910156
v 1010.0023193359375 858.1903076171875 300.0248107910156
v 1009.977294921875 858.21533203125 -0.025172656401991844
v 1085.0274658203125 858.21533203125 -0.025169378146529198
v 1009.977294921875 858.21533203125 300.0248107910156
v 1085.0274658203125 858.21533203125 300.02484130859375
v 1075.0023193359375 868.1903076171875 295.02484130859375
v 1075.0023193359375 923.2403564453125 264.974853515625
v 1075.0023193359375 868.1903076171875 264.974853515625
v 1075.0023193359375 923.2403564453125 295.02484130859375
v 1074.9595947265625 868.1976318359375 264.9998474121094
v 1115.009765625 963.2330322265625 264.9998474121094
v 1115.009765625 828.1976318359375 264.9998474121094
v 1074.9595947265625 923.2330322265625 264.9998474121094
v 1115.00244140625 828.1903076171875 264.974853515625
v 1115.00244140625 963.2403564453125 295.02484130859375
v 1115.00244140625 828.1903076171875 295.02484130859375
v 1115.00244140625 963.2403564453125 264.974853515625
v 1115.009765625 828.1976318359375 294.9998474121094
v 1074.9595947265625 923.2330322265625 294.9998474121094
v 1074.9595947265625 868.1976318359375 294.9998474121094
v 1115.009765625 963.2330322265625 294.9998474121094
v 1075.02734375 923.21533203125 295.02484130859375
v 1019.977294921875 923.21533203125 264.974853515625
v 1075.02734375 923.21533203125 264.974853515625
v 1019.977294921875 923.21533203125 295.02484130859375
v 1075.02001953125 923.1726684570312 264.9998474121094
v 979.984619140625 963.22265625 264.99981689453125
v 1115.0201416015625 963.22265625 264.9998474121094
v 1019.984619140625 923.1726684570312 264.9998474121094
v 1115.0274658203125 963.21533203125 264.974853515625
v 979.977294921875 963.21533203125 295.0248107910156
v 1115.0274658203125 963.21533203125 295.02484130859375
v 979.977294921875 963.21533203125 264.9748229980469
v 1115.0201416015625 963.22265625 294.9998474121094
v 1019.984619140625 923.1726684570312 294.9998474121094
v 1075.02001953125 923.1726684570312 294.9998474121094
v 979.984619140625 963.22265625 294.99981689453125
v 1020.0023193359375 923.2403564453125 295.02484130859375
v 1020.0023193359375 868.1903076171875 264.974853515625
v 1020.0023193359375 923.2403564453125 264.974853515625
v 1020.0023193359375 868.1903076171875 295.02484130859375
v 1020.0449829101562 923.2330322265625 264.9998474121094
v 979.9949951171875 828.1976318359375 264.99981689453125
v 979.9949951171875 963.2330322265625 264.99981689453125
v 1020.0449829101562 868.1976318359375 264.9998474121094
v 980.0023193359375 963.2403564453125 264.9748229980469
v 980.0023193359375 828.1903076171875 295.0248107910156
v 980.0023193359375 963.2403564453125 295.0248107910156
v 980.0023193359375 828.1903076171875 264.9748229980469
v 979.9949951171875 963.2330322265625 294.99981689453125
v 1020.0449829101562 868.1976318359375 294.9998474121094
v 1020.0449829101562 923.2330322265625 294.9998474121094
v 979.9949951171875 828.1976318359375 294.99981689453125
v 1019.977294921875 868.21533203125 295.02484130859375
v 1075.02734375 868.21533203125 264.974853515625
v 1019.977294921875 868.21533203125 264.974853515625
v 1075.02734375 868.21533203125 295.02484130859375
v 1019.984619140625 868.2579956054688 264.9998474121094
v 1115.0201416015625 828.2080078125 264.9998474121094
v 979.984619140625 828.2080078125 264.99981689453125
v 1075.02001953125 868.2579956054688 264.9998474121094
v 979.977294921875 828.21533203125 264.9748229980469
v 1115.0274658203125 828.21533203125 295.02484130859375
v 979.977294921875 828.21533203125 295.0248107910156
v 1115.0274658203125 828.21533203125 264.974853515625
v 979.984619140625 828.2080078125 294.99981689453125
v 1075.02001953125 868.2579956054688 294.9998474121094
v 1019.984619140625 868.2579956054688 294.9998474121094
v 1115.0201416015625 828.2080078125 294.9998474121094
v 1009.977294921875 858.1903076171875 299.99981689453125
v 1085.0274658203125 858.1903076171875 299.9998474121094
v 1085.0274658203125 933.2403564453125 299.9998474121094
v 1009.977294921875 933.2403564453125 299.99981689453125
v 1085.0023193359375 1683.1903076171875 -0.025241505354642868
v 1085.0023193359375 1758.2403564453125 -0.02524806186556816
v 1085.0023193359375 1683.1903076171875 260.0247497558594
v 1085.0023193359375 1758.2403564453125 260.0247497558594
v 1085.02734375 1758.21533203125 -0.02524806186556816
v 1009.977294921875 1758.21533203125 -0.025251340121030807
v 1085.02734375 1758.21533203125 260.0247497558594
v 1009.977294921875 1758.21533203125 260.02471923828125
v 1010.0023193359375 1758.2403564453125 -0.025251340121030807
v 1010.0023193359375 1683.1903076171875 -0.025244783610105515
v 1010.0023193359375 1758.2403564453125 260.02471923828125
v 1010.0023193359375 1683.1903076171875 260.02471923828125
v 1009.977294921875 1683.21533203125 -0.025244783610105515
v 1085.02734375 1683.21533203125 -0.025241505354642868
v 1009.977294921875 1683.21533203125 260.02471923828125
v 1085.02734375 1683.21533203125 260.0247497558594
v 1075.002197265625 1693.1903076171875 245.0247344970703
v 1075.002197265625 1748.2403564453125 214.97474670410156
v 1075.002197265625 1693.1903076171875 214.97474670410156
v 1075.002197265625 1748.2403564453125 245.0247344970703
v 1074.95947265625 1693.1976318359375 214.99974060058594
v 1115.0096435546875 1788.2330322265625 214.99972534179688
v 1115.0096435546875 1653.1976318359375 214.99974060058594
v 1074.95947265625 1748.2330322265625 214.99974060058594
v 1115.0023193359375 1653.1903076171875 214.97474670410156
v 1115.0023193359375 1788.2403564453125 245.02471923828125
v 1115.0023193359375 1653.1903076171875 245.0247344970703
v 1115.0023193359375 1788.2403564453125 214.9747314453125
v 1115.0096435546875 1653.1976318359375 244.99974060058594
v 1074.95947265625 1748.2330322265625 244.99974060058594
v 1074.95947265625 1693.1976318359375 244.99974060058594
v 1115.0096435546875 1788.2330322265625 244.99972534179688
v 1075.0272216796875 1748.21533203125 245.0247344970703
v 1019.977294921875 1748.21533203125 214.97474670410156
v 1075.0272216796875 1748.21533203125 214.97474670410156
v 1019.977294921875 1748.21533203125 245.0247344970703
v 1075.0198974609375 1748.172607421875 214.99974060058594
v 979.984619140625 1788.22265625 214.99972534179688
v 1115.02001953125 1788.22265625 214.99972534179688
v 1019.984619140625 1748.172607421875 214.99974060058594
v 1115.02734375 1788.21533203125 214.9747314453125
v 979.977294921875 1788.21533203125 245.02471923828125
v 1115.02734375 1788.21533203125 245.02471923828125
v 979.977294921875 1788.21533203125 214.9747314453125
v 1115.02001953125 1788.22265625 244.99972534179688
v 1019.984619140625 1748.172607421875 244.99974060058594
v 1075.0198974609375 1748.172607421875 244.99974060058594
v 979.984619140625 1788.22265625 244.99972534179688
v 1020.0023193359375 1748.2403564453125 245.0247344970703
v 1020.0023193359375 1693.1903076171875 214.97474670410156
v 1020.0023193359375 1748.2403564453125 214.97474670410156
v 1020.0023193359375 1693.1903076171875 245.0247344970703
v 1020.0449829101562 1748.2330322265625 214.99974060058594
v 979.9949951171875 1653.1976318359375 214.99974060058594
v 979.9949951171875 1788.2330322265625 214.99972534179688
v 1020.0449829101562 1693.1976318359375 214.99974060058594
v 980.0023193359375 1788.2403564453125 214.9747314453125
v 980.0023193359375 1653.1903076171875 245.0247344970703
v 980.0023193359375 1788.2403564453125 245.02471923828125
v 980.0023193359375 1653.1903076171875 214.97474670410156
v 979.9949951171875 1788.2330322265625 244.99972534179688
v 1020.0449829101562 1693.1976318359375 244.99974060058594
v 1020.0449829101562 1748.2330322265625 244.99974060058594
v 979.9949951171875 1653.1976318359375 244.99974060058594
v 1019.977294921875 1693.21533203125 245.0247344970703
v 1075.0272216796875 1693.21533203125 214.97474670410156
v 1019.977294921875 1693.21533203125 214.97474670410156
v 1075.0272216796875 1693.21533203125 245.0247344970703
v 1019.984619140625 1693.258056640625 214.99974060058594
v 1115.02001953125 1653.2080078125 214.99974060058594
v 979.984619140625 1653.2080078125 214.99974060058594
v 1075.0198974609375 1693.258056640625 214.99974060058594
v 979.977294921875 1653.21533203125 214.97474670410156
v 1115.02734375 1653.21533203125 245.0247344970703
v 979.977294921875 1653.21533203125 245.0247344970703
v 1115.02734375 1653.21533203125 214.97474670410156
v 979.984619140625 1653.2080078125 244.99974060058594
v 1075.0198974609375 1693.258056640625 244.99974060058594
v 1019.984619140625 1693.258056640625 244.99974060058594
v 1115.02001953125 1653.2080078125 244.99974060058594
v 1009.977294921875 1683.1903076171875 259.9997253417969
v 1085.02734375 1683.1903076171875 259.999755859375
v 1085.02734375 1758.2403564453125 259.999755859375
v 1009.977294921875 1758.2403564453125 259.9997253417969
v 610.2348022460938 -1291.7696533203125 299.9750061035156
v -289.81488037109375 -1391.7996826171875 299.9749755859375
v 610.2348022460938 -1291.7696533203125 305.0249938964844
v -289.81488037109375 -1391.7996826171875 305.02496337890625
v -289.7900390625 -1391.7718505859375 299.9749755859375
v -289.77783203125 -1516.8218994140625 299.9750061035156
v -289.7900390625 -1391.7718505859375 305.02496337890625
v -289.77783203125 -1516.8218994140625 305.0249938964844
v -289.80267333984375 -1516.7996826171875 299.9750061035156
v 610.2346801757812 -1416.7696533203125 299.9750061035156
v -289.80267333984375 -1516.7996826171875 305.0249938964844
v 610.2346801757812 -1416.7696533203125 305.0249938964844
v 610.2099609375 -1416.7974853515625 299.9750061035156
v 610.2099609375 -1291.7474365234375 299.9750061035156
v 610.2099609375 -1416.7974853515625 305.0249938964844
v 610.2099609375 -1291.7474365234375 305.0249938964844
v -289.81781005859375 -1391.77197265625 299.9999694824219
v 610.232177734375 -1291.74755859375 300.0
v -289.8000793457031 -1516.82177734375 300.0
v 610.2377319335938 -1416.79736328125 300.0
v -289.81781005859375 -1391.77197265625 304.9999694824219
v -289.8000793457031 -1516.82177734375 305.0
v 610.232177734375 -1291.74755859375 305.0
v 610.2377319335938 -1416.79736328125 305.0
v 660.2349243164062 -1491.771240234375 299.97503662109375
v -314.80279541015625 -1541.798095703125 299.9750061035156
v 660.2349243164062 -1491.771240234375 305.0250244140625
v -314.80279541015625 -1541.798095703125 305.0249938964844
v -314.77783203125 -1541.7718505859375 299.9750061035156
v -314.77783203125 -1666.822021484375 299.9750061035156
v -314.77783203125 -1541.7718505859375 305.0249938964844
v -314.77783203125 -1666.822021484375 305.0249938964844
v -314.8028259277344 -1666.797607421875 299.9750061035156
v 635.2472534179688 -1641.7718505859375 299.97503662109375
v -314.8028259277344 -1666.797607421875 305.0249938964844
v 635.2472534179688 -1641.7718505859375 305.0250244140625
v 635.2180786132812 -1641.797119140625 299.97503662109375
v 660.2140502929688 -1491.747802734375 299.97503662109375
v 635.2180786132812 -1641.797119140625 305.0250244140625
v 660.2140502929688 -1491.747802734375 305.0250244140625
v -314.8041076660156 -1541.7718505859375 300.0
v 635.2474975585938 -1641.801513671875 300.0000305175781
v -314.80218505859375 -1666.822021484375 300.0
v 660.2333374023438 -1491.7515869140625 300.0000305175781
v -314.8041076660156 -1541.7718505859375 305.0
v -314.80218505859375 -1666.822021484375 305.0
v 635.2474975585938 -1641.801513671875 305.0000305175781
v 660.2333374023438 -1491.7515869140625 305.0000305175781
v -314.76519775390625 -1241.7996826171875 299.9749755859375
v -1189.8148193359375 -1141.806396484375 299.97491455078125
v -314.76519775390625 -1241.7996826171875 305.02496337890625
v -1189.8148193359375 -1141.806396484375 305.02490234375
v -1189.7900390625 -1141.7841796875 299.97491455078125
v -1189.7900390625 -1291.834228515625 299.97491455078125
v -1189.7900390625 -1141.7841796875 305.02490234375
v -1189.7900390625 -1291.834228515625 305.02490234375
v -1189.8148193359375 -1291.806396484375 299.97491455078125
v -314.76495361328125 -1391.7996826171875 299.9749755859375
v -1189.8148193359375 -1291.806396484375 305.02490234375
v -314.76495361328125 -1391.7996826171875 305.02496337890625
v -314.7900390625 -1391.8218994140625 299.9749755859375
v -314.7900390625 -1241.7718505859375 299.9749755859375
v -314.7900390625 -1391.8218994140625 305.02496337890625
v -314.7900390625 -1241.7718505859375 305.02496337890625
v -1189.812255859375 -1141.784423828125 299.9999084472656
v -314.76220703125 -1241.7720947265625 299.9999694824219
v -1189.81787109375 -1291.833984375 299.9999084472656
v -314.76788330078125 -1391.8216552734375 299.9999694824219
v -1189.812255859375 -1141.784423828125 304.9999084472656
v -1189.81787109375 -1291.833984375 304.9999084472656
v -314.76220703125 -1241.7720947265625 304.9999694824219
v -314.76788330078125 -1391.8216552734375 304.9999694824219
v 2060.00244140625 2008.2403564453125 -0.025227297097444534
v 2060.00244140625 1719.17724609375 -0.05020202696323395
v 2060.00244140625 2008.2403564453125 190.02476501464844
v 2060.00244140625 1719.2022705078125 190.02479553222656
v 2060.00244140625 -711.8048095703125 -0.02498950995504856
v 2060.00244140625 -711.8297729492188 190.00001525878906
v 2059.9775390625 -711.77978515625 -0.024989508092403412
v 2085.02734375 -711.77978515625 -0.024988414719700813
v 2059.9775390625 -711.77978515625 190.02500915527344
v 2085.02734375 -711.77978515625 190.02500915527344
v 2085.00244140625 -711.8048095703125 -0.024988414719700813
v 2085.00244140625 2008.2398681640625 -0.025226205587387085
v 2085.00244140625 -711.8048095703125 190.02500915527344
v 2085.00244140625 2008.2398681640625 190.02476501464844
v 2085.02734375 2008.21533203125 -0.025226205587387085
v 2059.9775390625 2008.21533203125 -0.025227297097444534
v 2085.02734375 2008.21533203125 190.02476501464844
v 2059.9775390625 2008.21533203125 190.02476501464844
v 2075.00244140625 1719.2022705078125 240.46719360351562
v 2075.094970703125 -711.8048095703125 205.93142700195312
v 2075.0947265625 1719.2022705078125 205.93121337890625
v 2075.00244140625 -711.8048095703125 240.4674072265625
v 2074.755126953125 1719.2022705078125 205.96824645996094
v 2075.002685546875 -711.8048095703125 240.4674072265625
v 2075.002685546875 1719.2022705078125 240.46719360351562
v 2074.75537109375 -711.8048095703125 205.9684600830078
v 2075.116943359375 1719.17724609375 205.93142700195312
v 2074.7275390625 1719.17724609375 205.96856689453125
v 2075.00244140625 1719.17724609375 240.44244384765625
v 2075.00244140625 -711.77978515625 240.44265747070312
v 2074.727783203125 -711.77978515625 205.96878051757812
v 2075.1171875 -711.77978515625 205.931640625
v 2060.00244140625 2008.2403564453125 189.9747772216797
v 2060.00244140625 1719.1522216796875 189.9748077392578
v 2060.002197265625 2008.2403564453125 200.02476501464844
v 2060.00244140625 1719.17724609375 200.02479553222656
v 2060.00244140625 -711.8048095703125 200.02500915527344
v 2059.9775390625 -711.77978515625 189.9750213623047
v 2085.02734375 -711.77978515625 189.9750213623047
v 2059.9775390625 -711.77978515625 200.02500915527344
v 2085.02734375 -711.77978515625 200.02500915527344
v 2085.00244140625 -711.8048095703125 189.9750213623047
v 2085.00244140625 2008.2398681640625 189.9747772216797
v 2085.00244140625 -711.8048095703125 200.02500915527344
v 2085.002197265625 2008.2398681640625 200.02476501464844
v 2085.02734375 2008.21533203125 189.9747772216797
v 2059.9775390625 2008.21533203125 189.9747772216797
v 2085.027099609375 2008.21533203125 200.02476501464844
v 2059.977294921875 2008.21533203125 200.02476501464844
v 2059.952392578125 1719.17724609375 199.9998016357422
v 2059.9775390625 -711.8048095703125 200.00001525878906
v 2085.027099609375 2008.2403564453125 199.99977111816406
v 2059.977294921875 2008.2403564453125 199.99977111816406
v 2085.02734375 -711.8048095703125 200.00001525878906
v 2060.00244140625 -941.7596435546875 -0.02496940642595291
v 2060.00244140625 -951.8071899414062 -0.024968525394797325
v 2060.00244140625 -941.7596435546875 200.0250244140625
v 2060.00244140625 -951.80712890625 200.0250244140625
v 2059.9775390625 -951.7821655273438 -0.024968529120087624
v 2085.01513671875 -951.7821655273438 -0.024967435747385025
v 2059.9775390625 -951.7821044921875 200.0250244140625
v 2085.01513671875 -951.7821044921875 200.0250244140625
v 2084.990234375 -951.8071899414062 -0.024967432022094727
v 2084.990234375 -941.7596435546875 -0.024968313053250313
v 2084.990234375 -951.80712890625 200.0250244140625
v 2084.990234375 -941.7596435546875 200.0250244140625
v 2085.01513671875 -941.78466796875 -0.024968309327960014
v 2059.9775390625 -941.78466796875 -0.024969402700662613
v 2085.01513671875 -941.78466796875 200.0250244140625
v 2059.9775390625 -941.78466796875 200.0250244140625
v 2059.9775390625 -941.7596435546875 200.00003051757812
v 2059.9775390625 -951.80712890625 200.00003051757812
v 2085.01513671875 -941.7596435546875 200.00003051757812
v 2085.01513671875 -951.80712890625 200.00003051757812
v 2060.00244140625 -711.7547607421875 -0.024989521130919456
v 2060.00244140625 -721.8023071289062 -0.024988632649183273
v 2060.00244140625 -711.7546997070312 200.02500915527344
v 2060.00244140625 -721.80224609375 200.02500915527344
v 2059.9775390625 -721.7772827148438 -0.024988636374473572
v 2085.01513671875 -721.7772827148438 -0.024987543001770973
v 2059.9775390625 -721.7772216796875 200.02500915527344
v 2085.01513671875 -721.7772216796875 200.02500915527344
v 2084.990234375 -721.8023071289062 -0.024987539276480675
v 2084.990234375 -711.7547607421875 -0.024988429620862007
v 2084.990234375 -721.80224609375 200.02500915527344
v 2084.990234375 -711.7546997070312 200.02500915527344
v 2085.01513671875 -711.77978515625 -0.024988418444991112
v 2059.9775390625 -711.77978515625 -0.02498950995504856
v 2085.01513671875 -711.7797241210938 200.02500915527344
v 2059.9775390625 -711.7797241210938 200.02500915527344
v 2059.9775390625 -711.7546997070312 200.00001525878906
v 2059.9775390625 -721.80224609375 200.00001525878906
v 2085.01513671875 -711.7546997070312 200.00001525878906
v 2085.01513671875 -721.80224609375 200.00001525878906
f 4 2 3
f 2 1 3
f 737 736 738
f 739 737 738
f 733 732 734
f 735 733 734
f 729 728 730
f 731 729 730
f 109 108 110
f 111 109 110
f 105 104 106
f 107 105 106
f 101 100 102
f 103 101 102
f 97 96 98
f 99 97 98
f 56 55 57
f 58 56 57
f 52 51 53
f 54 52 53
f 48 47 49
f 50 48 49
f 6 5 7
f 8 6 7
f 14 13 12
f 13 10 12
f 12 10 11
f 10 9 11
f 727 726 725
f 726 723 725
f 725 723 724
f 723 722 724
f 30 29 31
f 32 30 31
f 86 85 87
f 88 86 87
f 82 81 83
f 84 82 83
f 43 42 44
f 46 43 44
f 45 43 46
f 94 93 45
f 95 94 45
f 14 12 40
f 41 14 40
f 38 37 39
f 40 38 39
f 34 33 35
f 36 34 35
f 813 812 814
f 815 813 814
f 809 808 810
f 811 809 810
f 805 804 806
f 807 805 806
f 801 800 802
f 803 801 802
f 797 796 798
f 799 797 798
f 793 792 794
f 795 793 794
f 789 788 790
f 791 789 790
f 785 784 786
f 787 785 786
f 781 780 782
f 783 781 782
f 777 776 778
f 779 777 778
f 768 767 769
f 770 768 769
f 764 763 765
f 766 764 765
f 760 759 761
f 762 760 761
f 727 725 757
f 758 727 757
f 755 754 756
f 757 755 756
f 643 645 642
f 643 642 644
f 639 641 638
f 639 638 640
f 635 637 634
f 635 634 636
f 631 633 630
f 631 630 632
f 627 629 626
f 627 626 628
f 623 625 622
f 623 622 624
f 619 621 618
f 619 618 620
f 615 617 614
f 615 614 616
f 611 613 610
f 611 610 612
f 607 609 606
f 607 606 608
f 603 605 602
f 603 602 604
f 599 601 598
f 599 598 600
f 595 597 594
f 595 594 596
f 591 593 590
f 591 590 592
f 587 589 586
f 587 586 588
f 583 585 582
f 583 582 584
f 579 578 580
f 581 579 580
f 575 574 576
f 577 575 576
f 571 570 572
f 573 571 572
f 567 566 568
f 569 567 568
f 559 561 558
f 559 558 560
f 555 557 554
f 555 554 556
f 551 553 550
f 551 550 552
f 547 549 546
f 547 546 548
f 543 545 542
f 543 542 544
f 539 541 538
f 539 538 540
f 535 537 534
f 535 534 536
f 531 533 530
f 531 530 532
f 527 529 526
f 527 526 528
f 523 525 522
f 523 522 524
f 519 521 518
f 519 518 520
f 515 517 514
f 515 514 516
f 511 513 510
f 511 510 512
f 507 509 506
f 507 506 508
f 503 505 502
f 503 502 504
f 499 501 498
f 499 498 500
f 495 494 496
f 497 495 496
f 491 490 492
f 493 491 492
f 487 486 488
f 489 487 488
f 483 482 484
f 485 483 484
f 475 477 474
f 475 474 476
f 471 473 470
f 471 470 472
f 467 469 466
f 467 466 468
f 463 465 462
f 463 462 464
f 459 461 458
f 459 458 460
f 455 457 454
f 455 454 456
f 451 453 450
f 451 450 452
f 447 449 446
f 447 446 448
f 443 445 442
f 443 442 444
f 439 441 438
f 439 438 440
f 435 437 434
f 435 434 436
f 431 433 430
f 431 430 432
f 427 429 426
f 427 426 428
f 423 425 422
f 423 422 424
f 419 421 418
f 419 418 420
f 415 417 414
f 415 414 416
f 411 410 412
f 413 411 412
f 407 406 408
f 409 407 408
f 403 402 404
f 405 403 404
f 399 398 400
f 401 399 400
f 391 393 390
f 391 390 392
f 387 389 386
f 387 386 388
f 383 385 382
f 383 382 384
f 379 381 378
f 379 378 380
f 375 377 374
f 375 374 376
f 371 373 370
f 371 370 372
f 367 369 366
f 367 366 368
f 363 365 362
f 363 362 364
f 359 361 358
f 359 358 360
f 355 357 354
f 355 354 356
f 351 353 350
f 351 350 352
f 347 349 346
f 347 346 348
f 343 345 342
f 343 342 344
f 339 341 338
f 339 338 340
f 335 337 334
f 335 334 336
f 331 333 330
f 331 330 332
f 327 326 328
f 329 327 328
f 323 322 324
f 325 323 324
f 319 318 320
f 321 319 320
f 315 314 316
f 317 315 316
f 307 309 306
f 307 306 308
f 303 305 302
f 303 302 304
f 299 301 298
f 299 298 300
f 295 297 294
f 295 294 296
f 291 293 290
f 291 290 292
f 287 289 286
f 287 286 288
f 283 285 282
f 283 282 284
f 279 281 278
f 279 278 280
f 275 277 274
f 275 274 276
f 271 273 270
f 271 270 272
f 267 269 266
f 267 266 268
f 263 265 262
f 263 262 264
f 259 261 258
f 259 258 260
f 255 257 254
f 255 254 256
f 251 253 250
f 251 250 252
f 247 249 246
f 247 246 248
f 243 242 244
f 245 243 244
f 239 238 240
f 241 239 240
f 235 234 236
f 237 235 236
f 231 230 232
f 233 231 232
f 223 225 222
f 223 222 224
f 219 221 218
f 219 218 220
f 215 217 214
f 215 214 216
f 211 213 210
f 211 210 212
f 207 209 206
f 207 206 208
f 203 205 202
f 203 202 204
f 199 201 198
f 199 198 200
f 195 197 194
f 195 194 196
f 191 193 190
f 191 190 192
f 187 189 186
f 187 186 188
f 183 185 182
f 183 182 184
f 179 181 178
f 179 178 180
f 175 177 174
f 175 174 176
f 171 173 170
f 171 170 172
f 167 169 166
f 167 166 168
f 163 165 162
f 163 162 164
f 159 158 160
f 161 159 160
f 155 154 156
f 157 155 156
f 151 150 152
f 153 151 152
f 147 146 148
f 149 147 148
f 143 142 144
f 145 143 144
f 139 138 140
f 141 139 140
f 135 134 136
f 137 135 136
f 131 130 132
f 133 131 132
f 127 126 128
f 129 127 128
f 90 89 91
f 92 90 91
f 227 226 228
f 226 229 228
f 311 310 312
f 310 313 312
f 395 394 396
f 394 397 396
f 479 478 480
f 478 481 480
f 563 562 564
f 562 565 564
f 647 646 648
f 646 649 648
f 775 772 773
f 772 771 773
f 771 774 773
f 651 650 652
f 653 651 652
f 719 718 720
f 721 719 720
f 715 714 716
f 715 716 717
f 711 710 712
f 713 711 712
f 707 706 708
f 709 707 708
f 703 702 704
f 705 703 704
f 699 698 700
f 701 699 700
f 687 686 688
f 689 687 688
f 683 682 684
f 685 683 684
f 679 678 680
f 681 679 680
f 675 674 676
f 677 675 676
f 671 670 672
f 673 671 672
f 667 666 668
f 667 668 669
f 663 662 664
f 665 663 664
f 659 658 660
f 661 659 660
f 655 654 656
f 657 655 656
f 693 690 691
f 691 690 692
f 695 694 696
f 696 694 697
f 24 23 25
f 20 22 19
f 20 19 21
f 16 18 15
f 16 15 17
f 60 62 59
f 60 59 61
f 64 66 63
f 64 63 65
f 68 70 67
f 68 67 69
f 72 74 71
f 72 71 73
f 113 115 112
f 113 112 114
f 117 119 116
f 117 116 118
f 741 743 740
f 741 740 742
f 745 747 744
f 745 744 746
f 27 26 28
f 752 751 753
f 76 75 77
f 749 748 750
f 79 78 80
f 124 123 125
f 121 120 122
