# from FinancialDistrict_Block33_Generic_0001_LOD_0.pskx
v 1418.863037109375 321.889892578125 0.00015723535034339875
v -358.7003173828125 1254.1142578125 -1.9620588318502996e-06
v 1418.863037109375 321.889892578125 25.00015640258789
v -358.7003173828125 1254.1142578125 24.999998092651367
v -358.7003173828125 1254.1142578125 -1.9620588318502996e-06
v -1255.870849609375 -454.6810302734375 0.00010820900206454098
v -358.7003173828125 1254.1142578125 24.999998092651367
v -1255.870849609375 -454.6810302734375 25.00010871887207
v -1255.870849609375 -454.6810302734375 0.00010820900206454098
v 521.6926879882812 -1386.9053955078125 0.00026740640169009566
v -1255.870849609375 -454.6810302734375 25.000104904174805
v 521.6926879882812 -1386.9053955078125 25.000263214111328
v 521.6926879882812 -1386.9053955078125 0.00026740640169009566
v 1418.863037109375 321.89007568359375 0.00015723533579148352
v 521.6926879882812 -1386.9053955078125 25.000263214111328
v 1418.863037109375 321.89007568359375 25.000152587890625
v -358.7003173828125 1254.1142578125 24.999998092651367
v -350.91217041015625 1193.67578125 25.000003814697266
v 1367.2362060546875 292.60308837890625 25.000158309936523
v 1377.9713134765625 270.0147705078125 25.000160217285156
v 1418.863037109375 321.889892578125 25.00015640258789
v -1255.870849609375 -454.6810302734375 25.00010871887207
v -1207.884765625 -406.35693359375 25.000106811523438
v -1161.3944091796875 -317.8123779296875 25.000102996826172
v -1148.6248779296875 -324.5093994140625 25.000102996826172
v -1139.32373046875 -306.793212890625 25.00010108947754
v -1021.9412841796875 -52.197265625 25.000085830688477
v -975.4629516601562 36.341064453125 25.000078201293945
v -962.1849975585938 29.377197265625 25.000078201293945
v -955.208740234375 42.664794921875 25.000076293945312
v -905.7303466796875 169.1517333984375 25.000070571899414
v -673.3145751953125 611.843505859375 25.000038146972656
v -660.036376953125 604.8798828125 25.00004005432129
v -653.060546875 618.167236328125 25.00004005432129
v -603.58203125 744.6603393554688 25.000030517578125
v -557.09765625 833.19873046875 25.000024795532227
v -543.8223876953125 826.236328125 25.00002670288086
v -536.849609375 839.5162353515625 25.000024795532227
v -417.650634765625 1098.813720703125 25.00000762939453
v -371.1602478027344 1187.3583984375 25.000001907348633
v -357.88458251953125 1180.3958740234375 25.0000057220459
v -859.2520141601562 257.69000244140625 25.000062942504883
v -719.79296875 523.3114013671875 25.000045776367188
v 521.6926879882812 -1386.9053955078125 25.000267028808594
v 514.9737548828125 -1332.4674072265625 25.000263214111328
v -1204.400634765625 -430.75048828125 25.000110626220703
v 1331.5301513671875 181.452880859375 25.000165939331055
v 1313.8162841796875 190.7430419921875 25.000164031982422
v 1306.858154296875 177.4754638671875 25.000164031982422
v 1192.1881103515625 -84.233642578125 25.000185012817383
v 1145.7469482421875 -172.78955078125 25.00019073486328
v 1128.033203125 -163.499267578125 25.000186920166016
v 1121.074951171875 -176.76708984375 25.00018882751465
v 1076.081787109375 -305.623779296875 25.000198364257812
v 1029.6343994140625 -394.1796875 25.00020408630371
v 1020.782958984375 -389.5374755859375 25.00020408630371
v 890.2984619140625 -659.8721923828125 25.000219345092773
v 843.8511962890625 -748.434326171875 25.000225067138672
v 826.1419677734375 -739.146484375 25.000225067138672
v 819.1854248046875 -752.4114990234375 25.000225067138672
v 774.1802978515625 -881.2806396484375 25.000234603881836
v 727.7447509765625 -969.8243408203125 25.000240325927734
v 710.0333251953125 -960.5352783203125 25.0002384185791
v 703.0731201171875 -973.8074951171875 25.0002384185791
v 588.40283203125 -1235.5169677734375 25.000255584716797
v 541.95556640625 -1324.0789794921875 25.000261306762695
v 524.2445068359375 -1314.7901611328125 25.000261306762695
v 1181.4527587890625 -61.639404296875 25.000181198120117
v -411.345458984375 1078.5716552734375 25.000009536743164
v -404.37359619140625 1091.8505859375 25.000009536743164
v 1360.2611083984375 279.3031005859375 25.000158309936523
v 1068.3284912109375 -284.6070556640625 25.00019645690918
v -597.282958984375 724.41796875 25.000032424926758
v -590.3094482421875 737.699462890625 25.000032424926758
v 1174.475341796875 -74.9439697265625 25.000181198120117
v 579.9953002929688 -1208.4866943359375 25.000253677368164
v -1015.6419677734375 -72.439453125 25.00008773803711
v -1008.6688232421875 -59.157958984375 25.000085830688477
v -899.4312744140625 148.9095458984375 25.000070571899414
v 763.4451904296875 -858.6861572265625 25.00023078918457
v 756.4677734375 -871.9910888671875 25.000232696533203
v -1195.111328125 -413.0560302734375 25.00010871887207
v 570.6909790039062 -1226.2276611328125 25.000255584716797
v 846.0181884765625 -636.6492919921875 25.000215530395508
v 985.357666015625 -370.9586181640625 25.000200271606445
v 1061.3515625 -297.8985595703125 25.000198364257812
v 881.441162109375 -655.226806640625 25.000219345092773
v -892.4566040039062 162.190185546875 25.00006866455078
v 1377.9713134765625 270.0147705078125 25.000160217285156
v -371.1604309082031 1187.3583984375 25.000001907348633
v 1377.9713134765625 270.01495361328125 2060.0
v -371.1605224609375 1187.358642578125 2060.0
v -371.1602478027344 1187.3583984375 25.000001907348633
v -417.650634765625 1098.813720703125 25.00000762939453
v -371.16033935546875 1187.3585205078125 2060.0
v -417.65069580078125 1098.81396484375 2060.0
v -417.650634765625 1098.813720703125 25.00000762939453
v 1331.530517578125 181.45263671875 25.000165939331055
v -417.65069580078125 1098.81396484375 2060.0
v 1331.5303955078125 181.4527587890625 2060.0
v 1331.5301513671875 181.452880859375 25.000165939331055
v 1377.9713134765625 270.0147705078125 25.000160217285156
v 1331.530029296875 181.4530029296875 2060.0
v 1377.9713134765625 270.01495361328125 2060.0
v -371.16033935546875 1187.3585205078125 2060.0
v 1399.832763671875 258.54962158203125 2200.0
v -393.0220947265625 1198.8240966796875 2200.0
v -371.16033935546875 1187.3585205078125 2060.0
v -417.65069580078125 1098.81396484375 2060.0
v -393.02191162109375 1198.8240966796875 2200.0
v -439.51226806640625 1110.2794189453125 2200.0
v 1331.524169921875 181.452880859375 2060.0
v -439.51226806640625 1110.2794189453125 2200.0
v 1353.3857421875 169.9874267578125 2200.0
v 1331.52392578125 181.452880859375 2060.0
v 1377.9713134765625 270.01495361328125 2060.0
v 1353.385498046875 169.9874267578125 2200.0
v 1399.832763671875 258.54962158203125 2200.0
v 1192.1881103515625 -84.233642578125 25.000185012817383
v -557.0974731445312 833.19873046875 25.000024795532227
v 1192.18798828125 -84.2335205078125 2060.0
v -557.0975341796875 833.198974609375 2060.0
v -557.09765625 833.19873046875 25.000024795532227
v -603.58203125 744.6603393554688 25.000030517578125
v -557.0977783203125 833.198974609375 2060.0
v -603.5821533203125 744.6605224609375 2060.0
v -603.58203125 744.6603393554688 25.000030517578125
v 1145.7469482421875 -172.78955078125 25.00019073486328
v -603.5821533203125 744.6605224609375 2060.0
v 1145.746826171875 -172.7894287109375 2060.000244140625
v 1145.7469482421875 -172.78955078125 25.00019073486328
v 1192.1881103515625 -84.233642578125 25.000185012817383
v 1145.746826171875 -172.7894287109375 2060.000244140625
v 1192.18798828125 -84.2335205078125 2060.0
v 1192.19384765625 -84.2213134765625 2060.0
v -557.0977783203125 833.198974609375 2060.0
v 1214.0555419921875 -95.6865234375 2200.0
v -578.95947265625 844.6644287109375 2200.0
v -557.0977783203125 833.198974609375 2060.0
v -603.5821533203125 744.6605224609375 2060.0
v -578.95947265625 844.6643676757812 2200.0
v -625.4437255859375 756.1260986328125 2200.0
v 1145.7464599609375 -172.783203125 2060.000244140625
v -625.4437255859375 756.1259765625 2200.0
v 1167.6080322265625 -184.2486572265625 2200.000244140625
v 1145.7467041015625 -172.7833251953125 2060.000244140625
v 1192.19384765625 -84.2213134765625 2060.0
v 1167.608154296875 -184.248779296875 2200.000244140625
v 1214.055419921875 -95.6864013671875 2200.0
v 890.2984619140625 -659.8721923828125 25.000219345092773
v -859.2520141601562 257.68988037109375 25.000062942504883
v 890.29833984375 -659.8720703125 2060.000244140625
v -859.2520751953125 257.6900634765625 2060.0
v -859.2520141601562 257.69000244140625 25.000062942504883
v -905.7303466796875 169.1517333984375 25.000070571899414
v -859.2520751953125 257.690185546875 2060.0
v -905.7304077148438 169.15185546875 2060.0
v -905.7303466796875 169.1517333984375 25.000070571899414
v 843.8511962890625 -748.434326171875 25.000225067138672
v -905.7304077148438 169.15185546875 2060.0
v 843.85107421875 -748.4342041015625 2060.000244140625
v 843.8511962890625 -748.434326171875 25.000225067138672
v 890.2984619140625 -659.8721923828125 25.000219345092773
v 843.85107421875 -748.4342041015625 2060.0
v 890.29833984375 -659.8720703125 2060.0
v 890.29833984375 -659.865966796875 2060.000244140625
v -859.2520751953125 257.6903076171875 2060.0
v 912.159912109375 -671.331298828125 2200.000244140625
v -881.1138916015625 269.15570068359375 2200.0
v -859.2520751953125 257.690185546875 2060.0
v -905.7304077148438 169.15185546875 2060.0
v -881.1138916015625 269.1556396484375 2200.0
v -927.5922241210938 180.6175537109375 2200.0
v 843.8507080078125 -748.4281005859375 2060.000244140625
v -927.592041015625 180.617431640625 2200.0
v 865.71240234375 -759.8934326171875 2200.000244140625
v 843.8509521484375 -748.4281005859375 2060.000244140625
v 890.29833984375 -659.865966796875 2060.000244140625
v 865.712646484375 -759.8934326171875 2200.000244140625
v 912.159912109375 -671.331298828125 2200.000244140625
v 1076.081787109375 -305.623779296875 25.000198364257812
v -673.314697265625 611.8436279296875 25.000038146972656
v 1076.0816650390625 -305.6236572265625 2060.000244140625
v -673.3148193359375 611.8438110351562 2060.0
v -673.3145751953125 611.843505859375 25.000038146972656
v -719.79296875 523.3114013671875 25.000045776367188
v -673.3146362304688 611.8436889648438 2060.0
v -719.7930297851562 523.3115844726562 2060.0
v -719.79296875 523.3114013671875 25.000045776367188
v 1029.6346435546875 -394.1796875 25.00020408630371
v -719.7930297851562 523.3115844726562 2060.0
v 1029.634521484375 -394.1795654296875 2060.000244140625
v 1029.6343994140625 -394.1796875 25.00020408630371
v 1076.081787109375 -305.623779296875 25.000198364257812
v 1029.63427734375 -394.1795654296875 2060.000244140625
v 1076.0816650390625 -305.6236572265625 2060.000244140625
v 1076.08154296875 -305.6175537109375 2060.000244140625
v -673.314453125 611.8435668945312 2060.0
v 1097.9432373046875 -317.08251953125 2200.000244140625
v -695.1762084960938 623.308837890625 2200.0
v -673.3146362304688 611.8436889648438 2060.0
v -719.7930297851562 523.3115844726562 2060.0
v -695.1763916015625 623.3091430664062 2200.0
v -741.65478515625 534.7770385742188 2200.0
v 1029.6343994140625 -394.1856689453125 2060.000244140625
v -741.65478515625 534.7770385742188 2200.0
v 1051.49609375 -405.6513671875 2200.000244140625
v 1029.6343994140625 -394.1856689453125 2060.000244140625
v 1076.08154296875 -305.6175537109375 2060.000244140625
v 1051.4959716796875 -405.651123046875 2200.000244140625
v 1097.9432373046875 -317.08251953125 2200.000244140625
v 588.40283203125 -1235.5169677734375 25.000255584716797
v -1161.39453125 -317.8123779296875 25.000102996826172
v 588.4027709960938 -1235.5167236328125 2060.000244140625
v -1161.3946533203125 -317.812255859375 2060.000244140625
v -1161.3944091796875 -317.8123779296875 25.000102996826172
v -1207.884765625 -406.35693359375 25.000106811523438
v -1161.39453125 -317.812255859375 2060.000244140625
v -1207.884765625 -406.3568115234375 2060.000244140625
v -1207.884765625 -406.35693359375 25.000106811523438
v 541.955322265625 -1324.0789794921875 25.000261306762695
v -1207.884765625 -406.3568115234375 2060.000244140625
v 541.955322265625 -1324.0787353515625 2060.000244140625
v 541.95556640625 -1324.0789794921875 25.000261306762695
v 588.40283203125 -1235.5169677734375 25.000255584716797
v 541.95556640625 -1324.0787353515625 2060.0
v 588.4027709960938 -1235.5167236328125 2060.0
v 588.4027099609375 -1235.5106201171875 2060.000244140625
v -1161.3946533203125 -317.8121337890625 2060.000244140625
v 610.2642211914062 -1246.9759521484375 2200.000244140625
v -1183.25634765625 -306.3466796875 2200.000244140625
v -1161.39453125 -317.812255859375 2060.000244140625
v -1207.884765625 -406.3568115234375 2060.000244140625
v -1183.255859375 -306.3465576171875 2200.000244140625
v -1229.746337890625 -394.8916015625 2200.000244140625
v 541.961181640625 -1324.0662841796875 2060.000244140625
v -1229.74658203125 -394.891357421875 2200.000244140625
v 563.8226928710938 -1335.5316162109375 2200.000244140625
v 541.9613647460938 -1324.0662841796875 2060.000244140625
v 588.4027099609375 -1235.5106201171875 2060.000244140625
v 563.8228759765625 -1335.5318603515625 2200.000244140625
v 610.2640991210938 -1246.9759521484375 2200.000244140625
v 774.1802978515625 -881.2806396484375 25.000234603881836
v -975.4629516601562 36.341064453125 25.000078201293945
v 774.18017578125 -881.2803955078125 2060.000244140625
v -975.4630126953125 36.3411865234375 2060.0
v -975.4629516601562 36.341064453125 25.000078201293945
v -1021.9412841796875 -52.197265625 25.000085830688477
v -975.4630126953125 36.3411865234375 2060.0
v -1021.9413452148438 -52.1971435546875 2060.0
v -1021.9412841796875 -52.197265625 25.000085830688477
v 727.7447509765625 -969.8243408203125 25.000240325927734
v -1021.9413452148438 -52.1971435546875 2060.0
v 727.7447509765625 -969.8240966796875 2060.000244140625
v 727.7447509765625 -969.8243408203125 25.000240325927734
v 774.1802978515625 -881.2806396484375 25.000234603881836
v 727.7447509765625 -969.8240966796875 2060.000244140625
v 774.18017578125 -881.2803955078125 2060.000244140625
v 774.18603515625 -881.2679443359375 2060.000244140625
v -975.4631958007812 36.34130859375 2060.0
v 796.0477294921875 -892.7335205078125 2200.000244140625
v -997.3248291015625 47.8067626953125 2200.0
v -975.4630126953125 36.34130859375 2060.0
v -1021.9413452148438 -52.1971435546875 2060.0
v -997.3246459960938 47.806640625 2200.0
v -1043.802978515625 -40.7315673828125 2200.0
v 727.73876953125 -969.8302001953125 2060.000244140625
v -1043.80322265625 -40.7314453125 2200.0
v 749.6002197265625 -981.2957763671875 2200.000244140625
v 727.73876953125 -969.8302001953125 2060.000244140625
v 774.18603515625 -881.2679443359375 2060.000244140625
v 749.600341796875 -981.2955322265625 2200.000244140625
v 796.0477294921875 -892.7335205078125 2200.000244140625
v 1367.2362060546875 292.60308837890625 25.000158309936523
v -350.9119873046875 1193.67578125 25.000003814697266
v 1367.236083984375 292.603271484375 2055.0
v -350.9120788574219 1193.676025390625 2055.0
v -350.91217041015625 1193.67578125 25.000003814697266
v -411.345458984375 1078.5716552734375 25.000009536743164
v -350.91229248046875 1193.676025390625 2055.0
v -411.3455505371094 1078.57177734375 2055.0
v -411.345458984375 1078.5716552734375 25.000009536743164
v 1306.858154296875 177.475341796875 25.000164031982422
v -411.3455505371094 1078.57177734375 2055.0
v 1306.8580322265625 177.4754638671875 2055.0
v 1306.858154296875 177.4754638671875 25.000164031982422
v 1367.2362060546875 292.60308837890625 25.000158309936523
v 1306.8580322265625 177.4755859375 2055.0
v 1367.236083984375 292.603271484375 2055.0
v -350.9120788574219 1193.6759033203125 2055.0
v 1367.236083984375 292.603271484375 2098.0
v -350.9120788574219 1193.6759033203125 2098.0
v -350.91229248046875 1193.676025390625 2098.0
v -417.57135009765625 1066.7137451171875 2098.0
v -411.3455505371094 1078.57177734375 2055.0
v 1306.8580322265625 177.4755859375 2055.0
v -417.57135009765625 1066.7137451171875 2098.0
v 1300.6375732421875 165.614990234375 2098.0
v 1300.6376953125 165.6148681640625 2098.0
v 1367.236083984375 292.6033935546875 2098.0
v -350.9120788574219 1193.67578125 2098.0
v 1367.236083984375 292.603271484375 2146.0
v -350.9120788574219 1193.67578125 2146.0
v -417.5726318359375 1066.7120361328125 2098.0
v -350.91229248046875 1193.676025390625 2146.0
v -440.8161315917969 1022.44140625 2146.0
v -417.5726318359375 1066.7120361328125 2098.0
v 1300.6314697265625 165.6036376953125 2098.0
v -440.8163146972656 1022.4414672851562 2146.0
v 1277.4080810546875 121.3223876953125 2146.0
v 1300.6312255859375 165.603759765625 2098.0
v 1367.236083984375 292.603271484375 2098.0
v 1277.4078369140625 121.3223876953125 2146.0
v 1367.236083984375 292.603271484375 2146.0
v 1367.2301025390625 292.5970458984375 2146.0
v -350.91265869140625 1193.6761474609375 2146.0
v 1367.2301025390625 292.5970458984375 2166.0
v -350.91265869140625 1193.6761474609375 2166.0
v -440.81475830078125 1022.4398193359375 2146.0
v -350.91229248046875 1193.676025390625 2166.0
v -440.81475830078125 1022.4398193359375 2166.0
v -440.81475830078125 1022.4398193359375 2146.0
v 1277.4013671875 121.3133544921875 2146.0
v -440.81475830078125 1022.4398193359375 2166.0
v 1277.4013671875 121.3133544921875 2166.0
v 1277.4014892578125 121.313232421875 2146.0
v 1367.2301025390625 292.5970458984375 2146.0
v 1277.4014892578125 121.313232421875 2166.0
v 1367.2301025390625 292.5970458984375 2166.0
v -350.91229248046875 1193.676025390625 2166.0
v 1277.401611328125 121.313232421875 2166.0
v 1367.2301025390625 292.5970458984375 2166.0
v -440.81475830078125 1022.4398193359375 2166.0
v -350.91229248046875 1193.676025390625 2166.0
v 1367.241943359375 292.6156005859375 2166.0
v 514.9735107421875 -1332.4610595703125 2166.000244140625
v -1204.4071044921875 -430.7381591796875 2166.000244140625
v 1367.241943359375 292.6156005859375 2166.0
v -350.91229248046875 1193.676025390625 2166.0
v 1367.241943359375 292.6156005859375 2206.0
v -350.91229248046875 1193.676025390625 2206.0
v -1204.4071044921875 -430.7381591796875 2166.000244140625
v -350.91229248046875 1193.676025390625 2206.0
v -1204.4071044921875 -430.7381591796875 2206.000244140625
v -1204.4071044921875 -430.7381591796875 2166.000244140625
v 514.9733276367188 -1332.4608154296875 2166.000244140625
v -1204.4071044921875 -430.7381591796875 2206.000244140625
v 514.9733276367188 -1332.4608154296875 2206.000244140625
v 514.9735107421875 -1332.4610595703125 2166.000244140625
v 1367.2421875 292.615966796875 2166.0
v 514.9735107421875 -1332.4610595703125 2206.000244140625
v 1367.2421875 292.615966796875 2206.0
v 1181.4527587890625 -61.639404296875 25.000181198120117
v -536.849609375 839.516357421875 25.000024795532227
v 1181.45263671875 -61.6392822265625 2055.0
v -536.8497314453125 839.5164794921875 2055.0
v -536.849609375 839.5162353515625 25.000024795532227
v -597.282958984375 724.41796875 25.000032424926758
v -536.8497314453125 839.516357421875 2055.0
v -597.2830810546875 724.4181518554688 2055.0
v -597.282958984375 724.41796875 25.000032424926758
v 1121.074951171875 -176.7672119140625 25.00018882751465
v -597.2830810546875 724.4181518554688 2055.0
v 1121.0748291015625 -176.76708984375 2055.000244140625
v 1121.074951171875 -176.76708984375 25.00018882751465
v 1181.4527587890625 -61.639404296875 25.000181198120117
v 1121.0748291015625 -176.7669677734375 2055.000244140625
v 1181.45263671875 -61.6392822265625 2055.0
v 1181.458740234375 -61.6329345703125 2055.0
v -536.849853515625 839.5166015625 2055.0
v 1187.6790771484375 -49.77197265625 2098.0
v -530.62353515625 851.3743286132812 2098.0
v -597.2830810546875 724.4182739257812 2055.0
v -530.62353515625 851.374267578125 2098.0
v -597.2830810546875 724.4182739257812 2098.0
v -597.2830810546875 724.4182739257812 2055.0
v 1121.08056640625 -176.7606201171875 2055.000244140625
v -597.2830810546875 724.4182739257812 2098.0
v 1121.08056640625 -176.760498046875 2098.000244140625
v 1121.080810546875 -176.7607421875 2055.000244140625
v 1181.458740234375 -61.6329345703125 2055.0
v 1121.080810546875 -176.7606201171875 2098.000244140625
v 1187.6790771484375 -49.77197265625 2098.0
v 1187.6737060546875 -49.7794189453125 2098.0
v -530.6224365234375 851.3760986328125 2098.0
v 1210.8963623046875 -5.4976806640625 2146.0
v -507.3779602050781 895.646240234375 2146.0
v -530.6226196289062 851.3760986328125 2098.0
v -507.3781433105469 895.6463623046875 2146.0
v -597.2830810546875 724.4182739257812 2146.0
v 1121.0810546875 -176.7606201171875 2098.000244140625
v -597.2830810546875 724.4182739257812 2146.0
v 1121.0810546875 -176.7606201171875 2146.000244140625
v 1187.6737060546875 -49.7794189453125 2098.0
v 1121.080810546875 -176.7606201171875 2146.000244140625
v 1210.8963623046875 -5.4976806640625 2146.0
v -506.62982177734375 897.0594482421875 2146.0
v 1211.641845703125 -4.0843505859375 2146.0
v 1210.8963623046875 -5.4976806640625 2146.0
v -507.3731384277344 895.643798828125 2146.0
v 1211.641845703125 -4.0843505859375 2146.0
v -506.629638671875 897.059326171875 2146.0
v 1211.641845703125 -4.0843505859375 2166.0
v -506.629638671875 897.059326171875 2166.0
v -506.62982177734375 897.0594482421875 2146.0
v -506.62982177734375 897.0594482421875 2166.0
v -597.2830810546875 724.4182739257812 2166.0
v -597.2830810546875 724.418212890625 2146.0
v 1121.0748291015625 -176.766845703125 2146.000244140625
v -597.2830810546875 724.418212890625 2166.0
v 1121.0748291015625 -176.766845703125 2166.000244140625
v 1121.0748291015625 -176.766845703125 2146.000244140625
v 1211.641845703125 -4.0843505859375 2146.0
v 1121.0748291015625 -176.766845703125 2166.000244140625
v 1211.641845703125 -4.0843505859375 2166.0
v -506.62982177734375 897.0594482421875 2166.0
v 1121.0748291015625 -176.766845703125 2166.000244140625
v 1211.641845703125 -4.0843505859375 2166.0
v -597.2830810546875 724.418212890625 2166.0
v 1068.3284912109375 -284.6070556640625 25.00019645690918
v -653.060546875 618.1673583984375 25.00004005432129
v 1068.328369140625 -284.6068115234375 2205.000244140625
v -653.0606079101562 618.1675415039062 2205.0
v -653.060546875 618.167236328125 25.00004005432129
v -692.5733642578125 542.9055786132812 25.000045776367188
v -653.0606079101562 618.1674194335938 2205.0
v -692.573486328125 542.90576171875 2205.0
v -692.5733642578125 542.9055786132812 25.000045776367188
v 1028.821533203125 -359.86865234375 25.000200271606445
v -692.573486328125 542.90576171875 2205.0
v 1028.8214111328125 -359.868408203125 2205.000244140625
v 1028.82177734375 -359.86865234375 25.000200271606445
v 1068.3284912109375 -284.6070556640625 25.00019645690918
v 1028.8216552734375 -359.868408203125 2204.999755859375
v 1068.328369140625 -284.6068115234375 2204.999755859375
v -653.0606079101562 618.1674194335938 2205.0
v 1028.8216552734375 -359.868408203125 2205.000244140625
v 1068.328369140625 -284.6068115234375 2205.000244140625
v -692.573486328125 542.90576171875 2205.0
v -864.561767578125 215.3057861328125 25.00006675720215
v -899.4313354492188 148.9095458984375 25.000070571899414
v -864.5618896484375 215.3060302734375 2205.0
v -899.4314575195312 148.9097900390625 2205.0
v -899.4313354492188 148.9095458984375 25.000070571899414
v 819.1856689453125 -752.4114990234375 25.000225067138672
v -899.4314575195312 148.9097900390625 2205.0
v 819.185546875 -752.4112548828125 2205.000244140625
v 819.1854248046875 -752.4114990234375 25.000225067138672
v 854.0179443359375 -685.9915771484375 25.000221252441406
v 819.185302734375 -752.4112548828125 2205.000244140625
v 854.0177001953125 -685.9913330078125 2205.000244140625
v 854.0179443359375 -685.9915771484375 25.000221252441406
v -864.5615844726562 215.3057861328125 25.00006675720215
v 854.0177001953125 -685.9913330078125 2204.999755859375
v -864.5617065429688 215.3060302734375 2204.99951171875
v 819.185302734375 -752.4112548828125 2205.000244140625
v -864.5618896484375 215.3060302734375 2205.0
v -899.4314575195312 148.9097900390625 2205.0
v 854.0177001953125 -685.9913330078125 2205.000244140625
v 763.4451904296875 -858.6861572265625 25.00023078918457
v -955.2085571289062 42.6646728515625 25.000076293945312
v 763.445068359375 -858.6859130859375 2055.000244140625
v -955.2086181640625 42.664794921875 2055.0
v -955.208740234375 42.664794921875 25.000076293945312
v -1015.6419677734375 -72.439453125 25.00008773803711
v -955.2088012695312 42.6649169921875 2055.0
v -1015.6420288085938 -72.4393310546875 2055.0
v -1015.6419677734375 -72.439453125 25.00008773803711
v 703.0731201171875 -973.8074951171875 25.0002384185791
v -1015.6420288085938 -72.4393310546875 2055.0
v 703.0731201171875 -973.8072509765625 2055.000244140625
v 703.0731201171875 -973.8074951171875 25.0002384185791
v 763.4451904296875 -858.6861572265625 25.00023078918457
v 703.072998046875 -973.8072509765625 2055.000244140625
v 763.445068359375 -858.6859130859375 2055.000244140625
v 763.4508056640625 -858.6795654296875 2055.000244140625
v -955.2091064453125 42.6650390625 2055.0
v 763.4508056640625 -858.6795654296875 2098.000244140625
v -955.2091674804688 42.6651611328125 2098.0
v -955.2088623046875 42.6649169921875 2055.0
v -1015.64208984375 -72.4393310546875 2055.0
v -955.2089233398438 42.6650390625 2098.0
v -1021.8679809570312 -84.29736328125 2098.0
v -1015.64208984375 -72.4393310546875 2055.0
v 703.072998046875 -973.8072509765625 2055.000244140625
v -1021.8679809570312 -84.29736328125 2098.0
v 696.8525390625 -985.6683349609375 2098.000244140625
v 763.4508056640625 -858.6795654296875 2055.000244140625
v 696.8525390625 -985.6683349609375 2098.000244140625
v 763.45068359375 -858.6795654296875 2098.000244140625
v -955.208740234375 42.6649169921875 2098.0
v 763.4508056640625 -858.6795654296875 2146.000244140625
v -955.208740234375 42.6649169921875 2146.0
v -1021.8865966796875 -84.3543701171875 2098.0
v -955.2089233398438 42.6650390625 2146.0
v -1045.1270751953125 -128.6265869140625 2146.0
v -1021.8865966796875 -84.3543701171875 2098.0
v 696.822021484375 -985.7222900390625 2098.000244140625
v -1045.126953125 -128.626708984375 2146.0
v 673.5985107421875 -1030.0035400390625 2146.000244140625
v 696.822509765625 -985.7225341796875 2098.000244140625
v 763.4508056640625 -858.6795654296875 2098.000244140625
v 673.5988159179688 -1030.0035400390625 2146.000244140625
v 763.45068359375 -858.6795654296875 2146.000244140625
v 673.5988159179688 -1030.0035400390625 2146.000244140625
v -1045.05126953125 -128.5213623046875 2146.0
v -1045.126953125 -128.626708984375 2146.0
v 673.6578369140625 -1029.8897705078125 2146.000244140625
v 763.445068359375 -858.6859130859375 2146.000244140625
v -955.2090454101562 42.6651611328125 2146.0
v 763.445068359375 -858.6859130859375 2166.000244140625
v -955.2090454101562 42.6651611328125 2166.0
v -955.2088623046875 42.6650390625 2146.0
v -1045.05126953125 -128.5213623046875 2146.0
v -955.2088623046875 42.6650390625 2166.0
v -1045.05126953125 -128.5213623046875 2166.0
v -1045.05126953125 -128.5213623046875 2146.0
v 673.6580810546875 -1029.8897705078125 2146.000244140625
v -1045.05126953125 -128.5213623046875 2166.0
v 673.6580810546875 -1029.8897705078125 2166.000244140625
v 673.6578369140625 -1029.8897705078125 2146.000244140625
v 763.445068359375 -858.6859130859375 2146.000244140625
v 673.6578369140625 -1029.8897705078125 2166.000244140625
v 763.445068359375 -858.6859130859375 2166.000244140625
v -955.2088623046875 42.6650390625 2166.0
v 673.6578369140625 -1029.8897705078125 2166.000244140625
v 763.445068359375 -858.6859130859375 2166.000244140625
v -1045.05126953125 -128.5213623046875 2166.0
v 579.9953002929688 -1208.4866943359375 25.000354766845703
v -1139.32373046875 -306.7933349609375 25.000202178955078
v 579.9952392578125 -1208.4864501953125 2055.000244140625
v -1139.3238525390625 -306.793212890625 2055.000244140625
v -1139.32373046875 -306.793212890625 25.000202178955078
v -1204.400634765625 -430.75048828125 25.000211715698242
v -1139.3238525390625 -306.7930908203125 2055.000244140625
v -1204.4007568359375 -430.7503662109375 2055.000244140625
v -1204.400634765625 -430.75048828125 25.000211715698242
v 514.9735717773438 -1332.4674072265625 25.000364303588867
v -1204.4007568359375 -430.7503662109375 2055.000244140625
v 514.9735107421875 -1332.4671630859375 2055.000244140625
v 514.9737548828125 -1332.4674072265625 25.000364303588867
v 579.9953002929688 -1208.4866943359375 25.000354766845703
v 514.9736938476562 -1332.4671630859375 2055.000244140625
v 579.9952392578125 -1208.4864501953125 2055.000244140625
v 580.0010986328125 -1208.4739990234375 2055.000244140625
v -1139.323974609375 -306.79296875 2055.000244140625
v 586.221435546875 -1196.6131591796875 2098.000244140625
v -1133.0985107421875 -294.9346923828125 2098.000244140625
v -1133.098388671875 -294.9346923828125 2098.000244140625
v -1204.40087890625 -430.750244140625 2098.000244140625
v 514.9794311523438 -1332.4547119140625 2055.000244140625
v -1204.40087890625 -430.750244140625 2098.000244140625
v 514.9793701171875 -1332.4547119140625 2098.000244140625
v 514.9796142578125 -1332.4547119140625 2055.000244140625
v 580.0010986328125 -1208.4739990234375 2055.000244140625
v 514.9795532226562 -1332.4547119140625 2098.000244140625
v 586.221435546875 -1196.6131591796875 2098.000244140625
v 586.2279052734375 -1196.6019287109375 2098.000244140625
v -1133.09716796875 -294.9208984375 2098.000244140625
v 609.4512939453125 -1152.3206787109375 2146.000244140625
v -1109.8564453125 -250.6488037109375 2146.000244140625
v -1133.0970458984375 -294.9210205078125 2098.000244140625
v -1109.8564453125 -250.64892578125 2146.000244140625
v -1204.40087890625 -430.750244140625 2146.000244140625
v 514.9793701171875 -1332.4544677734375 2098.000244140625
v -1204.40087890625 -430.750244140625 2146.000244140625
v 514.9793701171875 -1332.4544677734375 2146.000244140625
v 586.2279052734375 -1196.6019287109375 2098.000244140625
v 514.9795532226562 -1332.4547119140625 2146.000244140625
v 609.4512939453125 -1152.3206787109375 2146.000244140625
v -1109.8564453125 -250.64892578125 2146.000244140625
v 609.3567504882812 -1152.4842529296875 2146.000244140625
v 609.4512939453125 -1152.3206787109375 2146.000244140625
v -1109.93896484375 -250.80615234375 2146.000244140625
v 609.3567504882812 -1152.4842529296875 2146.000244140625
v -1109.9560546875 -250.796875 2146.000244140625
v 609.3567504882812 -1152.4842529296875 2166.000244140625
v -1109.9560546875 -250.796875 2166.000244140625
v -1109.9560546875 -250.7969970703125 2146.000244140625
v -1109.9560546875 -250.7969970703125 2166.000244140625
v -1204.40087890625 -430.750244140625 2166.000244140625
v 514.9741821289062 -1332.4976806640625 2146.000244140625
v -1204.40087890625 -430.750244140625 2166.000244140625
v 514.9741821289062 -1332.4976806640625 2166.000244140625
v 514.97412109375 -1332.4976806640625 2146.000244140625
v 609.3567504882812 -1152.4842529296875 2146.000244140625
v 514.97412109375 -1332.4976806640625 2166.000244140625
v 609.3567504882812 -1152.4842529296875 2166.000244140625
v -1109.9560546875 -250.7969970703125 2166.000244140625
v 514.97412109375 -1332.4976806640625 2166.000244140625
v 609.3567504882812 -1152.4842529296875 2166.000244140625
v -1204.40087890625 -430.750244140625 2166.000244140625
v 879.0880126953125 -659.7137451171875 25.000219345092773
v 1027.711181640625 -376.3272705078125 25.000202178955078
v 879.0880126953125 -659.713623046875 835.0003051757812
v 1027.711181640625 -376.3271484375 835.000244140625
v 1027.711181640625 -376.3272705078125 25.000202178955078
v 992.286376953125 -357.7471923828125 25.000198364257812
v 1027.711181640625 -376.3271484375 835.000244140625
v 992.286376953125 -357.7470703125 835.000244140625
v 992.286376953125 -357.7471923828125 25.000198364257812
v 843.6632080078125 -641.1397705078125 25.000215530395508
v 992.286376953125 -357.7470703125 835.000244140625
v 843.6632080078125 -641.1396484375 835.0003051757812
v 843.6632080078125 -641.1397705078125 25.000215530395508
v 879.0880126953125 -659.7137451171875 25.000219345092773
v 843.6632080078125 -641.1396484375 835.0003051757812
v 879.0880126953125 -659.713623046875 835.0003051757812
v 1043.0762939453125 -384.3853759765625 835.0001220703125
v 894.453125 -667.77197265625 835.0001831054688
v 1027.711181640625 -376.3271484375 835.0001220703125
v 879.0880126953125 -659.713623046875 835.0001831054688
v 894.453125 -667.77197265625 835.0001831054688
v 1043.0762939453125 -384.3853759765625 835.0001220703125
v 894.453125 -667.77197265625 855.0001831054688
v 1043.0762939453125 -384.3853759765625 855.0001220703125
v 1043.0762939453125 -384.3853759765625 835.0001220703125
v 1043.0762939453125 -384.3853759765625 855.0001220703125
v 992.286376953125 -357.7470703125 855.0001831054688
v 992.286376953125 -357.7470703125 855.0001831054688
v 843.6632080078125 -641.1396484375 855.000244140625
v 894.453125 -667.77197265625 835.0001831054688
v 843.6632080078125 -641.1396484375 855.000244140625
v 894.453125 -667.77197265625 855.0001831054688
v 1043.0762939453125 -384.3853759765625 855.0001220703125
v 992.286376953125 -357.7470703125 855.0001831054688
v 894.453125 -667.77197265625 855.0001831054688
v 843.6632080078125 -641.1396484375 855.000244140625
v -533.5105590820312 1379.7459716796875 -2.0586336177075282e-05
v -895.65673828125 680.3919067382812 2.472322557878215e-05
v -533.5105590820312 1379.7459716796875 74.99998474121094
v -895.65673828125 680.3919067382812 75.00003051757812
v -895.65673828125 680.3919067382812 2.472322557878215e-05
v -869.0852661132812 666.46142578125 2.7102547392132692e-05
v -895.65673828125 680.3919067382812 75.00001525878906
v -869.0852661132812 666.46142578125 75.00001525878906
v -869.0852661132812 666.46142578125 2.7102547392132692e-05
v -520.8763427734375 1339.242919921875 -1.6493188013555482e-05
v -869.0852661132812 666.46142578125 75.00003051757812
v -520.8763427734375 1339.242919921875 74.99998474121094
v -520.8762817382812 1339.2430419921875 -1.6493189832544886e-05
v -309.93731689453125 1228.54541015625 2.4047324131970527e-06
v -520.8762817382812 1339.2430419921875 74.99996948242188
v -309.9373474121094 1228.54541015625 74.99998474121094
v -296.0066833496094 1255.111083984375 6.912246703905112e-07
v -533.5106201171875 1379.7459716796875 -2.0586337996064685e-05
v -296.0066833496094 1255.111083984375 75.0
v -533.5106201171875 1379.74609375 74.99998474121094
v -869.0852661132812 666.46142578125 75.00003051757812
v -894.5177001953125 682.591796875 75.00003051757812
v -895.65673828125 680.3919067382812 75.00003051757812
v -867.9471435546875 668.6602172851562 75.00003051757812
v -314.364501953125 1230.8687744140625 75.0
v -309.93731689453125 1228.54541015625 75.0
v -300.43170166015625 1257.43310546875 75.0
v -296.0066833496094 1255.111083984375 75.0
v -519.5457153320312 1332.9075927734375 74.99998474121094
v -314.364501953125 1230.8687744140625 75.0
v -316.68865966796875 1226.4375 75.0
v -520.8762817382812 1339.2430419921875 74.99998474121094
v -867.9471435546875 668.6602172851562 75.00003051757812
v -864.285888671875 666.740478515625 75.00003051757812
v -533.5105590820312 1379.7459716796875 74.99998474121094
v -298.1085510253906 1261.8624267578125 75.0
v -300.43170166015625 1257.43310546875 75.0
v -536.391357421875 1386.9053955078125 74.99998474121094
v -899.710693359375 685.3146362304688 75.00001525878906
v -894.5177001953125 682.591796875 75.00003051757812
v -298.1085510253906 1261.8624267578125 75.0
v -536.391357421875 1386.9053955078125 74.99998474121094
v -298.1085510253906 1261.8624267578125 80.0
v -536.391357421875 1386.9053955078125 79.99998474121094
v -536.391357421875 1386.9053955078125 74.99998474121094
v -899.7105712890625 685.314697265625 75.00001525878906
v -536.391357421875 1386.9053955078125 79.99998474121094
v -899.7105712890625 685.314697265625 80.00001525878906
v -899.710693359375 685.3146362304688 75.00001525878906
v -864.285888671875 666.740478515625 75.00003051757812
v -899.710693359375 685.3146362304688 80.00001525878906
v -864.285888671875 666.740478515625 80.00003051757812
v -864.285888671875 666.740478515625 75.00003051757812
v -519.5457153320312 1332.9075927734375 74.99998474121094
v -864.285888671875 666.740478515625 80.00003051757812
v -519.5457153320312 1332.9075927734375 79.99998474121094
v -519.5457153320312 1332.9075927734375 74.99998474121094
v -316.6886291503906 1226.4375 75.0
v -519.5457153320312 1332.9075927734375 79.99998474121094
v -316.6886291503906 1226.4375 80.0
v -316.68865966796875 1226.4375 75.0
v -298.1085510253906 1261.8624267578125 75.0
v -316.68865966796875 1226.4375 80.0
v -298.1085510253906 1261.8624267578125 80.0
v -536.391357421875 1386.9053955078125 79.99998474121094
v -519.5457153320312 1332.9075927734375 79.99998474121094
v -316.68865966796875 1226.4375 80.0
v -298.1085510253906 1261.8624267578125 80.0
v -899.710693359375 685.3146362304688 80.00001525878906
v -864.285888671875 666.740478515625 80.00003051757812
v -1206.3253173828125 -480.66357421875 0.0001126461720559746
v -1373.0987548828125 -394.1190185546875 9.779031097423285e-05
v -1206.3253173828125 -480.66357421875 75.00011444091797
v -1373.0987548828125 -394.1190185546875 75.0000991821289
v -1373.0987548828125 -394.1190185546875 9.779031097423285e-05
v -1061.6910400390625 296.57928466796875 5.101959686726332e-05
v -1373.0987548828125 -394.1190185546875 75.0000991821289
v -1061.6910400390625 296.57928466796875 75.00005340576172
v -1061.69091796875 296.57940673828125 5.1019585953326896e-05
v -1088.259521484375 310.513671875 4.864006768912077e-05
v -1061.69091796875 296.57940673828125 75.00005340576172
v -1088.259521484375 310.513671875 75.00004577636719
v -1088.259521484375 310.513671875 4.864006768912077e-05
v -1413.601806640625 -406.753173828125 9.712436440167949e-05
v -1088.259521484375 310.513671875 75.00004577636719
v -1413.601806640625 -406.753173828125 75.00009155273438
v -1413.601806640625 -406.753173828125 9.712436440167949e-05
v -1220.2618408203125 -507.2353515625 0.00011435995111241937
v -1413.601806640625 -406.753173828125 75.00009155273438
v -1220.2618408203125 -507.2353515625 75.00011444091797
v -1413.601806640625 -406.753173828125 75.00009155273438
v -1220.26318359375 -507.2347412109375 75.00011444091797
v -1222.20556640625 -510.9381103515625 75.00011444091797
v -1088.259521484375 310.513671875 75.00004577636719
v -1091.579833984375 312.25927734375 75.00004577636719
v -1418.863037109375 -408.71240234375 75.00009155273438
v -1364.8956298828125 -395.0465087890625 75.0000991821289
v -1204.93701171875 -478.0145263671875 75.00011444091797
v -1206.3262939453125 -480.6629638671875 75.00011444091797
v -1058.1998291015625 294.74822998046875 75.00005340576172
v -1061.69091796875 296.57940673828125 75.00005340576172
v -1373.0987548828125 -394.1190185546875 75.0000991821289
v -1204.93701171875 -478.0145263671875 75.00011444091797
v -1364.8956298828125 -395.0465087890625 75.0000991821289
v -1204.93701171875 -478.0145263671875 80.00011444091797
v -1364.8956298828125 -395.0465087890625 80.0000991821289
v -1364.8956298828125 -395.0465087890625 75.0000991821289
v -1058.19970703125 294.74822998046875 75.00005340576172
v -1364.8956298828125 -395.0465087890625 80.0000991821289
v -1058.19970703125 294.74822998046875 80.00005340576172
v -1058.1998291015625 294.74822998046875 75.00005340576172
v -1091.579833984375 312.25927734375 75.00004577636719
v -1058.1998291015625 294.74822998046875 80.00005340576172
v -1091.579833984375 312.25927734375 80.00004577636719
v -1091.579833984375 312.25927734375 75.00004577636719
v -1418.8629150390625 -408.71240234375 75.00009155273438
v -1091.579833984375 312.25927734375 80.00004577636719
v -1418.8629150390625 -408.71240234375 80.00009155273438
v -1418.863037109375 -408.71240234375 75.00009155273438
v -1222.20556640625 -510.9381103515625 75.00011444091797
v -1418.863037109375 -408.71240234375 80.00009155273438
v -1222.20556640625 -510.9381103515625 80.00011444091797
v -1222.20556640625 -510.9381103515625 75.00011444091797
v -1204.93701171875 -478.0145263671875 75.00011444091797
v -1222.20556640625 -510.9381103515625 80.00011444091797
v -1204.93701171875 -478.0145263671875 80.00011444091797
v -1364.8956298828125 -395.0465087890625 80.0000991821289
v -1222.20556640625 -510.9381103515625 80.00011444091797
v -1204.93701171875 -478.0145263671875 80.00011444091797
v -1058.1998291015625 294.74822998046875 80.00005340576172
v -1091.579833984375 312.25927734375 80.00004577636719
v -1418.863037109375 -408.71240234375 80.00009155273438
v -1023.2660522460938 332.51239013671875 -99.99994659423828
v -1067.5382080078125 355.7545166015625 -99.99995422363281
v -1023.2660522460938 332.51239013671875 100.00005340576172
v -1067.5382080078125 355.7545166015625 100.00004577636719
v -1067.5382080078125 355.7545166015625 -99.99995422363281
v -1090.780517578125 311.48834228515625 -99.99995422363281
v -1067.5382080078125 355.7545166015625 100.00004577636719
v -1090.780517578125 311.48834228515625 100.00004577636719
v -1090.780517578125 311.48834228515625 -99.99995422363281
v -1046.50830078125 288.24609375 -99.99994659423828
v -1090.780517578125 311.48834228515625 100.00004577636719
v -1046.50830078125 288.24609375 100.00005340576172
v -1069.627685546875 362.50006103515625 100.00003814697266
v -1023.2660522460938 332.51239013671875 100.00005340576172
v -1067.5382080078125 355.7545166015625 100.00004577636719
v -1020.9259033203125 336.93621826171875 100.00004577636719
v -1097.513427734375 309.37469482421875 100.00004577636719
v -1090.780517578125 311.48834228515625 100.00004577636719
v -1048.817626953125 283.81072998046875 100.00005340576172
v -1046.50830078125 288.24609375 100.00005340576172
v -1020.9259033203125 336.93621826171875 100.00004577636719
v -1069.627685546875 362.50006103515625 100.00003814697266
v -1020.9259033203125 336.93621826171875 107.00005340576172
v -1069.627685546875 362.50006103515625 107.00004577636719
v -1069.627685546875 362.50006103515625 100.00003814697266
v -1097.513427734375 309.37469482421875 100.00004577636719
v -1069.627685546875 362.50006103515625 107.00004577636719
v -1097.513427734375 309.37469482421875 107.00005340576172
v -1097.513427734375 309.37469482421875 100.00004577636719
v -1048.817626953125 283.81072998046875 100.00005340576172
v -1097.513427734375 309.37469482421875 107.00005340576172
v -1048.817626953125 283.81072998046875 107.00006103515625
v -1048.817626953125 283.81072998046875 100.00005340576172
v -1020.9259033203125 336.93621826171875 100.00004577636719
v -1048.817626953125 283.81072998046875 107.00006103515625
v -1020.9259033203125 336.93621826171875 107.00005340576172
v -1069.627685546875 362.50006103515625 107.00004577636719
v -1048.817626953125 283.81072998046875 107.00006103515625
v -1020.9259033203125 336.93621826171875 107.00005340576172
v -1097.513427734375 309.37469482421875 107.00005340576172
v -895.5433349609375 683.336181640625 -149.99998474121094
v -918.7797241210938 639.0701904296875 -149.99996948242188
v -895.5433349609375 683.336181640625 100.00003051757812
v -918.7797241210938 639.0701904296875 100.0000228881836
v -918.7797241210938 639.0701904296875 -149.99996948242188
v -874.513427734375 615.8280029296875 -149.99996948242188
v -918.7797241210938 639.0701904296875 100.0000228881836
v -874.513427734375 615.8280029296875 100.00003051757812
v -851.2713012695312 660.0941162109375 -149.99998474121094
v -895.5433349609375 683.336181640625 -149.99998474121094
v -851.2713012695312 660.0941162109375 99.99998474121094
v -895.5433349609375 683.336181640625 99.99998474121094
v -897.651611328125 690.099853515625 100.0000228881836
v -851.2715454101562 660.09423828125 100.00003051757812
v -895.5433349609375 683.336181640625 100.00003051757812
v -848.9434204101562 664.5299072265625 100.00003051757812
v -925.537353515625 636.974365234375 100.0000228881836
v -918.7797241210938 639.0701904296875 100.0000228881836
v -876.8291625976562 611.3985595703125 100.00003051757812
v -874.513427734375 615.8280029296875 100.00003051757812
v -848.9434204101562 664.5299072265625 100.00003051757812
v -897.651611328125 690.099853515625 100.0000228881836
v -848.9434204101562 664.5299072265625 107.00003814697266
v -897.651611328125 690.099853515625 107.00003051757812
v -897.651611328125 690.099853515625 100.0000228881836
v -925.537353515625 636.974365234375 100.0000228881836
v -897.651611328125 690.099853515625 107.00003051757812
v -925.537353515625 636.974365234375 107.00003051757812
v -925.537353515625 636.974365234375 100.0000228881836
v -876.8291625976562 611.3985595703125 100.00003051757812
v -925.537353515625 636.974365234375 107.00003051757812
v -876.8291625976562 611.3985595703125 107.00003814697266
v -876.8291625976562 611.3985595703125 100.00003051757812
v -848.9434204101562 664.5299072265625 100.00003051757812
v -876.8291625976562 611.3985595703125 107.00003814697266
v -848.9434204101562 664.5299072265625 107.00003814697266
v -897.651611328125 690.099853515625 107.00003051757812
v -876.8291625976562 611.3985595703125 107.00003814697266
v -848.9434204101562 664.5299072265625 107.00003814697266
v -925.537353515625 636.974365234375 107.00003051757812
v -874.513427734375 615.8279418945312 -149.99996948242188
v -759.4156494140625 555.4129028320312 -49.99995803833008
v -874.513427734375 615.8279418945312 100.00003051757812
v -759.4156494140625 555.4129028320312 200.0000457763672
v -736.1673583984375 599.6791381835938 -49.999961853027344
v -851.271240234375 660.0941772460938 100.00003051757812
v -736.1673583984375 599.6791381835938 200.0000457763672
v -851.271240234375 660.0941772460938 -149.99998474121094
v -759.4156494140625 555.4129028320312 200.0000457763672
v -851.271240234375 660.0941772460938 100.00003051757812
v -874.513427734375 615.8279418945312 100.00003051757812
v -736.1673583984375 599.6791381835938 200.0000457763672
v -848.9497680664062 664.5359497070312 100.00003051757812
v -733.8455810546875 604.108642578125 200.0000457763672
v -761.7373046875 550.9832153320312 200.0000457763672
v -876.8417358398438 611.4165649414062 100.00003051757812
v -733.8455810546875 604.108642578125 207.0000457763672
v -733.8455810546875 604.108642578125 200.0000457763672
v -848.9497680664062 664.5359497070312 107.0000228881836
v -848.9497680664062 664.5359497070312 100.00003051757812
v -848.9497680664062 664.5359497070312 100.00003051757812
v -876.8417358398438 611.4165649414062 100.00003051757812
v -848.9497680664062 664.5359497070312 107.0000228881836
v -876.8417358398438 611.4165649414062 107.0000228881836
v -761.7373046875 550.983154296875 200.0000457763672
v -876.8417358398438 611.4165649414062 107.0000228881836
v -876.8417358398438 611.4165649414062 100.00003051757812
v -761.7373046875 550.983154296875 207.0000457763672
v -761.7373046875 550.983154296875 200.0000457763672
v -733.8455810546875 604.108642578125 200.0000457763672
v -761.7373046875 550.983154296875 207.0000457763672
v -733.8455810546875 604.108642578125 207.0000457763672
v -761.7373046875 550.983154296875 207.0000457763672
v -733.8455810546875 604.108642578125 207.0000457763672
v -876.8417358398438 611.4165649414062 107.0000228881836
v -691.9012451171875 576.4369506835938 -49.99995803833008
v -736.167236328125 599.6790161132812 -49.999961853027344
v -691.9012451171875 576.4369506835938 200.0000457763672
v -736.167236328125 599.6790161132812 200.0000457763672
v -759.4156494140625 555.412841796875 -49.99995803833008
v -715.13720703125 532.1647338867188 -49.99995422363281
v -759.4156494140625 555.412841796875 200.0000457763672
v -715.13720703125 532.1647338867188 200.0000457763672
v -759.4002685546875 555.4047241210938 200.0000457763672
v -715.13720703125 532.1647338867188 200.0000457763672
v -717.4527587890625 527.7291259765625 200.0000457763672
v -761.7250366210938 550.9773559570312 200.0000457763672
v -691.9012451171875 576.4369506835938 200.0000457763672
v -736.1558837890625 599.673095703125 200.0000457763672
v -733.8331298828125 604.0968627929688 200.0000457763672
v -689.567138671875 580.8604736328125 200.0000457763672
v -689.567138671875 580.8604736328125 200.0000457763672
v -733.8331298828125 604.0968627929688 200.0000457763672
v -689.567138671875 580.8604736328125 207.0000457763672
v -733.8331298828125 604.0968627929688 207.0000457763672
v -733.8331298828125 604.0968627929688 200.0000457763672
v -761.7250366210938 550.9773559570312 200.0000457763672
v -733.8331298828125 604.0968627929688 207.0000457763672
v -761.7250366210938 550.9773559570312 207.0000457763672
v -761.7250366210938 550.9773559570312 200.0000457763672
v -717.4527587890625 527.7291259765625 200.0000457763672
v -761.7250366210938 550.9773559570312 207.0000457763672
v -717.4527587890625 527.7291259765625 207.0000457763672
v -717.4527587890625 527.7291259765625 200.0000457763672
v -689.567138671875 580.8604736328125 200.0000457763672
v -717.4527587890625 527.7291259765625 207.0000457763672
v -689.567138671875 580.8604736328125 207.0000457763672
v -733.8331298828125 604.0968627929688 207.0000457763672
v -717.4527587890625 527.7291259765625 207.0000457763672
v -689.567138671875 580.8604736328125 207.0000457763672
v -761.7250366210938 550.9773559570312 207.0000457763672
v -863.8956909179688 248.843017578125 6.383875006577e-05
v -908.1678466796875 272.08526611328125 5.9871650591958314e-05
v -863.8956909179688 248.843017578125 200.00006103515625
v -908.1678466796875 272.08526611328125 200.00006103515625
v -931.4100952148438 227.8128662109375 6.272611062740907e-05
v -887.1378784179688 204.57080078125 6.669320282526314e-05
v -931.4100952148438 227.8128662109375 200.00006103515625
v -887.1378784179688 204.57080078125 200.00006103515625
v -931.39013671875 227.8023681640625 200.00006103515625
v -887.1378784179688 204.57080078125 200.00006103515625
v -889.441162109375 200.1353759765625 200.00006103515625
v -933.7132568359375 223.37744140625 200.00006103515625
v -863.8956909179688 248.843017578125 200.00006103515625
v -908.146728515625 272.07415771484375 200.00006103515625
v -905.8214721679688 276.5029296875 200.00006103515625
v -861.555419921875 253.2607421875 200.00006103515625
v -861.555419921875 253.2607421875 200.00006103515625
v -905.8214721679688 276.5029296875 200.00006103515625
v -861.555419921875 253.2607421875 207.00006103515625
v -905.8214721679688 276.5029296875 207.00006103515625
v -905.8214721679688 276.5029296875 200.00006103515625
v -933.7132568359375 223.37744140625 200.00006103515625
v -905.8214721679688 276.5029296875 207.00006103515625
v -933.7132568359375 223.37744140625 207.00006103515625
v -933.7132568359375 223.37744140625 200.00006103515625
v -889.441162109375 200.1353759765625 200.00006103515625
v -933.7132568359375 223.37744140625 207.00006103515625
v -889.441162109375 200.1353759765625 207.00006103515625
v -889.441162109375 200.1353759765625 200.00006103515625
v -861.555419921875 253.2607421875 200.00006103515625
v -889.441162109375 200.1353759765625 207.00006103515625
v -861.555419921875 253.2607421875 207.00006103515625
v -905.8214721679688 276.5029296875 207.00006103515625
v -889.441162109375 200.1353759765625 207.00006103515625
v -861.555419921875 253.2607421875 207.00006103515625
v -933.7132568359375 223.37744140625 207.00006103515625
v -908.16796875 272.08526611328125 5.987164695397951e-05
v -1023.2659912109375 332.51239013671875 100.00005340576172
v -908.16796875 272.08526611328125 200.00006103515625
v -1023.2659912109375 332.51239013671875 -99.99994659423828
v -931.4100952148438 227.8128662109375 200.00006103515625
v -1023.2660522460938 332.51239013671875 100.00005340576172
v -1046.50830078125 288.24609375 100.00005340576172
v -908.16796875 272.08526611328125 200.00006103515625
v -1020.9257202148438 336.93011474609375 100.00004577636719
v -905.8215942382812 276.5029296875 200.00006103515625
v -933.7196044921875 223.3834228515625 200.00006103515625
v -905.8215942382812 276.5029296875 207.00006103515625
v -905.8215942382812 276.5029296875 200.00006103515625
v -1020.9257202148438 336.93011474609375 107.00003814697266
v -1020.9257202148438 336.93011474609375 100.00004577636719
v -1020.9257202148438 336.93011474609375 100.00004577636719
v -1048.817626953125 283.81072998046875 100.00005340576172
v -1020.9257202148438 336.93011474609375 107.00003814697266
v -1048.817626953125 283.81072998046875 107.00004577636719
v -933.7196044921875 223.3834228515625 200.00006103515625
v -1048.817626953125 283.81072998046875 107.00004577636719
v -933.7196044921875 223.3834228515625 207.00006103515625
v -933.7196044921875 223.3834228515625 200.00006103515625
v -905.8215942382812 276.5029296875 200.00006103515625
v -933.7196044921875 223.3834228515625 207.00006103515625
v -905.8215942382812 276.5029296875 207.00006103515625
v -759.4156494140625 555.4127807617188 4.1604533180361614e-05
v -908.161865234375 272.085205078125 5.9871912526432425e-05
v -759.4156494140625 555.4127807617188 100.00003814697266
v -908.161865234375 272.085205078125 100.00005340576172
v -788.1962890625 570.52099609375 100.00003814697266
v -908.1619262695312 272.0853271484375 100.00005340576172
v -759.4217529296875 555.4126586914062 100.00003814697266
v -936.9364013671875 287.192138671875 100.00005340576172
v -788.1962890625 570.52099609375 75.00003814697266
v -936.9364013671875 287.192138671875 100.00005340576172
v -788.1962890625 570.52099609375 100.00003814697266
v -936.9364013671875 287.192138671875 75.00005340576172
v -816.9708251953125 585.62939453125 75.00003814697266
v -936.9364013671875 287.192138671875 75.00005340576172
v -788.1962890625 570.52099609375 75.00003814697266
v -965.7108764648438 302.298828125 75.00005340576172
v -816.9708251953125 585.62939453125 50.00003433227539
v -965.7108764648438 302.298828125 75.00005340576172
v -816.9708251953125 585.62939453125 75.00003814697266
v -965.7108764648438 302.298828125 50.00005340576172
v -845.745361328125 600.7378540039062 50.00003433227539
v -965.7108764648438 302.298828125 50.00005340576172
v -816.9708251953125 585.62939453125 50.00003433227539
v -994.4853515625 317.4056396484375 50.00004959106445
v -845.745361328125 600.7378540039062 25.000032424926758
v -994.4853515625 317.4056396484375 50.00004959106445
v -845.745361328125 600.7378540039062 50.00003433227539
v -994.4853515625 317.4056396484375 25.00005340576172
v -874.5198364257812 615.84619140625 25.000030517578125
v -994.4853515625 317.4056396484375 25.00005340576172
v -845.745361328125 600.7378540039062 25.000032424926758
v -1023.2598266601562 332.512451171875 25.000049591064453
v -874.5198364257812 615.84619140625 3.128992102574557e-05
v -1023.2598266601562 332.512451171875 25.000049591064453
v -874.5198364257812 615.84619140625 25.000030517578125
v -1023.2598266601562 332.512451171875 4.9558097089175135e-05
v -688.5836791992188 518.2278442382812 100.00004577636719
v -759.4156494140625 555.4127807617188 100.00003814697266
v -837.329833984375 234.89404296875 100.00006866455078
v -908.161865234375 272.085205078125 100.00005340576172
v 1277.4080810546875 422.7691650390625 0.00014223300968296826
v 1291.338623046875 449.34075927734375 0.00014051895414013416
v 1277.407958984375 422.769287109375 1600.0
v 1291.3385009765625 449.34088134765625 1600.0
v 1291.338623046875 449.34075927734375 0.00014051895414013416
v -214.18063354492188 1238.9034423828125 5.684866209776374e-06
v 1291.3385009765625 449.34088134765625 1600.000244140625
v -214.18069458007812 1238.903564453125 1600.0
v -214.18063354492188 1238.9034423828125 5.684866209776374e-06
v -228.11721801757812 1212.3316650390625 7.3986539064208046e-06
v -214.18069458007812 1238.903564453125 1600.0
v -228.11729431152344 1212.3319091796875 1600.0
v 1277.407958984375 422.769287109375 1600.000244140625
v 1291.3385009765625 449.34088134765625 1600.000244140625
v 1094.462158203125 518.714111328125 2200.0
v 1108.392822265625 545.2860107421875 2200.0
v 1108.392822265625 545.2860107421875 2200.0
v -31.231231689453125 1142.9566650390625 2200.0
v -214.18069458007812 1238.903564453125 1600.0
v -228.11729431152344 1212.3319091796875 1600.0
v -31.231231689453125 1142.9564208984375 2200.0
v -45.1676025390625 1116.3851318359375 2200.0
v -31.231231689453125 1142.95654296875 2200.0
v 1094.462158203125 518.714111328125 2200.0
v 1108.392822265625 545.2860107421875 2200.0
v -45.1676025390625 1116.3851318359375 2200.0
f 728 726 727
f 726 725 727
f 722 721 723
f 724 722 723
f 718 717 719
f 720 718 719
f 714 713 715
f 716 714 715
f 710 709 711
f 712 710 711
f 706 705 707
f 708 706 707
f 690 689 691
f 691 692 690
f 79 31 88
f 25 24 26
f 26 24 27
f 24 22 27
f 27 22 28
f 28 22 42
f 31 28 42
f 30 28 31
f 31 79 30
f 79 80 30
f 80 79 60
f 29 28 30
f 84 43 85
f 43 84 42
f 42 22 43
f 43 22 32
f 32 22 17
f 59 58 60
f 40 39 17
f 41 40 17
f 17 18 41
f 18 17 19
f 19 17 21
f 20 19 21
f 20 21 47
f 47 21 50
f 49 47 50
f 50 68 49
f 48 47 49
f 68 50 75
f 19 20 71
f 52 51 53
f 53 51 54
f 51 21 54
f 50 21 51
f 72 54 86
f 54 72 53
f 72 73 53
f 73 72 34
f 35 73 34
f 73 35 74
f 68 69 49
f 69 68 38
f 39 69 38
f 38 36 39
f 39 36 17
f 36 35 17
f 35 32 17
f 34 32 35
f 33 32 34
f 37 36 38
f 69 39 70
f 702 703 704
f 704 699 702
f 700 702 1084
f 700 1084 701
f 696 697 698
f 698 693 696
f 694 696 1085
f 694 1085 695
f 685 686 688
f 686 685 687
f 1051 1048 1049
f 1049 1048 1050
f 1047 1044 1045
f 1045 1044 1046
f 1043 1040 1041
f 1041 1040 1042
f 1039 1036 1037
f 1037 1036 1038
f 1035 1032 1033
f 1033 1032 1034
f 1031 1028 1029
f 1029 1028 1030
f 1027 1024 1025
f 1025 1024 1026
f 1023 1020 1021
f 1021 1020 1022
f 1008 1009 1011
f 1009 1008 1010
f 997 996 998
f 999 998 996
f 992 993 995
f 993 992 994
f 961 960 962
f 963 962 960
f 957 956 958
f 959 958 956
f 944 945 947
f 945 944 946
f 925 924 926
f 927 926 924
f 921 920 922
f 923 922 920
f 875 909 911
f 909 875 910
f 873 874 876
f 874 873 875
f 901 902 904
f 902 901 903
f 890 889 891
f 892 891 889
f 885 886 888
f 886 885 887
f 833 834 836
f 834 833 835
f 835 983 834
f 983 835 980
f 980 981 983
f 981 980 982
f 762 761 763
f 766 763 761
f 765 766 1086
f 1086 764 765
f 756 755 757
f 760 757 755
f 759 760 1087
f 1087 758 759
f 856 854 855
f 853 855 854
f 849 853 854
f 854 851 849
f 850 849 851
f 852 849 850
f 46 23 82
f 63 62 64
f 64 62 65
f 65 62 44
f 66 65 44
f 67 66 44
f 44 45 67
f 45 44 46
f 46 44 22
f 23 46 22
f 23 22 24
f 76 65 83
f 65 76 64
f 76 77 64
f 77 27 78
f 27 77 26
f 77 76 26
f 80 61 81
f 62 61 44
f 61 80 60
f 60 58 61
f 61 58 44
f 58 21 44
f 57 21 58
f 54 21 57
f 55 54 57
f 56 55 57
f 57 87 56
f 14 13 15
f 16 14 15
f 10 9 11
f 12 10 11
f 6 5 7
f 8 6 7
f 2 1 3
f 4 2 3
f 1053 1052 1054
f 1054 1055 1053
f 1017 1016 1018
f 1019 1017 1018
f 1013 1012 1014
f 1015 1013 1014
f 1005 1004 1006
f 1007 1005 1006
f 1001 1000 1002
f 1002 1003 1001
f 977 976 978
f 979 977 978
f 973 972 974
f 975 973 974
f 969 968 970
f 971 969 970
f 965 964 966
f 967 965 966
f 941 940 942
f 943 941 942
f 937 936 938
f 939 937 938
f 933 932 934
f 935 933 934
f 929 928 930
f 931 929 930
f 906 905 907
f 908 906 907
f 898 897 899
f 900 898 899
f 894 893 895
f 895 896 894
f 870 869 871
f 872 870 871
f 866 865 867
f 868 866 867
f 862 861 863
f 864 862 863
f 858 857 859
f 860 858 859
f 830 829 831
f 832 830 831
f 826 825 827
f 828 826 827
f 822 821 823
f 824 822 823
f 818 817 819
f 820 818 819
f 812 809 810
f 810 809 811
f 814 811 809
f 809 813 814
f 813 815 814
f 816 814 815
f 795 794 791
f 791 796 795
f 791 792 796
f 792 791 793
f 734 733 729
f 729 730 734
f 730 729 731
f 731 729 732
f 788 787 789
f 790 788 789
f 784 783 785
f 786 784 785
f 780 779 781
f 782 780 781
f 776 775 777
f 778 776 777
f 772 771 773
f 774 772 773
f 768 767 769
f 770 768 769
f 90 89 91
f 92 90 91
f 118 117 119
f 120 118 119
f 114 113 115
f 116 114 115
f 110 109 111
f 112 110 111
f 106 105 107
f 108 106 107
f 102 101 103
f 104 102 103
f 98 97 99
f 100 98 99
f 94 93 95
f 96 94 95
f 1077 1076 1078
f 1079 1077 1078
f 1073 1072 1074
f 1075 1073 1074
f 1069 1068 1070
f 1071 1069 1070
f 1065 1064 1066
f 1067 1065 1066
f 1061 1060 1062
f 1063 1061 1062
f 1057 1056 1058
f 1059 1057 1058
f 985 984 986
f 986 987 985
f 953 952 954
f 955 953 954
f 949 948 950
f 951 949 950
f 917 916 918
f 919 917 918
f 913 912 914
f 915 913 914
f 878 877 879
f 879 880 878
f 846 845 847
f 848 846 847
f 842 841 843
f 844 842 843
f 838 837 839
f 840 838 839
f 806 805 807
f 808 806 807
f 802 801 803
f 804 802 803
f 798 797 799
f 800 798 799
f 752 751 753
f 754 752 753
f 748 747 749
f 750 748 749
f 744 743 745
f 746 744 745
f 740 739 741
f 742 740 741
f 736 735 737
f 738 736 737
f 682 681 683
f 684 682 683
f 678 677 679
f 680 678 679
f 674 673 675
f 676 674 675
f 670 669 671
f 672 670 671
f 666 665 667
f 668 666 667
f 662 661 663
f 663 664 662
f 658 657 659
f 660 658 659
f 654 653 655
f 656 654 655
f 650 649 651
f 652 650 651
f 646 645 647
f 648 646 647
f 642 641 643
f 643 644 642
f 638 637 639
f 640 638 639
f 634 633 635
f 636 634 635
f 630 629 631
f 632 630 631
f 626 625 627
f 628 626 627
f 618 617 619
f 620 618 619
f 614 613 615
f 616 614 615
f 610 609 611
f 612 610 611
f 606 605 607
f 608 606 607
f 598 597 599
f 600 598 599
f 594 593 595
f 596 594 595
f 590 589 591
f 592 590 591
f 586 585 587
f 588 586 587
f 582 581 583
f 584 582 583
f 578 577 579
f 580 578 579
f 574 573 575
f 576 574 575
f 570 569 571
f 572 570 571
f 566 565 567
f 568 566 567
f 562 561 563
f 564 562 563
f 558 557 559
f 560 558 559
f 554 553 555
f 556 554 555
f 546 545 547
f 548 546 547
f 542 541 543
f 544 542 543
f 538 537 539
f 540 538 539
f 534 533 535
f 536 534 535
f 526 525 527
f 528 526 527
f 522 521 523
f 524 522 523
f 518 517 519
f 520 518 519
f 514 513 515
f 516 514 515
f 510 509 511
f 512 510 511
f 506 505 507
f 508 506 507
f 502 501 503
f 504 502 503
f 498 497 499
f 500 498 499
f 494 493 495
f 496 494 495
f 490 489 491
f 492 490 491
f 486 485 487
f 488 486 487
f 482 481 483
f 484 482 483
f 474 473 475
f 476 474 475
f 470 469 471
f 472 470 471
f 466 465 467
f 468 466 467
f 462 461 463
f 464 462 463
f 454 453 455
f 456 454 455
f 450 449 451
f 452 450 451
f 446 445 447
f 448 446 447
f 442 441 443
f 444 442 443
f 434 433 435
f 436 434 435
f 430 429 431
f 432 430 431
f 426 425 427
f 428 426 427
f 422 421 423
f 424 422 423
f 414 413 415
f 416 414 415
f 410 409 411
f 412 410 411
f 406 405 407
f 408 406 407
f 402 401 403
f 404 402 403
f 398 397 399
f 400 398 399
f 394 393 395
f 396 394 395
f 390 389 391
f 392 390 391
f 386 385 387
f 388 386 387
f 382 381 383
f 384 382 383
f 378 377 379
f 380 378 379
f 374 373 375
f 376 374 375
f 370 369 371
f 372 370 371
f 366 365 367
f 368 366 367
f 362 361 363
f 364 362 363
f 358 357 359
f 360 358 359
f 354 353 355
f 356 354 355
f 342 341 343
f 344 342 343
f 338 337 339
f 340 338 339
f 334 333 335
f 336 334 335
f 330 329 331
f 332 330 331
f 326 325 327
f 328 326 327
f 322 321 323
f 324 322 323
f 318 317 319
f 320 318 319
f 314 313 315
f 316 314 315
f 310 309 311
f 312 310 311
f 306 305 307
f 308 306 307
f 302 301 303
f 304 302 303
f 298 297 299
f 300 298 299
f 294 293 295
f 296 294 295
f 290 289 291
f 292 290 291
f 286 285 287
f 288 286 287
f 282 281 283
f 284 282 283
f 278 277 279
f 280 278 279
f 274 273 275
f 276 274 275
f 270 269 271
f 272 270 271
f 266 265 267
f 268 266 267
f 262 261 263
f 264 262 263
f 258 257 259
f 260 258 259
f 254 253 255
f 256 254 255
f 250 249 251
f 252 250 251
f 246 245 247
f 248 246 247
f 242 241 243
f 244 242 243
f 238 237 239
f 240 238 239
f 234 233 235
f 236 234 235
f 230 229 231
f 232 230 231
f 226 225 227
f 228 226 227
f 222 221 223
f 224 222 223
f 218 217 219
f 220 218 219
f 214 213 215
f 216 214 215
f 210 209 211
f 212 210 211
f 206 205 207
f 208 206 207
f 202 201 203
f 204 202 203
f 198 197 199
f 200 198 199
f 194 193 195
f 196 194 195
f 190 189 191
f 192 190 191
f 186 185 187
f 188 186 187
f 182 181 183
f 184 182 183
f 178 177 179
f 180 178 179
f 174 173 175
f 176 174 175
f 170 169 171
f 172 170 171
f 166 165 167
f 168 166 167
f 162 161 163
f 164 162 163
f 158 157 159
f 160 158 159
f 154 153 155
f 156 154 155
f 150 149 151
f 152 150 151
f 146 145 147
f 148 146 147
f 142 141 143
f 144 142 143
f 138 137 139
f 140 138 139
f 134 133 135
f 136 134 135
f 130 129 131
f 132 130 131
f 126 125 127
f 128 126 127
f 124 122 123
f 122 121 123
f 345 346 348
f 346 345 347
f 350 349 351
f 352 351 349
f 418 417 419
f 420 419 417
f 437 438 440
f 438 437 439
f 457 458 460
f 458 457 459
f 477 478 480
f 478 477 479
f 529 530 532
f 530 529 531
f 549 550 552
f 550 549 551
f 601 602 604
f 602 601 603
f 621 622 624
f 622 621 623
f 881 882 884
f 882 881 883
f 988 989 991
f 989 988 990
f 1080 1081 1083
f 1081 1080 1082
