# from FinancialDistrict_Block04_Upmarket Corporate (UC)_0008_LOD_0.pskx
v 1100.00048828125 -1100.000732421875 0.0
v 1300.00048828125 -900.000732421875 -8.742276804696303e-06
v 1100.0001220703125 -1100.0 8200.0
v 1300.0001220703125 -900.0 8200.0
v 1300.00048828125 -900.000732421875 -8.742277714191005e-06
v 1300.0003662109375 899.999267578125 -0.00016610327293165028
v 1300.0001220703125 -900.0 8200.0
v 1300.0 900.0 8200.0
v 1300.0003662109375 899.999267578125 -0.00016610327293165028
v 1100.0003662109375 1099.999267578125 -0.0001923301024362445
v 1300.0 900.0 8200.0
v 1100.0 1100.0 8200.0
v 1100.0003662109375 1099.999267578125 -0.0001923301024362445
v -1099.99951171875 1099.999267578125 -0.00028849515365436673
v 1100.0 1100.0 8200.0
v -1100.0 1100.0 8200.0
v -1099.99951171875 1099.999267578125 -0.00028849515365436673
v -1299.99951171875 899.9991455078125 -0.00027975288685411215
v -1100.0 1100.0 8200.0
v -1300.0 899.9998779296875 8200.0
v -1299.99951171875 899.9991455078125 -0.00027975288685411215
v -1299.99951171875 -900.0008544921875 -0.00012239188072271645
v -1300.0 899.9998779296875 8200.0
v -1300.0 -900.0001220703125 8200.0
v -1299.99951171875 -900.0008544921875 -0.00012239188072271645
v -1099.99951171875 -1100.0008544921875 -9.616505121812224e-05
v -1300.0 -900.0001220703125 8200.0
v -1099.999755859375 -1100.0001220703125 8200.0
v -1099.99951171875 -1100.0008544921875 -9.616505121812224e-05
v 1100.00048828125 -1100.000732421875 0.0
v -1099.999755859375 -1100.0001220703125 8200.0
v 1100.0001220703125 -1100.0 8200.0
v 1095.8580322265625 -1090.0 8230.0
v 1290.0001220703125 -895.8578491210938 8200.0
v 1095.8580322265625 -1090.0 8200.0
v 1290.0001220703125 -895.8578491210938 8230.0
v 1095.8580322265625 -1090.0 8200.0
v 1330.0001220703125 -912.4263916015625 8200.0
v 1112.426513671875 -1130.0 8200.0
v 1290.0001220703125 -895.8578491210938 8200.0
v 1112.426513671875 -1130.0 8200.0
v 1330.0001220703125 -912.4263916015625 8230.0
v 1112.426513671875 -1130.0 8230.0
v 1330.0001220703125 -912.4263916015625 8200.0
v 1112.426513671875 -1130.0 8230.0
v 1290.0001220703125 -895.8578491210938 8230.0
v 1095.8580322265625 -1090.0 8230.0
v 1330.0001220703125 -912.4263916015625 8230.0
v 1290.0001220703125 -895.8578491210938 8230.0
v 1290.0 895.8577880859375 8200.0
v 1290.0001220703125 -895.8578491210938 8200.0
v 1290.0 895.8577880859375 8230.0
v 1330.0 912.4263916015625 8200.0
v 1290.0 895.8577880859375 8200.0
v 1330.0001220703125 -912.4263916015625 8200.0
v 1330.0 912.4263916015625 8230.0
v 1330.0001220703125 -912.4263916015625 8230.0
v 1330.0 912.4263916015625 8200.0
v 1290.0 895.8577880859375 8230.0
v 1330.0 912.4263916015625 8230.0
v 1290.0 895.8577880859375 8230.0
v 1095.85791015625 1090.0 8200.0
v 1290.0 895.8577880859375 8200.0
v 1095.85791015625 1090.0 8230.0
v 1112.4263916015625 1130.0 8200.0
v 1095.85791015625 1090.0 8200.0
v 1330.0 912.4263916015625 8200.0
v 1112.4263916015625 1130.0 8230.0
v 1330.0 912.4263916015625 8230.0
v 1112.4263916015625 1130.0 8200.0
v 1095.85791015625 1090.0 8230.0
v 1112.4263916015625 1130.0 8230.0
v 1095.85791015625 1090.0 8230.0
v -1095.85791015625 1090.0 8200.0
v 1095.85791015625 1090.0 8200.0
v -1095.85791015625 1090.0 8230.0
v -1112.42626953125 1130.0 8200.0
v -1095.85791015625 1090.0 8200.0
v 1112.4263916015625 1130.0 8200.0
v -1112.42626953125 1130.0 8230.0
v 1112.4263916015625 1130.0 8230.0
v -1112.42626953125 1130.0 8200.0
v -1095.85791015625 1090.0 8230.0
v -1112.42626953125 1130.0 8230.0
v -1095.85791015625 1090.0 8230.0
v -1290.0 895.857666015625 8200.0
v -1095.85791015625 1090.0 8200.0
v -1290.0 895.857666015625 8230.0
v -1330.0 912.42626953125 8200.0
v -1290.0 895.857666015625 8200.0
v -1112.42626953125 1130.0 8200.0
v -1330.0 912.42626953125 8230.0
v -1112.42626953125 1130.0 8230.0
v -1330.0 912.42626953125 8200.0
v -1290.0 895.857666015625 8230.0
v -1330.0 912.42626953125 8230.0
v -1290.0 895.857666015625 8230.0
v -1290.0 -895.8579711914062 8200.0
v -1290.0 895.857666015625 8200.0
v -1290.0 -895.8579711914062 8230.0
v -1330.0 -912.426513671875 8200.0
v -1290.0 -895.8579711914062 8200.0
v -1330.0 912.42626953125 8200.0
v -1330.0 -912.426513671875 8230.0
v -1330.0 912.42626953125 8230.0
v -1330.0 -912.426513671875 8200.0
v -1290.0 -895.8579711914062 8230.0
v -1330.0 -912.426513671875 8230.0
v -1290.0 -895.8579711914062 8230.0
v -1095.857666015625 -1090.0001220703125 8200.0
v -1290.0 -895.8579711914062 8200.0
v -1095.857666015625 -1090.0001220703125 8230.0
v -1112.426025390625 -1130.0001220703125 8200.0
v -1095.857666015625 -1090.0001220703125 8200.0
v -1330.0 -912.426513671875 8200.0
v -1112.426025390625 -1130.0001220703125 8230.0
v -1330.0 -912.426513671875 8230.0
v -1112.426025390625 -1130.0001220703125 8200.0
v -1095.857666015625 -1090.0001220703125 8230.0
v -1112.426025390625 -1130.0001220703125 8230.0
v -1095.857666015625 -1090.0001220703125 8230.0
v 1095.8580322265625 -1090.0 8200.0
v -1095.857666015625 -1090.0001220703125 8200.0
v 1095.8580322265625 -1090.0 8230.0
v -1112.426025390625 -1130.0001220703125 8200.0
v 1112.426513671875 -1130.0 8230.0
v -1112.426025390625 -1130.0001220703125 8230.0
v 1112.426513671875 -1130.0 8200.0
v 1100.0001220703125 -1100.0 8200.0
v 1300.0001220703125 -900.0 8200.0
v 1300.0 900.0 8200.0
v 1100.0001220703125 -700.0 8200.0
v 1100.0 700.0 8200.0
v 1100.0 1100.0 8200.0
v -1100.0 1100.0 8200.0
v -1100.0 699.9998779296875 8200.0
v -900.0 899.9998779296875 8200.0
v 900.0000610351562 900.0 8200.0
v -1300.0 899.9998779296875 8200.0
v -1300.0 -900.0001220703125 8200.0
v -1099.999755859375 -1100.0001220703125 8200.0
v -1100.0 -700.0001220703125 8200.0
v 900.0001220703125 -900.0 8200.0
v -899.9998779296875 -900.0001220703125 8200.0
v 900.0001220703125 -900.0 8200.0
v 1100.0001220703125 -700.0 8200.0
v 900.0000610351562 -899.9999389648438 9200.0
v 1100.0001220703125 -699.9999389648438 9200.0
v 1100.0001220703125 -700.0 8200.0
v 1100.0 700.0 8200.0
v 1100.0001220703125 -699.9999389648438 9200.0
v 1100.0 700.0001220703125 9200.0
v 1100.0 700.0 8200.0
v 900.0 900.0 8200.0
v 1100.0 700.0001220703125 9200.0
v 900.0 900.0001220703125 9200.0
v 900.0000610351562 900.0 8200.0
v -900.0 899.9998779296875 8200.0
v 900.0 900.0001220703125 9200.0
v -900.0 900.0 9200.0
v -900.0 899.9998779296875 8200.0
v -1100.0 699.9998779296875 8200.0
v -900.0 900.0 9200.0
v -1100.0 700.0 9200.0
v -1100.0 699.9998779296875 8200.0
v -1100.0 -700.0001220703125 8200.0
v -1100.0 700.0 9200.0
v -1100.0 -700.0 9200.0
v -1100.0 -700.0001220703125 8200.0
v -899.9998779296875 -900.0001220703125 8200.0
v -1100.0 -700.0 9200.0
v -899.9998779296875 -900.0000610351562 9200.0
v -899.9998779296875 -900.0001220703125 8200.0
v 900.0001220703125 -900.0 8200.0
v -899.9998779296875 -900.0 9200.0
v 900.0000610351562 -899.9999389648438 9200.0
v 895.85791015625 -889.9999389648438 9230.0
v 1090.0001220703125 -695.8577880859375 9200.0
v 895.85791015625 -889.9999389648438 9200.0
v 1090.0001220703125 -695.8577880859375 9230.0
v 895.85791015625 -889.9999389648438 9200.0
v 1130.0001220703125 -712.4263916015625 9200.0
v 912.426513671875 -929.9999389648438 9200.0
v 1090.0001220703125 -695.8577880859375 9200.0
v 912.426513671875 -929.9999389648438 9200.0
v 1130.0001220703125 -712.4263916015625 9230.0
v 912.426513671875 -929.9999389648438 9230.0
v 1130.0001220703125 -712.4263916015625 9200.0
v 912.426513671875 -929.9999389648438 9230.0
v 1090.0001220703125 -695.8577880859375 9230.0
v 895.85791015625 -889.9999389648438 9230.0
v 1130.0001220703125 -712.4263916015625 9230.0
v 1090.0001220703125 -695.8577880859375 9230.0
v 1090.0 695.858154296875 9200.0
v 1090.0001220703125 -695.8577880859375 9200.0
v 1090.0 695.858154296875 9230.0
v 1130.0 712.426513671875 9200.0
v 1090.0 695.858154296875 9200.0
v 1130.0001220703125 -712.4263916015625 9200.0
v 1130.0 712.426513671875 9230.0
v 1130.0001220703125 -712.4263916015625 9230.0
v 1130.0 712.426513671875 9200.0
v 1090.0 695.858154296875 9230.0
v 1130.0 712.426513671875 9230.0
v 1090.0 695.858154296875 9230.0
v 895.8578491210938 890.0001220703125 9200.0
v 1090.0 695.858154296875 9200.0
v 895.8578491210938 890.0001220703125 9230.0
v 912.4263916015625 930.0 9200.0
v 895.8578491210938 890.0001220703125 9200.0
v 1130.0 712.426513671875 9200.0
v 912.4263916015625 930.0 9230.0
v 1130.0 712.426513671875 9230.0
v 912.4263916015625 930.0 9200.0
v 895.8578491210938 890.0001220703125 9230.0
v 912.4263916015625 930.0 9230.0
v 895.8578491210938 890.0001220703125 9230.0
v -895.8577880859375 890.0 9200.0
v 895.8578491210938 890.0001220703125 9200.0
v -895.8577880859375 890.0 9230.0
v -912.4263916015625 929.9998779296875 9200.0
v -895.8577880859375 890.0 9200.0
v 912.4263916015625 930.0 9200.0
v -912.4263916015625 929.9998779296875 9230.0
v 912.4263916015625 930.0 9230.0
v -912.4263916015625 929.9998779296875 9200.0
v -895.8577880859375 890.0 9230.0
v -912.4263916015625 929.9998779296875 9230.0
v -895.8577880859375 890.0 9230.0
v -1090.0 695.8580322265625 9200.0
v -895.8577880859375 890.0 9200.0
v -1090.0 695.8580322265625 9230.0
v -1130.0 712.4263916015625 9200.0
v -1090.0 695.8580322265625 9200.0
v -912.4263916015625 929.9998779296875 9200.0
v -1130.0 712.4263916015625 9230.0
v -912.4263916015625 929.9998779296875 9230.0
v -1130.0 712.4263916015625 9200.0
v -1090.0 695.8580322265625 9230.0
v -1130.0 712.4263916015625 9230.0
v -1090.0 695.8580322265625 9230.0
v -1090.0 -695.85791015625 9200.0
v -1090.0 695.8580322265625 9200.0
v -1090.0 -695.85791015625 9230.0
v -1130.0 -712.4264526367188 9200.0
v -1090.0 -695.85791015625 9200.0
v -1130.0 712.4263916015625 9200.0
v -1130.0 -712.4264526367188 9230.0
v -1130.0 712.4263916015625 9230.0
v -1130.0 -712.4264526367188 9200.0
v -1090.0 -695.85791015625 9230.0
v -1130.0 -712.4264526367188 9230.0
v -1090.0 -695.85791015625 9230.0
v -895.857666015625 -890.0 9200.0
v -1090.0 -695.85791015625 9200.0
v -895.857666015625 -890.0 9230.0
v -912.42626953125 -930.0 9200.0
v -895.857666015625 -890.0 9200.0
v -1130.0 -712.4264526367188 9200.0
v -912.42626953125 -930.0 9230.0
v -1130.0 -712.4264526367188 9230.0
v -912.42626953125 -930.0 9200.0
v -895.857666015625 -890.0 9230.0
v -912.42626953125 -930.0 9230.0
v -895.857666015625 -890.0 9230.0
v 895.85791015625 -889.9999389648438 9200.0
v -895.857666015625 -890.0 9200.0
v 895.85791015625 -889.9999389648438 9230.0
v -912.42626953125 -930.0 9200.0
v 912.426513671875 -929.9999389648438 9230.0
v -912.42626953125 -930.0 9230.0
v 912.426513671875 -929.9999389648438 9200.0
v 1100.0001220703125 -699.9999389648438 9200.0
v 1100.0 700.0001220703125 9200.0
v 1000.0000610351562 -599.9999389648438 9200.0
v 900.0000610351562 -899.9999389648438 9200.0
v 1000.0 600.0001220703125 9200.0
v 900.0 900.0001220703125 9200.0
v -900.0 900.0 9200.0
v -800.0 800.0 9200.0
v 800.0 800.0001220703125 9200.0
v -1100.0 700.0 9200.0
v -1100.0 -700.0 9200.0
v -1000.0 600.0 9200.0
v -1000.0 -600.0 9200.0
v -899.9998779296875 -900.0 9200.0
v 800.0000610351562 -799.9999389648438 9200.0
v -799.9998779296875 -800.0 9200.0
v 800.0000610351562 -799.9999389648438 9200.0
v 1000.0000610351562 -599.9999389648438 9200.0
v 800.0 -799.9998779296875 10200.0
v 1000.0000610351562 -599.9998779296875 10200.0
v 1000.0000610351562 -599.9999389648438 9200.0
v 1000.0 600.0001220703125 9200.0
v 1000.0 -599.9998779296875 10200.0
v 1000.0 600.0001220703125 10200.0
v 1000.0 600.0001220703125 9200.0
v 800.0 800.0001220703125 9200.0
v 1000.0 600.0001220703125 10200.0
v 799.9999389648438 800.0001220703125 10200.0
v 800.0 800.0001220703125 9200.0
v -800.0 800.0 9200.0
v 800.0 800.0001220703125 10200.0
v -800.0 800.0 10200.0
v -800.0 800.0 9200.0
v -1000.0 600.0 9200.0
v -800.0 800.0 10200.0
v -1000.0 600.0 10200.0
v -1000.0 600.0 9200.0
v -1000.0 -600.0 9200.0
v -1000.0 600.0 10200.0
v -1000.0 -599.9999389648438 10200.0
v -1000.0 -600.0 9200.0
v -799.9998779296875 -800.0000610351562 9200.0
v -1000.0 -599.9999389648438 10200.0
v -800.0 -800.0 10200.0
v -799.9998779296875 -800.0 9200.0
v 800.0000610351562 -799.9999389648438 9200.0
v -800.0 -799.9999389648438 10200.0
v 800.0 -799.9998779296875 10200.0
v 795.85791015625 -789.9998779296875 10230.0
v 990.0 -595.857666015625 10200.0
v 795.85791015625 -789.9998779296875 10200.0
v 990.0 -595.857666015625 10230.0
v 795.85791015625 -789.9998779296875 10200.0
v 1030.0 -612.42626953125 10200.0
v 812.4263916015625 -829.9998779296875 10200.0
v 990.0 -595.857666015625 10200.0
v 812.4263916015625 -829.9998779296875 10200.0
v 1030.0 -612.42626953125 10230.0
v 812.4263916015625 -829.9998779296875 10230.0
v 1030.0 -612.42626953125 10200.0
v 812.4263916015625 -829.9998779296875 10230.0
v 990.0 -595.857666015625 10230.0
v 795.85791015625 -789.9998779296875 10230.0
v 1030.0 -612.42626953125 10230.0
v 990.0 -595.857666015625 10230.0
v 990.0 595.858154296875 10200.0
v 990.0 -595.857666015625 10200.0
v 990.0 595.858154296875 10230.0
v 1030.0 612.426513671875 10200.0
v 990.0 595.858154296875 10200.0
v 1030.0 -612.42626953125 10200.0
v 1030.0 612.426513671875 10230.0
v 1030.0 -612.42626953125 10230.0
v 1030.0 612.426513671875 10200.0
v 990.0 595.858154296875 10230.0
v 1030.0 612.426513671875 10230.0
v 990.0 595.858154296875 10230.0
v 795.8577880859375 790.0001220703125 10200.0
v 990.0 595.858154296875 10200.0
v 795.8577880859375 790.0001220703125 10230.0
v 812.4263916015625 830.0 10200.0
v 795.8577880859375 790.0001220703125 10200.0
v 1030.0 612.426513671875 10200.0
v 812.4263916015625 830.0 10230.0
v 1030.0 612.426513671875 10230.0
v 812.4263916015625 830.0 10200.0
v 795.8577880859375 790.0001220703125 10230.0
v 812.4263916015625 830.0 10230.0
v 795.8577880859375 790.0001220703125 10230.0
v -795.8580322265625 790.0 10200.0
v 795.8577880859375 790.0001220703125 10200.0
v -795.8580322265625 790.0 10230.0
v -812.4263916015625 829.9998779296875 10200.0
v -795.8580322265625 790.0 10200.0
v 812.4263916015625 830.0 10200.0
v -812.4263916015625 829.9998779296875 10230.0
v 812.4263916015625 830.0 10230.0
v -812.4263916015625 829.9998779296875 10200.0
v -795.8580322265625 790.0 10230.0
v -812.4263916015625 829.9998779296875 10230.0
v -795.8580322265625 790.0 10230.0
v -990.0 595.8580322265625 10200.0
v -795.8580322265625 790.0 10200.0
v -990.0 595.8580322265625 10230.0
v -1030.0 612.4263916015625 10200.0
v -990.0 595.8580322265625 10200.0
v -812.4263916015625 829.9998779296875 10200.0
v -1030.0 612.4263916015625 10230.0
v -812.4263916015625 829.9998779296875 10230.0
v -1030.0 612.4263916015625 10200.0
v -990.0 595.8580322265625 10230.0
v -1030.0 612.4263916015625 10230.0
v -990.0 595.8580322265625 10230.0
v -990.0 -595.8577880859375 10200.0
v -990.0 595.8580322265625 10200.0
v -990.0 -595.8577880859375 10230.0
v -1030.0 -612.4263916015625 10200.0
v -990.0 -595.8577880859375 10200.0
v -1030.0 612.4263916015625 10200.0
v -1030.0 -612.4263916015625 10230.0
v -1030.0 612.4263916015625 10230.0
v -1030.0 -612.4263916015625 10200.0
v -990.0 -595.8577880859375 10230.0
v -1030.0 -612.4263916015625 10230.0
v -990.0 -595.8577880859375 10230.0
v -795.8580322265625 -789.9999389648438 10200.0
v -990.0 -595.8577880859375 10200.0
v -795.8580322265625 -789.9999389648438 10230.0
v -812.4263916015625 -829.9999389648438 10200.0
v -795.8580322265625 -789.9999389648438 10200.0
v -1030.0 -612.4263916015625 10200.0
v -812.4263916015625 -829.9999389648438 10230.0
v -1030.0 -612.4263916015625 10230.0
v -812.4263916015625 -829.9999389648438 10200.0
v -795.8580322265625 -789.9999389648438 10230.0
v -812.4263916015625 -829.9999389648438 10230.0
v -795.8580322265625 -789.9999389648438 10230.0
v 795.85791015625 -789.9998779296875 10200.0
v -795.8580322265625 -789.9999389648438 10200.0
v 795.85791015625 -789.9998779296875 10230.0
v -812.4263916015625 -829.9999389648438 10200.0
v 812.4263916015625 -829.9998779296875 10230.0
v -812.4263916015625 -829.9999389648438 10230.0
v 812.4263916015625 -829.9998779296875 10200.0
v 800.0 -799.9998779296875 10200.0
v 1000.0 -599.9998779296875 10200.0
v 1000.0 600.0001220703125 10200.0
v 800.0 800.0001220703125 10200.0
v -800.0 800.0 10200.0
v -800.0 -799.9999389648438 10200.0
v -1000.0 600.0 10200.0
v -1000.0 -599.9999389648438 10200.0
v 400.0 400.0001220703125 10200.0
v 700.0 400.0001220703125 10200.0
v 400.0 -399.9998779296875 10200.0
v 700.0 -399.99981689453125 10200.0
v 700.0 400.0001220703125 10200.0
v 400.0 400.0001220703125 10200.0
v 700.0 400.000244140625 10600.0
v 399.99993896484375 400.000244140625 10600.0
v 400.0 400.0001220703125 10200.0
v 400.0 -399.9998779296875 10200.0
v 399.99993896484375 400.000244140625 10600.0
v 400.0 -399.9998779296875 10600.0
v 400.0 -399.9998779296875 10200.0
v 700.0 -399.99981689453125 10200.0
v 400.0 -399.9998779296875 10600.0
v 700.0 -399.99981689453125 10600.0
v 700.0 -399.99981689453125 10200.0
v 700.0 400.0001220703125 10200.0
v 700.0 -399.99981689453125 10600.0
v 700.0 400.000244140625 10600.0
v 399.99993896484375 400.000244140625 10600.0
v 400.0 -399.9998779296875 10600.0
v 700.0 400.000244140625 10600.0
v 700.0 -399.99981689453125 10600.0
v 500.0 -199.99981689453125 10600.0
v 600.0 -199.99981689453125 10600.0
v 500.0 -299.99981689453125 10600.0
v 600.0 -299.99981689453125 10600.0
v 499.99993896484375 300.000244140625 10600.0
v 600.0 300.000244140625 10600.0
v 499.99993896484375 200.000244140625 10600.0
v 600.0 200.000244140625 10600.0
v 600.0 -199.99981689453125 10600.0
v 500.0 -199.99981689453125 10600.0
v 600.0 -199.999755859375 11200.0
v 499.99993896484375 -199.999755859375 11200.0
v 500.0 -199.99981689453125 10600.0
v 500.0 -299.99981689453125 10600.0
v 499.99993896484375 -199.999755859375 11200.0
v 499.99993896484375 -299.999755859375 11200.0
v 500.0 -299.99981689453125 10600.0
v 600.0 -299.99981689453125 10600.0
v 499.99993896484375 -299.999755859375 11200.0
v 600.0 -299.999755859375 11200.0
v 600.0 -299.99981689453125 10600.0
v 600.0 -199.99981689453125 10600.0
v 600.0 -299.999755859375 11200.0
v 600.0 -199.999755859375 11200.0
v 499.99993896484375 -199.999755859375 11200.0
v 499.99993896484375 -299.999755859375 11200.0
v 600.0 -199.999755859375 11200.0
v 600.0 -299.999755859375 11200.0
v 600.0 300.000244140625 10600.0
v 499.99993896484375 300.000244140625 10600.0
v 599.9999389648438 300.000244140625 11200.0
v 499.99993896484375 300.000244140625 11200.0
v 499.99993896484375 300.000244140625 10600.0
v 499.99993896484375 200.000244140625 10600.0
v 499.99993896484375 300.000244140625 11200.0
v 499.99993896484375 200.000244140625 11200.0
v 499.99993896484375 200.000244140625 10600.0
v 600.0 200.000244140625 10600.0
v 499.99993896484375 200.000244140625 11200.0
v 599.9999389648438 200.000244140625 11200.0
v 600.0 200.000244140625 10600.0
v 600.0 300.000244140625 10600.0
v 599.9999389648438 200.000244140625 11200.0
v 599.9999389648438 300.000244140625 11200.0
v 499.99993896484375 300.000244140625 11200.0
v 499.99993896484375 200.000244140625 11200.0
v 524.9999389648438 275.000244140625 11200.0
v 574.9999389648438 275.000244140625 11200.0
v 574.9999389648438 225.000244140625 11200.0
v 599.9999389648438 300.000244140625 11200.0
v 599.9999389648438 200.000244140625 11200.0
v 524.9999389648438 225.000244140625 11200.0
v 524.9999389648438 -224.999755859375 11200.0
v 574.9999389648438 -224.999755859375 11200.0
v 524.9999389648438 -274.999755859375 11200.0
v 574.9999389648438 -274.999755859375 11200.0
v 574.9999389648438 -224.999755859375 11200.0
v 524.9999389648438 -224.999755859375 11200.0
v 574.9998779296875 -224.99957275390625 13200.0
v 524.9998779296875 -224.99957275390625 13200.0
v 524.9999389648438 -224.999755859375 11200.0
v 524.9999389648438 -274.999755859375 11200.0
v 524.9998779296875 -224.99957275390625 13200.0
v 524.9998779296875 -274.99957275390625 13200.0
v 524.9999389648438 -274.999755859375 11200.0
v 574.9999389648438 -274.999755859375 11200.0
v 524.9998779296875 -274.99957275390625 13200.0
v 574.9998779296875 -274.99957275390625 13200.0
v 574.9999389648438 -274.999755859375 11200.0
v 574.9999389648438 -224.999755859375 11200.0
v 574.9998779296875 -274.99957275390625 13200.0
v 574.9998779296875 -224.99957275390625 13200.0
v 524.9998779296875 -224.99957275390625 13200.0
v 524.9998779296875 -274.99957275390625 13200.0
v 574.9998779296875 -224.99957275390625 13200.0
v 574.9998779296875 -274.99957275390625 13200.0
v 574.9999389648438 275.000244140625 11200.0
v 524.9999389648438 275.000244140625 11200.0
v 574.9923095703125 274.9927978515625 13200.0
v 525.0074462890625 274.9927978515625 13200.0
v 524.9999389648438 275.000244140625 11200.0
v 524.9999389648438 225.000244140625 11200.0
v 525.0074462890625 274.9927978515625 13200.0
v 525.0074462890625 225.0079345703125 13200.0
v 524.9999389648438 225.000244140625 11200.0
v 574.9999389648438 225.000244140625 11200.0
v 525.0074462890625 225.0079345703125 13200.0
v 574.9923095703125 225.0079345703125 13200.0
v 574.9999389648438 225.000244140625 11200.0
v 574.9999389648438 275.000244140625 11200.0
v 574.9923095703125 225.0079345703125 13200.0
v 574.9923095703125 274.9927978515625 13200.0
v 525.0074462890625 274.9927978515625 13200.0
v 525.0074462890625 225.0079345703125 13200.0
v 574.9923095703125 274.9927978515625 13200.0
v 574.9923095703125 225.0079345703125 13200.0
f 2 1 3
f 4 2 3
f 382 381 383
f 384 382 383
f 378 377 379
f 380 378 379
f 374 373 375
f 376 374 375
f 370 369 371
f 372 370 371
f 366 365 367
f 368 366 367
f 362 361 363
f 364 362 363
f 358 357 359
f 360 358 359
f 354 353 355
f 356 354 355
f 206 205 207
f 208 206 207
f 202 201 203
f 204 202 203
f 198 197 199
f 200 198 199
f 194 193 195
f 196 194 195
f 190 189 191
f 192 190 191
f 186 185 187
f 188 186 187
f 182 181 183
f 184 182 183
f 178 177 179
f 180 178 179
f 30 29 31
f 32 30 31
f 26 25 27
f 28 26 27
f 22 21 23
f 24 22 23
f 18 17 19
f 20 18 19
f 14 13 15
f 16 14 15
f 10 9 11
f 12 10 11
f 6 5 7
f 8 6 7
f 34 36 33
f 34 33 35
f 46 48 45
f 46 45 47
f 42 44 41
f 42 41 43
f 38 40 37
f 38 37 39
f 510 512 509
f 510 509 511
f 506 508 505
f 506 505 507
f 502 504 501
f 502 501 503
f 498 500 497
f 498 497 499
f 494 496 493
f 494 493 495
f 490 492 489
f 490 489 491
f 486 488 485
f 486 485 487
f 482 484 481
f 482 481 483
f 478 480 477
f 478 477 479
f 474 476 473
f 474 473 475
f 470 472 469
f 470 469 471
f 466 468 465
f 466 465 467
f 462 464 461
f 462 461 463
f 458 460 457
f 458 457 459
f 454 456 453
f 454 453 455
f 450 452 449
f 450 449 451
f 446 448 445
f 446 445 447
f 442 444 441
f 442 441 443
f 438 440 437
f 438 437 439
f 434 436 433
f 434 433 435
f 430 432 429
f 430 429 431
f 426 428 425
f 426 425 427
f 422 424 421
f 422 421 423
f 418 420 417
f 418 417 419
f 414 416 413
f 414 413 415
f 410 412 409
f 410 409 411
f 406 408 405
f 406 405 407
f 402 404 401
f 402 401 403
f 398 400 397
f 398 397 399
f 394 396 393
f 394 393 395
f 390 392 389
f 390 389 391
f 386 388 385
f 386 385 387
f 334 336 333
f 334 333 335
f 330 332 329
f 330 329 331
f 326 328 325
f 326 325 327
f 322 324 321
f 322 321 323
f 318 320 317
f 318 317 319
f 314 316 313
f 314 313 315
f 310 312 309
f 310 309 311
f 306 308 305
f 306 305 307
f 302 304 301
f 302 301 303
f 298 300 297
f 298 297 299
f 294 296 293
f 294 293 295
f 290 292 289
f 290 289 291
f 286 288 285
f 286 285 287
f 282 284 281
f 282 281 283
f 278 280 277
f 278 277 279
f 274 276 273
f 274 273 275
f 270 272 269
f 270 269 271
f 266 268 265
f 266 265 267
f 262 264 261
f 262 261 263
f 258 260 257
f 258 257 259
f 254 256 253
f 254 253 255
f 250 252 249
f 250 249 251
f 246 248 245
f 246 245 247
f 242 244 241
f 242 241 243
f 238 240 237
f 238 237 239
f 234 236 233
f 234 233 235
f 230 232 229
f 230 229 231
f 226 228 225
f 226 225 227
f 222 224 221
f 222 221 223
f 218 220 217
f 218 217 219
f 214 216 213
f 214 213 215
f 210 212 209
f 210 209 211
f 158 160 157
f 158 157 159
f 154 156 153
f 154 153 155
f 150 152 149
f 150 149 151
f 146 148 145
f 146 145 147
f 142 144 141
f 142 141 143
f 138 140 137
f 138 137 139
f 134 136 133
f 134 133 135
f 130 132 129
f 130 129 131
f 126 128 125
f 126 125 127
f 122 124 121
f 122 121 123
f 118 120 117
f 118 117 119
f 114 116 113
f 114 113 115
f 110 112 109
f 110 109 111
f 106 108 105
f 106 105 107
f 102 104 101
f 102 101 103
f 98 100 97
f 98 97 99
f 94 96 93
f 94 93 95
f 90 92 89
f 90 89 91
f 86 88 85
f 86 85 87
f 82 84 81
f 82 81 83
f 78 80 77
f 78 77 79
f 74 76 73
f 74 73 75
f 70 72 69
f 70 69 71
f 66 68 65
f 66 65 67
f 62 64 61
f 62 61 63
f 58 60 57
f 58 57 59
f 54 56 53
f 54 53 55
f 50 52 49
f 50 49 51
f 522 521 523
f 522 523 524
f 172 171 167
f 162 161 163
f 161 164 163
f 164 161 175
f 175 161 173
f 176 175 173
f 173 174 176
f 173 172 174
f 174 172 168
f 168 172 167
f 168 167 169
f 169 167 166
f 170 169 166
f 165 170 166
f 165 166 163
f 164 165 163
f 514 513 515
f 513 516 515
f 513 518 516
f 518 517 516
f 518 520 517
f 520 519 517
f 341 342 338
f 339 341 338
f 338 337 339
f 339 337 340
f 340 351 339
f 351 340 352
f 352 340 350
f 350 349 352
f 349 350 347
f 348 349 347
f 347 346 348
f 348 346 343
f 343 344 348
f 344 343 345
f 345 343 342
f 342 341 345
f 532 530 531
f 530 529 531
f 526 525 527
f 528 526 527
f 638 637 639
f 640 638 639
f 634 633 635
f 636 634 635
f 630 629 631
f 632 630 631
f 626 625 627
f 628 626 627
f 622 621 623
f 624 622 623
f 618 617 619
f 620 618 619
f 614 613 615
f 616 614 615
f 610 609 611
f 612 610 611
f 606 605 607
f 608 606 607
f 602 601 603
f 604 602 603
f 598 597 599
f 598 599 600
f 586 585 587
f 588 586 587
f 582 581 583
f 584 582 583
f 578 577 579
f 580 578 579
f 574 573 575
f 576 574 575
f 570 569 571
f 572 570 571
f 566 565 567
f 568 566 567
f 562 561 563
f 564 562 563
f 558 557 559
f 560 558 559
f 554 553 555
f 556 554 555
f 550 549 551
f 550 551 552
f 546 545 547
f 546 547 548
f 542 541 543
f 544 542 543
f 538 537 539
f 540 538 539
f 534 533 535
f 536 534 535
f 594 595 593
f 593 592 594
f 592 589 594
f 591 589 592
f 590 589 591
f 591 596 590
f 596 595 590
f 593 595 596
