# from FinancialDistrict_Block06_Generic_0002_LOD_0.pskx
v 499.9770202636719 465.01226806640625 -0.02500000037252903
v 1200.02294921875 164.9926300048828 -0.024943172931671143
v 499.97698974609375 465.0122985839844 400.0249938964844
v 1200.02294921875 164.99266052246094 400.0250549316406
v 1199.9822998046875 164.98475646972656 -0.024943172931671143
v 1600.0177001953125 565.0201416015625 -0.024960659444332123
v 1199.9822998046875 164.9847869873047 400.0250549316406
v 1600.0177001953125 565.0201416015625 400.0250549316406
v 1599.9749755859375 565.00244140625 -0.024960657581686974
v 2200.02490234375 565.0025024414062 -0.0249344315379858
v 1599.9749755859375 565.0025024414062 400.0250549316406
v 2200.02490234375 565.0025024414062 400.0250549316406
v 503.4239501953125 473.0551452636719 499.9030456542969
v 1197.6387939453125 177.4044952392578 495.7901611328125
v 504.10003662109375 474.6327209472656 495.7959289550781
v 1198.0189208984375 175.37429809570312 499.89727783203125
v 504.10009765625 474.6328125 495.842041015625
v 1198.0189208984375 175.37425231933594 491.7829284667969
v 503.4239196777344 473.0550842285156 491.7769775390625
v 1197.6387939453125 177.4046173095703 495.84796142578125
v 503.4371337890625 473.0859680175781 491.8074035644531
v 1198.9188232421875 170.67613220214844 490.56988525390625
v 501.8583679199219 469.40216064453125 490.5658264160156
v 1198.0333251953125 175.41604614257812 491.8114929199219
v 501.8771667480469 469.4460754394531 490.5658264160156
v 1199.8231201171875 165.9803009033203 491.803466796875
v 500.2984924316406 465.7624206542969 491.8074035644531
v 1198.9376220703125 170.72003173828125 490.5618591308594
v 500.3110656738281 465.79180908203125 491.7763671875
v 1200.150390625 164.30931091308594 495.9518737792969
v 499.74871826171875 464.4795837402344 495.95684814453125
v 1199.83447265625 165.99798583984375 491.7713623046875
v 499.7485656738281 464.4792785644531 495.90966796875
v 1199.8345947265625 165.9984588623047 499.9088134765625
v 500.31121826171875 465.7921142578125 499.90350341796875
v 1200.1502685546875 164.30914306640625 495.9149475097656
v 500.33074951171875 465.77459716796875 499.8799743652344
v 1198.9190673828125 170.81443786621094 501.3057556152344
v 501.9085998535156 469.51934814453125 501.3012390136719
v 1199.8231201171875 165.98028564453125 499.876220703125
v 501.8900451660156 469.47607421875 501.3015441894531
v 1198.0330810546875 175.41531372070312 499.86688232421875
v 503.4369812011719 473.0856018066406 499.8714294433594
v 1198.900634765625 170.77099609375 501.2970275878906
v 1197.987548828125 175.3682403564453 499.89727783203125
v 1595.68017578125 575.4827880859375 495.79962158203125
v 1197.586181640625 177.3943634033203 495.7901611328125
v 1596.3968505859375 573.7720947265625 499.90673828125
v 1197.5860595703125 177.3944549560547 495.84796142578125
v 1596.3968505859375 573.77197265625 491.77337646484375
v 1197.987548828125 175.36822509765625 491.7829284667969
v 1595.68017578125 575.4828491210938 495.83843994140625
v 1197.9993896484375 175.3903045654297 491.8000793457031
v 1598.0511474609375 569.795654296875 490.5631408691406
v 1198.896728515625 170.671875 490.56988525390625
v 1596.377197265625 573.7896118164062 491.80474853515625
v 1198.8629150390625 170.7056427001953 490.5618591308594
v 1599.691650390625 565.8358764648438 491.8102111816406
v 1199.801025390625 165.97604370117188 491.803466796875
v 1598.0174560546875 569.8295288085938 490.568603515625
v 1199.783935546875 165.98826599121094 491.7713623046875
v 1600.2607421875 564.4420776367188 495.9600524902344
v 1200.11767578125 164.30300903320312 495.9518737792969
v 1599.6646728515625 565.864990234375 491.7795715332031
v 1200.117919921875 164.3029022216797 495.9149475097656
v 1599.6644287109375 565.8651733398438 499.90032958984375
v 1199.7835693359375 165.98863220214844 499.9088134765625
v 1600.260986328125 564.4417724609375 495.9064636230469
v 1199.8079833984375 165.9984588623047 499.8800354003906
v 1597.984375 569.9093627929688 501.2983093261719
v 1198.844970703125 170.80007934570312 501.3057556152344
v 1599.6912841796875 565.8362426757812 499.8687744140625
v 1198.8782958984375 170.76669311523438 501.2970275878906
v 1596.3773193359375 573.78955078125 499.87457275390625
v 1197.9591064453125 175.4010467529297 499.86688232421875
v 1598.0177001953125 569.8762817382812 501.3047180175781
v 1596.3468017578125 573.7513427734375 499.90673828125
v 2200.02490234375 575.46923828125 495.7959899902344
v 1595.643798828125 575.4677124023438 495.79962158203125
v 2200.02490234375 573.7528686523438 499.9031066894531
v 1595.643798828125 575.4677734375 495.83843994140625
v 2200.02490234375 573.7528076171875 491.77703857421875
v 1596.3468017578125 573.751220703125 491.77337646484375
v 2200.02490234375 575.4692993164062 495.84210205078125
v 1596.371337890625 573.7625122070312 491.8000793457031
v 2200.02490234375 569.778564453125 490.5658874511719
v 1597.988525390625 569.769775390625 490.5631408691406
v 2200.02490234375 573.786376953125 491.8074645996094
v 1597.988525390625 569.8175048828125 490.568603515625
v 2200.02490234375 565.8186645507812 491.8074645996094
v 1599.62890625 565.8098754882812 491.8102111816406
v 2200.02490234375 569.8262939453125 490.5658874511719
v 1599.6273193359375 565.8495483398438 491.7795715332031
v 2200.02490234375 564.4229736328125 495.9569091796875
v 1600.2119140625 564.421875 495.9600524902344
v 2200.02490234375 565.8505859375 491.77642822265625
v 1600.2119140625 564.4214477539062 495.9064636230469
v 2200.02490234375 565.8509521484375 499.903564453125
v 1599.6273193359375 565.8497924804688 499.90032958984375
v 2200.02490234375 564.422607421875 495.90972900390625
v 1599.6519775390625 565.842529296875 499.8800354003906
v 2200.02490234375 569.9060668945312 501.3013000488281
v 1597.955322265625 569.8974609375 501.2983093261719
v 2200.02490234375 565.8189086914062 499.8717956542969
v 1597.955322265625 569.8504638671875 501.3047180175781
v 2200.02490234375 573.7860107421875 499.8714904785156
v 1596.34814453125 573.7774658203125 499.87457275390625
v 2200.02490234375 569.8589477539062 501.3016052246094
v 504.13739013671875 474.6563720703125 495.81890869140625
v 499.75628662109375 464.43377685546875 495.93353271484375
v 503.4631652832031 473.0832214355469 499.9131164550781
v 503.46270751953125 473.0821228027344 491.76641845703125
v 500.3186340332031 465.7460021972656 491.76806640625
v 501.8907470703125 469.4142761230469 490.52545166015625
v 500.318359375 465.74530029296875 499.9119873046875
v 501.9223937988281 469.48809814453125 501.340087890625
v 2200.0 573.7941284179688 499.9131774902344
v 2200.0 564.3838500976562 495.93359375
v 2200.0 575.5056762695312 495.8189697265625
v 2200.0 565.8114624023438 491.76812744140625
v 2200.0 573.79296875 491.7664794921875
v 2200.0 569.8024291992188 490.5255126953125
v 2200.0 565.8107299804688 499.91204833984375
v 2200.0 569.8827514648438 501.34014892578125
v 501.9071960449219 469.5160827636719 489.8249816894531
v 1198.881103515625 170.92184448242188 409.97503662109375
v 501.94659423828125 469.6080627441406 409.9750061035156
v 1198.9039306640625 170.80320739746094 489.8250427246094
v 501.94659423828125 469.6080627441406 409.9750061035156
v 1198.9039306640625 170.80320739746094 489.8250427246094
v 501.9071960449219 469.5160827636719 489.8249816894531
v 1198.881103515625 170.92184448242188 409.97503662109375
v 1198.86328125 170.79537963867188 489.8250427246094
v 1597.9466552734375 570.0202026367188 409.9750671386719
v 1198.8404541015625 170.9140167236328 409.97503662109375
v 1597.988037109375 569.9201049804688 489.8250732421875
v 1198.8404541015625 170.9140167236328 409.97503662109375
v 1597.988037109375 569.9201049804688 489.8250732421875
v 1198.86328125 170.79537963867188 489.8250427246094
v 1597.9466552734375 570.0202026367188 409.9750671386719
v 1597.9453125 569.9024047851562 489.8250732421875
v 2200.02490234375 570.0025634765625 409.9750671386719
v 1597.9039306640625 570.0025634765625 409.9750671386719
v 2200.02490234375 569.9024658203125 489.8250427246094
v 1597.9039306640625 570.0025634765625 409.9750671386719
v 2200.02490234375 569.9024658203125 489.8250427246094
v 1597.9453125 569.9024047851562 489.8250732421875
v 2200.02490234375 570.0025634765625 409.9750671386719
v 505.88580322265625 478.7994689941406 405.0250244140625
v 1196.597412109375 182.78025817871094 394.9750671386719
v 505.88580322265625 478.7994689941406 394.9750061035156
v 1196.597412109375 182.78025817871094 405.02508544921875
v 505.8956604003906 478.82244873046875 395.0
v 1201.156494140625 159.05502319335938 395.00006103515625
v 497.99755859375 460.3935852050781 395.0
v 1196.60888671875 182.81781005859375 395.00006103515625
v 498.0074157714844 460.41656494140625 394.9750061035156
v 1201.164794921875 159.0634307861328 405.02508544921875
v 498.0074157714844 460.41656494140625 405.0250244140625
v 1201.164794921875 159.0634307861328 394.9750671386719
v 497.99755859375 460.3935852050781 405.0000305175781
v 1196.60888671875 182.81781005859375 405.0000915527344
v 505.8956604003906 478.82244873046875 405.0000305175781
v 1201.156494140625 159.05502319335938 405.0000915527344
v 1196.5567626953125 182.7724151611328 405.02508544921875
v 1593.8045654296875 580.0202026367188 394.9750671386719
v 1196.5567626953125 182.7724151611328 394.9750671386719
v 1593.8045654296875 580.0202026367188 405.02508544921875
v 1196.5322265625 182.8030548095703 395.00006103515625
v 1602.11181640625 559.994384765625 395.00006103515625
v 1201.135009765625 159.05087280273438 395.00006103515625
v 1593.792236328125 580.0297241210938 395.00006103515625
v 1201.1241455078125 159.0555877685547 394.9750671386719
v 1602.0887451171875 560.0202026367188 405.02508544921875
v 1201.1241455078125 159.0555877685547 405.02508544921875
v 1602.0887451171875 560.0202026367188 394.9750671386719
v 1201.135009765625 159.05087280273438 405.0000915527344
v 1593.792236328125 580.0297241210938 405.0000915527344
v 1196.5322265625 182.8030548095703 405.0000915527344
v 1602.11181640625 559.994384765625 405.0000915527344
v 1593.7618408203125 580.0025024414062 405.02508544921875
v 2200.02490234375 580.0025024414062 394.9750671386719
v 1593.7618408203125 580.0025024414062 394.9750671386719
v 2200.02490234375 580.0025024414062 405.02508544921875
v 1593.7637939453125 580.0179443359375 395.00006103515625
v 2200.02490234375 559.9774780273438 395.00006103515625
v 1602.0479736328125 559.9679565429688 395.00006103515625
v 2200.02490234375 580.0275268554688 395.00006103515625
v 1602.0460205078125 560.0025024414062 394.9750671386719
v 2200.02490234375 560.0025024414062 405.02508544921875
v 1602.0460205078125 560.0025024414062 405.02508544921875
v 2200.02490234375 560.0025024414062 394.9750671386719
v 1602.0479736328125 559.9679565429688 405.0000915527344
v 2200.02490234375 580.0275268554688 405.0000915527344
v 1593.7637939453125 580.0179443359375 405.0000915527344
v 2200.02490234375 559.9774780273438 405.0000915527344
v 505.91864013671875 478.8125915527344 394.9750061035156
v 498.0205383300781 460.38372802734375 394.9750061035156
v 505.91864013671875 478.8125915527344 405.0250244140625
v 498.0205383300781 460.38372802734375 405.0250244140625
v 2200.0 580.0275268554688 405.02508544921875
v 2200.0 559.9774780273438 394.9750671386719
v 2200.0 580.0275268554688 394.9750671386719
v 2200.0 559.9774780273438 405.02508544921875
v 558.3607788085938 440.00775146484375 400.0
v 499.99212646484375 465.0430908203125 400.0
v -300.04058837890625 -334.98974609375 400.0000305175781
v -275.0052490234375 -393.3584899902344 400.0000305175781
v 558.3510131835938 440.0201110839844 374.9750061035156
v 558.3509521484375 440.0201110839844 400.0249938964844
v -275.0176086425781 -393.3486328125 400.0250244140625
v -275.0176086425781 -393.3486328125 374.97503662109375
v 616.6942138671875 415.00775146484375 375.0
v 558.3255004882812 440.0430908203125 375.0
v -275.04058837890625 -393.3231201171875 375.0000305175781
v -250.00523376464844 -451.6917419433594 375.00006103515625
v 616.6843872070312 415.0201110839844 349.9750061035156
v 616.6843872070312 415.0201110839844 375.0249938964844
v -250.0176239013672 -451.681884765625 375.0250549316406
v -250.0176239013672 -451.681884765625 349.9750671386719
v 675.0275268554688 390.00775146484375 350.0
v 616.6588745117188 415.0430908203125 350.0
v -250.04058837890625 -451.6563720703125 350.00006103515625
v -225.00523376464844 -510.0251159667969 350.00006103515625
v 675.0177001953125 390.0201110839844 324.9750061035156
v 675.0177001953125 390.0201110839844 350.0249938964844
v -225.0176239013672 -510.0152587890625 350.0250549316406
v -225.0176239013672 -510.0152587890625 324.9750671386719
v 733.3607788085938 365.00775146484375 325.0
v 674.9921875 390.0430908203125 325.0
v -225.04058837890625 -509.98974609375 325.00006103515625
v -200.00523376464844 -568.3584594726562 325.00006103515625
v 733.3509521484375 365.0201110839844 299.9750061035156
v 733.3509521484375 365.0201110839844 325.0249938964844
v -200.0176239013672 -568.3486328125 325.0250549316406
v -200.0176239013672 -568.3486328125 299.9750671386719
v 791.6942138671875 340.00775146484375 300.0
v 733.325439453125 365.0430908203125 300.0
v -200.04058837890625 -568.3231201171875 300.00006103515625
v -175.00523376464844 -626.6917114257812 300.00006103515625
v 791.6843872070312 340.0201110839844 274.9750061035156
v 791.6843872070312 340.0201110839844 300.0249938964844
v -175.0176239013672 -626.681884765625 300.0250549316406
v -175.0176239013672 -626.681884765625 274.9750671386719
v 850.0275268554688 315.00775146484375 275.0000305175781
v 791.6588745117188 340.0430908203125 275.0
v -175.04058837890625 -626.6563720703125 275.00006103515625
v -150.00523376464844 -685.0250854492188 275.00006103515625
v 850.0177001953125 315.0201110839844 249.97503662109375
v 850.0177001953125 315.0201110839844 275.0250244140625
v -150.0176239013672 -685.0152587890625 275.0250549316406
v -150.0176239013672 -685.0152587890625 249.97508239746094
v 908.3609008789062 290.00775146484375 250.00003051757812
v 849.9921875 315.0430908203125 250.00003051757812
v -150.04058837890625 -684.98974609375 250.0000762939453
v -125.00524139404297 -743.3583374023438 250.0000762939453
v 908.35107421875 290.0201110839844 224.97503662109375
v 908.35107421875 290.0201110839844 250.0250244140625
v -125.01761627197266 -743.3485107421875 250.0250701904297
v -125.01761627197266 -743.3485107421875 224.97508239746094
v 966.6941528320312 265.00775146484375 225.00003051757812
v 908.3255615234375 290.0430908203125 225.00003051757812
v -125.04059600830078 -743.322998046875 225.0000762939453
v -100.00524139404297 -801.6918334960938 225.0000762939453
v 966.684326171875 265.0201110839844 199.97503662109375
v 966.684326171875 265.0201110839844 225.0250244140625
v -100.01761627197266 -801.6820068359375 225.0250701904297
v -100.01761627197266 -801.6820068359375 199.97508239746094
v 1025.0274658203125 240.00775146484375 200.0000457763672
v 966.6588134765625 265.0430908203125 200.00003051757812
v -100.04059600830078 -801.656494140625 200.0000762939453
v -75.00524139404297 -860.0250854492188 200.00009155273438
v 1025.0177001953125 240.0201416015625 174.9750518798828
v 1025.0177001953125 240.0201416015625 200.02503967285156
v -75.01761627197266 -860.0152587890625 200.02508544921875
v -75.01761627197266 -860.0152587890625 174.97509765625
v 1083.3607177734375 215.00775146484375 175.0000457763672
v 1024.9921875 240.04310607910156 175.0000457763672
v -75.04059600830078 -859.98974609375 175.00009155273438
v -50.00524139404297 -918.3583374023438 175.00009155273438
v 1083.3509521484375 215.0201416015625 149.9750518798828
v 1083.3509521484375 215.0201416015625 175.02503967285156
v -50.017616271972656 -918.3485107421875 175.02508544921875
v -50.017616271972656 -918.3485107421875 149.97509765625
v 1141.694091796875 190.0077362060547 150.00006103515625
v 1083.325439453125 215.04310607910156 150.0000457763672
v -50.04059600830078 -918.322998046875 150.00009155273438
v -25.005239486694336 -976.6918334960938 150.00009155273438
v 1141.684326171875 190.02012634277344 124.97505187988281
v 1141.684326171875 190.02012634277344 150.02505493164062
v -25.017616271972656 -976.6820068359375 150.02508544921875
v -25.017616271972656 -976.6820068359375 124.97510528564453
v 1200.0274658203125 165.0077362060547 125.00005340576172
v 1141.6588134765625 190.0430908203125 125.00005340576172
v -25.04059600830078 -976.656494140625 125.00010681152344
v -0.005239915102720261 -1035.0250244140625 125.00010681152344
v 1200.0177001953125 165.02012634277344 99.97505187988281
v 1200.0177001953125 165.02012634277344 125.02505493164062
v -0.0176166333258152 -1035.0152587890625 125.02510833740234
v -0.0176166333258152 -1035.0152587890625 99.97510528564453
v 1200.0078125 164.96182250976562 400.00006103515625
v 736.0595703125 1035.047607421875 399.99993896484375
v 500.0078125 464.9617919921875 400.0
v 1600.0177001953125 564.9598388671875 400.00006103515625
v 1750.01806640625 1035.039794921875 400.0
v 2200.01806640625 564.9948120117188 400.00006103515625
v -1713.9654541015625 1035.0224609375 399.9998474121094
v -1713.9654541015625 585.0224609375 399.9999084472656
v -299.97711181640625 -335.03973388671875 400.0000305175781
v -2200.02490234375 585.0224609375 399.9998779296875
v -2200.019775390625 -735.0221557617188 399.9999694824219
v 513.7219848632812 460.0379943847656 400.0
v 502.2745056152344 464.7694091796875 400.0
v 506.2370910644531 474.09271240234375 400.0
v 517.5624389648438 469.0804443359375 400.0
v 1194.642333984375 170.3247528076172 400.00006103515625
v 1201.74560546875 177.44007873535156 400.00006103515625
v 1200.0 164.9671173095703 400.00006103515625
v 1207.103271484375 172.0703582763672 400.00006103515625
v 1588.8685302734375 568.0543212890625 400.00006103515625
v 1595.98388671875 575.157470703125 400.00006103515625
v 1595.361328125 561.573486328125 400.00006103515625
v 1602.464599609375 568.6768188476562 400.00006103515625
v 2165.2099609375 575.366943359375 400.00006103515625
v 2175.672607421875 575.1471557617188 400.00006103515625
v 2165.208740234375 565.3436889648438 400.00006103515625
v 2175.67138671875 565.1240234375 400.00006103515625
v 502.2839660644531 464.79229736328125 399.9750061035156
v 513.7316284179688 460.0613098144531 399.9750061035156
v 502.2839660644531 464.79229736328125 495.02496337890625
v 513.7316284179688 460.0613098144531 495.02496337890625
v 513.69873046875 460.0478515625 399.9750061035156
v 517.5390625 469.0903625488281 399.9750061035156
v 513.69873046875 460.0478515625 495.02496337890625
v 517.5390625 469.0903625488281 495.02496337890625
v 517.5521850585938 469.0572204589844 399.9750061035156
v 506.22711181640625 474.0701904296875 399.9750061035156
v 517.5521850585938 469.0572204589844 495.02496337890625
v 506.22711181640625 474.0701904296875 495.02496337890625
v 506.2597351074219 474.08306884765625 399.9750061035156
v 502.29730224609375 464.7597351074219 399.9750061035156
v 506.2597351074219 474.08306884765625 495.02496337890625
v 502.29730224609375 464.7597351074219 495.02496337890625
v 513.7219848632812 460.0379943847656 494.9999694824219
v 506.2370910644531 474.09271240234375 494.9999694824219
v 502.2745056152344 464.7694091796875 494.9999694824219
v 517.5624389648438 469.0804443359375 494.9999694824219
v 1194.6600341796875 170.3424530029297 399.9750671386719
v 1200.0177001953125 164.98475646972656 399.9750671386719
v 1194.6600341796875 170.3424530029297 495.0250244140625
v 1200.0177001953125 164.98475646972656 495.0250244140625
v 1199.9822998046875 164.9847869873047 399.9750671386719
v 1207.0855712890625 172.0880584716797 399.9750671386719
v 1199.9822998046875 164.9847869873047 495.0250244140625
v 1207.0855712890625 172.0880584716797 495.0250244140625
v 1207.0855712890625 172.05267333984375 399.9750671386719
v 1201.7279052734375 177.42245483398438 399.9750671386719
v 1207.0855712890625 172.05267333984375 495.0250244140625
v 1201.7279052734375 177.42245483398438 495.0250244140625
v 1201.7633056640625 177.42245483398438 399.9750671386719
v 1194.6600341796875 170.30706787109375 399.9750671386719
v 1201.7633056640625 177.42245483398438 495.0250244140625
v 1194.6600341796875 170.30706787109375 495.0250244140625
v 1194.642333984375 170.3247528076172 495.0000305175781
v 1200.0 164.9671173095703 495.0000305175781
v 1201.74560546875 177.44007873535156 495.0000305175781
v 1207.103271484375 172.0703582763672 495.0000305175781
v 1588.8861083984375 568.0719604492188 399.9750671386719
v 1595.3790283203125 561.5912475585938 399.9750671386719
v 1588.8861083984375 568.0719604492188 495.0250244140625
v 1595.3790283203125 561.5912475585938 495.0250244140625
v 1595.3436279296875 561.5911865234375 399.9750671386719
v 1602.4468994140625 568.6945190429688 399.9750671386719
v 1595.3436279296875 561.5911865234375 495.0250244140625
v 1602.4468994140625 568.6945190429688 495.0250244140625
v 1602.4468994140625 568.6591186523438 399.9750671386719
v 1595.9661865234375 575.1398315429688 399.9750671386719
v 1602.4468994140625 568.6591186523438 495.0250244140625
v 1595.9661865234375 575.1398315429688 495.0250244140625
v 1596.0015869140625 575.1397094726562 399.9750671386719
v 1588.8861083984375 568.0366821289062 399.9750671386719
v 1596.0015869140625 575.1397094726562 495.0250244140625
v 1588.8861083984375 568.0366821289062 495.0250244140625
v 1588.8685302734375 568.0543212890625 495.0000305175781
v 1595.361328125 561.573486328125 495.0000305175781
v 1595.98388671875 575.1575317382812 495.0000305175781
v 1602.464599609375 568.6768188476562 495.0000305175781
v 2165.234375 575.366943359375 399.9750671386719
v 2165.234375 565.3436889648438 399.9750671386719
v 2165.234375 575.366943359375 495.0250244140625
v 2165.234375 565.3436889648438 495.0250244140625
v 2165.20947265625 565.3692626953125 399.9750671386719
v 2175.671875 565.1484985351562 399.9750671386719
v 2165.20947265625 565.3692626953125 495.0250244140625
v 2175.671875 565.1484985351562 495.0250244140625
v 2175.64697265625 565.1240234375 399.9750671386719
v 2175.64697265625 575.1471557617188 399.9750671386719
v 2175.64697265625 565.1240234375 495.0250244140625
v 2175.64697265625 575.1471557617188 495.0250244140625
v 2175.671875 575.12158203125 399.9750671386719
v 2165.20947265625 575.3424682617188 399.9750671386719
v 2175.671875 575.12158203125 495.0250244140625
v 2165.20947265625 575.3424682617188 495.0250244140625
v 2165.2099609375 575.366943359375 495.0000305175781
v 2165.208740234375 565.3436889648438 495.0000305175781
v 2175.672607421875 575.1471557617188 495.0000305175781
v 2175.67138671875 565.1240234375 495.0000305175781
v 598.9801635742188 -421.88177490234375 -0.02491813525557518
v 584.7968139648438 -436.0528564453125 -0.024917522445321083
v 598.9801025390625 -421.88177490234375 260.02508544921875
v 584.7968139648438 -436.0528564453125 260.02508544921875
v 584.796875 -436.01751708984375 -0.024917522445321083
v 598.9801025390625 -450.2008056640625 -0.02491566725075245
v 584.796875 -436.01751708984375 260.02508544921875
v 598.9801025390625 -450.2008056640625 260.02508544921875
v 598.9447631835938 -450.2008361816406 -0.02491566725075245
v 613.1158447265625 -436.0174865722656 -0.024916281923651695
v 598.9447631835938 -450.2008361816406 260.02508544921875
v 613.1157836914062 -436.0174865722656 260.02508544921875
v 613.1158447265625 -436.0528564453125 -0.024916283786296844
v 598.9447631835938 -421.88177490234375 -0.024918140843510628
v 613.1158447265625 -436.0528564453125 260.02508544921875
v 598.9447021484375 -421.88177490234375 260.02508544921875
v 584.7791748046875 -436.0351867675781 260.0000915527344
v 598.96240234375 -450.2184753417969 260.0000915527344
v 598.96240234375 -421.86407470703125 260.0000915527344
v 613.1334838867188 -436.0351867675781 260.0000915527344
v 121.68521881103516 76.6290054321289 24.975017547607422
v 86.28606414794922 41.24203109741211 24.975019454956055
v 121.68518829345703 76.62903594970703 425.0249938964844
v 86.2860336303711 41.24209213256836 425.0249938964844
v 86.27960205078125 41.283843994140625 24.976749420166016
v 581.3229370117188 -453.747314453125 150.02334594726562
v 86.29249572753906 41.27098083496094 425.02325439453125
v 581.31005859375 -453.734375 -250.023193359375
v 581.2811279296875 -453.7408447265625 -250.02491760253906
v 616.6681518554688 -418.35394287109375 -250.02491760253906
v 581.2811279296875 -453.7408447265625 150.0250701904297
v 616.6681518554688 -418.35394287109375 150.0250701904297
v 616.6616821289062 -418.3828125 -250.023193359375
v 121.64334106445312 76.635498046875 24.976747512817383
v 616.6746215820312 -418.395751953125 150.02334594726562
v 121.65623474121094 76.62260437011719 425.02325439453125
v 106.62345123291016 61.603187561035156 524.9027099609375
v 602.851318359375 -432.1933288574219 245.79640197753906
v 107.8261489868164 62.829444885253906 520.7992553710938
v 601.648681640625 -433.41961669921875 249.89984130859375
v 107.83309936523438 62.81281661987305 520.8416748046875
v 601.6417846679688 -433.4029846191406 241.77743530273438
v 106.60670471191406 61.61000061035156 516.7803955078125
v 602.8681030273438 -432.2001647949219 245.8387908935547
v 106.64022064208984 61.626312255859375 516.81494140625
v 598.83447265625 -436.2167053222656 240.55845642089844
v 103.80252838134766 58.795692443847656 515.5752563476562
v 601.6721801757812 -433.3860778808594 241.79815673828125
v 103.84017181396484 58.83333969116211 515.5752563476562
v 596.0343017578125 -439.0240783691406 241.79815673828125
v 101.00970458984375 55.995643615722656 516.81494140625
v 598.86474609375 -436.1864013671875 240.55845642089844
v 101.02420043945312 56.02783203125 516.779296875
v 595.0520629882812 -440.0168151855469 245.9541015625
v 100.02611541748047 55.00544357299805 520.9561767578125
v 596.0502319335938 -438.994384765625 241.77723693847656
v 100.00948333740234 55.01298904418945 520.9126586914062
v 596.06689453125 -439.001953125 249.90066528320312
v 101.03227996826172 56.011680603027344 524.9028930664062
v 595.0440063476562 -440.00067138671875 245.9104461669922
v 101.002197265625 55.99576950073242 524.8810424804688
v 598.9288330078125 -436.1298828125 251.2920684814453
v 103.89647674560547 58.882076263427734 526.3084106445312
v 596.0346069335938 -439.0162658691406 249.86463928222656
v 103.86711120605469 58.85258483886719 526.3086547851562
v 601.6641845703125 -433.38641357421875 249.86444091796875
v 106.64000701904297 61.6338996887207 524.8807373046875
v 598.8912353515625 -436.16766357421875 251.2924041748047
v 107.8724365234375 62.828983306884766 520.8189697265625
v 100.00819396972656 54.96458053588867 520.9336547851562
v 106.66219329833984 61.6187629699707 524.9132080078125
v 106.66134643554688 61.617919921875 516.7664794921875
v 101.01765441894531 55.97407150268555 516.7681274414062
v 103.83969116210938 58.796173095703125 515.5255126953125
v 101.01712799072266 55.973548889160156 524.912109375
v 103.896484375 58.852935791015625 526.3401489257812
v 601.6573486328125 -433.36419677734375 249.91317749023438
v 595.0032958984375 -440.0184020996094 245.93360900878906
v 602.8675537109375 -432.1539611816406 245.81898498535156
v 596.0128173828125 -439.0088806152344 241.76812744140625
v 601.6565551757812 -433.36505126953125 241.76649475097656
v 598.8348388671875 -436.1867980957031 240.52552795410156
v 596.0123291015625 -439.0093994140625 249.9120635986328
v 598.8916015625 -436.12994384765625 251.3401641845703
v 103.89923095703125 58.878143310546875 514.8233032226562
v 598.987548828125 -436.0565185546875 159.97679138183594
v 103.95706176757812 58.96182632446289 434.97674560546875
v 598.9296875 -436.1402282714844 239.8233184814453
v 103.95706176757812 58.96182632446289 434.97674560546875
v 598.9296875 -436.1402282714844 239.8233184814453
v 103.89923095703125 58.878143310546875 514.8233032226562
v 598.987548828125 -436.0565185546875 159.97679138183594
v 581.297607421875 -453.7572937011719 149.99093627929688
v 121.66873931884766 76.64549255371094 425.0091552734375
v 86.26958465576172 41.258544921875 425.0091247558594
v 616.6845703125 -418.3703918457031 149.99093627929688
v 96.9293212890625 80.16896057128906 -0.024983977898955345
v 82.75830078125 65.98570251464844 -0.024983353912830353
v 96.92929077148438 80.16902160644531 530.0250854492188
v 82.75827026367188 65.98576354980469 530.0250854492188
v 82.75829315185547 66.02106475830078 -0.0249833595007658
v 96.92932891845703 51.849876403808594 -0.02498149871826172
v 82.75826263427734 66.02112579345703 530.0250244140625
v 96.9292984008789 51.849937438964844 530.0250244140625
v 96.89396667480469 51.849884033203125 -0.02498149871826172
v 111.07734680175781 66.02105712890625 -0.024982118979096413
v 96.89393615722656 51.849945068359375 530.0250854492188
v 111.07731628417969 66.0211181640625 530.0250854492188
v 111.07733917236328 65.98571014404297 -0.024982115253806114
v 96.89397430419922 80.16895294189453 -0.024983979761600494
v 111.07730865478516 65.98577117919922 530.0250854492188
v 96.8939437866211 80.16901397705078 530.0250854492188
v 82.7405776977539 66.0034408569336 530.0000610351562
v 96.91161346435547 51.832252502441406 530.0000610351562
v 96.91161346435547 80.18668365478516 530.0000610351562
v 111.09497833251953 66.0034408569336 530.0000610351562
v 1599.6290283203125 565.8103637695312 499.8687744140625
v 2200.000244140625 569.8824462890625 501.2930603027344
v 1596.348388671875 573.777587890625 491.80474853515625
v 2200.000244140625 569.8024291992188 490.5732727050781
v 1199.801025390625 165.97613525390625 499.876220703125
v 1597.978759765625 569.882568359375 501.2930603027344
v 1197.958740234375 175.4017791748047 491.8114929199219
v 1598.0118408203125 569.8025512695312 490.5732727050781
v 500.2987365722656 465.76263427734375 499.8717346191406
v 1198.8856201171875 170.78924560546875 501.2930603027344
f 2 1 3
f 4 2 3
f 10 9 11
f 12 10 11
f 6 5 7
f 8 6 7
f 150 152 149
f 150 149 151
f 154 156 153
f 154 153 155
f 521 520 522
f 521 522 523
f 517 516 518
f 519 517 518
f 513 512 514
f 515 513 514
f 509 508 510
f 511 509 510
f 505 504 506
f 507 505 506
f 425 424 426
f 425 426 427
f 421 420 422
f 423 421 422
f 417 416 418
f 419 417 418
f 413 412 414
f 415 413 414
f 409 408 410
f 411 409 410
f 405 404 406
f 407 405 406
f 401 400 402
f 403 401 402
f 397 396 398
f 399 397 398
f 393 392 394
f 395 393 394
f 389 388 390
f 391 389 390
f 385 384 386
f 386 387 385
f 381 380 382
f 383 381 382
f 377 376 378
f 379 377 378
f 373 372 374
f 375 373 374
f 369 368 370
f 371 369 370
f 365 364 366
f 366 367 365
f 361 360 362
f 363 361 362
f 357 356 358
f 359 357 358
f 353 352 354
f 355 353 354
f 349 348 350
f 351 349 350
f 341 340 342
f 343 341 342
f 337 336 338
f 339 337 338
f 333 332 334
f 335 333 334
f 329 328 330
f 331 329 330
f 198 197 199
f 200 198 199
f 194 196 193
f 194 193 195
f 190 192 189
f 190 189 191
f 186 188 185
f 186 185 187
f 182 184 181
f 182 181 183
f 178 180 177
f 178 177 179
f 174 176 173
f 174 173 175
f 170 172 169
f 170 169 171
f 166 168 165
f 166 165 167
f 162 164 161
f 162 161 163
f 158 160 157
f 158 157 159
f 204 201 202
f 202 201 203
f 344 345 347
f 345 344 346
f 429 428 430
f 431 429 430
f 441 440 442
f 442 443 441
f 437 436 438
f 439 437 438
f 432 433 435
f 433 432 434
f 500 501 503
f 501 500 502
f 22 24 21
f 22 21 23
f 18 20 17
f 18 17 19
f 14 16 13
f 14 13 15
f 473 475 472
f 473 472 474
f 469 471 468
f 469 468 470
f 465 467 464
f 465 464 466
f 461 463 460
f 461 460 462
f 457 459 456
f 457 456 458
f 453 455 452
f 453 452 454
f 449 451 448
f 449 448 450
f 445 447 444
f 445 444 446
f 106 108 105
f 106 105 107
f 102 104 101
f 525 524 103
f 98 100 97
f 98 97 99
f 94 96 93
f 94 93 95
f 90 92 89
f 90 89 91
f 86 88 85
f 527 526 87
f 82 84 81
f 82 81 83
f 78 80 77
f 78 77 79
f 74 76 73
f 74 73 75
f 70 72 69
f 529 528 71
f 66 68 65
f 66 65 67
f 62 64 61
f 62 61 63
f 58 60 57
f 58 57 59
f 54 56 53
f 531 530 55
f 50 52 49
f 50 49 51
f 46 48 45
f 46 45 47
f 42 44 41
f 42 41 43
f 38 40 37
f 533 532 39
f 34 36 33
f 34 33 35
f 30 32 29
f 30 29 31
f 26 28 25
f 26 25 27
f 490 491 484
f 490 484 485
f 485 484 486
f 486 487 485
f 487 486 488
f 487 488 489
f 123 124 117
f 123 117 118
f 118 117 119
f 119 120 118
f 120 119 121
f 120 121 122
f 115 111 116
f 115 110 111
f 110 109 111
f 109 110 113
f 113 112 109
f 113 114 112
f 480 481 479
f 480 479 476
f 476 477 480
f 477 476 478
f 482 477 478
f 482 478 483
f 210 209 211
f 211 209 212
f 325 324 326
f 325 326 327
f 321 320 322
f 322 323 321
f 317 316 318
f 318 319 317
f 305 306 304
f 304 302 305
f 301 302 304
f 302 301 303
f 303 307 302
f 309 307 303
f 308 307 309
f 308 309 311
f 311 310 308
f 214 213 215
f 215 213 216
f 218 217 219
f 219 217 220
f 222 221 223
f 223 221 224
f 226 225 227
f 227 225 228
f 230 229 231
f 231 229 232
f 234 233 235
f 235 233 236
f 238 237 239
f 239 237 240
f 242 241 243
f 243 241 244
f 246 245 247
f 247 245 248
f 250 249 251
f 251 249 252
f 254 253 255
f 255 253 256
f 258 257 259
f 259 257 260
f 262 261 263
f 263 261 264
f 266 265 267
f 267 265 268
f 270 269 271
f 271 269 272
f 274 273 275
f 275 273 276
f 278 277 279
f 279 277 280
f 282 281 283
f 283 281 284
f 286 285 287
f 287 285 288
f 290 289 291
f 291 289 292
f 294 293 295
f 295 293 296
f 298 297 299
f 299 297 300
f 313 312 314
f 315 314 312
f 206 205 207
f 207 205 208
f 126 128 125
f 126 125 127
f 497 499 496
f 497 496 498
f 493 495 492
f 493 492 494
f 146 148 145
f 146 145 147
f 142 144 141
f 142 141 143
f 138 140 137
f 138 137 139
f 134 136 133
f 134 133 135
f 130 132 129
f 130 129 131
