# from FinancialDistrict_Block05_Upmarket Corporate (UC)_0011_LOD_0.pskx
v -2142.56591796875 -3098.68798828125 -1.6589738152106293e-05
v -1718.88427734375 -3132.03759765625 4.84549445900484e-06
v -2142.56591796875 -3098.68798828125 199.99998474121094
v -1718.88427734375 -3132.03759765625 200.00001525878906
v -1718.88427734375 -3132.03759765625 4.84549445900484e-06
v -1679.65087890625 -2633.575439453125 -3.701649256981909e-05
v -1718.88427734375 -3132.03759765625 200.00001525878906
v -1679.65087890625 -2633.575439453125 199.99996948242188
v -1679.65087890625 -2633.575439453125 -3.701648529386148e-05
v -2103.33251953125 -2600.238037109375 -5.845064879395068e-05
v -1679.65087890625 -2633.575439453125 199.99993896484375
v -2103.33251953125 -2600.238037109375 199.99990844726562
v -2103.33251953125 -2600.238037109375 -5.845064879395068e-05
v -2142.56591796875 -3098.68798828125 -1.6589738152106293e-05
v -2103.33251953125 -2600.238037109375 199.99990844726562
v -2142.56591796875 -3098.68798828125 199.9999542236328
v -1718.88427734375 -3132.03759765625 200.00001525878906
v -2103.33251953125 -2600.238037109375 199.99993896484375
v -2142.56591796875 -3098.68798828125 199.99998474121094
v -1679.65087890625 -2633.575439453125 199.99996948242188
v -1718.88427734375 -3132.03759765625 210.0
v -2142.56591796875 -3098.68798828125 209.99996948242188
v -2115.68115234375 -3075.7265625 199.99996948242188
v -2115.68115234375 -3075.7265625 209.9999542236328
v -1741.845458984375 -3105.15283203125 209.99998474121094
v -1741.845458984375 -3105.15283203125 200.0
v -1679.65087890625 -2633.575439453125 209.9999542236328
v -1718.88427734375 -3132.03759765625 210.0
v -1741.845458984375 -3105.15283203125 200.0
v -1741.845458984375 -3105.15283203125 209.99998474121094
v -1706.53564453125 -2656.537353515625 209.9999542236328
v -1706.53564453125 -2656.537353515625 199.99996948242188
v -1679.65087890625 -2633.575439453125 199.99996948242188
v -2103.33251953125 -2600.238037109375 199.99993896484375
v -2103.33251953125 -2600.238037109375 209.9999237060547
v -1679.65087890625 -2633.575439453125 209.9999542236328
v -1706.53564453125 -2656.537353515625 199.99996948242188
v -1706.53564453125 -2656.537353515625 209.9999542236328
v -2080.371337890625 -2627.1220703125 209.99993896484375
v -2080.371337890625 -2627.1220703125 199.9999542236328
v -2103.33251953125 -2600.238037109375 199.99993896484375
v -2142.56591796875 -3098.68798828125 199.99998474121094
v -2142.56591796875 -3098.68798828125 209.99996948242188
v -2103.33251953125 -2600.238037109375 209.9999237060547
v -2080.371337890625 -2627.1220703125 199.9999542236328
v -2080.371337890625 -2627.1220703125 209.99993896484375
v -2115.68115234375 -3075.7265625 209.9999542236328
v -2115.68115234375 -3075.7265625 199.99996948242188
v -2142.56591796875 -3098.68798828125 209.99996948242188
v -1718.88427734375 -3132.03759765625 210.0
v -1741.845458984375 -3105.15283203125 209.99998474121094
v -2115.68115234375 -3075.7265625 209.9999542236328
v -1679.65087890625 -2633.575439453125 209.9999542236328
v -1706.53564453125 -2656.537353515625 209.9999542236328
v -2103.33251953125 -2600.238037109375 209.9999237060547
v -2080.371337890625 -2627.1220703125 209.99993896484375
v -1228.454833984375 3098.687744140625 -0.0005184244364500046
v -1652.148681640625 3132.037353515625 -0.0005398602224886417
v -1228.454833984375 3098.687744140625 199.99948120117188
v -1652.148681640625 3132.037353515625 199.9994659423828
v -1652.148681640625 3132.037353515625 -0.0005398602224886417
v -1691.382080078125 2633.575439453125 -0.0004979982040822506
v -1652.148681640625 3132.037353515625 199.9994659423828
v -1691.382080078125 2633.575439453125 199.99951171875
v -1691.382080078125 2633.575439453125 -0.0004979982040822506
v -1267.688232421875 2600.225830078125 -0.00047656247625127435
v -1691.382080078125 2633.575439453125 199.99951171875
v -1267.688232421875 2600.225830078125 199.99952697753906
v -1267.688232421875 2600.225830078125 -0.00047656247625127435
v -1228.454833984375 3098.687744140625 -0.0005184244364500046
v -1267.688232421875 2600.225830078125 199.99952697753906
v -1228.454833984375 3098.687744140625 199.99948120117188
v -1652.148681640625 3132.037353515625 199.9994659423828
v -1267.688232421875 2600.225830078125 199.99952697753906
v -1228.454833984375 3098.687744140625 199.99948120117188
v -1691.382080078125 2633.575439453125 199.99951171875
v -1652.148681640625 3132.037353515625 209.99945068359375
v -1228.454833984375 3098.687744140625 209.9994659423828
v -1255.3394775390625 3075.726806640625 199.99948120117188
v -1255.3394775390625 3075.726806640625 209.9994659423828
v -1629.1875 3105.153076171875 209.99945068359375
v -1629.1875 3105.153076171875 199.9994659423828
v -1691.382080078125 2633.575439453125 209.99949645996094
v -1652.148681640625 3132.037353515625 209.99945068359375
v -1629.1875 3105.153076171875 199.9994659423828
v -1629.1875 3105.153076171875 209.99945068359375
v -1664.497314453125 2656.536376953125 209.99949645996094
v -1664.497314453125 2656.536376953125 199.99951171875
v -1267.688232421875 2600.225830078125 209.99951171875
v -1691.382080078125 2633.575439453125 209.99949645996094
v -1664.497314453125 2656.536376953125 199.99951171875
v -1664.497314453125 2656.536376953125 209.99949645996094
v -1290.6494140625 2627.110107421875 209.99951171875
v -1290.6494140625 2627.110107421875 199.99952697753906
v -1228.454833984375 3098.687744140625 209.9994659423828
v -1267.688232421875 2600.225830078125 209.99951171875
v -1290.6494140625 2627.110107421875 199.99952697753906
v -1290.6494140625 2627.110107421875 209.99951171875
v -1255.3394775390625 3075.726806640625 209.9994659423828
v -1255.3394775390625 3075.726806640625 199.99948120117188
v -1228.454833984375 3098.687744140625 209.9994659423828
v -1652.148681640625 3132.037353515625 209.99945068359375
v -1629.1875 3105.153076171875 209.99945068359375
v -1255.3394775390625 3075.726806640625 209.9994659423828
v -1691.382080078125 2633.575439453125 209.99949645996094
v -1664.497314453125 2656.536376953125 209.99949645996094
v -1267.688232421875 2600.225830078125 209.99951171875
v -1290.6494140625 2627.110107421875 209.99951171875
v -1844.39697265625 689.593505859375 -0.00033473840449005365
v -1420.7032470703125 656.243896484375 -0.00031330264755524695
v -1844.397216796875 689.593505859375 199.99966430664062
v -1420.7032470703125 656.243896484375 199.9996795654297
v -1420.7032470703125 656.243896484375 -0.00031330264755524695
v -1381.4698486328125 1154.705810546875 -0.00035516463685780764
v -1420.7032470703125 656.243896484375 199.9996795654297
v -1381.4698486328125 1154.705810546875 199.99964904785156
v -1381.4698486328125 1154.705810546875 -0.00035516463685780764
v -1805.163818359375 1188.055419921875 -0.00037660039379261434
v -1381.4698486328125 1154.705810546875 199.99964904785156
v -1805.163818359375 1188.055419921875 199.99961853027344
v -1805.163818359375 1188.055419921875 -0.00037660039379261434
v -1844.39697265625 689.593505859375 -0.00033473840449005365
v -1805.163818359375 1188.055419921875 199.99961853027344
v -1844.397216796875 689.593505859375 199.99966430664062
v -1420.7032470703125 656.243896484375 199.9996795654297
v -1805.163818359375 1188.055419921875 199.99961853027344
v -1844.397216796875 689.593505859375 199.99966430664062
v -1381.4698486328125 1154.705810546875 199.99964904785156
v -1420.7032470703125 656.243896484375 209.99966430664062
v -1844.397216796875 689.593505859375 209.99964904785156
v -1817.512451171875 712.5546875 199.99966430664062
v -1817.512451171875 712.5546875 209.99964904785156
v -1443.6644287109375 683.128662109375 209.99966430664062
v -1443.6644287109375 683.128662109375 199.9996795654297
v -1381.4698486328125 1154.705810546875 209.9996337890625
v -1420.7032470703125 656.243896484375 209.99966430664062
v -1443.6644287109375 683.128662109375 199.9996795654297
v -1443.6644287109375 683.128662109375 209.99966430664062
v -1408.3544921875 1131.74462890625 209.99961853027344
v -1408.3544921875 1131.74462890625 199.9996337890625
v -1805.163818359375 1188.055419921875 209.99960327148438
v -1381.4698486328125 1154.705810546875 209.9996337890625
v -1408.3544921875 1131.74462890625 199.9996337890625
v -1408.3544921875 1131.74462890625 209.99961853027344
v -1782.20263671875 1161.170654296875 209.99960327148438
v -1782.20263671875 1161.170654296875 199.99961853027344
v -1844.397216796875 689.593505859375 209.99964904785156
v -1805.163818359375 1188.055419921875 209.99960327148438
v -1782.20263671875 1161.170654296875 199.99961853027344
v -1782.20263671875 1161.170654296875 209.99960327148438
v -1817.512451171875 712.5546875 209.99964904785156
v -1817.512451171875 712.5546875 199.99966430664062
v -1844.397216796875 689.593505859375 209.99964904785156
v -1420.7032470703125 656.243896484375 209.99966430664062
v -1443.6644287109375 683.128662109375 209.99966430664062
v -1817.512451171875 712.5546875 209.99964904785156
v -1381.4698486328125 1154.705810546875 209.9996337890625
v -1408.3544921875 1131.74462890625 209.99961853027344
v -1805.163818359375 1188.055419921875 209.99960327148438
v -1782.20263671875 1161.170654296875 209.99960327148438
v -1360.229736328125 2755.831787109375 99.99950408935547
v -1566.69921875 -1640.4603271484375 99.9998779296875
v -1267.431884765625 2649.114990234375 99.99951934814453
v -1666.4580078125 -1633.499267578125 99.99987030029297
v -1360.229736328125 2755.831787109375 74.99950408935547
v -1666.4580078125 -1633.499267578125 99.99987030029297
v -1360.229736328125 2755.831787109375 99.99950408935547
v -1666.4580078125 -1633.499267578125 74.99987030029297
v -1453.027587890625 2862.548583984375 74.99949645996094
v -1666.4580078125 -1633.499267578125 74.99987030029297
v -1360.229736328125 2755.831787109375 74.99950408935547
v -1766.217041015625 -1626.5382080078125 74.99987030029297
v -1453.027587890625 2862.548583984375 49.99949264526367
v -1766.217041015625 -1626.5382080078125 74.99987030029297
v -1453.027587890625 2862.548583984375 74.99949645996094
v -1766.217041015625 -1626.5382080078125 49.999874114990234
v -1545.825439453125 2969.265869140625 49.99947738647461
v -1766.217041015625 -1626.5382080078125 49.999874114990234
v -1453.027587890625 2862.548583984375 49.99949264526367
v -1865.97607421875 -1619.5771484375 49.9998664855957
v -1545.825439453125 2969.265869140625 24.99947738647461
v -1865.97607421875 -1619.5771484375 49.9998664855957
v -1545.825439453125 2969.265869140625 49.99947738647461
v -1865.97607421875 -1619.5771484375 24.999866485595703
v -1638.623291015625 3075.982666015625 24.999465942382812
v -1865.97607421875 -1619.5771484375 24.999866485595703
v -1545.825439453125 2969.265869140625 24.99947738647461
v -1965.73486328125 -1612.6160888671875 24.999860763549805
v -1638.623291015625 3075.982666015625 -0.0005343685625120997
v -1965.73486328125 -1612.6160888671875 24.999860763549805
v -1638.623291015625 3075.982666015625 24.999465942382812
v -1965.73486328125 -1612.6160888671875 -0.00013877672608941793
v 532.5681762695312 2749.114990234375 99.99958801269531
v 532.5681762695312 2649.114990234375 99.99959564208984
v 532.5681762695312 2749.114990234375 74.99958801269531
v -1360.229736328125 2755.831787109375 99.99950408935547
v 532.5681762695312 2749.114990234375 99.99958801269531
v -1360.229736328125 2755.831787109375 74.99950408935547
v 532.5681762695312 2849.114990234375 74.99958038330078
v 532.5681762695312 2749.114990234375 74.99958801269531
v 532.5681762695312 2849.114990234375 49.99958038330078
v -1453.027587890625 2862.548583984375 74.99949645996094
v 532.5681762695312 2849.114990234375 74.99958038330078
v -1453.027587890625 2862.548583984375 49.99949264526367
v 532.568115234375 2949.114990234375 49.99957275390625
v 532.5681762695312 2849.114990234375 49.99958038330078
v 532.568115234375 2949.114990234375 24.999570846557617
v -1545.825439453125 2969.265869140625 49.99947738647461
v 532.568115234375 2949.114990234375 49.99957275390625
v -1545.825439453125 2969.265869140625 24.99947738647461
v 532.568115234375 3049.114990234375 24.999563217163086
v 532.568115234375 2949.114990234375 24.999570846557617
v 532.568115234375 3049.114990234375 -0.00043711389298550785
v -1638.623291015625 3075.982666015625 24.999465942382812
v 532.568115234375 3049.114990234375 24.999563217163086
v -1638.623291015625 3075.982666015625 -0.0005343685625120997
v -1567.431640625 -1650.8851318359375 99.99988555908203
v 532.568359375 -1650.885009765625 99.9999771118164
v -967.4317626953125 399.114990234375 99.99972534179688
v -467.4317626953125 399.114990234375 99.99974822998047
v -967.4317626953125 399.114990234375 149.99974060058594
v -467.4317626953125 399.114990234375 149.999755859375
v -467.4317626953125 399.114990234375 99.99974822998047
v -467.4317626953125 899.114990234375 99.99970245361328
v -467.4317626953125 399.114990234375 149.999755859375
v -467.4317626953125 899.114990234375 149.9997100830078
v -467.4317626953125 899.114990234375 99.99970245361328
v -967.4317626953125 899.114990234375 99.99967956542969
v -467.4317626953125 899.114990234375 149.9997100830078
v -967.4317626953125 899.114990234375 149.99969482421875
v -967.4317626953125 899.114990234375 99.99967956542969
v -967.4317626953125 399.114990234375 99.99972534179688
v -967.4317626953125 899.114990234375 149.99969482421875
v -967.4317626953125 399.114990234375 149.99974060058594
v -967.4317626953125 399.114990234375 149.99974060058594
v -467.4317626953125 399.114990234375 149.999755859375
v -467.4317626953125 899.114990234375 149.9997100830078
v -967.4317626953125 899.114990234375 149.99969482421875
v -467.4317626953125 399.114990234375 159.999755859375
v -967.4317626953125 399.114990234375 159.99974060058594
v -942.4317626953125 424.114990234375 149.99972534179688
v -942.4317626953125 424.114990234375 159.99972534179688
v -492.4317626953125 424.114990234375 159.99974060058594
v -492.4317626953125 424.114990234375 149.99974060058594
v -467.4317626953125 899.114990234375 159.9997100830078
v -467.4317626953125 399.114990234375 159.999755859375
v -492.4317626953125 424.114990234375 149.99974060058594
v -492.4317626953125 424.114990234375 159.99974060058594
v -492.4317626953125 874.114990234375 159.9997100830078
v -492.4317626953125 874.114990234375 149.9997100830078
v -967.4317626953125 899.114990234375 159.99969482421875
v -467.4317626953125 899.114990234375 159.9997100830078
v -492.4317626953125 874.114990234375 149.9997100830078
v -492.4317626953125 874.114990234375 159.9997100830078
v -942.4317626953125 874.114990234375 159.99969482421875
v -942.4317626953125 874.114990234375 149.99969482421875
v -967.4317626953125 399.114990234375 159.99974060058594
v -967.4317626953125 899.114990234375 159.99969482421875
v -942.4317626953125 874.114990234375 149.99969482421875
v -942.4317626953125 874.114990234375 159.99969482421875
v -942.4317626953125 424.114990234375 159.99972534179688
v -942.4317626953125 424.114990234375 149.99972534179688
v -967.4317626953125 399.114990234375 159.99974060058594
v -467.4317626953125 399.114990234375 159.999755859375
v -492.4317626953125 424.114990234375 159.99974060058594
v -942.4317626953125 424.114990234375 159.99972534179688
v -467.4317626953125 899.114990234375 159.9997100830078
v -492.4317626953125 874.114990234375 159.9997100830078
v -967.4317626953125 899.114990234375 159.99969482421875
v -942.4317626953125 874.114990234375 159.99969482421875
v -967.4317626953125 -350.8851318359375 99.99979400634766
v -967.431640625 -950.8850708007812 99.99984741210938
v -967.4317626953125 -350.8851318359375 149.9998016357422
v -967.431640625 -950.8850708007812 149.99984741210938
v -967.431640625 -950.8850708007812 99.99984741210938
v -467.43170166015625 -950.8850708007812 99.99987030029297
v -967.431640625 -950.8850708007812 149.99984741210938
v -467.43170166015625 -950.8850708007812 149.99986267089844
v -467.43170166015625 -950.8850708007812 99.99987030029297
v -467.43170166015625 -350.885009765625 99.99981689453125
v -467.43170166015625 -950.8850708007812 149.99986267089844
v -467.43170166015625 -350.885009765625 149.99981689453125
v -467.43170166015625 -350.885009765625 99.99981689453125
v -967.4317626953125 -350.8851318359375 99.99979400634766
v -467.43170166015625 -350.885009765625 149.99981689453125
v -967.4317626953125 -350.8851318359375 149.9998016357422
v -967.4317626953125 -350.8851318359375 149.9998016357422
v -967.431640625 -950.8850708007812 149.99984741210938
v -467.43170166015625 -350.885009765625 149.99981689453125
v -467.43170166015625 -950.8850708007812 149.99986267089844
v -967.431640625 -950.8850708007812 159.99984741210938
v -967.4317626953125 -350.8851318359375 159.9998016357422
v -942.4317626953125 -375.8851318359375 149.9998016357422
v -942.4317626953125 -375.8851318359375 159.9998016357422
v -942.431640625 -925.8851318359375 159.99984741210938
v -942.431640625 -925.8851318359375 149.99984741210938
v -467.43170166015625 -950.8850708007812 159.99986267089844
v -967.431640625 -950.8850708007812 159.99984741210938
v -942.431640625 -925.8851318359375 149.99984741210938
v -942.431640625 -925.8851318359375 159.99984741210938
v -492.431640625 -925.885009765625 159.99986267089844
v -492.431640625 -925.885009765625 149.99986267089844
v -467.43170166015625 -350.885009765625 159.99981689453125
v -467.43170166015625 -950.8850708007812 159.99986267089844
v -492.431640625 -925.885009765625 149.99986267089844
v -492.431640625 -925.885009765625 159.99986267089844
v -492.4317626953125 -375.885009765625 159.99981689453125
v -492.4317626953125 -375.885009765625 149.99981689453125
v -967.4317626953125 -350.8851318359375 159.9998016357422
v -467.43170166015625 -350.885009765625 159.99981689453125
v -492.4317626953125 -375.885009765625 149.99981689453125
v -492.4317626953125 -375.885009765625 159.99981689453125
v -942.4317626953125 -375.8851318359375 159.9998016357422
v -942.4317626953125 -375.8851318359375 149.9998016357422
v -967.4317626953125 -350.8851318359375 159.9998016357422
v -967.431640625 -950.8850708007812 159.99984741210938
v -942.431640625 -925.8851318359375 159.99984741210938
v -942.4317626953125 -375.8851318359375 159.9998016357422
v -467.43170166015625 -950.8850708007812 159.99986267089844
v -492.431640625 -925.885009765625 159.99986267089844
v -467.43170166015625 -350.885009765625 159.99981689453125
v -492.4317626953125 -375.885009765625 159.99981689453125
v -967.431884765625 2149.114990234375 99.99957275390625
v -967.4317626953125 1649.114990234375 99.99961853027344
v -967.431884765625 2149.114990234375 149.9995880126953
v -967.4317626953125 1649.114990234375 149.99961853027344
v -967.4317626953125 1649.114990234375 99.99961853027344
v -467.43182373046875 1649.114990234375 99.99964141845703
v -967.4317626953125 1649.114990234375 149.99961853027344
v -467.43182373046875 1649.114990234375 149.9996337890625
v -467.43182373046875 1649.114990234375 99.99964141845703
v -467.43182373046875 2149.114990234375 99.99959564208984
v -467.43182373046875 1649.114990234375 149.9996337890625
v -467.43182373046875 2149.114990234375 149.99960327148438
v -467.43182373046875 2149.114990234375 99.99959564208984
v -967.431884765625 2149.114990234375 99.99957275390625
v -467.43182373046875 2149.114990234375 149.99960327148438
v -967.431884765625 2149.114990234375 149.9995880126953
v -967.431884765625 2149.114990234375 149.9995880126953
v -967.4317626953125 1649.114990234375 149.99961853027344
v -817.4317626953125 1949.114990234375 149.99960327148438
v -742.4317626953125 1949.114990234375 149.99960327148438
v -742.4317626953125 1824.114990234375 149.99960327148438
v -717.4317626953125 1949.114990234375 149.99960327148438
v -642.4317626953125 1949.114990234375 149.99961853027344
v -642.4317626953125 1824.114990234375 149.99961853027344
v -467.43182373046875 2149.114990234375 149.99960327148438
v -467.43182373046875 1649.114990234375 149.9996337890625
v -717.4317626953125 1824.114990234375 149.99960327148438
v -817.4317626953125 1824.114990234375 149.99960327148438
v -967.4317626953125 1649.114990234375 159.99961853027344
v -967.431884765625 2149.114990234375 159.9995880126953
v -942.431884765625 2124.114990234375 149.9995880126953
v -942.431884765625 2124.114990234375 159.9995880126953
v -942.4317626953125 1674.114990234375 159.99961853027344
v -942.4317626953125 1674.114990234375 149.99961853027344
v -467.43182373046875 1649.114990234375 159.9996337890625
v -967.4317626953125 1649.114990234375 159.99961853027344
v -942.4317626953125 1674.114990234375 149.99961853027344
v -942.4317626953125 1674.114990234375 159.99961853027344
v -492.4317626953125 1674.114990234375 159.9996337890625
v -492.4317626953125 1674.114990234375 149.9996337890625
v -467.43182373046875 2149.114990234375 159.99960327148438
v -467.43182373046875 1649.114990234375 159.9996337890625
v -492.4317626953125 1674.114990234375 149.9996337890625
v -492.4317626953125 1674.114990234375 159.9996337890625
v -492.431884765625 2124.114990234375 159.99960327148438
v -492.431884765625 2124.114990234375 149.99960327148438
v -967.431884765625 2149.114990234375 159.9995880126953
v -467.43182373046875 2149.114990234375 159.99960327148438
v -492.431884765625 2124.114990234375 149.99960327148438
v -492.431884765625 2124.114990234375 159.99960327148438
v -942.431884765625 2124.114990234375 159.9995880126953
v -942.431884765625 2124.114990234375 149.9995880126953
v -967.431884765625 2149.114990234375 159.9995880126953
v -967.4317626953125 1649.114990234375 159.99961853027344
v -942.4317626953125 1674.114990234375 159.99961853027344
v -942.431884765625 2124.114990234375 159.9995880126953
v -467.43182373046875 1649.114990234375 159.9996337890625
v -492.4317626953125 1674.114990234375 159.9996337890625
v -467.43182373046875 2149.114990234375 159.99960327148438
v -492.431884765625 2124.114990234375 159.99960327148438
v -642.4317626953125 1824.114990234375 149.99961853027344
v -642.4317626953125 1949.114990234375 149.99961853027344
v -589.5360107421875 1824.114990234375 749.99951171875
v -589.5360107421875 1949.114990234375 749.9994506835938
v -642.4317626953125 1949.114990234375 149.99961853027344
v -717.4317626953125 1949.114990234375 149.99960327148438
v -589.5360107421875 1949.114990234375 749.9995727539062
v -717.431884765625 1949.114990234375 749.9995727539062
v -717.4317626953125 1949.114990234375 149.99960327148438
v -717.4317626953125 1824.114990234375 149.99960327148438
v -717.431884765625 1949.114990234375 749.9995727539062
v -717.431884765625 1824.114990234375 749.9996337890625
v -717.4317626953125 1824.114990234375 149.99960327148438
v -642.4317626953125 1824.114990234375 149.99961853027344
v -717.431884765625 1824.114990234375 749.9996337890625
v -589.5360107421875 1824.114990234375 749.9996337890625
v -870.361572265625 1949.114990234375 749.9995727539062
v -717.431884765625 1949.114990234375 749.9995727539062
v -870.361572265625 1824.114990234375 749.9996337890625
v -717.431884765625 1824.114990234375 749.9996337890625
v -589.587646484375 1824.114990234375 749.9996337890625
v -589.587646484375 1949.114990234375 749.9995727539062
v -659.858154296875 1824.114990234375 1249.9996337890625
v -659.858154296875 1949.114990234375 1249.9996337890625
v -589.587646484375 1949.114990234375 749.9995727539062
v -870.361572265625 1949.114990234375 749.9995727539062
v -659.858154296875 1949.114990234375 1249.9996337890625
v -800.0911865234375 1949.114990234375 1249.9996337890625
v -870.361572265625 1949.114990234375 749.9995727539062
v -870.361572265625 1824.114990234375 749.9996337890625
v -800.0911865234375 1949.114990234375 1249.9996337890625
v -800.0911865234375 1824.114990234375 1249.9996337890625
v -870.361572265625 1824.114990234375 749.9996337890625
v -589.587646484375 1824.114990234375 749.9996337890625
v -800.0911865234375 1824.114990234375 1249.9996337890625
v -659.858154296875 1824.114990234375 1249.9996337890625
v -800.0911865234375 1824.114990234375 1249.9996337890625
v -659.858154296875 1824.114990234375 1249.9996337890625
v -659.858154296875 1949.114990234375 1249.9996337890625
v -800.0911865234375 1949.114990234375 1249.9996337890625
v -742.4317626953125 1949.114990234375 149.99960327148438
v -817.4317626953125 1949.114990234375 149.99960327148438
v -742.431884765625 1949.114990234375 749.9995727539062
v -870.3277587890625 1949.114990234375 749.9995727539062
v -817.4317626953125 1949.114990234375 149.99960327148438
v -817.4317626953125 1824.114990234375 149.99960327148438
v -870.32763671875 1949.114990234375 749.9994506835938
v -870.32763671875 1824.114990234375 749.99951171875
v -817.4317626953125 1824.114990234375 149.99960327148438
v -742.4317626953125 1824.114990234375 149.99960327148438
v -870.3277587890625 1824.114990234375 749.9996337890625
v -742.431884765625 1824.114990234375 749.9996337890625
v -742.4317626953125 1824.114990234375 149.99960327148438
v -742.4317626953125 1949.114990234375 149.99960327148438
v -742.431884765625 1824.114990234375 749.9996337890625
v -742.431884765625 1949.114990234375 749.9995727539062
v -1993.4814453125 -1204.5472412109375 -0.0001756640849635005
v -1569.78759765625 -1237.8968505859375 -0.0001542283280286938
v -1993.4814453125 -1204.5472412109375 199.9998321533203
v -1569.78759765625 -1237.8968505859375 199.99984741210938
v -1569.78759765625 -1237.8968505859375 -0.0001542283280286938
v -1530.55419921875 -739.4349365234375 -0.00019609028822742403
v -1569.78759765625 -1237.8968505859375 199.99984741210938
v -1530.55419921875 -739.4349365234375 199.9998016357422
v -1530.55419921875 -739.4349365234375 -0.00019609028822742403
v -1954.248046875 -706.0853271484375 -0.00021752604516223073
v -1530.55419921875 -739.4349365234375 199.9998016357422
v -1954.248046875 -706.0853271484375 199.99978637695312
v -1954.248046875 -706.0853271484375 -0.00021752604516223073
v -1993.4814453125 -1204.5472412109375 -0.0001756640849635005
v -1954.248046875 -706.0853271484375 199.99978637695312
v -1993.4814453125 -1204.5472412109375 199.9998321533203
v -1569.78759765625 -1237.8968505859375 199.99984741210938
v -1954.248046875 -706.0853271484375 199.99978637695312
v -1993.4814453125 -1204.5472412109375 199.9998321533203
v -1530.55419921875 -739.4349365234375 199.9998016357422
v -1569.78759765625 -1237.8968505859375 209.9998321533203
v -1993.4814453125 -1204.5472412109375 209.99981689453125
v -1966.5966796875 -1181.5860595703125 199.9998321533203
v -1966.5966796875 -1181.5860595703125 209.99981689453125
v -1592.748779296875 -1211.01220703125 209.9998321533203
v -1592.748779296875 -1211.01220703125 199.99984741210938
v -1530.55419921875 -739.4349365234375 209.99978637695312
v -1569.78759765625 -1237.8968505859375 209.9998321533203
v -1592.748779296875 -1211.01220703125 199.99984741210938
v -1592.748779296875 -1211.01220703125 209.9998321533203
v -1557.43896484375 -762.3961181640625 209.99978637695312
v -1557.43896484375 -762.3961181640625 199.9998016357422
v -1954.248046875 -706.0853271484375 209.99977111816406
v -1530.55419921875 -739.4349365234375 209.99978637695312
v -1557.43896484375 -762.3961181640625 199.9998016357422
v -1557.43896484375 -762.3961181640625 209.99978637695312
v -1931.286865234375 -732.969970703125 209.99977111816406
v -1931.286865234375 -732.969970703125 199.99978637695312
v -1993.4814453125 -1204.5472412109375 209.99981689453125
v -1954.248046875 -706.0853271484375 209.99977111816406
v -1931.286865234375 -732.969970703125 199.99978637695312
v -1931.286865234375 -732.969970703125 209.99977111816406
v -1966.5966796875 -1181.5860595703125 209.99981689453125
v -1966.5966796875 -1181.5860595703125 199.9998321533203
v -1993.4814453125 -1204.5472412109375 209.99981689453125
v -1569.78759765625 -1237.8968505859375 209.9998321533203
v -1592.748779296875 -1211.01220703125 209.9998321533203
v -1966.5966796875 -1181.5860595703125 209.99981689453125
v -1530.55419921875 -739.4349365234375 209.99978637695312
v -1557.43896484375 -762.3961181640625 209.99978637695312
v -1954.248046875 -706.0853271484375 209.99977111816406
v -1931.286865234375 -732.969970703125 209.99977111816406
v 1632.568115234375 2649.114990234375 399.9996643066406
v 932.568115234375 2649.114990234375 399.9996337890625
v 1632.568115234375 2649.114990234375 449.9996643066406
v 932.568115234375 2649.114990234375 449.9996337890625
v 932.568115234375 2649.114990234375 399.9996337890625
v 932.5681762695312 2149.114990234375 399.9996643066406
v 932.568115234375 2649.114990234375 449.9996337890625
v 932.568115234375 2149.114990234375 449.9996643066406
v 932.5681762695312 2149.114990234375 399.9996643066406
v 1632.568115234375 2149.114990234375 399.99969482421875
v 932.568115234375 2149.114990234375 449.9996643066406
v 1632.568115234375 2149.114990234375 449.99969482421875
v 1632.568115234375 2149.114990234375 399.99969482421875
v 1632.568115234375 2649.114990234375 399.9996643066406
v 1632.568115234375 2149.114990234375 449.99969482421875
v 1632.568115234375 2649.114990234375 449.9996643066406
v 932.568115234375 2649.114990234375 449.9996337890625
v 932.568115234375 2149.114990234375 449.9996643066406
v 1632.568115234375 2649.114990234375 449.9996643066406
v 1632.568115234375 2149.114990234375 449.99969482421875
v 932.568115234375 2649.114990234375 459.9996337890625
v 1632.568115234375 2649.114990234375 459.9996643066406
v 1607.568115234375 2624.114990234375 449.9996643066406
v 1607.568115234375 2624.114990234375 459.9996643066406
v 957.568115234375 2624.114990234375 459.9996337890625
v 957.568115234375 2624.114990234375 449.9996337890625
v 932.568115234375 2149.114990234375 459.9996643066406
v 932.568115234375 2649.114990234375 459.9996337890625
v 957.568115234375 2624.114990234375 449.9996337890625
v 957.568115234375 2624.114990234375 459.9996337890625
v 957.568115234375 2174.114990234375 459.9996643066406
v 957.568115234375 2174.114990234375 449.9996643066406
v 1632.568115234375 2149.114990234375 459.99969482421875
v 932.568115234375 2149.114990234375 459.9996643066406
v 957.568115234375 2174.114990234375 449.9996643066406
v 957.568115234375 2174.114990234375 459.9996643066406
v 1607.568115234375 2174.114990234375 459.99969482421875
v 1607.568115234375 2174.114990234375 449.99969482421875
v 1632.568115234375 2649.114990234375 459.9996643066406
v 1632.568115234375 2149.114990234375 459.99969482421875
v 1607.568115234375 2174.114990234375 449.99969482421875
v 1607.568115234375 2174.114990234375 459.99969482421875
v 1607.568115234375 2624.114990234375 459.9996643066406
v 1607.568115234375 2624.114990234375 449.9996643066406
v 1632.568115234375 2649.114990234375 459.9996643066406
v 932.568115234375 2649.114990234375 459.9996337890625
v 957.568115234375 2624.114990234375 459.9996337890625
v 1607.568115234375 2624.114990234375 459.9996643066406
v 932.568115234375 2149.114990234375 459.9996643066406
v 957.568115234375 2174.114990234375 459.9996643066406
v 1632.568115234375 2149.114990234375 459.99969482421875
v 1607.568115234375 2174.114990234375 459.99969482421875
v -67.43170166015625 -550.885009765625 -0.00014861871022731066
v -167.43170166015625 -650.885009765625 -0.00014424757682718337
v -67.4317626953125 -550.8848876953125 799.9998779296875
v -167.4317626953125 -650.8848876953125 799.9998168945312
v -167.43170166015625 -650.885009765625 -0.00014424757682718337
v -167.431640625 -1450.885009765625 -7.430935511365533e-05
v -167.43170166015625 -789.886474609375 177.99986267089844
v -167.43170166015625 -789.886474609375 325.9238586425781
v -167.43170166015625 -900.1695556640625 325.9238586425781
v -167.4317626953125 -650.8848876953125 799.9998168945312
v -167.43170166015625 -1450.885009765625 799.9998779296875
v -167.43170166015625 -900.1695556640625 177.9998779296875
v -167.431640625 -1450.885009765625 -7.430935511365533e-05
v -67.431640625 -1550.885009765625 -6.119594036135823e-05
v -167.43170166015625 -1450.885009765625 799.9998779296875
v -67.43170166015625 -1550.885009765625 799.9999389648438
v -67.431640625 -1550.885009765625 -6.119594036135823e-05
v 532.568359375 -1550.885009765625 -3.496911085676402e-05
v -67.43170166015625 -1550.885009765625 799.9999389648438
v 532.5682983398438 -1550.885009765625 799.9999389648438
v 532.568359375 -1550.885009765625 -3.496911085676402e-05
v 532.568359375 -1650.885009765625 -2.6226833142573014e-05
v 532.5682983398438 -1550.885009765625 799.9999389648438
v 532.5682983398438 -1650.885009765625 800.0
v 532.568359375 -1650.885009765625 -2.6226833142573014e-05
v 2132.568359375 -1650.885009765625 4.371138857095502e-05
v 1749.267578125 -1650.885009765625 5.628227233886719
v 1749.267578125 -1650.8848876953125 260.62823486328125
v 1872.767578125 -1650.8848876953125 260.62823486328125
v 532.5682983398438 -1650.885009765625 800.0
v 2132.568359375 -1650.8848876953125 800.0000610351562
v 1872.767578125 -1650.885009765625 5.628232479095459
v 2132.568359375 -1650.885009765625 4.371138857095502e-05
v 2132.568359375 -550.8848876953125 -5.2453655371209607e-05
v 2132.568359375 -1313.299560546875 96.74401092529297
v 2132.568359375 -1313.299560546875 320.74395751953125
v 2132.568359375 -893.299560546875 320.7439270019531
v 2132.568359375 -1650.8848876953125 799.9999389648438
v 2132.568359375 -550.884765625 799.9998168945312
v 2132.568359375 -893.299560546875 96.74397277832031
v 542.56591796875 -550.885009765625 -0.00012195487215649337
v -67.43170166015625 -550.885009765625 -0.00014861871022731066
v 542.5658569335938 -550.8848876953125 799.9998779296875
v -67.4317626953125 -550.8848876953125 799.9998779296875
v 1749.267578125 -1638.9586181640625 260.62823486328125
v 1872.767578125 -1638.9586181640625 260.62823486328125
v 1749.267578125 -1650.8848876953125 260.62823486328125
v 1872.767578125 -1650.8848876953125 260.62823486328125
v 1749.267578125 -1638.9586181640625 5.628226280212402
v 1749.267578125 -1650.885009765625 5.628227233886719
v 1872.767578125 -1638.9586181640625 5.628231525421143
v 1872.767578125 -1650.885009765625 5.628232479095459
v 1749.267578125 -1638.9586181640625 260.62823486328125
v 1749.267578125 -1650.885009765625 5.628227233886719
v 1749.267578125 -1638.9586181640625 5.628226280212402
v 1749.267578125 -1650.8848876953125 260.62823486328125
v 1872.767578125 -1638.9586181640625 260.62823486328125
v 1872.767578125 -1638.9586181640625 5.628231525421143
v 1872.767578125 -1650.885009765625 5.628232479095459
v 1872.767578125 -1650.8848876953125 260.62823486328125
v 2122.57080078125 -1313.299560546875 320.74395751953125
v 2132.568359375 -893.299560546875 320.7439270019531
v 2132.568359375 -1313.299560546875 320.74395751953125
v 2122.57080078125 -893.299560546875 320.7439270019531
v 2122.57080078125 -1313.299560546875 96.74401092529297
v 2132.568359375 -1313.299560546875 96.74401092529297
v 2132.568359375 -893.299560546875 96.74397277832031
v 2122.57080078125 -893.299560546875 96.74397277832031
v 2122.57080078125 -1313.299560546875 320.74395751953125
v 2132.568359375 -1313.299560546875 96.74401092529297
v 2122.57080078125 -1313.299560546875 96.74401092529297
v 2132.568359375 -1313.299560546875 320.74395751953125
v 2122.57080078125 -893.299560546875 320.7439270019531
v 2122.57080078125 -893.299560546875 96.74397277832031
v 2132.568359375 -893.299560546875 96.74397277832031
v 2132.568359375 -893.299560546875 320.7439270019531
v -117.4317626953125 -650.8848876953125 799.9998779296875
v -292.4317626953125 -650.8848876953125 799.9998168945312
v -167.43170166015625 -700.8848876953125 799.9998168945312
v -292.43170166015625 -700.8848876953125 799.9998168945312
v -117.43170166015625 -650.8848876953125 749.9998779296875
v -167.43170166015625 -700.8848876953125 749.9998168945312
v -292.43170166015625 -650.8848876953125 749.9998168945312
v -292.43170166015625 -700.8848876953125 749.9998168945312
v -117.4317626953125 -650.8848876953125 799.9998779296875
v -292.43170166015625 -650.8848876953125 749.9998168945312
v -292.4317626953125 -650.8848876953125 799.9998168945312
v -117.43170166015625 -650.8848876953125 749.9998779296875
v -292.4317626953125 -650.8848876953125 799.9998168945312
v -292.43170166015625 -700.8848876953125 749.9998168945312
v -292.43170166015625 -700.8848876953125 799.9998168945312
v -292.43170166015625 -650.8848876953125 749.9998168945312
v -292.43170166015625 -700.8848876953125 799.9998168945312
v -167.43170166015625 -700.8848876953125 749.9998168945312
v -167.43170166015625 -700.8848876953125 799.9998168945312
v -292.43170166015625 -700.8848876953125 749.9998168945312
v -167.43170166015625 -700.8848876953125 799.9998168945312
v -117.43170166015625 -650.8848876953125 749.9998779296875
v -117.4317626953125 -650.8848876953125 799.9998779296875
v -167.43170166015625 -700.8848876953125 749.9998168945312
v -292.43170166015625 -900.8848876953125 799.9998168945312
v -292.43170166015625 -950.885009765625 799.9998779296875
v -167.43170166015625 -950.885009765625 799.9998779296875
v -167.43170166015625 -900.8848876953125 799.9998168945312
v -292.43170166015625 -900.8848876953125 749.9998168945312
v -167.43170166015625 -950.885009765625 749.9998779296875
v -292.43170166015625 -950.885009765625 749.9998779296875
v -167.43170166015625 -900.8848876953125 749.9998168945312
v -292.43170166015625 -950.885009765625 799.9998779296875
v -167.43170166015625 -950.885009765625 749.9998779296875
v -167.43170166015625 -950.885009765625 799.9998779296875
v -292.43170166015625 -950.885009765625 749.9998779296875
v -167.43170166015625 -950.885009765625 799.9998779296875
v -167.43170166015625 -900.8848876953125 749.9998168945312
v -167.43170166015625 -900.8848876953125 799.9998168945312
v -167.43170166015625 -950.885009765625 749.9998779296875
v -167.43170166015625 -900.8848876953125 799.9998168945312
v -292.43170166015625 -900.8848876953125 749.9998168945312
v -292.43170166015625 -900.8848876953125 799.9998168945312
v -167.43170166015625 -900.8848876953125 749.9998168945312
v -292.43170166015625 -900.8848876953125 799.9998168945312
v -292.43170166015625 -950.885009765625 749.9998779296875
v -292.43170166015625 -950.885009765625 799.9998779296875
v -292.43170166015625 -900.8848876953125 749.9998168945312
v -292.43170166015625 -1150.885009765625 799.9998779296875
v -292.43170166015625 -1200.885009765625 799.9998779296875
v -167.43170166015625 -1200.885009765625 799.9998779296875
v -167.43170166015625 -1150.885009765625 799.9998779296875
v -292.43170166015625 -1150.885009765625 749.9998779296875
v -167.43170166015625 -1200.885009765625 749.9998779296875
v -292.43170166015625 -1200.885009765625 749.9998779296875
v -167.43170166015625 -1150.885009765625 749.9998779296875
v -292.43170166015625 -1150.885009765625 799.9998779296875
v -292.43170166015625 -1200.885009765625 749.9998779296875
v -292.43170166015625 -1200.885009765625 799.9998779296875
v -292.43170166015625 -1150.885009765625 749.9998779296875
v -292.43170166015625 -1200.885009765625 799.9998779296875
v -167.43170166015625 -1200.885009765625 749.9998779296875
v -167.43170166015625 -1200.885009765625 799.9998779296875
v -292.43170166015625 -1200.885009765625 749.9998779296875
v -167.43170166015625 -1200.885009765625 799.9998779296875
v -167.43170166015625 -1150.885009765625 749.9998779296875
v -167.43170166015625 -1150.885009765625 799.9998779296875
v -167.43170166015625 -1200.885009765625 749.9998779296875
v -167.43170166015625 -1150.885009765625 799.9998779296875
v -292.43170166015625 -1150.885009765625 749.9998779296875
v -292.43170166015625 -1150.885009765625 799.9998779296875
v -167.43170166015625 -1150.885009765625 749.9998779296875
v -292.43170166015625 -1400.885009765625 799.9998779296875
v -292.43170166015625 -1450.885009765625 799.9998779296875
v -117.43170166015625 -1450.885009765625 799.9999389648438
v -167.43170166015625 -1400.885009765625 799.9998779296875
v -292.43170166015625 -1400.885009765625 749.9998779296875
v -117.43170166015625 -1450.885009765625 749.9999389648438
v -292.43170166015625 -1450.885009765625 749.9998779296875
v -167.43170166015625 -1400.885009765625 749.9998779296875
v -292.43170166015625 -1450.885009765625 799.9998779296875
v -117.43170166015625 -1450.885009765625 749.9999389648438
v -117.43170166015625 -1450.885009765625 799.9999389648438
v -292.43170166015625 -1450.885009765625 749.9998779296875
v -117.43170166015625 -1450.885009765625 799.9999389648438
v -167.43170166015625 -1400.885009765625 749.9998779296875
v -167.43170166015625 -1400.885009765625 799.9998779296875
v -117.43170166015625 -1450.885009765625 749.9999389648438
v -167.43170166015625 -1400.885009765625 799.9998779296875
v -292.43170166015625 -1400.885009765625 749.9998779296875
v -292.43170166015625 -1400.885009765625 799.9998779296875
v -167.43170166015625 -1400.885009765625 749.9998779296875
v -292.43170166015625 -1400.885009765625 799.9998779296875
v -292.43170166015625 -1450.885009765625 749.9998779296875
v -292.43170166015625 -1450.885009765625 799.9998779296875
v -292.43170166015625 -1400.885009765625 749.9998779296875
v -67.4317626953125 -550.8848876953125 799.9998779296875
v 432.5682678222656 -450.8848876953125 799.9998779296875
v 432.5682678222656 -550.8848876953125 799.9998779296875
v -67.4317626953125 -450.8848876953125 799.9998779296875
v -267.4317626953125 -650.8848876953125 799.9998168945312
v -167.4317626953125 -650.8848876953125 799.9998168945312
v -267.43170166015625 -1450.885009765625 799.9998779296875
v -67.43170166015625 -1650.885009765625 800.0
v -167.43170166015625 -1450.885009765625 799.9998779296875
v -67.43170166015625 -1550.885009765625 799.9999389648438
v 532.5682983398438 -1550.885009765625 799.9999389648438
v 532.5682983398438 -1650.885009765625 800.0
v -292.4317626953125 -650.8848876953125 799.9998168945312
v -292.43170166015625 -700.8848876953125 799.9998168945312
v -267.43170166015625 -700.8848876953125 799.9998168945312
v -292.43170166015625 -1450.885009765625 799.9998779296875
v -267.43170166015625 -1400.885009765625 799.9998779296875
v -292.43170166015625 -1400.885009765625 799.9998779296875
v -292.43170166015625 -900.8848876953125 799.9998168945312
v -267.43170166015625 -900.8848876953125 799.9998168945312
v -292.43170166015625 -950.885009765625 799.9998779296875
v -267.43170166015625 -950.885009765625 799.9998779296875
v -292.43170166015625 -1150.885009765625 799.9998779296875
v -267.43170166015625 -1150.885009765625 799.9998779296875
v -292.43170166015625 -1200.885009765625 799.9998779296875
v -267.43170166015625 -1200.885009765625 799.9998779296875
v 432.5682678222656 -550.8848876953125 799.9998779296875
v 432.5682678222656 -450.8848876953125 799.9998779296875
v 432.56781005859375 -550.884033203125 11400.0
v 432.56781005859375 -450.884033203125 11400.0
v 432.5682678222656 -450.8848876953125 799.9998779296875
v -67.4317626953125 -450.8848876953125 799.9998779296875
v 432.56781005859375 -450.884033203125 11400.0
v -67.43218994140625 -450.884033203125 11400.0
v -67.4317626953125 -450.8848876953125 799.9998779296875
v -267.4317626953125 -650.8848876953125 799.9998168945312
v -124.00030517578125 -507.453369140625 1799.9998779296875
v -124.00030517578125 -507.453369140625 1939.9998779296875
v -222.9952392578125 -606.448486328125 1939.9998779296875
v -124.0003662109375 -507.4532470703125 2199.999755859375
v -124.0003662109375 -507.4532470703125 2339.999755859375
v -222.99530029296875 -606.4483642578125 2340.0
v -124.0003662109375 -507.4532470703125 2599.999755859375
v -124.0003662109375 -507.4532470703125 2739.999755859375
v -222.99530029296875 -606.4483642578125 2740.0
v -124.0003662109375 -507.4532470703125 2999.999755859375
v -124.0003662109375 -507.4532470703125 3139.999755859375
v -222.99530029296875 -606.4483642578125 3140.0
v -124.0003662109375 -507.4532470703125 3399.999755859375
v -124.00042724609375 -507.453125 3540.0
v -222.99530029296875 -606.4482421875 3540.000244140625
v -124.00042724609375 -507.453125 3799.999755859375
v -124.00042724609375 -507.453125 3940.0
v -222.995361328125 -606.4482421875 3940.000244140625
v -124.00042724609375 -507.453125 4200.0
v -124.00042724609375 -507.453125 4340.0
v -222.995361328125 -606.4482421875 4340.0
v -124.00042724609375 -507.453125 4600.0
v -124.00042724609375 -507.453125 4740.0
v -222.995361328125 -606.4482421875 4740.0
v -124.00048828125 -507.4530029296875 5000.0
v -124.00048828125 -507.4530029296875 5140.0
v -222.99542236328125 -606.4481201171875 5140.0
v -124.00048828125 -507.4530029296875 5400.0
v -124.00048828125 -507.4530029296875 5540.0
v -222.99542236328125 -606.4481201171875 5540.0
v -124.00048828125 -507.4530029296875 5800.0
v -124.00048828125 -507.4530029296875 5940.0
v -222.99542236328125 -606.4481201171875 5940.0
v -124.00048828125 -507.4530029296875 6200.0
v -124.00054931640625 -507.452880859375 6340.0
v -222.9954833984375 -606.447998046875 6340.0
v -124.00054931640625 -507.452880859375 6600.0
v -124.00054931640625 -507.452880859375 6740.0
v -222.9954833984375 -606.447998046875 6740.0
v -124.00054931640625 -507.452880859375 7000.0
v -124.00054931640625 -507.452880859375 7140.0
v -222.9954833984375 -606.447998046875 7140.0
v -124.00054931640625 -507.452880859375 7400.0
v -124.00054931640625 -507.452880859375 7540.0
v -222.9954833984375 -606.447998046875 7540.0
v -124.0006103515625 -507.4527587890625 7800.0
v -124.0006103515625 -507.4527587890625 7940.0
v -222.99554443359375 -606.4478759765625 7940.0
v -124.0006103515625 -507.4527587890625 8200.0
v -124.0006103515625 -507.4527587890625 8340.0
v -222.99554443359375 -606.4478759765625 8340.0
v -124.0006103515625 -507.4527587890625 8600.0
v -124.0006103515625 -507.4527587890625 8740.0
v -222.99554443359375 -606.4478759765625 8740.0
v -124.0006103515625 -507.4527587890625 9000.0
v -124.00067138671875 -507.45263671875 9140.0
v -222.99560546875 -606.44775390625 9140.0
v -124.00067138671875 -507.45263671875 9400.0
v -124.00067138671875 -507.45263671875 9540.0
v -222.99560546875 -606.44775390625 9540.0
v -124.00067138671875 -507.45263671875 9800.0
v -124.00067138671875 -507.45263671875 9940.0
v -222.99560546875 -606.44775390625 9940.0
v -124.00067138671875 -507.45263671875 10200.0
v -124.00067138671875 -507.45263671875 10340.0
v -222.99560546875 -606.44775390625 10340.0
v -67.43218994140625 -450.884033203125 11400.0
v -267.43218994140625 -650.884033203125 11400.0
v -222.99560546875 -606.44775390625 10200.0
v -222.99560546875 -606.44775390625 9800.0
v -222.99560546875 -606.44775390625 9400.0
v -222.99554443359375 -606.4478759765625 9000.0
v -222.99554443359375 -606.4478759765625 8600.0
v -222.99554443359375 -606.4478759765625 8200.0
v -222.99554443359375 -606.4478759765625 7800.0
v -222.9954833984375 -606.447998046875 7400.0
v -222.9954833984375 -606.447998046875 7000.0
v -222.9954833984375 -606.447998046875 6600.0
v -222.99542236328125 -606.4481201171875 6200.0
v -222.99542236328125 -606.4481201171875 5800.0
v -222.99542236328125 -606.4481201171875 5400.0
v -222.99542236328125 -606.4481201171875 5000.0
v -222.995361328125 -606.4482421875 4600.0
v -222.995361328125 -606.4482421875 4200.0
v -222.995361328125 -606.4482421875 3800.0
v -222.99530029296875 -606.4483642578125 3400.0
v -222.99530029296875 -606.4483642578125 3000.0
v -222.99530029296875 -606.4483642578125 2600.0
v -222.99530029296875 -606.4483642578125 2200.0
v -222.9952392578125 -606.448486328125 1799.9998779296875
v -267.4317626953125 -650.8848876953125 799.9998168945312
v -267.43170166015625 -1450.885009765625 799.9998779296875
v -267.43218994140625 -650.884033203125 11400.0
v -267.43218994140625 -1450.884033203125 11400.0
v -267.43170166015625 -1450.885009765625 799.9998779296875
v -67.43170166015625 -1650.885009765625 800.0
v -210.86322021484375 -1507.453369140625 1800.0
v -210.86322021484375 -1507.453369140625 1940.0
v -111.8682861328125 -1606.4483642578125 1940.0
v -210.86322021484375 -1507.453369140625 2200.0
v -210.86322021484375 -1507.453369140625 2340.0
v -111.8682861328125 -1606.4483642578125 2340.0
v -210.86322021484375 -1507.453369140625 2600.0
v -210.86322021484375 -1507.453369140625 2740.0
v -111.8682861328125 -1606.4483642578125 2740.0
v -210.86322021484375 -1507.453369140625 3000.0
v -210.86328125 -1507.453369140625 3140.0
v -111.8682861328125 -1606.4482421875 3140.0
v -210.86328125 -1507.4532470703125 3400.0
v -210.86328125 -1507.4532470703125 3540.000244140625
v -111.86834716796875 -1606.4482421875 3540.000244140625
v -210.86328125 -1507.4532470703125 3800.0
v -210.86328125 -1507.4532470703125 3940.000244140625
v -111.86834716796875 -1606.4482421875 3940.000244140625
v -210.86328125 -1507.4532470703125 4200.0
v -210.86328125 -1507.4532470703125 4340.0
v -111.86834716796875 -1606.4482421875 4340.0
v -210.86334228515625 -1507.453125 4600.0
v -210.86334228515625 -1507.453125 4740.0
v -111.868408203125 -1606.4481201171875 4740.0
v -210.86334228515625 -1507.453125 5000.0
v -210.86334228515625 -1507.453125 5140.0
v -111.868408203125 -1606.4481201171875 5140.0
v -210.86334228515625 -1507.453125 5400.0
v -210.86334228515625 -1507.453125 5540.0
v -111.868408203125 -1606.4481201171875 5540.0
v -210.86334228515625 -1507.453125 5800.0
v -210.8634033203125 -1507.453125 5940.0
v -111.86846923828125 -1606.447998046875 5940.0
v -210.8634033203125 -1507.4530029296875 6200.0
v -210.8634033203125 -1507.4530029296875 6340.0
v -111.86846923828125 -1606.447998046875 6340.0
v -210.8634033203125 -1507.4530029296875 6600.0
v -210.8634033203125 -1507.4530029296875 6740.0
v -111.86846923828125 -1606.447998046875 6740.0
v -210.8634033203125 -1507.4530029296875 7000.0
v -210.8634033203125 -1507.4530029296875 7140.0
v -111.86846923828125 -1606.447998046875 7140.0
v -210.86346435546875 -1507.452880859375 7400.0
v -210.86346435546875 -1507.452880859375 7540.0
v -111.8685302734375 -1606.4478759765625 7540.0
v -210.86346435546875 -1507.452880859375 7800.0
v -210.86346435546875 -1507.452880859375 7940.0
v -111.8685302734375 -1606.4478759765625 7940.0
v -210.86346435546875 -1507.452880859375 8200.0
v -210.86346435546875 -1507.452880859375 8340.0
v -111.8685302734375 -1606.4478759765625 8340.0
v -210.86346435546875 -1507.452880859375 8600.0
v -210.863525390625 -1507.452880859375 8740.0
v -111.86859130859375 -1606.44775390625 8740.0
v -210.863525390625 -1507.4527587890625 9000.0
v -210.863525390625 -1507.4527587890625 9140.0
v -111.86859130859375 -1606.44775390625 9140.0
v -210.863525390625 -1507.4527587890625 9400.0
v -210.863525390625 -1507.4527587890625 9540.0
v -111.86859130859375 -1606.44775390625 9540.0
v -210.863525390625 -1507.4527587890625 9800.0
v -210.863525390625 -1507.4527587890625 9940.0
v -111.86859130859375 -1606.44775390625 9940.0
v -210.86358642578125 -1507.45263671875 10200.0
v -210.86358642578125 -1507.45263671875 10340.0
v -111.86865234375 -1606.4476318359375 10340.0
v -267.43218994140625 -1450.884033203125 11400.0
v -67.43212890625 -1650.884033203125 11400.0
v -111.86865234375 -1606.44775390625 10200.0
v -111.86859130859375 -1606.44775390625 9800.0
v -111.86859130859375 -1606.44775390625 9400.0
v -111.86859130859375 -1606.44775390625 9000.0
v -111.8685302734375 -1606.44775390625 8600.0
v -111.8685302734375 -1606.4478759765625 8200.0
v -111.8685302734375 -1606.4478759765625 7800.0
v -111.8685302734375 -1606.447998046875 7400.0
v -111.86846923828125 -1606.447998046875 7000.0
v -111.86846923828125 -1606.447998046875 6600.0
v -111.86846923828125 -1606.447998046875 6200.0
v -111.868408203125 -1606.447998046875 5800.0
v -111.868408203125 -1606.4481201171875 5400.0
v -111.868408203125 -1606.4481201171875 5000.0
v -111.868408203125 -1606.4482421875 4600.0
v -111.86834716796875 -1606.4482421875 4200.0
v -111.86834716796875 -1606.4482421875 3800.0
v -111.86834716796875 -1606.4482421875 3400.0
v -111.8682861328125 -1606.4482421875 3000.0
v -111.8682861328125 -1606.4483642578125 2600.0
v -111.8682861328125 -1606.4483642578125 2200.0
v -111.8682861328125 -1606.448486328125 1800.0
v -67.43170166015625 -1650.885009765625 800.0
v -67.43212890625 -1650.884033203125 11400.0
v 2132.56787109375 -1650.8839111328125 11400.0
v 2132.568359375 -1260.884765625 1425.0001220703125
v 2132.568359375 -1260.884765625 1565.0001220703125
v 2132.568359375 -1120.884765625 1565.0
v 2132.568359375 -1260.884765625 1825.0001220703125
v 2132.568359375 -1260.884765625 1965.0001220703125
v 2132.568359375 -1120.884765625 1965.0
v 2132.568359375 -1260.884765625 2225.0
v 2132.568359375 -1260.884765625 2365.0
v 2132.568359375 -1120.884765625 2365.0
v 2132.568359375 -1260.884765625 2625.0
v 2132.568359375 -1260.884765625 2765.0
v 2132.568359375 -1120.884765625 2765.0
v 2132.568359375 -1260.884765625 3025.0
v 2132.568359375 -1260.8846435546875 3165.0
v 2132.568359375 -1120.8846435546875 3165.0
v 2132.568359375 -1260.8846435546875 3425.0
v 2132.568115234375 -1260.8846435546875 3565.000244140625
v 2132.568115234375 -1120.8846435546875 3565.000244140625
v 2132.568115234375 -1260.8846435546875 3825.0
v 2132.568115234375 -1260.884521484375 3965.000244140625
v 2132.568115234375 -1120.884521484375 3965.000244140625
v 2132.568115234375 -1260.884521484375 4225.0
v 2132.568115234375 -1260.884521484375 4365.0
v 2132.568115234375 -1120.884521484375 4365.0
v 2132.568115234375 -1260.884521484375 4625.0
v 2132.568115234375 -1260.884521484375 4765.0
v 2132.568115234375 -1120.884521484375 4765.0
v 2132.568115234375 -1260.884521484375 5025.0
v 2132.568115234375 -1260.884521484375 5165.0
v 2132.568115234375 -1120.884521484375 5165.0
v 2132.568115234375 -1260.884521484375 5425.0
v 2132.568115234375 -1260.884521484375 5565.0
v 2132.568115234375 -1120.884521484375 5565.0
v 2132.568115234375 -1260.882080078125 5817.0654296875
v 2132.568115234375 -1260.882080078125 5957.0654296875
v 2132.568115234375 -1120.882080078125 5957.0654296875
v 2132.568115234375 -1260.882080078125 6217.0654296875
v 2132.56787109375 -1260.882080078125 6357.0654296875
v 2132.56787109375 -1120.882080078125 6357.0654296875
v 2132.56787109375 -1260.882080078125 6617.0654296875
v 2132.56787109375 -1260.8819580078125 6757.0654296875
v 2132.56787109375 -1120.8819580078125 6757.0654296875
v 2132.56787109375 -1260.8819580078125 7017.0654296875
v 2132.56787109375 -1260.8819580078125 7157.0654296875
v 2132.56787109375 -1120.8819580078125 7157.0654296875
v 2132.56787109375 -1260.8818359375 7417.0654296875
v 2132.56787109375 -1260.8818359375 7557.0654296875
v 2132.56787109375 -1120.8818359375 7557.0654296875
v 2132.56787109375 -1260.8818359375 7817.0654296875
v 2132.56787109375 -1260.8818359375 7957.0654296875
v 2132.56787109375 -1120.8818359375 7957.0654296875
v 2132.56787109375 -1260.8818359375 8217.0654296875
v 2132.56787109375 -1260.8818359375 8357.0654296875
v 2132.56787109375 -1120.8818359375 8357.0654296875
v 2132.56787109375 -1260.8818359375 8617.0654296875
v 2132.56787109375 -1260.8818359375 8757.0654296875
v 2132.56787109375 -1120.8818359375 8757.0654296875
v 2132.56787109375 -1260.8818359375 9017.0654296875
v 2132.56787109375 -1260.8818359375 9157.0654296875
v 2132.56787109375 -1120.8818359375 9157.0654296875
v 2132.56787109375 -1260.8818359375 9417.0654296875
v 2132.56787109375 -1260.8817138671875 9557.0654296875
v 2132.56787109375 -1120.8817138671875 9557.0654296875
v 2132.56787109375 -1260.8817138671875 9817.0654296875
v 2132.56787109375 -1260.8817138671875 9957.0654296875
v 2132.56787109375 -1120.8817138671875 9957.0654296875
v 2132.56787109375 -1260.881591796875 10223.001953125
v 2132.56787109375 -1260.881591796875 10363.001953125
v 2132.56787109375 -1120.881591796875 10363.001953125
v 2132.56787109375 -1260.881591796875 10623.001953125
v 2132.56787109375 -1260.881591796875 10763.001953125
v 2132.56787109375 -1120.881591796875 10763.001953125
v 2132.56787109375 -1260.881591796875 11023.001953125
v 2132.56787109375 -1260.881591796875 11163.001953125
v 2132.56787109375 -1120.881591796875 11163.001953125
v 2132.56787109375 -1650.8839111328125 11400.0
v 2132.56787109375 -550.8839111328125 11400.0
v 2132.56787109375 -1120.881591796875 11023.001953125
v 2132.56787109375 -1120.881591796875 10623.001953125
v 2132.56787109375 -1120.881591796875 10223.001953125
v 2132.56787109375 -1120.8817138671875 9817.0654296875
v 2132.56787109375 -1120.8818359375 9417.0654296875
v 2132.56787109375 -1120.8818359375 9017.0654296875
v 2132.56787109375 -1120.8818359375 8617.0654296875
v 2132.56787109375 -1120.8818359375 8217.0654296875
v 2132.56787109375 -1120.8818359375 7817.0654296875
v 2132.56787109375 -1120.8818359375 7417.0654296875
v 2132.56787109375 -1120.8819580078125 7017.0654296875
v 2132.56787109375 -1120.882080078125 6617.0654296875
v 2132.56787109375 -1120.882080078125 6217.0654296875
v 2132.568115234375 -1120.882080078125 5817.0654296875
v 2132.568115234375 -1120.884521484375 5425.0
v 2132.568115234375 -1120.884521484375 5025.0
v 2132.568115234375 -1120.884521484375 4625.0
v 2132.568115234375 -1120.884521484375 4225.0
v 2132.568115234375 -1120.8846435546875 3825.0
v 2132.568115234375 -1120.8846435546875 3425.0
v 2132.568359375 -1120.884765625 3025.0
v 2132.568359375 -1120.884765625 2625.0
v 2132.568359375 -1120.884765625 2225.0
v 2132.568359375 -1120.884765625 1825.0
v 2132.568359375 -1120.884765625 1425.0
v 2132.568359375 -550.884765625 799.9999389648438
v 432.5682678222656 -550.8848876953125 799.9998779296875
v 2132.56787109375 -550.8839111328125 11400.0
v 432.56781005859375 -550.884033203125 11400.0
v 432.56781005859375 -550.884033203125 11400.0
v 432.56781005859375 -450.884033203125 11400.0
v -67.43212890625 -1650.884033203125 11400.0
v 2132.56787109375 -1650.8839111328125 11400.0
v 2132.56787109375 -550.8839111328125 11400.0
v -67.43218994140625 -450.884033203125 11400.0
v -267.43218994140625 -650.884033203125 11400.0
v -267.43218994140625 -1450.884033203125 11400.0
v -292.43218994140625 -650.884033203125 11400.0
v -292.43218994140625 -700.884033203125 11400.0
v -267.43170166015625 -700.8848876953125 799.9998168945312
v -292.43218994140625 -700.884033203125 11400.0
v -267.43218994140625 -700.884033203125 11400.0
v -267.4317626953125 -650.8848876953125 799.9998168945312
v -267.43218994140625 -650.884033203125 11400.0
v -292.43218994140625 -650.884033203125 11400.0
v -292.43218994140625 -650.884033203125 11400.0
v -292.43218994140625 -700.884033203125 11400.0
v -267.43218994140625 -700.884033203125 11400.0
v -267.43170166015625 -1400.885009765625 799.9998779296875
v -267.43218994140625 -1400.884033203125 11400.0
v -292.43218994140625 -1400.884033203125 11400.0
v -292.43218994140625 -1400.884033203125 11400.0
v -292.43218994140625 -1450.884033203125 11400.0
v -267.43170166015625 -1450.885009765625 799.9998779296875
v -292.43218994140625 -1450.884033203125 11400.0
v -267.43218994140625 -1450.884033203125 11400.0
v -292.43218994140625 -1450.884033203125 11400.0
v -267.43218994140625 -1400.884033203125 11400.0
v -292.43218994140625 -1400.884033203125 11400.0
v -267.43170166015625 -900.8848876953125 799.9998168945312
v -267.43218994140625 -900.884033203125 11400.0
v -292.43218994140625 -900.884033203125 11400.0
v -292.43218994140625 -900.884033203125 11400.0
v -292.43218994140625 -950.8840942382812 11400.0
v -267.43170166015625 -950.885009765625 799.9998779296875
v -292.43218994140625 -950.8840942382812 11400.0
v -267.43218994140625 -950.8840942382812 11400.0
v -292.43218994140625 -900.884033203125 11400.0
v -292.43218994140625 -950.8840942382812 11400.0
v -267.43218994140625 -900.884033203125 11400.0
v -267.43218994140625 -950.8840942382812 11400.0
v -267.43170166015625 -1150.885009765625 799.9998779296875
v -267.43218994140625 -1150.884033203125 11400.0
v -292.43218994140625 -1150.884033203125 11400.0
v -292.43218994140625 -1150.884033203125 11400.0
v -292.43218994140625 -1200.884033203125 11400.0
v -267.43170166015625 -1200.885009765625 799.9998779296875
v -292.43218994140625 -1200.884033203125 11400.0
v -267.43218994140625 -1200.884033203125 11400.0
v -292.43218994140625 -1150.884033203125 11400.0
v -292.43218994140625 -1200.884033203125 11400.0
v -267.43218994140625 -1150.884033203125 11400.0
v -267.43218994140625 -1200.884033203125 11400.0
v 962.5731811523438 -1660.882568359375 800.0
v 2142.56591796875 -1660.882568359375 800.0000610351562
v 962.5731811523438 -1660.882568359375 810.0000610351562
v 2142.56591796875 -1660.882568359375 810.0001220703125
v 2142.56591796875 -1660.882568359375 800.0000610351562
v 2142.56591796875 -575.7138671875 799.9999389648438
v 2142.56591796875 -1660.882568359375 810.0001220703125
v 2142.56591796875 -575.7138671875 810.0
v 2142.56591796875 -575.7138671875 799.9999389648438
v 2132.568359375 -575.7138671875 799.9999389648438
v 2142.56591796875 -575.7138671875 810.0
v 2132.568359375 -575.7138671875 810.0
v 962.5731811523438 -1650.8848876953125 800.0
v 962.5731811523438 -1660.882568359375 800.0
v 962.5731811523438 -1650.8848876953125 810.0000610351562
v 962.5731811523438 -1660.882568359375 810.0000610351562
v 2142.56591796875 -1660.882568359375 800.0000610351562
v 2132.568359375 -1650.8848876953125 800.0000610351562
v 2142.56591796875 -575.7138671875 799.9999389648438
v 962.5731811523438 -1660.882568359375 800.0
v 2132.568359375 -575.7138671875 799.9999389648438
v 962.5731811523438 -1650.8848876953125 800.0
v 2142.56591796875 -1660.882568359375 810.0001220703125
v 2142.56591796875 -575.7138671875 810.0
v 2132.568359375 -1650.8848876953125 810.0001220703125
v 962.5731811523438 -1660.882568359375 810.0000610351562
v 2132.568359375 -575.7138671875 810.0
v 962.5731811523438 -1650.8848876953125 810.0000610351562
f 256 254 255
f 254 253 255
f 250 249 251
f 252 250 251
f 134 133 135
f 136 134 135
f 130 129 131
f 132 130 131
f 126 125 127
f 128 126 127
f 122 121 123
f 124 122 123
f 74 73 75
f 76 74 75
f 70 69 71
f 72 70 71
f 66 65 67
f 68 66 67
f 62 61 63
f 64 62 63
f 14 13 15
f 16 14 15
f 10 9 11
f 12 10 11
f 6 5 7
f 8 6 7
f 2 1 3
f 4 2 3
f 1113 1112 1114
f 1115 1113 1114
f 1101 1042 651
f 1110 1015 651
f 1103 1036 651
f 1108 1021 651
f 1021 1020 1022
f 1022 1107 1021
f 1021 1107 651
f 1107 1024 651
f 1019 650 1020
f 1015 1014 1016
f 1016 1109 1015
f 1015 1109 651
f 1109 1018 651
f 1018 1108 651
f 1019 1108 1018
f 1018 1017 1019
f 1017 650 1019
f 1016 650 1017
f 1010 650 1011
f 651 650 1010
f 1010 1111 651
f 1111 1012 651
f 1012 1110 651
f 1013 1110 1012
f 1012 1011 1013
f 1011 650 1013
f 1013 650 1014
f 1014 650 1016
f 1025 650 1026
f 1026 650 1028
f 1028 650 1029
f 1034 650 1035
f 1027 1026 1028
f 1028 1105 1027
f 1027 1105 651
f 1106 1027 651
f 1024 1106 651
f 1025 1106 1024
f 1024 1023 1025
f 1023 650 1025
f 1022 650 1023
f 1020 650 1022
f 1039 1101 651
f 1102 1039 651
f 1036 1102 651
f 1037 1102 1036
f 1036 1035 1037
f 1035 650 1037
f 1037 650 1038
f 1038 650 1040
f 1040 650 1041
f 1039 1038 1040
f 1040 1101 1039
f 1043 650 1044
f 1041 650 1043
f 1042 1041 1043
f 1043 1100 1042
f 1042 1100 651
f 1100 1045 651
f 1050 1049 1085
f 1049 1047 1085
f 1047 650 1085
f 1046 650 1047
f 1044 650 1046
f 1045 1044 1046
f 1046 1099 1045
f 1045 1099 651
f 1099 1086 651
f 1048 1086 1099
f 1098 1086 1048
f 1049 1098 1048
f 1048 1047 1049
f 1051 1086 1098
f 1051 1050 1052
f 1052 1097 1051
f 1097 1086 1051
f 1054 1086 1097
f 1052 1050 1085
f 1053 1052 1085
f 1055 1053 1085
f 1054 1053 1055
f 1055 1096 1054
f 1096 1086 1054
f 1057 1086 1096
f 1056 1055 1085
f 1059 1058 1085
f 1058 1056 1085
f 1057 1056 1058
f 1058 1095 1057
f 1095 1086 1057
f 1060 1086 1095
f 1078 1086 1089
f 1076 1089 1075
f 1089 1086 1075
f 1075 1086 1090
f 1069 1086 1092
f 1067 1092 1066
f 1092 1086 1066
f 1066 1086 1093
f 1066 1065 1067
f 1067 1065 1085
f 1068 1067 1085
f 1070 1068 1085
f 1069 1068 1070
f 1070 1091 1069
f 1091 1086 1069
f 1072 1086 1091
f 1090 1086 1072
f 1073 1090 1072
f 1072 1071 1073
f 1073 1071 1085
f 1071 1070 1085
f 1074 1073 1085
f 1084 1086 1087
f 1085 1086 1084
f 1084 1083 1085
f 1083 1082 1085
f 1065 1064 1085
f 1075 1074 1076
f 1076 1074 1085
f 1077 1076 1085
f 1079 1077 1085
f 1078 1077 1079
f 1079 1088 1078
f 1088 1086 1078
f 1081 1086 1088
f 1087 1086 1081
f 1082 1087 1081
f 1081 1080 1082
f 1082 1080 1085
f 1080 1079 1085
f 1060 1059 1061
f 1061 1094 1060
f 1094 1086 1060
f 1063 1086 1094
f 1093 1086 1063
f 1064 1093 1063
f 1063 1062 1064
f 1064 1062 1085
f 1062 1061 1085
f 1061 1059 1085
f 643 1007 1008
f 1009 643 1008
f 641 640 642
f 642 643 641
f 641 643 644
f 644 643 638
f 639 644 638
f 638 637 639
f 639 637 640
f 640 637 642
f 929 915 930
f 927 915 929
f 926 915 927
f 920 915 921
f 928 927 929
f 929 1002 928
f 928 1002 916
f 1003 928 916
f 925 1003 916
f 926 1003 925
f 925 924 926
f 924 915 926
f 923 915 924
f 921 915 923
f 922 921 923
f 923 1004 922
f 1004 925 916
f 922 1004 916
f 1005 922 916
f 919 1005 916
f 920 1005 919
f 919 918 920
f 918 915 920
f 917 915 918
f 916 915 917
f 917 1006 916
f 1006 919 916
f 999 940 916
f 940 939 941
f 941 998 940
f 940 998 916
f 998 943 916
f 1002 931 916
f 931 1001 916
f 1001 934 916
f 932 1001 931
f 931 930 932
f 930 915 932
f 932 915 933
f 933 915 935
f 934 933 935
f 935 1000 934
f 934 1000 916
f 1000 937 916
f 937 999 916
f 938 999 937
f 937 936 938
f 936 915 938
f 935 915 936
f 947 915 948
f 948 915 950
f 950 915 983
f 951 950 983
f 949 948 950
f 950 995 949
f 995 984 949
f 949 984 916
f 996 949 916
f 952 984 995
f 981 980 983
f 982 981 983
f 983 984 982
f 982 984 985
f 976 984 987
f 986 984 976
f 979 984 986
f 985 984 979
f 980 985 979
f 979 978 980
f 980 978 983
f 978 977 983
f 977 975 983
f 976 975 977
f 977 986 976
f 975 974 983
f 972 971 983
f 974 972 983
f 973 972 974
f 974 987 973
f 987 984 973
f 973 984 988
f 967 966 968
f 968 989 967
f 989 984 967
f 970 984 989
f 988 984 970
f 971 988 970
f 970 969 971
f 971 969 983
f 969 968 983
f 968 966 983
f 964 984 991
f 966 965 983
f 965 963 983
f 964 963 965
f 965 990 964
f 990 984 964
f 967 984 990
f 958 984 993
f 963 962 983
f 962 960 983
f 960 959 983
f 959 957 983
f 958 957 959
f 959 992 958
f 992 984 958
f 961 984 992
f 991 984 961
f 962 991 961
f 961 960 962
f 957 956 983
f 956 954 983
f 954 953 983
f 953 951 983
f 952 951 953
f 953 994 952
f 994 984 952
f 955 984 994
f 993 984 955
f 956 993 955
f 955 954 956
f 904 841 820
f 907 832 820
f 851 900 850
f 850 900 820
f 900 853 820
f 853 888 820
f 859 888 898
f 898 888 856
f 856 888 899
f 899 888 853
f 854 899 853
f 853 852 854
f 852 819 854
f 851 819 852
f 849 819 851
f 850 849 851
f 848 819 849
f 848 901 847
f 847 846 848
f 846 819 848
f 845 819 846
f 836 819 837
f 838 837 839
f 837 819 839
f 839 819 840
f 827 819 828
f 829 828 830
f 828 819 830
f 830 819 831
f 839 904 838
f 838 904 820
f 905 838 820
f 835 905 820
f 836 905 835
f 835 834 836
f 834 819 836
f 833 819 834
f 831 819 833
f 832 831 833
f 833 906 832
f 832 906 820
f 906 835 820
f 910 823 820
f 821 910 820
f 820 819 821
f 821 819 822
f 830 907 829
f 829 907 820
f 908 829 820
f 826 908 820
f 827 908 826
f 826 825 827
f 825 819 827
f 824 819 825
f 822 819 824
f 823 822 824
f 824 909 823
f 823 909 820
f 909 826 820
f 901 850 820
f 847 901 820
f 902 847 820
f 844 902 820
f 845 902 844
f 844 843 845
f 843 819 845
f 842 819 843
f 840 819 842
f 841 840 842
f 842 903 841
f 841 903 820
f 903 844 820
f 857 898 856
f 856 855 857
f 857 855 887
f 855 854 887
f 854 819 887
f 858 857 887
f 885 884 887
f 864 863 887
f 865 864 866
f 866 864 887
f 867 866 887
f 876 875 887
f 886 885 887
f 887 888 886
f 886 888 889
f 870 869 887
f 869 867 887
f 868 867 869
f 869 894 868
f 894 888 868
f 871 888 894
f 868 888 895
f 880 888 891
f 891 888 877
f 877 888 892
f 878 891 877
f 871 870 872
f 872 893 871
f 893 888 871
f 874 888 893
f 892 888 874
f 875 892 874
f 874 873 875
f 875 873 887
f 873 872 887
f 872 870 887
f 877 876 878
f 878 876 887
f 879 878 887
f 881 879 887
f 880 879 881
f 881 890 880
f 890 888 880
f 883 888 890
f 889 888 883
f 884 889 883
f 883 882 884
f 884 882 887
f 882 881 887
f 866 895 865
f 895 888 865
f 865 888 896
f 896 888 862
f 863 896 862
f 862 861 863
f 863 861 887
f 861 860 887
f 860 858 887
f 859 858 860
f 860 897 859
f 897 888 859
f 862 888 897
f 912 911 913
f 914 912 913
f 816 815 817
f 818 816 817
f 812 811 813
f 814 812 813
f 674 676 673
f 674 673 675
f 662 661 663
f 664 662 663
f 658 657 659
f 658 659 660
f 654 653 655
f 656 654 655
f 634 633 635
f 636 634 635
f 630 629 631
f 632 630 631
f 626 625 627
f 628 626 627
f 618 617 619
f 619 624 618
f 624 623 618
f 621 623 624
f 622 623 621
f 621 620 622
f 620 617 622
f 619 617 620
f 686 685 687
f 687 685 688
f 684 681 682
f 682 681 683
f 678 677 679
f 677 680 679
f 670 669 671
f 671 669 672
f 668 665 666
f 666 665 667
f 1105 1030 651
f 1030 1104 651
f 1104 1033 651
f 1033 1103 651
f 1034 1103 1033
f 1033 1032 1034
f 1032 650 1034
f 1031 650 1032
f 1029 650 1031
f 1030 1029 1031
f 1031 1104 1030
f 646 645 647
f 647 652 646
f 652 651 646
f 649 651 652
f 650 651 649
f 649 648 650
f 648 645 650
f 647 645 648
f 614 613 615
f 616 614 615
f 566 565 567
f 568 566 567
f 562 561 563
f 564 562 563
f 558 557 559
f 560 558 559
f 554 553 555
f 556 554 555
f 506 505 507
f 508 506 507
f 502 501 503
f 504 502 503
f 498 497 499
f 500 498 499
f 494 493 495
f 496 494 495
f 382 381 383
f 384 382 383
f 378 377 379
f 380 378 379
f 374 373 375
f 376 374 375
f 370 369 371
f 372 370 371
f 322 321 323
f 324 322 323
f 318 317 319
f 320 318 319
f 314 313 315
f 316 314 315
f 310 309 311
f 312 310 311
f 262 261 263
f 264 262 263
f 258 257 259
f 260 258 259
f 938 915 939
f 939 915 941
f 941 915 942
f 942 915 944
f 943 942 944
f 944 997 943
f 943 997 916
f 997 946 916
f 946 996 916
f 947 996 946
f 946 945 947
f 945 915 947
f 944 915 945
f 789 797 798
f 789 798 799
f 795 792 796
f 795 794 792
f 793 792 794
f 791 792 793
f 791 793 790
f 790 789 791
f 788 789 790
f 788 790 785
f 786 788 785
f 786 785 787
f 801 802 800
f 801 800 791
f 46 45 47
f 47 45 48
f 42 41 43
f 43 41 44
f 38 37 39
f 39 37 40
f 34 33 35
f 35 33 36
f 30 29 31
f 31 29 32
f 26 25 27
f 27 25 28
f 22 21 23
f 23 21 24
f 1123 1151 1152
f 1151 1153 1152
f 1123 1122 1121
f 1118 1123 1121
f 1118 1121 1117
f 1117 1116 1118
f 1116 1119 1118
f 1120 1119 1116
f 1137 1136 1122
f 1138 1137 1122
f 1183 1182 1184
f 1185 1183 1184
f 1179 1178 1180
f 1181 1179 1180
f 1175 1174 1176
f 1177 1175 1176
f 1171 1170 1172
f 1173 1171 1172
f 1167 1166 1168
f 1169 1167 1168
f 1163 1162 1164
f 1165 1163 1164
f 1159 1158 1160
f 1161 1159 1160
f 1155 1154 1156
f 1157 1155 1156
f 1148 1147 1149
f 1150 1148 1149
f 1144 1143 1145
f 1146 1144 1145
f 1140 1139 1141
f 1142 1140 1141
f 1133 1132 1134
f 1135 1133 1134
f 1129 1128 1130
f 1131 1129 1130
f 1125 1124 1126
f 1127 1125 1126
f 808 807 809
f 808 809 810
f 804 803 805
f 804 805 806
f 766 768 765
f 766 765 767
f 742 744 741
f 742 741 743
f 718 720 717
f 718 717 719
f 694 693 695
f 694 695 696
f 690 689 691
f 692 690 691
f 430 429 431
f 434 430 431
f 433 430 434
f 436 433 434
f 435 433 436
f 432 435 436
f 429 435 432
f 431 429 432
f 784 781 782
f 782 781 783
f 780 777 778
f 778 777 779
f 776 773 774
f 774 773 775
f 772 769 770
f 770 769 771
f 762 761 763
f 761 764 763
f 760 757 758
f 758 757 759
f 756 753 754
f 754 753 755
f 752 749 750
f 750 749 751
f 748 745 746
f 746 745 747
f 738 737 739
f 737 740 739
f 736 733 734
f 734 733 735
f 732 729 730
f 730 729 731
f 728 725 726
f 726 725 727
f 724 721 722
f 722 721 723
f 714 713 715
f 713 716 715
f 712 709 710
f 710 709 711
f 708 705 706
f 706 705 707
f 704 701 702
f 702 701 703
f 700 697 698
f 698 697 699
f 602 601 603
f 603 601 604
f 598 597 599
f 599 597 600
f 594 593 595
f 595 593 596
f 590 589 591
f 591 589 592
f 586 585 587
f 587 585 588
f 582 581 583
f 583 581 584
f 578 577 579
f 579 577 580
f 574 573 575
f 575 573 576
f 542 541 543
f 543 541 544
f 538 537 539
f 539 537 540
f 534 533 535
f 535 533 536
f 530 529 531
f 531 529 532
f 526 525 527
f 527 525 528
f 522 521 523
f 523 521 524
f 518 517 519
f 519 517 520
f 514 513 515
f 515 513 516
f 426 425 427
f 427 425 428
f 422 421 423
f 423 421 424
f 418 417 419
f 419 417 420
f 414 413 415
f 415 413 416
f 410 409 411
f 411 409 412
f 406 405 407
f 407 405 408
f 402 401 403
f 403 401 404
f 398 397 399
f 399 397 400
f 358 357 359
f 359 357 360
f 354 353 355
f 355 353 356
f 350 349 351
f 351 349 352
f 346 345 347
f 347 345 348
f 342 341 343
f 343 341 344
f 338 337 339
f 339 337 340
f 334 333 335
f 335 333 336
f 330 329 331
f 331 329 332
f 298 297 299
f 299 297 300
f 294 293 295
f 295 293 296
f 290 289 291
f 291 289 292
f 286 285 287
f 287 285 288
f 282 281 283
f 283 281 284
f 278 277 279
f 279 277 280
f 274 273 275
f 275 273 276
f 270 269 271
f 271 269 272
f 170 169 171
f 171 169 172
f 166 165 167
f 167 165 168
f 162 161 163
f 163 161 164
f 158 157 159
f 159 157 160
f 154 153 155
f 155 153 156
f 150 149 151
f 151 149 152
f 146 145 147
f 147 145 148
f 142 141 143
f 143 141 144
f 110 109 111
f 111 109 112
f 106 105 107
f 107 105 108
f 102 101 103
f 103 101 104
f 98 97 99
f 99 97 100
f 94 93 95
f 95 93 96
f 90 89 91
f 91 89 92
f 86 85 87
f 87 85 88
f 82 81 83
f 83 81 84
f 50 49 51
f 51 49 52
f 608 611 612
f 611 609 612
f 612 609 610
f 609 606 610
f 610 606 607
f 606 605 607
f 607 605 608
f 605 611 608
f 302 301 303
f 306 302 303
f 305 302 306
f 308 305 306
f 307 305 308
f 304 307 308
f 301 307 304
f 303 301 304
f 362 361 363
f 366 362 363
f 365 362 366
f 368 365 366
f 367 365 368
f 364 367 368
f 361 367 364
f 363 361 364
f 119 117 120
f 116 119 120
f 113 119 116
f 115 113 116
f 114 113 115
f 118 114 115
f 117 114 118
f 120 117 118
f 174 173 175
f 178 174 175
f 177 174 178
f 180 177 178
f 179 177 180
f 176 179 180
f 173 179 176
f 175 173 176
f 549 546 550
f 552 549 550
f 551 549 552
f 548 551 552
f 545 551 548
f 547 545 548
f 546 545 547
f 550 546 547
f 54 53 55
f 58 54 55
f 57 54 58
f 60 57 58
f 59 57 60
f 56 59 60
f 53 59 56
f 55 53 56
f 184 181 182
f 182 181 183
f 188 185 186
f 186 185 187
f 192 189 190
f 190 189 191
f 196 193 194
f 194 193 195
f 200 197 198
f 198 197 199
f 204 201 202
f 202 201 203
f 208 205 206
f 206 205 207
f 212 209 210
f 210 209 211
f 216 213 214
f 214 213 215
f 220 217 218
f 218 217 219
f 224 221 222
f 222 221 223
f 228 225 226
f 226 225 227
f 232 229 230
f 230 229 231
f 236 233 234
f 234 233 235
f 240 237 238
f 238 237 239
f 244 241 242
f 242 241 243
f 246 245 247
f 245 248 247
f 1187 1186 1188
f 1189 1187 1188
f 1199 1198 1200
f 1201 1199 1200
f 1195 1194 1196
f 1197 1195 1196
f 1191 1190 1192
f 1193 1191 1192
f 1203 1207 1205
f 1205 1202 1203
f 1214 1202 1204
f 1204 1206 1214
f 1210 1212 1209
f 1209 1208 1210
f 1215 1208 1211
f 1211 1213 1215
f 18 17 19
f 17 18 20
f 570 569 571
f 572 570 571
f 326 325 327
f 328 326 327
f 387 385 388
f 386 385 387
f 387 396 386
f 396 389 386
f 389 394 386
f 395 394 389
f 392 394 395
f 393 394 392
f 392 391 393
f 391 390 393
f 390 385 393
f 388 385 390
f 389 388 390
f 390 395 389
f 77 78 80
f 78 77 79
f 137 138 140
f 138 137 139
f 266 265 267
f 265 268 267
f 509 510 512
f 510 509 511
f 438 437 439
f 440 438 439
f 490 489 491
f 492 490 491
f 486 485 487
f 488 486 487
f 482 481 483
f 484 482 483
f 478 477 479
f 480 478 479
f 470 469 471
f 472 470 471
f 466 465 467
f 468 466 467
f 462 461 463
f 464 462 463
f 458 457 459
f 460 458 459
f 454 453 455
f 454 455 456
f 450 449 451
f 452 450 451
f 446 445 447
f 448 446 447
f 442 441 443
f 444 442 443
f 474 473 475
f 473 476 475
