# from FinancialDistrict_Block02_Generic_0007_LOD_0.pskx
v 1278.082275390625 -779.4981689453125 -5.174666875973344e-05
v 757.476806640625 -1291.2291259765625 -2.9766111765638925e-05
v 1278.082275390625 -779.4981689453125 9.999948501586914
v 757.476806640625 -1291.2291259765625 9.999970436096191
v 757.476806640625 -1291.229248046875 -2.9766108127660118e-05
v 1879.1075439453125 -2432.2568359375 0.00011901374091394246
v 757.476806640625 -1291.229248046875 9.999970436096191
v 1879.1075439453125 -2432.2568359375 10.00011920928955
v 1879.107666015625 -2432.2568359375 0.00011901374818990007
v 2399.700927734375 -1920.5137939453125 9.703159594209865e-05
v 1879.107666015625 -2432.2568359375 10.00011920928955
v 2399.700927734375 -1920.5137939453125 10.000097274780273
v 2399.700927734375 -1920.5137939453125 9.703159594209865e-05
v 1278.08251953125 -779.498291015625 -5.17466505698394e-05
v 2399.700927734375 -1920.5137939453125 10.000097274780273
v 1278.08251953125 -779.498291015625 9.999948501586914
v 757.476806640625 -1291.229248046875 9.999970436096191
v 828.179931640625 -1291.8394775390625 9.99997329711914
v 1277.471923828125 -850.2012939453125 9.999955177307129
v 1278.082275390625 -779.4981689453125 9.999948501586914
v 1879.107666015625 -2432.2568359375 10.00011920928955
v 2399.700927734375 -1920.5137939453125 10.000097274780273
v 2328.997802734375 -1919.9033203125 10.000094413757324
v 1879.718017578125 -2361.5537109375 10.000112533569336
v 1277.471923828125 -850.2012939453125 9.999955177307129
v 828.179931640625 -1291.839599609375 9.999873161315918
v 1277.471923828125 -850.2012939453125 19.999954223632812
v 828.179931640625 -1291.839599609375 19.999876022338867
v 828.179931640625 -1291.8394775390625 9.999873161315918
v 1879.7178955078125 -2361.5537109375 10.000012397766113
v 828.179931640625 -1291.8394775390625 19.999876022338867
v 1879.7178955078125 -2361.5537109375 20.000015258789062
v 1879.718017578125 -2361.5537109375 10.000012397766113
v 2328.997802734375 -1919.9033203125 9.999994277954102
v 1879.718017578125 -2361.5537109375 20.000015258789062
v 2328.997802734375 -1919.9033203125 19.9999942779541
v 2328.997802734375 -1919.9033203125 9.999994277954102
v 1277.471923828125 -850.2013549804688 9.999955177307129
v 2328.997802734375 -1919.9033203125 19.9999942779541
v 1277.471923828125 -850.2013549804688 19.999954223632812
v 828.179931640625 -1291.8394775390625 19.999876022338867
v 898.895263671875 -1292.449951171875 19.999977111816406
v 1276.861572265625 -920.9044799804688 19.999961853027344
v 1277.471923828125 -850.2012939453125 19.999954223632812
v 1879.718017578125 -2361.5537109375 20.000015258789062
v 1775.164794921875 -2183.8681640625 20.000091552734375
v 1068.231201171875 -1336.3218994140625 19.999988555908203
v 1004.046630859375 -1399.420166015625 19.999990463256836
v 2328.997802734375 -1919.9033203125 19.9999942779541
v 2258.294677734375 -1919.3052978515625 20.000089645385742
v 1880.328369140625 -2290.83837890625 20.000106811523438
v 1382.025146484375 -1027.886962890625 19.99997329711914
v 2092.510986328125 -1871.917724609375 20.000080108642578
v 2153.143310546875 -1812.3349609375 20.000076293945312
v 1839.349365234375 -2120.77001953125 20.000091552734375
v 1321.392822265625 -1087.4571533203125 19.999977111816406
v 1880.328369140625 -2290.83837890625 20.000106811523438
v 2258.294677734375 -1919.305419921875 20.000089645385742
v 1880.328369140625 -2290.83837890625 95.00009155273438
v 2258.294677734375 -1919.305419921875 95.00007629394531
v 2258.294677734375 -1919.305419921875 20.000089645385742
v 2153.143310546875 -1812.3350830078125 20.000076293945312
v 2258.294677734375 -1919.305419921875 95.00009155273438
v 2153.143310546875 -1812.3350830078125 95.00007629394531
v 2153.143310546875 -1812.3350830078125 20.000076293945312
v 2092.510986328125 -1871.917724609375 20.000080108642578
v 2153.143310546875 -1812.3350830078125 95.00007629394531
v 2092.510986328125 -1871.917724609375 95.00008392333984
v 2092.510986328125 -1871.917724609375 20.000080108642578
v 1321.392822265625 -1087.4571533203125 19.999977111816406
v 2092.510986328125 -1871.917724609375 95.00008392333984
v 1321.392822265625 -1087.4571533203125 94.9999771118164
v 1321.392822265625 -1087.4571533203125 19.999977111816406
v 1382.025146484375 -1027.886962890625 20.000072479248047
v 1321.392822265625 -1087.4571533203125 94.9999771118164
v 1382.025146484375 -1027.886962890625 95.00007629394531
v 1382.025146484375 -1027.886962890625 20.000072479248047
v 1276.861572265625 -920.904541015625 19.999961853027344
v 1382.025146484375 -1027.886962890625 95.00007629394531
v 1276.861572265625 -920.904541015625 94.99996185302734
v 1276.861572265625 -920.904541015625 19.999961853027344
v 898.8953857421875 -1292.449951171875 20.000076293945312
v 1276.861572265625 -920.904541015625 94.99996185302734
v 898.8953857421875 -1292.449951171875 95.00007629394531
v 898.895263671875 -1292.449951171875 20.000076293945312
v 1004.046630859375 -1399.420166015625 19.999990463256836
v 898.895263671875 -1292.449951171875 95.00007629394531
v 1004.046630859375 -1399.420166015625 94.99998474121094
v 1004.046630859375 -1399.420166015625 19.999990463256836
v 1068.231201171875 -1336.3218994140625 19.999988555908203
v 1004.046630859375 -1399.420166015625 94.99998474121094
v 1068.231201171875 -1336.3218994140625 94.99999237060547
v 1068.231201171875 -1336.3218994140625 19.999988555908203
v 1839.349365234375 -2120.77001953125 20.000091552734375
v 1068.231201171875 -1336.3218994140625 94.99999237060547
v 1839.349365234375 -2120.77001953125 95.00009155273438
v 1839.349365234375 -2120.770263671875 20.000091552734375
v 1775.164794921875 -2183.868408203125 20.00019073486328
v 1839.349365234375 -2120.770263671875 95.00009155273438
v 1775.164794921875 -2183.868408203125 95.00019073486328
v 1775.164794921875 -2183.868408203125 20.00019073486328
v 1880.328369140625 -2290.83837890625 20.000106811523438
v 1775.164794921875 -2183.868408203125 95.00019073486328
v 1880.328369140625 -2290.83837890625 95.00010681152344
v 2258.294677734375 -1919.305419921875 95.00009155273438
v 2153.143310546875 -1812.3350830078125 95.00007629394531
v 2092.510986328125 -1871.917724609375 95.00008392333984
v 1916.595458984375 -2185.089111328125 95.0000991821289
v 1880.938720703125 -2220.135498046875 95.0000991821289
v 1880.328369140625 -2290.83837890625 95.00010681152344
v 1839.349365234375 -2120.770263671875 95.00009155273438
v 1845.880126953125 -2184.478515625 95.00009155273438
v 1881.549072265625 -2149.432373046875 95.00009155273438
v 1321.392822265625 -1087.4571533203125 94.9999771118164
v 1311.309814453125 -1027.276611328125 94.99996948242188
v 1382.025146484375 -1027.886962890625 95.00007629394531
v 1276.861572265625 -920.904541015625 94.99996185302734
v 898.895263671875 -1292.449951171875 95.00007629394531
v 1004.046630859375 -1399.420166015625 94.99998474121094
v 1068.231201171875 -1336.3218994140625 94.99999237060547
v 1240.594482421875 -1026.6663818359375 94.99996948242188
v 1276.251220703125 -991.607666015625 94.99996948242188
v 1275.640869140625 -1062.322998046875 94.99996948242188
v 1775.164794921875 -2183.868408203125 95.00019073486328
v 1880.328369140625 -2290.83837890625 95.00010681152344
v 2258.294677734375 -1919.305419921875 95.00009155273438
v 2258.294677734375 -1919.305419921875 105.00008392333984
v 1880.328369140625 -2290.83837890625 105.0000991821289
v 1880.4493408203125 -2276.697265625 95.0000991821289
v 1880.4493408203125 -2276.697265625 105.00009155273438
v 2244.153076171875 -1919.18408203125 105.00007629394531
v 2244.153076171875 -1919.18408203125 95.00008392333984
v 2153.143310546875 -1812.3350830078125 105.00006866455078
v 2258.294677734375 -1919.305419921875 105.00008392333984
v 2244.153076171875 -1919.18408203125 95.00008392333984
v 2244.153076171875 -1919.18408203125 105.00007629394531
v 2153.02099609375 -1826.4755859375 105.00006866455078
v 2153.02099609375 -1826.4755859375 95.00007629394531
v 2092.510986328125 -1871.917724609375 105.00007629394531
v 2153.143310546875 -1812.3350830078125 105.00006866455078
v 2153.02099609375 -1826.4755859375 95.00007629394531
v 2153.02099609375 -1826.4755859375 105.00006866455078
v 2092.388671875 -1886.058349609375 105.00007629394531
v 2092.388671875 -1886.058349609375 95.00008392333984
v 1321.392822265625 -1087.4571533203125 104.99996948242188
v 2092.510986328125 -1871.917724609375 105.00007629394531
v 2092.388671875 -1886.058349609375 95.00008392333984
v 2092.388671875 -1886.058349609375 105.00007629394531
v 1307.249267578125 -1087.333984375 104.99996948242188
v 1307.249267578125 -1087.333984375 94.9999771118164
v 1382.025146484375 -1027.886962890625 105.00007629394531
v 1321.392822265625 -1087.4571533203125 104.99996948242188
v 1307.249267578125 -1087.333984375 94.9999771118164
v 1307.249267578125 -1087.333984375 104.99996948242188
v 1367.881591796875 -1027.7637939453125 105.00006866455078
v 1367.881591796875 -1027.7637939453125 95.00006866455078
v 1276.861572265625 -920.904541015625 104.99995422363281
v 1382.025146484375 -1027.886962890625 105.00007629394531
v 1367.881591796875 -1027.7637939453125 95.00006866455078
v 1367.881591796875 -1027.7637939453125 105.00006866455078
v 1276.7403564453125 -935.0462036132812 104.99995422363281
v 1276.7403564453125 -935.0462036132812 94.99996185302734
v 898.895263671875 -1292.449951171875 95.00007629394531
v 898.895263671875 -1292.449951171875 105.00007629394531
v 1276.861572265625 -920.904541015625 104.99995422363281
v 1276.7403564453125 -935.0462036132812 94.99996185302734
v 1276.7403564453125 -935.0462036132812 104.99995422363281
v 913.036865234375 -1292.5711669921875 105.00007629394531
v 913.036865234375 -1292.5711669921875 95.00007629394531
v 1004.046630859375 -1399.420166015625 104.9999771118164
v 898.895263671875 -1292.449951171875 105.00007629394531
v 913.036865234375 -1292.5711669921875 95.00007629394531
v 913.036865234375 -1292.5711669921875 105.00007629394531
v 1004.1676635742188 -1385.2781982421875 104.9999771118164
v 1004.1676635742188 -1385.2781982421875 94.99998474121094
v 1068.231201171875 -1336.3218994140625 104.99998474121094
v 1004.046630859375 -1399.420166015625 104.9999771118164
v 1004.1676635742188 -1385.2781982421875 94.99998474121094
v 1004.1676635742188 -1385.2781982421875 104.9999771118164
v 1068.35205078125 -1322.1800537109375 104.9999771118164
v 1068.35205078125 -1322.1800537109375 94.99998474121094
v 1839.349365234375 -2120.770263671875 95.00009155273438
v 1839.349365234375 -2120.770263671875 105.00008392333984
v 1068.231201171875 -1336.3218994140625 104.99998474121094
v 1068.35205078125 -1322.1800537109375 94.99998474121094
v 1068.35205078125 -1322.1800537109375 104.9999771118164
v 1853.49072265625 -2120.89111328125 105.00008392333984
v 1853.49072265625 -2120.89111328125 95.00009155273438
v 1775.164794921875 -2183.868408203125 105.00019073486328
v 1839.349365234375 -2120.770263671875 105.00008392333984
v 1853.49072265625 -2120.89111328125 95.00009155273438
v 1853.49072265625 -2120.89111328125 105.00008392333984
v 1789.306640625 -2183.98876953125 105.00019073486328
v 1789.306640625 -2183.98876953125 95.00019073486328
v 1880.328369140625 -2290.83837890625 105.0000991821289
v 1775.164794921875 -2183.868408203125 105.00019073486328
v 1789.306640625 -2183.98876953125 95.00019073486328
v 1789.306640625 -2183.98876953125 105.00019073486328
v 1880.4493408203125 -2276.697265625 105.00009155273438
v 1880.4493408203125 -2276.697265625 95.0000991821289
v 1880.328369140625 -2290.83837890625 105.0000991821289
v 2258.294677734375 -1919.305419921875 105.00008392333984
v 2244.153076171875 -1919.18408203125 105.00007629394531
v 1880.4493408203125 -2276.697265625 105.00009155273438
v 2153.143310546875 -1812.3350830078125 105.00006866455078
v 2153.02099609375 -1826.4755859375 105.00006866455078
v 2092.510986328125 -1871.917724609375 105.00007629394531
v 2092.388671875 -1886.058349609375 105.00007629394531
v 1321.392822265625 -1087.4571533203125 104.99996948242188
v 1307.249267578125 -1087.333984375 104.99996948242188
v 1382.025146484375 -1027.886962890625 105.00007629394531
v 1367.881591796875 -1027.7637939453125 105.00006866455078
v 1276.861572265625 -920.904541015625 104.99995422363281
v 1276.7403564453125 -935.0462036132812 104.99995422363281
v 898.895263671875 -1292.449951171875 105.00007629394531
v 913.036865234375 -1292.5711669921875 105.00007629394531
v 1004.046630859375 -1399.420166015625 104.9999771118164
v 1004.1676635742188 -1385.2781982421875 104.9999771118164
v 1068.231201171875 -1336.3218994140625 104.99998474121094
v 1068.35205078125 -1322.1800537109375 104.9999771118164
v 1839.349365234375 -2120.770263671875 105.00008392333984
v 1853.49072265625 -2120.89111328125 105.00008392333984
v 1775.164794921875 -2183.868408203125 105.00019073486328
v 1789.306640625 -2183.98876953125 105.00019073486328
v 1311.309814453125 -1027.276611328125 95.00006866455078
v 1276.251220703125 -991.6077270507812 95.00006866455078
v 1311.309814453125 -1027.276611328125 105.00006866455078
v 1276.251220703125 -991.6077270507812 105.00006866455078
v 1276.251220703125 -991.6077270507812 95.00006866455078
v 1240.594482421875 -1026.666259765625 95.00006866455078
v 1276.251220703125 -991.6077270507812 105.00006866455078
v 1240.594482421875 -1026.666259765625 105.00006866455078
v 1240.594482421875 -1026.666259765625 95.00006866455078
v 1275.640869140625 -1062.322998046875 95.00006866455078
v 1240.594482421875 -1026.666259765625 105.00006866455078
v 1275.640869140625 -1062.322998046875 105.00006866455078
v 1275.640869140625 -1062.322998046875 95.00006866455078
v 1311.309814453125 -1027.276611328125 95.00006866455078
v 1275.640869140625 -1062.322998046875 105.00006866455078
v 1311.309814453125 -1027.276611328125 105.00006866455078
v 1311.309814453125 -1027.276611328125 105.00006866455078
v 1276.251220703125 -991.6077270507812 105.00006866455078
v 1275.640869140625 -1062.322998046875 105.00006866455078
v 1240.594482421875 -1026.666259765625 105.00006866455078
v 1276.251220703125 -991.6077270507812 110.00006866455078
v 1311.309814453125 -1027.276611328125 110.00006866455078
v 1297.1669921875 -1027.1533203125 105.00006866455078
v 1297.1669921875 -1027.1533203125 110.00006866455078
v 1276.13037109375 -1005.7505493164062 110.00006866455078
v 1276.13037109375 -1005.7505493164062 105.00006866455078
v 1240.594482421875 -1026.666259765625 110.00006866455078
v 1276.251220703125 -991.6077270507812 110.00006866455078
v 1276.13037109375 -1005.7505493164062 105.00006866455078
v 1276.13037109375 -1005.7505493164062 110.00006866455078
v 1254.73486328125 -1026.787109375 110.00006866455078
v 1254.73486328125 -1026.787109375 105.00006866455078
v 1275.640869140625 -1062.322998046875 110.00006866455078
v 1240.594482421875 -1026.666259765625 110.00006866455078
v 1254.73486328125 -1026.787109375 105.00006866455078
v 1254.73486328125 -1026.787109375 110.00006866455078
v 1275.76416015625 -1048.1826171875 110.00006866455078
v 1275.76416015625 -1048.1826171875 105.00006866455078
v 1311.309814453125 -1027.276611328125 110.00006866455078
v 1275.640869140625 -1062.322998046875 110.00006866455078
v 1275.76416015625 -1048.1826171875 105.00006866455078
v 1275.76416015625 -1048.1826171875 110.00006866455078
v 1297.1669921875 -1027.1533203125 110.00006866455078
v 1297.1669921875 -1027.1533203125 105.00006866455078
v 1311.309814453125 -1027.276611328125 110.00006866455078
v 1276.251220703125 -991.6077270507812 110.00006866455078
v 1276.13037109375 -1005.7505493164062 110.00006866455078
v 1297.1669921875 -1027.1533203125 110.00006866455078
v 1240.594482421875 -1026.666259765625 110.00006866455078
v 1254.73486328125 -1026.787109375 110.00006866455078
v 1275.640869140625 -1062.322998046875 110.00006866455078
v 1275.76416015625 -1048.1826171875 110.00006866455078
v 1916.595458984375 -2185.089111328125 95.00029754638672
v 1881.549072265625 -2149.432373046875 95.00028991699219
v 1916.595458984375 -2185.089111328125 105.00029754638672
v 1881.549072265625 -2149.432373046875 105.00028991699219
v 1881.5491943359375 -2149.432373046875 95.00028991699219
v 1845.880126953125 -2184.478515625 95.00028991699219
v 1881.5491943359375 -2149.432373046875 105.00028991699219
v 1845.880126953125 -2184.478515625 105.00028991699219
v 1845.880126953125 -2184.478515625 95.00028991699219
v 1880.938720703125 -2220.135498046875 95.00029754638672
v 1845.880126953125 -2184.478515625 105.00028991699219
v 1880.938720703125 -2220.135498046875 105.00029754638672
v 1880.938720703125 -2220.135498046875 95.00029754638672
v 1916.595458984375 -2185.089111328125 95.00029754638672
v 1880.938720703125 -2220.135498046875 105.00029754638672
v 1916.595458984375 -2185.089111328125 105.00029754638672
v 1916.595458984375 -2185.089111328125 105.00029754638672
v 1881.549072265625 -2149.432373046875 105.00028991699219
v 1880.938720703125 -2220.135498046875 105.00029754638672
v 1845.880126953125 -2184.478515625 105.00028991699219
v 1881.549072265625 -2149.432373046875 110.00028228759766
v 1916.595458984375 -2185.089111328125 110.00028991699219
v 1902.453857421875 -2184.967041015625 105.00029754638672
v 1902.453857421875 -2184.967041015625 110.00028991699219
v 1881.42578125 -2163.57275390625 110.00028228759766
v 1881.42578125 -2163.57275390625 105.00028991699219
v 1881.549072265625 -2149.432373046875 105.00028991699219
v 1845.880126953125 -2184.478515625 110.00028228759766
v 1881.549072265625 -2149.432373046875 110.00028228759766
v 1881.42578125 -2163.57275390625 105.00028991699219
v 1881.42578125 -2163.57275390625 110.00028228759766
v 1860.024169921875 -2184.600830078125 110.00028228759766
v 1860.024169921875 -2184.600830078125 105.00028991699219
v 1880.938720703125 -2220.135498046875 110.00028991699219
v 1845.880126953125 -2184.478515625 110.00028228759766
v 1860.024169921875 -2184.600830078125 105.00028991699219
v 1860.024169921875 -2184.600830078125 110.00028228759766
v 1881.0595703125 -2205.9951171875 110.00028991699219
v 1881.0595703125 -2205.9951171875 105.00029754638672
v 1916.595458984375 -2185.089111328125 110.00028991699219
v 1880.938720703125 -2220.135498046875 110.00028991699219
v 1881.0595703125 -2205.9951171875 105.00029754638672
v 1881.0595703125 -2205.9951171875 110.00028991699219
v 1902.453857421875 -2184.967041015625 110.00028991699219
v 1902.453857421875 -2184.967041015625 105.00029754638672
v 1916.595458984375 -2185.089111328125 110.00028991699219
v 1881.549072265625 -2149.432373046875 110.00028228759766
v 1881.42578125 -2163.57275390625 110.00028228759766
v 1902.453857421875 -2184.967041015625 110.00028991699219
v 1845.880126953125 -2184.478515625 110.00028228759766
v 1860.024169921875 -2184.600830078125 110.00028228759766
v 1880.938720703125 -2220.135498046875 110.00028991699219
v 1881.0595703125 -2205.9951171875 110.00028991699219
v -144.061279296875 667.230224609375 -0.00024038756964728236
v -664.666748046875 155.499267578125 -0.00021840700355824083
v -144.061279296875 667.230224609375 9.99975872039795
v -664.666748046875 155.499267578125 9.999781608581543
v -664.666748046875 155.499267578125 -0.00021840700355824083
v 456.9638671875 -985.5285034179688 -6.962714542169124e-05
v -664.666748046875 155.499267578125 9.999781608581543
v 456.9638671875 -985.5285034179688 9.999930381774902
v 456.964111328125 -985.5285034179688 -6.962713814573362e-05
v 977.557373046875 -473.78533935546875 -9.160929766949266e-05
v 456.964111328125 -985.5285034179688 9.999930381774902
v 977.557373046875 -473.78533935546875 9.999908447265625
v 977.557373046875 -473.78533935546875 -9.160929766949266e-05
v -144.06103515625 667.230224609375 -0.00024038755509536713
v 977.557373046875 -473.78533935546875 9.999908447265625
v -144.06103515625 667.230224609375 9.99975872039795
v -664.666748046875 155.499267578125 9.999781608581543
v -593.963623046875 154.888916015625 9.999784469604492
v -144.671630859375 596.527099609375 9.999765396118164
v -144.061279296875 667.230224609375 9.99975872039795
v 456.964111328125 -985.5285034179688 9.999930381774902
v 977.557373046875 -473.78533935546875 9.999908447265625
v 906.854248046875 -473.17486572265625 9.999905586242676
v 457.574462890625 -914.8253784179688 9.999923706054688
v -144.671630859375 596.527099609375 9.999765396118164
v -593.963623046875 154.888916015625 9.99968433380127
v -144.671630859375 596.527099609375 19.999765396118164
v -593.963623046875 154.888916015625 19.999685287475586
v -593.963623046875 154.888916015625 9.99968433380127
v 457.57421875 -914.8253173828125 9.999823570251465
v -593.963623046875 154.888916015625 19.999685287475586
v 457.57421875 -914.8253173828125 19.99982452392578
v 457.574462890625 -914.8253784179688 9.999823570251465
v 906.854248046875 -473.1748046875 9.999805450439453
v 457.574462890625 -914.8253784179688 19.99982452392578
v 906.854248046875 -473.1748046875 19.999805450439453
v 906.854248046875 -473.17486572265625 9.999805450439453
v -144.671630859375 596.527099609375 9.999765396118164
v 906.854248046875 -473.17486572265625 19.999805450439453
v -144.671630859375 596.527099609375 19.999765396118164
v -593.963623046875 154.888916015625 19.999685287475586
v -523.248291015625 154.278564453125 19.999788284301758
v -145.281982421875 525.8238525390625 19.999771118164062
v -144.671630859375 596.527099609375 19.999765396118164
v 457.574462890625 -914.8253784179688 19.99982452392578
v 353.021240234375 -737.1398315429688 19.99990463256836
v -353.912353515625 110.406494140625 19.999797821044922
v -418.096923828125 47.308349609375 19.999801635742188
v 906.854248046875 -473.17486572265625 19.999805450439453
v 836.151123046875 -472.57684326171875 19.999902725219727
v 458.184814453125 -844.1100463867188 19.99991798400879
v -40.1185302734375 418.841552734375 19.999786376953125
v 670.367431640625 -425.18914794921875 19.99989128112793
v 730.999755859375 -365.60662841796875 19.999887466430664
v 417.205810546875 -674.041748046875 19.999900817871094
v -100.750732421875 359.271240234375 19.999788284301758
v 458.184814453125 -844.1100463867188 19.99991798400879
v 836.151123046875 -472.57684326171875 19.999902725219727
v 458.184814453125 -844.1100463867188 94.9999008178711
v 836.151123046875 -472.57684326171875 94.99988555908203
v 836.151123046875 -472.57684326171875 19.999902725219727
v 730.999755859375 -365.60662841796875 19.999887466430664
v 836.151123046875 -472.57684326171875 94.9999008178711
v 730.999755859375 -365.60662841796875 94.99989318847656
v 730.999755859375 -365.60662841796875 19.999887466430664
v 670.367431640625 -425.18914794921875 19.99989128112793
v 730.999755859375 -365.60662841796875 94.9998779296875
v 670.367431640625 -425.18914794921875 94.99987030029297
v 670.367431640625 -425.18914794921875 19.99989128112793
v -100.750732421875 359.271484375 19.999788284301758
v 670.367431640625 -425.18914794921875 94.99988555908203
v -100.750732421875 359.271484375 94.99978637695312
v -100.750732421875 359.271240234375 19.999788284301758
v -40.1185302734375 418.841552734375 19.99988555908203
v -100.750732421875 359.271240234375 94.99978637695312
v -40.1185302734375 418.841552734375 94.99988555908203
v -40.1185302734375 418.841552734375 19.99988555908203
v -145.281982421875 525.8238525390625 19.999771118164062
v -40.1185302734375 418.841552734375 94.99988555908203
v -145.281982421875 525.8238525390625 94.99977111816406
v -145.281982421875 525.8238525390625 19.999771118164062
v -523.248291015625 154.278564453125 19.999887466430664
v -145.281982421875 525.8238525390625 94.99977111816406
v -523.248291015625 154.278564453125 94.99989318847656
v -523.248291015625 154.278564453125 19.999887466430664
v -418.096923828125 47.308349609375 19.999801635742188
v -523.248291015625 154.278564453125 94.99989318847656
v -418.096923828125 47.308349609375 94.99980163574219
v -418.096923828125 47.308349609375 19.999801635742188
v -353.912353515625 110.406494140625 19.999797821044922
v -418.096923828125 47.308349609375 94.99980163574219
v -353.912353515625 110.406494140625 94.99980163574219
v -353.912353515625 110.406494140625 19.999797821044922
v 417.205810546875 -674.041748046875 19.999900817871094
v -353.912353515625 110.406494140625 94.99980163574219
v 417.205810546875 -674.041748046875 94.9999008178711
v 417.205810546875 -674.041748046875 19.999900817871094
v 353.021240234375 -737.1398315429688 20.000003814697266
v 417.205810546875 -674.041748046875 94.9999008178711
v 353.021240234375 -737.1398315429688 95.00000762939453
v 353.021240234375 -737.1398315429688 20.000003814697266
v 458.184814453125 -844.1100463867188 19.99991798400879
v 353.021240234375 -737.1398315429688 95.00000762939453
v 458.184814453125 -844.1100463867188 94.99991607666016
v 836.151123046875 -472.57684326171875 94.9999008178711
v 730.999755859375 -365.60662841796875 94.99989318847656
v 670.367431640625 -425.18914794921875 94.99988555908203
v 494.451904296875 -738.3605346679688 94.99990844726562
v 458.795166015625 -773.4069213867188 94.99990844726562
v 458.184814453125 -844.1100463867188 94.99991607666016
v 417.205810546875 -674.041748046875 94.9999008178711
v 423.736572265625 -737.750244140625 94.99990844726562
v 459.405517578125 -702.703857421875 94.9999008178711
v -100.750732421875 359.271240234375 94.99978637695312
v -110.833740234375 419.451904296875 94.99978637695312
v -40.1185302734375 418.841552734375 94.99988555908203
v -145.281982421875 525.8238525390625 94.99977111816406
v -523.248291015625 154.278564453125 94.99989318847656
v -418.096923828125 47.308349609375 94.99980163574219
v -353.912353515625 110.406494140625 94.99980163574219
v -181.549072265625 420.0623779296875 94.99978637695312
v -145.892333984375 455.120849609375 94.9997787475586
v -146.502685546875 384.405517578125 94.99978637695312
v 353.021240234375 -737.1398315429688 95.00000762939453
v 458.184814453125 -844.1100463867188 94.99991607666016
v 836.151123046875 -472.57684326171875 94.9999008178711
v 836.151123046875 -472.57684326171875 104.99989318847656
v 458.184814453125 -844.1100463867188 104.99990844726562
v 458.3057861328125 -829.9688720703125 94.99991607666016
v 458.3057861328125 -829.9688720703125 104.99990844726562
v 822.009521484375 -472.45550537109375 104.99989318847656
v 822.009521484375 -472.45550537109375 94.9999008178711
v 730.999755859375 -365.60662841796875 104.99988555908203
v 836.151123046875 -472.57684326171875 104.99989318847656
v 822.009521484375 -472.45550537109375 94.9999008178711
v 822.009521484375 -472.45550537109375 104.99989318847656
v 730.8773193359375 -379.7470703125 104.99988555908203
v 730.8773193359375 -379.7470703125 94.99989318847656
v 730.999755859375 -365.60662841796875 94.99989318847656
v 670.367431640625 -425.18914794921875 94.99988555908203
v 670.367431640625 -425.18914794921875 104.9998779296875
v 730.999755859375 -365.60662841796875 104.99988555908203
v 730.8773193359375 -379.7470703125 94.99989318847656
v 730.8773193359375 -379.7470703125 104.99988555908203
v 670.2449951171875 -439.32965087890625 104.9998779296875
v 670.2449951171875 -439.32965087890625 94.99988555908203
v -100.750732421875 359.271240234375 94.99978637695312
v -100.750732421875 359.271240234375 104.9997787475586
v 670.367431640625 -425.18914794921875 104.9998779296875
v 670.2449951171875 -439.32965087890625 94.99988555908203
v 670.2449951171875 -439.32965087890625 104.9998779296875
v -114.89404296875 359.3944091796875 104.9997787475586
v -114.89404296875 359.3944091796875 94.99978637695312
v -40.1185302734375 418.841552734375 104.99988555908203
v -100.750732421875 359.271240234375 104.9997787475586
v -114.89404296875 359.3944091796875 94.99978637695312
v -114.89404296875 359.3944091796875 104.9997787475586
v -54.2618408203125 418.9647216796875 104.99988555908203
v -54.2618408203125 418.9647216796875 94.99988555908203
v -145.281982421875 525.8238525390625 104.99976348876953
v -40.1185302734375 418.841552734375 104.99988555908203
v -54.2618408203125 418.9647216796875 94.99988555908203
v -54.2618408203125 418.9647216796875 104.99988555908203
v -145.4033203125 511.6822509765625 104.99976348876953
v -145.4033203125 511.6822509765625 94.99977111816406
v -523.248291015625 154.278564453125 104.99989318847656
v -145.281982421875 525.8238525390625 104.99976348876953
v -145.4033203125 511.6822509765625 94.99977111816406
v -145.4033203125 511.6822509765625 104.99976348876953
v -509.10693359375 154.1573486328125 104.99989318847656
v -509.10693359375 154.1573486328125 94.99989318847656
v -418.096923828125 47.308349609375 104.99979400634766
v -523.248291015625 154.278564453125 104.99989318847656
v -509.10693359375 154.1573486328125 94.99989318847656
v -509.10693359375 154.1573486328125 104.99989318847656
v -417.97607421875 61.4503173828125 104.99979400634766
v -417.97607421875 61.4503173828125 94.99980163574219
v -353.912353515625 110.406494140625 104.99979400634766
v -418.096923828125 47.308349609375 104.99979400634766
v -417.97607421875 61.4503173828125 94.99980163574219
v -417.97607421875 61.4503173828125 104.99979400634766
v -353.79150390625 124.54833984375 104.99979400634766
v -353.79150390625 124.54833984375 94.99980163574219
v 417.205810546875 -674.041748046875 104.99989318847656
v -353.912353515625 110.406494140625 104.99979400634766
v -353.79150390625 124.54833984375 94.99980163574219
v -353.79150390625 124.54833984375 104.99979400634766
v 431.34716796875 -674.1627197265625 104.99989318847656
v 431.34716796875 -674.1627197265625 94.9999008178711
v 353.021240234375 -737.1398315429688 105.00000762939453
v 417.205810546875 -674.041748046875 104.99989318847656
v 431.34716796875 -674.1627197265625 94.9999008178711
v 431.34716796875 -674.1627197265625 104.99989318847656
v 367.162841796875 -737.2604370117188 105.00000762939453
v 367.162841796875 -737.2604370117188 95.00000762939453
v 458.184814453125 -844.1100463867188 104.99990844726562
v 353.021240234375 -737.1398315429688 105.00000762939453
v 367.162841796875 -737.2604370117188 95.00000762939453
v 367.162841796875 -737.2604370117188 105.00000762939453
v 458.3057861328125 -829.9688720703125 104.99990844726562
v 458.3057861328125 -829.9688720703125 94.99991607666016
v 458.184814453125 -844.1100463867188 104.99990844726562
v 836.151123046875 -472.57684326171875 104.99989318847656
v 822.009521484375 -472.45550537109375 104.99989318847656
v 458.3057861328125 -829.9688720703125 104.99990844726562
v 730.999755859375 -365.60662841796875 104.99988555908203
v 730.8773193359375 -379.7470703125 104.99988555908203
v 670.367431640625 -425.18914794921875 104.9998779296875
v 670.2449951171875 -439.32965087890625 104.9998779296875
v -100.750732421875 359.271240234375 104.9997787475586
v -114.89404296875 359.3944091796875 104.9997787475586
v -40.1185302734375 418.841552734375 104.99988555908203
v -54.2618408203125 418.9647216796875 104.99988555908203
v -145.281982421875 525.8238525390625 104.99976348876953
v -145.4033203125 511.6822509765625 104.99976348876953
v -523.248291015625 154.278564453125 104.99989318847656
v -509.10693359375 154.1573486328125 104.99989318847656
v -418.096923828125 47.308349609375 104.99979400634766
v -417.97607421875 61.4503173828125 104.99979400634766
v -353.912353515625 110.406494140625 104.99979400634766
v -353.79150390625 124.54833984375 104.99979400634766
v 417.205810546875 -674.041748046875 104.99989318847656
v 431.34716796875 -674.1627197265625 104.99989318847656
v 353.021240234375 -737.1398315429688 105.00000762939453
v 367.162841796875 -737.2604370117188 105.00000762939453
v -110.833740234375 419.451904296875 94.99988555908203
v -145.892333984375 455.120849609375 94.9998779296875
v -110.833740234375 419.451904296875 104.99988555908203
v -145.892333984375 455.120849609375 104.9998779296875
v -145.892333984375 455.120849609375 94.9998779296875
v -181.549072265625 420.0623779296875 94.99988555908203
v -145.892333984375 455.120849609375 104.9998779296875
v -181.549072265625 420.0623779296875 104.99988555908203
v -181.549072265625 420.0623779296875 94.99988555908203
v -146.502685546875 384.405517578125 94.99988555908203
v -181.549072265625 420.0623779296875 104.99988555908203
v -146.502685546875 384.405517578125 104.99988555908203
v -146.502685546875 384.405517578125 94.99988555908203
v -110.833740234375 419.451904296875 94.99988555908203
v -146.502685546875 384.405517578125 104.99988555908203
v -110.833740234375 419.451904296875 104.99988555908203
v -110.833740234375 419.451904296875 104.99988555908203
v -145.892333984375 455.120849609375 104.9998779296875
v -146.502685546875 384.405517578125 104.99988555908203
v -181.549072265625 420.0623779296875 104.99988555908203
v -145.892333984375 455.120849609375 109.9998779296875
v -110.833740234375 419.451904296875 109.99988555908203
v -124.9765625 419.5751953125 104.99988555908203
v -124.9765625 419.5751953125 109.99988555908203
v -146.01318359375 440.9779052734375 109.9998779296875
v -146.01318359375 440.9779052734375 104.9998779296875
v -181.549072265625 420.0623779296875 109.99988555908203
v -145.892333984375 455.120849609375 109.9998779296875
v -146.01318359375 440.9779052734375 104.9998779296875
v -146.01318359375 440.9779052734375 109.9998779296875
v -167.408447265625 419.94140625 109.99988555908203
v -167.408447265625 419.94140625 104.99988555908203
v -146.502685546875 384.405517578125 109.99988555908203
v -181.549072265625 420.0623779296875 109.99988555908203
v -167.408447265625 419.94140625 104.99988555908203
v -167.408447265625 419.94140625 109.99988555908203
v -146.37939453125 398.5458984375 109.99988555908203
v -146.37939453125 398.5458984375 104.99988555908203
v -110.833740234375 419.451904296875 109.99988555908203
v -146.502685546875 384.405517578125 109.99988555908203
v -146.37939453125 398.5458984375 104.99988555908203
v -146.37939453125 398.5458984375 109.99988555908203
v -124.9765625 419.5751953125 109.99988555908203
v -124.9765625 419.5751953125 104.99988555908203
v -110.833740234375 419.451904296875 109.99988555908203
v -145.892333984375 455.120849609375 109.9998779296875
v -146.01318359375 440.9779052734375 109.9998779296875
v -124.9765625 419.5751953125 109.99988555908203
v -181.549072265625 420.0623779296875 109.99988555908203
v -167.408447265625 419.94140625 109.99988555908203
v -146.502685546875 384.405517578125 109.99988555908203
v -146.37939453125 398.5458984375 109.99988555908203
v 494.451904296875 -738.3605346679688 95.00010681152344
v 459.405517578125 -702.703857421875 95.0000991821289
v 494.451904296875 -738.3605346679688 105.00010681152344
v 459.405517578125 -702.703857421875 105.0000991821289
v 459.405517578125 -702.703857421875 95.0000991821289
v 423.736572265625 -737.750244140625 95.00010681152344
v 459.405517578125 -702.703857421875 105.0000991821289
v 423.736572265625 -737.750244140625 105.00010681152344
v 423.736572265625 -737.750244140625 95.00010681152344
v 458.795166015625 -773.4069213867188 95.00010681152344
v 423.736572265625 -737.750244140625 105.00010681152344
v 458.795166015625 -773.4069213867188 105.00010681152344
v 458.795166015625 -773.4069213867188 95.00010681152344
v 494.451904296875 -738.3605346679688 95.00010681152344
v 458.795166015625 -773.4069213867188 105.00010681152344
v 494.451904296875 -738.3605346679688 105.00010681152344
v 494.451904296875 -738.3605346679688 105.00010681152344
v 459.405517578125 -702.703857421875 105.0000991821289
v 458.795166015625 -773.4069213867188 105.00010681152344
v 423.736572265625 -737.750244140625 105.00010681152344
v 459.405517578125 -702.703857421875 110.00009155273438
v 494.451904296875 -738.3605346679688 110.0000991821289
v 480.310302734375 -738.2384643554688 105.00010681152344
v 480.310302734375 -738.2384643554688 110.0000991821289
v 459.2822265625 -716.84423828125 110.0000991821289
v 459.2822265625 -716.84423828125 105.00010681152344
v 423.736572265625 -737.750244140625 110.0000991821289
v 459.405517578125 -702.703857421875 110.00009155273438
v 459.2822265625 -716.84423828125 105.00010681152344
v 459.2822265625 -716.84423828125 110.0000991821289
v 437.880615234375 -737.872314453125 110.0000991821289
v 437.880615234375 -737.872314453125 105.00010681152344
v 458.795166015625 -773.4069213867188 110.0000991821289
v 423.736572265625 -737.750244140625 110.0000991821289
v 437.880615234375 -737.872314453125 105.00010681152344
v 437.880615234375 -737.872314453125 110.0000991821289
v 458.916015625 -759.2665405273438 110.0000991821289
v 458.916015625 -759.2665405273438 105.00010681152344
v 494.451904296875 -738.3605346679688 110.0000991821289
v 458.795166015625 -773.4069213867188 110.0000991821289
v 458.916015625 -759.2665405273438 105.00010681152344
v 458.916015625 -759.2665405273438 110.0000991821289
v 480.310302734375 -738.2384643554688 110.0000991821289
v 480.310302734375 -738.2384643554688 105.00010681152344
v 494.451904296875 -738.3605346679688 110.0000991821289
v 459.405517578125 -702.703857421875 110.00009155273438
v 459.2822265625 -716.84423828125 110.0000991821289
v 480.310302734375 -738.2384643554688 110.0000991821289
v 423.736572265625 -737.750244140625 110.0000991821289
v 437.880615234375 -737.872314453125 110.0000991821289
v 458.795166015625 -773.4069213867188 110.0000991821289
v 458.916015625 -759.2665405273438 110.0000991821289
v -1028.204345703125 596.649169921875 -0.00027286430122330785
v -849.456787109375 414.801025390625 -0.00024915329413488507
v -1028.204345703125 596.649169921875 9.999727249145508
v -849.456787109375 414.801025390625 9.999751091003418
v -849.456787109375 414.801025390625 -0.00024915329413488507
v -403.729248046875 852.935791015625 -0.00026797287864610553
v -849.456787109375 414.801025390625 9.999751091003418
v -403.729248046875 852.935791015625 9.99973201751709
v -403.729248046875 852.935791015625 -0.00026797287864610553
v -582.489013671875 1034.7840576171875 -0.0002916844096034765
v -403.729248046875 852.935791015625 9.99973201751709
v -582.489013671875 1034.7840576171875 9.99970817565918
v -582.489013671875 1034.7840576171875 -0.0002916844096034765
v -1028.204345703125 596.649169921875 -0.00027286430122330785
v -582.489013671875 1034.7840576171875 9.99970817565918
v -1028.204345703125 596.649169921875 9.999727249145508
v -849.456787109375 414.801025390625 9.999751091003418
v -852.655029296875 453.717041015625 9.999747276306152
v -989.337158203125 592.779541015625 9.99972915649414
v -1028.204345703125 596.649169921875 9.999727249145508
v -403.729248046875 852.935791015625 9.99973201751709
v -442.596435546875 856.793212890625 9.999730110168457
v -582.489013671875 1034.7840576171875 9.99970817565918
v -579.290771484375 995.855712890625 9.999711990356445
v -989.337158203125 592.779541015625 9.99972915649414
v -852.655029296875 453.717041015625 9.999747276306152
v -989.337158203125 592.779541015625 19.99972915649414
v -852.655029296875 453.717041015625 19.99974822998047
v -852.655029296875 453.717041015625 9.999747276306152
v -442.596435546875 856.793212890625 9.999730110168457
v -852.655029296875 453.717041015625 19.99974822998047
v -442.596435546875 856.793212890625 19.99972915649414
v -442.596435546875 856.793212890625 9.999730110168457
v -579.290771484375 995.855712890625 9.999711990356445
v -442.596435546875 856.793212890625 19.99972915649414
v -579.290771484375 995.855712890625 19.999711990356445
v -579.290771484375 995.855712890625 9.999711990356445
v -989.337158203125 592.779541015625 9.99972915649414
v -579.290771484375 995.855712890625 19.999711990356445
v -989.337158203125 592.779541015625 19.99972915649414
v -852.655029296875 453.717041015625 19.99974822998047
v -957.501220703125 596.038818359375 19.999731063842773
v -989.337158203125 592.779541015625 19.99972915649414
v -442.596435546875 856.793212890625 19.99972915649414
v -474.444580078125 853.533935546875 19.99972915649414
v -848.846435546875 485.504150390625 19.999744415283203
v -579.290771484375 995.855712890625 19.999711990356445
v -583.099365234375 964.068603515625 19.999713897705078
v -957.501220703125 596.038818359375 19.999731063842773
v -848.846435546875 485.504150390625 19.999744415283203
v -957.501220703125 596.038818359375 94.99972534179688
v -848.846435546875 485.504150390625 94.99974822998047
v -848.846435546875 485.504150390625 19.999744415283203
v -474.444580078125 853.533935546875 19.99972915649414
v -848.846435546875 485.504150390625 94.99974822998047
v -474.444580078125 853.533935546875 94.9997329711914
v -474.444580078125 853.533935546875 19.99972915649414
v -583.099365234375 964.068603515625 19.999713897705078
v -474.444580078125 853.533935546875 94.9997329711914
v -583.099365234375 964.068603515625 94.99971008300781
v -583.099365234375 964.068603515625 19.999713897705078
v -957.501220703125 596.038818359375 19.999731063842773
v -583.099365234375 964.068603515625 94.99969482421875
v -957.501220703125 596.038818359375 94.99971008300781
v -957.501220703125 596.038818359375 94.99972534179688
v -848.846435546875 485.504150390625 94.99974822998047
v -583.099365234375 964.068603515625 94.99971008300781
v -474.444580078125 853.533935546875 94.9997329711914
v -848.846435546875 485.504150390625 104.99974060058594
v -957.501220703125 596.038818359375 104.99971771240234
v -943.359619140625 595.91748046875 94.99972534179688
v -943.359619140625 595.91748046875 104.99971771240234
v -848.72509765625 499.645751953125 104.99974060058594
v -848.72509765625 499.645751953125 94.99974822998047
v -474.444580078125 853.533935546875 104.99972534179688
v -848.846435546875 485.504150390625 104.99974060058594
v -848.72509765625 499.645751953125 94.99974822998047
v -848.72509765625 499.645751953125 104.99974060058594
v -488.586181640625 853.6552734375 104.99972534179688
v -488.586181640625 853.6552734375 94.9997329711914
v -583.099365234375 964.068603515625 104.99970245361328
v -474.444580078125 853.533935546875 104.99972534179688
v -488.586181640625 853.6552734375 94.9997329711914
v -488.586181640625 853.6552734375 104.99972534179688
v -583.220703125 949.9271240234375 104.99970245361328
v -583.220703125 949.9271240234375 94.99971008300781
v -583.099365234375 964.068603515625 94.99971008300781
v -957.501220703125 596.038818359375 94.99972534179688
v -957.501220703125 596.038818359375 104.99971771240234
v -583.099365234375 964.068603515625 104.99970245361328
v -583.220703125 949.9271240234375 94.99971008300781
v -583.220703125 949.9271240234375 104.99970245361328
v -943.359619140625 595.91748046875 104.99971771240234
v -943.359619140625 595.91748046875 94.99972534179688
v -957.501220703125 596.038818359375 104.99971771240234
v -848.846435546875 485.504150390625 104.99974060058594
v -848.72509765625 499.645751953125 104.99974060058594
v -943.359619140625 595.91748046875 104.99971771240234
v -474.444580078125 853.533935546875 104.99972534179688
v -488.586181640625 853.6552734375 104.99972534179688
v -583.099365234375 964.068603515625 104.99970245361328
v -583.220703125 949.9271240234375 104.99970245361328
v -1879.095703125 2432.2568359375 -0.00047053187154233456
v -2399.700927734375 1920.5260009765625 -0.0004485512909013778
v -1879.095703125 2432.2568359375 9.999529838562012
v -2399.700927734375 1920.5260009765625 9.999551773071289
v -2399.700927734375 1920.5260009765625 -0.0004485512909013778
v -1278.070068359375 779.498291015625 -0.0002997714327648282
v -2399.700927734375 1920.5260009765625 9.999551773071289
v -1278.070068359375 779.498291015625 9.999700546264648
v -1278.070068359375 779.498291015625 -0.0002997714327648282
v -757.476806640625 1291.2415771484375 -0.00032175358501262963
v -1278.070068359375 779.498291015625 9.999700546264648
v -757.476806640625 1291.2415771484375 9.999677658081055
v -757.476806640625 1291.2415771484375 -0.00032175358501262963
v -1879.095703125 2432.2568359375 -0.00047053187154233456
v -757.476806640625 1291.2415771484375 9.999677658081055
v -1879.095703125 2432.2568359375 9.999529838562012
v -2399.700927734375 1920.5260009765625 9.999551773071289
v -2328.997802734375 1919.9156494140625 9.999554634094238
v -1879.7060546875 2361.5537109375 9.99953556060791
v -1879.095703125 2432.2568359375 9.999529838562012
v -1278.070068359375 779.498291015625 9.999700546264648
v -757.476806640625 1291.2415771484375 9.999677658081055
v -828.179931640625 1291.8516845703125 9.999674797058105
v -1277.459716796875 850.201416015625 9.99969482421875
v -1879.7060546875 2361.5537109375 9.99953556060791
v -2328.997802734375 1919.9156494140625 9.999454498291016
v -1879.7060546875 2361.5537109375 19.999534606933594
v -2328.997802734375 1919.9156494140625 19.999454498291016
v -2328.997802734375 1919.9156494140625 9.999454498291016
v -1277.459716796875 850.201416015625 9.999594688415527
v -2328.997802734375 1919.9156494140625 19.999454498291016
v -1277.459716796875 850.201416015625 19.99959373474121
v -1277.459716796875 850.201416015625 9.999594688415527
v -828.179931640625 1291.8516845703125 9.999574661254883
v -1277.459716796875 850.201416015625 19.99959373474121
v -828.179931640625 1291.8516845703125 19.999576568603516
v -828.179931640625 1291.8516845703125 9.999574661254883
v -1879.7060546875 2361.5537109375 9.99953556060791
v -828.179931640625 1291.8516845703125 19.999576568603516
v -1879.7060546875 2361.5537109375 19.999534606933594
v -2328.997802734375 1919.9156494140625 19.999454498291016
v -2258.282470703125 1919.3052978515625 19.999557495117188
v -1880.31640625 2290.8505859375 19.999540328979492
v -1879.7060546875 2361.5537109375 19.999534606933594
v -1277.459716796875 850.201416015625 19.99959373474121
v -1382.012939453125 1027.886962890625 19.99967384338379
v -2088.94677734375 1875.4332275390625 19.999568939208984
v -2153.131103515625 1812.3350830078125 19.999570846557617
v -828.179931640625 1291.8516845703125 19.999576568603516
v -898.883056640625 1292.4498291015625 19.999671936035156
v -1276.849365234375 920.916748046875 19.99968719482422
v -1775.15283203125 2183.8681640625 19.999555587768555
v -1064.666748046875 1339.8375244140625 19.99966049194336
v -1004.034423828125 1399.4200439453125 19.999658584594727
v -1317.828369140625 1090.9849853515625 19.999670028686523
v -1835.78515625 2124.2978515625 19.999557495117188
v -1276.849365234375 920.916748046875 19.99968719482422
v -898.883056640625 1292.4498291015625 19.999671936035156
v -1276.849365234375 920.916748046875 94.99967193603516
v -898.883056640625 1292.4498291015625 94.9996566772461
v -898.883056640625 1292.4498291015625 19.999671936035156
v -1004.034423828125 1399.4200439453125 19.999658584594727
v -898.883056640625 1292.4498291015625 94.99967193603516
v -1004.034423828125 1399.4200439453125 94.9996566772461
v -1004.034423828125 1399.4200439453125 19.999658584594727
v -1064.666748046875 1339.8375244140625 19.99966049194336
v -1004.034423828125 1399.4200439453125 94.99964141845703
v -1064.666748046875 1339.8375244140625 94.99964904785156
v -1064.666748046875 1339.8375244140625 19.99966049194336
v -1835.78515625 2124.29833984375 19.999557495117188
v -1064.666748046875 1339.8375244140625 94.99966430664062
v -1835.78515625 2124.29833984375 94.99955749511719
v -1835.78515625 2124.2978515625 19.999557495117188
v -1775.15283203125 2183.8681640625 19.99965476989746
v -1835.78515625 2124.2978515625 94.99955749511719
v -1775.15283203125 2183.8681640625 94.99964904785156
v -1775.15283203125 2183.8681640625 19.99965476989746
v -1880.31640625 2290.8505859375 19.999540328979492
v -1775.15283203125 2183.8681640625 94.99964904785156
v -1880.31640625 2290.8505859375 94.99954223632812
v -1880.31640625 2290.8505859375 19.999540328979492
v -2258.282470703125 1919.3052978515625 19.999656677246094
v -1880.31640625 2290.8505859375 94.99954223632812
v -2258.282470703125 1919.3052978515625 94.9996566772461
v -2258.282470703125 1919.3052978515625 19.999656677246094
v -2153.131103515625 1812.3350830078125 19.999570846557617
v -2258.282470703125 1919.3052978515625 94.9996566772461
v -2153.131103515625 1812.3350830078125 94.99957275390625
v -2153.131103515625 1812.3350830078125 19.999570846557617
v -2088.94677734375 1875.4332275390625 19.999568939208984
v -2153.131103515625 1812.3350830078125 94.99957275390625
v -2088.94677734375 1875.4332275390625 94.99957275390625
v -2088.94677734375 1875.4332275390625 19.999568939208984
v -1317.828369140625 1090.9849853515625 19.999670028686523
v -2088.94677734375 1875.4332275390625 94.99957275390625
v -1317.828369140625 1090.9849853515625 94.99967193603516
v -1317.828369140625 1090.9849853515625 19.999670028686523
v -1382.012939453125 1027.886962890625 19.999773025512695
v -1317.828369140625 1090.9849853515625 94.99967193603516
v -1382.012939453125 1027.886962890625 94.9997787475586
v -1382.012939453125 1027.886962890625 19.999773025512695
v -1276.849365234375 920.916748046875 19.99968719482422
v -1382.012939453125 1027.886962890625 94.9997787475586
v -1276.849365234375 920.916748046875 94.99968719482422
v -898.883056640625 1292.4498291015625 94.99967193603516
v -1004.034423828125 1399.4200439453125 94.9996566772461
v -1064.666748046875 1339.8375244140625 94.99966430664062
v -1240.582275390625 1026.666259765625 94.99968719482422
v -1276.239013671875 991.619873046875 94.99967956542969
v -1276.849365234375 920.916748046875 94.99968719482422
v -1317.828369140625 1090.9849853515625 94.99967193603516
v -1311.297607421875 1027.276611328125 94.99967956542969
v -1275.628662109375 1062.3228759765625 94.99967193603516
v -1835.78515625 2124.2978515625 94.99955749511719
v -1845.8681640625 2184.478515625 94.99954986572266
v -1775.15283203125 2183.8681640625 94.99964904785156
v -1880.31640625 2290.8505859375 94.99954223632812
v -2258.282470703125 1919.3052978515625 94.9996566772461
v -2153.131103515625 1812.3350830078125 94.99957275390625
v -2088.94677734375 1875.4332275390625 94.99957275390625
v -1916.58349609375 2185.0888671875 94.99954986572266
v -1880.9267578125 2220.1474609375 94.99954986572266
v -1881.537109375 2149.43212890625 94.99955749511719
v -1382.012939453125 1027.886962890625 94.9997787475586
v -1276.849365234375 920.916748046875 94.99968719482422
v -898.883056640625 1292.4498291015625 94.99967193603516
v -898.883056640625 1292.4498291015625 114.99967193603516
v -1276.849365234375 920.916748046875 114.99968719482422
v -1276.728515625 935.057861328125 94.99968719482422
v -1276.728515625 935.057861328125 114.99968719482422
v -913.024658203125 1292.5711669921875 114.99967193603516
v -913.024658203125 1292.5711669921875 94.99967193603516
v -1004.034423828125 1399.4200439453125 114.9996566772461
v -898.883056640625 1292.4498291015625 114.99967193603516
v -913.024658203125 1292.5711669921875 94.99967193603516
v -913.024658203125 1292.5711669921875 114.99967193603516
v -1004.156982421875 1385.2794189453125 114.9996566772461
v -1004.156982421875 1385.2794189453125 94.9996566772461
v -1004.034423828125 1399.4200439453125 94.9996566772461
v -1064.666748046875 1339.8375244140625 94.99966430664062
v -1064.666748046875 1339.8375244140625 114.99966430664062
v -1004.034423828125 1399.4200439453125 114.9996566772461
v -1004.156982421875 1385.2794189453125 94.9996566772461
v -1004.156982421875 1385.2794189453125 114.9996566772461
v -1064.789306640625 1325.6968994140625 114.99966430664062
v -1064.789306640625 1325.6968994140625 94.99966430664062
v -1835.78515625 2124.2978515625 94.99955749511719
v -1835.78515625 2124.2978515625 114.99955749511719
v -1064.666748046875 1339.8375244140625 114.99966430664062
v -1064.789306640625 1325.6968994140625 94.99966430664062
v -1064.789306640625 1325.6968994140625 114.99966430664062
v -1849.928466796875 2124.42138671875 114.99955749511719
v -1849.928466796875 2124.42138671875 94.99955749511719
v -1775.15283203125 2183.8681640625 114.9996566772461
v -1835.78515625 2124.2978515625 114.99955749511719
v -1849.928466796875 2124.42138671875 94.99955749511719
v -1849.928466796875 2124.42138671875 114.99955749511719
v -1789.296142578125 2183.99169921875 114.9996566772461
v -1789.296142578125 2183.99169921875 94.99964904785156
v -1880.31640625 2290.8505859375 114.99954223632812
v -1775.15283203125 2183.8681640625 114.9996566772461
v -1789.296142578125 2183.99169921875 94.99964904785156
v -1789.296142578125 2183.99169921875 114.9996566772461
v -1880.437744140625 2276.708984375 114.99954223632812
v -1880.437744140625 2276.708984375 94.99954223632812
v -2258.282470703125 1919.3052978515625 114.99966430664062
v -1880.31640625 2290.8505859375 114.99954223632812
v -1880.437744140625 2276.708984375 94.99954223632812
v -1880.437744140625 2276.708984375 114.99954223632812
v -2244.140869140625 1919.1839599609375 114.99966430664062
v -2244.140869140625 1919.1839599609375 94.9996566772461
v -2153.131103515625 1812.3350830078125 114.99957275390625
v -2258.282470703125 1919.3052978515625 114.99966430664062
v -2244.140869140625 1919.1839599609375 94.9996566772461
v -2244.140869140625 1919.1839599609375 114.99966430664062
v -2153.010009765625 1826.4769287109375 114.99956512451172
v -2153.010009765625 1826.4769287109375 94.99956512451172
v -2088.94677734375 1875.4332275390625 114.99957275390625
v -2153.131103515625 1812.3350830078125 114.99957275390625
v -2153.010009765625 1826.4769287109375 94.99956512451172
v -2153.010009765625 1826.4769287109375 114.99956512451172
v -2088.825927734375 1889.5750732421875 114.99957275390625
v -2088.825927734375 1889.5750732421875 94.99957275390625
v -1317.828369140625 1090.9849853515625 114.99967193603516
v -2088.94677734375 1875.4332275390625 114.99957275390625
v -2088.825927734375 1889.5750732421875 94.99957275390625
v -2088.825927734375 1889.5750732421875 114.99957275390625
v -1303.68701171875 1090.8641357421875 114.99967193603516
v -1303.68701171875 1090.8641357421875 94.99967193603516
v -1382.012939453125 1027.886962890625 114.99978637695312
v -1317.828369140625 1090.9849853515625 114.99967193603516
v -1303.68701171875 1090.8641357421875 94.99967193603516
v -1303.68701171875 1090.8641357421875 114.99967193603516
v -1367.87109375 1027.766357421875 114.99978637695312
v -1367.87109375 1027.766357421875 94.9997787475586
v -1276.849365234375 920.916748046875 114.99968719482422
v -1382.012939453125 1027.886962890625 114.99978637695312
v -1367.87109375 1027.766357421875 94.9997787475586
v -1367.87109375 1027.766357421875 114.99978637695312
v -1276.728515625 935.057861328125 114.99968719482422
v -1276.728515625 935.057861328125 94.99968719482422
v -1276.849365234375 920.916748046875 114.99968719482422
v -898.883056640625 1292.4498291015625 114.99967193603516
v -913.024658203125 1292.5711669921875 114.99967193603516
v -1276.728515625 935.057861328125 114.99968719482422
v -1004.034423828125 1399.4200439453125 114.9996566772461
v -1004.156982421875 1385.2794189453125 114.9996566772461
v -1064.666748046875 1339.8375244140625 114.99966430664062
v -1064.789306640625 1325.6968994140625 114.99966430664062
v -1835.78515625 2124.2978515625 114.99955749511719
v -1849.928466796875 2124.42138671875 114.99955749511719
v -1775.15283203125 2183.8681640625 114.9996566772461
v -1789.296142578125 2183.99169921875 114.9996566772461
v -1880.31640625 2290.8505859375 114.99954223632812
v -1880.437744140625 2276.708984375 114.99954223632812
v -2258.282470703125 1919.3052978515625 114.99966430664062
v -2244.140869140625 1919.1839599609375 114.99966430664062
v -2153.131103515625 1812.3350830078125 114.99957275390625
v -2153.010009765625 1826.4769287109375 114.99956512451172
v -2088.94677734375 1875.4332275390625 114.99957275390625
v -2088.825927734375 1889.5750732421875 114.99957275390625
v -1317.828369140625 1090.9849853515625 114.99967193603516
v -1303.68701171875 1090.8641357421875 114.99967193603516
v -1382.012939453125 1027.886962890625 114.99978637695312
v -1367.87109375 1027.766357421875 114.99978637695312
v -1845.8681640625 2184.478515625 94.99964904785156
v -1880.9267578125 2220.1474609375 94.99964904785156
v -1845.8681640625 2184.478515625 104.99964904785156
v -1880.9267578125 2220.1474609375 104.99964904785156
v -1880.9267578125 2220.1474609375 94.99964904785156
v -1916.58349609375 2185.0888671875 94.99964904785156
v -1880.9267578125 2220.1474609375 104.99964904785156
v -1916.58349609375 2185.0888671875 104.99964904785156
v -1916.58349609375 2185.0888671875 94.99964904785156
v -1881.537109375 2149.43212890625 94.9996566772461
v -1916.58349609375 2185.0888671875 104.99964904785156
v -1881.537109375 2149.43212890625 104.9996566772461
v -1881.537109375 2149.43212890625 94.9996566772461
v -1845.8681640625 2184.478515625 94.99964904785156
v -1881.537109375 2149.43212890625 104.9996566772461
v -1845.8681640625 2184.478515625 104.99964904785156
v -1845.8681640625 2184.478515625 104.99964904785156
v -1880.9267578125 2220.1474609375 104.99964904785156
v -1881.537109375 2149.43212890625 104.9996566772461
v -1916.58349609375 2185.0888671875 104.99964904785156
v -1880.9267578125 2220.1474609375 109.99964904785156
v -1845.8681640625 2184.478515625 109.99964904785156
v -1860.01123046875 2184.60205078125 104.99964904785156
v -1860.01123046875 2184.60205078125 109.99964904785156
v -1881.047607421875 2206.00439453125 109.99964904785156
v -1881.047607421875 2206.00439453125 104.99964904785156
v -1916.58349609375 2185.0888671875 109.99964904785156
v -1880.9267578125 2220.1474609375 109.99964904785156
v -1881.047607421875 2206.00439453125 104.99964904785156
v -1881.047607421875 2206.00439453125 109.99964904785156
v -1902.443115234375 2184.96826171875 109.99964904785156
v -1902.443115234375 2184.96826171875 104.99964904785156
v -1881.537109375 2149.43212890625 109.9996566772461
v -1916.58349609375 2185.0888671875 109.99964904785156
v -1902.443115234375 2184.96826171875 104.99964904785156
v -1902.443115234375 2184.96826171875 109.99964904785156
v -1881.413818359375 2163.57275390625 109.9996566772461
v -1881.413818359375 2163.57275390625 104.9996566772461
v -1845.8681640625 2184.478515625 109.99964904785156
v -1881.537109375 2149.43212890625 109.9996566772461
v -1881.413818359375 2163.57275390625 104.9996566772461
v -1881.413818359375 2163.57275390625 109.9996566772461
v -1860.01123046875 2184.60205078125 109.99964904785156
v -1860.01123046875 2184.60205078125 104.99964904785156
v -1845.8681640625 2184.478515625 109.99964904785156
v -1880.9267578125 2220.1474609375 109.99964904785156
v -1881.047607421875 2206.00439453125 109.99964904785156
v -1860.01123046875 2184.60205078125 109.99964904785156
v -1916.58349609375 2185.0888671875 109.99964904785156
v -1902.443115234375 2184.96826171875 109.99964904785156
v -1881.537109375 2149.43212890625 109.9996566772461
v -1881.413818359375 2163.57275390625 109.9996566772461
v -1240.582275390625 1026.666259765625 94.99988555908203
v -1275.628662109375 1062.3228759765625 94.99987030029297
v -1240.582275390625 1026.666259765625 104.99988555908203
v -1275.628662109375 1062.3228759765625 104.99987030029297
v -1275.628662109375 1062.3228759765625 94.99987030029297
v -1311.297607421875 1027.276611328125 94.9998779296875
v -1275.628662109375 1062.3228759765625 104.99987030029297
v -1311.297607421875 1027.276611328125 104.9998779296875
v -1311.297607421875 1027.276611328125 94.9998779296875
v -1276.239013671875 991.619873046875 94.9998779296875
v -1311.297607421875 1027.276611328125 104.9998779296875
v -1276.239013671875 991.619873046875 104.9998779296875
v -1276.239013671875 991.619873046875 94.9998779296875
v -1240.582275390625 1026.666259765625 94.99988555908203
v -1276.239013671875 991.619873046875 104.9998779296875
v -1240.582275390625 1026.666259765625 104.99988555908203
v -1240.582275390625 1026.666259765625 104.99988555908203
v -1275.628662109375 1062.3228759765625 104.99987030029297
v -1276.239013671875 991.619873046875 104.9998779296875
v -1311.297607421875 1027.276611328125 104.9998779296875
v -1275.628662109375 1062.3228759765625 109.99986267089844
v -1240.582275390625 1026.666259765625 109.9998779296875
v -1254.7236328125 1026.788330078125 104.9998779296875
v -1254.7236328125 1026.788330078125 109.99987030029297
v -1275.751953125 1048.1822509765625 109.99986267089844
v -1275.751953125 1048.1822509765625 104.99987030029297
v -1311.297607421875 1027.276611328125 109.99987030029297
v -1275.628662109375 1062.3228759765625 109.99986267089844
v -1275.751953125 1048.1822509765625 104.99987030029297
v -1275.751953125 1048.1822509765625 109.99986267089844
v -1297.153564453125 1027.154541015625 109.99987030029297
v -1297.153564453125 1027.154541015625 104.9998779296875
v -1276.239013671875 991.619873046875 109.99987030029297
v -1311.297607421875 1027.276611328125 109.99987030029297
v -1297.153564453125 1027.154541015625 104.9998779296875
v -1297.153564453125 1027.154541015625 109.99987030029297
v -1276.1181640625 1005.76025390625 109.99987030029297
v -1276.1181640625 1005.76025390625 104.9998779296875
v -1240.582275390625 1026.666259765625 109.9998779296875
v -1276.239013671875 991.619873046875 109.99987030029297
v -1276.1181640625 1005.76025390625 104.9998779296875
v -1276.1181640625 1005.76025390625 109.99987030029297
v -1254.7236328125 1026.788330078125 109.99987030029297
v -1254.7236328125 1026.788330078125 104.9998779296875
v -1240.582275390625 1026.666259765625 109.9998779296875
v -1275.628662109375 1062.3228759765625 109.99986267089844
v -1275.751953125 1048.1822509765625 109.99986267089844
v -1254.7236328125 1026.788330078125 109.99987030029297
v -1311.297607421875 1027.276611328125 109.99987030029297
v -1297.153564453125 1027.154541015625 109.99987030029297
v -1276.239013671875 991.619873046875 109.99987030029297
v -1276.1181640625 1005.76025390625 109.99987030029297
f 28 26 27
f 26 25 27
f 14 13 15
f 16 14 15
f 10 9 11
f 12 10 11
f 6 5 7
f 8 6 7
f 2 1 3
f 4 2 3
f 1194 1193 1195
f 1198 1194 1195
f 1197 1194 1198
f 1200 1197 1198
f 1199 1197 1200
f 1196 1199 1200
f 1193 1199 1196
f 1195 1193 1196
f 18 17 19
f 19 17 20
f 20 23 19
f 23 20 22
f 23 22 24
f 24 22 21
f 21 18 24
f 18 21 17
f 1190 1189 1191
f 1191 1189 1192
f 1186 1185 1187
f 1187 1185 1188
f 1182 1181 1183
f 1183 1181 1184
f 1178 1177 1179
f 1179 1177 1180
f 1174 1173 1175
f 1175 1173 1176
f 1170 1169 1171
f 1171 1169 1172
f 1166 1165 1167
f 1167 1165 1168
f 1162 1161 1163
f 1163 1161 1164
f 1130 1129 1131
f 1131 1129 1132
f 1126 1125 1127
f 1127 1125 1128
f 1122 1121 1123
f 1123 1121 1124
f 1118 1117 1119
f 1119 1117 1120
f 1114 1113 1115
f 1115 1113 1116
f 1110 1109 1111
f 1111 1109 1112
f 1106 1105 1107
f 1107 1105 1108
f 1102 1101 1103
f 1103 1101 1104
f 889 880 890
f 890 880 885
f 886 890 885
f 886 885 887
f 887 885 881
f 881 882 887
f 882 883 891
f 882 881 883
f 883 881 884
f 884 881 877
f 878 884 877
f 878 877 879
f 879 877 880
f 880 888 879
f 888 880 889
f 888 889 892
f 854 853 855
f 855 853 856
f 856 859 855
f 859 856 858
f 859 858 860
f 860 858 857
f 857 854 860
f 854 857 853
f 718 717 719
f 719 717 720
f 714 713 715
f 715 713 716
f 710 709 711
f 711 709 712
f 706 705 707
f 707 705 708
f 702 701 703
f 703 701 704
f 698 697 699
f 699 697 700
f 694 693 695
f 695 693 696
f 690 689 691
f 691 689 692
f 658 657 659
f 659 657 660
f 654 653 655
f 655 653 656
f 650 649 651
f 651 649 652
f 646 645 647
f 647 645 648
f 642 641 643
f 643 641 644
f 638 637 639
f 639 637 640
f 634 633 635
f 635 633 636
f 630 629 631
f 631 629 632
f 417 408 418
f 418 408 413
f 414 418 413
f 414 413 415
f 415 413 409
f 409 410 415
f 410 411 419
f 410 409 411
f 411 409 412
f 412 409 405
f 406 412 405
f 406 405 407
f 407 405 408
f 408 416 407
f 416 408 417
f 416 417 420
f 382 381 383
f 383 381 384
f 384 387 383
f 387 384 386
f 387 386 388
f 388 386 385
f 385 382 388
f 382 385 381
f 354 353 355
f 355 353 356
f 350 349 351
f 351 349 352
f 346 345 347
f 347 345 348
f 342 341 343
f 343 341 344
f 338 337 339
f 339 337 340
f 334 333 335
f 335 333 336
f 330 329 331
f 331 329 332
f 326 325 327
f 327 325 328
f 294 293 295
f 295 293 296
f 290 289 291
f 291 289 292
f 286 285 287
f 287 285 288
f 282 281 283
f 283 281 284
f 278 277 279
f 279 277 280
f 274 273 275
f 275 273 276
f 270 269 271
f 271 269 272
f 266 265 267
f 267 265 268
f 47 45 48
f 48 45 41
f 42 48 41
f 42 41 43
f 43 41 44
f 44 52 43
f 52 53 56
f 52 44 53
f 53 44 54
f 54 44 49
f 50 54 49
f 50 49 51
f 51 49 45
f 45 46 51
f 46 45 47
f 46 47 55
f 751 752 747
f 747 748 751
f 747 745 748
f 746 745 747
f 745 746 750
f 750 749 745
f 750 751 749
f 752 751 750
f 1158 1157 1159
f 1159 1160 1158
f 1154 1153 1155
f 1156 1154 1155
f 1150 1149 1151
f 1152 1150 1151
f 1146 1145 1147
f 1148 1146 1147
f 1142 1141 1143
f 1144 1142 1143
f 1134 1133 1135
f 1138 1134 1135
f 1137 1134 1138
f 1140 1137 1138
f 1139 1137 1140
f 1136 1139 1140
f 1133 1139 1136
f 1135 1133 1136
f 30 29 31
f 32 30 31
f 34 33 35
f 36 34 35
f 38 37 39
f 40 38 39
f 246 245 247
f 248 246 247
f 250 249 251
f 252 250 251
f 254 253 255
f 256 254 255
f 258 257 259
f 260 258 259
f 262 261 263
f 263 264 262
f 298 297 299
f 302 298 299
f 301 298 302
f 304 301 302
f 303 301 304
f 300 303 304
f 297 303 300
f 299 297 300
f 1098 1097 1099
f 1099 1100 1098
f 1094 1093 1095
f 1096 1094 1095
f 1090 1089 1091
f 1092 1090 1091
f 1086 1085 1087
f 1088 1086 1087
f 1082 1081 1083
f 1084 1082 1083
f 874 873 875
f 876 874 875
f 870 869 871
f 872 870 871
f 866 865 867
f 868 866 867
f 862 861 863
f 864 862 863
f 850 849 851
f 852 850 851
f 846 845 847
f 848 846 847
f 842 841 843
f 844 842 843
f 838 837 839
f 840 838 839
f 770 769 771
f 770 771 776
f 776 771 775
f 775 773 776
f 773 775 772
f 773 772 774
f 774 772 769
f 769 770 774
f 766 765 767
f 768 766 767
f 762 761 763
f 764 762 763
f 758 757 759
f 760 758 759
f 754 753 755
f 756 754 755
f 742 741 743
f 744 742 743
f 738 737 739
f 740 738 739
f 734 733 735
f 736 734 735
f 730 729 731
f 732 730 731
f 722 721 723
f 726 722 723
f 725 722 726
f 728 725 726
f 727 725 728
f 724 727 728
f 721 727 724
f 723 721 724
f 306 305 307
f 308 306 307
f 310 309 311
f 312 310 311
f 314 313 315
f 316 314 315
f 318 317 319
f 320 318 319
f 322 321 323
f 323 324 322
f 358 357 359
f 362 358 359
f 361 358 362
f 364 361 362
f 363 361 364
f 360 363 364
f 357 363 360
f 359 357 360
f 686 685 687
f 687 688 686
f 682 681 683
f 684 682 683
f 678 677 679
f 680 678 679
f 674 673 675
f 676 674 675
f 670 669 671
f 672 670 671
f 662 661 663
f 666 662 663
f 665 662 666
f 668 665 666
f 667 665 668
f 664 667 668
f 661 667 664
f 663 661 664
f 366 365 367
f 368 366 367
f 370 369 371
f 372 370 371
f 374 373 375
f 376 374 375
f 378 377 379
f 380 378 379
f 390 389 391
f 392 390 391
f 394 393 395
f 396 394 395
f 398 397 399
f 400 398 399
f 402 401 403
f 404 402 403
f 610 609 611
f 612 610 611
f 614 613 615
f 616 614 615
f 618 617 619
f 620 618 619
f 622 621 623
f 624 622 623
f 626 625 627
f 627 628 626
f 58 57 59
f 60 58 59
f 938 937 939
f 940 938 939
f 934 933 935
f 936 934 935
f 930 929 931
f 932 930 931
f 926 925 927
f 928 926 927
f 922 921 923
f 924 922 923
f 918 917 919
f 920 918 919
f 914 913 915
f 916 914 915
f 910 909 911
f 912 910 911
f 906 905 907
f 908 906 907
f 902 901 903
f 904 902 903
f 898 897 899
f 900 898 899
f 894 893 895
f 896 894 895
f 790 789 791
f 792 790 791
f 786 785 787
f 788 786 787
f 782 781 783
f 784 782 783
f 778 777 779
f 780 778 779
f 466 465 467
f 468 466 467
f 462 461 463
f 464 462 463
f 458 457 459
f 460 458 459
f 454 453 455
f 456 454 455
f 450 449 451
f 452 450 451
f 446 445 447
f 448 446 447
f 442 441 443
f 444 442 443
f 438 437 439
f 440 438 439
f 434 433 435
f 436 434 435
f 430 429 431
f 432 430 431
f 426 425 427
f 428 426 427
f 422 421 423
f 424 422 423
f 102 101 103
f 104 102 103
f 98 97 99
f 100 98 99
f 94 93 95
f 96 94 95
f 90 89 91
f 92 90 91
f 86 85 87
f 88 86 87
f 82 81 83
f 84 82 83
f 78 77 79
f 80 78 79
f 74 73 75
f 76 74 75
f 70 69 71
f 72 70 71
f 66 65 67
f 68 66 67
f 64 62 63
f 62 61 63
f 794 793 795
f 795 796 794
f 942 941 943
f 949 950 943
f 944 949 943
f 943 941 944
f 944 941 946
f 945 944 946
f 946 948 945
f 948 946 960
f 947 948 960
f 948 947 949
f 947 950 949
f 957 959 956
f 959 947 956
f 950 947 959
f 951 950 959
f 950 951 952
f 951 953 952
f 953 951 958
f 958 957 953
f 957 954 953
f 956 954 957
f 955 954 956
f 475 476 488
f 476 475 477
f 476 474 488
f 474 476 473
f 473 472 474
f 472 469 474
f 471 469 472
f 472 477 471
f 477 478 471
f 475 478 477
f 478 475 487
f 487 475 484
f 470 469 471
f 483 482 484
f 485 487 484
f 484 482 485
f 485 482 481
f 486 485 481
f 481 479 486
f 479 481 480
f 478 479 480
f 479 478 487
f 115 114 123
f 114 115 116
f 115 117 116
f 117 115 122
f 122 121 117
f 121 118 117
f 120 118 121
f 119 118 120
f 121 123 120
f 123 111 120
f 106 105 107
f 107 105 108
f 108 105 110
f 109 108 110
f 110 112 109
f 112 110 124
f 111 112 124
f 112 111 113
f 111 114 113
f 114 111 123
f 108 113 107
f 113 114 107
f 146 145 147
f 147 145 148
f 830 829 831
f 834 830 831
f 833 830 834
f 836 833 834
f 835 833 836
f 832 835 836
f 829 835 832
f 831 829 832
f 142 141 143
f 143 141 144
f 138 137 139
f 139 137 140
f 134 133 135
f 135 133 136
f 130 129 131
f 131 129 132
f 126 125 127
f 127 125 128
f 1054 1053 1055
f 1055 1053 1056
f 1050 1049 1051
f 1051 1049 1052
f 1046 1045 1047
f 1047 1045 1048
f 1042 1041 1043
f 1043 1041 1044
f 1038 1037 1039
f 1039 1037 1040
f 1034 1033 1035
f 1035 1033 1036
f 1030 1029 1031
f 1031 1029 1032
f 1026 1025 1027
f 1027 1025 1028
f 1022 1021 1023
f 1023 1021 1024
f 1018 1017 1019
f 1019 1017 1020
f 1014 1013 1015
f 1015 1013 1016
f 1010 1009 1011
f 1011 1009 1012
f 1006 1005 1007
f 1007 1005 1008
f 1002 1001 1003
f 1003 1001 1004
f 998 997 999
f 999 997 1000
f 994 993 995
f 995 993 996
f 990 989 991
f 991 989 992
f 986 985 987
f 987 985 988
f 982 981 983
f 983 981 984
f 978 977 979
f 979 977 980
f 974 973 975
f 975 973 976
f 970 969 971
f 971 969 972
f 966 965 967
f 967 965 968
f 962 961 963
f 963 961 964
f 826 825 827
f 827 825 828
f 822 821 823
f 823 821 824
f 818 817 819
f 819 817 820
f 814 813 815
f 815 813 816
f 810 809 811
f 811 809 812
f 806 805 807
f 807 805 808
f 802 801 803
f 803 801 804
f 798 797 799
f 799 797 800
f 582 581 583
f 583 581 584
f 578 577 579
f 579 577 580
f 574 573 575
f 575 573 576
f 570 569 571
f 571 569 572
f 566 565 567
f 567 565 568
f 562 561 563
f 563 561 564
f 558 557 559
f 559 557 560
f 554 553 555
f 555 553 556
f 550 549 551
f 551 549 552
f 546 545 547
f 547 545 548
f 542 541 543
f 543 541 544
f 538 537 539
f 539 537 540
f 534 533 535
f 535 533 536
f 530 529 531
f 531 529 532
f 526 525 527
f 527 525 528
f 522 521 523
f 523 521 524
f 518 517 519
f 519 517 520
f 514 513 515
f 515 513 516
f 510 509 511
f 511 509 512
f 506 505 507
f 507 505 508
f 502 501 503
f 503 501 504
f 498 497 499
f 499 497 500
f 494 493 495
f 495 493 496
f 490 489 491
f 491 489 492
f 218 217 219
f 219 217 220
f 214 213 215
f 215 213 216
f 210 209 211
f 211 209 212
f 206 205 207
f 207 205 208
f 202 201 203
f 203 201 204
f 198 197 199
f 199 197 200
f 194 193 195
f 195 193 196
f 190 189 191
f 191 189 192
f 186 185 187
f 187 185 188
f 182 181 183
f 183 181 184
f 178 177 179
f 179 177 180
f 174 173 175
f 175 173 176
f 170 169 171
f 171 169 172
f 166 165 167
f 167 165 168
f 162 161 163
f 163 161 164
f 158 157 159
f 159 157 160
f 154 153 155
f 155 153 156
f 150 149 151
f 151 149 152
f 1074 1071 1072
f 1071 1069 1072
f 1072 1069 1070
f 1069 1067 1070
f 1059 1057 1060
f 1057 1079 1060
f 1060 1079 1080
f 1079 1077 1080
f 1080 1077 1078
f 1077 1075 1078
f 1078 1075 1076
f 1075 1073 1076
f 1076 1073 1074
f 1073 1071 1074
f 1070 1067 1068
f 1067 1065 1068
f 1068 1065 1066
f 1065 1063 1066
f 1066 1063 1064
f 1063 1061 1064
f 1064 1061 1062
f 1061 1058 1062
f 1062 1058 1059
f 1058 1057 1059
f 602 599 600
f 599 597 600
f 600 597 598
f 597 595 598
f 587 585 588
f 585 607 588
f 588 607 608
f 607 605 608
f 608 605 606
f 605 603 606
f 606 603 604
f 603 601 604
f 604 601 602
f 601 599 602
f 598 595 596
f 595 593 596
f 596 593 594
f 593 591 594
f 594 591 592
f 591 589 592
f 592 589 590
f 589 586 590
f 590 586 587
f 586 585 587
f 226 222 223
f 222 221 223
f 223 221 224
f 221 243 224
f 236 233 234
f 233 231 234
f 234 231 232
f 231 229 232
f 232 229 230
f 229 227 230
f 230 227 228
f 227 225 228
f 228 225 226
f 225 222 226
f 224 243 244
f 243 241 244
f 244 241 242
f 241 239 242
f 242 239 240
f 239 237 240
f 240 237 238
f 237 235 238
f 238 235 236
f 235 233 236
