# from FinancialDistrict_Block29_Generic_0020_LOD_0.pskx
v 1574.1734619140625 -1421.10302734375 39.97499465942383
v 240.1392822265625 -1245.718017578125 39.97501754760742
v 1574.1734619140625 -1421.10302734375 80.02499389648438
v 240.1392822265625 -1245.718017578125 80.02501678466797
v 240.1675567626953 -1245.696533203125 39.97502517700195
v 236.6149139404297 -1272.7359619140625 39.97482681274414
v 240.1675567626953 -1245.696533203125 80.0250244140625
v 236.6149139404297 -1272.7359619140625 80.02482604980469
v 236.5933837890625 -1272.7078857421875 39.97482681274414
v 1570.6273193359375 -1448.0927734375 39.97510528564453
v 236.5933837890625 -1272.7078857421875 80.02482604980469
v 1570.6273193359375 -1448.0927734375 80.02510070800781
v 1570.5992431640625 -1448.1142578125 39.97510528564453
v 1574.1519775390625 -1421.074951171875 39.974998474121094
v 1570.5992431640625 -1448.1142578125 80.02510070800781
v 1574.1519775390625 -1421.074951171875 80.0250015258789
v 1572.41650390625 -1434.4661865234375 195.96400451660156
v 238.37486267089844 -1259.1405029296875 100.44044494628906
v 1572.4088134765625 -1434.5255126953125 100.4404296875
v 238.3826904296875 -1259.081298828125 195.96401977539062
v 1572.2181396484375 -1435.974853515625 234.73399353027344
v 238.17222595214844 -1260.681884765625 207.9310302734375
v 1572.2061767578125 -1436.066650390625 207.93101501464844
v 238.184326171875 -1260.590087890625 234.7340087890625
v 1572.2503662109375 -1435.72998046875 207.968017578125
v 238.18429565429688 -1260.59033203125 234.7340087890625
v 1572.2181396484375 -1435.9752197265625 234.73399353027344
v 238.21658325195312 -1260.344970703125 207.96803283691406
v 1572.4788818359375 -1433.9920654296875 100.41741943359375
v 238.445068359375 -1258.6070556640625 196.00401306152344
v 1572.4788818359375 -1433.9920654296875 196.00399780273438
v 238.445068359375 -1258.6070556640625 100.41744232177734
v 1572.4818115234375 -1433.9698486328125 195.99009704589844
v 238.445068359375 -1258.6070556640625 198.46702575683594
v 1572.4788818359375 -1433.9920654296875 198.4669952392578
v 238.44798278808594 -1258.5848388671875 195.9901123046875
v 1572.242919921875 -1435.9781494140625 194.98941040039062
v 238.15953063964844 -1260.5869140625 194.9894256591797
v 1571.95751953125 -1437.9578857421875 195.96400451660156
v 237.923583984375 -1262.572998046875 195.96401977539062
v 1571.95458984375 -1437.97998046875 198.43081665039062
v 237.92066955566406 -1262.59521484375 198.43084716796875
v 1572.242919921875 -1435.9781494140625 199.44200134277344
v 238.15953063964844 -1260.5869140625 199.44203186035156
v 1572.4818115234375 -1433.9698486328125 198.43081665039062
v 238.44798278808594 -1258.5849609375 198.43084716796875
v 1572.476318359375 -1434.0115966796875 198.42662048339844
v 238.8209228515625 -1255.7476806640625 200.69342041015625
v 1572.854736328125 -1431.1326904296875 200.69338989257812
v 238.44248962402344 -1258.6265869140625 198.42665100097656
v 1572.4818115234375 -1433.9697265625 98.02434539794922
v 238.445068359375 -1258.6070556640625 100.46744537353516
v 1572.4788818359375 -1433.9920654296875 100.46742248535156
v 238.447998046875 -1258.5848388671875 98.02436828613281
v 1572.242919921875 -1435.9781494140625 97.04243469238281
v 238.15953063964844 -1260.5869140625 97.0424575805664
v 1571.95751953125 -1437.9578857421875 98.01741790771484
v 237.923583984375 -1262.572998046875 98.01744842529297
v 1571.95458984375 -1437.97998046875 100.43124389648438
v 237.92066955566406 -1262.59521484375 100.43126678466797
v 1572.242919921875 -1435.9781494140625 101.44242095947266
v 238.15953063964844 -1260.5869140625 101.44243621826172
v 1572.4818115234375 -1433.9698486328125 100.43124389648438
v 238.44798278808594 -1258.5849609375 100.43126678466797
v 1572.611572265625 -1432.9830322265625 96.9823226928711
v 238.44276428222656 -1258.6246337890625 98.01770782470703
v 1572.4765625 -1434.009521484375 98.0176773071289
v 238.57762145996094 -1257.59814453125 96.98235321044922
v 1572.178466796875 -1436.08544921875 207.93124389648438
v 1572.229248046875 -1435.699462890625 207.9683837890625
v 1572.193359375 -1435.9716796875 234.70932006835938
v 1571.927978515625 -1437.990478515625 198.46435546875
v 1572.4588623046875 -1433.952880859375 198.46435546875
v 1572.193359375 -1435.9716796875 199.48672485351562
v 1571.927978515625 -1437.990478515625 195.9666290283203
v 1572.4588623046875 -1433.9530029296875 195.95660400390625
v 1572.193359375 -1435.9718017578125 194.94464111328125
v 1571.927978515625 -1437.990478515625 100.46478271484375
v 1572.4588623046875 -1433.952880859375 100.46478271484375
v 1572.193359375 -1435.9716796875 101.48714447021484
v 1571.927978515625 -1437.990478515625 98.02005767822266
v 1572.458740234375 -1433.953125 97.99093627929688
v 1572.193359375 -1435.971923828125 96.9975814819336
v 238.2091064453125 -1260.5933837890625 234.70933532714844
v 238.2449493408203 -1260.321044921875 207.96839904785156
v 238.19410705566406 -1260.7071533203125 207.93125915527344
v 238.2091064453125 -1260.5933837890625 199.48675537109375
v 238.4745635986328 -1258.574462890625 198.46438598632812
v 237.9436492919922 -1262.6121826171875 198.46438598632812
v 237.9436492919922 -1262.6121826171875 195.96664428710938
v 238.47454833984375 -1258.5745849609375 195.9566192626953
v 238.20909118652344 -1260.593505859375 194.9446563720703
v 238.2091064453125 -1260.5933837890625 101.4871597290039
v 238.4745635986328 -1258.574462890625 100.46480560302734
v 237.9436492919922 -1262.6121826171875 100.46480560302734
v 237.9436492919922 -1262.6121826171875 98.02008819580078
v 238.4745330810547 -1258.57470703125 97.99095916748047
v 238.20907592773438 -1260.5936279296875 96.99760437011719
v 1574.1734619140625 -1421.10302734375 -0.02500148117542267
v 240.1392822265625 -1245.718017578125 -0.0249751228839159
v 1574.1734619140625 -1421.10302734375 40.02499771118164
v 240.1392822265625 -1245.718017578125 40.025020599365234
v 240.1675567626953 -1245.696533203125 -0.0249751266092062
v 236.6149139404297 -1272.7359619140625 -0.025172922760248184
v 240.1675567626953 -1245.696533203125 40.025028228759766
v 236.6149139404297 -1272.7359619140625 40.02482986450195
v 236.5933837890625 -1272.7078857421875 -0.025172920897603035
v 1570.6273193359375 -1448.0927734375 -0.024899277836084366
v 236.5933837890625 -1272.7078857421875 40.02482986450195
v 1570.6273193359375 -1448.0927734375 40.025108337402344
v 1570.5992431640625 -1448.1142578125 -0.024899279698729515
v 1574.1519775390625 -1421.074951171875 -0.025001484900712967
v 1570.5992431640625 -1448.1142578125 40.025108337402344
v 1574.1519775390625 -1421.074951171875 40.025001525878906
v 1574.1719970703125 -1421.095947265625 79.98748779296875
v 240.142578125 -1245.711669921875 79.98751831054688
v 1568.078125 -1425.79541015625 90.03143310546875
v 244.81549072265625 -1251.8265380859375 90.03141784667969
v 240.16050720214844 -1245.697998046875 79.98751831054688
v 236.60848999023438 -1272.732666015625 79.98731231689453
v 244.86007690429688 -1251.7923583984375 90.03145599365234
v 242.72271728515625 -1268.059814453125 90.03125
v 236.59490966796875 -1272.7149658203125 79.98731231689453
v 1570.6239013671875 -1448.09912109375 79.98759460449219
v 242.6885986328125 -1268.015380859375 90.03125762939453
v 1565.950927734375 -1441.984130859375 90.031494140625
v 1570.6063232421875 -1448.11279296875 79.98759460449219
v 1574.1583251953125 -1421.0782470703125 79.98748779296875
v 1565.9066162109375 -1442.0184326171875 90.03153228759766
v 1568.0439453125 -1425.7509765625 90.03143310546875
v 244.8186798095703 -1251.784423828125 90.00003051757812
v 1565.947998046875 -1442.0263671875 90.00010681152344
v 1568.0860595703125 -1425.7540283203125 90.0
v 242.68069458007812 -1268.0567626953125 89.99982452392578
v -985.3787841796875 1371.169921875 45.83333969116211
v -1570.6273193359375 1448.0927734375 45.83340835571289
v -985.3787841796875 1371.169921875 75.88334655761719
v -1570.6273193359375 1448.0927734375 75.88341522216797
v -1570.5992431640625 1448.1142578125 45.83340835571289
v -1574.1519775390625 1421.074951171875 45.83320999145508
v -1570.5992431640625 1448.1142578125 75.88341522216797
v -1574.1519775390625 1421.074951171875 75.88320922851562
v -1574.1734619140625 1421.10302734375 45.83320999145508
v -988.9246826171875 1344.18017578125 45.83344268798828
v -1574.1734619140625 1421.10302734375 75.88320922851562
v -988.9246826171875 1344.18017578125 75.8834457397461
v -988.9526977539062 1344.15869140625 45.83344268798828
v -985.4003295898438 1371.197998046875 45.83333969116211
v -988.9526977539062 1344.15869140625 75.8834457397461
v -985.4003295898438 1371.197998046875 75.88334655761719
v -1572.4171142578125 1434.466552734375 191.8222198486328
v -987.1602783203125 1357.602783203125 96.29886627197266
v -1572.4090576171875 1434.525634765625 96.29864501953125
v -987.1680908203125 1357.54345703125 191.82244873046875
v -1572.2188720703125 1435.9752197265625 230.5922088623047
v -986.9578857421875 1359.1439208984375 203.78944396972656
v -1572.2066650390625 1436.06689453125 203.7892303466797
v -986.9700927734375 1359.05224609375 230.59243774414062
v -1572.2508544921875 1435.730224609375 203.82623291015625
v -986.9700317382812 1359.052490234375 230.59243774414062
v -1572.2188720703125 1435.9755859375 230.5922088623047
v -987.0020751953125 1358.80712890625 203.82644653320312
v -1572.4793701171875 1433.9921875 96.275634765625
v -987.2305908203125 1357.0693359375 191.86244201660156
v -1572.4793701171875 1433.992431640625 191.8622283935547
v -987.2305908203125 1357.0693359375 96.2758560180664
v -1572.4793701171875 1433.992431640625 191.81224060058594
v -987.2305908203125 1357.0693359375 194.32545471191406
v -1572.4793701171875 1433.992431640625 194.32522583007812
v -987.2305908203125 1357.0693359375 191.8124542236328
v -1572.24365234375 1435.978515625 190.84764099121094
v -986.9453125 1359.049072265625 190.8478546142578
v -1571.9552001953125 1437.9803466796875 191.85841369628906
v -986.7064208984375 1361.057373046875 191.85862731933594
v -1571.9581298828125 1437.958251953125 194.32522583007812
v -986.7093505859375 1361.03515625 194.32545471191406
v -1572.24365234375 1435.978515625 195.30023193359375
v -986.9453125 1359.049072265625 195.3004608154297
v -1572.4822998046875 1433.97021484375 194.28904724121094
v -987.2335205078125 1357.0472412109375 194.28927612304688
v -1572.476806640625 1434.011962890625 194.28485107421875
v -987.6064453125 1354.2099609375 196.55184936523438
v -1572.855224609375 1431.133056640625 196.55162048339844
v -987.22802734375 1357.0888671875 194.2850799560547
v -1572.4822998046875 1433.9698486328125 93.88255310058594
v -987.2305908203125 1357.0693359375 96.32585906982422
v -1572.4793701171875 1433.9921875 96.32563781738281
v -987.2335205078125 1357.047119140625 93.88278198242188
v -1572.24365234375 1435.978271484375 92.90064239501953
v -986.9453125 1359.049072265625 92.90087890625
v -1571.9581298828125 1437.9580078125 93.8756332397461
v -986.7093505859375 1361.03515625 93.87586212158203
v -1571.9552001953125 1437.9801025390625 96.2894515991211
v -986.7064208984375 1361.057373046875 96.28968048095703
v -1572.24365234375 1435.978271484375 97.3006362915039
v -986.9453125 1359.049072265625 97.30085754394531
v -1572.4822998046875 1433.969970703125 96.2894515991211
v -987.2335205078125 1357.0472412109375 96.28968048095703
v -1572.612060546875 1432.983154296875 92.84053039550781
v -987.228271484375 1357.0869140625 93.8761215209961
v -1572.47705078125 1434.0096435546875 93.87588500976562
v -987.36328125 1356.0604248046875 92.84076690673828
v -1572.178955078125 1436.085693359375 203.78945922851562
v -1572.229736328125 1435.69970703125 203.82659912109375
v -1572.194091796875 1435.9720458984375 230.56753540039062
v -1571.9285888671875 1437.9908447265625 194.3225860595703
v -1572.4593505859375 1433.9532470703125 194.3225860595703
v -1572.194091796875 1435.9720458984375 195.34495544433594
v -1571.9285888671875 1437.9908447265625 191.82485961914062
v -1572.4593505859375 1433.953369140625 191.81483459472656
v -1572.194091796875 1435.97216796875 190.80287170410156
v -1571.9285888671875 1437.9906005859375 96.322998046875
v -1572.4593505859375 1433.9530029296875 96.322998046875
v -1572.194091796875 1435.9718017578125 97.3453598022461
v -1571.9285888671875 1437.9906005859375 93.8782730102539
v -1572.459228515625 1433.9532470703125 93.8491439819336
v -1572.194091796875 1435.9720458984375 92.85578918457031
v -986.994873046875 1359.0555419921875 230.56776428222656
v -987.0304565429688 1358.783203125 203.82681274414062
v -986.979736328125 1359.169189453125 203.7896728515625
v -986.994873046875 1359.0555419921875 195.34518432617188
v -987.2600708007812 1357.0367431640625 194.32281494140625
v -986.7294311523438 1361.0743408203125 194.32281494140625
v -986.7294311523438 1361.0743408203125 191.82508850097656
v -987.2600708007812 1357.036865234375 191.81504821777344
v -986.994873046875 1359.0556640625 190.80308532714844
v -986.994873046875 1359.0555419921875 97.3455810546875
v -987.2600708007812 1357.0367431640625 96.3232192993164
v -986.7294311523438 1361.0743408203125 96.3232192993164
v -986.7294311523438 1361.0743408203125 93.87850189208984
v -987.2600708007812 1357.0369873046875 93.84937286376953
v -986.994873046875 1359.0557861328125 92.85602569580078
v -985.3787841796875 1371.169921875 -4.1666579246521
v -1570.6273193359375 1448.0927734375 -4.166590690612793
v -985.3787841796875 1371.169921875 45.88334274291992
v -1570.6273193359375 1448.0927734375 45.8834114074707
v -1570.5992431640625 1448.1142578125 -4.166590690612793
v -1574.1519775390625 1421.074951171875 -4.166787624359131
v -1570.5992431640625 1448.1142578125 45.8834114074707
v -1574.1519775390625 1421.074951171875 45.88321304321289
v -1574.1734619140625 1421.10302734375 -4.166787624359131
v -988.9246826171875 1344.18017578125 -4.166555881500244
v -1574.1734619140625 1421.10302734375 45.88321304321289
v -988.9246826171875 1344.18017578125 45.883445739746094
v -988.9526977539062 1344.15869140625 -4.166555881500244
v -985.4003295898438 1371.197998046875 -4.1666579246521
v -988.9526977539062 1344.15869140625 45.883445739746094
v -985.4003295898438 1371.197998046875 45.88334274291992
v -985.380126953125 1371.1768798828125 75.84520721435547
v -1570.624267578125 1448.0989990234375 75.84527587890625
v -991.0595703125 1366.7965087890625 85.88982391357422
v -1566.268798828125 1442.39990234375 85.88988494873047
v -1570.606201171875 1448.1129150390625 75.84528350830078
v -1574.158203125 1421.0780029296875 75.84507751464844
v -1566.2255859375 1442.4332275390625 85.889892578125
v -1568.4591064453125 1425.4329833984375 85.88975524902344
v -1574.172119140625 1421.0960693359375 75.8450698852539
v -988.927734375 1344.1739501953125 75.84530639648438
v -1568.492431640625 1425.4764404296875 85.88970184326172
v -993.283203125 1349.873046875 85.8899154663086
v -988.9458618164062 1344.1600341796875 75.8453140258789
v -985.3939819335938 1371.1949462890625 75.84523010253906
v -993.3265991210938 1349.8397216796875 85.88992309570312
v -991.0928955078125 1366.8399658203125 85.88980865478516
v -1566.265869140625 1442.4407958984375 85.85841369628906
v -993.2863159179688 1349.8321533203125 85.85844421386719
v -991.0520629882812 1366.8367919921875 85.85834503173828
v -1568.5 1425.4361572265625 85.85821533203125
v -986.7093505859375 1361.03515625 96.32585906982422
v -1571.9581298828125 1437.9580078125 96.32563781738281
v -986.7064208984375 1361.057373046875 93.91204071044922
v -1571.9552001953125 1437.9801025390625 93.91181182861328
v -987.2305908203125 1357.0693359375 93.84686279296875
v -1572.4793701171875 1433.9921875 93.84663391113281
v -987.2335205078125 1357.047119140625 191.84854125976562
v -1572.4822998046875 1433.97021484375 191.84832763671875
v -986.7093505859375 1361.03515625 191.8224639892578
v -1571.9581298828125 1437.958251953125 191.82223510742188
v -986.7064208984375 1361.057373046875 194.28927612304688
v -1571.9552001953125 1437.9803466796875 194.28904724121094
v 237.923583984375 -1262.572998046875 100.46744537353516
v 1571.95751953125 -1437.9578857421875 100.46742248535156
v 237.92066955566406 -1262.59521484375 98.05362701416016
v 1571.95458984375 -1437.97998046875 98.05359649658203
v 238.445068359375 -1258.6070556640625 97.98844909667969
v 1572.4788818359375 -1433.9920654296875 97.9884262084961
v 237.923583984375 -1262.572998046875 198.46702575683594
v 1571.95751953125 -1437.9578857421875 198.4669952392578
v 237.92066955566406 -1262.59521484375 196.00018310546875
v 1571.95458984375 -1437.97998046875 196.0001678466797
v 238.445068359375 -1258.6070556640625 195.9540252685547
v 1572.4788818359375 -1433.9920654296875 195.95401000976562
f 2 1 3
f 4 2 3
f 262 261 263
f 264 262 263
f 258 257 259
f 260 258 259
f 254 253 255
f 256 254 255
f 250 249 251
f 252 250 251
f 246 245 247
f 248 246 247
f 148 147 149
f 150 148 149
f 144 143 145
f 146 144 145
f 140 139 141
f 142 140 141
f 136 135 137
f 138 136 137
f 128 127 129
f 130 128 129
f 124 123 125
f 126 124 125
f 120 119 121
f 122 120 121
f 116 115 117
f 118 116 117
f 104 103 105
f 106 104 105
f 14 13 15
f 16 14 15
f 10 9 11
f 12 10 11
f 6 5 7
f 8 6 7
f 131 132 134
f 132 131 133
f 265 266 268
f 266 265 267
f 100 99 101
f 102 100 101
f 242 241 243
f 244 242 243
f 238 237 239
f 240 238 239
f 234 233 235
f 236 234 235
f 112 111 113
f 114 112 113
f 108 107 109
f 110 108 109
f 70 69 71
f 222 221 223
f 223 224 222
f 224 225 222
f 225 224 226
f 91 90 92
f 90 91 88
f 89 90 88
f 88 87 89
f 196 198 197
f 196 197 195
f 194 196 195
f 194 195 193
f 192 269 270
f 192 270 191
f 190 271 272
f 190 272 189
f 188 190 189
f 188 189 185
f 186 273 274
f 186 274 187
f 168 167 169
f 168 170 167
f 275 171 276
f 275 172 171
f 172 173 171
f 172 174 173
f 277 175 278
f 277 176 175
f 279 177 280
f 279 178 177
f 178 179 177
f 178 180 179
f 62 64 63
f 62 63 61
f 60 62 61
f 60 61 59
f 58 281 282
f 58 282 57
f 56 283 284
f 56 284 55
f 54 56 55
f 54 55 51
f 52 285 286
f 52 286 53
f 44 46 45
f 44 45 43
f 42 44 43
f 42 43 41
f 40 287 288
f 40 288 39
f 38 289 290
f 38 290 37
f 36 38 37
f 36 37 33
f 34 291 292
f 34 292 35
f 76 77 75
f 75 73 76
f 72 73 75
f 73 72 74
f 219 218 220
f 82 83 81
f 81 79 82
f 78 79 81
f 79 78 80
f 216 217 215
f 215 213 216
f 212 213 215
f 213 212 214
f 94 93 95
f 95 96 94
f 96 97 94
f 97 96 98
f 210 211 209
f 209 207 210
f 206 207 209
f 207 206 208
f 228 227 229
f 229 230 228
f 230 231 228
f 231 230 232
f 204 203 205
f 26 28 25
f 26 25 27
f 30 32 29
f 30 29 31
f 48 50 47
f 48 47 49
f 66 68 65
f 66 65 67
f 152 154 151
f 152 151 153
f 156 158 155
f 156 155 157
f 160 162 159
f 160 159 161
f 164 166 163
f 164 163 165
f 182 184 181
f 182 181 183
f 200 202 199
f 200 199 201
f 18 20 17
f 18 17 19
f 22 24 21
f 22 21 23
f 85 84 86
