# from FinancialDistrict_Block42_Industrial Zone (LC)_0013_LOD_0.pskx
v 541.4312744140625 437.530517578125 -0.025039346888661385
v 841.4813232421875 437.518310546875 -0.02502623200416565
v 541.4312744140625 437.530517578125 400.02496337890625
v 841.4813232421875 437.51837158203125 400.02496337890625
v 841.456298828125 437.4933166503906 -0.02502622827887535
v 841.456298828125 1437.4945068359375 -0.025113649666309357
v 841.456298828125 896.3201904296875 50.024932861328125
v 841.456298828125 896.3202514648438 273.9749450683594
v 841.456298828125 1316.270263671875 273.9748840332031
v 841.456298828125 437.4933776855469 400.02496337890625
v 841.456298828125 1437.4945068359375 400.0248718261719
v 841.456298828125 1316.2701416015625 50.024898529052734
v 831.4312744140625 896.2702026367188 273.99993896484375
v 841.4813232421875 1316.3203125 273.9998779296875
v 841.4813232421875 896.2702026367188 273.99993896484375
v 831.4312744140625 1316.3203125 273.9998779296875
v 831.4312744140625 896.2701416015625 49.99993133544922
v 841.4813232421875 896.2701416015625 49.99993133544922
v 841.4813232421875 1316.3201904296875 49.99989700317383
v 831.4312744140625 1316.3201904296875 49.99989700317383
v 831.4312744140625 896.2952270507812 274.0249328613281
v 841.4813232421875 896.295166015625 49.97492980957031
v 831.4312744140625 896.295166015625 49.97492980957031
v 841.4813232421875 896.2952270507812 274.0249328613281
v 831.4312744140625 1316.2952880859375 274.0248718261719
v 831.4312744140625 1316.295166015625 49.97489547729492
v 841.4813232421875 1316.295166015625 49.97489547729492
v 841.4813232421875 1316.2952880859375 274.0248718261719
v 541.4312744140625 1437.5555419921875 399.9998779296875
v 541.4312744140625 437.5055236816406 399.9999694824219
v 841.4813232421875 1437.4945068359375 399.9998779296875
v 841.4813232421875 437.4933776855469 399.9999694824219
v 841.4312744140625 1437.506103515625 -0.025113653391599655
v 941.4813232421875 1437.506103515625 -0.02510928176343441
v 841.4312744140625 1437.506103515625 400.0248718261719
v 941.4813232421875 1437.506103515625 400.0248718261719
v 941.456298828125 1437.4810791015625 -0.02510928176343441
v 941.456298828125 1613.7030029296875 -0.0251246839761734
v 941.456298828125 1613.7030029296875 323.6868591308594
v 941.456298828125 2061.1533203125 323.68682861328125
v 941.456298828125 1437.4810791015625 400.0248718261719
v 941.456298828125 2061.153076171875 -0.025163786485791206
v 941.456298828125 2237.531005859375 -0.025179220363497734
v 941.456298828125 2237.531005859375 400.0248107910156
v 941.4813232421875 2237.506103515625 -0.025179218500852585
v -458.5686950683594 2237.506103515625 -0.02524041384458542
v 941.4813232421875 2237.506103515625 400.0248107910156
v -458.5686950683594 2237.506103515625 400.0247497558594
v 841.4431762695312 1437.4598388671875 399.9998779296875
v 941.4813232421875 1437.4810791015625 399.9998779296875
v 941.4813232421875 2237.531005859375 399.99981689453125
v -458.5567932128906 2237.509765625 399.999755859375
v -458.5686950683594 1437.4810791015625 399.99981689453125
v 941.4813232421875 2237.531005859375 399.99981689453125
v 941.4813232421875 1437.4810791015625 399.9998779296875
v -458.5686950683594 2237.531005859375 399.999755859375
v -458.5686950683594 1437.506103515625 399.9748229980469
v 941.4813232421875 1437.506103515625 399.9748840332031
v 261.7327575683594 1437.506103515625 700.02490234375
v 261.7327575683594 1437.506103515625 959.6848754882812
v 385.2149963378906 1437.506103515625 959.6848754882812
v -458.5686950683594 1437.506103515625 1100.02490234375
v 941.4813232421875 1437.5062255859375 1100.02490234375
v 385.2149963378906 1437.506103515625 700.02490234375
v 941.456298828125 1437.4810791015625 399.9748840332031
v 941.456298828125 2237.531005859375 399.9748229980469
v 941.456298828125 1737.5311279296875 960.638916015625
v 941.456298828125 1737.5311279296875 1020.5889282226562
v 941.456298828125 1947.481201171875 1020.5888671875
v 941.456298828125 1437.481201171875 1100.02490234375
v 941.456298828125 2237.53125 1100.0247802734375
v 941.456298828125 1947.481201171875 960.6388549804688
v 941.4813232421875 2237.506103515625 399.9748229980469
v -458.5686950683594 2237.506103515625 399.9747619628906
v 316.6876525878906 2237.506103515625 800.0248413085938
v 316.6876525878906 2237.506103515625 999.9747924804688
v -83.2623519897461 2237.506103515625 999.9747314453125
v -162.76791381835938 2237.506103515625 1027.131591796875
v -372.7176818847656 2237.506103515625 1027.131591796875
v 941.4813232421875 2237.50634765625 1100.0247802734375
v -458.5686950683594 2237.506103515625 1100.0247802734375
v -372.7176818847656 2237.506103515625 967.1815795898438
v -162.76791381835938 2237.506103515625 967.1815795898438
v -83.2623519897461 2237.506103515625 800.0247802734375
v -458.543701171875 2237.531005859375 399.9747619628906
v -458.543701171875 1437.4810791015625 399.9748229980469
v -458.543701171875 2237.531005859375 1100.0247802734375
v -458.543701171875 1437.4810791015625 1100.02490234375
v 941.4813232421875 2227.506103515625 410.0248107910156
v -458.5686950683594 2227.506103515625 399.9747619628906
v 941.4813232421875 2227.506103515625 399.9748229980469
v -458.5686950683594 2227.506103515625 410.0247497558594
v 941.4813232421875 2227.481201171875 399.99981689453125
v -458.5686950683594 2247.531005859375 399.999755859375
v 941.4813232421875 2247.53125 399.99981689453125
v -458.5686950683594 2227.481201171875 399.999755859375
v 941.4813232421875 2247.50634765625 399.9748229980469
v -458.5686950683594 2247.506103515625 410.0247497558594
v 941.4813232421875 2247.50634765625 410.0248107910156
v -458.5686950683594 2247.506103515625 399.9747619628906
v 941.4813232421875 2247.53125 409.99981689453125
v -458.5686950683594 2227.481201171875 409.999755859375
v 941.4813232421875 2227.481201171875 409.99981689453125
v -458.5686950683594 2247.531005859375 409.999755859375
v 941.456298828125 2227.481201171875 399.9748229980469
v 941.456298828125 2247.53125 399.9748229980469
v 941.456298828125 2227.481201171875 410.0248107910156
v 941.456298828125 2247.53125 410.0248107910156
v -458.543701171875 2227.481201171875 410.0247497558594
v -458.543701171875 2247.531005859375 399.9747619628906
v -458.543701171875 2227.481201171875 399.9747619628906
v -458.543701171875 2247.531005859375 410.0247497558594
v -458.5686950683594 1437.4810791015625 1099.9998779296875
v 941.4813232421875 1437.481201171875 1099.9998779296875
v 941.4813232421875 2237.53125 1099.999755859375
v -458.5686950683594 2237.531005859375 1099.999755859375
v 941.4688110351562 1437.4571533203125 1099.9998779296875
v 916.4739990234375 1462.5123291015625 1099.9998779296875
v 941.4688110351562 2237.482177734375 1099.999755859375
v 66.4312973022461 1437.4696044921875 1099.9998779296875
v -458.55621337890625 2237.48193359375 1099.999755859375
v -433.5613708496094 2212.4267578125 1099.999755859375
v -458.551025390625 1437.4517822265625 1099.9998779296875
v 916.4136352539062 2212.4873046875 1099.999755859375
v -283.5187072753906 1437.4444580078125 1099.9998779296875
v -433.50103759765625 1462.4517822265625 1099.9998779296875
v -283.5187072753906 1462.4945068359375 1099.9998779296875
v 66.4312973022461 1462.49462890625 1099.9998779296875
v 66.4312973022461 1437.4696044921875 1099.974853515625
v 941.4813232421875 1437.4696044921875 1099.974853515625
v 66.4312973022461 1437.4696044921875 1150.02490234375
v 941.4813232421875 1437.4696044921875 1150.02490234375
v 941.456298828125 1437.444580078125 1099.974853515625
v 941.456298828125 2237.49462890625 1099.9747314453125
v 941.456298828125 1437.444580078125 1150.02490234375
v 941.456298828125 2237.49462890625 1150.0247802734375
v 941.4813232421875 2237.4697265625 1099.9747314453125
v -458.5686950683594 2237.469482421875 1099.9747314453125
v 941.4813232421875 2237.4697265625 1150.0247802734375
v -458.5686950683594 2237.469482421875 1150.0247802734375
v -458.543701171875 2237.494384765625 1099.9747314453125
v -458.543701171875 1437.4444580078125 1099.974853515625
v -458.543701171875 2237.494384765625 1150.0247802734375
v -458.543701171875 1437.4444580078125 1150.02490234375
v -458.5686950683594 1437.469482421875 1099.974853515625
v -283.5187072753906 1437.469482421875 1099.974853515625
v -458.5686950683594 1437.469482421875 1150.02490234375
v -283.5187072753906 1437.469482421875 1150.02490234375
v -283.543701171875 1437.4444580078125 1099.974853515625
v -283.543701171875 1462.4945068359375 1099.974853515625
v -283.543701171875 1437.4444580078125 1150.02490234375
v -283.543701171875 1462.4945068359375 1150.02490234375
v -283.5187072753906 1462.469482421875 1099.974853515625
v -433.5686950683594 1462.469482421875 1099.974853515625
v -283.5187072753906 1462.469482421875 1150.02490234375
v -433.5686950683594 1462.469482421875 1150.02490234375
v -433.543701171875 1462.4444580078125 1099.974853515625
v -433.543701171875 2212.494384765625 1099.9747314453125
v -433.543701171875 1462.4444580078125 1150.02490234375
v -433.543701171875 2212.494384765625 1150.0247802734375
v -433.5686950683594 2212.469482421875 1099.9747314453125
v 916.4813232421875 2212.4697265625 1099.9747314453125
v -433.5686950683594 2212.469482421875 1150.0247802734375
v 916.4813232421875 2212.4697265625 1150.0247802734375
v 916.456298828125 2212.49462890625 1099.9747314453125
v 916.456298828125 1462.444580078125 1099.974853515625
v 916.456298828125 2212.49462890625 1150.0247802734375
v 916.456298828125 1462.444580078125 1150.02490234375
v 916.4813232421875 1462.4696044921875 1099.974853515625
v 66.4312973022461 1462.4696044921875 1099.974853515625
v 916.4813232421875 1462.4696044921875 1150.02490234375
v 66.4312973022461 1462.4696044921875 1150.02490234375
v 66.456298828125 1462.49462890625 1099.974853515625
v 66.456298828125 1437.444580078125 1099.974853515625
v 66.456298828125 1462.49462890625 1150.02490234375
v 66.456298828125 1437.444580078125 1150.02490234375
v 941.4688110351562 1437.4571533203125 1149.9998779296875
v 941.4688110351562 2237.482177734375 1149.999755859375
v 916.4136352539062 1462.451904296875 1149.9998779296875
v 66.4312973022461 1437.4696044921875 1149.9998779296875
v -458.55621337890625 2237.48193359375 1149.999755859375
v -458.55621337890625 1437.45703125 1149.9998779296875
v -433.50103759765625 2212.487060546875 1149.999755859375
v 916.4739990234375 2212.427001953125 1149.999755859375
v -283.5187072753906 1437.4444580078125 1149.9998779296875
v -283.5187072753906 1462.4945068359375 1149.9998779296875
v -433.5613708496094 1462.51220703125 1149.9998779296875
v 66.4312973022461 1462.49462890625 1149.9998779296875
v 841.456298828125 -962.531005859375 -0.024903837591409683
v 841.456298828125 37.518898010253906 -0.024991260841488838
v 841.456298828125 -829.7783203125 50.02508544921875
v 841.456298828125 -829.7783203125 273.9750671386719
v 841.456298828125 -409.8285827636719 273.97503662109375
v 841.456298828125 -326.2140197753906 283.7154235839844
v 841.456298828125 -326.2140197753906 349.3654479980469
v 841.456298828125 -260.8641052246094 349.3654479980469
v 841.456298828125 -962.531005859375 400.02508544921875
v 841.456298828125 37.518898010253906 400.0249938964844
v 841.456298828125 -260.8641052246094 283.7154235839844
v 841.456298828125 -409.8285827636719 50.025047302246094
v 841.4813232421875 37.493896484375 -0.024991260841488838
v 541.4312744140625 37.506103515625 -0.025004373863339424
v 841.4813232421875 37.493896484375 400.0249938964844
v 541.4312744140625 37.506103515625 400.0249938964844
v 831.4312744140625 -829.828369140625 274.00006103515625
v 841.4813232421875 -409.7785949707031 274.0000305175781
v 841.4813232421875 -829.828369140625 274.00006103515625
v 831.4312744140625 -409.7785949707031 274.0000305175781
v 831.4312744140625 -829.828369140625 50.000083923339844
v 841.4813232421875 -829.828369140625 50.000083923339844
v 841.4813232421875 -409.7785949707031 50.00004577636719
v 831.4312744140625 -409.7785949707031 50.00004577636719
v 831.4312744140625 -829.8033447265625 274.0250549316406
v 841.4813232421875 -829.8033447265625 49.97508239746094
v 831.4312744140625 -829.8033447265625 49.97508239746094
v 841.4813232421875 -829.8033447265625 274.0250549316406
v 831.4312744140625 -409.8035888671875 274.0250244140625
v 831.4312744140625 -409.8035888671875 49.97504425048828
v 841.4813232421875 -409.8035888671875 49.97504425048828
v 841.4813232421875 -409.8035888671875 274.0250244140625
v 1043.5687255859375 2237.469970703125 409.9998474121094
v 941.4312744140625 2237.469970703125 409.99981689453125
v 941.4312744140625 1437.4700927734375 409.9998779296875
v 841.4312744140625 1437.4700927734375 409.9998779296875
v 941.4312744140625 -962.579833984375 410.0000915527344
v 1043.5445556640625 -1762.579833984375 410.00018310546875
v 841.4312744140625 -962.579833984375 410.0000915527344
v 941.4315185546875 -1762.579833984375 410.0001525878906
v 1043.5687255859375 2237.469970703125 399.9998474121094
v 941.4312744140625 1437.4700927734375 399.9998779296875
v 941.4312744140625 2237.469970703125 399.99981689453125
v 941.4312744140625 -962.579833984375 400.0000915527344
v 841.4312744140625 1437.4700927734375 399.9998779296875
v 1043.5445556640625 -1762.579833984375 400.00018310546875
v 841.4312744140625 -962.579833984375 400.0000915527344
v 941.4315185546875 -1762.579833984375 400.0001525878906
v 941.456298828125 2237.469970703125 410.0248107910156
v 941.456298828125 1437.4200439453125 399.9748840332031
v 941.456298828125 1437.4200439453125 410.0248718261719
v 941.456298828125 2237.469970703125 399.9748229980469
v 941.4813232421875 1437.445068359375 410.0248718261719
v 841.4312744140625 1437.445068359375 399.9748840332031
v 841.4312744140625 1437.445068359375 410.0248718261719
v 941.4813232421875 1437.445068359375 399.9748840332031
v 841.456298828125 1437.4700927734375 410.0248718261719
v 841.456298828125 -962.579833984375 399.97509765625
v 841.456298828125 -962.579833984375 410.02508544921875
v 841.456298828125 1437.4700927734375 399.9748840332031
v 841.4312744140625 -962.5548095703125 410.02508544921875
v 941.4813232421875 -962.5548095703125 399.97509765625
v 941.4813232421875 -962.5548095703125 410.02508544921875
v 841.4312744140625 -962.5548095703125 399.97509765625
v 941.456298828125 -962.52978515625 410.02508544921875
v 941.45654296875 -1762.579833984375 399.97515869140625
v 941.45654296875 -1762.579833984375 410.025146484375
v 941.456298828125 -962.52978515625 399.97509765625
v 941.4315185546875 -1762.5548095703125 410.025146484375
v 1043.5445556640625 -1762.5548095703125 399.9751892089844
v 1043.5445556640625 -1762.5548095703125 410.0251770019531
v 941.4315185546875 -1762.5548095703125 399.97515869140625
v 1043.51953125 -1762.579833984375 410.0251770019531
v 1043.543701171875 2237.469970703125 399.974853515625
v 1043.543701171875 2237.469970703125 410.02484130859375
v 1043.51953125 -1762.579833984375 399.9751892089844
v 1043.5687255859375 2237.445068359375 410.02484130859375
v 941.4312744140625 2237.445068359375 399.9748229980469
v 941.4312744140625 2237.445068359375 410.0248107910156
v 1043.5687255859375 2237.445068359375 399.974853515625
v 941.4312744140625 -962.482177734375 460.0000915527344
v 941.4315185546875 -1737.482177734375 460.0001525878906
v 1016.4815673828125 -1737.482177734375 460.00018310546875
v 1016.4813232421875 2212.567626953125 459.9998474121094
v 941.4312744140625 2212.567626953125 459.99981689453125
v 941.4312744140625 1437.5677490234375 459.9998779296875
v 841.4312744140625 1437.5677490234375 459.9998779296875
v 841.4312744140625 -962.482177734375 460.0000915527344
v 941.4312744140625 -962.482177734375 410.0000915527344
v 1016.4815673828125 -1737.482177734375 410.00018310546875
v 941.4315185546875 -1737.482177734375 410.0001525878906
v 1016.4813232421875 2212.567626953125 409.9998474121094
v 941.4312744140625 1437.5677490234375 409.9998779296875
v 941.4312744140625 2212.567626953125 409.99981689453125
v 841.4312744140625 1437.5677490234375 409.9998779296875
v 841.4312744140625 -962.482177734375 410.0000915527344
v 941.4315185546875 -1737.4571533203125 460.025146484375
v 1016.4815673828125 -1737.4571533203125 409.9751892089844
v 1016.4815673828125 -1737.4571533203125 460.0251770019531
v 941.4315185546875 -1737.4571533203125 409.97515869140625
v 1016.45654296875 -1737.482177734375 460.0251770019531
v 1016.456298828125 2212.567626953125 409.974853515625
v 1016.456298828125 2212.567626953125 460.02484130859375
v 1016.45654296875 -1737.482177734375 409.9751892089844
v 1016.4813232421875 2212.542724609375 460.02484130859375
v 941.4312744140625 2212.542724609375 409.9748229980469
v 941.4312744140625 2212.542724609375 460.0248107910156
v 1016.4813232421875 2212.542724609375 409.974853515625
v 941.456298828125 2212.567626953125 460.0248107910156
v 941.456298828125 1437.5177001953125 409.9748840332031
v 941.456298828125 1437.5177001953125 460.0248718261719
v 941.456298828125 2212.567626953125 409.9748229980469
v 941.4813232421875 1437.542724609375 460.0248718261719
v 841.4312744140625 1437.542724609375 409.9748840332031
v 841.4312744140625 1437.542724609375 460.0248718261719
v 941.4813232421875 1437.542724609375 409.9748840332031
v 841.456298828125 1437.5677490234375 460.0248718261719
v 841.456298828125 -962.482177734375 409.97509765625
v 841.456298828125 -962.482177734375 460.02508544921875
v 841.456298828125 1437.5677490234375 409.9748840332031
v 841.4312744140625 -962.4571533203125 460.02508544921875
v 941.4813232421875 -962.4571533203125 409.97509765625
v 941.4813232421875 -962.4571533203125 460.02508544921875
v 841.4312744140625 -962.4571533203125 409.97509765625
v 941.456298828125 -962.43212890625 460.02508544921875
v 941.45654296875 -1737.482177734375 409.97515869140625
v 941.45654296875 -1737.482177734375 460.025146484375
v 941.456298828125 -962.43212890625 409.97509765625
v 941.4312744140625 -962.506591796875 470.00006103515625
v 941.4315185546875 -1762.506591796875 470.0001220703125
v 1041.4815673828125 -1762.506591796875 470.0001525878906
v 1041.4813232421875 2237.543212890625 469.99981689453125
v 941.4312744140625 2237.543212890625 469.9997863769531
v 941.4312744140625 1437.5433349609375 469.9998474121094
v 841.4312744140625 1437.5433349609375 469.9998474121094
v 841.4312744140625 -962.506591796875 470.00006103515625
v 941.4312744140625 -962.506591796875 460.0000915527344
v 1041.4815673828125 -1762.506591796875 460.00018310546875
v 941.4315185546875 -1762.506591796875 460.0001525878906
v 1041.4813232421875 2237.543212890625 459.9998474121094
v 941.4312744140625 1437.5433349609375 459.9998779296875
v 941.4312744140625 2237.543212890625 459.99981689453125
v 841.4312744140625 1437.5433349609375 459.9998779296875
v 841.4312744140625 -962.506591796875 460.0000915527344
v 941.4315185546875 -1762.4815673828125 470.0251159667969
v 1041.4815673828125 -1762.4815673828125 459.9751892089844
v 1041.4815673828125 -1762.4815673828125 470.025146484375
v 941.4315185546875 -1762.4815673828125 459.97515869140625
v 1041.45654296875 -1762.506591796875 470.025146484375
v 1041.456298828125 2237.543212890625 459.974853515625
v 1041.456298828125 2237.543212890625 470.0248107910156
v 1041.45654296875 -1762.506591796875 459.9751892089844
v 1041.4813232421875 2237.518310546875 470.0248107910156
v 941.4312744140625 2237.518310546875 459.9748229980469
v 941.4312744140625 2237.518310546875 470.0247802734375
v 1041.4813232421875 2237.518310546875 459.974853515625
v 941.456298828125 2237.543212890625 470.0247802734375
v 941.456298828125 1437.4932861328125 459.9748840332031
v 941.456298828125 1437.4932861328125 470.02484130859375
v 941.456298828125 2237.543212890625 459.9748229980469
v 941.4813232421875 1437.518310546875 470.02484130859375
v 841.4312744140625 1437.518310546875 459.9748840332031
v 841.4312744140625 1437.518310546875 470.02484130859375
v 941.4813232421875 1437.518310546875 459.9748840332031
v 841.456298828125 1437.5433349609375 470.02484130859375
v 841.456298828125 -962.506591796875 459.97509765625
v 841.456298828125 -962.506591796875 470.0250549316406
v 841.456298828125 1437.5433349609375 459.9748840332031
v 841.4312744140625 -962.4815673828125 470.0250549316406
v 941.4813232421875 -962.4815673828125 459.97509765625
v 941.4813232421875 -962.4815673828125 470.0250549316406
v 841.4312744140625 -962.4815673828125 459.97509765625
v 941.456298828125 -962.45654296875 470.0250549316406
v 941.45654296875 -1762.506591796875 459.97515869140625
v 941.45654296875 -1762.506591796875 470.0251159667969
v 941.456298828125 -962.45654296875 459.97509765625
v 541.4312744140625 37.531105041503906 400.0
v 541.4312744140625 -362.4689025878906 400.0000305175781
v 841.4813232421875 37.518898010253906 400.0
v 41.431297302246094 -362.4811096191406 400.0
v 41.431297302246094 -962.531005859375 400.00006103515625
v 841.4813232421875 -962.531005859375 400.0000915527344
v 541.4315185546875 -1762.4940185546875 -0.024847013875842094
v 941.4815673828125 -1762.4937744140625 -0.024829529225826263
v 541.4315185546875 -1762.4937744140625 400.025146484375
v 941.4815673828125 -1762.4937744140625 400.025146484375
v 941.45654296875 -1762.518798828125 -0.024829527363181114
v 941.45654296875 -1584.11181640625 -0.024845119565725327
v 941.45654296875 -1584.11181640625 323.6871643066406
v 941.456298828125 -1136.661865234375 323.6871032714844
v 941.45654296875 -1762.518798828125 400.025146484375
v 941.456298828125 -1136.661865234375 -0.024884242564439774
v 941.456298828125 -962.46875 -0.024899467825889587
v 941.456298828125 -962.46875 400.02508544921875
v 941.4813232421875 -962.4937744140625 -0.024899467825889587
v 841.4312744140625 -962.4937744140625 -0.024903839454054832
v 941.4813232421875 -962.4937744140625 400.02508544921875
v 841.4312744140625 -962.4937744140625 400.02508544921875
v -458.5684509277344 -1762.4940185546875 399.97509765625
v 941.4815673828125 -1762.4937744140625 399.97515869140625
v -458.5684509277344 -1762.4937744140625 1100.025146484375
v 941.4815673828125 -1762.4937744140625 1100.025146484375
v 941.45654296875 -1762.518798828125 399.97515869140625
v 941.456298828125 -962.46875 399.97509765625
v 941.45654296875 -1462.46875 960.6393432617188
v 941.45654296875 -1462.46875 1020.58935546875
v 941.456298828125 -1252.518798828125 1020.58935546875
v 941.45654296875 -1762.518798828125 1100.025146484375
v 941.456298828125 -962.46875 1100.025146484375
v 941.456298828125 -1252.518798828125 960.6393432617188
v 941.4813232421875 -962.4937744140625 399.97509765625
v -458.5686950683594 -962.4940185546875 399.97503662109375
v 941.4813232421875 -962.4937744140625 1100.025146484375
v -458.5686950683594 -962.4937744140625 1100.025146484375
v -458.543701171875 -962.468994140625 399.97503662109375
v -458.54345703125 -1762.51904296875 399.97509765625
v -458.543701171875 -962.46875 1100.025146484375
v -458.54345703125 -1762.518798828125 1100.025146484375
v -458.5684509277344 -1752.4940185546875 410.02508544921875
v 941.4815673828125 -1752.4937744140625 399.97515869140625
v -458.5684509277344 -1752.4940185546875 399.97509765625
v 941.4815673828125 -1752.4937744140625 410.025146484375
v -458.5684509277344 -1752.468994140625 400.0000915527344
v 941.4815673828125 -1772.5185546875 400.0001525878906
v -458.5684509277344 -1772.518798828125 400.0000915527344
v 941.4815673828125 -1752.46875 400.0001525878906
v -458.5684509277344 -1772.4937744140625 399.97509765625
v 941.4815673828125 -1772.4935302734375 410.025146484375
v -458.5684509277344 -1772.4937744140625 410.02508544921875
v 941.4815673828125 -1772.4935302734375 399.97515869140625
v -458.5684509277344 -1772.518798828125 410.0000915527344
v 941.4815673828125 -1752.46875 410.0001525878906
v -458.5684509277344 -1752.468994140625 410.0000915527344
v 941.4815673828125 -1772.5185546875 410.0001525878906
v -458.54345703125 -1752.468994140625 399.97509765625
v -458.54345703125 -1772.518798828125 399.97509765625
v -458.54345703125 -1752.468994140625 410.02508544921875
v -458.54345703125 -1772.518798828125 410.02508544921875
v 941.45654296875 -1752.46875 410.025146484375
v 941.45654296875 -1772.5185546875 399.97515869140625
v 941.45654296875 -1752.46875 399.97515869140625
v 941.45654296875 -1772.5185546875 410.025146484375
v -458.5684509277344 -1762.518798828125 1100.0001220703125
v 941.4815673828125 -1762.518798828125 1100.0001220703125
v 941.4813232421875 -962.46875 1100.0001220703125
v -458.5686950683594 -962.46875 1100.0001220703125
v -458.5684509277344 -1762.4937744140625 1099.97509765625
v 941.4815673828125 -1762.4937744140625 1099.97509765625
v 941.4815673828125 -1762.4937744140625 1150.025146484375
v -458.5684509277344 -1762.4937744140625 1150.025146484375
v -433.5684509277344 -1737.4937744140625 1099.97509765625
v -433.5684509277344 -1737.4937744140625 1150.025146484375
v 916.4815673828125 -1737.4937744140625 1150.025146484375
v 916.4815673828125 -1737.4937744140625 1099.97509765625
v 941.45654296875 -1762.518798828125 1099.97509765625
v 941.456298828125 -962.46875 1099.97509765625
v 941.456298828125 -962.46875 1150.025146484375
v 941.45654296875 -1762.518798828125 1150.025146484375
v 916.45654296875 -1737.518798828125 1099.97509765625
v 916.45654296875 -1737.518798828125 1150.025146484375
v 916.456298828125 -987.46875 1150.025146484375
v 916.456298828125 -987.46875 1099.97509765625
v 941.4813232421875 -962.4937744140625 1099.97509765625
v -458.5686950683594 -962.4937744140625 1099.97509765625
v -458.5686950683594 -962.4937744140625 1150.025146484375
v 941.4813232421875 -962.4937744140625 1150.025146484375
v 916.4813232421875 -987.4937744140625 1099.97509765625
v 916.4813232421875 -987.4937744140625 1150.025146484375
v -433.5686950683594 -987.4937744140625 1150.025146484375
v -433.5686950683594 -987.4937744140625 1099.97509765625
v -458.543701171875 -962.46875 1099.97509765625
v -458.54345703125 -1762.518798828125 1099.97509765625
v -458.54345703125 -1762.518798828125 1150.025146484375
v -458.543701171875 -962.46875 1150.025146484375
v -433.543701171875 -987.46875 1099.97509765625
v -433.543701171875 -987.46875 1150.025146484375
v -433.54345703125 -1737.518798828125 1150.025146484375
v -433.54345703125 -1737.518798828125 1099.97509765625
v -458.55596923828125 -1762.5062255859375 1150.0001220703125
v 941.4690551757812 -1762.5062255859375 1150.0001220703125
v 916.4138793945312 -1737.511474609375 1150.0001220703125
v -433.5611267089844 -1737.4510498046875 1150.0001220703125
v 941.4739990234375 -962.4864501953125 1150.0001220703125
v 916.4136352539062 -987.47607421875 1150.0001220703125
v -458.55621337890625 -962.4812622070312 1150.0001220703125
v -433.50103759765625 -987.47607421875 1150.0001220703125
v -308.543701171875 1437.4945068359375 699.9747924804688
v -308.543701171875 1287.4444580078125 699.9747924804688
v -308.543701171875 1437.4945068359375 1100.02490234375
v -308.543701171875 1287.4444580078125 1100.02490234375
v -308.5686950683594 1287.469482421875 699.9747924804688
v 91.4813003540039 1287.469482421875 699.974853515625
v -308.5686950683594 1287.469482421875 1100.02490234375
v 91.4813003540039 1287.4696044921875 1100.02490234375
v 91.456298828125 1287.4444580078125 699.974853515625
v 91.456298828125 1437.4945068359375 699.974853515625
v 91.456298828125 1287.444580078125 1100.02490234375
v 91.456298828125 1437.49462890625 1100.02490234375
v -308.5686950683594 1437.4945068359375 1099.9998779296875
v -308.5686950683594 1287.4444580078125 1099.9998779296875
v 91.4813003540039 1437.49462890625 1099.9998779296875
v 91.4813003540039 1287.444580078125 1099.9998779296875
v -33.568702697753906 1312.49462890625 1099.9998779296875
v 66.4739761352539 1312.5123291015625 1099.9998779296875
v -33.568702697753906 1287.4444580078125 1099.9998779296875
v 91.46879577636719 1287.4571533203125 1099.9998779296875
v 91.4813003540039 1437.49462890625 1099.9998779296875
v -308.5686950683594 1437.4945068359375 1099.9998779296875
v -308.55621337890625 1287.45703125 1099.9998779296875
v -183.51870727539062 1287.4444580078125 1099.9998779296875
v -283.50103759765625 1312.4517822265625 1099.9998779296875
v -183.51870727539062 1312.4945068359375 1099.9998779296875
v 66.4813003540039 1312.4696044921875 1099.974853515625
v -33.568702697753906 1312.4696044921875 1099.974853515625
v 66.4813003540039 1312.4696044921875 1150.02490234375
v -33.568702697753906 1312.4696044921875 1150.02490234375
v -33.543701171875 1312.49462890625 1099.974853515625
v -33.543701171875 1287.4444580078125 1099.974853515625
v -33.543701171875 1312.49462890625 1150.02490234375
v -33.543701171875 1287.444580078125 1150.02490234375
v -33.568702697753906 1287.469482421875 1099.974853515625
v 91.4813003540039 1287.4696044921875 1099.974853515625
v -33.568702697753906 1287.4696044921875 1150.02490234375
v 91.4813003540039 1287.4696044921875 1150.02490234375
v 91.456298828125 1287.444580078125 1099.974853515625
v 91.456298828125 1437.49462890625 1099.974853515625
v 91.456298828125 1287.444580078125 1150.02490234375
v 91.456298828125 1437.49462890625 1150.02490234375
v 91.4813003540039 1437.4696044921875 1099.974853515625
v 66.4312973022461 1437.4696044921875 1099.974853515625
v 91.4813003540039 1437.4696044921875 1150.02490234375
v 66.4312973022461 1437.4696044921875 1150.02490234375
v 66.456298828125 1437.49462890625 1099.974853515625
v 66.456298828125 1312.444580078125 1099.974853515625
v 66.456298828125 1437.49462890625 1150.02490234375
v 66.456298828125 1312.444580078125 1150.02490234375
v -33.568702697753906 1312.49462890625 1149.9998779296875
v -33.568702697753906 1287.444580078125 1149.9998779296875
v 66.4739761352539 1312.5123291015625 1149.9998779296875
v 91.46879577636719 1287.4571533203125 1149.9998779296875
v 91.4813003540039 1437.49462890625 1149.9998779296875
v -308.543701171875 1437.4945068359375 1099.974853515625
v -308.543701171875 1287.4444580078125 1099.974853515625
v -308.543701171875 1437.4945068359375 1150.02490234375
v -308.543701171875 1287.4444580078125 1150.02490234375
v -308.5686950683594 1287.469482421875 1099.974853515625
v -183.51870727539062 1287.469482421875 1099.974853515625
v -308.5686950683594 1287.469482421875 1150.02490234375
v -183.51870727539062 1287.469482421875 1150.02490234375
v -183.543701171875 1287.4444580078125 1099.974853515625
v -183.543701171875 1312.4945068359375 1099.974853515625
v -183.543701171875 1287.4444580078125 1150.02490234375
v -183.543701171875 1312.4945068359375 1150.02490234375
v -183.51870727539062 1312.469482421875 1099.974853515625
v -283.5686950683594 1312.469482421875 1099.974853515625
v -183.51870727539062 1312.469482421875 1150.02490234375
v -283.5686950683594 1312.469482421875 1150.02490234375
v -283.543701171875 1312.4444580078125 1099.974853515625
v -283.543701171875 1437.4945068359375 1099.974853515625
v -283.543701171875 1312.4444580078125 1150.02490234375
v -283.543701171875 1437.4945068359375 1150.02490234375
v -283.5187072753906 1437.469482421875 1099.974853515625
v -308.5686950683594 1437.469482421875 1099.974853515625
v -283.5187072753906 1437.469482421875 1150.02490234375
v -308.5686950683594 1437.469482421875 1150.02490234375
v -308.5686950683594 1437.4945068359375 1149.9998779296875
v -308.55621337890625 1287.45703125 1149.9998779296875
v -183.51870727539062 1287.4444580078125 1149.9998779296875
v -183.51870727539062 1312.4945068359375 1149.9998779296875
v -283.5613708496094 1312.51220703125 1149.9998779296875
v 872.498779296875 37.456687927246094 -0.02498990297317505
v 872.498779296875 91.4495620727539 -0.024994617328047752
v 872.498779296875 37.456687927246094 400.0249938964844
v 872.498779296875 91.4495620727539 400.0249938964844
v 872.5238037109375 91.424560546875 -0.024994617328047752
v 740.8453369140625 91.424560546875 -0.025000371038913727
v 872.5238037109375 91.424560546875 400.0249938964844
v 740.8453369140625 91.424560546875 400.0249938964844
v 740.870361328125 91.4495620727539 -0.025000371038913727
v 740.870361328125 37.456687927246094 -0.024995656684041023
v 740.870361328125 91.4495620727539 400.0249938964844
v 740.870361328125 37.456687927246094 400.0249938964844
v 740.8453369140625 37.481689453125 -0.024995656684041023
v 872.5238037109375 37.481689453125 -0.02498990297317505
v 740.8453369140625 37.481689453125 400.0249938964844
v 872.5238037109375 37.481689453125 400.0249938964844
v 740.8453369140625 37.456687927246094 400.0
v 872.5238037109375 37.456687927246094 400.0
v 872.5238037109375 91.4495620727539 400.0
v 740.8453369140625 91.4495620727539 400.0
v 740.870361328125 437.5066833496094 -0.025030627846717834
v 740.870361328125 380.9747619628906 -0.025025688111782074
v 740.870361328125 437.5067443847656 400.02496337890625
v 740.870361328125 380.9747619628906 400.02496337890625
v 740.8453369140625 380.999755859375 -0.025025688111782074
v 872.5238037109375 380.999755859375 -0.0250199344009161
v 740.8453369140625 380.999755859375 400.02496337890625
v 872.5238037109375 380.999755859375 400.02496337890625
v 872.498779296875 380.9747619628906 -0.0250199344009161
v 872.498779296875 437.5066833496094 -0.02502487599849701
v 872.498779296875 380.9747619628906 400.02496337890625
v 872.498779296875 437.5067443847656 400.02496337890625
v 872.5238037109375 437.481689453125 -0.02502487227320671
v 740.8453369140625 437.481689453125 -0.025030624121427536
v 872.5238037109375 437.48175048828125 400.02496337890625
v 740.8453369140625 437.48175048828125 400.02496337890625
v 740.8453369140625 437.5067443847656 399.9999694824219
v 740.8453369140625 380.9747619628906 399.9999694824219
v 872.5238037109375 437.5067443847656 399.9999694824219
v 872.5238037109375 380.9747619628906 399.9999694824219
v -658.543701171875 -437.5188903808594 699.9749755859375
v -658.543701171875 1462.5311279296875 699.9747924804688
v -658.543701171875 -437.5188903808594 790.0250244140625
v -658.543701171875 1462.5311279296875 790.0248413085938
v -658.5687255859375 1462.506103515625 699.9747924804688
v -458.5187072753906 1462.506103515625 699.9747924804688
v -658.5687255859375 1462.506103515625 790.0248413085938
v -458.5187072753906 1462.506103515625 790.0248413085938
v -458.5187072753906 1487.506103515625 699.9747924804688
v -683.5687255859375 1487.506103515625 699.9747924804688
v -458.5187072753906 1487.506103515625 790.0248413085938
v -683.5687255859375 1487.506103515625 790.0248413085938
v -683.543701171875 1487.5311279296875 699.9747924804688
v -683.543701171875 -462.5188903808594 699.9749755859375
v -683.543701171875 1487.5311279296875 790.0248413085938
v -683.543701171875 -462.5188903808594 790.0250244140625
v -683.5687255859375 -462.493896484375 699.9749755859375
v -608.5186767578125 -462.493896484375 699.9749755859375
v -683.5687255859375 -462.493896484375 790.0250244140625
v -608.5186767578125 -462.493896484375 790.0250244140625
v -608.543701171875 -462.5188903808594 699.9749755859375
v -608.543701171875 -437.4689025878906 699.9749755859375
v -608.543701171875 -462.5188903808594 790.0250244140625
v -608.543701171875 -437.4689025878906 790.0250244140625
v -608.5186767578125 -437.493896484375 699.9749755859375
v -658.5687255859375 -437.493896484375 699.9749755859375
v -608.5186767578125 -437.493896484375 790.0250244140625
v -658.5687255859375 -437.493896484375 790.0250244140625
v -672.021728515625 -450.9971618652344 905.9640502929688
v -672.081787109375 1476.069091796875 810.4403076171875
v -672.081787109375 -451.0568542480469 810.4404907226562
v -672.021728515625 1476.0093994140625 905.9638671875
v -673.636962890625 -452.6122741699219 945.14697265625
v -673.635986328125 1477.6236572265625 917.9307861328125
v -673.635986328125 -452.6114196777344 917.9309692382812
v -673.636962890625 1477.6246337890625 945.1467895507812
v -673.2963256835938 -452.2720642089844 917.9676513671875
v -673.6372680664062 1477.6246337890625 945.1464233398438
v -673.6372680664062 -452.6122741699219 945.1466064453125
v -673.2963256835938 1477.2843017578125 917.9674682617188
v -671.543701171875 -450.5187683105469 810.4174194335938
v -671.543701171875 1475.5311279296875 906.0037841796875
v -671.543701171875 -450.5187683105469 906.0039672851562
v -671.543701171875 1475.531005859375 810.417236328125
v -671.543701171875 -450.5187683105469 905.9539184570312
v -671.543701171875 1475.5311279296875 908.4668579101562
v -671.543701171875 -450.5187683105469 908.467041015625
v -671.543701171875 1475.5311279296875 905.9537353515625
v -673.5138549804688 -452.5311584472656 904.9893798828125
v -673.5138549804688 1477.5433349609375 904.9891967773438
v -675.5511474609375 -454.5125427246094 905.99267578125
v -675.5511474609375 1479.5247802734375 905.9924926757812
v -675.543701171875 -454.5188903808594 908.467041015625
v -675.543701171875 1479.5311279296875 908.4668579101562
v -673.513916015625 -452.5311584472656 909.4419555664062
v -673.513916015625 1477.5433349609375 909.4417724609375
v -671.5064086914062 -450.5124206542969 908.4234008789062
v -671.5064086914062 1475.5247802734375 908.4232177734375
v -671.5512084960938 -450.5133972167969 908.4361572265625
v -668.6475219726562 1472.661376953125 910.7026977539062
v -668.6475219726562 -447.6491394042969 910.702880859375
v -671.5512084960938 1475.5257568359375 908.4359741210938
v -671.5061645507812 -450.5123596191406 808.0316772460938
v -671.543701171875 1475.531005859375 810.46728515625
v -671.543701171875 -450.5187683105469 810.4674682617188
v -671.5061645507812 1475.5245361328125 808.031494140625
v -673.5137329101562 -452.5311279296875 807.0422973632812
v -673.5137329101562 1477.5433349609375 807.0421142578125
v -675.543701171875 -454.5188903808594 808.0173950195312
v -675.543701171875 1479.5311279296875 808.0172119140625
v -675.5511474609375 -454.5125427246094 810.438720703125
v -675.5511474609375 1479.5247802734375 810.4385375976562
v -673.513916015625 -452.5311584472656 811.4423828125
v -673.513916015625 1477.5433349609375 811.4421997070312
v -671.5064086914062 -450.5124206542969 810.423828125
v -671.5064086914062 1475.524658203125 810.4236450195312
v -670.5158081054688 -449.5144348144531 806.9721069335938
v -671.5511474609375 1475.5263671875 808.0072631835938
v -671.5511474609375 -450.5141906738281 808.0074462890625
v -670.5158081054688 1474.526611328125 806.971923828125
v -672.0467529296875 1475.984375 905.9638671875
v -458.5187072753906 1476.0440673828125 810.4402465820312
v -672.1068115234375 1476.0440673828125 810.4403076171875
v -458.5187072753906 1475.984375 905.9638671875
v -673.6619873046875 1477.599609375 945.1467895507812
v -458.5187072753906 1477.5986328125 917.9307861328125
v -673.6610107421875 1477.5986328125 917.9307861328125
v -458.5187072753906 1477.599609375 945.1467895507812
v -673.3216552734375 1477.2589111328125 917.9674682617188
v -458.5187072753906 1477.5999755859375 945.1467895507812
v -673.6619873046875 1477.5999755859375 945.1464233398438
v -458.5187072753906 1477.2589111328125 917.9677734375
v -671.5687255859375 1475.5059814453125 810.417236328125
v -458.5187072753906 1475.506103515625 906.0037841796875
v -671.5687255859375 1475.506103515625 906.0037841796875
v -458.5187072753906 1475.506103515625 810.417236328125
v -671.5623168945312 1475.46875 905.9972534179688
v -458.5187072753906 1475.506103515625 908.4668579101562
v -671.5687255859375 1475.506103515625 908.4668579101562
v -458.5187072753906 1475.483642578125 905.9898681640625
v -673.5809326171875 1477.4761962890625 904.9891967773438
v -458.49371337890625 1477.506103515625 904.9892578125
v -675.5687255859375 1479.506103515625 905.9637451171875
v -458.5187072753906 1479.506103515625 905.9637451171875
v -675.5623168945312 1479.5135498046875 908.4381103515625
v -458.5187072753906 1479.5284423828125 908.4306640625
v -673.5809936523438 1477.476318359375 909.4417724609375
v -458.49371337890625 1477.506103515625 909.4417724609375
v -671.5623168945312 1475.4688720703125 908.4232177734375
v -458.5187072753906 1475.4837646484375 908.4306640625
v -671.5633544921875 1475.5135498046875 908.4359741210938
v -458.5187072753906 1472.6221923828125 910.6931762695312
v -668.6990966796875 1472.60986328125 910.7026977539062
v -458.5187072753906 1475.5257568359375 908.4264526367188
v -671.5623168945312 1475.468505859375 808.031494140625
v -458.5187072753906 1475.506103515625 810.46728515625
v -671.5687255859375 1475.5059814453125 810.46728515625
v -458.5187072753906 1475.483642578125 808.024169921875
v -673.5809326171875 1477.4761962890625 807.0421142578125
v -458.49371337890625 1477.506103515625 807.042236328125
v -675.5687255859375 1479.506103515625 808.0172119140625
v -458.5187072753906 1479.506103515625 808.0172119140625
v -675.5623168945312 1479.5135498046875 810.4385375976562
v -458.5187072753906 1479.5284423828125 810.4310913085938
v -673.5809936523438 1477.476318359375 811.4421997070312
v -458.49371337890625 1477.506103515625 811.4421997070312
v -671.5623168945312 1475.46875 810.4236450195312
v -458.5187072753906 1475.4837646484375 810.4310913085938
v -670.5640869140625 1474.4783935546875 806.971923828125
v -458.5187072753906 1475.5238037109375 808.0175170898438
v -671.5640869140625 1475.513427734375 808.0072631835938
v -458.5187072753906 1474.488525390625 806.9821166992188
v -608.5186767578125 -450.9721374511719 905.9640502929688
v -672.1068115234375 -451.0318908691406 810.4404907226562
v -608.5186767578125 -451.0318908691406 810.4404296875
v -672.0467529296875 -450.9721374511719 905.9640502929688
v -608.5186767578125 -452.5872802734375 945.14697265625
v -673.6610107421875 -452.58642578125 917.9309692382812
v -608.5186767578125 -452.58642578125 917.9309692382812
v -673.6619873046875 -452.5872802734375 945.14697265625
v -608.5186767578125 -452.24676513671875 917.9679565429688
v -673.6619873046875 -452.58758544921875 945.1466064453125
v -608.5186767578125 -452.58758544921875 945.14697265625
v -673.3216552734375 -452.24676513671875 917.9676513671875
v -608.5186767578125 -450.4937744140625 810.4174194335938
v -671.5687255859375 -450.4937744140625 906.0039672851562
v -608.5186767578125 -450.4937744140625 906.0039672851562
v -671.5687255859375 -450.4937744140625 810.4174194335938
v -608.5186767578125 -450.47137451171875 905.9900512695312
v -671.5687255859375 -450.4937744140625 908.467041015625
v -608.5186767578125 -450.4937744140625 908.467041015625
v -671.5623168945312 -450.4564208984375 905.9974365234375
v -608.4937133789062 -452.493896484375 904.9894409179688
v -673.5809326171875 -452.4640197753906 904.9893798828125
v -608.5186767578125 -454.493896484375 905.9639282226562
v -675.5687255859375 -454.493896484375 905.9639282226562
v -608.5186767578125 -454.5162658691406 908.4308471679688
v -675.5623168945312 -454.5013427734375 908.4382934570312
v -608.4937133789062 -452.493896484375 909.4419555664062
v -673.5809936523438 -452.4640808105469 909.4419555664062
v -608.5186767578125 -450.4714050292969 908.4308471679688
v -671.5623168945312 -450.4565124511719 908.4234008789062
v -608.5186767578125 -450.51348876953125 908.4266357421875
v -668.6990966796875 -447.5976257324219 910.702880859375
v -608.5186767578125 -447.60980224609375 910.693359375
v -671.5633544921875 -450.50128173828125 908.4361572265625
v -608.5186767578125 -450.4712829589844 808.0243530273438
v -671.5687255859375 -450.4937744140625 810.4674682617188
v -608.5186767578125 -450.4937744140625 810.4674682617188
v -671.5623168945312 -450.45623779296875 808.0316772460938
v -608.4937133789062 -452.493896484375 807.0424194335938
v -673.5809326171875 -452.4639587402344 807.0422973632812
v -608.5186767578125 -454.493896484375 808.0173950195312
v -675.5687255859375 -454.493896484375 808.0173950195312
v -608.5186767578125 -454.5162658691406 810.4312744140625
v -675.5623168945312 -454.5013427734375 810.438720703125
v -608.4937133789062 -452.493896484375 811.4423828125
v -673.5809936523438 -452.4640808105469 811.4423828125
v -608.5186767578125 -450.4714050292969 810.4312744140625
v -671.5623168945312 -450.4565124511719 810.423828125
v -608.5186767578125 -449.4763488769531 806.9822998046875
v -671.5640869140625 -450.5012512207031 808.0074462890625
v -608.5186767578125 -450.5114440917969 808.0177001953125
v -670.5640869140625 -449.46612548828125 806.9721069335938
v -458.543701171875 1477.599609375 945.1220703125
v -458.543701171875 1477.2315673828125 917.96826171875
v -458.543701171875 1477.6209716796875 917.9309692382812
v -458.543701171875 1477.506103515625 909.4865112304688
v -458.543701171875 1475.469970703125 908.4641723632812
v -458.543701171875 1479.542236328125 908.4641723632812
v -458.543701171875 1479.542236328125 905.9664306640625
v -458.543701171875 1475.469970703125 905.9563598632812
v -458.543701171875 1477.5062255859375 904.9444580078125
v -458.543701171875 1477.506103515625 811.4869384765625
v -458.543701171875 1475.469970703125 810.464599609375
v -458.543701171875 1479.542236328125 810.464599609375
v -458.543701171875 1479.542236328125 808.0198974609375
v -458.543701171875 1475.47021484375 807.9907836914062
v -458.543701171875 1477.50634765625 806.9973754882812
v -608.543701171875 -452.60870361328125 917.93115234375
v -608.543701171875 -452.2193603515625 917.9684448242188
v -608.543701171875 -452.5872802734375 945.1222534179688
v -608.543701171875 -454.53009033203125 908.46435546875
v -608.543701171875 -450.45758056640625 908.46435546875
v -608.543701171875 -452.493896484375 909.4866943359375
v -608.543701171875 -454.5300598144531 905.9666137695312
v -608.543701171875 -450.45770263671875 905.95654296875
v -608.543701171875 -452.4939880371094 904.9446411132812
v -608.543701171875 -454.53009033203125 810.4647827148438
v -608.543701171875 -450.45758056640625 810.4647827148438
v -608.543701171875 -452.493896484375 811.4871215820312
v -608.543701171875 -454.53009033203125 808.0200805664062
v -608.543701171875 -450.4578552246094 807.990966796875
v -608.543701171875 -452.4941711425781 806.99755859375
v -658.543701171875 -437.5188903808594 789.9749755859375
v -658.543701171875 1462.5311279296875 789.9747924804688
v -658.543701171875 -437.5188903808594 800.0250244140625
v -658.543701171875 1462.5311279296875 800.0248413085938
v -658.5687255859375 1462.506103515625 789.9747924804688
v -458.5187072753906 1462.506103515625 789.9747924804688
v -658.5687255859375 1462.506103515625 800.0248413085938
v -458.5187072753906 1462.506103515625 800.0248413085938
v -458.5187072753906 1487.506103515625 789.9747924804688
v -683.5687255859375 1487.506103515625 789.9747924804688
v -458.5187072753906 1487.506103515625 800.0248413085938
v -683.5687255859375 1487.506103515625 800.0248413085938
v -683.543701171875 1487.5311279296875 789.9747924804688
v -683.543701171875 -462.5188903808594 789.9749755859375
v -683.543701171875 1487.5311279296875 800.0248413085938
v -683.543701171875 -462.5188903808594 800.0250244140625
v -683.5687255859375 -462.493896484375 789.9749755859375
v -608.5186767578125 -462.493896484375 789.9749755859375
v -683.5687255859375 -462.493896484375 800.0250244140625
v -608.5186767578125 -462.493896484375 800.0250244140625
v -608.543701171875 -462.5188903808594 789.9749755859375
v -608.543701171875 -437.4689025878906 789.9749755859375
v -608.543701171875 -462.5188903808594 800.0250244140625
v -608.543701171875 -437.4689025878906 800.0250244140625
v -608.5186767578125 -437.493896484375 789.9749755859375
v -658.5687255859375 -437.493896484375 789.9749755859375
v -608.5186767578125 -437.493896484375 800.0250244140625
v -658.5687255859375 -437.493896484375 800.0250244140625
v -658.5186767578125 -437.4689025878906 800.0
v -658.5186767578125 1462.4810791015625 799.9998168945312
v -683.5687255859375 -462.5188903808594 800.0
v -608.5186767578125 -462.5188903808594 800.0
v -608.5186767578125 -437.4689025878906 800.0
v -458.5187072753906 1462.4810791015625 799.9998168945312
v -458.5187072753906 1487.5311279296875 799.9998168945312
v -683.5687255859375 1487.5311279296875 799.9998168945312
v -406.932373046875 -437.5055236816406 699.9749755859375
v -406.932373046875 -462.5555114746094 699.9749755859375
v -406.932373046875 -437.5055236816406 789.825439453125
v -406.932373046875 -462.5555114746094 789.825439453125
v -406.9573669433594 -462.530517578125 699.9749755859375
v 41.481300354003906 -462.530517578125 699.9750366210938
v -406.9573669433594 -462.530517578125 789.825439453125
v 41.481300354003906 -462.530517578125 789.8255004882812
v 41.481300354003906 -437.530517578125 699.9750366210938
v -406.9573669433594 -437.530517578125 699.9749755859375
v 41.481300354003906 -437.530517578125 789.8255004882812
v -406.9573669433594 -437.530517578125 789.825439453125
v -406.932373046875 -437.5055236816406 799.775390625
v -406.932373046875 -462.5555114746094 799.775390625
v -406.932373046875 -437.5055236816406 800.0250244140625
v -406.932373046875 -462.5555114746094 800.0250244140625
v -406.9573669433594 -462.530517578125 799.775390625
v 41.481300354003906 -462.530517578125 799.7754516601562
v -406.9573669433594 -462.530517578125 800.0250244140625
v 41.481300354003906 -462.530517578125 800.0250854492188
v 41.481300354003906 -437.530517578125 799.7754516601562
v -406.9573669433594 -437.530517578125 799.775390625
v 41.481300354003906 -437.530517578125 800.0250854492188
v -406.9573669433594 -437.530517578125 800.0250244140625
v 41.481300354003906 -451.0087585449219 905.964111328125
v -406.9573669433594 -451.0685119628906 810.4404296875
v 41.481300354003906 -451.0685119628906 810.4404907226562
v -406.9573669433594 -451.0087585449219 905.9640502929688
v 41.481300354003906 -452.6239013671875 945.1470336914062
v -406.9573669433594 -452.623046875 917.9309692382812
v 41.481300354003906 -452.623046875 917.9310302734375
v -406.9573669433594 -452.6239013671875 945.14697265625
v 41.481300354003906 -452.28338623046875 917.968017578125
v -406.9573669433594 -452.62420654296875 945.14697265625
v 41.481300354003906 -452.62420654296875 945.1470336914062
v -406.9573669433594 -452.28338623046875 917.9679565429688
v 41.481300354003906 -450.5303955078125 810.41748046875
v -406.9573669433594 -450.5303955078125 906.0039672851562
v 41.481300354003906 -450.5303955078125 906.0040283203125
v -406.9573669433594 -450.5303955078125 810.4174194335938
v 41.481300354003906 -450.50799560546875 905.9901123046875
v -406.9573669433594 -450.5303955078125 908.467041015625
v 41.481300354003906 -450.5303955078125 908.4671020507812
v -406.9573669433594 -450.50799560546875 905.9900512695312
v 41.50629806518555 -452.530517578125 904.989501953125
v -406.98236083984375 -452.530517578125 904.9894409179688
v 41.481300354003906 -454.530517578125 905.9639892578125
v -406.9573669433594 -454.530517578125 905.9639282226562
v 41.481300354003906 -454.5528869628906 908.430908203125
v -406.9573669433594 -454.5528869628906 908.4308471679688
v 41.50629806518555 -452.530517578125 909.4420166015625
v -406.98236083984375 -452.530517578125 909.4419555664062
v 41.481300354003906 -450.5080261230469 908.430908203125
v -406.9573669433594 -450.5080261230469 908.4308471679688
v 41.481300354003906 -450.55010986328125 908.4266967773438
v -406.9573669433594 -447.64642333984375 910.693359375
v 41.481300354003906 -447.64642333984375 910.6934204101562
v -406.9573669433594 -450.55010986328125 908.4266357421875
v 41.481300354003906 -450.5079040527344 808.0244140625
v -406.9573669433594 -450.5303955078125 810.4674682617188
v 41.481300354003906 -450.5303955078125 810.467529296875
v -406.9573669433594 -450.5079040527344 808.0243530273438
v 41.50629806518555 -452.530517578125 807.04248046875
v -406.98236083984375 -452.530517578125 807.0424194335938
v 41.481300354003906 -454.530517578125 808.0174560546875
v -406.9573669433594 -454.530517578125 808.0173950195312
v 41.481300354003906 -454.5528869628906 810.4313354492188
v -406.9573669433594 -454.5528869628906 810.4312744140625
v 41.50629806518555 -452.530517578125 811.4424438476562
v -406.98236083984375 -452.530517578125 811.4423828125
v 41.481300354003906 -450.5080261230469 810.4313354492188
v -406.9573669433594 -450.5080261230469 810.4312744140625
v 41.481300354003906 -449.5129699707031 806.9823608398438
v -406.9573669433594 -450.5480651855469 808.0177001953125
v 41.481300354003906 -450.5480651855469 808.0177612304688
v -406.9573669433594 -449.5129699707031 806.9822998046875
v 41.456298828125 -452.64532470703125 917.9312133789062
v 41.456298828125 -452.2559814453125 917.968505859375
v 41.456298828125 -452.6239013671875 945.122314453125
v 41.456298828125 -454.56671142578125 908.4644165039062
v 41.456298828125 -450.49420166015625 908.4644165039062
v 41.456298828125 -452.530517578125 909.4867553710938
v 41.456298828125 -454.5666809082031 905.9666748046875
v 41.456298828125 -450.49432373046875 905.9566040039062
v 41.456298828125 -452.5306091308594 904.9447021484375
v 41.456298828125 -454.56671142578125 810.46484375
v 41.456298828125 -450.49420166015625 810.46484375
v 41.456298828125 -452.530517578125 811.4871826171875
v 41.456298828125 -454.56671142578125 808.0201416015625
v 41.456298828125 -450.4944763183594 807.9910278320312
v 41.456298828125 -452.5307922363281 806.9976196289062
v -406.932373046875 -452.6239013671875 945.1222534179688
v -406.932373046875 -452.2559814453125 917.9684448242188
v -406.932373046875 -452.64532470703125 917.93115234375
v -406.932373046875 -452.530517578125 909.4866943359375
v -406.932373046875 -450.49420166015625 908.46435546875
v -406.932373046875 -454.56671142578125 908.46435546875
v -406.932373046875 -454.5666809082031 905.9666137695312
v -406.932373046875 -450.49432373046875 905.95654296875
v -406.932373046875 -452.5306091308594 904.9446411132812
v -406.932373046875 -452.530517578125 811.4871215820312
v -406.932373046875 -450.49420166015625 810.4647827148438
v -406.932373046875 -454.56671142578125 810.4647827148438
v -406.932373046875 -454.56671142578125 808.0200805664062
v -406.932373046875 -450.4944763183594 807.990966796875
v -406.932373046875 -452.5307922363281 806.99755859375
v -406.932373046875 -437.5055236816406 789.775390625
v -406.932373046875 -462.5555114746094 789.775390625
v -406.932373046875 -437.5055236816406 799.825439453125
v -406.932373046875 -462.5555114746094 799.825439453125
v -406.9573669433594 -462.530517578125 789.775390625
v 41.481300354003906 -462.530517578125 789.7754516601562
v -406.9573669433594 -462.530517578125 799.825439453125
v 41.481300354003906 -462.530517578125 799.8255004882812
v 41.481300354003906 -437.530517578125 789.7754516601562
v -406.9573669433594 -437.530517578125 789.775390625
v 41.481300354003906 -437.530517578125 799.8255004882812
v -406.9573669433594 -437.530517578125 799.825439453125
v -406.9573669433594 -437.5055236816406 800.0
v -406.9573669433594 -462.5555114746094 800.0
v 41.481300354003906 -437.5055236816406 800.0000610351562
v 41.481300354003906 -462.5555114746094 800.0000610351562
v -488.5233459472656 -1387.4937744140625 699.9750366210938
v -728.538818359375 -1387.5181884765625 699.9500732421875
v -488.5233459472656 -1387.4937744140625 1020.0250854492188
v -728.538818359375 -1387.5181884765625 1020.050048828125
v -838.0731201171875 -1387.5140380859375 699.9750366210938
v -838.0731201171875 -1387.5137939453125 954.9750366210938
v -961.5230712890625 -1387.5089111328125 954.9750366210938
v -961.5230712890625 -1387.5091552734375 699.9750366210938
v -1033.5687255859375 -1387.5062255859375 699.9750366210938
v -1033.5687255859375 -1387.5059814453125 1020.0250854492188
v -1033.543701171875 -1387.481201171875 699.9750366210938
v -1033.531494140625 -2237.53125 699.97509765625
v -1033.539794921875 -1662.846923828125 800.0250854492188
v -1033.539794921875 -1662.8466796875 996.9120483398438
v -1033.535400390625 -1958.70166015625 996.912109375
v -1033.543701171875 -1387.48095703125 1020.0250854492188
v -1033.531494140625 -2237.53076171875 1020.025146484375
v -1033.535400390625 -1958.701904296875 800.025146484375
v -1033.5565185546875 -2237.50634765625 699.97509765625
v -183.50625610351562 -2237.49365234375 699.97509765625
v -847.9713134765625 -2237.50341796875 795.6886596679688
v -847.9713134765625 -2237.50341796875 995.6385498046875
v -548.0211181640625 -2237.4990234375 995.6385498046875
v -1033.5565185546875 -2237.505859375 1020.025146484375
v -183.50625610351562 -2237.49365234375 1020.025146484375
v -548.0211181640625 -2237.4990234375 795.6886596679688
v -728.5147705078125 -1417.5181884765625 1030.025146484375
v -1003.5682373046875 -1417.5072021484375 999.9750366210938
v -728.5147705078125 -1417.5181884765625 999.9750366210938
v -1003.5682373046875 -1417.5072021484375 1030.0250244140625
v -728.5147705078125 -1417.543212890625 1000.0000610351562
v -1043.5614013671875 -1377.4981689453125 1000.0000610351562
v -728.5133056640625 -1377.4931640625 1000.0000610351562
v -1003.5609130859375 -1417.5499267578125 1000.0000610351562
v -728.5133056640625 -1377.5181884765625 999.9750366210938
v -1043.5687255859375 -1377.5054931640625 1030.0250244140625
v -728.5133056640625 -1377.5181884765625 1030.025146484375
v -1043.5687255859375 -1377.5054931640625 999.9750366210938
v -728.5133056640625 -1377.4931640625 1030.0001220703125
v -1003.5609130859375 -1417.5499267578125 1030.0
v -728.5147705078125 -1417.543212890625 1030.0001220703125
v -1043.5614013671875 -1377.4981689453125 1030.0
v -1003.543212890625 -1417.482177734375 1030.0250244140625
v -1003.531982421875 -2207.53076171875 999.97509765625
v -1003.543212890625 -1417.482177734375 999.9750366210938
v -1003.531982421875 -2207.53076171875 1030.025146484375
v -1003.5005493164062 -1417.489501953125 1000.0000610351562
v -1043.538818359375 -2247.52392578125 1000.0001220703125
v -1043.551025390625 -1377.48779296875 1000.0000610351562
v -1003.4893188476562 -2207.5234375 1000.0001220703125
v -1043.543701171875 -1377.48046875 999.9750366210938
v -1043.531494140625 -2247.53125 1030.025146484375
v -1043.543701171875 -1377.48046875 1030.0250244140625
v -1043.531494140625 -2247.53125 999.97509765625
v -1043.551025390625 -1377.48779296875 1030.0
v -1003.4893188476562 -2207.5234375 1030.0001220703125
v -1003.5005493164062 -1417.489501953125 1030.0
v -1043.538818359375 -2247.52392578125 1030.0001220703125
v -1003.5570068359375 -2207.505859375 1030.025146484375
v -183.50674438476562 -2207.49365234375 999.97509765625
v -1003.5570068359375 -2207.505859375 999.97509765625
v -183.50674438476562 -2207.49365234375 1030.0252685546875
v -1003.5496826171875 -2207.463134765625 1000.0001220703125
v -183.50625610351562 -2247.5185546875 1000.0001220703125
v -1043.5491943359375 -2247.513671875 1000.0001220703125
v -183.50674438476562 -2207.46875 1000.0001220703125
v -1043.5565185546875 -2247.50634765625 999.97509765625
v -183.50625610351562 -2247.49365234375 1030.0252685546875
v -1043.5565185546875 -2247.50634765625 1030.025146484375
v -183.50625610351562 -2247.49365234375 999.97509765625
v -1043.5491943359375 -2247.513671875 1030.0001220703125
v -183.50674438476562 -2207.46875 1030.000244140625
v -1003.5496826171875 -2207.463134765625 1030.0001220703125
v -183.50625610351562 -2247.5185546875 1030.000244140625
v -728.539794921875 -1417.543212890625 999.9750366210938
v -728.538330078125 -1377.4931640625 999.9750366210938
v -728.539794921875 -1417.543212890625 1030.025146484375
v -728.538330078125 -1377.4931640625 1030.025146484375
v -183.53173828125 -2207.46875 1030.0252685546875
v -183.53125 -2247.5185546875 999.97509765625
v -183.53173828125 -2207.46875 999.97509765625
v -183.53125 -2247.5185546875 1030.0252685546875
v -1033.5648193359375 -1662.796630859375 996.9370727539062
v -1023.5206298828125 -1662.79638671875 996.9370727539062
v -1033.5604248046875 -1958.751708984375 996.9371337890625
v -1023.5162353515625 -1958.751708984375 996.9371337890625
v -1033.5648193359375 -1662.796875 800.0000610351562
v -1033.5604248046875 -1958.751953125 800.0001220703125
v -1023.5206298828125 -1662.796630859375 800.0000610351562
v -1023.5162353515625 -1958.751953125 800.0001220703125
v -1023.5206298828125 -1662.8214111328125 996.9620971679688
v -1033.5648193359375 -1662.8218994140625 799.9750366210938
v -1023.5206298828125 -1662.8216552734375 799.9750366210938
v -1033.5648193359375 -1662.8216552734375 996.9620971679688
v -1023.5162353515625 -1958.7266845703125 996.962158203125
v -1023.5162353515625 -1958.7269287109375 799.97509765625
v -1033.5604248046875 -1958.7269287109375 799.97509765625
v -1033.5604248046875 -1958.7266845703125 996.962158203125
v -848.0213623046875 -2227.4814453125 995.66357421875
v -547.9710693359375 -2227.4775390625 995.66357421875
v -848.0213623046875 -2237.5283203125 995.66357421875
v -547.9710693359375 -2237.52392578125 995.66357421875
v -848.0213623046875 -2227.4814453125 795.6636352539062
v -848.0213623046875 -2237.5283203125 795.6636352539062
v -547.9710693359375 -2227.4775390625 795.6636352539062
v -547.9710693359375 -2237.52392578125 795.6636352539062
v -847.996337890625 -2227.4814453125 995.6885986328125
v -847.996337890625 -2237.5283203125 795.6386108398438
v -847.996337890625 -2227.4814453125 795.6386108398438
v -847.996337890625 -2237.5283203125 995.6885986328125
v -547.99609375 -2227.4775390625 995.6885986328125
v -547.99609375 -2227.4775390625 795.6386108398438
v -547.99609375 -2237.52392578125 795.6386108398438
v -547.99609375 -2237.52392578125 995.6885986328125
v -183.51846313476562 -1387.46875 1020.0000610351562
v -488.54833984375 -1387.4437255859375 1020.0000610351562
v -728.538818359375 -1387.4681396484375 1020.0000610351562
v -1033.5565185546875 -2237.53076171875 1020.0001220703125
v -183.50625610351562 -2237.5185546875 1020.0001220703125
v -1033.5687255859375 -1387.48095703125 1020.0000610351562
v -458.5187072753906 -1087.4937744140625 699.9750366210938
v -758.5687255859375 -1087.5062255859375 699.9750366210938
v -458.5187072753906 -1087.4937744140625 1000.0250854492188
v -758.5687255859375 -1087.5059814453125 1000.0250854492188
v -758.543701171875 -1087.481201171875 699.9750366210938
v -758.543701171875 -1387.53125 699.9750366210938
v -758.543701171875 -1128.790771484375 870.0250854492188
v -758.543701171875 -1128.790771484375 915.9750366210938
v -758.543701171875 -1338.74072265625 915.9750366210938
v -758.543701171875 -1087.48095703125 1000.0250854492188
v -758.543701171875 -1387.531005859375 1000.0250854492188
v -758.543701171875 -1338.74072265625 870.0250854492188
v -758.5687255859375 -1387.5062255859375 699.9750366210938
v -458.5184631347656 -1387.4937744140625 699.9750366210938
v -758.5687255859375 -1387.5059814453125 1000.0250854492188
v -458.5184631347656 -1387.4937744140625 1000.0250854492188
v -458.5174865722656 -1117.4937744140625 1010.025146484375
v -728.5687255859375 -1117.5047607421875 979.9750366210938
v -458.5174865722656 -1117.4937744140625 979.9750366210938
v -728.5687255859375 -1117.5047607421875 1010.025146484375
v -458.5174865722656 -1117.518798828125 980.0000610351562
v -768.5614013671875 -1077.4989013671875 980.0000610351562
v -458.5191955566406 -1077.46875 980.0000610351562
v -728.5614013671875 -1117.5474853515625 980.0000610351562
v -458.5191955566406 -1077.4937744140625 979.9750366210938
v -768.5687255859375 -1077.5062255859375 1010.025146484375
v -458.5191955566406 -1077.4937744140625 1010.025146484375
v -768.5687255859375 -1077.5062255859375 979.9750366210938
v -458.5191955566406 -1077.46875 1010.0001220703125
v -728.5614013671875 -1117.5474853515625 1010.0001220703125
v -458.5174865722656 -1117.518798828125 1010.0001220703125
v -768.5614013671875 -1077.4989013671875 1010.0001220703125
v -728.543701171875 -1117.479736328125 1010.025146484375
v -728.543701171875 -1387.531005859375 979.9750366210938
v -728.543701171875 -1117.479736328125 979.9750366210938
v -728.543701171875 -1387.531005859375 1010.025146484375
v -728.5010375976562 -1117.487060546875 980.0000610351562
v -768.5687255859375 -1387.531005859375 980.0000610351562
v -768.551025390625 -1077.488525390625 980.0000610351562
v -728.5186767578125 -1387.531005859375 980.0000610351562
v -768.543701171875 -1077.481201171875 979.9750366210938
v -768.543701171875 -1387.531005859375 1010.025146484375
v -768.543701171875 -1077.481201171875 1010.025146484375
v -768.543701171875 -1387.531005859375 979.9750366210938
v -768.551025390625 -1077.488525390625 1010.0001220703125
v -728.5186767578125 -1387.531005859375 1010.0001220703125
v -728.5010375976562 -1117.487060546875 1010.0001220703125
v -768.5687255859375 -1387.531005859375 1010.0001220703125
v -458.54248046875 -1117.518798828125 979.9750366210938
v -458.544189453125 -1077.46875 979.9750366210938
v -458.54248046875 -1117.518798828125 1010.025146484375
v -458.544189453125 -1077.46875 1010.025146484375
v -728.5186767578125 -1387.5059814453125 1010.025146484375
v -768.5687255859375 -1387.5059814453125 979.9750366210938
v -728.5186767578125 -1387.5059814453125 979.9750366210938
v -768.5687255859375 -1387.5059814453125 1010.025146484375
v -758.5687255859375 -1128.74072265625 916.0000610351562
v -744.5172119140625 -1128.74072265625 916.0000610351562
v -758.5687255859375 -1338.790771484375 916.0000610351562
v -744.5172119140625 -1338.790771484375 916.0000610351562
v -758.5687255859375 -1128.74072265625 870.0000610351562
v -758.5687255859375 -1338.790771484375 870.0000610351562
v -744.5172119140625 -1128.74072265625 870.0000610351562
v -744.5172119140625 -1338.790771484375 870.0000610351562
v -744.5172119140625 -1128.7657470703125 916.0250854492188
v -758.5687255859375 -1128.7657470703125 869.9750366210938
v -744.5172119140625 -1128.7657470703125 869.9750366210938
v -758.5687255859375 -1128.7657470703125 916.0250854492188
v -744.5172119140625 -1338.7657470703125 916.0250854492188
v -744.5172119140625 -1338.7657470703125 869.9750366210938
v -758.5687255859375 -1338.7657470703125 869.9750366210938
v -758.5687255859375 -1338.7657470703125 916.0250854492188
v -758.5687255859375 -1387.531005859375 1000.0000610351562
v -458.5184631347656 -1387.518798828125 1000.0000610351562
v -458.5187072753906 -1087.46875 1000.0000610351562
v -758.5687255859375 -1087.48095703125 1000.0000610351562
v 856.906982421875 91.22893524169922 -0.024995284155011177
v 837.191650390625 121.47003936767578 -0.02499878592789173
v 856.906982421875 91.22893524169922 265.0249938964844
v 837.191650390625 121.47003936767578 265.0249938964844
v 837.2303466796875 121.44883728027344 -0.02499878592789173
v 807.1812744140625 121.76039123535156 -0.02500012330710888
v 837.2303466796875 121.44883728027344 265.0249938964844
v 807.1812744140625 121.76039123535156 265.0249938964844
v 807.2203979492188 121.7807846069336 -0.02500012330710888
v 786.8828735351562 91.9543228149414 -0.024998407810926437
v 807.2203979492188 121.7807846069336 265.0249938964844
v 786.8828735351562 91.9543228149414 265.0249938964844
v 856.9140014648438 91.23853302001953 265.0
v 837.2265014648438 121.48774719238281 265.0
v 807.1859130859375 121.7992172241211 265.0
v 786.8760375976562 91.96405792236328 265.0
v 856.9180297851562 91.22461700439453 265.0000915527344
v 786.8770751953125 91.94693756103516 265.0000915527344
v 789.8851928710938 381.9765625 265.00018310546875
v 859.9261474609375 381.2544860839844 265.00018310546875
v 786.8782348632812 91.98001861572266 264.9698791503906
v 856.9176025390625 91.25772094726562 264.9698791503906
v 776.0499877929688 81.36100006103516 305.0180969238281
v 867.523681640625 80.41763305664062 305.0180969238281
v 856.8849487304688 91.22576141357422 264.9698791503906
v 859.89306640625 381.2540283203125 264.969970703125
v 867.5040893554688 80.39847564697266 305.0180969238281
v 870.734619140625 391.8599548339844 305.0180358886719
v 859.9249877929688 381.2214050292969 264.969970703125
v 789.8856201171875 381.9434509277344 264.969970703125
v 870.7537231445312 391.8404235839844 305.01806640625
v 779.2802734375 392.7835388183594 305.0180969238281
v 789.9182739257812 381.97540283203125 264.969970703125
v 786.91015625 91.94739532470703 264.9698791503906
v 779.2998657226562 392.8028259277344 305.0180969238281
v 776.069091796875 81.34144592285156 305.01812744140625
v 900.2164916992188 22.438440322875977 305.0002136230469
v 867.4747924804688 80.44799041748047 305.0001220703125
v 870.7042236328125 391.8110656738281 305.0000915527344
v 776.0994873046875 81.39034271240234 305.0001220703125
v 709.4072265625 23.561853408813477 305.0001220703125
v 712.6057739257812 461.9907531738281 305.0002746582031
v 903.4150390625 460.8551940917969 305.0002746582031
v 779.3291625976562 392.7532958984375 305.0000915527344
v 709.4073486328125 23.586816787719727 304.9751281738281
v 900.2166748046875 22.463476181030273 304.9752197265625
v 709.4073486328125 23.586816787719727 405.0251159667969
v 900.2166748046875 22.463476181030273 405.02520751953125
v 900.1914672851562 22.438623428344727 304.9752197265625
v 903.3900756835938 460.8554382324219 304.97528076171875
v 900.1914672851562 22.438623428344727 405.02520751953125
v 903.3900756835938 460.8554382324219 405.0252685546875
v 903.4149169921875 460.8302307128906 304.97528076171875
v 712.6055908203125 461.9657287597656 304.97528076171875
v 903.4149169921875 460.8302307128906 405.0252685546875
v 712.6055908203125 461.9657897949219 405.0252685546875
v 712.6307983398438 461.9905700683594 304.97528076171875
v 709.4321899414062 23.561670303344727 304.9751281738281
v 712.6307983398438 461.9906311035156 405.0252685546875
v 709.4321899414062 23.561670303344727 405.0251159667969
v 900.2164916992188 22.438440322875977 405.0002136230469
v 712.6057739257812 461.9908142089844 405.0002746582031
v 709.4072265625 23.561853408813477 405.0001220703125
v 903.4150390625 460.8551940917969 405.0002746582031
v 809.5731201171875 351.75244140625 -0.02502012625336647
v 839.6221923828125 351.4407958984375 -0.025018787011504173
v 809.5731201171875 351.75244140625 265.02496337890625
v 839.6221923828125 351.4407958984375 265.02496337890625
v 839.5830688476562 351.4203796386719 -0.025018787011504173
v 859.9149780273438 381.2503967285156 -0.025020504370331764
v 839.5830688476562 351.4203796386719 265.0249328613281
v 859.9149780273438 381.2503967285156 265.0249328613281
v 789.89111328125 381.97552490234375 -0.025023628026247025
v 809.61181640625 351.73126220703125 -0.02502012625336647
v 789.89111328125 381.97552490234375 265.02496337890625
v 809.61181640625 351.73126220703125 265.02496337890625
v 789.8840942382812 381.9659423828125 264.9999694824219
v 809.5769653320312 351.7135314941406 264.9999694824219
v 839.6175537109375 351.4019470214844 264.9999694824219
v 859.9218139648438 381.24066162109375 264.9999694824219
v 827.20703125 121.5267562866211 -0.024999231100082397
v 827.31005859375 131.57479858398438 -0.02500010095536709
v 827.20703125 121.5267562866211 255.02500915527344
v 827.31005859375 131.57479858398438 255.02499389648438
v 827.3348388671875 131.54954528808594 -0.02500010095536709
v 817.2869873046875 131.65260314941406 -0.025000547990202904
v 827.3348388671875 131.54954528808594 255.02499389648438
v 817.2869873046875 131.65260314941406 255.0249786376953
v 817.312255859375 131.67733764648438 -0.025000547990202904
v 817.208984375 121.6295394897461 -0.024999678134918213
v 817.312255859375 131.67733764648438 255.0249786376953
v 817.208984375 121.6295394897461 255.02499389648438
v 819.5712280273438 351.6749267578125 255.00006103515625
v 829.6192626953125 351.5716247558594 255.0000762939453
v 827.3345336914062 131.52455139160156 255.0
v 817.2877197265625 131.6274871826172 254.99998474121094
v 827.20703125 121.5267562866211 254.9750213623047
v 829.59423828125 351.5718688964844 254.97508239746094
v 827.20703125 121.5267562866211 265.0249938964844
v 829.59423828125 351.5718688964844 265.0250549316406
v 819.59619140625 351.6746520996094 254.97506713867188
v 817.208984375 121.6295394897461 254.97500610351562
v 819.59619140625 351.6746520996094 265.0250549316406
v 817.208984375 121.6295394897461 265.0249938964844
v 827.2319946289062 121.52649688720703 265.0
v 819.5712280273438 351.6749267578125 265.00006103515625
v 817.1839599609375 121.62979888916016 265.0
v 829.6192626953125 351.5716247558594 265.00006103515625
v 819.4683837890625 341.6517333984375 -0.025018811225891113
v 829.5162353515625 341.5487060546875 -0.025018364191055298
v 819.4683837890625 341.6517333984375 255.02496337890625
v 829.5162353515625 341.5487060546875 255.0249786376953
v 829.490966796875 341.5239562988281 -0.025018364191055298
v 829.59423828125 351.5719909667969 -0.02501923404633999
v 829.490966796875 341.5239562988281 255.0249786376953
v 829.59423828125 351.5719909667969 255.0249786376953
v 819.59619140625 351.6745300292969 -0.025019677355885506
v 819.4931640625 341.6264953613281 -0.025018809363245964
v 819.59619140625 351.6745300292969 255.02496337890625
v 819.4931640625 341.6264953613281 255.02496337890625
v 829.5159301757812 341.523681640625 254.99998474121094
v 819.5712280273438 351.6748046875 254.99996948242188
v 819.4681396484375 341.6267395019531 254.99996948242188
v 829.6192626953125 351.5717468261719 254.99998474121094
v 841.456298828125 -962.531005859375 399.97509765625
v 841.456298828125 1437.5189208984375 399.9748840332031
v 841.456298828125 647.1503295898438 530.0249633789062
v 841.456298828125 137.51901245117188 1020.5892333984375
v 841.456298828125 347.4690246582031 1020.5892333984375
v 841.456298828125 647.150390625 1129.9749755859375
v 841.456298828125 1247.100341796875 1129.974853515625
v 841.456298828125 -962.531005859375 1150.025146484375
v 841.456298828125 137.51901245117188 960.6392211914062
v 841.456298828125 1437.51904296875 1150.02490234375
v 841.456298828125 1247.1002197265625 530.02490234375
v 841.456298828125 347.4690246582031 960.6392211914062
v 541.456298828125 1437.5189208984375 399.9748840332031
v 541.456298828125 -362.5310974121094 399.97503662109375
v 541.456298828125 241.26541137695312 800.0250244140625
v 541.456298828125 1224.175537109375 910.8622436523438
v 541.456298828125 1224.175537109375 970.812255859375
v 541.456298828125 1014.2255249023438 970.8123168945312
v 541.456298828125 241.26541137695312 999.9749755859375
v 541.456298828125 -158.68460083007812 999.9749755859375
v 541.456298828125 1437.51904296875 1150.02490234375
v 541.456298828125 -362.5309753417969 1150.0250244140625
v 541.456298828125 -158.68460083007812 800.0250244140625
v 541.456298828125 1014.2254638671875 910.8623046875
v 541.4813232421875 -362.506103515625 399.97503662109375
v 41.431297302246094 -362.506103515625 399.9750061035156
v 393.3844299316406 -362.5059814453125 896.1022338867188
v 393.3844299316406 -362.5059814453125 961.7521362304688
v 328.0345153808594 -362.5059814453125 961.7521362304688
v 541.4813232421875 -362.5059814453125 1150.0250244140625
v 41.431297302246094 -362.5059814453125 1150.0250244140625
v 328.0345153808594 -362.5059814453125 896.1022338867188
v 41.456298828125 -362.4811096191406 399.9750061035156
v 41.456298828125 -962.531005859375 399.9750671386719
v 41.456298828125 -362.4809875488281 1150.0250244140625
v 41.456298828125 -962.531005859375 1150.025146484375
v 841.4813232421875 -962.531005859375 1150.0001220703125
v 841.4813232421875 1437.51904296875 1149.9998779296875
v 541.4312744140625 -362.4809875488281 1150.0
v 41.431297302246094 -962.531005859375 1150.0001220703125
v 541.4312744140625 1437.51904296875 1149.9998779296875
v 41.431297302246094 -362.4809875488281 1150.0
v 566.4312744140625 1437.49462890625 1149.9998779296875
v 816.4813232421875 1437.49462890625 1149.9998779296875
v 566.4312744140625 1417.449462890625 1149.9998779296875
v 816.4813232421875 1417.449462890625 1149.9998779296875
v 66.4312973022461 -942.51025390625 1150.0001220703125
v 816.4813232421875 -942.51025390625 1150.0001220703125
v 66.4312973022461 -962.555419921875 1150.0001220703125
v 816.4813232421875 -962.555419921875 1150.0001220703125
v 566.4312744140625 1417.4744873046875 1149.974853515625
v 816.4813232421875 1417.4744873046875 1149.974853515625
v 566.4312744140625 1417.4744873046875 1200.02490234375
v 816.4813232421875 1417.4744873046875 1200.02490234375
v 816.4813232421875 1437.4696044921875 1149.974853515625
v 566.4312744140625 1437.4696044921875 1149.974853515625
v 816.4813232421875 1437.4696044921875 1200.02490234375
v 566.4312744140625 1437.4696044921875 1200.02490234375
v 566.4312744140625 1437.49462890625 1199.9998779296875
v 566.4312744140625 1417.449462890625 1199.9998779296875
v 816.4813232421875 1437.49462890625 1199.9998779296875
v 816.4813232421875 1417.449462890625 1199.9998779296875
v 66.4312973022461 -962.5303955078125 1149.97509765625
v 816.4813232421875 -962.5303955078125 1149.97509765625
v 66.4312973022461 -962.5303955078125 1200.025146484375
v 816.4813232421875 -962.5303955078125 1200.025146484375
v 816.4813232421875 -942.5352783203125 1149.97509765625
v 66.4312973022461 -942.5352783203125 1149.97509765625
v 816.4813232421875 -942.5352783203125 1200.025146484375
v 66.4312973022461 -942.5352783203125 1200.025146484375
v 66.4312973022461 -942.51025390625 1200.0001220703125
v 66.4312973022461 -962.555419921875 1200.0001220703125
v 816.4813232421875 -942.51025390625 1200.0001220703125
v 816.4813232421875 -962.555419921875 1200.0001220703125
v 816.456298828125 1437.49462890625 1149.974853515625
v 816.456298828125 -962.555419921875 1149.97509765625
v 816.456298828125 1437.49462890625 1200.02490234375
v 816.456298828125 -962.555419921875 1200.025146484375
v 816.4312744140625 -962.5303955078125 1149.97509765625
v 841.4813232421875 -962.5303955078125 1149.97509765625
v 816.4312744140625 -962.5303955078125 1200.025146484375
v 841.4813232421875 -962.5303955078125 1200.025146484375
v 841.456298828125 -962.555419921875 1149.97509765625
v 841.456298828125 1437.49462890625 1149.974853515625
v 841.456298828125 -962.555419921875 1200.025146484375
v 841.456298828125 1437.49462890625 1200.02490234375
v 841.4813232421875 1437.4696044921875 1149.974853515625
v 816.4312744140625 1437.4696044921875 1149.974853515625
v 841.4813232421875 1437.4696044921875 1200.02490234375
v 816.4312744140625 1437.4696044921875 1200.02490234375
v 816.4312744140625 1437.49462890625 1199.9998779296875
v 816.4312744140625 -962.555419921875 1200.0001220703125
v 841.4813232421875 1437.49462890625 1199.9998779296875
v 841.4813232421875 -962.555419921875 1200.0001220703125
v 541.456298828125 1437.49462890625 1149.974853515625
v 541.456298828125 -362.5553894042969 1149.9749755859375
v 541.456298828125 1437.49462890625 1200.02490234375
v 541.456298828125 -362.5553894042969 1200.0250244140625
v 541.4813232421875 -362.5303955078125 1149.9749755859375
v 41.431297302246094 -362.5303955078125 1149.9749755859375
v 541.4813232421875 -362.5303955078125 1200.0250244140625
v 41.431297302246094 -362.5303955078125 1200.0250244140625
v 41.456298828125 -362.5054016113281 1149.9749755859375
v 41.456298828125 -962.555419921875 1149.97509765625
v 41.456298828125 -362.5054016113281 1200.0250244140625
v 41.456298828125 -962.555419921875 1200.025146484375
v 41.431297302246094 -962.5303955078125 1149.97509765625
v 66.4813003540039 -962.5303955078125 1149.97509765625
v 41.431297302246094 -962.5303955078125 1200.025146484375
v 66.4813003540039 -962.5303955078125 1200.025146484375
v 66.456298828125 -962.555419921875 1149.97509765625
v 66.456298828125 -387.5054016113281 1149.9749755859375
v 66.456298828125 -962.555419921875 1200.025146484375
v 66.456298828125 -387.5054016113281 1200.0250244140625
v 66.4312973022461 -387.5303955078125 1149.9749755859375
v 566.4813232421875 -387.5303955078125 1149.9749755859375
v 66.4312973022461 -387.5303955078125 1200.0250244140625
v 566.4813232421875 -387.5303955078125 1200.0250244140625
v 566.456298828125 -387.5553894042969 1149.9749755859375
v 566.456298828125 1437.49462890625 1149.974853515625
v 566.456298828125 -387.5553894042969 1200.0250244140625
v 566.456298828125 1437.49462890625 1200.02490234375
v 566.4813232421875 1437.4696044921875 1149.974853515625
v 541.4312744140625 1437.4696044921875 1149.974853515625
v 566.4813232421875 1437.4696044921875 1200.02490234375
v 541.4312744140625 1437.4696044921875 1200.02490234375
v 541.4312744140625 1437.49462890625 1199.9998779296875
v 541.4136352539062 -362.5480651855469 1200.0
v 566.4813232421875 1437.49462890625 1199.9998779296875
v 41.44379806518555 -362.51788330078125 1200.0
v 41.431297302246094 -962.555419921875 1200.0001220703125
v 66.4386215209961 -387.57305908203125 1200.0
v 66.4813003540039 -962.555419921875 1200.0001220703125
v 566.4688110351562 -387.54290771484375 1200.0
v 316.7376403808594 2237.506103515625 799.9747924804688
v -83.3123550415039 2237.506103515625 799.9747314453125
v -83.3123550415039 2237.506103515625 1000.0247802734375
v 316.7376403808594 2237.506103515625 1000.0248413085938
v 841.456298828125 647.1002807617188 529.9749145507812
v 841.456298828125 1247.1502685546875 529.974853515625
v 841.456298828125 1247.150390625 1130.02490234375
v 841.456298828125 647.100341796875 1130.0250244140625
v 541.456298828125 241.31539916992188 799.9749755859375
v 541.456298828125 -158.73458862304688 799.9749755859375
v 541.456298828125 -158.73458862304688 1000.0250244140625
v 541.456298828125 241.31539916992188 1000.0250244140625
v 541.4739990234375 -362.48773193359375 1200.0
v 66.49897766113281 -387.5127258300781 1200.0
v -433.50103759765625 1462.4517822265625 1149.9998779296875
v -433.5613708496094 2212.4267578125 1149.999755859375
v 916.4136352539062 2212.4873046875 1149.999755859375
v 916.4739990234375 1462.5123291015625 1149.9998779296875
v 66.41361999511719 1312.451904296875 1149.9998779296875
v 916.4136352539062 1462.451904296875 1099.9998779296875
v 916.4739990234375 2212.427001953125 1099.999755859375
v -433.50103759765625 2212.487060546875 1099.999755859375
v -458.5613708496094 1437.462158203125 1099.9998779296875
v -433.5613708496094 1462.51220703125 1099.9998779296875
v -283.5187072753906 1437.4945068359375 1099.9998779296875
v -283.5613708496094 1312.51220703125 1099.9998779296875
v 66.41361999511719 1312.451904296875 1099.9998779296875
v 916.4742431640625 -1737.4510498046875 1150.0001220703125
v -433.50079345703125 -1737.511474609375 1150.0001220703125
v -433.5613708496094 -987.5364379882812 1150.0001220703125
v 916.4739990234375 -987.5364379882812 1150.0001220703125
v 941.463623046875 -962.47607421875 1150.0001220703125
v -283.50103759765625 1312.4517822265625 1149.9998779296875
v -283.5187072753906 1437.4945068359375 1149.9998779296875
v -406.9573669433594 -454.530517578125 810.4674682617188
v 41.481300354003906 -454.530517578125 810.467529296875
v -406.9573669433594 -454.5528869628906 808.0535888671875
v 41.481300354003906 -454.5528869628906 808.0536499023438
v -406.9573669433594 -450.5303955078125 807.9884033203125
v 41.481300354003906 -450.5303955078125 807.9884643554688
v -406.9573669433594 -454.530517578125 908.467041015625
v 41.481300354003906 -454.530517578125 908.4671020507812
v -406.9573669433594 -454.5528869628906 906.0001220703125
v 41.481300354003906 -454.5528869628906 906.0001831054688
v -406.9573669433594 -450.5303955078125 905.9539184570312
v 41.481300354003906 -450.5303955078125 905.9539794921875
v -675.5687255859375 -454.493896484375 810.4674682617188
v -608.5186767578125 -454.493896484375 810.4674682617188
v -675.5623168945312 -454.5013427734375 808.046142578125
v -608.5186767578125 -454.5162658691406 808.0535888671875
v -671.5687255859375 -450.4937744140625 807.9884033203125
v -608.5186767578125 -450.4937744140625 807.9884033203125
v -675.5687255859375 -454.493896484375 908.467041015625
v -608.5186767578125 -454.493896484375 908.467041015625
v -675.5623168945312 -454.5013427734375 905.99267578125
v -608.5186767578125 -454.5162658691406 906.0001220703125
v -671.5687255859375 -450.4937744140625 905.9539184570312
v -608.5186767578125 -450.4937744140625 905.9539184570312
v -458.5187072753906 1479.506103515625 810.46728515625
v -675.5687255859375 1479.506103515625 810.46728515625
v -458.5187072753906 1479.5284423828125 808.0534057617188
v -675.5623168945312 1479.5135498046875 808.0459594726562
v -458.5187072753906 1475.506103515625 807.9882202148438
v -671.5687255859375 1475.5059814453125 807.9882202148438
v -458.5187072753906 1479.506103515625 908.4668579101562
v -675.5687255859375 1479.506103515625 908.4668579101562
v -458.5187072753906 1479.5284423828125 905.9999389648438
v -675.5623168945312 1479.5135498046875 905.9924926757812
v -458.5187072753906 1475.506103515625 905.9537353515625
v -671.5687255859375 1475.506103515625 905.9537353515625
v -675.543701171875 1479.5311279296875 810.46728515625
v -675.543701171875 -454.5188903808594 810.4674682617188
v -675.5511474609375 1479.5247802734375 808.0459594726562
v -675.5511474609375 -454.5125427246094 808.046142578125
v -671.543701171875 1475.531005859375 807.9882202148438
v -671.543701171875 -450.5187683105469 807.9884033203125
v -671.50634765625 1475.5247802734375 905.9972534179688
v -671.50634765625 -450.51239013671875 905.9974365234375
v -675.543701171875 1479.5311279296875 905.9637451171875
v -675.543701171875 -454.5188903808594 905.9639282226562
v -675.5511474609375 1479.5247802734375 908.4381103515625
v -675.5511474609375 -454.5125427246094 908.4382934570312
f 36 34 35
f 34 33 35
f 1112 1114 1111
f 1112 1111 1113
f 1108 1110 1107
f 1108 1107 1109
f 1085 1089 1088
f 1086 1085 1087
f 1087 1085 1088
f 1088 1090 1087
f 325 331 332
f 325 329 331
f 326 329 325
f 326 325 327
f 326 328 329
f 329 328 330
f 348 345 346
f 346 345 347
f 344 341 342
f 342 341 343
f 340 337 338
f 338 337 339
f 336 333 334
f 334 333 335
f 321 320 322
f 322 320 319
f 318 317 319
f 317 322 319
f 323 322 317
f 324 323 317
f 232 230 233
f 232 233 235
f 234 232 236
f 234 230 232
f 234 229 230
f 230 229 231
f 268 265 266
f 266 265 267
f 264 261 262
f 262 261 263
f 260 257 258
f 258 257 259
f 256 253 254
f 254 253 255
f 252 249 250
f 250 249 251
f 248 245 246
f 246 245 247
f 244 241 242
f 242 241 243
f 240 237 238
f 238 237 239
f 26 25 27
f 27 25 28
f 24 21 22
f 22 21 23
f 18 17 19
f 17 20 19
f 1329 1331 1328
f 1328 1327 1329
f 1329 1327 1330
f 1330 1332 1329
f 228 225 226
f 227 224 225
f 224 223 225
f 225 223 226
f 223 221 226
f 222 221 223
f 1287 1288 1290
f 1288 1287 1289
f 1271 1272 1274
f 1272 1271 1273
f 1260 1259 1261
f 1262 1261 1259
f 1227 1228 1230
f 1228 1227 1229
f 1204 1203 1205
f 1209 1205 1203
f 1209 1210 1205
f 1209 1208 1210
f 1210 1208 1206
f 1207 1206 1208
f 1207 1203 1206
f 1206 1203 1204
f 30 29 31
f 32 30 31
f 14 16 13
f 14 13 15
f 6 5 7
f 7 12 6
f 12 11 6
f 9 11 12
f 10 11 9
f 9 8 10
f 8 5 10
f 7 5 8
f 1164 1163 1165
f 1163 1166 1165
f 1146 1143 1144
f 1144 1143 1145
f 1052 1049 1050
f 1050 1049 1051
f 576 575 577
f 575 578 577
f 464 463 465
f 465 463 466
f 460 459 461
f 461 459 462
f 456 455 457
f 457 455 458
f 452 451 453
f 453 451 454
f 448 447 449
f 449 447 450
f 444 443 445
f 445 443 446
f 440 439 441
f 441 439 442
f 436 435 437
f 437 435 438
f 432 431 433
f 431 434 433
f 376 375 377
f 377 375 379
f 378 377 379
f 379 382 378
f 378 382 381
f 381 380 378
f 2 1 3
f 4 2 3
f 1418 1417 1419
f 1419 1424 1418
f 1437 1424 1422
f 1422 1420 1437
f 1421 1420 1438
f 1423 1421 1438
f 364 361 362
f 362 361 363
f 360 357 358
f 358 357 359
f 356 353 354
f 354 353 355
f 352 349 350
f 350 349 351
f 218 217 219
f 219 217 220
f 216 213 214
f 214 213 215
f 210 209 211
f 209 212 211
f 196 198 199
f 199 198 190
f 197 198 196
f 196 195 197
f 195 192 197
f 194 192 195
f 193 192 194
f 194 199 193
f 193 199 200
f 200 199 190
f 191 200 190
f 190 189 191
f 191 189 192
f 192 189 197
f 1414 1413 1415
f 1416 1414 1415
f 1410 1409 1411
f 1412 1410 1411
f 1406 1405 1407
f 1408 1406 1407
f 1402 1401 1403
f 1404 1402 1403
f 1398 1397 1399
f 1400 1398 1399
f 1394 1393 1395
f 1396 1394 1395
f 1390 1389 1391
f 1392 1390 1391
f 1386 1385 1387
f 1388 1386 1387
f 1382 1381 1383
f 1384 1382 1383
f 1378 1377 1379
f 1380 1378 1379
f 1374 1373 1375
f 1376 1374 1375
f 1370 1369 1371
f 1372 1370 1371
f 1366 1365 1367
f 1368 1366 1367
f 1362 1361 1363
f 1364 1362 1363
f 1358 1357 1359
f 1360 1358 1359
f 1354 1353 1355
f 1356 1354 1355
f 1350 1349 1351
f 1352 1350 1351
f 1346 1345 1347
f 1348 1346 1347
f 1342 1341 1343
f 1344 1342 1343
f 1338 1337 1339
f 1338 1339 1340
f 1334 1333 1335
f 1334 1335 1336
f 1284 1283 1285
f 1286 1284 1285
f 1280 1279 1281
f 1282 1280 1281
f 1276 1275 1277
f 1278 1276 1277
f 1268 1267 1269
f 1270 1268 1269
f 1264 1263 1265
f 1266 1264 1265
f 1256 1255 1257
f 1258 1256 1257
f 1252 1251 1253
f 1254 1252 1253
f 1248 1247 1249
f 1250 1248 1249
f 1224 1223 1225
f 1226 1224 1225
f 1220 1219 1221
f 1222 1220 1221
f 1216 1215 1217
f 1218 1216 1217
f 1212 1211 1213
f 1214 1212 1213
f 1140 1139 1141
f 1142 1140 1141
f 1136 1138 1135
f 1136 1135 1137
f 1132 1134 1131
f 1132 1131 1133
f 1128 1130 1127
f 1128 1127 1129
f 1124 1126 1123
f 1124 1123 1125
f 1120 1122 1119
f 1120 1119 1121
f 1116 1118 1115
f 1116 1115 1117
f 1046 1045 1047
f 1048 1046 1047
f 1042 1044 1041
f 1042 1041 1043
f 1038 1040 1037
f 1038 1037 1039
f 1034 1036 1033
f 1034 1033 1035
f 1030 1032 1029
f 1030 1029 1031
f 1026 1028 1025
f 1026 1025 1027
f 1022 1024 1021
f 1022 1021 1023
f 1018 1020 1017
f 1018 1017 1019
f 1014 1016 1013
f 1014 1013 1015
f 1010 1012 1009
f 1010 1009 1011
f 1006 1008 1005
f 1006 1005 1007
f 1002 1004 1001
f 1002 1001 1003
f 998 1000 997
f 998 997 999
f 968 967 969
f 970 968 969
f 964 963 965
f 966 964 965
f 960 959 961
f 962 960 961
f 956 955 957
f 958 956 957
f 846 842 847
f 842 848 847
f 843 848 842
f 842 841 843
f 841 844 843
f 845 844 841
f 186 185 187
f 187 185 182
f 183 1439 182
f 182 181 183
f 1440 181 184
f 184 181 178
f 179 1441 178
f 178 177 179
f 1442 177 180
f 180 188 1442
f 526 525 527
f 527 528 526
f 529 528 1443
f 1443 180 529
f 118 128 120
f 120 117 118
f 1444 117 119
f 119 124 1444
f 119 121 1445
f 1445 121 122
f 1446 121 123
f 123 126 1446
f 1447 125 1448
f 1448 125 127
f 1449 496 497
f 497 499 1449
f 497 498 1450
f 1450 498 500
f 838 837 839
f 840 838 839
f 834 833 835
f 836 834 835
f 830 829 831
f 832 830 831
f 826 825 827
f 828 826 827
f 822 821 823
f 824 822 823
f 818 817 819
f 820 818 819
f 814 813 815
f 816 814 815
f 596 595 597
f 598 596 597
f 592 591 593
f 594 592 593
f 588 587 589
f 590 588 589
f 584 583 585
f 586 584 585
f 580 579 581
f 582 580 581
f 572 571 573
f 574 572 573
f 568 567 569
f 570 568 569
f 564 563 565
f 566 564 565
f 560 559 561
f 562 560 561
f 551 550 552
f 553 551 552
f 547 546 548
f 549 547 548
f 543 542 544
f 545 543 544
f 539 538 540
f 541 539 540
f 535 534 536
f 537 535 536
f 531 530 532
f 533 531 532
f 522 521 523
f 524 522 523
f 518 517 519
f 520 518 519
f 514 513 515
f 516 514 515
f 510 509 511
f 512 510 511
f 506 505 507
f 508 506 507
f 502 501 503
f 504 502 503
f 492 491 493
f 493 494 492
f 1451 494 495
f 495 120 1451
f 488 487 489
f 490 488 489
f 384 383 385
f 386 384 385
f 372 371 373
f 374 372 373
f 366 365 367
f 367 370 366
f 366 370 369
f 369 368 366
f 206 208 205
f 206 205 207
f 202 201 203
f 204 202 203
f 174 173 175
f 176 174 175
f 170 169 171
f 172 170 171
f 166 165 167
f 168 166 167
f 162 161 163
f 164 162 163
f 158 157 159
f 160 158 159
f 154 153 155
f 156 154 155
f 150 149 151
f 152 150 151
f 146 145 147
f 148 146 147
f 142 141 143
f 144 142 143
f 138 137 139
f 140 138 139
f 134 133 135
f 136 134 135
f 130 129 131
f 132 130 131
f 54 56 53
f 54 53 55
f 46 45 47
f 48 46 47
f 472 468 469
f 468 467 1452
f 1452 467 470
f 467 473 1453
f 1453 473 474
f 473 471 1454
f 1454 471 1455
f 1456 468 472
f 557 556 558
f 558 556 555
f 1458 1457 555
f 555 554 1458
f 38 37 39
f 39 37 41
f 40 39 41
f 41 44 40
f 40 44 43
f 43 42 40
f 114 113 115
f 113 116 115
f 50 49 51
f 49 52 51
f 90 92 89
f 90 89 91
f 424 423 425
f 426 424 425
f 420 422 419
f 420 419 421
f 416 418 415
f 416 415 417
f 412 414 411
f 412 411 413
f 408 410 407
f 408 407 409
f 106 105 107
f 108 106 107
f 102 104 101
f 102 101 103
f 98 100 97
f 98 97 99
f 94 96 93
f 94 93 95
f 112 109 110
f 110 109 111
f 430 427 428
f 428 427 429
f 1168 1167 1169
f 1170 1168 1169
f 1240 1239 1241
f 1242 1240 1241
f 1236 1235 1237
f 1238 1236 1237
f 1232 1231 1233
f 1234 1232 1233
f 1200 1199 1201
f 1202 1200 1201
f 1196 1195 1197
f 1198 1196 1197
f 1192 1191 1193
f 1194 1192 1193
f 1188 1187 1189
f 1190 1188 1189
f 1176 1175 1177
f 1178 1176 1177
f 1172 1171 1173
f 1174 1172 1173
f 1180 1179 1181
f 1181 1179 1182
f 1184 1183 1185
f 1186 1185 1183
f 1244 1243 1245
f 1245 1243 1246
f 86 85 87
f 88 86 87
f 278 277 279
f 281 280 282
f 278 280 281
f 278 281 277
f 277 281 283
f 277 283 284
f 1306 1314 1305
f 1314 1309 1305
f 1308 1309 1314
f 1308 1307 1309
f 1309 1307 1311
f 1310 1309 1311
f 1311 1312 1310
f 1310 1312 1313
f 1313 1312 1304
f 1305 1313 1304
f 1304 1303 1305
f 1305 1303 1306
f 1306 1303 1307
f 1307 1303 1311
f 1324 1323 1325
f 1326 1324 1325
f 1292 1291 1293
f 1293 1301 1292
f 1301 1300 1292
f 1297 1300 1301
f 1298 1300 1297
f 1297 1296 1298
f 1296 1294 1298
f 1295 1294 1296
f 1295 1296 1302
f 1302 1296 1293
f 1299 1302 1293
f 1293 1291 1299
f 1299 1291 1294
f 1294 1291 1298
f 484 483 485
f 486 484 485
f 480 479 481
f 482 480 481
f 476 475 477
f 478 476 477
f 404 403 405
f 406 404 405
f 400 399 401
f 402 400 401
f 388 387 389
f 390 388 389
f 270 269 271
f 269 274 271
f 275 274 269
f 276 275 269
f 273 272 274
f 274 272 271
f 316 313 314
f 314 313 315
f 312 309 310
f 310 309 311
f 308 305 306
f 306 305 307
f 304 301 302
f 302 301 303
f 300 297 298
f 298 297 299
f 296 293 294
f 294 293 295
f 292 289 290
f 290 289 291
f 288 285 286
f 286 285 287
f 393 391 394
f 394 391 396
f 395 394 396
f 396 397 395
f 395 397 398
f 398 397 392
f 393 398 392
f 392 391 393
f 82 81 74
f 79 81 82
f 80 81 79
f 79 78 80
f 83 82 84
f 83 84 77
f 77 78 83
f 77 76 78
f 78 76 80
f 76 73 80
f 75 73 76
f 74 73 75
f 75 84 74
f 84 82 74
f 1318 1315 1320
f 1319 1318 1320
f 1320 1321 1319
f 1319 1321 1322
f 1322 1321 1316
f 1317 1322 1316
f 1316 1315 1317
f 1317 1315 1318
f 66 65 67
f 67 72 66
f 72 71 66
f 69 71 72
f 70 71 69
f 69 68 70
f 68 65 70
f 67 65 68
f 59 64 58
f 58 57 59
f 59 57 60
f 60 57 62
f 61 60 62
f 62 63 61
f 61 63 64
f 64 63 58
f 608 607 609
f 610 608 609
f 604 603 605
f 606 604 605
f 600 599 601
f 602 600 601
f 1152 1151 1153
f 1154 1152 1153
f 1148 1147 1149
f 1148 1149 1150
f 1104 1103 1105
f 1106 1104 1105
f 1092 1091 1093
f 1094 1092 1093
f 1074 1073 1075
f 1076 1074 1075
f 1070 1069 1071
f 1070 1071 1072
f 1058 1057 1059
f 1060 1058 1059
f 1054 1053 1055
f 1054 1055 1056
f 972 971 973
f 974 972 973
f 979 978 977
f 977 980 979
f 974 980 977
f 977 976 974
f 976 972 974
f 975 972 976
f 1160 1159 1161
f 1161 1159 1162
f 1158 1155 1156
f 1156 1155 1157
f 1082 1081 1083
f 1083 1081 1084
f 1080 1077 1078
f 1078 1077 1079
f 1066 1065 1067
f 1067 1065 1068
f 1064 1061 1062
f 1062 1061 1063
f 982 981 983
f 983 988 982
f 988 987 982
f 985 987 988
f 986 987 985
f 985 984 986
f 984 981 986
f 983 981 984
f 870 869 871
f 872 870 871
f 866 865 867
f 868 866 867
f 862 861 863
f 864 862 863
f 858 857 859
f 860 858 859
f 854 853 855
f 856 854 855
f 850 849 851
f 852 850 851
f 624 623 625
f 626 624 625
f 620 619 621
f 622 620 621
f 616 615 617
f 618 616 617
f 612 611 613
f 614 612 613
f 1100 1101 1099
f 1099 1098 1100
f 1098 1095 1100
f 1097 1095 1098
f 1096 1095 1097
f 1097 1102 1096
f 1102 1101 1096
f 1099 1101 1102
f 990 989 991
f 991 996 990
f 996 995 990
f 993 995 996
f 994 995 993
f 993 992 994
f 992 989 994
f 991 989 992
f 1426 1425 1427
f 1427 1425 1428
f 1430 1429 1431
f 1431 1429 1432
f 1434 1433 1435
f 1435 1433 1436
f 784 783 785
f 793 792 794
f 794 795 793
f 795 796 793
f 796 795 797
f 640 642 639
f 640 639 641
f 636 638 635
f 636 635 637
f 632 634 631
f 632 631 633
f 628 630 627
f 628 627 629
f 950 949 951
f 951 952 950
f 952 953 950
f 953 952 954
f 918 920 919
f 918 919 917
f 916 918 917
f 916 917 915
f 914 1459 1460
f 914 1460 913
f 912 1461 1462
f 912 1462 911
f 910 912 911
f 910 911 907
f 908 1463 1464
f 908 1464 909
f 900 902 901
f 900 901 899
f 898 900 899
f 898 899 897
f 896 1465 1466
f 896 1466 895
f 894 1467 1468
f 894 1468 893
f 892 894 893
f 892 893 889
f 890 1469 1470
f 890 1470 891
f 776 778 777
f 776 777 775
f 774 776 775
f 774 775 773
f 772 1471 1472
f 772 1472 771
f 770 1473 1474
f 770 1474 769
f 768 770 769
f 768 769 765
f 766 1475 1476
f 766 1476 767
f 758 760 759
f 758 759 757
f 756 758 757
f 756 757 755
f 754 1477 1478
f 754 1478 753
f 752 1479 1480
f 752 1480 751
f 750 752 751
f 750 751 747
f 748 1481 1482
f 748 1482 749
f 724 726 725
f 724 725 723
f 722 724 723
f 722 723 721
f 720 1483 1484
f 720 1484 719
f 718 1485 1486
f 718 1486 717
f 716 718 717
f 716 717 713
f 714 1487 1488
f 714 1488 715
f 706 708 707
f 706 707 705
f 704 706 705
f 704 705 703
f 702 1489 1490
f 702 1490 701
f 700 1491 1492
f 700 1492 699
f 698 700 699
f 698 699 695
f 696 1493 1494
f 696 1494 697
f 672 674 673
f 672 673 671
f 670 672 671
f 670 671 669
f 668 1495 1496
f 668 1496 667
f 666 1497 1498
f 666 1498 665
f 664 666 665
f 664 665 661
f 662 1499 1500
f 662 1500 663
f 644 643 645
f 644 646 643
f 1501 647 1502
f 1501 648 647
f 648 649 647
f 648 650 649
f 1503 651 1504
f 1503 652 651
f 1505 653 1506
f 1505 654 653
f 654 655 653
f 654 656 655
f 938 939 937
f 937 935 938
f 934 935 937
f 935 934 936
f 658 660 657
f 658 657 659
f 676 678 675
f 676 675 677
f 680 682 679
f 680 679 681
f 684 686 683
f 684 683 685
f 688 690 687
f 688 687 689
f 692 694 691
f 692 691 693
f 710 712 709
f 710 709 711
f 728 730 727
f 728 727 729
f 732 734 731
f 732 731 733
f 736 738 735
f 736 735 737
f 740 742 739
f 740 739 741
f 744 746 743
f 744 743 745
f 762 764 761
f 762 761 763
f 780 782 779
f 780 779 781
f 904 906 903
f 904 903 905
f 922 924 921
f 922 921 923
f 787 786 788
f 788 789 787
f 789 790 787
f 790 789 791
f 944 943 945
f 945 946 944
f 946 947 944
f 947 946 948
f 799 798 800
f 941 940 942
f 805 806 804
f 804 802 805
f 801 802 804
f 802 801 803
f 932 933 931
f 931 929 932
f 928 929 931
f 929 928 930
f 811 812 810
f 810 808 811
f 807 808 810
f 808 807 809
f 926 925 927
f 874 876 873
f 874 873 875
f 878 880 877
f 878 877 879
f 882 884 881
f 882 881 883
f 886 888 885
f 886 885 887
