# from FinancialDistrict_Block01_Generic_0002_LOD_0.pskx
v -1445.434814453125 1150.067138671875 0.0
v -1443.152099609375 1080.108642578125 6.215748271642951e-06
v -1445.434814453125 1150.067138671875 660.0
v -1443.152099609375 1080.108642578125 660.0
v -1366.626220703125 -1252.813720703125 0.000913511379621923
v -687.036376953125 -1229.083251953125 0.000341142644174397
v -1366.6263427734375 -1252.813720703125 660.0008544921875
v -687.0364379882812 -1229.083251953125 660.000244140625
v 612.169921875 -1183.709716796875 0.0002939660334959626
v 899.829345703125 -1173.66357421875 0.00030566181521862745
v 612.169921875 -1183.709716796875 660.0003051757812
v 899.829345703125 -1173.66357421875 660.0003051757812
v 899.829345703125 -1173.66357421875 0.00030566181521862745
v 1445.4345703125 -588.58056640625 0.0002783613163046539
v 968.029541015625 -1100.5283203125 100.00029754638672
v 1172.6298828125 -881.12353515625 200.0002899169922
v 1240.83056640625 -807.98876953125 200.0002899169922
v 899.829345703125 -1173.663330078125 660.0003051757812
v 968.029541015625 -1100.5283203125 200.00030517578125
v 1036.229736328125 -1027.393310546875 200.00030517578125
v 1445.4345703125 -588.5804443359375 660.0003051757812
v 1036.229736328125 -1027.393310546875 100.00029754638672
v 1240.83056640625 -807.98876953125 100.00028991699219
v 1172.6298828125 -881.12353515625 100.00028991699219
v 1445.4345703125 -588.58056640625 0.0002783613163046539
v -529.2235107421875 1252.813232421875 3.106651274720207e-05
v 1372.299072265625 -520.380859375 236.71157836914062
v -90.409912109375 843.6141357421875 436.7113952636719
v -236.680908203125 980.0137939453125 436.71136474609375
v 1445.434814453125 -588.5804443359375 660.0003051757812
v 1372.299072265625 -520.3807373046875 436.7115783691406
v 55.86083984375 707.2147827148438 436.7113952636719
v 202.1317138671875 570.8153686523438 436.71142578125
v 348.402587890625 434.41583251953125 436.7114562988281
v 494.673583984375 298.01629638671875 436.7114562988281
v 640.944580078125 161.6165771484375 436.71148681640625
v 787.215576171875 25.2171630859375 436.71148681640625
v 933.486328125 -111.1822509765625 436.7115173339844
v 1079.75732421875 -247.581787109375 436.7115478515625
v 1226.028076171875 -383.9810791015625 436.7115478515625
v -529.2234497070312 1252.8133544921875 660.0
v 1226.028076171875 -383.9810791015625 236.71156311035156
v -236.6810302734375 980.0137939453125 236.71136474609375
v 1079.75732421875 -247.581787109375 236.71153259277344
v 933.486328125 -111.1822509765625 236.71151733398438
v 787.215576171875 25.2171630859375 236.7115020751953
v 640.944580078125 161.61651611328125 236.7114715576172
v 494.673583984375 298.0162353515625 236.7114715576172
v 348.402587890625 434.415771484375 236.71145629882812
v 202.1317138671875 570.8153076171875 236.71142578125
v 55.86083984375 707.2147216796875 236.71141052246094
v -90.409912109375 843.6141357421875 236.71139526367188
v -529.2239990234375 1252.813720703125 3.1066454539541155e-05
v -918.9820556640625 1239.202880859375 -8.478049858240411e-05
v -529.2239379882812 1252.813720703125 660.0
v -918.9819946289062 1239.2030029296875 659.9999389648438
v -1288.757568359375 1226.287841796875 1.8515675037633628e-07
v -1377.234130859375 1223.199462890625 -3.4122776924050413e-06
v -1288.757568359375 1226.287841796875 660.0
v -1377.234130859375 1223.199462890625 660.0
v -1377.234130859375 1223.199462890625 -3.412278147152392e-06
v -1445.434814453125 1150.067138671875 2.0329303019629708e-13
v -1377.234130859375 1223.199462890625 660.0
v -1445.434814453125 1150.067138671875 660.0
v 1036.229736328125 -1027.393310546875 200.00030517578125
v 968.029541015625 -1100.5283203125 200.00030517578125
v 951.501220703125 -1085.11572265625 200.0002899169922
v 1019.70166015625 -1011.980712890625 200.0002899169922
v 1036.229736328125 -1027.393310546875 100.00029754638672
v 951.501220703125 -1085.11572265625 100.00029754638672
v 968.029541015625 -1100.5283203125 100.00029754638672
v 1019.70166015625 -1011.980712890625 100.00028991699219
v 951.501220703125 -1085.11572265625 200.0002899169922
v 968.029541015625 -1100.5283203125 100.00029754638672
v 951.501220703125 -1085.11572265625 100.00029754638672
v 968.029541015625 -1100.5283203125 200.00030517578125
v 1019.70166015625 -1011.980712890625 200.0002899169922
v 1019.70166015625 -1011.980712890625 100.00028991699219
v 1036.229736328125 -1027.393310546875 100.00029754638672
v 1036.229736328125 -1027.393310546875 200.00030517578125
v 1240.83056640625 -807.98876953125 200.0002899169922
v 1172.6298828125 -881.12353515625 200.0002899169922
v 1156.10205078125 -865.71044921875 200.0002899169922
v 1224.302734375 -792.575927734375 200.0002899169922
v 1240.83056640625 -807.98876953125 100.00028991699219
v 1156.10205078125 -865.71044921875 100.00028228759766
v 1172.6298828125 -881.12353515625 100.00028991699219
v 1224.302734375 -792.575927734375 100.00028228759766
v 1156.10205078125 -865.71044921875 200.0002899169922
v 1172.6298828125 -881.12353515625 100.00028991699219
v 1156.10205078125 -865.71044921875 100.00028228759766
v 1172.6298828125 -881.12353515625 200.0002899169922
v 1224.302734375 -792.575927734375 200.0002899169922
v 1224.302734375 -792.575927734375 100.00028228759766
v 1240.83056640625 -807.98876953125 100.00028991699219
v 1240.83056640625 -807.98876953125 200.0002899169922
v 1372.299072265625 -520.3807373046875 436.7115783691406
v 1351.839111328125 -542.3214111328125 436.7115783691406
v 1205.568115234375 -405.921875 436.7115478515625
v 1226.028076171875 -383.9810791015625 436.7115478515625
v 1372.299072265625 -520.380859375 236.71157836914062
v 1205.568115234375 -405.921875 236.71156311035156
v 1351.839111328125 -542.3214111328125 236.71157836914062
v 1226.028076171875 -383.9810791015625 236.71156311035156
v 1351.839111328125 -542.3214111328125 436.7115783691406
v 1372.299072265625 -520.380859375 236.71157836914062
v 1351.839111328125 -542.3214111328125 236.71157836914062
v 1372.299072265625 -520.3807373046875 436.7115783691406
v 1205.568115234375 -405.921875 436.7115478515625
v 1205.568115234375 -405.921875 236.71156311035156
v 1226.028076171875 -383.9810791015625 236.71156311035156
v 1226.028076171875 -383.9810791015625 436.7115478515625
v 1079.75732421875 -247.581787109375 436.7115478515625
v 1059.29736328125 -269.5224609375 436.7115478515625
v 913.0263671875 -133.123046875 436.7115173339844
v 933.486328125 -111.1822509765625 436.7115173339844
v 1079.75732421875 -247.581787109375 236.71153259277344
v 913.0263671875 -133.123046875 236.71151733398438
v 1059.29736328125 -269.5224609375 236.71153259277344
v 933.486328125 -111.1822509765625 236.71151733398438
v 1059.29736328125 -269.5224609375 436.7115478515625
v 1079.75732421875 -247.581787109375 236.71153259277344
v 1059.29736328125 -269.5224609375 236.71153259277344
v 1079.75732421875 -247.581787109375 436.7115478515625
v 913.0263671875 -133.123046875 436.7115173339844
v 913.0263671875 -133.123046875 236.71151733398438
v 933.486328125 -111.1822509765625 236.71151733398438
v 933.486328125 -111.1822509765625 436.7115173339844
v 787.215576171875 25.2171630859375 436.71148681640625
v 766.755615234375 3.2764892578125 436.71148681640625
v 620.48486328125 139.67596435546875 436.71148681640625
v 640.944580078125 161.6165771484375 436.71148681640625
v 787.215576171875 25.2171630859375 236.7115020751953
v 620.48486328125 139.6759033203125 236.7114715576172
v 766.755615234375 3.2764892578125 236.7115020751953
v 640.944580078125 161.61651611328125 236.7114715576172
v 766.755615234375 3.2764892578125 436.71148681640625
v 787.215576171875 25.2171630859375 236.7115020751953
v 766.755615234375 3.2764892578125 236.7115020751953
v 787.215576171875 25.2171630859375 436.71148681640625
v 620.48486328125 139.67596435546875 436.71148681640625
v 620.48486328125 139.6759033203125 236.7114715576172
v 640.944580078125 161.61651611328125 236.7114715576172
v 640.944580078125 161.6165771484375 436.71148681640625
v 494.673583984375 298.01629638671875 436.7114562988281
v 474.2138671875 276.07550048828125 436.7114562988281
v 327.942626953125 412.4752197265625 436.7114562988281
v 348.402587890625 434.41583251953125 436.7114562988281
v 494.673583984375 298.0162353515625 236.7114715576172
v 327.942626953125 412.47509765625 236.71145629882812
v 474.2138671875 276.075439453125 236.7114715576172
v 348.402587890625 434.415771484375 236.71145629882812
v 474.2138671875 276.07550048828125 436.7114562988281
v 494.673583984375 298.0162353515625 236.7114715576172
v 474.2138671875 276.075439453125 236.7114715576172
v 494.673583984375 298.01629638671875 436.7114562988281
v 327.942626953125 412.4752197265625 436.7114562988281
v 327.942626953125 412.47509765625 236.71145629882812
v 348.402587890625 434.415771484375 236.71145629882812
v 348.402587890625 434.41583251953125 436.7114562988281
v 202.1317138671875 570.8153686523438 436.71142578125
v 181.671875 548.8745727539062 436.71142578125
v 35.40087890625 685.2740478515625 436.7113952636719
v 55.86083984375 707.2147827148438 436.7113952636719
v 202.1317138671875 570.8153076171875 236.71142578125
v 35.40087890625 685.2740478515625 236.71141052246094
v 181.671875 548.87451171875 236.71142578125
v 55.86083984375 707.2147216796875 236.71141052246094
v 181.671875 548.8745727539062 436.71142578125
v 202.1317138671875 570.8153076171875 236.71142578125
v 181.671875 548.87451171875 236.71142578125
v 202.1317138671875 570.8153686523438 436.71142578125
v 35.40087890625 685.2740478515625 436.7113952636719
v 35.40087890625 685.2740478515625 236.71141052246094
v 55.86083984375 707.2147216796875 236.71141052246094
v 55.86083984375 707.2147827148438 436.7113952636719
v -90.409912109375 843.6141357421875 436.7113952636719
v -110.869873046875 821.673583984375 436.7113952636719
v -257.140869140625 958.0731201171875 436.71136474609375
v -236.680908203125 980.0137939453125 436.71136474609375
v -90.409912109375 843.6141357421875 236.71139526367188
v -257.140869140625 958.0731201171875 236.71136474609375
v -110.869873046875 821.6735229492188 236.7113800048828
v -236.6810302734375 980.0137939453125 236.71136474609375
v -110.869873046875 821.673583984375 436.7113952636719
v -90.409912109375 843.6141357421875 236.71139526367188
v -110.869873046875 821.6735229492188 236.7113800048828
v -90.409912109375 843.6141357421875 436.7113952636719
v -257.140869140625 958.0731201171875 436.71136474609375
v -257.140869140625 958.0731201171875 236.71136474609375
v -236.6810302734375 980.0137939453125 236.71136474609375
v -236.680908203125 980.0137939453125 436.71136474609375
v -1377.234130859375 1223.199462890625 660.0
v -1445.434814453125 1150.067138671875 660.0
v -1443.152099609375 1080.108642578125 660.0
v 899.829345703125 -1173.663330078125 660.0003051757812
v 1445.434814453125 -588.5804443359375 660.0003051757812
v -918.9821166992188 1239.202880859375 659.9999389648438
v -1288.757568359375 1226.287841796875 660.0
v -1366.6263427734375 -1252.813720703125 660.0009765625
v -687.0364379882812 -1229.083251953125 660.0003051757812
v 612.169921875 -1183.709716796875 660.0003051757812
v -529.2239379882812 1252.813720703125 660.0
v 1351.839111328125 -542.3214111328125 236.71157836914062
v 1205.568115234375 -405.921875 236.71156311035156
v 1205.568115234375 -405.921875 436.7115478515625
v 1351.839111328125 -542.3214111328125 436.7115783691406
v 1059.29736328125 -269.5224609375 236.71153259277344
v 913.0263671875 -133.123046875 236.71151733398438
v 913.0263671875 -133.123046875 436.7115173339844
v 1059.29736328125 -269.5224609375 436.7115478515625
v 766.755615234375 3.2764892578125 236.7115020751953
v 620.48486328125 139.6759033203125 236.7114715576172
v 620.48486328125 139.67596435546875 436.71148681640625
v 766.755615234375 3.2764892578125 436.71148681640625
v 474.2138671875 276.075439453125 236.7114715576172
v 327.942626953125 412.47509765625 236.71145629882812
v 327.942626953125 412.4752197265625 436.7114562988281
v 474.2138671875 276.07550048828125 436.7114562988281
v 181.671875 548.87451171875 236.71142578125
v 35.40087890625 685.2740478515625 236.71141052246094
v 35.40087890625 685.2740478515625 436.7113952636719
v 181.671875 548.8745727539062 436.71142578125
v -110.869873046875 821.6735229492188 236.7113800048828
v -257.140869140625 958.0731201171875 236.71136474609375
v -257.140869140625 958.0731201171875 436.71136474609375
v -110.869873046875 821.673583984375 436.7113952636719
f 58 57 59
f 60 58 59
f 194 193 195
f 201 200 202
f 202 200 195
f 196 202 195
f 195 193 196
f 193 199 196
f 199 197 196
f 198 197 199
f 197 198 203
f 44 45 26
f 46 47 26
f 45 46 26
f 46 45 38
f 37 46 38
f 37 38 30
f 36 37 30
f 38 39 30
f 26 25 27
f 27 25 31
f 31 25 30
f 40 31 30
f 39 40 30
f 39 44 40
f 44 42 40
f 42 44 26
f 27 42 26
f 32 33 30
f 52 43 26
f 43 41 26
f 29 41 43
f 30 41 29
f 29 28 30
f 28 32 30
f 28 52 32
f 52 51 32
f 51 52 26
f 50 51 26
f 48 47 36
f 35 48 36
f 35 36 30
f 34 35 30
f 33 34 30
f 33 50 34
f 50 49 34
f 49 50 26
f 48 49 26
f 47 48 26
f 10 9 11
f 12 10 11
f 6 5 7
f 8 6 7
f 2 1 3
f 4 2 3
f 18 21 17
f 17 21 23
f 23 21 14
f 24 23 14
f 16 24 20
f 24 22 20
f 22 24 14
f 15 22 14
f 14 13 15
f 15 13 19
f 19 13 18
f 20 19 18
f 16 20 18
f 17 16 18
f 190 189 191
f 191 189 192
f 188 185 186
f 186 185 187
f 181 182 184
f 182 181 183
f 178 177 179
f 180 179 177
f 174 173 175
f 175 173 176
f 172 169 170
f 170 169 171
f 165 166 168
f 166 165 167
f 162 161 163
f 164 163 161
f 158 157 159
f 159 157 160
f 156 153 154
f 154 153 155
f 149 150 152
f 150 149 151
f 146 145 147
f 148 147 145
f 142 141 143
f 143 141 144
f 140 137 138
f 138 137 139
f 133 134 136
f 134 133 135
f 130 129 131
f 132 131 129
f 126 125 127
f 127 125 128
f 124 121 122
f 122 121 123
f 117 118 120
f 118 117 119
f 114 113 115
f 116 115 113
f 110 109 111
f 111 109 112
f 108 105 106
f 106 105 107
f 101 102 104
f 102 101 103
f 98 97 99
f 100 99 97
f 94 93 95
f 95 93 96
f 92 89 90
f 90 89 91
f 85 86 88
f 86 85 87
f 82 81 83
f 84 83 81
f 78 77 79
f 79 77 80
f 76 73 74
f 74 73 75
f 69 70 72
f 70 69 71
f 66 65 67
f 68 67 65
f 54 53 55
f 56 54 55
f 62 61 63
f 64 62 63
f 205 204 206
f 206 204 207
f 209 208 210
f 210 208 211
f 213 212 214
f 214 212 215
f 217 216 218
f 218 216 219
f 221 220 222
f 222 220 223
f 225 224 226
f 226 224 227
