# from FinancialDistrict_Block27_Residential (MC)_0002_LOD_0.pskx
v -1509.539794921875 -347.63201904296875 -0.00024033099180087447
v -1537.799072265625 -348.81610107421875 -0.00024146273790393025
v -1509.539794921875 -347.63189697265625 1299.999755859375
v -1537.799072265625 -348.81597900390625 1299.999755859375
v -1537.799072265625 -348.81610107421875 -0.00024146273790393025
v -1632.568359375 -451.88006591796875 -0.00023659509315621108
v -1537.799072265625 -348.81597900390625 1299.999755859375
v -1632.568359375 -451.87994384765625 1299.999755859375
v -1632.568359375 -451.88006591796875 -0.00023659509315621108
v -1617.8466796875 -465.41766357421875 -0.00023476810019928962
v -1632.568359375 -451.87994384765625 1299.999755859375
v -1617.8466796875 -465.41754150390625 1299.999755859375
v -1509.539794921875 -347.63189697265625 1299.999755859375
v -1537.799072265625 -348.81597900390625 1299.999755859375
v -1617.8466796875 -465.41754150390625 1299.999755859375
v -1632.568359375 -451.87994384765625 1299.999755859375
v -1441.85791015625 -274.0234375 1299.999755859375
v -1617.8466796875 -465.41754150390625 1299.999755859375
v -1470.111083984375 -275.20751953125 1299.999755859375
v -1632.568359375 -451.87994384765625 1299.999755859375
v -1441.85791015625 -274.0234375 1299.999755859375
v -1470.111083984375 -275.20751953125 1299.999755859375
v -1441.85791015625 -274.0234375 1399.999755859375
v -1470.111083984375 -275.20751953125 1399.999755859375
v -1470.111083984375 -275.20751953125 1299.999755859375
v -1470.111083984375 -275.20751953125 1399.999755859375
v -1632.568359375 -451.87994384765625 1399.999755859375
v -1632.568359375 -451.87994384765625 1399.999755859375
v -1617.8466796875 -465.41754150390625 1399.999755859375
v -1441.85791015625 -274.0234375 1399.999755859375
v -1470.111083984375 -275.20751953125 1399.999755859375
v -1617.8466796875 -465.41754150390625 1399.999755859375
v -1632.568359375 -451.87994384765625 1399.999755859375
v -1374.163818359375 -200.4150390625 1399.999755859375
v -1617.8466796875 -465.41754150390625 1399.999755859375
v -1402.4169921875 -201.59912109375 1399.999755859375
v -1632.568359375 -451.87994384765625 1399.999755859375
v -1374.163818359375 -200.4150390625 1399.999755859375
v -1402.4169921875 -201.59912109375 1399.999755859375
v -1374.163818359375 -200.4150390625 1499.999755859375
v -1402.4169921875 -201.59912109375 1499.999755859375
v -1402.4169921875 -201.59912109375 1399.999755859375
v -1402.4169921875 -201.59912109375 1499.999755859375
v -1632.568359375 -451.87994384765625 1499.999755859375
v -1632.568359375 -451.87994384765625 1499.999755859375
v -1617.8466796875 -465.41754150390625 1499.999755859375
v -1374.163818359375 -200.4150390625 1499.999755859375
v -1402.4169921875 -201.59912109375 1499.999755859375
v -1617.8466796875 -465.41754150390625 1499.999755859375
v -1632.568359375 -451.87994384765625 1499.999755859375
v -907.129150390625 307.48291015625 1499.999755859375
v -1617.8466796875 -465.41754150390625 1499.999755859375
v -921.850830078125 321.0205078125 1499.999755859375
v -1632.568359375 -451.87994384765625 1499.999755859375
v -907.129150390625 307.48291015625 1499.999755859375
v -921.850830078125 321.0205078125 1499.999755859375
v -907.129150390625 307.48291015625 1619.9998779296875
v -921.850830078125 321.0205078125 1619.9998779296875
v -921.850830078125 321.0205078125 1499.999755859375
v -1632.568359375 -451.8797607421875 1499.999755859375
v -921.850830078125 321.0205078125 1619.9998779296875
v -1632.568359375 -451.8797607421875 1619.9998779296875
v -1632.568359375 -451.87994384765625 1619.9998779296875
v -1617.8466796875 -465.41754150390625 1619.9998779296875
v -907.129150390625 307.48291015625 1619.9998779296875
v -921.850830078125 321.0205078125 1619.9998779296875
v -1617.8466796875 -465.41754150390625 1619.9998779296875
v -1632.568359375 -451.87994384765625 1619.9998779296875
v -921.8505859375 321.0203857421875 -0.00027309771394357085
v -1016.607666015625 217.9808349609375 -0.00026823169901035726
v -921.850830078125 321.0205078125 1299.99951171875
v -1016.60791015625 217.98095703125 1299.99951171875
v -1016.607666015625 217.9808349609375 -0.00026823169901035726
v -1015.4296875 189.7093505859375 -0.0002657086297404021
v -1016.60791015625 217.98095703125 1299.99951171875
v -1015.429931640625 189.70947265625 1299.99951171875
v -907.12890625 307.4827880859375 -0.00027127075009047985
v -921.8505859375 321.0203857421875 -0.00027309771394357085
v -907.129150390625 307.48291015625 1299.999755859375
v -921.850830078125 321.0205078125 1299.999755859375
v -1016.60791015625 217.98095703125 1299.999755859375
v -1015.429931640625 189.70947265625 1299.999755859375
v -921.850830078125 321.0205078125 1299.999755859375
v -907.129150390625 307.48291015625 1299.999755859375
v -1111.36474609375 114.9169921875 1299.999755859375
v -921.850830078125 321.0205078125 1299.999755859375
v -1110.186767578125 86.65771484375 1299.999755859375
v -907.129150390625 307.48291015625 1299.999755859375
v -1111.36474609375 114.9169921875 1299.999755859375
v -921.850830078125 321.0205078125 1399.999755859375
v -1111.364990234375 114.9169921875 1399.999755859375
v -1111.36474609375 114.9169921875 1299.999755859375
v -1110.186767578125 86.65771484375 1299.999755859375
v -1111.364990234375 114.9169921875 1399.999755859375
v -1110.18701171875 86.65771484375 1399.999755859375
v -907.129150390625 307.48291015625 1399.999755859375
v -921.850830078125 321.0205078125 1399.999755859375
v -1111.364990234375 114.9169921875 1399.999755859375
v -1110.18701171875 86.65771484375 1399.999755859375
v -921.850830078125 321.0205078125 1399.999755859375
v -907.129150390625 307.48291015625 1399.999755859375
v -1185.821533203125 33.94775390625 1399.999755859375
v -921.850830078125 321.0205078125 1399.999755859375
v -1184.637451171875 5.6884765625 1399.999755859375
v -907.129150390625 307.48291015625 1399.999755859375
v -1185.821533203125 33.94775390625 1399.999755859375
v -1185.82177734375 33.94775390625 1499.999755859375
v -1185.821533203125 33.94775390625 1399.999755859375
v -1184.637451171875 5.6884765625 1399.999755859375
v -1185.82177734375 33.94775390625 1499.999755859375
v -1184.6376953125 5.6884765625 1499.999755859375
v -1185.82177734375 33.94775390625 1499.999755859375
v -1184.6376953125 5.6884765625 1499.999755859375
v -921.850830078125 321.0205078125 1499.999755859375
v -907.129150390625 307.48291015625 1499.999755859375
v -1245.56884765625 -60.546875 1480.0
v -1313.250732421875 -134.1552734375 1480.0
v -1267.6513671875 -40.24658203125 1480.0
v -1335.333251953125 -113.85498046875 1480.0
v -1245.56884765625 -60.546875 1480.0
v -1267.6513671875 -40.24658203125 1480.0
v -1211.110107421875 -23.0709228515625 1669.9998779296875
v -1257.856689453125 19.9029541015625 1669.9996337890625
v -1267.6513671875 -40.24658203125 1480.0
v -1335.333251953125 -113.85498046875 1480.0
v -1257.85693359375 19.902587890625 1669.9998779296875
v -1394.4560546875 -128.657470703125 1669.9998779296875
v -1335.333251953125 -113.85498046875 1480.0
v -1313.250732421875 -134.1552734375 1480.0
v -1394.4560546875 -128.657470703125 1669.9998779296875
v -1347.7099609375 -171.631103515625 1669.9998779296875
v -1211.110107421875 -23.0709228515625 1669.9998779296875
v -1257.85693359375 19.902587890625 1669.9998779296875
v -1347.7099609375 -171.6312255859375 1669.9998779296875
v -1394.4560546875 -128.657470703125 1669.9998779296875
v -1008.660888671875 197.0701904296875 -0.0002660562749952078
v -1016.021728515625 203.8450927734375 -0.00026697030989453197
v -1008.6611328125 197.0703125 1289.999755859375
v -1016.02197265625 203.84521484375 1289.999755859375
v -1016.021728515625 203.8450927734375 -0.00026697030989453197
v -1029.559326171875 189.1234130859375 -0.0002662750193849206
v -1016.02197265625 203.84521484375 1289.999755859375
v -1029.5595703125 189.12353515625 1289.999755859375
v -1029.559326171875 189.1234130859375 -0.0002662750193849206
v -1022.198486328125 182.3485107421875 -0.0002653609844855964
v -1029.5595703125 189.12353515625 1289.999755859375
v -1022.19873046875 182.3486328125 1289.999755859375
v -1008.6611328125 197.0703125 1289.999755859375
v -1016.02197265625 203.84521484375 1289.999755859375
v -1022.19873046875 182.3486328125 1289.999755859375
v -1029.5595703125 189.12353515625 1289.999755859375
v -1117.5537109375 93.4326171875 1289.999755859375
v -1016.02197265625 203.84521484375 1289.999755859375
v -1110.19287109375 86.65771484375 1289.999755859375
v -1008.6611328125 197.0703125 1289.999755859375
v -1117.5537109375 93.4326171875 1289.999755859375
v -1016.02197265625 203.84521484375 1389.999755859375
v -1117.553955078125 93.4326171875 1389.999755859375
v -1117.5537109375 93.4326171875 1289.999755859375
v -1110.19287109375 86.65771484375 1289.999755859375
v -1117.553955078125 93.4326171875 1389.999755859375
v -1110.193115234375 86.65771484375 1389.999755859375
v -1008.6611328125 197.0703125 1389.999755859375
v -1016.02197265625 203.84521484375 1389.999755859375
v -1117.553955078125 93.4326171875 1389.999755859375
v -1110.193115234375 86.65771484375 1389.999755859375
v -1016.02197265625 203.84521484375 1389.999755859375
v -1008.6611328125 197.0703125 1389.999755859375
v -1192.010498046875 12.46337890625 1389.999755859375
v -1110.78515625 100.79345703125 1389.999755859375
v -1184.649658203125 5.6884765625 1389.999755859375
v -1103.42431640625 94.0185546875 1389.999755859375
v -1110.78515625 100.79345703125 1389.999755859375
v -1192.010498046875 12.46337890625 1389.999755859375
v -1110.78515625 100.79345703125 1489.999755859375
v -1192.0107421875 12.46337890625 1489.999755859375
v -1192.010498046875 12.46337890625 1389.999755859375
v -1184.649658203125 5.6884765625 1389.999755859375
v -1192.0107421875 12.46337890625 1489.999755859375
v -1184.64990234375 5.6884765625 1489.999755859375
v -1103.42431640625 94.0185546875 1389.999755859375
v -1110.78515625 100.79345703125 1389.999755859375
v -1103.42431640625 94.0185546875 1489.999755859375
v -1110.78515625 100.79345703125 1489.999755859375
v -1192.0107421875 12.46337890625 1489.999755859375
v -1184.64990234375 5.6884765625 1489.999755859375
v -1110.78515625 100.79345703125 1489.999755859375
v -1103.42431640625 94.0185546875 1489.999755859375
v -1502.783203125 -340.27117919921875 -0.00024067916092462838
v -1510.14404296875 -333.50836181640625 -0.00024159213353414088
v -1502.783203125 -340.27105712890625 1289.999755859375
v -1510.14404296875 -333.50823974609375 1289.999755859375
v -1510.14404296875 -333.50836181640625 -0.00024159213353414088
v -1523.681640625 -348.23016357421875 -0.00024089687212835997
v -1510.14404296875 -333.50823974609375 1289.999755859375
v -1523.681640625 -348.23004150390625 1289.999755859375
v -1523.681640625 -348.23016357421875 -0.00024089687212835997
v -1516.32080078125 -354.99285888671875 -0.00023998389951884747
v -1523.681640625 -348.23004150390625 1289.99951171875
v -1516.32080078125 -354.99273681640625 1289.99951171875
v -1502.783203125 -340.27105712890625 1289.999755859375
v -1510.14404296875 -333.50823974609375 1289.999755859375
v -1516.32080078125 -354.99273681640625 1289.999755859375
v -1523.681640625 -348.23004150390625 1289.999755859375
v -1441.864013671875 -274.0234375 1289.999755859375
v -1516.32080078125 -354.99273681640625 1289.999755859375
v -1449.224853515625 -267.2607421875 1289.999755859375
v -1523.681640625 -348.23004150390625 1289.999755859375
v -1516.32080078125 -354.99273681640625 1289.999755859375
v -1441.864013671875 -274.0234375 1289.999755859375
v -1516.32080078125 -354.99273681640625 1389.999755859375
v -1441.864013671875 -274.0234375 1389.999755859375
v -1441.864013671875 -274.0234375 1289.999755859375
v -1449.224853515625 -267.2607421875 1289.999755859375
v -1441.864013671875 -274.0234375 1389.999755859375
v -1449.224853515625 -267.2607421875 1389.999755859375
v -1449.224853515625 -267.2607421875 1289.999755859375
v -1449.224853515625 -267.2607421875 1389.999755859375
v -1523.681640625 -348.23004150390625 1389.999755859375
v -1523.681640625 -348.23004150390625 1289.999755859375
v -1516.32080078125 -354.99273681640625 1289.999755859375
v -1523.681640625 -348.23004150390625 1389.999755859375
v -1516.32080078125 -354.99273681640625 1389.999755859375
v -1441.864013671875 -274.0234375 1389.999755859375
v -1449.224853515625 -267.2607421875 1389.999755859375
v -1516.32080078125 -354.99273681640625 1389.999755859375
v -1523.681640625 -348.23004150390625 1389.999755859375
v -1374.176025390625 -200.4150390625 1389.999755859375
v -1448.6328125 -281.38427734375 1389.999755859375
v -1381.536865234375 -193.65234375 1389.999755859375
v -1455.99365234375 -274.62158203125 1389.999755859375
v -1374.176025390625 -200.4150390625 1389.999755859375
v -1381.536865234375 -193.65234375 1389.999755859375
v -1374.176025390625 -200.4150390625 1489.999755859375
v -1381.536865234375 -193.65234375 1489.999755859375
v -1381.536865234375 -193.65234375 1389.999755859375
v -1455.99365234375 -274.62158203125 1389.999755859375
v -1381.536865234375 -193.65234375 1489.999755859375
v -1455.99365234375 -274.62158203125 1489.999755859375
v -1455.99365234375 -274.62158203125 1389.999755859375
v -1448.6328125 -281.38427734375 1389.999755859375
v -1455.99365234375 -274.62158203125 1489.999755859375
v -1448.6328125 -281.38427734375 1489.999755859375
v -1374.176025390625 -200.4150390625 1489.999755859375
v -1381.536865234375 -193.65234375 1489.999755859375
v -1448.6328125 -281.38427734375 1489.999755859375
v -1455.99365234375 -274.62158203125 1489.999755859375
v -1177.881103515625 13.04931640625 1489.999755859375
v -1380.94482421875 -207.77587890625 1489.999755859375
v -1185.241943359375 19.82421875 1489.999755859375
v -1388.3056640625 -201.01318359375 1489.999755859375
v -1177.881103515625 13.04931640625 1489.999755859375
v -1185.241943359375 19.82421875 1489.999755859375
v -1177.881103515625 13.04931640625 1589.999755859375
v -1185.241943359375 19.82421875 1589.999755859375
v -1185.241943359375 19.82421875 1489.999755859375
v -1388.3056640625 -201.01318359375 1489.999755859375
v -1185.241943359375 19.82421875 1589.999755859375
v -1388.3056640625 -201.01318359375 1589.999755859375
v -1388.3056640625 -201.01318359375 1489.999755859375
v -1380.94482421875 -207.77587890625 1489.999755859375
v -1388.3056640625 -201.01318359375 1589.999755859375
v -1380.94482421875 -207.77587890625 1589.999755859375
v -1177.881103515625 13.04931640625 1589.999755859375
v -1185.241943359375 19.82421875 1589.999755859375
v -1380.94482421875 -207.77587890625 1589.999755859375
v -1388.3056640625 -201.01318359375 1589.999755859375
v -1016.61376953125 217.9686279296875 -0.00026823088410310447
v -1537.811279296875 -348.8162841796875 -0.00024146326177287847
v -1016.61376953125 217.9686279296875 99.9997329711914
v -1537.811279296875 -348.8162841796875 99.99976348876953
v -1537.811279296875 -348.81610107421875 -0.0002414632763247937
v -1523.089599609375 -362.35369873046875 -0.000239636268815957
v -1537.811279296875 -348.81610107421875 99.99976348876953
v -1523.089599609375 -362.35369873046875 99.99976348876953
v -1001.89208984375 204.4310302734375 -0.000266403891146183
v -1016.61376953125 217.9686279296875 -0.00026823088410310447
v -1001.89208984375 204.4310302734375 99.9997329711914
v -1016.61376953125 217.9686279296875 99.9997329711914
v -1537.811279296875 -348.81610107421875 99.99976348876953
v -1523.089599609375 -362.35369873046875 99.99976348876953
v -1016.61376953125 217.9686279296875 99.9997329711914
v -1001.89208984375 204.4310302734375 99.9997329711914
v -1537.811279296875 -348.81610107421875 99.99976348876953
v -1016.61376953125 217.9686279296875 99.9997329711914
v -1523.089599609375 -362.35369873046875 99.99976348876953
v -1001.89208984375 204.4310302734375 99.9997329711914
v -1016.61376953125 217.9686279296875 99.9997329711914
v -1537.811279296875 -348.81610107421875 99.99974060058594
v -1002.398193359375 204.896240234375 119.99971771240234
v -1523.595458984375 -361.888427734375 119.99979400634766
v -1523.595458984375 -361.88848876953125 119.99977111816406
v -1523.089599609375 -362.35369873046875 119.99977111816406
v -1001.89208984375 204.4310302734375 119.99974060058594
v -1002.398193359375 204.8963623046875 119.99974060058594
v -1523.595458984375 -361.88848876953125 119.99977111816406
v -1523.089599609375 -362.35369873046875 119.99977111816406
v -1002.398193359375 204.896240234375 119.99974060058594
v -1001.89208984375 204.4310302734375 119.99974060058594
v -426.544189453125 830.11474609375 -0.0002959536504931748
v -454.803466796875 828.94287109375 -0.0002970864297822118
v -426.54443359375 830.11474609375 1299.9996337890625
v -454.8037109375 828.94287109375 1299.9996337890625
v -454.803466796875 828.94287109375 -0.0002970864297822118
v -549.566650390625 725.87890625 -0.0002922185231000185
v -454.8037109375 828.94287109375 1299.9996337890625
v -549.56689453125 725.87890625 1299.999755859375
v -549.566650390625 725.87890625 -0.0002922185231000185
v -534.844970703125 712.34130859375 -0.00029039153014309704
v -549.56689453125 725.87890625 1299.999755859375
v -534.84521484375 712.34130859375 1299.999755859375
v -365.619140625 896.37451171875 1299.9996337890625
v -426.5478515625 830.114501953125 1299.9996337890625
v -393.884521484375 895.1904296875 1299.9996337890625
v -454.799072265625 828.943115234375 1299.9996337890625
v -365.619140625 896.37451171875 1299.9996337890625
v -393.884521484375 895.1904296875 1299.9996337890625
v -365.619140625 896.374755859375 1399.9996337890625
v -393.884521484375 895.190673828125 1399.9996337890625
v -393.884521484375 895.1904296875 1299.9996337890625
v -393.884521484375 895.190673828125 1399.9996337890625
v -549.56689453125 725.879150390625 1399.999755859375
v -549.56689453125 725.879150390625 1399.999755859375
v -534.84521484375 712.341552734375 1399.999755859375
v -365.619140625 896.374755859375 1399.9996337890625
v -393.884521484375 895.190673828125 1399.9996337890625
v -534.84521484375 712.341552734375 1399.999755859375
v -549.56689453125 725.879150390625 1399.999755859375
v -304.699951171875 962.622314453125 1399.9996337890625
v -534.84521484375 712.341552734375 1399.999755859375
v -332.96533203125 961.438232421875 1399.9996337890625
v -549.56689453125 725.879150390625 1399.999755859375
v -304.699951171875 962.622314453125 1399.9996337890625
v -332.96533203125 961.438232421875 1399.9996337890625
v -304.699951171875 962.622314453125 1499.9996337890625
v -332.96533203125 961.438232421875 1499.9996337890625
v -332.96533203125 961.438232421875 1399.9996337890625
v -332.96533203125 961.438232421875 1499.9996337890625
v -549.56689453125 725.879150390625 1499.999755859375
v -549.56689453125 725.879150390625 1499.999755859375
v -534.84521484375 712.341552734375 1499.999755859375
v -304.699951171875 962.622314453125 1499.9996337890625
v -332.96533203125 961.438232421875 1499.9996337890625
v -534.84521484375 712.341552734375 1499.999755859375
v -549.56689453125 725.879150390625 1499.999755859375
v -237.011962890625 1036.230712890625 1499.9996337890625
v -541.614013671875 704.980712890625 1499.999755859375
v -251.733642578125 1049.768310546875 1499.9996337890625
v -556.335693359375 718.518310546875 1499.999755859375
v -237.011962890625 1036.230712890625 1499.9996337890625
v -251.733642578125 1049.768310546875 1499.9996337890625
v -237.011962890625 1036.230712890625 1619.999755859375
v -251.733642578125 1049.768310546875 1619.999755859375
v -251.733642578125 1049.768310546875 1499.9996337890625
v -556.335693359375 718.518310546875 1499.999755859375
v -251.733642578125 1049.768310546875 1619.999755859375
v -556.335693359375 718.518310546875 1619.9998779296875
v -556.335693359375 718.518310546875 1499.999755859375
v -541.614013671875 704.980712890625 1499.999755859375
v -556.335693359375 718.518310546875 1619.9998779296875
v -541.614013671875 704.980712890625 1619.9998779296875
v -237.011962890625 1036.230712890625 1619.999755859375
v -251.733642578125 1049.768310546875 1619.999755859375
v -541.614013671875 704.980712890625 1619.9998779296875
v -556.335693359375 718.518310546875 1619.9998779296875
v 230.3587646484375 1367.22412109375 -0.00031419508741237223
v 127.3070068359375 1461.97509765625 -0.00032698301947675645
v 230.3587646484375 1367.22412109375 1299.9996337890625
v 127.3070068359375 1461.97509765625 1299.9996337890625
v 127.3070068359375 1461.97509765625 -0.00032698301947675645
v 32.5499267578125 1358.935546875 -0.0003221169754397124
v 127.3070068359375 1461.97509765625 1299.9996337890625
v 32.5499267578125 1358.935546875 1299.9996337890625
v 32.5499267578125 1358.935546875 -0.0003221169754397124
v 33.7279052734375 1330.67626953125 -0.00031959498301148415
v 32.5499267578125 1358.935546875 1299.9993896484375
v 33.7279052734375 1330.67626953125 1299.9993896484375
v 231.5428466796875 1338.96484375 -0.00031167283304966986
v 230.3587646484375 1367.22412109375 -0.00031419508741237223
v 231.5428466796875 1338.96484375 1299.9996337890625
v 230.3587646484375 1367.22412109375 1299.9996337890625
v 231.5428466796875 1338.96484375 1299.9996337890625
v 230.3587646484375 1367.22412109375 1299.9996337890625
v 127.3070068359375 1461.97509765625 1299.9996337890625
v 33.7279052734375 1330.67626953125 1299.9996337890625
v 32.5499267578125 1358.935546875 1299.9996337890625
v -21.6065673828125 1300.048828125 1299.9996337890625
v 127.3009033203125 1461.97509765625 1299.9996337890625
v -20.4224853515625 1271.78955078125 1299.9996337890625
v 128.4849853515625 1433.7158203125 1299.9996337890625
v 297.8026123046875 1278.0517578125 1299.9996337890625
v 296.6124267578125 1306.31103515625 1299.9996337890625
v -21.6065673828125 1300.048828125 1299.9996337890625
v -20.4224853515625 1271.78955078125 1299.9996337890625
v -21.6065673828125 1300.049072265625 1399.9996337890625
v -20.4224853515625 1271.789794921875 1399.9996337890625
v 297.8026123046875 1278.0517578125 1299.9996337890625
v 296.6124267578125 1306.31103515625 1299.9996337890625
v 297.8026123046875 1278.052001953125 1399.9996337890625
v 296.6124267578125 1306.311279296875 1399.9996337890625
v 296.6124267578125 1306.31103515625 1299.9996337890625
v 127.3009033203125 1461.97509765625 1299.9996337890625
v 296.6124267578125 1306.311279296875 1399.9996337890625
v 127.30078125 1461.975341796875 1399.9996337890625
v 127.3009033203125 1461.97509765625 1299.9996337890625
v -21.6065673828125 1300.048828125 1299.9996337890625
v 127.30078125 1461.975341796875 1399.9996337890625
v -21.6065673828125 1300.049072265625 1399.9996337890625
v -21.6065673828125 1300.049072265625 1399.9996337890625
v -20.4224853515625 1271.789794921875 1399.9996337890625
v 127.30078125 1461.975341796875 1399.9996337890625
v 128.4849853515625 1433.716064453125 1399.9996337890625
v 297.8026123046875 1278.052001953125 1399.9996337890625
v 296.6124267578125 1306.311279296875 1399.9996337890625
v -96.05126953125 1219.067626953125 1399.9996337890625
v 127.30078125 1461.975341796875 1399.9996337890625
v -94.873291015625 1190.808349609375 1399.9996337890625
v 128.4849853515625 1433.716064453125 1399.9996337890625
v 378.7596435546875 1203.589111328125 1399.9996337890625
v 377.5755615234375 1231.848388671875 1399.9996337890625
v -96.05126953125 1219.067626953125 1399.9996337890625
v -94.873291015625 1190.808349609375 1399.9996337890625
v -96.05126953125 1219.067626953125 1499.9996337890625
v -94.873291015625 1190.808349609375 1499.9996337890625
v 378.7596435546875 1203.589111328125 1399.9996337890625
v 377.5755615234375 1231.848388671875 1399.9996337890625
v 378.7596435546875 1203.589111328125 1499.9996337890625
v 377.5755615234375 1231.848388671875 1499.9996337890625
v 377.5755615234375 1231.848388671875 1399.9996337890625
v 377.5755615234375 1231.848388671875 1499.9996337890625
v 127.30078125 1461.975341796875 1499.9996337890625
v -96.05126953125 1219.067626953125 1399.9996337890625
v 127.30078125 1461.975341796875 1499.9996337890625
v -96.05126953125 1219.067626953125 1499.9996337890625
v -96.05126953125 1219.067626953125 1499.9996337890625
v -94.873291015625 1190.808349609375 1499.9996337890625
v 127.30078125 1461.975341796875 1499.9996337890625
v 128.48486328125 1433.716064453125 1499.9996337890625
v 378.7596435546875 1203.589111328125 1499.9996337890625
v 377.5755615234375 1231.848388671875 1499.9996337890625
v 437.6463623046875 1149.438720703125 1499.9996337890625
v 113.76318359375 1447.265869140625 1499.9996337890625
v 127.30078125 1461.987548828125 1499.9996337890625
v 451.1839599609375 1164.160400390625 1499.9996337890625
v -170.508056640625 1138.098388671875 1499.9996337890625
v 113.769287109375 1447.253662109375 1499.9996337890625
v -155.79248046875 1124.560791015625 1499.9996337890625
v 128.490966796875 1433.716064453125 1499.9996337890625
v -155.798583984375 1124.560791015625 1479.9998779296875
v -237.0302734375 1036.230712890625 1479.9998779296875
v -177.88720703125 1144.873291015625 1479.9998779296875
v -259.106689453125 1056.531005859375 1479.9998779296875
v 437.6463623046875 1149.438720703125 1499.9996337890625
v 451.1839599609375 1164.160400390625 1499.9996337890625
v 437.6463623046875 1149.438720703125 1619.999755859375
v 451.1839599609375 1164.160400390625 1619.999755859375
v 451.1839599609375 1164.160400390625 1499.9996337890625
v 127.30078125 1461.987548828125 1499.9996337890625
v 451.1839599609375 1164.160400390625 1619.999755859375
v 127.30078125 1461.987548828125 1619.999755859375
v 127.30078125 1461.987548828125 1499.9996337890625
v 113.76318359375 1447.265869140625 1499.9996337890625
v 127.30078125 1461.987548828125 1619.999755859375
v 113.76318359375 1447.265869140625 1619.999755859375
v 437.6463623046875 1149.438720703125 1619.999755859375
v 127.30078125 1461.987548828125 1619.999755859375
v 113.76318359375 1447.265869140625 1619.999755859375
v 451.1839599609375 1164.160400390625 1619.999755859375
v 113.769287109375 1447.253662109375 1499.9996337890625
v -170.508056640625 1138.098388671875 1499.9996337890625
v 113.769287109375 1447.253662109375 1619.999755859375
v -170.508056640625 1138.098388671875 1619.999755859375
v -170.508056640625 1138.098388671875 1499.9996337890625
v -155.79248046875 1124.560791015625 1499.9996337890625
v -170.508056640625 1138.098388671875 1619.999755859375
v -155.79248046875 1124.560791015625 1619.999755859375
v 128.490966796875 1433.716064453125 1499.9996337890625
v 113.769287109375 1447.253662109375 1499.9996337890625
v 128.490966796875 1433.716064453125 1619.999755859375
v 113.769287109375 1447.253662109375 1619.999755859375
v -170.508056640625 1138.098388671875 1619.999755859375
v -155.79248046875 1124.560791015625 1619.999755859375
v 113.769287109375 1447.253662109375 1619.999755859375
v 128.490966796875 1433.716064453125 1619.999755859375
v -155.798583984375 1124.560791015625 1479.9998779296875
v -177.88720703125 1144.873291015625 1479.9998779296875
v -121.3369140625 1162.0341796875 1669.999755859375
v -168.0908203125 1205.029052734375 1669.999755859375
v -177.88720703125 1144.873291015625 1479.9998779296875
v -259.106689453125 1056.531005859375 1479.9998779296875
v -168.091064453125 1205.02880859375 1669.999755859375
v -318.223876953125 1041.7294921875 1669.999755859375
v -259.106689453125 1056.531005859375 1479.9998779296875
v -237.0302734375 1036.230712890625 1479.9998779296875
v -318.223876953125 1041.7294921875 1669.999755859375
v -271.491943359375 998.75732421875 1669.999755859375
v -121.3369140625 1162.0341796875 1669.999755859375
v -168.091064453125 1205.02880859375 1669.999755859375
v -271.491943359375 998.75732421875 1669.999755859375
v -318.223876953125 1041.7294921875 1669.999755859375
v 851.1900634765625 598.91357421875 -0.0002198898437200114
v 870.1658935546875 623.876953125 -0.0002212427498307079
v 851.1900634765625 598.9136962890625 1299.9998779296875
v 870.1658935546875 623.8770751953125 1299.9998779296875
v 870.1658935546875 623.876953125 -0.0002212427498307079
v 863.4031982421875 785.09521484375 -0.00023563249851576984
v 870.1658935546875 623.8770751953125 1299.9998779296875
v 863.4031982421875 785.09521484375 1299.999755859375
v 863.4031982421875 785.09521484375 -0.00023563249851576984
v 760.3514404296875 879.87060546875 -0.0002484225551597774
v 863.4031982421875 785.09521484375 1299.999755859375
v 760.3514404296875 879.87060546875 1299.999755859375
v 760.3514404296875 879.87060546875 -0.0002484225551597774
v 732.0860595703125 878.6865234375 -0.0002495545777492225
v 760.3514404296875 879.87060546875 1299.999755859375
v 732.0860595703125 878.6865234375 1299.999755859375
v 870.1658935546875 623.8770751953125 1299.9998779296875
v 863.4031982421875 785.09521484375 1299.999755859375
v 851.1900634765625 598.9136962890625 1299.9998779296875
v 760.3514404296875 879.87060546875 1299.999755859375
v 732.0860595703125 878.6865234375 1299.999755859375
v 679.3822021484375 954.33349609375 1299.999755859375
v 863.4031982421875 785.09521484375 1299.999755859375
v 849.8656005859375 770.37353515625 1299.999755859375
v 651.1229248046875 953.1494140625 1299.999755859375
v 843.8963623046875 772.900390625 1299.999755859375
v 863.4642333984375 783.72802734375 1299.999755859375
v 855.6212158203125 493.1519775390625 1299.9998779296875
v 874.7618408203125 513.9649658203125 1299.9998779296875
v 679.3822021484375 954.33349609375 1299.999755859375
v 863.4031982421875 785.095458984375 1399.999755859375
v 679.3822021484375 954.333740234375 1399.999755859375
v 679.3822021484375 954.33349609375 1299.999755859375
v 651.1229248046875 953.1494140625 1299.999755859375
v 679.3822021484375 954.333740234375 1399.999755859375
v 651.1229248046875 953.149658203125 1399.999755859375
v 849.8656005859375 770.37353515625 1299.999755859375
v 863.4031982421875 785.09521484375 1299.999755859375
v 849.8656005859375 770.373779296875 1399.999755859375
v 863.4031982421875 785.095458984375 1399.999755859375
v 679.3822021484375 954.333740234375 1399.999755859375
v 849.8656005859375 770.373779296875 1399.999755859375
v 863.4031982421875 785.095458984375 1399.999755859375
v 651.1229248046875 953.149658203125 1399.999755859375
v 598.4007568359375 1028.784423828125 1399.9996337890625
v 863.4031982421875 785.095458984375 1399.999755859375
v 849.8656005859375 770.373779296875 1399.999755859375
v 570.1414794921875 1027.600341796875 1399.9996337890625
v 598.40087890625 1028.784423828125 1399.9996337890625
v 863.4031982421875 785.095458984375 1499.999755859375
v 598.40087890625 1028.784423828125 1499.9996337890625
v 598.4007568359375 1028.784423828125 1399.9996337890625
v 570.1414794921875 1027.600341796875 1399.9996337890625
v 598.4007568359375 1028.784423828125 1499.9996337890625
v 570.1414794921875 1027.600341796875 1499.9996337890625
v 849.8656005859375 770.373779296875 1499.999755859375
v 863.4031982421875 785.095458984375 1499.999755859375
v 598.4007568359375 1028.784423828125 1499.9996337890625
v 849.8656005859375 770.373779296875 1499.999755859375
v 863.4031982421875 785.095458984375 1499.999755859375
v 570.1414794921875 1027.600341796875 1499.9996337890625
v 524.7984619140625 1096.460205078125 1499.9996337890625
v 863.4031982421875 785.095458984375 1499.999755859375
v 849.8656005859375 770.373779296875 1499.999755859375
v 511.2608642578125 1081.738525390625 1499.9996337890625
v 457.9588623046875 1171.509033203125 1479.9998779296875
v 531.5672607421875 1103.821044921875 1479.9998779296875
v 511.2608642578125 1081.738525390625 1479.9998779296875
v 437.6524658203125 1149.426513671875 1479.9998779296875
v 524.798583984375 1096.460205078125 1499.9996337890625
v 863.4031982421875 785.095458984375 1619.9998779296875
v 524.798583984375 1096.460205078125 1619.999755859375
v 524.7984619140625 1096.460205078125 1499.9996337890625
v 511.2608642578125 1081.738525390625 1499.9996337890625
v 524.7984619140625 1096.460205078125 1619.999755859375
v 511.2608642578125 1081.738525390625 1619.999755859375
v 849.8656005859375 770.373779296875 1619.9998779296875
v 863.4031982421875 785.095458984375 1619.9998779296875
v 524.7984619140625 1096.460205078125 1619.999755859375
v 849.8656005859375 770.373779296875 1619.9998779296875
v 863.4031982421875 785.095458984375 1619.9998779296875
v 511.2608642578125 1081.738525390625 1619.999755859375
v 531.5672607421875 1103.821044921875 1479.9998779296875
v 457.9588623046875 1171.509033203125 1479.9998779296875
v 591.71875 1094.02099609375 1669.999755859375
v 443.1611328125 1230.6298828125 1669.999755859375
v 457.9588623046875 1171.509033203125 1479.9998779296875
v 437.6524658203125 1149.426513671875 1479.9998779296875
v 443.1611328125 1230.6298828125 1669.999755859375
v 400.1778564453125 1183.88720703125 1669.999755859375
v 511.2608642578125 1081.738525390625 1479.9998779296875
v 531.5672607421875 1103.821044921875 1479.9998779296875
v 548.7353515625 1047.278076171875 1669.999755859375
v 591.7188720703125 1094.02099609375 1669.999755859375
v 443.1611328125 1230.6298828125 1669.999755859375
v 548.7353515625 1047.278076171875 1669.999755859375
v 591.71875 1094.02099609375 1669.999755859375
v 400.1778564453125 1183.886962890625 1669.999755859375
v 855.6212158203125 493.1519775390625 1299.9998779296875
v 874.7618408203125 513.9649658203125 1299.9998779296875
v 855.6212158203125 493.1519775390625 1399.9998779296875
v 874.7618408203125 513.9649658203125 1399.9998779296875
v 874.7618408203125 513.9649658203125 1299.9998779296875
v 863.4642333984375 783.72802734375 1299.999755859375
v 874.7618408203125 513.9649658203125 1399.9998779296875
v 863.4642333984375 783.728271484375 1399.999755859375
v 863.4642333984375 783.72802734375 1299.999755859375
v 843.8963623046875 772.900390625 1299.999755859375
v 863.4642333984375 783.728271484375 1399.999755859375
v 843.8963623046875 772.900634765625 1399.999755859375
v 843.8963623046875 772.900634765625 1399.999755859375
v 855.6212158203125 493.1519775390625 1399.9998779296875
v 863.4642333984375 783.728271484375 1399.999755859375
v 874.7618408203125 513.9649658203125 1399.9998779296875
v 843.4813232421875 782.898193359375 1399.999755859375
v 863.4642333984375 783.728271484375 1399.999755859375
v 860.2293701171875 383.2520751953125 1399.9998779296875
v 879.3699951171875 404.0650634765625 1399.9998779296875
v 860.2293701171875 383.2520751953125 1399.9998779296875
v 879.3699951171875 404.0650634765625 1399.9998779296875
v 860.2293701171875 383.2520751953125 1499.9998779296875
v 879.3699951171875 404.0650634765625 1499.9998779296875
v 879.3699951171875 404.0650634765625 1399.9998779296875
v 879.3699951171875 404.0650634765625 1499.9998779296875
v 863.4642333984375 783.728271484375 1499.999755859375
v 863.4642333984375 783.728271484375 1399.999755859375
v 843.4813232421875 782.898193359375 1399.999755859375
v 863.4642333984375 783.728271484375 1499.999755859375
v 843.4813232421875 782.898193359375 1499.999755859375
v 843.4813232421875 782.898193359375 1499.999755859375
v 860.2293701171875 383.2520751953125 1499.9998779296875
v 863.4642333984375 783.728271484375 1499.999755859375
v 879.3699951171875 404.0650634765625 1499.9998779296875
v 891.6319580078125 -366.10101318359375 1499.9998779296875
v 843.8963623046875 772.900634765625 1499.999755859375
v 863.4642333984375 783.728271484375 1499.999755859375
v 910.7786865234375 -345.27581787109375 1499.9998779296875
v 899.4078369140625 164.6973876953125 1480.0
v 869.4334716796875 163.4400634765625 1480.0
v 895.6419677734375 254.6143798828125 1480.0
v 855.6761474609375 252.9298095703125 1480.0
v 891.6319580078125 -366.10101318359375 1499.9998779296875
v 910.7786865234375 -345.27581787109375 1499.9998779296875
v 891.6319580078125 -366.10101318359375 1620.0
v 910.7786865234375 -345.27581787109375 1620.0
v 910.7786865234375 -345.27581787109375 1499.9998779296875
v 910.7786865234375 -345.27581787109375 1620.0
v 863.4642333984375 783.728271484375 1619.9998779296875
v 863.4642333984375 783.728271484375 1499.999755859375
v 843.8963623046875 772.900634765625 1499.999755859375
v 863.4642333984375 783.728271484375 1619.9998779296875
v 843.8963623046875 772.900634765625 1619.9998779296875
v 891.6319580078125 -366.10101318359375 1620.0
v 863.4642333984375 783.728271484375 1619.9998779296875
v 843.8963623046875 772.900634765625 1619.9998779296875
v 910.7786865234375 -345.27581787109375 1620.0
v 869.4334716796875 163.4400634765625 1480.0
v 899.4078369140625 164.6973876953125 1480.0
v 877.216552734375 112.8114013671875 1670.0
v 935.0107421875 115.235595703125 1670.0
v 899.4078369140625 164.6973876953125 1480.0
v 895.6419677734375 254.6143798828125 1480.0
v 935.0107421875 115.235595703125 1670.0
v 926.98388671875 306.890625 1670.0
v 895.6419677734375 254.6143798828125 1480.0
v 855.6761474609375 252.9298095703125 1480.0
v 926.9840087890625 306.890625 1670.0
v 847.89306640625 303.5570068359375 1670.0
v 935.0107421875 115.235595703125 1670.0
v 926.9840087890625 306.890625 1670.0
v 877.216552734375 112.8114013671875 1670.0
v 847.89306640625 303.557373046875 1670.0
v 891.632080078125 -366.10113525390625 -0.0001337578141828999
v 910.77880859375 -345.27593994140625 -0.0001347414799965918
v 891.6319580078125 -366.10101318359375 1299.9998779296875
v 910.7786865234375 -345.27581787109375 1299.9998779296875
v 910.77880859375 -345.27593994140625 -0.0001347414799965918
v 904.0770263671875 -185.41259765625 -0.00014901011309120804
v 910.7786865234375 -345.27581787109375 1299.9998779296875
v 904.076904296875 -185.4124755859375 1299.9998779296875
v 904.0770263671875 -185.41259765625 -0.00014901011309120804
v 883.258056640625 -166.27197265625 -0.00015159347094595432
v 904.076904296875 -185.4124755859375 1299.9996337890625
v 883.2579345703125 -166.2718505859375 1299.9996337890625
v 910.7786865234375 -345.27581787109375 1299.9998779296875
v 904.076904296875 -185.4124755859375 1299.9998779296875
v 891.6319580078125 -366.10101318359375 1299.9998779296875
v 883.2579345703125 -166.2718505859375 1299.9998779296875
v 910.7786865234375 -345.27581787109375 1299.9998779296875
v 891.6319580078125 -366.10101318359375 1299.9998779296875
v 900.3111572265625 -95.4954833984375 1299.9998779296875
v 879.4920654296875 -76.3548583984375 1299.9998779296875
v 900.3111572265625 -95.4954833984375 1299.9998779296875
v 910.7786865234375 -345.27581787109375 1399.9998779296875
v 900.3111572265625 -95.4954833984375 1399.9998779296875
v 900.3111572265625 -95.4954833984375 1299.9998779296875
v 879.4920654296875 -76.3548583984375 1299.9998779296875
v 900.3111572265625 -95.4954833984375 1399.9998779296875
v 879.4920654296875 -76.3548583984375 1399.9998779296875
v 891.6319580078125 -366.10101318359375 1399.9998779296875
v 910.7786865234375 -345.27581787109375 1399.9998779296875
v 910.7786865234375 -345.27581787109375 1399.9998779296875
v 900.3111572265625 -95.4954833984375 1399.9998779296875
v 891.6319580078125 -366.10101318359375 1399.9998779296875
v 879.4920654296875 -76.3548583984375 1399.9998779296875
v 910.7786865234375 -345.27581787109375 1399.9998779296875
v 891.6319580078125 -366.10101318359375 1399.9998779296875
v 895.7091064453125 14.4044189453125 1399.9998779296875
v 874.8839111328125 33.5572509765625 1399.9998779296875
v 895.7091064453125 14.4044189453125 1399.9998779296875
v 895.7091064453125 14.4044189453125 1499.9998779296875
v 895.7091064453125 14.4044189453125 1399.9998779296875
v 874.8839111328125 33.5572509765625 1399.9998779296875
v 895.7091064453125 14.4044189453125 1499.9998779296875
v 874.8839111328125 33.5572509765625 1499.9998779296875
v 910.7786865234375 -345.27581787109375 1499.9998779296875
v 895.7091064453125 14.4044189453125 1499.9998779296875
v 891.6319580078125 -366.10101318359375 1499.9998779296875
v 874.8839111328125 33.5572509765625 1499.9998779296875
v 238.9036865234375 1332.18994140625 -0.0003107587981503457
v 245.6724853515625 1339.55078125 -0.0003111064143013209
v 238.9036865234375 1332.18994140625 1289.9996337890625
v 245.6724853515625 1339.55078125 1289.9996337890625
v 245.6724853515625 1339.55078125 -0.0003111064143013209
v 238.3116455078125 1346.3134765625 -0.0003120193723589182
v 245.6724853515625 1339.55078125 1289.9996337890625
v 238.3116455078125 1346.3134765625 1289.9996337890625
v 238.3116455078125 1346.3134765625 -0.0003120193723589182
v 231.5428466796875 1338.95263671875 -0.00031167175620794296
v 238.3116455078125 1346.3134765625 1289.9993896484375
v 231.5428466796875 1338.95263671875 1289.9993896484375
v 238.3116455078125 1346.3134765625 1289.9996337890625
v 238.9036865234375 1332.18994140625 1289.9996337890625
v 245.6724853515625 1339.55078125 1289.9996337890625
v 231.5428466796875 1338.95263671875 1289.9996337890625
v 305.1573486328125 1271.2646484375 1289.9996337890625
v 231.5428466796875 1338.95263671875 1289.9996337890625
v 238.3116455078125 1346.3134765625 1289.9996337890625
v 311.9261474609375 1278.62548828125 1289.9996337890625
v 305.1573486328125 1271.2646484375 1289.9996337890625
v 311.9261474609375 1278.62548828125 1289.9996337890625
v 305.1573486328125 1271.2646484375 1299.9996337890625
v 311.9261474609375 1278.62548828125 1299.9996337890625
v 311.9261474609375 1278.62548828125 1289.9996337890625
v 311.9261474609375 1278.62548828125 1299.9996337890625
v 238.3116455078125 1346.3134765625 1299.9996337890625
v 238.3116455078125 1346.3134765625 1289.9996337890625
v 231.5428466796875 1338.95263671875 1289.9996337890625
v 238.3116455078125 1346.3134765625 1299.9996337890625
v 231.5428466796875 1338.95263671875 1299.9996337890625
v 305.1573486328125 1271.2646484375 1299.9996337890625
v 238.3116455078125 1346.3134765625 1299.9996337890625
v 231.5428466796875 1338.95263671875 1299.9996337890625
v 311.9261474609375 1278.62548828125 1299.9996337890625
v 304.5653076171875 1285.400390625 1299.9996337890625
v 311.9261474609375 1278.62548828125 1299.9996337890625
v 305.1573486328125 1271.2646484375 1299.9996337890625
v 297.7965087890625 1278.03955078125 1299.9996337890625
v 305.1573486328125 1271.2646484375 1389.9996337890625
v 311.9261474609375 1278.62548828125 1389.9996337890625
v 304.5653076171875 1285.400390625 1299.9996337890625
v 311.9261474609375 1278.62548828125 1389.9996337890625
v 304.5653076171875 1285.400390625 1389.9996337890625
v 304.5653076171875 1285.400390625 1299.9996337890625
v 297.7965087890625 1278.03955078125 1299.9996337890625
v 304.5653076171875 1285.400390625 1389.9996337890625
v 297.7965087890625 1278.03955078125 1389.9996337890625
v 304.5653076171875 1285.400390625 1389.9996337890625
v 305.1573486328125 1271.2646484375 1389.9996337890625
v 311.9261474609375 1278.62548828125 1389.9996337890625
v 297.7965087890625 1278.03955078125 1389.9996337890625
v 386.1265869140625 1196.81396484375 1389.9996337890625
v 297.7965087890625 1278.03955078125 1389.9996337890625
v 304.5653076171875 1285.400390625 1389.9996337890625
v 392.8953857421875 1204.1748046875 1389.9996337890625
v 386.1265869140625 1196.81396484375 1389.9996337890625
v 392.8953857421875 1204.1748046875 1389.9996337890625
v 386.1265869140625 1196.814208984375 1399.9996337890625
v 392.8953857421875 1204.175048828125 1399.9996337890625
v 392.8953857421875 1204.1748046875 1389.9996337890625
v 392.8953857421875 1204.175048828125 1399.9996337890625
v 304.5653076171875 1285.400634765625 1399.9996337890625
v 304.5653076171875 1285.400634765625 1399.9996337890625
v 297.7965087890625 1278.039794921875 1399.9996337890625
v 386.1265869140625 1196.814208984375 1399.9996337890625
v 304.5653076171875 1285.400634765625 1399.9996337890625
v 297.7965087890625 1278.039794921875 1399.9996337890625
v 392.8953857421875 1204.175048828125 1399.9996337890625
v 385.5345458984375 1210.937744140625 1399.9996337890625
v 392.8953857421875 1204.175048828125 1399.9996337890625
v 386.1265869140625 1196.814208984375 1399.9996337890625
v 378.7657470703125 1203.576904296875 1399.9996337890625
v 386.1265869140625 1196.814208984375 1489.9996337890625
v 392.8953857421875 1204.175048828125 1489.9996337890625
v 385.5345458984375 1210.937744140625 1399.9996337890625
v 392.8953857421875 1204.175048828125 1489.9996337890625
v 385.5345458984375 1210.937744140625 1489.9996337890625
v 385.5345458984375 1210.937744140625 1399.9996337890625
v 378.7657470703125 1203.576904296875 1399.9996337890625
v 385.5345458984375 1210.937744140625 1489.9996337890625
v 378.7657470703125 1203.576904296875 1489.9996337890625
v 385.5345458984375 1210.937744140625 1489.9996337890625
v 386.1265869140625 1196.814208984375 1489.9996337890625
v 392.8953857421875 1204.175048828125 1489.9996337890625
v 378.7657470703125 1203.576904296875 1489.9996337890625
v 738.86083984375 886.03515625 -0.0002499008842278272
v 731.5001220703125 892.81005859375 -0.0002508148900233209
v 738.86083984375 886.03515625 1289.99951171875
v 731.5001220703125 892.81005859375 1289.99951171875
v 731.5001220703125 892.81005859375 -0.0002508148900233209
v 724.7313232421875 885.44921875 -0.0002504672738723457
v 731.5001220703125 892.81005859375 1289.999755859375
v 724.7313232421875 885.44921875 1289.999755859375
v 732.092041015625 878.67431640625 -0.0002495532389730215
v 738.86083984375 886.03515625 -0.0002499008842278272
v 732.092041015625 878.67431640625 1289.999755859375
v 738.86083984375 886.03515625 1289.999755859375
v 731.5001220703125 892.81005859375 1289.999755859375
v 732.092041015625 878.67431640625 1289.999755859375
v 738.86083984375 886.03515625 1289.999755859375
v 724.7313232421875 885.44921875 1289.999755859375
v 650.5247802734375 967.27294921875 1289.999755859375
v 738.86083984375 886.03515625 1289.999755859375
v 732.092041015625 878.67431640625 1289.999755859375
v 643.7620849609375 959.92431640625 1289.999755859375
v 738.86083984375 886.03515625 1289.999755859375
v 650.5247802734375 967.27294921875 1289.999755859375
v 738.86083984375 886.03515625 1299.999755859375
v 650.5247802734375 967.27294921875 1299.999755859375
v 650.5247802734375 967.27294921875 1289.999755859375
v 643.7620849609375 959.92431640625 1289.999755859375
v 650.5247802734375 967.27294921875 1299.999755859375
v 643.7620849609375 959.92431640625 1299.999755859375
v 732.092041015625 878.67431640625 1299.999755859375
v 738.86083984375 886.03515625 1299.999755859375
v 650.5247802734375 967.27294921875 1299.999755859375
v 732.092041015625 878.67431640625 1299.999755859375
v 738.86083984375 886.03515625 1299.999755859375
v 643.7620849609375 959.92431640625 1299.999755859375
v 650.5308837890625 967.28515625 1299.999755859375
v 657.897705078125 960.498046875 1299.999755859375
v 651.1229248046875 953.13720703125 1299.999755859375
v 643.7559814453125 959.912109375 1299.999755859375
v 657.897705078125 960.498046875 1299.999755859375
v 650.5308837890625 967.28515625 1299.999755859375
v 657.897705078125 960.498046875 1389.999755859375
v 650.5308837890625 967.28515625 1389.999755859375
v 650.5308837890625 967.28515625 1299.999755859375
v 643.755859375 959.912109375 1299.999755859375
v 650.5308837890625 967.28515625 1389.999755859375
v 643.755859375 959.912109375 1389.999755859375
v 651.1229248046875 953.13720703125 1299.999755859375
v 657.897705078125 960.498046875 1299.999755859375
v 651.1229248046875 953.13720703125 1389.999755859375
v 657.897705078125 960.498046875 1389.999755859375
v 650.5308837890625 967.28515625 1389.999755859375
v 651.1229248046875 953.13720703125 1389.999755859375
v 657.897705078125 960.498046875 1389.999755859375
v 643.755859375 959.912109375 1389.999755859375
v 569.5555419921875 1041.7236328125 1389.9996337890625
v 657.8917236328125 960.498046875 1389.999755859375
v 651.1229248046875 953.13720703125 1389.999755859375
v 562.7867431640625 1034.36279296875 1389.9996337890625
v 657.8917236328125 960.498046875 1389.999755859375
v 569.5555419921875 1041.7236328125 1389.9996337890625
v 657.8917236328125 960.498291015625 1399.999755859375
v 569.5555419921875 1041.723876953125 1399.9996337890625
v 569.5555419921875 1041.7236328125 1389.9996337890625
v 562.7867431640625 1034.36279296875 1389.9996337890625
v 569.5555419921875 1041.723876953125 1399.9996337890625
v 562.7867431640625 1034.363037109375 1399.9996337890625
v 657.8917236328125 960.498046875 1389.999755859375
v 651.1229248046875 953.137451171875 1399.999755859375
v 657.8917236328125 960.498291015625 1399.999755859375
v 569.5555419921875 1041.723876953125 1399.9996337890625
v 651.1229248046875 953.137451171875 1399.999755859375
v 657.8917236328125 960.498291015625 1399.999755859375
v 562.7867431640625 1034.363037109375 1399.9996337890625
v 569.5555419921875 1041.723876953125 1399.9996337890625
v 576.9163818359375 1034.948974609375 1399.9996337890625
v 570.1475830078125 1027.588134765625 1399.9996337890625
v 562.7867431640625 1034.363037109375 1399.9996337890625
v 576.9163818359375 1034.948974609375 1399.9996337890625
v 576.9163818359375 1034.948974609375 1489.9996337890625
v 569.5555419921875 1041.723876953125 1489.9996337890625
v 569.5555419921875 1041.723876953125 1489.9996337890625
v 562.7867431640625 1034.363037109375 1489.9996337890625
v 570.1475830078125 1027.588134765625 1399.9996337890625
v 576.9163818359375 1034.948974609375 1399.9996337890625
v 570.1475830078125 1027.588134765625 1489.9996337890625
v 576.9163818359375 1034.948974609375 1489.9996337890625
v 569.5555419921875 1041.723876953125 1489.9996337890625
v 570.1475830078125 1027.588134765625 1489.9996337890625
v 576.9163818359375 1034.948974609375 1489.9996337890625
v 562.7867431640625 1034.363037109375 1489.9996337890625
v 385.5345458984375 1210.937744140625 1489.9996337890625
v 576.9163818359375 1034.948974609375 1489.9996337890625
v 570.1475830078125 1027.588134765625 1489.9996337890625
v 378.7657470703125 1203.576904296875 1489.9996337890625
v 576.9163818359375 1034.948974609375 1499.9996337890625
v 385.5345458984375 1210.937744140625 1499.9996337890625
v 385.5345458984375 1210.937744140625 1499.9996337890625
v 378.7657470703125 1203.576904296875 1499.9996337890625
v 570.1475830078125 1027.588134765625 1499.9996337890625
v 576.9163818359375 1034.948974609375 1499.9996337890625
v 385.5345458984375 1210.937744140625 1499.9996337890625
v 570.1475830078125 1027.588134765625 1499.9996337890625
v 576.9163818359375 1034.948974609375 1499.9996337890625
v 378.7657470703125 1203.576904296875 1499.9996337890625
v 230.3587646484375 1367.2119140625 -0.00031419401057064533
v 216.8211669921875 1352.490234375 -0.0003134987491648644
v 230.3587646484375 1367.2119140625 99.99968719482422
v 216.8211669921875 1352.490234375 99.99968719482422
v 746.8138427734375 865.13671875 -0.0002477262169122696
v 760.3514404296875 879.8583984375 -0.00024842150742188096
v 746.8138427734375 865.13671875 99.999755859375
v 760.3514404296875 879.8583984375 99.999755859375
v 760.3514404296875 879.8583984375 -0.00024842150742188096
v 230.3587646484375 1367.2119140625 -0.00031419401057064533
v 760.3514404296875 879.8583984375 99.999755859375
v 230.3587646484375 1367.2119140625 99.99968719482422
v 746.8138427734375 865.13671875 99.999755859375
v 230.3587646484375 1367.2119140625 99.99968719482422
v 216.8211669921875 1352.490234375 99.99968719482422
v 760.3514404296875 879.8583984375 99.999755859375
v 746.8138427734375 865.13671875 99.999755859375
v 216.8211669921875 1352.490234375 99.99968719482422
v 230.3587646484375 1367.2119140625 99.99968719482422
v 760.3514404296875 879.8583984375 99.999755859375
v 217.2861328125 1352.99609375 119.99969482421875
v 216.8211669921875 1352.490234375 119.99969482421875
v 746.8138427734375 865.13671875 119.99976348876953
v 747.2789306640625 865.642578125 119.99976348876953
v 760.3514404296875 879.8583984375 99.99977111816406
v 230.3587646484375 1367.2119140625 99.99968719482422
v 747.2789306640625 865.642578125 119.99974822998047
v 217.2861328125 1352.99609375 119.99969482421875
v 746.8138427734375 865.13671875 119.99976348876953
v 217.2861328125 1352.99609375 119.99969482421875
v 216.8211669921875 1352.490234375 119.99969482421875
v 747.2789306640625 865.642578125 119.99976348876953
v 884.09423828125 -186.2548828125 -0.00014980995911173522
v 904.0770263671875 -185.41259765625 -0.00014901011309120804
v 884.09423828125 -186.2548828125 99.99983978271484
v 904.0770263671875 -185.41259765625 99.99983978271484
v 870.1719970703125 623.876953125 -0.0002212424878962338
v 904.0770263671875 -185.41259765625 99.9998550415039
v 870.1719970703125 623.876953125 99.9997787475586
v 870.1719970703125 623.876953125 -0.0002212424878962338
v 850.1768798828125 623.03466796875 -0.00022204287233762443
v 870.1719970703125 623.876953125 99.9997787475586
v 850.1768798828125 623.03466796875 99.99977111816406
v 870.1719970703125 623.876953125 99.9997787475586
v 884.09423828125 -186.2548828125 99.9998550415039
v 904.0770263671875 -185.41259765625 99.9998550415039
v 850.1768798828125 623.03466796875 99.99977111816406
v 870.1597900390625 623.876953125 99.9997787475586
v 904.0770263671875 -185.41259765625 99.9998550415039
v 884.09423828125 -186.2548828125 99.9998550415039
v 850.1768798828125 623.03466796875 99.99977111816406
v 893.670654296875 -175.84228515625 99.9998550415039
v 883.67919921875 -176.25732421875 99.9998550415039
v 892.828369140625 -155.859375 99.99984741210938
v 882.8369140625 -156.2744140625 99.99984741210938
v 850.5919189453125 613.04931640625 99.9997787475586
v 860.5833740234375 613.46435546875 99.9997787475586
v 851.4342041015625 593.06640625 99.9997787475586
v 861.4256591796875 593.4814453125 99.9997787475586
v 884.09423828125 -186.2548828125 99.9998550415039
v 904.0770263671875 -185.41259765625 99.9998550415039
v 884.09423828125 -186.2548828125 119.99986267089844
v 884.7818603515625 -186.225830078125 119.99986267089844
v 904.0770263671875 -185.41259765625 99.99984741210938
v 870.1597900390625 623.876953125 99.99979400634766
v 884.7818603515625 -186.225830078125 119.99986267089844
v 850.8646240234375 623.063720703125 119.99984741210938
v 870.1597900390625 623.876953125 99.9997787475586
v 850.864501953125 623.063720703125 119.9997787475586
v 850.1768798828125 623.03466796875 119.9997787475586
v 850.864501953125 623.063720703125 119.9997787475586
v 884.09423828125 -186.2548828125 119.99986267089844
v 884.7818603515625 -186.225830078125 119.99986267089844
v 850.1768798828125 623.03466796875 119.9997787475586
v 893.670654296875 -175.84228515625 99.9998550415039
v 892.828369140625 -155.859375 99.99984741210938
v 893.6705322265625 -175.8421630859375 1289.9998779296875
v 892.8282470703125 -155.8592529296875 1289.9998779296875
v 892.828369140625 -155.859375 99.99984741210938
v 882.8369140625 -156.2744140625 99.99984741210938
v 892.8282470703125 -155.8592529296875 1289.9998779296875
v 882.8367919921875 -156.2742919921875 1289.9998779296875
v 883.67919921875 -176.25732421875 99.9998550415039
v 893.670654296875 -175.84228515625 99.9998550415039
v 883.6790771484375 -176.2572021484375 1289.9998779296875
v 893.6705322265625 -175.8421630859375 1289.9998779296875
v 893.6705322265625 -175.8421630859375 1289.9998779296875
v 892.8282470703125 -155.8592529296875 1289.9998779296875
v 883.6790771484375 -176.2572021484375 1289.9998779296875
v 882.8367919921875 -156.2742919921875 1289.9998779296875
v 893.6705322265625 -175.8421630859375 1289.9998779296875
v 883.6790771484375 -176.2572021484375 1289.9998779296875
v 889.4713134765625 -75.9276123046875 1289.9998779296875
v 879.4920654296875 -76.3548583984375 1289.9998779296875
v 889.4713134765625 -75.9276123046875 1289.9998779296875
v 893.6705322265625 -175.8421630859375 1389.9998779296875
v 889.4713134765625 -75.9276123046875 1389.9998779296875
v 889.4713134765625 -75.9276123046875 1289.9998779296875
v 879.4920654296875 -76.3548583984375 1289.9998779296875
v 889.4713134765625 -75.9276123046875 1389.9998779296875
v 879.4920654296875 -76.3548583984375 1389.9998779296875
v 883.6790771484375 -176.2572021484375 1389.9998779296875
v 893.6705322265625 -175.8421630859375 1389.9998779296875
v 893.6705322265625 -175.8421630859375 1389.9998779296875
v 889.4713134765625 -75.9276123046875 1389.9998779296875
v 883.6790771484375 -176.2572021484375 1389.9998779296875
v 879.4920654296875 -76.3548583984375 1389.9998779296875
v 889.8985595703125 -85.9251708984375 1389.9998779296875
v 879.9071044921875 -86.3402099609375 1389.9998779296875
v 884.8753662109375 33.9722900390625 1389.9998779296875
v 874.884033203125 33.5572509765625 1389.9998779296875
v 889.8985595703125 -85.9251708984375 1389.9998779296875
v 884.8753662109375 33.9722900390625 1389.9998779296875
v 889.8985595703125 -85.9251708984375 1489.9998779296875
v 884.8753662109375 33.9722900390625 1489.9998779296875
v 884.8753662109375 33.9722900390625 1389.9998779296875
v 874.884033203125 33.5572509765625 1389.9998779296875
v 884.8753662109375 33.9722900390625 1489.9998779296875
v 874.884033203125 33.5572509765625 1489.9998779296875
v 879.9071044921875 -86.3402099609375 1389.9998779296875
v 889.8985595703125 -85.9251708984375 1389.9998779296875
v 879.9071044921875 -86.3402099609375 1489.9998779296875
v 889.8985595703125 -85.9251708984375 1489.9998779296875
v 889.8985595703125 -85.9251708984375 1489.9998779296875
v 884.8753662109375 33.9722900390625 1489.9998779296875
v 879.9071044921875 -86.3402099609375 1489.9998779296875
v 874.884033203125 33.5572509765625 1489.9998779296875
v 851.4342041015625 593.06640625 99.9997787475586
v 861.4256591796875 593.4814453125 99.9997787475586
v 851.4342041015625 593.0665283203125 1289.9998779296875
v 861.4256591796875 593.4815673828125 1289.9998779296875
v 861.4256591796875 593.4814453125 99.9997787475586
v 860.5833740234375 613.46435546875 99.9997787475586
v 861.4256591796875 593.4815673828125 1289.9998779296875
v 860.5833740234375 613.4644775390625 1289.9998779296875
v 860.5833740234375 613.46435546875 99.9997787475586
v 850.5919189453125 613.04931640625 99.9997787475586
v 860.5833740234375 613.4644775390625 1289.9998779296875
v 850.5919189453125 613.0494384765625 1289.9998779296875
v 850.5919189453125 613.0494384765625 1289.9998779296875
v 851.4342041015625 593.0665283203125 1289.9998779296875
v 860.5833740234375 613.4644775390625 1289.9998779296875
v 861.4256591796875 593.4815673828125 1289.9998779296875
v 850.5980224609375 613.0494384765625 1289.9998779296875
v 860.5894775390625 613.4644775390625 1289.9998779296875
v 855.6212158203125 493.1519775390625 1289.9998779296875
v 865.612548828125 493.5670166015625 1289.9998779296875
v 855.6212158203125 493.1519775390625 1289.9998779296875
v 865.612548828125 493.5670166015625 1289.9998779296875
v 855.6212158203125 493.1519775390625 1389.9998779296875
v 865.612548828125 493.5670166015625 1389.9998779296875
v 865.6126708984375 493.5670166015625 1289.9998779296875
v 860.5894775390625 613.4644775390625 1289.9998779296875
v 865.6126708984375 493.5670166015625 1389.9998779296875
v 860.5894775390625 613.4644775390625 1389.9998779296875
v 860.5894775390625 613.4644775390625 1289.9998779296875
v 850.5980224609375 613.0494384765625 1289.9998779296875
v 860.5894775390625 613.4644775390625 1389.9998779296875
v 850.5980224609375 613.0494384765625 1389.9998779296875
v 850.5980224609375 613.0494384765625 1389.9998779296875
v 855.6212158203125 493.1519775390625 1389.9998779296875
v 860.5894775390625 613.4644775390625 1389.9998779296875
v 865.612548828125 493.5670166015625 1389.9998779296875
v 855.2061767578125 503.1373291015625 1389.9998779296875
v 865.1976318359375 503.5645751953125 1389.9998779296875
v 860.2293701171875 383.2520751953125 1389.9998779296875
v 870.220703125 383.6671142578125 1389.9998779296875
v 860.2293701171875 383.2520751953125 1389.9998779296875
v 870.220703125 383.6671142578125 1389.9998779296875
v 860.2293701171875 383.2520751953125 1489.9998779296875
v 870.220703125 383.6671142578125 1489.9998779296875
v 870.220703125 383.6671142578125 1389.9998779296875
v 865.1976318359375 503.5645751953125 1389.9998779296875
v 870.220703125 383.6671142578125 1489.9998779296875
v 865.1976318359375 503.5645751953125 1489.9998779296875
v 865.1976318359375 503.5645751953125 1389.9998779296875
v 855.2061767578125 503.1373291015625 1389.9998779296875
v 865.1976318359375 503.5645751953125 1489.9998779296875
v 855.2061767578125 503.1373291015625 1489.9998779296875
v 855.2061767578125 503.1373291015625 1489.9998779296875
v 860.2293701171875 383.2520751953125 1489.9998779296875
v 865.1976318359375 503.5645751953125 1489.9998779296875
v 870.220703125 383.6671142578125 1489.9998779296875
v 875.3050537109375 23.5474853515625 1489.9998779296875
v 859.80810546875 393.2374267578125 1489.9998779296875
v 869.7998046875 393.6524658203125 1489.9998779296875
v 885.2965087890625 23.9625244140625 1489.9998779296875
v 875.3050537109375 23.5474853515625 1489.9998779296875
v 885.2965087890625 23.9625244140625 1489.9998779296875
v 875.3050537109375 23.5474853515625 1499.9998779296875
v 885.2965087890625 23.9625244140625 1499.9998779296875
v 885.2965087890625 23.9625244140625 1489.9998779296875
v 869.7998046875 393.6524658203125 1489.9998779296875
v 885.2965087890625 23.9625244140625 1499.9998779296875
v 869.7998046875 393.6524658203125 1499.9998779296875
v 869.7998046875 393.6524658203125 1489.9998779296875
v 859.80810546875 393.2374267578125 1489.9998779296875
v 869.7998046875 393.6524658203125 1499.9998779296875
v 859.80810546875 393.2374267578125 1499.9998779296875
v 875.3050537109375 23.5474853515625 1499.9998779296875
v 869.7998046875 393.6524658203125 1499.9998779296875
v 859.80810546875 393.2374267578125 1499.9998779296875
v 885.2965087890625 23.9625244140625 1499.9998779296875
v 40.4967041015625 1338.02490234375 -0.00031994155142456293
v 33.1358642578125 1344.78759765625 -0.0003208545094821602
v 40.4967041015625 1338.02490234375 1289.9993896484375
v 33.1358642578125 1344.78759765625 1289.9993896484375
v 33.1358642578125 1344.78759765625 -0.0003208545094821602
v 19.5982666015625 1330.06591796875 -0.0003201592480763793
v 33.1358642578125 1344.78759765625 1289.9996337890625
v 19.5982666015625 1330.06591796875 1289.9996337890625
v 19.5982666015625 1330.06591796875 -0.0003201592480763793
v 26.9591064453125 1323.30322265625 -0.00031924626091495156
v 19.5982666015625 1330.06591796875 1289.9993896484375
v 26.9591064453125 1323.30322265625 1289.9993896484375
v 40.4967041015625 1338.02490234375 1289.9996337890625
v 33.1358642578125 1344.78759765625 1289.9996337890625
v 26.9591064453125 1323.30322265625 1289.9996337890625
v 19.5982666015625 1330.06591796875 1289.9996337890625
v -27.7833251953125 1278.5400390625 1289.9996337890625
v 33.1358642578125 1344.78759765625 1289.9996337890625
v -20.4224853515625 1271.77734375 1289.9996337890625
v 40.4967041015625 1338.02490234375 1289.9996337890625
v -27.7833251953125 1278.5400390625 1289.9996337890625
v 33.1358642578125 1344.78759765625 1389.9996337890625
v -27.7833251953125 1278.5400390625 1389.9996337890625
v -27.7833251953125 1278.5400390625 1289.9996337890625
v -20.4224853515625 1271.77734375 1289.9996337890625
v -27.7833251953125 1278.5400390625 1389.9996337890625
v -20.4224853515625 1271.77734375 1389.9996337890625
v 40.4967041015625 1338.02490234375 1289.9996337890625
v 33.1358642578125 1344.78759765625 1289.9996337890625
v 40.4967041015625 1338.02490234375 1389.9996337890625
v 33.1358642578125 1344.78759765625 1389.9996337890625
v -27.7833251953125 1278.5400390625 1389.9996337890625
v -20.4224853515625 1271.77734375 1389.9996337890625
v 33.1358642578125 1344.78759765625 1389.9996337890625
v 40.4967041015625 1338.02490234375 1389.9996337890625
v -102.240234375 1197.57080078125 1389.9996337890625
v -21.0145263671875 1285.90087890625 1389.9996337890625
v -94.87939453125 1190.80810546875 1389.9996337890625
v -13.6536865234375 1279.13818359375 1389.9996337890625
v -21.0145263671875 1285.90087890625 1389.9996337890625
v -102.240234375 1197.57080078125 1389.9996337890625
v -21.0145263671875 1285.901123046875 1489.9996337890625
v -102.240234375 1197.571044921875 1489.9996337890625
v -102.240234375 1197.57080078125 1389.9996337890625
v -94.87939453125 1190.80810546875 1389.9996337890625
v -102.240234375 1197.571044921875 1489.9996337890625
v -94.87939453125 1190.808349609375 1489.9996337890625
v -13.6536865234375 1279.13818359375 1389.9996337890625
v -21.0145263671875 1285.90087890625 1389.9996337890625
v -13.6536865234375 1279.138427734375 1489.9996337890625
v -21.0145263671875 1285.901123046875 1489.9996337890625
v -102.240234375 1197.571044921875 1489.9996337890625
v -94.87939453125 1190.808349609375 1489.9996337890625
v -21.0145263671875 1285.901123046875 1489.9996337890625
v -13.6536865234375 1279.138427734375 1489.9996337890625
v -427.142333984375 844.25048828125 -0.0002972155634779483
v -440.679931640625 829.52880859375 -0.0002965203020721674
v -427.142578125 844.25048828125 1289.9996337890625
v -440.68017578125 829.52880859375 1289.9996337890625
v -440.679931640625 829.52880859375 -0.0002965203020721674
v -433.319091796875 822.75390625 -0.0002956062671728432
v -440.68017578125 829.52880859375 1289.9996337890625
v -433.3193359375 822.75390625 1289.9996337890625
v -419.781494140625 837.4755859375 -0.00029630152857862413
v -427.142333984375 844.25048828125 -0.0002972155634779483
v -419.78173828125 837.4755859375 1289.9996337890625
v -427.142578125 844.25048828125 1289.9996337890625
v -440.68017578125 829.52880859375 1289.9996337890625
v -433.3193359375 822.75390625 1289.9996337890625
v -427.142578125 844.25048828125 1289.9996337890625
v -419.78173828125 837.4755859375 1289.9996337890625
v -365.63134765625 896.3623046875 1289.9996337890625
v -433.3193359375 822.75390625 1289.9996337890625
v -372.9921875 903.13720703125 1289.9996337890625
v -440.68017578125 829.52880859375 1289.9996337890625
v -365.63134765625 896.3623046875 1289.9996337890625
v -372.9921875 903.13720703125 1289.9996337890625
v -365.63134765625 896.3623046875 1389.9996337890625
v -372.9921875 903.13720703125 1389.9996337890625
v -372.9921875 903.13720703125 1289.9996337890625
v -372.9921875 903.13720703125 1389.9996337890625
v -440.68017578125 829.52880859375 1389.9996337890625
v -440.68017578125 829.52880859375 1389.9996337890625
v -433.3193359375 822.75390625 1389.9996337890625
v -365.63134765625 896.3623046875 1389.9996337890625
v -372.9921875 903.13720703125 1389.9996337890625
v -433.3193359375 822.75390625 1389.9996337890625
v -440.68017578125 829.52880859375 1389.9996337890625
v -304.712158203125 962.60986328125 1389.9996337890625
v -372.400146484375 889.00146484375 1389.9996337890625
v -312.072998046875 969.384765625 1389.9996337890625
v -379.760986328125 895.7763671875 1389.9996337890625
v -304.712158203125 962.60986328125 1389.9996337890625
v -312.072998046875 969.384765625 1389.9996337890625
v -304.712158203125 962.610107421875 1489.9996337890625
v -312.072998046875 969.385009765625 1489.9996337890625
v -312.072998046875 969.384765625 1389.9996337890625
v -379.760986328125 895.7763671875 1389.9996337890625
v -312.072998046875 969.385009765625 1489.9996337890625
v -379.760986328125 895.776611328125 1489.9996337890625
v -379.760986328125 895.7763671875 1389.9996337890625
v -372.400146484375 889.00146484375 1389.9996337890625
v -379.760986328125 895.776611328125 1489.9996337890625
v -372.400146484375 889.001708984375 1489.9996337890625
v -304.712158203125 962.610107421875 1489.9996337890625
v -312.072998046875 969.385009765625 1489.9996337890625
v -372.400146484375 889.001708984375 1489.9996337890625
v -379.760986328125 895.776611328125 1489.9996337890625
v -88.110595703125 1198.169189453125 1489.9996337890625
v -311.48095703125 955.249267578125 1489.9996337890625
v -95.471435546875 1204.931884765625 1489.9996337890625
v -318.841796875 962.024169921875 1489.9996337890625
v -311.48095703125 955.249267578125 1489.9996337890625
v -88.110595703125 1198.169189453125 1489.9996337890625
v -311.48095703125 955.249267578125 1499.9996337890625
v -88.110595703125 1198.169189453125 1499.9996337890625
v -88.110595703125 1198.169189453125 1489.9996337890625
v -95.471435546875 1204.931884765625 1489.9996337890625
v -88.110595703125 1198.169189453125 1499.9996337890625
v -95.471435546875 1204.931884765625 1499.9996337890625
v -95.471435546875 1204.931884765625 1489.9996337890625
v -318.841796875 962.024169921875 1489.9996337890625
v -95.471435546875 1204.931884765625 1499.9996337890625
v -318.841796875 962.024169921875 1499.9996337890625
v -318.841796875 962.024169921875 1489.9996337890625
v -311.48095703125 955.249267578125 1489.9996337890625
v -318.841796875 962.024169921875 1499.9996337890625
v -311.48095703125 955.249267578125 1499.9996337890625
v -88.110595703125 1198.169189453125 1499.9996337890625
v -95.471435546875 1204.931884765625 1499.9996337890625
v -311.48095703125 955.249267578125 1499.9996337890625
v -318.841796875 962.024169921875 1499.9996337890625
v 32.5438232421875 1358.92333984375 -0.0003221161605324596
v -454.8095703125 828.9306640625 -0.00029708564397878945
v 32.5438232421875 1358.92333984375 99.99967956542969
v -454.8095703125 828.9306640625 99.99970245361328
v -454.8095703125 828.9306640625 -0.00029708564397878945
v -440.087890625 815.39306640625 -0.000295258651021868
v -454.8095703125 828.9306640625 99.99970245361328
v -440.087890625 815.39306640625 99.99970245361328
v 47.2655029296875 1345.3857421875 -0.00032028916757553816
v 32.5438232421875 1358.92333984375 -0.0003221161605324596
v 47.2655029296875 1345.3857421875 99.99967956542969
v 32.5438232421875 1358.92333984375 99.99967956542969
v -454.8095703125 828.9306640625 99.99970245361328
v -440.087890625 815.39306640625 99.99970245361328
v 32.5438232421875 1358.92333984375 99.99967956542969
v 47.2655029296875 1345.3857421875 99.99967956542969
v -454.8095703125 828.9306640625 99.99970245361328
v 32.5438232421875 1358.92333984375 99.99967956542969
v -440.087890625 815.39306640625 99.99970245361328
v 47.2655029296875 1345.3857421875 99.99967956542969
v 32.5438232421875 1358.92333984375 99.99967956542969
v -454.8095703125 828.9306640625 99.99967193603516
v 46.76025390625 1345.850341796875 119.99968719482422
v -440.59326171875 815.857666015625 119.99968719482422
v -440.59326171875 815.857666015625 119.99971008300781
v -440.087890625 815.39306640625 119.99971008300781
v 47.2655029296875 1345.3857421875 119.99968719482422
v 46.76025390625 1345.850341796875 119.99968719482422
v -440.59326171875 815.857666015625 119.99971008300781
v -440.087890625 815.39306640625 119.99971008300781
v 46.76025390625 1345.850341796875 119.99968719482422
v 47.2655029296875 1345.3857421875 119.99968719482422
v 757.80029296875 -748.0103149414062 -0.00010622022091411054
v 756.6162109375 -719.7510375976562 -0.00010874248255277053
v 757.8001708984375 -748.0101928710938 1120.0
v 756.6160888671875 -719.7509155273438 1120.0
v 756.6162109375 -719.7510375976562 -0.00010874248255277053
v 653.564453125 -624.98779296875 -0.00012153148418292403
v 756.6160888671875 -719.7509155273438 1120.0
v 653.5643310546875 -624.9876708984375 1119.9998779296875
v 757.8001708984375 -748.0101928710938 1120.0
v 756.6160888671875 -719.7509155273438 1120.0
v 653.5643310546875 -624.9876708984375 1119.9998779296875
v 640.0267333984375 -639.7094116210938 1119.9998779296875
v 1619.03076171875 -1539.9656982421875 1120.0
v 640.0267333984375 -639.7094116210938 1119.9998779296875
v 653.5643310546875 -624.9877319335938 1119.9998779296875
v 1632.568359375 -1525.2440185546875 1120.0
v 1619.03076171875 -1539.9656982421875 1120.0
v 1632.568359375 -1525.2440185546875 1120.0
v 1619.03076171875 -1539.9656982421875 1220.0
v 1632.568359375 -1525.2440185546875 1220.0
v 1632.568359375 -1525.2440185546875 1120.0
v 653.564453125 -624.9878540039062 1119.9998779296875
v 1632.568359375 -1525.2440185546875 1220.0
v 653.564453125 -624.9878540039062 1219.9998779296875
v 1619.03076171875 -1539.9656982421875 1220.0
v 653.5643310546875 -624.9877319335938 1219.9998779296875
v 640.0267333984375 -639.7094116210938 1219.9998779296875
v 1632.568359375 -1525.2440185546875 1220.0
v 1529.5166015625 -1430.48095703125 -1.2823946235585026e-05
v 756.6162109375 -719.7510986328125 -0.00010874247527681291
v 1529.5166015625 -1430.48095703125 99.99998474121094
v 756.6162109375 -719.7510986328125 99.99989318847656
v 756.6162109375 -719.7510375976562 -0.00010874248255277053
v 743.07861328125 -734.4727172851562 -0.00010804722114698961
v 756.6162109375 -719.7510375976562 99.9998779296875
v 743.07861328125 -734.4727172851562 99.9998779296875
v 1515.9791259765625 -1445.20263671875 -1.21286775538465e-05
v 1529.5166015625 -1430.48095703125 -1.2823946235585026e-05
v 1515.9791259765625 -1445.20263671875 99.99998474121094
v 1529.5166015625 -1430.48095703125 99.99998474121094
v 756.6162109375 -719.7510375976562 99.99989318847656
v 1515.9791259765625 -1445.20263671875 99.99998474121094
v 1529.5166015625 -1430.48095703125 99.99998474121094
v 743.07861328125 -734.4727172851562 99.99989318847656
v 756.6162109375 -719.7510375976562 99.99989318847656
v 1529.5166015625 -1430.48095703125 99.99998474121094
v 1515.9791259765625 -1445.20263671875 99.99998474121094
v 743.07861328125 -734.4727172851562 99.99989318847656
v 1529.5166015625 -1430.48095703125 99.99998474121094
v 756.6162109375 -719.7509155273438 99.99991607666016
v 1519.681396484375 -1441.176513671875 119.99999237060547
v 746.7808837890625 -730.4464721679688 119.99988555908203
v 756.6162109375 -719.7510375976562 99.99989318847656
v 743.07861328125 -734.4727172851562 99.99989318847656
v 746.781005859375 -730.4464721679688 119.9999008178711
v 743.07861328125 -734.4727172851562 119.9999008178711
v 1515.9791259765625 -1445.20263671875 119.99999237060547
v 1519.681396484375 -1441.176513671875 119.99999237060547
v 746.781005859375 -730.4464721679688 119.9999008178711
v 1515.9791259765625 -1445.20263671875 119.99999237060547
v 1519.681396484375 -1441.176513671875 119.99999237060547
v 743.07861328125 -734.4727172851562 119.9999008178711
v 900.311279296875 -95.5078125 -500.00018310546875
v 1018.9391479492188 -90.05126953125 -500.0001525878906
v 900.311279296875 -95.5078125 -20.000137329101562
v 1018.9391479492188 -90.05126953125 -20.000131607055664
v 1018.9391479492188 -90.05126953125 -500.0001525878906
v 990.0451049804688 859.21630859375 -500.0002136230469
v 1000.5777587890625 513.18359375 -492.99798583984375
v 1017.658447265625 -47.978271484375 -492.8729553222656
v 1017.658447265625 -47.978271484375 -215.4729766845703
v 1004.7921752929688 374.7259521484375 -215.4730224609375
v 1018.9391479492188 -90.05126953125 -20.000131607055664
v 990.0450439453125 859.21630859375 -20.00021743774414
v 993.5802001953125 743.077392578125 -240.5980224609375
v 993.5802001953125 743.077392578125 -492.9980163574219
v 1004.7921752929688 374.7259521484375 -492.87298583984375
v 1000.5777587890625 513.18359375 -240.59800720214844
v 990.0451049804688 859.21630859375 -500.0002136230469
v 254.8155517578125 1522.98583984375 -500.00030517578125
v 962.7615966796875 883.847900390625 -489.89312744140625
v 626.2762451171875 1187.62890625 -212.49317932128906
v 312.37548828125 1471.0205078125 -212.4932098388672
v 990.0450439453125 859.21630859375 -20.00021743774414
v 962.7615966796875 883.847900390625 -212.49313354492188
v 648.86083984375 1167.239501953125 -212.4931640625
v 254.8155517578125 1522.98583984375 -20.000307083129883
v 648.86083984375 1167.239501953125 -489.8931884765625
v 312.37548828125 1471.0205078125 -489.8932189941406
v 626.2762451171875 1187.62890625 -489.8931884765625
v 254.8155517578125 1522.98583984375 -500.00030517578125
v 167.0469970703125 1426.0009765625 -500.0003356933594
v 254.8155517578125 1522.98583984375 -20.000307083129883
v 167.0469970703125 1426.0009765625 -20.000303268432617
v 850.35400390625 -97.59521484375 -500.00018310546875
v 900.311279296875 -95.5078125 -500.00018310546875
v 850.35400390625 -97.59521484375 -20.000139236450195
v 900.311279296875 -95.5078125 -20.000137329101562
v 1017.658447265625 -47.978271484375 -215.4729766845703
v 1003.9511108398438 -48.3955078125 -215.4729766845703
v 1004.7921752929688 374.7259521484375 -215.4730224609375
v 991.0847778320312 374.308837890625 -215.4730224609375
v 1017.658447265625 -47.978271484375 -492.8729553222656
v 1004.7921752929688 374.7259521484375 -492.87298583984375
v 1003.9511108398438 -48.3955078125 -492.8729553222656
v 991.0847778320312 374.308837890625 -492.87298583984375
v 1003.9511108398438 -48.3955078125 -215.4729766845703
v 1017.658447265625 -47.978271484375 -492.8729553222656
v 1003.9511108398438 -48.3955078125 -492.8729553222656
v 1017.658447265625 -47.978271484375 -215.4729766845703
v 991.0847778320312 374.308837890625 -215.4730224609375
v 991.0847778320312 374.308837890625 -492.87298583984375
v 1004.7921752929688 374.7259521484375 -492.87298583984375
v 1004.7921752929688 374.7259521484375 -215.4730224609375
v 1000.5777587890625 513.18359375 -240.59800720214844
v 971.442626953125 512.296875 -240.59800720214844
v 993.5802001953125 743.077392578125 -240.5980224609375
v 964.445068359375 742.1904296875 -240.5980224609375
v 1000.5777587890625 513.18359375 -492.99798583984375
v 993.5802001953125 743.077392578125 -492.9980163574219
v 971.4427490234375 512.296875 -492.99798583984375
v 964.445068359375 742.1904296875 -492.9980163574219
v 971.442626953125 512.296875 -240.59800720214844
v 1000.5777587890625 513.18359375 -492.99798583984375
v 971.4427490234375 512.296875 -492.99798583984375
v 1000.5777587890625 513.18359375 -240.59800720214844
v 964.445068359375 742.1904296875 -240.5980224609375
v 964.445068359375 742.1904296875 -492.9980163574219
v 993.5802001953125 743.077392578125 -492.9980163574219
v 993.5802001953125 743.077392578125 -240.5980224609375
v 648.86083984375 1167.239501953125 -212.4931640625
v 962.7615966796875 883.847900390625 -212.49313354492188
v 948.86083984375 868.45068359375 -212.49313354492188
v 634.9600830078125 1151.84228515625 -212.4931640625
v 648.86083984375 1167.239501953125 -489.8931884765625
v 948.86083984375 868.45068359375 -489.8931579589844
v 962.7615966796875 883.847900390625 -489.89312744140625
v 634.9600830078125 1151.84228515625 -489.8931884765625
v 948.86083984375 868.45068359375 -212.49313354492188
v 962.7615966796875 883.847900390625 -489.89312744140625
v 948.86083984375 868.45068359375 -489.8931579589844
v 962.7615966796875 883.847900390625 -212.49313354492188
v 634.9600830078125 1151.84228515625 -212.4931640625
v 634.9600830078125 1151.84228515625 -489.8931884765625
v 648.86083984375 1167.239501953125 -489.8931884765625
v 648.86083984375 1167.239501953125 -212.4931640625
v 312.37548828125 1471.0205078125 -212.4932098388672
v 626.2762451171875 1187.62890625 -212.49317932128906
v 612.36669921875 1172.2216796875 -212.4931640625
v 298.4658203125 1455.61328125 -212.4932098388672
v 312.37548828125 1471.0205078125 -489.8932189941406
v 612.36669921875 1172.2216796875 -489.8931884765625
v 626.2762451171875 1187.62890625 -489.8931884765625
v 298.4658203125 1455.61328125 -489.8932189941406
v 612.36669921875 1172.2216796875 -212.4931640625
v 626.2762451171875 1187.62890625 -489.8931884765625
v 612.36669921875 1172.2216796875 -489.8931884765625
v 626.2762451171875 1187.62890625 -212.49317932128906
v 298.4658203125 1455.61328125 -212.4932098388672
v 298.4658203125 1455.61328125 -489.8932189941406
v 312.37548828125 1471.0205078125 -489.8932189941406
v 312.37548828125 1471.0205078125 -212.4932098388672
v 1031.55517578125 -96.5699462890625 -20.000131607055664
v 900.59814453125 -102.3682861328125 -20.000137329101562
v 1018.9391479492188 -90.05126953125 -20.000131607055664
v 1011.2730712890625 869.56787109375 -20.000118255615234
v 255.8531494140625 1539.9658203125 -20.00020980834961
v 990.0450439453125 859.21630859375 -20.00021743774414
v 159.1856689453125 1432.97119140625 -20.000303268432617
v 254.8155517578125 1522.98583984375 -20.000307083129883
v 167.0469970703125 1426.0009765625 -20.000303268432617
v 812.6707763671875 801.611328125 -20.000219345092773
v 900.311279296875 -95.5078125 -20.000137329101562
v 850.35400390625 -97.595458984375 -20.000139236450195
v 900.59814453125 -102.3682861328125 -20.000137329101562
v 1031.55517578125 -96.5699462890625 -20.000131607055664
v 900.59814453125 -102.3682861328125 -10.000137329101562
v 1031.55517578125 -96.5699462890625 -10.000131607055664
v 1031.55517578125 -96.5699462890625 -20.000131607055664
v 1011.2730712890625 869.56787109375 -20.000118255615234
v 1031.55517578125 -96.5699462890625 -10.000131607055664
v 1011.2730712890625 869.56787109375 -10.000117301940918
v 1011.27294921875 869.56787109375 -20.000118255615234
v 255.8529052734375 1539.9658203125 -20.00020980834961
v 1011.27294921875 869.56787109375 -10.000117301940918
v 255.8529052734375 1539.9658203125 -10.000208854675293
v 255.8531494140625 1539.9658203125 -20.00020980834961
v 159.1856689453125 1432.97119140625 -20.000303268432617
v 255.8531494140625 1539.9658203125 -10.000208854675293
v 159.1856689453125 1432.97119140625 -10.000304222106934
v 159.1856689453125 1432.97119140625 -20.000303268432617
v 812.6707763671875 801.611328125 -20.000219345092773
v 159.1856689453125 1432.97119140625 -10.000304222106934
v 812.6707763671875 801.611328125 -10.00022029876709
v 812.6707763671875 801.611328125 -20.000219345092773
v 850.35400390625 -97.595458984375 -20.000139236450195
v 812.6707763671875 801.611328125 -10.00022029876709
v 850.35400390625 -97.595458984375 -10.000140190124512
v 850.35400390625 -97.5953369140625 -20.000139236450195
v 900.59814453125 -102.3682861328125 -20.000137329101562
v 850.35400390625 -97.5953369140625 -10.000141143798828
v 900.59814453125 -102.3682861328125 -10.000138282775879
v 1031.55517578125 -96.5699462890625 -10.000131607055664
v 1011.2730712890625 869.56787109375 -10.000117301940918
v 900.59814453125 -102.3682861328125 -10.000137329101562
v 812.6707763671875 801.611328125 -10.00022029876709
v 850.35400390625 -97.595458984375 -10.000140190124512
v 255.8531494140625 1539.9658203125 -10.000208854675293
v 159.1856689453125 1432.97119140625 -10.000304222106934
f 70 69 71
f 72 70 71
f 66 65 67
f 68 66 67
f 62 61 63
f 64 62 63
f 58 57 59
f 59 60 58
f 54 53 55
f 55 56 54
f 50 49 51
f 52 50 51
f 46 45 47
f 48 46 47
f 42 41 43
f 44 42 43
f 38 37 39
f 39 40 38
f 34 33 35
f 35 36 34
f 30 29 31
f 32 30 31
f 26 25 27
f 28 26 27
f 22 21 23
f 24 22 23
f 18 17 19
f 19 20 18
f 14 13 15
f 15 16 14
f 10 9 11
f 12 10 11
f 6 5 7
f 8 6 7
f 2 1 3
f 4 2 3
f 1419 1418 1420
f 1421 1419 1420
f 1415 1414 1416
f 1417 1415 1416
f 1411 1410 1412
f 1413 1411 1412
f 1399 1398 1400
f 1401 1399 1400
f 1395 1394 1396
f 1397 1395 1396
f 1391 1390 1392
f 1393 1391 1392
f 1383 1382 1384
f 1385 1383 1384
f 1379 1378 1380
f 1381 1379 1380
f 1367 1366 1368
f 1369 1367 1368
f 1363 1362 1364
f 1365 1363 1364
f 1359 1358 1360
f 1360 1361 1359
f 1355 1354 1356
f 1357 1355 1356
f 1351 1350 1352
f 1353 1351 1352
f 1347 1346 1348
f 1349 1347 1348
f 1343 1342 1344
f 1344 1345 1343
f 1339 1338 1340
f 1340 1341 1339
f 1335 1334 1336
f 1337 1335 1336
f 1331 1330 1332
f 1333 1331 1332
f 1327 1326 1328
f 1329 1327 1328
f 1323 1322 1324
f 1324 1325 1323
f 1319 1318 1320
f 1321 1319 1320
f 1315 1314 1316
f 1317 1315 1316
f 1311 1310 1312
f 1313 1311 1312
f 1307 1306 1308
f 1309 1307 1308
f 1303 1302 1304
f 1304 1305 1303
f 1299 1298 1300
f 1300 1301 1299
f 1295 1294 1296
f 1297 1295 1296
f 1291 1290 1292
f 1293 1291 1292
f 1287 1286 1288
f 1289 1287 1288
f 1283 1282 1284
f 1284 1285 1283
f 1279 1278 1280
f 1280 1281 1279
f 1275 1274 1276
f 1277 1275 1276
f 1271 1270 1272
f 1273 1271 1272
f 1267 1266 1268
f 1269 1267 1268
f 1263 1262 1264
f 1264 1265 1263
f 1259 1258 1260
f 1260 1261 1259
f 1255 1254 1256
f 1257 1255 1256
f 1251 1250 1252
f 1253 1251 1252
f 1247 1246 1248
f 1249 1247 1248
f 1243 1242 1244
f 1244 1245 1243
f 1239 1238 1240
f 1241 1239 1240
f 1235 1234 1236
f 1237 1235 1236
f 1231 1230 1232
f 1233 1231 1232
f 1227 1226 1228
f 1228 1229 1227
f 1223 1222 1224
f 1224 1225 1223
f 1219 1218 1220
f 1221 1219 1220
f 1215 1214 1216
f 1217 1215 1216
f 1211 1210 1212
f 1213 1211 1212
f 1207 1206 1208
f 1208 1209 1207
f 1203 1202 1204
f 1204 1205 1203
f 1199 1198 1200
f 1201 1199 1200
f 1195 1194 1196
f 1197 1195 1196
f 1191 1190 1192
f 1193 1191 1192
f 1183 1182 1184
f 1185 1183 1184
f 1179 1178 1180
f 1181 1179 1180
f 1175 1174 1176
f 1177 1175 1176
f 1167 1166 1168
f 1168 1169 1167
f 1163 1162 1164
f 1165 1163 1164
f 1159 1158 1160
f 1161 1159 1160
f 1155 1154 1156
f 1157 1155 1156
f 1151 1150 1152
f 1152 1153 1151
f 1147 1146 1148
f 1148 1149 1147
f 1143 1142 1144
f 1145 1143 1144
f 1139 1138 1140
f 1141 1139 1140
f 1135 1134 1136
f 1137 1135 1136
f 1131 1130 1132
f 1132 1133 1131
f 1127 1126 1128
f 1128 1129 1127
f 1123 1122 1124
f 1125 1123 1124
f 1119 1118 1120
f 1121 1119 1120
f 1115 1114 1116
f 1117 1115 1116
f 1111 1110 1112
f 1112 1113 1111
f 1107 1106 1108
f 1109 1107 1108
f 1103 1102 1104
f 1105 1103 1104
f 1099 1098 1100
f 1101 1099 1100
f 1095 1094 1096
f 1096 1097 1095
f 1091 1090 1092
f 1092 1093 1091
f 1087 1086 1088
f 1089 1087 1088
f 1083 1082 1084
f 1085 1083 1084
f 1079 1078 1080
f 1081 1079 1080
f 1075 1074 1076
f 1076 1077 1075
f 1071 1070 1072
f 1072 1073 1071
f 1067 1066 1068
f 1069 1067 1068
f 1063 1062 1064
f 1065 1063 1064
f 1059 1058 1060
f 1061 1059 1060
f 1051 1050 1052
f 1053 1051 1052
f 1047 1046 1048
f 1049 1047 1048
f 1043 1042 1044
f 1045 1043 1044
f 1039 1038 1040
f 1040 1041 1039
f 1035 1034 1036
f 1036 1037 1035
f 1023 1022 1024
f 1025 1023 1024
f 1019 1018 1020
f 1021 1019 1020
f 1015 1014 1016
f 1017 1015 1016
f 1007 1006 1008
f 1009 1007 1008
f 1003 1002 1004
f 1005 1003 1004
f 999 998 1000
f 1001 999 1000
f 987 986 988
f 989 987 988
f 983 982 984
f 985 983 984
f 979 978 980
f 981 979 980
f 971 970 972
f 973 971 972
f 967 966 968
f 969 967 968
f 963 962 964
f 965 963 964
f 951 950 952
f 953 951 952
f 947 946 948
f 949 947 948
f 943 942 944
f 945 943 944
f 931 930 932
f 933 931 932
f 927 926 928
f 929 927 928
f 923 922 924
f 925 923 924
f 911 910 912
f 913 911 912
f 907 906 908
f 909 907 908
f 903 902 904
f 905 903 904
f 891 890 892
f 893 891 892
f 887 886 888
f 889 887 888
f 883 882 884
f 885 883 884
f 871 870 872
f 873 871 872
f 867 866 868
f 869 867 868
f 863 862 864
f 865 863 864
f 855 854 856
f 857 855 856
f 851 850 852
f 853 851 852
f 847 846 848
f 849 847 848
f 835 834 836
f 837 835 836
f 831 830 832
f 833 831 832
f 827 826 828
f 829 827 828
f 815 814 816
f 817 815 816
f 811 810 812
f 813 811 812
f 807 806 808
f 809 807 808
f 795 794 796
f 797 795 796
f 791 790 792
f 793 791 792
f 787 786 788
f 789 787 788
f 775 774 776
f 777 775 776
f 771 770 772
f 773 771 772
f 767 766 768
f 769 767 768
f 763 762 764
f 764 765 763
f 759 758 760
f 761 759 760
f 755 754 756
f 757 755 756
f 751 733 752
f 753 751 752
f 732 731 733
f 734 732 733
f 748 747 749
f 749 750 748
f 744 743 745
f 745 746 744
f 740 739 741
f 742 740 741
f 736 735 737
f 738 736 737
f 728 727 729
f 729 730 728
f 724 723 725
f 725 726 724
f 720 719 721
f 722 720 721
f 716 715 717
f 718 716 717
f 712 711 713
f 714 712 713
f 704 703 705
f 706 704 705
f 700 699 701
f 702 700 701
f 696 695 697
f 698 696 697
f 688 687 689
f 690 688 689
f 684 683 685
f 686 684 685
f 680 679 681
f 682 680 681
f 676 675 677
f 677 678 676
f 668 667 669
f 669 670 668
f 664 663 665
f 666 664 665
f 660 659 661
f 662 660 661
f 656 655 657
f 658 656 657
f 652 651 653
f 653 654 652
f 648 647 649
f 649 650 648
f 644 643 645
f 646 644 645
f 640 639 641
f 642 640 641
f 636 635 637
f 638 636 637
f 628 627 629
f 630 628 629
f 624 623 625
f 626 624 625
f 620 619 621
f 622 620 621
f 612 611 613
f 614 612 613
f 608 607 609
f 610 608 609
f 604 582 605
f 606 604 605
f 581 563 582
f 583 581 582
f 562 561 563
f 564 562 563
f 589 588 590
f 591 589 590
f 585 584 586
f 587 585 586
f 570 569 571
f 572 570 571
f 566 565 567
f 568 566 567
f 558 557 559
f 559 560 558
f 549 548 550
f 550 551 549
f 551 550 552
f 1422 1423 1425
f 1423 1422 1424
f 1407 1406 1408
f 1409 1408 1406
f 1402 1403 1405
f 1403 1402 1404
f 1386 1387 1389
f 1387 1386 1388
f 1375 1374 1376
f 1377 1376 1374
f 1371 1370 1372
f 1372 1370 1373
f 1186 1187 1189
f 1187 1186 1188
f 1171 1170 1172
f 1173 1172 1170
f 1054 1055 1057
f 1055 1054 1056
f 1031 1030 1032
f 1033 1032 1030
f 1026 1027 1029
f 1027 1026 1028
f 1010 1011 1013
f 1011 1010 1012
f 995 994 996
f 997 996 994
f 990 991 993
f 991 990 992
f 959 958 960
f 961 960 958
f 954 955 957
f 955 954 956
f 919 918 920
f 921 920 918
f 914 915 917
f 915 914 916
f 879 878 880
f 881 880 878
f 874 875 877
f 875 874 876
f 858 859 861
f 859 858 860
f 823 822 824
f 825 824 822
f 818 819 821
f 819 818 820
f 783 782 784
f 785 784 782
f 778 779 781
f 779 778 780
f 672 671 673
f 674 673 671
f 615 616 618
f 616 615 617
f 601 600 602
f 603 602 600
f 597 596 598
f 599 598 596
f 592 593 595
f 593 592 594
f 578 577 579
f 580 579 577
f 573 574 576
f 574 573 575
f 554 553 555
f 556 555 553
f 496 497 499
f 497 496 498
f 473 472 474
f 475 474 472
f 412 411 413
f 413 411 414
f 414 415 413
f 545 544 546
f 547 545 546
f 541 540 542
f 543 541 542
f 537 536 538
f 539 537 538
f 533 532 534
f 535 533 534
f 525 524 526
f 527 525 526
f 521 520 522
f 523 521 522
f 517 516 518
f 519 517 518
f 513 512 514
f 514 515 513
f 509 508 510
f 511 509 510
f 505 504 506
f 507 505 506
f 501 500 502
f 503 501 502
f 493 492 494
f 495 493 494
f 489 488 490
f 491 489 490
f 485 484 486
f 487 485 486
f 481 480 482
f 482 483 481
f 477 476 478
f 478 479 477
f 467 466 468
f 468 469 467
f 469 468 471
f 471 470 469
f 463 462 464
f 465 463 464
f 459 458 460
f 461 459 460
f 455 454 456
f 457 455 456
f 451 450 452
f 453 451 452
f 445 444 446
f 446 447 445
f 449 445 447
f 447 448 449
f 417 416 418
f 418 419 417
f 421 417 419
f 419 420 421
f 78 77 79
f 80 78 79
f 97 79 98
f 99 97 98
f 116 98 117
f 118 116 117
f 82 81 83
f 84 82 83
f 86 85 87
f 88 86 87
f 90 89 91
f 91 92 90
f 94 93 95
f 95 96 94
f 101 100 102
f 103 101 102
f 105 104 106
f 107 105 106
f 109 108 110
f 110 111 109
f 113 112 114
f 114 115 113
f 120 119 121
f 122 120 121
f 124 123 125
f 126 124 125
f 128 127 129
f 129 130 128
f 132 131 133
f 133 134 132
f 136 135 137
f 138 136 137
f 140 139 141
f 142 140 141
f 144 143 145
f 146 144 145
f 152 151 153
f 154 152 153
f 156 155 157
f 158 156 157
f 160 159 161
f 162 160 161
f 164 163 165
f 165 166 164
f 168 167 169
f 169 170 168
f 172 171 173
f 174 172 173
f 176 175 177
f 178 176 177
f 180 179 181
f 182 180 181
f 184 183 185
f 185 186 184
f 188 187 189
f 189 190 188
f 192 191 193
f 194 192 193
f 196 195 197
f 198 196 197
f 200 199 201
f 202 200 201
f 204 203 205
f 205 206 204
f 208 207 209
f 210 208 209
f 212 211 213
f 214 212 213
f 216 215 217
f 218 216 217
f 220 219 221
f 221 222 220
f 224 223 225
f 225 226 224
f 228 227 229
f 230 228 229
f 232 231 233
f 234 232 233
f 236 235 237
f 238 236 237
f 240 239 241
f 242 240 241
f 244 243 245
f 245 246 244
f 248 247 249
f 249 250 248
f 252 251 253
f 254 252 253
f 256 255 257
f 258 256 257
f 260 259 261
f 262 260 261
f 264 263 265
f 265 266 264
f 268 267 269
f 269 270 268
f 272 271 273
f 274 272 273
f 276 275 277
f 278 276 277
f 280 279 281
f 282 280 281
f 284 283 285
f 285 286 284
f 288 287 289
f 290 288 289
f 292 291 293
f 294 292 293
f 296 295 297
f 298 296 297
f 300 299 301
f 301 302 300
f 304 303 305
f 305 306 304
f 308 307 309
f 310 308 309
f 312 311 313
f 314 312 313
f 316 315 317
f 318 316 317
f 320 319 321
f 321 322 320
f 324 323 325
f 326 324 325
f 328 327 329
f 330 328 329
f 332 331 333
f 334 332 333
f 336 335 337
f 337 338 336
f 340 339 341
f 342 340 341
f 344 343 345
f 346 344 345
f 348 347 349
f 350 348 349
f 352 351 353
f 353 354 352
f 356 355 357
f 357 358 356
f 360 359 361
f 362 360 361
f 364 363 365
f 366 364 365
f 368 367 369
f 370 368 369
f 372 371 373
f 373 374 372
f 376 375 377
f 377 378 376
f 380 379 381
f 382 380 381
f 384 383 385
f 386 384 385
f 388 387 389
f 390 388 389
f 392 391 393
f 393 394 392
f 396 395 397
f 398 396 397
f 400 399 401
f 402 400 401
f 404 403 405
f 406 404 405
f 408 407 409
f 410 408 409
f 423 422 424
f 425 423 424
f 427 426 428
f 429 427 428
f 431 430 432
f 433 431 432
f 435 434 436
f 437 435 436
f 439 438 440
f 440 441 439
f 441 440 443
f 443 442 441
f 74 73 75
f 75 76 74
f 708 707 709
f 709 710 708
f 529 528 530
f 530 531 529
f 148 147 149
f 149 150 148
f 631 632 634
f 632 631 633
f 691 692 694
f 692 691 693
f 799 798 800
f 798 799 801
f 1570 1569 1568
f 1571 1569 1572
f 1569 1571 1567
f 1568 1569 1567
f 1567 1566 1568
f 974 975 977
f 975 974 976
f 939 938 940
f 941 940 938
f 934 935 937
f 935 934 936
f 899 898 900
f 901 900 898
f 894 895 897
f 895 894 896
f 843 842 844
f 845 844 842
f 838 839 841
f 839 838 840
f 803 802 804
f 805 804 802
f 1539 1538 1540
f 1541 1539 1540
f 1543 1542 1544
f 1545 1543 1544
f 1547 1546 1548
f 1549 1547 1548
f 1551 1550 1552
f 1553 1551 1552
f 1555 1554 1556
f 1557 1555 1556
f 1559 1558 1560
f 1561 1559 1560
f 1563 1562 1564
f 1565 1563 1564
f 1455 1454 1456
f 1457 1455 1456
f 1427 1426 1428
f 1429 1427 1428
f 1483 1482 1484
f 1484 1485 1483
f 1479 1478 1480
f 1480 1481 1479
f 1467 1466 1468
f 1468 1469 1467
f 1463 1462 1464
f 1464 1465 1463
f 1459 1458 1460
f 1461 1459 1460
f 1532 1535 1534
f 1533 1532 1573
f 1530 1532 1533
f 1574 1531 1530
f 1529 1530 1531
f 1575 1528 1529
f 1526 1529 1528
f 1527 1526 1576
f 1576 1536 1527
f 1537 1527 1536
f 1443 1442 1444
f 1444 1442 1448
f 1448 1442 1447
f 1449 1448 1447
f 1453 1452 1443
f 1452 1450 1443
f 1446 1450 1452
f 1447 1450 1446
f 1446 1445 1447
f 1445 1449 1447
f 1445 1453 1449
f 1453 1451 1449
f 1451 1453 1443
f 1444 1451 1443
f 1523 1522 1524
f 1524 1522 1525
f 1521 1518 1519
f 1519 1518 1520
f 1514 1515 1517
f 1515 1514 1516
f 1511 1510 1512
f 1513 1512 1510
f 1507 1506 1508
f 1508 1506 1509
f 1505 1502 1503
f 1503 1502 1504
f 1498 1499 1501
f 1499 1498 1500
f 1495 1494 1496
f 1497 1496 1494
f 1491 1490 1492
f 1492 1490 1493
f 1489 1486 1487
f 1487 1486 1488
f 1475 1474 1476
f 1476 1474 1477
f 1473 1470 1471
f 1471 1470 1472
f 1438 1437 1439
f 1439 1437 1431
f 1432 1439 1431
f 1431 1430 1432
f 1436 1437 1435
f 1435 1434 1436
f 1434 1430 1436
f 1433 1430 1434
f 1432 1430 1433
f 1433 1440 1432
f 1440 1441 1432
f 1441 1440 1435
f 1438 1441 1435
f 1435 1437 1438
