# from FinancialDistrict_Block09_Generic_0013_LOD_0.pskx
v 942.5598754882812 926.3305053710938 -1.8552730125520611e-06
v 907.208251953125 890.966796875 -3.0894753422217036e-07
v 942.5598754882812 926.33056640625 260.0
v 907.208251953125 890.9668579101562 260.0
v 907.208251953125 890.966796875 -3.089473068484949e-07
v 921.3561401367188 876.81884765625 1.5463339195775916e-06
v 907.208251953125 890.9668579101562 260.0
v 921.3561401367188 876.81884765625 260.0
v 921.3561401367188 876.81884765625 1.5463339195775916e-06
v 956.707763671875 912.1826171875 1.9540513413081328e-13
v 921.3561401367188 876.81884765625 259.99993896484375
v 956.707763671875 912.1826171875 259.99993896484375
v 956.707763671875 912.1826171875 0.0
v 942.5598754882812 926.3305053710938 -1.8552727851783857e-06
v 956.707763671875 912.1826171875 260.0
v 942.5598754882812 926.33056640625 260.0
v 907.208251953125 890.9668579101562 260.0
v 921.3561401367188 876.81884765625 260.0
v 942.5598754882812 926.33056640625 260.0
v 956.707763671875 912.1826171875 260.0
v 730.462646484375 714.1600952148438 260.0000305175781
v 942.5598754882812 926.33056640625 260.0
v 744.610595703125 700.0244140625 260.0000305175781
v 956.707763671875 912.19482421875 260.0
v 730.4627075195312 714.16015625 260.0000305175781
v 942.5598754882812 926.33056640625 405.0000305175781
v 730.462646484375 714.16015625 405.00006103515625
v 730.462646484375 714.1600952148438 260.0000305175781
v 744.610595703125 700.0244140625 260.0000305175781
v 730.462646484375 714.16015625 405.00006103515625
v 744.6105346679688 700.0244140625 405.00006103515625
v 744.610595703125 700.0244140625 260.0000305175781
v 956.7077026367188 912.19482421875 260.0
v 744.6105346679688 700.0244140625 405.00006103515625
v 956.7077026367188 912.19482421875 405.0000305175781
v 956.707763671875 912.19482421875 260.0
v 956.707763671875 912.19482421875 405.0000305175781
v 942.5598754882812 926.33056640625 405.0000305175781
v 730.462646484375 714.16015625 405.00006103515625
v 744.6105346679688 700.0244140625 405.00006103515625
v 942.5598754882812 926.33056640625 405.0000305175781
v 956.707763671875 912.19482421875 405.0000305175781
v 748.1384887695312 703.5521850585938 9.1221954789944e-06
v 772.894287109375 728.30810546875 8.040075954340864e-06
v 748.1384887695312 703.55224609375 260.0000305175781
v 772.894287109375 728.30810546875 260.0000305175781
v 772.894287109375 728.30810546875 8.040075954340864e-06
v 758.746337890625 742.4559936523438 6.184802714415127e-06
v 772.894287109375 728.30810546875 260.0000305175781
v 758.746337890625 742.4560546875 260.0
v 758.746337890625 742.4559936523438 6.184802714415127e-06
v 734.002685546875 717.68798828125 7.2685093073232565e-06
v 758.746337890625 742.4560546875 260.0
v 734.002685546875 717.68798828125 260.0000305175781
v 734.002685546875 717.68798828125 7.2685093073232565e-06
v 748.1384887695312 703.5521850585938 9.1221954789944e-06
v 734.002685546875 717.68798828125 260.0000305175781
v 748.1384887695312 703.55224609375 260.0000305175781
v 772.894287109375 728.30810546875 260.0000305175781
v 758.746337890625 742.4560546875 260.0
v 748.1384887695312 703.55224609375 260.0000305175781
v 734.002685546875 717.68798828125 260.0000305175781
v -2035.076904296875 361.3157958984375 -8.261676703114063e-05
v -1274.932861328125 -328.1129150390625 1.0881955859076697e-05
v -2035.076904296875 361.3157958984375 99.9999008178711
v -1274.932861328125 -328.1129150390625 99.99999237060547
v -1274.932861328125 -328.1129150390625 1.0881955859076697e-05
v -1270.684814453125 -325.2564697265625 1.0817927432071883e-05
v -1274.932861328125 -328.1129150390625 100.00000762939453
v -1270.684814453125 -325.2564697265625 100.00000762939453
v -1270.684814453125 -325.2564697265625 1.0817927432071883e-05
v -2030.816650390625 364.17230224609375 -8.268027158919722e-05
v -1270.684814453125 -325.2564697265625 100.00000762939453
v -2030.816650390625 364.17230224609375 99.99991607666016
v -2030.816650390625 364.17218017578125 -8.268025703728199e-05
v -2035.076904296875 361.3157958984375 -8.261676703114063e-05
v -2030.816650390625 364.17218017578125 99.99991607666016
v -2035.076904296875 361.3157958984375 99.99991607666016
v -1274.932861328125 -328.1129150390625 100.00000762939453
v -2030.816650390625 364.17218017578125 99.99991607666016
v -2035.076904296875 361.3157958984375 99.99991607666016
v -1270.684814453125 -325.2564697265625 100.00000762939453
v -1256.536865234375 -346.4844970703125 1.3292160474520642e-05
v -570.64794921875 -1032.3731689453125 0.00010323560127289966
v -1256.536865234375 -346.4844970703125 99.99999237060547
v -570.64794921875 -1032.3731689453125 100.00008392333984
v -570.6480712890625 -1032.3731689453125 0.00010323560127289966
v 69.2933349609375 -1778.38134765625 0.00019642645202111453
v -570.6480712890625 -1032.3731689453125 100.0000991821289
v 69.2933349609375 -1778.38134765625 100.00019836425781
v 69.2933349609375 -1778.38134765625 0.00019642645202111453
v 72.8333740234375 -1774.84130859375 0.0001962717215064913
v 69.2933349609375 -1778.38134765625 100.00019836425781
v 72.8333740234375 -1774.84130859375 100.00019836425781
v 72.8333740234375 -1774.84130859375 0.0001962717215064913
v -567.1080322265625 -1028.8453369140625 0.00010308192577213049
v 72.8333740234375 -1774.84130859375 100.00019836425781
v -567.1080322265625 -1028.8453369140625 100.0000991821289
v -567.1080322265625 -1028.8453369140625 0.00010308192577213049
v -1253.0087890625 -342.9444580078125 1.3136906090949196e-05
v -567.1080322265625 -1028.8453369140625 100.0000991821289
v -1253.0087890625 -342.9444580078125 100.00000762939453
v -1253.009033203125 -342.9444580078125 1.3136891539033968e-05
v -1256.536865234375 -346.4844970703125 1.3292160474520642e-05
v -1253.009033203125 -342.9444580078125 100.00000762939453
v -1256.536865234375 -346.4844970703125 100.00000762939453
v -570.6480712890625 -1032.3731689453125 100.0000991821289
v -1253.009033203125 -342.9444580078125 100.00000762939453
v -1256.536865234375 -346.4844970703125 100.00000762939453
v 69.2933349609375 -1778.38134765625 100.00019836425781
v -567.1080322265625 -1028.8453369140625 100.0000991821289
v 72.8333740234375 -1774.84130859375 100.00019836425781
v -570.6602783203125 -1032.3609619140625 100.0000991821289
v -1253.021240234375 -350.0001220703125 100.00000762939453
v -1249.468994140625 -346.4478759765625 100.00000762939453
v -567.1202392578125 -1028.8087158203125 100.0000991821289
v -1249.468994140625 -346.4478759765625 100.00000762939453
v -1253.021240234375 -350.0001220703125 100.00000762939453
v -1249.468994140625 -346.4478759765625 400.0000305175781
v -1253.021240234375 -350.0001220703125 400.0000305175781
v -1253.021240234375 -350.0001220703125 100.00000762939453
v -570.6602783203125 -1032.3609619140625 100.0000991821289
v -1253.021240234375 -350.0001220703125 400.0000305175781
v -570.6602783203125 -1032.3609619140625 400.0001220703125
v -570.6602783203125 -1032.3609619140625 100.0000991821289
v -567.1202392578125 -1028.8087158203125 100.0000991821289
v -570.6602783203125 -1032.3609619140625 400.0001220703125
v -567.1202392578125 -1028.8087158203125 400.0001220703125
v -567.1202392578125 -1028.8087158203125 100.0000991821289
v -1249.468994140625 -346.4481201171875 100.00000762939453
v -567.1202392578125 -1028.8087158203125 400.0001220703125
v -1249.468994140625 -346.4481201171875 400.0000305175781
v -570.6602783203125 -1032.3609619140625 400.0001220703125
v -1249.468994140625 -346.4478759765625 400.0000305175781
v -1253.021240234375 -350.0001220703125 400.0000305175781
v -567.1202392578125 -1028.8087158203125 400.0001220703125
v -1217.645263671875 -342.9322509765625 1.4681620996270794e-05
v -1235.321044921875 -360.6202392578125 1.545532541058492e-05
v -1217.645263671875 -342.9322509765625 375.0000305175781
v -1235.321044921875 -360.6202392578125 375.0000305175781
v -1235.321044921875 -360.6202392578125 1.545532541058492e-05
v -1217.645263671875 -378.2960205078125 1.777321995177772e-05
v -1235.321044921875 -360.6202392578125 375.0000305175781
v -1217.645263671875 -378.2960205078125 375.0000305175781
v -1217.645263671875 -378.2960205078125 1.777321995177772e-05
v -1199.969482421875 -360.6202392578125 1.700058601272758e-05
v -1217.645263671875 -378.2960205078125 375.0000305175781
v -1199.969482421875 -360.6202392578125 375.0000305175781
v -1199.969482421875 -360.6202392578125 1.700058601272758e-05
v -1217.645263671875 -342.9322509765625 1.4681620996270794e-05
v -1199.969482421875 -360.6202392578125 375.0000305175781
v -1217.645263671875 -342.9322509765625 375.0000305175781
v -1235.321044921875 -360.6202392578125 375.0000305175781
v -1217.645263671875 -378.2960205078125 375.0000305175781
v -1217.645263671875 -342.9322509765625 375.0000305175781
v -1199.969482421875 -360.6202392578125 375.0000305175781
v -1217.657470703125 -342.9444580078125 375.0000305175781
v -563.5924072265625 -997.0093994140625 375.0
v -581.2803955078125 -1014.6973876953125 375.0000305175781
v -1235.333251953125 -360.6202392578125 375.0000305175781
v -581.2803955078125 -1014.6973876953125 375.0000305175781
v -563.5924072265625 -997.0093994140625 375.0
v -581.2803955078125 -1014.6973876953125 400.0000305175781
v -563.5924072265625 -997.0093994140625 400.0
v -563.5924072265625 -997.0093994140625 375.0
v -1217.657470703125 -342.9444580078125 375.0000305175781
v -563.5924072265625 -997.0093994140625 400.0
v -1217.657470703125 -342.9444580078125 400.0000305175781
v -1217.657470703125 -342.9444580078125 375.0000305175781
v -1235.333251953125 -360.6202392578125 375.0000305175781
v -1217.657470703125 -342.9444580078125 400.0000305175781
v -1235.333251953125 -360.6202392578125 400.0000305175781
v -1235.333251953125 -360.6202392578125 375.0000305175781
v -581.2803955078125 -1014.6973876953125 375.0000305175781
v -1235.333251953125 -360.6202392578125 400.0000305175781
v -581.2803955078125 -1014.6973876953125 400.0000305175781
v -1217.657470703125 -342.9444580078125 400.0000305175781
v -581.2803955078125 -1014.6973876953125 400.0000305175781
v -563.5924072265625 -997.0093994140625 400.0
v -1235.333251953125 -360.6202392578125 400.0000305175781
v -1553.521728515625 735.4003295898438 399.9999084472656
v -351.446533203125 -537.40234375 400.00006103515625
v -581.2559814453125 -1120.7642822265625 400.0001220703125
v -316.094970703125 -502.03857421875 400.00006103515625
v -1995.465087890625 293.45697021484375 399.99993896484375
v -174.664306640625 -714.17236328125 400.0000915527344
v -351.446533203125 -537.40234375 400.00006103515625
v -316.094970703125 -502.03857421875 400.00006103515625
v -351.446533203125 -537.40234375 410.00006103515625
v -316.094970703125 -502.03857421875 410.00006103515625
v -316.094970703125 -502.03857421875 400.00006103515625
v -1553.521728515625 735.4003295898438 399.9999084472656
v -316.094970703125 -502.03857421875 410.00006103515625
v -1553.521728515625 735.4003295898438 409.9999084472656
v -1553.521728515625 735.4002075195312 399.9999084472656
v -1995.465087890625 293.45697021484375 399.99993896484375
v -1553.521728515625 735.4002075195312 409.9999084472656
v -1995.465087890625 293.45697021484375 409.99993896484375
v -1995.465087890625 293.45697021484375 399.99993896484375
v -581.2559814453125 -1120.7642822265625 400.0001220703125
v -1995.465087890625 293.45697021484375 409.99993896484375
v -581.2559814453125 -1120.7642822265625 410.0001220703125
v -581.2559814453125 -1120.7642822265625 400.0001220703125
v -174.664306640625 -714.17236328125 400.0000915527344
v -581.2559814453125 -1120.7642822265625 410.0001220703125
v -174.664306640625 -714.17236328125 410.0000915527344
v -174.664306640625 -714.17236328125 400.0000915527344
v -351.446533203125 -537.40234375 400.00006103515625
v -174.664306640625 -714.17236328125 410.0000915527344
v -351.446533203125 -537.40234375 410.00006103515625
v -1553.521728515625 735.4002075195312 409.9999084472656
v -581.2559814453125 -1120.7642822265625 410.0001220703125
v -351.446533203125 -537.40234375 410.00006103515625
v -316.094970703125 -502.03857421875 410.00006103515625
v -1995.465087890625 293.45697021484375 409.99993896484375
v -174.664306640625 -714.17236328125 410.0000915527344
v -1747.979736328125 823.7792358398438 409.9998779296875
v -1500.494384765625 576.2939453125 409.9999084472656
v -1571.209716796875 505.5908203125 409.9999084472656
v -1818.695068359375 753.076171875 409.9998779296875
v -402.764892578125 -473.73046875 410.54254150390625
v -216.497802734375 -246.86279296875 410.5425109863281
v -346.087646484375 -514.70947265625 410.54254150390625
v -160.064697265625 -288.37890625 410.5425109863281
v -1500.494384765625 576.2939453125 409.9999084472656
v -1747.979736328125 823.7791748046875 409.9998779296875
v -1500.494384765625 576.2939453125 419.9998779296875
v -1747.979736328125 823.7791748046875 419.9998474121094
v -1747.979736328125 823.7791748046875 409.9998779296875
v -1818.695068359375 753.076171875 409.9998779296875
v -1747.979736328125 823.7791748046875 419.9998474121094
v -1818.695068359375 753.076171875 419.9998474121094
v -1818.695068359375 753.076171875 409.9998779296875
v -1571.209716796875 505.5908203125 409.9999084472656
v -1818.695068359375 753.076171875 419.9998474121094
v -1571.209716796875 505.5908203125 419.9998779296875
v -1571.209716796875 505.5908203125 409.9999084472656
v -1500.494384765625 576.2939453125 409.9999084472656
v -1571.209716796875 505.5908203125 419.9998779296875
v -1500.494384765625 576.2939453125 419.9998779296875
v -1747.979736328125 823.7791748046875 419.9998474121094
v -1571.209716796875 505.5908203125 419.9998779296875
v -1500.494384765625 576.2939453125 419.9998779296875
v -1818.695068359375 753.076171875 419.9998474121094
v -216.497802734375 -246.86279296875 410.5425109863281
v -402.764892578125 -473.73046875 410.54254150390625
v -216.497802734375 -246.86279296875 420.5425109863281
v -402.764892578125 -473.73046875 420.54254150390625
v -402.764892578125 -473.73046875 410.54254150390625
v -346.087646484375 -514.70947265625 410.54254150390625
v -402.764892578125 -473.73046875 420.54254150390625
v -346.087646484375 -514.70947265625 420.54254150390625
v -346.087646484375 -514.70947265625 410.54254150390625
v -160.064697265625 -288.37890625 410.5425109863281
v -346.087646484375 -514.70947265625 420.54254150390625
v -160.064697265625 -288.37890625 420.5425109863281
v -160.064697265625 -288.37890625 410.5425109863281
v -216.497802734375 -246.86279296875 410.5425109863281
v -160.064697265625 -288.37890625 420.5425109863281
v -216.497802734375 -246.86279296875 420.5425109863281
v -402.764892578125 -473.73046875 420.54254150390625
v -346.087646484375 -514.70947265625 420.54254150390625
v -216.497802734375 -246.86279296875 420.5425109863281
v -160.064697265625 -288.37890625 420.5425109863281
v 57.8797607421875 -1719.10400390625 0.00019074535521212965
v 41.3270263671875 -1700.32958984375 0.0001883804943645373
v 57.8797607421875 -1719.10400390625 375.0002136230469
v 41.3270263671875 -1700.32958984375 375.00018310546875
v 41.3270263671875 -1700.32958984375 0.0001883804943645373
v 23.6512451171875 -1718.00537109375 0.00018915312830358744
v 41.3270263671875 -1700.32958984375 375.0001220703125
v 23.6512451171875 -1718.00537109375 375.0001525878906
v 23.6512451171875 -1718.00537109375 0.00018915312830358744
v 40.2039794921875 -1736.77978515625 0.0001915179891511798
v 23.6512451171875 -1718.00537109375 375.0002136230469
v 40.2039794921875 -1736.77978515625 375.0002136230469
v 40.2039794921875 -1736.77978515625 0.0001915179891511798
v 57.8797607421875 -1719.10400390625 0.00019074535521212965
v 40.2039794921875 -1736.77978515625 375.0001525878906
v 57.8797607421875 -1719.10400390625 375.0001525878906
v 57.8797607421875 -1719.10400390625 375.0002136230469
v 41.3270263671875 -1700.32958984375 375.00018310546875
v 40.2039794921875 -1736.77978515625 375.0002136230469
v 23.6512451171875 -1718.00537109375 375.0002136230469
v 40.2039794921875 -1701.42822265625 375.00018310546875
v 414.48370361328125 -1397.88818359375 375.0002746582031
v 40.2039794921875 -1736.7919921875 375.0002136230469
v -563.5191650390625 -997.0582275390625 375.0002746582031
v -581.1949462890625 -1014.7218017578125 375.00030517578125
v 432.15936279296875 -1415.56396484375 375.0002746582031
v 414.48370361328125 -1397.88818359375 375.0002746582031
v 40.203857421875 -1701.42822265625 375.00018310546875
v 414.48370361328125 -1397.88818359375 400.0002746582031
v 40.203857421875 -1701.42822265625 400.00018310546875
v 40.2039794921875 -1701.42822265625 375.00018310546875
v -563.5191650390625 -997.0582275390625 375.0002746582031
v 40.2039794921875 -1701.42822265625 400.00018310546875
v -563.5191650390625 -997.0582275390625 400.0002746582031
v -563.5191650390625 -997.0582275390625 375.0002746582031
v -581.1949462890625 -1014.7218017578125 375.00030517578125
v -563.5191650390625 -997.0582275390625 400.0002746582031
v -581.1949462890625 -1014.7218017578125 400.00030517578125
v -581.1949462890625 -1014.7218017578125 375.00030517578125
v 40.20379638671875 -1736.7919921875 375.0002136230469
v -581.1949462890625 -1014.7218017578125 400.00030517578125
v 40.20379638671875 -1736.7919921875 400.0002136230469
v 40.2039794921875 -1736.7919921875 375.0002136230469
v 432.15936279296875 -1415.56396484375 375.0002746582031
v 40.2039794921875 -1736.7919921875 400.0002136230469
v 432.15936279296875 -1415.56396484375 400.0002746582031
v 40.2039794921875 -1701.42822265625 400.00018310546875
v 40.2039794921875 -1736.7919921875 400.0002136230469
v 414.48370361328125 -1397.88818359375 400.0002746582031
v -563.5191650390625 -997.0582275390625 400.0002746582031
v -581.1949462890625 -1014.7218017578125 400.00030517578125
v 432.15936279296875 -1415.56396484375 400.0002746582031
v -581.2559814453125 -1014.6851806640625 0.00010122558160219342
v -563.5802001953125 -997.0093994140625 0.00010045294766314328
v -581.2559814453125 -1014.6851806640625 375.00006103515625
v -563.5802001953125 -997.0093994140625 375.0000305175781
v -563.5802001953125 -997.0093994140625 0.00010045294766314328
v -581.2559814453125 -979.3336181640625 9.813505312195048e-05
v -563.5802001953125 -997.0093994140625 375.0000305175781
v -581.2559814453125 -979.3336181640625 375.0000305175781
v -581.2559814453125 -979.3336181640625 9.813505312195048e-05
v -598.931640625 -997.0093994140625 9.890768706100062e-05
v -581.2559814453125 -979.3336181640625 375.0000305175781
v -598.931640625 -997.0093994140625 375.0000305175781
v -598.931640625 -997.0093994140625 9.890768706100062e-05
v -581.2559814453125 -1014.6851806640625 0.00010122558160219342
v -598.931640625 -997.0093994140625 375.0000305175781
v -581.2559814453125 -1014.6851806640625 375.00006103515625
v -581.2559814453125 -979.3336181640625 375.0000915527344
v -581.2559814453125 -1014.6851806640625 375.0001220703125
v -563.5802001953125 -997.0093994140625 375.0000915527344
v -598.931640625 -997.0093994140625 375.0000915527344
v -227.703857421875 -661.14501953125 375.0000915527344
v -563.5802001953125 -997.0216064453125 375.0000915527344
v -245.379638671875 -643.45703125 375.00006103515625
v -581.2559814453125 -979.3336181640625 375.0000915527344
v -563.5802001953125 -997.0216064453125 375.0000915527344
v -227.703857421875 -661.14501953125 375.0000915527344
v -563.5802001953125 -997.0216064453125 400.0000915527344
v -227.703857421875 -661.14501953125 400.0000915527344
v -227.703857421875 -661.14501953125 375.0000915527344
v -245.379638671875 -643.45703125 375.00006103515625
v -227.703857421875 -661.14501953125 400.0000915527344
v -245.379638671875 -643.45703125 400.00006103515625
v -245.379638671875 -643.45703125 375.00006103515625
v -581.2559814453125 -979.3336181640625 375.0000915527344
v -245.379638671875 -643.45703125 400.00006103515625
v -581.2559814453125 -979.3336181640625 400.0000915527344
v -581.2559814453125 -979.3336181640625 375.0000915527344
v -563.5802001953125 -997.0216064453125 375.0000915527344
v -581.2559814453125 -979.3336181640625 400.0000915527344
v -563.5802001953125 -997.0216064453125 400.0000915527344
v -227.703857421875 -661.14501953125 400.0000915527344
v -245.379638671875 -643.45703125 400.00006103515625
v -563.5802001953125 -997.0216064453125 400.0000915527344
v -581.2559814453125 -979.3336181640625 400.0000915527344
v 1204.193115234375 1018.2494506835938 1.5452762909262674e-06
v 1133.477783203125 1088.9527587890625 -7.726869625912514e-06
v 1204.193115234375 1018.2494506835938 25.000001907348633
v 1133.477783203125 1088.9527587890625 24.99999237060547
v 1133.477783203125 1088.9527587890625 -7.726869625912514e-06
v 1115.802001953125 1071.2767333984375 -6.954219315957744e-06
v 1133.477783203125 1088.9527587890625 24.999988555908203
v 1115.802001953125 1071.2767333984375 24.999990463256836
v 1115.802001953125 1071.2767333984375 -6.954219315957744e-06
v 1186.517333984375 1000.5616455078125 2.3189588773675496e-06
v 1115.802001953125 1071.2767333984375 24.9999942779541
v 1186.517333984375 1000.5616455078125 25.000001907348633
v 1186.517333984375 1000.5616455078125 2.3189588773675496e-06
v 1204.193115234375 1018.2494506835938 1.5452762909262674e-06
v 1186.517333984375 1000.5616455078125 25.000001907348633
v 1204.193115234375 1018.2494506835938 25.000001907348633
v 1133.477783203125 1088.9527587890625 24.99999237060547
v 1186.517333984375 1000.5616455078125 25.000001907348633
v 1204.193115234375 1018.2494506835938 25.000001907348633
v 1115.802001953125 1071.2767333984375 24.9999942779541
v 1122.869873046875 1085.4246826171875 24.99999237060547
v 1197.113037109375 1011.1695556640625 25.000001907348633
v 1193.585205078125 1007.6415405273438 25.000001907348633
v 1119.342041015625 1081.884765625 24.99999237060547
v 1197.113037109375 1011.1695556640625 25.000001907348633
v 1122.869873046875 1085.4246826171875 24.99999237060547
v 1197.113037109375 1011.1695556640625 395.0
v 1122.869873046875 1085.4248046875 395.0
v 1122.869873046875 1085.4246826171875 24.99999237060547
v 1119.342041015625 1081.884765625 24.99999237060547
v 1122.869873046875 1085.4248046875 395.0
v 1119.342041015625 1081.884765625 395.0
v 1119.342041015625 1081.884765625 24.99999237060547
v 1193.585205078125 1007.6415405273438 25.000001907348633
v 1119.342041015625 1081.884765625 395.0
v 1193.585205078125 1007.6415405273438 395.0
v 1193.585205078125 1007.6415405273438 25.000001907348633
v 1197.113037109375 1011.1695556640625 25.000001907348633
v 1193.585205078125 1007.6415405273438 395.0
v 1197.113037109375 1011.1695556640625 395.0
v 1122.869873046875 1085.4248046875 395.0
v 1193.585205078125 1007.6415405273438 395.0
v 1197.113037109375 1011.1695556640625 395.0
v 1119.342041015625 1081.884765625 395.0
v 1122.869873046875 1085.4248046875 395.0
v 1197.113037109375 1011.1695556640625 395.0
v 1193.585205078125 1007.6415405273438 395.0
v 1119.342041015625 1081.884765625 395.0
v 1197.113037109375 1011.1695556640625 400.0
v 1122.869873046875 1085.4248046875 400.0
v 1122.869873046875 1085.4248046875 400.0
v 1119.342041015625 1081.884765625 400.0
v 1193.585205078125 1007.6416015625 395.0
v 1119.342041015625 1081.884765625 400.0
v 1193.585205078125 1007.6416015625 400.0
v 1193.585205078125 1007.6415405273438 400.0
v 1197.113037109375 1011.1695556640625 400.0
v 1122.869873046875 1085.4248046875 400.0
v 1193.585205078125 1007.6415405273438 400.0
v 1197.113037109375 1011.1695556640625 400.0
v 1119.342041015625 1081.884765625 400.0
v 988.5314331054688 943.994140625 -1.389991439282312e-06
v 1593.0970458984375 1548.5841064453125 -2.7818525268230587e-05
v 988.5314331054688 943.994140625 25.0
v 1593.0970458984375 1548.5841064453125 24.99997329711914
v 1593.096923828125 1548.583984375 -2.7818517992272973e-05
v 1593.096923828125 1583.94775390625 -3.091012331424281e-05
v 1593.096923828125 1548.583984375 24.99997329711914
v 1593.096923828125 1583.94775390625 24.999969482421875
v 1593.096923828125 1583.94775390625 -3.091012331424281e-05
v 970.8434448242188 961.6821899414062 -3.7094996514497325e-06
v 1593.096923828125 1583.94775390625 24.99996566772461
v 970.8434448242188 961.6821899414062 24.99999237060547
v 970.8434448242188 961.6821899414062 -3.709501470439136e-06
v 988.5314331054688 943.994140625 -1.389991439282312e-06
v 970.8434448242188 961.6822509765625 24.999996185302734
v 988.5314331054688 943.994140625 25.0
v 988.5314331054688 943.994140625 25.0
v 1593.096923828125 1548.583984375 24.99997329711914
v 1593.096923828125 1583.94775390625 24.999969482421875
v 970.8434448242188 961.6822509765625 24.999996185302734
v 977.9113159179688 954.6019897460938 24.999996185302734
v 1586.029052734375 1562.7197265625 24.999969482421875
v 981.4514770507812 951.07421875 24.999998092651367
v 1589.556884765625 1559.19189453125 24.999971389770508
v 1586.029052734375 1562.7197265625 24.999969482421875
v 977.9112548828125 954.6019287109375 24.999996185302734
v 1586.029052734375 1562.7197265625 394.9999694824219
v 977.9111938476562 954.6019287109375 395.0
v 977.9113159179688 954.6019897460938 24.999996185302734
v 981.4514770507812 951.07421875 24.999998092651367
v 977.9113159179688 954.60205078125 395.0
v 981.451416015625 951.0742797851562 395.0
v 981.4514770507812 951.07421875 24.999998092651367
v 1589.5567626953125 1559.19189453125 24.999971389770508
v 981.451416015625 951.0742797851562 395.0
v 1589.556640625 1559.19189453125 394.9999694824219
v 1589.556884765625 1559.19189453125 24.999971389770508
v 1586.029052734375 1562.7197265625 24.999969482421875
v 1589.5567626953125 1559.1920166015625 394.9999694824219
v 1586.029052734375 1562.7197265625 394.9999694824219
v 977.9113159179688 954.60205078125 395.0
v 981.451416015625 951.0742797851562 395.0
v 1586.029052734375 1562.7197265625 394.9999694824219
v 1589.5567626953125 1559.1920166015625 394.9999694824219
v 977.9113159179688 954.60205078125 395.0
v 1586.029052734375 1562.7197265625 394.9999694824219
v 981.451416015625 951.0742797851562 395.0
v 1589.5567626953125 1559.1920166015625 394.9999694824219
v 1586.029052734375 1562.7197265625 399.9999694824219
v 977.9111938476562 954.6019287109375 400.0
v 977.9113159179688 954.60205078125 400.0
v 981.451416015625 951.0742797851562 400.0
v 1589.556884765625 1559.192138671875 394.9999694824219
v 981.451416015625 951.0742797851562 400.0
v 1589.556884765625 1559.192138671875 399.9999694824219
v 1589.5567626953125 1559.1920166015625 399.9999694824219
v 1586.029052734375 1562.7197265625 399.9999694824219
v 977.9113159179688 954.60205078125 400.0
v 981.451416015625 951.0742797851562 400.0
v 1586.029052734375 1562.7197265625 399.9999694824219
v 1589.5567626953125 1559.1920166015625 399.9999694824219
v 684.466552734375 682.3731079101562 8.190543667296879e-06
v 719.8181762695312 647.0213623046875 1.2826362763007637e-05
v 684.466552734375 682.3731689453125 399.9999694824219
v 719.8181762695312 647.0213623046875 399.9999694824219
v 719.8181762695312 647.0213623046875 1.2826362763007637e-05
v 762.249755859375 689.4409790039062 1.0972659765684512e-05
v 719.8181762695312 647.0213623046875 400.0000305175781
v 762.249755859375 689.4410400390625 400.0000305175781
v 762.249755859375 689.4409790039062 1.0972659765684512e-05
v 726.898193359375 724.8046264648438 6.335806119750487e-06
v 762.249755859375 689.4410400390625 400.0000305175781
v 726.8981323242188 724.8046264648438 400.0000305175781
v 726.898193359375 724.8045654296875 6.33580793873989e-06
v 684.466552734375 682.3731079101562 8.190543667296879e-06
v 726.8981323242188 724.8046264648438 400.0000305175781
v 684.466552734375 682.3731689453125 400.0000305175781
v 684.466552734375 682.3731689453125 400.0000305175781
v 719.8181762695312 647.0213623046875 400.0000305175781
v 726.8981323242188 724.8046264648438 400.0000305175781
v 762.249755859375 689.4410400390625 400.0000305175781
v 956.707763671875 912.1826171875 0.0
v 988.519287109375 944.00634765625 -1.391591467836406e-06
v 956.707763671875 912.1826782226562 399.99993896484375
v 988.5192260742188 944.00634765625 399.99993896484375
v 988.519287109375 944.00634765625 -1.3915913541495684e-06
v 953.1677856445312 979.3577880859375 -6.027380550222006e-06
v 988.5192260742188 944.00634765625 400.0
v 953.167724609375 979.3578491210938 400.0
v 953.1677856445312 979.3577880859375 -6.027380550222006e-06
v 921.343994140625 947.5343017578125 -4.636344328901032e-06
v 953.167724609375 979.3578491210938 400.0
v 921.3439331054688 947.5343627929688 400.0
v 921.343994140625 947.5343017578125 -4.636344328901032e-06
v 956.707763671875 912.1826171875 0.0
v 921.3439331054688 947.5343627929688 400.0
v 956.707763671875 912.1826782226562 400.0
v 953.167724609375 979.3578491210938 400.0
v 956.707763671875 912.1826782226562 400.0
v 988.5192260742188 944.00634765625 400.0
v 921.3439331054688 947.5343627929688 400.0
v 763.983154296875 514.4163818359375 2.6349567633587867e-05
v 568.731689453125 710.8641357421875 6.40842301891098e-07
v 763.983154296875 514.4164428710938 400.0000305175781
v 568.731689453125 710.8641967773438 400.0
v 568.731689453125 710.8641967773438 6.408386639122909e-07
v 424.48114013671875 567.5902709960938 6.860852863610489e-06
v 568.731689453125 710.8642578125 400.0
v 424.48114013671875 567.59033203125 400.0
v 424.48114013671875 567.5902709960938 6.860852863610489e-06
v 620.831298828125 371.25244140625 3.2607989851385355e-05
v 424.48114013671875 567.59033203125 400.0
v 620.8312377929688 371.25250244140625 400.00006103515625
v 620.831298828125 371.25238037109375 3.2607989851385355e-05
v 763.983154296875 514.4163818359375 2.6349567633587867e-05
v 620.8312377929688 371.25244140625 400.00006103515625
v 763.983154296875 514.4163818359375 400.0000305175781
v 568.731689453125 710.8642578125 400.0
v 620.8312377929688 371.25244140625 400.00006103515625
v 763.983154296875 514.4164428710938 400.0000305175781
v 424.48114013671875 567.59033203125 400.0
v 340.179443359375 1012.5120849609375 -3.572038986021653e-05
v 269.012451171875 941.7236938476562 -3.264268161728978e-05
v 340.179443359375 1012.5121459960938 399.9999694824219
v 269.012451171875 941.7236938476562 399.9999694824219
v 269.012451171875 941.7236938476562 -3.264268161728978e-05
v 321.85662841796875 888.5010986328125 -2.567992123658769e-05
v 269.012451171875 941.7236938476562 399.9999694824219
v 321.85662841796875 888.5010986328125 399.9999694824219
v 321.85662841796875 888.5010986328125 -2.567992123658769e-05
v 393.20672607421875 959.4848022460938 -2.876670259865932e-05
v 321.85662841796875 888.5010986328125 399.9999694824219
v 393.20672607421875 959.4848022460938 399.9999694824219
v 393.20672607421875 959.4848022460938 -2.8766700779669918e-05
v 340.179443359375 1012.5120849609375 -3.572038986021653e-05
v 393.20672607421875 959.4848022460938 399.9999694824219
v 340.179443359375 1012.5121459960938 399.9999694824219
v 269.012451171875 941.7236938476562 399.9999694824219
v 321.85662841796875 888.5010986328125 399.9999694824219
v 340.179443359375 1012.5121459960938 399.9999694824219
v 393.20672607421875 959.4848022460938 399.9999694824219
v -132.806396484375 460.19287109375 -8.109983355097938e-06
v -722.674560546875 -130.8106689453125 1.7773227227735333e-05
v -132.806396484375 460.19287109375 24.99999237060547
v -722.674560546875 -130.8106689453125 25.000019073486328
v -722.674560546875 -130.8106689453125 1.7773227227735333e-05
v -942.510986328125 89.02593994140625 -1.1054851711378433e-05
v -722.674560546875 -130.8106689453125 25.000019073486328
v -942.510986328125 89.02593994140625 24.999988555908203
v -942.510986328125 89.02581787109375 -1.1054844435420819e-05
v -924.822998046875 106.70159912109375 -1.1826947229565121e-05
v -942.510986328125 89.02581787109375 24.999988555908203
v -924.822998046875 106.70159912109375 24.999988555908203
v -924.822998046875 106.70159912109375 -1.1826947229565121e-05
v -942.498779296875 124.37738037109375 -1.4144834494800307e-05
v -924.822998046875 106.70159912109375 24.999988555908203
v -942.498779296875 124.37738037109375 24.999984741210938
v -942.498779296875 124.37738037109375 -1.4144834494800307e-05
v -977.862548828125 89.02581787109375 -1.2600112313521095e-05
v -942.498779296875 124.37738037109375 24.999984741210938
v -977.862548828125 89.02581787109375 24.999988555908203
v -977.862548828125 89.02581787109375 -1.2600112313521095e-05
v -722.674560546875 -166.1622314453125 2.086375570797827e-05
v -977.862548828125 89.02581787109375 24.999988555908203
v -722.674560546875 -166.1622314453125 25.00002098083496
v -722.674560546875 -166.1622314453125 2.086375570797827e-05
v -114.569091796875 441.95556640625 -5.718448846891988e-06
v -722.674560546875 -166.1622314453125 25.00002098083496
v -114.569091796875 441.95556640625 24.9999942779541
v -114.569091796875 441.9554443359375 -5.718437932955567e-06
v -132.806396484375 460.19287109375 -8.109983355097938e-06
v -114.569091796875 441.9554443359375 24.9999942779541
v -132.806396484375 460.19287109375 24.99999237060547
v -722.674560546875 -130.8106689453125 25.000019073486328
v -722.674560546875 -166.1622314453125 25.00002098083496
v -132.806396484375 460.19287109375 24.99999237060547
v -942.510986328125 89.02581787109375 24.999988555908203
v -977.862548828125 89.02581787109375 24.999988555908203
v -924.822998046875 106.70159912109375 24.999988555908203
v -942.498779296875 124.37738037109375 24.999984741210938
v -114.569091796875 441.9554443359375 24.9999942779541
v -963.726806640625 89.02581787109375 24.999988555908203
v -935.430908203125 117.3095703125 24.99998664855957
v -956.646728515625 89.02581787109375 24.999988555908203
v -722.674560546875 -152.0142822265625 25.00002098083496
v -722.674560546875 -144.9464111328125 25.000019073486328
v -121.636962890625 449.02337646484375 24.99999237060547
v -125.177001953125 452.55126953125 24.99999237060547
v -931.890869140625 113.76947021484375 24.999988555908203
v -935.430908203125 117.3095703125 24.99998664855957
v -963.726806640625 89.02581787109375 24.999988555908203
v -935.430908203125 117.30963134765625 394.9999694824219
v -963.726806640625 89.02587890625 394.9999694824219
v -963.726806640625 89.02581787109375 24.999988555908203
v -722.674560546875 -152.0142822265625 25.00002098083496
v -963.726806640625 89.02587890625 394.9999694824219
v -722.674560546875 -152.0142822265625 395.0000305175781
v -722.674560546875 -152.0142822265625 25.00002098083496
v -121.636962890625 449.02337646484375 24.99999237060547
v -722.674560546875 -152.0142822265625 395.0000305175781
v -121.636962890625 449.0234069824219 394.9999694824219
v -121.636962890625 449.02337646484375 24.99999237060547
v -125.177001953125 452.55126953125 24.99999237060547
v -121.636962890625 449.0234069824219 394.9999694824219
v -125.177001953125 452.5513000488281 394.9999694824219
v -125.177001953125 452.55126953125 24.99999237060547
v -722.674560546875 -144.9464111328125 25.000019073486328
v -125.177001953125 452.5513000488281 394.9999694824219
v -722.674560546875 -144.9464111328125 395.0000305175781
v -722.674560546875 -144.9464111328125 25.000019073486328
v -956.646728515625 89.02581787109375 24.999988555908203
v -722.674560546875 -144.9464111328125 395.0000305175781
v -956.646728515625 89.02587890625 394.9999694824219
v -956.646728515625 89.02581787109375 24.999988555908203
v -931.890869140625 113.76947021484375 24.999988555908203
v -956.646728515625 89.02587890625 394.9999694824219
v -931.890869140625 113.76953125 394.9999694824219
v -931.890869140625 113.7694091796875 24.999988555908203
v -935.430908203125 117.3095703125 24.99998664855957
v -931.890869140625 113.76947021484375 394.9999694824219
v -935.430908203125 117.30963134765625 394.9999694824219
v -963.726806640625 89.02587890625 394.9999694824219
v -956.646728515625 89.02587890625 394.9999694824219
v -935.430908203125 117.30963134765625 394.9999694824219
v -722.674560546875 -152.0142822265625 395.0000305175781
v -722.674560546875 -144.9464111328125 395.0000305175781
v -121.636962890625 449.0234069824219 394.9999694824219
v -125.177001953125 452.5513000488281 394.9999694824219
v -931.890869140625 113.76953125 394.9999694824219
v -963.726806640625 89.02587890625 394.9999694824219
v -935.430908203125 117.30963134765625 394.9999694824219
v -956.646728515625 89.02587890625 394.9999694824219
v -722.674560546875 -152.0142822265625 395.0000305175781
v -722.674560546875 -144.9464111328125 395.0000305175781
v -121.636962890625 449.0234069824219 394.9999694824219
v -125.177001953125 452.5635070800781 394.9999694824219
v -931.890869140625 113.76953125 394.9999694824219
v -935.430908203125 117.30963134765625 399.9999694824219
v -963.726806640625 89.02587890625 399.9999694824219
v -963.726806640625 89.02587890625 399.9999694824219
v -722.674560546875 -152.0142822265625 400.0000305175781
v -722.674560546875 -152.0142822265625 400.0000305175781
v -121.636962890625 449.0234069824219 399.9999694824219
v -125.177001953125 452.5635070800781 394.9999694824219
v -121.636962890625 449.0234069824219 399.9999694824219
v -125.177001953125 452.5635070800781 399.9999694824219
v -125.177001953125 452.5635070800781 394.9999694824219
v -722.6748046875 -144.9464111328125 395.0000305175781
v -125.177001953125 452.5635070800781 399.9999694824219
v -722.6748046875 -144.9464111328125 400.0000305175781
v -722.674560546875 -144.9464111328125 400.0000305175781
v -956.646728515625 89.02587890625 399.9999694824219
v -956.646728515625 89.02587890625 399.9999694824219
v -931.890869140625 113.76953125 399.9999694824219
v -931.890869140625 113.76947021484375 399.9999694824219
v -935.430908203125 117.30963134765625 399.9999694824219
v -963.726806640625 89.02587890625 399.9999694824219
v -956.646728515625 89.02587890625 399.9999694824219
v -935.430908203125 117.30963134765625 399.9999694824219
v -722.674560546875 -152.0142822265625 400.0000305175781
v -722.674560546875 -144.9464111328125 400.0000305175781
v -121.636962890625 449.0234069824219 399.9999694824219
v -125.177001953125 452.5635070800781 399.9999694824219
v -931.890869140625 113.76953125 399.9999694824219
v 779.925537109375 1336.43798828125 -4.4816981244366616e-05
v 762.249755859375 1354.11376953125 -4.713487942353822e-05
v 779.925537109375 1336.43798828125 24.999956130981445
v 762.249755859375 1354.11376953125 24.999954223632812
v 762.249755859375 1354.11376953125 -4.713488306151703e-05
v 381.658935546875 971.0326538085938 -3.0281020372058265e-05
v 762.249755859375 1354.11376953125 24.999954223632812
v 381.658935546875 971.0326538085938 24.999969482421875
v 381.658935546875 971.03271484375 -3.0281024010037072e-05
v 399.34698486328125 953.3448486328125 -2.7961530577158555e-05
v 381.658935546875 971.03271484375 24.999969482421875
v 399.34698486328125 953.3448486328125 24.999971389770508
v 399.34698486328125 953.3448486328125 -2.7961530577158555e-05
v 779.9254760742188 1336.43798828125 -4.4816981244366616e-05
v 399.34698486328125 953.3448486328125 24.999971389770508
v 779.9254760742188 1336.43798828125 24.999956130981445
v 779.925537109375 1336.43798828125 24.999956130981445
v 762.249755859375 1354.11376953125 24.999954223632812
v 399.34698486328125 953.3448486328125 24.999971389770508
v 381.658935546875 971.03271484375 24.999969482421875
v 388.73895263671875 963.9526977539062 24.999971389770508
v 770.5748291015625 1345.78857421875 24.999954223632812
v 392.279052734375 960.4124755859375 24.999971389770508
v 772.3693237304688 1343.017578125 24.999954223632812
v 388.73895263671875 963.9526977539062 24.999971389770508
v 392.279052734375 960.4125366210938 24.999971389770508
v 388.73895263671875 963.9527587890625 394.9999694824219
v 392.279052734375 960.4125366210938 394.9999694824219
v 392.279052734375 960.4124755859375 24.999971389770508
v 772.3692626953125 1343.017578125 24.999954223632812
v 392.279052734375 960.4125366210938 394.9999694824219
v 772.3692626953125 1343.017578125 394.9999694824219
v 772.3693237304688 1343.017578125 24.999954223632812
v 770.5748291015625 1345.78857421875 24.999954223632812
v 772.3693237304688 1343.0177001953125 394.9999694824219
v 770.5748291015625 1345.7886962890625 394.9999694824219
v 770.5748291015625 1345.78857421875 24.999954223632812
v 388.739013671875 963.9527587890625 24.999971389770508
v 770.5748291015625 1345.7886962890625 394.99993896484375
v 388.739013671875 963.9527587890625 394.99993896484375
v 388.73895263671875 963.9527587890625 394.9999694824219
v 392.279052734375 960.4125366210938 394.9999694824219
v 770.5748291015625 1345.7886962890625 394.9999694824219
v 772.3693237304688 1343.0177001953125 394.9999694824219
v 388.73895263671875 963.9527587890625 394.9999694824219
v 770.5748291015625 1345.7764892578125 395.00006103515625
v 392.279052734375 960.4125366210938 394.9999694824219
v 774.1149291992188 1342.2486572265625 395.0001525878906
v 388.73895263671875 963.9527587890625 399.9999694824219
v 392.279052734375 960.4125366210938 399.9999694824219
v 774.1149291992188 1342.2486572265625 395.0001525878906
v 392.279052734375 960.4125366210938 399.9999694824219
v 774.1149291992188 1342.2486572265625 400.0001525878906
v 774.1149291992188 1342.2486572265625 395.0001525878906
v 770.5748291015625 1345.7764892578125 395.00006103515625
v 774.1149291992188 1342.2486572265625 400.0001525878906
v 770.5748291015625 1345.7764892578125 400.00006103515625
v 770.5748291015625 1345.7764892578125 395.00006103515625
v 388.7388916015625 963.9526977539062 394.9999694824219
v 770.5748291015625 1345.7764892578125 400.00006103515625
v 388.7388916015625 963.9526977539062 399.9999694824219
v 727.6428833007812 657.275390625 1.227195025421679e-05
v 674.798583984375 710.498046875 5.309178504830925e-06
v 727.6428833007812 657.2754516601562 400.0000305175781
v 674.798583984375 710.4981079101562 400.0000305175781
v 674.798583984375 710.4981079101562 5.309176685841521e-06
v 621.5759887695312 657.6536254882812 7.602555797348032e-06
v 674.798583984375 710.4981689453125 400.0000305175781
v 621.5759887695312 657.6536254882812 400.0000305175781
v 621.5759887695312 657.6536254882812 7.602555797348032e-06
v 674.420166015625 604.4310302734375 1.4565315723302774e-05
v 621.5759887695312 657.6536254882812 400.0000305175781
v 674.420166015625 604.4310302734375 400.0000305175781
v 674.420166015625 604.4310302734375 1.4565315723302774e-05
v 727.6428833007812 657.275390625 1.227195025421679e-05
v 674.420166015625 604.4310302734375 400.0000305175781
v 727.6428833007812 657.2754516601562 400.0000305175781
v 727.6428833007812 657.2754516601562 400.0000305175781
v 674.798583984375 710.4981689453125 400.0000305175781
v 674.420166015625 604.4310302734375 400.0000305175781
v 621.5759887695312 657.6536254882812 400.0000305175781
v -298.4068603515625 -484.36279296875 6.722707621520385e-05
v -369.122314453125 -413.6474609375 5.795387187390588e-05
v -298.406982421875 -484.36279296875 25.00006675720215
v -369.122314453125 -413.6474609375 25.000059127807617
v -369.122314453125 -413.6474609375 5.795387187390588e-05
v 62.21319580078125 17.68792724609375 3.9099602872738615e-05
v -369.122314453125 -413.6474609375 25.000059127807617
v 62.21319580078125 17.68792724609375 25.00004005432129
v 62.21319580078125 17.68792724609375 3.9099602872738615e-05
v 44.52520751953125 35.36370849609375 3.6781169910682365e-05
v 62.21319580078125 17.68792724609375 25.00004005432129
v 44.52520751953125 35.36370849609375 25.000036239624023
v 44.52520751953125 35.36370849609375 3.6781169910682365e-05
v -404.473876953125 -413.6474609375 5.640860763378441e-05
v 44.52520751953125 35.36370849609375 25.000036239624023
v -404.473876953125 -413.6474609375 25.000057220458984
v -404.473876953125 -413.6474609375 5.640860763378441e-05
v -316.0826416015625 -502.03857421875 6.799969560233876e-05
v -404.473876953125 -413.6474609375 25.000057220458984
v -316.082763671875 -502.03857421875 25.00006866455078
v -316.0826416015625 -502.03857421875 6.799969560233876e-05
v -298.4068603515625 -484.36279296875 6.722707621520385e-05
v -316.082763671875 -502.03857421875 25.00006866455078
v -298.406982421875 -484.36279296875 25.00006675720215
v -369.122314453125 -413.6474609375 25.000059127807617
v -316.082763671875 -502.03857421875 25.00006866455078
v -298.406982421875 -484.36279296875 25.00006675720215
v 62.21319580078125 17.68792724609375 25.00004005432129
v 44.52520751953125 35.36370849609375 25.000036239624023
v -404.473876953125 -413.6474609375 25.000057220458984
v 55.14532470703125 24.75579833984375 25.000038146972656
v -383.258056640625 -413.65966796875 25.000057220458984
v 51.60528564453125 28.28363037109375 25.000038146972656
v -390.338134765625 -413.65966796875 25.000057220458984
v -309.014892578125 -494.970703125 25.00006675720215
v -305.487060546875 -491.4306640625 25.00006675720215
v 55.14532470703125 24.75579833984375 25.000038146972656
v 51.60528564453125 28.28363037109375 25.000038146972656
v 55.145263671875 24.755859375 395.00006103515625
v 51.605224609375 28.28369140625 395.00006103515625
v 51.60528564453125 28.28363037109375 25.000038146972656
v -390.338134765625 -413.65966796875 25.000057220458984
v 51.605224609375 28.28369140625 395.00006103515625
v -390.338134765625 -413.65966796875 395.00006103515625
v -390.338134765625 -413.65966796875 25.000057220458984
v -309.014892578125 -494.970703125 25.00006675720215
v -390.338134765625 -413.65966796875 395.00006103515625
v -309.014892578125 -494.970703125 395.00006103515625
v -309.014892578125 -494.970703125 25.00006675720215
v -305.487060546875 -491.4306640625 25.00006675720215
v -309.014892578125 -494.970703125 395.00006103515625
v -305.487060546875 -491.4306640625 395.00006103515625
v -305.487060546875 -491.4306640625 25.00006675720215
v -383.258056640625 -413.65966796875 25.000057220458984
v -305.487060546875 -491.4306640625 395.00006103515625
v -383.258056640625 -413.65966796875 395.00006103515625
v -383.258056640625 -413.65966796875 25.000057220458984
v 55.14532470703125 24.75579833984375 25.000038146972656
v -383.258056640625 -413.65966796875 395.00006103515625
v 55.145263671875 24.755859375 395.00006103515625
v 55.145263671875 24.755859375 395.00006103515625
v 51.605224609375 28.28369140625 395.00006103515625
v -383.258056640625 -413.65966796875 395.00006103515625
v -390.338134765625 -413.65966796875 395.00006103515625
v -309.014892578125 -494.970703125 395.00006103515625
v -305.487060546875 -491.4306640625 395.00006103515625
v 55.145263671875 24.755859375 395.00006103515625
v -383.258056640625 -413.65966796875 395.00006103515625
v 51.605224609375 28.28369140625 395.00006103515625
v -390.338134765625 -413.65966796875 395.00006103515625
v -309.014892578125 -494.970703125 395.00006103515625
v -305.487060546875 -491.4306640625 395.00006103515625
v 55.145263671875 24.755859375 400.00006103515625
v 51.605224609375 28.28369140625 400.00006103515625
v 51.605224609375 28.28369140625 400.00006103515625
v -390.338134765625 -413.65966796875 400.00006103515625
v -390.338134765625 -413.65966796875 400.00006103515625
v -309.014892578125 -494.970703125 400.00006103515625
v -309.014892578125 -494.970703125 400.00006103515625
v -305.487060546875 -491.4306640625 400.00006103515625
v -305.487060546875 -491.4306640625 400.00006103515625
v -383.258056640625 -413.65966796875 400.00006103515625
v -383.258056640625 -413.65966796875 400.00006103515625
v 55.145263671875 24.755859375 400.00006103515625
v 55.145263671875 24.755859375 400.00006103515625
v 51.605224609375 28.28369140625 400.00006103515625
v -383.258056640625 -413.65966796875 400.00006103515625
v -390.338134765625 -413.65966796875 400.00006103515625
v -309.014892578125 -494.970703125 400.00006103515625
v -305.487060546875 -491.4306640625 400.00006103515625
v -31.817626953125 502.7344970703125 -7.414729225274641e-06
v -102.288818359375 573.6815185546875 -1.669751145527698e-05
v -31.817626953125 502.7345275878906 400.0
v -102.288818359375 573.6815795898438 399.9999694824219
v -102.288818359375 573.6815185546875 -1.669751145527698e-05
v -174.407958984375 501.7943115234375 -1.3565361768996809e-05
v -102.288818359375 573.6815795898438 399.9999694824219
v -174.407958984375 501.7943420410156 399.9999694824219
v -174.407958984375 501.79437255859375 -1.3565365406975616e-05
v -103.704833984375 431.0911560058594 -4.293761776352767e-06
v -174.407958984375 501.7944030761719 399.9999084472656
v -103.704833984375 431.0911865234375 399.9999084472656
v -103.704833984375 431.0911560058594 -4.293761776352767e-06
v -31.817626953125 502.7344970703125 -7.414729225274641e-06
v -103.704833984375 431.0911865234375 399.9999694824219
v -31.817626953125 502.7345275878906 400.0
v -31.817626953125 502.7345275878906 400.0
v -102.288818359375 573.6815795898438 399.9999694824219
v -103.704833984375 431.0911865234375 399.9999694824219
v -174.407958984375 501.7944030761719 399.9999694824219
v 567.791748046875 1301.08642578125 -5.099911504657939e-05
v 497.0886535644531 1371.8016357421875 -6.027176641509868e-05
v 567.791748046875 1301.0865478515625 399.99993896484375
v 497.0886535644531 1371.8017578125 399.99993896484375
v 497.0886535644531 1371.8016357421875 -6.027176641509868e-05
v 426.373291015625 1301.08642578125 -5.718071406590752e-05
v 497.0886535644531 1371.8017578125 399.99993896484375
v 426.37322998046875 1301.0865478515625 399.99993896484375
v 426.373291015625 1301.08642578125 -5.718071406590752e-05
v 497.08868408203125 1230.37109375 -4.7907509724609554e-05
v 426.37322998046875 1301.0865478515625 399.99993896484375
v 497.0886535644531 1230.37109375 399.99993896484375
v 497.08868408203125 1230.37109375 -4.7907509724609554e-05
v 567.791748046875 1301.08642578125 -5.099911504657939e-05
v 497.0886535644531 1230.37109375 399.99993896484375
v 567.791748046875 1301.0865478515625 399.99993896484375
v 620.831298828125 371.25238037109375 3.260799348936416e-05
v 601.751708984375 390.33209228515625 3.0105997211649083e-05
v 620.831298828125 371.25238037109375 25.000028610229492
v 601.751708984375 390.33209228515625 25.00002670288086
v 601.751708984375 390.33209228515625 3.010599539265968e-05
v 278.33868408203125 70.27587890625 4.394936695462093e-05
v 601.751708984375 390.33209228515625 25.000030517578125
v 278.33868408203125 70.27587890625 25.000043869018555
v 278.3387451171875 70.27587890625 4.3949370592599735e-05
v 296.026611328125 52.587890625 4.626886220648885e-05
v 278.3387451171875 70.27587890625 25.000043869018555
v 296.026611328125 52.587890625 25.000045776367188
v 296.026611328125 52.587890625 4.626886220648885e-05
v 620.831298828125 371.2523193359375 3.260799712734297e-05
v 296.026611328125 52.587890625 25.000045776367188
v 620.831298828125 371.2523193359375 25.000032424926758
v 620.831298828125 371.25238037109375 25.000032424926758
v 601.751708984375 390.33209228515625 25.000030517578125
v 296.026611328125 52.587890625 25.000045776367188
v 278.3387451171875 70.27587890625 25.000043869018555
v 284.9549560546875 63.6474609375 25.000045776367188
v 610.223388671875 381.8480224609375 25.000030517578125
v 288.48272705078125 60.11962890625 25.000045776367188
v 613.7513427734375 378.3079833984375 25.000030517578125
v 284.9549560546875 63.6474609375 25.000045776367188
v 288.48272705078125 60.11962890625 25.000045776367188
v 284.95489501953125 63.64752197265625 395.0000305175781
v 288.482666015625 60.11968994140625 395.0000305175781
v 288.48272705078125 60.11962890625 25.000045776367188
v 613.7513427734375 378.3079833984375 25.000030517578125
v 288.482666015625 60.11968994140625 395.0000305175781
v 613.7513427734375 378.30804443359375 395.00006103515625
v 613.7513427734375 378.3079833984375 25.000030517578125
v 610.223388671875 381.8480224609375 25.000030517578125
v 613.7512817382812 378.30804443359375 395.00006103515625
v 610.223388671875 381.84808349609375 395.00006103515625
v 610.223388671875 381.8480224609375 25.000030517578125
v 284.95489501953125 63.6474609375 25.000045776367188
v 610.223388671875 381.84808349609375 395.00006103515625
v 284.954833984375 63.64752197265625 395.0000305175781
v 284.95489501953125 63.64752197265625 395.0000305175781
v 288.482666015625 60.11968994140625 395.0000305175781
v 610.223388671875 381.84808349609375 395.00006103515625
v 613.7512817382812 378.30804443359375 395.00006103515625
v 284.95489501953125 63.64752197265625 395.0000305175781
v 610.223388671875 381.84808349609375 395.00006103515625
v 288.482666015625 60.11968994140625 395.0000305175781
v 613.7512817382812 378.30804443359375 395.00006103515625
v 284.95489501953125 63.64752197265625 400.0000305175781
v 288.482666015625 60.11968994140625 400.0000305175781
v 613.751220703125 378.3079833984375 395.00006103515625
v 288.482666015625 60.11968994140625 400.0000305175781
v 613.751220703125 378.3079833984375 400.00006103515625
v 613.7512817382812 378.30804443359375 400.00006103515625
v 610.223388671875 381.84808349609375 400.00006103515625
v 284.95489501953125 63.64752197265625 395.0000305175781
v 610.223388671875 381.84808349609375 400.00006103515625
v 284.95489501953125 63.64752197265625 400.0000305175781
v 284.95489501953125 63.64752197265625 400.0000305175781
v 288.482666015625 60.11968994140625 400.0000305175781
v 610.223388671875 381.84808349609375 400.00006103515625
v 613.7512817382812 378.30804443359375 400.00006103515625
v -48.51678466796875 119.04296875 2.5398700017831288e-05
v 162.86004638671875 -93.81109619140625 5.324657104210928e-05
v -48.516845703125 119.04302978515625 400.0000305175781
v 162.8599853515625 -93.81103515625 400.00006103515625
v 162.86016845703125 -93.81109619140625 5.324657468008809e-05
v 253.11883544921875 -3.51568603515625 4.9298036174150184e-05
v 162.860107421875 -93.81103515625 400.00006103515625
v 253.1187744140625 -3.515625 400.00006103515625
v 253.11895751953125 -3.51568603515625 4.929803981212899e-05
v 40.99749755859375 208.60589599609375 2.148165185644757e-05
v 253.118896484375 -3.515625 400.00006103515625
v 40.9974365234375 208.60595703125 400.0000305175781
v 40.99749755859375 208.6058349609375 2.1481659132405184e-05
v -48.51678466796875 119.04296875 2.5398700017831288e-05
v 40.9974365234375 208.60589599609375 400.0000305175781
v -48.516845703125 119.04302978515625 400.0000305175781
v -207.135009765625 456.7382507324219 399.9999694824219
v 40.9974365234375 208.60589599609375 400.0000305175781
v -48.516845703125 119.04302978515625 400.0000305175781
v -380.657958984375 283.2154541015625 400.0
v 78.131103515625 -178.52783203125 400.00006103515625
v 162.85693359375 -93.807861328125 400.00006103515625
v -169.464111328125 -355.21240234375 400.00006103515625
v -592.242431640625 70.5322265625 400.0
v -415.838623046875 247.6683349609375 400.0
v 6.927490234375 -178.0517578125 400.00006103515625
v 253.14324951171875 -3.52783203125 400.00006103515625
v -207.135009765625 456.7381591796875 399.9999694824219
v 253.14324951171875 -3.52783203125 410.00006103515625
v -207.135009765625 456.7381591796875 409.9999694824219
v -207.135009765625 456.7382507324219 399.9999694824219
v -380.657958984375 283.2154541015625 400.0
v -207.135009765625 456.7382507324219 409.9999694824219
v -380.657958984375 283.2154541015625 410.0
v -380.657958984375 283.2154541015625 400.0
v 78.131103515625 -178.5279541015625 400.00006103515625
v -380.657958984375 283.2154541015625 410.0
v 78.131103515625 -178.5279541015625 410.00006103515625
v 78.131103515625 -178.52783203125 400.00006103515625
v 253.143310546875 -3.52783203125 400.00006103515625
v 78.131103515625 -178.52783203125 410.00006103515625
v 253.143310546875 -3.52783203125 410.00006103515625
v -207.135009765625 456.7382507324219 409.9999694824219
v 78.131103515625 -178.52783203125 410.00006103515625
v 253.14324951171875 -3.52783203125 410.00006103515625
v -380.657958984375 283.2154541015625 410.0
v -592.242431640625 70.5322265625 400.0
v -169.464111328125 -355.21240234375 400.00006103515625
v -592.242431640625 70.5322265625 410.0
v -169.464111328125 -355.21240234375 410.00006103515625
v -169.464111328125 -355.21240234375 400.00006103515625
v 6.927490234375 -178.0517578125 400.00006103515625
v -169.464111328125 -355.21240234375 410.00006103515625
v 6.927490234375 -178.0517578125 410.00006103515625
v 6.927490234375 -178.0517578125 400.00006103515625
v -415.838623046875 247.66827392578125 400.0
v 6.927490234375 -178.0517578125 410.00006103515625
v -415.838623046875 247.66827392578125 410.0
v -415.838623046875 247.6683349609375 400.0
v -592.242431640625 70.5322265625 400.0
v -415.838623046875 247.6683349609375 410.0
v -592.242431640625 70.5322265625 410.0
v -169.464111328125 -355.21240234375 410.00006103515625
v -415.838623046875 247.6683349609375 410.0
v -592.242431640625 70.5322265625 410.0
v 6.927490234375 -178.0517578125 410.00006103515625
v -722.674560546875 -159.0943603515625 2.0245859559508972e-05
v -712.066650390625 -148.4864501953125 1.978217733267229e-05
v -722.674560546875 -159.0943603515625 400.0000305175781
v -712.066650390625 -148.4864501953125 400.0000305175781
v -712.066650390625 -148.4864501953125 1.978217733267229e-05
v -722.674560546875 -137.8785400390625 1.8391116100247018e-05
v -712.066650390625 -148.4864501953125 400.0000305175781
v -722.674560546875 -137.8785400390625 400.0000305175781
v -722.674560546875 -137.8785400390625 1.8391116100247018e-05
v -733.282470703125 -148.4864501953125 1.88547983270837e-05
v -722.674560546875 -137.8785400390625 400.0000305175781
v -733.282470703125 -148.4864501953125 400.0000305175781
v -733.282470703125 -148.4864501953125 1.88547983270837e-05
v -722.674560546875 -159.0943603515625 2.0245859559508972e-05
v -733.282470703125 -148.4864501953125 400.0000305175781
v -722.674560546875 -159.0943603515625 400.0000305175781
v -722.674560546875 -137.8785400390625 400.0000305175781
v -722.674560546875 -159.0943603515625 400.0000305175781
v -712.066650390625 -148.4864501953125 400.0000305175781
v -733.282470703125 -148.4864501953125 400.0000305175781
v -960.186767578125 78.41802978515625 -1.0900113920797594e-05
v -949.578857421875 89.02581787109375 -1.1363788871676661e-05
v -960.186767578125 78.4180908203125 399.9999694824219
v -949.578857421875 89.02587890625 399.9999694824219
v -949.578857421875 89.02581787109375 -1.1363788871676661e-05
v -960.186767578125 99.63372802734375 -1.2754850104101934e-05
v -949.578857421875 89.02587890625 399.9999694824219
v -960.186767578125 99.6337890625 399.9999694824219
v -960.186767578125 99.63372802734375 -1.2754850104101934e-05
v -970.794677734375 89.02581787109375 -1.2291160601307638e-05
v -960.186767578125 99.6337890625 399.9999694824219
v -970.794677734375 89.02587890625 399.9999694824219
v -970.794677734375 89.02581787109375 -1.2291160601307638e-05
v -960.186767578125 78.41802978515625 -1.0900113920797594e-05
v -970.794677734375 89.02587890625 399.9999694824219
v -960.186767578125 78.4180908203125 399.9999694824219
v -960.186767578125 99.6337890625 399.9999694824219
v -960.186767578125 78.4180908203125 399.9999694824219
v -949.578857421875 89.02587890625 399.9999694824219
v -970.794677734375 89.02587890625 399.9999694824219
v 1115.802001953125 1078.3448486328125 -7.5721322900790256e-06
v 1126.409912109375 1088.9527587890625 -8.035819519136567e-06
v 1115.802001953125 1078.3448486328125 400.0
v 1126.4097900390625 1088.9527587890625 399.9999694824219
v 1126.409912109375 1088.9527587890625 -8.035819519136567e-06
v 1115.802001953125 1099.560546875 -9.426868018636014e-06
v 1126.4097900390625 1088.9527587890625 399.9999694824219
v 1115.802001953125 1099.560546875 399.9999694824219
v 1115.802001953125 1099.560546875 -9.426868018636014e-06
v 1105.194091796875 1088.9527587890625 -8.963191248767544e-06
v 1115.802001953125 1099.560546875 399.9999694824219
v 1105.194091796875 1088.9527587890625 399.9999694824219
v 1105.194091796875 1088.9527587890625 -8.963191248767544e-06
v 1115.802001953125 1078.3448486328125 -7.5721322900790256e-06
v 1105.194091796875 1088.9527587890625 399.9999694824219
v 1115.802001953125 1078.3448486328125 400.0
v 1115.802001953125 1099.560546875 399.9999694824219
v 1115.802001953125 1078.3448486328125 400.0
v 1126.4097900390625 1088.9527587890625 399.9999694824219
v 1105.194091796875 1088.9527587890625 399.9999694824219
v -376.1900634765625 -413.65966796875 5.764599336544052e-05
v -386.798095703125 -403.0517578125 5.6254932133015245e-05
v -376.1900634765625 -413.65966796875 400.00006103515625
v -386.798095703125 -403.0517578125 400.00006103515625
v -386.798095703125 -403.0517578125 5.6254932133015245e-05
v -397.406005859375 -413.65966796875 5.6718617997830734e-05
v -386.798095703125 -403.0517578125 400.00006103515625
v -397.406005859375 -413.65966796875 400.00006103515625
v -397.406005859375 -413.65966796875 5.6718617997830734e-05
v -386.798095703125 -424.25537109375 5.810861330246553e-05
v -397.406005859375 -413.65966796875 400.00006103515625
v -386.798095703125 -424.25537109375 400.00006103515625
v -386.798095703125 -424.25537109375 5.810861330246553e-05
v -376.1900634765625 -413.65966796875 5.764599336544052e-05
v -386.798095703125 -424.25537109375 400.0
v -376.1900634765625 -413.65966796875 400.0
v -386.798095703125 -403.0517578125 400.00006103515625
v -386.798095703125 -424.25537109375 400.00006103515625
v -376.1900634765625 -413.65966796875 400.00006103515625
v -397.406005859375 -413.65966796875 400.00006103515625
v 709.2100830078125 1548.5718994140625 399.99993896484375
v 656.1828002929688 1601.611572265625 399.99993896484375
v 709.2100830078125 1548.5718994140625 409.99993896484375
v 656.1828002929688 1601.611572265625 409.99993896484375
v 656.1828002929688 1601.611572265625 399.99993896484375
v 391.00958251953125 1336.4381103515625 399.99993896484375
v 656.1828002929688 1601.611572265625 409.99993896484375
v 391.00958251953125 1336.4381103515625 409.99993896484375
v 391.009521484375 1336.43798828125 399.99993896484375
v 532.440185546875 1195.01953125 399.99993896484375
v 391.009521484375 1336.43798828125 409.99993896484375
v 532.440185546875 1195.01953125 409.99993896484375
v 532.440185546875 1195.01953125 399.99993896484375
v 309.7596435546875 971.6553955078125 399.9999694824219
v 532.440185546875 1195.01953125 409.99993896484375
v 309.7596435546875 971.6553955078125 409.9999694824219
v 309.75958251953125 971.6553344726562 399.9999694824219
v 732.5256958007812 545.934814453125 400.0000305175781
v 309.75958251953125 971.6553344726562 409.9999694824219
v 732.5256958007812 545.934814453125 410.0000305175781
v 732.525634765625 545.9349365234375 400.0000305175781
v 1310.2476806640625 1124.3040771484375 400.0
v 732.525634765625 545.9349365234375 410.0000305175781
v 1310.2476806640625 1124.3040771484375 410.0
v 1310.2476806640625 1124.30419921875 400.0
v 815.2769775390625 1619.2872314453125 399.99993896484375
v 1310.2476806640625 1124.30419921875 410.0
v 815.2769775390625 1619.2872314453125 409.99993896484375
v 815.2769775390625 1619.287109375 399.99993896484375
v 709.2101440429688 1548.5718994140625 399.99993896484375
v 815.2769775390625 1619.287109375 409.99993896484375
v 709.2101440429688 1548.5718994140625 409.99993896484375
v 732.525634765625 545.9349365234375 400.0000305175781
v 656.1828002929688 1601.611572265625 399.99993896484375
v 709.2100830078125 1548.5718994140625 399.99993896484375
v 532.440185546875 1195.01953125 399.99993896484375
v 309.75958251953125 971.6553344726562 399.9999694824219
v 391.009521484375 1336.43798828125 399.99993896484375
v 1310.2476806640625 1124.30419921875 400.0
v 815.2769775390625 1619.287109375 399.99993896484375
v 732.525634765625 545.9349365234375 410.0000305175781
v 709.2100830078125 1548.5718994140625 409.99993896484375
v 656.1828002929688 1601.611572265625 409.99993896484375
v 532.440185546875 1195.01953125 409.99993896484375
v 309.75958251953125 971.6553344726562 409.9999694824219
v 391.009521484375 1336.43798828125 409.99993896484375
v 1310.2476806640625 1124.30419921875 410.0
v 815.2769775390625 1619.287109375 409.99993896484375
v 408.6973876953125 1354.1259765625 409.99993896484375
v 408.70977783203125 1000.5739135742188 409.9999694824219
v 408.6973876953125 1354.1259765625 419.9999084472656
v 408.70977783203125 1000.5739135742188 419.99993896484375
v 408.70977783203125 1000.5738525390625 409.9999694824219
v 479.4128112792969 1000.5738525390625 409.9999694824219
v 408.70977783203125 1000.5738525390625 419.99993896484375
v 479.4128112792969 1000.5738525390625 419.99993896484375
v 479.4128112792969 1000.5738525390625 409.9999694824219
v 479.4128112792969 1354.1259765625 409.99993896484375
v 479.4128112792969 1000.5738525390625 419.99993896484375
v 479.4128112792969 1354.1259765625 419.9999084472656
v 479.4128112792969 1354.1259765625 409.99993896484375
v 408.6973876953125 1354.1259765625 409.99993896484375
v 479.4128112792969 1354.1259765625 419.9999084472656
v 408.6973876953125 1354.1259765625 419.9999084472656
v 408.6973876953125 1354.1259765625 409.99993896484375
v 479.4128112792969 1354.1259765625 409.99993896484375
v 408.70977783203125 1000.5738525390625 409.9999694824219
v 479.4128112792969 1000.5738525390625 409.9999694824219
v 408.6973876953125 1354.1259765625 419.9999084472656
v 408.70977783203125 1000.5738525390625 419.99993896484375
v 479.4128112792969 1354.1259765625 419.9999084472656
v 479.4128112792969 1000.5738525390625 419.99993896484375
v 614.703369140625 1278.50341796875 420.0000305175781
v 468.1945495605469 1425.0244140625 420.0
v 614.703369140625 1278.50341796875 430.0000305175781
v 468.1945495605469 1425.0244140625 430.0
v 468.1945495605469 1425.0244140625 420.0
v 167.66961669921875 1124.49951171875 420.0
v 468.1945495605469 1425.0244140625 430.0
v 167.66961669921875 1124.49951171875 430.0
v 167.669677734375 1124.49951171875 420.0
v 331.866455078125 995.6664428710938 420.0000305175781
v 167.669677734375 1124.49951171875 430.0
v 331.866455078125 995.6664428710938 430.0000305175781
v 331.866455078125 995.6664428710938 420.0000305175781
v 614.703369140625 1278.50341796875 420.0000305175781
v 331.866455078125 995.6664428710938 430.0000305175781
v 614.703369140625 1278.50341796875 430.0000305175781
v 614.703369140625 1278.50341796875 420.0000305175781
v 331.866455078125 995.6664428710938 420.0000305175781
v 468.1945495605469 1425.0244140625 420.0
v 167.669677734375 1124.49951171875 420.0
v 614.703369140625 1278.50341796875 430.0000305175781
v 468.1945495605469 1425.0244140625 430.0
v 331.866455078125 995.6664428710938 430.0000305175781
v 167.669677734375 1124.49951171875 430.0
v 1327.9356689453125 1778.38134765625 409.9999694824219
v 832.9649658203125 1283.41064453125 409.9999694824219
v 1327.9356689453125 1778.38134765625 419.99993896484375
v 832.9649658203125 1283.41064453125 419.99993896484375
v 832.9650268554688 1283.41064453125 409.9999694824219
v 868.316650390625 1248.0469970703125 409.9999694824219
v 832.9650268554688 1283.41064453125 419.99993896484375
v 868.316650390625 1248.0469970703125 419.99993896484375
v 868.316650390625 1248.0469970703125 409.9999694824219
v 1363.299560546875 1743.02978515625 409.9999694824219
v 868.316650390625 1248.0469970703125 419.99993896484375
v 1363.299560546875 1743.02978515625 419.99993896484375
v 1363.299560546875 1743.02978515625 409.9999694824219
v 1327.9356689453125 1778.38134765625 409.9999694824219
v 1363.299560546875 1743.02978515625 419.99993896484375
v 1327.9356689453125 1778.38134765625 419.99993896484375
v 832.9650268554688 1283.41064453125 409.9999694824219
v 1327.9356689453125 1778.38134765625 409.9999694824219
v 868.316650390625 1248.0469970703125 409.9999694824219
v 1363.299560546875 1743.02978515625 409.9999694824219
v 832.9650268554688 1283.41064453125 419.99993896484375
v 868.316650390625 1248.0469970703125 419.99993896484375
v 1327.9356689453125 1778.38134765625 419.99993896484375
v 1363.299560546875 1743.02978515625 419.99993896484375
v 1101.910400390625 1085.5955810546875 -8.813234671833925e-06
v 649.2613525390625 626.0863647460938 1.1572418770811055e-05
v 1101.910400390625 1085.5955810546875 4.999990940093994
v 649.2613525390625 626.0863647460938 5.000011444091797
v 649.2614135742188 626.08642578125 5.000011444091797
v 765.911865234375 516.4549560546875 5.000026702880859
v 1101.910400390625 1085.5955810546875 4.999990940093994
v 1115.6312255859375 -767.02880859375 5.0001540184021
v 295.57501220703125 53.40576171875 5.0000457763671875
v 2035.076904296875 152.001953125 5.000113487243652
f 2 1 3
f 4 2 3
f 18 17 19
f 19 20 18
f 14 13 15
f 16 14 15
f 10 9 11
f 12 10 11
f 6 5 7
f 8 6 7
f 1276 1278 1279
f 1276 1275 1277
f 1277 1278 1276
f 1278 1277 1280
f 1272 1271 1273
f 1274 1272 1273
f 1018 1017 1019
f 1020 1018 1019
f 1014 1013 1015
f 1016 1014 1015
f 1010 1009 1011
f 1012 1010 1011
f 1006 1005 1007
f 1008 1006 1007
f 958 957 959
f 959 960 958
f 954 953 955
f 955 956 954
f 950 949 951
f 952 950 951
f 946 945 947
f 948 946 947
f 942 941 943
f 944 942 943
f 938 937 939
f 940 938 939
f 934 933 935
f 936 934 935
f 930 929 931
f 932 930 931
f 926 925 927
f 928 926 927
f 922 921 923
f 924 922 923
f 918 917 919
f 919 920 918
f 914 913 915
f 916 914 915
f 910 909 911
f 912 910 911
f 906 905 907
f 908 906 907
f 902 901 903
f 904 902 903
f 830 829 831
f 831 832 830
f 832 833 1281
f 834 1281 833
f 827 826 823
f 823 828 827
f 823 824 828
f 824 823 825
f 555 556 558
f 556 555 557
f 535 536 538
f 536 535 537
f 448 447 449
f 447 450 449
f 384 383 385
f 386 385 383
f 379 380 382
f 380 379 381
f 621 626 620
f 620 619 621
f 619 622 1282
f 1282 622 623
f 625 1283 622
f 622 624 625
f 613 618 612
f 612 611 613
f 1284 612 614
f 614 612 615
f 1285 615 617
f 617 616 1285
f 22 21 23
f 23 24 22
f 26 25 27
f 28 26 27
f 30 29 31
f 32 30 31
f 34 33 35
f 36 34 35
f 38 37 39
f 40 38 39
f 42 41 43
f 43 44 42
f 46 45 47
f 48 46 47
f 50 49 51
f 52 50 51
f 54 53 55
f 56 54 55
f 58 57 59
f 60 58 59
f 62 61 63
f 63 64 62
f 364 363 365
f 366 364 365
f 368 367 369
f 370 368 369
f 372 371 373
f 374 372 373
f 376 375 377
f 378 376 377
f 432 431 433
f 434 432 433
f 436 435 437
f 438 436 437
f 440 439 441
f 442 440 441
f 444 443 445
f 446 444 445
f 452 451 453
f 453 454 452
f 500 499 501
f 502 500 501
f 504 503 505
f 506 504 505
f 508 507 509
f 510 508 509
f 512 511 513
f 514 512 513
f 516 515 517
f 517 518 516
f 520 519 521
f 522 520 521
f 524 523 525
f 526 524 525
f 528 527 529
f 530 528 529
f 532 531 533
f 534 532 533
f 540 539 541
f 542 540 541
f 544 543 545
f 546 544 545
f 548 547 549
f 550 548 549
f 552 551 553
f 554 552 553
f 560 559 561
f 562 560 561
f 564 563 565
f 566 564 565
f 568 567 569
f 570 568 569
f 572 571 573
f 574 572 573
f 576 575 577
f 577 578 576
f 580 579 581
f 582 580 581
f 584 583 585
f 586 584 585
f 588 587 589
f 590 588 589
f 592 591 593
f 594 592 593
f 596 595 597
f 598 596 597
f 600 599 601
f 602 600 601
f 604 603 605
f 606 604 605
f 608 607 609
f 610 608 609
f 716 715 717
f 718 716 717
f 720 719 721
f 722 720 721
f 724 723 725
f 726 724 725
f 728 727 729
f 730 728 729
f 732 731 733
f 733 734 732
f 736 735 737
f 737 738 736
f 780 779 781
f 782 780 781
f 784 783 785
f 786 784 785
f 788 787 789
f 790 788 789
f 792 791 793
f 794 792 793
f 796 795 797
f 797 798 796
f 800 799 801
f 802 800 801
f 804 803 805
f 806 804 805
f 808 807 809
f 810 808 809
f 812 811 813
f 814 812 813
f 816 815 817
f 818 816 817
f 820 819 821
f 822 820 821
f 66 65 67
f 68 66 67
f 132 131 133
f 134 132 133
f 128 127 129
f 130 128 129
f 124 123 125
f 126 124 125
f 120 119 121
f 122 120 121
f 106 105 107
f 108 106 107
f 102 101 103
f 104 102 103
f 98 97 99
f 100 98 99
f 94 93 95
f 96 94 95
f 90 89 91
f 92 90 91
f 86 85 87
f 88 86 87
f 78 77 79
f 80 78 79
f 74 73 75
f 76 74 75
f 70 69 71
f 72 70 71
f 81 82 84
f 82 81 83
f 112 113 114
f 113 112 109
f 109 110 113
f 110 109 111
f 116 115 117
f 118 117 115
f 156 155 157
f 156 157 158
f 1200 1199 1201
f 1202 1200 1201
f 1194 1191 1195
f 1198 1197 1191
f 1191 1192 1198
f 1192 1191 1193
f 1193 1191 1194
f 1194 1196 1193
f 220 219 221
f 222 221 219
f 135 136 138
f 136 135 137
f 1206 1204 1205
f 1204 1203 1205
f 1067 1068 1070
f 1068 1067 1069
f 1047 1048 1050
f 1048 1047 1049
f 1028 1027 1029
f 1030 1029 1027
f 1022 1021 1023
f 1024 1023 1021
f 1024 1025 1023
f 1026 1023 1025
f 1187 1183 1186
f 1183 1189 1190
f 1190 1185 1183
f 1184 1183 1185
f 1186 1183 1184
f 1184 1188 1186
f 289 292 288
f 288 287 289
f 290 289 1286
f 291 289 290
f 228 227 229
f 230 228 229
f 224 223 225
f 225 226 224
f 215 213 216
f 213 214 217
f 214 213 215
f 215 218 214
f 190 189 191
f 192 190 191
f 187 185 183
f 186 183 184
f 184 183 185
f 185 188 184
f 152 151 153
f 154 152 153
f 148 147 149
f 150 148 149
f 144 143 145
f 146 144 145
f 140 139 141
f 142 140 141
f 1268 1267 1269
f 1269 1270 1268
f 1264 1263 1265
f 1265 1266 1264
f 1260 1259 1261
f 1262 1260 1261
f 1256 1255 1257
f 1258 1256 1257
f 1252 1251 1253
f 1254 1252 1253
f 1248 1247 1249
f 1250 1248 1249
f 1244 1243 1245
f 1245 1246 1244
f 1240 1239 1241
f 1241 1242 1240
f 1236 1235 1237
f 1238 1236 1237
f 1232 1231 1233
f 1234 1232 1233
f 1228 1227 1229
f 1230 1228 1229
f 1224 1223 1225
f 1226 1224 1225
f 1220 1219 1221
f 1222 1220 1221
f 1216 1215 1217
f 1216 1217 1218
f 1212 1211 1213
f 1214 1212 1213
f 1208 1207 1209
f 1210 1208 1209
f 1180 1179 1181
f 1182 1180 1181
f 1176 1175 1177
f 1178 1176 1177
f 1172 1171 1173
f 1174 1172 1173
f 1168 1167 1169
f 1170 1168 1169
f 1164 1163 1165
f 1166 1164 1165
f 1160 1159 1161
f 1162 1160 1161
f 1156 1155 1157
f 1158 1156 1157
f 1152 1151 1153
f 1154 1152 1153
f 1064 1063 1065
f 1066 1064 1065
f 1060 1059 1061
f 1062 1060 1061
f 1056 1055 1057
f 1058 1056 1057
f 1052 1051 1053
f 1054 1052 1053
f 1044 1043 1045
f 1046 1044 1045
f 1040 1039 1041
f 1042 1040 1041
f 1036 1035 1037
f 1038 1036 1037
f 1032 1031 1033
f 1034 1032 1033
f 360 359 361
f 361 362 360
f 356 355 357
f 358 356 357
f 352 351 353
f 354 352 353
f 348 347 349
f 350 348 349
f 344 343 345
f 346 344 345
f 340 339 341
f 341 342 340
f 336 338 335
f 336 335 337
f 332 331 333
f 334 332 333
f 328 327 329
f 330 328 329
f 324 323 325
f 326 324 325
f 320 319 321
f 322 320 321
f 310 309 311
f 312 310 311
f 306 305 307
f 308 306 307
f 302 301 303
f 304 302 303
f 298 297 299
f 300 298 299
f 294 293 295
f 296 294 295
f 284 283 285
f 285 286 284
f 280 279 281
f 282 280 281
f 276 275 277
f 278 276 277
f 272 271 273
f 274 272 273
f 268 267 269
f 270 268 269
f 264 263 265
f 265 266 264
f 260 259 261
f 262 260 261
f 256 255 257
f 258 256 257
f 252 251 253
f 254 252 253
f 248 247 249
f 250 248 249
f 240 239 241
f 242 240 241
f 236 235 237
f 238 236 237
f 210 209 211
f 212 210 211
f 206 205 207
f 208 206 207
f 202 201 203
f 204 202 203
f 198 197 199
f 200 198 199
f 176 175 177
f 178 176 177
f 172 171 173
f 174 172 173
f 168 167 169
f 170 168 169
f 164 163 165
f 166 164 165
f 315 318 314
f 314 313 315
f 1287 314 316
f 316 314 317
f 243 244 246
f 244 243 245
f 234 232 233
f 232 231 233
f 196 194 195
f 194 193 195
f 179 180 182
f 180 179 181
f 160 159 161
f 162 161 159
f 418 416 417
f 416 415 417
f 412 411 413
f 414 412 413
f 1148 1150 1147
f 1148 1147 1149
f 1144 1143 1145
f 1146 1144 1145
f 1140 1139 1141
f 1142 1140 1141
f 1136 1135 1137
f 1138 1136 1137
f 1132 1131 1133
f 1134 1132 1133
f 1128 1130 1127
f 1128 1127 1129
f 1124 1123 1125
f 1126 1124 1125
f 1120 1119 1121
f 1122 1120 1121
f 1116 1115 1117
f 1118 1116 1117
f 1112 1111 1113
f 1114 1112 1113
f 1108 1110 1107
f 1108 1107 1109
f 1104 1103 1105
f 1106 1104 1105
f 1100 1099 1101
f 1102 1100 1101
f 1096 1095 1097
f 1098 1096 1097
f 1092 1091 1093
f 1094 1092 1093
f 1088 1090 1087
f 1088 1087 1089
f 1084 1083 1085
f 1086 1084 1085
f 1080 1079 1081
f 1082 1080 1081
f 1076 1075 1077
f 1078 1076 1077
f 1072 1071 1073
f 1074 1072 1073
f 1002 1001 1003
f 1003 1004 1002
f 998 997 999
f 1000 998 999
f 994 993 995
f 996 994 995
f 990 989 991
f 992 990 991
f 986 985 987
f 988 986 987
f 982 981 983
f 983 984 982
f 978 977 979
f 979 980 978
f 896 895 897
f 897 898 896
f 1288 899 898
f 899 1288 900
f 408 407 409
f 410 409 407
f 403 404 406
f 404 403 405
f 427 428 430
f 428 427 429
f 665 664 662
f 662 663 665
f 1289 662 660
f 660 662 659
f 1290 659 661
f 661 666 1290
f 670 672 673
f 673 671 670
f 669 670 1291
f 667 670 669
f 668 667 1292
f 1292 674 668
f 892 891 893
f 894 892 893
f 888 887 889
f 890 888 889
f 884 883 885
f 886 884 885
f 880 879 881
f 882 880 881
f 876 875 877
f 878 876 877
f 872 871 873
f 874 872 873
f 866 865 867
f 867 868 866
f 868 869 1293
f 870 1293 869
f 860 859 861
f 861 862 860
f 1294 863 862
f 863 1294 864
f 420 419 421
f 422 420 421
f 424 423 425
f 426 424 425
f 472 471 473
f 473 474 472
f 476 475 477
f 477 478 476
f 480 479 481
f 482 480 481
f 484 483 485
f 486 484 485
f 488 487 489
f 490 488 489
f 492 491 493
f 494 492 493
f 496 495 497
f 497 498 496
f 676 675 677
f 678 676 677
f 680 679 681
f 682 680 681
f 684 683 685
f 686 684 685
f 688 687 689
f 690 688 689
f 692 691 693
f 694 692 693
f 696 695 697
f 698 696 697
f 700 699 701
f 702 700 701
f 704 703 705
f 706 704 705
f 713 712 710
f 710 711 713
f 1295 710 708
f 708 710 707
f 1296 707 709
f 709 714 1296
f 756 755 757
f 757 758 756
f 760 759 761
f 761 762 760
f 764 763 765
f 766 764 765
f 768 767 769
f 770 768 769
f 772 771 773
f 774 772 773
f 776 775 777
f 778 776 777
f 388 387 389
f 390 388 389
f 974 973 975
f 976 974 975
f 970 969 971
f 972 970 971
f 966 965 967
f 968 966 967
f 962 961 963
f 964 962 963
f 856 855 857
f 858 856 857
f 852 851 853
f 854 852 853
f 848 847 849
f 850 848 849
f 844 843 845
f 846 844 845
f 840 839 841
f 842 840 841
f 836 835 837
f 838 836 837
f 752 751 753
f 754 752 753
f 748 747 749
f 750 748 749
f 744 743 745
f 746 744 745
f 740 739 741
f 742 740 741
f 656 655 657
f 658 656 657
f 652 651 653
f 654 652 653
f 648 647 649
f 650 648 649
f 644 643 645
f 646 644 645
f 640 639 641
f 642 640 641
f 636 635 637
f 638 636 637
f 632 631 633
f 634 632 633
f 628 627 629
f 630 628 629
f 468 467 469
f 470 468 469
f 464 463 465
f 466 464 465
f 460 459 461
f 462 460 461
f 456 455 457
f 458 456 457
f 400 399 401
f 402 400 401
f 396 395 397
f 398 396 397
f 392 391 393
f 394 392 393
