# from FinancialDistrict_Block12_Generic_0005_LOD_0.pskx
v 253.49110412597656 171.9116668701172 -5.885519840376219e-07
v -6.2989044189453125 476.08648681640625 99.99996185302734
v 253.4910888671875 171.9116973876953 300.0
v -6.29888916015625 476.0864562988281 -200.0000457763672
v -6.29888916015625 476.0864562988281 -200.0000457763672
v -25.30517578125 459.8510437011719 -200.0000457763672
v -6.2989044189453125 476.08648681640625 99.99996185302734
v -25.305206298828125 459.85107421875 99.99996948242188
v -25.30517578125 459.8510437011719 -200.0000457763672
v 234.48480224609375 155.67623901367188 2.084321430728675e-12
v -25.305206298828125 459.85107421875 99.99996948242188
v 234.4847869873047 155.67626953125 300.0
v -6.2989044189453125 476.08648681640625 99.99996185302734
v 234.4847869873047 155.67630004882812 300.0
v 253.4910888671875 171.9116973876953 300.0
v -25.305206298828125 459.85107421875 99.99996948242188
v 234.4726104736328 155.68844604492188 -200.0
v -69.69000244140625 -104.08932495117188 -1.4428332178795245e-05
v 234.47259521484375 155.68849182128906 299.9999084472656
v -69.69000244140625 -104.08929443359375 499.99993896484375
v -69.69000244140625 -104.08932495117188 9.413525731361005e-06
v -53.4423828125 -123.1201171875 1.1787455150624737e-05
v -69.69000244140625 -104.08929443359375 500.0000305175781
v -53.4423828125 -123.12008666992188 500.0000305175781
v -53.4423828125 -123.1201171875 1.1787455150624737e-05
v 250.70787048339844 136.68214416503906 300.0
v -53.4423828125 -123.12008666992188 500.0000305175781
v 250.7078857421875 136.68209838867188 -200.0
v -69.69000244140625 -104.08929443359375 500.0000305175781
v -53.4423828125 -123.12008666992188 500.0000305175781
v 234.47259521484375 155.68849182128906 300.0
v 250.7078857421875 136.68218994140625 300.0
v 190.1000213623047 -408.26409912109375 4.7361114411614835e-05
v -69.67779541015625 -104.10150146484375 9.415125532541424e-06
v 190.10000610351562 -408.2640380859375 400.00006103515625
v -69.67779541015625 -104.10147094726562 400.0000305175781
v -69.67779541015625 -104.10150146484375 9.415125532541424e-06
v -373.84033203125 -363.87939453125 1.8830260160029866e-05
v -69.67779541015625 -104.10147094726562 400.0000305175781
v -373.84033203125 -363.87933349609375 400.0
v -373.84039306640625 -363.87939453125 1.8830258341040462e-05
v 990.0025024414062 -1960.72998046875 0.00021804684365633875
v -373.84039306640625 -363.87933349609375 400.0
v 990.00244140625 -1960.72998046875 400.0002136230469
v 798.4251708984375 111.2915267944336 2.8530856070574373e-05
v 190.1000213623047 -408.26409912109375 4.7361114411614835e-05
v 798.4251708984375 111.29156494140625 400.0000305175781
v 190.10000610351562 -408.2640380859375 400.00006103515625
v 206.3354034423828 -427.28265380859375 400.00006103515625
v 190.10000610351562 -408.2640380859375 400.00006103515625
v -53.4423828125 -123.12008666992188 400.0000305175781
v -338.59869384765625 -366.66253662109375 400.0
v 668.0419311523438 -1545.2880859375 400.00018310546875
v 449.8779296875 -712.4266967773438 400.00006103515625
v 990.00244140625 -1960.72998046875 400.0002136230469
v 649.0421752929688 -1561.5177001953125 400.00018310546875
v 1294.1650390625 -1700.9521484375 400.0002136230469
v 1058.203125 -192.87106323242188 400.00006103515625
v 814.6591186523438 92.28398132324219 400.0000305175781
v 798.4251708984375 111.29156494140625 500.0000305175781
v 190.09999084472656 -408.2640380859375 500.00006103515625
v 190.10000610351562 -408.2640380859375 400.00006103515625
v 206.33538818359375 -427.28265380859375 400.00006103515625
v 190.09999084472656 -408.2640380859375 500.00006103515625
v 206.33538818359375 -427.28265380859375 500.00006103515625
v 206.33538818359375 -427.28265380859375 400.00006103515625
v 814.6605834960938 92.28526306152344 400.0000305175781
v 206.33538818359375 -427.28265380859375 500.00006103515625
v 814.6605834960938 92.28527069091797 500.0000305175781
v 814.6605834960938 92.28526306152344 400.0000305175781
v 798.4251708984375 111.29156494140625 400.0000305175781
v 814.6605834960938 92.28527069091797 500.0000305175781
v 798.4251708984375 111.29156494140625 500.0000305175781
v 190.09999084472656 -408.2640380859375 500.00006103515625
v 206.33538818359375 -427.28265380859375 500.00006103515625
v 798.4251708984375 111.29156494140625 500.0000305175781
v 814.6605834960938 92.28527069091797 500.0000305175781
v -69.67779541015625 -104.10147094726562 500.0000305175781
v -373.84039306640625 -363.87933349609375 500.0
v 649.03564453125 -1561.523193359375 400.00018310546875
v -373.84039306640625 -363.87933349609375 500.0
v 649.03564453125 -1561.523193359375 500.00018310546875
v 649.03564453125 -1561.5234375 400.00018310546875
v 668.0419311523438 -1545.2880859375 400.00018310546875
v 649.03564453125 -1561.5234375 500.00018310546875
v 668.0419311523438 -1545.2880859375 500.00018310546875
v 668.0419311523438 -1545.2880859375 400.00018310546875
v -338.59893798828125 -366.66241455078125 400.0
v 668.0419311523438 -1545.2880859375 500.00018310546875
v -338.59893798828125 -366.66241455078125 500.0
v -338.59869384765625 -366.66253662109375 400.0
v -53.4423828125 -123.1201171875 400.0000305175781
v -338.59869384765625 -366.66253662109375 500.0
v -53.4423828125 -123.1201171875 500.0000305175781
v -53.4423828125 -123.12008666992188 400.0000305175781
v -53.4423828125 -123.12008666992188 500.0000305175781
v -69.67779541015625 -104.10147094726562 500.0000305175781
v -373.84039306640625 -363.87933349609375 500.0
v -338.59869384765625 -366.66253662109375 500.0
v -69.67779541015625 -104.10147094726562 500.0000305175781
v 649.03564453125 -1561.5234375 500.00018310546875
v 668.0419311523438 -1545.2880859375 500.00018310546875
v -15.422073364257812 -90.64790344238281 400.0000305175781
v -53.4423828125 -123.1201171875 400.0000305175781
v 190.08779907226562 -408.25189208984375 400.00006103515625
v 230.1390838623047 -378.15850830078125 400.00006103515625
v -15.422073364257812 -90.64790344238281 375.0000305175781
v -15.422073364257812 -90.64790344238281 400.0000305175781
v 230.1390838623047 -378.15850830078125 400.00006103515625
v 230.1390838623047 -378.15850830078125 375.00006103515625
v 22.598251342773438 -58.17567443847656 375.0000305175781
v -15.422073364257812 -90.64790344238281 375.0000305175781
v 230.1390838623047 -378.15850830078125 375.00006103515625
v 270.19036865234375 -348.0651550292969 375.0000305175781
v 22.598251342773438 -58.17567443847656 350.0000305175781
v 22.598251342773438 -58.17567443847656 375.0000305175781
v 270.19036865234375 -348.0651550292969 375.0000305175781
v 270.19036865234375 -348.0651550292969 350.0000305175781
v 60.61857604980469 -25.70343017578125 350.0000305175781
v 22.598251342773438 -58.17567443847656 350.0000305175781
v 270.19036865234375 -348.0651550292969 350.0000305175781
v 310.24163818359375 -317.9717712402344 350.0000305175781
v 60.61857604980469 -25.70343017578125 325.0000305175781
v 60.61857604980469 -25.70343017578125 350.0000305175781
v 310.24163818359375 -317.9717712402344 350.0000305175781
v 310.24163818359375 -317.9717712402344 325.0000305175781
v 98.63888549804688 6.768798828125 325.0
v 60.61857604980469 -25.70343017578125 325.0000305175781
v 310.24163818359375 -317.9717712402344 325.0000305175781
v 350.29290771484375 -287.8784484863281 325.0000305175781
v 98.63890075683594 6.768798828125 300.0
v 98.63888549804688 6.768798828125 325.0
v 350.29290771484375 -287.8784484863281 325.0000305175781
v 350.29290771484375 -287.8784484863281 300.0000305175781
v 136.65921020507812 39.241004943847656 300.0
v 98.63890075683594 6.768798828125 300.0
v 350.29290771484375 -287.8784484863281 300.0000305175781
v 390.34417724609375 -257.7850036621094 300.0000305175781
v 136.65921020507812 39.241004943847656 275.0
v 136.65921020507812 39.241004943847656 300.0
v 390.34417724609375 -257.7850036621094 300.0000305175781
v 390.34417724609375 -257.7850036621094 275.0000305175781
v 174.67953491210938 71.71324157714844 275.0
v 136.65921020507812 39.241004943847656 275.0
v 390.34417724609375 -257.7850036621094 275.0000305175781
v 430.39544677734375 -227.69168090820312 275.0000305175781
v 174.67953491210938 71.71324157714844 250.0
v 174.67953491210938 71.71324157714844 275.0
v 430.39544677734375 -227.69168090820312 275.0000305175781
v 430.39544677734375 -227.69168090820312 250.0000457763672
v 212.6998748779297 104.18547058105469 250.0
v 174.67953491210938 71.71324157714844 250.0
v 430.39544677734375 -227.69168090820312 250.0000457763672
v 470.4467468261719 -197.59829711914062 250.0000457763672
v 212.6998748779297 104.18546295166016 225.0
v 212.6998748779297 104.18547058105469 250.0
v 470.4467468261719 -197.59829711914062 250.0000457763672
v 470.4467468261719 -197.59829711914062 225.0000457763672
v 250.72019958496094 136.65768432617188 225.0
v 212.6998748779297 104.18546295166016 225.0
v 470.4467468261719 -197.59829711914062 225.0000457763672
v 510.4980163574219 -167.50491333007812 225.0000457763672
v 250.72019958496094 136.65768432617188 200.0
v 250.72019958496094 136.65768432617188 225.0
v 510.4980163574219 -167.50491333007812 225.0000457763672
v 510.4980163574219 -167.50491333007812 200.0000457763672
v 506.1644592285156 453.4850769042969 199.99998474121094
v 253.4788818359375 171.9238739013672 200.0
v 538.6351318359375 415.4662780761719 200.0
v 221.0081787109375 209.9426727294922 200.0
v 506.1644592285156 453.4850769042969 174.99998474121094
v 221.0081787109375 209.9426727294922 200.0
v 506.1644592285156 453.4850769042969 199.99998474121094
v 221.0081787109375 209.94265747070312 175.0
v 473.69378662109375 491.5038757324219 174.99998474121094
v 221.0081787109375 209.94265747070312 175.0
v 506.1644592285156 453.4850769042969 174.99998474121094
v 188.5374755859375 247.96144104003906 174.99998474121094
v 473.69378662109375 491.50384521484375 149.99998474121094
v 188.5374755859375 247.96144104003906 174.99998474121094
v 473.69378662109375 491.5038757324219 174.99998474121094
v 188.5374755859375 247.96144104003906 149.99998474121094
v 441.2230529785156 529.5226440429688 149.99998474121094
v 188.5374755859375 247.96144104003906 149.99998474121094
v 473.69378662109375 491.50384521484375 149.99998474121094
v 156.0667724609375 285.980224609375 149.99998474121094
v 441.22308349609375 529.5226440429688 124.9999771118164
v 156.0667724609375 285.980224609375 149.99998474121094
v 441.2230529785156 529.5226440429688 149.99998474121094
v 156.0667724609375 285.980224609375 124.99999237060547
v 408.75238037109375 567.5414428710938 124.99996948242188
v 156.0667724609375 285.980224609375 124.99999237060547
v 441.22308349609375 529.5226440429688 124.9999771118164
v 123.5960693359375 323.9990234375 124.9999771118164
v 408.75238037109375 567.5414428710938 99.99996948242188
v 123.5960693359375 323.9990234375 124.9999771118164
v 408.75238037109375 567.5414428710938 124.99996948242188
v 123.5960693359375 323.9990234375 99.9999771118164
v 376.28167724609375 605.5602416992188 99.99996948242188
v 123.5960693359375 323.9990234375 99.9999771118164
v 408.75238037109375 567.5414428710938 99.99996948242188
v 91.1253662109375 362.017822265625 99.9999771118164
v 376.28167724609375 605.5602416992188 74.99996948242188
v 91.1253662109375 362.017822265625 99.9999771118164
v 376.28167724609375 605.5602416992188 99.99996948242188
v 91.1253662109375 362.0177917480469 74.9999771118164
v 343.81097412109375 643.5790405273438 74.99996185302734
v 91.1253662109375 362.0177917480469 74.9999771118164
v 376.28167724609375 605.5602416992188 74.99996948242188
v 58.6546630859375 400.03656005859375 74.99996948242188
v 343.81097412109375 643.5790405273438 49.999961853027344
v 58.6546630859375 400.03656005859375 74.99996948242188
v 343.81097412109375 643.5790405273438 74.99996185302734
v 58.6546630859375 400.03656005859375 49.999969482421875
v 311.34027099609375 681.5978393554688 49.99995803833008
v 58.6546630859375 400.03656005859375 49.999969482421875
v 343.81097412109375 643.5790405273438 49.999961853027344
v 26.1839599609375 438.05535888671875 49.999969482421875
v 311.34027099609375 681.5978393554688 24.999958038330078
v 26.1839599609375 438.05535888671875 49.999969482421875
v 311.34027099609375 681.5978393554688 49.99995803833008
v 26.1839599609375 438.05535888671875 24.99996566772461
v 278.86956787109375 719.6166381835938 24.99995231628418
v 26.1839599609375 438.05535888671875 24.99996566772461
v 311.34027099609375 681.5978393554688 24.999958038330078
v -6.2867431640625 476.07415771484375 24.99995994567871
v 278.86956787109375 719.6166381835938 -4.7361114411614835e-05
v -6.2867431640625 476.07415771484375 24.99995994567871
v 278.86956787109375 719.6166381835938 24.99995231628418
v -6.2867431640625 476.07415771484375 -3.8534533814527094e-05
v 494.2626037597656 -148.48629760742188 200.0000457763672
v 269.72650146484375 152.90528869628906 200.0
v 250.72019958496094 136.66998291015625 200.0
v 798.4251708984375 111.29151153564453 200.00003051757812
v 538.6473388671875 415.4541015625 200.0
v 253.49237060546875 171.91018676757812 200.0
v 269.72650146484375 152.90528869628906 200.0
v 253.4910888671875 171.91168212890625 200.0
v 269.72650146484375 152.90530395507812 300.0
v 250.72019958496094 136.66998291015625 200.0
v 269.72650146484375 152.90528869628906 200.0
v 250.72018432617188 136.6699981689453 300.0
v 269.72650146484375 152.90530395507812 300.0
v 269.72650146484375 152.90530395507812 300.0
v 250.72018432617188 136.6699981689453 300.0
v 98.05899047851562 984.66796875 -7.843611820135266e-05
v 227.94178771972656 832.58056640625 -5.946285818936303e-05
v 98.0589599609375 984.6680297851562 399.99993896484375
v 227.9417724609375 832.5806274414062 399.99993896484375
v 635.4368896484375 1180.615234375 -7.207683665910736e-05
v 505.54180908203125 1332.70263671875 -9.105063509196043e-05
v 635.4368286132812 1180.615234375 399.99993896484375
v 505.54180908203125 1332.70263671875 399.9999084472656
v 505.54180908203125 1332.70263671875 -9.105063509196043e-05
v 98.05900573730469 984.6680908203125 -7.843612547731027e-05
v 285.02716064453125 1144.359130859375 3.2105157375335693
v 285.0271301269531 1144.359130859375 258.21051025390625
v 191.11831665039062 1064.15087890625 258.21051025390625
v 262.2153015136719 1124.8753662109375 303.21063232421875
v 262.2153015136719 1124.87548828125 368.9106140136719
v 212.4854278564453 1082.4007568359375 368.9106140136719
v 505.54180908203125 1332.70263671875 399.9999084472656
v 98.05897521972656 984.6681518554688 399.99993896484375
v 212.4854278564453 1082.400634765625 303.21063232421875
v 191.11831665039062 1064.15087890625 3.2105188369750977
v 126.255126953125 982.4485473632812 409.99993896484375
v 243.15048217773438 845.5689086914062 379.99993896484375
v 126.255126953125 982.4485473632812 379.99993896484375
v 243.15048217773438 845.5689086914062 409.99993896484375
v 126.255126953125 982.4485473632812 379.99993896484375
v 212.73304748535156 819.5924682617188 379.99993896484375
v 69.86277770996094 986.8876342773438 379.99993896484375
v 243.15048217773438 845.5689086914062 379.99993896484375
v 69.86277770996094 986.8876342773438 379.99993896484375
v 212.73304748535156 819.5924682617188 409.99993896484375
v 69.86276245117188 986.8876342773438 409.99993896484375
v 212.73304748535156 819.5924682617188 379.99993896484375
v 69.86276245117188 986.8876342773438 409.99993896484375
v 243.15048217773438 845.5689086914062 409.99993896484375
v 126.255126953125 982.4485473632812 409.99993896484375
v 212.73304748535156 819.5924682617188 409.99993896484375
v 620.228759765625 1167.626220703125 409.99993896484375
v 503.3228759765625 1304.50537109375 379.9999084472656
v 620.228759765625 1167.626220703125 379.99993896484375
v 503.3228759765625 1304.50537109375 409.9999084472656
v 620.228759765625 1167.626220703125 379.99993896484375
v 507.7607727050781 1360.89990234375 379.9999084472656
v 650.6449584960938 1193.6041259765625 379.99993896484375
v 503.3228759765625 1304.50537109375 379.9999084472656
v 650.6449584960938 1193.6041259765625 379.99993896484375
v 507.7607727050781 1360.89990234375 409.9999084472656
v 650.6449584960938 1193.6041259765625 409.99993896484375
v 507.7607727050781 1360.89990234375 379.9999084472656
v 650.6449584960938 1193.6041259765625 409.99993896484375
v 503.3228759765625 1304.50537109375 409.9999084472656
v 620.228759765625 1167.626220703125 409.99993896484375
v 507.7607727050781 1360.89990234375 409.9999084472656
v 503.3228759765625 1304.50537109375 409.9999084472656
v 126.255126953125 982.4485473632812 379.99993896484375
v 503.3228759765625 1304.50537109375 379.9999084472656
v 126.255126953125 982.4485473632812 409.99993896484375
v 507.7607727050781 1360.89990234375 379.9999084472656
v 69.86276245117188 986.8876342773438 409.99993896484375
v 507.7607727050781 1360.89990234375 409.9999084472656
v 69.86277770996094 986.8876342773438 379.99993896484375
v 243.15048217773438 845.5689086914062 409.99993896484375
v 212.73304748535156 819.5924682617188 379.99993896484375
v 243.15048217773438 845.5689086914062 379.99993896484375
v 212.73304748535156 819.5924682617188 409.99993896484375
v 620.228759765625 1167.626220703125 379.99993896484375
v 650.6449584960938 1193.6041259765625 379.99993896484375
v 620.228759765625 1167.626220703125 409.99993896484375
v 650.6449584960938 1193.6041259765625 409.99993896484375
v 298.8741455078125 1128.1468505859375 258.21051025390625
v 204.96531677246094 1047.9384765625 258.21051025390625
v 285.0271301269531 1144.359130859375 258.21051025390625
v 191.11831665039062 1064.15087890625 258.21051025390625
v 298.8741455078125 1128.1468505859375 3.2105178833007812
v 285.02716064453125 1144.359130859375 3.2105157375335693
v 204.96533203125 1047.9384765625 3.2105209827423096
v 191.11831665039062 1064.15087890625 3.2105188369750977
v 298.8741455078125 1128.1468505859375 258.21051025390625
v 285.02716064453125 1144.359130859375 3.2105157375335693
v 298.8741455078125 1128.1468505859375 3.2105178833007812
v 285.0271301269531 1144.359130859375 258.21051025390625
v 204.96531677246094 1047.9384765625 258.21051025390625
v 204.96533203125 1047.9384765625 3.2105209827423096
v 191.11831665039062 1064.15087890625 3.2105188369750977
v 191.11831665039062 1064.15087890625 258.21051025390625
v 276.0622863769531 1108.6630859375 368.9106140136719
v 226.33242797851562 1066.1884765625 368.9106140136719
v 262.2153015136719 1124.87548828125 368.9106140136719
v 212.4854278564453 1082.4007568359375 368.9106140136719
v 276.0622863769531 1108.6630859375 303.21063232421875
v 262.2153015136719 1124.8753662109375 303.21063232421875
v 226.33242797851562 1066.1884765625 303.21063232421875
v 212.4854278564453 1082.400634765625 303.21063232421875
v 276.0622863769531 1108.6630859375 368.9106140136719
v 262.2153015136719 1124.8753662109375 303.21063232421875
v 276.0622863769531 1108.6630859375 303.21063232421875
v 262.2153015136719 1124.87548828125 368.9106140136719
v 226.33242797851562 1066.1884765625 368.9106140136719
v 226.33242797851562 1066.1884765625 303.21063232421875
v 212.4854278564453 1082.400634765625 303.21063232421875
v 212.4854278564453 1082.4007568359375 368.9106140136719
v 98.05894470214844 984.6680297851562 399.99993896484375
v 227.94175720214844 832.5806884765625 399.99993896484375
v 505.54180908203125 1332.70263671875 399.9999084472656
v 635.4368286132812 1180.615234375 399.99993896484375
v 552.1605224609375 1873.59619140625 -0.0001362992770737037
v 514.1478271484375 1841.12548828125 -0.00013512218720279634
v 552.1605224609375 1873.59619140625 299.9998474121094
v 514.1478271484375 1841.12548828125 299.9998474121094
v 514.1478271484375 1841.12548828125 -0.00013512218720279634
v 546.6185302734375 1803.1005859375 -0.00013037861208431423
v 514.1478271484375 1841.12548828125 299.9998474121094
v 546.6185302734375 1803.1005859375 299.9998474121094
v 546.6185302734375 1803.1005859375 -0.00013037861208431423
v 584.6434326171875 1835.5712890625 -0.00013155516353435814
v 546.6185302734375 1803.1005859375 299.9998474121094
v 584.6434326171875 1835.5712890625 299.9998779296875
v 584.6434326171875 1835.5712890625 -0.00013155516353435814
v 552.1605224609375 1873.59619140625 -0.0001362992770737037
v 584.6434326171875 1835.5712890625 299.99981689453125
v 552.1605224609375 1873.59619140625 299.9997863769531
v 552.1605224609375 1873.59619140625 309.9998474121094
v 514.1478271484375 1841.12548828125 309.9998474121094
v 514.1478271484375 1841.12548828125 309.9998474121094
v 546.6185302734375 1803.1005859375 309.9998474121094
v 546.6185302734375 1803.1005859375 309.9998474121094
v 584.6434326171875 1835.5712890625 309.9998779296875
v 584.6434326171875 1835.5712890625 309.99981689453125
v 552.1605224609375 1873.59619140625 309.9997863769531
v 514.1478271484375 1841.12548828125 309.9998474121094
v 546.6185302734375 1803.1005859375 309.9998474121094
v 552.1605224609375 1873.59619140625 309.9998474121094
v 584.6434326171875 1835.5712890625 309.9998779296875
v 477.7098388671875 1941.51611328125 -0.00014549137267749757
v 346.2401123046875 1960.72998046875 -0.00015291781164705753
v 477.7098083496094 1941.51611328125 289.9998474121094
v 346.2401123046875 1960.72998046875 289.9998474121094
v 346.2401123046875 1960.72998046875 -0.00015291782619897276
v -533.764892578125 1209.14306640625 -0.00012567825615406036
v 346.2401123046875 1960.72998046875 289.99981689453125
v -533.764892578125 1209.14306640625 289.9998474121094
v -517.5294189453125 1190.1365966796875 -0.0001233069779118523
v 362.47552490234375 1941.723876953125 -0.00015054657706059515
v -517.5294189453125 1190.1365966796875 289.9998779296875
v 362.47552490234375 1941.723876953125 289.9998474121094
v 362.4754333496094 1941.7236328125 -0.00015054657706059515
v 458.7035217285156 1925.28076171875 -0.00014490282046608627
v 362.47540283203125 1941.7236328125 289.9998474121094
v 458.7034912109375 1925.28076171875 289.9998474121094
v 458.7034912109375 1925.28076171875 -0.00014490282046608627
v 523.6449584960938 1849.2431640625 -0.0001354167325189337
v 458.7034912109375 1925.28076171875 289.9998474121094
v 523.6448974609375 1849.2431640625 289.9998474121094
v 542.6634521484375 1865.478515625 -0.00013600473175756633
v 477.7098388671875 1941.51611328125 -0.00014549137267749757
v 542.6634521484375 1865.478515625 289.9998474121094
v 477.7098083496094 1941.51611328125 289.9998474121094
v 477.7098083496094 1941.51611328125 299.9998474121094
v 346.2401123046875 1960.72998046875 299.9998474121094
v 346.2401123046875 1960.72998046875 299.9997863769531
v -533.764892578125 1209.14306640625 299.99981689453125
v -517.5294189453125 1190.1365966796875 299.9998779296875
v 362.47552490234375 1941.723876953125 299.9998474121094
v 362.47540283203125 1941.7236328125 299.9998474121094
v 458.7034912109375 1925.28076171875 299.9998474121094
v 458.7034912109375 1925.28076171875 299.9998474121094
v 523.6448974609375 1849.2431640625 299.9998474121094
v 542.6634521484375 1865.478515625 299.9998474121094
v 477.7098083496094 1941.51611328125 299.9998474121094
v 346.2401123046875 1960.72998046875 299.9998474121094
v 362.47540283203125 1941.7236328125 299.9998474121094
v 458.7034912109375 1925.28076171875 299.9998474121094
v 477.7098083496094 1941.51611328125 299.9998474121094
v -533.7647705078125 1209.14306640625 299.9998779296875
v -517.5294189453125 1190.1365966796875 299.9998779296875
v 523.6448974609375 1849.2431640625 299.9998474121094
v 542.6634521484375 1865.478515625 299.9998474121094
v 741.4549560546875 1574.98779296875 -0.00010191978071816266
v 773.9256591796875 1536.962890625 -9.717619832372293e-05
v 741.4549560546875 1574.98779296875 299.9999084472656
v 773.9256591796875 1536.962890625 299.9999084472656
v 773.9256591796875 1536.962890625 -9.717619832372293e-05
v 811.9505615234375 1569.43359375 -9.835276432568207e-05
v 773.9256591796875 1536.962890625 299.9999084472656
v 811.9505615234375 1569.43359375 299.9999084472656
v 811.9505615234375 1569.43359375 -9.835276432568207e-05
v 779.4676513671875 1607.45849609375 -0.00010309687786502764
v 811.9505615234375 1569.43359375 299.9999084472656
v 779.4676513671875 1607.45849609375 299.9999084472656
v 779.4676513671875 1607.45849609375 -0.00010309687786502764
v 741.4549560546875 1574.98779296875 -0.00010191978071816266
v 779.4676513671875 1607.45849609375 299.9999084472656
v 741.4549560546875 1574.98779296875 299.9999084472656
v 741.4549560546875 1574.98779296875 309.9999084472656
v 773.9256591796875 1536.962890625 309.9999084472656
v 773.9256591796875 1536.962890625 309.9999084472656
v 811.9505615234375 1569.43359375 309.9999084472656
v 811.9505615234375 1569.43359375 309.9999084472656
v 779.4676513671875 1607.45849609375 309.9999084472656
v 779.4676513671875 1607.45849609375 309.9999084472656
v 741.4549560546875 1574.98779296875 309.9999084472656
v 741.4549560546875 1574.98779296875 309.9999084472656
v 773.9256591796875 1536.962890625 309.9999084472656
v 779.4676513671875 1607.45849609375 309.9999084472656
v 811.9505615234375 1569.43359375 309.9999084472656
v 783.4349365234375 1545.08056640625 -9.747021249495447e-05
v 905.2000732421875 1402.50244140625 -7.968310819705948e-05
v 783.4349365234375 1545.08056640625 289.9998779296875
v 905.2000732421875 1402.50244140625 289.9998779296875
v 924.2064208984375 1418.73779296875 -8.027165313251317e-05
v 802.4412231445312 1561.3157958984375 -9.805875015445054e-05
v 924.2064208984375 1418.73779296875 289.9999084472656
v 802.4412231445312 1561.3157958984375 289.9999084472656
v 783.4349365234375 1545.08056640625 299.9998474121094
v 905.2000732421875 1402.50244140625 299.9998474121094
v 924.2064208984375 1418.73779296875 299.9999084472656
v 802.4412231445312 1561.3157958984375 299.9999084472656
v 905.2000122070312 1402.50244140625 299.9999084472656
v 802.4412231445312 1561.3157958984375 299.9999084472656
v 783.4349365234375 1545.08056640625 299.9999084472656
v 924.2064208984375 1418.73779296875 299.9999084472656
v -579.8951416015625 1186.181640625 -0.00012568732199724764
v -547.4244384765625 1148.15673828125 -0.0001209437323268503
v -579.8951416015625 1186.181640625 299.9998779296875
v -547.4244384765625 1148.15673828125 299.9998779296875
v -547.4244384765625 1148.15673828125 -0.0001209437323268503
v -509.4117431640625 1180.62744140625 -0.0001221208367496729
v -547.4244384765625 1148.15673828125 299.9998779296875
v -509.4117431640625 1180.62744140625 299.9998779296875
v -509.4117431640625 1180.62744140625 -0.0001221208367496729
v -541.8824462890625 1218.65234375 -0.000126864411868155
v -509.4117431640625 1180.62744140625 299.99981689453125
v -541.8824462890625 1218.65234375 299.99981689453125
v -541.8824462890625 1218.65234375 -0.000126864411868155
v -579.8951416015625 1186.181640625 -0.00012568732199724764
v -541.8824462890625 1218.65234375 299.9998779296875
v -579.8951416015625 1186.181640625 299.9998779296875
v -579.8951416015625 1186.181640625 309.9998779296875
v -547.4244384765625 1148.15673828125 309.9998779296875
v -547.4244384765625 1148.15673828125 309.9998779296875
v -509.4117431640625 1180.62744140625 309.9998779296875
v -509.4117431640625 1180.62744140625 309.99981689453125
v -541.8824462890625 1218.65234375 309.99981689453125
v -541.8824462890625 1218.65234375 309.9998779296875
v -579.8951416015625 1186.181640625 309.9998779296875
v -579.8951416015625 1186.181640625 309.9998779296875
v -547.4244384765625 1148.15673828125 309.9998779296875
v -541.8824462890625 1218.65234375 309.9998779296875
v -509.4117431640625 1180.62744140625 309.9998779296875
v -846.0449829101562 958.8744506835938 -0.00011744927905965596
v -813.5742797851562 920.8494262695312 -0.00011270568938925862
v -846.0449829101562 958.8744506835938 299.99981689453125
v -813.5742797851562 920.8494262695312 299.99981689453125
v -813.5742797851562 920.8494262695312 -0.00011270568938925862
v -775.5494384765625 953.3202514648438 -0.00011388225539121777
v -813.5742797851562 920.8494262695312 299.9998779296875
v -775.5494384765625 953.3202514648438 299.9999084472656
v -775.5494384765625 953.3202514648438 -0.00011388225539121777
v -808.0200805664062 991.3451538085938 -0.0001186258377856575
v -775.5494384765625 953.3202514648438 299.9999084472656
v -808.0200805664062 991.3451538085938 299.9999084472656
v -808.0200805664062 991.3451538085938 -0.0001186258377856575
v -846.0449829101562 958.8744506835938 -0.00011744927905965596
v -808.0200805664062 991.3451538085938 299.9999084472656
v -846.0449829101562 958.8744506835938 299.9998779296875
v -846.0449829101562 958.8744506835938 309.99981689453125
v -813.5742797851562 920.8494262695312 309.99981689453125
v -813.5742797851562 920.8494262695312 309.9998779296875
v -775.5494384765625 953.3202514648438 309.9999084472656
v -775.5494384765625 953.3202514648438 309.9999084472656
v -808.0200805664062 991.3451538085938 309.9999084472656
v -808.0200805664062 991.3451538085938 309.9999084472656
v -846.0449829101562 958.8744506835938 309.9998779296875
v -846.0449829101562 958.8744506835938 309.9998779296875
v -813.5742797851562 920.8494262695312 309.9998779296875
v -808.0200805664062 991.3451538085938 309.9999084472656
v -775.5494384765625 953.3202514648438 309.9999084472656
v -837.9273071289062 949.365234375 -0.00011626312334556133
v -1294.1650390625 559.6922607421875 -0.0001021396165015176
v -837.9273071289062 949.365234375 289.9998779296875
v -1294.1650390625 559.6922607421875 289.9999084472656
v -1277.9296875 540.68603515625 -9.976836736313999e-05
v -821.6917114257812 930.35888671875 -0.00011389185965526849
v -1277.9296875 540.68603515625 289.9999084472656
v -821.6917114257812 930.35888671875 289.9998779296875
v -837.9273071289062 949.365234375 299.9998779296875
v -1294.1650390625 559.6922607421875 299.9999084472656
v -1277.9296875 540.68603515625 299.9999084472656
v -821.6917114257812 930.35888671875 299.9998779296875
v -1294.1650390625 559.6923828125 299.9999084472656
v -1277.9296875 540.68603515625 299.9999084472656
v -837.9273071289062 949.365234375 299.9998779296875
v -821.6918334960938 930.3588256835938 299.9998779296875
f 18 17 19
f 19 20 18
f 259 256 264
f 258 256 259
f 257 256 258
f 258 267 257
f 267 260 257
f 260 265 257
f 266 265 260
f 263 265 266
f 264 265 263
f 263 262 264
f 262 259 264
f 261 259 262
f 260 259 261
f 261 266 260
f 1 2 4
f 2 1 3
f 504 505 507
f 505 504 506
f 353 352 354
f 354 352 355
f 351 348 349
f 349 348 350
f 337 336 338
f 338 336 339
f 335 332 333
f 333 332 334
f 102 100 103
f 100 102 99
f 100 99 101
f 101 30 100
f 30 29 31
f 31 32 30
f 10 9 11
f 11 12 10
f 6 5 7
f 8 6 7
f 597 596 598
f 598 599 597
f 593 592 594
f 595 593 594
f 589 588 590
f 591 589 590
f 577 576 578
f 578 579 577
f 573 572 574
f 575 573 574
f 569 568 570
f 571 569 570
f 565 564 566
f 567 565 566
f 561 560 562
f 563 561 562
f 541 540 542
f 542 543 541
f 537 536 538
f 539 537 538
f 533 532 534
f 535 533 534
f 529 528 530
f 531 529 530
f 525 524 526
f 527 525 526
f 501 500 502
f 503 501 502
f 497 496 498
f 499 497 498
f 485 484 486
f 486 487 485
f 481 480 482
f 483 481 482
f 477 476 478
f 479 477 478
f 473 472 474
f 475 473 474
f 469 468 470
f 471 469 470
f 449 448 444
f 444 445 449
f 445 444 446
f 446 444 447
f 447 450 446
f 450 447 451
f 25 26 28
f 26 25 27
f 15 246 247
f 247 14 15
f 14 13 15
f 13 14 16
f 441 440 442
f 443 441 442
f 437 436 438
f 439 437 438
f 433 432 434
f 435 433 434
f 429 428 430
f 431 429 430
f 425 424 426
f 427 425 426
f 421 420 422
f 423 421 422
f 393 392 394
f 394 395 393
f 389 388 390
f 391 389 390
f 385 384 386
f 387 385 386
f 381 380 382
f 383 381 382
f 377 376 378
f 379 377 378
f 345 344 346
f 346 347 345
f 341 340 342
f 342 343 341
f 329 328 330
f 330 331 329
f 325 324 326
f 326 327 325
f 253 252 254
f 255 253 254
f 249 248 250
f 251 249 250
f 243 242 244
f 245 243 244
f 239 238 240
f 241 239 240
f 96 95 97
f 98 96 97
f 92 91 93
f 94 92 93
f 88 87 89
f 90 88 89
f 84 83 85
f 86 84 85
f 80 43 81
f 82 80 81
f 42 41 43
f 44 42 43
f 75 74 76
f 76 77 75
f 71 70 72
f 73 71 72
f 67 66 68
f 69 67 68
f 63 62 64
f 65 63 64
f 38 37 39
f 40 38 39
f 40 39 78
f 79 40 78
f 34 33 35
f 36 34 35
f 22 21 23
f 24 22 23
f 61 48 60
f 48 47 60
f 48 46 47
f 46 45 47
f 105 104 106
f 106 104 107
f 233 237 236
f 236 235 232
f 232 233 236
f 233 232 234
f 59 58 54
f 54 49 59
f 50 49 51
f 51 49 52
f 49 53 52
f 54 53 49
f 53 54 57
f 55 53 57
f 53 55 56
f 231 228 229
f 229 228 230
f 227 224 225
f 225 224 226
f 223 220 221
f 221 220 222
f 219 216 217
f 217 216 218
f 215 212 213
f 213 212 214
f 211 208 209
f 209 208 210
f 207 204 205
f 205 204 206
f 203 200 201
f 201 200 202
f 199 196 197
f 197 196 198
f 195 192 193
f 193 192 194
f 191 188 189
f 189 188 190
f 187 184 185
f 185 184 186
f 183 180 181
f 181 180 182
f 179 176 177
f 177 176 178
f 175 172 173
f 173 172 174
f 171 168 169
f 169 168 170
f 165 164 166
f 166 164 167
f 161 160 162
f 162 160 163
f 157 156 158
f 158 156 159
f 153 152 154
f 154 152 155
f 149 148 150
f 150 148 151
f 145 144 146
f 146 144 147
f 141 140 142
f 142 140 143
f 137 136 138
f 138 136 139
f 133 132 134
f 134 132 135
f 129 128 130
f 130 128 131
f 125 124 126
f 126 124 127
f 121 120 122
f 122 120 123
f 117 116 118
f 118 116 119
f 113 112 114
f 114 112 115
f 109 108 110
f 110 108 111
f 269 271 268
f 269 268 270
f 357 356 358
f 358 359 357
f 321 320 322
f 323 321 322
f 313 315 312
f 313 312 314
f 309 311 308
f 309 308 310
f 305 307 304
f 305 304 306
f 301 303 300
f 301 300 302
f 297 299 296
f 297 296 298
f 293 295 292
f 293 292 294
f 289 291 288
f 289 288 290
f 285 287 284
f 285 284 286
f 281 283 280
f 281 280 282
f 277 279 276
f 277 276 278
f 273 275 272
f 273 272 274
f 319 316 317
f 317 316 318
f 361 360 362
f 363 361 362
f 585 584 586
f 587 585 586
f 581 580 582
f 583 581 582
f 557 556 558
f 559 557 558
f 553 552 554
f 555 553 554
f 549 548 550
f 551 549 550
f 545 544 546
f 547 545 546
f 521 520 522
f 523 521 522
f 517 516 518
f 519 517 518
f 513 512 514
f 515 513 514
f 509 508 510
f 511 509 510
f 493 492 494
f 495 493 494
f 489 488 490
f 491 489 490
f 465 464 466
f 467 465 466
f 461 460 462
f 463 461 462
f 457 456 458
f 459 457 458
f 453 452 454
f 455 453 454
f 417 416 418
f 419 417 418
f 413 412 414
f 415 413 414
f 409 408 410
f 411 409 410
f 405 404 406
f 407 405 406
f 401 400 402
f 403 401 402
f 397 396 398
f 399 397 398
f 373 372 374
f 375 373 374
f 369 368 370
f 371 369 370
f 365 364 366
f 367 365 366
