# from FinancialDistrict_Block12_Generic_0010_LOD_0.pskx
v 284.1126708984375 -1353.0029296875 -2.513938488846179e-05
v 272.7112731933594 -1362.744140625 -2.4786153517197818e-05
v 284.1126708984375 -1353.0029296875 6.999974727630615
v 272.7112731933594 -1362.744140625 6.999975204467773
v 272.7112731933594 -1362.744140625 -2.4786153517197818e-05
v 444.8059997558594 -1564.2578125 3.5323253655406006e-07
v 272.7112731933594 -1362.744140625 6.999975204467773
v 444.8059997558594 -1564.2578125 7.000000476837158
v 444.8059997558594 -1564.2578125 3.5323253655406006e-07
v 456.2073974609375 -1554.5166015625 0.0
v 444.8059997558594 -1564.2578125 7.000000476837158
v 456.2073974609375 -1554.5166015625 7.0
v 456.2073974609375 -1554.5166015625 0.0
v 284.1126708984375 -1353.0029296875 -2.513938488846179e-05
v 456.2073974609375 -1554.5166015625 7.0
v 284.1126708984375 -1353.0029296875 6.999974727630615
v 444.8059997558594 -1564.2578125 3.5323253655406006e-07
v 272.7112731933594 -1362.744140625 -2.4786153517197818e-05
v 284.1126708984375 -1353.0029296875 -2.513938488846179e-05
v 456.2073974609375 -1554.5166015625 0.0
v 284.6741943359375 -1345.95947265625 1.999974250793457
v 265.66778564453125 -1362.19482421875 1.9999769926071167
v 284.3367919921875 -1350.250244140625 6.999975681304932
v 269.9584655761719 -1362.5322265625 6.9999871253967285
v 265.66778564453125 -1362.19482421875 1.9999750852584839
v 444.2810974121094 -1571.2890625 1.999800682067871
v 269.95849609375 -1362.5322265625 6.99997615814209
v 444.61846923828125 -1566.99853515625 6.999811172485352
v 444.2810974121094 -1571.2890625 1.9998009204864502
v 463.2875061035156 -1555.0537109375 1.9997998476028442
v 444.6184997558594 -1566.99853515625 6.999800205230713
v 458.996826171875 -1554.7164306640625 6.999820709228516
v 463.2875061035156 -1555.0537109375 1.9998003244400024
v 284.6741638183594 -1345.95947265625 1.9999712705612183
v 458.9967956542969 -1554.7164306640625 6.999799728393555
v 284.3367919921875 -1350.2501220703125 6.999983787536621
v 444.2810974121094 -1571.2890625 1.9998009204864502
v 265.66778564453125 -1362.19482421875 1.9999748468399048
v 284.6741943359375 -1345.95947265625 1.999974250793457
v 463.2875061035156 -1555.0537109375 1.9998003244400024
v 933.5267333984375 -2113.43994140625 0.0008697268785908818
v 922.1253662109375 -2123.18115234375 0.0008700801408849657
v 933.5267333984375 -2113.43994140625 7.000868320465088
v 922.1253662109375 -2123.18115234375 7.000868797302246
v 922.1253662109375 -2123.18115234375 0.0008700801408849657
v 1094.22021484375 -2324.69482421875 0.000895219505764544
v 922.1253662109375 -2123.18115234375 7.000870227813721
v 1094.22021484375 -2324.69482421875 7.000895023345947
v 1094.22021484375 -2324.69482421875 0.000895219505764544
v 1105.62158203125 -2314.95361328125 0.0008948662434704602
v 1094.22021484375 -2324.69482421875 7.000895023345947
v 1105.62158203125 -2314.95361328125 7.000895023345947
v 1105.62158203125 -2314.95361328125 0.0008948662434704602
v 933.5267333984375 -2113.43994140625 0.0008697269367985427
v 1105.62158203125 -2314.95361328125 7.000895023345947
v 933.5267333984375 -2113.43994140625 7.0008697509765625
v 1094.22021484375 -2324.69482421875 0.000895219505764544
v 922.1253662109375 -2123.18115234375 0.0008700801408849657
v 933.5267333984375 -2113.43994140625 0.0008697268785908818
v 1105.62158203125 -2314.95361328125 0.0008948662434704602
v 934.08837890625 -2106.396484375 2.000869035720825
v 915.0819091796875 -2122.6318359375 2.0008718967437744
v 933.7509155273438 -2110.68701171875 7.000858783721924
v 919.3726196289062 -2122.96923828125 7.000878810882568
v 915.0819091796875 -2122.6318359375 2.0008697509765625
v 1093.6953125 -2331.72607421875 2.0006914138793945
v 919.3726196289062 -2122.96923828125 7.000859260559082
v 1094.03271484375 -2327.435546875 7.000706195831299
v 1093.6953125 -2331.72607421875 2.000699281692505
v 1112.7015380859375 -2315.49072265625 2.0006983280181885
v 1094.03271484375 -2327.435546875 7.00069522857666
v 1108.410888671875 -2315.1533203125 7.0006842613220215
v 1112.7015380859375 -2315.49072265625 2.000699043273926
v 934.08837890625 -2106.396484375 2.0008718967437744
v 1108.410888671875 -2315.1533203125 7.000702381134033
v 933.7509765625 -2110.68701171875 7.000917434692383
v 1093.6953125 -2331.72607421875 2.0006957054138184
v 915.0819091796875 -2122.6318359375 2.0008695125579834
v 934.08837890625 -2106.396484375 2.000869035720825
v 1112.7015380859375 -2315.49072265625 2.000694990158081
v -760.6505126953125 -2245.27587890625 0.00040719754179008305
v -772.0518798828125 -2255.01708984375 0.00040755077498033643
v -760.6505126953125 -2245.27587890625 7.0004072189331055
v -772.0518798828125 -2255.01708984375 7.0004072189331055
v -772.0518798828125 -2255.01708984375 0.00040755077498033643
v -599.957275390625 -2456.53076171875 0.0004326901398599148
v -772.0518798828125 -2255.01708984375 7.0004072189331055
v -599.957275390625 -2456.53076171875 7.00043249130249
v -599.957275390625 -2456.53076171875 0.0004326901398599148
v -588.5557861328125 -2446.78955078125 0.00043233693577349186
v -599.957275390625 -2456.53076171875 7.00043249130249
v -588.5557861328125 -2446.78955078125 7.00043249130249
v -588.5557861328125 -2446.78955078125 0.00043233693577349186
v -760.6505126953125 -2245.27587890625 0.00040719754179008305
v -588.5557861328125 -2446.78955078125 7.00043249130249
v -760.6505126953125 -2245.27587890625 7.0004072189331055
v -599.957275390625 -2456.53076171875 0.0004326901398599148
v -772.0518798828125 -2255.01708984375 0.00040755077498033643
v -760.6505126953125 -2245.27587890625 0.00040719754179008305
v -588.5557861328125 -2446.78955078125 0.00043233693577349186
v -760.0889892578125 -2238.232421875 2.0004067420959473
v -779.0953369140625 -2254.4677734375 2.0003929138183594
v -760.4263916015625 -2242.523193359375 7.000396251678467
v -774.8046875 -2254.80517578125 7.000383377075195
v -779.0953369140625 -2254.4677734375 2.000391721725464
v -600.4820556640625 -2463.56201171875 2.000248432159424
v -774.8046875 -2254.80517578125 7.000413417816162
v -600.1446533203125 -2459.271484375 7.000268459320068
v -600.4820556640625 -2463.56201171875 2.00022292137146
v -581.4757080078125 -2447.32666015625 2.00022292137146
v -600.1446533203125 -2459.271484375 7.000219345092773
v -585.766357421875 -2446.9892578125 7.000244617462158
v -581.4757080078125 -2447.32666015625 2.0002543926239014
v -760.0889892578125 -2238.232421875 2.000403642654419
v -585.766357421875 -2446.9892578125 7.00023889541626
v -760.4263916015625 -2242.523193359375 7.000412940979004
v -600.4820556640625 -2463.56201171875 2.0002331733703613
v -779.0953369140625 -2254.4677734375 2.0004074573516846
v -760.0889892578125 -2238.232421875 2.0004067420959473
v -581.4757080078125 -2447.32666015625 2.000232696533203
v 798.5657958984375 -913.57421875 -0.0008410679874941707
v 787.1643676757812 -923.3154296875 -0.0008407147834077477
v 798.5657958984375 -913.57421875 6.9991583824157715
v 787.1643676757812 -923.3154296875 6.99915885925293
v 787.1643676757812 -923.3154296875 -0.0008407147834077477
v 959.2591552734375 -1124.8291015625 -0.0008155753603205085
v 787.1643676757812 -923.3154296875 6.99915885925293
v 959.2591552734375 -1124.8291015625 6.9991841316223145
v 959.2591552734375 -1124.8291015625 -0.0008155753603205085
v 970.6605224609375 -1115.087890625 -0.0008159285644069314
v 959.2591552734375 -1124.8291015625 6.9991841316223145
v 970.6605224609375 -1115.087890625 6.999183654785156
v 970.6605224609375 -1115.087890625 -0.0008159285644069314
v 798.5657958984375 -913.57421875 -0.0008410679874941707
v 970.6605224609375 -1115.087890625 6.999183654785156
v 798.5657958984375 -913.57421875 6.9991583824157715
v 959.2591552734375 -1124.8291015625 -0.0008155753603205085
v 787.1643676757812 -923.3154296875 -0.0008407147834077477
v 798.5657958984375 -913.57421875 -0.0008410679874941707
v 970.6605224609375 -1115.087890625 -0.0008159285644069314
v 799.1272583007812 -906.5308227539062 1.9991583824157715
v 780.1209716796875 -922.76611328125 1.999160647392273
v 798.7899780273438 -910.8214111328125 6.999154090881348
v 784.41162109375 -923.1034545898438 6.999185562133789
v 780.1209716796875 -922.76611328125 1.9991576671600342
v 958.7342529296875 -1131.8602294921875 1.9989882707595825
v 784.41162109375 -923.103515625 6.999155044555664
v 959.0715942382812 -1127.5697021484375 6.998929023742676
v 958.7342529296875 -1131.8602294921875 1.998984932899475
v 977.7406005859375 -1115.625 1.998984694480896
v 959.071533203125 -1127.56982421875 6.9989914894104
v 973.449951171875 -1115.28759765625 6.999007701873779
v 977.7406005859375 -1115.625 1.9989843368530273
v 799.1272583007812 -906.5308227539062 1.9991554021835327
v 973.449951171875 -1115.28759765625 6.998968124389648
v 798.7899169921875 -910.8214721679688 6.999096393585205
v 958.7342529296875 -1131.8602294921875 1.998984932899475
v 780.1209716796875 -922.76611328125 1.9991589784622192
v 799.1272583007812 -906.5308227539062 1.9991583824157715
v 977.7406005859375 -1115.625 1.9989843368530273
v -111.236328125 -3005.72509765625 0.001202064915560186
v -122.63775634765625 -3015.46630859375 0.0012024181196466088
v -111.236328125 -3005.72509765625 7.001201629638672
v -122.63775634765625 -3015.46630859375 7.00120210647583
v -122.63775634765625 -3015.46630859375 0.0012024181196466088
v 49.45697021484375 -3216.97998046875 0.001227557542733848
v -122.63775634765625 -3015.46630859375 7.00120210647583
v 49.45697021484375 -3216.97998046875 7.001227378845215
v 49.45697021484375 -3216.97998046875 0.001227557542733848
v 60.8583984375 -3207.23876953125 0.0012272043386474252
v 49.45697021484375 -3216.97998046875 7.001227378845215
v 60.8583984375 -3207.23876953125 7.001226902008057
v 60.85833740234375 -3207.23876953125 0.0012272043386474252
v -111.236328125 -3005.72509765625 0.001202064915560186
v 60.85833740234375 -3207.23876953125 7.001226902008057
v -111.236328125 -3005.72509765625 7.001201629638672
v 49.45697021484375 -3216.97998046875 0.001227557542733848
v -122.63775634765625 -3015.46630859375 0.0012024181196466088
v -111.236328125 -3005.72509765625 0.001202064915560186
v 60.858367919921875 -3207.23876953125 0.0012272043386474252
v -110.6748046875 -2998.681640625 2.001201629638672
v -129.68121337890625 -3014.9169921875 2.001218795776367
v -111.01220703125 -3002.97216796875 7.001192092895508
v -125.39056396484375 -3015.25439453125 7.0012030601501465
v -129.68121337890625 -3014.9169921875 2.001190423965454
v 48.93206787109375 -3224.01123046875 2.0011227130889893
v -125.39056396484375 -3015.25439453125 7.001208305358887
v 49.26947021484375 -3219.720703125 7.001138687133789
v 48.93206787109375 -3224.01123046875 2.001131296157837
v 67.9384765625 -3207.77587890625 2.0011110305786133
v 49.26947021484375 -3219.720703125 7.001128196716309
v 63.64776611328125 -3207.438720703125 7.001108646392822
v 67.93850708007812 -3207.77587890625 2.001141309738159
v -110.6748046875 -2998.681640625 2.0012035369873047
v 63.647796630859375 -3207.438720703125 7.001133918762207
v -111.01226806640625 -3002.97216796875 7.001186370849609
v 48.93206787109375 -3224.01123046875 2.0011279582977295
v -129.68121337890625 -3014.9169921875 2.00120210647583
v -110.6748046875 -2998.681640625 2.001201629638672
v 67.9384765625 -3207.77587890625 2.0011274814605713
v 402.2401428222656 -2567.1630859375 0.0008861693786457181
v 390.8387451171875 -2576.904296875 0.000886522582732141
v 402.2401428222656 -2567.1630859375 7.0008864402771
v 390.8387451171875 -2576.904296875 7.0008864402771
v 390.8387451171875 -2576.904296875 0.000886522582732141
v 562.9335327148438 -2778.41796875 0.0009116620058193803
v 390.8387451171875 -2576.904296875 7.0008864402771
v 562.9335327148438 -2778.41796875 7.000911712646484
v 562.93359375 -2778.41796875 0.0009116620058193803
v 574.3348388671875 -2768.6767578125 0.0009113086853176355
v 562.93359375 -2778.41796875 7.000911712646484
v 574.3348388671875 -2768.6767578125 7.000911712646484
v 574.3348388671875 -2768.6767578125 0.0009113086853176355
v 402.2401428222656 -2567.1630859375 0.0008861693786457181
v 574.3348388671875 -2768.6767578125 7.000911712646484
v 402.2401428222656 -2567.1630859375 7.0008864402771
v 562.9335327148438 -2778.41796875 0.0009116620058193803
v 390.8387451171875 -2576.904296875 0.000886522582732141
v 402.2401428222656 -2567.1630859375 0.0008861693786457181
v 574.3348388671875 -2768.6767578125 0.0009113086853176355
v 402.8016357421875 -2560.11962890625 2.000885486602783
v 383.79534912109375 -2576.35498046875 2.000901460647583
v 402.46435546875 -2564.41015625 7.0008769035339355
v 388.0860595703125 -2576.6923828125 7.000870227813721
v 383.79534912109375 -2576.35498046875 2.000872850418091
v 562.4086303710938 -2785.44921875 2.0007083415985107
v 388.0860290527344 -2576.6923828125 7.000898361206055
v 562.7459716796875 -2781.15869140625 7.0006842613220215
v 562.40869140625 -2785.44921875 2.0007119178771973
v 581.4149169921875 -2769.2138671875 2.0006957054138184
v 562.7459716796875 -2781.15869140625 7.000710964202881
v 577.1242065429688 -2768.876708984375 7.000668048858643
v 581.4149780273438 -2769.2138671875 2.000725269317627
v 402.8016357421875 -2560.11962890625 2.0008885860443115
v 577.124267578125 -2768.876708984375 7.000718116760254
v 402.4642639160156 -2564.410400390625 7.000833988189697
v 562.40869140625 -2785.44921875 2.0007119178771973
v 383.79534912109375 -2576.35498046875 2.0008862018585205
v 402.8016357421875 -2560.11962890625 2.000885486602783
v 581.4149780273438 -2769.2138671875 2.000711441040039
v -247.17388916015625 -1806.72607421875 -8.696920303918887e-06
v -258.5753173828125 -1816.46728515625 -8.34368711366551e-06
v -247.17388916015625 -1806.72607421875 6.999991416931152
v -258.5753173828125 -1816.46728515625 6.999991416931152
v -258.5753173828125 -1816.46728515625 -8.343688932654914e-06
v -86.4805908203125 -2017.9810791015625 1.6795698684290983e-05
v -258.5753173828125 -1816.46728515625 6.999991416931152
v -86.4805908203125 -2017.9810791015625 7.000016689300537
v -86.4805908203125 -2017.9810791015625 1.6795698684290983e-05
v -75.0792236328125 -2008.23974609375 1.64424618560588e-05
v -86.4805908203125 -2017.9810791015625 7.000016689300537
v -75.0792236328125 -2008.23974609375 7.000016212463379
v -75.0792236328125 -2008.23974609375 1.644245821807999e-05
v -247.17388916015625 -1806.7261962890625 -8.696918484929483e-06
v -75.0792236328125 -2008.23974609375 7.000016212463379
v -247.17388916015625 -1806.7261962890625 6.999991416931152
v -86.4805908203125 -2017.9810791015625 1.6795698684290983e-05
v -258.5753173828125 -1816.46728515625 -8.34368711366551e-06
v -247.17388916015625 -1806.72607421875 -8.696920303918887e-06
v -75.0792236328125 -2008.23974609375 1.644245821807999e-05
v -246.61236572265625 -1799.6826171875 1.999990701675415
v -265.6187744140625 -1815.91796875 1.9999920129776
v -246.94976806640625 -1803.973388671875 6.999989032745361
v -261.32806396484375 -1816.25537109375 6.999967575073242
v -265.6187744140625 -1815.91796875 1.9999932050704956
v -87.0054931640625 -2025.01220703125 1.9998130798339844
v -261.328125 -1816.25537109375 6.999987602233887
v -86.6680908203125 -2020.7216796875 6.99979829788208
v -87.0054931640625 -2025.01220703125 1.9998126029968262
v -67.9990234375 -2008.77685546875 1.9998092651367188
v -86.6680908203125 -2020.7216796875 6.9998087882995605
v -72.28973388671875 -2008.4395751953125 6.999866962432861
v -67.9990234375 -2008.7769775390625 1.999808669090271
v -246.61236572265625 -1799.6826171875 1.9999897480010986
v -72.289794921875 -2008.439453125 6.999817848205566
v -246.94976806640625 -1803.9732666015625 7.000041484832764
v -87.0054931640625 -2025.01220703125 1.9998173713684082
v -265.6187744140625 -1815.91796875 1.9999912977218628
v -246.61236572265625 -1799.6826171875 1.999990701675415
v -67.9990234375 -2008.7769775390625 1.9998167753219604
v 1447.9798583984375 -1674.0111083984375 5.3798303270014e-05
v 1436.5784912109375 -1683.7523193359375 5.415153282228857e-05
v 1447.9798583984375 -1674.0111083984375 7.000053882598877
v 1436.5784912109375 -1683.7523193359375 7.000054359436035
v 1436.5784912109375 -1683.7523193359375 5.415153646026738e-05
v 1608.6732177734375 -1885.2659912109375 7.929091952973977e-05
v 1436.5784912109375 -1683.7523193359375 7.000054359436035
v 1608.6732177734375 -1885.2659912109375 7.00007963180542
v 1608.6732177734375 -1885.26611328125 7.929092680569738e-05
v 1620.0745849609375 -1875.52490234375 7.8937693615444e-05
v 1608.6732177734375 -1885.26611328125 7.00007963180542
v 1620.0745849609375 -1875.52490234375 7.000079154968262
v 1620.0745849609375 -1875.52490234375 7.8937693615444e-05
v 1447.9798583984375 -1674.0111083984375 5.3798303270014e-05
v 1620.0745849609375 -1875.52490234375 7.000079154968262
v 1447.9798583984375 -1674.0111083984375 7.000053882598877
v 1608.6732177734375 -1885.26611328125 7.929092680569738e-05
v 1436.5784912109375 -1683.7523193359375 5.415153282228857e-05
v 1447.9798583984375 -1674.0111083984375 5.3798303270014e-05
v 1620.0745849609375 -1875.52490234375 7.8937693615444e-05
v 1448.5413818359375 -1666.9677734375 2.0000531673431396
v 1429.5350341796875 -1683.203125 2.0000414848327637
v 1448.2039794921875 -1671.2584228515625 7.000051021575928
v 1433.82568359375 -1683.5404052734375 7.000051975250244
v 1429.5350341796875 -1683.2030029296875 2.0000362396240234
v 1608.1483154296875 -1892.29736328125 1.999898076057434
v 1433.82568359375 -1683.54052734375 7.000063896179199
v 1608.485595703125 -1888.0068359375 6.999946117401123
v 1608.1483154296875 -1892.29736328125 1.9998695850372314
v 1627.1546630859375 -1876.0618896484375 1.9998856782913208
v 1608.4857177734375 -1888.0067138671875 6.999866008758545
v 1622.864013671875 -1875.724609375 6.999899864196777
v 1627.1546630859375 -1876.0618896484375 1.999887228012085
v 1448.5413818359375 -1666.9677734375 2.0000503063201904
v 1622.864013671875 -1875.724609375 6.999878883361816
v 1448.2039794921875 -1671.2584228515625 7.00006628036499
v 1608.1483154296875 -1892.29736328125 1.9998798370361328
v 1429.5350341796875 -1683.2030029296875 2.000053644180298
v 1448.5413818359375 -1666.9677734375 2.0000531673431396
v 1627.1546630859375 -1876.0618896484375 1.999879240989685
v 389.605712890625 476.98974609375 -25.763179779052734
v 379.8645324707031 488.39111328125 -25.763181686401367
v 389.605712890625 476.98974609375 -18.763181686401367
v 379.8645324707031 488.39111328125 -18.76318359375
v 379.864501953125 488.39111328125 -25.763181686401367
v 178.3509521484375 316.29638671875 -25.763174057006836
v 379.864501953125 488.39111328125 -18.76318359375
v 178.3509521484375 316.29638671875 -18.76317596435547
v 178.35092163085938 316.29638671875 -25.763174057006836
v 188.09213256835938 304.89501953125 -25.763172149658203
v 178.35092163085938 316.29638671875 -18.76317596435547
v 188.09213256835938 304.89501953125 -18.763174057006836
v 188.09213256835938 304.89501953125 -25.763172149658203
v 389.6056823730469 476.98974609375 -25.763179779052734
v 188.09213256835938 304.89501953125 -18.763174057006836
v 389.6056823730469 476.98974609375 -18.763181686401367
v 389.605712890625 476.98974609375 -25.763179779052734
v 188.09213256835938 304.89501953125 -25.763172149658203
v 379.864501953125 488.39111328125 -25.763181686401367
v 178.35092163085938 316.29638671875 -25.763174057006836
v 396.6492004394531 476.42822265625 -23.7631778717041
v 380.4137878417969 495.4345703125 -23.76319694519043
v 392.3585205078125 476.765625 -18.763181686401367
v 380.0765075683594 491.143798828125 -18.76318359375
v 380.413818359375 495.4345703125 -23.763198852539062
v 171.319580078125 316.8212890625 -23.76336097717285
v 380.0765075683594 491.143798828125 -18.76317596435547
v 175.61016845703125 316.48388671875 -18.76337432861328
v 171.31964111328125 316.8212890625 -23.76338768005371
v 187.55502319335938 297.81494140625 -23.76336669921875
v 175.6102294921875 316.48388671875 -18.763389587402344
v 187.8922119140625 302.105712890625 -18.763357162475586
v 187.55502319335938 297.81494140625 -23.763364791870117
v 396.6492004394531 476.42822265625 -23.7631778717041
v 187.8922119140625 302.105712890625 -18.763378143310547
v 392.35845947265625 476.765625 -18.763227462768555
v 396.6492004394531 476.42822265625 -23.7631778717041
v 187.55502319335938 297.81494140625 -23.76337242126465
v 380.413818359375 495.4345703125 -23.763181686401367
v 171.31961059570312 316.8212890625 -23.763376235961914
v -1560.6141357421875 2760.46142578125 375.3618469238281
v -1570.3553466796875 2771.86279296875 375.3618469238281
v -1560.6141357421875 2760.46142578125 382.3618469238281
v -1570.3553466796875 2771.86279296875 382.3618469238281
v -1570.3553466796875 2771.86279296875 375.3618469238281
v -1771.8690185546875 2599.76806640625 375.3618469238281
v -1570.3553466796875 2771.86279296875 382.3618469238281
v -1771.8690185546875 2599.76806640625 382.3618469238281
v -1771.8690185546875 2599.76806640625 375.3618469238281
v -1762.1278076171875 2588.36669921875 375.3618469238281
v -1771.8690185546875 2599.76806640625 382.3618469238281
v -1762.1278076171875 2588.36669921875 382.3618469238281
v -1762.1278076171875 2588.36669921875 375.3618469238281
v -1560.6141357421875 2760.46142578125 375.3618469238281
v -1762.1278076171875 2588.36669921875 382.3618469238281
v -1560.6141357421875 2760.46142578125 382.3618469238281
v -1560.6141357421875 2760.46142578125 375.3618469238281
v -1762.1278076171875 2588.36669921875 375.3618469238281
v -1570.3553466796875 2771.86279296875 375.3618469238281
v -1771.8690185546875 2599.76806640625 375.3618469238281
v -1553.5706787109375 2759.89990234375 377.3618469238281
v -1569.8060302734375 2778.90625 377.36181640625
v -1557.8614501953125 2760.2373046875 382.36181640625
v -1570.1434326171875 2774.615234375 382.36175537109375
v -1569.8060302734375 2778.90625 377.3618469238281
v -1778.9002685546875 2600.29296875 377.36175537109375
v -1570.1434326171875 2774.615234375 382.3618469238281
v -1774.6097412109375 2599.95556640625 382.3616943359375
v -1778.9002685546875 2600.29296875 377.36175537109375
v -1762.6649169921875 2581.28662109375 377.36175537109375
v -1774.6097412109375 2599.95556640625 382.36175537109375
v -1762.3277587890625 2585.5771484375 382.3617248535156
v -1762.6649169921875 2581.28662109375 377.36175537109375
v -1553.5706787109375 2759.89990234375 377.3618469238281
v -1762.3277587890625 2585.5771484375 382.36175537109375
v -1557.8614501953125 2760.2373046875 382.36175537109375
v -1553.5706787109375 2759.89990234375 377.3618469238281
v -1762.6649169921875 2581.28662109375 377.36175537109375
v -1569.8060302734375 2778.90625 377.3618469238281
v -1778.9002685546875 2600.29296875 377.36175537109375
v -260.137939453125 1237.70751953125 95.06002807617188
v -269.879150390625 1249.10888671875 95.06002807617188
v -260.137939453125 1237.70751953125 102.06002807617188
v -269.879150390625 1249.10888671875 102.06002807617188
v -269.879150390625 1249.10888671875 95.06002807617188
v -471.392822265625 1077.01416015625 95.0600357055664
v -269.879150390625 1249.10888671875 102.06002807617188
v -471.392822265625 1077.01416015625 102.0600357055664
v -471.392822265625 1077.01416015625 95.0600357055664
v -461.651611328125 1065.61279296875 95.0600357055664
v -471.392822265625 1077.01416015625 102.0600357055664
v -461.651611328125 1065.61279296875 102.0600357055664
v -461.651611328125 1065.61279296875 95.0600357055664
v -260.137939453125 1237.70751953125 95.06002807617188
v -461.651611328125 1065.61279296875 102.0600357055664
v -260.137939453125 1237.70751953125 102.06002807617188
v -260.137939453125 1237.70751953125 95.06002807617188
v -461.651611328125 1065.61279296875 95.0600357055664
v -269.879150390625 1249.10888671875 95.06002807617188
v -471.392822265625 1077.01416015625 95.0600357055664
v -253.09454345703125 1237.14599609375 97.06002807617188
v -269.329833984375 1256.15234375 97.06001281738281
v -257.3851318359375 1237.4833984375 102.06000518798828
v -269.66717529296875 1251.861572265625 102.0600814819336
v -269.329833984375 1256.15234375 97.06000518798828
v -478.424072265625 1077.5390625 97.0598373413086
v -269.667236328125 1251.861572265625 102.06002044677734
v -474.13348388671875 1077.20166015625 102.05984497070312
v -478.424072265625 1077.5390625 97.05980682373047
v -462.188720703125 1058.53271484375 97.0598373413086
v -474.13348388671875 1077.20166015625 102.0598373413086
v -461.85150146484375 1062.823486328125 102.05992126464844
v -462.188720703125 1058.53271484375 97.0598373413086
v -253.09454345703125 1237.14599609375 97.06002807617188
v -461.85137939453125 1062.823486328125 102.05982208251953
v -257.3851318359375 1237.4833984375 102.0599594116211
v -253.09454345703125 1237.14599609375 97.06002807617188
v -462.188720703125 1058.53271484375 97.05982971191406
v -269.329833984375 1256.15234375 97.06002807617188
v -478.424072265625 1077.5390625 97.05982971191406
v -909.857177734375 1998.53515625 225.3392333984375
v -919.598388671875 2009.9365234375 225.3392333984375
v -909.857177734375 1998.53515625 232.3392333984375
v -919.598388671875 2009.9365234375 232.3392333984375
v -919.598388671875 2009.9365234375 225.3392333984375
v -1121.112060546875 1837.841796875 225.3392333984375
v -919.598388671875 2009.9365234375 232.3392333984375
v -1121.112060546875 1837.841796875 232.3392333984375
v -1121.112060546875 1837.841796875 225.3392333984375
v -1111.370849609375 1826.4404296875 225.33924865722656
v -1121.112060546875 1837.841796875 232.3392333984375
v -1111.370849609375 1826.4404296875 232.33924865722656
v -1111.370849609375 1826.4404296875 225.33924865722656
v -909.857177734375 1998.53515625 225.3392333984375
v -1111.370849609375 1826.4404296875 232.33924865722656
v -909.857177734375 1998.53515625 232.3392333984375
v -909.857177734375 1998.53515625 225.3392333984375
v -1111.370849609375 1826.4404296875 225.33924865722656
v -919.598388671875 2009.9365234375 225.3392333984375
v -1121.112060546875 1837.841796875 225.3392333984375
v -902.813720703125 1997.9736328125 227.3392333984375
v -919.0491943359375 2016.97998046875 227.3392333984375
v -907.1043701171875 1998.310791015625 232.3392333984375
v -919.386474609375 2012.689208984375 232.3391571044922
v -919.0491943359375 2016.97998046875 227.33921813964844
v -1128.143310546875 1838.36669921875 227.3390655517578
v -919.3863525390625 2012.689208984375 232.33924865722656
v -1123.8526611328125 1838.029541015625 232.33897399902344
v -1128.143310546875 1838.36669921875 227.33901977539062
v -1111.907958984375 1819.3603515625 227.3390350341797
v -1123.852783203125 1838.029541015625 232.3390655517578
v -1111.5706787109375 1823.651123046875 232.33905029296875
v -1111.907958984375 1819.3603515625 227.33908081054688
v -902.813720703125 1997.9736328125 227.3392333984375
v -1111.5706787109375 1823.651123046875 232.33905029296875
v -907.1044921875 1998.310791015625 232.33914184570312
v -902.813720703125 1997.9736328125 227.3392333984375
v -1111.907958984375 1819.3603515625 227.3390655517578
v -919.0491943359375 2016.97998046875 227.3392333984375
v -1128.143310546875 1838.36669921875 227.33905029296875
v 380.1331787109375 -474.0966796875 -416.7880859375
v 412.6160888671875 -512.1337890625 -416.7880859375
v 380.1331787109375 -474.0966796875 -316.7880859375
v 412.6160888671875 -512.1337890625 -316.7880859375
v 412.6160583496094 -512.1337890625 -416.7880859375
v 450.6409606933594 -479.65087890625 -416.7880859375
v 412.6160583496094 -512.1337890625 -316.7880859375
v 450.6409606933594 -479.65087890625 -316.7880859375
v 450.6409606933594 -479.65087890625 -416.7880859375
v 418.1580505371094 -441.6259765625 -416.7880859375
v 450.6409606933594 -479.65087890625 -316.7880859375
v 418.1580505371094 -441.6259765625 -316.7880859375
v 380.1331481933594 -474.0966796875 -291.7880859375
v 412.6160583496094 -512.1337890625 -291.7880859375
v 380.1331481933594 -474.0966796875 8.211896896362305
v 412.6160583496094 -512.1337890625 8.21190071105957
v 412.6160583496094 -512.1337890625 -291.7880859375
v 450.6409606933594 -479.65087890625 -291.7880859375
v 412.6160583496094 -512.1337890625 8.21190071105957
v 450.6409606933594 -479.65087890625 8.211899757385254
v 450.6409606933594 -479.65087890625 -291.7880859375
v 418.1580505371094 -441.6259765625 -291.7880859375
v 450.6409606933594 -479.65087890625 8.211899757385254
v 418.1580505371094 -441.6259765625 8.211894989013672
v 380.1331481933594 -474.0966796875 8.211896896362305
v 412.6160583496094 -512.1337890625 8.21190071105957
v 418.1580505371094 -441.6259765625 8.211894989013672
v 450.6409606933594 -479.65087890625 8.211899757385254
v -665.3868408203125 -1367.1265869140625 -416.7880859375
v -632.9283447265625 -1405.1270751953125 -416.7880554199219
v -665.3868408203125 -1367.1265869140625 -316.7880859375
v -632.9283447265625 -1405.1270751953125 -316.7880554199219
v -632.9283447265625 -1405.1270751953125 -416.7880554199219
v -594.9034423828125 -1372.65625 -416.7880859375
v -632.9283447265625 -1405.1270751953125 -316.7880554199219
v -594.9034423828125 -1372.65625 -316.7880859375
v -594.9034423828125 -1372.65625 -416.7880859375
v -627.3741455078125 -1334.6558837890625 -416.7880859375
v -594.9034423828125 -1372.65625 -316.7880859375
v -627.3741455078125 -1334.6558837890625 -316.7880859375
v -665.3868408203125 -1367.1265869140625 -291.7880859375
v -632.9283447265625 -1405.1270751953125 -291.7880554199219
v -665.3868408203125 -1367.1265869140625 8.211929321289062
v -632.9283447265625 -1405.1270751953125 8.211933135986328
v -632.9283447265625 -1405.1270751953125 -291.7880554199219
v -594.9034423828125 -1372.65625 -291.7880859375
v -632.9283447265625 -1405.1270751953125 8.211933135986328
v -594.9034423828125 -1372.65625 8.211932182312012
v -594.9034423828125 -1372.65625 -291.7880859375
v -627.3741455078125 -1334.6558837890625 -291.7880859375
v -594.9034423828125 -1372.65625 8.211932182312012
v -627.3741455078125 -1334.6558837890625 8.21192741394043
v -665.3868408203125 -1367.1265869140625 8.211929321289062
v -632.9283447265625 -1405.1270751953125 8.211933135986328
v -627.3741455078125 -1334.6558837890625 8.21192741394043
v -594.9034423828125 -1372.65625 8.211932182312012
v -133.11138916015625 -912.5000610351562 -416.7880859375
v -100.65289306640625 -950.5127563476562 -416.7880859375
v -133.11138916015625 -912.5 -316.7880859375
v -100.65289306640625 -950.5126953125 -316.7880859375
v -100.65289306640625 -950.5127563476562 -416.7880859375
v -62.62799072265625 -918.0420532226562 -416.7880859375
v -100.65289306640625 -950.5126953125 -316.7880859375
v -62.62799072265625 -918.0419921875 -316.7880859375
v -62.62799072265625 -918.0420532226562 -416.7880859375
v -95.09869384765625 -880.0293579101562 -416.7880859375
v -62.62799072265625 -918.0419921875 -316.7880859375
v -95.09869384765625 -880.029296875 -316.7880859375
v -133.11138916015625 -912.5 -291.7880859375
v -100.65289306640625 -950.5126953125 -291.7880859375
v -133.11138916015625 -912.5 8.211912155151367
v -100.65289306640625 -950.5126953125 8.21191692352295
v -100.65289306640625 -950.5126953125 -291.7880859375
v -62.62799072265625 -918.0419921875 -291.7880859375
v -100.65289306640625 -950.5126953125 8.21191692352295
v -62.62799072265625 -918.0419921875 8.211915969848633
v -62.62799072265625 -918.0419921875 -291.7881164550781
v -95.09869384765625 -880.029296875 -291.7881164550781
v -62.62799072265625 -918.0419921875 8.211820602416992
v -95.09869384765625 -880.029296875 8.21181583404541
v -133.11138916015625 -912.5 8.211912155151367
v -100.65289306640625 -950.5126953125 8.21191692352295
v -95.09869384765625 -880.029296875 8.21191120147705
v -62.62799072265625 -918.0419921875 8.211915969848633
v -1178.6802978515625 -1805.4810791015625 -416.78802490234375
v -1146.1973876953125 -1843.5059814453125 -416.78802490234375
v -1178.6802978515625 -1805.4810791015625 -316.78802490234375
v -1146.1973876953125 -1843.5059814453125 -316.78802490234375
v -1146.1973876953125 -1843.5059814453125 -416.78802490234375
v -1108.1846923828125 -1811.0352783203125 -416.78802490234375
v -1146.1973876953125 -1843.5059814453125 -316.78802490234375
v -1108.1846923828125 -1811.0352783203125 -316.78802490234375
v -1108.1846923828125 -1811.0352783203125 -416.78802490234375
v -1140.6676025390625 -1773.0103759765625 -416.78802490234375
v -1108.1846923828125 -1811.0352783203125 -316.78802490234375
v -1140.6676025390625 -1773.0103759765625 -316.78802490234375
v -1178.6802978515625 -1805.4810791015625 -291.78802490234375
v -1146.1973876953125 -1843.5059814453125 -291.78802490234375
v -1178.6802978515625 -1805.4810791015625 8.211944580078125
v -1146.1973876953125 -1843.5059814453125 8.211949348449707
v -1146.1973876953125 -1843.5059814453125 -291.7880554199219
v -1108.1846923828125 -1811.0352783203125 -291.7880554199219
v -1146.1973876953125 -1843.5059814453125 8.211853981018066
v -1108.1846923828125 -1811.0352783203125 8.21185302734375
v -1108.1846923828125 -1811.0352783203125 -291.78802490234375
v -1140.6676025390625 -1773.0103759765625 -291.78802490234375
v -1108.1846923828125 -1811.0352783203125 8.21194839477539
v -1140.6676025390625 -1773.0103759765625 8.211943626403809
v 1143.2679443359375 -1367.578125 8.212007522583008
v 412.61602783203125 -512.1337890625 8.21190071105957
v 450.64093017578125 -479.65087890625 8.211899757385254
v 668.0238037109375 -1773.47412109375 8.21202278137207
v 700.4945068359375 -1811.4990234375 8.212027549743652
v -62.6280517578125 -918.0420532226562 8.211915969848633
v 662.4696044921875 -1843.9698486328125 8.212028503417969
v 629.9989013671875 -1805.95703125 8.212023735046387
v -100.6529541015625 -950.5127563476562 8.21191692352295
v 135.73623657226562 -2228.1005859375 8.21203899383545
v 168.20693969726562 -2266.12548828125 8.212043762207031
v -594.9156494140625 -1372.6563720703125 8.211932182312012
v 130.19424438476562 -2298.583984375 8.212044715881348
v 97.71133422851562 -2260.5712890625 8.212040901184082
v -632.9283447265625 -1405.1270751953125 8.211933135986328
v -377.53277587890625 -2666.4794921875 8.212055206298828
v -345.04986572265625 -2704.4921875 8.212059020996094
v -1146.1973876953125 -1843.5059814453125 8.211949348449707
v -1108.1846923828125 -1811.0352783203125 8.21194839477539
v 347.5527038574219 -3592.431640625 8.212167739868164
v 385.5776062011719 -3559.94873046875 8.212166786193848
v 860.8217163085938 -3154.052734375 8.212152481079102
v 898.8466186523438 -3121.56982421875 8.212150573730469
v 1393.09716796875 -2699.4384765625 8.212135314941406
v 1431.1220703125 -2666.95556640625 8.21213436126709
v 1175.7386474609375 -1405.5908203125 8.21201229095459
v 1944.4031982421875 -2228.564453125 8.212118148803711
v 1906.3782958984375 -2261.04736328125 8.212119102478027
v 418.15802001953125 -441.6259765625 8.211894989013672
v -1140.66552734375 -1773.0128173828125 8.211943626403809
v 1143.26806640625 -1367.578125 8.212007522583008
v 412.6160583496094 -512.1337890625 58.2119026184082
v 1143.26806640625 -1367.578125 58.21200942993164
v 1143.26806640625 -1367.578125 8.212007522583008
v 668.0238037109375 -1773.47412109375 8.21202278137207
v 1143.26806640625 -1367.578125 58.21200942993164
v 668.0238037109375 -1773.47412109375 58.21202087402344
v 668.0238037109375 -1773.47412109375 8.21202278137207
v -62.6279296875 -918.0421142578125 8.211915969848633
v 668.0238037109375 -1773.47412109375 58.212013244628906
v -62.6279296875 -918.0421142578125 58.21190643310547
v 629.9989013671875 -1805.9569091796875 8.212023735046387
v -100.65289306640625 -950.5126953125 58.211917877197266
v 629.9989013671875 -1805.9569091796875 58.2120246887207
v 629.9989013671875 -1805.95703125 8.212023735046387
v 135.73623657226562 -2228.1005859375 8.21203899383545
v 629.9989013671875 -1805.95703125 58.2120246887207
v 135.73623657226562 -2228.1005859375 58.2120361328125
v 135.7362060546875 -2228.1005859375 8.21203899383545
v -594.9156494140625 -1372.6563720703125 8.211932182312012
v 135.7362060546875 -2228.1005859375 58.2120361328125
v -594.9156494140625 -1372.6563720703125 58.21193313598633
v -632.9283447265625 -1405.126953125 8.211933135986328
v 97.71124267578125 -2260.5712890625 8.212040901184082
v -632.9283447265625 -1405.126953125 58.21192932128906
v 97.71124267578125 -2260.5712890625 58.212032318115234
v 97.7113037109375 -2260.5712890625 8.212040901184082
v -377.53277587890625 -2666.4794921875 8.212055206298828
v 97.7113037109375 -2260.5712890625 58.212039947509766
v -377.53277587890625 -2666.4794921875 58.21205139160156
v -377.53277587890625 -2666.4794921875 8.212055206298828
v -377.53277587890625 -2666.4794921875 58.21205139160156
v -1108.1846923828125 -1811.0352783203125 58.21194839477539
v -1146.1973876953125 -1843.505859375 8.211949348449707
v 347.5526123046875 -3592.431396484375 8.212167739868164
v -1146.1973876953125 -1843.505859375 58.211952209472656
v 347.5526123046875 -3592.431396484375 58.2121696472168
v 385.57757568359375 -3559.94873046875 8.212166786193848
v -345.04974365234375 -2704.4921875 8.212059020996094
v 385.57757568359375 -3559.94873046875 58.21216583251953
v -345.04974365234375 -2704.4921875 58.212059020996094
v -345.04986572265625 -2704.4921875 8.212059020996094
v 130.19418334960938 -2298.583984375 8.212044715881348
v -345.04986572265625 -2704.4921875 58.212059020996094
v 130.19418334960938 -2298.583984375 58.21204376220703
v 130.1942138671875 -2298.583984375 8.212044715881348
v 860.8217163085938 -3154.052734375 8.212152481079102
v 130.1942138671875 -2298.583984375 58.21204376220703
v 860.8217163085938 -3154.052734375 58.212154388427734
v 898.8466796875 -3121.56982421875 8.212150573730469
v 168.206787109375 -2266.12548828125 8.212043762207031
v 898.8466796875 -3121.56982421875 58.21214294433594
v 168.206787109375 -2266.12548828125 58.2120361328125
v 168.2069091796875 -2266.12548828125 8.212043762207031
v 662.4696044921875 -1843.9698486328125 8.212028503417969
v 168.2069091796875 -2266.12548828125 58.21204376220703
v 662.4696044921875 -1843.9698486328125 58.21202850341797
v 662.4696044921875 -1843.9698486328125 8.212028503417969
v 1393.096923828125 -2699.4384765625 8.212135314941406
v 662.4696044921875 -1843.9698486328125 58.21202850341797
v 1393.096923828125 -2699.4384765625 58.212135314941406
v 1431.1220703125 -2666.95556640625 8.21213436126709
v 700.4944458007812 -1811.4989013671875 8.212027549743652
v 1431.1220703125 -2666.95556640625 58.21213150024414
v 700.4944458007812 -1811.4989013671875 58.21202850341797
v 700.4945068359375 -1811.4990234375 8.212027549743652
v 1175.73876953125 -1405.5908203125 8.21201229095459
v 700.4945068359375 -1811.4990234375 58.21202850341797
v 1175.73876953125 -1405.5908203125 58.212013244628906
v 1175.73876953125 -1405.5908203125 8.21201229095459
v 1906.37841796875 -2261.04736328125 8.212119102478027
v 1175.73876953125 -1405.5908203125 58.212013244628906
v 1906.37841796875 -2261.04736328125 58.212120056152344
v 1944.4031982421875 -2228.564453125 8.212118148803711
v 450.64105224609375 -479.65087890625 8.211899757385254
v 1944.4031982421875 -2228.564453125 58.21211624145508
v 450.64105224609375 -479.65087890625 58.21189880371094
v 1143.26806640625 -1367.578125 58.21200942993164
v 450.64093017578125 -479.65087890625 58.21189880371094
v 412.61602783203125 -512.1337890625 58.2119026184082
v 668.0238037109375 -1773.47412109375 58.21202087402344
v 700.4945068359375 -1811.4990234375 58.21202850341797
v -62.62799072265625 -918.0419921875 58.2119140625
v 629.9989013671875 -1805.95703125 58.2120246887207
v 662.4696044921875 -1843.9698486328125 58.21202850341797
v -100.65289306640625 -950.5126953125 58.211917877197266
v 135.7362060546875 -2228.1005859375 58.2120361328125
v 168.2069091796875 -2266.12548828125 58.21204376220703
v -594.9156494140625 -1372.65625 58.21193313598633
v 97.7113037109375 -2260.5712890625 58.212039947509766
v 130.1942138671875 -2298.583984375 58.21204376220703
v -632.9283447265625 -1405.126953125 58.211936950683594
v -377.53277587890625 -2666.4794921875 58.21205139160156
v -345.04986572265625 -2704.4921875 58.212059020996094
v -1108.1846923828125 -1811.03515625 58.21194839477539
v -1146.1973876953125 -1843.505859375 58.211952209472656
v 347.55267333984375 -3592.431640625 58.2121696472168
v 385.57757568359375 -3559.94873046875 58.21216583251953
v 860.82177734375 -3154.052734375 58.212154388427734
v 898.8466796875 -3121.56982421875 58.21215057373047
v 1393.096923828125 -2699.4384765625 58.212135314941406
v 1431.1220703125 -2666.95556640625 58.21213150024414
v 1175.73876953125 -1405.5908203125 58.212013244628906
v 1906.3782958984375 -2261.04736328125 58.212120056152344
v 1944.4031982421875 -2228.564453125 58.21211624145508
v -1178.6802978515625 -1805.4810791015625 58.211944580078125
v -1146.1973876953125 -1843.5059814453125 8.211949348449707
v 450.6407470703125 -479.651123046875 8.211899757385254
v -1146.1973876953125 -1843.5059814453125 58.211952209472656
v 450.6407470703125 -479.651123046875 58.21189880371094
v 450.64093017578125 -479.65087890625 8.211899757385254
v 418.15802001953125 -441.6259765625 8.211894989013672
v 450.64093017578125 -479.65087890625 58.21189880371094
v 418.15802001953125 -441.6259765625 58.21189498901367
v -1178.6802978515625 -1805.4810791015625 58.211944580078125
v 418.15802001953125 -441.6259765625 58.21189498901367
v 1906.3660888671875 -2261.0595703125 -416.7878723144531
v 1938.8245849609375 -2299.072265625 -416.7878723144531
v 1906.3660888671875 -2261.0595703125 -316.7878723144531
v 1938.8245849609375 -2299.072265625 -316.7878723144531
v 1976.8494873046875 -2266.58935546875 -416.7878723144531
v 1944.3909912109375 -2228.57666015625 -416.7878723144531
v 1976.8494873046875 -2266.58935546875 -316.7878723144531
v 1944.3909912109375 -2228.57666015625 -316.7878723144531
v 1944.3909912109375 -2228.57666015625 -416.7878723144531
v 1906.3660888671875 -2261.0595703125 -416.7878723144531
v 1944.3909912109375 -2228.57666015625 -316.7878723144531
v 1906.3660888671875 -2261.0595703125 -316.7878723144531
v 1906.3660888671875 -2261.0595703125 -291.7878723144531
v 1938.8245849609375 -2299.072265625 -291.7878723144531
v 1906.3660888671875 -2261.0595703125 8.212119102478027
v 1938.8245849609375 -2299.072265625 8.21212387084961
v 1976.8494873046875 -2266.58935546875 -291.7878723144531
v 1944.3909912109375 -2228.57666015625 -291.7878723144531
v 1976.8494873046875 -2266.58935546875 8.212122917175293
v 1944.3909912109375 -2228.57666015625 8.212118148803711
v 1944.3909912109375 -2228.57666015625 -291.7878723144531
v 1906.3660888671875 -2261.0595703125 -291.7878723144531
v 1944.3909912109375 -2228.57666015625 8.212118148803711
v 1906.3660888671875 -2261.0595703125 8.212119102478027
v 1906.3660888671875 -2261.0595703125 8.212119102478027
v 1938.8245849609375 -2299.072265625 8.21212387084961
v 1944.3909912109375 -2228.57666015625 8.212118148803711
v 1976.8494873046875 -2266.58935546875 8.212122917175293
v 860.82177734375 -3154.052734375 -416.7878112792969
v 893.3046875 -3192.10205078125 -416.7878112792969
v 860.82177734375 -3154.052734375 -316.7878112792969
v 893.3046875 -3192.10205078125 -316.7878112792969
v 931.3173828125 -3159.619140625 -416.7878112792969
v 898.83447265625 -3121.58203125 -416.787841796875
v 931.3173828125 -3159.619140625 -316.7878112792969
v 898.83447265625 -3121.58203125 -316.787841796875
v 898.83447265625 -3121.58203125 -416.787841796875
v 860.82177734375 -3154.052734375 -416.7878112792969
v 898.83447265625 -3121.58203125 -316.787841796875
v 860.82177734375 -3154.052734375 -316.7878112792969
v 860.82177734375 -3154.052734375 -291.7878112792969
v 893.3046875 -3192.10205078125 -291.7878112792969
v 860.82177734375 -3154.052734375 8.212152481079102
v 893.3046875 -3192.10205078125 8.212156295776367
v 931.3173828125 -3159.619140625 -291.7878112792969
v 898.83447265625 -3121.58203125 -291.787841796875
v 931.3173828125 -3159.619140625 8.21215534210205
v 898.83447265625 -3121.58203125 8.212150573730469
v 898.83447265625 -3121.58203125 -291.787841796875
v 860.82177734375 -3154.052734375 -291.7878112792969
v 898.83447265625 -3121.58203125 8.212150573730469
v 860.82177734375 -3154.052734375 8.212152481079102
v 860.82177734375 -3154.052734375 8.212152481079102
v 893.3046875 -3192.10205078125 8.212156295776367
v 898.83447265625 -3121.58203125 8.212150573730469
v 931.3173828125 -3159.619140625 8.21215534210205
v 1393.096923828125 -2699.4384765625 -416.7878723144531
v 1425.56787109375 -2737.46337890625 -416.7878723144531
v 1393.096923828125 -2699.4384765625 -316.7878723144531
v 1425.56787109375 -2737.46337890625 -316.7878723144531
v 1463.5927734375 -2704.99267578125 -416.7878723144531
v 1431.10986328125 -2666.9677734375 -416.7878723144531
v 1463.5927734375 -2704.99267578125 -316.7878723144531
v 1431.10986328125 -2666.9677734375 -316.7878723144531
v 1431.10986328125 -2666.9677734375 -416.7878723144531
v 1393.096923828125 -2699.4384765625 -416.7878723144531
v 1431.10986328125 -2666.9677734375 -316.7878723144531
v 1393.096923828125 -2699.4384765625 -316.7878723144531
v 1393.096923828125 -2699.4384765625 -291.7878723144531
v 1425.56787109375 -2737.46337890625 -291.7878723144531
v 1425.56787109375 -2737.46337890625 8.212139129638672
v 1463.5927734375 -2704.99267578125 -291.7878723144531
v 1431.10986328125 -2666.9677734375 -291.7878723144531
v 1463.5927734375 -2704.99267578125 8.212138175964355
v 1431.10986328125 -2666.9677734375 8.21213436126709
v 1431.10986328125 -2666.9677734375 -291.7878723144531
v 1393.096923828125 -2699.4384765625 -291.7878723144531
v 1431.10986328125 -2666.9677734375 8.21213436126709
v 1393.096923828125 -2699.4384765625 8.212135314941406
v 1393.096923828125 -2699.4384765625 8.212135314941406
v 1425.56787109375 -2737.46337890625 8.212139129638672
v 1431.10986328125 -2666.9677734375 8.21213436126709
v 1463.5927734375 -2704.99267578125 8.212138175964355
v 347.5404968261719 -3592.431640625 -416.7878112792969
v 380.0111999511719 -3630.4443359375 -416.7878112792969
v 347.5404968261719 -3592.431640625 -316.7878112792969
v 380.0111999511719 -3630.4443359375 -316.7878112792969
v 418.0238952636719 -3597.9736328125 -416.7878112792969
v 385.5653991699219 -3559.9609375 -416.7878112792969
v 418.0238952636719 -3597.9736328125 -316.7878112792969
v 385.5653991699219 -3559.9609375 -316.7878112792969
v 385.5653991699219 -3559.9609375 -416.7878112792969
v 347.54052734375 -3592.431640625 -416.7878112792969
v 385.5653991699219 -3559.9609375 -316.7878112792969
v 347.5404968261719 -3592.431640625 -316.7878112792969
v 347.5404968261719 -3592.431640625 -291.7878112792969
v 380.0111999511719 -3630.4443359375 -291.7878112792969
v 347.54046630859375 -3592.431640625 8.212167739868164
v 380.01116943359375 -3630.4443359375 8.212172508239746
v 418.0238952636719 -3597.9736328125 -291.7878112792969
v 385.5653991699219 -3559.9609375 -291.7878112792969
v 418.02386474609375 -3597.9736328125 8.212170600891113
v 385.56536865234375 -3559.9609375 8.212166786193848
v 385.5653991699219 -3559.9609375 -291.7878112792969
v 347.5404968261719 -3592.431640625 -291.7878112792969
v 385.56536865234375 -3559.9609375 8.212166786193848
v 347.5404968261719 -3592.431640625 8.212167739868164
v 1976.8494873046875 -2266.58935546875 8.212122917175293
v 418.0209045410156 -3597.97021484375 8.212170600891113
v 1944.3909912109375 -2228.57666015625 8.212118148803711
v 385.56829833984375 -3559.96435546875 8.212166786193848
v 347.54046630859375 -3592.44384765625 8.212167739868164
v 379.99896240234375 -3630.4443359375 8.212172508239746
v 347.54046630859375 -3592.44384765625 58.212162017822266
v 379.99896240234375 -3630.4443359375 58.21216583251953
v 1976.8494873046875 -2266.58935546875 58.21211242675781
v 1944.3909912109375 -2228.57666015625 58.21210861206055
v 347.5404052734375 -3592.44384765625 8.212167739868164
v 1944.3909912109375 -2228.57666015625 58.21211624145508
v 347.5403747558594 -3592.44384765625 58.2121696472168
v 347.54046630859375 -3592.44384765625 58.2121696472168
v 379.99896240234375 -3630.4443359375 58.21217346191406
v 1944.3909912109375 -2228.57666015625 58.21211624145508
v 1976.8494873046875 -2266.58935546875 58.212120056152344
v -2120.54296875 -702.6563720703125 83.21179962158203
v -2153.02099609375 -664.6241455078125 83.21179962158203
v -2457.19580078125 -924.402099609375 83.21180725097656
v -2424.71728515625 -962.4348754882812 83.21180725097656
v -2120.54296875 -702.6563720703125 58.7118034362793
v -2120.54296875 -702.6563720703125 83.21179962158203
v -2424.71728515625 -962.4348754882812 83.21180725097656
v -2424.71728515625 -962.4348754882812 58.711814880371094
v -2088.06494140625 -740.6886596679688 58.71181106567383
v -2120.54296875 -702.6563720703125 58.7118034362793
v -2424.71728515625 -962.4348754882812 58.711814880371094
v -2392.23876953125 -1000.4677124023438 58.71181869506836
v -2088.06494140625 -740.6886596679688 34.21181106567383
v -2088.06494140625 -740.6886596679688 58.71181106567383
v -2392.23876953125 -1000.4677124023438 58.71181869506836
v -2392.23876953125 -1000.4677124023438 34.21181869506836
v -2055.5869140625 -778.7207641601562 34.211814880371094
v -2088.06494140625 -740.6886596679688 34.21181106567383
v -2392.23876953125 -1000.4677124023438 34.21181869506836
v -2359.759765625 -1038.50048828125 34.21182632446289
v -2055.5869140625 -778.7207641601562 9.711814880371094
v -2055.5869140625 -778.7207641601562 34.211814880371094
v -2359.759765625 -1038.50048828125 34.21182632446289
v -2359.759765625 -1038.50048828125 9.711824417114258
v -2023.1090087890625 -816.7530517578125 9.71181869506836
v -2055.5869140625 -778.7207641601562 9.711814880371094
v -2359.759765625 -1038.50048828125 9.711824417114258
v -2327.28125 -1076.533447265625 9.711828231811523
v -2023.1090087890625 -816.7530517578125 -14.78818130493164
v -2023.1090087890625 -816.7530517578125 9.71181869506836
v -2327.28125 -1076.533447265625 9.711828231811523
v -2327.28125 -1076.533447265625 -14.788171768188477
v -1990.6309814453125 -854.7852783203125 -14.788175582885742
v -2023.1090087890625 -816.7530517578125 -14.78818130493164
v -2327.28125 -1076.533447265625 -14.788171768188477
v -2294.802734375 -1114.566162109375 -14.788166046142578
v -1990.6309814453125 -854.7852783203125 -39.288177490234375
v -1990.6309814453125 -854.7852783203125 -14.788175582885742
v -2294.802734375 -1114.566162109375 -14.788166046142578
v -2294.802734375 -1114.566162109375 -39.288169860839844
v -1958.1529541015625 -892.8175048828125 -39.28817367553711
v -1990.6309814453125 -854.7852783203125 -39.288177490234375
v -2294.802734375 -1114.566162109375 -39.288169860839844
v -2262.32421875 -1152.59912109375 -39.28816223144531
v -1958.1529541015625 -892.8175048828125 -63.78817367553711
v -1958.1529541015625 -892.8175048828125 -39.28817367553711
v -2262.32421875 -1152.59912109375 -39.28816223144531
v -2262.32421875 -1152.59912109375 -63.78816223144531
v -1925.6749267578125 -930.8497924804688 -63.78816604614258
v -1958.1529541015625 -892.8175048828125 -63.78817367553711
v -2262.32421875 -1152.59912109375 -63.78816223144531
v -2229.845703125 -1190.6318359375 -63.78815841674805
v -1925.6749267578125 -930.8497924804688 -88.28816986083984
v -1925.6749267578125 -930.8497924804688 -63.78816604614258
v -2229.845703125 -1190.6318359375 -63.78815841674805
v -2229.845703125 -1190.6318359375 -88.28815460205078
v -1893.1968994140625 -968.8819580078125 -88.28816223144531
v -1925.6749267578125 -930.8497924804688 -88.28816986083984
v -2229.845703125 -1190.6318359375 -88.28815460205078
v -2197.36669921875 -1228.6646728515625 -88.28815460205078
v -1893.1968994140625 -968.8819580078125 -112.78816223144531
v -1893.1968994140625 -968.8819580078125 -88.28816223144531
v -2197.36669921875 -1228.6646728515625 -88.28815460205078
v -2197.36669921875 -1228.6646728515625 -112.78815460205078
v -1860.7188720703125 -1006.9141845703125 -112.78813934326172
v -1893.1968994140625 -968.8819580078125 -112.78816223144531
v -2197.36669921875 -1228.6646728515625 -112.78815460205078
v -2164.88818359375 -1266.697509765625 -112.78813171386719
v -1860.7188720703125 -1006.9141845703125 -137.28814697265625
v -1860.7188720703125 -1006.9141845703125 -112.78813934326172
v -2164.88818359375 -1266.697509765625 -112.78813171386719
v -2164.88818359375 -1266.697509765625 -137.28814697265625
v -1828.2408447265625 -1044.9464111328125 -137.28814697265625
v -1860.7188720703125 -1006.9141845703125 -137.28814697265625
v -2164.88818359375 -1266.697509765625 -137.28814697265625
v -2132.40966796875 -1304.7303466796875 -137.28811645507812
v -1828.2408447265625 -1044.9464111328125 -161.7881622314453
v -1828.2408447265625 -1044.9464111328125 -137.28814697265625
v -2132.40966796875 -1304.7303466796875 -137.28811645507812
v -2132.40966796875 -1304.7303466796875 -161.7881317138672
v -1795.7628173828125 -1082.9786376953125 -161.78817749023438
v -1828.2408447265625 -1044.9464111328125 -161.7881622314453
v -2132.40966796875 -1304.7303466796875 -161.7881317138672
v -2099.9306640625 -1342.76318359375 -161.7881622314453
v -1795.7628173828125 -1082.9786376953125 -186.2881622314453
v -1795.7628173828125 -1082.9786376953125 -161.78817749023438
v -2099.9306640625 -1342.76318359375 -161.7881622314453
v -2099.9306640625 -1342.76318359375 -186.28814697265625
v -1763.2847900390625 -1121.0108642578125 -186.28814697265625
v -1795.7628173828125 -1082.9786376953125 -186.2881622314453
v -2099.9306640625 -1342.76318359375 -186.28814697265625
v -2067.4521484375 -1380.796142578125 -186.28814697265625
v -1763.2847900390625 -1121.0108642578125 -210.7881317138672
v -1763.2847900390625 -1121.0108642578125 -186.28814697265625
v -2067.4521484375 -1380.796142578125 -186.28814697265625
v -2067.4521484375 -1380.796142578125 -210.7881317138672
v -1730.8067626953125 -1159.0430908203125 -210.7881317138672
v -1763.2847900390625 -1121.0108642578125 -210.7881317138672
v -2067.4521484375 -1380.796142578125 -210.7881317138672
v -2034.9735107421875 -1418.828857421875 -210.7881317138672
v -1730.8067626953125 -1159.0430908203125 -235.28811645507812
v -1730.8067626953125 -1159.0430908203125 -210.7881317138672
v -2034.9735107421875 -1418.828857421875 -210.7881317138672
v -2034.9735107421875 -1418.828857421875 -235.28811645507812
v -1698.3287353515625 -1197.0753173828125 -235.28811645507812
v -1730.8067626953125 -1159.0430908203125 -235.28811645507812
v -2034.9735107421875 -1418.828857421875 -235.28811645507812
v -2002.4949951171875 -1456.8616943359375 -235.28811645507812
v -1698.3287353515625 -1197.0753173828125 -259.78814697265625
v -1698.3287353515625 -1197.0753173828125 -235.28811645507812
v -2002.4949951171875 -1456.8616943359375 -235.28811645507812
v -2002.4949951171875 -1456.8616943359375 -259.78814697265625
v -1665.8507080078125 -1235.107666015625 -259.78814697265625
v -1698.3287353515625 -1197.0753173828125 -259.78814697265625
v -2002.4949951171875 -1456.8616943359375 -259.78814697265625
v -1970.0162353515625 -1494.89453125 -259.7881164550781
v -1665.8507080078125 -1235.107666015625 -284.28814697265625
v -1665.8507080078125 -1235.107666015625 -259.78814697265625
v -1970.0162353515625 -1494.89453125 -259.7881164550781
v -1970.0162353515625 -1494.89453125 -284.2881164550781
v -1633.3726806640625 -1273.1397705078125 -284.28814697265625
v -1665.8507080078125 -1235.107666015625 -284.28814697265625
v -1970.0162353515625 -1494.89453125 -284.2881164550781
v -1937.5377197265625 -1532.9273681640625 -284.2881164550781
v -1633.3726806640625 -1273.1397705078125 -308.78814697265625
v -1633.3726806640625 -1273.1397705078125 -284.28814697265625
v -1937.5377197265625 -1532.9273681640625 -284.2881164550781
v -1937.5377197265625 -1532.9273681640625 -308.7881164550781
v -1600.8948974609375 -1311.1719970703125 -308.78814697265625
v -1633.3726806640625 -1273.1397705078125 -308.78814697265625
v -1937.5377197265625 -1532.9273681640625 -308.7881164550781
v -1905.0592041015625 -1570.960205078125 -308.7881164550781
v -1600.8948974609375 -1311.1719970703125 -333.2881164550781
v -1600.8948974609375 -1311.1719970703125 -308.78814697265625
v -1905.0592041015625 -1570.960205078125 -308.7881164550781
v -1905.0592041015625 -1570.960205078125 -333.2880859375
v -1568.4166259765625 -1349.2042236328125 -333.2881164550781
v -1600.8948974609375 -1311.1719970703125 -333.2881164550781
v -1905.0592041015625 -1570.960205078125 -333.2880859375
v -1872.5806884765625 -1608.9930419921875 -333.2880859375
v -1568.4166259765625 -1349.2042236328125 -357.7881164550781
v -1568.4166259765625 -1349.2042236328125 -333.2881164550781
v -1872.5806884765625 -1608.9930419921875 -333.2880859375
v -1872.5806884765625 -1608.9930419921875 -357.7880859375
v -1535.9384765625 -1387.236572265625 -357.7881164550781
v -1568.4166259765625 -1349.2042236328125 -357.7881164550781
v -1872.5806884765625 -1608.9930419921875 -357.7880859375
v -1840.1019287109375 -1647.02587890625 -357.7881164550781
v -1535.9384765625 -1387.236572265625 -382.2881164550781
v -1535.9384765625 -1387.236572265625 -357.7881164550781
v -1840.1019287109375 -1647.02587890625 -357.7881164550781
v -1840.1019287109375 -1647.02587890625 -382.2881164550781
v -1503.4605712890625 -1425.2686767578125 -382.2881164550781
v -1535.9384765625 -1387.236572265625 -382.2881164550781
v -1840.1019287109375 -1647.02587890625 -382.2881164550781
v -1807.6231689453125 -1685.0587158203125 -382.2881164550781
v -1503.4605712890625 -1425.2686767578125 -406.7881164550781
v -1503.4605712890625 -1425.2686767578125 -382.2881164550781
v -1807.6231689453125 -1685.0587158203125 -382.2881164550781
v -1807.6231689453125 -1685.0587158203125 -406.7881164550781
v -2152.8671875 -664.876953125 -416.7882080078125
v -1482.8428955078125 -2065.27099609375 -416.7880554199219
v -1178.6925048828125 -1805.4810791015625 -416.78802490234375
v -2457.033203125 -924.6632690429688 -416.7881774902344
v -0.201080322265625 -3955.17578125 -416.7878112792969
v -1558.8900146484375 -2130.215576171875 -416.78802490234375
v 647.8699340820312 675.1220703125 -416.7881774902344
v 583.0261840820312 751.18408203125 -416.7888488769531
v 418.1458435058594 -441.63818359375 -416.7880859375
v 2661.13916015625 -1682.1533203125 -416.78790283203125
v -101.33660888671875 166.7236328125 -416.78857421875
v -36.4683837890625 90.63720703125 -416.7881774902344
v -2742.24267578125 3303.076171875 -416.78857421875
v -784.149169921875 504.13818359375 -416.7882385253906
v -2992.29150390625 3089.501953125 -416.7885437011719
v -784.161376953125 504.1259765625 -416.7882385253906
v -2152.87451171875 -664.8683471679688 -416.7882080078125
v -1178.6925048828125 -1805.4810791015625 -416.78802490234375
v -2152.87451171875 -664.8682861328125 -316.7882080078125
v -1178.6925048828125 -1805.4810791015625 -316.78802490234375
v -1178.6925048828125 -1805.4810791015625 -416.78802490234375
v 418.1458435058594 -441.63818359375 -416.7880859375
v -1178.6925048828125 -1805.4810791015625 -316.78802490234375
v 418.1458435058594 -441.63818359375 -316.7880859375
v 418.1458435058594 -441.63818359375 -416.7880859375
v -36.46844482421875 90.63720703125 -416.7881774902344
v 418.1458435058594 -441.63818359375 -316.7880859375
v -36.46844482421875 90.63720703125 -316.7881774902344
v -2152.87451171875 -664.8682861328125 -291.7882080078125
v -1178.6925048828125 -1805.4810791015625 -291.78802490234375
v -2152.87451171875 -664.8682861328125 83.21179962158203
v -1178.6925048828125 -1805.4810791015625 83.21194458007812
v -1178.6925048828125 -1805.4810791015625 -291.78802490234375
v 418.1458435058594 -441.63818359375 -291.7880859375
v -1178.6925048828125 -1805.4810791015625 83.21194458007812
v 418.14581298828125 -441.63818359375 83.2118911743164
v 418.1458435058594 -441.63818359375 -291.7880859375
v -36.46844482421875 90.63720703125 -291.7881774902344
v 418.14581298828125 -441.63818359375 83.2118911743164
v -36.46844482421875 90.63720703125 83.21182250976562
v 647.8699340820312 675.1220703125 -416.7881774902344
v 2661.138671875 -1682.1533203125 -416.78790283203125
v 647.8699340820312 675.1220703125 -316.7881774902344
v 2661.138671875 -1682.1531982421875 -316.78790283203125
v -0.20098876953125 -3955.17578125 -416.7878112792969
v -0.20098876953125 -3955.17578125 -316.7878112792969
v 1203.1973876953125 -2927.36572265625 -316.787841796875
v 1203.1973876953125 -2927.36572265625 -416.787841796875
v 1297.107177734375 -2847.158447265625 -416.787841796875
v 1297.107177734375 -2847.158447265625 -316.787841796875
v 2661.13916015625 -1682.1531982421875 -316.78790283203125
v 2661.13916015625 -1682.1533203125 -416.78790283203125
v -0.201080322265625 -3955.17578125 -416.7878112792969
v -1558.8929443359375 -2130.21240234375 -416.78802490234375
v -0.201080322265625 -3955.17578125 -316.7878112792969
v -1558.8929443359375 -2130.21240234375 -316.78802490234375
v 647.869873046875 675.1220703125 -291.7881774902344
v 2661.138671875 -1682.1531982421875 -291.78790283203125
v 647.869873046875 675.1220703125 33.21180725097656
v 2661.138671875 -1682.1531982421875 33.212100982666016
v 2661.13916015625 -1682.1531982421875 -291.78790283203125
v 1297.107177734375 -2847.158447265625 -291.787841796875
v 1297.107177734375 -2847.158447265625 -161.7879638671875
v 1203.1973876953125 -2927.36572265625 -161.78794860839844
v 2197.57568359375 -2078.07763671875 -110.40277099609375
v 2197.57568359375 -2078.07763671875 -44.70276641845703
v 2147.84521484375 -2120.5517578125 -44.70276641845703
v 2661.13916015625 -1682.1531982421875 33.212100982666016
v 1203.1973876953125 -2927.36572265625 -291.787841796875
v -0.20098876953125 -3955.17578125 -291.7878112792969
v -0.201019287109375 -3955.17578125 33.21218490600586
v 2147.84521484375 -2120.5517578125 -110.40277099609375
v -0.201080322265625 -3955.17578125 -291.7878112792969
v -1558.8929443359375 -2130.21240234375 -291.78802490234375
v -0.20111083984375 -3955.17578125 33.21218490600586
v -1558.8929443359375 -2130.21240234375 33.21195602416992
v 1304.278564453125 -2855.55517578125 -161.7879638671875
v 1210.368896484375 -2935.762451171875 -161.78794860839844
v 1297.107177734375 -2847.158447265625 -161.7879638671875
v 1203.1973876953125 -2927.36572265625 -161.78794860839844
v 1304.278564453125 -2855.55517578125 -416.7879333496094
v 1297.107177734375 -2847.158447265625 -416.7879333496094
v 1210.368896484375 -2935.762451171875 -416.7879333496094
v 1203.1973876953125 -2927.36572265625 -416.7879333496094
v 1304.278564453125 -2855.55517578125 -161.7879638671875
v 1297.107177734375 -2847.158447265625 -416.7879333496094
v 1304.278564453125 -2855.55517578125 -416.7879333496094
v 1297.107177734375 -2847.158447265625 -161.7879638671875
v 1210.368896484375 -2935.762451171875 -161.78794860839844
v 1210.368896484375 -2935.762451171875 -416.7879333496094
v 1203.1973876953125 -2927.36572265625 -416.7879333496094
v 1203.1973876953125 -2927.36572265625 -161.78794860839844
v 2201.421875 -2082.5810546875 -44.70276641845703
v 2151.69189453125 -2125.055419921875 -44.70276641845703
v 2197.57568359375 -2078.07763671875 -44.70276641845703
v 2147.84521484375 -2120.5517578125 -44.70276641845703
v 2201.421875 -2082.5810546875 -110.40277099609375
v 2197.57568359375 -2078.07763671875 -110.40277099609375
v 2151.69189453125 -2125.055419921875 -110.40276336669922
v 2147.84521484375 -2120.5517578125 -110.40277099609375
v 2201.421875 -2082.5810546875 -44.70276641845703
v 2197.57568359375 -2078.07763671875 -110.40277099609375
v 2201.421875 -2082.5810546875 -110.40277099609375
v 2197.57568359375 -2078.07763671875 -44.70276641845703
v 2151.69189453125 -2125.055419921875 -44.70276641845703
v 2151.69189453125 -2125.055419921875 -110.40276336669922
v 2147.84521484375 -2120.5517578125 -110.40277099609375
v 2147.84521484375 -2120.5517578125 -44.70276641845703
v -36.456146240234375 90.63720703125 33.21182632446289
v 647.8699340820312 675.1220703125 33.21180725097656
v 418.1458740234375 -441.6259765625 33.21189498901367
v -1178.6925048828125 -1805.4810791015625 33.211944580078125
v -0.20111083984375 -3955.17578125 33.21218490600586
v -1503.4239501953125 -1425.2808837890625 33.21189880371094
v -1482.8551025390625 -2065.2587890625 33.21195602416992
v -1807.5865478515625 -1685.0709228515625 33.21190643310547
v -1558.8927001953125 -2130.21240234375 33.21195602416992
v 2661.13916015625 -1682.1531982421875 33.212100982666016
v -36.456146240234375 90.63720703125 33.21182632446289
v 418.14581298828125 -441.6259765625 33.21189498901367
v -36.456146240234375 90.63720703125 63.21182632446289
v 418.14581298828125 -441.6259765625 63.21189498901367
v -1503.4239501953125 -1425.2808837890625 33.21189880371094
v -1807.5865478515625 -1685.0709228515625 33.21190643310547
v -1503.4239501953125 -1425.2808837890625 63.21189498901367
v -1807.5865478515625 -1685.0709228515625 63.2119026184082
v -1634.9302978515625 -2195.15380859375 -416.78802490234375
v -1482.8428955078125 -2065.27099609375 -416.7880554199219
v -1634.9302978515625 -2195.15380859375 -316.78802490234375
v -1482.8428955078125 -2065.27099609375 -316.7880554199219
v -1482.8428955078125 -2065.27099609375 -416.7880554199219
v -2457.037109375 -924.6582641601562 -416.7881774902344
v -1482.8428955078125 -2065.27099609375 -316.7880554199219
v -2457.037109375 -924.658203125 -316.7881774902344
v -1634.9302978515625 -2195.15380859375 -291.78802490234375
v -1482.8428955078125 -2065.27099609375 -291.7880554199219
v -1634.9302978515625 -2195.15380859375 83.21195220947266
v -1482.8428955078125 -2065.27099609375 83.21195220947266
v -1482.8428955078125 -2065.27099609375 -291.7880554199219
v -2457.037109375 -924.658203125 -291.7881774902344
v -1482.8428955078125 -2065.27099609375 83.21195220947266
v -2457.037109375 -924.658203125 83.21180725097656
v -2152.87451171875 -664.8804321289062 583.2117919921875
v -2457.037109375 -924.6582641601562 583.2117919921875
v -1503.4239501953125 -1425.2808837890625 83.21189880371094
v -1807.5743408203125 -1685.0587158203125 83.21189880371094
v -2152.87451171875 -664.8804321289062 533.2117919921875
v -1503.4239501953125 -1425.2808837890625 33.21189880371094
v -2457.037109375 -924.6582641601562 533.2117919921875
v -1807.5743408203125 -1685.0587158203125 33.21190643310547
v -2152.87451171875 -664.8804321289062 583.2117919921875
v -2457.037109375 -924.6582641601562 533.2117919921875
v -2457.037109375 -924.6582641601562 583.2117919921875
v -2152.87451171875 -664.8804321289062 533.2117919921875
v -2457.037109375 -924.6582641601562 583.2117919921875
v -1807.5743408203125 -1685.0587158203125 33.21190643310547
v -1807.5743408203125 -1685.0587158203125 83.21189880371094
v -2457.037109375 -924.6582641601562 533.2117919921875
v -1807.5743408203125 -1685.0587158203125 83.21189880371094
v -1503.4239501953125 -1425.2808837890625 33.21189880371094
v -1503.4239501953125 -1425.2808837890625 83.21189880371094
v -1807.5743408203125 -1685.0587158203125 33.21190643310547
v -1503.4239501953125 -1425.2808837890625 83.21189880371094
v -2152.87451171875 -664.8804321289062 533.2117919921875
v -2152.87451171875 -664.8804321289062 583.2117919921875
v -1503.4239501953125 -1425.2808837890625 33.21189880371094
v -1813.6658935546875 4096.15478515625 -416.78857421875
v -2079.79150390625 3868.83544921875 -416.7886047363281
v -1813.6658935546875 4096.15478515625 83.21139526367188
v -2079.79150390625 3868.83544921875 83.2114028930664
v -2079.79150390625 3868.83544921875 -416.7886047363281
v 647.8697509765625 675.12255859375 -416.7881774902344
v -2079.79150390625 3868.83544921875 83.2114028930664
v 647.8696899414062 675.12255859375 83.21179962158203
v 647.8699340820312 675.1220703125 -416.7881774902344
v 914.044189453125 902.4658203125 -416.7881774902344
v 647.869873046875 675.1220703125 83.21179962158203
v 914.044189453125 902.4658203125 83.21179962158203
v 631.6589965820312 694.1650390625 -416.7881774902344
v 593.6340942382812 661.68212890625 -416.7881774902344
v 631.6589965820312 694.1650390625 58.2118034362793
v 593.6340942382812 661.68212890625 58.21180725097656
v 593.6341552734375 661.68212890625 -416.7881774902344
v 626.1048583984375 623.66943359375 -416.7881774902344
v 593.6340942382812 661.68212890625 58.21180725097656
v 626.1047973632812 623.66943359375 58.21181106567383
v 626.1047973632812 623.66943359375 -416.7881774902344
v 664.1296997070312 656.14013671875 -416.7881774902344
v 626.1047973632812 623.66943359375 58.21181106567383
v 664.1296997070312 656.14013671875 58.21180725097656
v 593.6340942382812 661.68212890625 58.21180725097656
v 626.1047973632812 623.66943359375 58.21181106567383
v 631.6589965820312 694.1650390625 58.2118034362793
v 664.1296997070312 656.14013671875 58.21180725097656
v -20.2330322265625 71.630859375 -416.7881774902344
v 17.7918701171875 104.1015625 -416.7881774902344
v -20.2330322265625 71.630859375 58.21183395385742
v 17.7918701171875 104.1015625 58.211830139160156
v 17.7918701171875 104.1015625 -416.7881774902344
v -14.6910400390625 142.12646484375 -416.7881774902344
v 17.7918701171875 104.1015625 58.211830139160156
v -14.691070556640625 142.12646484375 58.21182632446289
v -14.6910400390625 142.12646484375 -416.7881774902344
v -52.7037353515625 109.65576171875 -416.7881774902344
v -14.691070556640625 142.12646484375 58.21182632446289
v -52.7037353515625 109.65576171875 58.21182632446289
v 17.7918701171875 104.1015625 58.211830139160156
v -14.691070556640625 142.12646484375 58.21182632446289
v -20.2330322265625 71.630859375 58.21183395385742
v -52.7037353515625 109.65576171875 58.21182632446289
v -36.46844482421875 90.6494140625 -416.7881774902344
v -2742.23046875 3303.06396484375 -416.78857421875
v -36.46844482421875 90.6494140625 83.21182250976562
v -2742.23046875 3303.06396484375 83.21142578125
v -2742.23046875 3303.06396484375 -416.78857421875
v -2992.26708984375 3089.501953125 -416.7885437011719
v -2742.23046875 3303.06396484375 83.21142578125
v -2992.26708984375 3089.501953125 83.21143341064453
v -1422.5157470703125 -2289.90478515625 -416.78802490234375
v 520.3796997070312 -630.6275024414062 -416.7880859375
v -1422.5157470703125 -2289.90478515625 -406.7880554199219
v 520.3796997070312 -630.6275024414062 -406.7881164550781
v 520.3797607421875 -630.6275024414062 -416.7880859375
v 523.1629638671875 -595.4102172851562 -416.7880859375
v 520.3797607421875 -630.6275024414062 -406.7881164550781
v 523.1629638671875 -595.4102172851562 -406.7881164550781
v 523.1629638671875 -595.4102172851562 -416.7880859375
v 435.5042724609375 -492.7490234375 -416.7880859375
v 523.1629638671875 -595.4102172851562 -406.7881164550781
v 435.5042724609375 -492.7490234375 -406.7881164550781
v 520.3797607421875 -630.6275024414062 -406.7881164550781
v 512.3230590820312 -598.0957641601562 -406.7881164550781
v 510.1014709472656 -626.2940063476562 -406.7881164550781
v -1422.5157470703125 -2289.90478515625 -406.7880554199219
v -1429.0098876953125 -2282.2998046875 -406.7880554199219
v 523.1629638671875 -595.4102172851562 -406.7881164550781
v 435.5042724609375 -492.7490234375 -406.7881164550781
v 427.8992614746094 -499.2431640625 -406.7881164550781
v -1503.3751220703125 -1425.2930908203125 -406.7881164550781
v -1178.6680908203125 -1805.5054931640625 -406.7880554199219
v -1883.5875244140625 -1750.0001220703125 -406.7880859375
v 510.1014099121094 -626.2940063476562 -406.7881164550781
v 395.3919372558594 -461.16943359375 -406.7881164550781
v 512.3231201171875 -598.1079711914062 -406.7881164550781
f 2 1 3
f 4 2 3
f 6 5 7
f 8 6 7
f 458 457 459
f 459 460 458
f 454 453 455
f 456 454 455
f 450 449 451
f 452 450 451
f 446 445 447
f 448 446 447
f 442 441 443
f 444 442 443
f 418 417 419
f 419 420 418
f 414 413 415
f 416 414 415
f 410 409 411
f 412 410 411
f 406 405 407
f 408 406 407
f 402 401 403
f 404 402 403
f 378 377 379
f 379 380 378
f 374 373 375
f 376 374 375
f 370 369 371
f 372 370 371
f 366 365 367
f 368 366 367
f 362 361 363
f 364 362 363
f 338 337 339
f 339 340 338
f 334 333 335
f 336 334 335
f 330 329 331
f 332 330 331
f 326 325 327
f 328 326 327
f 322 321 323
f 324 322 323
f 294 293 295
f 296 294 295
f 290 289 291
f 292 290 291
f 286 285 287
f 288 286 287
f 282 281 283
f 284 282 283
f 254 253 255
f 256 254 255
f 250 249 251
f 252 250 251
f 246 245 247
f 248 246 247
f 242 241 243
f 244 242 243
f 214 213 215
f 216 214 215
f 210 209 211
f 212 210 211
f 206 205 207
f 208 206 207
f 202 201 203
f 204 202 203
f 174 173 175
f 176 174 175
f 170 169 171
f 172 170 171
f 166 165 167
f 168 166 167
f 162 161 163
f 164 162 163
f 134 133 135
f 136 134 135
f 130 129 131
f 132 130 131
f 126 125 127
f 128 126 127
f 122 121 123
f 124 122 123
f 94 93 95
f 96 94 95
f 90 89 91
f 92 90 91
f 86 85 87
f 88 86 87
f 82 81 83
f 84 82 83
f 54 53 55
f 56 54 55
f 50 49 51
f 52 50 51
f 46 45 47
f 48 46 47
f 42 41 43
f 44 42 43
f 14 13 15
f 16 14 15
f 12 10 11
f 10 9 11
f 18 17 19
f 20 19 17
f 58 57 59
f 60 59 57
f 98 97 99
f 100 99 97
f 138 137 139
f 140 139 137
f 178 177 179
f 180 179 177
f 218 217 219
f 220 219 217
f 258 257 259
f 260 259 257
f 298 297 299
f 300 299 297
f 22 21 23
f 24 22 23
f 34 33 35
f 36 34 35
f 30 29 31
f 32 30 31
f 26 25 27
f 28 26 27
f 1298 1297 1299
f 1300 1298 1299
f 1294 1293 1295
f 1296 1294 1295
f 1256 1255 1257
f 1258 1256 1257
f 1244 1243 1245
f 1246 1244 1245
f 1172 1171 1173
f 1174 1172 1173
f 1168 1167 1169
f 1170 1168 1169
f 1164 1163 1165
f 1166 1164 1165
f 940 939 941
f 942 940 941
f 936 935 937
f 938 936 937
f 932 931 933
f 934 932 933
f 900 899 901
f 902 900 901
f 896 895 897
f 898 896 897
f 892 891 893
f 894 892 893
f 860 859 861
f 862 860 861
f 856 855 857
f 858 856 857
f 852 851 853
f 854 852 853
f 820 819 821
f 822 820 821
f 816 815 817
f 818 816 817
f 812 811 813
f 814 812 813
f 634 633 635
f 636 634 635
f 630 629 631
f 632 630 631
f 626 625 627
f 628 626 627
f 594 593 595
f 596 594 595
f 590 589 591
f 592 590 591
f 586 585 587
f 588 586 587
f 554 553 555
f 556 554 555
f 550 549 551
f 552 550 551
f 546 545 547
f 548 546 547
f 514 513 515
f 516 514 515
f 510 509 511
f 512 510 511
f 506 505 507
f 508 506 507
f 478 477 479
f 479 480 478
f 474 473 475
f 476 474 475
f 470 469 471
f 472 470 471
f 466 465 467
f 468 466 467
f 462 461 463
f 464 462 463
f 438 437 439
f 439 440 438
f 434 433 435
f 436 434 435
f 430 429 431
f 432 430 431
f 426 425 427
f 428 426 427
f 422 421 423
f 424 422 423
f 398 397 399
f 399 400 398
f 394 393 395
f 396 394 395
f 390 389 391
f 392 390 391
f 386 385 387
f 388 386 387
f 382 381 383
f 384 382 383
f 358 357 359
f 359 360 358
f 354 353 355
f 356 354 355
f 350 349 351
f 352 350 351
f 346 345 347
f 348 346 347
f 342 341 343
f 344 342 343
f 314 313 315
f 316 314 315
f 310 309 311
f 312 310 311
f 306 305 307
f 308 306 307
f 302 301 303
f 304 302 303
f 274 273 275
f 276 274 275
f 270 269 271
f 272 270 271
f 266 265 267
f 268 266 267
f 262 261 263
f 264 262 263
f 234 233 235
f 236 234 235
f 230 229 231
f 232 230 231
f 226 225 227
f 228 226 227
f 222 221 223
f 224 222 223
f 194 193 195
f 196 194 195
f 190 189 191
f 192 190 191
f 186 185 187
f 188 186 187
f 182 181 183
f 184 182 183
f 154 153 155
f 156 154 155
f 150 149 151
f 152 150 151
f 146 145 147
f 148 146 147
f 142 141 143
f 144 142 143
f 114 113 115
f 116 114 115
f 110 109 111
f 112 110 111
f 106 105 107
f 108 106 107
f 102 101 103
f 104 102 103
f 74 73 75
f 76 74 75
f 70 69 71
f 72 70 71
f 66 65 67
f 68 66 67
f 62 61 63
f 64 62 63
f 40 39 37
f 38 37 39
f 78 77 79
f 80 79 77
f 118 117 119
f 120 119 117
f 158 157 159
f 160 159 157
f 198 197 199
f 200 199 197
f 238 237 239
f 240 239 237
f 278 277 279
f 280 279 277
f 318 317 319
f 320 319 317
f 1248 1247 1249
f 1247 1250 1249
f 1252 1251 1253
f 1251 1254 1253
f 526 525 527
f 528 526 527
f 770 751 771
f 752 753 755
f 753 752 754
f 754 752 750
f 750 770 754
f 751 770 750
f 751 750 747
f 747 772 751
f 747 748 772
f 748 747 749
f 773 772 774
f 772 748 774
f 765 785 786
f 786 748 765
f 764 762 765
f 762 766 765
f 763 766 762
f 763 762 759
f 759 760 763
f 766 763 767
f 758 759 761
f 759 758 760
f 760 758 756
f 756 768 760
f 757 768 756
f 757 756 753
f 753 754 757
f 768 757 769
f 668 667 669
f 670 668 669
f 655 639 665
f 665 666 655
f 663 639 662
f 663 662 664
f 654 656 652
f 654 652 655
f 638 637 639
f 662 639 637
f 641 662 637
f 637 640 641
f 640 660 641
f 643 660 640
f 640 642 643
f 643 642 644
f 645 644 642
f 661 641 660
f 644 646 647
f 647 643 644
f 657 653 656
f 652 656 653
f 650 652 653
f 653 649 650
f 649 648 650
f 646 648 649
f 649 658 646
f 646 658 647
f 659 647 658
f 651 650 648
f 522 521 523
f 524 522 523
f 518 517 519
f 519 520 518
f 502 501 503
f 504 502 503
f 498 497 499
f 500 498 499
f 494 493 495
f 496 494 495
f 490 489 491
f 492 490 491
f 486 485 487
f 488 486 487
f 482 481 483
f 484 482 483
f 1386 1385 1387
f 1388 1386 1387
f 1382 1381 1383
f 1384 1382 1383
f 1378 1377 1379
f 1380 1378 1379
f 1370 1369 1371
f 1372 1370 1371
f 1366 1365 1367
f 1367 1368 1366
f 1362 1361 1363
f 1364 1362 1363
f 1358 1357 1359
f 1360 1358 1359
f 1354 1353 1355
f 1356 1354 1355
f 1350 1349 1351
f 1351 1352 1350
f 1346 1345 1347
f 1348 1346 1347
f 1342 1341 1343
f 1344 1342 1343
f 1338 1337 1339
f 1340 1338 1339
f 1334 1333 1335
f 1336 1334 1335
f 1330 1329 1331
f 1332 1330 1331
f 1306 1305 1307
f 1307 1308 1306
f 1302 1301 1303
f 1303 1304 1302
f 1290 1289 1291
f 1292 1290 1291
f 1286 1285 1287
f 1288 1286 1287
f 1282 1281 1283
f 1284 1282 1283
f 1278 1277 1279
f 1280 1278 1279
f 1274 1273 1275
f 1276 1274 1275
f 1270 1269 1271
f 1272 1270 1271
f 1260 1259 1261
f 1261 1268 1260
f 1263 1268 1261
f 1261 1262 1263
f 1267 1263 1262
f 1267 1262 1265
f 1262 1264 1265
f 1266 1265 1264
f 1232 1231 1233
f 1233 1234 1232
f 1228 1227 1229
f 1229 1230 1228
f 1216 1215 1217
f 1217 1218 1216
f 1212 1211 1213
f 1213 1214 1212
f 1208 1207 1209
f 1210 1208 1209
f 1198 1197 1199
f 1199 1206 1198
f 1196 1195 1197
f 1197 1195 1199
f 1199 1195 1202
f 1200 1199 1202
f 1201 1200 1202
f 1202 1205 1201
f 1201 1205 1206
f 1206 1205 1198
f 1198 1205 1204
f 1204 1203 1198
f 1192 1191 1193
f 1194 1192 1193
f 1188 1187 1189
f 1190 1188 1189
f 1176 1175 1177
f 1178 1176 1177
f 1160 1159 1161
f 1162 1160 1161
f 1156 1155 1157
f 1158 1156 1157
f 1152 1151 1153
f 1154 1152 1153
f 1148 1147 1149
f 1150 1148 1149
f 1144 1143 1145
f 1146 1144 1145
f 1140 1139 1141
f 1142 1140 1141
f 960 959 961
f 961 962 960
f 956 955 957
f 958 956 957
f 952 951 953
f 954 952 953
f 948 947 949
f 950 948 949
f 944 943 945
f 945 946 944
f 928 927 929
f 930 928 929
f 924 923 925
f 926 924 925
f 920 919 921
f 922 920 921
f 916 915 917
f 918 916 917
f 912 911 913
f 914 912 913
f 908 907 909
f 910 908 909
f 904 903 905
f 905 906 904
f 888 887 889
f 890 888 889
f 884 883 885
f 886 884 885
f 880 879 881
f 882 880 881
f 876 875 877
f 878 876 877
f 872 871 873
f 874 872 873
f 868 867 869
f 870 868 869
f 864 863 865
f 865 866 864
f 848 847 849
f 850 848 849
f 844 843 845
f 846 844 845
f 840 839 841
f 842 840 841
f 836 835 837
f 838 836 837
f 832 831 833
f 834 832 833
f 828 827 829
f 830 828 829
f 824 823 825
f 825 826 824
f 808 807 809
f 810 808 809
f 804 803 805
f 806 804 805
f 800 799 801
f 802 800 801
f 796 795 797
f 798 796 797
f 792 791 793
f 794 792 793
f 788 787 789
f 790 788 789
f 782 781 783
f 784 782 783
f 744 743 745
f 746 744 745
f 740 739 741
f 742 740 741
f 736 735 737
f 738 736 737
f 732 731 733
f 734 732 733
f 728 727 729
f 730 728 729
f 724 723 725
f 726 724 725
f 720 719 721
f 722 720 721
f 716 715 717
f 718 716 717
f 712 711 713
f 714 712 713
f 708 707 709
f 710 708 709
f 700 699 701
f 702 700 701
f 696 695 697
f 698 696 697
f 692 691 693
f 694 692 693
f 688 687 689
f 690 688 689
f 684 683 685
f 686 684 685
f 680 679 681
f 682 680 681
f 676 675 677
f 678 676 677
f 672 671 673
f 674 672 673
f 622 621 623
f 624 622 623
f 618 617 619
f 620 618 619
f 614 613 615
f 616 614 615
f 610 609 611
f 612 610 611
f 606 605 607
f 608 606 607
f 602 601 603
f 604 602 603
f 598 597 599
f 599 600 598
f 582 581 583
f 584 582 583
f 578 577 579
f 580 578 579
f 574 573 575
f 576 574 575
f 570 569 571
f 572 570 571
f 566 565 567
f 568 566 567
f 562 561 563
f 564 562 563
f 558 557 559
f 559 560 558
f 542 541 543
f 544 542 543
f 538 537 539
f 540 538 539
f 534 533 535
f 536 534 535
f 530 529 531
f 532 530 531
f 706 704 705
f 704 703 705
f 705 703 776
f 703 775 776
f 780 778 779
f 778 777 779
f 1180 1179 1181
f 1179 1182 1181
f 1184 1183 1185
f 1183 1186 1185
f 1222 1219 1220
f 1220 1219 1221
f 1224 1223 1225
f 1225 1223 1226
f 1238 1235 1236
f 1236 1235 1237
f 1240 1239 1241
f 1241 1239 1242
f 1312 1309 1310
f 1310 1309 1311
f 1316 1313 1314
f 1314 1313 1315
f 1320 1317 1318
f 1318 1317 1319
f 1324 1321 1322
f 1322 1321 1323
f 1395 1390 1396
f 1390 1395 1394
f 1389 1390 1394
f 1390 1389 1391
f 1391 1389 1392
f 1392 1393 1391
f 964 963 965
f 965 963 966
f 972 971 973
f 973 971 974
f 976 975 977
f 977 975 978
f 980 979 981
f 981 979 982
f 984 983 985
f 985 983 986
f 988 987 989
f 989 987 990
f 992 991 993
f 993 991 994
f 996 995 997
f 997 995 998
f 1000 999 1001
f 1001 999 1002
f 1004 1003 1005
f 1005 1003 1006
f 1008 1007 1009
f 1009 1007 1010
f 1012 1011 1013
f 1013 1011 1014
f 1016 1015 1017
f 1017 1015 1018
f 1020 1019 1021
f 1021 1019 1022
f 1024 1023 1025
f 1025 1023 1026
f 1028 1027 1029
f 1029 1027 1030
f 1032 1031 1033
f 1033 1031 1034
f 1036 1035 1037
f 1037 1035 1038
f 1040 1039 1041
f 1041 1039 1042
f 1044 1043 1045
f 1045 1043 1046
f 1048 1047 1049
f 1049 1047 1050
f 1052 1051 1053
f 1053 1051 1054
f 1056 1055 1057
f 1057 1055 1058
f 1060 1059 1061
f 1061 1059 1062
f 1064 1063 1065
f 1065 1063 1066
f 1068 1067 1069
f 1069 1067 1070
f 1072 1071 1073
f 1073 1071 1074
f 1076 1075 1077
f 1077 1075 1078
f 1080 1079 1081
f 1081 1079 1082
f 1084 1083 1085
f 1085 1083 1086
f 1088 1087 1089
f 1089 1087 1090
f 1092 1091 1093
f 1093 1091 1094
f 1096 1095 1097
f 1097 1095 1098
f 1100 1099 1101
f 1101 1099 1102
f 1104 1103 1105
f 1105 1103 1106
f 1108 1107 1109
f 1109 1107 1110
f 1112 1111 1113
f 1113 1111 1114
f 1116 1115 1117
f 1117 1115 1118
f 1120 1119 1121
f 1121 1119 1122
f 1397 1398 1400
f 1398 1397 1399
f 1399 1401 1398
f 1402 1401 1399
f 1401 1402 1403
f 968 967 969
f 969 967 970
f 1124 1127 1128
f 1129 1132 1127
f 1135 1136 1137
f 1136 1135 1133
f 1136 1133 1138
f 1133 1134 1138
f 1134 1133 1131
f 1131 1133 1130
f 1130 1129 1131
f 1131 1129 1127
f 1127 1125 1131
f 1125 1127 1124
f 1124 1123 1125
f 1123 1124 1126
f 1326 1325 1327
f 1328 1326 1327
f 1374 1373 1375
f 1376 1374 1375
