# from FinancialDistrict_Block04_Generic_0005_LOD_0.pskx
v 1949.9998779296875 2075.0 99.99980163574219
v -650.0000610351562 2025.0 99.99969482421875
v 1949.9998779296875 2025.0 99.99980926513672
v -650.0000610351562 2075.0 99.99968719482422
v 1949.9998779296875 2075.0 74.99980163574219
v -650.0000610351562 2075.0 99.99968719482422
v 1949.9998779296875 2075.0 99.99980163574219
v -650.0000610351562 2075.0 74.99968719482422
v 1949.9998779296875 2125.0 74.99980163574219
v -650.0000610351562 2075.0 74.99968719482422
v 1949.9998779296875 2075.0 74.99980163574219
v -650.0000610351562 2125.0 74.99968719482422
v 1949.9998779296875 2125.0 49.99979782104492
v -650.0000610351562 2125.0 74.99968719482422
v 1949.9998779296875 2125.0 74.99980163574219
v -650.0000610351562 2125.0 49.99968338012695
v 1949.9998779296875 2175.0 49.999794006347656
v -650.0000610351562 2125.0 49.99968338012695
v 1949.9998779296875 2125.0 49.99979782104492
v -650.0000610351562 2175.0 49.99967956542969
v 1949.9998779296875 2175.0 24.99979591369629
v -650.0000610351562 2175.0 49.99967956542969
v 1949.9998779296875 2175.0 49.999794006347656
v -650.0000610351562 2175.0 24.99968147277832
v 1949.9998779296875 2225.0 24.99979019165039
v -650.0000610351562 2175.0 24.99968147277832
v 1949.9998779296875 2175.0 24.99979591369629
v -650.0000610351562 2225.0 24.999675750732422
v 1949.9998779296875 2225.0 -0.0002098146651405841
v -650.0000610351562 2225.0 24.999675750732422
v 1949.9998779296875 2225.0 24.99979019165039
v -650.0000610351562 2225.0 -0.000323464279063046
v -1724.9998779296875 -1475.0 99.99995422363281
v -1649.9998779296875 -1875.0 99.99999237060547
v -1649.9998779296875 -1475.0 99.99995422363281
v -1724.9998779296875 -1875.0 99.99999237060547
v -1724.9998779296875 -1475.0 74.99995422363281
v -1724.9998779296875 -1875.0 99.99999237060547
v -1724.9998779296875 -1475.0 99.99995422363281
v -1724.9998779296875 -1875.0 74.99999237060547
v -1799.9998779296875 -1475.0 74.99994659423828
v -1724.9998779296875 -1875.0 74.99999237060547
v -1724.9998779296875 -1475.0 74.99995422363281
v -1799.9998779296875 -1875.0 74.99998474121094
v -1799.9998779296875 -1475.0 49.99995040893555
v -1799.9998779296875 -1875.0 74.99998474121094
v -1799.9998779296875 -1475.0 74.99994659423828
v -1799.9998779296875 -1875.0 49.99998474121094
v -1874.9998779296875 -1475.0 49.99994659423828
v -1799.9998779296875 -1875.0 49.99998474121094
v -1799.9998779296875 -1475.0 49.99995040893555
v -1874.9998779296875 -1875.0 49.99998092651367
v -1874.9998779296875 -1475.0 24.99994659423828
v -1874.9998779296875 -1875.0 49.99998092651367
v -1874.9998779296875 -1475.0 49.99994659423828
v -1874.9998779296875 -1875.0 24.999980926513672
v -1949.9998779296875 -1475.0 24.999942779541016
v -1874.9998779296875 -1875.0 24.999980926513672
v -1874.9998779296875 -1475.0 24.99994659423828
v -1949.9998779296875 -1875.0 24.999977111816406
v -1949.9998779296875 -1475.0 -5.6824806961230934e-05
v -1949.9998779296875 -1875.0 24.999977111816406
v -1949.9998779296875 -1475.0 24.999942779541016
v -1949.9998779296875 -1875.0 -2.1855696104466915e-05
v 250.0001220703125 -1475.0 100.00003814697266
v 250.0001220703125 -1375.0 100.00003051757812
v 150.00006103515625 -225.0 99.99993133544922
v 50.00006103515625 -125.0 99.99991607666016
v 50.0 575.0 99.9998550415039
v -49.99981689453125 -2275.0 100.00009155273438
v 850.0001220703125 -2075.0 100.0001220703125
v 450.0001220703125 -1175.0 100.0000228881836
v 450.0 -125.0 99.99993133544922
v 350.00006103515625 -225.0 99.99993896484375
v 550.0001220703125 -1175.0 100.00003051757812
v 850.0 1525.0 99.99980926513672
v 950.0 1625.0 99.99979400634766
v 1150.0 2025.0 99.99977111816406
v -650.0 1625.0 99.99972534179688
v -450.0 1625.0 99.9997329711914
v -349.99993896484375 -475.0 99.99993133544922
v -349.9999084472656 -975.0 99.99996948242188
v 450.0 575.0 99.99987030029297
v -350.0 1525.0 99.999755859375
v -350.0 925.0 99.99980163574219
v 350.0 675.0 99.9998550415039
v 150.0 675.0 99.99984741210938
v 1150.0001220703125 -1774.9998779296875 100.0000991821289
v 1075.0001220703125 -999.9999389648438 100.00003814697266
v 850.0001220703125 -774.9999389648438 100.00000762939453
v 850.0 925.0 99.9998550415039
v 850.0001220703125 -499.99993896484375 99.99998474121094
v 1150.0001220703125 -1874.9998779296875 100.00011444091797
v 1175.0001220703125 -999.9998779296875 100.00003814697266
v 1325.0001220703125 -849.9999389648438 100.00003051757812
v 950.0001220703125 -399.9998779296875 99.9999771118164
v 950.0 825.0 99.99987030029297
v 1150.0001220703125 -399.9998779296875 99.99998474121094
v 1150.0 825.0 99.9998779296875
v 1150.0 1625.0 99.99980163574219
v 1150.0 1815.00244140625 99.99978637695312
v 1949.9998779296875 1815.00244140625 99.99982452392578
v -450.0 825.0 99.99980926513672
v -449.99993896484375 -375.0 99.99990844726562
v -650.0 825.0 99.99980163574219
v -649.9999389648438 -375.0 99.9999008178711
v -449.9998779296875 -1075.0 99.99996948242188
v -649.9998168945312 -2275.0 100.00006866455078
v -649.9998779296875 -1875.0 100.00003814697266
v -649.9998779296875 -1475.0 100.0
v -649.9998779296875 -1075.0 99.99996185302734
v 950.0001220703125 -399.9998779296875 99.9999771118164
v 850.0001220703125 -499.99993896484375 99.99998474121094
v 950.0001220703125 -399.9998779296875 179.99998474121094
v 850.0001220703125 -499.99993896484375 179.99996948242188
v 850.0001220703125 -499.99993896484375 99.99998474121094
v 850.0001220703125 -774.9999389648438 100.00000762939453
v 850.0001220703125 -499.99993896484375 179.99996948242188
v 850.0001220703125 -774.9999389648438 180.0
v 850.0001220703125 -774.9999389648438 100.00000762939453
v 1075.0001220703125 -999.9999389648438 100.00003814697266
v 850.0001220703125 -774.9999389648438 179.99998474121094
v 1075.0001220703125 -999.9998779296875 180.00001525878906
v 1075.0001220703125 -999.9999389648438 100.00003814697266
v 1175.0001220703125 -999.9998779296875 100.00003814697266
v 1075.0001220703125 -999.9998779296875 180.00003051757812
v 1175.0001220703125 -999.9998779296875 180.00003051757812
v 1175.0001220703125 -999.9998779296875 100.00003814697266
v 1325.0001220703125 -849.9999389648438 100.00003051757812
v 1175.0001220703125 -999.9998779296875 180.00003051757812
v 1325.0001220703125 -849.9999389648438 180.00003051757812
v 1150.0001220703125 -399.9998779296875 99.99998474121094
v 950.0001220703125 -399.9998779296875 99.9999771118164
v 1150.0001220703125 -399.9998779296875 179.99998474121094
v 950.0001220703125 -399.9998779296875 179.99998474121094
v 850.0001220703125 -499.99993896484375 179.99996948242188
v 850.0001220703125 -774.9999389648438 180.0
v 950.0001220703125 -399.9998779296875 179.99998474121094
v 1075.0001220703125 -999.9998779296875 180.00003051757812
v 1150.0001220703125 -674.9999389648438 180.0
v 1150.0001220703125 -399.9998779296875 179.99998474121094
v 1175.0001220703125 -999.9998779296875 180.00003051757812
v 1325.0001220703125 -849.9999389648438 180.00003051757812
v 850.0001220703125 -499.99993896484375 189.99996948242188
v 950.0001220703125 -399.9998779296875 189.99998474121094
v 960.35546875 -424.9998779296875 179.99998474121094
v 960.35546875 -424.9998779296875 189.99998474121094
v 875.0001220703125 -510.35528564453125 189.99996948242188
v 875.0001220703125 -510.35528564453125 179.99996948242188
v 850.0001220703125 -774.9999389648438 190.0
v 850.0001220703125 -499.99993896484375 189.99996948242188
v 875.0001220703125 -510.35528564453125 179.99996948242188
v 875.0001220703125 -510.35528564453125 189.99996948242188
v 875.0001220703125 -764.6445922851562 190.0
v 875.0001220703125 -764.6445922851562 180.0
v 850.0001220703125 -774.9999389648438 180.0
v 1075.0001220703125 -999.9998779296875 180.00003051757812
v 1075.0001220703125 -999.9998779296875 190.00003051757812
v 850.0001220703125 -774.9999389648438 190.0
v 875.0001220703125 -764.6445922851562 180.0
v 875.0001220703125 -764.6445922851562 190.0
v 1085.35546875 -974.9998779296875 190.00003051757812
v 1085.35546875 -974.9998779296875 180.00003051757812
v 1175.0001220703125 -999.9998779296875 190.00003051757812
v 1075.0001220703125 -999.9998779296875 190.00003051757812
v 1085.35546875 -974.9998779296875 180.00003051757812
v 1085.35546875 -974.9998779296875 190.00003051757812
v 1164.644775390625 -974.9998779296875 190.00003051757812
v 1164.644775390625 -974.9998779296875 180.00003051757812
v 1325.0001220703125 -849.9999389648438 190.00003051757812
v 1175.0001220703125 -999.9998779296875 190.00003051757812
v 1164.644775390625 -974.9998779296875 180.00003051757812
v 1164.644775390625 -974.9998779296875 190.00003051757812
v 1289.644775390625 -849.9999389648438 190.00003051757812
v 1289.644775390625 -849.9999389648438 180.00003051757812
v 1325.0001220703125 -849.9999389648438 180.00003051757812
v 1150.0001220703125 -674.9999389648438 180.0
v 1150.0001220703125 -674.9999389648438 190.0
v 1325.0001220703125 -849.9999389648438 190.00003051757812
v 1289.644775390625 -849.9999389648438 180.00003051757812
v 1289.644775390625 -849.9999389648438 190.00003051757812
v 1125.0001220703125 -685.3552856445312 190.0
v 1125.0001220703125 -685.3552856445312 180.0
v 1150.0001220703125 -674.9999389648438 180.0
v 1150.0001220703125 -399.9998779296875 179.99998474121094
v 1150.0001220703125 -399.9998779296875 189.99998474121094
v 1150.0001220703125 -674.9999389648438 190.0
v 1125.0001220703125 -685.3552856445312 180.0
v 1125.0001220703125 -685.3552856445312 190.0
v 1125.0001220703125 -424.9998779296875 189.99998474121094
v 1125.0001220703125 -424.9998779296875 179.99998474121094
v 950.0001220703125 -399.9998779296875 189.99998474121094
v 1150.0001220703125 -399.9998779296875 189.99998474121094
v 1125.0001220703125 -424.9998779296875 179.99998474121094
v 1125.0001220703125 -424.9998779296875 189.99998474121094
v 960.35546875 -424.9998779296875 189.99998474121094
v 960.35546875 -424.9998779296875 179.99998474121094
v 950.0001220703125 -399.9998779296875 189.99998474121094
v 850.0001220703125 -499.99993896484375 189.99996948242188
v 875.0001220703125 -510.35528564453125 189.99996948242188
v 960.35546875 -424.9998779296875 189.99998474121094
v 850.0001220703125 -774.9999389648438 190.0
v 875.0001220703125 -764.6445922851562 190.0
v 1075.0001220703125 -999.9998779296875 190.00003051757812
v 1085.35546875 -974.9998779296875 190.00003051757812
v 1175.0001220703125 -999.9998779296875 190.00003051757812
v 1164.644775390625 -974.9998779296875 190.00003051757812
v 1325.0001220703125 -849.9999389648438 190.00003051757812
v 1289.644775390625 -849.9999389648438 190.00003051757812
v 1150.0001220703125 -674.9999389648438 190.0
v 1125.0001220703125 -685.3552856445312 190.0
v 1150.0001220703125 -399.9998779296875 189.99998474121094
v 1125.0001220703125 -424.9998779296875 189.99998474121094
v 550.0001220703125 -1175.0 100.00003051757812
v 450.0001220703125 -1175.0 100.0000228881836
v 550.0001220703125 -1174.9998779296875 180.00001525878906
v 450.0001220703125 -1174.9998779296875 180.00001525878906
v 450.0001220703125 -1175.0 100.0000228881836
v 250.0001220703125 -1375.0 100.00003051757812
v 450.0001220703125 -1174.9998779296875 180.00001525878906
v 250.0001220703125 -1374.9998779296875 180.00003051757812
v 250.0001220703125 -1375.0 100.00003051757812
v 250.0001220703125 -1475.0 100.00003814697266
v 250.0001220703125 -1375.0 180.00003051757812
v 250.0001220703125 -1475.0 180.0000457763672
v 250.0001220703125 -1475.0 100.00003814697266
v 850.0001220703125 -2075.0 100.0001220703125
v 250.0001220703125 -1475.0 180.0000457763672
v 850.0001220703125 -2075.0 180.00010681152344
v 850.0001220703125 -2075.0 100.0001220703125
v 950.0001220703125 -2075.0 100.0001220703125
v 850.0001220703125 -2075.0 180.00010681152344
v 950.0001220703125 -2075.0 180.0001220703125
v 950.0001220703125 -2075.0 100.0001220703125
v 1150.0001220703125 -1874.9998779296875 100.00011444091797
v 950.0001220703125 -2075.0 180.0001220703125
v 1150.0001220703125 -1874.9998779296875 180.00010681152344
v 1150.0001220703125 -1874.9998779296875 100.00011444091797
v 1150.0001220703125 -1774.9998779296875 100.0000991821289
v 1150.0001220703125 -1874.9998779296875 180.00010681152344
v 1150.0001220703125 -1774.9998779296875 180.00010681152344
v 1150.0001220703125 -1774.9998779296875 100.0000991821289
v 550.0001220703125 -1175.0 100.00003051757812
v 1150.0001220703125 -1774.9998779296875 180.00010681152344
v 550.0001220703125 -1175.0 180.00001525878906
v 850.0001220703125 -2075.0 180.00010681152344
v 550.0001220703125 -1174.9998779296875 180.00001525878906
v 450.0001220703125 -1174.9998779296875 180.00001525878906
v 250.0001220703125 -1475.0 180.0000457763672
v 250.0001220703125 -1375.0 180.00003051757812
v 950.0001220703125 -2075.0 180.0001220703125
v 1150.0001220703125 -1774.9998779296875 180.00010681152344
v 1150.0001220703125 -1874.9998779296875 180.00010681152344
v 450.0001220703125 -1174.9998779296875 190.00001525878906
v 550.0001220703125 -1174.9998779296875 190.00001525878906
v 539.644775390625 -1199.9998779296875 180.00001525878906
v 539.644775390625 -1199.9998779296875 190.00001525878906
v 460.35546875 -1199.9998779296875 190.00001525878906
v 460.35546875 -1199.9998779296875 180.00001525878906
v 250.0001220703125 -1375.0 180.00003051757812
v 250.0001220703125 -1375.0 190.00003051757812
v 450.0001220703125 -1174.9998779296875 190.00001525878906
v 460.35546875 -1199.9998779296875 180.00001525878906
v 460.35546875 -1199.9998779296875 190.00001525878906
v 275.0001220703125 -1385.355224609375 190.00003051757812
v 275.0001220703125 -1385.355224609375 180.00003051757812
v 250.0001220703125 -1475.0 190.0000457763672
v 250.0001220703125 -1375.0 190.00003051757812
v 275.0001220703125 -1385.355224609375 180.00003051757812
v 275.0001220703125 -1385.355224609375 190.00003051757812
v 275.0001220703125 -1464.6446533203125 190.0000457763672
v 275.0001220703125 -1464.6446533203125 180.0000457763672
v 850.0001220703125 -2075.0 190.00010681152344
v 250.0001220703125 -1475.0 190.0000457763672
v 275.0001220703125 -1464.6446533203125 180.0000457763672
v 275.0001220703125 -1464.6446533203125 190.0000457763672
v 860.35546875 -2050.0 190.00010681152344
v 860.35546875 -2050.0 180.00010681152344
v 950.0001220703125 -2075.0 190.0001220703125
v 850.0001220703125 -2075.0 190.00010681152344
v 860.35546875 -2050.0 180.00010681152344
v 860.35546875 -2050.0 190.00010681152344
v 939.644775390625 -2050.0 190.0001220703125
v 939.644775390625 -2050.0 180.0001220703125
v 1150.0001220703125 -1874.9998779296875 190.00010681152344
v 950.0001220703125 -2075.0 190.0001220703125
v 939.644775390625 -2050.0 180.0001220703125
v 939.644775390625 -2050.0 190.0001220703125
v 1125.0001220703125 -1864.64453125 190.00010681152344
v 1125.0001220703125 -1864.64453125 180.00010681152344
v 1150.0001220703125 -1774.9998779296875 190.00010681152344
v 1150.0001220703125 -1874.9998779296875 190.00010681152344
v 1125.0001220703125 -1864.64453125 180.00010681152344
v 1125.0001220703125 -1864.64453125 190.00010681152344
v 1125.0001220703125 -1785.355224609375 190.00010681152344
v 1125.0001220703125 -1785.355224609375 180.00010681152344
v 550.0001220703125 -1174.9998779296875 180.00001525878906
v 550.0001220703125 -1174.9998779296875 190.00001525878906
v 1150.0001220703125 -1774.9998779296875 190.00010681152344
v 1125.0001220703125 -1785.355224609375 180.00010681152344
v 1125.0001220703125 -1785.355224609375 190.00010681152344
v 539.644775390625 -1199.9998779296875 190.00001525878906
v 539.644775390625 -1199.9998779296875 180.00001525878906
v 550.0001220703125 -1174.9998779296875 190.00001525878906
v 450.0001220703125 -1174.9998779296875 190.00001525878906
v 460.35546875 -1199.9998779296875 190.00001525878906
v 539.644775390625 -1199.9998779296875 190.00001525878906
v 250.0001220703125 -1375.0 190.00003051757812
v 275.0001220703125 -1385.355224609375 190.00003051757812
v 250.0001220703125 -1475.0 190.0000457763672
v 275.0001220703125 -1464.6446533203125 190.0000457763672
v 850.0001220703125 -2075.0 190.00010681152344
v 860.35546875 -2050.0 190.00010681152344
v 950.0001220703125 -2075.0 190.0001220703125
v 939.644775390625 -2050.0 190.0001220703125
v 1150.0001220703125 -1874.9998779296875 190.00010681152344
v 1125.0001220703125 -1864.64453125 190.00010681152344
v 1150.0001220703125 -1774.9998779296875 190.00010681152344
v 1125.0001220703125 -1785.355224609375 190.00010681152344
v -449.99993896484375 -375.0 99.99990844726562
v -649.9999389648438 -375.0 99.9999008178711
v -449.99993896484375 -375.0 179.9999237060547
v -649.9999389648438 -375.0 179.99990844726562
v -649.9998779296875 -1075.0 99.99996185302734
v -449.9998779296875 -1075.0 99.99996948242188
v -649.9998779296875 -1075.0 179.99996948242188
v -449.9999084472656 -1075.0 179.99998474121094
v -449.9998779296875 -1075.0 99.99996948242188
v -349.9999084472656 -975.0 99.99996948242188
v -449.9999084472656 -1075.0 179.99998474121094
v -349.9999084472656 -975.0 179.99996948242188
v -349.9999084472656 -975.0 99.99996948242188
v -349.99993896484375 -475.0 99.99993133544922
v -349.9999084472656 -975.0 179.99996948242188
v -349.99993896484375 -475.0 179.9999237060547
v -349.99993896484375 -475.0 99.99993133544922
v -449.99993896484375 -375.0 99.99990844726562
v -349.99993896484375 -475.0 179.9999237060547
v -449.99993896484375 -375.0 179.9999237060547
v -649.9999389648438 -375.0 179.99990844726562
v -649.9998779296875 -1075.0 179.99996948242188
v -449.99993896484375 -375.0 179.9999237060547
v -449.9999084472656 -1075.0 179.99998474121094
v -349.9999084472656 -975.0 179.99996948242188
v -349.99993896484375 -475.0 179.9999237060547
v -649.9999389648438 -375.0 189.99990844726562
v -449.99993896484375 -375.0 189.9999237060547
v -460.35528564453125 -400.0 179.9999237060547
v -460.35528564453125 -400.0 189.9999237060547
v -624.9999389648438 -400.0 189.99990844726562
v -624.9999389648438 -400.0 179.99990844726562
v -649.9999389648438 -375.0 179.99990844726562
v -649.9998779296875 -1075.0 179.99996948242188
v -649.9998779296875 -1075.0 189.99996948242188
v -649.9999389648438 -375.0 189.99990844726562
v -624.9999389648438 -400.0 179.99990844726562
v -624.9999389648438 -400.0 189.99990844726562
v -624.9998779296875 -1050.0 189.99996948242188
v -624.9998779296875 -1050.0 179.99996948242188
v -449.9999084472656 -1075.0 189.99998474121094
v -649.9998779296875 -1075.0 189.99996948242188
v -624.9998779296875 -1050.0 179.99996948242188
v -624.9998779296875 -1050.0 189.99996948242188
v -460.3552551269531 -1050.0 189.99998474121094
v -460.3552551269531 -1050.0 179.99998474121094
v -349.9999084472656 -975.0 189.99996948242188
v -449.9999084472656 -1075.0 189.99998474121094
v -460.3552551269531 -1050.0 179.99998474121094
v -460.3552551269531 -1050.0 189.99998474121094
v -374.9999084472656 -964.6445922851562 189.99996948242188
v -374.9999084472656 -964.6445922851562 179.99996948242188
v -349.99993896484375 -475.0 189.9999237060547
v -349.9999084472656 -975.0 189.99996948242188
v -374.9999084472656 -964.6445922851562 179.99996948242188
v -374.9999084472656 -964.6445922851562 189.99996948242188
v -374.99993896484375 -485.3553466796875 189.9999237060547
v -374.99993896484375 -485.3553466796875 179.9999237060547
v -449.99993896484375 -375.0 189.9999237060547
v -349.99993896484375 -475.0 189.9999237060547
v -374.99993896484375 -485.3553466796875 179.9999237060547
v -374.99993896484375 -485.3553466796875 189.9999237060547
v -460.35528564453125 -400.0 189.9999237060547
v -460.35528564453125 -400.0 179.9999237060547
v -449.99993896484375 -375.0 189.9999237060547
v -649.9999389648438 -375.0 189.99990844726562
v -624.9999389648438 -400.0 189.99990844726562
v -460.35528564453125 -400.0 189.9999237060547
v -649.9998779296875 -1075.0 189.99996948242188
v -624.9998779296875 -1050.0 189.99996948242188
v -449.9999084472656 -1075.0 189.99998474121094
v -460.3552551269531 -1050.0 189.99998474121094
v -349.9999084472656 -975.0 189.99996948242188
v -374.9999084472656 -964.6445922851562 189.99996948242188
v -349.99993896484375 -475.0 189.9999237060547
v -374.99993896484375 -485.3553466796875 189.9999237060547
v 950.0 825.0 99.99987030029297
v 1150.0 825.0 99.9998779296875
v 950.0 825.0 179.9998779296875
v 1150.0 825.0 179.9998779296875
v 1150.0 1625.0 99.99980163574219
v 950.0 1625.0 99.99979400634766
v 1150.0 1625.0 179.9998016357422
v 950.0 1625.0 179.9998016357422
v 950.0 1625.0 99.99979400634766
v 850.0 1525.0 99.99980926513672
v 950.0 1625.0 179.9998016357422
v 850.0 1525.0 179.9998016357422
v 850.0 1525.0 99.99980926513672
v 850.0 925.0 99.9998550415039
v 850.0 1525.0 179.9998016357422
v 850.0 925.0 179.99984741210938
v 850.0 925.0 99.9998550415039
v 950.0 825.0 99.99987030029297
v 850.0 925.0 179.99984741210938
v 950.0 825.0 179.9998779296875
v 950.0 825.0 179.9998779296875
v 1150.0 825.0 179.9998779296875
v 1150.0 1625.0 179.9998016357422
v 950.0 1625.0 179.9998016357422
v 850.0 1525.0 179.9998016357422
v 850.0 925.0 179.99984741210938
v 1150.0 825.0 189.9998779296875
v 950.0 825.0 189.9998779296875
v 960.3553466796875 850.0 179.9998779296875
v 960.3553466796875 850.0 189.9998779296875
v 1125.0 850.0 189.9998779296875
v 1125.0 850.0 179.9998779296875
v 1150.0 825.0 179.9998779296875
v 1150.0 1625.0 179.9998016357422
v 1150.0 1625.0 189.9998016357422
v 1150.0 825.0 189.9998779296875
v 1125.0 850.0 179.9998779296875
v 1125.0 850.0 189.9998779296875
v 1125.0 1600.0 189.9998016357422
v 1125.0 1600.0 179.9998016357422
v 950.0 1625.0 189.9998016357422
v 1150.0 1625.0 189.9998016357422
v 1125.0 1600.0 179.9998016357422
v 1125.0 1600.0 189.9998016357422
v 960.3553466796875 1600.0 189.9998016357422
v 960.3553466796875 1600.0 179.9998016357422
v 850.0 1525.0 189.9998016357422
v 950.0 1625.0 189.9998016357422
v 960.3553466796875 1600.0 179.9998016357422
v 960.3553466796875 1600.0 189.9998016357422
v 875.0 1514.64453125 189.9998016357422
v 875.0 1514.64453125 179.9998016357422
v 850.0 925.0 189.99984741210938
v 850.0 1525.0 189.9998016357422
v 875.0 1514.64453125 179.9998016357422
v 875.0 1514.64453125 189.9998016357422
v 875.0 935.35546875 189.99984741210938
v 875.0 935.35546875 179.99984741210938
v 950.0 825.0 189.9998779296875
v 850.0 925.0 189.99984741210938
v 875.0 935.35546875 179.99984741210938
v 875.0 935.35546875 189.99984741210938
v 960.3553466796875 850.0 189.9998779296875
v 960.3553466796875 850.0 179.9998779296875
v 950.0 825.0 189.9998779296875
v 1150.0 825.0 189.9998779296875
v 1125.0 850.0 189.9998779296875
v 960.3553466796875 850.0 189.9998779296875
v 1150.0 1625.0 189.9998016357422
v 1125.0 1600.0 189.9998016357422
v 950.0 1625.0 189.9998016357422
v 960.3553466796875 1600.0 189.9998016357422
v 850.0 1525.0 189.9998016357422
v 875.0 1514.64453125 189.9998016357422
v 850.0 925.0 189.99984741210938
v 875.0 935.35546875 189.99984741210938
v 150.0 675.0 99.99984741210938
v 50.0 575.0 99.9998550415039
v 150.0 675.0 179.99984741210938
v 50.0 575.0 179.99984741210938
v 50.0 575.0 99.9998550415039
v 50.00006103515625 -125.0 99.99991607666016
v 50.0 575.0 179.9998321533203
v 50.00006103515625 -125.0 179.99989318847656
v 50.00006103515625 -125.0 99.99991607666016
v 150.00006103515625 -225.0 99.99993133544922
v 50.00006103515625 -125.0 179.99990844726562
v 150.00006103515625 -225.0 179.9999237060547
v 150.00006103515625 -225.0 99.99993133544922
v 350.00006103515625 -225.0 99.99993896484375
v 150.00006103515625 -225.0 179.9999237060547
v 350.00006103515625 -225.0 179.99993896484375
v 350.00006103515625 -225.0 99.99993896484375
v 450.0 -125.0 99.99993133544922
v 350.00006103515625 -225.0 179.99993896484375
v 450.0 -125.0 179.9999237060547
v 450.0 -125.0 99.99993133544922
v 450.0 575.0 99.99987030029297
v 450.0 -125.0 179.99990844726562
v 450.0 575.0 179.99984741210938
v 450.0 575.0 99.99987030029297
v 350.0 675.0 99.9998550415039
v 450.0 575.0 179.99986267089844
v 350.0 675.0 179.99986267089844
v 350.0 675.0 99.9998550415039
v 150.0 675.0 99.99984741210938
v 350.0 675.0 179.99986267089844
v 150.0 675.0 179.99984741210938
v 50.0 575.0 179.99984741210938
v 50.00006103515625 -125.0 179.99990844726562
v 150.0 675.0 179.99984741210938
v 150.00006103515625 -225.0 179.9999237060547
v 350.00006103515625 -225.0 179.99993896484375
v 350.0 675.0 179.99986267089844
v 450.0 -125.0 179.9999237060547
v 450.0 575.0 179.99986267089844
v 50.0 575.0 189.99984741210938
v 150.0 675.0 189.99984741210938
v 160.3553466796875 650.0 179.99984741210938
v 160.3553466796875 650.0 189.99984741210938
v 75.0 564.6446533203125 189.99984741210938
v 75.0 564.6446533203125 179.99984741210938
v 50.0 575.0 179.99984741210938
v 50.00006103515625 -125.0 179.99990844726562
v 50.00006103515625 -125.0 189.99990844726562
v 50.0 575.0 189.99984741210938
v 75.0 564.6446533203125 179.99984741210938
v 75.0 564.6446533203125 189.99984741210938
v 75.00006103515625 -114.6446533203125 189.99990844726562
v 75.00006103515625 -114.6446533203125 179.99990844726562
v 150.00006103515625 -225.0 189.9999237060547
v 50.00006103515625 -125.0 189.99990844726562
v 75.00006103515625 -114.6446533203125 179.99990844726562
v 75.00006103515625 -114.6446533203125 189.99990844726562
v 160.35540771484375 -200.0 189.9999237060547
v 160.35540771484375 -200.0 179.9999237060547
v 350.00006103515625 -225.0 189.99993896484375
v 150.00006103515625 -225.0 189.9999237060547
v 160.35540771484375 -200.0 179.9999237060547
v 160.35540771484375 -200.0 189.9999237060547
v 339.64471435546875 -200.0 189.99993896484375
v 339.64471435546875 -200.0 179.99993896484375
v 450.0 -125.0 189.9999237060547
v 350.00006103515625 -225.0 189.99993896484375
v 339.64471435546875 -200.0 179.99993896484375
v 339.64471435546875 -200.0 189.99993896484375
v 425.0 -114.6446533203125 189.9999237060547
v 425.0 -114.6446533203125 179.9999237060547
v 450.0 -125.0 179.9999237060547
v 450.0 575.0 179.99986267089844
v 450.0 575.0 189.99986267089844
v 450.0 -125.0 189.9999237060547
v 425.0 -114.6446533203125 179.9999237060547
v 425.0 -114.6446533203125 189.9999237060547
v 425.0 564.6446533203125 189.99986267089844
v 425.0 564.6446533203125 179.99986267089844
v 350.0 675.0 189.99986267089844
v 450.0 575.0 189.99986267089844
v 425.0 564.6446533203125 179.99986267089844
v 425.0 564.6446533203125 189.99986267089844
v 339.6446533203125 650.0 189.99986267089844
v 339.6446533203125 650.0 179.99986267089844
v 150.0 675.0 189.99984741210938
v 350.0 675.0 189.99986267089844
v 339.6446533203125 650.0 179.99986267089844
v 339.6446533203125 650.0 189.99986267089844
v 160.3553466796875 650.0 189.99984741210938
v 160.3553466796875 650.0 179.99984741210938
v 150.0 675.0 189.99984741210938
v 50.0 575.0 189.99984741210938
v 75.0 564.6446533203125 189.99984741210938
v 160.3553466796875 650.0 189.99984741210938
v 50.00006103515625 -125.0 189.99990844726562
v 75.00006103515625 -114.6446533203125 189.99990844726562
v 150.00006103515625 -225.0 189.9999237060547
v 160.35540771484375 -200.0 189.9999237060547
v 350.00006103515625 -225.0 189.99993896484375
v 339.64471435546875 -200.0 189.99993896484375
v 450.0 -125.0 189.9999237060547
v 425.0 -114.6446533203125 189.9999237060547
v 450.0 575.0 189.99986267089844
v 425.0 564.6446533203125 189.99986267089844
v 350.0 675.0 189.99986267089844
v 339.6446533203125 650.0 189.99986267089844
v -650.0 825.0 99.99980163574219
v -450.0 825.0 99.99980926513672
v -650.0 825.0 179.9998016357422
v -450.0 825.0 179.99981689453125
v -450.0 825.0 99.99980926513672
v -350.0 925.0 99.99980163574219
v -450.0 825.0 179.99981689453125
v -350.0 925.0 179.9998016357422
v -350.0 925.0 99.99980163574219
v -350.0 1525.0 99.999755859375
v -350.0 925.0 179.9998016357422
v -350.0000305175781 1525.0 179.999755859375
v -350.0 1525.0 99.999755859375
v -450.0 1625.0 99.9997329711914
v -350.0000305175781 1525.0 179.999755859375
v -450.0 1625.0 179.99974060058594
v -450.0 1625.0 99.9997329711914
v -650.0 1625.0 99.99972534179688
v -450.0 1625.0 179.99974060058594
v -650.0 1625.0 179.99972534179688
v -650.0 825.0 179.9998016357422
v -450.0 825.0 179.99981689453125
v -450.0 1625.0 179.99974060058594
v -350.0 925.0 179.9998016357422
v -350.0000305175781 1525.0 179.999755859375
v -650.0 1625.0 179.99972534179688
v -450.0 825.0 189.99981689453125
v -650.0 825.0 189.9998016357422
v -625.0 850.0 179.9998016357422
v -625.0 850.0 189.9998016357422
v -460.3553161621094 850.0 189.99981689453125
v -460.3553161621094 850.0 179.99981689453125
v -350.0 925.0 189.9998016357422
v -450.0 825.0 189.99981689453125
v -460.3553161621094 850.0 179.99981689453125
v -460.3553161621094 850.0 189.99981689453125
v -375.0 935.35546875 189.9998016357422
v -375.0 935.35546875 179.9998016357422
v -350.0000305175781 1525.0 189.999755859375
v -350.0 925.0 189.9998016357422
v -375.0 935.35546875 179.9998016357422
v -375.0 935.35546875 189.9998016357422
v -375.0000305175781 1514.64453125 189.999755859375
v -375.0000305175781 1514.64453125 179.999755859375
v -450.0 1625.0 189.99974060058594
v -350.0000305175781 1525.0 189.999755859375
v -375.0000305175781 1514.64453125 179.999755859375
v -375.0000305175781 1514.64453125 189.999755859375
v -460.3553466796875 1600.0 189.99974060058594
v -460.3553466796875 1600.0 179.99974060058594
v -650.0 1625.0 189.99972534179688
v -450.0 1625.0 189.99974060058594
v -460.3553466796875 1600.0 179.99974060058594
v -460.3553466796875 1600.0 189.99974060058594
v -625.0 1600.0 189.99972534179688
v -625.0 1600.0 179.99972534179688
v -650.0 1625.0 179.99972534179688
v -650.0 825.0 179.9998016357422
v -650.0 825.0 189.9998016357422
v -650.0 1625.0 189.99972534179688
v -625.0 1600.0 179.99972534179688
v -625.0 1600.0 189.99972534179688
v -625.0 850.0 189.9998016357422
v -625.0 850.0 179.9998016357422
v -650.0 825.0 189.9998016357422
v -450.0 825.0 189.99981689453125
v -460.3553161621094 850.0 189.99981689453125
v -625.0 850.0 189.9998016357422
v -350.0 925.0 189.9998016357422
v -375.0 935.35546875 189.9998016357422
v -350.0000305175781 1525.0 189.999755859375
v -375.0000305175781 1514.64453125 189.999755859375
v -450.0 1625.0 189.99974060058594
v -460.3553466796875 1600.0 189.99974060058594
v -650.0 1625.0 189.99972534179688
v -625.0 1600.0 189.99972534179688
v 550.0 2275.0 -0.00027538175345398486
v -50.00006103515625 2275.0 -0.00030160858295857906
v 550.0 2275.0 149.99972534179688
v -50.00006103515625 2275.0 149.9997100830078
v -50.00006103515625 2275.0 -0.00030160858295857906
v -50.0 1850.0 -0.0002644539054017514
v -50.00006103515625 2275.0 149.9997100830078
v -50.0 1850.0 149.99974060058594
v -50.0 1850.0 -0.0002644539054017514
v 550.0 1850.0 -0.0002382270758971572
v -50.0 1850.0 149.99974060058594
v 550.0 1850.0 149.999755859375
v 550.0 1850.0 -0.0002382270758971572
v 550.0 2275.0 -0.00027538175345398486
v 550.0 1850.0 149.999755859375
v 550.0 2275.0 149.99972534179688
v -50.00006103515625 2275.0 149.9997100830078
v -50.0 1850.0 149.99974060058594
v 550.0 2275.0 149.99972534179688
v 550.0 1850.0 149.999755859375
v -50.00006103515625 2275.0 159.9997100830078
v 550.0 2275.0 159.99972534179688
v 525.0 2250.0 149.99972534179688
v 525.0 2250.0 159.99972534179688
v -25.00006103515625 2250.0 159.9997100830078
v -25.00006103515625 2250.0 149.9997100830078
v -50.0 1850.0 159.99974060058594
v -50.00006103515625 2275.0 159.9997100830078
v -25.00006103515625 2250.0 149.9997100830078
v -25.00006103515625 2250.0 159.9997100830078
v -25.00006103515625 1875.0 159.99974060058594
v -25.00006103515625 1875.0 149.99974060058594
v 550.0 1850.0 159.999755859375
v -50.0 1850.0 159.99974060058594
v -25.00006103515625 1875.0 149.99974060058594
v -25.00006103515625 1875.0 159.99974060058594
v 525.0 1875.0 159.999755859375
v 525.0 1875.0 149.999755859375
v 550.0 2275.0 159.99972534179688
v 550.0 1850.0 159.999755859375
v 525.0 1875.0 149.999755859375
v 525.0 1875.0 159.999755859375
v 525.0 2250.0 159.99972534179688
v 525.0 2250.0 149.99972534179688
v 550.0 2275.0 159.99972534179688
v -50.00006103515625 2275.0 159.9997100830078
v -25.00006103515625 2250.0 159.9997100830078
v 525.0 2250.0 159.99972534179688
v -50.0 1850.0 159.99974060058594
v -25.00006103515625 1875.0 159.99974060058594
v 550.0 1850.0 159.999755859375
v 525.0 1875.0 159.999755859375
f 12 9 10
f 10 9 11
f 112 113 109
f 83 82 70
f 83 70 109
f 109 70 110
f 110 111 109
f 111 112 109
f 111 115 112
f 115 114 112
f 65 71 70
f 66 67 74
f 66 65 67
f 67 65 68
f 68 65 70
f 69 68 70
f 70 82 69
f 82 86 69
f 82 106 86
f 106 105 86
f 106 108 105
f 108 107 105
f 103 102 104
f 102 78 104
f 102 77 78
f 77 76 78
f 76 85 78
f 88 85 76
f 69 85 88
f 86 85 69
f 101 77 102
f 73 84 76
f 84 87 76
f 87 88 76
f 80 79 81
f 81 79 85
f 85 79 78
f 99 97 100
f 97 98 100
f 97 93 98
f 93 92 98
f 92 93 75
f 76 92 75
f 75 73 76
f 72 73 75
f 73 72 74
f 74 72 66
f 93 91 75
f 91 89 75
f 90 89 91
f 89 90 95
f 94 89 95
f 95 96 94
f 8 5 6
f 6 5 7
f 4 1 2
f 2 1 3
f 64 61 62
f 62 61 63
f 60 57 58
f 58 57 59
f 56 53 54
f 54 53 55
f 52 49 50
f 50 49 51
f 48 45 46
f 46 45 47
f 44 41 42
f 42 41 43
f 40 37 38
f 38 37 39
f 36 33 34
f 34 33 35
f 32 29 30
f 30 29 31
f 28 25 26
f 26 25 27
f 24 21 22
f 22 21 23
f 20 17 18
f 18 17 19
f 16 13 14
f 14 13 15
f 117 116 118
f 119 117 118
f 121 120 122
f 123 121 122
f 739 738 740
f 741 739 740
f 735 734 736
f 737 735 736
f 731 730 732
f 733 731 732
f 727 726 728
f 729 727 728
f 657 656 658
f 659 657 658
f 653 652 654
f 655 653 654
f 649 648 650
f 651 649 650
f 645 644 646
f 647 645 646
f 641 640 642
f 643 641 642
f 549 548 550
f 551 549 550
f 545 544 546
f 547 545 546
f 541 540 542
f 543 541 542
f 537 536 538
f 539 537 538
f 533 532 534
f 535 533 534
f 529 528 530
f 531 529 530
f 525 524 526
f 527 525 526
f 521 520 522
f 523 521 522
f 451 450 452
f 453 451 452
f 447 446 448
f 449 447 448
f 443 442 444
f 445 443 444
f 439 438 440
f 441 439 440
f 435 434 436
f 437 435 436
f 365 364 366
f 367 365 366
f 361 360 362
f 363 361 362
f 357 356 358
f 359 357 358
f 353 352 354
f 355 353 354
f 349 348 350
f 351 349 350
f 257 256 258
f 259 257 258
f 253 252 254
f 255 253 254
f 249 248 250
f 251 249 250
f 245 244 246
f 247 245 246
f 241 240 242
f 243 241 242
f 237 236 238
f 239 237 238
f 233 232 234
f 235 233 234
f 229 228 230
f 231 229 230
f 137 136 138
f 139 137 138
f 133 132 134
f 135 133 134
f 129 128 130
f 131 129 130
f 125 124 126
f 127 125 126
f 743 742 744
f 745 743 744
f 663 661 664
f 661 662 664
f 661 660 662
f 660 665 662
f 369 368 370
f 371 369 370
f 371 370 373
f 372 371 373
f 553 552 554
f 555 553 554
f 555 554 557
f 556 555 557
f 556 557 559
f 558 556 559
f 267 265 266
f 265 261 266
f 260 261 265
f 261 260 262
f 262 260 263
f 263 264 262
f 141 140 142
f 142 143 141
f 143 142 145
f 145 144 143
f 144 146 143
f 146 144 147
f 455 454 456
f 454 457 456
f 454 459 457
f 459 458 457
f 173 172 174
f 174 172 175
f 779 778 780
f 783 779 780
f 782 779 783
f 785 782 783
f 784 782 785
f 781 784 785
f 778 784 781
f 780 778 781
f 169 168 170
f 170 168 171
f 165 164 166
f 166 164 167
f 161 160 162
f 162 160 163
f 157 156 158
f 158 156 159
f 153 152 154
f 154 152 155
f 149 148 150
f 150 148 151
f 775 774 776
f 776 774 777
f 771 770 772
f 772 770 773
f 767 766 768
f 768 766 769
f 763 762 764
f 764 762 765
f 759 758 760
f 760 758 761
f 755 754 756
f 756 754 757
f 751 750 752
f 752 750 753
f 747 746 748
f 748 746 749
f 711 710 712
f 712 710 713
f 707 706 708
f 708 706 709
f 703 702 704
f 704 702 705
f 699 698 700
f 700 698 701
f 695 694 696
f 696 694 697
f 691 690 692
f 692 690 693
f 687 686 688
f 688 686 689
f 683 682 684
f 684 682 685
f 679 678 680
f 680 678 681
f 675 674 676
f 676 674 677
f 671 670 672
f 672 670 673
f 667 666 668
f 668 666 669
f 621 620 622
f 622 620 623
f 617 616 618
f 618 616 619
f 613 612 614
f 614 612 615
f 609 608 610
f 610 608 611
f 605 604 606
f 606 604 607
f 601 600 602
f 602 600 603
f 597 596 598
f 598 596 599
f 593 592 594
f 594 592 595
f 589 588 590
f 590 588 591
f 585 584 586
f 586 584 587
f 581 580 582
f 582 580 583
f 577 576 578
f 578 576 579
f 573 572 574
f 574 572 575
f 569 568 570
f 570 568 571
f 565 564 566
f 566 564 567
f 561 560 562
f 562 560 563
f 505 504 506
f 506 504 507
f 501 500 502
f 502 500 503
f 497 496 498
f 498 496 499
f 493 492 494
f 494 492 495
f 489 488 490
f 490 488 491
f 485 484 486
f 486 484 487
f 481 480 482
f 482 480 483
f 477 476 478
f 478 476 479
f 473 472 474
f 474 472 475
f 469 468 470
f 470 468 471
f 465 464 466
f 466 464 467
f 461 460 462
f 462 460 463
f 419 418 420
f 420 418 421
f 415 414 416
f 416 414 417
f 411 410 412
f 412 410 413
f 407 406 408
f 408 406 409
f 403 402 404
f 404 402 405
f 399 398 400
f 400 398 401
f 395 394 396
f 396 394 397
f 391 390 392
f 392 390 393
f 387 386 388
f 388 386 389
f 383 382 384
f 384 382 385
f 379 378 380
f 380 378 381
f 375 374 376
f 376 374 377
f 329 328 330
f 330 328 331
f 325 324 326
f 326 324 327
f 321 320 322
f 322 320 323
f 317 316 318
f 318 316 319
f 313 312 314
f 314 312 315
f 309 308 310
f 310 308 311
f 305 304 306
f 306 304 307
f 301 300 302
f 302 300 303
f 297 296 298
f 298 296 299
f 293 292 294
f 294 292 295
f 289 288 290
f 290 288 291
f 285 284 286
f 286 284 287
f 281 280 282
f 282 280 283
f 277 276 278
f 278 276 279
f 273 272 274
f 274 272 275
f 269 268 270
f 270 268 271
f 209 208 210
f 210 208 211
f 205 204 206
f 206 204 207
f 201 200 202
f 202 200 203
f 197 196 198
f 198 196 199
f 193 192 194
f 194 192 195
f 189 188 190
f 190 188 191
f 185 184 186
f 186 184 187
f 181 180 182
f 182 180 183
f 177 176 178
f 178 176 179
f 427 423 424
f 423 422 424
f 424 422 425
f 422 432 425
f 425 432 433
f 432 430 433
f 433 430 431
f 430 428 431
f 431 428 429
f 428 426 429
f 429 426 427
f 426 423 427
f 625 624 626
f 629 625 626
f 628 625 629
f 631 628 629
f 630 628 631
f 633 630 631
f 632 630 633
f 635 632 633
f 634 632 635
f 637 634 635
f 636 634 637
f 639 636 637
f 638 636 639
f 627 638 639
f 624 638 627
f 626 624 627
f 715 714 716
f 719 715 716
f 718 715 719
f 721 718 719
f 720 718 721
f 723 720 721
f 722 720 723
f 725 722 723
f 724 722 725
f 717 724 725
f 714 724 717
f 716 714 717
f 215 226 227
f 226 224 227
f 227 224 225
f 224 222 225
f 225 222 223
f 222 220 223
f 223 220 221
f 220 218 221
f 221 218 219
f 218 216 219
f 219 216 217
f 216 213 217
f 217 213 214
f 213 212 214
f 214 212 215
f 212 226 215
f 346 344 347
f 335 346 347
f 332 346 335
f 334 332 335
f 333 332 334
f 337 333 334
f 336 333 337
f 339 336 337
f 338 336 339
f 341 338 339
f 340 338 341
f 343 340 341
f 342 340 343
f 345 342 343
f 344 342 345
f 347 344 345
f 509 508 510
f 513 509 510
f 512 509 513
f 515 512 513
f 514 512 515
f 517 514 515
f 516 514 517
f 519 516 517
f 518 516 519
f 511 518 519
f 508 518 511
f 510 508 511
