# from FinancialDistrict_Block05_Upmarket Corporate (UC)_0002_LOD_0.pskx
v 440.00006103515625 1309.9998779296875 -400.0001525878906
v 196.4053955078125 1219.1063232421875 -400.0001525878906
v 196.4053955078125 1219.1063232421875 -69.60015106201172
v -529.694091796875 948.1737060546875 -69.60015869140625
v -932.4683837890625 797.8847045898438 -69.60016632080078
v 440.00006103515625 1309.9998779296875 -0.0001453403674531728
v -206.368896484375 1068.8173828125 -69.60015869140625
v -206.368896484375 1068.8173828125 -400.0001525878906
v -267.361328125 1046.05908203125 -400.0001525878906
v -267.361328125 1046.05908203125 -142.00015258789062
v -476.2906494140625 968.100341796875 -142.00015258789062
v -476.2906494140625 968.1002807617188 -400.0001525878906
v -529.694091796875 948.1736450195312 -400.0001525878906
v -932.4683837890625 797.8846435546875 -400.0001525878906
v -1234.9998779296875 684.9996948242188 -400.0001525878906
v -1234.9998779296875 684.999755859375 -0.00016391770623158664
v -1234.9998779296875 684.9996948242188 -400.0001525878906
v -1234.9998779296875 -940.0003051757812 -400.0
v -1234.9998779296875 -15.000249862670898 -300.0000915527344
v -1234.9998779296875 -615.000244140625 -95.00005340576172
v -1234.9998779296875 -815.000244140625 -95.00003814697266
v -1234.9998779296875 684.999755859375 -0.00016391770623158664
v -1234.9998779296875 -15.00023078918457 -95.00010681152344
v -1234.9998779296875 -515.000244140625 -95.00006866455078
v -1234.9998779296875 -315.0002136230469 -95.00008392333984
v -1234.9998779296875 -215.000244140625 -95.00009155273438
v -1234.9998779296875 -940.000244140625 -2.1855690647498704e-05
v -1234.9998779296875 -215.00025939941406 -300.00006103515625
v -1234.9998779296875 -815.000244140625 -300.0000305175781
v -1234.9998779296875 -315.000244140625 -300.00006103515625
v -1234.9998779296875 -515.000244140625 -300.00006103515625
v -1234.9998779296875 -615.000244140625 -300.0000305175781
v -1234.9998779296875 -940.0003051757812 -400.0
v -125.0023193359375 -940.000244140625 -399.9999694824219
v -1234.9998779296875 -940.000244140625 -2.1855690647498704e-05
v -125.0023193359375 -940.0001831054688 2.6663843527785502e-05
v 1065.0001220703125 1059.9998779296875 -400.0000915527344
v 1065.0001220703125 1309.9998779296875 -400.0001220703125
v 1065.0001220703125 1059.9998779296875 -9.616505121812224e-05
v 1065.0001220703125 1309.9998779296875 -0.00011802074732258916
v 1065.0001220703125 1309.9998779296875 -400.0001220703125
v 440.00006103515625 1309.9998779296875 -400.0001525878906
v 1065.0001220703125 1309.9998779296875 -0.00011802074732258916
v 440.00006103515625 1309.9998779296875 -0.0001453403674531728
v -1234.9998779296875 -15.00023078918457 -95.00010681152344
v -1224.9998779296875 -15.000228881835938 -95.00010681152344
v -1234.9998779296875 -215.000244140625 -95.00009155273438
v -1224.9998779296875 -215.000244140625 -95.00009155273438
v -1234.9998779296875 -15.000249862670898 -300.0000915527344
v -1234.9998779296875 -215.00025939941406 -300.00006103515625
v -1224.9998779296875 -15.000247955322266 -300.0000915527344
v -1224.9998779296875 -215.00025939941406 -300.00006103515625
v -1224.9998779296875 -15.000228881835938 -95.00010681152344
v -1234.9998779296875 -15.000249862670898 -300.0000915527344
v -1224.9998779296875 -15.000247955322266 -300.0000915527344
v -1234.9998779296875 -15.00023078918457 -95.00010681152344
v -1224.9998779296875 -215.000244140625 -95.00009155273438
v -1224.9998779296875 -215.00025939941406 -300.00006103515625
v -1234.9998779296875 -215.00025939941406 -300.00006103515625
v -1234.9998779296875 -215.000244140625 -95.00009155273438
v -1234.9998779296875 -315.0002136230469 -95.00008392333984
v -1224.9998779296875 -315.0002136230469 -95.00008392333984
v -1234.9998779296875 -515.000244140625 -95.00006866455078
v -1224.9998779296875 -515.000244140625 -95.00006866455078
v -1234.9998779296875 -315.000244140625 -300.00006103515625
v -1234.9998779296875 -515.000244140625 -300.00006103515625
v -1224.9998779296875 -315.000244140625 -300.00006103515625
v -1224.9998779296875 -515.000244140625 -300.00006103515625
v -1224.9998779296875 -315.0002136230469 -95.00008392333984
v -1234.9998779296875 -315.000244140625 -300.00006103515625
v -1224.9998779296875 -315.000244140625 -300.00006103515625
v -1234.9998779296875 -315.0002136230469 -95.00008392333984
v -1224.9998779296875 -515.000244140625 -95.00006866455078
v -1224.9998779296875 -515.000244140625 -300.00006103515625
v -1234.9998779296875 -515.000244140625 -300.00006103515625
v -1234.9998779296875 -515.000244140625 -95.00006866455078
v -1234.9998779296875 -615.000244140625 -95.00005340576172
v -1224.9998779296875 -615.000244140625 -95.00005340576172
v -1234.9998779296875 -815.000244140625 -95.00003814697266
v -1224.9998779296875 -815.000244140625 -95.00003814697266
v -1234.9998779296875 -615.000244140625 -300.0000305175781
v -1234.9998779296875 -815.000244140625 -300.0000305175781
v -1224.9998779296875 -615.000244140625 -300.0000305175781
v -1224.9998779296875 -815.000244140625 -300.0000305175781
v -1224.9998779296875 -615.000244140625 -95.00005340576172
v -1234.9998779296875 -615.000244140625 -300.0000305175781
v -1224.9998779296875 -615.000244140625 -300.0000305175781
v -1234.9998779296875 -615.000244140625 -95.00005340576172
v -1224.9998779296875 -815.000244140625 -95.00003814697266
v -1224.9998779296875 -815.000244140625 -300.0000305175781
v -1234.9998779296875 -815.000244140625 -300.0000305175781
v -1234.9998779296875 -815.000244140625 -95.00003814697266
v 1065.0001220703125 -940.0001220703125 -2.4003195762634277
v 1090.0001220703125 1047.5975341796875 -2.4004921913146973
v 1090.0001220703125 -940.0001220703125 -2.4003183841705322
v 1065.0001220703125 1047.5975341796875 -2.4004933834075928
v 439.9998779296875 1310.000244140625 4050.0
v -1235.0001220703125 685.0001220703125 4050.0
v -1235.0001220703125 685.0001220703125 4050.0
v -1235.0001220703125 -939.9998779296875 4050.0
v 1065.0001220703125 -940.0001220703125 7.868050306569785e-05
v -1235.0001220703125 -939.9998779296875 4050.0
v 1065.0 -939.999755859375 4050.0
v 1065.0001220703125 -940.0001220703125 7.868050306569785e-05
v 1065.0 -939.999755859375 4050.0
v 1064.9998779296875 1310.000244140625 4050.0
v 1064.9998779296875 1310.000244140625 4050.0
v 439.9998779296875 1310.000244140625 4050.0
v 439.99993896484375 1310.0001220703125 3150.0
v -1245.0001220703125 691.9421997070312 3159.999755859375
v 438.195068359375 1320.0001220703125 3159.999755859375
v -1235.0001220703125 685.0000610351562 3150.0
v 438.195068359375 1320.0001220703125 3159.999755859375
v -1245.0001220703125 691.9421997070312 3180.0
v 438.195068359375 1320.0001220703125 3180.0
v -1245.0001220703125 691.9421997070312 3159.999755859375
v 438.195068359375 1320.0001220703125 3180.0
v -1255.0001220703125 698.8843383789062 3190.0
v 436.39013671875 1330.0001220703125 3190.0
v -1245.0001220703125 691.9421997070312 3180.0
v 436.39013671875 1330.0001220703125 3190.0
v -1255.0001220703125 698.8843383789062 3230.0
v 436.39013671875 1330.0001220703125 3230.0
v -1255.0001220703125 698.8843383789062 3190.0
v 436.39013671875 1330.0001220703125 3230.0
v -1265.0001220703125 705.8264770507812 3239.999755859375
v 434.58526611328125 1340.0001220703125 3239.999755859375
v -1255.0001220703125 698.8843383789062 3230.0
v 434.58526611328125 1340.0001220703125 3239.999755859375
v -1265.0001220703125 705.8264770507812 3250.0
v 434.58526611328125 1340.0001220703125 3250.0
v -1265.0001220703125 705.8264770507812 3239.999755859375
v 434.58526611328125 1340.0001220703125 3250.0
v -1215.0001220703125 671.1157836914062 3250.0
v 443.6097412109375 1290.0001220703125 3250.0
v -1265.0001220703125 705.8264770507812 3250.0
v -1235.0001220703125 685.0000610351562 3150.0
v -1244.9998779296875 -950.0 3159.999755859375
v -1245.0001220703125 691.9421997070312 3159.999755859375
v -1234.9998779296875 -939.9999389648438 3150.0
v -1245.0001220703125 691.9421997070312 3159.999755859375
v -1244.9998779296875 -950.0 3180.0
v -1245.0001220703125 691.9421997070312 3180.0
v -1244.9998779296875 -950.0 3159.999755859375
v -1245.0001220703125 691.9421997070312 3180.0
v -1254.9998779296875 -960.0 3190.0
v -1255.0001220703125 698.8843383789062 3190.0
v -1244.9998779296875 -950.0 3180.0
v -1255.0001220703125 698.8843383789062 3190.0
v -1254.9998779296875 -960.0 3230.0
v -1255.0001220703125 698.8843383789062 3230.0
v -1254.9998779296875 -960.0 3190.0
v -1255.0001220703125 698.8843383789062 3230.0
v -1264.9998779296875 -969.9998779296875 3239.999755859375
v -1265.0001220703125 705.8264770507812 3239.999755859375
v -1254.9998779296875 -960.0 3230.0
v -1265.0001220703125 705.8264770507812 3239.999755859375
v -1264.9998779296875 -969.9998779296875 3250.0
v -1265.0001220703125 705.8264770507812 3250.0
v -1264.9998779296875 -969.9998779296875 3239.999755859375
v -1214.9998779296875 -919.9998779296875 3250.0
v -1264.9998779296875 -969.9998779296875 3250.0
v -1234.9998779296875 -939.9999389648438 3150.0
v 1075.0 -949.9998779296875 3159.999755859375
v -1244.9998779296875 -950.0 3159.999755859375
v 1065.0 -939.9998168945312 3150.0
v -1244.9998779296875 -950.0 3159.999755859375
v 1075.0 -949.9998779296875 3180.0
v -1244.9998779296875 -950.0 3180.0
v 1075.0 -949.9998779296875 3159.999755859375
v -1244.9998779296875 -950.0 3180.0
v 1085.0 -959.9998779296875 3190.0
v -1254.9998779296875 -960.0 3190.0
v 1075.0 -949.9998779296875 3180.0
v -1254.9998779296875 -960.0 3190.0
v 1085.0 -959.9998779296875 3230.0
v -1254.9998779296875 -960.0 3230.0
v 1085.0 -959.9998779296875 3190.0
v -1254.9998779296875 -960.0 3230.0
v 1095.0 -969.999755859375 3239.999755859375
v -1264.9998779296875 -969.9998779296875 3239.999755859375
v 1085.0 -959.9998779296875 3230.0
v -1264.9998779296875 -969.9998779296875 3239.999755859375
v 1095.0 -969.999755859375 3250.0
v -1264.9998779296875 -969.9998779296875 3250.0
v 1095.0 -969.999755859375 3239.999755859375
v 1045.0 -919.999755859375 3250.0
v 1095.0 -969.999755859375 3250.0
v 1065.0 -939.9998168945312 3150.0
v 1074.9998779296875 1320.0001220703125 3159.999755859375
v 1075.0 -949.9998779296875 3159.999755859375
v 1064.9998779296875 1310.0001220703125 3150.0
v 1075.0 -949.9998779296875 3159.999755859375
v 1074.9998779296875 1320.0001220703125 3180.0
v 1075.0 -949.9998779296875 3180.0
v 1074.9998779296875 1320.0001220703125 3159.999755859375
v 1075.0 -949.9998779296875 3180.0
v 1084.9998779296875 1330.0001220703125 3190.0
v 1085.0 -959.9998779296875 3190.0
v 1074.9998779296875 1320.0001220703125 3180.0
v 1085.0 -959.9998779296875 3190.0
v 1084.9998779296875 1330.0001220703125 3230.0
v 1085.0 -959.9998779296875 3230.0
v 1084.9998779296875 1330.0001220703125 3190.0
v 1085.0 -959.9998779296875 3230.0
v 1095.0 1340.0001220703125 3239.999755859375
v 1095.0 -969.999755859375 3239.999755859375
v 1084.9998779296875 1330.0001220703125 3230.0
v 1095.0 -969.999755859375 3239.999755859375
v 1095.0 1340.0001220703125 3250.0
v 1095.0 -969.999755859375 3250.0
v 1095.0 1340.0001220703125 3239.999755859375
v 1045.0 1290.0001220703125 3250.0
v 1095.0 1340.0001220703125 3250.0
v 1064.9998779296875 1310.0001220703125 3150.0
v 438.195068359375 1320.0001220703125 3159.999755859375
v 1074.9998779296875 1320.0001220703125 3159.999755859375
v 439.99993896484375 1310.0001220703125 3150.0
v 1074.9998779296875 1320.0001220703125 3159.999755859375
v 438.195068359375 1320.0001220703125 3180.0
v 1074.9998779296875 1320.0001220703125 3180.0
v 438.195068359375 1320.0001220703125 3159.999755859375
v 1074.9998779296875 1320.0001220703125 3180.0
v 436.39013671875 1330.0001220703125 3190.0
v 1084.9998779296875 1330.0001220703125 3190.0
v 438.195068359375 1320.0001220703125 3180.0
v 1084.9998779296875 1330.0001220703125 3190.0
v 436.39013671875 1330.0001220703125 3230.0
v 1084.9998779296875 1330.0001220703125 3230.0
v 436.39013671875 1330.0001220703125 3190.0
v 1084.9998779296875 1330.0001220703125 3230.0
v 434.58526611328125 1340.0001220703125 3239.999755859375
v 1095.0 1340.0001220703125 3239.999755859375
v 436.39013671875 1330.0001220703125 3230.0
v 1095.0 1340.0001220703125 3239.999755859375
v 434.58526611328125 1340.0001220703125 3250.0
v 1095.0 1340.0001220703125 3250.0
v 434.58526611328125 1340.0001220703125 3239.999755859375
v 440.0 1310.0 1549.999755859375
v -1244.9998779296875 691.9420166015625 1559.999755859375
v 438.19512939453125 1320.0 1559.9998779296875
v -1234.9998779296875 684.9998779296875 1549.9996337890625
v 438.19512939453125 1320.0 1559.9998779296875
v -1244.9998779296875 691.9420166015625 1579.9996337890625
v 438.19512939453125 1320.0 1579.999755859375
v -1244.9998779296875 691.9420166015625 1559.999755859375
v 438.19512939453125 1320.0 1579.999755859375
v -1254.9998779296875 698.8841552734375 1589.999755859375
v 436.39019775390625 1330.0 1589.9998779296875
v -1244.9998779296875 691.9420166015625 1579.9996337890625
v 436.39019775390625 1330.0 1589.9998779296875
v -1254.9998779296875 698.8841552734375 1629.9996337890625
v 436.39019775390625 1330.0 1629.999755859375
v -1254.9998779296875 698.8841552734375 1589.999755859375
v 436.39019775390625 1330.0 1629.999755859375
v -1264.9998779296875 705.8262939453125 1639.999755859375
v 434.5853271484375 1340.0 1639.9998779296875
v -1254.9998779296875 698.8841552734375 1629.9996337890625
v 434.5853271484375 1340.0 1639.9998779296875
v -1264.9998779296875 705.8262939453125 1649.999755859375
v 434.5853271484375 1340.0 1649.9998779296875
v -1264.9998779296875 705.8262939453125 1639.999755859375
v 434.5853271484375 1340.0 1649.9998779296875
v -1214.9998779296875 671.1156005859375 1649.999755859375
v 443.60980224609375 1290.0 1649.9998779296875
v -1264.9998779296875 705.8262939453125 1649.999755859375
v -1234.9998779296875 684.9998779296875 1549.9996337890625
v -1244.9998779296875 -950.0001831054688 1560.0
v -1244.9998779296875 691.9420166015625 1559.999755859375
v -1234.9998779296875 -940.0001220703125 1549.9998779296875
v -1244.9998779296875 691.9420166015625 1559.999755859375
v -1244.9998779296875 -950.0001831054688 1579.9998779296875
v -1244.9998779296875 691.9420166015625 1579.9996337890625
v -1244.9998779296875 -950.0001831054688 1560.0
v -1244.9998779296875 691.9420166015625 1579.9996337890625
v -1254.9998779296875 -960.0001831054688 1590.0
v -1254.9998779296875 698.8841552734375 1589.999755859375
v -1244.9998779296875 -950.0001831054688 1579.9998779296875
v -1254.9998779296875 698.8841552734375 1589.999755859375
v -1254.9998779296875 -960.0001831054688 1629.9998779296875
v -1254.9998779296875 698.8841552734375 1629.9996337890625
v -1254.9998779296875 -960.0001831054688 1590.0
v -1254.9998779296875 698.8841552734375 1629.9996337890625
v -1264.9998779296875 -970.0000610351562 1640.0
v -1264.9998779296875 705.8262939453125 1639.999755859375
v -1254.9998779296875 -960.0001831054688 1629.9998779296875
v -1264.9998779296875 705.8262939453125 1639.999755859375
v -1264.9998779296875 -970.0000610351562 1650.0
v -1264.9998779296875 705.8262939453125 1649.999755859375
v -1264.9998779296875 -970.0000610351562 1640.0
v -1214.9998779296875 -920.0000610351562 1650.0
v -1264.9998779296875 -970.0000610351562 1650.0
v -1234.9998779296875 -940.0001220703125 1549.9998779296875
v 1075.0001220703125 -950.0000610351562 1560.0001220703125
v -1244.9998779296875 -950.0001831054688 1560.0
v 1065.0001220703125 -940.0 1550.0
v -1244.9998779296875 -950.0001831054688 1560.0
v 1075.0001220703125 -950.0000610351562 1580.0
v -1244.9998779296875 -950.0001831054688 1579.9998779296875
v 1075.0001220703125 -950.0000610351562 1560.0001220703125
v -1244.9998779296875 -950.0001831054688 1579.9998779296875
v 1085.0001220703125 -960.0000610351562 1590.0001220703125
v -1254.9998779296875 -960.0001831054688 1590.0
v 1075.0001220703125 -950.0000610351562 1580.0
v -1254.9998779296875 -960.0001831054688 1590.0
v 1085.0001220703125 -960.0000610351562 1630.0
v -1254.9998779296875 -960.0001831054688 1629.9998779296875
v 1085.0001220703125 -960.0000610351562 1590.0001220703125
v -1254.9998779296875 -960.0001831054688 1629.9998779296875
v 1095.0001220703125 -969.9999389648438 1640.0001220703125
v -1264.9998779296875 -970.0000610351562 1640.0
v 1085.0001220703125 -960.0000610351562 1630.0
v -1264.9998779296875 -970.0000610351562 1640.0
v 1095.0001220703125 -969.9999389648438 1650.0001220703125
v -1264.9998779296875 -970.0000610351562 1650.0
v 1095.0001220703125 -969.9999389648438 1640.0001220703125
v 1045.0001220703125 -919.9999389648438 1650.0001220703125
v 1095.0001220703125 -969.9999389648438 1650.0001220703125
v 1065.0001220703125 -940.0 1550.0
v 1075.0 1320.0 1559.9998779296875
v 1075.0001220703125 -950.0000610351562 1560.0001220703125
v 1065.0 1310.0 1549.999755859375
v 1075.0001220703125 -950.0000610351562 1560.0001220703125
v 1075.0 1320.0 1579.999755859375
v 1075.0001220703125 -950.0000610351562 1580.0
v 1075.0 1320.0 1559.9998779296875
v 1075.0001220703125 -950.0000610351562 1580.0
v 1085.0 1330.0 1589.9998779296875
v 1085.0001220703125 -960.0000610351562 1590.0001220703125
v 1075.0 1320.0 1579.999755859375
v 1085.0001220703125 -960.0000610351562 1590.0001220703125
v 1085.0 1330.0 1629.999755859375
v 1085.0001220703125 -960.0000610351562 1630.0
v 1085.0 1330.0 1589.9998779296875
v 1085.0001220703125 -960.0000610351562 1630.0
v 1095.0 1340.0 1639.9998779296875
v 1095.0001220703125 -969.9999389648438 1640.0001220703125
v 1085.0 1330.0 1629.999755859375
v 1095.0001220703125 -969.9999389648438 1640.0001220703125
v 1095.0 1340.0 1649.9998779296875
v 1095.0001220703125 -969.9999389648438 1650.0001220703125
v 1095.0 1340.0 1639.9998779296875
v 1045.0 1290.0 1649.9998779296875
v 1095.0 1340.0 1649.9998779296875
v 1065.0 1310.0 1549.999755859375
v 438.19512939453125 1320.0 1559.9998779296875
v 1075.0 1320.0 1559.9998779296875
v 440.0 1310.0 1549.999755859375
v 1075.0 1320.0 1559.9998779296875
v 438.19512939453125 1320.0 1579.999755859375
v 1075.0 1320.0 1579.999755859375
v 438.19512939453125 1320.0 1559.9998779296875
v 1075.0 1320.0 1579.999755859375
v 436.39019775390625 1330.0 1589.9998779296875
v 1085.0 1330.0 1589.9998779296875
v 438.19512939453125 1320.0 1579.999755859375
v 1085.0 1330.0 1589.9998779296875
v 436.39019775390625 1330.0 1629.999755859375
v 1085.0 1330.0 1629.999755859375
v 436.39019775390625 1330.0 1589.9998779296875
v 1085.0 1330.0 1629.999755859375
v 434.5853271484375 1340.0 1639.9998779296875
v 1095.0 1340.0 1639.9998779296875
v 436.39019775390625 1330.0 1629.999755859375
v 1095.0 1340.0 1639.9998779296875
v 434.5853271484375 1340.0 1649.9998779296875
v 1095.0 1340.0 1649.9998779296875
v 434.5853271484375 1340.0 1639.9998779296875
v 439.9998779296875 1310.000244140625 3950.0
v -1245.0001220703125 691.9422607421875 3959.999755859375
v 438.19500732421875 1320.000244140625 3959.999755859375
v -1235.0001220703125 685.0001220703125 3950.0
v 438.19500732421875 1320.000244140625 3959.999755859375
v -1245.0001220703125 691.9422607421875 3980.0
v 438.19500732421875 1320.000244140625 3980.0
v -1245.0001220703125 691.9422607421875 3959.999755859375
v 438.19500732421875 1320.000244140625 3980.0
v -1255.0001220703125 698.8843994140625 3989.999755859375
v 436.39007568359375 1330.000244140625 3989.999755859375
v -1245.0001220703125 691.9422607421875 3980.0
v 436.39007568359375 1330.000244140625 3989.999755859375
v -1255.0001220703125 698.8843994140625 4030.0
v 436.39007568359375 1330.000244140625 4030.0
v -1255.0001220703125 698.8843994140625 3989.999755859375
v 436.39007568359375 1330.000244140625 4030.0
v -1265.0001220703125 705.8265380859375 4039.999755859375
v 434.585205078125 1340.000244140625 4039.999755859375
v -1255.0001220703125 698.8843994140625 4030.0
v 434.585205078125 1340.000244140625 4039.999755859375
v -1265.0001220703125 705.8265380859375 4050.0
v 434.585205078125 1340.000244140625 4050.0
v -1265.0001220703125 705.8265380859375 4039.999755859375
v 434.585205078125 1340.000244140625 4050.0
v -1215.0001220703125 671.1158447265625 4050.0
v 443.60968017578125 1290.000244140625 4050.0
v -1265.0001220703125 705.8265380859375 4050.0
v -1235.0001220703125 685.0001220703125 3950.0
v -1245.0001220703125 -949.9999389648438 3959.999755859375
v -1245.0001220703125 691.9422607421875 3959.999755859375
v -1235.0001220703125 -939.9998779296875 3950.0
v -1245.0001220703125 691.9422607421875 3959.999755859375
v -1245.0001220703125 -949.9999389648438 3980.0
v -1245.0001220703125 691.9422607421875 3980.0
v -1245.0001220703125 -949.9999389648438 3959.999755859375
v -1245.0001220703125 691.9422607421875 3980.0
v -1255.0001220703125 -959.9999389648438 3989.999755859375
v -1255.0001220703125 698.8843994140625 3989.999755859375
v -1245.0001220703125 -949.9999389648438 3980.0
v -1255.0001220703125 698.8843994140625 3989.999755859375
v -1255.0001220703125 -959.9999389648438 4030.0
v -1255.0001220703125 698.8843994140625 4030.0
v -1255.0001220703125 -959.9999389648438 3989.999755859375
v -1255.0001220703125 698.8843994140625 4030.0
v -1265.0001220703125 -969.9998168945312 4039.999755859375
v -1265.0001220703125 705.8265380859375 4039.999755859375
v -1255.0001220703125 -959.9999389648438 4030.0
v -1265.0001220703125 705.8265380859375 4039.999755859375
v -1265.0001220703125 -969.9998168945312 4050.0
v -1265.0001220703125 705.8265380859375 4050.0
v -1265.0001220703125 -969.9998168945312 4039.999755859375
v -1215.0001220703125 -919.9998168945312 4050.0
v -1265.0001220703125 -969.9998168945312 4050.0
v -1235.0001220703125 -939.9998779296875 3950.0
v 1075.0 -949.9998168945312 3959.999755859375
v -1245.0001220703125 -949.9999389648438 3959.999755859375
v 1065.0 -939.999755859375 3950.0
v -1245.0001220703125 -949.9999389648438 3959.999755859375
v 1075.0 -949.9998168945312 3980.0
v -1245.0001220703125 -949.9999389648438 3980.0
v 1075.0 -949.9998168945312 3959.999755859375
v -1245.0001220703125 -949.9999389648438 3980.0
v 1085.0 -959.9998168945312 3989.999755859375
v -1255.0001220703125 -959.9999389648438 3989.999755859375
v 1075.0 -949.9998168945312 3980.0
v -1255.0001220703125 -959.9999389648438 3989.999755859375
v 1085.0 -959.9998168945312 4030.0
v -1255.0001220703125 -959.9999389648438 4030.0
v 1085.0 -959.9998168945312 3989.999755859375
v -1255.0001220703125 -959.9999389648438 4030.0
v 1095.0 -969.9996948242188 4039.999755859375
v -1265.0001220703125 -969.9998168945312 4039.999755859375
v 1085.0 -959.9998168945312 4030.0
v -1265.0001220703125 -969.9998168945312 4039.999755859375
v 1095.0 -969.9996948242188 4050.0
v -1265.0001220703125 -969.9998168945312 4050.0
v 1095.0 -969.9996948242188 4039.999755859375
v 1045.0 -919.9996948242188 4050.0
v 1095.0 -969.9996948242188 4050.0
v 1065.0 -939.999755859375 3950.0
v 1074.9998779296875 1320.000244140625 3959.999755859375
v 1075.0 -949.9998168945312 3959.999755859375
v 1064.9998779296875 1310.000244140625 3950.0
v 1075.0 -949.9998168945312 3959.999755859375
v 1074.9998779296875 1320.000244140625 3980.0
v 1075.0 -949.9998168945312 3980.0
v 1074.9998779296875 1320.000244140625 3959.999755859375
v 1075.0 -949.9998168945312 3980.0
v 1084.9998779296875 1330.000244140625 3989.999755859375
v 1085.0 -959.9998168945312 3989.999755859375
v 1074.9998779296875 1320.000244140625 3980.0
v 1085.0 -959.9998168945312 3989.999755859375
v 1084.9998779296875 1330.000244140625 4030.0
v 1085.0 -959.9998168945312 4030.0
v 1084.9998779296875 1330.000244140625 3989.999755859375
v 1085.0 -959.9998168945312 4030.0
v 1094.9998779296875 1340.000244140625 4039.999755859375
v 1095.0 -969.9996948242188 4039.999755859375
v 1084.9998779296875 1330.000244140625 4030.0
v 1095.0 -969.9996948242188 4039.999755859375
v 1094.9998779296875 1340.000244140625 4050.0
v 1095.0 -969.9996948242188 4050.0
v 1094.9998779296875 1340.000244140625 4039.999755859375
v 1044.9998779296875 1290.000244140625 4050.0
v 1094.9998779296875 1340.000244140625 4050.0
v 1064.9998779296875 1310.000244140625 3950.0
v 438.19500732421875 1320.000244140625 3959.999755859375
v 1074.9998779296875 1320.000244140625 3959.999755859375
v 439.9998779296875 1310.000244140625 3950.0
v 1074.9998779296875 1320.000244140625 3959.999755859375
v 438.19500732421875 1320.000244140625 3980.0
v 1074.9998779296875 1320.000244140625 3980.0
v 438.19500732421875 1320.000244140625 3959.999755859375
v 1074.9998779296875 1320.000244140625 3980.0
v 436.39007568359375 1330.000244140625 3989.999755859375
v 1084.9998779296875 1330.000244140625 3989.999755859375
v 438.19500732421875 1320.000244140625 3980.0
v 1084.9998779296875 1330.000244140625 3989.999755859375
v 436.39007568359375 1330.000244140625 4030.0
v 1084.9998779296875 1330.000244140625 4030.0
v 436.39007568359375 1330.000244140625 3989.999755859375
v 1084.9998779296875 1330.000244140625 4030.0
v 434.585205078125 1340.000244140625 4039.999755859375
v 1094.9998779296875 1340.000244140625 4039.999755859375
v 436.39007568359375 1330.000244140625 4030.0
v 1094.9998779296875 1340.000244140625 4039.999755859375
v 434.585205078125 1340.000244140625 4050.0
v 1094.9998779296875 1340.000244140625 4050.0
v 434.585205078125 1340.000244140625 4039.999755859375
v 439.99993896484375 1310.0001220703125 2350.0
v -1245.0001220703125 691.9420776367188 2359.999755859375
v 438.195068359375 1320.0001220703125 2359.999755859375
v -1235.0001220703125 684.9999389648438 2350.0
v 438.195068359375 1320.0001220703125 2359.999755859375
v -1245.0001220703125 691.9420776367188 2380.0
v 438.195068359375 1320.0001220703125 2380.0
v -1245.0001220703125 691.9420776367188 2359.999755859375
v 438.195068359375 1320.0001220703125 2380.0
v -1255.0001220703125 698.8842163085938 2390.0
v 436.39013671875 1330.0001220703125 2390.0
v -1245.0001220703125 691.9420776367188 2380.0
v 436.39013671875 1330.0001220703125 2390.0
v -1255.0001220703125 698.8842163085938 2430.0
v 436.39013671875 1330.0001220703125 2430.0
v -1255.0001220703125 698.8842163085938 2390.0
v 436.39013671875 1330.0001220703125 2430.0
v -1265.0001220703125 705.8263549804688 2440.0
v 434.58526611328125 1340.0001220703125 2440.0
v -1255.0001220703125 698.8842163085938 2430.0
v 434.58526611328125 1340.0001220703125 2440.0
v -1265.0001220703125 705.826416015625 2450.0
v 434.58526611328125 1340.0001220703125 2450.0
v -1265.0001220703125 705.8263549804688 2440.0
v 434.58526611328125 1340.0001220703125 2450.0
v -1215.0001220703125 671.11572265625 2450.0
v 443.6097412109375 1290.0001220703125 2450.0
v -1265.0001220703125 705.826416015625 2450.0
v -1235.0001220703125 684.9999389648438 2350.0
v -1244.9998779296875 -950.0001220703125 2359.999755859375
v -1245.0001220703125 691.9420776367188 2359.999755859375
v -1234.9998779296875 -940.0000610351562 2350.0
v -1245.0001220703125 691.9420776367188 2359.999755859375
v -1244.9998779296875 -950.0001220703125 2380.0
v -1245.0001220703125 691.9420776367188 2380.0
v -1244.9998779296875 -950.0001220703125 2359.999755859375
v -1245.0001220703125 691.9420776367188 2380.0
v -1254.9998779296875 -960.0001220703125 2390.0
v -1255.0001220703125 698.8842163085938 2390.0
v -1244.9998779296875 -950.0001220703125 2380.0
v -1255.0001220703125 698.8842163085938 2390.0
v -1254.9998779296875 -960.0001220703125 2430.0
v -1255.0001220703125 698.8842163085938 2430.0
v -1254.9998779296875 -960.0001220703125 2390.0
v -1255.0001220703125 698.8842163085938 2430.0
v -1264.9998779296875 -970.0 2440.0
v -1265.0001220703125 705.8263549804688 2440.0
v -1254.9998779296875 -960.0001220703125 2430.0
v -1265.0001220703125 705.8263549804688 2440.0
v -1264.9998779296875 -969.9999389648438 2450.0
v -1265.0001220703125 705.826416015625 2450.0
v -1264.9998779296875 -970.0 2440.0
v -1214.9998779296875 -919.9999389648438 2450.0
v -1264.9998779296875 -969.9999389648438 2450.0
v -1234.9998779296875 -940.0000610351562 2350.0
v 1075.0 -950.0 2359.999755859375
v -1244.9998779296875 -950.0001220703125 2359.999755859375
v 1065.0 -939.9999389648438 2350.0
v -1244.9998779296875 -950.0001220703125 2359.999755859375
v 1075.0 -950.0 2380.0
v -1244.9998779296875 -950.0001220703125 2380.0
v 1075.0 -950.0 2359.999755859375
v -1244.9998779296875 -950.0001220703125 2380.0
v 1085.0 -960.0 2390.0
v -1254.9998779296875 -960.0001220703125 2390.0
v 1075.0 -950.0 2380.0
v -1254.9998779296875 -960.0001220703125 2390.0
v 1085.0 -960.0 2430.0
v -1254.9998779296875 -960.0001220703125 2430.0
v 1085.0 -960.0 2390.0
v -1254.9998779296875 -960.0001220703125 2430.0
v 1095.0001220703125 -969.9998779296875 2440.0
v -1264.9998779296875 -970.0 2440.0
v 1085.0 -960.0 2430.0
v -1264.9998779296875 -970.0 2440.0
v 1095.0001220703125 -969.9998168945312 2450.0
v -1264.9998779296875 -969.9999389648438 2450.0
v 1095.0001220703125 -969.9998779296875 2440.0
v 1045.0001220703125 -919.9998168945312 2450.0
v 1095.0001220703125 -969.9998168945312 2450.0
v 1065.0 -939.9999389648438 2350.0
v 1075.0 1320.0001220703125 2359.999755859375
v 1075.0 -950.0 2359.999755859375
v 1065.0 1310.0001220703125 2350.0
v 1075.0 -950.0 2359.999755859375
v 1075.0 1320.0001220703125 2380.0
v 1075.0 -950.0 2380.0
v 1075.0 1320.0001220703125 2359.999755859375
v 1075.0 -950.0 2380.0
v 1085.0 1330.0001220703125 2390.0
v 1085.0 -960.0 2390.0
v 1075.0 1320.0001220703125 2380.0
v 1085.0 -960.0 2390.0
v 1084.9998779296875 1330.0001220703125 2430.0
v 1085.0 -960.0 2430.0
v 1085.0 1330.0001220703125 2390.0
v 1085.0 -960.0 2430.0
v 1095.0 1340.0001220703125 2440.0
v 1095.0001220703125 -969.9998779296875 2440.0
v 1084.9998779296875 1330.0001220703125 2430.0
v 1095.0001220703125 -969.9998779296875 2440.0
v 1095.0 1340.0001220703125 2450.0
v 1095.0001220703125 -969.9998168945312 2450.0
v 1095.0 1340.0001220703125 2440.0
v 1045.0 1290.0001220703125 2450.0
v 1095.0 1340.0001220703125 2450.0
v 1065.0 1310.0001220703125 2350.0
v 438.195068359375 1320.0001220703125 2359.999755859375
v 1075.0 1320.0001220703125 2359.999755859375
v 439.99993896484375 1310.0001220703125 2350.0
v 1075.0 1320.0001220703125 2359.999755859375
v 438.195068359375 1320.0001220703125 2380.0
v 1075.0 1320.0001220703125 2380.0
v 438.195068359375 1320.0001220703125 2359.999755859375
v 1075.0 1320.0001220703125 2380.0
v 436.39013671875 1330.0001220703125 2390.0
v 1085.0 1330.0001220703125 2390.0
v 438.195068359375 1320.0001220703125 2380.0
v 1085.0 1330.0001220703125 2390.0
v 436.39013671875 1330.0001220703125 2430.0
v 1084.9998779296875 1330.0001220703125 2430.0
v 436.39013671875 1330.0001220703125 2390.0
v 1084.9998779296875 1330.0001220703125 2430.0
v 434.58526611328125 1340.0001220703125 2440.0
v 1095.0 1340.0001220703125 2440.0
v 436.39013671875 1330.0001220703125 2430.0
v 1095.0 1340.0001220703125 2440.0
v 434.58526611328125 1340.0001220703125 2450.0
v 1095.0 1340.0001220703125 2450.0
v 434.58526611328125 1340.0001220703125 2440.0
v 440.0 1310.0 749.999755859375
v -1244.9998779296875 691.9419555664062 759.999755859375
v 438.19512939453125 1320.0 759.9998168945312
v -1234.9998779296875 684.9998168945312 749.9996948242188
v 438.19512939453125 1320.0 759.9998168945312
v -1244.9998779296875 691.9419555664062 779.999755859375
v 438.19512939453125 1320.0 779.9998168945312
v -1244.9998779296875 691.9419555664062 759.999755859375
v 438.19512939453125 1320.0 779.9998168945312
v -1254.9998779296875 698.8840942382812 789.999755859375
v 436.39019775390625 1330.0 789.9998168945312
v -1244.9998779296875 691.9419555664062 779.999755859375
v 436.39019775390625 1330.0 789.9998168945312
v -1254.9998779296875 698.8840942382812 829.999755859375
v 436.39019775390625 1330.0 829.9998168945312
v -1254.9998779296875 698.8840942382812 789.999755859375
v 436.39019775390625 1330.0 829.9998168945312
v -1264.9998779296875 705.8262329101562 839.999755859375
v 434.5853271484375 1340.0 839.9998168945312
v -1254.9998779296875 698.8840942382812 829.999755859375
v 434.5853271484375 1340.0 839.9998168945312
v -1264.9998779296875 705.8262329101562 849.9996948242188
v 434.5853271484375 1340.0 849.999755859375
v -1264.9998779296875 705.8262329101562 839.999755859375
v 434.5853271484375 1340.0 849.999755859375
v -1214.9998779296875 671.1155395507812 849.9996948242188
v 443.60980224609375 1290.0 849.999755859375
v -1264.9998779296875 705.8262329101562 849.9996948242188
v -1234.9998779296875 684.9998168945312 749.9996948242188
v -1244.9998779296875 -950.000244140625 759.9998779296875
v -1244.9998779296875 691.9419555664062 759.999755859375
v -1234.9998779296875 -940.0001831054688 749.9998168945312
v -1244.9998779296875 691.9419555664062 759.999755859375
v -1244.9998779296875 -950.000244140625 779.9998779296875
v -1244.9998779296875 691.9419555664062 779.999755859375
v -1244.9998779296875 -950.000244140625 759.9998779296875
v -1244.9998779296875 691.9419555664062 779.999755859375
v -1254.9998779296875 -960.000244140625 789.9998779296875
v -1254.9998779296875 698.8840942382812 789.999755859375
v -1244.9998779296875 -950.000244140625 779.9998779296875
v -1254.9998779296875 698.8840942382812 789.999755859375
v -1254.9998779296875 -960.000244140625 829.9998779296875
v -1254.9998779296875 698.8840942382812 829.999755859375
v -1254.9998779296875 -960.000244140625 789.9998779296875
v -1254.9998779296875 698.8840942382812 829.999755859375
v -1264.9998779296875 -970.0001220703125 839.9998779296875
v -1264.9998779296875 705.8262329101562 839.999755859375
v -1254.9998779296875 -960.000244140625 829.9998779296875
v -1264.9998779296875 705.8262329101562 839.999755859375
v -1264.9998779296875 -970.0001220703125 849.9998168945312
v -1264.9998779296875 705.8262329101562 849.9996948242188
v -1264.9998779296875 -970.0001220703125 839.9998779296875
v -1214.9998779296875 -920.0001220703125 849.9998168945312
v -1264.9998779296875 -970.0001220703125 849.9998168945312
v -1234.9998779296875 -940.0001831054688 749.9998168945312
v 1075.0001220703125 -950.0001220703125 760.0
v -1244.9998779296875 -950.000244140625 759.9998779296875
v 1065.0001220703125 -940.0000610351562 749.9999389648438
v -1244.9998779296875 -950.000244140625 759.9998779296875
v 1075.0001220703125 -950.0001220703125 780.0
v -1244.9998779296875 -950.000244140625 779.9998779296875
v 1075.0001220703125 -950.0001220703125 760.0
v -1244.9998779296875 -950.000244140625 779.9998779296875
v 1085.0001220703125 -960.0001220703125 790.0
v -1254.9998779296875 -960.000244140625 789.9998779296875
v 1075.0001220703125 -950.0001220703125 780.0
v -1254.9998779296875 -960.000244140625 789.9998779296875
v 1085.0001220703125 -960.0001220703125 830.0
v -1254.9998779296875 -960.000244140625 829.9998779296875
v 1085.0001220703125 -960.0001220703125 790.0
v -1254.9998779296875 -960.000244140625 829.9998779296875
v 1095.0001220703125 -970.0 840.0
v -1264.9998779296875 -970.0001220703125 839.9998779296875
v 1085.0001220703125 -960.0001220703125 830.0
v -1264.9998779296875 -970.0001220703125 839.9998779296875
v 1095.0001220703125 -970.0 849.9999389648438
v -1264.9998779296875 -970.0001220703125 849.9998168945312
v 1095.0001220703125 -970.0 840.0
v 1045.0001220703125 -920.0 849.9999389648438
v 1095.0001220703125 -970.0 849.9999389648438
v 1065.0001220703125 -940.0000610351562 749.9999389648438
v 1075.0 1320.0 759.9998168945312
v 1075.0001220703125 -950.0001220703125 760.0
v 1065.0 1310.0 749.999755859375
v 1075.0001220703125 -950.0001220703125 760.0
v 1075.0 1320.0 779.9998168945312
v 1075.0001220703125 -950.0001220703125 780.0
v 1075.0 1320.0 759.9998168945312
v 1075.0001220703125 -950.0001220703125 780.0
v 1085.0 1330.0 789.9998168945312
v 1085.0001220703125 -960.0001220703125 790.0
v 1075.0 1320.0 779.9998168945312
v 1085.0001220703125 -960.0001220703125 790.0
v 1085.0 1330.0 829.9998168945312
v 1085.0001220703125 -960.0001220703125 830.0
v 1085.0 1330.0 789.9998168945312
v 1085.0001220703125 -960.0001220703125 830.0
v 1095.0 1340.0 839.9998168945312
v 1095.0001220703125 -970.0 840.0
v 1085.0 1330.0 829.9998168945312
v 1095.0001220703125 -970.0 840.0
v 1095.0 1340.0 849.999755859375
v 1095.0001220703125 -970.0 849.9999389648438
v 1095.0 1340.0 839.9998168945312
v 1045.0 1290.0 849.999755859375
v 1095.0 1340.0 849.999755859375
v 1065.0 1310.0 749.999755859375
v 438.19512939453125 1320.0 759.9998168945312
v 1075.0 1320.0 759.9998168945312
v 440.0 1310.0 749.999755859375
v 1075.0 1320.0 759.9998168945312
v 438.19512939453125 1320.0 779.9998168945312
v 1075.0 1320.0 779.9998168945312
v 438.19512939453125 1320.0 759.9998168945312
v 1075.0 1320.0 779.9998168945312
v 436.39019775390625 1330.0 789.9998168945312
v 1085.0 1330.0 789.9998168945312
v 438.19512939453125 1320.0 779.9998168945312
v 1085.0 1330.0 789.9998168945312
v 436.39019775390625 1330.0 829.9998168945312
v 1085.0 1330.0 829.9998168945312
v 436.39019775390625 1330.0 789.9998168945312
v 1085.0 1330.0 829.9998168945312
v 434.5853271484375 1340.0 839.9998168945312
v 1095.0 1340.0 839.9998168945312
v 436.39019775390625 1330.0 829.9998168945312
v 1095.0 1340.0 839.9998168945312
v 434.5853271484375 1340.0 849.999755859375
v 1095.0 1340.0 849.999755859375
v 434.5853271484375 1340.0 839.9998168945312
v -1235.0001220703125 685.0001220703125 4050.0
v -1235.0001220703125 -939.9998779296875 4050.0
v -335.0001220703125 260.00018310546875 4050.0
v 264.99993896484375 260.0002136230469 4050.0
v 264.99993896484375 -239.9998016357422 4050.0
v 364.99993896484375 -239.9998016357422 4050.0
v 364.99993896484375 -539.999755859375 4050.0
v 439.9998779296875 1310.000244140625 4050.0
v 1065.0 -939.999755859375 4050.0
v 1064.9998779296875 1310.000244140625 4050.0
v -335.0 -539.9998168945312 4050.0
v 264.99993896484375 260.0002136230469 4050.0
v -335.0001220703125 260.00018310546875 4050.0
v 264.99993896484375 260.000244140625 4450.0
v -335.0001220703125 260.0002136230469 4450.0
v -335.0001220703125 260.00018310546875 4050.0
v -335.0 -539.9998168945312 4050.0
v -335.0001220703125 260.0002136230469 4450.0
v -335.0 -539.999755859375 4450.0
v -335.0 -539.9998168945312 4050.0
v 364.99993896484375 -539.999755859375 4050.0
v -335.0 -539.999755859375 4450.0
v 364.99993896484375 -539.999755859375 4450.0
v 364.99993896484375 -539.999755859375 4050.0
v 364.99993896484375 -239.9998016357422 4050.0
v 364.99993896484375 -539.999755859375 4450.0
v 364.99993896484375 -239.99977111816406 4450.0
v 364.99993896484375 -239.9998016357422 4050.0
v 264.99993896484375 -239.9998016357422 4050.0
v 364.99993896484375 -239.99977111816406 4450.0
v 264.99993896484375 -239.99977111816406 4450.0
v 264.99993896484375 -239.9998016357422 4050.0
v 264.99993896484375 260.0002136230469 4050.0
v 264.99993896484375 -239.99977111816406 4450.0
v 264.99993896484375 260.000244140625 4450.0
v -335.0001220703125 260.0002136230469 4450.0
v -335.0 -539.999755859375 4450.0
v 264.99993896484375 260.000244140625 4450.0
v 364.99993896484375 -539.999755859375 4450.0
v 364.99993896484375 -239.99977111816406 4450.0
v 264.99993896484375 -239.99977111816406 4450.0
v 1065.0001220703125 -940.0001220703125 -2.4003212451934814
v 1090.0001220703125 -940.0001220703125 -2.400320053100586
v 1065.0001220703125 -940.0000610351562 397.5997009277344
v 1090.0001220703125 -940.0000610351562 397.5997009277344
v 1090.0001220703125 -940.0001220703125 -2.400320053100586
v 1090.0001220703125 1047.5975341796875 -2.400493860244751
v 1090.0001220703125 -940.0000610351562 397.5996398925781
v 1090.0 1047.5975341796875 397.5994567871094
v 1090.0001220703125 1047.5975341796875 -2.400493860244751
v 1065.0001220703125 1047.5975341796875 -2.4004950523376465
v 1090.0 1047.5975341796875 397.5995178222656
v 1065.0 1047.5975341796875 397.5995178222656
v 1065.0001220703125 -940.0000610351562 397.5997009277344
v 1090.0001220703125 -940.0000610351562 397.5997009277344
v 1090.0 1047.5975341796875 397.5995178222656
v 1065.0 1047.5975341796875 397.5995178222656
v 1265.0001220703125 -315.0001220703125 3.2783540518721566e-05
v 1065.0001220703125 -315.0001220703125 2.404126280453056e-05
v 1265.0001220703125 -315.0000915527344 400.0000305175781
v 1065.0001220703125 -315.0000915527344 400.0000305175781
v 1065.0001220703125 -765.0001220703125 6.338151433737949e-05
v 1265.0001220703125 -765.0001220703125 7.212378841359168e-05
v 1065.0001220703125 -765.0000610351562 400.00006103515625
v 1265.0001220703125 -765.0000610351562 400.00006103515625
v 1265.0001220703125 -765.0001220703125 7.212378841359168e-05
v 1265.0001220703125 -315.0001220703125 3.2783540518721566e-05
v 1265.0001220703125 -740.0001220703125 100.00006866455078
v 1265.0001220703125 -740.0001220703125 300.00006103515625
v 1265.0001220703125 -340.0000915527344 300.0000305175781
v 1265.0001220703125 -765.0000610351562 400.00006103515625
v 1265.0001220703125 -315.0000915527344 400.0000305175781
v 1265.0001220703125 -340.0001220703125 100.00003051757812
v 1065.0001220703125 -315.0000915527344 400.0000305175781
v 1065.0001220703125 -765.0000610351562 400.00006103515625
v 1265.0001220703125 -315.0000915527344 400.0000305175781
v 1265.0001220703125 -765.0000610351562 400.00006103515625
v 1265.0001220703125 -765.0000610351562 400.00006103515625
v 1240.0001220703125 -740.0000610351562 400.00006103515625
v 1265.0001220703125 -315.0000915527344 400.0000305175781
v 1065.0001220703125 -765.0000610351562 400.00006103515625
v 1065.0001220703125 -315.0000915527344 400.0000305175781
v 1240.0001220703125 -340.0000915527344 400.0000305175781
v 1065.0001220703125 -340.0000915527344 400.0000305175781
v 1065.0001220703125 -740.0000610351562 400.00006103515625
v 1065.0001220703125 -765.0000610351562 450.00006103515625
v 1265.0001220703125 -765.0000610351562 450.00006103515625
v 1265.0001220703125 -765.0000610351562 450.00006103515625
v 1265.0001220703125 -315.0000915527344 450.0000305175781
v 1265.0001220703125 -315.0000915527344 450.0000305175781
v 1065.0001220703125 -315.0000915527344 450.0000305175781
v 1065.0001220703125 -340.0000915527344 400.0000305175781
v 1240.0001220703125 -340.0000915527344 400.0000305175781
v 1065.0001220703125 -340.0000915527344 450.0000305175781
v 1240.0001220703125 -340.0000915527344 450.0000305175781
v 1240.0001220703125 -340.0000915527344 400.0000305175781
v 1240.0001220703125 -740.0000610351562 400.00006103515625
v 1240.0001220703125 -340.0000915527344 450.0000305175781
v 1240.0001220703125 -740.0000610351562 450.00006103515625
v 1240.0001220703125 -740.0000610351562 400.00006103515625
v 1065.0001220703125 -740.0000610351562 400.00006103515625
v 1240.0001220703125 -740.0000610351562 450.00006103515625
v 1065.0001220703125 -740.0000610351562 450.00006103515625
v 1265.0001220703125 -765.0000610351562 450.00006103515625
v 1265.0001220703125 -315.0000915527344 450.0000305175781
v 1240.0001220703125 -740.0000610351562 450.00006103515625
v 1065.0001220703125 -765.0000610351562 450.00006103515625
v 1065.0001220703125 -315.0000915527344 450.0000305175781
v 1065.0001220703125 -340.0000915527344 450.0000305175781
v 1240.0001220703125 -340.0000915527344 450.0000305175781
v 1065.0001220703125 -740.0000610351562 450.00006103515625
v -215.8348388671875 1065.2855224609375 -400.0001525878906
v -224.5750732421875 1088.7108154296875 -400.0001525878906
v -215.8348388671875 1065.2855224609375 -145.00015258789062
v -224.5750732421875 1088.7108154296875 -145.00015258789062
v -224.5750732421875 1088.7108154296875 -400.0001525878906
v -271.4134521484375 1071.2303466796875 -400.0001525878906
v -224.5750732421875 1088.7108154296875 -145.00015258789062
v -271.4134521484375 1071.2303466796875 -145.00015258789062
v -271.4134521484375 1071.2303466796875 -400.0001525878906
v -262.6732177734375 1047.8050537109375 -400.0001525878906
v -271.4134521484375 1071.2303466796875 -145.0001983642578
v -262.6732177734375 1047.8050537109375 -145.0001983642578
v -529.0672607421875 975.0877075195312 -145.0001678466797
v -271.4134521484375 1071.2303466796875 -145.00015258789062
v -520.3270263671875 951.6746215820312 -145.0001678466797
v -262.6746826171875 1047.808837890625 -145.00015258789062
v -529.0672607421875 975.0877075195312 -145.0001678466797
v -224.5750732421875 1088.7108154296875 29.999839782714844
v -529.0672607421875 975.0877075195312 29.999835968017578
v -529.0672607421875 975.0877075195312 -145.0001678466797
v -520.3270263671875 951.6746215820312 -145.0001678466797
v -529.0672607421875 975.0877075195312 29.99981117248535
v -520.3270263671875 951.6746215820312 29.99981689453125
v -215.8348388671875 1065.2855224609375 29.99984359741211
v -224.5750732421875 1088.7108154296875 29.999839782714844
v -529.0672607421875 975.0877075195312 29.999835968017578
v -520.3270263671875 951.6746215820312 29.999841690063477
v -224.5750732421875 1088.7108154296875 29.999839782714844
v -215.8348388671875 1065.2855224609375 29.99984359741211
v -482.2166748046875 992.568115234375 -400.0001525878906
v -529.0672607421875 975.087646484375 -400.0001525878906
v -482.2166748046875 992.568115234375 -145.00015258789062
v -529.0672607421875 975.087646484375 -400.0001525878906
v -520.3270263671875 951.674560546875 -400.0001525878906
v -473.4764404296875 969.155029296875 -400.0001525878906
v -482.2166748046875 992.568115234375 -400.0001525878906
v -473.4764404296875 969.1550903320312 -145.0001983642578
v -482.2166748046875 992.568115234375 -145.0001983642578
v -529.0672607421875 975.0877075195312 -145.0001678466797
v -520.326904296875 951.6746215820312 -145.0001678466797
v -482.2166748046875 992.568115234375 -145.00015258789062
v -473.4764404296875 969.1550903320312 -145.00015258789062
v -1165.0047607421875 -990.0003051757812 -400.0
v -1165.0047607421875 -1040.000244140625 -400.0
v -1165.0047607421875 -990.000244140625 -145.00001525878906
v -1165.0047607421875 -1040.000244140625 -145.0
v -1165.0047607421875 -1040.000244140625 -400.0
v -1144.9974365234375 -1040.000244140625 -400.0
v -1165.0047607421875 -1040.000244140625 -145.0
v -1144.9974365234375 -1040.000244140625 -145.0
v -1144.9974365234375 -1040.000244140625 -400.0
v -1144.9974365234375 -990.0003051757812 -400.0
v -1144.9974365234375 -1040.000244140625 -145.0
v -1144.9974365234375 -990.000244140625 -145.00001525878906
v -1165.0047607421875 -990.000244140625 -145.00001525878906
v -1165.0047607421875 -1040.000244140625 -145.0
v -1144.9974365234375 -990.000244140625 -145.00001525878906
v -1144.9974365234375 -1040.000244140625 -145.0
v -1144.9974365234375 -1249.997802734375 -400.0
v -1165.0047607421875 -1249.997802734375 -400.0
v -1144.9974365234375 -1249.997802734375 -144.99998474121094
v -1165.0047607421875 -1249.997802734375 -144.99998474121094
v -1165.0047607421875 -1249.997802734375 -400.0
v -1165.0047607421875 -1290.000244140625 -399.9999694824219
v -1165.0047607421875 -1249.997802734375 -144.99998474121094
v -1165.0047607421875 -1290.000244140625 -144.99998474121094
v -1144.9974365234375 -1290.000244140625 -399.9999694824219
v -1144.9974365234375 -1249.997802734375 -400.0
v -1144.9974365234375 -1290.000244140625 -144.99998474121094
v -1144.9974365234375 -1249.997802734375 -144.99998474121094
v -1165.0047607421875 -1249.997802734375 -144.99998474121094
v -1144.9974365234375 -990.000244140625 -145.00001525878906
v -1144.9974365234375 -1249.997802734375 -144.99998474121094
v -1165.0047607421875 -990.000244140625 -145.00001525878906
v -1144.9974365234375 -1290.000244140625 5.000007629394531
v -1144.9974365234375 -990.000244140625 4.99998140335083
v -1165.0047607421875 -990.000244140625 4.999980926513672
v -1165.0047607421875 -1290.000244140625 5.000007152557373
v -1134.9998779296875 -1340.000244140625 -399.9999694824219
v -1134.9998779296875 -1290.000244140625 -399.9999694824219
v -1134.9998779296875 -1340.000244140625 1.748456088535022e-05
v -1134.9998779296875 -1290.000244140625 1.3113419299770612e-05
v -1134.9998779296875 -1290.000244140625 -399.9999694824219
v -1184.9998779296875 -1290.000244140625 -399.9999694824219
v -1134.9998779296875 -1290.000244140625 1.3113419299770612e-05
v -1184.9998779296875 -1290.000244140625 1.0927845323749352e-05
v -1184.9998779296875 -1290.000244140625 -399.9999694824219
v -1184.9998779296875 -1340.000244140625 -399.9999694824219
v -1184.9998779296875 -1290.000244140625 1.0927845323749352e-05
v -1184.9998779296875 -1340.000244140625 1.529898690932896e-05
v -1184.9998779296875 -1340.000244140625 1.529898690932896e-05
v -1134.9998779296875 -1340.000244140625 1.748456088535022e-05
v -1134.9998779296875 -1290.000244140625 1.3113419299770612e-05
v -1184.9998779296875 -1290.000244140625 1.0927845323749352e-05
v -1184.9998779296875 -990.0003051757812 -400.0
v -1134.9998779296875 -990.0003051757812 -400.0
v -1184.9998779296875 -990.000244140625 -1.5298990547307767e-05
v -1134.9998779296875 -990.000244140625 -1.3113416571286507e-05
v -1134.9998779296875 -990.0003051757812 -400.0
v -1134.9998779296875 -940.0003051757812 -400.0
v -1134.9998779296875 -990.000244140625 -1.3113416571286507e-05
v -1134.9998779296875 -940.000244140625 -1.74845499714138e-05
v -1184.9998779296875 -940.0003051757812 -400.0
v -1184.9998779296875 -990.0003051757812 -400.0
v -1184.9998779296875 -940.000244140625 -1.967012394743506e-05
v -1184.9998779296875 -990.000244140625 -1.5298990547307767e-05
v -1184.9998779296875 -990.000244140625 -1.5298990547307767e-05
v -1134.9998779296875 -990.000244140625 -1.3113416571286507e-05
v -1184.9998779296875 -1340.000244140625 1.529898690932896e-05
v -1134.9998779296875 -1340.000244140625 1.748456088535022e-05
v -1184.9998779296875 -940.0001831054688 599.9999389648438
v -1184.9998779296875 -1340.000244140625 600.0
v -1134.9998779296875 -1340.000244140625 600.0
v -1134.9998779296875 -940.0001831054688 599.9999389648438
v -134.9998779296875 -940.0001220703125 650.0
v -934.9998779296875 -940.0001831054688 249.99998474121094
v -134.9998779296875 -1340.0001220703125 650.0000610351562
v -934.9998779296875 -1340.000244140625 250.00001525878906
v -134.9998779296875 -940.0001220703125 600.0
v -134.9998779296875 -1340.0001220703125 600.0000610351562
v -934.9998779296875 -940.0001831054688 199.99998474121094
v -934.9998779296875 -1340.000244140625 200.00001525878906
v -134.9998779296875 -1340.0001220703125 650.0000610351562
v -134.9998779296875 -940.0001220703125 600.0
v -134.9998779296875 -940.0001220703125 650.0
v -134.9998779296875 -1340.0001220703125 600.0000610351562
v -134.9998779296875 -940.0001220703125 650.0
v -934.9998779296875 -940.0001831054688 199.99998474121094
v -934.9998779296875 -940.0001831054688 249.99998474121094
v -134.9998779296875 -940.0001220703125 600.0
v -934.9998779296875 -940.0001831054688 249.99998474121094
v -934.9998779296875 -1340.000244140625 200.00001525878906
v -934.9998779296875 -1340.000244140625 250.00001525878906
v -934.9998779296875 -940.0001831054688 199.99998474121094
v -934.9998779296875 -1340.000244140625 250.00001525878906
v -134.9998779296875 -1340.0001220703125 600.0000610351562
v -134.9998779296875 -1340.0001220703125 650.0000610351562
v -934.9998779296875 -1340.000244140625 200.00001525878906
v -934.9998779296875 -940.0001831054688 249.99998474121094
v -1134.9998779296875 -940.000244140625 249.99998474121094
v -934.9998779296875 -1340.000244140625 250.00001525878906
v -1134.9998779296875 -1340.000244140625 250.00001525878906
v -934.9998779296875 -940.0001831054688 199.99998474121094
v -934.9998779296875 -1340.000244140625 200.00001525878906
v -1134.9998779296875 -940.000244140625 199.99998474121094
v -1134.9998779296875 -1340.000244140625 200.00001525878906
v -934.9998779296875 -1340.000244140625 250.00001525878906
v -934.9998779296875 -940.0001831054688 199.99998474121094
v -934.9998779296875 -940.0001831054688 249.99998474121094
v -934.9998779296875 -1340.000244140625 200.00001525878906
v -1134.9998779296875 -940.000244140625 199.99998474121094
v -1134.9998779296875 -940.000244140625 249.99998474121094
v -1134.9998779296875 -940.000244140625 249.99998474121094
v -1134.9998779296875 -1340.000244140625 200.00001525878906
v -1134.9998779296875 -1340.000244140625 250.00001525878906
v -1134.9998779296875 -940.000244140625 199.99998474121094
v -1134.9998779296875 -1340.000244140625 250.00001525878906
v -1134.9998779296875 -1340.000244140625 200.00001525878906
v -1209.9998779296875 -1240.000244140625 550.0
v -1209.9998779296875 -1265.000244140625 550.0
v -1184.9998779296875 -1265.000244140625 550.0
v -1184.9998779296875 -1240.000244140625 550.0
v -1209.9998779296875 -1240.000244140625 50.00000762939453
v -1184.9998779296875 -1265.000244140625 50.00000762939453
v -1209.9998779296875 -1265.000244140625 50.00000762939453
v -1184.9998779296875 -1240.000244140625 50.00000762939453
v -1209.9998779296875 -1265.000244140625 550.0
v -1184.9998779296875 -1265.000244140625 50.00000762939453
v -1184.9998779296875 -1265.000244140625 550.0
v -1209.9998779296875 -1265.000244140625 50.00000762939453
v -1184.9998779296875 -1265.000244140625 550.0
v -1184.9998779296875 -1240.000244140625 50.00000762939453
v -1184.9998779296875 -1240.000244140625 550.0
v -1184.9998779296875 -1265.000244140625 50.00000762939453
v -1184.9998779296875 -1240.000244140625 550.0
v -1209.9998779296875 -1240.000244140625 50.00000762939453
v -1209.9998779296875 -1240.000244140625 550.0
v -1184.9998779296875 -1240.000244140625 50.00000762939453
v -1209.9998779296875 -1240.000244140625 550.0
v -1209.9998779296875 -1265.000244140625 50.00000762939453
v -1209.9998779296875 -1265.000244140625 550.0
v -1209.9998779296875 -1240.000244140625 50.00000762939453
v -1209.9998779296875 -1165.000244140625 550.0
v -1209.9998779296875 -1190.000244140625 550.0
v -1184.9998779296875 -1190.000244140625 550.0
v -1184.9998779296875 -1165.000244140625 550.0
v -1209.9998779296875 -1165.000244140625 50.0
v -1184.9998779296875 -1190.000244140625 50.0
v -1209.9998779296875 -1190.000244140625 50.0
v -1184.9998779296875 -1165.000244140625 50.0
v -1209.9998779296875 -1190.000244140625 550.0
v -1184.9998779296875 -1190.000244140625 50.0
v -1184.9998779296875 -1190.000244140625 550.0
v -1209.9998779296875 -1190.000244140625 50.0
v -1184.9998779296875 -1190.000244140625 550.0
v -1184.9998779296875 -1165.000244140625 50.0
v -1184.9998779296875 -1165.000244140625 550.0
v -1184.9998779296875 -1190.000244140625 50.0
v -1184.9998779296875 -1165.000244140625 550.0
v -1209.9998779296875 -1165.000244140625 50.0
v -1209.9998779296875 -1165.000244140625 550.0
v -1184.9998779296875 -1165.000244140625 50.0
v -1209.9998779296875 -1165.000244140625 550.0
v -1209.9998779296875 -1190.000244140625 50.0
v -1209.9998779296875 -1190.000244140625 550.0
v -1209.9998779296875 -1165.000244140625 50.0
v -1209.9998779296875 -1090.000244140625 550.0
v -1209.9998779296875 -1115.000244140625 550.0
v -1184.9998779296875 -1115.000244140625 550.0
v -1184.9998779296875 -1090.000244140625 550.0
v -1209.9998779296875 -1090.000244140625 49.99999237060547
v -1184.9998779296875 -1115.000244140625 49.999996185302734
v -1209.9998779296875 -1115.000244140625 49.999996185302734
v -1184.9998779296875 -1090.000244140625 49.99999237060547
v -1209.9998779296875 -1115.000244140625 550.0
v -1184.9998779296875 -1115.000244140625 49.999996185302734
v -1184.9998779296875 -1115.000244140625 550.0
v -1209.9998779296875 -1115.000244140625 49.999996185302734
v -1184.9998779296875 -1115.000244140625 550.0
v -1184.9998779296875 -1090.000244140625 49.99999237060547
v -1184.9998779296875 -1090.000244140625 550.0
v -1184.9998779296875 -1115.000244140625 49.999996185302734
v -1184.9998779296875 -1090.000244140625 550.0
v -1209.9998779296875 -1090.000244140625 49.99999237060547
v -1209.9998779296875 -1090.000244140625 550.0
v -1184.9998779296875 -1090.000244140625 49.99999237060547
v -1209.9998779296875 -1090.000244140625 550.0
v -1209.9998779296875 -1115.000244140625 49.999996185302734
v -1209.9998779296875 -1115.000244140625 550.0
v -1209.9998779296875 -1090.000244140625 49.99999237060547
v -1209.9998779296875 -1015.0001831054688 549.9999389648438
v -1209.9998779296875 -1040.000244140625 549.9999389648438
v -1184.9998779296875 -1040.000244140625 549.9999389648438
v -1184.9998779296875 -1015.0001831054688 549.9999389648438
v -1209.9998779296875 -1015.000244140625 49.99998474121094
v -1184.9998779296875 -1040.000244140625 49.9999885559082
v -1209.9998779296875 -1040.000244140625 49.9999885559082
v -1184.9998779296875 -1015.000244140625 49.99998474121094
v -1209.9998779296875 -1040.000244140625 549.9999389648438
v -1184.9998779296875 -1040.000244140625 49.9999885559082
v -1184.9998779296875 -1040.000244140625 549.9999389648438
v -1209.9998779296875 -1040.000244140625 49.9999885559082
v -1184.9998779296875 -1040.000244140625 549.9999389648438
v -1184.9998779296875 -1015.000244140625 49.99998474121094
v -1184.9998779296875 -1015.0001831054688 549.9999389648438
v -1184.9998779296875 -1040.000244140625 49.9999885559082
v -1184.9998779296875 -1015.0001831054688 549.9999389648438
v -1209.9998779296875 -1015.000244140625 49.99998474121094
v -1209.9998779296875 -1015.0001831054688 549.9999389648438
v -1184.9998779296875 -1015.000244140625 49.99998474121094
v -1209.9998779296875 -1015.0001831054688 549.9999389648438
v -1209.9998779296875 -1040.000244140625 49.9999885559082
v -1209.9998779296875 -1040.000244140625 549.9999389648438
v -1209.9998779296875 -1015.000244140625 49.99998474121094
v -1134.9998779296875 -1340.000244140625 600.0
v 1015.0001220703125 -940.0000610351562 600.0000610351562
v 1015.0001220703125 -1340.0001220703125 600.0001220703125
v -1134.9998779296875 -940.0001831054688 599.9999389648438
v 1015.0001220703125 -1340.0001220703125 600.0001220703125
v 1015.0001220703125 -940.0000610351562 600.0000610351562
v 1015.0000610351562 -1339.9998779296875 2600.0
v 1015.0000610351562 -939.9998779296875 2600.0
v -1184.9998779296875 -940.0 2600.0
v -1184.9998779296875 -1340.0 2600.0
v -1184.9998779296875 -940.0001831054688 599.9999389648438
v -1234.9998779296875 -940.0001831054688 599.9999389648438
v -1184.9998779296875 -1340.000244140625 600.0
v -1234.9998779296875 -1340.000244140625 600.0
v -1184.9998779296875 -940.0001831054688 549.9999389648438
v -1184.9998779296875 -1340.000244140625 550.0
v -1234.9998779296875 -940.0001831054688 549.9999389648438
v -1234.9998779296875 -1340.000244140625 550.0
v -1184.9998779296875 -940.0001831054688 599.9999389648438
v -1234.9998779296875 -940.0001831054688 549.9999389648438
v -1234.9998779296875 -940.0001831054688 599.9999389648438
v -1184.9998779296875 -940.0001831054688 549.9999389648438
v -1234.9998779296875 -940.0001831054688 599.9999389648438
v -1234.9998779296875 -1340.000244140625 550.0
v -1234.9998779296875 -1340.000244140625 600.0
v -1234.9998779296875 -940.0001831054688 549.9999389648438
v -1234.9998779296875 -1340.000244140625 600.0
v -1184.9998779296875 -1340.000244140625 550.0
v -1184.9998779296875 -1340.000244140625 600.0
v -1234.9998779296875 -1340.000244140625 550.0
v -1184.9998779296875 -1340.000244140625 600.0
v -1184.9998779296875 -940.0001831054688 549.9999389648438
v -1184.9998779296875 -940.0001831054688 599.9999389648438
v -1184.9998779296875 -1340.000244140625 550.0
v 1065.0001220703125 -940.0000610351562 600.0000610351562
v 515.0001220703125 -940.0000610351562 600.0000610351562
v 1065.0001220703125 -1340.0001220703125 600.0001220703125
v 515.0001831054688 -1340.0001220703125 600.0001220703125
v 1065.0001220703125 -940.0000610351562 550.0000610351562
v 1065.0001220703125 -1340.0001220703125 550.0001220703125
v 515.0001220703125 -940.0000610351562 550.0000610351562
v 515.0001831054688 -1340.0001220703125 550.0001220703125
v 1065.0001220703125 -1340.0001220703125 600.0001220703125
v 1065.0001220703125 -940.0000610351562 550.0000610351562
v 1065.0001220703125 -940.0000610351562 600.0000610351562
v 1065.0001220703125 -1340.0001220703125 550.0001220703125
v 1065.0001220703125 -940.0000610351562 600.0000610351562
v 515.0001220703125 -940.0000610351562 550.0000610351562
v 515.0001220703125 -940.0000610351562 600.0000610351562
v 1065.0001220703125 -940.0000610351562 550.0000610351562
v 515.0001220703125 -940.0000610351562 600.0000610351562
v 515.0001831054688 -1340.0001220703125 550.0001220703125
v 515.0001831054688 -1340.0001220703125 600.0001220703125
v 515.0001220703125 -940.0000610351562 550.0000610351562
v 515.0001831054688 -1340.0001220703125 600.0001220703125
v 1065.0001220703125 -1340.0001220703125 550.0001220703125
v 1065.0001220703125 -1340.0001220703125 600.0001220703125
v 515.0001831054688 -1340.0001220703125 550.0001220703125
v 1015.0000610351562 -939.9998779296875 2600.0
v 1065.0 -939.9998779296875 2600.0
v 1015.0000610351562 -1339.9998779296875 2600.0
v 1065.0001220703125 -1339.9998779296875 2600.0
v -1234.9998779296875 -940.0 2600.0
v -1184.9998779296875 -940.0 2600.0
v -1234.9998779296875 -1340.0 2600.0
v -1184.9998779296875 -1340.0 2600.0
v -1234.9998779296875 -940.0 2600.0
v -1234.9998779296875 -1340.0 2600.0
v -1234.9998779296875 -940.0 2650.0
v -1234.9998779296875 -1340.0 2650.0
v 1065.0001220703125 -1339.9998779296875 2600.0
v 1065.0 -939.9998779296875 2600.0
v 1065.0001220703125 -1339.9998779296875 2650.0
v 1065.0 -939.9998779296875 2650.0
v -1234.9998779296875 -940.0 2650.0
v -1234.9998779296875 -1340.0 2650.0
v 1065.0 -939.9998779296875 2650.0
v 1065.0001220703125 -1339.9998779296875 2650.0
v -184.9998779296875 -940.0001831054688 2.4041264623519965e-05
v -134.9998779296875 -1340.0001220703125 6.119594763731584e-05
v -134.9998779296875 -940.0001831054688 2.6226834961562417e-05
v -184.9998779296875 -1340.0001220703125 5.901037366129458e-05
v -184.9998779296875 -940.0001831054688 -24.999977111816406
v -184.9998779296875 -1340.0001220703125 5.901037366129458e-05
v -184.9998779296875 -940.0001831054688 2.4041264623519965e-05
v -184.9998779296875 -1340.0001220703125 -24.999940872192383
v -234.9998779296875 -940.0001831054688 -24.99997901916504
v -184.9998779296875 -1340.0001220703125 -24.999940872192383
v -184.9998779296875 -940.0001831054688 -24.999977111816406
v -234.9998779296875 -1340.0001220703125 -24.999942779541016
v -234.9998779296875 -940.0001831054688 -49.999977111816406
v -234.9998779296875 -1340.0001220703125 -24.999942779541016
v -234.9998779296875 -940.0001831054688 -24.99997901916504
v -234.9998779296875 -1340.0001220703125 -49.999942779541016
v -284.9998779296875 -940.0001831054688 -49.999977111816406
v -234.9998779296875 -1340.0001220703125 -49.999942779541016
v -234.9998779296875 -940.0001831054688 -49.999977111816406
v -284.9998779296875 -1340.0001220703125 -49.999942779541016
v -284.9998779296875 -940.0001831054688 -74.99998474121094
v -284.9998779296875 -1340.0001220703125 -49.999942779541016
v -284.9998779296875 -940.0001831054688 -49.999977111816406
v -284.9998779296875 -1340.0001220703125 -74.99994659423828
v -334.9998779296875 -940.0001831054688 -74.99998474121094
v -284.9998779296875 -1340.0001220703125 -74.99994659423828
v -284.9998779296875 -940.0001831054688 -74.99998474121094
v -334.9998779296875 -1340.000244140625 -74.99994659423828
v -334.9998779296875 -940.0001831054688 -99.99998474121094
v -334.9998779296875 -1340.000244140625 -74.99994659423828
v -334.9998779296875 -940.0001831054688 -74.99998474121094
v -334.999755859375 -1340.000244140625 -99.99994659423828
v -384.9998779296875 -940.0001831054688 -99.99998474121094
v -334.999755859375 -1340.000244140625 -99.99994659423828
v -334.9998779296875 -940.0001831054688 -99.99998474121094
v -384.999755859375 -1340.000244140625 -99.99994659423828
v -384.9998779296875 -940.0001831054688 -124.99998474121094
v -384.999755859375 -1340.000244140625 -99.99994659423828
v -384.9998779296875 -940.0001831054688 -99.99998474121094
v -384.999755859375 -1340.000244140625 -124.99994659423828
v -434.9998779296875 -940.0001831054688 -124.99999237060547
v -384.999755859375 -1340.000244140625 -124.99994659423828
v -384.9998779296875 -940.0001831054688 -124.99998474121094
v -434.999755859375 -1340.000244140625 -124.99995422363281
v -434.9998779296875 -940.0001831054688 -149.99998474121094
v -434.999755859375 -1340.000244140625 -124.99995422363281
v -434.9998779296875 -940.0001831054688 -124.99999237060547
v -434.999755859375 -1340.000244140625 -149.9999542236328
v -484.9998779296875 -940.0001831054688 -149.99998474121094
v -434.999755859375 -1340.000244140625 -149.9999542236328
v -434.9998779296875 -940.0001831054688 -149.99998474121094
v -484.999755859375 -1340.000244140625 -149.9999542236328
v -484.9998779296875 -940.0001831054688 -174.99998474121094
v -484.999755859375 -1340.000244140625 -149.9999542236328
v -484.9998779296875 -940.0001831054688 -149.99998474121094
v -484.999755859375 -1340.000244140625 -174.9999542236328
v -534.9998779296875 -940.0001831054688 -175.0
v -484.999755859375 -1340.000244140625 -174.9999542236328
v -484.9998779296875 -940.0001831054688 -174.99998474121094
v -534.999755859375 -1340.000244140625 -174.99996948242188
v -534.9998779296875 -940.0001831054688 -200.0
v -534.999755859375 -1340.000244140625 -174.99996948242188
v -534.9998779296875 -940.0001831054688 -175.0
v -534.999755859375 -1340.000244140625 -199.99996948242188
v -584.9998779296875 -940.0001831054688 -200.0
v -534.999755859375 -1340.000244140625 -199.99996948242188
v -534.9998779296875 -940.0001831054688 -200.0
v -584.999755859375 -1340.000244140625 -199.99996948242188
v -584.9998779296875 -940.0001831054688 -225.0
v -584.999755859375 -1340.000244140625 -199.99996948242188
v -584.9998779296875 -940.0001831054688 -200.0
v -584.999755859375 -1340.000244140625 -224.99996948242188
v -634.9998779296875 -940.0001831054688 -225.0
v -584.999755859375 -1340.000244140625 -224.99996948242188
v -584.9998779296875 -940.0001831054688 -225.0
v -634.999755859375 -1340.000244140625 -224.99996948242188
v -634.9998779296875 -940.0001831054688 -250.0
v -634.999755859375 -1340.000244140625 -224.99996948242188
v -634.9998779296875 -940.0001831054688 -225.0
v -634.999755859375 -1340.000244140625 -249.99996948242188
v -684.9998779296875 -940.0001831054688 -250.0
v -634.999755859375 -1340.000244140625 -249.99996948242188
v -634.9998779296875 -940.0001831054688 -250.0
v -684.999755859375 -1340.000244140625 -249.99996948242188
v -684.9998779296875 -940.0001831054688 -275.0
v -684.999755859375 -1340.000244140625 -249.99996948242188
v -684.9998779296875 -940.0001831054688 -250.0
v -684.999755859375 -1340.000244140625 -274.9999694824219
v -734.9998779296875 -940.0001831054688 -275.0
v -684.999755859375 -1340.000244140625 -274.9999694824219
v -684.9998779296875 -940.0001831054688 -275.0
v -734.999755859375 -1340.000244140625 -274.9999694824219
v -734.9998779296875 -940.0001831054688 -300.0
v -734.999755859375 -1340.000244140625 -274.9999694824219
v -734.9998779296875 -940.0001831054688 -275.0
v -734.999755859375 -1340.000244140625 -299.9999694824219
v -784.9998779296875 -940.0001831054688 -300.0
v -734.999755859375 -1340.000244140625 -299.9999694824219
v -734.9998779296875 -940.0001831054688 -300.0
v -784.999755859375 -1340.000244140625 -299.9999694824219
v -784.9998779296875 -940.0001831054688 -325.0
v -784.999755859375 -1340.000244140625 -299.9999694824219
v -784.9998779296875 -940.0001831054688 -300.0
v -784.999755859375 -1340.000244140625 -324.9999694824219
v -834.9998779296875 -940.0001831054688 -325.0
v -784.999755859375 -1340.000244140625 -324.9999694824219
v -784.9998779296875 -940.0001831054688 -325.0
v -834.999755859375 -1340.000244140625 -324.9999694824219
v -834.9998779296875 -940.000244140625 -350.0
v -834.999755859375 -1340.000244140625 -324.9999694824219
v -834.9998779296875 -940.0001831054688 -325.0
v -834.999755859375 -1340.000244140625 -349.9999694824219
v -884.9998779296875 -940.000244140625 -350.0
v -834.999755859375 -1340.000244140625 -349.9999694824219
v -834.9998779296875 -940.000244140625 -350.0
v -884.999755859375 -1340.000244140625 -349.9999694824219
v -884.9998779296875 -940.000244140625 -375.0
v -884.999755859375 -1340.000244140625 -349.9999694824219
v -884.9998779296875 -940.000244140625 -350.0
v -884.999755859375 -1340.000244140625 -374.9999694824219
v -934.9998779296875 -940.000244140625 -375.0
v -884.999755859375 -1340.000244140625 -374.9999694824219
v -884.9998779296875 -940.000244140625 -375.0
v -934.999755859375 -1340.000244140625 -374.9999694824219
v -934.9998779296875 -940.000244140625 -400.0
v -934.999755859375 -1340.000244140625 -374.9999694824219
v -934.9998779296875 -940.000244140625 -375.0
v -934.999755859375 -1340.000244140625 -399.9999694824219
v 465.00018310546875 -940.0001220703125 5.2453669923124835e-05
v 465.00018310546875 -1340.0001220703125 8.742278441786766e-05
v 465.00018310546875 -1290.0001220703125 8.305163646582514e-05
v 465.00018310546875 -990.0001220703125 5.6824803323252127e-05
v 474.99774169921875 -1290.0001220703125 8.348864503204823e-05
v 474.99774169921875 -1240.0001220703125 7.911750435596332e-05
v 474.997802734375 -1030.0025634765625 6.075893179513514e-05
v 474.997802734375 -990.0001220703125 5.726181188947521e-05
v 495.00506591796875 -1240.0001220703125 7.999205263331532e-05
v 495.00506591796875 -1030.0025634765625 6.163348007248715e-05
v 495.00506591796875 -1290.0001220703125 8.436319330940023e-05
v 515.0001831054688 -990.0001220703125 5.901037366129458e-05
v 495.00506591796875 -990.0001220703125 5.813635652884841e-05
v 515.0001831054688 -1290.0001220703125 8.52372104418464e-05
v 515.0001831054688 -1340.0001220703125 8.96083511179313e-05
v 565.0001220703125 -940.0001220703125 5.6824806961230934e-05
v 515.0001831054688 -940.0001220703125 5.463924026116729e-05
v 565.0001831054688 -1340.0001220703125 9.179391781799495e-05
v 465.00018310546875 -940.0001220703125 5.2453669923124835e-05
v 465.00018310546875 -990.0001220703125 5.6824803323252127e-05
v 465.0001220703125 -940.0000610351562 400.00006103515625
v 465.0001220703125 -990.0000610351562 400.00006103515625
v 465.00018310546875 -990.0001220703125 5.6824803323252127e-05
v 515.0001831054688 -990.0001220703125 5.901037366129458e-05
v 465.0001220703125 -990.0000610351562 400.00006103515625
v 515.0001220703125 -990.0000610351562 400.00006103515625
v 515.0001831054688 -990.0001220703125 5.901037366129458e-05
v 515.0001831054688 -940.0001220703125 5.463924026116729e-05
v 515.0001220703125 -990.0000610351562 400.00006103515625
v 515.0001220703125 -940.0000610351562 400.00006103515625
v 465.0001220703125 -940.0000610351562 400.00006103515625
v 465.0001220703125 -990.0000610351562 400.00006103515625
v 515.0001220703125 -940.0000610351562 400.00006103515625
v 515.0001220703125 -990.0000610351562 400.00006103515625
v 515.0001831054688 -1340.0001220703125 8.96083511179313e-05
v 515.0001831054688 -1290.0001220703125 8.52372104418464e-05
v 515.0001831054688 -1340.0001220703125 400.0000915527344
v 515.0001831054688 -1290.0001220703125 400.0000915527344
v 515.0001831054688 -1290.0001220703125 8.52372104418464e-05
v 465.00018310546875 -1290.0001220703125 8.305163646582514e-05
v 515.0001831054688 -1290.0001220703125 400.0000915527344
v 465.00018310546875 -1290.0001220703125 400.0000915527344
v 465.00018310546875 -1290.0001220703125 8.305163646582514e-05
v 465.00018310546875 -1340.0001220703125 8.742278441786766e-05
v 465.00018310546875 -1290.0001220703125 400.0000915527344
v 465.00018310546875 -1340.0001220703125 400.0000915527344
v 465.00018310546875 -1290.0001220703125 400.0000915527344
v 515.0001220703125 -940.0000610351562 400.00006103515625
v 515.0001831054688 -1290.0001220703125 400.0000915527344
v 465.0001220703125 -940.0000610351562 400.00006103515625
v 515.0001831054688 -1340.0001220703125 600.0001220703125
v 515.0001220703125 -940.0000610351562 600.0000610351562
v 465.0001220703125 -940.0000610351562 600.0000610351562
v 465.00018310546875 -1340.0001220703125 600.0001220703125
v 465.00018310546875 -1340.0001220703125 600.0001220703125
v 465.0001220703125 -940.0000610351562 600.0000610351562
v 474.997802734375 -990.0001220703125 5.726181188947521e-05
v 474.997802734375 -1030.0025634765625 6.075893179513514e-05
v 474.99774169921875 -990.0001220703125 255.0000457763672
v 474.997802734375 -1030.0025634765625 255.00006103515625
v 474.997802734375 -1030.0025634765625 6.075893179513514e-05
v 495.00506591796875 -1030.0025634765625 6.163348007248715e-05
v 474.997802734375 -1030.0025634765625 255.00006103515625
v 495.00506591796875 -1030.0025634765625 255.00006103515625
v 495.00506591796875 -1030.0025634765625 6.163348007248715e-05
v 495.00506591796875 -990.0001220703125 5.813635652884841e-05
v 495.00506591796875 -1030.0025634765625 255.00006103515625
v 495.0050048828125 -990.0001220703125 255.0000457763672
v 474.99774169921875 -990.0001220703125 255.0000457763672
v 474.997802734375 -1030.0025634765625 255.00006103515625
v 495.0050048828125 -990.0001220703125 255.0000457763672
v 495.00506591796875 -1030.0025634765625 255.00006103515625
v 495.00506591796875 -1290.0001220703125 8.436319330940023e-05
v 495.00506591796875 -1240.0001220703125 7.999205263331532e-05
v 495.00506591796875 -1290.0001220703125 255.0000762939453
v 495.00506591796875 -1240.0001220703125 255.0000762939453
v 495.00506591796875 -1240.0001220703125 7.999205263331532e-05
v 474.99774169921875 -1240.0001220703125 7.911750435596332e-05
v 495.00506591796875 -1240.0001220703125 255.0000762939453
v 474.99774169921875 -1240.0001220703125 255.0000762939453
v 474.99774169921875 -1240.0001220703125 7.911750435596332e-05
v 474.99774169921875 -1290.0001220703125 8.348864503204823e-05
v 474.99774169921875 -1240.0001220703125 255.0000762939453
v 474.99774169921875 -1290.0001220703125 255.0000762939453
v 474.99774169921875 -1240.0001220703125 255.0000762939453
v 495.0050048828125 -990.0001220703125 255.0000457763672
v 495.00506591796875 -1240.0001220703125 255.0000762939453
v 474.9976806640625 -990.0001220703125 255.0000457763672
v 495.00506591796875 -1290.0001220703125 405.0001220703125
v 495.0050048828125 -990.0000610351562 405.0000915527344
v 474.9976806640625 -990.0001220703125 255.0000457763672
v 474.9976806640625 -990.0000610351562 405.0000915527344
v 474.99774169921875 -1290.0001220703125 405.0001220703125
f 34 33 35
f 36 34 35
f 30 31 18
f 25 26 22
f 25 30 26
f 30 28 26
f 28 30 18
f 19 28 18
f 18 17 19
f 19 17 23
f 23 17 22
f 26 23 22
f 21 20 22
f 22 27 21
f 21 27 29
f 29 27 18
f 32 29 18
f 31 32 18
f 32 31 24
f 20 32 24
f 20 24 22
f 24 25 22
f 90 89 91
f 91 89 92
f 88 85 86
f 86 85 87
f 74 73 75
f 75 73 76
f 72 69 70
f 70 69 71
f 58 57 59
f 59 57 60
f 56 53 54
f 54 53 55
f 7 3 6
f 3 1 6
f 2 1 3
f 15 14 5
f 5 16 15
f 6 16 5
f 5 4 6
f 4 7 6
f 7 4 11
f 11 10 7
f 10 8 7
f 9 8 10
f 13 12 11
f 11 4 13
f 1471 1470 1472
f 1473 1471 1472
f 1467 1466 1468
f 1469 1467 1468
f 1459 1458 1460
f 1461 1459 1460
f 1455 1454 1456
f 1457 1455 1456
f 1451 1450 1452
f 1453 1451 1452
f 1443 1442 1444
f 1445 1443 1444
f 1439 1438 1440
f 1441 1439 1440
f 1435 1434 1436
f 1437 1435 1436
f 82 81 83
f 84 82 83
f 78 77 79
f 78 79 80
f 66 65 67
f 68 66 67
f 62 61 63
f 62 63 64
f 50 49 51
f 52 50 51
f 46 45 47
f 46 47 48
f 42 41 43
f 44 42 43
f 38 37 39
f 40 38 39
f 935 934 936
f 937 935 936
f 979 978 980
f 980 981 979
f 975 974 976
f 977 975 976
f 971 970 972
f 973 971 972
f 967 966 968
f 969 967 968
f 959 958 960
f 961 959 960
f 955 954 956
f 957 955 956
f 951 950 952
f 953 951 952
f 947 946 948
f 948 949 947
f 943 942 944
f 945 943 944
f 939 938 940
f 941 939 940
f 158 160 157
f 158 157 159
f 853 852 854
f 854 857 853
f 857 855 853
f 856 855 857
f 1475 1474 1476
f 1474 1477 1476
f 1265 1262 1263
f 1263 1262 1264
f 1261 1258 1259
f 1259 1258 1260
f 1257 1254 1255
f 1255 1254 1256
f 1253 1250 1251
f 1251 1250 1252
f 1241 1238 1239
f 1239 1238 1240
f 1237 1234 1235
f 1235 1234 1236
f 1233 1230 1231
f 1231 1230 1232
f 1229 1226 1227
f 1227 1226 1228
f 1205 1202 1203
f 1203 1202 1204
f 1201 1198 1199
f 1199 1198 1200
f 1197 1194 1195
f 1195 1194 1196
f 1193 1190 1191
f 1191 1190 1192
f 1183 1182 1184
f 1182 1185 1184
f 1181 1178 1179
f 1179 1178 1180
f 1177 1174 1175
f 1175 1174 1176
f 1173 1170 1171
f 1171 1170 1172
f 1169 1166 1167
f 1167 1166 1168
f 1159 1158 1160
f 1158 1161 1160
f 1157 1154 1155
f 1155 1154 1156
f 1153 1150 1151
f 1151 1150 1152
f 1149 1146 1147
f 1147 1146 1148
f 1145 1142 1143
f 1143 1142 1144
f 1135 1134 1136
f 1134 1137 1136
f 1133 1130 1131
f 1131 1130 1132
f 1129 1126 1127
f 1127 1126 1128
f 1125 1122 1123
f 1123 1122 1124
f 1121 1118 1119
f 1119 1118 1120
f 1111 1110 1112
f 1110 1113 1112
f 1109 1106 1107
f 1107 1106 1108
f 1105 1102 1103
f 1103 1102 1104
f 1101 1098 1099
f 1099 1098 1100
f 1097 1094 1095
f 1095 1094 1096
f 1085 1082 1083
f 1083 1082 1084
f 1081 1078 1079
f 1079 1078 1080
f 1077 1074 1075
f 1075 1074 1076
f 1073 1070 1071
f 1071 1070 1072
f 1035 1034 1036
f 1034 1037 1036
f 895 901 897
f 897 894 895
f 895 894 896
f 896 899 895
f 896 898 899
f 899 898 900
f 849 848 850
f 851 849 850
f 845 844 846
f 847 845 846
f 841 840 842
f 843 841 842
f 837 836 838
f 839 837 838
f 833 832 834
f 835 833 834
f 829 828 830
f 831 829 830
f 826 825 824
f 818 817 819
f 819 817 820
f 820 817 824
f 822 820 824
f 823 822 824
f 824 825 823
f 823 825 827
f 827 825 818
f 819 827 818
f 821 820 822
f 871 870 872
f 870 873 872
f 861 859 860
f 859 858 860
f 931 930 932
f 932 930 927
f 928 932 927
f 927 926 928
f 928 926 929
f 929 933 928
f 154 156 153
f 154 153 155
f 150 152 149
f 150 149 151
f 146 148 145
f 146 145 147
f 142 144 141
f 142 141 143
f 138 140 137
f 138 137 139
f 134 136 133
f 134 133 135
f 130 132 129
f 130 129 131
f 126 128 125
f 126 125 127
f 122 124 121
f 122 121 123
f 118 120 117
f 118 117 119
f 110 109 111
f 112 110 111
f 106 105 107
f 108 106 107
f 102 101 103
f 104 102 103
f 94 96 93
f 94 93 95
f 1515 1514 1516
f 1517 1515 1516
f 1511 1510 1512
f 1513 1511 1512
f 1507 1509 1506
f 1507 1506 1508
f 1503 1502 1504
f 1505 1503 1504
f 1499 1498 1500
f 1501 1499 1500
f 1495 1494 1496
f 1497 1495 1496
f 1491 1490 1492
f 1493 1491 1492
f 1487 1486 1488
f 1489 1487 1488
f 1483 1482 1484
f 1485 1483 1484
f 1479 1478 1480
f 1481 1479 1480
f 1463 1465 1462
f 1463 1462 1464
f 1447 1446 1448
f 1449 1447 1448
f 1283 1282 1284
f 1285 1283 1284
f 1279 1278 1280
f 1281 1279 1280
f 1275 1274 1276
f 1277 1275 1276
f 1271 1270 1272
f 1271 1272 1273
f 1267 1266 1268
f 1267 1268 1269
f 1247 1246 1248
f 1247 1248 1249
f 1243 1242 1244
f 1245 1243 1244
f 1223 1222 1224
f 1223 1224 1225
f 1219 1218 1220
f 1221 1219 1220
f 1207 1209 1206
f 1207 1206 1208
f 1187 1189 1186
f 1187 1186 1188
f 1163 1165 1162
f 1163 1162 1164
f 1139 1141 1138
f 1139 1138 1140
f 1115 1117 1114
f 1115 1114 1116
f 1091 1090 1092
f 1091 1092 1093
f 1087 1086 1088
f 1089 1087 1088
f 1067 1066 1068
f 1067 1068 1069
f 1063 1062 1064
f 1065 1063 1064
f 1059 1058 1060
f 1061 1059 1060
f 1055 1054 1056
f 1057 1055 1056
f 1051 1050 1052
f 1051 1052 1053
f 1047 1046 1048
f 1049 1047 1048
f 1043 1042 1044
f 1045 1043 1044
f 1039 1038 1040
f 1041 1039 1040
f 1031 1030 1032
f 1033 1031 1032
f 1027 1026 1028
f 1029 1027 1028
f 1023 1022 1024
f 1025 1023 1024
f 1019 1018 1020
f 1021 1019 1020
f 1015 1014 1016
f 1017 1015 1016
f 1011 1013 1010
f 1011 1010 1012
f 1007 1006 1008
f 1009 1007 1008
f 1003 1002 1004
f 1005 1003 1004
f 999 998 1000
f 1001 999 1000
f 995 994 996
f 997 995 996
f 991 990 992
f 993 991 992
f 987 986 988
f 989 987 988
f 983 982 984
f 985 983 984
f 963 962 964
f 964 965 963
f 923 922 924
f 925 923 924
f 919 918 920
f 921 919 920
f 915 914 916
f 917 915 916
f 911 910 912
f 913 911 912
f 907 906 908
f 909 907 908
f 903 902 904
f 905 903 904
f 891 890 892
f 893 891 892
f 867 866 868
f 869 867 868
f 863 862 864
f 865 863 864
f 814 816 813
f 814 813 815
f 810 812 809
f 810 809 811
f 806 808 805
f 806 805 807
f 802 804 801
f 802 801 803
f 798 800 797
f 798 797 799
f 794 796 793
f 794 793 795
f 790 792 789
f 790 789 791
f 786 788 785
f 786 785 787
f 782 784 781
f 782 781 783
f 778 780 777
f 778 777 779
f 774 776 773
f 774 773 775
f 770 772 769
f 770 769 771
f 766 768 765
f 766 765 767
f 762 764 761
f 762 761 763
f 758 760 757
f 758 757 759
f 754 756 753
f 754 753 755
f 750 752 749
f 750 749 751
f 746 748 745
f 746 745 747
f 742 744 741
f 742 741 743
f 738 740 737
f 738 737 739
f 734 736 733
f 734 733 735
f 730 732 729
f 730 729 731
f 726 728 725
f 726 725 727
f 722 724 721
f 722 721 723
f 718 720 717
f 718 717 719
f 714 716 713
f 714 713 715
f 710 712 709
f 710 709 711
f 706 708 705
f 706 705 707
f 702 704 701
f 1523 1522 703
f 698 700 697
f 698 697 699
f 694 696 693
f 1525 1524 695
f 690 692 689
f 690 689 691
f 686 688 685
f 1527 1526 687
f 682 684 681
f 682 681 683
f 678 680 677
f 1529 1528 679
f 674 676 673
f 674 673 675
f 670 672 669
f 670 669 671
f 666 668 665
f 666 665 667
f 662 664 661
f 662 661 663
f 658 660 657
f 658 657 659
f 654 656 653
f 654 653 655
f 650 652 649
f 650 649 651
f 646 648 645
f 646 645 647
f 642 644 641
f 642 641 643
f 638 640 637
f 638 637 639
f 634 636 633
f 634 633 635
f 630 632 629
f 630 629 631
f 626 628 625
f 626 625 627
f 622 624 621
f 622 621 623
f 618 620 617
f 618 617 619
f 614 616 613
f 614 613 615
f 610 612 609
f 610 609 611
f 606 608 605
f 606 605 607
f 602 604 601
f 602 601 603
f 598 600 597
f 598 597 599
f 594 596 593
f 594 593 595
f 590 592 589
f 590 589 591
f 586 588 585
f 586 585 587
f 582 584 581
f 582 581 583
f 578 580 577
f 578 577 579
f 574 576 573
f 574 573 575
f 570 572 569
f 570 569 571
f 566 568 565
f 566 565 567
f 562 564 561
f 562 561 563
f 558 560 557
f 558 557 559
f 554 556 553
f 554 553 555
f 550 552 549
f 550 549 551
f 546 548 545
f 546 545 547
f 542 544 541
f 542 541 543
f 538 540 537
f 538 537 539
f 534 536 533
f 534 533 535
f 530 532 529
f 530 529 531
f 526 528 525
f 526 525 527
f 522 524 521
f 522 521 523
f 518 520 517
f 518 517 519
f 514 516 513
f 514 513 515
f 510 512 509
f 510 509 511
f 506 508 505
f 506 505 507
f 502 504 501
f 502 501 503
f 498 500 497
f 498 497 499
f 494 496 493
f 494 493 495
f 490 492 489
f 490 489 491
f 486 488 485
f 486 485 487
f 482 484 481
f 482 481 483
f 478 480 477
f 478 477 479
f 474 476 473
f 474 473 475
f 470 472 469
f 470 469 471
f 466 468 465
f 466 465 467
f 462 464 461
f 462 461 463
f 458 460 457
f 458 457 459
f 454 456 453
f 454 453 455
f 450 452 449
f 450 449 451
f 446 448 445
f 446 445 447
f 442 444 441
f 442 441 443
f 438 440 437
f 438 437 439
f 434 436 433
f 434 433 435
f 430 432 429
f 430 429 431
f 426 428 425
f 426 425 427
f 422 424 421
f 422 421 423
f 418 420 417
f 418 417 419
f 414 416 413
f 414 413 415
f 410 412 409
f 410 409 411
f 406 408 405
f 406 405 407
f 402 404 401
f 402 401 403
f 398 400 397
f 398 397 399
f 394 396 393
f 394 393 395
f 390 392 389
f 390 389 391
f 386 388 385
f 386 385 387
f 382 384 381
f 382 381 383
f 378 380 377
f 378 377 379
f 374 376 373
f 374 373 375
f 370 372 369
f 370 369 371
f 366 368 365
f 366 365 367
f 362 364 361
f 362 361 363
f 358 360 357
f 358 357 359
f 354 356 353
f 354 353 355
f 350 352 349
f 350 349 351
f 346 348 345
f 346 345 347
f 342 344 341
f 342 341 343
f 338 340 337
f 338 337 339
f 334 336 333
f 334 333 335
f 330 332 329
f 330 329 331
f 326 328 325
f 326 325 327
f 322 324 321
f 322 321 323
f 318 320 317
f 318 317 319
f 314 316 313
f 314 313 315
f 310 312 309
f 310 309 311
f 306 308 305
f 306 305 307
f 302 304 301
f 302 301 303
f 298 300 297
f 298 297 299
f 294 296 293
f 294 293 295
f 290 292 289
f 290 289 291
f 286 288 285
f 286 285 287
f 282 284 281
f 282 281 283
f 278 280 277
f 278 277 279
f 274 276 273
f 274 273 275
f 270 272 269
f 270 269 271
f 266 268 265
f 1531 1530 267
f 262 264 261
f 262 261 263
f 258 260 257
f 1533 1532 259
f 254 256 253
f 254 253 255
f 250 252 249
f 250 249 251
f 246 248 245
f 246 245 247
f 242 244 241
f 242 241 243
f 238 240 237
f 238 237 239
f 234 236 233
f 234 233 235
f 230 232 229
f 230 229 231
f 226 228 225
f 226 225 227
f 222 224 221
f 222 221 223
f 218 220 217
f 218 217 219
f 214 216 213
f 214 213 215
f 210 212 209
f 210 209 211
f 206 208 205
f 206 205 207
f 202 204 201
f 202 201 203
f 198 200 197
f 198 197 199
f 194 196 193
f 194 193 195
f 190 192 189
f 190 189 191
f 186 188 185
f 186 185 187
f 182 184 181
f 182 181 183
f 178 180 177
f 178 177 179
f 174 176 173
f 174 173 175
f 170 172 169
f 170 169 171
f 166 168 165
f 166 165 167
f 162 164 161
f 162 161 163
f 114 113 115
f 116 114 115
f 875 874 876
f 877 875 876
f 879 878 880
f 881 879 880
f 883 882 884
f 884 889 883
f 889 888 883
f 886 888 889
f 887 888 886
f 886 885 887
f 885 882 887
f 884 882 885
f 98 97 99
f 100 98 99
f 1211 1210 1212
f 1213 1211 1212
f 1215 1214 1216
f 1217 1215 1216
f 1297 1294 1295
f 1295 1294 1296
f 1427 1432 1431
f 1429 1426 1427
f 1429 1427 1431
f 1430 1429 1431
f 1433 1430 1431
f 1425 1428 1427
f 1415 1414 1416
f 1419 1415 1416
f 1418 1415 1419
f 1418 1419 1423
f 1422 1418 1423
f 1421 1418 1422
f 1421 1422 1425
f 1424 1421 1425
f 1424 1425 1427
f 1426 1424 1427
f 1420 1418 1421
f 1417 1415 1418
f 1301 1298 1299
f 1299 1298 1300
f 1305 1302 1303
f 1303 1302 1304
f 1309 1306 1307
f 1307 1306 1308
f 1313 1310 1311
f 1311 1310 1312
f 1317 1314 1315
f 1315 1314 1316
f 1321 1318 1319
f 1319 1318 1320
f 1325 1322 1323
f 1323 1322 1324
f 1329 1326 1327
f 1327 1326 1328
f 1333 1330 1331
f 1331 1330 1332
f 1337 1334 1335
f 1335 1334 1336
f 1341 1338 1339
f 1339 1338 1340
f 1345 1342 1343
f 1343 1342 1344
f 1349 1346 1347
f 1347 1346 1348
f 1353 1350 1351
f 1351 1350 1352
f 1357 1354 1355
f 1355 1354 1356
f 1361 1358 1359
f 1359 1358 1360
f 1365 1362 1363
f 1363 1362 1364
f 1369 1366 1367
f 1367 1366 1368
f 1373 1370 1371
f 1371 1370 1372
f 1377 1374 1375
f 1375 1374 1376
f 1381 1378 1379
f 1379 1378 1380
f 1385 1382 1383
f 1383 1382 1384
f 1389 1386 1387
f 1387 1386 1388
f 1393 1390 1391
f 1391 1390 1392
f 1397 1394 1395
f 1395 1394 1396
f 1401 1398 1399
f 1399 1398 1400
f 1405 1402 1403
f 1403 1402 1404
f 1409 1406 1407
f 1407 1406 1408
f 1413 1410 1411
f 1411 1410 1412
f 1289 1286 1287
f 1287 1286 1288
f 1293 1290 1291
f 1291 1290 1292
f 1519 1518 1520
f 1520 1518 1521
