# from FinancialDistrict_Block06_Generic_0004_LOD_0.pskx
v -2239.9208984375 -1072.9971923828125 -0.02500542812049389
v -1739.8709716796875 -1072.9971923828125 -0.024983571842312813
v -2239.9208984375 -1072.9971923828125 10.024993896484375
v -1739.8709716796875 -1072.9971923828125 10.025015830993652
v -1739.913818359375 -1072.979736328125 -0.024983571842312813
v -450.6081237792969 -2338.82275390625 -0.02481655590236187
v -1739.913818359375 -1072.979736328125 10.025015830993652
v -450.6081237792969 -2338.82275390625 10.025182723999023
v -450.6436462402344 -2338.82275390625 -0.02481655217707157
v -249.10684204101562 -2137.24951171875 -0.024825362488627434
v -450.6436462402344 -2338.82275390625 10.025182723999023
v -249.10684204101562 -2137.24951171875 10.025174140930176
v -249.13665771484375 -2137.2890625 -0.024825362488627434
v 104.43987274169922 -1500.8560791015625 -0.024865543469786644
v -249.13665771484375 -2137.2890625 10.025174140930176
v 104.43987274169922 -1500.8560791015625 10.025134086608887
v 104.4100570678711 -1500.8956298828125 -0.024865547195076942
v 1447.9512939453125 -157.3543243408203 -0.024924274533987045
v 104.4100570678711 -1500.8956298828125 10.025134086608887
v 1447.9512939453125 -157.3543243408203 10.02507495880127
v 1447.9112548828125 -157.38319396972656 -0.024924274533987045
v 2013.6419677734375 125.48847198486328 -0.024924274533987045
v 1447.9112548828125 -157.38319396972656 10.02507495880127
v 2013.6419677734375 125.48847198486328 10.025075912475586
v 2013.6019287109375 125.4594955444336 -0.024924274533987045
v 2225.77099609375 337.6164245605469 -0.024933546781539917
v 2013.6019287109375 125.4594955444336 10.02507495880127
v 2225.77099609375 337.6164245605469 10.025065422058105
v 2225.77099609375 337.5810852050781 -0.024933546781539917
v 670.0958251953125 1893.256103515625 -0.02513754367828369
v 2225.77099609375 337.5810852050781 10.025066375732422
v 670.0958251953125 1893.256103515625 10.024862289428711
v 670.0958251953125 1893.220703125 -0.02513754367828369
v 811.5496826171875 2034.674560546875 -0.02514372579753399
v 670.0958251953125 1893.220703125 10.024861335754395
v 811.5496826171875 2034.674560546875 10.024855613708496
v 811.5496826171875 2034.63916015625 -0.02514372579753399
v 493.3136291503906 2352.875 -0.02518545277416706
v 811.5496826171875 2034.63916015625 10.024855613708496
v 493.3136291503906 2352.875 10.024812698364258
v 493.3489685058594 2352.875 -0.025185449048876762
v 351.8951721191406 2211.42138671875 -0.025179266929626465
v 493.3489685058594 2352.875 10.024812698364258
v 351.8951721191406 2211.42138671875 10.024819374084473
v 351.9305114746094 2211.42138671875 -0.025179270654916763
v 281.1920471191406 2282.15966796875 -0.025188542902469635
v 351.9305114746094 2211.42138671875 10.024820327758789
v 281.1920471191406 2282.15966796875 10.024810791015625
v 281.2347106933594 2282.14208984375 -0.025188541039824486
v -284.5011901855469 2282.14208984375 -0.025213267654180527
v 281.2347106933594 2282.14208984375 10.024810791015625
v -284.5011901855469 2282.14208984375 10.024786949157715
v -284.4585266113281 2282.15966796875 -0.025213269516825676
v -2239.913330078125 326.9857482910156 -0.025127818807959557
v -284.4585266113281 2282.15966796875 10.024786949157715
v -2239.913330078125 326.9857482910156 10.024871826171875
v -2239.89599609375 327.0278015136719 -0.025127818807959557
v -2239.89599609375 -1073.022216796875 -0.02500542812049389
v -2239.89599609375 327.0278015136719 10.024870872497559
v -2239.89599609375 -1073.022216796875 10.024992942810059
v 1306.4974365234375 -15.923606872558594 9.975057601928711
v 1447.9512939453125 -157.3774871826172 9.975075721740723
v 1306.4974365234375 -15.923606872558594 110.02505493164062
v 1447.9512939453125 -157.3774871826172 110.02507781982422
v 1447.9112548828125 -157.37098693847656 9.975075721740723
v 2013.6419677734375 125.50055694580078 9.975076675415039
v 1447.9112548828125 -157.37098693847656 110.02507781982422
v 2013.6419677734375 125.50055694580078 110.02507781982422
v 2013.6019287109375 125.4717025756836 9.975076675415039
v 2225.77099609375 337.6286315917969 9.975067138671875
v 2013.6019287109375 125.4717025756836 110.02507019042969
v 2225.77099609375 337.6286315917969 110.02505493164062
v 1306.4739990234375 -15.967604637145996 110.00005340576172
v 1023.666015625 1539.7337646484375 109.99990844726562
v 811.4910888671875 1327.5736083984375 109.99991607666016
v 1447.9271240234375 -157.39984130859375 110.00007629394531
v 2013.6484375 125.4493408203125 110.00007629394531
v 2225.788818359375 337.6109619140625 110.00006103515625
v 1023.6837158203125 1553.8583984375 109.97489929199219
v 799.9190673828125 1330.093505859375 109.97491455078125
v 799.9190673828125 1330.093505859375 140.02493286132812
v 1023.6837158203125 1553.8583984375 140.02491760253906
v 1023.6837158203125 1518.5029296875 109.97490692138672
v 1023.6837158203125 1518.5029296875 140.02491760253906
v 828.9075927734375 1323.726806640625 140.02493286132812
v 828.9075927734375 1323.726806640625 109.97491455078125
v 799.9281005859375 1330.1346435546875 109.97491455078125
v 1297.9000244140625 -21.48293113708496 109.97505950927734
v 1297.9000244140625 -21.48293113708496 140.0250701904297
v 799.9281005859375 1330.1346435546875 140.02493286132812
v 828.9166259765625 1323.7679443359375 109.97491455078125
v 828.9166259765625 1323.7679443359375 140.02493286132812
v 1319.4598388671875 -7.687887191772461 140.0250701904297
v 1319.4598388671875 -7.687887191772461 109.97505187988281
v 1297.8736572265625 -21.441795349121094 109.97505950927734
v 1445.9766845703125 -169.5452117919922 109.9750747680664
v 1445.9766845703125 -169.5452117919922 140.02508544921875
v 1297.8736572265625 -21.441795349121094 140.0250701904297
v 1319.4334716796875 -7.6467509269714355 109.97505187988281
v 1319.4334716796875 -7.6467509269714355 140.0250701904297
v 1450.9129638671875 -139.12608337402344 140.0250701904297
v 1450.9129638671875 -139.12608337402344 109.9750747680664
v 1445.9366455078125 -169.53871154785156 109.9750747680664
v 2019.5653076171875 117.28180694580078 109.9750747680664
v 2019.5653076171875 117.28180694580078 140.02508544921875
v 1445.9366455078125 -169.53871154785156 140.02508544921875
v 1450.8729248046875 -139.1195831298828 109.9750747680664
v 1450.8729248046875 -139.1195831298828 140.0250701904297
v 2004.7567138671875 137.8283233642578 140.02508544921875
v 2004.7567138671875 137.8283233642578 109.9750747680664
v 2019.5252685546875 117.2529525756836 109.9750747680664
v 2239.91357421875 337.6283874511719 109.97505950927734
v 2239.91357421875 337.6283874511719 140.02508544921875
v 2019.5252685546875 117.2529525756836 140.02508544921875
v 2004.7166748046875 137.79946899414062 109.9750747680664
v 2004.7166748046875 137.79946899414062 140.02508544921875
v 2204.5576171875 337.6288757324219 140.02508544921875
v 2204.5576171875 337.6288757324219 109.97505950927734
v 2239.91357421875 337.5930480957031 109.97505950927734
v 1023.6483154296875 1553.8583984375 109.97489929199219
v 1023.6483154296875 1553.8583984375 140.02491760253906
v 2239.91357421875 337.5930480957031 140.02508544921875
v 2204.5576171875 337.5935363769531 109.97505950927734
v 2204.5576171875 337.5935363769531 140.02508544921875
v 1023.6483154296875 1518.5029296875 140.02491760253906
v 1023.6483154296875 1518.5029296875 109.97490692138672
v 1023.666015625 1553.8583984375 139.9999237060547
v 799.918701171875 1330.126953125 139.99993896484375
v 828.9376220703125 1323.702392578125 139.99993896484375
v 1023.6233520507812 1518.467529296875 139.9999237060547
v 1297.870849609375 -21.472633361816406 140.0000762939453
v 1319.4881591796875 -7.676844120025635 140.0000762939453
v 1445.9556884765625 -169.54754638671875 140.00009155273438
v 1450.9376220703125 -139.0947265625 140.0000762939453
v 2019.57177734375 117.2305908203125 140.00009155273438
v 2004.70556640625 137.857177734375 140.00009155273438
v 2239.91357421875 337.6107177734375 140.00009155273438
v 2204.5224609375 337.65386962890625 140.00009155273438
v 811.56103515625 1327.59765625 109.99991607666016
v 799.9161987304688 1330.11572265625 109.99991607666016
v 1023.666015625 1553.8583984375 109.9999008178711
v 1023.7086791992188 1539.6806640625 109.99990844726562
v 1306.519287109375 -15.902548789978027 110.00005340576172
v 1297.870849609375 -21.472633361816406 110.00006103515625
v 1447.9759521484375 -157.34613037109375 110.00007629394531
v 1445.9454345703125 -169.54588317871094 110.00007629394531
v 2013.5908203125 125.5294189453125 110.00007629394531
v 2019.57177734375 117.2305908203125 110.00007629394531
v 2225.73583984375 337.56829833984375 110.00006103515625
v 2239.91357421875 337.6107177734375 110.00006103515625
v 175.12538146972656 -1147.2957763671875 9.975107192993164
v 316.5791931152344 -1288.7496337890625 9.975125312805176
v 175.12538146972656 -1147.2957763671875 110.02510833740234
v 316.5791931152344 -1288.7496337890625 110.0251235961914
v 316.5438537597656 -1288.7496337890625 9.975125312805176
v 1235.8175048828125 -369.4758605957031 9.975085258483887
v 316.5438537597656 -1288.7496337890625 110.0251235961914
v 1235.8175048828125 -369.4757995605469 110.02508544921875
v 1235.8175048828125 -369.5111999511719 9.975085258483887
v 1094.3636474609375 -228.05751037597656 9.975067138671875
v 1235.8175048828125 -369.5111389160156 110.02508544921875
v 1094.3636474609375 -228.0574493408203 110.02507019042969
v 1094.4224853515625 -228.04881286621094 110.00006866455078
v 599.4395751953125 1115.4571533203125 109.99992370605469
v 457.9949035644531 1256.8917236328125 109.99990844726562
v 316.5615234375 -1288.767333984375 110.0001220703125
v 1235.835205078125 -369.4935302734375 110.00008392333984
v -178.4297332763672 1186.1883544921875 109.99989318847656
v 175.11903381347656 -1147.3553466796875 110.00010681152344
v -1309.823974609375 54.791481018066406 109.99993896484375
v -1309.823974609375 -652.348388671875 110.0
v -1168.3868408203125 -793.8031005859375 110.00001525878906
v 740.8644409179688 -581.6273803710938 110.00008392333984
v 634.76220703125 -687.7296142578125 110.00008392333984
v 670.11376953125 -510.8767395019531 110.00006866455078
v 564.0115356445312 -616.97900390625 110.00007629394531
v 1103.0142822265625 -222.5805206298828 109.97506713867188
v 608.0135498046875 1120.9722900390625 109.97492218017578
v 608.0135498046875 1120.9722900390625 140.02493286132812
v 1103.0142822265625 -222.5805206298828 140.0250701904297
v 1081.4539794921875 -236.37562561035156 109.97506713867188
v 1081.4539794921875 -236.37562561035156 140.0250701904297
v 586.4534912109375 1107.1773681640625 140.02493286132812
v 586.4534912109375 1107.1773681640625 109.97492980957031
v 608.0399169921875 1120.93115234375 109.97492218017578
v 461.6349182128906 1267.33642578125 109.97490692138672
v 461.6349182128906 1267.33642578125 140.02491760253906
v 608.0399169921875 1120.93115234375 140.02493286132812
v 586.4798583984375 1107.13623046875 109.97492980957031
v 586.4798583984375 1107.13623046875 140.02493286132812
v 452.4535217285156 1241.16259765625 140.02493286132812
v 452.4535217285156 1241.16259765625 109.97490692138672
v 461.67742919921875 1267.321533203125 109.97490692138672
v -183.02496337890625 1195.694580078125 109.97489166259766
v -183.02496337890625 1195.694580078125 140.02490234375
v 461.67742919921875 1267.321533203125 140.02491760253906
v 452.49603271484375 1241.147705078125 109.97490692138672
v 452.49603271484375 1241.147705078125 140.02493286132812
v -171.54827880859375 1171.81591796875 140.02490234375
v -171.54827880859375 1171.81591796875 109.97489166259766
v -182.98243713378906 1195.715087890625 109.97489166259766
v -1319.799072265625 58.898338317871094 109.97493743896484
v -1319.799072265625 58.898338317871094 140.0249481201172
v -182.98243713378906 1195.715087890625 140.02490234375
v -171.50575256347656 1171.83642578125 109.97489166259766
v -171.50575256347656 1171.83642578125 140.02490234375
v -1294.799072265625 48.542991638183594 140.0249481201172
v -1294.799072265625 48.542991638183594 109.97493743896484
v -1319.7813720703125 58.941017150878906 109.97493743896484
v -1319.78125 -656.4974975585938 109.9749984741211
v -1319.78125 -656.4974975585938 140.02500915527344
v -1319.7813720703125 58.941017150878906 140.0249481201172
v -1294.7813720703125 48.585670471191406 109.97493743896484
v -1294.7813720703125 48.585670471191406 140.0249481201172
v -1294.78125 -646.1427612304688 140.02500915527344
v -1294.78125 -646.1427612304688 109.9749984741211
v -1319.7989501953125 -656.4547729492188 109.9749984741211
v -1173.504638671875 -802.7616577148438 109.97501373291016
v -1173.504638671875 -802.7616577148438 140.0250244140625
v -1319.7989501953125 -656.4547729492188 140.02500915527344
v -1294.7989501953125 -646.1000366210938 109.9749984741211
v -1294.7989501953125 -646.1000366210938 140.02500915527344
v -1160.60546875 -780.3049926757812 140.0250244140625
v -1160.60546875 -780.3049926757812 109.97501373291016
v -1173.5465087890625 -802.7376098632812 109.97501373291016
v 170.007568359375 -1156.302490234375 109.97511291503906
v 170.007568359375 -1156.302490234375 140.02511596679688
v -1173.5465087890625 -802.7376098632812 140.0250244140625
v -1160.6473388671875 -780.2809448242188 109.97501373291016
v -1160.6473388671875 -780.2809448242188 140.0250244140625
v 182.90625 -1133.845703125 140.02511596679688
v 182.90625 -1133.845703125 109.97510528564453
v 169.96571350097656 -1156.2784423828125 109.97511291503906
v 316.5791931152344 -1302.891845703125 109.9751205444336
v 316.5791931152344 -1302.891845703125 140.02513122558594
v 169.96571350097656 -1156.2784423828125 140.02511596679688
v 182.86439514160156 -1133.8216552734375 109.97510528564453
v 182.86439514160156 -1133.8216552734375 140.02511596679688
v 316.5791931152344 -1267.5364990234375 140.02513122558594
v 316.5791931152344 -1267.5364990234375 109.9751205444336
v 316.5438537597656 -1302.891845703125 109.9751205444336
v 1249.9598388671875 -369.4758605957031 109.97508239746094
v 1249.9598388671875 -369.4758605957031 140.0251007080078
v 316.5438537597656 -1302.891845703125 140.02513122558594
v 316.5438537597656 -1267.5364990234375 109.9751205444336
v 316.5438537597656 -1267.5364990234375 140.02513122558594
v 1214.6043701171875 -369.4757995605469 140.0251007080078
v 1214.6043701171875 -369.4757995605469 109.97508239746094
v 1249.9598388671875 -369.5111999511719 109.97508239746094
v 1102.9879150390625 -222.5393829345703 109.97506713867188
v 1102.9879150390625 -222.5393829345703 140.0250701904297
v 1249.9598388671875 -369.5111999511719 140.0251007080078
v 1214.6043701171875 -369.5111389160156 109.97508239746094
v 1214.6043701171875 -369.5111389160156 140.0251007080078
v 1081.4276123046875 -236.33448791503906 140.0250701904297
v 1081.4276123046875 -236.33448791503906 109.97506713867188
v 1103.0467529296875 -222.53074645996094 140.0000762939453
v 608.0427856445312 1120.9620361328125 139.99993896484375
v 586.4252319335938 1107.1663818359375 139.99993896484375
v 1081.4041748046875 -236.3784942626953 140.0000762939453
v 461.6600341796875 1267.3399658203125 139.9999237060547
v 452.429931640625 1241.135498046875 139.99993896484375
v -183.01034545898438 1195.7186279296875 139.99990844726562
v -171.543212890625 1171.7830810546875 139.99990844726562
v -1319.802734375 58.92485427856445 139.9999542236328
v -1294.7733154296875 48.519893646240234 139.9999542236328
v -1319.8026123046875 -656.4813232421875 140.00001525878906
v -1294.7467041015625 -646.1408081054688 140.00001525878906
v -1173.5343017578125 -802.764892578125 140.00003051757812
v -1160.5838623046875 -780.2820434570312 140.00003051757812
v 169.99871826171875 -1156.332763671875 140.0001220703125
v 182.89410400390625 -1133.8184814453125 140.0001220703125
v 316.55419921875 -1302.891845703125 140.00013732910156
v 316.60418701171875 -1267.5010986328125 140.00013732910156
v 1249.9598388671875 -369.4935302734375 140.00010681152344
v 1214.5689697265625 -369.4508056640625 140.00010681152344
v 599.3572998046875 1115.4044189453125 109.99992370605469
v 608.0633544921875 1120.9752197265625 109.99992370605469
v 1103.0467529296875 -222.53074645996094 110.00006866455078
v 1094.3402099609375 -228.10145568847656 110.00006866455078
v 458.0063171386719 1256.816162109375 109.99990844726562
v 461.6600341796875 1267.3399658203125 109.99990844726562
v -178.3690948486328 1186.1390380859375 109.99989318847656
v -183.01034545898438 1195.7186279296875 109.99989318847656
v -1309.7467041015625 54.79690170288086 109.99993896484375
v -1319.802734375 58.92485427856445 109.99993896484375
v -1309.773193359375 -652.2899169921875 110.0
v -1319.8026123046875 -656.4813232421875 110.0
v -1168.3780517578125 -793.724609375 110.00001525878906
v -1173.5343017578125 -802.764892578125 110.00001525878906
v 175.15509033203125 -1147.2926025390625 110.00010681152344
v 169.9440460205078 -1156.3013916015625 110.00011444091797
v 316.60418701171875 -1288.7142333984375 110.0001220703125
v 316.56884765625 -1302.891845703125 110.0001220703125
v 1235.7821044921875 -369.53619384765625 110.00008392333984
v 1249.9598388671875 -369.4935302734375 110.00008392333984
v -1592.6480712890625 -1217.999267578125 9.97503662109375
v -450.6081237792969 -2338.810546875 9.975183486938477
v -1592.6480712890625 -1217.999267578125 110.02503204345703
v -450.6081237792969 -2338.810546875 110.02518463134766
v -450.6436462402344 -2338.810546875 9.975183486938477
v -249.10684204101562 -2137.2373046875 9.975174903869629
v -450.6436462402344 -2338.810546875 110.02518463134766
v -249.10684204101562 -2137.2373046875 110.02517700195312
v -249.13665771484375 -2137.27685546875 9.975174903869629
v 104.43987274169922 -1500.843994140625 9.97513484954834
v -249.13665771484375 -2137.27685546875 110.02517700195312
v 104.43987274169922 -1500.843994140625 110.02513122558594
v 104.4454116821289 -1500.8834228515625 9.97513484954834
v -37.008399963378906 -1359.4173583984375 9.975116729736328
v 104.4454116821289 -1500.8834228515625 110.02513122558594
v -37.008399963378906 -1359.4173583984375 110.02511596679688
v -1380.5079345703125 -1005.8410034179688 110.00003051757812
v -450.62579345703125 -2338.828369140625 110.00018310546875
v -249.08497619628906 -2137.28466796875 110.00017547607422
v -36.96668243408203 -1359.3931884765625 110.00011444091797
v -1592.6654052734375 -1218.016845703125 110.00003051757812
v 104.46726989746094 -1500.8602294921875 110.00012969970703
v -31.80687713623047 -1350.458740234375 109.97511291503906
v -1383.530517578125 -994.7440185546875 109.97502899169922
v -1383.530517578125 -994.7440185546875 140.0250244140625
v -31.80687713623047 -1350.458740234375 140.02511596679688
v -44.70604705810547 -1372.9154052734375 109.97511291503906
v -44.70604705810547 -1372.9154052734375 140.02511596679688
v -1376.0062255859375 -1022.5752563476562 140.0250244140625
v -1376.0062255859375 -1022.5752563476562 109.97502899169922
v -1383.4886474609375 -994.732666015625 109.97502899169922
v -1606.8568115234375 -1218.10107421875 109.97502899169922
v -1606.8568115234375 -1218.10107421875 140.02505493164062
v -1383.4886474609375 -994.732666015625 140.0250244140625
v -1375.96435546875 -1022.5639038085938 109.97502899169922
v -1375.96435546875 -1022.5639038085938 140.0250244140625
v -1571.3348388671875 -1217.9344482421875 140.02505493164062
v -1571.3348388671875 -1217.9344482421875 109.97503662109375
v -1606.85693359375 -1218.06591796875 109.97502899169922
v -450.5415954589844 -2352.88720703125 109.97518157958984
v -450.5415954589844 -2352.88720703125 140.0251922607422
v -1606.85693359375 -1218.06591796875 140.02505493164062
v -1571.3349609375 -1217.8992919921875 109.97503662109375
v -1571.3349609375 -1217.8992919921875 140.02505493164062
v -450.7080993652344 -2317.6953125 140.0251922607422
v -450.7080993652344 -2317.6953125 109.97518157958984
v -450.5771179199219 -2352.88720703125 109.97518157958984
v -241.04519653320312 -2143.31787109375 109.97517395019531
v -241.04519653320312 -2143.31787109375 140.0251922607422
v -450.5771179199219 -2352.88720703125 140.0251922607422
v -450.7436218261719 -2317.6953125 109.97518157958984
v -450.7436218261719 -2317.6953125 140.0251922607422
v -261.1992492675781 -2128.116943359375 140.0251922607422
v -261.1992492675781 -2128.116943359375 109.97517395019531
v -241.07501220703125 -2143.357421875 109.97517395019531
v 116.84441375732422 -1499.1068115234375 109.97512817382812
v 116.84441375732422 -1499.1068115234375 140.025146484375
v -241.07501220703125 -2143.357421875 140.0251922607422
v -261.22906494140625 -2128.156494140625 109.97517395019531
v -261.22906494140625 -2128.156494140625 140.0251922607422
v 85.83293914794922 -1503.449462890625 140.025146484375
v 85.83293914794922 -1503.449462890625 109.97512817382812
v 116.8499526977539 -1499.1463623046875 109.97512817382812
v -31.848731994628906 -1350.4346923828125 109.97511291503906
v -31.848731994628906 -1350.4346923828125 140.02511596679688
v 116.8499526977539 -1499.1463623046875 140.025146484375
v 85.8384780883789 -1503.489013671875 109.97512817382812
v 85.8384780883789 -1503.489013671875 140.025146484375
v -44.747901916503906 -1372.891357421875 140.02511596679688
v -44.747901916503906 -1372.891357421875 109.97511291503906
v -31.819034576416016 -1350.4315185546875 140.0001220703125
v -1383.4998779296875 -994.7261352539062 140.00003051757812
v -1376.0125732421875 -1022.6123046875 140.00003051757812
v -44.76958084106445 -1372.914306640625 140.0001220703125
v -1606.856689453125 -1218.08349609375 140.00006103515625
v -1571.29931640625 -1217.95947265625 140.00006103515625
v -450.5593566894531 -2352.887451171875 140.0001983642578
v -450.6834411621094 -2317.65966796875 140.0001983642578
v -241.02333068847656 -2143.365234375 140.0001983642578
v -261.2564392089844 -2128.104736328125 140.0001983642578
v 116.85204315185547 -1499.1258544921875 140.00015258789062
v 85.79547882080078 -1503.4344482421875 140.00015258789062
v -1380.527099609375 -1005.91357421875 110.00003051757812
v -1383.4998779296875 -994.7261352539062 110.00003051757812
v -31.819034576416016 -1350.4315185546875 110.00011444091797
v -36.975406646728516 -1359.4716796875 110.00011444091797
v -1592.6129150390625 -1217.973876953125 110.00003051757812
v -1606.856689453125 -1218.08349609375 110.00003051757812
v -450.6686706542969 -2338.775390625 110.00018310546875
v -450.5593566894531 -2352.887451171875 110.00018310546875
v -249.16404724121094 -2137.22509765625 110.00017547607422
v -241.02333068847656 -2143.365234375 110.00017547607422
v 104.41352081298828 -1500.908203125 110.00012969970703
v 116.85204315185547 -1499.1258544921875 110.00012969970703
v 1129.73583984375 -263.4651184082031 110.00006866455078
v 1306.51513671875 -15.906051635742188 110.00005340576172
v 1094.345947265625 -228.07513427734375 110.00006866455078
v 1341.905029296875 -51.299072265625 110.00006103515625
v 1129.7181396484375 -263.4474182128906 84.97506713867188
v 1341.8873291015625 -51.281394958496094 110.02506256103516
v 1129.7181396484375 -263.4474182128906 110.02507019042969
v 1341.8873291015625 -51.281394958496094 84.97505950927734
v 1165.090576171875 -298.8197326660156 85.00007629394531
v 1341.86962890625 -51.26371765136719 85.00006103515625
v 1129.700439453125 -263.42974853515625 85.00006866455078
v 1377.259765625 -86.65673828125 85.00006103515625
v 1165.0728759765625 -298.8020935058594 59.975074768066406
v 1377.2420654296875 -86.6390609741211 85.02506256103516
v 1165.0728759765625 -298.8020324707031 85.02507781982422
v 1377.2420654296875 -86.6390609741211 59.97507095336914
v 1200.4453125 -334.1742858886719 60.000083923339844
v 1377.224365234375 -86.62138366699219 60.00007247924805
v 1165.05517578125 -298.784423828125 60.00007629394531
v 1412.614501953125 -122.01434326171875 60.00007247924805
v 1200.4276123046875 -334.1566467285156 34.97508239746094
v 1412.5968017578125 -121.99666595458984 60.02507400512695
v 1200.4276123046875 -334.1565856933594 60.02508544921875
v 1412.5968017578125 -121.99666595458984 34.97507095336914
v 1235.7998046875 -369.5289001464844 35.00008773803711
v 1412.5791015625 -121.97898864746094 35.00007247924805
v 1200.409912109375 -334.13897705078125 35.000083923339844
v 1447.968994140625 -157.37200927734375 35.00008010864258
v 1235.7821044921875 -369.5112609863281 9.97508716583252
v 1447.9512939453125 -157.35433959960938 35.025081634521484
v 1235.7821044921875 -369.5111999511719 35.025089263916016
v 1447.9512939453125 -157.35433959960938 9.975077629089355
v 210.5329132080078 -1182.6680908203125 110.00011444091797
v 175.14306640625 -1147.278076171875 110.00010681152344
v -37.02607727050781 -1359.43505859375 110.00011444091797
v -1.6362322568893433 -1394.8311767578125 110.0001220703125
v 210.51524353027344 -1182.650390625 84.97511291503906
v 210.51524353027344 -1182.650390625 110.02511596679688
v -1.653908371925354 -1394.8134765625 110.0251235961914
v -1.653908371925354 -1394.8134765625 84.9751205444336
v 245.8876495361328 -1218.022705078125 85.00011444091797
v 210.49755859375 -1182.6326904296875 85.00011444091797
v -1.6715869903564453 -1394.7957763671875 85.0001220703125
v 33.718505859375 -1430.19189453125 85.00012969970703
v 245.86997985839844 -1218.0050048828125 59.97511672973633
v 245.86997985839844 -1218.0050048828125 85.02511596679688
v 33.700828552246094 -1430.1741943359375 85.02513122558594
v 33.700828552246094 -1430.1741943359375 59.975128173828125
v 281.2424011230469 -1253.3773193359375 60.0001220703125
v 245.852294921875 -1217.9873046875 60.000118255615234
v 33.68314743041992 -1430.156494140625 60.00012969970703
v 69.0732421875 -1465.5526123046875 60.0001335144043
v 281.2247009277344 -1253.359619140625 34.975120544433594
v 281.2247009277344 -1253.359619140625 60.025123596191406
v 69.0555648803711 -1465.534912109375 60.0251350402832
v 69.0555648803711 -1465.534912109375 34.97513198852539
v 316.5968933105469 -1288.73193359375 35.00012969970703
v 281.20703125 -1253.3419189453125 35.0001220703125
v 69.03788757324219 -1465.5172119140625 35.0001335144043
v 104.427734375 -1500.913330078125 35.00013732910156
v 316.5791931152344 -1288.7142333984375 9.975127220153809
v 316.5791931152344 -1288.7142333984375 35.02513122558594
v 104.4100570678711 -1500.8956298828125 35.02513885498047
v 104.4100570678711 -1500.8956298828125 9.975136756896973
v -1309.738525390625 -652.31298828125 110.0
v -1309.738525390625 54.756126403808594 109.99993896484375
v -1380.4852294921875 -1005.9247436523438 110.00003051757812
v -1168.3387451171875 -793.7194213867188 110.00001525878906
v -36.979408264160156 -1359.4769287109375 110.00011444091797
v -178.3888702392578 1186.1033935546875 109.99989318847656
v -284.4938659667969 2282.197021484375 109.99978637695312
v 457.9650573730469 1256.8067626953125 109.99990844726562
v 351.912841796875 2211.486572265625 109.99982452392578
v 281.2273864746094 2282.197021484375 109.99980926513672
v 599.3572998046875 1115.4044189453125 109.99992370605469
v 493.331298828125 2352.905029296875 109.99980926513672
v 1094.3756103515625 -228.10145568847656 110.00006866455078
v 811.5733642578125 1327.5555419921875 109.99991607666016
v 670.1488647460938 1893.2506103515625 109.99986267089844
v 1306.5562744140625 -15.950441360473633 110.00005340576172
v 1023.7013549804688 1539.6983642578125 109.99990844726562
v 811.5673217773438 2034.6690673828125 109.9998550415039
v -2239.938720703125 327.0204772949219 109.9998779296875
v -2239.9208984375 -1073.022216796875 110.0
v -1739.91357421875 -1073.0400390625 110.0000228881836
v -1592.6302490234375 -1218.05224609375 110.00003051757812
v 175.16709899902344 -1147.3070068359375 110.00010681152344
v -1571.2998046875 -1217.8739013671875 140.00006103515625
v -450.7686462402344 -2317.66015625 140.0001983642578
v 85.80658721923828 -1503.5137939453125 140.00015258789062
v -44.714908599853516 -1372.9456787109375 140.0001220703125
v -1383.524169921875 -994.7327270507812 140.00003051757812
v -1375.940185546875 -1022.5927734375 140.00003051757812
v 1214.5689697265625 -369.5361328125 140.00010681152344
v 586.4579467773438 1107.115234375 139.99993896484375
v 452.4975280761719 1241.11181640625 139.99993896484375
v -171.4832305908203 1171.8118896484375 139.99990844726562
v -1294.746826171875 48.58376693725586 139.9999542236328
v -1294.773193359375 -646.0769653320312 140.00001525878906
v -1160.638427734375 -780.2506713867188 140.00003051757812
v 169.9440460205078 -1156.3013916015625 140.0001220703125
v 316.56884765625 -1302.891845703125 140.00013732910156
v 316.51885986328125 -1267.5010986328125 140.00013732910156
v 1319.455322265625 -7.625692844390869 140.0000762939453
v 1450.859375 -139.08203125 140.0000762939453
v 2204.5224609375 337.56854248046875 140.00009155273438
v 1023.7086791992188 1518.467529296875 139.9999237060547
v 799.9137573242188 1330.1044921875 139.99993896484375
v 828.9541015625 1323.777587890625 139.99993896484375
v 169.99871826171875 -1156.332763671875 110.00011444091797
v -1168.323486328125 -793.7559814453125 110.00001525878906
v -1309.7467041015625 -652.353759765625 110.0
v -1309.773193359375 54.733028411865234 109.99993896484375
v -178.4290771484375 1186.1102294921875 109.99989318847656
v 457.938720703125 1256.83984375 109.99990844726562
v 1235.7821044921875 -369.45086669921875 110.00008392333984
v 316.55419921875 -1302.891845703125 110.0001220703125
v 316.51885986328125 -1288.7142333984375 110.0001220703125
v 1306.5521240234375 -15.953699111938477 110.00005340576172
v 811.5445556640625 1327.5224609375 109.99991607666016
v 1023.6233520507812 1539.6806640625 109.99990844726562
v 2225.73583984375 337.65362548828125 110.00006103515625
v 1447.897705078125 -157.33343505859375 110.00007629394531
v 1445.9659423828125 -169.54920959472656 110.00007629394531
v -37.03007888793945 -1359.4403076171875 110.00011444091797
v 104.40241241455078 -1500.828857421875 110.00012969970703
v -450.5834655761719 -2338.77490234375 110.00018310546875
v -1592.6124267578125 -1218.0594482421875 110.00003051757812
v -1380.4547119140625 -1005.89404296875 110.00003051757812
v -1383.524169921875 -994.7327270507812 110.00003051757812
f 18 17 19
f 20 18 19
f 14 13 15
f 16 14 15
f 10 9 11
f 12 10 11
f 6 5 7
f 8 6 7
f 2 1 3
f 4 2 3
f 58 57 59
f 60 58 59
f 54 53 55
f 56 54 55
f 50 49 51
f 52 50 51
f 46 45 47
f 48 46 47
f 42 41 43
f 44 42 43
f 38 37 39
f 40 38 39
f 34 33 35
f 36 34 35
f 30 29 31
f 32 30 31
f 26 25 27
f 28 26 27
f 22 21 23
f 24 22 23
f 371 368 372
f 374 371 478
f 373 371 374
f 376 373 479
f 375 373 376
f 378 375 376
f 377 375 378
f 370 377 480
f 367 377 370
f 369 367 481
f 482 367 369
f 372 368 483
f 364 363 365
f 365 363 366
f 360 359 361
f 361 359 362
f 356 355 357
f 357 355 358
f 352 351 353
f 353 351 354
f 348 347 349
f 349 347 350
f 344 343 345
f 345 343 346
f 340 339 341
f 341 339 342
f 336 335 337
f 337 335 338
f 332 331 333
f 333 331 334
f 328 327 329
f 329 327 330
f 324 323 325
f 325 323 326
f 320 319 321
f 321 319 322
f 254 253 255
f 255 253 256
f 250 249 251
f 251 249 252
f 246 245 247
f 247 245 248
f 242 241 243
f 243 241 244
f 238 237 239
f 239 237 240
f 234 233 235
f 235 233 236
f 230 229 231
f 231 229 232
f 226 225 227
f 227 225 228
f 222 221 223
f 223 221 224
f 218 217 219
f 219 217 220
f 214 213 215
f 215 213 216
f 210 209 211
f 211 209 212
f 206 205 207
f 207 205 208
f 202 201 203
f 203 201 204
f 198 197 199
f 199 197 200
f 194 193 195
f 195 193 196
f 190 189 191
f 191 189 192
f 186 185 187
f 187 185 188
f 182 181 183
f 183 181 184
f 178 177 179
f 179 177 180
f 124 123 125
f 125 123 126
f 120 119 121
f 121 119 122
f 116 115 117
f 117 115 118
f 112 111 113
f 113 111 114
f 108 107 109
f 109 107 110
f 104 103 105
f 105 103 106
f 100 99 101
f 101 99 102
f 96 95 97
f 97 95 98
f 92 91 93
f 93 91 94
f 88 87 89
f 89 87 90
f 84 83 85
f 85 83 86
f 80 79 81
f 81 79 82
f 275 273 276
f 260 275 484
f 257 275 260
f 259 257 260
f 258 257 259
f 262 258 485
f 261 258 262
f 264 261 486
f 263 261 264
f 266 263 487
f 265 263 266
f 268 265 488
f 267 265 268
f 270 267 489
f 269 267 270
f 272 269 490
f 271 269 272
f 274 491 272
f 492 491 274
f 276 273 493
f 131 128 132
f 134 131 494
f 133 131 134
f 136 133 495
f 135 133 136
f 138 135 136
f 137 135 138
f 130 137 496
f 127 137 130
f 129 127 497
f 498 127 129
f 132 128 499
f 62 61 63
f 64 62 63
f 310 309 311
f 312 310 311
f 306 305 307
f 308 306 307
f 302 301 303
f 304 302 303
f 298 297 299
f 300 298 299
f 160 159 161
f 162 160 161
f 156 155 157
f 158 156 157
f 152 151 153
f 154 152 153
f 70 69 71
f 72 70 71
f 66 65 67
f 68 66 67
f 174 173 175
f 175 176 174
f 163 167 166
f 164 163 165
f 165 163 166
f 166 168 165
f 169 168 166
f 168 169 172
f 172 170 168
f 171 170 172
f 294 293 292
f 292 293 291
f 500 291 290
f 290 291 289
f 290 501 288
f 288 501 287
f 288 502 286
f 286 502 285
f 286 503 284
f 284 503 283
f 284 504 282
f 282 504 281
f 282 505 278
f 278 505 277
f 278 277 279
f 279 277 280
f 279 280 296
f 296 280 295
f 296 506 507
f 507 506 508
f 144 145 143
f 144 509 140
f 140 509 139
f 140 510 141
f 141 510 142
f 141 511 150
f 150 511 149
f 150 512 148
f 148 512 147
f 148 147 146
f 146 147 513
f 514 145 144
f 381 379 382
f 381 515 390
f 390 515 389
f 390 516 388
f 388 516 387
f 388 387 386
f 386 387 385
f 386 517 384
f 384 517 383
f 384 518 380
f 380 518 519
f 520 379 381
f 74 73 75
f 73 74 76
f 76 74 77
f 77 74 78
f 313 314 317
f 314 313 315
f 315 313 316
f 316 318 315
f 398 395 396
f 396 395 397
f 469 466 472
f 468 469 471
f 467 468 470
f 468 467 469
f 469 467 465
f 465 466 469
f 466 465 462
f 462 463 466
f 463 462 464
f 464 462 460
f 460 461 464
f 461 460 456
f 456 473 461
f 475 473 456
f 474 473 475
f 476 475 457
f 457 475 456
f 456 455 457
f 455 458 457
f 458 459 457
f 459 458 477
f 402 399 400
f 400 399 401
f 406 403 404
f 404 403 405
f 410 407 408
f 408 407 409
f 414 411 412
f 412 411 413
f 418 415 416
f 416 415 417
f 422 419 420
f 420 419 421
f 424 423 425
f 425 423 426
f 428 427 429
f 429 427 430
f 432 431 433
f 433 431 434
f 436 435 437
f 437 435 438
f 440 439 441
f 441 439 442
f 444 443 445
f 445 443 446
f 448 447 449
f 449 447 450
f 452 451 453
f 453 451 454
f 394 391 392
f 392 391 393
