# from FinancialDistrict_Block25_Industrial Zone (LC)_0016_LOD_0.pskx
v 306.29534912109375 1725.87109375 -0.025143073871731758
v 236.8164520263672 2119.853515625 -0.025180548429489136
v 306.29534912109375 1725.87109375 400.02484130859375
v 236.8164520263672 2119.853515625 400.0248107910156
v -747.9857788085938 1946.1961669921875 -0.02520841732621193
v -713.5154418945312 1750.703125 -0.025189824402332306
v -713.5154418945312 1750.703125 254.9748077392578
v -692.0787963867188 1629.128662109375 254.97482299804688
v -747.9857788085938 1946.1961669921875 400.0248107910156
v -692.0787963867188 1629.128662109375 -0.025178249925374985
v -678.5191040039062 1552.2259521484375 -0.025170931592583656
v -678.5191040039062 1552.22607421875 400.02484130859375
v 306.3199768066406 1725.87548828125 399.9998474121094
v 236.84107971191406 2119.85791015625 399.99981689453125
v -678.543701171875 1552.2218017578125 399.9998474121094
v -748.0104370117188 1946.1917724609375 399.99981689453125
v -707.739013671875 1775.668212890625 399.99981689453125
v -668.6434326171875 1553.9638671875 399.9998474121094
v -678.543701171875 1552.2218017578125 399.9998474121094
v -717.6392822265625 1773.9261474609375 399.99981689453125
v 236.84109497070312 2119.845703125 399.99981689453125
v 280.2579650878906 1873.666015625 399.9998474121094
v 270.3576354980469 1871.9239501953125 399.9998474121094
v 226.94078063964844 2118.103515625 399.99981689453125
v -668.6680297851562 1553.95947265625 399.974853515625
v -707.7636108398438 1775.6639404296875 399.9748229980469
v -668.6680297851562 1553.95947265625 440.02484130859375
v -707.7636108398438 1775.6639404296875 440.0248107910156
v -707.7346801757812 1775.6435546875 399.9748229980469
v -717.6349487304688 1773.901611328125 399.9748229980469
v -707.7346801757812 1775.6435546875 440.0248107910156
v -717.6349487304688 1773.901611328125 440.0248107910156
v -717.6146850585938 1773.9305419921875 399.9748229980469
v -678.5191040039062 1552.22607421875 399.974853515625
v -717.6146850585938 1773.9305419921875 440.0248107910156
v -678.5191040039062 1552.22607421875 440.02484130859375
v -668.6680297851562 1553.95947265625 439.974853515625
v -707.7636108398438 1775.6639404296875 439.9748229980469
v -668.6680297851562 1553.95947265625 450.02484130859375
v -707.7636108398438 1775.6639404296875 450.0248107910156
v -707.7346801757812 1775.6435546875 439.9748229980469
v -717.6349487304688 1773.901611328125 439.9748229980469
v -707.7346801757812 1775.6435546875 450.0248107910156
v -717.6349487304688 1773.901611328125 450.0248107910156
v -717.6146850585938 1773.9305419921875 439.9748229980469
v -678.5191040039062 1552.22607421875 439.974853515625
v -717.6146850585938 1773.9305419921875 450.0248107910156
v -678.5191040039062 1552.22607421875 450.02484130859375
v -707.739013671875 1775.668212890625 449.99981689453125
v -678.543701171875 1552.2218017578125 449.9998474121094
v -668.6434326171875 1553.9638671875 449.9998474121094
v -717.6392822265625 1773.9261474609375 449.99981689453125
v 270.3533020019531 1871.9486083984375 399.974853515625
v 280.2536315917969 1873.6905517578125 399.974853515625
v 270.3533020019531 1871.9486083984375 440.02484130859375
v 280.2536315917969 1873.6905517578125 440.02484130859375
v 280.23333740234375 1873.66162109375 399.974853515625
v 236.8164520263672 2119.84130859375 399.9748229980469
v 280.23333740234375 1873.66162109375 440.02484130859375
v 236.8164520263672 2119.84130859375 440.0248107910156
v 226.9653778076172 2118.10791015625 399.9748229980469
v 270.38226318359375 1871.92822265625 399.974853515625
v 226.9653778076172 2118.10791015625 440.0248107910156
v 270.38226318359375 1871.92822265625 440.02484130859375
v 270.3533020019531 1871.9486083984375 439.974853515625
v 280.2536315917969 1873.6905517578125 439.974853515625
v 270.3533020019531 1871.9486083984375 450.02484130859375
v 280.2536315917969 1873.6905517578125 450.02484130859375
v 280.23333740234375 1873.66162109375 439.974853515625
v 236.8164520263672 2119.84130859375 439.9748229980469
v 280.23333740234375 1873.66162109375 450.02484130859375
v 236.8164520263672 2119.84130859375 450.0248107910156
v 226.9653778076172 2118.10791015625 439.9748229980469
v 270.38226318359375 1871.92822265625 439.974853515625
v 226.9653778076172 2118.10791015625 450.0248107910156
v 270.38226318359375 1871.92822265625 450.02484130859375
v 236.84109497070312 2119.845703125 449.99981689453125
v 270.3576354980469 1871.9239501953125 449.9998474121094
v 280.2579650878906 1873.666015625 449.9998474121094
v 226.94078063964844 2118.103515625 449.99981689453125
v -1367.88330078125 1430.717529296875 -0.025190455839037895
v -742.7400512695312 -2114.643310546875 -0.024853186681866646
v -1367.88330078125 1430.7176513671875 700.0248413085938
v -742.7400512695312 -2114.643310546875 700.025146484375
v 1620.7974853515625 -1697.8837890625 -0.02478630095720291
v 1109.003662109375 1204.64208984375 -0.025062425062060356
v 1109.003662109375 1204.6422119140625 254.97494506835938
v 1087.5667724609375 1326.2166748046875 254.97494506835938
v 1352.82861328125 -178.15744018554688 503.0823669433594
v 1352.82861328125 -178.15745544433594 549.0323486328125
v 1316.37109375 28.602638244628906 549.0323486328125
v 1176.9102783203125 819.5244140625 560.8378295898438
v 1140.452880859375 1026.2847900390625 560.8378295898438
v 1062.519775390625 1468.26513671875 560.9835205078125
v 1026.062255859375 1675.025390625 560.9835205078125
v 1620.7974853515625 -1697.8837890625 700.0252075195312
v 1087.5667724609375 1326.2166748046875 -0.025073984637856483
v 995.654296875 1847.477294921875 -0.02512356825172901
v 995.6542358398438 1847.477294921875 700.02490234375
v 1026.062255859375 1675.025390625 515.0335693359375
v 1062.5198974609375 1468.26513671875 515.0335693359375
v 1140.452880859375 1026.2847900390625 514.8878173828125
v 1176.91015625 819.5244140625 514.8878173828125
v 1316.37109375 28.602638244628906 503.08233642578125
v 995.6832275390625 1847.457763671875 -0.025123566389083862
v -1367.903564453125 1430.6884765625 -0.02519044652581215
v -910.2750854492188 1511.3818359375 495.31951904296875
v 778.7749633789062 1809.21044921875 510.9637451171875
v 778.7749633789062 1809.21044921875 616.9136962890625
v 572.0145874023438 1772.752685546875 616.9137573242188
v 995.6831665039062 1847.457763671875 700.02490234375
v -1367.903564453125 1430.6885986328125 700.0248413085938
v -1117.035400390625 1474.924072265625 601.2694702148438
v -1117.035400390625 1474.924072265625 495.31951904296875
v 572.0145874023438 1772.752685546875 510.9637451171875
v -910.2750854492188 1511.3818359375 601.2694702148438
v -256.5675354003906 1626.6494140625 567.0225219726562
v -256.5675354003906 1626.6494140625 521.0725708007812
v -49.807212829589844 1663.107421875 521.0725708007812
v -49.807212829589844 1663.107421875 567.0225219726562
v -1367.8399658203125 1430.7177734375 649.9998168945312
v -752.61279296875 -2116.384765625 650.0001220703125
v -1379.4736328125 1438.8206787109375 649.9998168945312
v -742.7154541015625 -2114.6396484375 650.0001220703125
v -1379.4619140625 1438.8297119140625 649.9705810546875
v -762.44091796875 -2118.11767578125 700.024658203125
v -1391.0562744140625 1446.9395751953125 700.0195922851562
v -752.5833740234375 -2116.37939453125 649.9755859375
v -1391.024169921875 1446.9410400390625 699.971923828125
v -772.3016357421875 -2119.8564453125 710.017822265625
v -1402.6434326171875 1455.0465087890625 710.0072631835938
v -762.418701171875 -2118.11376953125 699.982421875
v -1402.636962890625 1455.0523681640625 709.9747924804688
v -772.2842407226562 -2119.853515625 740.025146484375
v -1402.636962890625 1455.0523681640625 740.0248413085938
v -772.2842407226562 -2119.853515625 709.97509765625
v -1402.6434326171875 1455.0465087890625 739.9923706054688
v -762.418701171875 -2118.11376953125 750.017822265625
v -1391.024169921875 1446.9410400390625 750.0277099609375
v -772.3016357421875 -2119.8564453125 739.982421875
v -1391.058349609375 1446.9322509765625 749.9998168945312
v -732.8672485351562 -2112.9033203125 750.0001220703125
v -1356.2554931640625 1422.606201171875 749.9998168945312
v -762.460693359375 -2118.121337890625 750.0001220703125
v 1620.7728271484375 -1697.8880615234375 650.0001831054688
v 1003.7743530273438 1859.056640625 649.9998779296875
v 1630.6700439453125 -1696.14306640625 650.0001831054688
v 995.613525390625 1847.46337890625 649.9998779296875
v 1630.640625 -1696.1483154296875 649.9756469726562
v 1011.88134765625 1870.6474609375 700.0196533203125
v 1640.4984130859375 -1694.4100341796875 700.0247192382812
v 1003.7601928710938 1859.0611572265625 649.9706420898438
v 1640.4761962890625 -1694.4139404296875 699.9824829101562
v 1019.9970703125 1882.228515625 710.00732421875
v 1650.3590087890625 -1692.6712646484375 710.0178833007812
v 1011.8507080078125 1870.6378173828125 699.9719848632812
v 1650.3416748046875 -1692.67431640625 709.9751586914062
v 1019.9889526367188 1882.2318115234375 740.02490234375
v 1650.3416748046875 -1692.67431640625 740.0252075195312
v 1019.9889526367188 1882.2318115234375 709.974853515625
v 1650.3590087890625 -1692.6712646484375 739.9824829101562
v 1011.8507080078125 1870.6378173828125 750.0277709960938
v 1640.4761962890625 -1694.4139404296875 750.0178833007812
v 1019.9970703125 1882.228515625 739.992431640625
v 1640.5181884765625 -1694.406494140625 750.0001831054688
v 987.5018920898438 1835.8787841796875 749.9998779296875
v 1610.9248046875 -1699.6243896484375 750.0001831054688
v 1011.8858642578125 1870.6412353515625 749.9998779296875
v 995.6834716796875 1847.4144287109375 649.9998779296875
v -1379.4820556640625 1438.8087158203125 649.9998168945312
v 1003.7863159179688 1859.0482177734375 649.9998779296875
v -1367.888916015625 1430.64794921875 649.9998168945312
v 1003.7953491210938 1859.0364990234375 649.9706420898438
v -1391.072998046875 1446.915771484375 700.0195922851562
v 1011.9052124023438 1870.6307373046875 700.0196533203125
v -1379.486572265625 1438.7945556640625 649.9705810546875
v 1011.9066772460938 1870.5986328125 699.9719848632812
v -1402.6539306640625 1455.031494140625 710.0072631835938
v 1020.0120849609375 1882.218017578125 710.00732421875
v -1391.0633544921875 1446.8851318359375 699.971923828125
v 1020.0178833007812 1882.2115478515625 709.974853515625
v -1402.6572265625 1455.0233154296875 740.0248413085938
v 1020.0178833007812 1882.2115478515625 740.02490234375
v -1402.6572265625 1455.0233154296875 709.9747924804688
v 1020.0120849609375 1882.218017578125 739.992431640625
v -1391.0633544921875 1446.8851318359375 750.0277099609375
v 1011.9066772460938 1870.5986328125 750.0277709960938
v -1402.6539306640625 1455.031494140625 739.9923706054688
v 1011.8978271484375 1870.6328125 749.9998779296875
v -1356.304443359375 1422.536376953125 749.9998168945312
v 987.5718383789062 1835.829833984375 749.9998779296875
v -1391.0667724609375 1446.9202880859375 749.9998168945312
v -762.4819946289062 -2118.099609375 699.9775390625
v -752.61669921875 -2116.35986328125 649.97021484375
v -742.7199096679688 -2114.614990234375 649.97265625
v -772.3306274414062 -2119.836181640625 740.017822265625
v -772.3306274414062 -2119.836181640625 709.982421875
v -732.8717651367188 -2112.878662109375 750.0226440429688
v -762.4578247070312 -2118.095458984375 750.0427856445312
v 1620.7685546875 -1697.8634033203125 649.9727172851562
v 1630.665283203125 -1696.1185302734375 649.9702758789062
v 1640.53076171875 -1694.37890625 699.9776000976562
v 1650.3792724609375 -1692.6422119140625 709.9824829101562
v 1650.3792724609375 -1692.6422119140625 740.0178833007812
v 1610.9205322265625 -1699.5997314453125 750.022705078125
v 1640.5067138671875 -1694.3831787109375 750.0428466796875
v 1026.078125 1675.0789794921875 561.008544921875
v 1062.5531005859375 1468.22021484375 561.008544921875
v 1048.716552734375 1465.7806396484375 561.008544921875
v 1012.2416381835938 1672.63916015625 561.008544921875
v 1026.078125 1675.0789794921875 515.008544921875
v 1048.716552734375 1465.7806396484375 515.008544921875
v 1062.5531005859375 1468.22021484375 515.008544921875
v 1012.2416381835938 1672.63916015625 515.008544921875
v 1048.712158203125 1465.80517578125 561.0335693359375
v 1062.548828125 1468.244873046875 514.9835205078125
v 1048.712158203125 1465.80517578125 514.9835205078125
v 1062.548828125 1468.244873046875 561.0335693359375
v 1012.2460327148438 1672.614501953125 561.0335693359375
v 1012.2460327148438 1672.614501953125 514.9835205078125
v 1026.08251953125 1675.054443359375 514.9835205078125
v 1026.08251953125 1675.054443359375 561.0335693359375
v 1140.46875 1026.33837890625 560.8628540039062
v 1176.9434814453125 819.4795532226562 560.8628540039062
v 1163.10693359375 817.0397338867188 560.8628540039062
v 1126.63232421875 1023.898681640625 560.8628540039062
v 1140.46875 1026.33837890625 514.86279296875
v 1163.10693359375 817.0397338867188 514.86279296875
v 1176.9434814453125 819.4795532226562 514.86279296875
v 1126.63232421875 1023.898681640625 514.86279296875
v 1163.1025390625 817.0643920898438 560.8878784179688
v 1176.939208984375 819.504150390625 514.8377685546875
v 1163.1025390625 817.0643920898438 514.8377685546875
v 1176.939208984375 819.504150390625 560.8878784179688
v 1126.6365966796875 1023.8740844726562 560.8878784179688
v 1126.6365966796875 1023.8740844726562 514.8377685546875
v 1140.47314453125 1026.3138427734375 514.8377685546875
v 1140.47314453125 1026.3138427734375 560.8878784179688
v 1316.386962890625 28.656219482421875 549.057373046875
v 1352.8619384765625 -178.2023468017578 549.057373046875
v 1339.025390625 -180.64218139648438 549.057373046875
v 1302.550537109375 26.216445922851562 549.057373046875
v 1316.386962890625 28.656219482421875 503.0573425292969
v 1339.025390625 -180.64218139648438 503.057373046875
v 1352.8619384765625 -178.2023468017578 503.057373046875
v 1302.550537109375 26.216445922851562 503.0573425292969
v 1339.02099609375 -180.61756896972656 549.0823974609375
v 1352.857666015625 -178.17771911621094 503.0323791503906
v 1339.02099609375 -180.61756896972656 503.0323791503906
v 1352.857666015625 -178.17771911621094 549.0823974609375
v 1302.5548095703125 26.19182586669922 549.0823974609375
v 1302.5548095703125 26.19182586669922 503.0323486328125
v 1316.391357421875 28.63159942626953 503.0323486328125
v 1316.391357421875 28.63159942626953 549.0823974609375
v 781.2596435546875 1795.4073486328125 616.938720703125
v 574.4008178710938 1758.9320068359375 616.9387817382812
v 778.81982421875 1809.2437744140625 616.938720703125
v 571.9609985351562 1772.7685546875 616.9387817382812
v 781.2596435546875 1795.4073486328125 510.9387512207031
v 778.81982421875 1809.2437744140625 510.9387512207031
v 574.4008178710938 1758.9320068359375 510.9387512207031
v 571.9609985351562 1772.7685546875 510.9387512207031
v 781.2349853515625 1795.4029541015625 616.9637451171875
v 778.7952270507812 1809.239501953125 510.91375732421875
v 781.2349853515625 1795.4029541015625 510.91375732421875
v 778.7952270507812 1809.239501953125 616.9637451171875
v 574.4254150390625 1758.936279296875 616.9638061523438
v 574.4254150390625 1758.936279296875 510.91375732421875
v 571.9856567382812 1772.77294921875 510.91375732421875
v 571.9856567382812 1772.77294921875 616.9638061523438
v -907.7903442382812 1497.57861328125 601.2944946289062
v -1114.649169921875 1461.1033935546875 601.2944946289062
v -910.230224609375 1511.4151611328125 601.2944946289062
v -1117.0889892578125 1474.93994140625 601.2944946289062
v -907.7903442382812 1497.57861328125 495.2945251464844
v -910.230224609375 1511.4151611328125 495.2945251464844
v -1114.649169921875 1461.1033935546875 495.2945251464844
v -1117.0889892578125 1474.93994140625 495.2945251464844
v -907.8150024414062 1497.57421875 601.3195190429688
v -910.2548217773438 1511.410888671875 495.26953125
v -907.8150024414062 1497.57421875 495.26953125
v -910.2548217773438 1511.410888671875 601.3195190429688
v -1114.62451171875 1461.107666015625 601.3195190429688
v -1114.62451171875 1461.107666015625 495.26953125
v -1117.064453125 1474.9443359375 495.26953125
v -1117.064453125 1474.9443359375 601.3195190429688
v -47.322479248046875 1649.30419921875 567.0475463867188
v -254.18128967285156 1612.8289794921875 567.0475463867188
v -49.76231384277344 1663.1407470703125 567.0475463867188
v -256.6211242675781 1626.665283203125 567.0475463867188
v -47.322479248046875 1649.30419921875 521.0475463867188
v -49.76231384277344 1663.1407470703125 521.0475463867188
v -254.18128967285156 1612.8289794921875 521.0475463867188
v -256.6211242675781 1626.665283203125 521.0475463867188
v -47.34709930419922 1649.2998046875 567.0725708007812
v -49.78693389892578 1663.136474609375 521.0225219726562
v -47.34709930419922 1649.2998046875 521.0225219726562
v -49.78693389892578 1663.136474609375 567.0725708007812
v -254.1566619873047 1612.833251953125 567.0725708007812
v -254.1566619873047 1612.833251953125 521.0225219726562
v -256.59649658203125 1626.669677734375 521.0225219726562
v -256.59649658203125 1626.669677734375 567.0725708007812
v -742.7646484375 -2114.6484375 700.0001220703125
v -887.3445434570312 -718.53369140625 700.0
v -904.711669921875 -620.0103149414062 700.0
v -1113.0892333984375 561.7152099609375 699.9998779296875
v -1367.9078369140625 1430.7132568359375 699.9998168945312
v 1620.822021484375 -1697.87939453125 700.0001831054688
v 1487.548828125 -1518.23681640625 700.0003662109375
v -678.979248046875 -1900.2593994140625 700.0001220703125
v 995.6788330078125 1847.4822998046875 699.9998779296875
v 1053.438720703125 943.7378540039062 700.0
v 1261.8162841796875 -237.9877166748047 700.0000610351562
v 1279.183349609375 -336.5233459472656 700.0003051757812
v -988.4554443359375 1294.5399169921875 699.9998168945312
v 685.6773681640625 1589.709716796875 699.9998779296875
v 772.485107421875 1097.36376953125 699.9998779296875
v -901.635498046875 802.1820068359375 699.9998779296875
v -1367.88330078125 1430.7176513671875 699.9747924804688
v -742.7400512695312 -2114.64404296875 699.97509765625
v -742.7400512695312 -2114.64404296875 750.025146484375
v -1367.88330078125 1430.7176513671875 750.0248413085938
v -1356.298828125 1422.6060791015625 699.9747924804688
v -1356.298828125 1422.6060791015625 750.0248413085938
v -734.6284790039062 -2103.0595703125 750.025146484375
v -734.6284790039062 -2103.0595703125 699.97509765625
v -742.7689819335938 -2114.623779296875 699.97509765625
v 1620.8177490234375 -1697.854736328125 699.9751586914062
v 1620.8177490234375 -1697.854736328125 750.0252075195312
v -742.7689819335938 -2114.623779296875 750.025146484375
v -734.6574096679688 -2103.039306640625 699.97509765625
v -734.6574096679688 -2103.039306640625 750.025146484375
v 1609.2332763671875 -1689.7431640625 750.0252075195312
v 1609.2332763671875 -1689.7431640625 699.9751586914062
v 1620.7974853515625 -1697.8837890625 699.9751586914062
v 995.6542358398438 1847.47802734375 699.974853515625
v 995.6542358398438 1847.47802734375 750.02490234375
v 1620.7974853515625 -1697.8837890625 750.0252075195312
v 1609.2130126953125 -1689.772216796875 699.9751586914062
v 1609.2130126953125 -1689.772216796875 750.0252075195312
v 987.5426635742188 1835.8934326171875 750.02490234375
v 987.5426635742188 1835.8934326171875 699.974853515625
v 995.6831665039062 1847.457763671875 699.974853515625
v -1367.903564453125 1430.6885986328125 699.9747924804688
v -1367.903564453125 1430.6885986328125 750.0248413085938
v 995.6831665039062 1847.457763671875 750.02490234375
v 987.5715942382812 1835.8731689453125 699.974853515625
v 987.5715942382812 1835.8731689453125 750.02490234375
v -1356.319091796875 1422.5770263671875 750.0248413085938
v -1356.319091796875 1422.5770263671875 699.9747924804688
v -1367.88916015625 1430.7091064453125 749.9998168945312
v -742.760498046875 -2114.629638671875 750.0001220703125
v -734.5877075195312 -2103.044921875 750.0001220703125
v 1620.8076171875 -1697.8692626953125 750.0001831054688
v 1609.169677734375 -1689.7723388671875 750.0001831054688
v 995.6746826171875 1847.463623046875 749.9998779296875
v 1053.4794921875 943.794677734375 699.992431640625
v -1113.146728515625 561.7545776367188 699.9923095703125
v 1023.1673583984375 309.1954345703125 896.3187255859375
v -420.94342041015625 -138.99734497070312 956.7069702148438
v -834.51318359375 -211.9218292236328 956.7069091796875
v 1217.92724609375 11.199071884155273 1000.0076293945312
v 1056.267333984375 121.4785385131836 956.70703125
v -342.1096496582031 -125.0965805053711 956.7069702148438
v 71.46025848388672 -52.17209243774414 956.7069702148438
v 150.29391479492188 -38.27132034301758 956.7069702148438
v 563.8638305664062 34.65328598022461 956.7069702148438
v 642.6975708007812 48.55405807495117 956.7069702148438
v -948.69921875 -370.8407897949219 1000.007568359375
v 609.5975952148438 236.27084350585938 896.3186645507812
v -867.6133422851562 -24.204919815063477 896.318603515625
v 530.763671875 222.37013244628906 896.3186645507812
v 117.19379425048828 149.44558715820312 896.3186645507812
v 38.36013412475586 135.5448760986328 896.3186645507812
v -375.20965576171875 62.62033462524414 896.3186645507812
v -454.0434265136719 48.71962356567383 896.3186645507812
v -1113.1195068359375 561.742919921875 699.9987182617188
v -904.7276000976562 -620.0639038085938 699.9749755859375
v -948.6799926757812 -370.8055419921875 1000.048828125
v -904.7276000976562 -620.0639038085938 1000.0250244140625
v -904.7565307617188 -620.0436401367188 699.9749755859375
v 1261.86962890625 -238.00364685058594 699.9750366210938
v -904.7565307617188 -620.0436401367188 1000.0250244140625
v 1261.86962890625 -238.00364685058594 1000.0250854492188
v 1261.849609375 -238.03262329101562 699.9750366210938
v 1053.4576416015625 943.7742309570312 699.9988403320312
v 1261.849609375 -238.03262329101562 1000.0250854492188
v 1217.89697265625 11.22569751739502 1000.0488891601562
v 1056.846435546875 118.48207092285156 947.1577758789062
v 643.1781616210938 45.540164947509766 947.15771484375
v 1056.3194580078125 121.47119140625 956.7384033203125
v 642.651123046875 48.52933883666992 956.7383422851562
v 1023.73828125 306.2458801269531 886.7543334960938
v 1023.211181640625 309.2350158691406 896.3349609375
v 610.0699462890625 233.30392456054688 886.7542724609375
v 609.5429077148438 236.29307556152344 896.3348999023438
v 1056.8260498046875 118.45426177978516 947.165283203125
v 1023.1824340820312 309.254150390625 896.3274536132812
v 1023.7095336914062 306.2649841308594 886.7467651367188
v 1056.2989501953125 121.44337463378906 956.7459716796875
v 643.2069091796875 45.521034240722656 947.1652221679688
v 610.0904541015625 233.3317413330078 886.7467041015625
v 609.5634155273438 236.3208770751953 896.327392578125
v 642.6798706054688 48.51021194458008 956.7459106445312
v 564.4429321289062 31.656757354736328 947.15771484375
v 150.7745361328125 -41.285152435302734 947.15771484375
v 563.9158935546875 34.645931243896484 956.7383422851562
v 150.2475128173828 -38.29603958129883 956.7383422851562
v 531.3346557617188 219.4206085205078 886.7542724609375
v 530.8074951171875 222.40972900390625 896.3348999023438
v 117.66626739501953 146.4786376953125 886.7542724609375
v 117.13910675048828 149.4678192138672 896.3348999023438
v 564.4224243164062 31.628944396972656 947.1652221679688
v 530.7787475585938 222.42884826660156 896.327392578125
v 531.305908203125 219.4397430419922 886.7467041015625
v 563.8953857421875 34.61812210083008 956.7459106445312
v 150.8032989501953 -41.304283142089844 947.1652221679688
v 117.6867446899414 146.50645446777344 886.7467041015625
v 117.15959167480469 149.49562072753906 896.327392578125
v 150.27626037597656 -38.31516647338867 956.7459106445312
v 72.03936004638672 -55.16856002807617 947.15771484375
v -341.62890625 -128.1104736328125 947.15771484375
v 71.51232147216797 -52.179447174072266 956.7383422851562
v -342.15606689453125 -125.12129211425781 956.7383422851562
v 38.93096160888672 132.5952911376953 886.7542724609375
v 38.40392303466797 135.58447265625 896.3348999023438
v -374.7371826171875 59.653446197509766 886.7542724609375
v -375.26434326171875 62.64255905151367 896.3348999023438
v 72.01887512207031 -55.196372985839844 947.1652221679688
v 38.37516403198242 135.6035919189453 896.327392578125
v 38.90220260620117 132.6144256591797 886.7467041015625
v 71.4918441772461 -52.20725631713867 956.7459106445312
v -341.6001281738281 -128.1295928955078 947.1652221679688
v -374.7167053222656 59.68125534057617 886.7467041015625
v -375.2438659667969 62.670372009277344 896.327392578125
v -342.1272888183594 -125.14042663574219 956.7459106445312
v -420.36419677734375 -141.99388122558594 947.15771484375
v -834.0325927734375 -214.935791015625 947.1576538085938
v -420.891357421875 -139.00469970703125 956.7383422851562
v -834.5596313476562 -211.94654846191406 956.73828125
v -453.47259521484375 45.77003860473633 886.7542724609375
v -453.9996337890625 48.759212493896484 896.3348999023438
v -867.1407470703125 -27.171812057495117 886.7542114257812
v -867.6680297851562 -24.182697296142578 896.3348388671875
v -420.3846740722656 -142.0216827392578 947.1652221679688
v -454.0284118652344 48.778343200683594 896.327392578125
v -453.5013732910156 45.78916549682617 886.7467041015625
v -420.9118347167969 -139.0325164794922 956.7459106445312
v -834.0038452148438 -214.9549102783203 947.1651611328125
v -867.1202392578125 -27.143999099731445 886.7466430664062
v -867.6475219726562 -24.154884338378906 896.3273315429688
v -834.5308837890625 -211.96568298339844 956.745849609375
v 1053.4794921875 943.8069458007812 709.9924926757812
v 1043.5792236328125 942.0770263671875 709.9925537109375
v 1218.4534912109375 8.188673973083496 1010.0076293945312
v 1208.55322265625 6.4710164070129395 1010.0076904296875
v 1053.4794921875 943.806884765625 699.9924926757812
v 1218.4534912109375 8.188673973083496 1000.007568359375
v 1043.5792236328125 942.0770263671875 699.9925537109375
v 1208.55322265625 6.4710164070129395 1000.0076293945312
v 1218.4278564453125 8.190618515014648 1010.0239868164062
v 1053.4559326171875 943.7962646484375 699.9761962890625
v 1053.453369140625 943.8111572265625 710.02392578125
v 1218.430419921875 8.175790786743164 999.9761962890625
v 1053.483642578125 943.7833862304688 710.0250854492188
v 1043.583251953125 942.0535278320312 699.9750366210938
v 1043.583251953125 942.0535278320312 710.0250854492188
v 1053.483642578125 943.7833251953125 699.9750366210938
v 1043.602294921875 942.0899047851562 710.02392578125
v 1208.579345703125 6.466806411743164 999.9761962890625
v 1208.5767822265625 6.481634140014648 1010.0239868164062
v 1043.6048583984375 942.0750732421875 699.9761962890625
v 1208.549072265625 6.494566917419434 1010.025146484375
v 1218.449462890625 8.212098121643066 999.9750366210938
v 1218.449462890625 8.212098121643066 1010.025146484375
v 1208.549072265625 6.494566917419434 999.9750366210938
v -1103.2589111328125 563.5455932617188 709.9922485351562
v -1113.14697265625 561.754638671875 709.9922485351562
v -938.2723999023438 -372.07257080078125 1010.0074462890625
v -948.1605224609375 -373.8634948730469 1010.0074462890625
v -1103.2589111328125 563.5455932617188 699.9922485351562
v -938.2723999023438 -372.07257080078125 1000.0073852539062
v -1113.14697265625 561.754638671875 699.9922485351562
v -948.1605224609375 -373.8634948730469 1000.0073852539062
v -938.2982177734375 -372.0706787109375 1010.0237426757812
v -1103.2823486328125 563.5349731445312 699.9758911132812
v -1103.284912109375 563.5498046875 710.0236206054688
v -938.2955932617188 -372.08551025390625 999.9759521484375
v -1103.254638671875 563.522216796875 710.0247802734375
v -1113.142822265625 561.7310791015625 699.9747924804688
v -1113.142822265625 561.7310791015625 710.0248413085938
v -1103.254638671875 563.522216796875 699.9747314453125
v -1113.123779296875 561.767578125 710.023681640625
v -948.1344604492188 -373.86773681640625 999.9760131835938
v -948.1370849609375 -373.8529052734375 1010.0238037109375
v -1113.1212158203125 561.7527465820312 699.9759521484375
v -948.1647338867188 -373.84014892578125 1010.0249633789062
v -938.2766723632812 -372.04901123046875 999.9747924804688
v -938.2766723632812 -372.04901123046875 1010.02490234375
v -948.1647338867188 -373.84014892578125 999.974853515625
v -948.7077026367188 -370.792724609375 1000.0
v -904.752197265625 -620.0682983398438 1000.0
v 1217.918701171875 11.247222900390625 1000.0000610351562
v 1261.8741455078125 -238.0282745361328 1000.0000610351562
v 1217.923095703125 11.222602844238281 999.9750366210938
v -948.7033081054688 -370.81732177734375 999.9749755859375
v -948.7033081054688 -370.81732177734375 1010.0250854492188
v 1217.923095703125 11.222602844238281 1010.025146484375
v 1209.8115234375 -0.3620527684688568 999.9750366210938
v 1209.8115234375 -0.3620527684688568 1010.025146484375
v -937.1185913085938 -378.92889404296875 1010.0250854492188
v -937.1185913085938 -378.92889404296875 999.9749755859375
v -948.6830444335938 -370.7883605957031 999.9749755859375
v -904.7276000976562 -620.0639038085938 999.9749755859375
v -904.7276000976562 -620.0639038085938 1010.0250854492188
v -948.6830444335938 -370.7883605957031 1010.0250854492188
v -937.0983276367188 -378.8999328613281 999.9749755859375
v -937.0983276367188 -378.8999328613281 1010.0250854492188
v -896.6160278320312 -608.4793090820312 1010.0250854492188
v -896.6160278320312 -608.4793090820312 999.9749755859375
v -904.7565307617188 -620.0436401367188 999.9749755859375
v 1261.869873046875 -238.00364685058594 999.9750366210938
v 1261.869873046875 -238.00364685058594 1010.025146484375
v -904.7565307617188 -620.0436401367188 1010.0250854492188
v -896.6449584960938 -608.4590454101562 999.9749755859375
v -896.6449584960938 -608.4590454101562 1010.0250854492188
v 1250.28515625 -229.89195251464844 1010.025146484375
v 1250.28515625 -229.89195251464844 999.9750366210938
v 1261.849609375 -238.03262329101562 999.9750366210938
v 1217.89404296875 11.242881774902344 999.9750366210938
v 1217.89404296875 11.242881774902344 1010.025146484375
v 1261.849609375 -238.03262329101562 1010.025146484375
v 1250.264892578125 -229.92092895507812 999.9750366210938
v 1250.264892578125 -229.92092895507812 1010.025146484375
v 1209.782470703125 -0.3417738676071167 1010.025146484375
v 1209.782470703125 -0.3417738676071167 999.9750366210938
v 1217.91455078125 11.22854232788086 1010.0001220703125
v -948.6931762695312 -370.8028564453125 1010.0000610351562
v -937.0550537109375 -378.8997497558594 1010.0000610351562
v 1209.7418212890625 -0.3563960790634155 1010.0001220703125
v -904.7420654296875 -620.0537719726562 1010.0000610351562
v -896.6452026367188 -608.415771484375 1010.0000610351562
v 1261.8597412109375 -238.01812744140625 1010.0001220703125
v 1250.2215576171875 -229.92112731933594 1010.0001220703125
v 1279.22412109375 -336.4665832519531 699.9925537109375
v -887.4022827148438 -718.4942016601562 699.992431640625
v 1248.908935546875 -971.0672607421875 896.3134155273438
v -195.2044219970703 -1419.2523193359375 956.7001342773438
v -608.7744140625 -1492.174560546875 956.7000732421875
v 1443.6689453125 -1269.09130859375 1000.0077514648438
v 1282.0079345703125 -1158.7847900390625 956.7001953125
v -116.3703842163086 -1405.35205078125 956.7001342773438
v 297.19976806640625 -1332.4298095703125 956.7001342773438
v 376.0336608886719 -1318.529541015625 956.7001342773438
v 789.603759765625 -1245.607421875 956.7001342773438
v 868.4376831054688 -1231.7071533203125 956.7001342773438
v -722.958740234375 -1651.119384765625 1000.0076293945312
v 835.338623046875 -1043.9896240234375 896.3134155273438
v -641.8735961914062 -1304.4571533203125 896.3133544921875
v 756.5047607421875 -1057.889892578125 896.3134155273438
v 342.93463134765625 -1130.8121337890625 896.3134155273438
v 264.1007385253906 -1144.71240234375 896.3134155273438
v -149.4695281982422 -1217.6346435546875 896.3134155273438
v -228.30343627929688 -1231.534912109375 896.3134155273438
v -887.3748168945312 -718.5059814453125 699.9988403320312
v -678.9951782226562 -1900.31298828125 699.97509765625
v -722.9397583007812 -1651.0843505859375 1000.0488891601562
v -678.9951782226562 -1900.31298828125 1000.025146484375
v 1487.58203125 -1518.28173828125 699.9751586914062
v 1279.202392578125 -336.487060546875 699.9989624023438
v 1487.58203125 -1518.28173828125 1000.0252075195312
v 1443.638916015625 -1269.064697265625 1000.0490112304688
v 1282.5870361328125 -1161.7811279296875 947.1509399414062
v 868.9182739257812 -1234.7208251953125 947.15087890625
v 1282.06005859375 -1158.792236328125 956.7315673828125
v 868.3912353515625 -1231.73193359375 956.7315063476562
v 1249.479736328125 -974.0166625976562 886.7490234375
v 1248.9527587890625 -971.0276489257812 896.3296508789062
v 835.8109741210938 -1046.956298828125 886.7490234375
v 835.283935546875 -1043.9674072265625 896.3296508789062
v 1282.566650390625 -1161.8089599609375 947.158447265625
v 1248.9239501953125 -971.008544921875 896.3221435546875
v 1249.4510498046875 -973.9974975585938 886.741455078125
v 1282.03955078125 -1158.8199462890625 956.7391357421875
v 868.947021484375 -1234.739990234375 947.1583862304688
v 835.8314819335938 -1046.9285888671875 886.741455078125
v 835.304443359375 -1043.9395751953125 896.3221435546875
v 868.4199829101562 -1231.7509765625 956.7390747070312
v 790.182861328125 -1248.603759765625 947.15087890625
v 376.5142822265625 -1321.543212890625 947.15087890625
v 789.6558227539062 -1245.6148681640625 956.7315063476562
v 375.98724365234375 -1318.5543212890625 956.7315063476562
v 757.0756225585938 -1060.8392333984375 886.7490234375
v 756.548583984375 -1057.850341796875 896.3296508789062
v 343.406982421875 -1133.77880859375 886.7490234375
v 342.87994384765625 -1130.7899169921875 896.3296508789062
v 790.162353515625 -1248.631591796875 947.1583862304688
v 756.5198364257812 -1057.8311767578125 896.3221435546875
v 757.046875 -1060.8201904296875 886.741455078125
v 789.6353149414062 -1245.642578125 956.7390747070312
v 376.5430603027344 -1321.5623779296875 947.1583862304688
v 343.4274597167969 -1133.7510986328125 886.741455078125
v 342.9004211425781 -1130.7620849609375 896.3221435546875
v 376.0160217285156 -1318.5733642578125 956.7390747070312
v 297.77886962890625 -1335.4261474609375 947.15087890625
v -115.88988494873047 -1408.365966796875 947.15087890625
v 297.2518310546875 -1332.437255859375 956.7315063476562
v -116.41680145263672 -1405.3768310546875 956.7315063476562
v 264.67156982421875 -1147.6617431640625 886.7490234375
v 264.14453125 -1144.6728515625 896.3296508789062
v -148.9971923828125 -1220.601318359375 886.7490234375
v -149.5242156982422 -1217.6124267578125 896.3296508789062
v 297.7583923339844 -1335.4539794921875 947.1583862304688
v 264.1157531738281 -1144.6536865234375 896.3221435546875
v 264.6427917480469 -1147.6427001953125 886.741455078125
v 297.2313537597656 -1332.4649658203125 956.7390747070312
v -115.86112976074219 -1408.3851318359375 947.1583862304688
v -148.97669982910156 -1220.5736083984375 886.741455078125
v -149.5037384033203 -1217.5845947265625 896.3221435546875
v -116.3880386352539 -1405.3958740234375 956.7390747070312
v -194.6253204345703 -1422.2489013671875 947.15087890625
v -608.2940673828125 -1495.188232421875 947.1508178710938
v -195.15234375 -1419.259765625 956.7315063476562
v -608.8208618164062 -1492.1993408203125 956.7314453125
v -227.7327423095703 -1234.4842529296875 886.7490234375
v -228.2596435546875 -1231.495361328125 896.3296508789062
v -641.4012451171875 -1307.423828125 886.7489624023438
v -641.9282836914062 -1304.4349365234375 896.32958984375
v -194.6457977294922 -1422.2767333984375 947.1583862304688
v -228.2884063720703 -1231.4761962890625 896.3221435546875
v -227.76148986816406 -1234.4652099609375 886.741455078125
v -195.17283630371094 -1419.2874755859375 956.7390747070312
v -608.2653198242188 -1495.2073974609375 947.1583251953125
v -641.3807373046875 -1307.3961181640625 886.7413940429688
v -641.9077758789062 -1304.4071044921875 896.3220825195312
v -608.7921142578125 -1492.2183837890625 956.739013671875
v 1279.22412109375 -336.442138671875 709.9925537109375
v 1269.3238525390625 -338.1720275878906 709.9926147460938
v 1444.2103271484375 -1272.048095703125 1010.0077514648438
v 1434.2978515625 -1273.7657470703125 1010.0076293945312
v 1279.22412109375 -336.442138671875 699.9925537109375
v 1444.2103271484375 -1272.048095703125 1000.0076904296875
v 1269.3238525390625 -338.1720275878906 699.9926147460938
v 1434.2978515625 -1273.7657470703125 1000.0076293945312
v 1279.228271484375 -336.4656677246094 710.025146484375
v 1269.327880859375 -338.1954650878906 699.97509765625
v 1269.327880859375 -338.1954650878906 710.025146484375
v 1279.228271484375 -336.4656677246094 699.97509765625
v 1269.346923828125 -338.15911865234375 710.0239868164062
v 1434.323974609375 -1273.7698974609375 999.9761962890625
v 1434.3214111328125 -1273.755126953125 1010.02392578125
v 1269.3494873046875 -338.1739501953125 699.9762573242188
v 1434.293701171875 -1273.7421875 1010.0250854492188
v 1444.206298828125 -1272.024658203125 999.9751586914062
v 1444.206298828125 -1272.024658203125 1010.0252685546875
v 1434.293701171875 -1273.7421875 999.9750366210938
v 1444.1846923828125 -1272.046142578125 1010.0241088867188
v 1279.2005615234375 -336.4527587890625 699.9762573242188
v 1279.197998046875 -336.43792724609375 710.0239868164062
v 1444.187255859375 -1272.0609130859375 999.976318359375
v -877.5142822265625 -716.703369140625 709.9923706054688
v -887.3901977539062 -718.4943237304688 709.992431640625
v -712.5277709960938 -1652.3094482421875 1010.0076904296875
v -722.4158935546875 -1654.100341796875 1010.0076293945312
v -877.5142822265625 -716.703369140625 699.9923706054688
v -712.5277709960938 -1652.3094482421875 1000.0076293945312
v -887.3901977539062 -718.4943237304688 699.992431640625
v -722.4158935546875 -1654.100341796875 1000.007568359375
v -877.5100708007812 -716.7267456054688 710.02490234375
v -887.3859252929688 -718.5178833007812 699.9749755859375
v -887.3859252929688 -718.5178833007812 710.0250244140625
v -877.5100708007812 -716.7267456054688 699.974853515625
v -887.3670043945312 -718.4813842773438 710.0238647460938
v -722.3898315429688 -1654.1044921875 999.9761962890625
v -722.3924560546875 -1654.0897216796875 1010.0239868164062
v -887.3643798828125 -718.4962158203125 699.9761352539062
v -722.4201049804688 -1654.0770263671875 1010.025146484375
v -712.5320434570312 -1652.2857666015625 999.9750366210938
v -712.5320434570312 -1652.2857666015625 1010.025146484375
v -722.4201049804688 -1654.0770263671875 999.9750366210938
v -712.5535888671875 -1652.3074951171875 1010.0239868164062
v -877.5377197265625 -716.7139892578125 699.9760131835938
v -877.5403442382812 -716.6991577148438 710.0237426757812
v -712.5509643554688 -1652.322265625 999.9761962890625
v -722.9674682617188 -1651.071533203125 1000.0000610351562
v -679.019775390625 -1900.3172607421875 1000.0001220703125
v 1443.660400390625 -1269.043212890625 1000.0001831054688
v 1487.6065673828125 -1518.27734375 1000.0001831054688
v 1443.664794921875 -1269.0677490234375 999.9751586914062
v -722.9630737304688 -1651.09619140625 999.9750366210938
v -722.9630737304688 -1651.09619140625 1010.025146484375
v 1443.664794921875 -1269.0677490234375 1010.0252685546875
v 1435.55322265625 -1280.6522216796875 999.9751586914062
v 1435.55322265625 -1280.6522216796875 1010.0252685546875
v -711.3786010742188 -1659.207763671875 1010.025146484375
v -711.3786010742188 -1659.207763671875 999.9750366210938
v -722.9428100585938 -1651.067138671875 999.9750366210938
v -678.9951782226562 -1900.31298828125 999.97509765625
v -678.9951782226562 -1900.31298828125 1010.0252075195312
v -722.9428100585938 -1651.067138671875 1010.025146484375
v -711.3583374023438 -1659.1787109375 999.9750366210938
v -711.3583374023438 -1659.1787109375 1010.025146484375
v -670.8836059570312 -1888.728515625 1010.0252075195312
v -670.8836059570312 -1888.728515625 999.97509765625
v -679.0241088867188 -1900.292724609375 999.97509765625
v 1487.602294921875 -1518.252685546875 999.9751586914062
v 1487.602294921875 -1518.252685546875 1010.0252685546875
v -679.0241088867188 -1900.292724609375 1010.0252075195312
v -670.9125366210938 -1888.708251953125 999.97509765625
v -670.9125366210938 -1888.708251953125 1010.0252075195312
v 1476.017822265625 -1510.14111328125 1010.0252685546875
v 1476.017822265625 -1510.14111328125 999.9751586914062
v 1487.58203125 -1518.28173828125 999.9751586914062
v 1443.6357421875 -1269.0474853515625 999.9751586914062
v 1443.6357421875 -1269.0474853515625 1010.0252685546875
v 1487.58203125 -1518.28173828125 1010.0252685546875
v 1475.99755859375 -1510.170166015625 999.9751586914062
v 1475.99755859375 -1510.170166015625 1010.0252685546875
v 1435.524169921875 -1280.6319580078125 1010.0252685546875
v 1435.524169921875 -1280.6319580078125 999.9751586914062
v 1443.6502685546875 -1269.0576171875 1010.000244140625
v -722.94873046875 -1651.07568359375 1010.0001220703125
v -711.364013671875 -1659.2484130859375 1010.0001220703125
v 1435.4835205078125 -1280.6466064453125 1010.000244140625
v -679.0096435546875 -1900.3028564453125 1010.0001831054688
v -670.8428344726562 -1888.7138671875 1010.0001831054688
v 1487.5921630859375 -1518.2672119140625 1010.000244140625
v 1476.003173828125 -1510.1004638671875 1010.000244140625
v -988.4887084960938 1294.5848388671875 699.9747924804688
v -901.6514282226562 802.1284790039062 699.974853515625
v -988.4887084960938 1294.5848388671875 800.0248413085938
v -901.6514282226562 802.1284790039062 800.02490234375
v -901.6803588867188 802.148681640625 699.974853515625
v 772.5386962890625 1097.347900390625 699.974853515625
v -901.6803588867188 802.148681640625 800.02490234375
v 772.5386962890625 1097.347900390625 800.02490234375
v 772.5184326171875 1097.31884765625 699.974853515625
v 685.6932983398438 1589.7633056640625 699.974853515625
v 772.5184326171875 1097.31884765625 800.02490234375
v 685.6932983398438 1589.7633056640625 800.02490234375
v 685.7222290039062 1589.7430419921875 699.974853515625
v -988.5092163085938 1294.5556640625 699.9747924804688
v 685.7222290039062 1589.7430419921875 800.02490234375
v -988.5092163085938 1294.5556640625 800.0248413085938
v -988.4887084960938 1294.5848388671875 805.1248168945312
v -901.6514282226562 802.12841796875 789.974853515625
v -988.4887084960938 1294.5848388671875 789.9747924804688
v -901.6514282226562 802.12841796875 805.1248779296875
v -988.4454345703125 1294.5849609375 789.9998168945312
v -917.883056640625 778.9653930664062 789.9998779296875
v -1011.6640625 1310.7998046875 789.9998168945312
v -901.6106567382812 802.1430053710938 789.9998779296875
v -1011.6580200195312 1310.808349609375 789.9746704101562
v -917.8847045898438 778.9450073242188 792.6531982421875
v -1011.6724243164062 1310.818359375 792.6531372070312
v -917.8744506835938 778.95947265625 789.9747314453125
v -1011.634765625 1310.8184814453125 792.6091918945312
v -925.8656616210938 767.56396484375 797.6874389648438
v -1023.0647583007812 1318.7835693359375 797.6873779296875
v -917.8492431640625 778.9577026367188 792.6092529296875
v -1023.0585327148438 1318.7911376953125 797.6585083007812
v -925.8569946289062 767.5591430664062 802.4310302734375
v -1023.0585327148438 1318.791015625 802.4309692382812
v -925.8572387695312 767.55908203125 797.6585693359375
v -1023.064453125 1318.782470703125 802.4059448242188
v -917.7927856445312 779.0324096679688 802.4359741210938
v -1011.5562744140625 1310.767578125 802.4359130859375
v -925.865478515625 767.5650634765625 802.406005859375
v -1011.5994873046875 1310.7674560546875 802.4107055664062
v -917.8385009765625 779.0108642578125 805.1248168945312
v -1011.606689453125 1310.772216796875 805.124755859375
v -917.83349609375 779.017822265625 802.4107666015625
v -1011.612548828125 1310.763671875 805.0997924804688
v -901.6106567382812 802.1430053710938 805.099853515625
v -988.4454345703125 1294.5849609375 805.0997924804688
v -917.846923828125 779.016845703125 805.099853515625
v -901.6803588867188 802.148681640625 805.1248779296875
v 772.5386962890625 1097.347900390625 789.974853515625
v -901.6803588867188 802.148681640625 789.974853515625
v 772.5386962890625 1097.347900390625 805.1248779296875
v -901.6806030273438 802.1919555664062 789.9998779296875
v 795.7017211914062 1081.115966796875 789.9999389648438
v -917.89501953125 778.9738159179688 789.9998779296875
v 772.5241088867188 1097.3885498046875 789.9998779296875
v -917.903564453125 778.9798583984375 789.9747314453125
v 795.7219848632812 1081.1143798828125 792.6532592773438
v -917.9135131835938 778.9652099609375 792.6531982421875
v 795.7076416015625 1081.1246337890625 789.9747924804688
v -917.9137573242188 779.0028686523438 792.6092529296875
v 807.1031494140625 1073.1331787109375 797.6875
v -925.878662109375 767.5731201171875 797.6874389648438
v 795.7092895507812 1081.1497802734375 792.6093139648438
v -925.8861694335938 767.579345703125 797.6585693359375
v 807.1078491210938 1073.141845703125 802.4310913085938
v -925.8859252929688 767.5794067382812 802.4310302734375
v 807.1080322265625 1073.1417236328125 797.6586303710938
v -925.87744140625 767.573486328125 802.406005859375
v 795.6347045898438 1081.2060546875 802.43603515625
v -917.8627319335938 779.0813598632812 802.4359741210938
v 807.1019287109375 1073.13330078125 802.4060668945312
v -917.862548828125 779.0381469726562 802.4107666015625
v 795.6561889648438 1081.1605224609375 805.1248779296875
v -917.8673706054688 779.0311279296875 805.1248168945312
v 795.6492919921875 1081.1654052734375 802.4108276367188
v -917.85888671875 779.0252685546875 805.099853515625
v 772.5241088867188 1097.3885498046875 805.099853515625
v -901.6806030273438 802.1919555664062 805.099853515625
v 795.6502075195312 1081.152099609375 805.0999145507812
v 772.5184326171875 1097.31884765625 805.1248779296875
v 685.6932983398438 1589.7633056640625 789.974853515625
v 772.5184326171875 1097.31884765625 789.974853515625
v 685.6932983398438 1589.7633056640625 805.1248779296875
v 772.4751586914062 1097.3187255859375 789.9998779296875
v 701.92529296875 1612.9261474609375 789.9998779296875
v 795.6932983398438 1081.10400390625 789.9999389648438
v 685.6525268554688 1589.7486572265625 789.9998779296875
v 795.687255859375 1081.095458984375 789.9747924804688
v 701.9268798828125 1612.946533203125 792.6531982421875
v 795.7017822265625 1081.08544921875 792.6532592773438
v 701.9166870117188 1612.93212890625 789.9747314453125
v 795.6641235351562 1081.0853271484375 792.6093139648438
v 709.9080810546875 1624.3275146484375 797.6874389648438
v 807.093994140625 1073.1202392578125 797.6875
v 701.8914184570312 1612.933837890625 792.6092529296875
v 807.0877685546875 1073.1126708984375 797.6586303710938
v 709.8994750976562 1624.33251953125 802.4310302734375
v 807.0875854492188 1073.11279296875 802.4310913085938
v 709.899658203125 1624.33251953125 797.6585693359375
v 807.093505859375 1073.121337890625 802.4060668945312
v 701.8352661132812 1612.8592529296875 802.4359741210938
v 795.5857543945312 1081.13623046875 802.43603515625
v 709.907958984375 1624.3265380859375 802.406005859375
v 795.6289672851562 1081.1363525390625 802.4108276367188
v 701.880859375 1612.880859375 805.1248168945312
v 795.6359252929688 1081.131591796875 805.1248779296875
v 701.8759765625 1612.8739013671875 802.4107666015625
v 795.6417846679688 1081.14013671875 805.0999145507812
v 685.6525268554688 1589.7486572265625 805.099853515625
v 772.4751586914062 1097.3187255859375 805.099853515625
v 701.8892822265625 1612.8748779296875 805.099853515625
v 685.7222290039062 1589.7430419921875 805.1248779296875
v -988.5089721679688 1294.5557861328125 789.9747924804688
v 685.7222290039062 1589.7430419921875 789.974853515625
v -988.5089721679688 1294.5557861328125 805.1248168945312
v 685.7224731445312 1589.69970703125 789.9998779296875
v -1011.6724853515625 1310.787841796875 789.9998168945312
v 701.937255859375 1612.917724609375 789.9998779296875
v -988.494384765625 1294.51513671875 789.9998168945312
v 701.94580078125 1612.9117431640625 789.9747314453125
v -1011.692626953125 1310.7894287109375 792.6531372070312
v 701.9556884765625 1612.9263916015625 792.6531982421875
v -1011.6784057617188 1310.7791748046875 789.9747314453125
v 701.9559326171875 1612.888671875 792.6092529296875
v -1023.0739135742188 1318.7706298828125 797.6873779296875
v 709.9210815429688 1624.3184814453125 797.6874389648438
v -1011.679931640625 1310.7540283203125 792.6091918945312
v 709.9285888671875 1624.312255859375 797.6585693359375
v -1023.0787963867188 1318.761962890625 802.4309692382812
v 709.9284057617188 1624.312255859375 802.4310302734375
v -1023.0787963867188 1318.7620849609375 797.6585083007812
v 709.919921875 1624.318115234375 802.406005859375
v -1011.605224609375 1310.69775390625 802.4359130859375
v 701.9052124023438 1612.810302734375 802.4359741210938
v -1023.0728759765625 1318.7705078125 802.4059448242188
v 701.905029296875 1612.853515625 802.4107666015625
v -1011.626953125 1310.7432861328125 805.124755859375
v 701.9097290039062 1612.860595703125 805.1248168945312
v -1011.6198120117188 1310.7384033203125 802.4107055664062
v 701.9012451171875 1612.866455078125 805.099853515625
v -988.494384765625 1294.51513671875 805.0997924804688
v 685.7224731445312 1589.69970703125 805.099853515625
v -1011.6209716796875 1310.751708984375 805.0997924804688
v -988.5133056640625 1294.5804443359375 799.9998168945312
v -901.676025390625 802.1240234375 799.9998779296875
v 685.7178955078125 1589.767578125 799.9998779296875
v 772.5430908203125 1097.3232421875 799.9998779296875
v -1361.4962158203125 1394.228515625 -0.02518698014318943
v -1646.2220458984375 1268.219482421875 -0.025188405066728592
v -1361.4962158203125 1394.2286376953125 600.0248413085938
v -1646.2220458984375 1268.2196044921875 600.0248413085938
v -837.7273559570312 -1590.4700927734375 600.0000610351562
v -1359.7227783203125 1384.0921630859375 599.9998168945312
v -1637.7769775390625 -1590.4744873046875 600.0000610351562
v -1646.201904296875 1257.3250732421875 599.9998168945312
v -1361.5208740234375 1394.224365234375 599.9998168945312
v -1357.421142578125 1385.062744140625 599.9998168945312
v -1359.7518310546875 1384.0377197265625 599.9998168945312
v -1650.370361328125 1266.399169921875 599.9998168945312
v -1646.184326171875 1268.240966796875 599.9998168945312
v -1646.28515625 1257.2225341796875 599.9998168945312
v -1646.1317138671875 1257.2794189453125 599.9998168945312
v -1646.2952880859375 1257.2454833984375 599.9747924804688
v -1357.4312744140625 1385.0855712890625 599.9747924804688
v -1646.2952880859375 1257.2454833984375 640.0248413085938
v -1357.4312744140625 1385.0855712890625 640.0248413085938
v -1357.4439697265625 1385.0526123046875 599.9747924804688
v -1361.5291748046875 1394.2413330078125 599.9747924804688
v -1357.4439697265625 1385.0526123046875 640.0248413085938
v -1361.5291748046875 1394.2413330078125 640.0248413085938
v -1361.4962158203125 1394.2286376953125 599.9747924804688
v -1650.3602294921875 1266.3763427734375 599.9747924804688
v -1361.4962158203125 1394.2286376953125 640.0248413085938
v -1650.3602294921875 1266.3763427734375 640.0248413085938
v -1650.3475341796875 1266.4093017578125 599.9747924804688
v -1646.2623291015625 1257.2327880859375 599.9747924804688
v -1650.3475341796875 1266.4093017578125 640.0248413085938
v -1646.2623291015625 1257.2327880859375 640.0248413085938
v -1646.2952880859375 1257.2454833984375 639.9747924804688
v -1357.4312744140625 1385.0855712890625 639.9747924804688
v -1646.2952880859375 1257.2454833984375 650.0248413085938
v -1357.4312744140625 1385.0855712890625 650.0248413085938
v -1357.4439697265625 1385.0526123046875 639.9747924804688
v -1361.5291748046875 1394.2413330078125 639.9747924804688
v -1357.4439697265625 1385.0526123046875 650.0248413085938
v -1361.5291748046875 1394.2413330078125 650.0248413085938
v -1361.4962158203125 1394.2286376953125 639.9747924804688
v -1650.3602294921875 1266.3763427734375 639.9747924804688
v -1361.4962158203125 1394.2286376953125 650.0248413085938
v -1650.3602294921875 1266.3763427734375 650.0248413085938
v -1650.3475341796875 1266.4093017578125 639.9747924804688
v -1646.2623291015625 1257.2327880859375 639.9747924804688
v -1650.3475341796875 1266.4093017578125 650.0248413085938
v -1646.2623291015625 1257.2327880859375 650.0248413085938
v -1357.421142578125 1385.062744140625 649.9998168945312
v -1361.50634765625 1394.25146484375 649.9998168945312
v -1646.28515625 1257.2225341796875 649.9998168945312
v -1650.370361328125 1266.399169921875 649.9998168945312
v -1367.8975830078125 1430.6971435546875 749.9998168945312
v 995.6627197265625 1847.4720458984375 749.9998779296875
v 1609.2186279296875 -1689.7025146484375 750.0001831054688
v -734.6576538085938 -2102.995849609375 750.0001220703125
v -742.74853515625 -2114.63818359375 750.0001220703125
v -670.9127807617188 -1888.6649169921875 1010.0001831054688
v 1475.9542236328125 -1510.1702880859375 1010.000244140625
v 1435.5533447265625 -1280.695556640625 1010.000244140625
v -722.9571533203125 -1651.087646484375 1010.0001220703125
v -711.3150634765625 -1659.1785888671875 1010.0001220703125
v 1250.2705078125 -229.8511962890625 1010.0001220703125
v -896.5752563476562 -608.4647216796875 1010.0000610351562
v -937.10400390625 -378.96966552734375 1010.0000610351562
v 1209.8116455078125 -0.4053535461425781 1010.0001220703125
v 1217.902587890625 11.236942291259766 1010.0001220703125
f 26 25 27
f 28 26 27
f 98 97 88
f 92 90 96
f 90 85 96
f 89 85 90
f 87 85 89
f 88 87 89
f 89 104 88
f 104 100 88
f 88 100 98
f 100 99 98
f 95 99 100
f 96 99 95
f 95 94 96
f 86 85 87
f 91 90 92
f 91 92 103
f 103 104 91
f 103 102 104
f 102 100 104
f 101 100 102
f 101 102 93
f 93 94 101
f 93 92 94
f 94 92 96
f 300 299 301
f 301 299 302
f 298 295 296
f 296 295 297
f 284 283 285
f 285 283 286
f 282 279 280
f 280 279 281
f 268 267 269
f 269 267 270
f 266 263 264
f 264 263 265
f 252 251 253
f 253 251 254
f 250 247 248
f 248 247 249
f 243 244 246
f 244 243 245
f 240 239 241
f 242 241 239
f 236 235 237
f 237 235 238
f 234 231 232
f 232 231 233
f 227 228 230
f 228 227 229
f 224 223 225
f 226 225 223
f 220 219 221
f 221 219 222
f 218 215 216
f 216 215 217
f 211 212 214
f 212 211 213
f 208 207 209
f 210 209 207
f 6 5 7
f 7 5 9
f 8 7 9
f 9 12 8
f 8 12 11
f 11 10 8
f 2 1 3
f 4 2 3
f 907 906 908
f 909 907 908
f 903 902 904
f 905 903 904
f 899 898 900
f 901 899 900
f 895 894 896
f 897 895 896
f 880 879 881
f 882 880 881
f 292 291 293
f 293 294 292
f 288 287 289
f 289 290 288
f 276 275 277
f 277 278 276
f 272 271 273
f 273 274 272
f 260 259 261
f 261 262 260
f 256 255 257
f 257 258 256
f 82 81 83
f 84 82 83
f 62 61 63
f 64 62 63
f 58 57 59
f 60 58 59
f 54 53 55
f 56 54 55
f 34 33 35
f 36 34 35
f 30 29 31
f 32 30 31
f 119 118 115
f 119 115 120
f 120 115 110
f 115 118 107
f 108 115 107
f 107 105 108
f 108 105 109
f 109 105 111
f 110 109 111
f 111 112 110
f 106 105 107
f 107 114 106
f 114 112 106
f 113 112 114
f 110 112 113
f 113 116 110
f 116 120 110
f 117 120 116
f 117 116 118
f 118 116 107
f 888 887 889
f 22 21 23
f 24 23 21
f 18 17 19
f 20 19 17
f 348 347 349
f 349 347 350
f 344 343 345
f 345 343 346
f 340 339 341
f 341 339 342
f 336 335 337
f 337 335 338
f 332 331 333
f 333 331 334
f 328 327 329
f 329 327 330
f 324 323 325
f 325 323 326
f 320 319 321
f 321 319 322
f 317 316 311
f 316 307 311
f 315 307 316
f 306 307 315
f 315 318 306
f 318 312 306
f 317 312 318
f 311 312 317
f 312 311 313
f 313 311 308
f 309 313 308
f 309 308 310
f 305 303 306
f 306 303 307
f 310 308 303
f 303 304 310
f 304 303 305
f 304 305 313
f 313 314 304
f 314 313 309
f 203 202 204
f 206 204 205
f 204 202 205
f 202 200 205
f 201 200 202
f 194 193 195
f 193 198 195
f 196 198 193
f 199 198 196
f 197 196 193
f 77 78 80
f 78 77 79
f 49 50 52
f 50 49 51
f 44 42 43
f 42 41 43
f 353 351 354
f 930 357 931
f 931 357 358
f 932 355 933
f 933 355 356
f 355 352 934
f 934 352 935
f 936 351 353
f 46 45 47
f 48 46 47
f 66 65 67
f 68 66 67
f 70 69 71
f 72 70 71
f 74 73 75
f 76 74 75
f 122 124 121
f 122 121 123
f 126 128 125
f 126 125 127
f 130 132 129
f 130 129 131
f 134 136 133
f 134 133 135
f 138 140 137
f 138 137 139
f 142 144 141
f 142 141 143
f 146 148 145
f 146 145 147
f 150 152 149
f 150 149 151
f 154 156 153
f 154 153 155
f 158 160 157
f 158 157 159
f 162 164 161
f 162 161 163
f 166 168 165
f 166 165 167
f 170 172 169
f 170 169 171
f 174 176 173
f 174 173 175
f 178 180 177
f 178 177 179
f 182 184 181
f 182 181 183
f 186 188 185
f 186 185 187
f 190 192 189
f 190 189 191
f 748 750 747
f 748 747 749
f 752 754 751
f 752 751 753
f 756 758 755
f 756 755 757
f 760 762 759
f 760 759 761
f 764 766 763
f 764 763 765
f 768 770 767
f 768 767 769
f 772 774 771
f 772 771 773
f 776 778 775
f 776 775 777
f 780 782 779
f 780 779 781
f 784 786 783
f 784 783 785
f 788 790 787
f 788 787 789
f 792 794 791
f 792 791 793
f 796 798 795
f 796 795 797
f 800 802 799
f 800 799 801
f 804 806 803
f 804 803 805
f 808 810 807
f 808 807 809
f 812 814 811
f 812 811 813
f 816 818 815
f 816 815 817
f 820 822 819
f 820 819 821
f 824 826 823
f 824 823 825
f 828 830 827
f 828 827 829
f 832 834 831
f 832 831 833
f 836 838 835
f 836 835 837
f 840 842 839
f 840 839 841
f 844 846 843
f 844 843 845
f 848 850 847
f 848 847 849
f 852 854 851
f 852 851 853
f 856 858 855
f 856 855 857
f 860 862 859
f 860 859 861
f 864 866 863
f 864 863 865
f 868 870 867
f 868 867 869
f 872 874 871
f 872 871 873
f 876 875 877
f 877 878 876
f 884 883 885
f 885 886 884
f 892 893 891
f 891 890 892
f 911 910 912
f 913 911 912
f 915 914 916
f 917 915 916
f 919 918 920
f 921 919 920
f 923 922 924
f 925 923 924
f 927 926 928
f 928 929 927
f 14 13 15
f 15 16 14
f 38 37 39
f 40 38 39
f 392 391 393
f 393 394 392
f 368 369 364
f 375 376 360
f 376 375 368
f 367 376 368
f 367 368 364
f 366 367 364
f 362 366 364
f 362 378 366
f 378 377 366
f 377 378 360
f 376 377 360
f 378 373 360
f 373 371 360
f 363 371 373
f 364 371 363
f 363 362 364
f 361 372 360
f 360 359 361
f 361 359 365
f 365 359 364
f 370 365 364
f 369 370 364
f 369 374 370
f 374 372 370
f 372 374 360
f 374 375 360
f 636 635 637
f 637 635 638
f 634 631 632
f 632 631 633
f 620 619 621
f 621 619 622
f 618 615 616
f 616 615 617
f 604 603 605
f 605 603 606
f 602 599 600
f 600 599 601
f 588 587 589
f 589 587 590
f 586 583 584
f 584 583 585
f 452 451 453
f 453 451 454
f 450 447 448
f 448 447 449
f 436 435 437
f 437 435 438
f 434 431 432
f 432 431 433
f 420 419 421
f 421 419 422
f 418 415 416
f 416 415 417
f 404 403 405
f 405 403 406
f 402 399 400
f 400 399 401
f 551 550 552
f 552 559 551
f 551 559 561
f 561 559 548
f 566 561 548
f 565 566 548
f 564 565 548
f 566 565 554
f 550 566 554
f 550 554 552
f 554 555 552
f 555 556 552
f 555 564 556
f 564 563 556
f 563 564 548
f 562 563 548
f 560 562 548
f 562 560 558
f 557 562 558
f 557 558 552
f 556 557 552
f 558 553 552
f 553 547 552
f 549 547 553
f 548 547 549
f 549 560 548
f 396 395 397
f 397 398 396
f 408 407 409
f 409 410 408
f 412 411 413
f 413 414 412
f 424 423 425
f 425 426 424
f 428 427 429
f 429 430 428
f 440 439 441
f 441 442 440
f 444 443 445
f 445 446 444
f 504 503 505
f 505 506 504
f 576 575 577
f 577 578 576
f 580 579 581
f 581 582 580
f 592 591 593
f 593 594 592
f 596 595 597
f 597 598 596
f 608 607 609
f 609 610 608
f 612 611 613
f 613 614 612
f 624 623 625
f 625 626 624
f 628 627 629
f 629 630 628
f 688 687 689
f 689 690 688
f 380 379 381
f 382 380 381
f 744 743 745
f 746 744 745
f 740 739 741
f 742 740 741
f 736 735 737
f 738 736 737
f 732 731 733
f 734 732 733
f 572 571 573
f 574 572 573
f 568 567 569
f 570 568 569
f 388 387 389
f 390 388 389
f 384 383 385
f 386 384 385
f 466 463 464
f 464 463 465
f 460 459 461
f 461 462 460
f 456 455 457
f 457 458 456
f 668 667 669
f 669 670 668
f 664 663 665
f 665 666 664
f 644 643 645
f 645 646 644
f 640 639 641
f 641 642 640
f 484 483 485
f 485 486 484
f 480 479 481
f 481 482 480
f 727 724 728
f 730 727 937
f 729 727 730
f 726 729 938
f 723 729 726
f 725 723 939
f 940 723 725
f 728 724 941
f 720 719 721
f 721 719 722
f 716 715 717
f 717 715 718
f 712 711 713
f 713 711 714
f 708 707 709
f 709 707 710
f 704 703 705
f 705 703 706
f 700 699 701
f 701 699 702
f 696 695 697
f 697 695 698
f 692 691 693
f 693 691 694
f 686 683 684
f 684 683 685
f 682 679 680
f 680 679 681
f 678 675 676
f 676 675 677
f 674 671 672
f 672 671 673
f 662 659 660
f 660 659 661
f 658 655 656
f 656 655 657
f 654 651 652
f 652 651 653
f 650 647 648
f 648 647 649
f 536 535 537
f 537 535 538
f 532 531 533
f 533 531 534
f 528 527 529
f 529 527 530
f 524 523 525
f 525 523 526
f 520 519 521
f 521 519 522
f 516 515 517
f 517 515 518
f 512 511 513
f 513 511 514
f 508 507 509
f 509 507 510
f 502 499 500
f 500 499 501
f 498 495 496
f 496 495 497
f 494 491 492
f 492 491 493
f 490 487 488
f 488 487 489
f 478 475 476
f 476 475 477
f 474 471 472
f 472 471 473
f 470 467 468
f 468 467 469
f 542 545 546
f 545 543 942
f 942 543 544
f 543 540 943
f 943 540 541
f 540 539 944
f 944 539 945
f 946 545 542
