# from FinancialDistrict_Block08_High-street (entertainment) (MC)_0018_LOD_0.pskx
v -1014.9853515625 1377.9984130859375 -1040.14013671875
v -1141.474609375 1506.0625 -1040.14013671875
v -1014.9853515625 1377.99853515625 49.859649658203125
v -1141.474609375 1506.0625 49.8596305847168
v -1141.474609375 1506.0625 -1040.14013671875
v -1094.194580078125 1299.98046875 -1040.1400146484375
v -1141.474609375 1506.0625 49.85982131958008
v -1094.194580078125 1299.98046875 49.85993576049805
v -1094.194580078125 1299.98046875 -1040.1400146484375
v -1014.9853515625 1377.9984130859375 -1040.14013671875
v -1094.194580078125 1299.98046875 49.85993576049805
v -1014.9853515625 1377.99853515625 49.859840393066406
v -1141.474609375 1506.0625 49.85982131958008
v -1094.194580078125 1299.98046875 49.85994338989258
v -1014.9853515625 1377.99853515625 49.859840393066406
v -3036.0791015625 -389.5311279296875 -640.1400756835938
v -2909.60205078125 -517.5950927734375 -640.1400756835938
v -3036.0791015625 -389.5308837890625 69.8598861694336
v -2909.602294921875 -517.594970703125 69.85990142822266
v -2909.60205078125 -517.5950927734375 -640.1400756835938
v -2817.09716796875 -426.2498779296875 -640.1400756835938
v -2909.602294921875 -517.594970703125 69.85990142822266
v -2817.097412109375 -426.249755859375 69.85989379882812
v -2817.09716796875 -426.2498779296875 -640.1400756835938
v -3036.0791015625 -389.5311279296875 -640.1400756835938
v -2817.097412109375 -426.249755859375 69.85989379882812
v -3036.0791015625 -389.5308837890625 69.8598861694336
v -3036.0791015625 -389.5308837890625 69.8598861694336
v -2909.602294921875 -517.594970703125 69.85990142822266
v -2817.097412109375 -426.249755859375 69.85989379882812
v -1136.4443359375 1511.96826171875 -1039.93359375
v -1171.795654296875 1476.616943359375 -1039.93359375
v -1136.4443359375 1511.96826171875 60.06642150878906
v -1171.795654296875 1476.616943359375 60.066429138183594
v -1171.795654296875 1476.616943359375 -1039.93359375
v -1154.119873046875 1458.941162109375 -1039.93359375
v -1171.795654296875 1476.616943359375 60.066429138183594
v -1154.119873046875 1458.9412841796875 60.066429138183594
v -1154.119873046875 1458.941162109375 -1039.93359375
v -1171.795654296875 1441.265380859375 -1039.93359375
v -1154.119873046875 1458.9412841796875 60.066429138183594
v -1171.795654296875 1441.265380859375 60.066429138183594
v -1171.795654296875 1441.265380859375 -1039.93359375
v -1154.11962890625 1423.5770263671875 -1039.93359375
v -1171.795654296875 1441.265380859375 60.06623840332031
v -1154.11962890625 1423.5771484375 60.06623840332031
v -1154.11962890625 1423.5770263671875 -1039.93359375
v -1171.795654296875 1405.9012451171875 -1039.93359375
v -1154.11962890625 1423.5771484375 60.066429138183594
v -1171.79541015625 1405.9012451171875 60.06643295288086
v -1171.795654296875 1405.9012451171875 -1039.93359375
v -1154.1201171875 1388.2257080078125 -1039.93359375
v -1171.79541015625 1405.9012451171875 60.06624221801758
v -1154.119873046875 1388.2257080078125 60.06624221801758
v -1154.1201171875 1388.2257080078125 -1039.93359375
v -1171.795654296875 1370.5499267578125 -1039.93359375
v -1154.119873046875 1388.2257080078125 60.06643295288086
v -1171.795654296875 1370.550048828125 60.06643295288086
v -1171.795654296875 1370.5499267578125 -1039.93359375
v -1154.119873046875 1352.8741455078125 -1039.93359375
v -1171.795654296875 1370.550048828125 60.06643295288086
v -1154.119873046875 1352.874267578125 60.066436767578125
v -1154.119873046875 1352.8741455078125 -1039.93359375
v -1171.795654296875 1335.1983642578125 -1039.93359375
v -1154.119873046875 1352.874267578125 60.066436767578125
v -1171.795654296875 1335.198486328125 60.06644058227539
v -1171.795654296875 1335.1983642578125 -1039.93359375
v -1153.4111328125 1319.083984375 -1039.93359375
v -1171.795654296875 1335.198486328125 60.06644058227539
v -1153.4111328125 1319.0841064453125 60.06644058227539
v -1153.4111328125 1319.083984375 -1039.93359375
v -1082.54931640625 1283.2198486328125 -1039.9332275390625
v -1153.4111328125 1319.083984375 60.06644058227539
v -1082.54931640625 1283.219970703125 60.06673049926758
v -1082.54931640625 1283.2198486328125 -1039.9332275390625
v -993.9991455078125 1372.6728515625 -1039.93359375
v -1082.54931640625 1283.219970703125 60.06673049926758
v -993.999267578125 1372.6728515625 60.06644058227539
v -1136.4443359375 1511.96826171875 60.06642150878906
v -1171.795654296875 1476.616943359375 60.066429138183594
v -1154.119873046875 1458.9412841796875 60.066429138183594
v -1171.795654296875 1441.265380859375 60.066429138183594
v -1154.11962890625 1423.5771484375 60.066429138183594
v -1171.79541015625 1405.9012451171875 60.06643295288086
v -1154.119873046875 1388.2257080078125 60.06643295288086
v -1171.795654296875 1370.550048828125 60.06643295288086
v -1154.119873046875 1352.874267578125 60.066436767578125
v -1171.795654296875 1335.198486328125 60.06644058227539
v -1153.4111328125 1319.0841064453125 60.06644058227539
v -993.999267578125 1372.6728515625 60.06644058227539
v -1082.54931640625 1283.219970703125 60.066741943359375
v -1154.35205078125 1352.6922607421875 -39.96341323852539
v -1082.923095703125 1283.413330078125 -39.96340560913086
v -2879.52294921875 -372.4913330078125 -39.96333694458008
v -2808.81982421875 -443.1944580078125 -39.96332931518555
v -1154.35205078125 1352.6922607421875 -39.96345901489258
v -2879.52294921875 -372.4913330078125 -39.963382720947266
v -1154.35205078125 1352.6922607421875 -14.96346378326416
v -2879.52294921875 -372.4913330078125 -14.963388442993164
v -2879.52294921875 -372.4913330078125 -39.963382720947266
v -2808.81982421875 -443.1944580078125 -39.963375091552734
v -2879.52294921875 -372.4913330078125 -14.963388442993164
v -2808.81982421875 -443.1944580078125 -14.96337890625
v -2808.81982421875 -443.1944580078125 -39.963375091552734
v -1082.923095703125 1283.4134521484375 -39.96345138549805
v -2808.81982421875 -443.1944580078125 -14.96337604522705
v -1082.923095703125 1283.4134521484375 -14.963451385498047
v -1082.923095703125 1283.413330078125 -39.96345138549805
v -1154.35205078125 1352.6922607421875 -39.96345901489258
v -1082.923095703125 1283.413330078125 -14.963451385498047
v -1154.35205078125 1352.6922607421875 -14.963460922241211
v -1172.028076171875 1370.367919921875 -14.96346378326416
v -1154.35205078125 1352.6922607421875 -14.963460922241211
v -2897.19921875 -354.8033447265625 -14.963387489318848
v -1082.92138671875 1283.41162109375 -14.963451385498047
v -2879.518310546875 -372.486572265625 -14.963385581970215
v -1172.028076171875 1370.367919921875 -14.96346378326416
v -2897.19921875 -354.8033447265625 -14.963387489318848
v -1172.028076171875 1370.367919921875 10.03653621673584
v -2897.19921875 -354.8033447265625 10.036612510681152
v -2897.19921875 -354.8033447265625 -14.963387489318848
v -2808.81982421875 -443.1944580078125 -14.96337604522705
v -2897.19921875 -354.8033447265625 10.036612510681152
v -2808.81982421875 -443.1944580078125 10.03662395477295
v -1082.92138671875 1283.41162109375 -14.963451385498047
v -2808.81982421875 -443.1944580078125 10.03662395477295
v -1082.92138671875 1283.41162109375 10.036548614501953
v -1082.92138671875 1283.41162109375 -14.963451385498047
v -1172.028076171875 1370.367919921875 -14.96346378326416
v -1082.92138671875 1283.41162109375 10.036545753479004
v -1172.028076171875 1370.367919921875 10.03653335571289
v -1172.028076171875 1370.367919921875 10.03653621673584
v -2897.19921875 -354.8033447265625 10.036612510681152
v -1082.92138671875 1283.41162109375 10.036548614501953
v -2808.81982421875 -443.1944580078125 10.03662395477295
v -1172.02783203125 1405.7193603515625 10.036534309387207
v -1065.960693359375 1299.65234375 10.036547660827637
v -2932.562744140625 -354.803466796875 10.03661060333252
v -2826.49609375 -460.8704833984375 10.036624908447266
v -1172.02783203125 1405.7193603515625 10.036534309387207
v -2932.562744140625 -354.803466796875 10.03661060333252
v -1172.02783203125 1405.7193603515625 35.036537170410156
v -2932.562744140625 -354.803466796875 35.03661346435547
v -2932.562744140625 -354.803466796875 10.03661060333252
v -2826.49609375 -460.8704833984375 10.036624908447266
v -2932.562744140625 -354.803466796875 35.03661346435547
v -2826.49609375 -460.8704833984375 35.03662872314453
v -1065.960693359375 1299.65234375 10.036547660827637
v -1172.02783203125 1405.7193603515625 10.036534309387207
v -1065.960693359375 1299.65234375 35.03655242919922
v -1172.02783203125 1405.7193603515625 35.036537170410156
v -1172.027587890625 1441.083251953125 35.03653335571289
v -1172.02783203125 1405.7193603515625 35.036537170410156
v -2967.9140625 -354.8033447265625 35.0366096496582
v -1048.284912109375 1317.340576171875 35.03654861450195
v -2844.171142578125 -478.55810546875 35.036624908447266
v -2932.562744140625 -354.803466796875 35.03661346435547
v -2826.49609375 -460.8704833984375 35.03662872314453
v -1065.966796875 1299.658447265625 35.03655242919922
v -1172.027587890625 1441.083251953125 35.03653335571289
v -2967.9140625 -354.8033447265625 35.0366096496582
v -1172.027587890625 1441.083251953125 60.03653335571289
v -2967.9140625 -354.8033447265625 60.0366096496582
v -2967.9140625 -354.8033447265625 35.0366096496582
v -2844.171142578125 -478.55810546875 35.036624908447266
v -2967.9140625 -354.8033447265625 60.0366096496582
v -2844.171142578125 -478.55810546875 60.036624908447266
v -1048.284912109375 1317.340576171875 35.03654861450195
v -1172.027587890625 1441.083251953125 35.03653335571289
v -1048.284912109375 1317.340576171875 60.03654861450195
v -1172.027587890625 1441.083251953125 60.03653335571289
v -1172.027587890625 1441.083251953125 60.03653335571289
v -2967.9140625 -354.8033447265625 60.0366096496582
v -1048.284912109375 1317.340576171875 60.03654861450195
v -2844.171142578125 -478.55810546875 60.036624908447266
v -995.257568359375 1370.367919921875 60.036338806152344
v -3039.203369140625 -390.704345703125 60.03721237182617
v -1136.676025390625 1511.786376953125 60.036319732666016
v -2773.626953125 -408.00146484375 60.03702163696289
v -2825.47021484375 -604.4488525390625 60.03723907470703
v -2699.28564453125 -478.2894287109375 60.0372314453125
v -1136.676025390625 1511.786376953125 60.036319732666016
v -3039.203369140625 -390.704345703125 60.037208557128906
v -1198.942626953125 1449.5206298828125 110.03633117675781
v -1198.942626953125 1449.5206298828125 130.03631591796875
v -3002.083251953125 -353.584716796875 130.036376953125
v -1136.676025390625 1511.786376953125 159.03631591796875
v -3039.203369140625 -390.704345703125 159.03720092773438
v -3002.083251953125 -353.584716796875 110.03640747070312
v -3039.203369140625 -390.704345703125 60.037208557128906
v -2825.47021484375 -604.4488525390625 60.037235260009766
v -3039.203369140625 -390.704345703125 159.03720092773438
v -2825.47021484375 -604.4488525390625 159.0372314453125
v -2825.47021484375 -604.4488525390625 60.037235260009766
v -2699.28564453125 -478.2894287109375 60.037227630615234
v -2825.47021484375 -604.4488525390625 159.0372314453125
v -2699.28564453125 -478.2894287109375 159.0372314453125
v -2699.28564453125 -478.2894287109375 60.037227630615234
v -2773.626953125 -408.00146484375 60.03702163696289
v -2699.28564453125 -478.2894287109375 159.0372314453125
v -2773.626953125 -408.00146484375 159.03701782226562
v -2773.626953125 -408.00146484375 60.03702163696289
v -995.2578125 1370.36767578125 60.036338806152344
v -2773.626953125 -408.00146484375 159.03701782226562
v -995.2578125 1370.36767578125 159.03634643554688
v -995.257568359375 1370.367919921875 60.036338806152344
v -1136.676025390625 1511.786376953125 60.036319732666016
v -995.257568359375 1370.367919921875 159.03634643554688
v -1136.676025390625 1511.786376953125 159.03631591796875
v -1198.942626953125 1449.5206298828125 130.03631591796875
v -1191.17822265625 1441.755859375 130.03631591796875
v -2994.318603515625 -361.349853515625 130.036376953125
v -3002.083251953125 -353.584716796875 130.036376953125
v -1198.942626953125 1449.5206298828125 110.03633117675781
v -2994.318603515625 -361.349853515625 110.03640747070312
v -1191.17822265625 1441.755859375 110.03633117675781
v -3002.083251953125 -353.584716796875 110.03640747070312
v -1191.17822265625 1441.755859375 130.03631591796875
v -1198.942626953125 1449.5206298828125 110.03633117675781
v -1191.17822265625 1441.755859375 110.03633117675781
v -1198.942626953125 1449.5206298828125 130.03631591796875
v -2994.318603515625 -361.349853515625 130.036376953125
v -2994.318603515625 -361.349853515625 110.03640747070312
v -3002.083251953125 -353.584716796875 110.03640747070312
v -3002.083251953125 -353.584716796875 130.036376953125
v -995.257568359375 1370.367919921875 159.03634643554688
v -1136.676025390625 1511.786376953125 159.03631591796875
v -3039.203369140625 -390.704345703125 159.03720092773438
v -2773.626953125 -408.00146484375 159.03701782226562
v -2825.47021484375 -604.4488525390625 159.0372314453125
v -2699.28564453125 -478.2894287109375 159.0372314453125
v -1129.84814453125 1393.66650390625 143.25244140625
v -1122.7802734375 1386.5986328125 143.25244140625
v -2928.216796875 -404.693359375 143.25271606445312
v -2921.13720703125 -411.7613525390625 143.25271606445312
v -2945.123779296875 -423.516357421875 159.00503540039062
v -2916.83984375 -409.3809814453125 159.00502014160156
v -2938.05615234375 -430.5970458984375 159.00503540039062
v -2916.83984375 -423.529052734375 159.00502014160156
v -2923.90771484375 -430.5968017578125 159.00502014160156
v -2923.9072265625 -402.3131103515625 159.00502014160156
v -2938.0556640625 -402.3131103515625 159.00502014160156
v -2945.12353515625 -409.380859375 159.00502014160156
v -2400.10400390625 121.5394287109375 159.0046844482422
v -2371.832275390625 135.675048828125 159.00469970703125
v -2393.0361328125 114.4713134765625 159.0046844482422
v -2371.8203125 121.5394287109375 159.00469970703125
v -2378.900390625 114.45947265625 159.00469970703125
v -2378.900390625 142.7431640625 159.00469970703125
v -2393.0361328125 142.75537109375 159.00469970703125
v -2400.1162109375 135.67529296875 159.0046844482422
v -1795.538330078125 726.117431640625 159.00486755371094
v -1767.2548828125 740.26513671875 159.00486755371094
v -1788.47021484375 719.0496826171875 159.00486755371094
v -1767.25439453125 726.11767578125 159.00486755371094
v -1774.32275390625 719.04931640625 159.00486755371094
v -1774.322509765625 747.333251953125 159.00486755371094
v -1788.47021484375 747.33349609375 159.00486755371094
v -1795.53857421875 740.26513671875 159.00486755371094
v -1129.84814453125 1393.66650390625 143.25244140625
v -2928.216796875 -404.693359375 143.25271606445312
v -1129.84814453125 1393.66650390625 153.25244140625
v -2928.216796875 -404.693359375 153.25271606445312
v -2928.216796875 -404.693359375 143.25271606445312
v -2921.13720703125 -411.7613525390625 143.25271606445312
v -2928.216796875 -404.693359375 153.25271606445312
v -2921.13720703125 -411.7613525390625 153.25271606445312
v -2921.13720703125 -411.7613525390625 143.25271606445312
v -1122.7802734375 1386.5987548828125 143.25244140625
v -2921.13720703125 -411.7613525390625 153.25271606445312
v -1122.7802734375 1386.5987548828125 153.25244140625
v -1122.7802734375 1386.5986328125 143.25244140625
v -1129.84814453125 1393.66650390625 143.25244140625
v -1122.7802734375 1386.5986328125 153.25244140625
v -1129.84814453125 1393.66650390625 153.25244140625
v -1124.740234375 1388.5587158203125 266.3644104003906
v -2919.3427734375 -413.5673828125 265.22369384765625
v -1120.97412109375 1384.79248046875 265.2234191894531
v -2923.10888671875 -409.80126953125 266.3647155761719
v -1126.474853515625 1390.2933349609375 266.3734130859375
v -2923.10888671875 -409.80126953125 266.3647155761719
v -1124.740234375 1388.5587158203125 266.3644104003906
v -2924.84375 -408.06640625 266.37371826171875
v -1130.490966796875 1394.3094482421875 265.1914367675781
v -2924.84375 -408.06640625 266.37371826171875
v -1126.474853515625 1390.2933349609375 266.3734130859375
v -2928.859619140625 -404.050537109375 265.19171142578125
v -1130.49609375 1394.314453125 259.4804382324219
v -2928.859619140625 -404.050537109375 265.19171142578125
v -1130.490966796875 1394.3094482421875 265.1914367675781
v -2928.864990234375 -404.045166015625 259.480712890625
v -1120.972412109375 1384.790771484375 259.4764404296875
v -2928.864990234375 -404.045166015625 259.480712890625
v -1130.49609375 1394.314453125 259.4804382324219
v -2919.34130859375 -413.56884765625 259.4767150878906
v -1120.97412109375 1384.79248046875 265.2234191894531
v -2919.34130859375 -413.56884765625 259.4767150878906
v -1120.972412109375 1384.790771484375 259.4764404296875
v -2919.3427734375 -413.5673828125 265.22369384765625
v -1126.86962890625 1390.68798828125 183.31112670898438
v -2922.832763671875 -410.077392578125 183.29762268066406
v -1124.4638671875 1388.2822265625 183.29733276367188
v -2925.23828125 -407.671875 183.31141662597656
v -1126.873291015625 1390.691650390625 180.9598388671875
v -2925.23828125 -407.671875 183.31141662597656
v -1126.86962890625 1390.68798828125 183.31112670898438
v -2925.241943359375 -407.668212890625 180.96011352539062
v -1124.4677734375 1388.2861328125 180.95652770996094
v -2925.241943359375 -407.668212890625 180.96011352539062
v -1126.873291015625 1390.691650390625 180.9598388671875
v -2922.83642578125 -410.07373046875 180.95681762695312
v -1124.4638671875 1388.2822265625 183.29733276367188
v -2922.83642578125 -410.07373046875 180.95681762695312
v -1124.4677734375 1388.2861328125 180.95652770996094
v -2922.832763671875 -410.077392578125 183.29762268066406
v -1126.775634765625 1390.593994140625 235.73062133789062
v -2922.75341796875 -410.15673828125 235.7309112548828
v -1124.384765625 1388.203125 235.73062133789062
v -2925.144287109375 -407.765869140625 235.7309112548828
v -1126.76220703125 1390.58056640625 233.171630859375
v -2925.144287109375 -407.765869140625 235.7309112548828
v -1126.775634765625 1390.593994140625 235.73062133789062
v -2925.130859375 -407.779296875 233.1719207763672
v -1124.371337890625 1388.189697265625 233.171630859375
v -2925.130859375 -407.779296875 233.1719207763672
v -1126.76220703125 1390.58056640625 233.171630859375
v -2922.740234375 -410.169921875 233.1719207763672
v -1124.384765625 1388.203125 235.73062133789062
v -2922.740234375 -410.169921875 233.1719207763672
v -1124.371337890625 1388.189697265625 233.171630859375
v -2922.75341796875 -410.15673828125 235.7309112548828
v -1127.012451171875 1390.830810546875 210.01023864746094
v -2922.72607421875 -410.18408203125 210.01051330566406
v -1124.357177734375 1388.175537109375 210.01023864746094
v -2925.381103515625 -407.529052734375 210.01051330566406
v -1127.012451171875 1390.830810546875 207.46475219726562
v -2925.381103515625 -407.529052734375 210.01051330566406
v -1127.012451171875 1390.830810546875 210.01023864746094
v -2925.381103515625 -407.529052734375 207.4650115966797
v -1124.366455078125 1388.184814453125 207.49232482910156
v -2925.381103515625 -407.529052734375 207.4650115966797
v -1127.012451171875 1390.830810546875 207.46475219726562
v -2922.735107421875 -410.175048828125 207.49261474609375
v -1124.357177734375 1388.175537109375 210.01023864746094
v -2922.735107421875 -410.175048828125 207.49261474609375
v -1124.366455078125 1388.184814453125 207.49232482910156
v -2922.72607421875 -410.18408203125 210.01051330566406
v -1132.694580078125 1396.5130615234375 155.46630859375
v -2916.895751953125 -416.014404296875 155.4487762451172
v -1118.527099609375 1382.345458984375 155.44850158691406
v -2931.063232421875 -401.846923828125 155.46658325195312
v -1132.694580078125 1396.5130615234375 153.47926330566406
v -2931.063232421875 -401.846923828125 155.46658325195312
v -1132.694580078125 1396.5130615234375 155.46630859375
v -2931.063232421875 -401.846923828125 153.47955322265625
v -1129.092041015625 1392.910400390625 153.47926330566406
v -2931.063232421875 -401.846923828125 153.47955322265625
v -1132.694580078125 1396.5130615234375 153.47926330566406
v -2927.4609375 -405.44921875 153.47955322265625
v -1129.092041015625 1392.910400390625 137.7400360107422
v -2927.4609375 -405.44921875 153.47955322265625
v -1129.092041015625 1392.910400390625 153.47926330566406
v -2927.4609375 -405.44921875 137.7403106689453
v -1132.664794921875 1396.4832763671875 137.7400360107422
v -2927.4609375 -405.44921875 137.7403106689453
v -1129.092041015625 1392.910400390625 137.7400360107422
v -2931.033447265625 -401.876708984375 137.7403106689453
v -1132.664794921875 1396.4832763671875 135.550537109375
v -2931.033447265625 -401.876708984375 137.7403106689453
v -1132.664794921875 1396.4832763671875 137.7400360107422
v -2931.033447265625 -401.876708984375 135.55081176757812
v -1118.492919921875 1382.311279296875 135.550537109375
v -2931.033447265625 -401.876708984375 135.55081176757812
v -1132.664794921875 1396.4832763671875 135.550537109375
v -2916.861572265625 -416.048583984375 135.55081176757812
v -1118.492919921875 1382.311279296875 137.73193359375
v -2916.861572265625 -416.048583984375 135.55081176757812
v -1118.492919921875 1382.311279296875 135.550537109375
v -2916.861572265625 -416.048583984375 137.73220825195312
v -1122.12646484375 1385.94482421875 137.73193359375
v -2916.861572265625 -416.048583984375 137.73220825195312
v -1118.492919921875 1382.311279296875 137.73193359375
v -2920.495361328125 -412.414794921875 137.73220825195312
v -1122.096923828125 1385.915283203125 153.44525146484375
v -2920.495361328125 -412.414794921875 137.73220825195312
v -1122.12646484375 1385.94482421875 137.73193359375
v -2920.46533203125 -412.44482421875 153.44554138183594
v -1118.522705078125 1382.341064453125 153.44525146484375
v -2920.46533203125 -412.44482421875 153.44554138183594
v -1122.096923828125 1385.915283203125 153.44525146484375
v -2916.89111328125 -416.01904296875 153.44554138183594
v -1118.527099609375 1382.345458984375 155.44850158691406
v -2916.89111328125 -416.01904296875 153.44554138183594
v -1118.522705078125 1382.341064453125 153.44525146484375
v -2916.895751953125 -416.014404296875 155.4487762451172
v -1120.972412109375 1384.790771484375 259.4764404296875
v -1130.49609375 1394.314453125 259.4804382324219
v -1130.490966796875 1394.3094482421875 265.1914367675781
v -1120.97412109375 1384.79248046875 265.2234191894531
v -1126.474853515625 1390.2933349609375 266.3734130859375
v -1124.740234375 1388.5587158203125 266.3644104003906
v -1124.4677734375 1388.2861328125 180.95652770996094
v -1126.873291015625 1390.691650390625 180.9598388671875
v -1124.4638671875 1388.2822265625 183.29733276367188
v -1126.86962890625 1390.68798828125 183.31112670898438
v -1124.371337890625 1388.189697265625 233.171630859375
v -1126.76220703125 1390.58056640625 233.171630859375
v -1124.384765625 1388.203125 235.73062133789062
v -1126.775634765625 1390.593994140625 235.73062133789062
v -1127.012451171875 1390.830810546875 210.01023864746094
v -1124.357177734375 1388.175537109375 210.01023864746094
v -1124.366455078125 1388.184814453125 207.49232482910156
v -1127.012451171875 1390.830810546875 207.46475219726562
v -1129.092041015625 1392.910400390625 153.47926330566406
v -1132.694580078125 1396.5130615234375 153.47926330566406
v -1118.527099609375 1382.345458984375 155.44850158691406
v -1122.096923828125 1385.915283203125 153.44525146484375
v -1118.522705078125 1382.341064453125 153.44525146484375
v -1122.12646484375 1385.94482421875 137.73193359375
v -1129.092041015625 1392.910400390625 137.7400360107422
v -1132.664794921875 1396.4832763671875 135.550537109375
v -1132.664794921875 1396.4832763671875 137.7400360107422
v -1118.492919921875 1382.311279296875 137.73193359375
v -1118.492919921875 1382.311279296875 135.550537109375
v -1132.694580078125 1396.5130615234375 155.46630859375
v -2928.859619140625 -404.050537109375 265.19171142578125
v -2928.864990234375 -404.045166015625 259.480712890625
v -2919.34130859375 -413.56884765625 259.4767150878906
v -2919.3427734375 -413.5673828125 265.22369384765625
v -2923.10888671875 -409.80126953125 266.3647155761719
v -2924.84375 -408.06640625 266.37371826171875
v -2922.832763671875 -410.077392578125 183.29762268066406
v -2925.241943359375 -407.668212890625 180.96011352539062
v -2922.83642578125 -410.07373046875 180.95681762695312
v -2925.23828125 -407.671875 183.31141662597656
v -2922.75341796875 -410.15673828125 235.7309112548828
v -2925.130859375 -407.779296875 233.1719207763672
v -2922.740234375 -410.169921875 233.1719207763672
v -2925.144287109375 -407.765869140625 235.7309112548828
v -2922.735107421875 -410.175048828125 207.49261474609375
v -2922.72607421875 -410.18408203125 210.01051330566406
v -2925.381103515625 -407.529052734375 210.01051330566406
v -2925.381103515625 -407.529052734375 207.4650115966797
v -2916.895751953125 -416.014404296875 155.4487762451172
v -2931.063232421875 -401.846923828125 153.47955322265625
v -2927.4609375 -405.44921875 153.47955322265625
v -2920.46533203125 -412.44482421875 153.44554138183594
v -2916.89111328125 -416.01904296875 153.44554138183594
v -2927.4609375 -405.44921875 137.7403106689453
v -2920.495361328125 -412.414794921875 137.73220825195312
v -2931.033447265625 -401.876708984375 137.7403106689453
v -2931.033447265625 -401.876708984375 135.55081176757812
v -2916.861572265625 -416.048583984375 137.73220825195312
v -2916.861572265625 -416.048583984375 135.55081176757812
v -2931.063232421875 -401.846923828125 155.46658325195312
v -1129.84814453125 1393.66650390625 153.25244140625
v -2928.216796875 -404.693359375 153.25271606445312
v -1122.7802734375 1386.5986328125 153.25244140625
v -2921.13720703125 -411.7613525390625 153.25271606445312
v -2945.123779296875 -423.516357421875 159.00503540039062
v -2938.05615234375 -430.5970458984375 159.00503540039062
v -2945.123779296875 -423.516357421875 269.0050048828125
v -2938.05615234375 -430.5970458984375 269.0050048828125
v -2938.05615234375 -430.5970458984375 159.00503540039062
v -2923.90771484375 -430.5968017578125 159.00502014160156
v -2938.05615234375 -430.5970458984375 269.0050048828125
v -2923.90771484375 -430.5968017578125 269.0050048828125
v -2923.90771484375 -430.5968017578125 159.00502014160156
v -2916.83984375 -423.529052734375 159.00502014160156
v -2923.90771484375 -430.5968017578125 269.0050048828125
v -2916.83984375 -423.529052734375 269.0050048828125
v -2916.83984375 -423.529052734375 159.00502014160156
v -2916.83984375 -409.3809814453125 159.00502014160156
v -2916.83984375 -423.529052734375 269.0050048828125
v -2916.83984375 -409.3809814453125 269.0050048828125
v -2916.83984375 -409.3809814453125 159.00502014160156
v -2923.9072265625 -402.3131103515625 159.00502014160156
v -2916.83984375 -409.3809814453125 269.0050048828125
v -2923.9072265625 -402.3131103515625 269.0050048828125
v -2923.9072265625 -402.3131103515625 159.00502014160156
v -2938.0556640625 -402.3131103515625 159.00502014160156
v -2923.9072265625 -402.3131103515625 269.0050048828125
v -2938.0556640625 -402.3131103515625 269.0050048828125
v -2938.0556640625 -402.3131103515625 159.00502014160156
v -2945.12353515625 -409.380859375 159.00502014160156
v -2938.0556640625 -402.3131103515625 269.0050048828125
v -2945.12353515625 -409.380859375 269.0050048828125
v -2945.12353515625 -409.380859375 159.00502014160156
v -2945.123779296875 -423.516357421875 159.00503540039062
v -2945.12353515625 -409.380859375 269.0050048828125
v -2945.123779296875 -423.516357421875 269.0050048828125
v -2945.123779296875 -423.516357421875 269.0050048828125
v -2938.05615234375 -430.5970458984375 269.0050048828125
v -2916.83984375 -409.3809814453125 269.0050048828125
v -2923.90771484375 -430.5968017578125 269.0050048828125
v -2916.83984375 -423.529052734375 269.0050048828125
v -2923.9072265625 -402.3131103515625 269.0050048828125
v -2938.0556640625 -402.3131103515625 269.0050048828125
v -2945.12353515625 -409.380859375 269.0050048828125
v -2400.10400390625 121.5394287109375 159.0046844482422
v -2393.0361328125 114.4713134765625 159.0046844482422
v -2400.10400390625 121.5394287109375 269.0047302246094
v -2393.0361328125 114.4713134765625 269.0047302246094
v -2393.0361328125 114.4713134765625 159.0046844482422
v -2378.900390625 114.45947265625 159.00469970703125
v -2393.0361328125 114.4713134765625 269.0047302246094
v -2378.900390625 114.45947265625 269.0047302246094
v -2378.900390625 114.45947265625 159.00469970703125
v -2371.8203125 121.5394287109375 159.00469970703125
v -2378.900390625 114.45947265625 269.0047302246094
v -2371.8203125 121.5394287109375 269.0047302246094
v -2371.8203125 121.5394287109375 159.00469970703125
v -2371.832275390625 135.675048828125 159.00469970703125
v -2371.8203125 121.5394287109375 269.0047302246094
v -2371.832275390625 135.675048828125 269.00469970703125
v -2371.832275390625 135.675048828125 159.00469970703125
v -2378.900390625 142.7431640625 159.00469970703125
v -2371.832275390625 135.675048828125 269.00469970703125
v -2378.900390625 142.7431640625 269.00469970703125
v -2378.900390625 142.7431640625 159.00469970703125
v -2393.0361328125 142.75537109375 159.00469970703125
v -2378.900390625 142.7431640625 269.00469970703125
v -2393.0361328125 142.75537109375 269.0047302246094
v -2393.0361328125 142.75537109375 159.00469970703125
v -2400.1162109375 135.67529296875 159.0046844482422
v -2393.0361328125 142.75537109375 269.0047302246094
v -2400.1162109375 135.67529296875 269.0047302246094
v -2400.1162109375 135.67529296875 159.0046844482422
v -2400.10400390625 121.5394287109375 159.0046844482422
v -2400.1162109375 135.67529296875 269.0047302246094
v -2400.10400390625 121.5394287109375 269.0047302246094
v -2400.10400390625 121.5394287109375 269.0047302246094
v -2393.0361328125 114.4713134765625 269.0047302246094
v -2371.832275390625 135.675048828125 269.00469970703125
v -2378.900390625 114.45947265625 269.0047302246094
v -2371.8203125 121.5394287109375 269.0047302246094
v -2378.900390625 142.7431640625 269.00469970703125
v -2393.0361328125 142.75537109375 269.0047302246094
v -2400.1162109375 135.67529296875 269.0047302246094
v -1795.538330078125 726.117431640625 159.0048828125
v -1788.470458984375 719.049560546875 159.0048828125
v -1795.538330078125 726.117431640625 269.0048522949219
v -1788.470458984375 719.049560546875 269.0048522949219
v -1788.470458984375 719.049560546875 159.0048828125
v -1774.32275390625 719.04931640625 159.0048828125
v -1788.470458984375 719.049560546875 269.0048522949219
v -1774.32275390625 719.04931640625 269.0048522949219
v -1774.32275390625 719.04931640625 159.0048828125
v -1767.25439453125 726.11767578125 159.0048828125
v -1774.32275390625 719.04931640625 269.0048522949219
v -1767.25439453125 726.11767578125 269.0048522949219
v -1767.25439453125 726.11767578125 159.0048828125
v -1767.2548828125 740.26513671875 159.0048828125
v -1767.25439453125 726.11767578125 269.0048522949219
v -1767.2548828125 740.26513671875 269.0048522949219
v -1767.2548828125 740.26513671875 159.0048828125
v -1774.322509765625 747.333251953125 159.0048828125
v -1767.2548828125 740.26513671875 269.0048522949219
v -1774.322509765625 747.333251953125 269.0048522949219
v -1774.322509765625 747.333251953125 159.0048828125
v -1788.47021484375 747.33349609375 159.0048828125
v -1774.322509765625 747.333251953125 269.0048522949219
v -1788.47021484375 747.33349609375 269.0048522949219
v -1788.47021484375 747.33349609375 159.0048828125
v -1795.53857421875 740.26513671875 159.0048828125
v -1788.47021484375 747.33349609375 269.0048522949219
v -1795.53857421875 740.26513671875 269.0048522949219
v -1795.53857421875 740.26513671875 159.0048828125
v -1795.538330078125 726.117431640625 159.0048828125
v -1795.53857421875 740.26513671875 269.0048522949219
v -1795.538330078125 726.117431640625 269.0048522949219
v -1795.538330078125 726.117431640625 269.0048522949219
v -1788.470458984375 719.049560546875 269.0048522949219
v -1767.2548828125 740.26513671875 269.0048522949219
v -1774.32275390625 719.04931640625 269.0048522949219
v -1767.25439453125 726.11767578125 269.0048522949219
v -1774.322509765625 747.333251953125 269.0048522949219
v -1788.47021484375 747.33349609375 269.0048522949219
v -1795.53857421875 740.26513671875 269.0048522949219
v -2791.64208984375 -426.0838623046875 -639.9334716796875
v -2862.357666015625 -355.368408203125 -639.9334716796875
v -2791.642333984375 -426.083740234375 60.06652069091797
v -2862.35791015625 -355.3681640625 60.06651306152344
v -2862.357666015625 -355.368408203125 -639.9334716796875
v -2880.033203125 -373.0439453125 -639.9334716796875
v -2862.35791015625 -355.3681640625 60.06651306152344
v -2880.033447265625 -373.043701171875 60.06651306152344
v -2880.033203125 -373.0439453125 -639.9334716796875
v -2897.708984375 -355.3681640625 -639.9334716796875
v -2880.033447265625 -373.043701171875 60.06651306152344
v -2897.709228515625 -355.367919921875 60.066505432128906
v -2897.708984375 -355.3681640625 -639.9334716796875
v -2915.385009765625 -373.044189453125 -639.9334716796875
v -2897.709228515625 -355.367919921875 60.066505432128906
v -2915.38525390625 -373.0439453125 60.06650924682617
v -2915.385009765625 -373.044189453125 -639.9334716796875
v -2933.060791015625 -355.368408203125 -639.9334716796875
v -2915.38525390625 -373.0439453125 60.06650924682617
v -2933.06103515625 -355.3681640625 60.06650924682617
v -2933.060791015625 -355.368408203125 -639.9334716796875
v -2950.7490234375 -373.0443115234375 -639.9334716796875
v -2933.06103515625 -355.3681640625 60.06650924682617
v -2950.7490234375 -373.0440673828125 60.066505432128906
v -2950.7490234375 -373.0443115234375 -639.9334716796875
v -2968.4248046875 -355.3685302734375 -639.9334716796875
v -2950.7490234375 -373.0440673828125 60.066505432128906
v -2968.4248046875 -355.3685302734375 60.066505432128906
v -2968.4248046875 -355.3685302734375 -639.9334716796875
v -2986.10009765625 -373.0439453125 -639.9334716796875
v -2968.4248046875 -355.3685302734375 60.066505432128906
v -2986.10009765625 -373.0439453125 60.06650924682617
v -2986.10009765625 -373.0439453125 -639.9334716796875
v -3003.77587890625 -355.3681640625 -639.9334716796875
v -2986.10009765625 -373.0439453125 60.06650924682617
v -3003.77587890625 -355.3681640625 60.066505432128906
v -3003.77587890625 -355.3681640625 -639.9334716796875
v -3039.1279296875 -390.732421875 -639.9334716796875
v -3003.77587890625 -355.3681640625 60.066505432128906
v -3039.128173828125 -390.732177734375 60.06650924682617
v -3039.1279296875 -390.732421875 -639.9334716796875
v -2897.70947265625 -532.1510009765625 -639.9334716796875
v -3039.128173828125 -390.732177734375 60.06650924682617
v -2897.70947265625 -532.15087890625 60.066524505615234
v -2897.70947265625 -532.1510009765625 -639.9334716796875
v -2791.64208984375 -426.0838623046875 -639.9334716796875
v -2897.70947265625 -532.15087890625 60.066524505615234
v -2791.642333984375 -426.083740234375 60.06652069091797
v -2862.35791015625 -355.3681640625 60.06651306152344
v -2880.033447265625 -373.043701171875 60.06651306152344
v -2791.642333984375 -426.083740234375 60.06652069091797
v -2897.709228515625 -355.367919921875 60.066505432128906
v -2915.38525390625 -373.0439453125 60.06650924682617
v -2933.06103515625 -355.3681640625 60.06650924682617
v -2950.7490234375 -373.0440673828125 60.066505432128906
v -2968.4248046875 -355.3685302734375 60.066505432128906
v -2986.10009765625 -373.0439453125 60.06650924682617
v -3003.77587890625 -355.3681640625 60.066505432128906
v -3039.128173828125 -390.732177734375 60.06650924682617
v -2897.70947265625 -532.15087890625 60.066524505615234
v 141.75079345703125 -2131.6513671875 -639.9329223632812
v 177.10601806640625 -2096.2958984375 -639.9329223632812
v 141.75067138671875 -2131.6513671875 60.067081451416016
v 177.10595703125 -2096.2958984375 60.067081451416016
v 177.10601806640625 -2096.2958984375 -639.9329223632812
v 159.4283447265625 -2078.6181640625 -639.9329223632812
v 177.10595703125 -2096.2958984375 60.067081451416016
v 159.42828369140625 -2078.6181640625 60.067081451416016
v 159.4283447265625 -2078.6181640625 -639.9329223632812
v 177.10614013671875 -2060.94091796875 -639.9329223632812
v 159.42828369140625 -2078.6181640625 60.067081451416016
v 177.10601806640625 -2060.940673828125 60.06707763671875
v 177.10614013671875 -2060.94091796875 -639.9329223632812
v 159.42840576171875 -2043.2630615234375 -639.9329223632812
v 177.10601806640625 -2060.940673828125 60.06707763671875
v 159.4283447265625 -2043.2630615234375 60.06707763671875
v 159.42840576171875 -2043.2630615234375 -639.9329223632812
v 177.10601806640625 -2025.58544921875 -639.9329223632812
v 159.4283447265625 -2043.2630615234375 60.06707763671875
v 177.10595703125 -2025.58544921875 60.067073822021484
v 177.10601806640625 -2025.58544921875 -639.9329223632812
v 159.4283447265625 -2007.90771484375 -639.9329223632812
v 177.10595703125 -2025.58544921875 60.067073822021484
v 159.42828369140625 -2007.90771484375 60.067073822021484
v 159.4283447265625 -2007.90771484375 -639.9329223632812
v 177.1060791015625 -1990.22998046875 -639.9329223632812
v 159.42828369140625 -2007.90771484375 60.067073822021484
v 177.10601806640625 -1990.22998046875 60.067073822021484
v 177.1060791015625 -1990.22998046875 -639.9329223632812
v 159.42840576171875 -1972.5523681640625 -639.9329223632812
v 177.10601806640625 -1990.22998046875 60.067073822021484
v 159.4283447265625 -1972.5523681640625 60.06707000732422
v 159.42840576171875 -1972.5523681640625 -639.9329223632812
v 177.10601806640625 -1954.874755859375 -639.9329223632812
v 159.4283447265625 -1972.5523681640625 60.06707000732422
v 177.10595703125 -1954.874755859375 60.06706619262695
v 177.10601806640625 -1954.874755859375 -639.9329223632812
v 159.42828369140625 -1937.197021484375 -639.9329223632812
v 177.10595703125 -1954.874755859375 60.06706619262695
v 159.42822265625 -1937.197021484375 60.06706619262695
v 106.39532470703125 -1884.1640625 -639.9329223632812
v 106.395263671875 -1884.1640625 60.06705856323242
v 106.39532470703125 -1884.1640625 -639.9329223632812
v 0.3292236328125 -1990.2301025390625 -639.9329223632812
v 106.395263671875 -1884.1640625 60.06705856323242
v 0.3292236328125 -1990.2301025390625 60.06706619262695
v 141.75067138671875 -2131.6513671875 60.067081451416016
v 177.10595703125 -2096.2958984375 60.067081451416016
v 159.42828369140625 -2078.6181640625 60.067081451416016
v 177.10601806640625 -2060.940673828125 60.06707763671875
v 159.4283447265625 -2043.2630615234375 60.06707763671875
v 177.10595703125 -2025.58544921875 60.067073822021484
v 159.42828369140625 -2007.90771484375 60.067073822021484
v 177.10601806640625 -1990.22998046875 60.067073822021484
v 159.4283447265625 -1972.5523681640625 60.06707000732422
v 177.10595703125 -1954.874755859375 60.06706619262695
v 159.42822265625 -1937.197021484375 60.06706619262695
v 0.3292236328125 -1990.2301025390625 60.06706619262695
v 106.395263671875 -1884.1640625 60.06705856323242
v 88.91015625 -1901.641357421875 -40.17292785644531
v 1884.7962646484375 -247.16159057617188 -40.172996520996094
v 159.6256103515625 -1972.3448486328125 -40.17292022705078
v 1814.0931396484375 -176.45846557617188 -40.173004150390625
v 159.6256103515625 -1972.3448486328125 -40.172935485839844
v 1884.7962646484375 -247.16159057617188 -40.173011779785156
v 159.6256103515625 -1972.3448486328125 -15.172932624816895
v 1884.7962646484375 -247.16159057617188 -15.17300796508789
v 1884.7962646484375 -247.16159057617188 -40.173011779785156
v 1814.0931396484375 -176.45846557617188 -40.17301940917969
v 1884.7962646484375 -247.16159057617188 -15.173011779785156
v 1814.0931396484375 -176.45846557617188 -15.17302131652832
v 1814.0931396484375 -176.45846557617188 -40.17301940917969
v 88.91015625 -1901.641357421875 -40.172943115234375
v 1814.0931396484375 -176.45846557617188 -15.173017501831055
v 88.91015625 -1901.641357421875 -15.172941207885742
v 88.91015625 -1901.641357421875 -40.172943115234375
v 159.6256103515625 -1972.3448486328125 -40.172935485839844
v 88.91015625 -1901.641357421875 -15.172941207885742
v 159.6256103515625 -1972.3448486328125 -15.172932624816895
v 177.301025390625 -2025.384521484375 -15.172926902770996
v 159.6256103515625 -1972.3448486328125 -15.172932624816895
v 1937.8358154296875 -264.8493957519531 -15.173003196716309
v 71.2342529296875 -1919.3175048828125 -15.172941207885742
v 1831.76904296875 -158.78256225585938 -15.173017501831055
v 1884.7962646484375 -247.16159057617188 -15.17300796508789
v 1814.0931396484375 -176.45846557617188 -15.173017501831055
v 88.9102783203125 -1901.6414794921875 -15.172941207885742
v 177.301025390625 -2025.384521484375 -15.172926902770996
v 1937.8358154296875 -264.8493957519531 -15.173003196716309
v 177.301025390625 -2025.384521484375 9.827073097229004
v 1937.8358154296875 -264.8493957519531 9.826996803283691
v 1937.8358154296875 -264.8493957519531 -15.173003196716309
v 1831.76904296875 -158.78256225585938 -15.173017501831055
v 1937.8358154296875 -264.8493957519531 9.826996803283691
v 1831.76904296875 -158.78256225585938 9.826982498168945
v 1831.76904296875 -158.78256225585938 -15.173017501831055
v 71.2342529296875 -1919.3175048828125 -15.172941207885742
v 1831.76904296875 -158.78256225585938 9.826982498168945
v 71.2342529296875 -1919.3175048828125 9.827058792114258
v 71.2342529296875 -1919.3175048828125 -15.172941207885742
v 177.301025390625 -2025.384521484375 -15.172926902770996
v 71.2342529296875 -1919.3175048828125 9.827058792114258
v 177.301025390625 -2025.384521484375 9.827073097229004
v 177.30126953125 -2060.735595703125 9.827075958251953
v 177.301025390625 -2025.384521484375 9.827073097229004
v 1973.187255859375 -264.8494873046875 9.826996803283691
v 53.55859375 -1936.992919921875 9.827059745788574
v 1849.44482421875 -141.09469604492188 9.826980590820312
v 1937.8358154296875 -264.8493957519531 9.826996803283691
v 1831.76904296875 -158.78256225585938 9.826982498168945
v 71.2342529296875 -1919.3175048828125 9.827058792114258
v 177.30126953125 -2060.735595703125 9.827075958251953
v 1973.187255859375 -264.8494873046875 9.826996803283691
v 177.30126953125 -2060.735595703125 34.82707214355469
v 1973.187255859375 -264.8494873046875 34.826995849609375
v 1973.187255859375 -264.8494873046875 9.826996803283691
v 1849.44482421875 -141.0947265625 9.826980590820312
v 1973.187255859375 -264.8494873046875 34.826995849609375
v 1849.44482421875 -141.0947265625 34.82698059082031
v 53.55859375 -1936.992919921875 9.827059745788574
v 177.30126953125 -2060.735595703125 9.827075958251953
v 53.55859375 -1936.992919921875 34.827056884765625
v 177.30126953125 -2060.735595703125 34.82707214355469
v 141.9493408203125 -2131.43896484375 34.82707595825195
v 177.30126953125 -2060.735595703125 34.82707214355469
v 3039.203369140625 765.83935546875 34.826751708984375
v 0.5191650390625 -1990.0206298828125 34.82706069946289
v 2758.063232421875 767.523681640625 34.826839447021484
v 1973.187255859375 -264.8494873046875 34.826995849609375
v 1849.44482421875 -141.09478759765625 34.82698059082031
v 2603.998046875 1200.53125 34.82669448852539
v 2457.953125 1067.9263916015625 34.82679748535156
v 2462.38427734375 1067.450439453125 34.826698303222656
v 53.55859375 -1936.992919921875 34.827056884765625
v 141.9493408203125 -2131.43896484375 34.82707595825195
v 3039.203369140625 765.83935546875 34.826751708984375
v 194.4642333984375 -2078.923828125 136.16665649414062
v 194.4642333984375 -2078.923828125 156.1666717529297
v 3022.880126953125 749.51611328125 156.1665496826172
v 141.9493408203125 -2131.43896484375 174.82704162597656
v 3039.203369140625 765.83935546875 174.8267059326172
v 3022.880126953125 749.51611328125 136.16653442382812
v 3039.203369140625 765.83935546875 34.826751708984375
v 2603.998291015625 1200.531494140625 34.82669448852539
v 3039.203369140625 765.83935546875 174.8267364501953
v 2603.998291015625 1200.531494140625 174.82669067382812
v 2603.998291015625 1200.531494140625 34.82669448852539
v 2457.952880859375 1067.92626953125 34.82679748535156
v 2603.998291015625 1200.531494140625 174.82669067382812
v 2457.952880859375 1067.92626953125 174.8268280029297
v 2457.952880859375 1067.92626953125 34.82679748535156
v 2462.384521484375 1067.45068359375 34.826698303222656
v 2457.952880859375 1067.92626953125 174.8268280029297
v 2462.384521484375 1067.45068359375 174.82672119140625
v 2462.384521484375 1067.45068359375 34.826698303222656
v 2758.06298828125 767.5235595703125 34.826839447021484
v 2462.384521484375 1067.45068359375 174.82672119140625
v 2758.06298828125 767.5235595703125 174.8268585205078
v 2758.06298828125 767.5235595703125 34.826839447021484
v 0.51904296875 -1990.020751953125 34.82706069946289
v 2758.06298828125 767.5235595703125 174.8268280029297
v 0.51904296875 -1990.020751953125 174.8270263671875
v 194.4642333984375 -2078.923828125 156.1666717529297
v 186.6995849609375 -2071.1591796875 156.1666717529297
v 3022.880126953125 749.51611328125 156.1665496826172
v 3015.115478515625 757.28076171875 156.1665496826172
v 194.4642333984375 -2078.923828125 136.16665649414062
v 3022.880126953125 749.51611328125 136.16653442382812
v 186.6995849609375 -2071.1591796875 136.16665649414062
v 3015.115478515625 757.28076171875 136.16653442382812
v 186.6995849609375 -2071.1591796875 156.1666717529297
v 194.4642333984375 -2078.923828125 136.16665649414062
v 186.6995849609375 -2071.1591796875 136.16665649414062
v 194.4642333984375 -2078.923828125 156.1666717529297
v 3015.115478515625 757.28076171875 156.1665496826172
v 3015.115478515625 757.28076171875 136.16653442382812
v 3022.880126953125 749.51611328125 136.16653442382812
v 3022.880126953125 749.51611328125 156.1665496826172
v 141.9493408203125 -2131.43896484375 174.8270721435547
v 3039.203369140625 765.83935546875 174.8267364501953
v 0.5191650390625 -1990.0206298828125 174.82705688476562
v 2758.06298828125 767.5235595703125 174.8268585205078
v 2603.998291015625 1200.531494140625 174.82669067382812
v 2457.952880859375 1067.92626953125 174.8268280029297
v 2462.384521484375 1067.45068359375 174.82672119140625
v 1796.9521484375 -193.5950927734375 -639.9329833984375
v 1867.66748046875 -264.31024169921875 -639.9329833984375
v 1796.9521484375 -193.59500122070312 60.06698989868164
v 1867.66748046875 -264.3101806640625 60.06699752807617
v 1867.66748046875 -264.31024169921875 -639.9329833984375
v 1885.34326171875 -246.63446044921875 -639.9329833984375
v 1867.66748046875 -264.3101806640625 60.06699752807617
v 1885.34326171875 -246.6343994140625 60.066993713378906
v 1885.34326171875 -246.63446044921875 -639.9329833984375
v 1903.01904296875 -264.310302734375 -639.9329833984375
v 1885.34326171875 -246.6343994140625 60.066993713378906
v 1903.01904296875 -264.3102111816406 60.06699752807617
v 1903.01904296875 -264.310302734375 -639.9329833984375
v 1920.6949462890625 -246.63446044921875 -639.9329833984375
v 1903.01904296875 -264.3102111816406 60.06699752807617
v 1920.69482421875 -246.63442993164062 60.06699752807617
v 1920.6949462890625 -246.63446044921875 -639.9329833984375
v 1938.37060546875 -264.3102111816406 -639.9329833984375
v 1920.69482421875 -246.63442993164062 60.06699752807617
v 1938.37060546875 -264.3102111816406 60.06699752807617
v 1938.37060546875 -264.3102111816406 -639.9329833984375
v 1956.05859375 -246.6348876953125 -639.9329833984375
v 1938.37060546875 -264.3102111816406 60.06699752807617
v 1956.05859375 -246.63485717773438 60.06700134277344
v 1956.05859375 -246.6348876953125 -639.9329833984375
v 1973.734375 -264.3106384277344 -639.9329833984375
v 1956.05859375 -246.63485717773438 60.06700134277344
v 1973.734375 -264.31060791015625 60.06700134277344
v 1973.734375 -264.3106384277344 -639.9329833984375
v 1991.410400390625 -246.63449096679688 -639.9329833984375
v 1973.734375 -264.31060791015625 60.06700134277344
v 1991.410400390625 -246.6343994140625 60.06699752807617
v 1991.410400390625 -246.63449096679688 -639.9329833984375
v 2009.086181640625 -264.3102722167969 -639.9329833984375
v 1991.410400390625 -246.6343994140625 60.06699752807617
v 2009.086181640625 -264.3102111816406 60.06700134277344
v 2009.086181640625 -264.3102722167969 -639.9329833984375
v 2044.4393310546875 -228.98541259765625 -639.9329833984375
v 2009.086181640625 -264.3102111816406 60.06700134277344
v 2044.439208984375 -228.98538208007812 60.06699752807617
v 1903.020751953125 -87.56704711914062 -639.9329833984375
v 1796.9521484375 -193.5950927734375 -639.9329833984375
v 1903.020751953125 -87.56695556640625 60.06698226928711
v 1796.9521484375 -193.59500122070312 60.06698989868164
v 1867.66748046875 -264.3101806640625 60.06699752807617
v 1885.34326171875 -246.6343994140625 60.066993713378906
v 1903.020751953125 -87.56695556640625 60.06698226928711
v 1796.9521484375 -193.59500122070312 60.06698989868164
v 1903.01904296875 -264.3102111816406 60.06699752807617
v 1920.69482421875 -246.63442993164062 60.06699752807617
v 1938.37060546875 -264.3102111816406 60.06699752807617
v 1956.05859375 -246.63485717773438 60.06700134277344
v 1973.734375 -264.31060791015625 60.06700134277344
v 1991.410400390625 -246.6343994140625 60.06699752807617
v 2009.086181640625 -264.3102111816406 60.06700134277344
v 2044.439208984375 -228.98538208007812 60.06699752807617
v -1050.455078125 1314.2403564453125 59.9222412109375
v 716.578369140625 -453.4141845703125 59.92047119140625
v -1050.455078125 1314.2403564453125 84.92224884033203
v 716.578369140625 -453.4141845703125 84.92047882080078
v 716.578369140625 -453.4141845703125 59.92047119140625
v 1536.2247314453125 362.382568359375 59.923240661621094
v 716.578369140625 -453.4141845703125 84.92047882080078
v 1536.2247314453125 362.382568359375 84.92323303222656
v -233.0440673828125 2131.6513671875 59.92230987548828
v -1050.455078125 1314.2403564453125 59.9222412109375
v -233.0440673828125 2131.6513671875 84.92230987548828
v -1050.455078125 1314.2403564453125 84.92224884033203
v -233.0440673828125 2131.6513671875 84.92230987548828
v -1050.455078125 1314.2403564453125 84.92224884033203
v 716.578369140625 -453.4141845703125 84.92047119140625
v 1536.224853515625 362.38262939453125 84.92323303222656
v 1796.078857421875 398.418212890625 9.999849319458008
v 2142.6123046875 51.884765625 10.000094413757324
v 1605.380615234375 207.70758056640625 9.999958038330078
v -1895.869140625 510.7744140625 9.99947738647461
v -279.031982421875 2127.50830078125 10.000205993652344
v 371.867919921875 -1720.6220703125 9.999672889709473
v 2167.32080078125 87.2125244140625 70.69759368896484
v 1783.761962890625 410.74725341796875 70.69754028320312
v 2137.30224609375 57.19488525390625 70.69758605957031
v 1813.7802734375 440.7655029296875 70.69754028320312
v 2167.32080078125 87.2125244140625 45.67760467529297
v 1813.7802734375 440.7655029296875 70.69754028320312
v 2167.32080078125 87.2125244140625 70.69759368896484
v 1813.7802734375 440.7655029296875 45.67755889892578
v 2197.33984375 117.230224609375 45.67755889892578
v 1813.7802734375 440.7655029296875 45.67755889892578
v 2167.32080078125 87.2125244140625 45.67760467529297
v 1843.798583984375 470.7838134765625 45.67750930786133
v 2197.33984375 117.230224609375 20.65757942199707
v 1843.798583984375 470.7838134765625 45.67750930786133
v 2197.33984375 117.230224609375 45.67755889892578
v 1843.798583984375 470.7838134765625 20.65753173828125
v 2227.3583984375 147.24786376953125 20.657577514648438
v 1843.798583984375 470.7838134765625 20.65753173828125
v 2197.33984375 117.230224609375 20.65757942199707
v 1873.816650390625 500.802001953125 20.657529830932617
v 2227.3583984375 147.24786376953125 -4.36240291595459
v 1873.816650390625 500.802001953125 20.657529830932617
v 2227.3583984375 147.24786376953125 20.657577514648438
v 1873.816650390625 500.802001953125 -4.362448692321777
v 2257.37744140625 177.26556396484375 -4.362403869628906
v 1873.816650390625 500.802001953125 -4.362448692321777
v 2227.3583984375 147.24786376953125 -4.36240291595459
v 1903.8349609375 530.8201904296875 -4.362449645996094
v 2257.37744140625 177.26556396484375 -29.382383346557617
v 1903.8349609375 530.8201904296875 -4.362449645996094
v 2257.37744140625 177.26556396484375 -4.362403869628906
v 1903.8349609375 530.8201904296875 -29.382431030273438
v 2287.39599609375 207.283203125 -29.38238525390625
v 1903.8349609375 530.8201904296875 -29.382431030273438
v 2257.37744140625 177.26556396484375 -29.382383346557617
v 1933.85302734375 560.83837890625 -29.38243293762207
v 2287.39599609375 207.283203125 -54.40236282348633
v 1933.85302734375 560.83837890625 -29.38243293762207
v 2287.39599609375 207.283203125 -29.38238525390625
v 1933.85302734375 560.83837890625 -54.40241241455078
v 2317.414794921875 237.30078125 -54.402366638183594
v 1933.85302734375 560.83837890625 -54.40241241455078
v 2287.39599609375 207.283203125 -54.40236282348633
v 1963.871337890625 590.8565673828125 -54.40241241455078
v 2317.414794921875 237.30078125 -79.42234802246094
v 1963.871337890625 590.8565673828125 -54.40241241455078
v 2317.414794921875 237.30078125 -54.402366638183594
v 1963.871337890625 590.8565673828125 -79.42239379882812
v 2347.43359375 267.3184814453125 -79.42234802246094
v 1963.871337890625 590.8565673828125 -79.42239379882812
v 2317.414794921875 237.30078125 -79.42234802246094
v 1993.8896484375 620.8748779296875 -79.42239379882812
v 2347.43359375 267.3184814453125 -104.44232177734375
v 1993.8896484375 620.8748779296875 -79.42239379882812
v 2347.43359375 267.3184814453125 -79.42234802246094
v 1993.8896484375 620.8748779296875 -104.44236755371094
v 2377.4521484375 297.3360595703125 -104.44232177734375
v 1993.8896484375 620.8748779296875 -104.44236755371094
v 2347.43359375 267.3184814453125 -104.44232177734375
v 2023.90771484375 650.89306640625 -104.44236755371094
v 2377.4521484375 297.3360595703125 -129.46231079101562
v 2023.90771484375 650.89306640625 -104.44236755371094
v 2377.4521484375 297.3360595703125 -104.44232177734375
v 2023.90771484375 650.89306640625 -129.4623565673828
v 2407.47119140625 327.3538818359375 -129.4623260498047
v 2023.90771484375 650.89306640625 -129.4623565673828
v 2377.4521484375 297.3360595703125 -129.46231079101562
v 2053.92578125 680.9111328125 -129.46237182617188
v 2407.47119140625 327.3538818359375 -154.48231506347656
v 2053.92578125 680.9111328125 -129.46237182617188
v 2407.47119140625 327.3538818359375 -129.4623260498047
v 2053.92578125 680.9111328125 -154.48236083984375
v 2437.48974609375 357.371337890625 -154.48231506347656
v 2053.92578125 680.9111328125 -154.48236083984375
v 2407.47119140625 327.3538818359375 -154.48231506347656
v 2083.944091796875 710.929443359375 -154.4823455810547
v 2437.48974609375 357.371337890625 -179.50228881835938
v 2083.944091796875 710.929443359375 -154.4823455810547
v 2437.48974609375 357.371337890625 -154.48231506347656
v 2083.944091796875 710.929443359375 -179.5023193359375
v 2467.508544921875 387.38909912109375 -179.50230407714844
v 2083.944091796875 710.929443359375 -179.5023193359375
v 2437.48974609375 357.371337890625 -179.50228881835938
v 2113.96240234375 740.9476318359375 -179.50233459472656
v 2467.508544921875 387.38909912109375 -204.52227783203125
v 2113.96240234375 740.9476318359375 -179.50233459472656
v 2467.508544921875 387.38909912109375 -179.50230407714844
v 2113.96240234375 740.9476318359375 -204.52230834960938
v 2497.52734375 417.4068603515625 -204.5222930908203
v 2113.96240234375 740.9476318359375 -204.52230834960938
v 2467.508544921875 387.38909912109375 -204.52227783203125
v 2143.98046875 770.9659423828125 -204.5223388671875
v 2497.52734375 417.4068603515625 -229.54226684570312
v 2143.98046875 770.9659423828125 -204.5223388671875
v 2497.52734375 417.4068603515625 -204.5222930908203
v 2143.98046875 770.9659423828125 -229.5423126220703
v 2527.546142578125 447.42449951171875 -229.54226684570312
v 2143.98046875 770.9659423828125 -229.5423126220703
v 2497.52734375 417.4068603515625 -229.54226684570312
v 2173.99853515625 800.9840087890625 -229.5423126220703
v 2527.546142578125 447.42449951171875 -254.562255859375
v 2173.99853515625 800.9840087890625 -229.5423126220703
v 2527.546142578125 447.42449951171875 -229.54226684570312
v 2173.99853515625 800.9840087890625 -254.5623016357422
v 2557.56494140625 477.442138671875 -254.562255859375
v 2173.99853515625 800.9840087890625 -254.5623016357422
v 2527.546142578125 447.42449951171875 -254.562255859375
v 2204.01708984375 831.0023193359375 -254.5623016357422
v 2557.56494140625 477.442138671875 -279.5822448730469
v 2204.01708984375 831.0023193359375 -254.5623016357422
v 2557.56494140625 477.442138671875 -254.562255859375
v 2204.01708984375 831.0023193359375 -279.582275390625
v 2587.58349609375 507.4598388671875 -279.5822448730469
v 2204.01708984375 831.0023193359375 -279.582275390625
v 2557.56494140625 477.442138671875 -279.5822448730469
v 2234.03515625 861.0203857421875 -279.582275390625
v 2587.58349609375 507.4598388671875 -304.60223388671875
v 2234.03515625 861.0203857421875 -279.582275390625
v 2587.58349609375 507.4598388671875 -279.5822448730469
v 2234.03515625 861.0203857421875 -304.6022644042969
v 2617.6025390625 537.4775390625 -304.60223388671875
v 2234.03515625 861.0203857421875 -304.6022644042969
v 2587.58349609375 507.4598388671875 -304.60223388671875
v 2264.05322265625 891.0386962890625 -304.6022644042969
v 2617.6025390625 537.4775390625 -329.6221923828125
v 2264.05322265625 891.0386962890625 -304.6022644042969
v 2617.6025390625 537.4775390625 -304.60223388671875
v 2264.05322265625 891.0386962890625 -329.6222229003906
v 2647.621337890625 567.495361328125 -329.62225341796875
v 2264.05322265625 891.0386962890625 -329.6222229003906
v 2617.6025390625 537.4775390625 -329.6221923828125
v 2294.07177734375 921.0570068359375 -329.6222839355469
v 2647.621337890625 567.495361328125 -354.6422424316406
v 2294.07177734375 921.0570068359375 -329.6222839355469
v 2647.621337890625 567.495361328125 -329.62225341796875
v 2294.07177734375 921.0570068359375 -354.64227294921875
v 2677.64013671875 597.5128173828125 -354.6422424316406
v 2294.07177734375 921.0570068359375 -354.64227294921875
v 2647.621337890625 567.495361328125 -354.6422424316406
v 2324.08984375 951.0751953125 -354.64227294921875
v 2677.64013671875 597.5128173828125 -379.6622314453125
v 2324.08984375 951.0751953125 -354.64227294921875
v 2677.64013671875 597.5128173828125 -354.6422424316406
v 2324.08984375 951.0751953125 -379.6622619628906
v 2707.65869140625 627.530517578125 -379.6622314453125
v 2324.08984375 951.0751953125 -379.6622619628906
v 2677.64013671875 597.5128173828125 -379.6622314453125
v 2354.108154296875 981.093505859375 -379.6622314453125
v 2707.65869140625 627.530517578125 -404.6822204589844
v 2354.108154296875 981.093505859375 -379.6622314453125
v 2707.65869140625 627.530517578125 -379.6622314453125
v 2354.108154296875 981.093505859375 -404.6822204589844
v 2737.677490234375 657.548095703125 -404.6822204589844
v 2354.108154296875 981.093505859375 -404.6822204589844
v 2707.65869140625 627.530517578125 -404.6822204589844
v 2384.1259765625 1011.1114501953125 -404.6822204589844
v 2737.677490234375 657.548095703125 -429.70220947265625
v 2384.1259765625 1011.1114501953125 -404.6822204589844
v 2737.677490234375 657.548095703125 -404.6822204589844
v 2384.1259765625 1011.1114501953125 -429.70220947265625
v 2767.6962890625 687.565673828125 -429.70220947265625
v 2384.1259765625 1011.1114501953125 -429.70220947265625
v 2737.677490234375 657.548095703125 -429.70220947265625
v 2414.14453125 1041.1298828125 -429.70220947265625
v 2767.6962890625 687.565673828125 -454.72216796875
v 2414.14453125 1041.1298828125 -429.70220947265625
v 2767.6962890625 687.565673828125 -429.70220947265625
v 2414.14453125 1041.1298828125 -454.72216796875
v 2797.71484375 717.5833740234375 -454.7221374511719
v 2414.14453125 1041.1298828125 -454.72216796875
v 2767.6962890625 687.565673828125 -454.72216796875
v 2444.16259765625 1071.14794921875 -454.72216796875
v 2797.71484375 717.5833740234375 -479.74212646484375
v 2444.16259765625 1071.14794921875 -454.72216796875
v 2797.71484375 717.5833740234375 -454.7221374511719
v 2444.16259765625 1071.14794921875 -479.7421569824219
v 1796.078857421875 398.418212890625 59.999839782714844
v 1605.380615234375 207.70758056640625 59.99995040893555
v 2142.6123046875 51.884765625 60.00009536743164
v -279.031982421875 2127.50830078125 60.000205993652344
v -1895.869140625 510.7744140625 59.99947738647461
v 371.867919921875 -1720.6220703125 59.99966812133789
v 1218.49072265625 -13.08099365234375 60.697452545166016
v 2095.31005859375 100.05389404296875 60.69748306274414
v 1600.339111328125 -394.9171142578125 60.69750213623047
v 1713.473876953125 481.8900146484375 60.69743347167969
v 1218.49072265625 -13.08099365234375 60.697452545166016
v 1600.339111328125 -394.9171142578125 60.69750213623047
v 1218.49072265625 -13.08099365234375 70.69745635986328
v 1600.339111328125 -394.9171142578125 70.697509765625
v 1600.339111328125 -394.9171142578125 60.69750213623047
v 2095.31005859375 100.05389404296875 60.69748306274414
v 1600.339111328125 -394.9171142578125 70.697509765625
v 2095.31005859375 100.05389404296875 70.6974868774414
v 2095.31005859375 100.05389404296875 60.69748306274414
v 1713.473876953125 481.889892578125 60.69743347167969
v 2095.31005859375 100.05389404296875 70.6974868774414
v 1713.473876953125 481.889892578125 70.69743347167969
v 1713.473876953125 481.889892578125 60.69743347167969
v 1218.49072265625 -13.08099365234375 60.697452545166016
v 1713.473876953125 481.889892578125 70.69743347167969
v 1218.49072265625 -13.08099365234375 70.69745635986328
v 1246.7783203125 15.1976318359375 70.69746398925781
v 1628.6221923828125 -366.63397216796875 70.697509765625
v 2095.31005859375 100.05389404296875 70.6974868774414
v 1713.473876953125 481.889892578125 70.69743347167969
v 1600.3428955078125 -394.9220886230469 70.697509765625
v 1628.6265869140625 -366.63836669921875 70.697509765625
v 1600.3428955078125 -394.9220886230469 71.697509765625
v 1628.6265869140625 -366.63836669921875 71.697509765625
v 1628.6265869140625 -366.63836669921875 70.697509765625
v 1246.7783203125 15.1976318359375 70.69746398925781
v 1628.6265869140625 -366.63836669921875 71.697509765625
v 1246.7783203125 15.1976318359375 71.69746398925781
v 1246.7783203125 15.1976318359375 70.69746398925781
v 1218.4947509765625 -13.0860595703125 70.69745635986328
v 1246.7783203125 15.1976318359375 71.69746398925781
v 1218.4947509765625 -13.0860595703125 71.69745635986328
v 1218.4947509765625 -13.0860595703125 70.69745635986328
v 1600.3428955078125 -394.9220886230469 70.697509765625
v 1218.4947509765625 -13.0860595703125 71.69745635986328
v 1600.3428955078125 -394.9220886230469 71.697509765625
v 1218.4947509765625 -13.0860595703125 71.69745635986328
v 1600.3428955078125 -394.9220886230469 71.697509765625
v 1628.6265869140625 -366.63836669921875 71.697509765625
v 1246.7783203125 15.1976318359375 71.69746398925781
v -1191.17822265625 1441.755859375 110.03633117675781
v -2994.318603515625 -361.349853515625 110.03640747070312
v -2994.318603515625 -361.349853515625 130.036376953125
v -1191.17822265625 1441.755859375 130.03631591796875
v 186.6995849609375 -2071.1591796875 136.16665649414062
v 3015.115478515625 757.28076171875 136.16653442382812
v 3015.115478515625 757.28076171875 156.1665496826172
v 186.6995849609375 -2071.1591796875 156.1666717529297
f 14 13 15
f 923 920 921
f 921 920 922
f 919 916 917
f 917 916 918
f 915 912 913
f 913 912 914
f 911 908 909
f 909 908 910
f 907 904 905
f 905 904 906
f 696 695 697
f 697 695 698
f 698 699 697
f 694 693 695
f 695 693 698
f 693 687 698
f 688 687 689
f 689 687 691
f 691 687 693
f 692 691 693
f 690 689 691
f 32 31 33
f 34 32 33
f 29 28 30
f 88 87 89
f 89 87 90
f 90 91 89
f 86 85 87
f 87 85 90
f 85 79 90
f 80 79 81
f 81 79 83
f 83 79 85
f 84 83 85
f 82 81 83
f 25 24 26
f 27 25 26
f 21 20 22
f 23 21 22
f 17 16 18
f 19 17 18
f 899 898 900
f 900 903 899
f 901 903 900
f 901 900 902
f 1127 1126 1128
f 1126 1129 1128
f 1079 1076 1077
f 1077 1076 1078
f 1075 1072 1073
f 1073 1072 1074
f 1071 1068 1069
f 1069 1068 1070
f 1067 1064 1065
f 1065 1064 1066
f 1063 1060 1061
f 1061 1060 1062
f 1059 1056 1057
f 1057 1056 1058
f 1055 1052 1053
f 1053 1052 1054
f 1051 1048 1049
f 1049 1048 1050
f 1047 1044 1045
f 1045 1044 1046
f 1043 1040 1041
f 1041 1040 1042
f 1039 1036 1037
f 1037 1036 1038
f 1035 1032 1033
f 1033 1032 1034
f 1031 1028 1029
f 1029 1028 1030
f 1027 1024 1025
f 1025 1024 1026
f 1023 1020 1021
f 1021 1020 1022
f 1019 1016 1017
f 1017 1016 1018
f 1015 1012 1013
f 1013 1012 1014
f 1011 1008 1009
f 1009 1008 1010
f 1007 1004 1005
f 1005 1004 1006
f 1003 1000 1001
f 1001 1000 1002
f 999 996 997
f 997 996 998
f 995 992 993
f 993 992 994
f 991 988 989
f 989 988 990
f 987 984 985
f 985 984 986
f 983 980 981
f 981 980 982
f 979 976 977
f 977 976 978
f 975 972 973
f 973 972 974
f 971 968 969
f 969 968 970
f 967 964 965
f 965 964 966
f 963 960 961
f 961 960 962
f 959 956 957
f 957 956 958
f 955 952 953
f 953 952 954
f 951 948 949
f 949 948 950
f 947 944 945
f 945 944 946
f 943 940 941
f 941 940 942
f 939 936 937
f 937 936 938
f 935 932 933
f 933 932 934
f 931 928 929
f 929 928 930
f 927 924 925
f 925 924 926
f 816 815 817
f 817 815 818
f 814 811 812
f 812 811 813
f 258 259 260
f 258 260 253
f 254 258 253
f 254 253 255
f 256 254 255
f 256 255 257
f 250 251 252
f 250 252 245
f 246 250 245
f 246 245 247
f 248 246 247
f 248 247 249
f 242 243 244
f 242 244 237
f 238 242 237
f 238 237 239
f 240 238 239
f 240 239 241
f 228 227 229
f 227 230 229
f 230 231 229
f 231 230 232
f 224 223 225
f 225 223 226
f 222 219 220
f 220 219 221
f 215 216 218
f 216 215 217
f 212 211 213
f 214 213 211
f 38 36 37
f 36 35 37
f 771 772 773
f 773 768 771
f 766 771 768
f 766 768 769
f 766 769 765
f 765 764 766
f 767 764 765
f 765 774 767
f 769 768 770
f 880 879 881
f 878 877 879
f 879 877 881
f 877 872 881
f 871 870 872
f 871 872 875
f 875 872 877
f 876 875 877
f 874 871 875
f 872 870 873
f 741 740 742
f 743 741 742
f 737 736 738
f 739 737 738
f 733 732 734
f 735 733 734
f 729 728 730
f 731 729 730
f 717 716 718
f 719 717 718
f 713 712 714
f 715 713 714
f 709 708 710
f 711 709 710
f 705 704 706
f 707 705 706
f 701 703 700
f 701 700 702
f 684 683 685
f 686 684 685
f 678 677 679
f 680 678 679
f 681 678 680
f 682 681 680
f 188 189 187
f 187 186 188
f 186 183 188
f 185 183 186
f 184 183 185
f 185 190 184
f 190 189 184
f 187 189 190
f 674 673 675
f 676 674 675
f 662 661 663
f 664 662 663
f 658 657 659
f 660 658 659
f 646 645 647
f 648 646 647
f 642 641 643
f 644 642 643
f 639 638 637
f 637 636 635
f 637 635 639
f 635 640 639
f 630 629 631
f 631 640 630
f 630 640 633
f 633 640 635
f 635 634 633
f 633 632 630
f 776 775 777
f 777 782 776
f 782 781 776
f 779 781 782
f 780 781 779
f 779 778 780
f 778 775 780
f 777 775 778
f 134 133 135
f 135 136 134
f 109 108 110
f 111 109 110
f 105 104 106
f 107 105 106
f 101 100 102
f 103 101 102
f 97 96 98
f 99 97 98
f 93 92 94
f 94 95 93
f 10 9 11
f 12 10 11
f 6 5 7
f 8 6 7
f 2 1 3
f 4 2 3
f 1123 1122 1124
f 1125 1123 1124
f 1119 1118 1120
f 1121 1119 1120
f 1115 1114 1116
f 1117 1115 1116
f 1111 1110 1112
f 1113 1111 1112
f 1091 1090 1092
f 1093 1091 1092
f 867 866 868
f 869 867 868
f 863 862 864
f 865 863 864
f 859 858 860
f 861 859 860
f 847 846 848
f 849 847 848
f 843 842 844
f 845 843 844
f 831 830 832
f 833 831 832
f 827 826 828
f 829 827 828
f 820 819 821
f 821 822 820
f 822 823 820
f 823 822 825
f 825 824 823
f 808 807 809
f 809 810 808
f 804 803 805
f 805 806 804
f 800 799 801
f 802 800 801
f 796 795 797
f 798 796 797
f 792 791 793
f 794 792 793
f 788 787 789
f 790 788 789
f 784 783 785
f 786 784 785
f 626 625 627
f 628 626 627
f 622 621 623
f 624 622 623
f 618 617 619
f 620 618 619
f 614 613 615
f 616 614 615
f 602 601 603
f 604 602 603
f 598 597 599
f 600 598 599
f 586 585 587
f 588 586 587
f 582 581 583
f 584 582 583
f 234 233 235
f 234 235 236
f 208 207 209
f 210 208 209
f 204 203 205
f 206 204 205
f 200 199 201
f 202 200 201
f 196 195 197
f 198 196 197
f 192 191 193
f 194 192 193
f 182 180 181
f 178 181 180
f 178 180 177
f 178 177 179
f 48 47 49
f 50 48 49
f 52 51 53
f 54 52 53
f 64 63 65
f 66 64 65
f 68 67 69
f 70 68 69
f 72 71 73
f 74 72 73
f 76 75 77
f 78 76 77
f 138 137 139
f 138 139 140
f 142 141 143
f 144 142 143
f 146 145 147
f 148 146 147
f 150 149 151
f 152 150 151
f 174 173 175
f 176 174 175
f 46 44 45
f 44 43 45
f 40 39 41
f 42 40 41
f 855 854 856
f 857 855 856
f 851 850 852
f 853 851 852
f 839 838 840
f 841 839 840
f 835 834 836
f 837 835 836
f 761 760 762
f 763 761 762
f 757 756 758
f 759 757 758
f 753 752 754
f 755 753 754
f 670 669 671
f 672 670 671
f 666 665 667
f 668 666 667
f 654 653 655
f 656 654 655
f 650 649 651
f 652 650 651
f 610 609 611
f 612 610 611
f 606 605 607
f 608 606 607
f 594 593 595
f 596 594 595
f 590 589 591
f 592 590 591
f 170 169 171
f 172 170 171
f 166 165 167
f 168 166 167
f 162 161 163
f 164 162 163
f 130 129 131
f 132 130 131
f 126 125 127
f 128 126 127
f 122 121 123
f 124 122 123
f 118 117 119
f 120 118 119
f 60 59 61
f 62 60 61
f 56 55 57
f 58 56 57
f 158 157 159
f 155 157 158
f 155 158 154
f 154 153 155
f 156 153 154
f 156 154 160
f 1135 1134 1136
f 1136 1134 1137
f 1131 1130 1132
f 1132 1130 1133
f 115 112 113
f 113 112 114
f 113 114 116
f 721 727 723
f 723 720 721
f 721 720 722
f 722 725 721
f 722 724 725
f 725 724 726
f 745 751 747
f 747 744 745
f 745 744 746
f 746 749 745
f 746 748 749
f 749 748 750
f 262 261 263
f 264 262 263
f 458 457 459
f 460 458 459
f 274 273 275
f 276 274 275
f 270 269 271
f 272 270 271
f 266 265 267
f 268 266 267
f 294 296 293
f 294 293 295
f 470 469 471
f 472 470 471
f 466 465 467
f 468 466 467
f 462 461 463
f 464 462 463
f 452 450 453
f 453 454 455
f 451 454 453
f 450 451 453
f 450 448 451
f 448 450 447
f 447 445 448
f 446 445 447
f 445 446 456
f 448 445 449
f 418 419 417
f 423 422 421
f 421 422 420
f 421 420 418
f 418 415 421
f 415 418 417
f 416 415 417
f 417 426 416
f 420 422 424
f 422 425 424
f 476 474 475
f 474 473 475
f 442 441 443
f 441 444 443
f 440 437 438
f 438 437 439
f 433 434 436
f 434 433 435
f 412 411 413
f 413 411 414
f 398 397 399
f 399 397 400
f 400 401 399
f 402 401 400
f 428 427 429
f 427 430 429
f 430 427 432
f 431 430 432
f 290 292 289
f 290 289 291
f 286 288 285
f 286 285 287
f 282 284 281
f 282 281 283
f 278 280 277
f 278 277 279
f 576 574 577
f 574 575 577
f 574 573 575
f 573 578 575
f 573 580 578
f 580 579 578
f 570 569 571
f 572 570 571
f 566 565 567
f 568 566 567
f 562 561 563
f 564 562 563
f 558 557 559
f 560 558 559
f 554 553 555
f 556 554 555
f 550 549 551
f 552 550 551
f 546 545 547
f 548 546 547
f 542 541 543
f 544 542 543
f 530 529 531
f 532 530 531
f 526 525 527
f 528 526 527
f 522 521 523
f 524 522 523
f 518 517 519
f 520 518 519
f 514 513 515
f 516 514 515
f 510 509 511
f 512 510 511
f 506 505 507
f 508 506 507
f 502 501 503
f 504 502 503
f 496 494 497
f 494 495 497
f 494 493 495
f 493 498 495
f 493 500 498
f 500 499 498
f 490 489 491
f 492 490 491
f 486 485 487
f 488 486 487
f 482 481 483
f 484 482 483
f 478 477 479
f 480 478 479
f 408 407 409
f 410 408 409
f 404 403 405
f 405 406 404
f 394 396 393
f 394 393 395
f 390 392 389
f 390 389 391
f 386 388 385
f 386 385 387
f 382 384 381
f 382 381 383
f 378 380 377
f 378 377 379
f 374 376 373
f 374 373 375
f 370 372 369
f 370 369 371
f 366 368 365
f 366 365 367
f 362 364 361
f 362 361 363
f 358 360 357
f 358 357 359
f 354 356 353
f 354 353 355
f 350 352 349
f 350 349 351
f 346 348 345
f 346 345 347
f 342 344 341
f 342 341 343
f 338 340 337
f 338 337 339
f 334 336 333
f 334 333 335
f 330 332 329
f 330 329 331
f 326 328 325
f 326 325 327
f 322 324 321
f 322 321 323
f 318 320 317
f 318 317 319
f 314 316 313
f 314 313 315
f 310 312 309
f 310 309 311
f 306 308 305
f 306 305 307
f 302 304 301
f 302 301 303
f 298 300 297
f 298 297 299
f 540 539 538
f 533 540 538
f 533 538 535
f 534 533 535
f 534 535 537
f 536 534 537
f 885 883 884
f 883 882 884
f 1103 1102 1104
f 1105 1103 1104
f 1099 1098 1100
f 1101 1099 1100
f 1095 1094 1096
f 1097 1095 1096
f 1087 1089 1086
f 1087 1086 1088
f 891 890 892
f 893 891 892
f 887 886 888
f 889 887 888
f 1081 1080 1082
f 1082 1085 1081
f 1081 1085 1084
f 1083 1081 1084
f 895 894 896
f 896 894 897
f 1107 1106 1108
f 1106 1109 1108
