# from FinancialDistrict_Block01_Upmarket Corporate (UC)_0014_LOD_0.pskx
v -883.4867553710938 -684.8804931640625 0.0003020499716512859
v -585.739990234375 -951.3951416015625 3.836435280391015e-05
v -883.4871826171875 -684.879638671875 10000.0
v -585.7404174804688 -951.3942260742188 10000.0
v -585.7399291992188 -951.3951416015625 3.8364360079867765e-05
v -452.1090393066406 -801.918701171875 3.1137908081291243e-05
v -585.7403564453125 -951.394287109375 10000.0
v -452.10943603515625 -801.9178466796875 10000.0
v -452.1090393066406 -801.918701171875 3.1137908081291243e-05
v -438.79656982421875 -748.8470458984375 2.7080142899649218e-05
v -452.10943603515625 -801.9178466796875 10000.0
v -438.7969665527344 -748.84619140625 10000.0
v -435.8864440917969 -707.736328125 2.3613334633409977e-05
v -435.8868408203125 -707.7354736328125 10000.0
v -441.25030517578125 -686.1181030273438 2.1488944184966385e-05
v -441.250732421875 -686.1171875 10000.0
v -445.0772705078125 -671.9347534179688 2.0081719412701204e-05
v -445.0776672363281 -671.933837890625 10000.0
v -448.6197204589844 -655.48095703125 1.8488433852326125e-05
v -448.62017822265625 -655.4800415039062 10000.0
v -453.92987060546875 -629.0079345703125 1.5941977835609578e-05
v -453.9302978515625 -629.007080078125 10000.0
v -478.58868408203125 -585.2870483398438 1.104190232581459e-05
v -478.589111328125 -585.2861328125 10000.0
v -522.5918579101562 -537.8336791992188 4.969959263689816e-06
v -522.59228515625 -537.8328247070312 10000.0
v -522.5918579101562 -537.8336791992188 4.969959263689816e-06
v 477.02447509765625 580.68994140625 -4.911986616207287e-05
v -522.59228515625 -537.8328247070312 10000.0
v 477.02398681640625 580.6907958984375 10000.0
v 477.02459716796875 580.6901245117188 -4.911986616207287e-05
v 518.6452026367188 550.1433715820312 -8.681759936735034e-05
v 477.024169921875 580.6909790039062 10000.0
v 518.6447143554688 550.144287109375 10000.0
v 578.69921875 519.7080078125 -5.3406816732604057e-05
v 578.6987915039062 519.7088623046875 10000.0
v 609.0135498046875 513.2111206054688 -3.745124558918178e-05
v 609.0131225585938 513.2119750976562 10000.0
v 625.2025146484375 510.530517578125 -3.650925646070391e-05
v 625.2020263671875 510.53131103515625 10000.0
v 651.085205078125 507.69244384765625 -3.512977855280042e-05
v 651.0847778320312 507.69329833984375 10000.0
v 696.2617797851562 517.8504638671875 -3.404309245524928e-05
v 696.2613525390625 517.851318359375 10000.0
v 748.185546875 540.5386962890625 -3.37569072144106e-05
v 748.1851196289062 540.53955078125 10000.0
v 748.185546875 540.5386962890625 -3.37569072144106e-05
v 883.4825439453125 691.9151000976562 -4.1076636989600956e-05
v 748.1851196289062 540.53955078125 10000.0
v 883.48193359375 691.9159545898438 10000.0
v 883.4825439453125 691.9151000976562 -4.1076636989600956e-05
v 586.7159423828125 952.0092163085938 0.00022321316646412015
v 883.48193359375 691.9159545898438 10000.0
v 586.7155151367188 952.0099487304688 10000.0
v -585.7403564453125 -951.394287109375 10000.0
v -452.10943603515625 -801.9178466796875 10000.0
v -438.7969665527344 -748.84619140625 10000.0
v -435.8868408203125 -707.7354736328125 10000.0
v -441.250732421875 -686.1171875 10000.0
v -445.0776672363281 -671.933837890625 10000.0
v -448.62017822265625 -655.4800415039062 10000.0
v -453.9302978515625 -629.007080078125 10000.0
v -478.589111328125 -585.2861328125 10000.0
v -522.59228515625 -537.8328247070312 10000.0
v 477.024169921875 580.6909790039062 10000.0
v 586.7155151367188 952.0099487304688 10000.0
v -883.4871826171875 -684.879638671875 10000.0
v 518.6447143554688 550.144287109375 10000.0
v 578.6987915039062 519.7088623046875 10000.0
v 609.0131225585938 513.2119750976562 10000.0
v 625.2020263671875 510.53131103515625 10000.0
v 651.0847778320312 507.69329833984375 10000.0
v 696.2613525390625 517.851318359375 10000.0
v 883.48193359375 691.9159545898438 10000.0
v 748.1851196289062 540.53955078125 10000.0
v -545.93994140625 -578.7182006835938 -17.8558292388916
v 671.78466796875 747.0875854492188 -17.85589027404785
v -527.9833984375 -594.78271484375 -17.855825424194336
v 653.8159790039062 763.1519165039062 -17.855892181396484
v -445.5421447753906 -802.632080078125 1480.000244140625
v 777.90673828125 115.63150024414062 1480.000244140625
v -21.939773559570312 -778.9488525390625 1480.000244140625
v 754.2235717773438 539.23388671875 1480.000244140625
v 456.033203125 805.8466186523438 1480.0001220703125
v -743.7406616210938 -536.0283813476562 1480.000244140625
v -247.18077087402344 -778.790283203125 1509.4024658203125
v -530.4652099609375 -525.5049438476562 479.40216064453125
v -213.86328125 -741.50830078125 1509.4024658203125
v -497.1386413574219 -488.2311706542969 479.40216064453125
v 712.626953125 294.69708251953125 1509.4024658203125
v 462.660888671875 585.2470703125 479.4021301269531
v 745.9443969726562 331.97894287109375 1509.4024658203125
v 429.3333740234375 547.990478515625 479.4021301269531
v -0.5762939453125 -502.95965576171875 1509.4024658203125
v -250.5250701904297 -212.40869140625 479.40216064453125
v 32.741241455078125 -465.677734375 1509.4024658203125
v -283.86077880859375 -249.67434692382812 479.40216064453125
v 472.677978515625 26.3101806640625 1509.40234375
v 222.72012329101562 316.86932373046875 479.4021301269531
v 505.99542236328125 63.592132568359375 1509.40234375
v 189.39254760742188 279.61273193359375 479.4021301269531
v 232.71896362304688 -242.05120849609375 1509.4024658203125
v -17.2388916015625 48.5079345703125 479.40216064453125
v 266.03643798828125 -204.769287109375 1509.4024658203125
v -50.5745849609375 11.24224853515625 479.40216064453125
v -585.7537841796875 -952.0099487304688 10000.001953125
v 586.7193603515625 952.0060424804688 10000.001953125
v 883.487060546875 691.9074096679688 10000.001953125
v -883.3489990234375 -684.724853515625 10000.001953125
v -545.93994140625 -578.7182006835938 -17.8558292388916
v 653.8161010742188 763.1520385742188 -17.855892181396484
v -545.9400024414062 -578.718017578125 1982.1441650390625
v 653.81591796875 763.1521606445312 1982.1441650390625
v 653.8161010742188 763.1520385742188 -17.855892181396484
v 671.78466796875 747.0875854492188 -17.85569953918457
v 653.81591796875 763.1521606445312 1982.1441650390625
v 671.7846069335938 747.0875854492188 1982.1441650390625
v -527.9833984375 -594.78271484375 -17.855634689331055
v -545.93994140625 -578.7182006835938 -17.8558292388916
v -527.9834594726562 -594.7825317382812 1982.1444091796875
v -545.9400024414062 -578.718017578125 1982.1444091796875
v -445.5421447753906 -802.632080078125 1480.000244140625
v -21.939712524414062 -778.9488525390625 1480.000244140625
v -445.5421447753906 -802.632080078125 1510.0003662109375
v -21.939697265625 -778.9488525390625 1510.0003662109375
v -21.939773559570312 -778.9488525390625 1480.000244140625
v 777.9066162109375 115.63137817382812 1480.000244140625
v -21.93975830078125 -778.9488525390625 1510.0003662109375
v 777.9066162109375 115.63137817382812 1510.0003662109375
v 777.9066162109375 115.63137817382812 1480.000244140625
v 754.2234497070312 539.2338256835938 1480.000244140625
v 777.9066162109375 115.63137817382812 1510.0003662109375
v 754.2234497070312 539.2338256835938 1510.0003662109375
v 754.2234497070312 539.2338256835938 1480.000244140625
v 456.0330810546875 805.8466186523438 1480.0001220703125
v 754.2234497070312 539.2338256835938 1510.0003662109375
v 456.0330810546875 805.8466186523438 1510.000244140625
v -743.7406616210938 -536.0283813476562 1480.000244140625
v -445.5421447753906 -802.632080078125 1480.000244140625
v -743.7406616210938 -536.0283813476562 1510.0003662109375
v -445.5421447753906 -802.632080078125 1510.0003662109375
v -445.5421142578125 -802.6320190429688 1670.00048828125
v -21.939697265625 -778.9488525390625 1670.00048828125
v -445.5421447753906 -802.6320190429688 1700.0003662109375
v -21.939697265625 -778.9488525390625 1700.0003662109375
v -21.93975830078125 -778.9488525390625 1670.000244140625
v 777.9066162109375 115.63137817382812 1670.000244140625
v -21.93975830078125 -778.9488525390625 1700.000244140625
v 777.9066162109375 115.63137817382812 1700.000244140625
v 777.9066162109375 115.63137817382812 1670.00048828125
v 754.223388671875 539.2338256835938 1670.00048828125
v 777.9066162109375 115.63137817382812 1700.0003662109375
v 754.223388671875 539.2338256835938 1700.0003662109375
v 754.2234497070312 539.2338256835938 1670.00048828125
v 456.0330810546875 805.8466186523438 1670.0003662109375
v 754.2234497070312 539.2338256835938 1700.0003662109375
v 456.0330810546875 805.8466186523438 1700.000244140625
v -743.7406616210938 -536.0283203125 1670.00048828125
v -445.5421142578125 -802.6320190429688 1670.00048828125
v -743.7406616210938 -536.0283203125 1700.0003662109375
v -445.5421447753906 -802.6320190429688 1700.0003662109375
v -445.5421447753906 -802.6320190429688 1700.0003662109375
v -21.93975830078125 -778.9488525390625 1700.0003662109375
v 777.9066162109375 115.63137817382812 1700.0003662109375
v 754.2234497070312 539.2338256835938 1700.0003662109375
v 456.0330810546875 805.8466186523438 1700.000244140625
v -743.7406616210938 -536.0283203125 1700.0003662109375
v -247.18081665039062 -778.7902221679688 1509.4024658203125
v -530.4652099609375 -525.5049438476562 639.4021606445312
v -530.4652099609375 -525.5049438476562 479.40216064453125
v -247.18081665039062 -778.7902221679688 1669.40234375
v -213.86328125 -741.50830078125 1669.40234375
v -213.86328125 -741.50830078125 1509.4024658203125
v -497.13861083984375 -488.23114013671875 639.4022216796875
v -497.1386413574219 -488.2311706542969 479.40216064453125
v 712.6268920898438 294.69708251953125 1509.4022216796875
v 429.33331298828125 547.990478515625 639.4020385742188
v 429.3333740234375 547.990478515625 479.4021301269531
v 712.6268920898438 294.69708251953125 1669.40234375
v 745.9443969726562 331.97894287109375 1669.40234375
v 745.9443969726562 331.97894287109375 1509.4024658203125
v 462.660888671875 585.2470703125 639.4021606445312
v 462.660888671875 585.2470092773438 479.4021301269531
v 462.660888671875 585.2470092773438 479.4021301269531
v -0.5763397216796875 -502.95965576171875 1509.4024658203125
v -283.86077880859375 -249.67434692382812 639.4021606445312
v -283.86077880859375 -249.67434692382812 479.40216064453125
v -0.5763397216796875 -502.9596252441406 1669.40234375
v 32.741180419921875 -465.6777038574219 1669.40234375
v 32.741241455078125 -465.677734375 1509.4024658203125
v -250.52508544921875 -212.40867614746094 639.4022216796875
v -250.5250701904297 -212.40869140625 479.40216064453125
v 472.67791748046875 26.31024169921875 1509.402099609375
v 189.39254760742188 279.61273193359375 639.402099609375
v 189.39254760742188 279.61273193359375 479.4021301269531
v 472.67791748046875 26.31024169921875 1669.4022216796875
v 505.995361328125 63.5921630859375 1669.4022216796875
v 505.99542236328125 63.592132568359375 1509.40234375
v 222.72012329101562 316.86932373046875 639.4022216796875
v 222.72012329101562 316.86932373046875 479.4021301269531
v 232.71893310546875 -242.05117797851562 1509.4022216796875
v -50.57456970214844 11.242279052734375 639.4020385742188
v -50.5745849609375 11.24224853515625 479.40216064453125
v 232.71893310546875 -242.0511474609375 1669.40234375
v 266.0364990234375 -204.76925659179688 1669.40234375
v 266.03643798828125 -204.769287109375 1509.4024658203125
v -17.238876342773438 48.5079345703125 639.4021606445312
v -17.2388916015625 48.507904052734375 479.40216064453125
v -17.2388916015625 48.507904052734375 479.40216064453125
v -585.7537841796875 -952.0099487304688 10000.001953125
v 883.4871826171875 691.9075317382812 10000.001953125
v -585.7537231445312 -952.0098876953125 10250.001953125
v 883.4871826171875 691.9075317382812 10250.001953125
v 883.4871826171875 691.9075317382812 10000.001953125
v 883.4871826171875 691.9075317382812 10250.001953125
v 586.7193603515625 952.0062866210938 10250.001953125
v 586.719482421875 952.0061645507812 10000.001953125
v -883.3488159179688 -684.724609375 10000.001953125
v 586.7194213867188 952.0061645507812 10250.001953125
v -883.348876953125 -684.724609375 10250.001953125
v -883.3489990234375 -684.724853515625 10000.001953125
v -585.7537841796875 -952.0099487304688 10000.001953125
v -883.3489990234375 -684.7247924804688 10250.001953125
v -585.7537231445312 -952.0098876953125 10250.001953125
v -585.7537231445312 -952.0098876953125 10250.001953125
v 883.4871826171875 691.9075317382812 10250.001953125
v 586.7194213867188 952.0061645507812 10250.001953125
v -883.3489990234375 -684.7247924804688 10250.001953125
v -776.4192504882812 -565.7025146484375 9124.52734375
v -883.328369140625 -684.7332763671875 9124.52734375
v -776.4193115234375 -565.7024536132812 10000.0263671875
v -883.3284301757812 -684.733154296875 10000.0263671875
v 586.715576171875 952.0099487304688 9124.5224609375
v 479.806396484375 832.9791870117188 9124.5224609375
v 586.7155151367188 952.0099487304688 10000.0224609375
v 479.8062744140625 832.9791870117188 10000.0224609375
f 50 49 51
f 52 50 51
f 6 5 7
f 8 6 7
f 2 1 3
f 4 2 3
f 274 273 275
f 276 274 275
f 270 269 271
f 272 270 271
f 262 261 263
f 264 262 263
f 258 257 259
f 260 258 259
f 56 254 255
f 256 56 255
f 54 53 55
f 56 54 55
f 251 250 252
f 253 251 252
f 161 160 162
f 163 161 162
f 157 156 158
f 159 157 158
f 153 152 154
f 155 153 154
f 149 148 150
f 151 149 150
f 145 144 146
f 147 145 146
f 141 140 142
f 143 141 142
f 137 136 138
f 139 137 138
f 133 132 134
f 135 133 134
f 129 128 130
f 131 129 130
f 125 124 126
f 127 125 126
f 121 120 122
f 123 121 122
f 117 116 118
f 119 117 118
f 113 112 114
f 115 113 114
f 89 88 90
f 90 91 89
f 79 81 78
f 79 78 80
f 32 31 33
f 34 32 33
f 35 32 34
f 36 35 34
f 37 35 36
f 38 37 36
f 266 265 267
f 267 265 268
f 185 184 186
f 184 187 186
f 184 189 187
f 189 188 187
f 58 57 59
f 59 57 60
f 60 57 61
f 61 57 62
f 62 57 63
f 63 57 66
f 66 57 69
f 68 66 69
f 67 66 68
f 67 68 70
f 64 63 65
f 65 63 66
f 70 68 71
f 71 68 72
f 72 68 73
f 73 68 74
f 74 68 75
f 75 68 76
f 76 77 75
f 111 108 109
f 109 108 110
f 107 104 105
f 105 104 106
f 103 100 101
f 101 100 102
f 99 96 97
f 97 96 98
f 95 92 93
f 93 92 94
f 85 86 87
f 85 87 82
f 83 85 82
f 83 82 84
f 48 47 46
f 47 45 46
f 46 45 44
f 45 43 44
f 44 43 42
f 43 40 42
f 42 40 41
f 40 39 41
f 16 15 14
f 15 13 14
f 14 13 12
f 13 10 12
f 12 10 11
f 10 9 11
f 26 25 24
f 25 23 24
f 278 277 22
f 277 21 22
f 22 21 20
f 21 19 20
f 20 19 18
f 19 17 18
f 18 17 16
f 17 15 16
f 28 27 29
f 30 28 29
f 165 164 166
f 167 165 166
f 243 242 244
f 244 245 243
f 231 230 232
f 232 233 231
f 219 218 220
f 220 221 219
f 207 206 208
f 208 209 207
f 199 198 200
f 200 201 199
f 195 194 196
f 196 197 195
f 181 180 182
f 183 181 182
f 177 176 178
f 179 177 178
f 173 172 174
f 175 173 174
f 169 168 170
f 171 169 170
f 190 191 193
f 191 190 192
f 202 203 205
f 203 202 204
f 213 210 211
f 211 210 212
f 214 215 217
f 215 214 216
f 225 222 223
f 223 222 224
f 226 227 229
f 227 226 228
f 237 234 235
f 235 234 236
f 238 239 241
f 239 238 240
f 249 246 247
f 247 246 248
