# from FinancialDistrict_Block34_Generic_0020_LOD_0.pskx
v 47.503662109375 -225.003662109375 3.933971674996428e-05
v 47.487144470214844 225.00360107421875 -1.890839484985918e-09
v 47.503662109375 -225.003662109375 5.000039577484131
v 47.487144470214844 225.00360107421875 5.0
v 47.487144470214844 225.00367736816406 -1.8972059478983283e-09
v -47.503662109375 225.00247192382812 -4.153971985942917e-06
v 47.487144470214844 225.00367736816406 5.0
v -47.503662109375 225.00247192382812 4.999995708465576
v -47.503662109375 225.00247192382812 -4.153971985942917e-06
v -47.49143981933594 -225.003662109375 3.518734956742264e-05
v -47.503662109375 225.00247192382812 4.999995708465576
v -47.49143981933594 -225.003662109375 5.000034809112549
v -47.49143981933594 -225.003662109375 3.518734956742264e-05
v 47.503662109375 -225.003662109375 3.933971674996428e-05
v -47.49143981933594 -225.003662109375 5.000034809112549
v 47.503662109375 -225.003662109375 5.000039577484131
v 47.503662109375 -225.003662109375 3.933971674996428e-05
v -47.503662109375 225.00247192382812 -4.153971985942917e-06
v 47.487144470214844 225.00367736816406 -1.8972059478983283e-09
v -47.49143981933594 -225.003662109375 3.518734956742264e-05
v 47.503662109375 -225.003662109375 5.000039577484131
v 47.487144470214844 225.00367736816406 5.0
v -47.503662109375 225.00247192382812 4.999995708465576
v -47.49143981933594 -225.003662109375 5.000034809112549
f 2 1 3
f 4 2 3
f 18 20 17
f 18 17 19
f 14 13 15
f 16 14 15
f 10 9 11
f 12 10 11
f 6 5 7
f 8 6 7
f 22 21 23
f 21 24 23
