# from FinancialDistrict_Block09_Generic_0004_LOD_0.pskx
v 776.7822265625 -210.75439453125 0.0
v 882.84912109375 -104.68749237060547 -4.636331141227856e-06
v 776.7821655273438 -210.75425720214844 1600.0
v 882.8490600585938 -104.6873550415039 1600.0
v 882.84912109375 -104.68749237060547 -4.636331141227856e-06
v 776.7822265625 1.37939453125 -1.8545324564911425e-05
v 882.8490600585938 -104.6873550415039 1600.0
v 776.7821655273438 1.3795318603515625 1600.0
v 776.7822265625 1.37939453125 -1.8545324564911425e-05
v 670.71533203125 -104.68750762939453 -1.3908993423683569e-05
v 776.7821655273438 1.3795318603515625 1600.0
v 670.7152709960938 -104.68737030029297 1600.0
v 670.71533203125 -104.68750762939453 -1.3908993423683569e-05
v 776.7822265625 -210.75439453125 0.0
v 670.7152709960938 -104.68737030029297 1600.0
v 776.7821655273438 -210.75425720214844 1600.0
v 882.8490600585938 -104.6873550415039 1600.0
v 847.5341796875 -111.79185485839844 1600.0
v 844.00634765625 -115.31965637207031 1600.0
v 833.3984375 -111.79185485839844 1600.0
v 833.3984375 -104.71175384521484 1600.0
v 783.8500366210938 -175.40264892578125 1600.0
v 780.322265625 -178.93045043945312 1600.0
v 776.7821655273438 -210.75425720214844 1600.0
v 836.92626953125 -115.31965637207031 1600.0
v 776.7821655273438 1.3795318603515625 1600.0
v 776.8310546875 -34.0086669921875 1600.0
v 780.3588256835938 -37.53645324707031 1600.0
v 780.3588256835938 -44.61656188964844 1600.0
v 783.8500366210938 -168.3225555419922 1600.0
v 847.5341796875 -104.71175384521484 1600.0
v 844.00634765625 -101.1839599609375 1600.0
v 836.92626953125 -101.1839599609375 1600.0
v 670.7152709960938 -104.68737030029297 1600.0
v 702.5390625 -101.14725494384766 1600.0
v 706.0668334960938 -97.61945343017578 1600.0
v 716.6747436523438 -101.14725494384766 1600.0
v 716.6747436523438 -108.22735595703125 1600.0
v 766.22314453125 -37.53645324707031 1600.0
v 769.7509765625 -34.0086669921875 1600.0
v 713.14697265625 -97.61945343017578 1600.0
v 773.2421264648438 -178.93045043945312 1600.0
v 769.71435546875 -175.40264892578125 1600.0
v 769.71435546875 -168.3225555419922 1600.0
v 766.22314453125 -44.61656188964844 1600.0
v 702.5390625 -108.22735595703125 1600.0
v 706.0668334960938 -111.75515747070312 1600.0
v 713.14697265625 -111.75515747070312 1600.0
v 773.2421264648438 -164.7947540283203 1600.0
v 769.7509765625 -48.14436340332031 1600.0
v 780.322265625 -164.7947540283203 1600.0
v 776.8310546875 -48.14436340332031 1600.0
v 783.8500366210938 -175.40264892578125 1599.999755859375
v 783.8500366210938 -168.3225555419922 1599.999755859375
v 783.8500366210938 -175.40264892578125 1699.999755859375
v 783.8500366210938 -168.32254028320312 1699.999755859375
v 783.8500366210938 -168.3225555419922 1599.999755859375
v 780.322265625 -164.7947540283203 1599.999755859375
v 783.8500366210938 -168.32254028320312 1699.999755859375
v 780.322265625 -164.79473876953125 1699.999755859375
v 780.322265625 -164.7947540283203 1599.999755859375
v 773.2421264648438 -164.7947540283203 1599.999755859375
v 780.322265625 -164.79473876953125 1699.999755859375
v 773.2421264648438 -164.79473876953125 1699.999755859375
v 773.2421264648438 -164.7947540283203 1599.999755859375
v 769.71435546875 -168.3225555419922 1599.999755859375
v 773.2421264648438 -164.79473876953125 1699.999755859375
v 769.71435546875 -168.32254028320312 1699.999755859375
v 769.71435546875 -168.3225555419922 1599.999755859375
v 769.71435546875 -175.40264892578125 1599.999755859375
v 769.71435546875 -168.32254028320312 1699.999755859375
v 769.71435546875 -175.40264892578125 1699.999755859375
v 769.71435546875 -175.40264892578125 1599.999755859375
v 773.2421264648438 -178.93045043945312 1599.999755859375
v 769.71435546875 -175.40264892578125 1699.999755859375
v 773.2421264648438 -178.93045043945312 1699.999755859375
v 773.2421264648438 -178.93045043945312 1599.999755859375
v 780.322265625 -178.93045043945312 1599.999755859375
v 773.2421264648438 -178.93045043945312 1699.999755859375
v 780.322265625 -178.93045043945312 1699.999755859375
v 780.322265625 -178.93045043945312 1599.999755859375
v 783.8500366210938 -175.40264892578125 1599.999755859375
v 780.322265625 -178.93045043945312 1699.999755859375
v 783.8500366210938 -175.40264892578125 1699.999755859375
v 780.322265625 -178.93045043945312 1699.999755859375
v 783.8500366210938 -175.40264892578125 1699.999755859375
v 783.8500366210938 -168.32254028320312 1699.999755859375
v 780.322265625 -164.79473876953125 1699.999755859375
v 773.2421264648438 -164.79473876953125 1699.999755859375
v 773.2421264648438 -178.93045043945312 1699.999755859375
v 769.71435546875 -168.32254028320312 1699.999755859375
v 769.71435546875 -175.40264892578125 1699.999755859375
v 716.6747436523438 -108.22735595703125 1599.999755859375
v 716.6747436523438 -101.14725494384766 1599.999755859375
v 716.6747436523438 -108.22734832763672 1699.999755859375
v 716.6747436523438 -101.14724731445312 1699.999755859375
v 716.6747436523438 -101.14725494384766 1599.999755859375
v 713.14697265625 -97.61945343017578 1599.999755859375
v 716.6747436523438 -101.14724731445312 1699.999755859375
v 713.14697265625 -97.61944580078125 1699.999755859375
v 713.14697265625 -97.61945343017578 1599.999755859375
v 706.0668334960938 -97.61945343017578 1599.999755859375
v 713.14697265625 -97.61944580078125 1699.999755859375
v 706.0668334960938 -97.61944580078125 1699.999755859375
v 706.0668334960938 -97.61945343017578 1599.999755859375
v 702.5390625 -101.14725494384766 1599.999755859375
v 706.0668334960938 -97.61944580078125 1699.999755859375
v 702.5390625 -101.14724731445312 1699.999755859375
v 702.5390625 -101.14725494384766 1599.999755859375
v 702.5390625 -108.22735595703125 1599.999755859375
v 702.5390625 -101.14724731445312 1699.999755859375
v 702.5390625 -108.22734832763672 1699.999755859375
v 702.5390625 -108.22735595703125 1599.999755859375
v 706.0668334960938 -111.75515747070312 1599.999755859375
v 702.5390625 -108.22734832763672 1699.999755859375
v 706.0668334960938 -111.7551498413086 1699.999755859375
v 706.0668334960938 -111.75515747070312 1599.999755859375
v 713.14697265625 -111.75515747070312 1599.999755859375
v 706.0668334960938 -111.7551498413086 1699.999755859375
v 713.14697265625 -111.7551498413086 1699.999755859375
v 713.14697265625 -111.75515747070312 1599.999755859375
v 716.6747436523438 -108.22735595703125 1599.999755859375
v 713.14697265625 -111.7551498413086 1699.999755859375
v 716.6747436523438 -108.22734832763672 1699.999755859375
v 713.14697265625 -111.7551498413086 1699.999755859375
v 716.6747436523438 -108.22734832763672 1699.999755859375
v 716.6747436523438 -101.14724731445312 1699.999755859375
v 713.14697265625 -97.61944580078125 1699.999755859375
v 706.0668334960938 -97.61944580078125 1699.999755859375
v 706.0668334960938 -111.7551498413086 1699.999755859375
v 702.5390625 -101.14724731445312 1699.999755859375
v 702.5390625 -108.22734832763672 1699.999755859375
v 780.3588256835938 -44.61656188964844 1599.999755859375
v 780.3588256835938 -37.53645324707031 1599.999755859375
v 780.3588256835938 -44.616546630859375 1699.999755859375
v 780.3588256835938 -37.53643798828125 1699.999755859375
v 780.3588256835938 -37.53645324707031 1599.999755859375
v 776.8310546875 -34.0086669921875 1599.999755859375
v 780.3588256835938 -37.53643798828125 1699.999755859375
v 776.8310546875 -34.00865173339844 1699.999755859375
v 776.8310546875 -34.0086669921875 1599.999755859375
v 769.7509765625 -34.0086669921875 1599.999755859375
v 776.8310546875 -34.00865173339844 1699.999755859375
v 769.7509155273438 -34.00865173339844 1699.999755859375
v 769.7509765625 -34.0086669921875 1599.999755859375
v 766.22314453125 -37.53645324707031 1599.999755859375
v 769.7509155273438 -34.00865173339844 1699.999755859375
v 766.22314453125 -37.53643798828125 1699.999755859375
v 766.22314453125 -37.53645324707031 1599.999755859375
v 766.22314453125 -44.61656188964844 1599.999755859375
v 766.22314453125 -37.53643798828125 1699.999755859375
v 766.22314453125 -44.616546630859375 1699.999755859375
v 766.22314453125 -44.61656188964844 1599.999755859375
v 769.7509765625 -48.14436340332031 1599.999755859375
v 766.22314453125 -44.616546630859375 1699.999755859375
v 769.7509155273438 -48.14434814453125 1699.999755859375
v 769.7509765625 -48.14436340332031 1599.999755859375
v 776.8310546875 -48.14436340332031 1599.999755859375
v 769.7509155273438 -48.14434814453125 1699.999755859375
v 776.8310546875 -48.14434814453125 1699.999755859375
v 776.8310546875 -48.14436340332031 1599.999755859375
v 780.3588256835938 -44.61656188964844 1599.999755859375
v 776.8310546875 -48.14434814453125 1699.999755859375
v 780.3588256835938 -44.616546630859375 1699.999755859375
v 776.8310546875 -48.14434814453125 1699.999755859375
v 780.3588256835938 -44.616546630859375 1699.999755859375
v 780.3588256835938 -37.53643798828125 1699.999755859375
v 776.8310546875 -34.00865173339844 1699.999755859375
v 769.7509155273438 -34.00865173339844 1699.999755859375
v 769.7509155273438 -48.14434814453125 1699.999755859375
v 766.22314453125 -37.53643798828125 1699.999755859375
v 766.22314453125 -44.616546630859375 1699.999755859375
v 847.5341796875 -111.79185485839844 1599.999755859375
v 847.5341796875 -104.71175384521484 1599.999755859375
v 847.5341796875 -111.7918472290039 1699.999755859375
v 847.5341796875 -104.71174621582031 1699.999755859375
v 847.5341796875 -104.71175384521484 1599.999755859375
v 844.00634765625 -101.1839599609375 1599.999755859375
v 847.5341796875 -104.71174621582031 1699.999755859375
v 844.00634765625 -101.18395233154297 1699.999755859375
v 844.00634765625 -101.1839599609375 1599.999755859375
v 836.92626953125 -101.1839599609375 1599.999755859375
v 844.00634765625 -101.18395233154297 1699.999755859375
v 836.92626953125 -101.18395233154297 1699.999755859375
v 836.92626953125 -101.1839599609375 1599.999755859375
v 833.3984375 -104.71175384521484 1599.999755859375
v 836.92626953125 -101.18395233154297 1699.999755859375
v 833.3984375 -104.71174621582031 1699.999755859375
v 833.3984375 -104.71175384521484 1599.999755859375
v 833.3984375 -111.79185485839844 1599.999755859375
v 833.3984375 -104.71174621582031 1699.999755859375
v 833.3984375 -111.7918472290039 1699.999755859375
v 833.3984375 -111.79185485839844 1599.999755859375
v 836.92626953125 -115.31965637207031 1599.999755859375
v 833.3984375 -111.7918472290039 1699.999755859375
v 836.92626953125 -115.31964874267578 1699.999755859375
v 836.92626953125 -115.31965637207031 1599.999755859375
v 844.00634765625 -115.31965637207031 1599.999755859375
v 836.92626953125 -115.31964874267578 1699.999755859375
v 844.00634765625 -115.31964874267578 1699.999755859375
v 844.00634765625 -115.31965637207031 1599.999755859375
v 847.5341796875 -111.79185485839844 1599.999755859375
v 844.00634765625 -115.31964874267578 1699.999755859375
v 847.5341796875 -111.7918472290039 1699.999755859375
v 844.00634765625 -115.31964874267578 1699.999755859375
v 847.5341796875 -111.7918472290039 1699.999755859375
v 847.5341796875 -104.71174621582031 1699.999755859375
v 844.00634765625 -101.18395233154297 1699.999755859375
v 836.92626953125 -101.18395233154297 1699.999755859375
v 836.92626953125 -115.31964874267578 1699.999755859375
v 833.3984375 -104.71174621582031 1699.999755859375
v 833.3984375 -111.7918472290039 1699.999755859375
v -268.81103515625 -1256.35986328125 -0.00015429459745064378
v -162.74407958984375 -1150.29296875 -0.00015893092495389283
v -268.81103515625 -1256.3597412109375 1599.9998779296875
v -162.744140625 -1150.29296875 1599.9998779296875
v -162.74407958984375 -1150.29296875 -0.00015893092495389283
v -268.81103515625 -1044.22607421875 -0.0001728399220155552
v -162.744140625 -1150.29296875 1599.9998779296875
v -268.81103515625 -1044.22607421875 1599.9998779296875
v -268.81103515625 -1044.22607421875 -0.0001728399220155552
v -374.8779296875 -1150.29296875 -0.00016820359451230615
v -268.81103515625 -1044.22607421875 1599.9998779296875
v -374.8779296875 -1150.29296875 1599.9998779296875
v -374.8779296875 -1150.29296875 -0.00016820359451230615
v -268.81103515625 -1256.35986328125 -0.00015429459745064378
v -374.8779296875 -1150.29296875 1599.9998779296875
v -268.81103515625 -1256.3597412109375 1599.9998779296875
v -162.744140625 -1150.29296875 1599.9998779296875
v -195.41015625 -1154.79736328125 1599.9998779296875
v -198.93798828125 -1158.3251953125 1599.9998779296875
v -209.5458984375 -1154.79736328125 1599.9998779296875
v -209.5458984375 -1147.71728515625 1599.9998779296875
v -259.09423828125 -1218.408203125 1599.9998779296875
v -262.6220703125 -1221.93603515625 1599.9998779296875
v -268.81103515625 -1256.3597412109375 1599.9998779296875
v -206.01806640625 -1158.3251953125 1599.9998779296875
v -268.81103515625 -1044.22607421875 1599.9998779296875
v -266.11328125 -1077.01416015625 1599.9998779296875
v -262.58544921875 -1080.5419921875 1599.9998779296875
v -262.58544921875 -1087.6220703125 1599.9998779296875
v -259.09423828125 -1211.328125 1599.9998779296875
v -195.41015625 -1147.71728515625 1599.9998779296875
v -198.93798828125 -1144.189453125 1599.9998779296875
v -206.01806640625 -1144.189453125 1599.9998779296875
v -374.8779296875 -1150.29296875 1599.9998779296875
v -340.4052734375 -1144.15283203125 1599.9998779296875
v -336.87744140625 -1140.625 1599.9998779296875
v -326.26953125 -1144.15283203125 1599.9998779296875
v -326.26953125 -1151.23291015625 1599.9998779296875
v -276.72119140625 -1080.5419921875 1599.9998779296875
v -273.193359375 -1077.01416015625 1599.9998779296875
v -329.79736328125 -1140.625 1599.9998779296875
v -269.7021484375 -1221.93603515625 1599.9998779296875
v -273.22998046875 -1218.408203125 1599.9998779296875
v -273.22998046875 -1211.328125 1599.9998779296875
v -276.72119140625 -1087.6220703125 1599.9998779296875
v -340.4052734375 -1151.23291015625 1599.9998779296875
v -336.87744140625 -1154.7607421875 1599.9998779296875
v -329.79736328125 -1154.7607421875 1599.9998779296875
v -273.193359375 -1091.14990234375 1599.9998779296875
v -269.7021484375 -1207.80029296875 1599.9998779296875
v -266.11328125 -1091.14990234375 1599.9998779296875
v -262.6220703125 -1207.80029296875 1599.9998779296875
v -195.41015625 -1154.79736328125 1599.9998779296875
v -195.41015625 -1147.71728515625 1599.9998779296875
v -195.41021728515625 -1154.79736328125 1699.9998779296875
v -195.41021728515625 -1147.71728515625 1699.9998779296875
v -195.41015625 -1147.71728515625 1599.9998779296875
v -198.93798828125 -1144.189453125 1599.9998779296875
v -195.41021728515625 -1147.71728515625 1699.9998779296875
v -198.93804931640625 -1144.189453125 1699.9998779296875
v -198.93798828125 -1144.189453125 1599.9998779296875
v -206.01806640625 -1144.189453125 1599.9998779296875
v -198.93804931640625 -1144.189453125 1699.9998779296875
v -206.01812744140625 -1144.189453125 1699.9998779296875
v -206.01806640625 -1144.189453125 1599.9998779296875
v -209.5458984375 -1147.71728515625 1599.9998779296875
v -206.01812744140625 -1144.189453125 1699.9998779296875
v -209.54595947265625 -1147.71728515625 1699.9998779296875
v -209.5458984375 -1147.71728515625 1599.9998779296875
v -209.5458984375 -1154.79736328125 1599.9998779296875
v -209.54595947265625 -1147.71728515625 1699.9998779296875
v -209.54595947265625 -1154.79736328125 1699.9998779296875
v -209.5458984375 -1154.79736328125 1599.9998779296875
v -206.01806640625 -1158.3251953125 1599.9998779296875
v -209.54595947265625 -1154.79736328125 1699.9998779296875
v -206.01812744140625 -1158.3251953125 1699.9998779296875
v -206.01806640625 -1158.3251953125 1599.9998779296875
v -198.93798828125 -1158.3251953125 1599.9998779296875
v -206.01812744140625 -1158.3251953125 1699.9998779296875
v -198.93804931640625 -1158.3251953125 1699.9998779296875
v -198.93798828125 -1158.3251953125 1599.9998779296875
v -195.41015625 -1154.79736328125 1599.9998779296875
v -198.93804931640625 -1158.3251953125 1699.9998779296875
v -195.41021728515625 -1154.79736328125 1699.9998779296875
v -198.93804931640625 -1158.3251953125 1699.9998779296875
v -195.41021728515625 -1154.79736328125 1699.9998779296875
v -195.41021728515625 -1147.71728515625 1699.9998779296875
v -198.93804931640625 -1144.189453125 1699.9998779296875
v -206.01812744140625 -1144.189453125 1699.9998779296875
v -206.01812744140625 -1158.3251953125 1699.9998779296875
v -209.54595947265625 -1147.71728515625 1699.9998779296875
v -209.54595947265625 -1154.79736328125 1699.9998779296875
v -262.58544921875 -1087.6220703125 1599.9998779296875
v -262.58544921875 -1080.5419921875 1599.9998779296875
v -262.58544921875 -1087.6220703125 1699.9998779296875
v -262.58544921875 -1080.5419921875 1699.9998779296875
v -262.58544921875 -1080.5419921875 1599.9998779296875
v -266.11328125 -1077.01416015625 1599.9998779296875
v -262.58544921875 -1080.5419921875 1699.9998779296875
v -266.11328125 -1077.01416015625 1699.9998779296875
v -266.11328125 -1077.01416015625 1599.9998779296875
v -273.193359375 -1077.01416015625 1599.9998779296875
v -266.11328125 -1077.01416015625 1699.9998779296875
v -273.193359375 -1077.01416015625 1699.9998779296875
v -273.193359375 -1077.01416015625 1599.9998779296875
v -276.72119140625 -1080.5419921875 1599.9998779296875
v -273.193359375 -1077.01416015625 1699.9998779296875
v -276.72119140625 -1080.5419921875 1699.9998779296875
v -276.72119140625 -1080.5419921875 1599.9998779296875
v -276.72119140625 -1087.6220703125 1599.9998779296875
v -276.72119140625 -1080.5419921875 1699.9998779296875
v -276.72119140625 -1087.6220703125 1699.9998779296875
v -276.72119140625 -1087.6220703125 1599.9998779296875
v -273.193359375 -1091.14990234375 1599.9998779296875
v -276.72119140625 -1087.6220703125 1699.9998779296875
v -273.193359375 -1091.14990234375 1699.9998779296875
v -273.193359375 -1091.14990234375 1599.9998779296875
v -266.11328125 -1091.14990234375 1599.9998779296875
v -273.193359375 -1091.14990234375 1699.9998779296875
v -266.11328125 -1091.14990234375 1699.9998779296875
v -266.11328125 -1091.14990234375 1599.9998779296875
v -262.58544921875 -1087.6220703125 1599.9998779296875
v -266.11328125 -1091.14990234375 1699.9998779296875
v -262.58544921875 -1087.6220703125 1699.9998779296875
v -266.11328125 -1091.14990234375 1699.9998779296875
v -262.58544921875 -1087.6220703125 1699.9998779296875
v -262.58544921875 -1080.5419921875 1699.9998779296875
v -266.11328125 -1077.01416015625 1699.9998779296875
v -273.193359375 -1077.01416015625 1699.9998779296875
v -273.193359375 -1091.14990234375 1699.9998779296875
v -276.72119140625 -1080.5419921875 1699.9998779296875
v -276.72119140625 -1087.6220703125 1699.9998779296875
v -259.09423828125 -1218.408203125 1599.9998779296875
v -259.09423828125 -1211.328125 1599.9998779296875
v -259.09423828125 -1218.408203125 1699.9998779296875
v -259.09423828125 -1211.328125 1699.9998779296875
v -259.09423828125 -1211.328125 1599.9998779296875
v -262.6220703125 -1207.80029296875 1599.9998779296875
v -259.09423828125 -1211.328125 1699.9998779296875
v -262.6220703125 -1207.80029296875 1699.9998779296875
v -262.6220703125 -1207.80029296875 1599.9998779296875
v -269.7021484375 -1207.80029296875 1599.9998779296875
v -262.6220703125 -1207.80029296875 1699.9998779296875
v -269.7021484375 -1207.80029296875 1699.9998779296875
v -269.7021484375 -1207.80029296875 1599.9998779296875
v -273.22998046875 -1211.328125 1599.9998779296875
v -269.7021484375 -1207.80029296875 1699.9998779296875
v -273.22998046875 -1211.328125 1699.9998779296875
v -273.22998046875 -1211.328125 1599.9998779296875
v -273.22998046875 -1218.408203125 1599.9998779296875
v -273.22998046875 -1211.328125 1699.9998779296875
v -273.22998046875 -1218.408203125 1699.9998779296875
v -273.22998046875 -1218.408203125 1599.9998779296875
v -269.7021484375 -1221.93603515625 1599.9998779296875
v -273.22998046875 -1218.408203125 1699.9998779296875
v -269.7021484375 -1221.93603515625 1699.9998779296875
v -269.7021484375 -1221.93603515625 1599.9998779296875
v -262.6220703125 -1221.93603515625 1599.9998779296875
v -269.7021484375 -1221.93603515625 1699.9998779296875
v -262.6220703125 -1221.93603515625 1699.9998779296875
v -262.6220703125 -1221.93603515625 1599.9998779296875
v -259.09423828125 -1218.408203125 1599.9998779296875
v -262.6220703125 -1221.93603515625 1699.9998779296875
v -259.09423828125 -1218.408203125 1699.9998779296875
v -262.6220703125 -1221.93603515625 1699.9998779296875
v -259.09423828125 -1218.408203125 1699.9998779296875
v -259.09423828125 -1211.328125 1699.9998779296875
v -262.6220703125 -1207.80029296875 1699.9998779296875
v -269.7021484375 -1207.80029296875 1699.9998779296875
v -269.7021484375 -1221.93603515625 1699.9998779296875
v -273.22998046875 -1211.328125 1699.9998779296875
v -273.22998046875 -1218.408203125 1699.9998779296875
v -326.26953125 -1151.23291015625 1599.9998779296875
v -326.26953125 -1144.15283203125 1599.9998779296875
v -326.26953125 -1151.23291015625 1699.9998779296875
v -326.26953125 -1144.15283203125 1699.9998779296875
v -326.26953125 -1144.15283203125 1599.9998779296875
v -329.79736328125 -1140.625 1599.9998779296875
v -326.26953125 -1144.15283203125 1699.9998779296875
v -329.79736328125 -1140.625 1699.9998779296875
v -329.79736328125 -1140.625 1599.9998779296875
v -336.87744140625 -1140.625 1599.9998779296875
v -329.79736328125 -1140.625 1699.9998779296875
v -336.87744140625 -1140.625 1699.9998779296875
v -336.87744140625 -1140.625 1599.9998779296875
v -340.4052734375 -1144.15283203125 1599.9998779296875
v -336.87744140625 -1140.625 1699.9998779296875
v -340.4052734375 -1144.15283203125 1699.9998779296875
v -340.4052734375 -1144.15283203125 1599.9998779296875
v -340.4052734375 -1151.23291015625 1599.9998779296875
v -340.4052734375 -1144.15283203125 1699.9998779296875
v -340.4052734375 -1151.23291015625 1699.9998779296875
v -340.4052734375 -1151.23291015625 1599.9998779296875
v -336.87744140625 -1154.7607421875 1599.9998779296875
v -340.4052734375 -1151.23291015625 1699.9998779296875
v -336.87744140625 -1154.7607421875 1699.9998779296875
v -336.87744140625 -1154.7607421875 1599.9998779296875
v -329.79736328125 -1154.7607421875 1599.9998779296875
v -336.87744140625 -1154.7607421875 1699.9998779296875
v -329.79736328125 -1154.7607421875 1699.9998779296875
v -329.79736328125 -1154.7607421875 1599.9998779296875
v -326.26953125 -1151.23291015625 1599.9998779296875
v -329.79736328125 -1154.7607421875 1699.9998779296875
v -326.26953125 -1151.23291015625 1699.9998779296875
v -329.79736328125 -1154.7607421875 1699.9998779296875
v -326.26953125 -1151.23291015625 1699.9998779296875
v -326.26953125 -1144.15283203125 1699.9998779296875
v -329.79736328125 -1140.625 1699.9998779296875
v -336.87744140625 -1140.625 1699.9998779296875
v -336.87744140625 -1154.7607421875 1699.9998779296875
v -340.4052734375 -1144.15283203125 1699.9998779296875
v -340.4052734375 -1151.23291015625 1699.9998779296875
v -1638.037109375 112.86611938476562 -0.0004338469298090786
v -1531.97021484375 218.93301391601562 -0.0004384832864161581
v -1638.037109375 112.8662109375 1189.99951171875
v -1531.97021484375 218.93310546875 1189.99951171875
v -1531.97021484375 218.93301391601562 -0.0004384832864161581
v -1638.037109375 324.9998779296875 -0.00045239226892590523
v -1531.97021484375 218.93310546875 1189.99951171875
v -1638.037109375 325.0 1189.99951171875
v -1638.037109375 324.9998779296875 -0.00045239226892590523
v -1744.10400390625 218.9329833984375 -0.0004477559414226562
v -1638.037109375 325.0 1189.99951171875
v -1744.10400390625 218.93307495117188 1189.99951171875
v -1744.10400390625 218.9329833984375 -0.0004477559414226562
v -1638.037109375 112.86611938476562 -0.0004338469298090786
v -1744.10400390625 218.93307495117188 1189.99951171875
v -1638.037109375 112.8662109375 1189.99951171875
v -1638.037109375 325.0 1189.99951171875
v -1638.037109375 112.8662109375 1189.99951171875
v -1531.97021484375 218.93310546875 1189.99951171875
v -1744.10400390625 218.93307495117188 1189.99951171875
v -592.44384765625 1158.4716796875 -0.00027955230325460434
v -486.3770751953125 1264.53857421875 -0.00028418865986168385
v -592.4439697265625 1158.4718017578125 1599.999755859375
v -486.3770751953125 1264.5386962890625 1599.999755859375
v -486.3770751953125 1264.53857421875 -0.00028418865986168385
v -592.4439697265625 1370.60546875 -0.000298097642371431
v -486.3770751953125 1264.5386962890625 1599.999755859375
v -592.4439697265625 1370.6055908203125 1599.999755859375
v -592.4439697265625 1370.60546875 -0.000298097642371431
v -698.5108642578125 1264.5384521484375 -0.00029346131486818194
v -592.4439697265625 1370.6055908203125 1599.999755859375
v -698.5108642578125 1264.53857421875 1599.9996337890625
v -698.5108642578125 1264.5384521484375 -0.00029346131486818194
v -592.44384765625 1158.4716796875 -0.00027955230325460434
v -698.5108642578125 1264.53857421875 1599.9996337890625
v -592.4439697265625 1158.4718017578125 1599.999755859375
v -486.3770751953125 1264.5386962890625 1599.999755859375
v -520.7398681640625 1256.4820556640625 1599.999755859375
v -524.2677001953125 1252.9542236328125 1599.999755859375
v -534.8756103515625 1256.4820556640625 1599.999755859375
v -534.8756103515625 1263.5621337890625 1599.999755859375
v -584.4239501953125 1192.8712158203125 1599.999755859375
v -587.9517822265625 1189.3433837890625 1599.999755859375
v -592.4439697265625 1158.4718017578125 1599.999755859375
v -531.3477783203125 1252.9542236328125 1599.999755859375
v -592.4439697265625 1370.6055908203125 1599.999755859375
v -591.4429931640625 1334.2652587890625 1599.999755859375
v -587.9151611328125 1330.7374267578125 1599.999755859375
v -587.9151611328125 1323.6573486328125 1599.999755859375
v -584.4239501953125 1199.9512939453125 1599.999755859375
v -520.7398681640625 1263.5621337890625 1599.999755859375
v -524.2677001953125 1267.0899658203125 1599.999755859375
v -531.3477783203125 1267.0899658203125 1599.999755859375
v -698.5108642578125 1264.53857421875 1599.9996337890625
v -665.7349853515625 1267.12646484375 1599.9996337890625
v -662.2071533203125 1270.654296875 1599.9996337890625
v -651.5992431640625 1267.12646484375 1599.9996337890625
v -651.5992431640625 1260.04638671875 1599.9996337890625
v -602.0509033203125 1330.7374267578125 1599.999755859375
v -598.5230712890625 1334.2652587890625 1599.999755859375
v -655.1270751953125 1270.654296875 1599.9996337890625
v -595.0318603515625 1189.3433837890625 1599.999755859375
v -598.5596923828125 1192.8712158203125 1599.999755859375
v -598.5596923828125 1199.9512939453125 1599.999755859375
v -602.0509033203125 1323.6573486328125 1599.999755859375
v -665.7349853515625 1260.04638671875 1599.9996337890625
v -662.2071533203125 1256.5185546875 1599.9996337890625
v -655.1270751953125 1256.5185546875 1599.9996337890625
v -598.5230712890625 1320.1295166015625 1599.999755859375
v -595.0318603515625 1203.4791259765625 1599.999755859375
v -591.4429931640625 1320.1295166015625 1599.999755859375
v -587.9517822265625 1203.4791259765625 1599.999755859375
v -520.7398681640625 1256.4820556640625 1599.999755859375
v -520.7398681640625 1263.5621337890625 1599.999755859375
v -520.7398681640625 1256.4820556640625 1699.9998779296875
v -520.7398681640625 1263.5621337890625 1699.9998779296875
v -520.7398681640625 1263.5621337890625 1599.999755859375
v -524.2677001953125 1267.0899658203125 1599.999755859375
v -520.7398681640625 1263.5621337890625 1699.9998779296875
v -524.2677001953125 1267.0899658203125 1699.9998779296875
v -524.2677001953125 1267.0899658203125 1599.999755859375
v -531.3477783203125 1267.0899658203125 1599.999755859375
v -524.2677001953125 1267.0899658203125 1699.9998779296875
v -531.3477783203125 1267.0899658203125 1699.9998779296875
v -531.3477783203125 1267.0899658203125 1599.999755859375
v -534.8756103515625 1263.5621337890625 1599.999755859375
v -531.3477783203125 1267.0899658203125 1699.9998779296875
v -534.8756103515625 1263.5621337890625 1699.9998779296875
v -534.8756103515625 1263.5621337890625 1599.999755859375
v -534.8756103515625 1256.4820556640625 1599.999755859375
v -534.8756103515625 1263.5621337890625 1699.9998779296875
v -534.8756103515625 1256.4820556640625 1699.9998779296875
v -534.8756103515625 1256.4820556640625 1599.999755859375
v -531.3477783203125 1252.9542236328125 1599.999755859375
v -534.8756103515625 1256.4820556640625 1699.9998779296875
v -531.3477783203125 1252.9542236328125 1699.9998779296875
v -531.3477783203125 1252.9542236328125 1599.999755859375
v -524.2677001953125 1252.9542236328125 1599.999755859375
v -531.3477783203125 1252.9542236328125 1699.9998779296875
v -524.2677001953125 1252.9542236328125 1699.9998779296875
v -524.2677001953125 1252.9542236328125 1599.999755859375
v -520.7398681640625 1256.4820556640625 1599.999755859375
v -524.2677001953125 1252.9542236328125 1699.9998779296875
v -520.7398681640625 1256.4820556640625 1699.9998779296875
v -524.2677001953125 1252.9542236328125 1699.9998779296875
v -520.7398681640625 1256.4820556640625 1699.9998779296875
v -520.7398681640625 1263.5621337890625 1699.9998779296875
v -524.2677001953125 1267.0899658203125 1699.9998779296875
v -531.3477783203125 1267.0899658203125 1699.9998779296875
v -531.3477783203125 1252.9542236328125 1699.9998779296875
v -534.8756103515625 1263.5621337890625 1699.9998779296875
v -534.8756103515625 1256.4820556640625 1699.9998779296875
v -587.9151611328125 1323.6573486328125 1599.999755859375
v -587.9151611328125 1330.7374267578125 1599.999755859375
v -587.9151611328125 1323.6573486328125 1699.9998779296875
v -587.9151611328125 1330.7374267578125 1699.9998779296875
v -587.9151611328125 1330.7374267578125 1599.999755859375
v -591.4429931640625 1334.2652587890625 1599.999755859375
v -587.9151611328125 1330.7374267578125 1699.9998779296875
v -591.4429931640625 1334.2652587890625 1699.9998779296875
v -591.4429931640625 1334.2652587890625 1599.999755859375
v -598.5230712890625 1334.2652587890625 1599.999755859375
v -591.4429931640625 1334.2652587890625 1699.9998779296875
v -598.5230712890625 1334.2652587890625 1699.9998779296875
v -598.5230712890625 1334.2652587890625 1599.999755859375
v -602.0509033203125 1330.7374267578125 1599.999755859375
v -598.5230712890625 1334.2652587890625 1699.9998779296875
v -602.0509033203125 1330.7374267578125 1699.9998779296875
v -602.0509033203125 1330.7374267578125 1599.999755859375
v -602.0509033203125 1323.6573486328125 1599.999755859375
v -602.0509033203125 1330.7374267578125 1699.9998779296875
v -602.0509033203125 1323.6573486328125 1699.9998779296875
v -602.0509033203125 1323.6573486328125 1599.999755859375
v -598.5230712890625 1320.1295166015625 1599.999755859375
v -602.0509033203125 1323.6573486328125 1699.9998779296875
v -598.5230712890625 1320.1295166015625 1699.9998779296875
v -598.5230712890625 1320.1295166015625 1599.999755859375
v -591.4429931640625 1320.1295166015625 1599.999755859375
v -598.5230712890625 1320.1295166015625 1699.9998779296875
v -591.4429931640625 1320.1295166015625 1699.9998779296875
v -591.4429931640625 1320.1295166015625 1599.999755859375
v -587.9151611328125 1323.6573486328125 1599.999755859375
v -591.4429931640625 1320.1295166015625 1699.9998779296875
v -587.9151611328125 1323.6573486328125 1699.9998779296875
v -591.4429931640625 1320.1295166015625 1699.9998779296875
v -587.9151611328125 1323.6573486328125 1699.9998779296875
v -587.9151611328125 1330.7374267578125 1699.9998779296875
v -591.4429931640625 1334.2652587890625 1699.9998779296875
v -598.5230712890625 1334.2652587890625 1699.9998779296875
v -598.5230712890625 1320.1295166015625 1699.9998779296875
v -602.0509033203125 1330.7374267578125 1699.9998779296875
v -602.0509033203125 1323.6573486328125 1699.9998779296875
v -584.4239501953125 1192.8712158203125 1599.999755859375
v -584.4239501953125 1199.9512939453125 1599.999755859375
v -584.4239501953125 1192.8712158203125 1699.9998779296875
v -584.4239501953125 1199.9512939453125 1699.9998779296875
v -584.4239501953125 1199.9512939453125 1599.999755859375
v -587.9517822265625 1203.4791259765625 1599.999755859375
v -584.4239501953125 1199.9512939453125 1699.9998779296875
v -587.9517822265625 1203.4791259765625 1699.9998779296875
v -587.9517822265625 1203.4791259765625 1599.999755859375
v -595.0318603515625 1203.4791259765625 1599.999755859375
v -587.9517822265625 1203.4791259765625 1699.9998779296875
v -595.0318603515625 1203.4791259765625 1699.9998779296875
v -595.0318603515625 1203.4791259765625 1599.999755859375
v -598.5596923828125 1199.9512939453125 1599.999755859375
v -595.0318603515625 1203.4791259765625 1699.9998779296875
v -598.5596923828125 1199.9512939453125 1699.9998779296875
v -598.5596923828125 1199.9512939453125 1599.999755859375
v -598.5596923828125 1192.8712158203125 1599.999755859375
v -598.5596923828125 1199.9512939453125 1699.9998779296875
v -598.5596923828125 1192.8712158203125 1699.9998779296875
v -598.5596923828125 1192.8712158203125 1599.999755859375
v -595.0318603515625 1189.3433837890625 1599.999755859375
v -598.5596923828125 1192.8712158203125 1699.9998779296875
v -595.0318603515625 1189.3433837890625 1699.9998779296875
v -595.0318603515625 1189.3433837890625 1599.999755859375
v -587.9517822265625 1189.3433837890625 1599.999755859375
v -595.0318603515625 1189.3433837890625 1699.9998779296875
v -587.9517822265625 1189.3433837890625 1699.9998779296875
v -587.9517822265625 1189.3433837890625 1599.999755859375
v -584.4239501953125 1192.8712158203125 1599.999755859375
v -587.9517822265625 1189.3433837890625 1699.9998779296875
v -584.4239501953125 1192.8712158203125 1699.9998779296875
v -587.9517822265625 1189.3433837890625 1699.9998779296875
v -584.4239501953125 1192.8712158203125 1699.9998779296875
v -584.4239501953125 1199.9512939453125 1699.9998779296875
v -587.9517822265625 1203.4791259765625 1699.9998779296875
v -595.0318603515625 1203.4791259765625 1699.9998779296875
v -595.0318603515625 1189.3433837890625 1699.9998779296875
v -598.5596923828125 1199.9512939453125 1699.9998779296875
v -598.5596923828125 1192.8712158203125 1699.9998779296875
v -651.5992431640625 1260.04638671875 1599.9996337890625
v -651.5992431640625 1267.12646484375 1599.9996337890625
v -651.5992431640625 1260.04638671875 1699.999755859375
v -651.5992431640625 1267.12646484375 1699.999755859375
v -651.5992431640625 1267.12646484375 1599.9996337890625
v -655.1270751953125 1270.654296875 1599.9996337890625
v -651.5992431640625 1267.12646484375 1699.999755859375
v -655.1270751953125 1270.654296875 1699.999755859375
v -655.1270751953125 1270.654296875 1599.9996337890625
v -662.2071533203125 1270.654296875 1599.9996337890625
v -655.1270751953125 1270.654296875 1699.999755859375
v -662.2071533203125 1270.654296875 1699.999755859375
v -662.2071533203125 1270.654296875 1599.9996337890625
v -665.7349853515625 1267.12646484375 1599.9996337890625
v -662.2071533203125 1270.654296875 1699.999755859375
v -665.7349853515625 1267.12646484375 1699.999755859375
v -665.7349853515625 1267.12646484375 1599.9996337890625
v -665.7349853515625 1260.04638671875 1599.9996337890625
v -665.7349853515625 1267.12646484375 1699.999755859375
v -665.7349853515625 1260.04638671875 1699.999755859375
v -665.7349853515625 1260.04638671875 1599.9996337890625
v -662.2071533203125 1256.5185546875 1599.9996337890625
v -665.7349853515625 1260.04638671875 1699.999755859375
v -662.2071533203125 1256.5185546875 1699.999755859375
v -662.2071533203125 1256.5185546875 1599.9996337890625
v -655.1270751953125 1256.5185546875 1599.9996337890625
v -662.2071533203125 1256.5185546875 1699.999755859375
v -655.1270751953125 1256.5185546875 1699.999755859375
v -655.1270751953125 1256.5185546875 1599.9996337890625
v -651.5992431640625 1260.04638671875 1599.9996337890625
v -655.1270751953125 1256.5185546875 1699.999755859375
v -651.5992431640625 1260.04638671875 1699.999755859375
v -655.1270751953125 1256.5185546875 1699.999755859375
v -651.5992431640625 1260.04638671875 1699.999755859375
v -651.5992431640625 1267.12646484375 1699.999755859375
v -655.1270751953125 1270.654296875 1699.999755859375
v -662.2071533203125 1270.654296875 1699.999755859375
v -662.2071533203125 1256.5185546875 1699.999755859375
v -665.7349853515625 1267.12646484375 1699.999755859375
v -665.7349853515625 1260.04638671875 1699.999755859375
v 1719.39697265625 812.390380859375 799.9996948242188
v 835.5225830078125 -71.50846862792969 799.999267578125
v 1719.39697265625 812.390380859375 919.9996948242188
v 835.5225830078125 -71.50846862792969 919.9993286132812
v 835.5223999023438 -71.50871276855469 799.999267578125
v 856.73828125 -92.72454071044922 799.999267578125
v 835.5223388671875 -71.50871276855469 919.9993286132812
v 856.73828125 -92.72452545166016 919.9993286132812
v 856.73828125 -92.72454071044922 799.999267578125
v 1740.6005859375 791.1744384765625 799.9996948242188
v 856.73828125 -92.72452545166016 919.9993286132812
v 1740.6005859375 791.1744384765625 919.9996948242188
v 1740.6005859375 791.174560546875 799.9996948242188
v 1719.39697265625 812.390380859375 799.9996948242188
v 1740.6005859375 791.174560546875 919.9996948242188
v 1719.39697265625 812.390380859375 919.9996948242188
v 1143.11083984375 236.08840942382812 919.9996337890625
v 1164.29443359375 214.8927001953125 919.9996337890625
v 1415.336181640625 508.32110595703125 919.9996337890625
v 1436.5478515625 487.1094970703125 919.9996337890625
v 1740.576416015625 791.1985473632812 919.9991455078125
v 1719.39697265625 812.390380859375 919.9991455078125
v 1722.900390625 815.9425048828125 919.9991455078125
v 1744.10400390625 794.7266845703125 919.9991455078125
v 1143.0908203125 236.1085205078125 919.9994506835938
v 835.5223388671875 -71.50875854492188 919.9993286132812
v 1143.0908203125 236.1085205078125 1039.99951171875
v 835.5223388671875 -71.50874328613281 1039.999267578125
v 835.5223388671875 -71.50869750976562 1039.999267578125
v 856.73828125 -92.72451782226562 1039.999267578125
v 1164.2943115234375 214.8927001953125 919.9994506835938
v 856.73828125 -92.72451782226562 1039.999267578125
v 1164.2943115234375 214.8927001953125 1039.99951171875
v 1164.29443359375 214.8927001953125 919.9994506835938
v 1143.0908203125 236.1085205078125 919.9994506835938
v 1164.29443359375 214.8927001953125 1039.99951171875
v 1143.0908203125 236.1085205078125 1039.99951171875
v 1143.11083984375 236.08840942382812 1039.9996337890625
v 1719.39697265625 812.390380859375 1039.99951171875
v 1164.29443359375 214.8927001953125 1039.9996337890625
v 1740.6005859375 791.174560546875 1039.99951171875
v 1719.39697265625 812.390380859375 1039.99951171875
v 835.5225830078125 -71.50845336914062 1039.999267578125
v 1719.3968505859375 812.3904418945312 1159.99951171875
v 835.5225219726562 -71.50843811035156 1159.999267578125
v 835.5223388671875 -71.50868225097656 1159.999267578125
v 856.73828125 -92.7245101928711 1159.999267578125
v 1740.6005859375 791.1744384765625 1039.99951171875
v 856.73828125 -92.7245101928711 1159.999267578125
v 1740.6004638671875 791.1744995117188 1159.99951171875
v 1740.6005859375 791.174560546875 1039.99951171875
v 1719.39697265625 812.390380859375 1039.99951171875
v 1740.6004638671875 791.1746215820312 1159.99951171875
v 1719.3968505859375 812.3904418945312 1159.99951171875
v 835.5223388671875 -71.50868225097656 1159.999267578125
v 856.73828125 -92.7245101928711 1159.999267578125
v 1719.3968505859375 812.3904418945312 1159.99951171875
v 1740.6004638671875 791.1746215820312 1159.99951171875
v 1722.900390625 815.9425048828125 919.9991455078125
v 1415.33203125 508.32525634765625 919.9986572265625
v 1722.900390625 815.9425048828125 1039.9990234375
v 1415.33203125 508.32525634765625 1039.9986572265625
v 1415.33203125 508.32525634765625 919.9986572265625
v 1436.5478515625 487.10943603515625 919.9986572265625
v 1415.33203125 508.32525634765625 1039.9986572265625
v 1436.5478515625 487.10943603515625 1039.998779296875
v 1436.5478515625 487.1094970703125 919.9986572265625
v 1744.10400390625 794.7266845703125 919.9991455078125
v 1436.5478515625 487.1094970703125 1039.998779296875
v 1744.10400390625 794.7266845703125 1039.9990234375
v 1744.10400390625 794.7266845703125 919.9991455078125
v 1722.900390625 815.9425048828125 919.9991455078125
v 1744.10400390625 794.7266845703125 1039.9990234375
v 1722.900390625 815.9425048828125 1039.9990234375
v 1415.33203125 508.32525634765625 1039.9986572265625
v 1436.5478515625 487.1094970703125 1039.998779296875
v 1722.900390625 815.9425048828125 1039.9990234375
v 1744.10400390625 794.7266845703125 1039.9990234375
v -293.81103515625 -1070.08056640625 799.9983520507812
v -1177.7099609375 -186.20602416992188 799.9979248046875
v -293.81103515625 -1070.08056640625 924.9983520507812
v -1177.7099609375 -186.2060089111328 924.9979248046875
v -1177.7099609375 -186.20602416992188 799.9979248046875
v -1195.66650390625 -204.10157775878906 799.998291015625
v -1177.7099609375 -186.2060089111328 924.9979248046875
v -1195.66650390625 -204.1015625 924.998291015625
v -1195.66650390625 -204.10162353515625 799.998291015625
v -311.767578125 -1087.9638671875 799.998779296875
v -1195.66650390625 -204.1016082763672 924.998291015625
v -311.767578125 -1087.9638671875 924.998779296875
v -311.767578125 -1087.9638671875 799.998779296875
v -293.81103515625 -1070.08056640625 799.9983520507812
v -311.767578125 -1087.9638671875 924.998779296875
v -293.81103515625 -1070.08056640625 924.9983520507812
v -870.113037109375 -493.79449462890625 924.9984130859375
v -888.04931640625 -511.6576843261719 924.9984130859375
v -597.880126953125 -766.0198364257812 924.9984741210938
v -615.83251953125 -783.9111328125 924.9984741210938
v -311.743408203125 -1087.93994140625 924.9979248046875
v -293.81103515625 -1070.08056640625 924.9979248046875
v -290.2587890625 -1073.583984375 924.9979248046875
v -308.21533203125 -1091.46728515625 924.998291015625
v -870.0927734375 -493.77435302734375 924.9982299804688
v -1177.7099609375 -186.20596313476562 924.998046875
v -870.0927734375 -493.77435302734375 974.9982299804688
v -1177.7099609375 -186.20596313476562 974.998046875
v -1177.7099609375 -186.2060089111328 924.998046875
v -1195.66650390625 -204.1015625 924.9984130859375
v -1177.7099609375 -186.2060089111328 974.998046875
v -1195.66650390625 -204.1015625 974.9984130859375
v -1195.66650390625 -204.10166931152344 924.9984130859375
v -888.04931640625 -511.6577453613281 924.9985961914062
v -1195.66650390625 -204.10165405273438 974.9984130859375
v -888.04931640625 -511.6577453613281 974.9985961914062
v -888.04931640625 -511.6576843261719 924.9985961914062
v -870.0927734375 -493.7744140625 924.9982299804688
v -888.04931640625 -511.6576843261719 974.9985961914062
v -870.0927734375 -493.7744140625 974.9982299804688
v -1177.7099609375 -186.2060089111328 974.998046875
v -1195.66650390625 -204.1016082763672 974.9984130859375
v -870.0927734375 -493.7743835449219 974.9982299804688
v -888.04931640625 -511.6576843261719 974.9985961914062
v -290.2587890625 -1073.583984375 924.9979248046875
v -597.8759765625 -766.015625 924.9974975585938
v -290.2587890625 -1073.583984375 1049.998046875
v -597.8759765625 -766.0155639648438 1049.99755859375
v -597.8759765625 -766.015625 924.9974975585938
v -615.83251953125 -783.9111328125 924.9979248046875
v -597.8759765625 -766.0155639648438 1049.99755859375
v -615.83251953125 -783.9110717773438 1049.9979248046875
v -615.83251953125 -783.9111328125 924.9979248046875
v -308.21533203125 -1091.46728515625 924.998291015625
v -615.83251953125 -783.9110717773438 1049.9979248046875
v -308.21533203125 -1091.46728515625 1049.9984130859375
v -308.21533203125 -1091.46728515625 924.998291015625
v -290.2587890625 -1073.583984375 924.9979248046875
v -308.21533203125 -1091.46728515625 1049.9984130859375
v -290.2587890625 -1073.583984375 1049.998046875
v -597.8759765625 -766.0155639648438 1049.99755859375
v -615.83251953125 -783.9110717773438 1049.9979248046875
v -290.2587890625 -1073.583984375 1049.998046875
v -308.21533203125 -1091.46728515625 1049.9984130859375
v -287.1092529296875 -1246.8626708984375 1207.9998779296875
v -287.1092529296875 -1246.8626708984375 1199.9998779296875
v -782.0792236328125 -751.9097290039062 808.0001831054688
v -782.0792236328125 -751.9097290039062 800.0001831054688
v -782.0792236328125 -751.9098510742188 800.0001831054688
v -905.822021484375 -875.6647338867188 800.0
v -782.0792236328125 -751.9098510742188 808.0001831054688
v -905.822021484375 -875.6647338867188 808.0
v -410.85205078125 -1370.6055908203125 1199.999755859375
v -905.822021484375 -875.6647338867188 808.0
v -905.822021484375 -875.6647338867188 800.0
v -410.85205078125 -1370.6055908203125 1207.999755859375
v -410.8521728515625 -1370.60546875 1199.999755859375
v -287.109375 -1246.8626708984375 1199.9998779296875
v -410.8521728515625 -1370.60546875 1207.999755859375
v -287.109375 -1246.8626708984375 1207.9998779296875
v -782.0792236328125 -751.9097900390625 800.0001831054688
v -287.109375 -1246.8626708984375 1199.9998779296875
v -905.822021484375 -875.6647338867188 800.0
v -410.8521728515625 -1370.60546875 1199.999755859375
v -782.0792236328125 -751.9097900390625 808.0001831054688
v -905.822021484375 -875.6647338867188 808.0
v -287.109375 -1246.8626708984375 1207.9998779296875
v -410.8521728515625 -1370.60546875 1207.999755859375
f 214 213 215
f 216 214 215
f 14 13 15
f 16 14 15
f 10 9 11
f 12 10 11
f 6 5 7
f 8 6 7
f 2 1 3
f 4 2 3
f 738 737 739
f 739 740 738
f 734 733 735
f 736 734 735
f 730 729 731
f 732 730 731
f 726 725 727
f 728 726 727
f 722 721 723
f 724 722 723
f 718 717 719
f 719 720 718
f 714 713 715
f 716 714 715
f 710 709 711
f 712 710 711
f 706 705 707
f 708 706 707
f 702 701 703
f 704 702 703
f 698 697 699
f 699 700 698
f 694 693 695
f 696 694 695
f 690 689 691
f 692 690 691
f 686 685 687
f 688 686 687
f 682 681 683
f 684 682 683
f 674 673 675
f 675 676 674
f 670 669 671
f 672 670 671
f 666 665 667
f 668 666 667
f 662 661 663
f 664 662 663
f 658 657 659
f 660 658 659
f 458 457 459
f 460 458 459
f 454 453 455
f 456 454 455
f 450 449 451
f 452 450 451
f 446 445 447
f 448 446 447
f 442 444 441
f 442 441 443
f 438 437 439
f 440 438 439
f 434 433 435
f 436 434 435
f 430 429 431
f 432 430 431
f 426 425 427
f 428 426 427
f 226 225 227
f 228 226 227
f 222 221 223
f 224 222 223
f 218 217 219
f 220 218 219
f 467 466 468
f 468 486 467
f 486 468 487
f 487 468 482
f 482 468 492
f 466 469 468
f 464 469 466
f 465 464 466
f 466 474 465
f 483 489 482
f 489 487 482
f 488 487 489
f 488 489 493
f 493 494 488
f 494 493 495
f 495 496 494
f 496 495 473
f 473 474 496
f 473 472 474
f 484 483 470
f 470 471 484
f 471 470 472
f 474 472 465
f 472 470 465
f 465 470 477
f 477 470 476
f 476 470 461
f 475 476 461
f 462 475 461
f 462 461 463
f 463 461 468
f 469 463 468
f 492 468 491
f 491 468 478
f 490 491 478
f 479 490 478
f 479 478 480
f 480 478 470
f 485 480 470
f 483 485 470
f 481 485 483
f 482 481 483
f 678 677 679
f 680 679 677
f 242 240 233
f 240 238 233
f 233 238 245
f 245 238 244
f 244 238 229
f 243 244 229
f 230 243 229
f 230 229 231
f 231 229 236
f 237 231 236
f 235 234 236
f 236 254 235
f 254 236 255
f 255 236 250
f 250 236 260
f 234 237 236
f 232 237 234
f 233 232 234
f 234 242 233
f 251 257 250
f 257 255 250
f 256 255 257
f 256 257 261
f 261 262 256
f 262 261 263
f 263 264 262
f 264 263 241
f 241 242 264
f 241 240 242
f 252 251 238
f 238 239 252
f 239 238 240
f 260 236 259
f 259 236 246
f 258 259 246
f 247 258 246
f 247 246 248
f 248 246 238
f 253 248 238
f 251 253 238
f 249 253 251
f 250 249 251
f 40 39 26
f 26 27 40
f 27 26 28
f 30 28 21
f 28 26 21
f 21 26 33
f 33 26 32
f 32 26 17
f 31 32 17
f 18 31 17
f 18 17 19
f 19 17 24
f 25 19 24
f 23 22 24
f 24 42 23
f 42 24 43
f 43 24 38
f 38 24 48
f 22 25 24
f 20 25 22
f 21 20 22
f 22 30 21
f 39 45 38
f 45 43 38
f 44 43 45
f 44 45 50
f 50 49 44
f 49 50 52
f 52 51 49
f 51 52 29
f 29 30 51
f 29 28 30
f 48 24 47
f 47 24 34
f 46 47 34
f 35 46 34
f 35 34 36
f 36 34 26
f 41 36 26
f 39 41 26
f 37 41 39
f 38 37 39
f 80 78 79
f 78 77 79
f 74 73 75
f 76 74 75
f 70 69 71
f 72 70 71
f 66 65 67
f 68 66 67
f 62 61 63
f 64 62 63
f 58 57 59
f 60 58 59
f 54 53 55
f 56 54 55
f 646 645 647
f 648 646 647
f 642 641 643
f 644 642 643
f 638 637 639
f 640 638 639
f 634 633 635
f 636 634 635
f 630 629 631
f 632 630 631
f 626 625 627
f 628 626 627
f 622 621 623
f 624 622 623
f 618 617 619
f 620 618 619
f 606 605 607
f 608 606 607
f 602 601 603
f 604 602 603
f 598 597 599
f 600 598 599
f 594 593 595
f 596 594 595
f 590 589 591
f 592 590 591
f 586 585 587
f 588 586 587
f 582 581 583
f 584 582 583
f 578 577 579
f 580 578 579
f 566 565 567
f 568 566 567
f 562 561 563
f 564 562 563
f 558 557 559
f 560 558 559
f 554 553 555
f 556 554 555
f 550 549 551
f 552 550 551
f 546 545 547
f 548 546 547
f 542 541 543
f 544 542 543
f 538 537 539
f 540 538 539
f 526 525 527
f 528 526 527
f 522 521 523
f 524 522 523
f 518 517 519
f 520 518 519
f 514 513 515
f 516 514 515
f 510 509 511
f 512 510 511
f 506 505 507
f 508 506 507
f 502 501 503
f 504 502 503
f 498 497 499
f 500 498 499
f 414 413 415
f 416 414 415
f 410 409 411
f 412 410 411
f 406 405 407
f 408 406 407
f 402 401 403
f 404 402 403
f 398 397 399
f 400 398 399
f 394 393 395
f 396 394 395
f 390 389 391
f 392 390 391
f 386 385 387
f 388 386 387
f 374 373 375
f 376 374 375
f 370 369 371
f 372 370 371
f 366 365 367
f 368 366 367
f 362 361 363
f 364 362 363
f 358 357 359
f 360 358 359
f 354 353 355
f 356 354 355
f 350 349 351
f 352 350 351
f 346 345 347
f 348 346 347
f 334 333 335
f 336 334 335
f 330 329 331
f 332 330 331
f 326 325 327
f 328 326 327
f 322 321 323
f 324 322 323
f 318 317 319
f 320 318 319
f 314 313 315
f 316 314 315
f 310 309 311
f 312 310 311
f 306 305 307
f 308 306 307
f 294 293 295
f 296 294 295
f 290 289 291
f 292 290 291
f 286 285 287
f 288 286 287
f 282 281 283
f 284 282 283
f 278 277 279
f 280 278 279
f 274 273 275
f 276 274 275
f 270 269 271
f 272 270 271
f 266 265 267
f 268 266 267
f 202 201 203
f 204 202 203
f 198 197 199
f 200 198 199
f 194 193 195
f 196 194 195
f 190 189 191
f 192 190 191
f 186 185 187
f 188 186 187
f 182 181 183
f 184 182 183
f 178 177 179
f 180 178 179
f 174 173 175
f 176 174 175
f 162 161 163
f 164 162 163
f 158 157 159
f 160 158 159
f 154 153 155
f 156 154 155
f 150 149 151
f 152 150 151
f 146 145 147
f 148 146 147
f 142 141 143
f 144 142 143
f 138 137 139
f 140 138 139
f 134 133 135
f 136 134 135
f 122 121 123
f 124 122 123
f 118 117 119
f 120 118 119
f 114 113 115
f 116 114 115
f 110 109 111
f 112 110 111
f 106 105 107
f 108 106 107
f 102 101 103
f 104 102 103
f 98 97 99
f 100 98 99
f 94 93 95
f 96 94 95
f 82 81 83
f 84 82 83
f 530 529 531
f 529 532 531
f 529 534 532
f 534 533 532
f 534 536 533
f 536 535 533
f 166 165 167
f 165 168 167
f 165 170 168
f 170 169 168
f 170 172 169
f 172 171 169
f 132 131 129
f 130 132 129
f 130 129 128
f 125 130 128
f 125 128 127
f 126 125 127
f 304 303 301
f 302 304 301
f 302 301 300
f 297 302 300
f 297 300 299
f 298 297 299
f 418 417 419
f 417 420 419
f 417 422 420
f 422 421 420
f 422 424 421
f 424 423 421
f 650 649 651
f 649 652 651
f 649 654 652
f 654 653 652
f 654 656 653
f 656 655 653
f 86 85 87
f 85 88 87
f 85 90 88
f 90 89 88
f 90 92 89
f 92 91 89
f 610 609 611
f 609 612 611
f 609 614 612
f 614 613 612
f 614 616 613
f 616 615 613
f 206 205 207
f 205 208 207
f 205 210 208
f 210 209 208
f 210 212 209
f 212 211 209
f 570 569 571
f 569 572 571
f 569 574 572
f 574 573 572
f 574 576 573
f 576 575 573
f 338 337 339
f 337 340 339
f 337 342 340
f 342 341 340
f 342 344 341
f 344 343 341
f 378 377 379
f 377 380 379
f 377 382 380
f 382 381 380
f 382 384 381
f 384 383 381
f 742 741 743
f 744 742 743
f 802 801 803
f 803 804 802
f 798 797 799
f 800 798 799
f 794 793 795
f 796 794 795
f 790 789 791
f 792 790 791
f 786 785 787
f 788 786 787
f 782 781 783
f 783 784 782
f 778 777 779
f 780 778 779
f 774 773 775
f 776 774 775
f 770 769 771
f 772 770 771
f 766 765 767
f 768 766 767
f 758 757 759
f 759 760 758
f 754 753 755
f 756 754 755
f 750 749 751
f 752 750 751
f 746 745 747
f 748 746 747
f 762 761 763
f 764 763 761
f 806 805 807
f 807 808 806
f 826 825 827
f 827 828 826
f 822 821 823
f 823 824 822
f 818 817 819
f 820 818 819
f 810 809 811
f 812 810 811
f 813 814 816
f 814 813 815
