# from FinancialDistrict_Block41_Upmarket Corporate (UC)_0007_LOD_0.pskx
v -403.0596618652344 -767.21435546875 -0.02503618411719799
v -544.5379028320312 -908.656005859375 -0.025130001828074455
v -403.0597229003906 -767.2142333984375 1000.0250244140625
v -544.5379638671875 -908.6558837890625 1000.02490234375
v -544.5379638671875 -908.62060546875 -0.025130003690719604
v -403.0840759277344 -1050.074462890625 -0.025111453607678413
v -544.5379638671875 -908.6204833984375 1000.02490234375
v -403.0841369628906 -1050.074462890625 1000.02490234375
v -403.089599609375 929.86328125 -0.02498454973101616
v -403.0850830078125 304.8132629394531 -0.024929901584982872
v -403.0850830078125 304.8133239746094 365.9750671386719
v -403.08172607421875 -160.13674926757812 365.97509765625
v -403.0849609375 289.8133850097656 420.0250244140625
v -403.0830078125 9.83837890625 979.9500122070312
v -403.08197021484375 -130.13662719726562 979.9750366210938
v -403.08966064453125 929.8634033203125 1000.0250244140625
v -403.0849914550781 289.78839111328125 560.0000610351562
v -403.083984375 149.83837890625 979.9500122070312
v -403.0849914550781 289.78839111328125 700.0000610351562
v -403.08502197265625 289.8134460449219 979.9749755859375
v -403.0849914550781 289.78839111328125 840.0
v -403.08172607421875 -160.13674926757812 -0.024889253079891205
v -403.07733154296875 -767.257080078125 -0.025036176666617393
v -403.077392578125 -767.2569580078125 1000.0250244140625
v -403.083984375 149.83831787109375 420.050048828125
v -403.08197021484375 -130.1116180419922 840.0000610351562
v -403.08294677734375 9.8382568359375 420.050048828125
v -403.08197021484375 -130.1116180419922 700.0001220703125
v -403.08197021484375 -130.13674926757812 420.0250549316406
v -403.08197021484375 -130.1117401123047 560.0001220703125
v -393.0596618652344 -771.357177734375 1010.0250854492188
v -530.3948974609375 -908.6568603515625 979.9749145507812
v -393.0596618652344 -771.357177734375 979.9749755859375
v -530.3948974609375 -908.6568603515625 1010.0249633789062
v -393.0500793457031 -771.3694458007812 980.0
v -586.9671020507812 -908.642822265625 979.9999389648438
v -433.0855712890625 -754.762451171875 980.0
v -530.3594970703125 -908.6818237304688 979.9999389648438
v -433.0597839355469 -754.7855224609375 979.9749755859375
v -586.9671020507812 -908.6531982421875 1010.0249633789062
v -433.0597839355469 -754.7855224609375 1010.0250854492188
v -586.9671020507812 -908.6531982421875 979.9749145507812
v -433.0855712890625 -754.762451171875 1010.0000610351562
v -530.3594970703125 -908.6818237304688 1009.9999389648438
v -393.0500793457031 -771.3694458007812 1010.0000610351562
v -586.9671020507812 -908.642822265625 1009.9999389648438
v -530.3948974609375 -908.6214599609375 1010.0249633789062
v -396.0130310058594 -1043.00341796875 979.9749145507812
v -530.3948974609375 -908.6214599609375 979.9749145507812
v -396.0130310058594 -1043.00341796875 1010.0249633789062
v -530.3594970703125 -908.5964965820312 979.9999389648438
v -424.31494140625 -1071.3052978515625 979.9999389648438
v -586.9671020507812 -908.628173828125 979.9999389648438
v -395.9953308105469 -1042.9857177734375 979.9999389648438
v -586.9671020507812 -908.6177978515625 979.9749145507812
v -424.2972717285156 -1071.28759765625 1010.0249633789062
v -586.9671020507812 -908.6177978515625 1010.0249633789062
v -424.2972717285156 -1071.28759765625 979.9749145507812
v -586.9671020507812 -908.628173828125 1009.9999389648438
v -395.9953308105469 -1042.9857177734375 1009.9999389648438
v -530.3594970703125 -908.5964965820312 1009.9999389648438
v -424.31494140625 -1071.3052978515625 1009.9999389648438
v -393.08966064453125 929.8634033203125 1010.0250854492188
v -393.07733154296875 -771.39990234375 979.9749755859375
v -393.08966064453125 929.8634033203125 979.9749755859375
v -393.07733154296875 -771.39990234375 1010.0250854492188
v -393.0646667480469 929.8634033203125 980.0
v -433.1120300292969 -754.8262939453125 980.0
v -433.1146545410156 929.8631591796875 980.0
v -393.0618896484375 -771.39794921875 980.0
v -433.08966064453125 929.8631591796875 979.9749755859375
v -433.07745361328125 -754.8282470703125 1010.0250854492188
v -433.08966064453125 929.8631591796875 1010.0250854492188
v -433.07745361328125 -754.8282470703125 979.9749755859375
v -433.1146545410156 929.8631591796875 1010.0000610351562
v -393.0618896484375 -771.39794921875 1010.0000610351562
v -393.0646667480469 929.8634033203125 1010.0000610351562
v -433.1120300292969 -754.8262939453125 1010.0000610351562
v -396.0130310058594 -1042.968017578125 1010.0249633789062
v -424.3326110839844 -1071.28759765625 979.9749145507812
v -396.0130310058594 -1042.968017578125 979.9749145507812
v -424.3326110839844 -1071.28759765625 1010.0249633789062
v -393.0646667480469 929.83837890625 979.9749755859375
v -433.1146545410156 929.838134765625 979.9749755859375
v -393.0646667480469 929.83837890625 1010.0250854492188
v -433.1146545410156 929.838134765625 1010.0250854492188
v -403.0597229003906 -767.2142333984375 999.9749755859375
v -544.5379638671875 -908.6558837890625 999.9746704101562
v -403.0597229003906 -767.2142333984375 1010.0250854492188
v -544.5379638671875 -908.6558837890625 1010.024658203125
v -544.5379638671875 -908.6204833984375 999.9746704101562
v -403.0840759277344 -1050.074462890625 999.974609375
v -544.5379638671875 -908.6204833984375 1010.024658203125
v -403.0840759277344 -1050.074462890625 1010.0245971679688
v -403.1194152832031 -1050.074462890625 999.974609375
v 586.967041015625 -60.036521911621094 999.9751586914062
v -403.1194152832031 -1050.074462890625 1010.0245971679688
v 586.967041015625 -60.036521911621094 1010.0252685546875
v 586.9671630859375 -60.071876525878906 999.9751586914062
v -403.107421875 929.8560791015625 999.9749755859375
v 586.9671630859375 -60.071876525878906 1010.0252685546875
v -403.107421875 929.8560791015625 1010.0250854492188
v -403.08966064453125 929.8634033203125 999.9749755859375
v -403.077392578125 -767.2569580078125 999.9749755859375
v -403.08966064453125 929.8634033203125 1010.0250854492188
v -403.077392578125 -767.2569580078125 1010.0250854492188
v -403.0597229003906 -767.2142333984375 1009.9750366210938
v -544.5379638671875 -908.6558837890625 1009.9747314453125
v -403.0600891113281 -767.2135009765625 9800.025390625
v -544.538330078125 -908.6551513671875 9800.025390625
v -544.5379638671875 -908.6204833984375 1009.9747314453125
v -403.0719299316406 -1050.074462890625 1009.974609375
v -544.5383911132812 -908.6197509765625 9800.025390625
v -403.0722961425781 -1050.073486328125 9800.0244140625
v -403.08966064453125 929.8634033203125 1009.9750366210938
v -403.077392578125 -767.256591796875 1009.9750366210938
v -403.09002685546875 929.8641357421875 9800.025390625
v -403.0777587890625 -767.255859375 9800.025390625
v -544.5156860351562 -908.6673583984375 9800.0
v -403.03509521484375 -767.2489013671875 9800.0
v -403.03515625 929.8446655273438 9800.0
v -544.5157470703125 1071.2874755859375 9799.9990234375
v -544.5156860351562 -908.6673583984375 9600.0
v -403.03515625 929.8446655273438 9600.0
v -403.03509521484375 -767.2489013671875 9600.0
v -544.5157470703125 1071.2874755859375 9599.9990234375
v -544.5084228515625 1071.2947998046875 9800.0244140625
v -544.5083618164062 -908.6746826171875 9599.974609375
v -544.5083618164062 -908.6746826171875 9800.025390625
v -544.5084228515625 1071.2947998046875 9599.9736328125
v -544.5260620117188 -908.6673583984375 9800.025390625
v -403.0600891113281 -767.2135009765625 9599.974609375
v -403.0600891113281 -767.2135009765625 9800.025390625
v -544.5260620117188 -908.6673583984375 9599.974609375
v -403.0777587890625 -767.2562255859375 9800.025390625
v -403.07781982421875 929.8519897460938 9599.974609375
v -403.07781982421875 929.8519897460938 9800.025390625
v -403.0777587890625 -767.2562255859375 9599.974609375
v -403.0601501464844 929.8092651367188 9800.025390625
v -544.526123046875 1071.2874755859375 9599.9736328125
v -544.526123046875 1071.2874755859375 9800.0244140625
v -403.0601501464844 929.8092651367188 9599.974609375
v -544.5559692382812 -908.637451171875 9800.0
v -403.0899353027344 -1050.0911865234375 9799.9990234375
v -403.12042236328125 -767.2135009765625 9800.0
v 586.9843139648438 -60.053466796875 9800.0
v -403.09735107421875 929.8568115234375 9800.0
v -403.0646057128906 329.8382568359375 -0.02493209019303322
v -428.1145935058594 329.8382568359375 -0.024933183565735817
v -403.0646057128906 329.83831787109375 368.0250549316406
v -428.1145935058594 329.83831787109375 368.0250549316406
v -428.089599609375 329.8632507324219 -0.024933187291026115
v -428.089599609375 304.8132629394531 -0.02493099309504032
v -428.089599609375 329.8633117675781 368.0250549316406
v -428.089599609375 304.8133239746094 368.0250549316406
v -428.1145935058594 304.8382568359375 -0.02493099682033062
v -403.0646057128906 304.8382568359375 -0.02492990531027317
v -428.1145935058594 304.83831787109375 368.0250549316406
v -403.0646057128906 304.83831787109375 368.0250549316406
v -428.1145935058594 304.8633117675781 368.00006103515625
v -403.0646057128906 304.8633117675781 368.00006103515625
v -428.11456298828125 -195.18673706054688 368.0001220703125
v -403.0645751953125 -195.18673706054688 368.0001220703125
v -428.089599609375 329.8633117675781 367.9750671386719
v -428.0895690917969 -195.18673706054688 367.9751281738281
v -428.089599609375 329.8633117675781 418.02508544921875
v -428.0895690917969 -195.18673706054688 418.025146484375
v -428.11456298828125 -195.1617431640625 367.9751281738281
v -403.0645751953125 -195.1617431640625 367.9751281738281
v -428.11456298828125 -195.1617431640625 418.025146484375
v -403.0645751953125 -195.1617431640625 418.025146484375
v -403.0646057128906 329.83831787109375 367.9750671386719
v -428.1145935058594 329.83831787109375 367.9750671386719
v -403.0646057128906 329.83831787109375 418.02508544921875
v -428.1145935058594 329.83831787109375 418.02508544921875
v -428.1145935058594 304.8633117675781 418.0000915527344
v -428.11456298828125 -170.18673706054688 418.0001220703125
v -403.0646057128906 304.8633117675781 418.0000915527344
v -403.0646057128906 -170.18673706054688 418.0001220703125
v -403.0646057128906 329.83831787109375 417.97509765625
v -428.1145935058594 329.83831787109375 417.97509765625
v -403.06463623046875 329.83837890625 988.0250854492188
v -428.1146240234375 329.83831787109375 988.0250854492188
v -428.089599609375 329.8633117675781 417.97509765625
v -428.089599609375 304.8133239746094 417.97509765625
v -428.0896301269531 329.8633117675781 988.0250854492188
v -428.0896301269531 304.8133239746094 988.0250854492188
v -428.1145935058594 304.83831787109375 417.97509765625
v -403.0646057128906 304.83831787109375 417.97509765625
v -428.1146240234375 304.83831787109375 988.0250854492188
v -403.06463623046875 304.83837890625 988.0250854492188
v -428.1146240234375 329.8633117675781 988.0000610351562
v -428.1146240234375 304.8133239746094 988.0000610351562
v -403.06463623046875 329.8633728027344 988.0000610351562
v -403.06463623046875 304.8133850097656 988.0000610351562
v -403.0646057128906 -170.1617431640625 417.9751281738281
v -428.11456298828125 -170.1617431640625 417.9751281738281
v -403.0646057128906 -170.16162109375 988.025146484375
v -428.1145935058594 -170.16162109375 988.025146484375
v -428.0895690917969 -170.13674926757812 417.9751281738281
v -428.0895690917969 -195.18673706054688 417.97515869140625
v -428.089599609375 -170.13662719726562 988.025146484375
v -428.089599609375 -195.18661499023438 988.025146484375
v -428.11456298828125 -195.1617431640625 417.97515869140625
v -403.0645751953125 -195.1617431640625 417.97515869140625
v -428.1145935058594 -195.16162109375 988.025146484375
v -403.0646057128906 -195.16162109375 988.025146484375
v -428.1145935058594 -170.13662719726562 988.0001220703125
v -428.1145935058594 -195.18661499023438 988.0001220703125
v -403.0646057128906 -170.13662719726562 988.0001220703125
v -403.0646057128906 -195.18661499023438 988.0001220703125
v -403.0645751953125 -170.1617431640625 -0.024888379499316216
v -428.11456298828125 -170.1617431640625 -0.024889472872018814
v -403.0646057128906 -170.1617431640625 368.02508544921875
v -428.11456298828125 -170.1617431640625 368.02508544921875
v -428.0895690917969 -170.13674926757812 -0.024889472872018814
v -428.0895690917969 -195.18673706054688 -0.024887287989258766
v -428.0895690917969 -170.13674926757812 368.02508544921875
v -428.0895690917969 -195.18673706054688 368.0251159667969
v -428.11456298828125 -195.1617431640625 -0.024887286126613617
v -403.0645446777344 -195.1617431640625 -0.02488619089126587
v -428.11456298828125 -195.1617431640625 368.0251159667969
v -403.0645751953125 -195.1617431640625 368.0251159667969
v -428.11456298828125 -170.13674926757812 368.0000915527344
v -428.11456298828125 -195.18673706054688 368.0001220703125
v -403.0646057128906 -170.13674926757812 368.0000915527344
v -403.0645751953125 -195.18673706054688 368.0001220703125
f 32 34 31
f 32 31 33
f 10 9 11
f 20 21 16
f 21 9 16
f 19 9 21
f 17 9 19
f 13 9 17
f 11 9 13
f 12 11 13
f 13 25 12
f 25 27 12
f 27 29 12
f 29 30 12
f 23 22 12
f 12 30 23
f 30 24 23
f 28 24 30
f 26 24 28
f 15 24 26
f 16 24 15
f 15 14 16
f 14 18 16
f 18 20 16
f 142 139 140
f 140 139 141
f 138 135 136
f 136 135 137
f 134 131 132
f 132 131 133
f 130 127 128
f 128 127 129
f 126 123 124
f 124 123 125
f 120 119 121
f 121 119 122
f 82 79 80
f 80 79 81
f 36 38 35
f 36 35 37
f 40 42 39
f 40 39 41
f 44 46 43
f 44 43 45
f 48 50 47
f 48 47 49
f 52 54 51
f 52 51 53
f 56 58 55
f 56 55 57
f 60 62 59
f 60 59 61
f 64 66 63
f 64 63 65
f 68 70 67
f 68 67 69
f 72 74 71
f 72 71 73
f 76 78 75
f 76 75 77
f 84 83 85
f 86 84 85
f 88 87 89
f 90 88 89
f 92 91 93
f 94 92 93
f 96 95 97
f 98 96 97
f 100 99 101
f 102 100 101
f 104 103 105
f 106 104 105
f 108 107 109
f 110 108 109
f 112 111 113
f 114 112 113
f 144 143 145
f 145 146 144
f 145 147 146
f 6 5 7
f 8 6 7
f 2 1 3
f 4 2 3
f 225 224 226
f 227 225 226
f 221 220 222
f 223 221 222
f 217 216 218
f 219 217 218
f 213 212 214
f 215 213 214
f 209 208 210
f 211 209 210
f 205 204 206
f 207 205 206
f 201 200 202
f 203 201 202
f 197 196 198
f 199 197 198
f 193 192 194
f 195 193 194
f 189 188 190
f 191 189 190
f 185 184 186
f 187 185 186
f 181 180 182
f 183 181 182
f 177 176 178
f 179 177 178
f 173 172 174
f 175 173 174
f 169 168 170
f 171 169 170
f 165 164 166
f 167 165 166
f 161 160 162
f 161 162 163
f 157 156 158
f 159 157 158
f 153 152 154
f 155 153 154
f 149 148 150
f 151 149 150
f 116 115 117
f 118 116 117
