# from FinancialDistrict_Block31_Residential (MC)_0003_LOD_0.pskx
v 2630.154296875 918.457275390625 10.00001335144043
v 2482.516357421875 759.570556640625 10.000020027160645
v 2630.154296875 918.457275390625 190.00001525878906
v 2482.516357421875 759.5706176757812 190.00003051757812
v 2482.516357421875 759.570556640625 10.000020027160645
v 2500.8330078125 742.541748046875 10.000022888183594
v 2482.516357421875 759.570556640625 190.00003051757812
v 2500.8330078125 742.541748046875 190.00003051757812
v 2500.8330078125 742.541748046875 10.000022888183594
v 2648.470947265625 901.440673828125 10.000015258789062
v 2500.8330078125 742.541748046875 190.00003051757812
v 2648.470947265625 901.440673828125 190.00001525878906
v 2630.154296875 918.457275390625 200.00001525878906
v 2482.516357421875 759.5706176757812 200.00003051757812
v 2630.154296875 918.457275390625 230.00001525878906
v 2482.516357421875 759.5706176757812 230.00003051757812
v 2482.516357421875 759.570556640625 200.00003051757812
v 2500.8330078125 742.541748046875 200.00003051757812
v 2482.516357421875 759.570556640625 230.00003051757812
v 2500.8330078125 742.541748046875 230.00003051757812
v 2500.8330078125 742.541748046875 200.00003051757812
v 2648.470947265625 901.440673828125 200.00001525878906
v 2500.8330078125 742.541748046875 230.00003051757812
v 2648.470947265625 901.440673828125 230.00001525878906
v 2630.154296875 918.457275390625 1.309954132011626e-05
v 2482.516357421875 759.570556640625 2.0536397641990334e-05
v 2482.516357421875 759.570556640625 2.053640127996914e-05
v 2500.8330078125 742.541748046875 2.2825748601462692e-05
v 2500.8330078125 742.541748046875 2.2825748601462692e-05
v 2648.470947265625 901.440673828125 1.5387829989776947e-05
v 2630.154296875 918.457275390625 240.0
v 2482.516357421875 759.5706176757812 240.00001525878906
v 2482.516357421875 759.570556640625 240.00001525878906
v 2500.8330078125 742.541748046875 240.00001525878906
v 2500.8330078125 742.541748046875 240.00001525878906
v 2648.470947265625 901.440673828125 240.0
v 2482.516357421875 759.570556640625 240.0000457763672
v 2500.8330078125 742.541748046875 240.0000457763672
v 2630.154296875 918.457275390625 240.00003051757812
v 2648.470947265625 901.440673828125 240.00003051757812
v 2278.304931640625 539.807373046875 10.000030517578125
v 2152.908203125 404.84637451171875 10.00003719329834
v 2278.304931640625 539.807373046875 190.00003051757812
v 2152.908203125 404.84637451171875 190.0000457763672
v 2152.908203125 404.84637451171875 10.00003719329834
v 2161.97802734375 157.519775390625 10.000059127807617
v 2152.908203125 404.84637451171875 190.0000457763672
v 2161.97802734375 157.519775390625 190.00006103515625
v 2180.294677734375 140.503173828125 10.000061988830566
v 2171.224853515625 387.82977294921875 10.000039100646973
v 2180.294677734375 140.503173828125 190.00006103515625
v 2171.224853515625 387.82977294921875 190.0000457763672
v 2171.224853515625 387.82977294921875 10.000039100646973
v 2296.615478515625 522.790771484375 10.000033378601074
v 2171.224853515625 387.82977294921875 190.0000457763672
v 2296.615478515625 522.790771484375 190.00003051757812
v 2296.615478515625 522.790771484375 10.000033378601074
v 2278.304931640625 539.807373046875 10.000030517578125
v 2296.615478515625 522.790771484375 190.00003051757812
v 2278.304931640625 539.807373046875 190.00003051757812
v 2278.304931640625 539.807373046875 200.00003051757812
v 2152.908203125 404.84637451171875 200.0000457763672
v 2278.304931640625 539.807373046875 230.00003051757812
v 2152.908203125 404.84637451171875 230.0000457763672
v 2152.908203125 404.84637451171875 200.0000457763672
v 2161.97802734375 157.519775390625 200.00006103515625
v 2152.908203125 404.84637451171875 230.0000457763672
v 2161.97802734375 157.519775390625 230.00006103515625
v 2180.294677734375 140.503173828125 200.00006103515625
v 2171.224853515625 387.82977294921875 200.0000457763672
v 2180.294677734375 140.503173828125 230.00006103515625
v 2171.224853515625 387.82977294921875 230.0000457763672
v 2171.224853515625 387.82977294921875 200.0000457763672
v 2296.615478515625 522.790771484375 200.00003051757812
v 2171.224853515625 387.82977294921875 230.0000457763672
v 2296.615478515625 522.790771484375 230.00003051757812
v 2296.615478515625 522.790771484375 200.00003051757812
v 2278.304931640625 539.807373046875 200.00003051757812
v 2296.615478515625 522.790771484375 230.00003051757812
v 2278.304931640625 539.807373046875 230.00003051757812
v 2278.304931640625 539.807373046875 3.0822342523606494e-05
v 2152.908203125 404.84637451171875 3.713974365382455e-05
v 2152.908203125 404.84637451171875 3.713974365382455e-05
v 2161.97802734375 157.519775390625 5.9158173826290295e-05
v 2180.294677734375 140.503173828125 6.144646613392979e-05
v 2171.224853515625 387.82977294921875 3.9428025047527626e-05
v 2171.224853515625 387.82977294921875 3.9428025047527626e-05
v 2296.615478515625 522.790771484375 3.3110365620814264e-05
v 2296.615478515625 522.790771484375 3.3110365620814264e-05
v 2278.304931640625 539.807373046875 3.0822342523606494e-05
v 2278.304931640625 539.807373046875 240.00001525878906
v 2152.908203125 404.84637451171875 240.00003051757812
v 2152.908203125 404.84637451171875 240.00003051757812
v 2161.97802734375 157.519775390625 240.0000457763672
v 2180.294677734375 140.503173828125 240.0000457763672
v 2171.224853515625 387.82977294921875 240.00003051757812
v 2171.224853515625 387.82977294921875 240.00003051757812
v 2296.615478515625 522.790771484375 240.00001525878906
v 2296.615478515625 522.790771484375 240.00001525878906
v 2278.304931640625 539.807373046875 240.00001525878906
v 2152.908203125 404.84637451171875 240.00006103515625
v 2161.97802734375 157.519775390625 240.0000762939453
v 2171.224853515625 387.82977294921875 240.00006103515625
v 2278.304931640625 539.807373046875 240.0000457763672
v 2180.294677734375 140.503173828125 240.0000762939453
v 2296.615478515625 522.790771484375 240.0000457763672
v -1709.16455078125 -663.70849609375 9.999961853027344
v -1628.28076171875 -1570.104736328125 10.000044822692871
v -1709.16455078125 -663.70849609375 229.99996948242188
v -1628.28076171875 -1570.104736328125 230.0000457763672
v -1628.28076171875 -1570.10498046875 10.000043869018555
v -1603.37841796875 -1567.88330078125 10.000044822692871
v -1628.28076171875 -1570.10498046875 230.0
v -1603.37841796875 -1567.88330078125 230.0
v -1603.37841796875 -1567.88330078125 10.000045776367188
v -1684.2685546875 -661.48681640625 9.999961853027344
v -1603.37841796875 -1567.88330078125 230.0000457763672
v -1684.2685546875 -661.48681640625 229.99996948242188
v -1709.16455078125 -663.70849609375 -3.826081592706032e-05
v -1628.28076171875 -1570.104736328125 4.451440690900199e-05
v -1628.28076171875 -1570.10498046875 4.451443601283245e-05
v -1603.37841796875 -1567.88330078125 4.5408709411276504e-05
v -1603.37841796875 -1567.88330078125 4.5408709411276504e-05
v -1684.2685546875 -661.48681640625 -3.736678991117515e-05
v -1709.16455078125 -663.70849609375 239.9999542236328
v -1628.28076171875 -1570.104736328125 240.00003051757812
v -1628.28076171875 -1570.10498046875 239.99998474121094
v -1603.37841796875 -1567.88330078125 239.99998474121094
v -1603.37841796875 -1567.88330078125 240.00003051757812
v -1684.2685546875 -661.48681640625 239.9999542236328
v -1628.28076171875 -1570.10498046875 240.00006103515625
v -1684.2685546875 -661.48681640625 239.99998474121094
v -1709.16455078125 -663.70849609375 239.99998474121094
v -1603.37841796875 -1567.88330078125 240.00006103515625
v -175.857421875 -1982.65380859375 10.000144958496094
v 909.8297119140625 -1885.741943359375 10.00018310546875
v -175.857421875 -1982.65380859375 230.00013732910156
v 909.8297119140625 -1885.741943359375 230.00018310546875
v 909.8297119140625 -1885.741943359375 10.00018310546875
v 880.941650390625 -1562.023681640625 10.000153541564941
v 909.8297119140625 -1885.741943359375 230.00018310546875
v 880.941650390625 -1562.023681640625 230.00015258789062
v 856.039306640625 -1564.245361328125 10.000152587890625
v 882.705810546875 -1863.061279296875 10.0001802444458
v 856.039306640625 -1564.245361328125 230.00015258789062
v 882.705810546875 -1863.061279296875 230.00018310546875
v 882.705810546875 -1863.061279296875 10.000179290771484
v -178.0791015625 -1957.75146484375 10.000140190124512
v 882.705810546875 -1863.061279296875 230.00013732910156
v -178.0791015625 -1957.75146484375 230.00009155273438
v -178.0791015625 -1957.75146484375 10.000140190124512
v -175.857421875 -1982.65380859375 10.000144004821777
v -178.0791015625 -1957.75146484375 230.00009155273438
v -175.857421875 -1982.65380859375 230.00009155273438
v -175.857421875 -1982.65380859375 0.00014406803529709578
v 909.8297119140625 -1885.741943359375 0.0001830526307458058
v 909.8297119140625 -1885.741943359375 0.0001830526307458058
v 880.941650390625 -1562.023681640625 0.0001534895709482953
v 856.03955078125 -1564.245361328125 0.00015259525389410555
v 882.705810546875 -1863.061279296875 0.00017988422769121826
v 882.705810546875 -1863.061279296875 0.00017988422769121826
v -178.0791015625 -1957.75146484375 0.00014179389108903706
v -178.0791015625 -1957.75146484375 0.00014179389108903706
v -175.857421875 -1982.65380859375 0.00014406803529709578
v -175.857421875 -1982.65380859375 240.0001220703125
v 909.8297119140625 -1885.741943359375 240.0001678466797
v 909.8297119140625 -1885.741943359375 240.0001678466797
v 880.941650390625 -1562.023681640625 240.00013732910156
v 856.039306640625 -1564.245361328125 240.00013732910156
v 882.705810546875 -1863.061279296875 240.0001678466797
v 882.705810546875 -1863.061279296875 240.0001220703125
v -178.0791015625 -1957.75146484375 240.0000762939453
v -178.0791015625 -1957.75146484375 240.0000762939453
v -175.857421875 -1982.65380859375 240.0000762939453
v 909.8297119140625 -1885.741943359375 240.0001983642578
v 882.705810546875 -1863.061279296875 240.0001983642578
v -175.857421875 -1982.65380859375 240.00015258789062
v 880.941650390625 -1562.023681640625 240.0001678466797
v 856.039306640625 -1564.245361328125 240.0001678466797
v -178.0791015625 -1957.75146484375 240.00015258789062
v -1600.27783203125 -1883.8623046875 10.000072479248047
v -1580.2763671875 -2107.97119140625 10.000093460083008
v -1600.27783203125 -1883.8623046875 230.0000762939453
v -1580.2763671875 -2107.97119140625 230.00009155273438
v -1580.2763671875 -2107.97119140625 10.000093460083008
v -484.628173828125 -2010.24169921875 10.00013256072998
v -1580.2763671875 -2107.97119140625 230.00009155273438
v -484.628173828125 -2010.24169921875 230.00013732910156
v -484.628173828125 -2010.24169921875 10.00013256072998
v -486.84375 -1985.3515625 10.000130653381348
v -484.628173828125 -2010.24169921875 230.00013732910156
v -486.84375 -1985.3515625 230.0001220703125
v -486.84375 -1985.3515625 10.000130653381348
v -1557.595703125 -2080.84716796875 10.000092506408691
v -486.84375 -1985.3515625 230.0001220703125
v -1557.595703125 -2080.84716796875 230.00009155273438
v -1557.595703125 -2080.84716796875 10.000091552734375
v -1575.37548828125 -1881.640625 10.000072479248047
v -1557.595703125 -2080.84716796875 230.0000457763672
v -1575.37548828125 -1881.640625 230.00003051757812
v -1575.37548828125 -1881.640625 10.000073432922363
v -1600.27783203125 -1883.8623046875 10.000072479248047
v -1575.37548828125 -1881.640625 230.0000762939453
v -1600.27783203125 -1883.8623046875 230.0000762939453
v -1600.27783203125 -1883.8623046875 7.316802657442167e-05
v -1580.2763671875 -2107.97119140625 9.363450953969732e-05
v -1580.2763671875 -2107.97119140625 9.363450953969732e-05
v -484.628173828125 -2010.24169921875 0.00013298304111231118
v -484.628173828125 -2010.24169921875 0.00013298304111231118
v -486.84375 -1985.3515625 0.00013071022112853825
v -486.84375 -1985.3515625 0.00013071022112853825
v -1557.595703125 -2080.84716796875 9.225465328199789e-05
v -1557.595703125 -2080.84716796875 9.225465328199789e-05
v -1575.37548828125 -1881.640625 7.406229997286573e-05
v -1575.37548828125 -1881.640625 7.406229997286573e-05
v -1600.27783203125 -1883.8623046875 7.316802657442167e-05
v -1600.27783203125 -1883.8623046875 240.00006103515625
v -1580.2763671875 -2107.97119140625 240.0000762939453
v -1580.2763671875 -2107.97119140625 240.0000762939453
v -484.628173828125 -2010.24169921875 240.0001220703125
v -484.628173828125 -2010.24169921875 240.0001220703125
v -486.84375 -1985.3515625 240.00010681152344
v -486.84375 -1985.3515625 240.00010681152344
v -1557.595703125 -2080.84716796875 240.0000762939453
v -1557.595703125 -2080.84716796875 240.00003051757812
v -1575.37548828125 -1881.640625 240.00001525878906
v -1575.37548828125 -1881.640625 240.00006103515625
v -1600.27783203125 -1883.8623046875 240.00006103515625
v -1600.27783203125 -1883.8623046875 240.00009155273438
v -1580.2763671875 -2107.97119140625 240.00010681152344
v -1575.37548828125 -1881.640625 240.00009155273438
v -484.628173828125 -2010.24169921875 240.00015258789062
v -486.84375 -1985.3515625 240.00013732910156
v -1557.595703125 -2080.84716796875 240.00010681152344
v 2036.24560546875 -462.035888671875 0.00010782551544252783
v 2331.778076171875 -410.448974609375 0.00011623377940850332
v 2036.24560546875 -462.035888671875 390.0001220703125
v 2331.778076171875 -410.448974609375 390.0001220703125
v 2331.778076171875 -410.448974609375 0.00011623377940850332
v 2228.6162109375 180.615478515625 6.005193426972255e-05
v 2331.778076171875 -410.448974609375 390.0001220703125
v 2228.6162109375 180.615478515625 390.00006103515625
v 2228.6162109375 180.615478515625 6.005193426972255e-05
v 1539.041259765625 60.2540283203125 4.043196895509027e-05
v 2080.850341796875 154.8238525390625 75.00004577636719
v 1834.5736083984375 111.837646484375 212.00001525878906
v 1710.4501953125 90.172607421875 212.00001525878906
v 2228.6162109375 180.615478515625 390.0000305175781
v 2080.850341796875 154.8238525390625 212.00001525878906
v 1956.726806640625 133.15869140625 212.00001525878906
v 1539.041259765625 60.2540283203125 390.0
v 1956.726806640625 133.15869140625 75.00004577636719
v 1710.4501953125 90.172607421875 75.00003814697266
v 1834.5736083984375 111.837646484375 75.00004577636719
v 1539.0411376953125 60.2540283203125 4.0431961679132655e-05
v 1590.6219482421875 -235.278076171875 6.852288788650185e-05
v 1539.0411376953125 60.2540283203125 390.0000305175781
v 1590.621826171875 -235.278076171875 390.00006103515625
v 2083.257568359375 141.0323486328125 212.00003051757812
v 1959.1341552734375 119.3673095703125 212.00001525878906
v 2080.850341796875 154.8238525390625 212.00001525878906
v 1956.726806640625 133.15869140625 212.00001525878906
v 2083.257568359375 141.0323486328125 75.00004577636719
v 2080.850341796875 154.8238525390625 75.00004577636719
v 1959.1341552734375 119.3673095703125 75.00004577636719
v 1956.726806640625 133.15869140625 75.00004577636719
v 2083.257568359375 141.0323486328125 212.00003051757812
v 2080.850341796875 154.8238525390625 75.00004577636719
v 2083.257568359375 141.0323486328125 75.00004577636719
v 2080.850341796875 154.8238525390625 212.00001525878906
v 1959.1341552734375 119.3673095703125 212.00001525878906
v 1959.1341552734375 119.3673095703125 75.00004577636719
v 1956.726806640625 133.15869140625 75.00004577636719
v 1956.726806640625 133.15869140625 212.00001525878906
v 1836.9808349609375 98.046142578125 212.00001525878906
v 1712.857421875 76.381103515625 212.00001525878906
v 1834.5736083984375 111.837646484375 212.00001525878906
v 1710.4501953125 90.172607421875 212.00001525878906
v 1836.9808349609375 98.046142578125 75.00004577636719
v 1834.5736083984375 111.837646484375 75.00004577636719
v 1712.857421875 76.381103515625 75.00003814697266
v 1710.4501953125 90.172607421875 75.00003814697266
v 1836.9808349609375 98.046142578125 212.00001525878906
v 1834.5736083984375 111.837646484375 75.00004577636719
v 1836.9808349609375 98.046142578125 75.00004577636719
v 1834.5736083984375 111.837646484375 212.00001525878906
v 1712.857421875 76.381103515625 212.00001525878906
v 1712.857421875 76.381103515625 75.00003814697266
v 1710.4501953125 90.172607421875 75.00003814697266
v 1710.4501953125 90.172607421875 212.00001525878906
v 1989.3583984375 -135.229248046875 390.0000915527344
v 2036.24560546875 -462.035888671875 390.0001220703125
v 2046.0987548828125 -460.3160400390625 390.0001220703125
v 1587.1405029296875 -215.33203125 390.00006103515625
v 1590.621826171875 -235.278076171875 390.00006103515625
v 1984.664794921875 -166.503662109375 390.0000915527344
v 2343.35009765625 -418.578857421875 390.0001220703125
v 2047.81787109375 -470.165771484375 390.0001220703125
v 2331.778076171875 -410.448974609375 390.0001220703125
v 2236.74609375 192.187744140625 390.00006103515625
v 1527.46875 68.3961181640625 390.0000305175781
v 2228.6162109375 180.615478515625 390.00006103515625
v 1539.0411376953125 60.2540283203125 390.0000305175781
v 1577.33447265625 -217.284912109375 390.00006103515625
v 1587.1405029296875 -215.33203125 390.00006103515625
v 2046.0987548828125 -460.3160400390625 390.0001220703125
v 2047.81787109375 -470.165771484375 390.0001220703125
v 2343.35009765625 -418.578857421875 390.0001220703125
v 2047.81787109375 -470.165771484375 400.0001220703125
v 2343.35009765625 -418.578857421875 400.0001220703125
v 2343.35009765625 -418.578857421875 390.0001220703125
v 2236.74609375 192.187744140625 390.00006103515625
v 2343.35009765625 -418.578857421875 400.0001220703125
v 2236.74609375 192.187744140625 400.00006103515625
v 2236.74609375 192.187744140625 390.00006103515625
v 1527.4688720703125 68.3961181640625 390.0000305175781
v 2236.74609375 192.187744140625 400.00006103515625
v 1527.4688720703125 68.3961181640625 400.0000305175781
v 1527.46875 68.3961181640625 390.0000305175781
v 1577.33447265625 -217.284912109375 390.00006103515625
v 1527.46875 68.3961181640625 400.0000305175781
v 1577.33447265625 -217.284912109375 400.00006103515625
v 1577.33447265625 -217.284912109375 390.00006103515625
v 1989.3583984375 -135.229248046875 390.0000915527344
v 1577.33447265625 -217.284912109375 400.00006103515625
v 1989.3583984375 -135.229248046875 400.0000915527344
v 1989.3583984375 -135.229248046875 390.0000915527344
v 2047.81787109375 -470.165771484375 390.0001220703125
v 1989.3583984375 -135.229248046875 400.0000915527344
v 2047.81787109375 -470.165771484375 400.0001220703125
v 2343.35009765625 -418.578857421875 400.0001220703125
v 2236.74609375 192.187744140625 400.00006103515625
v 2047.81787109375 -470.165771484375 400.0001220703125
v 1527.46875 68.3961181640625 400.0000305175781
v 1577.33447265625 -217.284912109375 400.00006103515625
v 1989.3583984375 -135.229248046875 400.0000915527344
v 605.514404296875 -407.2142333984375 4.04935963160824e-05
v 811.837890625 -1589.343017578125 0.00015285724657587707
v 766.756103515625 -1331.049072265625 5.000128269195557
v 708.676025390625 -998.279052734375 212.00009155273438
v 730.340087890625 -1122.402587890625 212.00009155273438
v 766.756103515625 -1331.049072265625 260.0001220703125
v 787.990234375 -1452.709716796875 260.0001525878906
v 605.514404296875 -407.2142333984375 390.00006103515625
v 622.7080078125 -505.7249755859375 75.00005340576172
v 687.35595703125 -876.125732421875 212.0000762939453
v 622.7080078125 -505.7249755859375 212.00003051757812
v 665.69189453125 -752.0020751953125 212.0000457763672
v 644.3720703125 -629.8487548828125 212.0000457763672
v 811.837646484375 -1589.343017578125 390.0001525878906
v 787.990234375 -1452.709716796875 5.0001397132873535
v 730.340087890625 -1122.402587890625 75.00010681152344
v 644.3720703125 -629.8487548828125 75.00006103515625
v 665.69189453125 -752.0020751953125 75.00007629394531
v 687.35595703125 -876.125732421875 75.00008392333984
v 708.676025390625 -998.279052734375 75.0000991821289
v 811.837890625 -1589.343017578125 0.00015285724657587707
v 1501.412841796875 -1468.993896484375 0.00017247829237021506
v 811.837646484375 -1589.343017578125 390.0001525878906
v 1501.412841796875 -1468.993896484375 390.00018310546875
v 1501.4129638671875 -1468.993896484375 0.00017247829237021506
v 2070.6328125 -659.057373046875 0.00012655278260353953
v 1903.910400390625 -896.284912109375 5.0001397132873535
v 1903.910400390625 -896.284912109375 269.2001037597656
v 1980.1549072265625 -787.79736328125 269.20013427734375
v 1501.4129638671875 -1468.993896484375 390.0001525878906
v 2070.6328125 -659.057373046875 390.0000915527344
v 1980.1549072265625 -787.79736328125 5.000133514404297
v 2070.6328125 -659.057373046875 0.00012655278260353953
v 1984.664794921875 -166.503662109375 7.973460014909506e-05
v 2070.6328125 -659.057373046875 390.0001220703125
v 1984.664794921875 -166.503662109375 390.0000915527344
v 1984.664794921875 -166.503662109375 7.973460014909506e-05
v 605.514404296875 -407.2142333984375 4.04935963160824e-05
v 1492.11083984375 -252.471923828125 75.00006866455078
v 999.556640625 -338.4400634765625 212.00003051757812
v 875.43310546875 -360.10400390625 212.00003051757812
v 1984.664794921875 -166.503662109375 390.0000915527344
v 1492.1107177734375 -252.471923828125 212.0000457763672
v 1121.7100830078125 -317.119873046875 212.0000457763672
v 1245.8336181640625 -295.4559326171875 212.0000457763672
v 1367.9871826171875 -274.1358642578125 212.0000457763672
v 605.514404296875 -407.2142333984375 390.00006103515625
v 1367.9873046875 -274.1358642578125 75.00006103515625
v 875.43310546875 -360.10400390625 75.00004577636719
v 1245.833740234375 -295.4559326171875 75.00005340576172
v 1121.710205078125 -317.119873046875 75.00006103515625
v 999.5567626953125 -338.4400634765625 75.00005340576172
v 787.990234375 -1452.709716796875 260.0001525878906
v 766.756103515625 -1331.049072265625 260.0001220703125
v 786.458251953125 -1327.6103515625 260.0001220703125
v 807.6923828125 -1449.27099609375 260.0001525878906
v 787.990234375 -1452.709716796875 5.0001397132873535
v 786.458251953125 -1327.6103515625 5.000128746032715
v 766.756103515625 -1331.049072265625 5.000128269195557
v 807.6923828125 -1449.27099609375 5.000140190124512
v 786.458251953125 -1327.6103515625 260.0001220703125
v 766.756103515625 -1331.049072265625 5.000128269195557
v 786.458251953125 -1327.6103515625 5.000128746032715
v 766.756103515625 -1331.049072265625 260.0001220703125
v 807.6923828125 -1449.27099609375 260.0001525878906
v 807.6923828125 -1449.27099609375 5.000140190124512
v 787.990234375 -1452.709716796875 5.0001397132873535
v 787.990234375 -1452.709716796875 260.0001525878906
v 644.3720703125 -629.8487548828125 212.0000457763672
v 622.7080078125 -505.7249755859375 212.00003051757812
v 636.49951171875 -503.31787109375 212.00003051757812
v 658.16357421875 -627.441650390625 212.0000457763672
v 644.3720703125 -629.8487548828125 75.00006103515625
v 636.49951171875 -503.31787109375 75.00005340576172
v 622.7080078125 -505.7249755859375 75.00005340576172
v 658.16357421875 -627.441650390625 75.00006103515625
v 636.49951171875 -503.31787109375 212.00003051757812
v 622.7080078125 -505.7249755859375 75.00005340576172
v 636.49951171875 -503.31787109375 75.00005340576172
v 622.7080078125 -505.7249755859375 212.00003051757812
v 658.16357421875 -627.441650390625 212.0000457763672
v 658.16357421875 -627.441650390625 75.00006103515625
v 644.3720703125 -629.8487548828125 75.00006103515625
v 644.3720703125 -629.8487548828125 212.0000457763672
v 687.35595703125 -876.125732421875 212.0000762939453
v 665.69189453125 -752.0020751953125 212.0000457763672
v 679.4833984375 -749.594970703125 212.0000457763672
v 701.1474609375 -873.718505859375 212.0000762939453
v 687.35595703125 -876.125732421875 75.00008392333984
v 679.4833984375 -749.594970703125 75.00007629394531
v 665.69189453125 -752.0020751953125 75.00007629394531
v 701.1474609375 -873.718505859375 75.00008392333984
v 679.4833984375 -749.594970703125 212.0000457763672
v 665.69189453125 -752.0020751953125 75.00007629394531
v 679.4833984375 -749.594970703125 75.00007629394531
v 665.69189453125 -752.0020751953125 212.0000457763672
v 701.1474609375 -873.718505859375 212.0000762939453
v 701.1474609375 -873.718505859375 75.00008392333984
v 687.35595703125 -876.125732421875 75.00008392333984
v 687.35595703125 -876.125732421875 212.0000762939453
v 730.340087890625 -1122.402587890625 212.00009155273438
v 708.676025390625 -998.279052734375 212.00009155273438
v 722.467529296875 -995.871826171875 212.00009155273438
v 744.131591796875 -1119.99560546875 212.00009155273438
v 730.340087890625 -1122.402587890625 75.00010681152344
v 722.467529296875 -995.871826171875 75.0000991821289
v 708.676025390625 -998.279052734375 75.0000991821289
v 744.131591796875 -1119.99560546875 75.00010681152344
v 722.467529296875 -995.871826171875 212.00009155273438
v 708.676025390625 -998.279052734375 75.0000991821289
v 722.467529296875 -995.871826171875 75.0000991821289
v 708.676025390625 -998.279052734375 212.00009155273438
v 744.131591796875 -1119.99560546875 212.00009155273438
v 744.131591796875 -1119.99560546875 75.00010681152344
v 730.340087890625 -1122.402587890625 75.00010681152344
v 730.340087890625 -1122.402587890625 212.00009155273438
v 1887.5472412109375 -884.784912109375 269.2001037597656
v 1963.791748046875 -776.29736328125 269.20013427734375
v 1903.910400390625 -896.284912109375 269.2001037597656
v 1980.1549072265625 -787.79736328125 269.20013427734375
v 1887.5472412109375 -884.784912109375 5.000137805938721
v 1903.910400390625 -896.284912109375 5.0001397132873535
v 1963.791748046875 -776.29736328125 5.000131607055664
v 1980.1549072265625 -787.79736328125 5.000133514404297
v 1887.5472412109375 -884.784912109375 269.2001037597656
v 1903.910400390625 -896.284912109375 5.0001397132873535
v 1887.5472412109375 -884.784912109375 5.000137805938721
v 1903.910400390625 -896.284912109375 269.2001037597656
v 1963.791748046875 -776.29736328125 269.20013427734375
v 1963.791748046875 -776.29736328125 5.000131607055664
v 1980.1549072265625 -787.79736328125 5.000133514404297
v 1980.1549072265625 -787.79736328125 269.20013427734375
v 1494.517822265625 -266.263427734375 212.00006103515625
v 1370.3941650390625 -287.9273681640625 212.0000457763672
v 1492.1107177734375 -252.471923828125 212.0000457763672
v 1367.9871826171875 -274.1358642578125 212.0000457763672
v 1494.5179443359375 -266.263427734375 75.00006866455078
v 1492.11083984375 -252.471923828125 75.00006866455078
v 1370.394287109375 -287.9273681640625 75.00006103515625
v 1367.9873046875 -274.1358642578125 75.00006103515625
v 1494.517822265625 -266.263427734375 212.00006103515625
v 1492.11083984375 -252.471923828125 75.00006866455078
v 1494.5179443359375 -266.263427734375 75.00006866455078
v 1492.1107177734375 -252.471923828125 212.0000457763672
v 1370.3941650390625 -287.9273681640625 212.0000457763672
v 1370.394287109375 -287.9273681640625 75.00006103515625
v 1367.9873046875 -274.1358642578125 75.00006103515625
v 1367.9871826171875 -274.1358642578125 212.0000457763672
v 1248.24072265625 -309.2474365234375 212.0000457763672
v 1124.1171875 -330.911376953125 212.0000457763672
v 1245.8336181640625 -295.4559326171875 212.0000457763672
v 1121.7100830078125 -317.119873046875 212.0000457763672
v 1248.2408447265625 -309.2474365234375 75.00006103515625
v 1245.833740234375 -295.4559326171875 75.00005340576172
v 1124.1173095703125 -330.911376953125 75.00006103515625
v 1121.710205078125 -317.119873046875 75.00006103515625
v 1248.24072265625 -309.2474365234375 212.0000457763672
v 1245.833740234375 -295.4559326171875 75.00005340576172
v 1248.2408447265625 -309.2474365234375 75.00006103515625
v 1245.8336181640625 -295.4559326171875 212.0000457763672
v 1124.1171875 -330.911376953125 212.0000457763672
v 1124.1173095703125 -330.911376953125 75.00006103515625
v 1121.710205078125 -317.119873046875 75.00006103515625
v 1121.7100830078125 -317.119873046875 212.0000457763672
v 1001.963623046875 -352.2314453125 212.00003051757812
v 877.840087890625 -373.8955078125 212.00003051757812
v 999.556640625 -338.4400634765625 212.00003051757812
v 875.43310546875 -360.10400390625 212.00003051757812
v 1001.9637451171875 -352.2314453125 75.00005340576172
v 999.5567626953125 -338.4400634765625 75.00005340576172
v 877.840087890625 -373.8955078125 75.00004577636719
v 875.43310546875 -360.10400390625 75.00004577636719
v 1001.963623046875 -352.2314453125 212.00003051757812
v 999.5567626953125 -338.4400634765625 75.00005340576172
v 1001.9637451171875 -352.2314453125 75.00005340576172
v 999.556640625 -338.4400634765625 212.00003051757812
v 877.840087890625 -373.8955078125 212.00003051757812
v 877.840087890625 -373.8955078125 75.00004577636719
v 875.43310546875 -360.10400390625 75.00004577636719
v 875.43310546875 -360.10400390625 212.00003051757812
v 803.707763671875 -1600.915283203125 390.0001525878906
v 593.954345703125 -399.0843505859375 390.00006103515625
v 605.514404296875 -407.2142333984375 390.00006103515625
v 902.218505859375 -1583.715576171875 390.0001525878906
v 811.837646484375 -1589.343017578125 390.0001525878906
v 1414.4744873046875 -1494.323486328125 390.0002746582031
v 919.4122314453125 -1682.238525390625 390.0001525878906
v 1501.4129638671875 -1468.993896484375 390.00018310546875
v 1431.6680908203125 -1592.846435546875 390.0002746582031
v 1503.1341552734375 -1478.844970703125 390.00018310546875
v 2082.53466796875 -669.042724609375 390.0001220703125
v 2070.6328125 -659.057373046875 390.0001220703125
v 1989.059326171875 -133.447021484375 390.0000915527344
v 1984.664794921875 -166.503662109375 390.0000915527344
v 593.954345703125 -399.0843505859375 390.00006103515625
v 803.707763671875 -1600.915283203125 390.0001525878906
v 593.954345703125 -399.0843505859375 400.00006103515625
v 803.707763671875 -1600.915283203125 400.0001525878906
v 803.707763671875 -1600.915283203125 390.0001525878906
v 902.218505859375 -1583.715576171875 390.0001525878906
v 803.707763671875 -1600.915283203125 400.0001525878906
v 902.218505859375 -1583.715576171875 400.0001525878906
v 902.218505859375 -1583.715576171875 390.0001525878906
v 919.4122314453125 -1682.238525390625 390.0001525878906
v 902.218505859375 -1583.715576171875 400.0001525878906
v 919.4122314453125 -1682.238525390625 400.0001525878906
v 919.4122314453125 -1682.238525390625 390.0001525878906
v 1431.6680908203125 -1592.846435546875 390.0002746582031
v 919.4122314453125 -1682.238525390625 400.0001525878906
v 1431.6680908203125 -1592.846435546875 400.0002746582031
v 1431.6680908203125 -1592.846435546875 390.0002746582031
v 1414.4744873046875 -1494.323486328125 390.0002746582031
v 1431.6680908203125 -1592.846435546875 400.0002746582031
v 1414.4744873046875 -1494.323486328125 400.0002746582031
v 1414.4744873046875 -1494.323486328125 390.0002746582031
v 1503.1341552734375 -1478.844970703125 390.00018310546875
v 1414.4744873046875 -1494.323486328125 400.0002746582031
v 1503.1341552734375 -1478.844970703125 400.00018310546875
v 1503.1341552734375 -1478.844970703125 390.00018310546875
v 2082.53466796875 -669.042724609375 390.0001220703125
v 1503.1341552734375 -1478.844970703125 400.00018310546875
v 2082.53466796875 -669.042724609375 400.0001220703125
v 2082.53466796875 -669.042724609375 390.0001220703125
v 1989.059326171875 -133.447021484375 390.0000915527344
v 2082.53466796875 -669.042724609375 400.0001220703125
v 1989.059326171875 -133.447021484375 400.0000915527344
v 1989.059326171875 -133.447021484375 390.0000915527344
v 593.95458984375 -399.0843505859375 390.00006103515625
v 1989.059326171875 -133.447021484375 400.0000915527344
v 593.95458984375 -399.0843505859375 400.00006103515625
v 593.954345703125 -399.0843505859375 400.00006103515625
v 803.707763671875 -1600.915283203125 400.0001525878906
v 902.218505859375 -1583.715576171875 400.0001525878906
v 919.4122314453125 -1682.238525390625 400.0001525878906
v 1414.4744873046875 -1494.323486328125 400.0002746582031
v 1503.1341552734375 -1478.844970703125 400.00018310546875
v 1989.059326171875 -133.447021484375 400.0000915527344
v 1431.6680908203125 -1592.846435546875 400.0002746582031
v 2082.53466796875 -669.042724609375 400.0001220703125
v -229.348876953125 -933.2275390625 50.00005340576172
v -1026.18115234375 -1004.345703125 50.00001907348633
v -328.952880859375 -942.1171875 100.00004577636719
v -229.348876953125 -933.2275390625 300.0000305175781
v -1026.18115234375 -1004.345703125 300.0
v -727.369384765625 -977.67626953125 300.0000305175781
v -807.491455078125 -984.827392578125 265.7000427246094
v -807.491455078125 -984.827392578125 200.00003051757812
v -742.35009765625 -979.013427734375 200.00003051757812
v -727.369384765625 -977.67626953125 100.00003051757812
v -742.35009765625 -979.013427734375 265.7000427246094
v -328.952880859375 -942.1171875 300.0000305175781
v -1026.18115234375 -1004.345703125 50.00001907348633
v -972.8486328125 -1601.96533203125 50.00007629394531
v -1001.737060546875 -1278.257080078125 200.0000457763672
v -1001.737060546875 -1278.257080078125 265.7000427246094
v -995.923828125 -1343.398193359375 265.7000427246094
v -1026.18115234375 -1004.345703125 300.0
v -972.8486328125 -1601.96533203125 300.00006103515625
v -995.923828125 -1343.398193359375 200.00006103515625
v -972.8486328125 -1601.96533203125 50.00006866455078
v -883.204833984375 -1593.9658203125 50.00007247924805
v -883.204833984375 -1593.9658203125 260.00006103515625
v -760.19384765625 -1582.98828125 260.00006103515625
v -972.8486328125 -1601.96533203125 300.0
v -760.19384765625 -1582.98828125 50.00007247924805
v -275.61962890625 -1539.74609375 50.000091552734375
v -275.61962890625 -1539.74609375 300.0000305175781
v -275.61962890625 -1539.74609375 50.000091552734375
v -229.348876953125 -933.2275390625 50.00004577636719
v -254.700927734375 -1265.54296875 200.00006103515625
v -254.700927734375 -1265.54296875 265.7000427246094
v -249.726318359375 -1200.33251953125 265.7000427246094
v -275.61962890625 -1539.74609375 300.0000305175781
v -229.348876953125 -933.2275390625 299.9999694824219
v -249.726318359375 -1200.33251953125 200.00006103515625
v -884.982421875 -1574.044921875 260.00006103515625
v -761.971435546875 -1563.0673828125 260.00006103515625
v -883.204833984375 -1593.9658203125 260.00006103515625
v -760.19384765625 -1582.98828125 260.00006103515625
v -884.982177734375 -1574.044921875 5.000076770782471
v -883.20458984375 -1593.9658203125 5.0000786781311035
v -761.971435546875 -1563.0673828125 5.0000810623168945
v -760.193603515625 -1582.98828125 5.0000834465026855
v -884.982421875 -1574.044921875 260.00006103515625
v -883.20458984375 -1593.9658203125 5.0000786781311035
v -884.982177734375 -1574.044921875 5.000076770782471
v -883.204833984375 -1593.9658203125 260.00006103515625
v -761.971435546875 -1563.0673828125 260.00006103515625
v -761.971435546875 -1563.0673828125 5.0000810623168945
v -760.193603515625 -1582.98828125 5.0000834465026855
v -760.19384765625 -1582.98828125 260.00006103515625
v -229.348876953125 -933.2275390625 4.998610165785067e-05
v -1026.18115234375 -1004.345703125 2.1372787159634754e-05
v -1026.18115234375 -1004.345703125 2.1372787159634754e-05
v -972.848388671875 -1601.96533203125 7.594961061840877e-05
v -972.848388671875 -1601.96533203125 7.594961061840877e-05
v -275.61962890625 -1539.74609375 0.00010098706843564287
v -883.20458984375 -1593.9658203125 5.0000786781311035
v -760.193603515625 -1582.98828125 5.0000834465026855
v -275.61962890625 -1539.74609375 0.00010098706843564287
v -229.348876953125 -933.2275390625 4.998610165785067e-05
v -1026.18115234375 -1004.345703125 300.0
v -972.8486328125 -1601.96533203125 300.00006103515625
v -275.61962890625 -1539.74609375 300.0000915527344
v -229.348876953125 -933.2275390625 300.0000305175781
v -240.218017578125 -944.2373046875 300.0000305175781
v -1015.331787109375 -1013.417236328125 300.0
v -1015.331787109375 -1013.417236328125 320.0
v -240.218017578125 -944.2373046875 320.0000305175781
v -251.0869140625 -955.2470703125 300.0000305175781
v -251.0869140625 -955.2470703125 320.0000305175781
v -1004.482666015625 -1022.488525390625 320.0
v -1004.482666015625 -1022.488525390625 300.0
v -1015.331787109375 -1013.417236328125 300.0
v -963.77734375 -1591.1162109375 300.00006103515625
v -963.77734375 -1591.1162109375 320.00006103515625
v -1015.331787109375 -1013.417236328125 320.0
v -1004.482666015625 -1022.488525390625 300.0
v -1004.482666015625 -1022.488525390625 320.0
v -954.70556640625 -1580.266845703125 320.00006103515625
v -954.70556640625 -1580.266845703125 300.00006103515625
v -963.77734375 -1591.1162109375 300.00006103515625
v -284.9462890625 -1530.538818359375 300.0000915527344
v -284.9462890625 -1530.538818359375 320.0000915527344
v -963.77734375 -1591.1162109375 320.00006103515625
v -954.70556640625 -1580.266845703125 300.00006103515625
v -954.70556640625 -1580.266845703125 320.00006103515625
v -294.273193359375 -1521.331298828125 320.0000915527344
v -294.273193359375 -1521.331298828125 300.0000915527344
v -284.9462890625 -1530.538818359375 300.0000915527344
v -240.218017578125 -944.2373046875 300.0000305175781
v -240.218017578125 -944.2373046875 320.0000305175781
v -284.9462890625 -1530.538818359375 320.0000915527344
v -294.273193359375 -1521.331298828125 300.0000915527344
v -294.273193359375 -1521.331298828125 320.0000915527344
v -251.0869140625 -955.2470703125 320.0000305175781
v -251.0869140625 -955.2470703125 300.0000305175781
v -240.218017578125 -944.2373046875 320.0000305175781
v -1015.331787109375 -1013.417236328125 320.0
v -1004.482666015625 -1022.488525390625 320.0
v -251.0869140625 -955.2470703125 320.0000305175781
v -963.77734375 -1591.1162109375 320.00006103515625
v -954.70556640625 -1580.266845703125 320.00006103515625
v -284.9462890625 -1530.538818359375 320.0000915527344
v -294.273193359375 -1521.331298828125 320.0000915527344
v -1758.970703125 -668.151611328125 -4.004947913927026e-05
v -165.3046875 -525.92431640625 1.7177979316329584e-05
v -1559.9990234375 -650.3944091796875 249.99996948242188
v -664.949951171875 -570.5152587890625 296.0
v -455.781005859375 -551.84814453125 296.0
v -1758.970703125 -668.151611328125 399.99993896484375
v -1559.9990234375 -650.3944091796875 295.9999694824219
v -1350.83056640625 -631.72705078125 295.9999694824219
v -165.3046875 -525.92431640625 400.0000305175781
v -1350.83056640625 -631.72705078125 249.99998474121094
v -455.781005859375 -551.84814453125 250.0
v -664.949951171875 -570.5152587890625 250.0
v -165.3046875 -525.92431640625 1.7177979316329584e-05
v -183.082763671875 -326.716064453125 -1.014460622172919e-06
v -168.29150390625 -492.4561767578125 115.65110778808594
v -168.29150390625 -492.4561767578125 252.65110778808594
v -179.49169921875 -366.954833984375 252.65109252929688
v -183.082763671875 -326.716064453125 255.0
v -194.060791015625 -203.7049560546875 254.99998474121094
v -170.321044921875 -469.7142333984375 314.5547180175781
v -170.321044921875 -469.7142333984375 380.2547302246094
v -176.134521484375 -404.5728759765625 380.2547302246094
v -165.3046875 -525.92431640625 400.0000305175781
v -179.49169921875 -366.954833984375 115.65109252929688
v -194.060791015625 -203.7049560546875 -1.22483061204548e-05
v -200.86083984375 -127.5106201171875 -1.920665272336919e-05
v -200.86083984375 -127.5106201171875 399.9999694824219
v -176.134521484375 -404.5728759765625 314.5547180175781
v -200.86083984375 -127.5107421875 -1.9206645447411574e-05
v -300.47021484375 -136.4014892578125 -2.2783455278840847e-05
v -200.86083984375 -127.5107421875 399.9999694824219
v -300.47021484375 -136.4014892578125 399.9999694824219
v -300.47021484375 -136.4014892578125 -2.2783455278840847e-05
v -311.13720703125 -16.87646484375 -3.3698936022119597e-05
v -311.13720703125 -16.87646484375 271.99993896484375
v -335.13818359375 252.05462646484375 271.9999084472656
v -300.47021484375 -136.4014892578125 399.9999084472656
v -335.13818359375 252.05462646484375 -5.825874177389778e-05
v -344.916748046875 361.62152099609375 -6.826481694588438e-05
v -344.916748046875 361.62158203125 399.9998474121094
v -344.916748046875 361.62152099609375 -6.826481694588438e-05
v -245.31298828125 370.5106201171875 -6.468812352977693e-05
v -344.916748046875 361.62158203125 399.9999084472656
v -245.31298828125 370.51068115234375 399.9999084472656
v -245.31298828125 370.5106201171875 -6.468812352977693e-05
v -289.759521484375 868.533447265625 -0.00011016947246389464
v -258.49267578125 518.188720703125 249.9999237060547
v -258.49267578125 518.188720703125 295.9999084472656
v -277.159912109375 727.3572998046875 295.9998779296875
v -245.31298828125 370.51068115234375 399.9999084472656
v -289.759521484375 868.533447265625 399.9998779296875
v -277.159912109375 727.3572998046875 249.99990844726562
v -289.759521484375 868.533447265625 -0.00011016947246389464
v -1883.42578125 726.3060302734375 -0.0001673969381954521
v -729.185302734375 829.3167114257812 4.999874114990234
v -426.212890625 856.3555908203125 295.9998779296875
v -635.38134765625 837.6882934570312 295.9998779296875
v -886.338623046875 815.29150390625 299.9998474121094
v -1284.7548828125 779.7347412109375 299.9998474121094
v -289.759521484375 868.533447265625 399.9998779296875
v -426.212890625 856.3555908203125 249.9998779296875
v -1883.42578125 726.3060302734375 399.99981689453125
v -1594.953125 752.0508422851562 295.99981689453125
v -1594.953125 752.0508422851562 249.99984741210938
v -1385.78515625 770.7182006835938 249.99986267089844
v -1284.7548828125 779.7346801757812 99.9998550415039
v -886.338623046875 815.29150390625 99.99987030029297
v -852.196533203125 818.3385009765625 4.9998698234558105
v -852.196533203125 818.3385009765625 259.9998779296875
v -1385.78515625 770.7182006835938 295.9998474121094
v -635.38134765625 837.6882934570312 249.9998779296875
v -729.185302734375 829.3167724609375 259.9998779296875
v -1883.42578125 726.3060302734375 -0.0001673969381954521
v -1758.970703125 -668.1514892578125 -4.004949369118549e-05
v -1794.529296875 -269.7347412109375 4.999923229217529
v -1812.30859375 -70.5267333984375 258.2096862792969
v -1801.10791015625 -196.02783203125 258.2096862792969
v -1794.529296875 -269.7347412109375 259.9998779296875
v -1783.55078125 -392.7457275390625 259.9999084472656
v -1883.42578125 726.3060302734375 399.999755859375
v -1812.30859375 -70.5267333984375 121.2096939086914
v -1758.970703125 -668.1514892578125 399.9998779296875
v -1764.935546875 -601.3187255859375 258.209716796875
v -1764.935546875 -601.3187255859375 121.2097396850586
v -1776.13671875 -475.8175048828125 121.20973205566406
v -1783.55078125 -392.7457275390625 4.999934673309326
v -1801.10791015625 -196.02783203125 121.20970153808594
v -1776.13671875 -475.8175048828125 258.209716796875
v -1560.88818359375 -640.43115234375 295.9999694824219
v -1351.7197265625 -621.7637939453125 295.9999694824219
v -1559.9990234375 -650.3944091796875 295.9999694824219
v -1350.83056640625 -631.72705078125 295.9999694824219
v -1560.88818359375 -640.43115234375 249.99996948242188
v -1559.9990234375 -650.3944091796875 249.99996948242188
v -1351.7197265625 -621.7637939453125 249.99998474121094
v -1350.83056640625 -631.72705078125 249.99998474121094
v -1560.88818359375 -640.43115234375 295.9999694824219
v -1559.9990234375 -650.3944091796875 249.99996948242188
v -1560.88818359375 -640.43115234375 249.99996948242188
v -1559.9990234375 -650.3944091796875 295.9999694824219
v -1351.7197265625 -621.7637939453125 295.9999694824219
v -1351.7197265625 -621.7637939453125 249.99998474121094
v -1350.83056640625 -631.72705078125 249.99998474121094
v -1350.83056640625 -631.72705078125 295.9999694824219
v -665.83837890625 -560.5604248046875 296.0
v -456.66943359375 -541.893310546875 296.0
v -664.949951171875 -570.5152587890625 296.0
v -455.781005859375 -551.84814453125 296.0
v -665.83837890625 -560.5604248046875 250.0
v -664.949951171875 -570.5152587890625 250.0
v -456.66943359375 -541.893310546875 250.0
v -455.781005859375 -551.84814453125 250.0
v -665.83837890625 -560.5604248046875 296.0
v -664.949951171875 -570.5152587890625 250.0
v -665.83837890625 -560.5604248046875 250.0
v -664.949951171875 -570.5152587890625 296.0
v -456.66943359375 -541.893310546875 296.0
v -456.66943359375 -541.893310546875 250.0
v -455.781005859375 -551.84814453125 250.0
v -455.781005859375 -551.84814453125 296.0
v -194.060791015625 -203.7049560546875 254.99998474121094
v -183.082763671875 -326.716064453125 255.0
v -193.04296875 -327.60498046875 255.0
v -204.021240234375 -204.5938720703125 254.99998474121094
v -194.060791015625 -203.7049560546875 -1.22483061204548e-05
v -193.04296875 -327.60498046875 -1.3721175946557196e-06
v -183.082763671875 -326.716064453125 -1.014460622172919e-06
v -204.021240234375 -204.5938720703125 -1.26059630929376e-05
v -193.04296875 -327.60498046875 255.0
v -183.082763671875 -326.716064453125 -1.014460622172919e-06
v -193.04296875 -327.60498046875 -1.3721175946557196e-06
v -183.082763671875 -326.716064453125 255.0
v -204.021240234375 -204.5938720703125 254.99998474121094
v -204.021240234375 -204.5938720703125 -1.26059630929376e-05
v -194.060791015625 -203.7049560546875 -1.22483061204548e-05
v -194.060791015625 -203.7049560546875 254.99998474121094
v -168.29150390625 -492.4561767578125 252.65110778808594
v -182.236328125 -493.70068359375 252.65110778808594
v -179.49169921875 -366.954833984375 252.65109252929688
v -193.436279296875 -368.1993408203125 252.65109252929688
v -168.29150390625 -492.4561767578125 115.65110778808594
v -179.49169921875 -366.954833984375 115.65109252929688
v -182.236328125 -493.70068359375 115.65110778808594
v -193.436279296875 -368.1993408203125 115.65109252929688
v -182.236328125 -493.70068359375 252.65110778808594
v -168.29150390625 -492.4561767578125 115.65110778808594
v -182.236328125 -493.70068359375 115.65110778808594
v -168.29150390625 -492.4561767578125 252.65110778808594
v -193.436279296875 -368.1993408203125 252.65109252929688
v -193.436279296875 -368.1993408203125 115.65109252929688
v -179.49169921875 -366.954833984375 115.65109252929688
v -179.49169921875 -366.954833984375 252.65109252929688
v -277.159912109375 727.3572998046875 295.9998779296875
v -258.49267578125 518.188720703125 295.9999084472656
v -272.4375 516.9442138671875 295.9999084472656
v -291.104736328125 726.11279296875 295.9998779296875
v -277.159912109375 727.3572998046875 249.99990844726562
v -272.4375 516.9442138671875 249.9999237060547
v -258.49267578125 518.188720703125 249.9999237060547
v -291.104736328125 726.11279296875 249.99990844726562
v -272.4375 516.9442138671875 295.9999084472656
v -258.49267578125 518.188720703125 249.9999237060547
v -272.4375 516.9442138671875 249.9999237060547
v -258.49267578125 518.188720703125 295.9999084472656
v -291.104736328125 726.11279296875 295.9998779296875
v -291.104736328125 726.11279296875 249.99990844726562
v -277.159912109375 727.3572998046875 249.99990844726562
v -277.159912109375 727.3572998046875 295.9998779296875
v -425.3271484375 846.429931640625 295.9998779296875
v -634.49560546875 827.7626342773438 295.9998779296875
v -426.212890625 856.3555908203125 295.9998779296875
v -635.38134765625 837.6882934570312 295.9998779296875
v -425.3271484375 846.429931640625 249.9998779296875
v -426.212890625 856.3555908203125 249.9998779296875
v -634.49560546875 827.7626342773438 249.9998779296875
v -635.38134765625 837.6882934570312 249.9998779296875
v -425.3271484375 846.429931640625 295.9998779296875
v -426.212890625 856.3555908203125 249.9998779296875
v -425.3271484375 846.429931640625 249.9998779296875
v -426.212890625 856.3555908203125 295.9998779296875
v -634.49560546875 827.7626342773438 295.9998779296875
v -634.49560546875 827.7626342773438 249.9998779296875
v -635.38134765625 837.6882934570312 249.9998779296875
v -635.38134765625 837.6882934570312 295.9998779296875
v -1384.8974609375 760.773193359375 295.9998474121094
v -1594.0654296875 742.1058349609375 295.99981689453125
v -1385.78515625 770.7182006835938 295.9998474121094
v -1594.953125 752.0508422851562 295.99981689453125
v -1384.8974609375 760.773193359375 249.99986267089844
v -1385.78515625 770.7182006835938 249.99986267089844
v -1594.0654296875 742.1058349609375 249.99984741210938
v -1594.953125 752.0508422851562 249.99984741210938
v -1384.8974609375 760.773193359375 295.9998474121094
v -1385.78515625 770.7182006835938 249.99986267089844
v -1384.8974609375 760.773193359375 249.99986267089844
v -1385.78515625 770.7182006835938 295.9998474121094
v -1594.0654296875 742.1058349609375 295.99981689453125
v -1594.0654296875 742.1058349609375 249.99984741210938
v -1594.953125 752.0508422851562 249.99984741210938
v -1594.953125 752.0508422851562 295.99981689453125
v -727.408447265625 809.4060668945312 259.9998779296875
v -850.419677734375 798.4278564453125 259.9998779296875
v -729.185302734375 829.3167724609375 259.9998779296875
v -852.196533203125 818.3385009765625 259.9998779296875
v -727.408447265625 809.406005859375 4.999876022338867
v -729.185302734375 829.3167114257812 4.999874114990234
v -850.419677734375 798.4278564453125 4.999871253967285
v -852.196533203125 818.3385009765625 4.9998698234558105
v -727.408447265625 809.4060668945312 259.9998779296875
v -729.185302734375 829.3167114257812 4.999874114990234
v -727.408447265625 809.406005859375 4.999876022338867
v -729.185302734375 829.3167724609375 259.9998779296875
v -850.419677734375 798.4278564453125 259.9998779296875
v -850.419677734375 798.4278564453125 4.999871253967285
v -852.196533203125 818.3385009765625 4.9998698234558105
v -852.196533203125 818.3385009765625 259.9998779296875
v -1794.529296875 -269.7347412109375 259.9998779296875
v -1774.60888671875 -267.956787109375 259.9998779296875
v -1783.55078125 -392.7457275390625 259.9999084472656
v -1763.6298828125 -390.9678955078125 259.9999084472656
v -1794.529296875 -269.7347412109375 4.999923229217529
v -1783.55078125 -392.7457275390625 4.999934673309326
v -1774.60888671875 -267.956787109375 4.999924182891846
v -1763.6298828125 -390.9678955078125 4.999935150146484
v -1774.60888671875 -267.956787109375 259.9998779296875
v -1794.529296875 -269.7347412109375 4.999923229217529
v -1774.60888671875 -267.956787109375 4.999924182891846
v -1794.529296875 -269.7347412109375 259.9998779296875
v -1763.6298828125 -390.9678955078125 259.9999084472656
v -1763.6298828125 -390.9678955078125 4.999935150146484
v -1783.55078125 -392.7457275390625 4.999934673309326
v -1783.55078125 -392.7457275390625 259.9999084472656
v -1776.13671875 -475.8175048828125 258.209716796875
v -1762.19189453125 -474.572998046875 258.209716796875
v -1764.935546875 -601.3187255859375 258.209716796875
v -1750.99072265625 -600.07421875 258.209716796875
v -1776.13671875 -475.8175048828125 121.20973205566406
v -1764.935546875 -601.3187255859375 121.2097396850586
v -1762.19189453125 -474.572998046875 121.20973205566406
v -1750.99072265625 -600.07421875 121.2097396850586
v -1762.19189453125 -474.572998046875 258.209716796875
v -1776.13671875 -475.8175048828125 121.20973205566406
v -1762.19189453125 -474.572998046875 121.20973205566406
v -1776.13671875 -475.8175048828125 258.209716796875
v -1750.99072265625 -600.07421875 258.209716796875
v -1750.99072265625 -600.07421875 121.2097396850586
v -1764.935546875 -601.3187255859375 121.2097396850586
v -1764.935546875 -601.3187255859375 258.209716796875
v -1812.30859375 -70.5267333984375 258.2096862792969
v -1798.36376953125 -69.2821044921875 258.2096862792969
v -1801.10791015625 -196.02783203125 258.2096862792969
v -1787.1630859375 -194.7833251953125 258.2096862792969
v -1812.30859375 -70.5267333984375 121.2096939086914
v -1801.10791015625 -196.02783203125 121.20970153808594
v -1798.36376953125 -69.2821044921875 121.2096939086914
v -1787.1630859375 -194.7833251953125 121.20970153808594
v -1798.36376953125 -69.2821044921875 258.2096862792969
v -1812.30859375 -70.5267333984375 121.2096939086914
v -1798.36376953125 -69.2821044921875 121.2096939086914
v -1812.30859375 -70.5267333984375 258.2096862792969
v -1787.1630859375 -194.7833251953125 258.2096862792969
v -1787.1630859375 -194.7833251953125 121.20970153808594
v -1801.10791015625 -196.02783203125 121.20970153808594
v -1801.10791015625 -196.02783203125 258.2096862792969
v -191.787841796875 -116.6624755859375 399.9999694824219
v -154.45263671875 -534.9974365234375 400.0000305175781
v -165.3046875 -525.92431640625 400.0000305175781
v -291.39111328125 -125.5491943359375 399.9999694824219
v -200.86083984375 -127.5107421875 399.9999694824219
v -334.060791015625 352.55145263671875 399.99993896484375
v -300.47021484375 -136.4014892578125 399.9999694824219
v -234.45751953125 361.43817138671875 399.9999084472656
v -245.31298828125 370.51068115234375 399.9999084472656
v -280.679443359375 879.3824462890625 399.9998779296875
v -1894.265625 735.3760375976562 399.99981689453125
v -289.759521484375 868.533447265625 399.9998779296875
v -1883.42578125 726.3060302734375 399.99981689453125
v -1768.0390625 -679.00390625 399.99993896484375
v -1758.970703125 -668.151611328125 399.99993896484375
v -344.916748046875 361.62158203125 399.9999084472656
v -154.45263671875 -534.9974365234375 400.0000305175781
v -191.787841796875 -116.6624755859375 399.9999694824219
v -154.45263671875 -534.9974365234375 410.0000305175781
v -191.787841796875 -116.6624755859375 409.9999694824219
v -191.787841796875 -116.6624755859375 399.9999694824219
v -291.39111328125 -125.5491943359375 399.9999694824219
v -191.787841796875 -116.6624755859375 409.9999694824219
v -291.39111328125 -125.5491943359375 409.9999694824219
v -291.39111328125 -125.5491943359375 399.9999694824219
v -334.060791015625 352.55145263671875 399.99993896484375
v -291.39111328125 -125.5491943359375 409.9999694824219
v -334.060791015625 352.55145263671875 409.99993896484375
v -334.060791015625 352.55145263671875 399.99993896484375
v -234.45751953125 361.43817138671875 399.9999084472656
v -334.060791015625 352.55145263671875 409.99993896484375
v -234.45751953125 361.43817138671875 409.9999084472656
v -234.45751953125 361.43817138671875 399.9999084472656
v -280.679443359375 879.382568359375 399.9998779296875
v -234.45751953125 361.43817138671875 409.9999084472656
v -280.679443359375 879.382568359375 409.9998779296875
v -280.679443359375 879.3824462890625 399.9998779296875
v -1894.265625 735.3760375976562 399.99981689453125
v -280.679443359375 879.3824462890625 409.9998779296875
v -1894.265625 735.3760375976562 409.99981689453125
v -1894.265625 735.3760375976562 399.99981689453125
v -1768.0390625 -679.00390625 399.99993896484375
v -1894.265625 735.3760375976562 409.99981689453125
v -1768.0390625 -679.00390625 409.99993896484375
v -1768.0390625 -679.00390625 399.99993896484375
v -154.45263671875 -534.9974365234375 400.0000305175781
v -1768.0390625 -679.00390625 409.99993896484375
v -154.45263671875 -534.9974365234375 410.0000305175781
v -154.45263671875 -534.9974365234375 410.0000305175781
v -191.787841796875 -116.6624755859375 409.9999694824219
v -291.39111328125 -125.5491943359375 409.9999694824219
v -334.060791015625 352.55145263671875 409.99993896484375
v -1768.0390625 -679.00390625 409.99993896484375
v -234.45751953125 361.43817138671875 409.9999084472656
v -280.679443359375 879.3824462890625 409.9998779296875
v -1894.265625 735.3760375976562 409.99981689453125
v -165.302001953125 -525.9259033203125 410.0000305175781
v -200.859375 -127.511474609375 409.9999694824219
v -200.859375 -127.511474609375 429.99993896484375
v -165.302001953125 -525.9259033203125 430.0
v -187.000732421875 -507.782958984375 410.0000305175781
v -187.000732421875 -507.782958984375 430.0
v -219.002197265625 -149.209716796875 429.99993896484375
v -219.002197265625 -149.209716796875 409.9999694824219
v -200.859375 -127.511474609375 409.9999694824219
v -300.46240234375 -136.3983154296875 409.9999694824219
v -300.46240234375 -136.3983154296875 429.99993896484375
v -200.859375 -127.511474609375 429.99993896484375
v -219.002197265625 -149.209716796875 409.9999694824219
v -219.002197265625 -149.209716796875 429.99993896484375
v -318.60546875 -158.0965576171875 429.99993896484375
v -318.60546875 -158.0965576171875 409.9999694824219
v -300.46240234375 -136.3983154296875 409.9999694824219
v -344.91015625 361.6231689453125 409.9999084472656
v -344.91015625 361.6231689453125 429.9998779296875
v -300.46240234375 -136.3983154296875 429.99993896484375
v -318.60546875 -158.0965576171875 409.9999694824219
v -318.60546875 -158.0965576171875 429.99993896484375
v -366.60888671875 379.76666259765625 429.9998779296875
v -366.60888671875 379.76666259765625 409.9999084472656
v -344.91015625 361.6231689453125 409.9999084472656
v -245.306884765625 370.5098876953125 409.9999084472656
v -245.306884765625 370.5098876953125 429.9998779296875
v -344.91015625 361.6231689453125 429.9998779296875
v -366.60888671875 379.76666259765625 409.9999084472656
v -366.60888671875 379.76666259765625 429.9998779296875
v -267.00537109375 388.65338134765625 429.9998779296875
v -267.00537109375 388.65338134765625 409.9999084472656
v -245.306884765625 370.5098876953125 409.9999084472656
v -289.750732421875 868.533203125 409.9998779296875
v -289.750732421875 868.533203125 429.9998474121094
v -245.306884765625 370.5098876953125 429.9998779296875
v -267.00537109375 388.65338134765625 409.9999084472656
v -267.00537109375 388.65338134765625 429.9998779296875
v -307.893798828125 846.83447265625 429.9998474121094
v -307.893798828125 846.83447265625 409.9998779296875
v -289.750732421875 868.533203125 409.9998779296875
v -1883.4169921875 726.3045654296875 409.99981689453125
v -1883.4169921875 726.3045654296875 429.9997863769531
v -289.750732421875 868.533203125 429.9998474121094
v -307.893798828125 846.83447265625 409.9998779296875
v -307.893798828125 846.83447265625 429.9998474121094
v -1861.71826171875 708.1616821289062 429.9997863769531
v -1861.71826171875 708.1616821289062 409.99981689453125
v -1883.4169921875 726.3045654296875 409.99981689453125
v -1758.9677734375 -668.154541015625 409.99993896484375
v -1758.9677734375 -668.154541015625 429.9999084472656
v -1883.4169921875 726.3045654296875 429.9997863769531
v -1861.71826171875 708.1616821289062 409.99981689453125
v -1861.71826171875 708.1616821289062 429.9997863769531
v -1740.82470703125 -646.455810546875 429.9999084472656
v -1740.82470703125 -646.455810546875 409.99993896484375
v -1758.9677734375 -668.154541015625 409.99993896484375
v -165.302001953125 -525.9259033203125 410.0000305175781
v -165.302001953125 -525.9259033203125 430.0
v -1758.9677734375 -668.154541015625 429.9999084472656
v -1740.82470703125 -646.455810546875 409.99993896484375
v -1740.82470703125 -646.455810546875 429.9999084472656
v -187.000732421875 -507.782958984375 430.0
v -187.000732421875 -507.782958984375 410.0000305175781
v -165.302001953125 -525.9259033203125 430.0
v -200.859375 -127.511474609375 429.99993896484375
v -219.002197265625 -149.209716796875 429.99993896484375
v -187.000732421875 -507.782958984375 430.0
v -300.46240234375 -136.3983154296875 429.99993896484375
v -318.60546875 -158.0965576171875 429.99993896484375
v -344.91015625 361.6231689453125 429.9998779296875
v -366.60888671875 379.76666259765625 429.9998779296875
v -245.306884765625 370.5098876953125 429.9998779296875
v -267.00537109375 388.65338134765625 429.9998779296875
v -289.750732421875 868.533203125 429.9998474121094
v -307.893798828125 846.83447265625 429.9998474121094
v -1883.4169921875 726.3045654296875 429.9997863769531
v -1861.71826171875 708.1616821289062 429.9997863769531
v -1758.9677734375 -668.154541015625 429.9999084472656
v -1740.82470703125 -646.455810546875 429.9999084472656
v -1940.396484375 -885.14404296875 49.999961853027344
v -2637.625 -947.36328125 49.99993896484375
v -1940.396484375 -885.14404296875 299.9999084472656
v -2637.625 -947.36328125 299.9998779296875
v -2637.625 -947.36328125 49.99994659423828
v -2629.62548828125 -1037.0068359375 49.99995422363281
v -2629.62548828125 -1037.0068359375 259.99993896484375
v -2618.6474609375 -1160.01806640625 259.9999694824219
v -2637.625 -947.36328125 299.99993896484375
v -2618.6474609375 -1160.01806640625 49.99996566772461
v -2584.29296875 -1544.98291015625 50.000003814697266
v -2584.29296875 -1544.98291015625 300.0
v -2584.29296875 -1544.98291015625 49.999996185302734
v -1887.0634765625 -1482.763671875 50.00001907348633
v -2584.29296875 -1544.98291015625 299.99993896484375
v -1887.0634765625 -1482.763671875 299.9999694824219
v -1887.0634765625 -1482.763671875 50.00002670288086
v -1940.396484375 -885.14404296875 49.999969482421875
v -1887.0634765625 -1482.763671875 300.0000305175781
v -1940.396484375 -885.14404296875 299.9999694824219
v -2629.62548828125 -1037.0068359375 259.99993896484375
v -2609.70458984375 -1035.22900390625 259.99993896484375
v -2618.6474609375 -1160.01806640625 259.9999694824219
v -2598.7265625 -1158.240234375 259.9999694824219
v -2629.62548828125 -1037.0068359375 4.9999542236328125
v -2618.6474609375 -1160.01806640625 4.999965190887451
v -2609.70458984375 -1035.22900390625 4.999954700469971
v -2598.7265625 -1158.240234375 4.999966144561768
v -2609.70458984375 -1035.22900390625 259.99993896484375
v -2629.62548828125 -1037.0068359375 4.9999542236328125
v -2609.70458984375 -1035.22900390625 4.999954700469971
v -2629.62548828125 -1037.0068359375 259.99993896484375
v -2598.7265625 -1158.240234375 259.9999694824219
v -2598.7265625 -1158.240234375 4.999966144561768
v -2618.6474609375 -1160.01806640625 4.999965190887451
v -2618.6474609375 -1160.01806640625 259.9999694824219
v -1940.396484375 -885.14404296875 -2.900975596276112e-05
v -2637.625 -947.36328125 -5.4047228331910446e-05
v -2637.625 -947.36328125 -5.4047228331910446e-05
v -2584.29296875 -1544.98291015625 5.295825644680008e-07
v -2629.62548828125 -1037.0068359375 4.9999542236328125
v -2618.6474609375 -1160.01806640625 4.999965190887451
v -2584.29296875 -1544.98291015625 5.295825644680008e-07
v -1887.0634765625 -1482.763671875 2.556705476308707e-05
v -1887.0634765625 -1482.763671875 2.556705476308707e-05
v -1940.396484375 -885.14404296875 -2.900975596276112e-05
v -1876.2119140625 -1491.83349609375 300.0000305175781
v -2584.29296875 -1544.98291015625 300.0
v -1887.0634765625 -1482.763671875 300.0000305175781
v -2593.3623046875 -1555.8349609375 300.0
v -1931.3203125 -874.2919921875 299.9999694824219
v -2648.47119140625 -938.28125 299.99993896484375
v -1940.396484375 -885.14404296875 299.9999694824219
v -2637.625 -947.36328125 299.99993896484375
v -2593.3623046875 -1555.8349609375 300.0
v -1876.2119140625 -1491.83349609375 300.0000305175781
v -2593.3623046875 -1555.8349609375 310.0
v -1876.2119140625 -1491.83349609375 310.0000305175781
v -1876.2119140625 -1491.83349609375 300.0000305175781
v -1931.3203125 -874.2919921875 299.9999694824219
v -1876.2119140625 -1491.83349609375 310.0000305175781
v -1931.3203125 -874.2919921875 309.9999694824219
v -1931.3203125 -874.2919921875 299.9999694824219
v -2648.47119140625 -938.28125 299.99993896484375
v -1931.3203125 -874.2919921875 309.9999694824219
v -2648.47119140625 -938.28125 309.99993896484375
v -2648.47119140625 -938.28125 299.99993896484375
v -2593.3623046875 -1555.8349609375 300.0
v -2648.47119140625 -938.28125 309.99993896484375
v -2593.3623046875 -1555.8349609375 310.0
v -1876.2119140625 -1491.83349609375 310.0000305175781
v -1931.3203125 -874.2919921875 309.9999694824219
v -2593.3623046875 -1555.8349609375 310.0
v -2648.47119140625 -938.28125 309.99993896484375
v -2584.291015625 -1544.985595703125 310.0
v -1887.06103515625 -1482.761962890625 310.0000305175781
v -1887.06103515625 -1482.761962890625 330.0000305175781
v -2584.291015625 -1544.985595703125 330.0
v -2566.14794921875 -1523.287109375 310.0
v -2566.14794921875 -1523.287109375 330.0
v -1908.75927734375 -1464.618896484375 330.0000305175781
v -1908.75927734375 -1464.618896484375 310.0000305175781
v -1887.06103515625 -1482.761962890625 310.0000305175781
v -1940.39208984375 -885.14111328125 309.9999694824219
v -1940.39208984375 -885.14111328125 329.9999694824219
v -1887.06103515625 -1482.761962890625 330.0000305175781
v -1908.75927734375 -1464.618896484375 310.0000305175781
v -1908.75927734375 -1464.618896484375 330.0000305175781
v -1958.53515625 -906.83935546875 329.9999694824219
v -1958.53515625 -906.83935546875 309.9999694824219
v -1940.39208984375 -885.14111328125 309.9999694824219
v -2637.62158203125 -947.35302734375 309.99993896484375
v -2637.62158203125 -947.35302734375 329.99993896484375
v -1940.39208984375 -885.14111328125 329.9999694824219
v -1958.53515625 -906.83935546875 309.9999694824219
v -1958.53515625 -906.83935546875 329.9999694824219
v -2615.92333984375 -965.496337890625 329.99993896484375
v -2615.92333984375 -965.496337890625 309.99993896484375
v -2637.62158203125 -947.35302734375 309.99993896484375
v -2584.291015625 -1544.985595703125 310.0
v -2584.291015625 -1544.985595703125 330.0
v -2637.62158203125 -947.35302734375 329.99993896484375
v -2615.92333984375 -965.496337890625 309.99993896484375
v -2615.92333984375 -965.496337890625 329.99993896484375
v -2566.14794921875 -1523.287109375 330.0
v -2566.14794921875 -1523.287109375 310.0
v -2584.291015625 -1544.985595703125 330.0
v -1887.06103515625 -1482.761962890625 330.0000305175781
v -1908.75927734375 -1464.618896484375 330.0000305175781
v -2566.14794921875 -1523.287109375 330.0
v -1940.39208984375 -885.14111328125 329.9999694824219
v -1958.53515625 -906.83935546875 329.9999694824219
v -2637.62158203125 -947.35302734375 329.99993896484375
v -2615.92333984375 -965.496337890625 329.99993896484375
v -1776.27880859375 1100.8056640625 9.999804496765137
v -1845.90771484375 732.3243408203125 9.999834060668945
v -1776.27880859375 1100.8056640625 229.9998016357422
v -1845.90771484375 732.3243408203125 229.9998321533203
v -1821.3408203125 727.685546875 9.999835014343262
v -1751.71826171875 1096.1671142578125 9.999805450439453
v -1821.3408203125 727.6856079101562 229.9998321533203
v -1751.71826171875 1096.1671142578125 229.99981689453125
v -1751.71826171875 1096.1671142578125 9.999805450439453
v -1776.27880859375 1100.8056640625 9.999804496765137
v -1751.71826171875 1096.1671142578125 229.99981689453125
v -1776.27880859375 1100.8056640625 229.9998016357422
v -1776.27880859375 1100.8056640625 -0.0001954531908268109
v -1845.90771484375 732.3243408203125 -0.00016628310550004244
v -1821.3408203125 727.685546875 -0.0001648037286940962
v -1751.71826171875 1096.1671142578125 -0.000193974090507254
v -1751.71826171875 1096.1671142578125 -0.000193974090507254
v -1776.27880859375 1100.8056640625 -0.0001954531908268109
v -1776.27880859375 1100.8056640625 239.99978637695312
v -1845.90771484375 732.3243408203125 239.99981689453125
v -1821.3408203125 727.6856079101562 239.99981689453125
v -1751.71826171875 1096.1671142578125 239.9998016357422
v -1751.71826171875 1096.1671142578125 239.9998016357422
v -1776.27880859375 1100.8056640625 239.99978637695312
v -1845.90771484375 732.3242797851562 239.99984741210938
v -1821.3408203125 727.6856079101562 239.99984741210938
v -1776.27880859375 1100.8056640625 239.99981689453125
v -1751.71826171875 1096.1671142578125 239.9998321533203
v -1874.5390625 626.6968994140625 49.99984359741211
v -2173.34912109375 600.03662109375 49.99982833862305
v -1874.5390625 626.6968994140625 299.9998474121094
v -2173.34912109375 600.03662109375 299.9998474121094
v -2173.34912109375 600.03662109375 49.99982833862305
v -2164.46142578125 500.432373046875 49.999839782714844
v -2164.46142578125 500.432373046875 259.9998474121094
v -2153.484375 377.42108154296875 259.9998474121094
v -2173.34912109375 600.03662109375 299.9998474121094
v -2153.484375 377.42108154296875 49.99985122680664
v -2128.9091796875 102.01416015625 49.9998779296875
v -2128.9091796875 102.01416015625 299.9998779296875
v -2128.9091796875 102.01416015625 49.9998779296875
v -1830.09375 128.6865234375 49.99988555908203
v -2128.9091796875 102.01416015625 299.9998779296875
v -1830.09375 128.6865234375 299.9998779296875
v -2164.46142578125 500.432373046875 259.9998474121094
v -2144.54052734375 502.21002197265625 259.9998474121094
v -2153.484375 377.42108154296875 259.9998474121094
v -2133.56396484375 379.19873046875 259.9998474121094
v -2164.46142578125 500.432373046875 4.999840259552002
v -2153.484375 377.42108154296875 4.999851226806641
v -2144.54052734375 502.21002197265625 4.99984073638916
v -2133.56396484375 379.19873046875 4.999852180480957
v -2144.54052734375 502.21002197265625 259.9998474121094
v -2164.46142578125 500.432373046875 4.999840259552002
v -2144.54052734375 502.21002197265625 4.99984073638916
v -2164.46142578125 500.432373046875 259.9998474121094
v -2133.56396484375 379.19873046875 259.9998474121094
v -2133.56396484375 379.19873046875 4.999852180480957
v -2153.484375 377.42108154296875 4.999851226806641
v -2153.484375 377.42108154296875 259.9998474121094
v -1874.5390625 626.6968994140625 -0.00015830037591513246
v -2173.34912109375 600.03662109375 -0.00016903106006793678
v -2173.34912109375 600.03662109375 -0.00016903106006793678
v -2128.9091796875 102.01416015625 -0.0001235500385519117
v -2164.46142578125 500.432373046875 4.999840259552002
v -2153.484375 377.42108154296875 4.999851226806641
v -2128.9091796875 102.01416015625 -0.0001235500385519117
v -1830.09375 128.6865234375 -0.00011282015475444496
v -2173.34912109375 600.03662109375 299.9998474121094
v -2128.9091796875 102.01416015625 299.9998779296875
v -1874.5390625 626.6968994140625 299.9998474121094
v -1830.09375 128.6865234375 299.9998779296875
v -1883.61083984375 615.8477783203125 299.9998474121094
v -2162.49951171875 590.9649047851562 299.9998474121094
v -2162.49951171875 590.9649047851562 319.9998474121094
v -1883.61083984375 615.8477783203125 319.9998474121094
v -1901.75390625 594.1495971679688 299.9998474121094
v -1901.75390625 594.1495971679688 319.9998474121094
v -2140.80126953125 572.8213500976562 319.9998474121094
v -2140.80126953125 572.8213500976562 299.9998474121094
v -2162.49951171875 590.9649047851562 299.9998474121094
v -2119.837890625 112.8636474609375 299.9998779296875
v -2119.837890625 112.8636474609375 319.9998779296875
v -2162.49951171875 590.9649047851562 319.9998474121094
v -2140.80126953125 572.8213500976562 299.9998474121094
v -2140.80126953125 572.8213500976562 319.9998474121094
v -2101.69482421875 134.5626220703125 319.9998779296875
v -2101.69482421875 134.5626220703125 299.9998779296875
v -2119.837890625 112.8636474609375 299.9998779296875
v -1840.94287109375 137.7578125 299.9998779296875
v -1840.94287109375 137.7578125 319.9998779296875
v -2119.837890625 112.8636474609375 319.9998779296875
v -2101.69482421875 134.5626220703125 299.9998779296875
v -2101.69482421875 134.5626220703125 319.9998779296875
v -1862.6416015625 155.900634765625 319.9998779296875
v -1862.6416015625 155.900634765625 299.9998779296875
v -1840.94287109375 137.7578125 299.9998779296875
v -1883.61083984375 615.8477783203125 299.9998474121094
v -1883.61083984375 615.8477783203125 319.9998474121094
v -1840.94287109375 137.7578125 319.9998779296875
v -1862.6416015625 155.900634765625 299.9998779296875
v -1862.6416015625 155.900634765625 319.9998779296875
v -1901.75390625 594.1495971679688 319.9998474121094
v -1901.75390625 594.1495971679688 299.9998474121094
v -1883.61083984375 615.8477783203125 319.9998474121094
v -2162.49951171875 590.9649047851562 319.9998474121094
v -2140.80126953125 572.8213500976562 319.9998474121094
v -1901.75390625 594.1495971679688 319.9998474121094
v -2119.837890625 112.8636474609375 319.9998779296875
v -2101.69482421875 134.5626220703125 319.9998779296875
v -1840.94287109375 137.7578125 319.9998779296875
v -1862.6416015625 155.900634765625 319.9998779296875
v 910.3485107421875 -1572.155517578125 0.00015566073125228286
v 927.5421142578125 -1670.666259765625 0.0001650243648327887
v 910.3485107421875 -1572.155517578125 390.0001220703125
v 927.5421142578125 -1670.666259765625 390.0001220703125
v 927.5421142578125 -1670.666259765625 0.0001650243648327887
v 952.0677490234375 -1666.386474609375 0.00016572226013522595
v 952.0677490234375 -1666.386474609375 323.712158203125
v 1392.9063720703125 -1589.461181640625 323.7121887207031
v 927.5421142578125 -1670.666259765625 390.0001525878906
v 1392.9063720703125 -1589.461181640625 0.0001782668987289071
v 1420.095703125 -1584.716552734375 0.00017904059495776892
v 1420.095703125 -1584.716552734375 390.00018310546875
v 1420.0958251953125 -1584.716552734375 0.00017904059495776892
v 1402.9083251953125 -1486.205810546875 0.00016967725241556764
v 1420.0958251953125 -1584.716552734375 390.00018310546875
v 1402.9083251953125 -1486.205810546875 390.00018310546875
v 910.3485107421875 -1572.155517578125 390.0001525878906
v 927.5421142578125 -1670.666259765625 390.0001525878906
v 1402.9083251953125 -1486.205810546875 390.00018310546875
v 1420.0958251953125 -1584.716552734375 390.00018310546875
v -1718.6982421875 1405.40771484375 9.999780654907227
v -1694.1318359375 1400.7568359375 9.999781608581543
v -1718.6982421875 1405.4078369140625 229.99978637695312
v -1694.1318359375 1400.7568359375 229.99978637695312
v -1694.1318359375 1400.7568359375 9.999781608581543
v -1561.404296875 2103.332763671875 9.999726295471191
v -1694.1318359375 1400.7568359375 229.99978637695312
v -1561.404296875 2103.332763671875 229.99972534179688
v -1585.97119140625 2107.97119140625 9.999725341796875
v -1718.6982421875 1405.40771484375 9.999780654907227
v -1585.97119140625 2107.97119140625 229.99972534179688
v -1718.6982421875 1405.40771484375 229.99978637695312
v -1718.6982421875 1405.40771484375 -0.0002195654233219102
v -1694.1318359375 1400.7568359375 -0.0002180849842261523
v -1694.1318359375 1400.7568359375 -0.0002180849842261523
v -1561.404296875 2103.332763671875 -0.0002737044414971024
v -1585.97119140625 2107.97119140625 -0.00027518378919921815
v -1718.6982421875 1405.40771484375 -0.00021956540876999497
v -1718.6982421875 1405.4078369140625 239.99977111816406
v -1694.1318359375 1400.7568359375 239.99977111816406
v -1694.1318359375 1400.7568359375 239.99977111816406
v -1561.404296875 2103.332763671875 239.9997100830078
v -1585.97119140625 2107.97119140625 239.9997100830078
v -1718.6982421875 1405.40771484375 239.99977111816406
v -1718.6982421875 1405.40771484375 239.9998016357422
v -1694.1318359375 1400.7568359375 239.9998016357422
v -1585.97119140625 2107.97119140625 239.99974060058594
v -1561.404296875 2103.33251953125 239.99974060058594
f 38 37 39
f 40 38 39
f 478 477 479
f 480 478 479
f 466 468 464
f 476 475 466
f 460 476 466
f 460 466 462
f 462 466 464
f 463 462 464
f 464 470 463
f 463 470 471
f 471 470 458
f 459 471 458
f 458 457 459
f 461 460 462
f 461 462 472
f 472 462 459
f 476 472 459
f 475 476 459
f 474 475 459
f 459 457 465
f 465 457 467
f 467 457 464
f 469 467 464
f 468 469 464
f 468 474 469
f 474 473 469
f 473 474 459
f 465 473 459
f 34 33 35
f 36 34 35
f 30 29 31
f 32 30 31
f 26 25 27
f 28 26 27
f 22 21 23
f 24 22 23
f 18 17 19
f 20 18 19
f 14 13 15
f 16 14 15
f 10 9 11
f 12 10 11
f 6 5 7
f 8 6 7
f 2 1 3
f 4 2 3
f 1481 1480 1482
f 1483 1481 1482
f 1469 1468 1470
f 1471 1469 1470
f 1065 1064 1066
f 1066 1067 1065
f 1061 1060 1062
f 1062 1063 1061
f 1049 1048 1050
f 1050 1051 1049
f 1045 1044 1046
f 1046 1047 1045
f 1033 1032 1034
f 1034 1035 1033
f 1029 1028 1030
f 1030 1031 1029
f 1017 1016 1018
f 1018 1019 1017
f 1013 1012 1014
f 1014 1015 1013
f 1001 1000 1002
f 1002 1003 1001
f 997 996 998
f 998 999 997
f 985 984 986
f 986 987 985
f 981 980 982
f 982 983 981
f 953 952 954
f 954 955 953
f 949 948 950
f 950 951 949
f 921 920 922
f 922 923 921
f 917 916 918
f 918 919 917
f 905 904 906
f 906 907 905
f 901 900 902
f 902 903 901
f 888 887 889
f 888 889 898
f 898 889 886
f 892 898 886
f 886 884 892
f 892 884 887
f 887 884 891
f 889 887 891
f 890 889 891
f 891 893 890
f 885 884 886
f 886 897 885
f 897 895 885
f 896 895 897
f 896 897 899
f 899 897 890
f 894 899 890
f 890 893 894
f 894 893 895
f 895 893 885
f 870 869 871
f 871 873 870
f 882 883 866
f 872 882 866
f 866 864 872
f 872 864 867
f 867 864 871
f 869 867 871
f 868 867 869
f 868 869 880
f 880 869 878
f 878 879 880
f 865 864 866
f 866 879 865
f 880 883 868
f 883 882 868
f 878 877 879
f 879 877 865
f 877 875 865
f 875 873 865
f 874 873 875
f 870 873 874
f 874 881 870
f 881 877 870
f 876 877 881
f 876 875 877
f 857 856 858
f 858 863 857
f 863 862 857
f 860 862 863
f 861 862 860
f 860 859 861
f 859 856 861
f 858 856 859
f 1473 1472 1474
f 1474 1472 1476
f 1475 1474 1476
f 1476 1479 1475
f 1475 1479 1478
f 1478 1477 1475
f 853 852 854
f 855 853 854
f 841 840 842
f 843 841 842
f 837 836 830
f 830 838 837
f 827 824 834
f 831 827 834
f 832 831 834
f 833 832 834
f 834 838 833
f 833 838 839
f 839 838 830
f 831 839 830
f 830 829 831
f 829 827 831
f 828 827 829
f 828 829 835
f 835 829 825
f 826 835 825
f 825 824 826
f 826 824 827
f 1073 1072 1074
f 1074 1072 1075
f 1071 1068 1069
f 1069 1068 1070
f 1057 1056 1058
f 1058 1056 1059
f 1055 1052 1053
f 1053 1052 1054
f 1041 1040 1042
f 1042 1040 1043
f 1039 1036 1037
f 1037 1036 1038
f 1025 1024 1026
f 1026 1024 1027
f 1023 1020 1021
f 1021 1020 1022
f 1009 1008 1010
f 1010 1008 1011
f 1007 1004 1005
f 1005 1004 1006
f 993 992 994
f 994 992 995
f 991 988 989
f 989 988 990
f 977 976 978
f 978 976 979
f 975 972 973
f 973 972 974
f 968 969 971
f 969 968 970
f 965 964 966
f 967 966 964
f 961 960 962
f 962 960 963
f 959 956 957
f 957 956 958
f 945 944 946
f 946 944 947
f 943 940 941
f 941 940 942
f 936 937 939
f 937 936 938
f 933 932 934
f 935 934 932
f 929 928 930
f 930 928 931
f 927 924 925
f 925 924 926
f 913 912 914
f 914 912 915
f 911 908 909
f 909 908 910
f 845 844 846
f 846 844 848
f 847 846 848
f 848 851 847
f 847 851 850
f 850 849 847
f 814 812 818
f 813 812 814
f 814 821 813
f 821 823 813
f 823 821 819
f 815 823 819
f 815 819 817
f 816 815 817
f 817 820 816
f 816 820 822
f 822 820 813
f 823 822 813
f 819 818 817
f 818 812 817
f 626 625 627
f 627 628 626
f 622 621 623
f 623 624 622
f 610 609 611
f 611 612 610
f 606 605 607
f 607 608 606
f 594 593 595
f 595 596 594
f 590 589 591
f 591 592 590
f 578 577 579
f 579 580 578
f 574 573 575
f 575 576 574
f 497 496 498
f 498 503 497
f 497 503 505
f 505 503 494
f 508 505 494
f 495 493 499
f 494 493 495
f 495 504 494
f 504 506 494
f 506 504 502
f 501 506 502
f 501 502 498
f 500 501 498
f 496 500 498
f 496 508 500
f 508 507 500
f 507 508 494
f 506 507 494
f 502 499 498
f 499 493 498
f 490 489 491
f 492 490 491
f 142 141 143
f 144 142 143
f 138 137 139
f 140 138 139
f 134 133 135
f 136 134 135
f 130 129 131
f 132 130 131
f 126 125 127
f 128 126 127
f 122 121 123
f 124 122 123
f 118 117 119
f 120 118 119
f 114 113 115
f 116 114 115
f 110 109 111
f 112 110 111
f 106 105 107
f 108 106 107
f 102 101 103
f 104 102 103
f 98 97 99
f 100 98 99
f 94 93 95
f 96 94 95
f 90 89 91
f 92 90 91
f 86 85 87
f 88 86 87
f 82 81 83
f 84 82 83
f 78 77 79
f 80 78 79
f 74 73 75
f 76 74 75
f 70 69 71
f 72 70 71
f 66 65 67
f 68 66 67
f 46 45 47
f 48 46 47
f 42 41 43
f 44 42 43
f 483 481 484
f 484 481 486
f 485 484 486
f 486 487 485
f 485 487 488
f 488 487 482
f 483 488 482
f 482 481 483
f 510 509 511
f 512 511 509
f 513 514 516
f 514 513 515
f 520 517 518
f 518 517 519
f 522 521 523
f 523 521 524
f 526 525 527
f 528 527 525
f 529 530 532
f 530 529 531
f 536 533 534
f 534 533 535
f 538 537 539
f 539 537 540
f 542 541 543
f 544 543 541
f 545 546 548
f 546 545 547
f 552 549 550
f 550 549 551
f 554 553 555
f 555 553 556
f 558 557 559
f 560 559 557
f 561 562 564
f 562 561 563
f 568 565 566
f 566 565 567
f 570 569 571
f 571 569 572
f 584 581 582
f 582 581 583
f 586 585 587
f 587 585 588
f 600 597 598
f 598 597 599
f 602 601 603
f 603 601 604
f 616 613 614
f 614 613 615
f 618 617 619
f 619 617 620
f 632 629 630
f 630 629 631
f 634 633 635
f 635 633 636
f 184 183 185
f 186 184 185
f 162 161 163
f 164 162 163
f 158 157 159
f 160 158 159
f 154 153 155
f 156 154 155
f 150 149 151
f 152 150 151
f 146 145 147
f 148 146 147
f 62 61 63
f 63 64 62
f 58 57 59
f 60 58 59
f 54 53 55
f 56 54 55
f 50 49 51
f 52 50 51
f 1525 1524 1526
f 1526 1527 1525
f 1521 1520 1522
f 1523 1521 1522
f 1517 1516 1518
f 1519 1517 1518
f 1513 1512 1514
f 1515 1513 1514
f 1509 1508 1510
f 1511 1509 1510
f 1505 1504 1506
f 1507 1505 1506
f 1501 1500 1502
f 1503 1501 1502
f 1485 1484 1486
f 1486 1487 1485
f 1425 1424 1426
f 1426 1427 1425
f 1421 1420 1422
f 1423 1421 1422
f 1409 1408 1410
f 1411 1409 1410
f 1373 1372 1374
f 1374 1375 1373
f 1369 1368 1370
f 1371 1369 1370
f 1365 1364 1366
f 1367 1365 1366
f 1361 1360 1362
f 1363 1361 1362
f 1357 1356 1358
f 1359 1357 1358
f 1353 1352 1354
f 1355 1353 1354
f 1349 1348 1350
f 1351 1349 1350
f 1329 1328 1330
f 1333 1329 1330
f 1332 1329 1333
f 1335 1332 1333
f 1334 1332 1335
f 1331 1334 1335
f 1328 1334 1331
f 1330 1328 1331
f 1457 1456 1458
f 1458 1456 1459
f 1453 1452 1454
f 1454 1452 1455
f 1449 1448 1450
f 1450 1448 1451
f 1445 1444 1446
f 1446 1444 1447
f 1441 1440 1442
f 1442 1440 1443
f 1437 1436 1438
f 1438 1436 1439
f 1433 1432 1434
f 1434 1432 1435
f 1429 1428 1430
f 1430 1428 1431
f 1417 1416 1418
f 1418 1416 1413
f 1414 1418 1413
f 1413 1412 1414
f 1414 1412 1415
f 1419 1414 1415
f 1293 1292 1294
f 1294 1295 1293
f 1289 1288 1290
f 1291 1289 1290
f 1285 1284 1286
f 1287 1285 1286
f 1281 1280 1282
f 1283 1281 1282
f 1277 1276 1278
f 1279 1277 1278
f 1265 1264 1266
f 1267 1265 1266
f 1261 1260 1262
f 1263 1261 1262
f 1249 1248 1250
f 1251 1249 1250
f 1197 1196 1198
f 1201 1197 1536
f 1200 1197 1201
f 1203 1537 1201
f 1202 1537 1203
f 1205 1538 1203
f 1204 1538 1205
f 1207 1204 1539
f 1206 1204 1207
f 1209 1206 1540
f 1208 1206 1209
f 1211 1208 1541
f 1210 1208 1211
f 1199 1210 1542
f 1543 1210 1199
f 1198 1196 1544
f 1325 1324 1326
f 1326 1324 1327
f 1321 1320 1322
f 1322 1320 1323
f 1317 1316 1318
f 1318 1316 1319
f 1313 1312 1314
f 1314 1312 1315
f 1309 1308 1310
f 1310 1308 1311
f 1305 1304 1306
f 1306 1304 1307
f 1301 1300 1302
f 1302 1300 1303
f 1297 1296 1298
f 1298 1296 1299
f 1257 1256 1258
f 1258 1256 1253
f 1254 1258 1253
f 1253 1252 1254
f 1254 1252 1255
f 1259 1254 1255
f 1121 1120 1122
f 1123 1121 1122
f 1117 1116 1118
f 1119 1117 1118
f 1113 1112 1114
f 1115 1113 1114
f 1109 1108 1110
f 1111 1109 1110
f 1105 1104 1106
f 1107 1105 1106
f 1101 1100 1102
f 1103 1101 1102
f 1097 1096 1098
f 1099 1097 1098
f 1093 1092 1094
f 1095 1093 1094
f 805 804 806
f 809 1545 1546
f 808 1545 809
f 811 808 1547
f 810 808 811
f 807 810 1548
f 1549 810 807
f 806 804 1550
f 1193 1192 1194
f 1194 1192 1195
f 1189 1188 1190
f 1190 1188 1191
f 1185 1184 1186
f 1186 1184 1187
f 1181 1180 1182
f 1182 1180 1183
f 1177 1176 1178
f 1178 1176 1179
f 1173 1172 1174
f 1174 1172 1175
f 1169 1168 1170
f 1170 1168 1171
f 1165 1164 1166
f 1166 1164 1167
f 1161 1160 1162
f 1162 1160 1163
f 1157 1156 1158
f 1158 1156 1159
f 1153 1152 1154
f 1154 1152 1155
f 1149 1148 1150
f 1150 1148 1151
f 1145 1144 1146
f 1146 1144 1147
f 1141 1140 1142
f 1142 1140 1143
f 1137 1136 1138
f 1138 1136 1139
f 1133 1132 1134
f 1134 1132 1135
f 1125 1124 1126
f 1126 1124 1128
f 1127 1126 1128
f 1128 1131 1127
f 1127 1131 1130
f 1130 1129 1127
f 765 764 766
f 767 765 766
f 753 752 754
f 755 753 754
f 749 748 750
f 751 749 750
f 690 689 691
f 691 694 690
f 688 687 689
f 689 687 691
f 691 687 693
f 692 691 693
f 693 695 692
f 801 800 802
f 802 800 803
f 797 796 798
f 798 796 799
f 793 792 794
f 794 792 795
f 789 788 790
f 790 788 791
f 785 784 786
f 786 784 787
f 781 780 782
f 782 780 783
f 777 776 778
f 778 776 779
f 773 772 774
f 774 772 775
f 769 768 770
f 770 768 771
f 761 760 762
f 762 760 757
f 758 762 757
f 757 756 758
f 758 756 759
f 763 758 759
f 684 683 685
f 686 684 685
f 680 679 681
f 682 680 681
f 676 675 677
f 678 676 677
f 672 671 673
f 674 672 673
f 668 667 669
f 670 668 669
f 664 663 665
f 666 664 665
f 660 659 661
f 662 660 661
f 656 655 657
f 658 656 657
f 652 651 653
f 654 652 653
f 642 640 643
f 643 645 642
f 638 637 639
f 650 638 1551
f 649 638 650
f 1552 648 649
f 647 649 648
f 646 1553 1554
f 1554 644 646
f 642 1555 1556
f 1556 641 642
f 642 641 640
f 637 640 641
f 1557 639 637
f 415 414 416
f 416 414 411
f 411 412 1558
f 412 411 413
f 207 208 210
f 208 207 209
f 167 169 166
f 166 165 167
f 167 165 168
f 168 170 167
f 452 451 453
f 453 456 452
f 456 454 452
f 455 454 456
f 1465 1461 1462
f 1461 1460 1462
f 1462 1460 1463
f 1460 1466 1463
f 1463 1466 1467
f 1466 1464 1467
f 1467 1464 1465
f 1464 1461 1465
f 1077 1076 1078
f 1090 1077 1559
f 1089 1077 1090
f 1560 1088 1089
f 1086 1089 1088
f 1087 1086 1561
f 1085 1086 1087
f 1562 1084 1085
f 1083 1085 1084
f 1081 1083 1563
f 1563 1091 1081
f 1091 1082 1564
f 1079 1564 1082
f 1082 1080 1565
f 1566 1565 1080
f 1567 1078 1076
f 448 447 449
f 450 448 449
f 444 443 445
f 446 444 445
f 440 439 441
f 442 440 441
f 436 435 437
f 438 436 437
f 432 431 433
f 434 432 433
f 428 427 429
f 430 428 429
f 350 349 351
f 351 354 350
f 354 352 350
f 353 352 354
f 419 426 418
f 418 417 419
f 417 420 1568
f 422 1568 420
f 420 421 1569
f 1569 421 423
f 421 424 1570
f 425 1570 424
f 1274 1270 1272
f 1272 1273 1571
f 1571 1273 1275
f 1273 1271 1572
f 1269 1572 1271
f 1271 1268 1573
f 1573 1268 1574
f 1575 1272 1270
f 346 345 347
f 348 346 347
f 342 341 343
f 344 342 343
f 338 337 339
f 340 338 339
f 334 333 335
f 336 334 335
f 330 329 331
f 332 330 331
f 326 325 327
f 328 326 327
f 322 321 323
f 324 322 323
f 318 317 319
f 320 318 319
f 314 313 315
f 316 314 315
f 310 309 311
f 312 310 311
f 306 305 307
f 308 306 307
f 302 301 303
f 304 302 303
f 268 267 269
f 270 268 269
f 264 263 265
f 266 264 265
f 260 259 261
f 262 260 261
f 256 255 257
f 258 256 257
f 252 251 253
f 254 252 253
f 248 247 249
f 250 248 249
f 244 243 245
f 246 244 245
f 240 239 241
f 242 240 241
f 236 235 237
f 238 236 237
f 232 231 233
f 234 232 233
f 204 203 205
f 206 204 205
f 200 199 201
f 202 200 201
f 196 195 197
f 198 196 197
f 192 191 193
f 194 192 193
f 188 187 189
f 190 188 189
f 273 276 272
f 272 271 273
f 1576 274 271
f 274 1576 275
f 214 212 213
f 212 211 213
f 180 179 181
f 182 180 181
f 176 175 177
f 178 176 177
f 172 171 173
f 174 172 173
f 1497 1496 1498
f 1499 1497 1498
f 1493 1492 1494
f 1495 1493 1494
f 1489 1488 1490
f 1491 1489 1490
f 1397 1396 1398
f 1398 1399 1397
f 1393 1392 1394
f 1394 1395 1393
f 1389 1388 1390
f 1391 1389 1390
f 1377 1376 1378
f 1379 1377 1378
f 1345 1344 1346
f 1347 1345 1346
f 1341 1340 1342
f 1343 1341 1342
f 1337 1336 1338
f 1339 1337 1338
f 1237 1236 1238
f 1238 1239 1237
f 1233 1232 1234
f 1234 1235 1233
f 1229 1228 1230
f 1231 1229 1230
f 1225 1224 1226
f 1227 1225 1226
f 1213 1212 1214
f 1215 1213 1214
f 737 736 738
f 738 739 737
f 733 732 734
f 734 735 733
f 400 399 401
f 401 402 400
f 396 395 397
f 397 398 396
f 384 383 385
f 385 386 384
f 380 379 381
f 381 382 380
f 376 375 377
f 378 376 377
f 360 359 361
f 362 360 361
f 356 355 357
f 358 356 357
f 298 297 299
f 300 298 299
f 294 293 295
f 296 294 295
f 290 289 291
f 292 290 291
f 286 285 287
f 288 286 287
f 282 281 283
f 284 282 283
f 278 277 279
f 280 278 279
f 228 227 229
f 230 228 229
f 224 223 225
f 226 224 225
f 220 219 221
f 222 220 221
f 216 215 217
f 218 216 217
f 704 703 705
f 704 705 706
f 706 705 701
f 702 706 701
f 701 700 702
f 702 700 703
f 703 700 697
f 705 703 697
f 698 705 697
f 697 696 698
f 698 696 699
f 707 698 699
f 725 724 726
f 726 731 725
f 731 730 725
f 728 730 731
f 729 730 728
f 728 727 729
f 727 724 729
f 726 724 727
f 1405 1404 1406
f 1406 1404 1407
f 1403 1400 1401
f 1401 1400 1402
f 1381 1380 1382
f 1382 1380 1384
f 1383 1382 1384
f 1384 1387 1383
f 1383 1387 1386
f 1386 1385 1383
f 722 721 719
f 719 723 722
f 720 723 719
f 719 718 720
f 718 716 720
f 717 716 718
f 1245 1244 1246
f 1246 1244 1247
f 1243 1240 1241
f 1241 1240 1242
f 1217 1216 1218
f 1218 1216 1220
f 1219 1218 1220
f 1220 1223 1219
f 1219 1223 1222
f 1222 1221 1219
f 367 371 373
f 368 371 367
f 367 366 368
f 366 370 368
f 366 374 370
f 374 372 370
f 372 374 364
f 365 372 364
f 364 363 365
f 365 363 369
f 369 363 368
f 370 369 368
f 374 373 364
f 373 371 364
f 712 711 713
f 713 714 712
f 712 714 715
f 715 714 709
f 710 715 709
f 709 708 710
f 710 708 711
f 711 708 713
f 745 744 746
f 746 744 747
f 743 740 741
f 741 740 742
f 408 407 409
f 409 407 410
f 406 403 404
f 404 403 405
f 392 391 393
f 393 391 394
f 390 387 388
f 388 387 389
f 1529 1528 1530
f 1530 1528 1531
f 1533 1532 1534
f 1534 1532 1535
