# from FinancialDistrict_Block35_Generic_0002_LOD_0.pskx
v 750.6885375976562 597.4610595703125 -0.02510426566004753
v 283.34454345703125 778.9244384765625 -0.025140557438135147
v 750.6885375976562 597.461181640625 400.0248718261719
v 283.34454345703125 778.9244384765625 400.0248718261719
v 283.3769226074219 778.938720703125 -0.025140559300780296
v -5.007851600646973 32.670040130615234 -0.025087926536798477
v 283.3769226074219 778.938720703125 400.0248718261719
v -5.007882118225098 32.670040130615234 400.02490234375
v -284.65875244140625 141.25782775878906 -0.02510964311659336
v 4.922348499298096 887.056396484375 -0.02516218274831772
v -284.65875244140625 141.25782775878906 400.0248718261719
v 4.922317981719971 887.056396484375 400.0248107910156
v 4.9366044998168945 887.0240478515625 -0.02516217902302742
v -577.739501953125 1113.2628173828125 -0.02520742453634739
v 4.9365739822387695 887.0240478515625 400.0248107910156
v -577.739501953125 1113.2628173828125 400.0248107910156
v -750.6876220703125 -883.5125732421875 -0.02504042722284794
v -285.3595886230469 -1113.27099609375 -0.02499999664723873
v -644.205322265625 -936.0887451171875 100.02497100830078
v -644.205322265625 -936.0887451171875 296.91192626953125
v -378.9253234863281 -1067.072265625 296.9119873046875
v -750.6876831054688 -883.5125122070312 400.0249328613281
v -285.359619140625 -1113.27099609375 400.0249938964844
v -378.9253234863281 -1067.072265625 100.02498626708984
v -378.89154052734375 -1067.1168212890625 296.9369812011719
v -644.26123046875 -936.0890502929688 296.9369201660156
v -639.8131713867188 -927.0803833007812 296.9369201660156
v -374.4435119628906 -1058.1082763671875 296.9369812011719
v -378.89154052734375 -1067.1168212890625 99.99998474121094
v -639.8131713867188 -927.0804443359375 99.99996948242188
v -644.26123046875 -936.0890502929688 99.99996948242188
v -374.4434814453125 -1058.1082763671875 99.99998474121094
v -639.790771484375 -927.0914916992188 296.9619140625
v -644.23876953125 -936.10009765625 99.97496795654297
v -639.790771484375 -927.091552734375 99.97496795654297
v -644.23876953125 -936.10009765625 296.9619140625
v -374.4659118652344 -1058.09716796875 296.96197509765625
v -374.46588134765625 -1058.09716796875 99.97498321533203
v -378.9139709472656 -1067.1058349609375 99.97498321533203
v -378.9139709472656 -1067.1058349609375 296.96197509765625
v 12.905400276184082 78.7350845336914 399.9999084472656
v -284.6820373535156 141.26077270507812 399.9998779296875
v -4.984553813934326 32.661128997802734 399.9999084472656
v -266.7928466796875 187.334716796875 399.9998779296875
v 12.89635181427002 78.71177673339844 374.97491455078125
v -266.8019104003906 187.31141662597656 400.0248718261719
v 12.89635181427002 78.71177673339844 400.02490234375
v -266.8019104003906 187.31141662597656 374.9748840332031
v 30.777257919311523 124.7624282836914 374.9998779296875
v -266.8109436035156 187.28811645507812 374.9998779296875
v 12.887303352355957 78.68846893310547 374.9999084472656
v -248.9217529296875 233.362060546875 374.9998779296875
v 30.76820945739746 124.73912048339844 349.9748840332031
v -248.93080139160156 233.33876037597656 375.0248718261719
v 30.76820945739746 124.73912048339844 375.0248718261719
v -248.93080139160156 233.33876037597656 349.9748840332031
v 48.649112701416016 170.78988647460938 349.9998779296875
v -248.93984985351562 233.31546020507812 349.9998779296875
v 30.759159088134766 124.71581268310547 349.9998779296875
v -231.0506591796875 279.3895263671875 349.9998779296875
v 48.64009475708008 170.76658630371094 324.9748840332031
v -231.05970764160156 279.3662414550781 350.0248718261719
v 48.64006423950195 170.76658630371094 350.0248718261719
v -231.05970764160156 279.3662414550781 324.9748840332031
v 66.52100372314453 216.81723022460938 324.9999084472656
v -231.06875610351562 279.3429260253906 324.9998779296875
v 48.631046295166016 170.7432861328125 324.9998779296875
v -213.1795654296875 325.4168701171875 324.9998779296875
v 66.51195526123047 216.79393005371094 299.97491455078125
v -213.18861389160156 325.3935852050781 325.0248718261719
v 66.51195526123047 216.79393005371094 325.02490234375
v -213.18861389160156 325.3935852050781 299.9748840332031
v 84.39286041259766 262.8445739746094 299.9999084472656
v -213.19766235351562 325.3702697753906 299.9998779296875
v 66.5029067993164 216.7706298828125 299.9999084472656
v -195.30848693847656 371.4442138671875 299.9998779296875
v 84.3838119506836 262.8212585449219 274.97491455078125
v -195.31753540039062 371.4209289550781 300.0248718261719
v 84.3838119506836 262.8212585449219 300.02490234375
v -195.31753540039062 371.4209289550781 274.9748840332031
v 102.26471710205078 308.8720397949219 274.9999084472656
v -195.3265838623047 371.3976135253906 274.9998779296875
v 84.37476348876953 262.7979736328125 274.9999084472656
v -177.43739318847656 417.4716796875 274.9998779296875
v 102.25566864013672 308.8487243652344 249.9748992919922
v -177.44644165039062 417.4483947753906 275.0248718261719
v 102.25566864013672 308.8487243652344 275.02490234375
v -177.44642639160156 417.4483947753906 249.97486877441406
v 120.1365737915039 354.8993835449219 249.99989318847656
v -177.45547485351562 417.4250793457031 249.99986267089844
v 102.24662017822266 308.825439453125 249.99989318847656
v -159.5662841796875 463.4990234375 249.99986267089844
v 120.12752532958984 354.8760681152344 224.9748992919922
v -159.57533264160156 463.4757385253906 250.0248565673828
v 120.12752532958984 354.8760681152344 250.02488708496094
v -159.57533264160156 463.4757385253906 224.97486877441406
v 138.0084228515625 400.9267272949219 224.9998779296875
v -159.58438110351562 463.4524230957031 224.99986267089844
v 120.11847686767578 354.852783203125 224.99989318847656
v -141.69522094726562 509.5263671875 224.99986267089844
v 137.99937438964844 400.9034118652344 199.97488403320312
v -141.7042694091797 509.5030822753906 225.0248565673828
v 137.99937438964844 400.9034118652344 225.02487182617188
v -141.7042694091797 509.5030822753906 199.97486877441406
v 155.88027954101562 446.9540710449219 199.9998779296875
v -141.71331787109375 509.4797668457031 199.99986267089844
v 137.99032592773438 400.880126953125 199.9998779296875
v -123.82413482666016 555.5537109375 199.99984741210938
v 155.87123107910156 446.9307556152344 174.97488403320312
v -123.83318328857422 555.5303955078125 200.02484130859375
v 155.87123107910156 446.9307556152344 200.02487182617188
v -123.83318328857422 555.5303955078125 174.974853515625
v 173.75213623046875 492.9814147949219 174.9998779296875
v -123.84223175048828 555.507080078125 174.99984741210938
v 155.8621826171875 446.907470703125 174.9998779296875
v -105.95304107666016 601.5810546875 174.99986267089844
v 173.7430877685547 492.9580993652344 149.97488403320312
v -105.96208953857422 601.5577392578125 175.0248565673828
v 173.7430877685547 492.9580993652344 175.02487182617188
v -105.96207427978516 601.5577392578125 149.97486877441406
v 191.62399291992188 539.0089111328125 149.9998779296875
v -105.97112274169922 601.534423828125 149.99986267089844
v 173.73403930664062 492.934814453125 149.9998779296875
v -88.0819320678711 647.6085205078125 149.99986267089844
v 191.6149444580078 538.985595703125 124.9748764038086
v -88.09098052978516 647.585205078125 150.0248565673828
v 191.6149444580078 538.985595703125 150.02487182617188
v -88.09098052978516 647.585205078125 124.974853515625
v 209.495849609375 585.0362548828125 124.9998779296875
v -88.10002899169922 647.5618896484375 124.9998550415039
v 191.60589599609375 538.9622802734375 124.9998779296875
v -70.2108383178711 693.6358642578125 124.99984741210938
v 209.48680114746094 585.012939453125 99.9748764038086
v -70.21988677978516 693.612548828125 125.02484893798828
v 209.48680114746094 585.012939453125 125.0248794555664
v -70.21988677978516 693.612548828125 99.97484588623047
v 227.36767578125 631.0635986328125 99.99987030029297
v -70.22893524169922 693.5892333984375 99.99984741210938
v 209.47775268554688 584.9896240234375 99.9998779296875
v -52.33974075317383 739.6632080078125 99.99984741210938
v 227.35862731933594 631.040283203125 74.97486877441406
v -52.34878921508789 739.639892578125 100.02484893798828
v 227.35862731933594 631.040283203125 100.02487182617188
v -52.34878921508789 739.639892578125 74.97484588623047
v 245.23956298828125 677.091064453125 74.99986267089844
v -52.35783767700195 739.6165771484375 74.99984741210938
v 227.34957885742188 631.0169677734375 74.99987030029297
v -34.46864700317383 785.690673828125 74.99983978271484
v 245.2305145263672 677.0677490234375 49.9748649597168
v -34.47769546508789 785.6673583984375 75.02484130859375
v 245.2305145263672 677.0677490234375 75.02486419677734
v -34.47769546508789 785.6673583984375 49.9748420715332
v 263.1114501953125 723.118408203125 49.99986267089844
v -34.48674392700195 785.64404296875 49.99984359741211
v 245.22146606445312 677.04443359375 49.9998664855957
v -16.597570419311523 831.718017578125 49.999839782714844
v 263.1024169921875 723.0950927734375 24.974864959716797
v -16.606618881225586 831.6947021484375 50.02484130859375
v 263.1024169921875 723.0950927734375 50.024864196777344
v -16.606618881225586 831.6947021484375 24.974842071533203
v 280.9832763671875 769.145751953125 24.999860763549805
v -16.615665435791016 831.67138671875 24.999841690063477
v 263.0933532714844 723.07177734375 24.99986457824707
v 1.2735241651535034 877.745361328125 24.999839782714844
v 280.9742431640625 769.1224365234375 -0.025139808654785156
v 1.264475703239441 877.7220458984375 25.024839401245117
v 280.9742431640625 769.1224365234375 25.024860382080078
v 1.264475703239441 877.7220458984375 -0.02516152523458004
v 750.6956787109375 597.4805908203125 399.9998779296875
v 283.3536376953125 778.9476928710938 399.9998779296875
v -5.01308012008667 32.725799560546875 399.9999084472656
v -284.6173400878906 141.29537963867188 399.9998779296875
v -285.3717346191406 -1113.2952880859375 400.0
v -577.7320556640625 1113.279296875 399.99981689453125
v 4.945622444152832 887.04736328125 399.99981689453125
v -750.7012329101562 -883.5438232421875 399.99993896484375
v -577.7304077148438 1113.292236328125 399.99981689453125
v 4.929452896118164 887.0402221679688 399.99981689453125
v -28.83559799194336 872.7706909179688 399.99981689453125
v -586.7938842773438 1089.936279296875 399.99981689453125
v -272.1330871582031 243.10397338867188 399.9998779296875
v -247.61148071289062 233.63160705566406 399.9998779296875
v 283.3607177734375 778.9315795898438 399.9998779296875
v 741.6340942382812 574.1346435546875 399.9998779296875
v 297.64251708984375 746.5516357421875 399.9998779296875
v 750.6975708007812 597.4844970703125 399.9998779296875
v 31.01622200012207 125.9592056274414 399.9998779296875
v 54.390438079833984 116.92628479003906 399.9998779296875
v 36.42176055908203 70.22216796875 399.9999084472656
v 13.071834564208984 79.2856674194336 399.9999084472656
v 31.180723190307617 125.94482421875 399.9998779296875
v 54.53064727783203 116.8750991821289 399.9998779296875
v -266.5446472167969 187.855224609375 399.9998779296875
v -289.8944396972656 196.92483520507812 399.9998779296875
v -271.7733459472656 243.57789611816406 399.9998779296875
v -248.42344665527344 234.51437377929688 399.9998779296875
v -285.95916748046875 -1112.82763671875 400.0
v -750.7012329101562 -883.5438232421875 399.99993896484375
v -748.3230590820312 -856.26513671875 399.99993896484375
v -270.3853454589844 -1092.573974609375 400.0
v -19.795860290527344 896.0986328125 499.99981689453125
v 3.5661795139312744 887.065673828125 499.99981689453125
v -5.460635662078857 863.70361328125 499.99981689453125
v -28.822675704956055 872.73046875 499.99981689453125
v 4.9365739822387695 887.0240478515625 399.9748229980469
v -577.7393798828125 1113.2689208984375 399.9748229980469
v 4.9365739822387695 887.0240478515625 500.0248107910156
v -577.7393798828125 1113.2689208984375 500.0248107910156
v -586.7848510742188 1089.9595947265625 399.9748229980469
v -28.779254913330078 872.7295532226562 399.9748229980469
v -586.7848510742188 1089.9595947265625 500.0248107910156
v -28.779254913330078 872.7295532226562 500.0248107910156
v -28.793540954589844 872.761962890625 399.9748229980469
v -272.1097717285156 243.094970703125 399.9748840332031
v -28.793540954589844 872.761962890625 500.0248107910156
v -272.1097717285156 243.094970703125 500.0248718261719
v -272.12408447265625 243.12728881835938 399.9748840332031
v -247.60244750976562 233.65493774414062 399.9748840332031
v -272.12408447265625 243.12728881835938 500.0248718261719
v -247.6024627685547 233.65493774414062 500.0248718261719
v -247.6348419189453 233.640625 399.9748840332031
v 4.9222517013549805 887.056396484375 399.9748229980469
v -247.6348419189453 233.640625 500.0248718261719
v 4.9222517013549805 887.056396484375 500.0248107910156
v -577.7304077148438 1113.292236328125 499.99981689453125
v -28.83559799194336 872.7706909179688 499.99981689453125
v 4.929452896118164 887.0402221679688 499.99981689453125
v -586.7938842773438 1089.936279296875 499.99981689453125
v -272.1330871582031 243.10397338867188 499.9998779296875
v -247.61148071289062 233.63160705566406 499.9998779296875
v 750.6885375976562 597.461181640625 399.9748840332031
v 283.34454345703125 778.9244384765625 399.9748840332031
v 750.6885375976562 597.461181640625 500.0248718261719
v 283.34454345703125 778.924560546875 500.0248718261719
v 283.3768615722656 778.938720703125 399.9748840332031
v 31.039541244506836 125.95018768310547 399.9748840332031
v 283.3768615722656 778.9388427734375 500.0248718261719
v 31.039541244506836 125.95018768310547 500.0248718261719
v 31.02523422241211 125.9825210571289 399.9748840332031
v 54.39944839477539 116.9496078491211 399.9748840332031
v 31.02523422241211 125.9825210571289 500.0248718261719
v 54.39944839477539 116.9496078491211 500.0248718261719
v 54.36711883544922 116.93529510498047 399.9748840332031
v 297.6834411621094 746.6083984375 399.9748840332031
v 54.36711883544922 116.93529510498047 500.0248718261719
v 297.6834411621094 746.6085205078125 500.0248718261719
v 297.651123046875 746.5941162109375 399.9748840332031
v 741.6431274414062 574.157958984375 399.9748840332031
v 297.651123046875 746.59423828125 500.0248718261719
v 741.6431274414062 574.157958984375 500.0248718261719
v 283.3607177734375 778.9317016601562 499.9998779296875
v 297.7206115722656 746.5863037109375 499.9998779296875
v 741.6340942382812 574.1346435546875 499.9998779296875
v 750.6975708007812 597.4844970703125 499.9998779296875
v 31.01622200012207 125.9592056274414 499.9998779296875
v 54.390438079833984 116.92628479003906 499.9998779296875
v 284.5498962402344 778.4779052734375 499.9998779296875
v 307.89971923828125 769.4144287109375 499.9998779296875
v 298.8362121582031 746.0645751953125 499.9998779296875
v 275.48638916015625 755.1280517578125 499.9998779296875
v 298.81292724609375 746.0736083984375 499.9748840332031
v 307.87640380859375 769.4234619140625 499.9748840332031
v 298.8128662109375 746.0736083984375 900.0248413085938
v 307.8763427734375 769.4234619140625 900.0248413085938
v 307.89068603515625 769.39111328125 499.9748840332031
v 284.54083251953125 778.45458984375 499.9748840332031
v 307.890625 769.39111328125 900.0248413085938
v 284.540771484375 778.45458984375 900.0248413085938
v 284.57318115234375 778.4688720703125 499.9748840332031
v 275.50970458984375 755.1190185546875 499.9748840332031
v 284.5731201171875 778.4688720703125 900.0248413085938
v 275.5096435546875 755.1190185546875 900.0248413085938
v 275.49542236328125 755.1513671875 499.9748840332031
v 298.84527587890625 746.087890625 499.9748840332031
v 275.495361328125 755.1513671875 900.0248413085938
v 298.84521484375 746.087890625 900.0248413085938
v -289.8822326660156 196.92515563964844 849.99658203125
v 307.89959716796875 769.4141845703125 950.0031127929688
v -18.404319763183594 896.1168823242188 950.0031127929688
v 36.433982849121094 70.22248840332031 849.99658203125
v -289.8822326660156 196.92515563964844 799.99658203125
v -18.404319763183594 896.1168823242188 900.0031127929688
v 307.89959716796875 769.4141845703125 900.0031127929688
v 36.433982849121094 70.22248840332031 799.99658203125
v 307.890625 769.39111328125 950.0248413085938
v -18.413288116455078 896.09375 899.9747924804688
v -18.413288116455078 896.09375 950.0248413085938
v 307.890625 769.39111328125 899.9747924804688
v -18.382131576538086 896.1049194335938 950.0245971679688
v -289.8577880859375 196.9189910888672 799.97509765625
v -289.8601989746094 196.91282653808594 850.024658203125
v -18.37973976135254 896.111083984375 899.9750366210938
v -289.8732604980469 196.94825744628906 850.02490234375
v 36.44295120239258 70.24559020996094 799.974853515625
v 36.44295120239258 70.24559020996094 850.02490234375
v -289.8732604980469 196.94825744628906 799.974853515625
v 36.40940475463867 70.22825622558594 850.024658203125
v 307.8775634765625 769.426513671875 899.9750366210938
v 307.8751525878906 769.4203491210938 950.0245971679688
v 36.41179656982422 70.23441314697266 799.97509765625
v 284.5498352050781 778.4779052734375 899.9998168945312
v 298.8361511230469 746.0645751953125 899.9998168945312
v 307.899658203125 769.4144287109375 899.9998168945312
v 275.486328125 755.1280517578125 899.9998168945312
v 13.080881118774414 79.30897521972656 399.97491455078125
v 36.43080520629883 70.24546813964844 399.97491455078125
v 13.080881118774414 79.30909729003906 820.02490234375
v 36.43080520629883 70.24559020996094 820.02490234375
v 36.39845657348633 70.23120880126953 399.97491455078125
v 54.50736618041992 116.88414764404297 399.9748840332031
v 36.39845657348633 70.23133087158203 820.02490234375
v 54.50736618041992 116.88426971435547 820.02490234375
v 54.52156448364258 116.85179138183594 399.9748840332031
v 31.171672821044922 125.92152404785156 399.9748840332031
v 54.52156448364258 116.85191345214844 820.02490234375
v 31.171672821044922 125.92164611816406 820.02490234375
v 31.204051971435547 125.93578338623047 399.9748840332031
v 13.095141410827637 79.27661895751953 399.97491455078125
v 31.204051971435547 125.93590545654297 820.02490234375
v 13.095141410827637 79.27674102783203 820.02490234375
v 36.42176055908203 70.2222900390625 819.9998779296875
v 31.180723190307617 125.9449462890625 819.9998779296875
v 13.071834564208984 79.2857894897461 819.9998779296875
v 54.53064727783203 116.8752212524414 819.9998779296875
v -271.7500305175781 243.56883239746094 399.9748840332031
v -289.8711853027344 196.91578674316406 399.9748840332031
v -271.75006103515625 243.56895446777344 820.02490234375
v -289.8711853027344 196.91590881347656 820.02490234375
v -289.8854064941406 196.94813537597656 399.9748840332031
v -266.53558349609375 187.87852478027344 399.9748840332031
v -289.8854064941406 196.94825744628906 820.02490234375
v -266.5356140136719 187.87864685058594 820.02490234375
v -266.56793212890625 187.86427307128906 399.9748840332031
v -248.44676208496094 234.52342224121094 399.9748840332031
v -266.5679626464844 187.86439514160156 820.02490234375
v -248.44676208496094 234.52354431152344 820.02490234375
v -248.4324951171875 234.49107360839844 399.9748840332031
v -271.78240966796875 243.55458068847656 399.9748840332031
v -248.43251037597656 234.49119567871094 820.02490234375
v -271.7824401855469 243.55470275878906 820.02490234375
v -266.5446472167969 187.8553466796875 819.9998779296875
v -271.77337646484375 243.57801818847656 819.9998779296875
v -289.89447021484375 196.92495727539062 819.9998779296875
v -248.4234619140625 234.51449584960938 819.9998779296875
v -750.6876831054688 -883.5125122070312 399.9749450683594
v -285.9454345703125 -1112.801025390625 399.9750061035156
v -750.6876831054688 -883.5125122070312 500.0249328613281
v -285.9454650878906 -1112.801025390625 500.0249938964844
v -270.3938293457031 -1092.59228515625 399.9750061035156
v -748.3317260742188 -856.2785034179688 399.9749450683594
v -270.3938293457031 -1092.59228515625 500.0249938964844
v -748.3317260742188 -856.2784423828125 500.0249328613281
v -285.95916748046875 -1112.82763671875 500.0
v -748.3230590820312 -856.26513671875 499.99993896484375
v -750.7012329101562 -883.5438232421875 499.99993896484375
v -270.3853454589844 -1092.573974609375 500.0
v 3.557161808013916 887.0423583984375 499.9748229980469
v -19.804872512817383 896.0753173828125 499.9748229980469
v 3.557161808013916 887.04248046875 900.0248413085938
v -19.804872512817383 896.075439453125 900.0248413085938
v -19.772546768188477 896.089599609375 499.9748229980469
v -28.79938316345215 872.721435546875 499.9748229980469
v -19.772546768188477 896.0897216796875 900.0248413085938
v -28.79938316345215 872.7215576171875 900.0248413085938
v -28.813663482666016 872.7537841796875 499.9748229980469
v -5.451625347137451 863.7269287109375 499.9748229980469
v -28.813663482666016 872.75390625 900.0248413085938
v -5.451625347137451 863.72705078125 900.0248413085938
v -5.483985900878906 863.712646484375 499.9748229980469
v 3.5428545475006104 887.07470703125 499.9748229980469
v -5.483985900878906 863.7127685546875 900.0248413085938
v 3.5428545475006104 887.0748291015625 900.0248413085938
v -19.795860290527344 896.0987548828125 899.9998168945312
v -5.460635662078857 863.7037353515625 899.9998168945312
v 3.5661795139312744 887.0657958984375 899.9998168945312
v -28.822675704956055 872.7305908203125 899.9998168945312
v 297.7206115722656 746.586181640625 399.9998779296875
v -28.80183219909668 872.6923217773438 399.99981689453125
v 297.64251708984375 746.5517578125 499.9998779296875
v -28.80183219909668 872.6923217773438 499.99981689453125
f 6 5 7
f 8 6 7
f 2 1 3
f 4 2 3
f 350 349 351
f 352 350 351
f 346 345 347
f 348 346 347
f 248 247 249
f 250 248 249
f 244 243 245
f 246 244 245
f 240 239 241
f 242 240 241
f 236 235 237
f 238 236 237
f 232 231 233
f 234 232 233
f 222 221 223
f 224 222 223
f 218 217 219
f 220 218 219
f 214 213 215
f 216 214 215
f 210 209 211
f 212 210 211
f 206 205 207
f 208 206 207
f 14 13 15
f 16 14 15
f 10 9 11
f 12 10 11
f 21 20 22
f 22 23 21
f 21 23 24
f 24 23 18
f 19 24 18
f 18 17 19
f 19 17 20
f 20 17 22
f 38 37 39
f 39 37 40
f 36 33 34
f 34 33 35
f 29 30 32
f 30 29 31
f 26 25 27
f 28 27 25
f 52 49 50
f 50 49 51
f 174 173 176
f 170 169 171
f 171 169 173
f 172 171 173
f 173 174 172
f 172 174 175
f 186 183 184
f 184 183 185
f 188 377 183
f 183 187 188
f 48 45 46
f 46 45 47
f 44 41 42
f 42 41 43
f 202 201 203
f 204 203 201
f 198 197 199
f 200 199 197
f 194 193 195
f 196 195 193
f 190 189 191
f 192 191 189
f 168 165 166
f 166 165 167
f 164 161 162
f 162 161 163
f 160 157 158
f 158 157 159
f 156 153 154
f 154 153 155
f 152 149 150
f 150 149 151
f 148 145 146
f 146 145 147
f 144 141 142
f 142 141 143
f 140 137 138
f 138 137 139
f 136 133 134
f 134 133 135
f 132 129 130
f 130 129 131
f 128 125 126
f 126 125 127
f 124 121 122
f 122 121 123
f 120 117 118
f 118 117 119
f 116 113 114
f 114 113 115
f 112 109 110
f 110 109 111
f 108 105 106
f 106 105 107
f 104 101 102
f 102 101 103
f 100 97 98
f 98 97 99
f 96 93 94
f 94 93 95
f 92 89 90
f 90 89 91
f 88 85 86
f 86 85 87
f 84 81 82
f 82 81 83
f 80 77 78
f 78 77 79
f 76 73 74
f 74 73 75
f 72 69 70
f 70 69 71
f 68 65 66
f 66 65 67
f 64 61 62
f 62 61 63
f 60 57 58
f 58 57 59
f 56 53 54
f 54 53 55
f 179 181 182
f 182 178 179
f 178 177 378
f 180 378 177
f 258 257 259
f 260 259 257
f 256 255 251
f 251 252 256
f 379 251 253
f 253 251 254
f 353 354 356
f 354 353 355
f 230 229 226
f 226 227 230
f 380 225 227
f 225 380 228
f 262 261 263
f 264 262 263
f 370 369 371
f 372 370 371
f 366 365 367
f 368 366 367
f 362 361 363
f 364 362 363
f 358 357 359
f 360 358 359
f 338 337 339
f 340 338 339
f 334 333 335
f 336 334 335
f 330 329 331
f 332 330 331
f 326 325 327
f 328 326 327
f 318 317 319
f 320 318 319
f 314 313 315
f 316 314 315
f 310 309 311
f 312 310 311
f 306 305 307
f 308 306 307
f 274 273 275
f 276 274 275
f 270 269 271
f 272 270 271
f 266 265 267
f 268 266 267
f 277 278 280
f 278 277 279
f 282 281 283
f 284 283 281
f 288 285 286
f 286 285 287
f 292 289 290
f 290 289 291
f 296 293 294
f 294 293 295
f 300 297 298
f 298 297 299
f 301 302 304
f 302 301 303
f 321 322 324
f 322 321 323
f 341 342 344
f 342 341 343
f 373 374 376
f 374 373 375
