v 885.894775390625 -2.5573346614837646 -4.999960899353027
v 883.270263671875 -602.5512084960938 -4.999908924102783
v 2031.219482421875 -608.5082397460938 -4.999857425689697
v 2103.082275390625 -8.874420166015625 -4.99990701675415
v -1081.57958984375 4.44941520690918 -5.00004768371582
v -1082.940673828125 -595.5505981445312 -4.999995231628418
v -1707.51953125 5.059739589691162 -5.000075340270996
v -1708.10546875 -594.9402465820312 -5.000022888183594
v 2025.238037109375 -658.4777221679688 -4.999853610992432
v 883.050537109375 -652.5512084960938 -4.999904155731201
v -1083.050537109375 -645.5505981445312 -4.999990940093994
v -1708.154296875 -644.9402465820312 -5.00001859664917
v 888.739013671875 647.4365844726562 -5.000018119812012
v 888.519287109375 597.4365844726562 -5.000013828277588
v 2174.945068359375 590.7593994140625 -4.999957084655762
v 2180.938720703125 640.7288818359375 -4.999960422515869
v -1080.1025390625 654.4494018554688 -5.0001044273376465
v -1080.218505859375 604.4494018554688 -5.000100135803223
v -1706.884765625 655.0597534179688 -5.000131607055664
v -1706.93359375 605.0597534179688 -5.00012731552124
v 2022.833251953125 -678.4667358398438 5.000147342681885
v 882.965087890625 -672.5524291992188 5.000097274780273
v 881.1748046875 -1082.0693359375 5.0001325607299805
v 1973.7843017578125 -1087.7393798828125 5.000181674957275
v -1083.099365234375 -665.5518188476562 5.000011444091797
v -1084.0294189453125 -1075.074462890625 5.000047206878662
v -1708.172607421875 -664.9414672851562 4.999983310699463
v -1708.57373046875 -1074.4642333984375 5.000019073486328
v 2232.38037109375 1069.9964599609375 5.000003814697266
v 890.61474609375 1076.95458984375 4.999945640563965
v 888.824462890625 667.4378051757812 4.999980449676514
v 2183.331298828125 660.7178955078125 5.000037670135498
v -1079.1297607421875 1083.973388671875 4.9998579025268555
v -1080.059814453125 674.4506225585938 4.999893665313721
v -1706.465087890625 1084.5836181640625 4.999830722808838
v -1706.8603515625 675.0609741210938 4.999866485595703
v 883.050537109375 -652.5512084960938 5.000095844268799
v 2025.238037109375 -658.4777221679688 5.000146865844727
v -1083.050537109375 -645.5505981445312 5.000009536743164
v -1708.154296875 -644.9402465820312 4.99998140335083
v 2180.938720703125 640.7288818359375 5.000039577484131
v 888.739013671875 647.4365844726562 4.999981880187988
v -1080.1025390625 654.4494018554688 4.9998955726623535
v -1706.884765625 655.0597534179688 4.999868392944336
v 881.0852661132812 -1102.545166015625 5.000134468078613
v 1971.331787109375 -1108.2030029296875 5.000183582305908
v -1084.075927734375 -1095.550537109375 5.000049114227295
v -1708.59375 -1094.9403076171875 5.000020980834961
v 2234.832763671875 1090.4603271484375 5.000002384185791
v 890.7042846679688 1097.430419921875 4.999943733215332
v -1079.083251953125 1104.449462890625 4.999856472015381
v -1706.4453125 1105.0596923828125 4.999828815460205
f 4 3 1
f 2 1 3
f 2 6 1
f 5 1 6
f 5 6 7
f 8 7 6
f 10 9 11
f 11 9 12
f 12 14 11
f 13 11 14
f 13 14 15
f 16 15 14
f 24 23 22
f 21 22 23
f 21 17 22
f 18 22 17
f 18 17 19
f 20 19 17
f 44 43 41
f 42 41 43
f 42 46 41
f 45 41 46
f 45 46 47
f 48 47 46
f 39 37 40
f 38 40 37
f 37 34 38
f 35 38 34
f 34 33 35
f 36 35 33
f 28 27 25
f 26 25 27
f 27 30 26
f 29 26 30
f 30 32 29
f 31 29 32
f 67 65 68
f 66 68 65
f 65 62 66
f 63 66 62
f 62 61 63
f 64 63 61
f 91 89 92
f 90 92 89
f 89 86 90
f 87 90 86
f 86 85 87
f 88 87 85
f 60 59 55
f 53 55 59
f 59 58 53
f 49 53 58
f 58 57 49
f 52 49 57
f 52 51 49
f 50 49 51
f 50 54 49
f 53 49 54
f 53 54 55
f 56 55 54
f 78 77 79
f 80 79 77
f 77 81 80
f 82 80 81
f 81 83 82
f 84 82 83
f 70 69 71
f 71 69 72
f 72 74 71
f 73 71 74
f 73 74 75
f 76 75 74
