v -1.0512996912002563 -43.799800872802734 -13.312314987182617
v 0.00879750307649374 -0.01226444449275732 -10.601005554199219
v -1699.4747314453125 41.305946350097656 -10.601080894470215
v -1700.4581298828125 -1.3775014877319336 -13.048786163330078
v 0.0063913194462656975 -0.009819607250392437 7.630811523995362e-06
v 0.00879750307649374 -0.01226444449275732 -10.601005554199219
v -1.0512996912002563 -43.799800872802734 -13.312314987182617
v -0.9854023456573486 -43.80765914916992 -2.7112722396850586
v -1700.45849609375 -1.3771103620529175 -2.447758913040161
v -1700.4581298828125 -1.3775014877319336 -13.048786163330078
v -1699.4747314453125 41.305946350097656 -10.601080894470215
v -1699.4720458984375 41.30532455444336 -6.06308676651679e-05
v -1699.4720458984375 41.30532455444336 -6.06308676651679e-05
v -1699.4747314453125 41.305946350097656 -10.601080894470215
v 0.00879750307649374 -0.01226444449275732 -10.601005554199219
v 0.0063913194462656975 -0.009819607250392437 7.630811523995362e-06
v -0.975276529788971 -43.81932067871094 -2.711273193359375
v -1.0512996912002563 -43.799800872802734 -13.312314987182617
v -1700.4581298828125 -1.3775014877319336 -13.048786163330078
v -1700.45849609375 -1.3771103620529175 -2.447758913040161
v 0.0063913194462656975 -0.009819607250392437 7.630811523995362e-06
v -49.957515716552734 1.204849362373352 5.779243110737298e-06
v -51.50862503051758 -42.557334899902344 -2.703437328338623
v -0.975276529788971 -43.81932067871094 -2.711273193359375
v -1699.4720458984375 41.30532455444336 -6.06308676651679e-05
v -1700.45849609375 -1.3771103620529175 -2.447758913040161
v -1651.9981689453125 -2.587327241897583 -2.455272912979126
v -1650.484619140625 40.11441421508789 -5.862832404091023e-05
v -851.2614135742188 -22.58461570739746 -2.5794315338134766
v -849.7291259765625 20.64766502380371 -2.649969610502012e-05
v -451.39141845703125 -32.57077407836914 -2.641433000564575
v -449.8496398925781 10.926401138305664 -1.0480001947144046e-05
f 2 1 3
f 4 3 1
f 6 5 7
f 8 7 5
f 10 9 11
f 12 11 9
f 14 13 15
f 16 15 13
f 18 17 19
f 20 19 17
f 24 23 21
f 22 21 23
f 22 23 32
f 31 32 23
f 32 31 30
f 29 30 31
f 30 29 28
f 27 28 29
f 28 27 25
f 26 25 27
