v -1170.64208984375 -1168.115234375 -4.999948978424072
v -710.1683959960938 -734.9854125976562 -4.999966621398926
v -1127.94189453125 -304.22979736328125 -5.0000224113464355
v -1581.73828125 -731.0730590820312 -5.00000524520874
v 9.777832984924316 -15.045166015625 -4.999998092651367
v -421.0571594238281 402.6488952636719 -5.000053882598877
v 716.4306030273438 736.8103637695312 -5.000032901763916
v 277.30706787109375 1145.672607421875 -5.000088214874268
v 1139.6728515625 1195.672607421875 -5.000054836273193
v 693.5424194335938 1596.9482421875 -5.0001091957092285
v -1162.75634765625 -268.33502197265625 -5.000027656555176
v -1615.9912109375 -694.6533813476562 -5.000010013580322
v -456.9580383300781 437.4572448730469 -5.000058174133301
v 240.7104034423828 1179.74853515625 -5.000092506408691
v 656.3598022460938 1630.389404296875 -5.000113487243652
v -725.3051147460938 -1641.5771484375 -4.999887943267822
v -257.58050537109375 -1201.6357421875 -4.999906539916992
v -292.39495849609375 -1165.740966796875 -4.999910354614258
v -759.5580444335938 -1605.157470703125 -4.999893665313721
v 476.5137023925781 -467.5475769042969 -4.999938011169434
v 440.6128234863281 -432.7392272949219 -4.999943256378174
v 1192.1630859375 293.86602783203125 -4.999974250793457
v 1155.56640625 327.94195556640625 -4.999978065490723
v 1622.98583984375 760.9497680664062 -4.999995708465576
v 1585.80322265625 794.3909301757812 -5.000000953674316
v -1629.69970703125 -680.0842895507812 4.999988555908203
v -1176.6845703125 -253.9734344482422 4.99997091293335
v -1461.8292236328125 40.02999496459961 4.999933242797852
v -1910.2755126953125 -381.78515625 4.999950408935547
v -471.3257141113281 451.3793640136719 4.999939441680908
v -765.3873291015625 736.4716186523438 4.999902725219727
v 226.0741729736328 1193.377685546875 4.999906063079834
v -73.649169921875 1472.4420166015625 4.999867916107178
v 641.4916381835938 1643.76220703125 4.999884128570557
v 336.9901123046875 1917.653076171875 4.999847412109375
v -431.0092468261719 -1954.4454345703125 5.00015115737915
v 41.491764068603516 -1510.006591796875 5.000133514404297
v -243.6645050048828 -1215.997314453125 5.000096321105957
v -711.5966186523438 -1656.146240234375 5.000113487243652
v 784.9429931640625 -766.5619506835938 5.000101566314697
v 490.8813781738281 -481.4696960449219 5.000063419342041
v 1506.5225830078125 1.1725172996520996 5.000065803527832
v 1206.79931640625 280.23687744140625 5.00002908706665
v 1942.3555908203125 473.6860656738281 5.0000433921813965
v 1637.85400390625 747.5769653320312 5.000006198883057
v -1615.9912109375 -694.6533813476562 4.999989986419678
v -1162.75634765625 -268.33502197265625 4.999972343444824
v -456.9580383300781 437.4572448730469 4.999941825866699
v 240.7104034423828 1179.74853515625 4.999907493591309
v 656.3598022460938 1630.389404296875 4.9998860359191895
v -725.3051147460938 -1641.5771484375 5.000112056732178
v -257.58050537109375 -1201.6357421875 5.000093460083008
v 476.5137023925781 -467.5475769042969 5.000062465667725
v 1192.1630859375 293.86602783203125 5.000026226043701
v 1622.98583984375 760.9497680664062 5.000003814697266
v -1476.08642578125 54.730159759521484 4.999931335449219
v -1924.30419921875 -366.8702087402344 4.999948024749756
v -780.0903930664062 750.7262573242188 4.999899864196777
v -88.63532257080078 1486.395263671875 4.999866008758545
v 321.7650451660156 1931.34765625 4.999845027923584
v -416.9798889160156 -1969.3603515625 5.000153541564941
v 55.749576568603516 -1524.70703125 5.000135898590088
v 799.6460571289062 -780.8165893554688 5.000102996826172
v 1521.5087890625 -12.780694961547852 5.000067234039307
v 1957.58056640625 459.9915466308594 5.000045299530029
f 4 3 1
f 2 1 3
f 3 6 2
f 5 2 6
f 5 6 7
f 8 7 6
f 8 10 7
f 9 7 10
f 29 27 30
f 28 30 27
f 28 27 26
f 25 26 27
f 25 22 26
f 23 26 22
f 22 21 23
f 24 23 21
f 14 13 11
f 12 11 13
f 13 16 12
f 15 12 16
f 15 16 17
f 18 17 16
f 18 20 17
f 19 17 20
f 54 53 51
f 52 51 53
f 53 56 52
f 55 52 56
f 55 56 57
f 58 57 56
f 58 60 57
f 59 57 60
f 49 47 50
f 48 50 47
f 47 45 48
f 46 48 45
f 45 42 46
f 43 46 42
f 42 41 43
f 44 43 41
f 34 33 31
f 32 31 33
f 33 36 32
f 35 32 36
f 36 38 35
f 37 35 38
f 38 40 37
f 39 37 40
f 90 89 84
f 79 78 76
f 77 76 78
f 76 77 86
f 87 86 77
f 87 77 80
f 87 80 88
f 88 80 89
f 89 80 82
f 82 84 89
f 84 82 85
f 83 85 82
f 82 80 83
f 81 83 80
f 80 77 81
f 78 81 77
f 75 74 69
f 67 69 74
f 69 67 70
f 68 70 67
f 68 67 66
f 65 66 67
f 65 62 66
f 62 65 72
f 72 71 62
f 61 62 71
f 62 61 63
f 64 63 61
f 63 66 62
f 73 72 65
f 65 67 73
f 74 73 67
f 109 107 110
f 108 110 107
f 107 105 108
f 106 108 105
f 105 102 106
f 103 106 102
f 102 101 103
f 104 103 101
f 100 98 99
f 97 99 98
f 98 96 97
f 95 97 96
f 96 94 95
f 91 95 94
f 94 93 91
f 92 91 93
