v -373.4496765136719 -447.3144836425781 -4.1666436195373535
v -379.7485046386719 -897.265625 -4.166604995727539
v 2698.01025390625 -933.7889404296875 -4.166467666625977
v 2703.3447265625 -483.8133544921875 -4.166505813598633
v -1984.6673583984375 -421.31451416015625 -4.166717052459717
v -1994.5428466796875 -871.2168579101562 -4.166677474975586
v -354.5532531738281 902.55126953125 -4.16676139831543
v -360.8520812988281 452.6000671386719 -4.166722297668457
v 2714.02587890625 416.1134033203125 -4.166584014892578
v 2719.3603515625 866.0889892578125 -4.166624069213867
v -1955.0286865234375 928.3803100585938 -4.16683292388916
v -1964.9041748046875 478.4779052734375 -4.166794776916504
v -380.4443054199219 -947.265625 -4.166600704193115
v 2697.412109375 -983.7889404296875 -4.166463375091553
v -1995.6414794921875 -921.2046508789062 -4.166673183441162
v -367.15087890625 2.648909330368042 -4.166683197021484
v 2708.67919921875 -33.849979400634766 -4.166545867919922
v -1974.7796630859375 28.587804794311523 -4.166755199432373
v -353.8452453613281 952.55126953125 -4.1667656898498535
v 2719.95849609375 916.0889892578125 -4.166628360748291
v -1953.9300537109375 978.3681030273438 -4.166837215423584
v 2697.18017578125 -1003.7840576171875 5.8335394859313965
v -380.7250671386719 -967.2607421875 5.833401203155518
v -387.1308288574219 -1424.36181640625 5.833441257476807
v 2691.7509765625 -1460.896728515625 5.833579063415527
v -1996.0809326171875 -941.1997680664062 5.833328723907471
v -2006.1138916015625 -1398.24267578125 5.833367824554443
v 2725.61962890625 1393.19677734375 5.833331108093262
v -347.17034912109375 1429.6473388671875 5.833193302154541
v -353.5644836425781 972.54638671875 5.83323335647583
v 2720.1904296875 936.0841064453125 5.833369731903076
v -1943.446044921875 1455.406005859375 5.833121299743652
v -1953.4906005859375 998.3632202148438 5.833160877227783
v -380.4443054199219 -947.265625 5.833399772644043
v 2697.412109375 -983.7889404296875 5.833537578582764
v -1995.6414794921875 -921.2046508789062 5.833326816558838
v 2719.95849609375 916.0889892578125 5.833371639251709
v -353.8452453613281 952.55126953125 5.833234786987305
v -1953.9300537109375 978.3681030273438 5.833162784576416
v -2337.6943359375 -411.5010681152344 -4.166733264923096
v -2344.17626953125 -861.5010375976562 -4.166693687438965
v -3026.50048828125 -410.7930908203125 -4.1667633056640625
v -3018.66357421875 -860.8052368164062 -4.166723251342773
v -3553.282470703125 -429.7140197753906 -4.166784286499023
v -3528.026123046875 -879.0914306640625 -4.166744232177734
v -4107.25 -472.13348388671875 -4.166805267333984
v -4060.911865234375 -919.9117431640625 -4.166763782501221
v -4662.21826171875 -544.5944213867188 -4.166822910308838
v -4590.24560546875 -989.0157470703125 -4.166780948638916
v -4993.431640625 -608.730224609375 -4.1668314933776855
v -4883.1533203125 -1045.741943359375 -4.166788578033447
v -2318.24853515625 938.4744262695312 -4.166850566864014
v -2324.73046875 488.4867248535156 -4.166810989379883
v -3050.03564453125 939.2312622070312 -4.166882038116455
v -3042.19873046875 489.2191162109375 -4.166842460632324
v -3629.088134765625 918.430419921875 -4.166905403137207
v -3603.819580078125 469.0530700683594 -4.166865348815918
v -4246.2880859375 871.164794921875 -4.166928291320801
v -4199.93798828125 423.39874267578125 -4.166887283325195
v -4878.13623046875 788.6697387695312 -4.1669487953186035
v -4806.16357421875 344.2483215332031 -4.16690731048584
v -5324.25439453125 702.280517578125 -4.166960716247559
v -5213.97607421875 265.2810363769531 -4.16691780090332
v -2344.896484375 -911.5010375976562 -4.166689395904541
v -3017.78466796875 -910.8052368164062 -4.16671895980835
v -3525.218505859375 -929.0303955078125 -4.166739463806152
v -4055.760498046875 -969.6553955078125 -4.166759014129639
v -4582.25 -1038.405517578125 -4.166776180267334
v -4870.8974609375 -1094.301513671875 -4.166784286499023
v -2317.5283203125 988.4744262695312 -4.166854381561279
v -3050.91455078125 989.2312622070312 -4.166886329650879
v -3631.895751953125 968.369384765625 -4.166910171508789
v -4251.439453125 920.920654296875 -4.166933059692383
v -4886.1318359375 838.0470581054688 -4.1669535636901855
v -5336.51025390625 750.840087890625 -4.166965484619141
v -2331.21240234375 38.48671340942383 -4.16677188873291
v -3034.349609375 39.2068977355957 -4.166802406311035
v -3578.551025390625 19.67562484741211 -4.166824817657471
v -4153.60009765625 -24.367368698120117 -4.16684627532959
v -4734.19091796875 -100.17305755615234 -4.16686487197876
v -5103.69775390625 -171.73069763183594 -4.166874885559082
v -2345.17724609375 -931.4961547851562 5.833312511444092
v -2351.76904296875 -1388.632080078125 5.833352565765381
v -3017.44287109375 -930.8125610351562 5.833283424377441
v -3009.467529296875 -1387.9600830078125 5.833323001861572
v -3524.095458984375 -949.0010986328125 5.8332624435424805
v -3498.426025390625 -1405.520751953125 5.833303928375244
v -4053.697509765625 -989.5650634765625 5.833242893218994
v -4006.613525390625 -1444.4339599609375 5.833284854888916
v -4579.03955078125 -1058.156494140625 5.833226203918457
v -4505.92529296875 -1509.630615234375 5.833268642425537
v -4866.00244140625 -1113.722900390625 5.833218097686768
v -4753.9765625 -1557.66357421875 5.8332624435424805
v -2310.6552734375 1465.60546875 5.833104133605957
v -2317.2353515625 1008.4695434570312 5.833144664764404
v -3059.231689453125 1466.3739013671875 5.833072185516357
v -3051.25634765625 1009.2263793945312 5.8331122398376465
v -3658.677001953125 1444.8599853515625 5.833047866821289
v -3633.018798828125 988.340087890625 5.833088397979736
v -4300.57470703125 1395.6986083984375 5.833024024963379
v -4253.490234375 940.818115234375 5.833065509796143
v -4962.4443359375 1309.272216796875 5.83300256729126
v -4889.330078125 857.798095703125 5.833045482635498
v -5453.43115234375 1214.2021484375 5.832988739013672
v -5341.4052734375 770.261474609375 5.833033084869385
v -2344.896484375 -911.5010375976562 5.833310604095459
v -3017.78466796875 -910.8052368164062 5.833281517028809
v -3525.218505859375 -929.0303955078125 5.833261013031006
v -4055.760498046875 -969.6553955078125 5.8332414627075195
v -4582.25 -1038.405517578125 5.833223819732666
v -4870.8974609375 -1094.301513671875 5.833216667175293
v -2317.5283203125 988.4744262695312 5.833146572113037
v -3050.91455078125 989.2312622070312 5.833114147186279
v -3631.895751953125 968.369384765625 5.833089828491211
v -4251.439453125 920.920654296875 5.833067417144775
v -4886.1318359375 838.047119140625 5.8330464363098145
v -5336.51025390625 750.840087890625 5.833034992218018
v -387.45111083984375 -1447.216796875 5.833442687988281
v 2691.4794921875 -1483.7523193359375 5.83358097076416
v -2006.615478515625 -1421.0948486328125 5.833370208740234
v 2725.89111328125 1416.0523681640625 5.833328723907471
v -346.85064697265625 1452.50244140625 5.833191871643066
v -1942.94384765625 1478.2581787109375 5.8331193923950195
v -2352.0986328125 -1411.4888916015625 5.833354473114014
v -3009.06884765625 -1410.8175048828125 5.833325386047363
v -3497.142333984375 -1428.3468017578125 5.833305835723877
v -4004.259033203125 -1467.1773681640625 5.833286762237549
v -4502.26953125 -1532.204345703125 5.833271026611328
v -4748.37548828125 -1579.860595703125 5.8332648277282715
v -2310.326171875 1488.4622802734375 5.833102703094482
v -3059.63037109375 1489.2313232421875 5.833070278167725
v -3659.959716796875 1467.6859130859375 5.833045482635498
v -4302.9287109375 1418.442626953125 5.833022117614746
v -4966.10009765625 1331.845947265625 5.833000659942627
v -5459.0322265625 1236.399169921875 5.832987308502197
f 72 74 71
f 73 71 74
f 74 76 73
f 75 73 76
f 76 78 75
f 77 75 78
f 4 3 1
f 2 1 3
f 1 2 5
f 6 5 2
f 6 68 5
f 67 5 68
f 68 70 67
f 69 67 70
f 70 72 69
f 71 69 72
f 89 87 90
f 88 90 87
f 87 85 88
f 86 88 85
f 85 83 86
f 84 86 83
f 83 81 84
f 82 84 81
f 81 79 82
f 80 82 79
f 79 11 80
f 12 80 11
f 12 11 8
f 7 8 11
f 8 7 9
f 10 9 7
f 96 98 95
f 97 95 98
f 98 100 97
f 99 97 100
f 100 102 99
f 101 99 102
f 16 15 13
f 14 13 15
f 13 14 17
f 18 17 14
f 18 92 17
f 91 17 92
f 92 94 91
f 93 91 94
f 94 96 93
f 95 93 96
f 113 111 114
f 112 114 111
f 111 109 112
f 110 112 109
f 109 107 110
f 108 110 107
f 107 105 108
f 106 108 105
f 105 103 106
f 104 106 103
f 103 35 104
f 36 104 35
f 120 122 119
f 121 119 122
f 122 124 121
f 123 121 124
f 124 126 123
f 125 123 126
f 22 21 19
f 20 19 21
f 19 20 23
f 24 23 20
f 24 116 23
f 115 23 116
f 116 118 115
f 117 115 118
f 118 120 117
f 119 117 120
f 137 135 138
f 136 138 135
f 135 133 136
f 134 136 133
f 133 131 134
f 132 134 131
f 131 129 132
f 130 132 129
f 129 127 130
f 128 130 127
f 127 29 128
f 30 128 29
f 30 29 26
f 25 26 29
f 26 25 27
f 28 27 25
f 34 33 31
f 32 31 33
f 31 32 241
f 242 241 32
f 144 146 143
f 145 143 146
f 146 148 145
f 147 145 148
f 148 150 147
f 149 147 150
f 40 39 37
f 38 37 39
f 39 42 38
f 41 38 42
f 42 140 41
f 139 41 140
f 140 142 139
f 141 139 142
f 142 144 141
f 143 141 144
f 152 151 48
f 47 48 151
f 47 44 48
f 45 48 44
f 44 43 45
f 46 45 43
f 161 159 162
f 160 162 159
f 159 157 160
f 158 160 157
f 158 157 156
f 155 156 157
f 155 153 156
f 154 156 153
f 153 151 154
f 152 154 151
f 65 58 64
f 193 66 194
f 62 194 66
f 62 66 59
f 64 59 66
f 59 64 58
f 59 58 60
f 61 60 58
f 181 62 182
f 63 182 62
f 62 59 63
f 60 63 59
f 191 189 192
f 190 192 189
f 189 187 190
f 188 190 187
f 187 185 188
f 186 188 185
f 185 183 186
f 184 186 183
f 183 181 184
f 182 184 181
f 229 215 230
f 216 230 215
f 215 212 216
f 213 216 212
f 212 211 213
f 214 213 211
f 239 237 240
f 238 240 237
f 237 235 238
f 236 238 235
f 235 233 236
f 234 236 233
f 233 231 234
f 232 234 231
f 231 229 232
f 230 232 229
f 221 223 222
f 224 222 223
f 223 225 224
f 226 224 225
f 226 225 227
f 228 227 225
f 206 205 207
f 208 207 205
f 205 209 208
f 210 208 209
f 209 217 210
f 218 210 217
f 218 217 219
f 220 219 217
f 220 221 219
f 222 219 221
f 202 203 204
f 202 201 203
f 200 201 202
f 200 199 201
f 198 199 200
f 198 197 199
f 196 197 198
f 196 195 197
f 193 195 196
f 193 194 195
f 49 53 56
f 57 56 53
f 53 163 57
f 175 57 163
f 163 165 175
f 176 175 165
f 165 167 176
f 177 176 167
f 167 169 177
f 178 177 169
f 169 171 178
f 179 178 171
f 180 179 173
f 171 173 179
f 173 171 174
f 172 174 171
f 171 169 172
f 170 172 169
f 169 167 170
f 168 170 167
f 167 165 168
f 166 168 165
f 165 163 166
f 164 166 163
f 163 53 164
f 54 164 53
f 54 53 50
f 49 50 53
f 50 49 51
f 52 51 49
f 52 49 55
f 56 55 49
