v 388.68450927734375 1390.3856201171875 -4.402956485748291
v -211.3154754638672 1392.2349853515625 -4.402982234954834
v -211.9263153076172 1192.236328125 -4.402965545654297
v 386.3952331542969 644.940185546875 -4.402891159057617
v -213.27517700195312 753.38134765625 -4.402927875518799
v -213.60476684570312 646.783447265625 -4.402917861938477
v 385.601806640625 346.6369934082031 -4.402865409851074
v -214.39820861816406 347.03369140625 -4.402891635894775
v 385.626220703125 -249.96336364746094 -4.402812957763672
v -214.36155700683594 -252.47193908691406 -4.402839183807373
v 386.9995422363281 -548.2666015625 -4.402787685394287
v -212.97604370117188 -552.2216796875 -4.402813911437988
v -212.28024291992188 -658.258056640625 -4.402803897857666
v -209.4848175048828 -1081.73828125 -4.402766704559326
v 391.24761962890625 -1191.925048828125 -4.402730464935303
v -208.7096710205078 -1199.10888671875 -4.402756214141846
v -259.48480224609375 -1082.06787109375 -4.402769088745117
v -258.70965576171875 -1199.713134765625 -4.402758598327637
v -262.2741394042969 -658.587646484375 -4.402805805206299
v -278.9611511230469 -619.061279296875 -4.402810096740723
v -243.84762573242188 -583.465576171875 -4.402811527252197
v -319.0673522949219 -552.923583984375 -4.402817726135254
v -318.7133483886719 -602.91748046875 -4.402812957763672
v -568.71337890625 -604.681396484375 -4.4028239250183105
v -569.073486328125 -554.6875 -4.402828216552734
v -768.707275390625 -606.0974731445312 -4.402832984924316
v -769.0673828125 -556.0974731445312 -4.40283727645874
v -777.978515625 693.8720092773438 -4.402946472167969
v -777.62451171875 643.8720092773438 -4.402942180633545
v -764.16015625 693.9696655273438 -4.4029459953308105
v -763.80615234375 643.9696655273438 -4.402941703796387
v -722.71728515625 694.2626342773438 -4.402944087982178
v -722.36328125 644.2626342773438 -4.402939796447754
v -577.984619140625 695.281982421875 -4.402937889099121
v -577.62451171875 645.281982421875 -4.402933597564697
v -319.4763488769531 697.10693359375 -4.402926921844482
v -319.1284484863281 647.10693359375 -4.402922630310059
v -244.34817504882812 678.47900390625 -4.402921676635742
v -279.7729797363281 713.763427734375 -4.402926445007324
v -263.2751770019531 753.533935546875 -4.402929306030273
v -261.92633056640625 1192.388916015625 -4.402967929840088
v -261.31549072265625 1392.3875732421875 -4.402984619140625
v 1038.678466796875 1388.389892578125 -4.402928352355957
v 988.6784057617188 1388.5423583984375 -4.402929782867432
v 1036.38916015625 642.9443969726562 -4.402863025665283
v 986.38916015625 643.0969848632812 -4.402864933013916
v 1035.601806640625 346.2097473144531 -4.402836799621582
v 985.601806640625 346.2463684082031 -4.402838706970215
v 1035.614013671875 -247.2472686767578 -4.402785301208496
v 985.614013671875 -247.4547882080078 -4.402787208557129
v 1036.97509765625 -543.9757690429688 -4.402759075164795
v 986.981201171875 -544.3053588867188 -4.402761936187744
v 1041.19873046875 -1184.14306640625 -4.402703762054443
v 991.2048950195312 -1184.7412109375 -4.402705192565918
v -689.186279296875 -1055.5440673828125 5.59721040725708
v -688.1983642578125 -1204.8514404296875 5.597223281860352
v -278.70477294921875 -1199.951171875 5.597240447998047
v -279.67523193359375 -1052.655029296875 5.597227573394775
v -282.2753601074219 -658.721923828125 5.597193241119385
v -293.0053405761719 -633.30078125 5.5971903800964355
v -318.5729675292969 -622.918701171875 5.597188949584961
v -710.7251586914062 -625.6846313476562 5.597172260284424
v -709.7124633789062 -1035.2120361328125 5.597207546234131
v -765.6487426757812 -1035.609375 5.597205638885498
v -768.56689453125 -626.0925903320312 5.597169399261475
v -778.1189575195312 713.8732299804688 5.597051620483398
v -713.3972778320312 714.3309936523438 5.597054481506348
v -712.1417236328125 1123.87109375 5.597018718719482
v -781.0428466796875 1123.38427734375 5.597015380859375
v -319.6228332519531 717.108154296875 5.597071647644043
v -293.9453430175781 727.880859375 5.597071647644043
v -283.2763977050781 753.594970703125 5.59706974029541
v -690.833251953125 1393.7042236328125 5.596995830535889
v -691.6029052734375 1144.2208251953125 5.597017765045166
v -282.082275390625 1141.6746826171875 5.597035884857178
v -281.31060791015625 1392.4486083984375 5.5970139503479
v 1058.6796875 1388.3287353515625 5.597073078155518
v 1056.390380859375 642.8833618164062 5.597138404846191
v 1465.9130859375 641.6219482421875 5.597155570983887
v 1468.202392578125 1387.0732421875 5.597091197967529
v 1055.60302734375 346.19757080078125 5.597164154052734
v 1465.125732421875 345.93017578125 5.597181797027588
v 1055.609130859375 -247.1618194580078 5.59721565246582
v 1056.976318359375 -543.8475952148438 5.5972418785095215
v 1466.4873046875 -541.1445922851562 5.597259044647217
v 1465.1259765625 -245.45281982421875 5.597233295440674
v 1061.199951171875 -1183.905029296875 5.597297668457031
v 1470.693603515625 -1178.9989013671875 5.597315788269043
v -573.35205078125 45.30026626586914 -4.402881622314453
v -773.345947265625 43.89034652709961 -4.402889728546143
v -259.48480224609375 -1082.06787109375 5.597230911254883
v -258.70965576171875 -1199.713134765625 5.597241401672363
v -262.2741394042969 -658.587646484375 5.597194194793701
v -278.9611511230469 -619.061279296875 5.597189426422119
v -318.7133483886719 -602.91748046875 5.597187519073486
v -768.707275390625 -606.0974731445312 5.597167491912842
v -777.978515625 693.8720092773438 5.597053527832031
v -764.16015625 693.9696655273438 5.5970540046691895
v -722.71728515625 694.2626342773438 5.597055912017822
v -319.4763488769531 697.10693359375 5.597073078155518
v -279.7729797363281 713.763427734375 5.597073078155518
v -263.2751770019531 753.533935546875 5.597071170806885
v -261.31549072265625 1392.3875732421875 5.597015380859375
v 1038.678466796875 1388.389892578125 5.597072124481201
v 1036.38916015625 642.9443969726562 5.597136974334717
v 1035.601806640625 346.2097473144531 5.597163200378418
v 1035.614013671875 -247.2472686767578 5.597214698791504
v 1036.97509765625 -543.9757690429688 5.597240924835205
v 1041.19873046875 -1184.14306640625 5.597296714782715
v -709.6618041992188 -1055.6884765625 5.597209453582764
v -708.6730346679688 -1205.096435546875 5.597222328186035
v -765.5028686523438 -1056.085205078125 5.597207546234131
v -210.79010009765625 1562.448486328125 -4.402997016906738
v 389.20989990234375 1560.7333984375 -4.402970790863037
v -203.92987060546875 4158.9697265625 -4.403224945068359
v 396.07623291015625 4161.94189453125 -4.403198719024658
v -260.79010009765625 1562.5888671875 -4.402999401092529
v -253.92987060546875 4158.71923828125 -4.403225898742676
v 989.2037963867188 1559.018310546875 -4.402944564819336
v 1039.2037353515625 1558.8779296875 -4.402943134307861
v 996.0884399414062 4164.92041015625 -4.403172969818115
v 1046.0885009765625 4165.16455078125 -4.403170108795166
v -280.79132080078125 1562.64990234375 5.596999645233154
v -690.31396484375 1563.8182373046875 5.596981048583984
v -273.93109130859375 4158.62158203125 5.596773147583008
v -683.4653930664062 4156.5927734375 5.596755027770996
v 1468.7276611328125 1557.648681640625 5.597076892852783
v 1059.2049560546875 1558.81689453125 5.597058296203613
v 1475.6181640625 4167.296875 5.596848487854004
v 1066.0897216796875 4165.2685546875 5.596830368041992
v -260.79010009765625 1562.5888671875 5.597000598907471
v -253.92987060546875 4158.71923828125 5.596773624420166
v 1039.2037353515625 1558.8779296875 5.597057342529297
v 1046.0885009765625 4165.16455078125 5.596829891204834
v -712.0789184570312 1144.34814453125 5.59701681137085
v -781.1890258789062 1143.85986328125 5.597013473510742
v -711.3093872070312 1393.7669677734375 5.5969953536987305
v -710.7901000976562 1563.876708984375 5.596980571746826
v -703.9420776367188 4156.4912109375 5.59675407409668
v 1486.38916015625 641.5588989257812 5.597156524658203
v 1488.678466796875 1387.010498046875 5.5970916748046875
v 1485.601806640625 345.91680908203125 5.597182750701904
v 1486.962890625 -541.0094604492188 5.597259998321533
v 1485.601806640625 -245.36737060546875 5.59723424911499
v 1491.168212890625 -1178.7535400390625 5.597316265106201
v 1489.2037353515625 1557.5902099609375 5.597077369689941
v 1496.0946044921875 4167.3984375 5.59684944152832
f 8 7 9
f 8 9 10
f 10 9 11
f 10 11 12
f 12 11 13
f 13 11 14
f 14 11 15
f 14 15 16
f 227 228 229
f 227 226 228
f 1 226 227
f 1 2 226
f 2 1 3
f 3 1 4
f 3 4 5
f 5 4 6
f 6 4 7
f 6 7 8
f 32 31 33
f 32 33 34
f 54 53 55
f 54 55 56
f 231 230 232
f 231 232 233
f 233 232 234
f 233 234 235
f 36 35 37
f 36 37 38
f 38 37 39
f 38 39 40
f 40 39 41
f 40 41 42
f 44 43 45
f 44 45 46
f 46 45 47
f 47 45 48
f 47 48 49
f 47 49 50
f 50 49 51
f 50 51 52
f 64 63 65
f 64 65 66
f 66 65 67
f 66 67 68
f 237 238 239
f 237 236 238
f 57 236 237
f 57 58 236
f 58 57 59
f 58 59 60
f 60 59 61
f 60 61 62
f 62 61 63
f 62 63 64
f 22 21 23
f 23 21 24
f 23 24 25
f 23 25 26
f 26 25 27
f 27 25 28
f 27 28 29
f 27 29 30
f 18 17 19
f 20 19 17
f 111 112 113
f 116 118 114
f 117 116 114
f 114 115 117
f 115 114 112
f 112 108 115
f 108 112 111
f 107 108 111
f 107 106 108
f 106 109 108
f 109 110 108
f 120 119 121
f 120 121 122
f 124 123 125
f 124 125 126
f 124 126 127
f 127 126 128
f 136 135 137
f 136 137 138
f 138 137 139
f 138 139 140
f 251 252 253
f 251 250 252
f 129 250 251
f 129 130 250
f 130 129 131
f 131 129 132
f 131 132 133
f 131 133 134
f 134 133 135
f 134 135 136
f 72 71 69
f 70 69 71
f 91 86 269
f 87 86 88
f 88 86 89
f 89 86 91
f 92 89 91
f 91 90 92
f 93 92 90
f 83 82 84
f 85 84 82
f 97 94 246
f 247 246 94
f 247 249 246
f 248 246 249
f 104 101 105
f 102 105 101
f 101 100 102
f 103 102 100
f 100 98 103
f 99 103 98
f 98 95 99
f 96 99 95
f 95 94 96
f 97 96 94
f 244 241 245
f 242 245 241
f 241 240 242
f 243 242 240
f 81 78 80
f 79 80 78
f 78 76 79
f 76 77 79
f 73 77 76
f 75 73 76
f 74 73 75
f 220 219 221
f 275 274 276
f 277 276 274
f 271 270 272
f 273 272 270
f 225 224 222
f 223 222 224
f 216 215 217
f 218 217 215
f 283 282 278
f 281 278 282
f 281 280 278
f 279 278 280
f 285 284 286
f 144 143 141
f 142 141 143
f 141 142 158
f 141 158 159
f 159 158 160
f 159 160 161
f 161 160 162
f 161 162 163
f 163 162 164
f 164 162 165
f 164 165 166
f 260 255 257
f 260 257 261
f 255 254 256
f 255 256 257
f 257 256 258
f 257 258 259
f 261 257 259
f 261 259 262
f 172 171 173
f 171 175 173
f 174 173 175
f 174 175 176
f 176 175 177
f 176 177 178
f 176 178 179
f 179 178 180
f 180 178 181
f 181 182 180
f 183 180 182
f 180 183 184
f 146 145 147
f 148 147 145
f 148 145 149
f 149 145 150
f 149 150 151
f 149 151 152
f 152 151 153
f 152 153 154
f 154 153 155
f 153 157 155
f 156 155 157
f 264 265 266
f 264 263 265
f 197 263 264
f 197 198 263
f 198 197 199
f 198 199 200
f 200 199 201
f 200 201 202
f 202 201 206
f 202 206 207
f 207 206 208
f 207 208 209
f 206 212 213
f 206 213 208
f 208 213 214
f 208 214 210
f 209 208 210
f 209 210 211
f 267 266 268
f 267 264 266
f 203 264 267
f 203 197 264
f 197 203 204
f 197 204 199
f 199 204 205
f 199 205 201
f 201 205 212
f 201 212 206
f 298 296 297
f 293 297 296
f 296 295 293
f 294 293 295
f 295 292 294
f 291 294 292
f 292 290 291
f 287 291 290
f 290 289 287
f 288 287 289
f 289 300 288
f 299 288 300
f 300 302 299
f 301 299 302
f 168 167 169
f 168 169 170
f 170 169 185
f 170 185 186
f 186 185 187
f 187 185 188
f 187 188 189
f 189 188 190
f 189 190 191
f 191 190 192
f 191 192 193
f 193 192 194
f 194 192 195
f 194 195 196
