v 2860.92529296875 -908.8194580078125 -4.999795913696289
v 2847.30224609375 -956.9456787109375 -4.999792575836182
v 3139.90478515625 -1048.6082763671875 -4.999771595001221
v 3157.6171875 -1001.7576904296875 -4.99977445602417
v 2296.32568359375 -765.6798095703125 -4.999833583831787
v 2285.14404296875 -814.4285888671875 -4.999829292297363
v 1702.03857421875 -643.7499389648438 -4.9998698234558105
v 1692.93212890625 -692.9198608398438 -4.999866008758545
v 1084.80224609375 -541.6015014648438 -4.999905586242676
v 1077.42919921875 -591.0582885742188 -4.99990177154541
v 451.1719055175781 -457.6049499511719 -4.999940872192383
v 445.2759094238281 -507.2631530761719 -4.999936580657959
v -192.37059020996094 -390.008544921875 -4.999974727630615
v -197.02146911621094 -439.794921875 -4.999970436096191
v -839.46533203125 -336.9568176269531 -5.000007629394531
v -843.06640625 -386.8286437988281 -5.000003337860107
v -1482.99560546875 -296.59429931640625 -5.000039577484131
v -1485.64453125 -346.52105712890625 -5.000034809112549
v -2431.494140625 -255.34068298339844 -5.000084400177002
v -2433.19091796875 -305.3162536621094 -5.000080108642578
v -3629.6142578125 -226.14761352539062 -5.0001397132873535
v -3630.5908203125 -276.1354064941406 -5.0001349449157715
v -4184.1796875 -218.12152099609375 -5.000164031982422
v -4184.7841796875 -268.11541748046875 -5.000160217285156
v 3147.10693359375 101.84950256347656 -4.99987268447876
v 3133.4716796875 53.72328186035156 -4.999868392944336
v 3511.75537109375 -64.77645874023438 -4.999841213226318
v 3529.45556640625 -17.931974411010742 -4.999845027923584
v 2530.9814453125 258.0445556640625 -4.999912261962891
v 2519.7998046875 209.29576110839844 -4.999908447265625
v 1893.34716796875 388.8733825683594 -4.9999518394470215
v 1884.24072265625 339.6973571777344 -4.999947547912598
v 1239.55078125 497.07037353515625 -4.9999895095825195
v 1232.177734375 447.61358642578125 -4.999985694885254
v 575.03662109375 585.162353515625 -5.000026226043701
v 569.12841796875 535.504150390625 -5.0000224113464355
v -94.61672973632812 655.499267578125 -5.000061988830566
v -99.2676010131836 605.712890625 -5.000057697296143
v -763.6841430664062 710.3515014648438 -5.000095844268799
v -767.29736328125 660.4796752929688 -5.000091552734375
v -1427.30712890625 751.9774780273438 -5.000128746032715
v -1429.96826171875 702.0446166992188 -5.000124454498291
v -2395.88623046875 794.1038818359375 -5.0001749992370605
v -2397.5830078125 744.1282958984375 -5.0001702308654785
v -3609.228515625 823.6692504882812 -5.000230312347412
v -3610.205078125 773.6753540039062 -5.000226020812988
v -4171.4296875 831.8052368164062 -5.000255584716797
v -4172.03369140625 781.8052368164062 -5.000251293182373
v 3132.82470703125 -1067.3460693359375 5.000232219696045
v 2841.845703125 -976.1961669921875 5.000211715698242
v 2730.238525390625 -1370.378662109375 5.00023889541626
v 2987.79345703125 -1451.0595703125 5.00025749206543
v 2280.67626953125 -833.9293212890625 5.000174522399902
v 2189.158447265625 -1233.2095947265625 5.0002031326293945
v 1689.2822265625 -712.5914916992188 5.000138282775879
v 1614.668212890625 -1115.3363037109375 5.0001678466796875
v 1074.4873046875 -610.8458862304688 5.0001020431518555
v 1014.1265258789062 -1015.9507446289062 5.000133037567139
v 442.9199523925781 -527.1240234375 5.000068187713623
v 394.614990234375 -933.827392578125 5.00009822845459
v -198.88914489746094 -459.710693359375 5.000033378601074
v -237.00994873046875 -867.483642578125 5.000064849853516
v -844.5068359375 -406.7810363769531 5.000001430511475
v -874.0594482421875 -815.2515869140625 5.000032901763916
v -1486.70654296875 -366.49786376953125 4.999968528747559
v -1508.4234619140625 -775.4624633789062 5.000001430511475
v -2433.87451171875 -325.3052673339844 4.999924182891846
v -2447.755615234375 -734.6128540039062 4.999957084655762
v -3630.96923828125 -296.1305236816406 4.999868869781494
v -3638.9208984375 -705.5834350585938 4.99990177154541
v -4185.0283203125 -288.11663818359375 4.999844074249268
v -4190.00390625 -697.6102294921875 4.9998779296875
v 3264.170166015625 515.282470703125 5.000097751617432
v 3152.55126953125 121.09999084472656 5.000129222869873
v 3536.53564453125 0.8119226098060608 5.000156402587891
v 3681.56689453125 384.5254211425781 5.000126838684082
v 2626.967041015625 676.81982421875 5.000055313110352
v 2535.44921875 277.5452880859375 5.000088214874268
v 1971.611083984375 811.28955078125 5.000014781951904
v 1896.9970703125 408.5389099121094 5.000049114227295
v 1302.853515625 921.9628295898438 4.999975681304932
v 1242.49267578125 516.8579711914062 5.000010967254639
v 625.697509765625 1011.7265625 4.999938488006592
v 577.392578125 605.023193359375 4.999974250793457
v -54.62825012207031 1083.181884765625 4.999902248382568
v -92.74905395507812 675.408935546875 4.999938488006592
v -732.6911010742188 1138.774169921875 4.999867916107178
v -762.2437133789062 730.2977905273438 4.999904632568359
v -1404.52880859375 1180.9189453125 4.9998345375061035
v -1426.25732421875 771.9542846679688 4.999871730804443
v -2381.333740234375 1223.4005126953125 4.999788761138916
v -2395.21484375 814.0928955078125 4.999825954437256
v -3600.8857421875 1253.1173095703125 4.999732494354248
v -3608.837890625 843.6643676757812 4.999770164489746
v -4166.2099609375 1261.2939453125 4.999707221984863
v -4171.185546875 851.8003540039062 4.999745845794678
v 2997.20458984375 -427.5450439453125 -4.9998321533203125
v 3334.68017578125 -533.2701416015625 -4.999807834625244
v 2408.056640625 -278.1920471191406 -4.999870777130127
v 1793.1396484375 -152.0262908935547 -4.999908924102783
v 1158.48388671875 -46.99091720581055 -4.999945640563965
v 510.15625 38.946556091308594 -4.99998140335083
v -145.81298828125 107.84911346435547 -5.000016212463379
v -803.38134765625 161.76144409179688 -5.000050067901611
v -1456.48193359375 202.72821044921875 -5.000081539154053
v -2414.53857421875 244.39076232910156 -5.00012731552124
v -3619.90966796875 273.7669372558594 -5.000182628631592
v -4178.10693359375 281.84185791015625 -5.000207901000977
v 2847.30224609375 -956.9456787109375 5.000207424163818
v 3139.90478515625 -1048.6082763671875 5.000228404998779
v 2285.14404296875 -814.4285888671875 5.0001702308654785
v 1692.93212890625 -692.9198608398438 5.000133991241455
v 1077.42919921875 -591.0582885742188 5.00009822845459
v 445.2759094238281 -507.2631530761719 5.000063419342041
v -197.02146911621094 -439.794921875 5.000030040740967
v -843.06640625 -386.8286437988281 4.999996662139893
v -1485.64453125 -346.52105712890625 4.999965190887451
v -2433.19091796875 -305.3162536621094 4.999919891357422
v -3630.5908203125 -276.1354064941406 4.9998650550842285
v -4184.7841796875 -268.11541748046875 4.999839782714844
v 3529.45556640625 -17.931974411010742 5.000155448913574
v 3147.10693359375 101.84950256347656 5.000127792358398
v 2530.9814453125 258.0445556640625 5.000087738037109
v 1893.34716796875 388.8733825683594 5.000048637390137
v 1239.55078125 497.07037353515625 5.0000104904174805
v 575.03662109375 585.162353515625 4.999973773956299
v -94.61672973632812 655.499267578125 4.999938011169434
v -763.6841430664062 710.3515014648438 4.999904155731201
v -1427.30712890625 751.9774780273438 4.999871253967285
v -2395.88623046875 794.1038818359375 4.9998250007629395
v -3609.228515625 823.6692504882812 4.999769687652588
v -4171.4296875 831.8052368164062 4.999744415283203
v 2724.658203125 -1390.0877685546875 5.000240325927734
v 2980.5419921875 -1470.2452392578125 5.000258445739746
v 2184.58251953125 -1253.1737060546875 5.000204563140869
v 1610.9375 -1135.4735107421875 5.000169277191162
v 1011.1084594726562 -1036.2060546875 5.000134468078613
v 392.1997375488281 -954.16259765625 5.000100135803223
v -238.9159698486328 -887.872314453125 5.000066757202148
v -875.5370483398438 -835.6751098632812 5.000034332275391
v -1509.50927734375 -795.9107055664062 5.000003337860107
v -2448.44970703125 -755.0782470703125 4.999958515167236
v -3639.31884765625 -726.0560913085938 4.999903678894043
v -4190.2529296875 -718.0848999023438 4.999879837036133
v 3688.818359375 403.7110900878906 5.000125408172607
v 3269.7509765625 534.9915771484375 5.000095844268799
v 2631.54296875 696.7835693359375 5.000053405761719
v 1975.341796875 831.4270629882812 5.00001335144043
v 1305.87158203125 942.2180786132812 4.999974250793457
v 628.1127319335938 1032.061767578125 4.999937057495117
v -52.72221755981445 1103.570556640625 4.999900817871094
v -731.2134399414062 1159.197998046875 4.999866008758545
v -1403.4423828125 1201.3671875 4.999833106994629
v -2380.6396484375 1243.8658447265625 4.999786853790283
v -3600.48828125 1273.5899658203125 4.999731063842773
v -4165.9609375 1281.7686767578125 4.9997053146362305
f 4 3 1
f 2 1 3
f 1 2 5
f 6 5 2
f 5 6 7
f 8 7 6
f 7 8 9
f 10 9 8
f 9 10 11
f 12 11 10
f 11 12 13
f 14 13 12
f 13 14 15
f 16 15 14
f 16 18 15
f 17 15 18
f 17 18 19
f 20 19 18
f 19 20 21
f 22 21 20
f 21 22 23
f 24 23 22
f 48 47 46
f 45 46 47
f 46 45 44
f 43 44 45
f 44 43 42
f 41 42 43
f 42 41 40
f 39 40 41
f 40 39 38
f 37 38 39
f 38 37 36
f 35 36 37
f 36 35 34
f 33 34 35
f 34 33 32
f 31 32 33
f 32 31 30
f 29 30 31
f 30 29 26
f 25 26 29
f 26 25 27
f 28 27 25
f 100 99 97
f 98 97 99
f 97 98 101
f 102 101 98
f 101 102 103
f 104 103 102
f 103 104 105
f 106 105 104
f 105 106 107
f 108 107 106
f 107 108 109
f 110 109 108
f 109 110 111
f 112 111 110
f 112 114 111
f 113 111 114
f 113 114 115
f 116 115 114
f 115 116 117
f 118 117 116
f 117 118 119
f 120 119 118
f 144 143 142
f 141 142 143
f 142 141 140
f 139 140 141
f 140 139 138
f 137 138 139
f 137 135 138
f 136 138 135
f 136 135 134
f 133 134 135
f 134 133 132
f 131 132 133
f 132 131 130
f 129 130 131
f 130 129 128
f 127 128 129
f 128 127 126
f 125 126 127
f 126 125 122
f 121 122 125
f 122 121 123
f 124 123 121
f 52 51 49
f 50 49 51
f 51 54 50
f 53 50 54
f 54 56 53
f 55 53 56
f 56 58 55
f 57 55 58
f 58 60 57
f 59 57 60
f 60 62 59
f 61 59 62
f 62 64 61
f 63 61 64
f 64 66 63
f 65 63 66
f 66 68 65
f 67 65 68
f 68 70 67
f 69 67 70
f 70 72 69
f 71 69 72
f 95 93 96
f 94 96 93
f 94 93 92
f 91 92 93
f 91 89 92
f 90 92 89
f 89 87 90
f 88 90 87
f 87 85 88
f 86 88 85
f 85 83 86
f 84 86 83
f 83 81 84
f 82 84 81
f 81 79 82
f 80 82 79
f 79 77 80
f 78 80 77
f 77 73 78
f 74 78 73
f 74 73 75
f 76 75 73
f 180 179 167
f 168 167 166
f 165 166 167
f 165 167 179
f 179 178 165
f 163 165 178
f 178 177 163
f 161 163 177
f 177 176 161
f 159 161 176
f 176 175 159
f 154 153 152
f 153 154 155
f 156 155 154
f 155 156 157
f 158 157 156
f 157 158 159
f 160 159 158
f 160 162 159
f 161 159 162
f 161 162 163
f 164 163 162
f 163 164 165
f 166 165 164
f 157 159 175
f 175 174 157
f 155 157 174
f 174 173 155
f 153 155 173
f 173 172 153
f 151 153 172
f 172 171 151
f 149 151 171
f 171 170 149
f 145 149 170
f 170 169 145
f 148 145 169
f 148 147 145
f 146 145 147
f 145 146 149
f 150 149 146
f 149 150 151
f 152 151 150
f 151 152 153
f 265 263 266
f 264 266 263
f 263 261 264
f 262 264 261
f 261 259 262
f 260 262 259
f 259 257 260
f 258 260 257
f 257 254 258
f 255 258 254
f 254 253 255
f 256 255 253
f 275 273 276
f 274 276 273
f 273 271 274
f 272 274 271
f 271 269 272
f 270 272 269
f 269 267 270
f 268 270 267
f 267 265 268
f 266 268 265
f 239 241 240
f 242 240 241
f 241 243 242
f 244 242 243
f 244 243 245
f 246 245 243
f 246 247 245
f 248 245 247
f 248 247 249
f 250 249 247
f 250 251 249
f 252 249 251
f 192 194 191
f 193 191 194
f 194 196 193
f 195 193 196
f 196 198 195
f 197 195 198
f 198 200 197
f 199 197 200
f 200 202 199
f 201 199 202
f 202 204 201
f 203 201 204
f 184 183 181
f 182 181 183
f 183 186 182
f 185 182 186
f 186 188 185
f 187 185 188
f 188 190 187
f 189 187 190
f 190 192 189
f 191 189 192
f 230 229 231
f 232 231 229
f 229 233 232
f 234 232 233
f 233 235 234
f 236 234 235
f 235 237 236
f 238 236 237
f 237 239 238
f 240 238 239
f 206 205 207
f 207 205 208
f 207 208 209
f 209 208 210
f 209 210 211
f 211 210 212
f 211 212 213
f 213 212 214
f 213 214 215
f 215 214 216
f 215 216 217
f 218 217 216
f 217 218 219
f 220 219 218
f 220 222 219
f 221 219 222
f 222 224 221
f 223 221 224
f 223 224 225
f 225 224 226
f 225 226 227
f 228 227 226
