v -845.6446533203125 748.6093139648438 34.48051071166992
v -831.0206298828125 762.2440795898438 34.36765670776367
v -1795.5357666015625 1824.533203125 52.85380935668945
v -1810.512451171875 1811.2850341796875 52.97349548339844
v -845.8037719726562 748.6972045898438 24.482099533081055
v -845.6446533203125 748.6093139648438 34.48051071166992
v -1810.512451171875 1811.2850341796875 52.97349548339844
v -1810.6124267578125 1811.3104248046875 42.97392654418945
v -1138.4228515625 475.8592834472656 26.735912322998047
v -845.8037719726562 748.6972045898438 24.482099533081055
v -1810.6124267578125 1811.3104248046875 42.97392654418945
v -2110.290771484375 1546.2381591796875 45.36488342285156
v -1431.038330078125 203.02337646484375 28.989849090576172
v -2409.9658203125 1281.1717529296875 47.75593185424805
v -1723.652587890625 -69.81062316894531 31.24378204345703
v -2709.6396484375 1016.1034545898438 50.14695358276367
v -1760.06640625 -104.00007629394531 41.52387237548828
v -1760.225830078125 -103.91023254394531 31.525461196899414
v -2747.09521484375 982.9744873046875 50.445777893066406
v -2746.99560546875 982.9491577148438 60.44535446166992
v -1774.69482421875 -117.64070129394531 41.63651657104492
v -1760.06640625 -104.00007629394531 41.52387237548828
v -2746.99560546875 982.9491577148438 60.44535446166992
v -2761.97705078125 969.6990966796875 60.56486129760742
v -1833.219482421875 -172.2090606689453 42.08740997314453
v -2821.91357421875 916.6834716796875 61.043190002441406
v -1868.200927734375 -207.2071075439453 142.35330200195312
v -1831.624267578125 -173.10357666015625 142.0715789794922
v -2820.913818359375 916.4452514648438 161.03892517089844
v -2858.373046875 883.3123779296875 161.33775329589844
v -1797.607421875 -137.5664825439453 -18.599267959594727
v -1870.7608642578125 -205.77349853515625 -18.035791397094727
v -2859.9775390625 883.6931762695312 0.9301231503486633
v -2785.05908203125 949.9607543945312 0.332376092672348
v -1725.88232421875 -68.55477142333984 -108.80159759521484
v -1797.607421875 -137.5664825439453 -18.599267959594727
v -2785.05908203125 949.9607543945312 0.332376092672348
v -2711.034912109375 1016.4432373046875 -89.91460418701172
v -1652.7286376953125 -0.3457849323749542 -109.36506652832031
v -1725.88232421875 -68.55477142333984 -108.80159759521484
v -2711.034912109375 1016.4432373046875 -89.91460418701172
v -2636.116455078125 1082.7088623046875 -90.51234436035156
v -1578.14697265625 67.05852508544922 -20.28969383239746
v -1652.7286376953125 -0.3457849323749542 -109.36506652832031
v -2636.116455078125 1082.7088623046875 -90.51234436035156
v -2560.303955078125 1148.7596435546875 -1.4608954191207886
v -773.4585571289062 817.3534545898438 -26.487932205200195
v -1578.14697265625 67.05852508544922 -20.28969383239746
v -2560.303955078125 1148.7596435546875 -1.4608954191207886
v -1736.2017822265625 1877.6932373046875 -8.036205291748047
v 31.22600746154785 1567.64453125 -32.68614196777344
v -912.1035766601562 2606.623046875 -14.611483573913574
v 102.95063018798828 1636.65625 -122.88846588134766
v 31.22600746154785 1567.64453125 -32.68614196777344
v -912.1035766601562 2606.623046875 -14.611483573913574
v -838.0801391601562 2673.10546875 -104.85846710205078
v 176.1034393310547 1704.8634033203125 -123.45195007324219
v 102.95063018798828 1636.65625 -122.88846588134766
v -838.0801391601562 2673.10546875 -104.85846710205078
v -763.1617431640625 2739.37109375 -105.4561996459961
v 250.68496704101562 1772.2694091796875 -34.37656784057617
v 176.1034393310547 1704.8634033203125 -123.45195007324219
v -763.1617431640625 2739.37109375 -105.4561996459961
v -687.3497314453125 2805.421875 -16.404756546020508
v 323.8382873535156 1840.4765625 -34.940040588378906
v 250.68496704101562 1772.2694091796875 -34.37656784057617
v -687.3497314453125 2805.421875 -16.404756546020508
v -612.4317626953125 2871.689453125 -17.00250244140625
v 289.8182678222656 1804.9354248046875 125.73076629638672
v 326.4017639160156 1839.046875 125.44902038574219
v -610.8233642578125 2871.310546875 143.40509033203125
v -648.2896728515625 2838.171875 143.7039794921875
v 229.7064666748047 1751.26953125 26.19746971130371
v 288.2254943847656 1805.8321533203125 25.74660301208496
v -649.2867431640625 2838.412109375 43.708251953125
v -709.2178955078125 2785.40234375 44.186553955078125
v 215.07412719726562 1737.6248779296875 26.31010627746582
v -724.2027587890625 2772.146484375 44.306060791015625
v 214.9149627685547 1737.7147216796875 16.311695098876953
v 215.07412719726562 1737.6248779296875 26.31010627746582
v -724.2027587890625 2772.146484375 44.306060791015625
v -724.3023681640625 2772.171875 34.306488037109375
v -114.27594757080078 1430.77734375 18.84721565246582
v 178.3358612060547 1703.6092529296875 16.593433380126953
v -761.7637939453125 2739.03515625 34.605342864990234
v -1061.4354248046875 2473.970703125 36.99624252319336
v -406.88677978515625 1157.9453125 21.10124397277832
v -1361.1055908203125 2208.90625 39.38737869262695
v -699.5010375976562 885.111328125 23.355024337768555
v -1660.779541015625 1943.8397216796875 41.7783088684082
v -699.3418579101562 885.021484375 33.35343933105469
v -699.5010375976562 885.111328125 23.355024337768555
v -1660.779541015625 1943.8397216796875 41.7783088684082
v -1660.6798095703125 1943.8162841796875 51.77788162231445
v -713.9736938476562 871.37890625 33.46623229980469
v -699.3418579101562 885.021484375 33.35343933105469
v -1660.6798095703125 1943.8162841796875 51.77788162231445
v -1675.664794921875 1930.562255859375 51.89751052856445
v 52.48535919189453 -192.373046875 6.612203598022461
v 66.79199981689453 -178.40625 6.509359836578369
v 52.2729606628418 -192.228515625 -3.384561061859131
v 52.48535919189453 -192.373046875 6.612203598022461
v -233.98728942871094 -471.71484375 -1.3308813571929932
v 52.2729606628418 -192.228515625 -3.384561061859131
v -520.2445678710938 -751.19921875 0.7228595614433289
v -806.50048828125 -1030.68359375 2.7766003608703613
v -842.0663452148438 -1065.759765625 13.030017852783203
v -842.279296875 -1065.61328125 3.0332837104797363
v -856.3773803710938 -1079.73046875 13.13261890411377
v -842.0663452148438 -1065.759765625 13.030017852783203
v -913.6303100585938 -1135.62890625 13.543506622314453
v -947.2852783203125 -1172.015625 113.7676010131836
v -911.5033569335938 -1137.080078125 113.51094055175781
v -879.1337280273438 -1099.8203125 -47.1080436706543
v -950.6979370117188 -1169.69140625 -46.59458541870117
v -809.4744873046875 -1028.6484375 -137.24530029296875
v -879.1337280273438 -1099.8203125 -47.1080436706543
v -737.9110717773438 -958.7774047851562 -137.7587432861328
v -809.4744873046875 -1028.6484375 -137.24530029296875
v -664.4423217773438 -890.2070922851562 -48.64833068847656
v -737.9110717773438 -958.7774047851562 -137.7587432861328
v 122.76124572753906 -121.62890625 -54.29608917236328
v -664.4423217773438 -890.2070922851562 -48.64833068847656
v 909.96044921875 646.9434204101562 -59.94379806518555
v 979.6190795898438 718.115234375 -150.0810546875
v 909.96044921875 646.9434204101562 -59.94379806518555
v 1051.1826171875 787.9844360351562 -150.59449768066406
v 979.6190795898438 718.115234375 -150.0810546875
v 1124.65087890625 856.5547485351562 -61.48407745361328
v 1051.1826171875 787.9844360351562 -150.59449768066406
v 1196.21484375 926.4238891601562 -61.997528076171875
v 1124.65087890625 856.5547485351562 -61.48407745361328
v 1163.84228515625 889.1602172851562 98.62139129638672
v 1199.630859375 924.1035766601562 98.3646469116211
v 1104.47021484375 834.7207641601562 -0.935187578201294
v 1161.71728515625 890.6133422851562 -1.3460456132888794
v 1090.15625 820.7462158203125 -0.8325570225715637
v 1089.943359375 820.8906860351562 -10.829291343688965
v 1090.15625 820.7462158203125 -0.8325570225715637
v 767.90576171875 506.47265625 -8.518989562988281
v 1054.15966796875 785.9531860351562 -10.572577476501465
v 481.6533203125 226.9921875 -6.465126991271973
v 195.39697265625 -52.49022674560547 -4.411507606506348
v 195.609375 -52.63671112060547 5.585227012634277
v 195.39697265625 -52.49022674560547 -4.411507606506348
v 181.29541015625 -66.61132049560547 5.687979698181152
v 195.609375 -52.63671112060547 5.585227012634277
v 905.7930297851562 -1051.89453125 -27.492259979248047
v 919.8775024414062 -1037.703125 -27.586069107055664
v 905.5430297851562 -1051.7109375 -37.48750305175781
v 905.7930297851562 -1051.89453125 -27.492259979248047
v 623.7227172851562 -1335.65625 -35.6141471862793
v 905.5430297851562 -1051.7109375 -37.48750305175781
v 341.90533447265625 -1619.59765625 -33.7407341003418
v 60.088951110839844 -1903.5390625 -31.867292404174805
v 25.115320205688477 -1939.2127685546875 -21.637948989868164
v 24.86532211303711 -1939.029296875 -31.633188247680664
v 11.02694320678711 -1953.4061279296875 -21.544353485107422
v 25.115320205688477 -1939.2127685546875 -21.637948989868164
v -45.33829116821289 -2010.197265625 -21.169536590576172
v -78.06387329101562 -2047.515625 79.01679992675781
v -42.83683395385742 -2012.0233154296875 78.78264617919922
v -11.623441696166992 -1973.6015625 -81.78934478759766
v -82.07705688476562 -2044.587890625 -81.32099151611328
v 56.58994674682617 -1900.978515625 -171.86790466308594
v -11.623441696166992 -1973.6015625 -81.78934478759766
v 127.04403686523438 -1829.9920654296875 -172.33624267578125
v 56.58994674682617 -1900.978515625 -171.86790466308594
v 199.7388458251953 -1760.646484375 -83.19441223144531
v 127.04403686523438 -1829.9920654296875 -172.33624267578125
v 974.7324829101562 -979.8085327148438 -88.34626007080078
v 199.7388458251953 -1760.646484375 -83.19441223144531
v 1749.7220458984375 -198.97259521484375 -93.49812316894531
v 1817.9349365234375 -126.34954071044922 -183.57662963867188
v 1749.7220458984375 -198.97259521484375 -93.49812316894531
v 1888.38916015625 -55.365169525146484 -184.0449981689453
v 1817.9349365234375 -126.34954071044922 -183.57662963867188
v 1961.0833740234375 13.980545997619629 -94.90315246582031
v 1888.38916015625 -55.365169525146484 -184.0449981689453
v 2031.537109375 84.96492767333984 -95.37150573730469
v 1961.0833740234375 13.980545997619629 -94.90315246582031
v 2000.3201904296875 46.543060302734375 65.20045471191406
v 2035.5537109375 82.04110717773438 64.96627044677734
v 1941.4619140625 -8.413980484008789 -34.37696838378906
v 1997.8212890625 48.371177673339844 -34.75175094604492
v 1927.36962890625 -22.61319923400879 -34.2833366394043
v 1927.11962890625 -22.429607391357422 -44.2785758972168
v 1927.36962890625 -22.61319923400879 -34.2833366394043
v 1610.07666015625 -341.86322021484375 -42.17112731933594
v 1891.8905029296875 -57.925697326660156 -44.04441452026367
v 1328.263671875 -625.8007202148438 -40.29759216308594
v 1046.447265625 -909.7421264648438 -38.42429733276367
v 1046.697265625 -909.9256591796875 -28.429058074951172
v 1046.447265625 -909.7421264648438 -38.42429733276367
v 1032.60546875 -924.1249389648438 -28.335338592529297
v 1046.697265625 -909.9256591796875 -28.429058074951172
v 1736.133544921875 -1870.1795654296875 -64.6900863647461
v 1750.1337890625 -1855.8983154296875 -64.73506927490234
v 1736.00146484375 -1870.0819091796875 -74.68743133544922
v 1736.133544921875 -1870.1795654296875 -64.6900863647461
v 1455.7833251953125 -2155.60546875 -72.88707733154297
v 1736.00146484375 -1870.0819091796875 -74.68743133544922
v 1175.4678955078125 -2441.287109375 -66.40367126464844
v 895.2529907226562 -2726.798828125 -64.60326385498047
v 860.4903564453125 -2762.681640625 -54.38359451293945
v 860.3590087890625 -2762.583984375 -64.38093566894531
v 846.4863891601562 -2776.966796875 -54.33866882324219
v 860.4903564453125 -2762.681640625 -54.38359451293945
v 790.4366455078125 -2834.0625 -53.93345642089844
v 758.0509033203125 -2871.70703125 46.23752975463867
v 793.0733642578125 -2836.025390625 46.0125846862793
v 823.8731689453125 -2797.189453125 -114.54043579101562
v 753.8175048828125 -2868.572265625 -114.09033966064453
v 891.5640869140625 -2724.052734375 -204.59518432617188
v 823.8731689453125 -2797.189453125 -114.54043579101562
v 961.6173095703125 -2652.673828125 -205.0452880859375
v 891.5640869140625 -2724.052734375 -204.59518432617188
v 1034.0333251953125 -2583.0546875 -115.89075469970703
v 961.6173095703125 -2652.673828125 -205.0452880859375
v 1455.7310791015625 -2154.8046875 -122.84378814697266
v 1034.0333251953125 -2583.0546875 -115.89075469970703
v 2155.2607421875 -1442.0389404296875 -127.33827209472656
v 1805.3868408203125 -1798.2108154296875 -125.18452453613281
v 2642.99658203125 -939.4237060546875 -220.53074645996094
v 2575.30615234375 -1012.5604248046875 -130.47598266601562
v 2713.0498046875 -868.0467529296875 -220.98081970214844
v 2642.99658203125 -939.4237060546875 -220.53074645996094
v 2785.46533203125 -798.4256591796875 -131.82627868652344
v 2713.0498046875 -868.0467529296875 -220.98081970214844
v 2855.51708984375 -727.0467529296875 -132.27638244628906
v 2785.46533203125 -798.4256591796875 -131.82627868652344
v 2824.7177734375 -765.8748779296875 28.276559829711914
v 2859.978515625 -730.4080810546875 28.16449737548828
v 2766.048828125 -821.0155029296875 -71.30931854248047
v 2822.08349609375 -763.9197998046875 -71.66948699951172
v 2752.04248046875 -835.2929077148438 -71.26451110839844
v 2751.91064453125 -835.1952514648438 -81.26182556152344
v 2752.04248046875 -835.2929077148438 -71.26451110839844
v 2436.53076171875 -1156.3084716796875 -79.18859100341797
v 2716.7421875 -870.7928466796875 -80.98887634277344
v 2156.318359375 -1441.8123779296875 -77.38805389404297
v 1876.103759765625 -1727.33203125 -75.58769226074219
v 1876.2354736328125 -1727.4296875 -65.59040832519531
v 1876.103759765625 -1727.33203125 -75.58769226074219
v 1862.2315673828125 -1741.7147216796875 -65.54548645019531
v 1876.2354736328125 -1727.4296875 -65.59040832519531
v 2575.30615234375 -1012.5604248046875 -130.47598266601562
v 823.8731689453125 -2797.189453125 -114.54043579101562
v 891.5640869140625 -2724.052734375 -204.59518432617188
v 923.8521728515625 -2755.67578125 -194.04920959472656
v 961.6173095703125 -2652.673828125 -205.0452880859375
v 993.9053955078125 -2684.296875 -194.49948120117188
v 923.8521728515625 -2755.67578125 -194.04920959472656
v 891.5640869140625 -2724.052734375 -204.59518432617188
v 961.6173095703125 -2652.673828125 -205.0452880859375
v 1034.0333251953125 -2583.0546875 -115.89075469970703
v 993.9053955078125 -2684.296875 -194.49948120117188
v 2575.30615234375 -1012.5604248046875 -130.47598266601562
v 2642.99658203125 -939.4237060546875 -220.53074645996094
v 2675.28466796875 -971.0466918945312 -209.98619079589844
v 2713.0498046875 -868.0467529296875 -220.98081970214844
v 2745.337890625 -899.6677856445312 -210.43614196777344
v 2675.28466796875 -971.0466918945312 -209.98619079589844
v 2642.99658203125 -939.4237060546875 -220.53074645996094
v 2713.0498046875 -868.0467529296875 -220.98081970214844
v 2785.46533203125 -798.4256591796875 -131.82627868652344
v 2745.337890625 -899.6677856445312 -210.43614196777344
v 823.8731689453125 -2797.189453125 -114.54043579101562
v 923.8521728515625 -2755.67578125 -194.04920959472656
v 948.1221313476562 -2779.294921875 -162.31948852539062
v 993.9053955078125 -2684.296875 -194.49948120117188
v 1018.1754150390625 -2707.916015625 -162.7698974609375
v 948.1221313476562 -2779.294921875 -162.31948852539062
v 923.8521728515625 -2755.67578125 -194.04920959472656
v 993.9053955078125 -2684.296875 -194.49948120117188
v 1034.0333251953125 -2583.0546875 -115.89075469970703
v 1018.1754150390625 -2707.916015625 -162.7698974609375
v 2575.30615234375 -1012.5604248046875 -130.47598266601562
v 2675.28466796875 -971.0466918945312 -209.98619079589844
v 2699.5556640625 -994.6658935546875 -178.25772094726562
v 2745.337890625 -899.6677856445312 -210.43614196777344
v 2769.6083984375 -923.2888793945312 -178.70753479003906
v 2699.5556640625 -994.6658935546875 -178.25772094726562
v 2675.28466796875 -971.0466918945312 -209.98619079589844
v 2745.337890625 -899.6677856445312 -210.43614196777344
v 2785.46533203125 -798.4256591796875 -131.82627868652344
v 2769.6083984375 -923.2888793945312 -178.70753479003906
v 823.8731689453125 -2797.189453125 -114.54043579101562
v 948.1221313476562 -2779.294921875 -162.31948852539062
v 957.7100830078125 -2788.91015625 -113.98399353027344
v 1018.1754150390625 -2707.916015625 -162.7698974609375
v 1027.7633056640625 -2717.529296875 -114.43453216552734
v 957.7100830078125 -2788.91015625 -113.98399353027344
v 948.1221313476562 -2779.294921875 -162.31948852539062
v 1018.1754150390625 -2707.916015625 -162.7698974609375
v 1034.0333251953125 -2583.0546875 -115.89075469970703
v 1027.7633056640625 -2717.529296875 -114.43453216552734
v 2575.30615234375 -1012.5604248046875 -130.47598266601562
v 2699.5556640625 -994.6658935546875 -178.25772094726562
v 2710.63037109375 -1005.2459716796875 -128.01205444335938
v 2769.6083984375 -923.2888793945312 -178.70753479003906
v 2780.68310546875 -933.8670654296875 -128.4619140625
v 2710.63037109375 -1005.2459716796875 -128.01205444335938
v 2699.5556640625 -994.6658935546875 -178.25772094726562
v 2769.6083984375 -923.2888793945312 -178.70753479003906
v 2785.46533203125 -798.4256591796875 -131.82627868652344
v 2780.68310546875 -933.8670654296875 -128.4619140625
v -1760.225830078125 -103.91023254394531 31.525461196899414
v -2747.09521484375 982.9744873046875 50.445777893066406
v 214.9149627685547 1737.7147216796875 16.311695098876953
v -724.3023681640625 2772.171875 34.306488037109375
v -842.279296875 -1065.61328125 3.0332837104797363
v 1089.943359375 820.8906860351562 -10.829291343688965
v 24.86532211303711 -1939.029296875 -31.633188247680664
v 1927.11962890625 -22.429607391357422 -44.2785758972168
v 860.3590087890625 -2762.583984375 -64.38093566894531
v 2751.91064453125 -835.1952514648438 -81.26182556152344
v -1831.624267578125 -173.10357666015625 142.0715789794922
v -1833.219482421875 -172.2090606689453 42.08740997314453
v -2821.91357421875 916.6834716796875 61.043190002441406
v -2820.913818359375 916.4452514648438 161.03892517089844
v -1869.7987060546875 -206.3164825439453 42.36914825439453
v -1868.200927734375 -207.2071075439453 142.35330200195312
v -2858.373046875 883.3123779296875 161.33775329589844
v -2859.375 883.5487060546875 61.34204864501953
v 326.4017639160156 1839.046875 125.44902038574219
v 324.8041076660156 1839.9373779296875 25.46486473083496
v -611.8253173828125 2871.546875 43.409393310546875
v -610.8233642578125 2871.310546875 143.40509033203125
v 288.2254943847656 1805.8321533203125 25.74660301208496
v 289.8182678222656 1804.9354248046875 125.73076629638672
v -648.2896728515625 2838.171875 143.7039794921875
v -649.2867431640625 2838.412109375 43.708251953125
v -911.5033569335938 -1137.080078125 113.51094055175781
v -913.6303100585938 -1135.62890625 13.543506622314453
v -949.414306640625 -1170.56640625 13.800219535827637
v -947.2852783203125 -1172.015625 113.7676010131836
v 1199.630859375 924.1035766601562 98.3646469116211
v 1197.50146484375 925.55078125 -1.6027289628982544
v 1161.71728515625 890.6133422851562 -1.3460456132888794
v 1163.84228515625 889.1602172851562 98.62139129638672
v -42.83683395385742 -2012.0233154296875 78.78264617919922
v -45.33829116821289 -2010.197265625 -21.169536590576172
v -80.56729125976562 -2045.6912841796875 -20.935375213623047
v -78.06387329101562 -2047.515625 79.01679992675781
v 2035.5537109375 82.04110717773438 64.96627044677734
v 2033.05029296875 83.86531829833984 -34.98591613769531
v 1997.8212890625 48.371177673339844 -34.75175094604492
v 2000.3201904296875 46.543060302734375 65.20045471191406
v 793.0733642578125 -2836.025390625 46.0125846862793
v 790.4366455078125 -2834.0625 -53.93345642089844
v 755.4141845703125 -2869.755859375 -53.70842361450195
v 758.0509033203125 -2871.70703125 46.23752975463867
v 2859.978515625 -730.4080810546875 28.16449737548828
v 2857.11328125 -728.2303466796875 -71.89453125
v 2822.08349609375 -763.9197998046875 -71.66948699951172
v 2824.7177734375 -765.8748779296875 28.276559829711914
v -1870.7608642578125 -205.77349853515625 -18.035791397094727
v -2859.9775390625 883.6931762695312 0.9301231503486633
v 323.8382873535156 1840.4765625 -34.940040588378906
v -612.4317626953125 2871.689453125 -17.00250244140625
v -950.6979370117188 -1169.69140625 -46.59458541870117
v 1196.21484375 926.4238891601562 -61.997528076171875
v -82.07705688476562 -2044.587890625 -81.32099151611328
v 2031.537109375 84.96492767333984 -95.37150573730469
v 753.8175048828125 -2868.572265625 -114.09033966064453
v 2855.51708984375 -727.0467529296875 -132.27638244628906
v 318.9227600097656 1831.60546875 145.3287353515625
v 304.2938537597656 1817.9647216796875 145.44061279296875
v -633.5904541015625 2850.953125 163.40948486328125
v -618.6085205078125 2864.205078125 163.29071044921875
v 319.5599670410156 1831.2459716796875 185.3223876953125
v 318.9227600097656 1831.60546875 145.3287353515625
v -618.6085205078125 2864.205078125 163.29071044921875
v -618.2095947265625 2864.109375 203.28900146484375
v 304.9310607910156 1817.6053466796875 185.43426513671875
v 319.5599670410156 1831.2459716796875 185.3223876953125
v -618.2095947265625 2864.109375 203.28900146484375
v -633.1915283203125 2850.857421875 203.40777587890625
v 304.2938537597656 1817.9647216796875 145.44061279296875
v 304.9310607910156 1817.6053466796875 185.43426513671875
v -633.1915283203125 2850.857421875 203.40777587890625
v -633.5904541015625 2850.953125 163.40948486328125
v -1845.947021484375 -186.92388916015625 161.88731384277344
v -1860.57568359375 -200.56256103515625 161.9991912841797
v -2850.68896484375 889.8904418945312 180.9824676513672
v -2835.70703125 903.1424560546875 180.86375427246094
v -1845.309814453125 -187.28131103515625 201.88096618652344
v -1845.947021484375 -186.92388916015625 161.88731384277344
v -2835.70703125 903.1424560546875 180.86375427246094
v -2835.30810546875 903.0467529296875 220.86204528808594
v -1859.9384765625 -200.92193603515625 201.99282836914062
v -1845.309814453125 -187.28131103515625 201.88096618652344
v -2835.30810546875 903.0467529296875 220.86204528808594
v -2850.289794921875 889.7947998046875 220.98081970214844
v -1860.57568359375 -200.56256103515625 161.9991912841797
v -1859.9384765625 -200.92193603515625 201.99282836914062
v -2850.289794921875 889.7947998046875 220.98081970214844
v -2850.68896484375 889.8904418945312 180.9824676513672
v 1192.42626953125 916.3750610351562 118.23573303222656
v 1178.115234375 902.40234375 118.33760833740234
v 304.2938537597656 1817.9647216796875 145.44061279296875
v 318.9227600097656 1831.60546875 145.3287353515625
v 1193.27587890625 915.7930297851562 158.2227020263672
v 1192.42626953125 916.3750610351562 118.23573303222656
v 318.9227600097656 1831.60546875 145.3287353515625
v 319.5599670410156 1831.2459716796875 185.3223876953125
v 1178.96533203125 901.8203125 158.32460021972656
v 1193.27587890625 915.7930297851562 158.2227020263672
v 319.5599670410156 1831.2459716796875 185.3223876953125
v 304.9310607910156 1817.6053466796875 185.43426513671875
v 1178.115234375 902.40234375 118.33760833740234
v 1178.96533203125 901.8203125 158.32460021972656
v 304.9310607910156 1817.6053466796875 185.43426513671875
v 304.2938537597656 1817.9647216796875 145.44061279296875
v -925.4035034179688 -1151.341796875 133.3133544921875
v -939.7142944335938 -1165.314453125 133.4152374267578
v -1860.57568359375 -200.56256103515625 161.9991912841797
v -1845.947021484375 -186.92388916015625 161.88731384277344
v -924.5534057617188 -1151.921875 173.30030822753906
v -925.4035034179688 -1151.341796875 133.3133544921875
v -1845.947021484375 -186.92388916015625 161.88731384277344
v -1845.309814453125 -187.28131103515625 201.88096618652344
v -938.8644409179688 -1165.89453125 173.4021759033203
v -924.5534057617188 -1151.921875 173.30030822753906
v -1845.309814453125 -187.28131103515625 201.88096618652344
v -1859.9384765625 -200.92193603515625 201.99282836914062
v -939.7142944335938 -1165.314453125 133.4152374267578
v -938.8644409179688 -1165.89453125 173.4021759033203
v -1859.9384765625 -200.92193603515625 201.99282836914062
v -1860.57568359375 -200.56256103515625 161.9991912841797
v 2028.54150390625 74.1192398071289 84.82954406738281
v 2014.4525146484375 59.92392349243164 84.92241668701172
v 1178.115234375 902.40234375 118.33760833740234
v 1192.42626953125 916.3750610351562 118.23573303222656
v 2029.5413818359375 73.3868179321289 124.8104476928711
v 2028.54150390625 74.1192398071289 84.82954406738281
v 1192.42626953125 916.3750610351562 118.23573303222656
v 1193.27587890625 915.7930297851562 158.2227020263672
v 2015.45263671875 59.191505432128906 124.90331268310547
v 2029.5413818359375 73.3868179321289 124.8104476928711
v 1193.27587890625 915.7930297851562 158.2227020263672
v 1178.96533203125 901.8203125 158.32460021972656
v 2014.4525146484375 59.92392349243164 84.92241668701172
v 2015.45263671875 59.191505432128906 124.90331268310547
v 1178.96533203125 901.8203125 158.32460021972656
v 1178.115234375 902.40234375 118.33760833740234
v -56.440834045410156 -2026.5819091796875 98.57308197021484
v -70.53019714355469 -2040.77734375 98.66594696044922
v -939.7142944335938 -1165.314453125 133.4152374267578
v -925.4035034179688 -1151.341796875 133.3133544921875
v -55.44132995605469 -2027.3125 138.553955078125
v -56.440834045410156 -2026.5819091796875 98.57308197021484
v -925.4035034179688 -1151.341796875 133.3133544921875
v -924.5534057617188 -1151.921875 173.30030822753906
v -69.53019714355469 -2041.5076904296875 138.6468505859375
v -55.44132995605469 -2027.3125 138.553955078125
v -924.5534057617188 -1151.921875 173.30030822753906
v -938.8644409179688 -1165.89453125 173.4021759033203
v -70.53019714355469 -2040.77734375 98.66594696044922
v -69.53019714355469 -2041.5076904296875 138.6468505859375
v -938.8644409179688 -1165.89453125 173.4021759033203
v -939.7142944335938 -1165.314453125 133.4152374267578
v 2852.81005859375 -738.1756591796875 47.911598205566406
v 2838.80126953125 -752.4490966796875 48.00080490112305
v 2853.8642578125 -738.9608154296875 87.8900146484375
v 2852.81005859375 -738.1756591796875 47.911598205566406
v 2028.54150390625 74.1192398071289 84.82954406738281
v 2029.5413818359375 73.3868179321289 124.8104476928711
v 2839.85546875 -753.2342529296875 87.9792251586914
v 2853.8642578125 -738.9608154296875 87.8900146484375
v 2838.80126953125 -752.4490966796875 48.00080490112305
v 2839.85546875 -753.2342529296875 87.9792251586914
v 2015.45263671875 59.191505432128906 124.90331268310547
v 2014.4525146484375 59.92392349243164 84.92241668701172
v 779.5802001953125 -2850.685546875 65.79810333251953
v 765.5709228515625 -2864.958984375 65.88731384277344
v 780.6339111328125 -2851.470703125 105.77649688720703
v 779.5802001953125 -2850.685546875 65.79810333251953
v -56.440834045410156 -2026.5819091796875 98.57308197021484
v -55.44132995605469 -2027.3125 138.553955078125
v 766.6251220703125 -2865.744140625 105.86576080322266
v 780.6339111328125 -2851.470703125 105.77649688720703
v 765.5709228515625 -2864.958984375 65.88731384277344
v 766.6251220703125 -2865.744140625 105.86576080322266
v -69.53019714355469 -2041.5076904296875 138.6468505859375
v -70.53019714355469 -2040.77734375 98.66594696044922
v 2853.8642578125 -738.9608154296875 87.8900146484375
v 2839.85546875 -753.2342529296875 87.9792251586914
v 2838.80126953125 -752.4490966796875 48.00080490112305
v 2852.81005859375 -738.1756591796875 47.911598205566406
v 780.6339111328125 -2851.470703125 105.77649688720703
v 766.6251220703125 -2865.744140625 105.86576080322266
v 765.5709228515625 -2864.958984375 65.88731384277344
v 779.5802001953125 -2850.685546875 65.79810333251953
v -45.9283332824707 2247.5390625 132.56724548339844
v -53.3316535949707 2240.814453125 132.56724548339844
v -60.05333709716797 2248.21875 132.69602966308594
v -52.65099334716797 2254.94140625 132.69602966308594
v -59.70714569091797 2234.298828125 174.3693084716797
v -66.42931365966797 2241.701171875 174.4980926513672
v -66.51622772216797 2241.794921875 164.4989471435547
v -59.7940559387207 2234.39453125 164.3701629638672
v -45.9283332824707 2247.5390625 132.56724548339844
v -52.65099334716797 2254.94140625 132.69602966308594
v -52.4156379699707 2254.681640625 159.9060516357422
v -45.69249725341797 2247.279296875 159.7772674560547
v -52.65099334716797 2254.94140625 132.69602966308594
v -60.05333709716797 2248.21875 132.69602966308594
v -59.81798553466797 2247.958984375 159.9060516357422
v -52.4156379699707 2254.681640625 159.9060516357422
v -60.05333709716797 2248.21875 132.69602966308594
v -53.3316535949707 2240.814453125 132.56724548339844
v -53.09581756591797 2240.556640625 159.7772674560547
v -59.81798553466797 2247.958984375 159.9060516357422
v -53.3316535949707 2240.814453125 132.56724548339844
v -45.9283332824707 2247.5390625 132.56724548339844
v -45.69249725341797 2247.279296875 159.7772674560547
v -53.09581756591797 2240.556640625 159.7772674560547
v -52.4156379699707 2254.681640625 159.9060516357422
v -63.09239959716797 2244.73046875 174.4980926513672
v -56.370235443115234 2237.330078125 174.3693084716797
v -45.69249725341797 2247.279296875 159.7772674560547
v -63.17833709716797 2244.826171875 164.4989471435547
v -63.09239959716797 2244.73046875 174.4980926513672
v -53.09581756591797 2240.556640625 159.7772674560547
v -56.4561653137207 2237.423828125 164.3701629638672
v -63.17833709716797 2244.826171875 164.4989471435547
v -59.81798553466797 2247.958984375 159.9060516357422
v -56.370235443115234 2237.330078125 174.3693084716797
v -56.4561653137207 2237.423828125 164.3701629638672
v -56.370235443115234 2237.330078125 174.3693084716797
v -63.09239959716797 2244.73046875 174.4980926513672
v -66.42931365966797 2241.701171875 174.4980926513672
v -59.70714569091797 2234.298828125 174.3693084716797
v -66.51622772216797 2241.794921875 164.4989471435547
v -66.42931365966797 2241.701171875 174.4980926513672
v -63.17833709716797 2244.826171875 164.4989471435547
v -56.4561653137207 2237.423828125 164.3701629638672
v -59.7940559387207 2234.39453125 164.3701629638672
v -66.51622772216797 2241.794921875 164.4989471435547
v -59.70714569091797 2234.298828125 174.3693084716797
v -59.7940559387207 2234.39453125 164.3701629638672
v -2413.10791015625 394.4999084472656 152.81588745117188
v -2405.704833984375 401.2206115722656 152.81588745117188
v -2398.983154296875 393.8182678222656 152.68701171875
v -2406.38720703125 387.0956115722656 152.68701171875
v -2398.603759765625 406.9393615722656 194.61798095703125
v -2391.88232421875 399.5370178222656 194.48907470703125
v -2391.96923828125 399.6327209472656 184.48992919921875
v -2398.68994140625 407.0350646972656 184.61883544921875
v -2413.10791015625 394.4999084472656 152.81588745117188
v -2406.38720703125 387.0956115722656 152.68701171875
v -2406.15087890625 386.8358459472656 179.89703369140625
v -2412.87255859375 394.2401428222656 180.02593994140625
v -2406.38720703125 387.0956115722656 152.68701171875
v -2398.983154296875 393.8182678222656 152.68701171875
v -2398.747802734375 393.5585021972656 179.89703369140625
v -2406.15087890625 386.8358459472656 179.89703369140625
v -2398.983154296875 393.8182678222656 152.68701171875
v -2405.704833984375 401.2206115722656 152.81588745117188
v -2405.468505859375 400.9608459472656 180.02593994140625
v -2398.747802734375 393.5585021972656 179.89703369140625
v -2405.704833984375 401.2206115722656 152.81588745117188
v -2413.10791015625 394.4999084472656 152.81588745117188
v -2412.87255859375 394.2401428222656 180.02593994140625
v -2405.468505859375 400.9608459472656 180.02593994140625
v -2406.15087890625 386.8358459472656 179.89703369140625
v -2395.2197265625 396.5057678222656 194.4891357421875
v -2401.94140625 403.9100646972656 194.61798095703125
v -2412.87255859375 394.2401428222656 180.02593994140625
v -2395.306884765625 396.6014709472656 184.48992919921875
v -2395.2197265625 396.5057678222656 194.4891357421875
v -2405.468505859375 400.9608459472656 180.02593994140625
v -2402.0283203125 404.0057678222656 184.61883544921875
v -2395.306884765625 396.6014709472656 184.48992919921875
v -2398.747802734375 393.5585021972656 179.89703369140625
v -2401.94140625 403.9100646972656 194.61798095703125
v -2402.0283203125 404.0057678222656 184.61883544921875
v -2401.94140625 403.9100646972656 194.61798095703125
v -2395.2197265625 396.5057678222656 194.4891357421875
v -2391.88232421875 399.5370178222656 194.48907470703125
v -2398.603759765625 406.9393615722656 194.61798095703125
v -2391.96923828125 399.6327209472656 184.48992919921875
v -2391.88232421875 399.5370178222656 194.48907470703125
v -2395.306884765625 396.6014709472656 184.48992919921875
v -2402.0283203125 404.0057678222656 184.61883544921875
v -2398.68994140625 407.0350646972656 184.61883544921875
v -2391.96923828125 399.6327209472656 184.48992919921875
v -2398.603759765625 406.9393615722656 194.61798095703125
v -2398.68994140625 407.0350646972656 184.61883544921875
v -1737.543701171875 -342.55279541015625 138.32174682617188
v -1730.310302734375 -335.64849853515625 138.32171630859375
v -1723.4072265625 -342.87896728515625 138.10745239257812
v -1730.640625 -349.78521728515625 138.10745239257812
v -1723.10791015625 -330.01177978515625 180.11767578125
v -1716.20458984375 -337.24224853515625 179.90338134765625
v -1716.3524169921875 -337.08795166015625 169.90570068359375
v -1723.2564697265625 -329.85552978515625 170.1199951171875
v -1737.543701171875 -342.55279541015625 138.32174682617188
v -1730.640625 -349.78521728515625 138.10745239257812
v -1730.237548828125 -350.20709228515625 165.31353759765625
v -1737.140869140625 -342.97467041015625 165.52777099609375
v -1730.640625 -349.78521728515625 138.10745239257812
v -1723.4072265625 -342.87896728515625 138.10745239257812
v -1723.004150390625 -343.30084228515625 165.31353759765625
v -1730.237548828125 -350.20709228515625 165.31353759765625
v -1723.4072265625 -342.87896728515625 138.10745239257812
v -1730.310302734375 -335.64849853515625 138.32171630859375
v -1729.907470703125 -336.07037353515625 165.52777099609375
v -1723.004150390625 -343.30084228515625 165.31353759765625
v -1730.310302734375 -335.64849853515625 138.32171630859375
v -1737.543701171875 -342.55279541015625 138.32174682617188
v -1737.140869140625 -342.97467041015625 165.52777099609375
v -1729.907470703125 -336.07037353515625 165.52777099609375
v -1730.237548828125 -350.20709228515625 165.31353759765625
v -1719.465576171875 -340.35552978515625 179.90338134765625
v -1726.368896484375 -333.12506103515625 180.11767578125
v -1737.140869140625 -342.97467041015625 165.52777099609375
v -1719.6134033203125 -340.20123291015625 169.90570068359375
v -1719.465576171875 -340.35552978515625 179.90338134765625
v -1729.907470703125 -336.07037353515625 165.52777099609375
v -1726.5169677734375 -332.96881103515625 170.1199951171875
v -1719.6134033203125 -340.20123291015625 169.90570068359375
v -1723.004150390625 -343.30084228515625 165.31353759765625
v -1726.368896484375 -333.12506103515625 180.11767578125
v -1726.5169677734375 -332.96881103515625 170.1199951171875
v -1726.368896484375 -333.12506103515625 180.11767578125
v -1719.465576171875 -340.35552978515625 179.90338134765625
v -1716.20458984375 -337.24224853515625 179.90338134765625
v -1723.10791015625 -330.01177978515625 180.11767578125
v -1716.3524169921875 -337.08795166015625 169.90570068359375
v -1716.20458984375 -337.24224853515625 179.90338134765625
v -1719.6134033203125 -340.20123291015625 169.90570068359375
v -1726.5169677734375 -332.96881103515625 170.1199951171875
v -1723.2564697265625 -329.85552978515625 170.1199951171875
v -1716.3524169921875 -337.08795166015625 169.90570068359375
v -1723.10791015625 -330.01177978515625 180.11767578125
v -1723.2564697265625 -329.85552978515625 170.1199951171875
v 634.3348999023438 1514.83984375 115.87406921386719
v 627.1015014648438 1507.935546875 115.87406921386719
v 620.1986694335938 1515.166015625 116.08818054199219
v 627.4320678710938 1522.072265625 116.08815002441406
v 621.1351928710938 1501.00390625 157.67005920410156
v 614.2323608398438 1508.236328125 157.88414001464844
v 614.0853881835938 1508.390625 147.88641357421875
v 620.9877319335938 1501.158203125 147.67234802246094
v 634.3348999023438 1514.83984375 115.87406921386719
v 627.4320678710938 1522.072265625 116.08815002441406
v 627.8339233398438 1521.650390625 143.2942352294922
v 634.7372436523438 1514.41796875 143.08010864257812
v 627.4320678710938 1522.072265625 116.08815002441406
v 620.1986694335938 1515.166015625 116.08818054199219
v 620.6005249023438 1514.74609375 143.2942352294922
v 627.8339233398438 1521.650390625 143.2942352294922
v 620.1986694335938 1515.166015625 116.08818054199219
v 627.1015014648438 1507.935546875 115.87406921386719
v 627.5038452148438 1507.513671875 143.08010864257812
v 620.6005249023438 1514.74609375 143.2942352294922
v 627.1015014648438 1507.935546875 115.87406921386719
v 634.3348999023438 1514.83984375 115.87406921386719
v 634.7372436523438 1514.41796875 143.08010864257812
v 627.5038452148438 1507.513671875 143.08010864257812
v 627.8339233398438 1521.650390625 143.2942352294922
v 617.4940185546875 1511.34765625 157.88414001464844
v 624.3973999023438 1504.115234375 157.67005920410156
v 634.7372436523438 1514.41796875 143.08010864257812
v 617.3461303710938 1511.501953125 147.88641357421875
v 617.4940185546875 1511.34765625 157.88414001464844
v 627.5038452148438 1507.513671875 143.08010864257812
v 624.2494506835938 1504.271484375 147.67234802246094
v 617.3461303710938 1511.501953125 147.88641357421875
v 620.6005249023438 1514.74609375 143.2942352294922
v 624.3973999023438 1504.115234375 157.67005920410156
v 624.2494506835938 1504.271484375 147.67234802246094
v 624.3973999023438 1504.115234375 157.67005920410156
v 617.4940185546875 1511.34765625 157.88414001464844
v 614.2323608398438 1508.236328125 157.88414001464844
v 621.1351928710938 1501.00390625 157.67005920410156
v 614.0853881835938 1508.390625 147.88641357421875
v 614.2323608398438 1508.236328125 157.88414001464844
v 617.3461303710938 1511.501953125 147.88641357421875
v 624.2494506835938 1504.271484375 147.67234802246094
v 620.9877319335938 1501.158203125 147.67234802246094
v 614.0853881835938 1508.390625 147.88641357421875
v 621.1351928710938 1501.00390625 157.67005920410156
v 620.9877319335938 1501.158203125 147.67234802246094
v 1327.16455078125 794.1035766601562 93.23899841308594
v 1320.0673828125 787.0586547851562 93.23899841308594
v 1313.02587890625 794.1543579101562 93.52033996582031
v 1320.123046875 801.1973266601562 93.52033996582031
v 1314.43603515625 779.8125610351562 135.02801513671875
v 1307.39404296875 786.9063110351562 135.30934143066406
v 1307.19580078125 787.1074829101562 125.31330108642578
v 1314.2373046875 780.0117797851562 125.03197479248047
v 1327.16455078125 794.1035766601562 93.23899841308594
v 1320.123046875 801.1973266601562 93.52033996582031
v 1320.66259765625 800.6543579101562 120.72187805175781
v 1327.7041015625 793.5586547851562 120.44053649902344
v 1320.123046875 801.1973266601562 93.52033996582031
v 1313.02587890625 794.1543579101562 93.52033996582031
v 1313.5654296875 793.6094360351562 120.72187805175781
v 1320.66259765625 800.6543579101562 120.72187805175781
v 1313.02587890625 794.1543579101562 93.52033996582031
v 1320.0673828125 787.0586547851562 93.23899841308594
v 1320.60693359375 786.5156860351562 120.44053649902344
v 1313.5654296875 793.6094360351562 120.72187805175781
v 1320.0673828125 787.0586547851562 93.23899841308594
v 1327.16455078125 794.1035766601562 93.23899841308594
v 1327.7041015625 793.5586547851562 120.44053649902344
v 1320.60693359375 786.5156860351562 120.44053649902344
v 1320.66259765625 800.6543579101562 120.72187805175781
v 1310.59423828125 790.0820922851562 135.3093719482422
v 1317.6357421875 782.9883422851562 135.02801513671875
v 1327.7041015625 793.5586547851562 120.44053649902344
v 1310.39599609375 790.2832641601562 125.31330871582031
v 1310.59423828125 790.0820922851562 135.3093719482422
v 1320.60693359375 786.5156860351562 120.44053649902344
v 1317.4375 783.1875610351562 125.03197479248047
v 1310.39599609375 790.2832641601562 125.31330871582031
v 1313.5654296875 793.6094360351562 120.72187805175781
v 1317.6357421875 782.9883422851562 135.02801513671875
v 1317.4375 783.1875610351562 125.03197479248047
v 1317.6357421875 782.9883422851562 135.02801513671875
v 1310.59423828125 790.0820922851562 135.3093719482422
v 1307.39404296875 786.9063110351562 135.30934143066406
v 1314.43603515625 779.8125610351562 135.02801513671875
v 1307.19580078125 787.1074829101562 125.31330108642578
v 1307.39404296875 786.9063110351562 135.30934143066406
v 1310.39599609375 790.2832641601562 125.31330871582031
v 1317.4375 783.1875610351562 125.03197479248047
v 1314.2373046875 780.0117797851562 125.03197479248047
v 1307.19580078125 787.1074829101562 125.31330108642578
v 1314.43603515625 779.8125610351562 135.02801513671875
v 1314.2373046875 780.0117797851562 125.03197479248047
v -1047.2470703125 -1065.755859375 116.89437103271484
v -1040.013427734375 -1058.8515625 116.89437103271484
v -1033.109375 -1066.08203125 116.68008422851562
v -1040.3427734375 -1072.98828125 116.68008422851562
v -1032.81103515625 -1053.21484375 158.69033813476562
v -1025.90771484375 -1060.4453125 158.47604370117188
v -1026.0556640625 -1060.291015625 148.47833251953125
v -1032.958984375 -1053.05859375 148.692626953125
v -1047.2470703125 -1065.755859375 116.89437103271484
v -1040.3427734375 -1072.98828125 116.68008422851562
v -1039.940673828125 -1073.41015625 143.88613891601562
v -1046.843994140625 -1066.177734375 144.10043334960938
v -1040.3427734375 -1072.98828125 116.68008422851562
v -1033.109375 -1066.08203125 116.68008422851562
v -1032.707275390625 -1066.50390625 143.88613891601562
v -1039.940673828125 -1073.41015625 143.88613891601562
v -1033.109375 -1066.08203125 116.68008422851562
v -1040.013427734375 -1058.8515625 116.89437103271484
v -1039.610595703125 -1059.2734375 144.10043334960938
v -1032.707275390625 -1066.50390625 143.88613891601562
v -1040.013427734375 -1058.8515625 116.89437103271484
v -1047.2470703125 -1065.755859375 116.89437103271484
v -1046.843994140625 -1066.177734375 144.10043334960938
v -1039.610595703125 -1059.2734375 144.10043334960938
v -1039.940673828125 -1073.41015625 143.88613891601562
v -1029.168701171875 -1063.55859375 158.47604370117188
v -1036.072021484375 -1056.328125 158.69033813476562
v -1046.843994140625 -1066.177734375 144.10043334960938
v -1029.316650390625 -1063.404296875 148.47833251953125
v -1029.168701171875 -1063.55859375 158.47604370117188
v -1039.610595703125 -1059.2734375 144.10043334960938
v -1036.219970703125 -1056.171875 148.692626953125
v -1029.316650390625 -1063.404296875 148.47833251953125
v -1032.707275390625 -1066.50390625 143.88613891601562
v -1036.072021484375 -1056.328125 158.69033813476562
v -1036.219970703125 -1056.171875 148.692626953125
v -1036.072021484375 -1056.328125 158.69033813476562
v -1029.168701171875 -1063.55859375 158.47604370117188
v -1025.90771484375 -1060.4453125 158.47604370117188
v -1032.81103515625 -1053.21484375 158.69033813476562
v -1026.0556640625 -1060.291015625 148.47833251953125
v -1025.90771484375 -1060.4453125 158.47604370117188
v -1029.316650390625 -1063.404296875 148.47833251953125
v -1036.219970703125 -1056.171875 148.692626953125
v -1032.958984375 -1053.05859375 148.692626953125
v -1026.0556640625 -1060.291015625 148.47833251953125
v -1032.81103515625 -1053.21484375 158.69033813476562
v -1032.958984375 -1053.05859375 148.692626953125
v 2031.4150390625 84.71298217773438 65.0947494506836
v 2024.3502197265625 77.63681030273438 65.0947494506836
v 2017.2763671875 84.69931030273438 65.39067840576172
v 2024.3411865234375 91.77548217773438 65.39067840576172
v 2018.79443359375 70.3223648071289 106.88201141357422
v 2011.720703125 77.3848648071289 107.17794036865234
v 2011.51123046875 77.5938491821289 97.18229675292969
v 2018.5849609375 70.5313491821289 96.8863754272461
v 2031.4150390625 84.71298217773438 65.0947494506836
v 2024.3411865234375 91.77548217773438 65.39067840576172
v 2024.9111328125 91.2071304321289 92.59105682373047
v 2031.98486328125 84.1446304321289 92.29512023925781
v 2024.3411865234375 91.77548217773438 65.39067840576172
v 2017.2763671875 84.69931030273438 65.39067840576172
v 2017.8460693359375 84.1290054321289 92.59105682373047
v 2024.9111328125 91.2071304321289 92.59105682373047
v 2017.2763671875 84.69931030273438 65.39067840576172
v 2024.3502197265625 77.63681030273438 65.0947494506836
v 2024.919921875 77.0684585571289 92.29512023925781
v 2017.8460693359375 84.1290054321289 92.59105682373047
v 2024.3502197265625 77.63681030273438 65.0947494506836
v 2031.4150390625 84.71298217773438 65.0947494506836
v 2031.98486328125 84.1446304321289 92.29512023925781
v 2024.919921875 77.0684585571289 92.29512023925781
v 2024.9111328125 91.2071304321289 92.59105682373047
v 2014.90576171875 80.5743179321289 107.17794036865234
v 2021.9794921875 73.5118179321289 106.88201141357422
v 2031.98486328125 84.1446304321289 92.29512023925781
v 2014.6966552734375 80.7833023071289 97.18229675292969
v 2014.90576171875 80.5743179321289 107.17794036865234
v 2024.919921875 77.0684585571289 92.29512023925781
v 2021.7705078125 73.7208023071289 96.8863754272461
v 2014.6966552734375 80.7833023071289 97.18229675292969
v 2017.8460693359375 84.1290054321289 92.59105682373047
v 2021.9794921875 73.5118179321289 106.88201141357422
v 2021.7705078125 73.7208023071289 96.8863754272461
v 2021.9794921875 73.5118179321289 106.88201141357422
v 2014.90576171875 80.5743179321289 107.17794036865234
v 2011.720703125 77.3848648071289 107.17794036865234
v 2018.79443359375 70.3223648071289 106.88201141357422
v 2011.51123046875 77.5938491821289 97.18229675292969
v 2011.720703125 77.3848648071289 107.17794036865234
v 2014.6966552734375 80.7833023071289 97.18229675292969
v 2021.7705078125 73.7208023071289 96.8863754272461
v 2018.5849609375 70.5313491821289 96.8863754272461
v 2011.51123046875 77.5938491821289 97.18229675292969
v 2018.79443359375 70.3223648071289 106.88201141357422
v 2018.5849609375 70.5313491821289 96.8863754272461
v -345.0213928222656 -1777.11328125 89.71975708007812
v -337.9242248535156 -1770.068359375 89.71975708007812
v -330.8822326660156 -1777.162109375 89.43820190429688
v -337.9784240722656 -1784.2069091796875 89.43820190429688
v -330.6356506347656 -1764.4921875 131.50872802734375
v -323.5936584472656 -1771.5858154296875 131.2271728515625
v -323.7919006347656 -1771.384765625 121.23114776611328
v -330.8338928222656 -1764.291015625 121.5126953125
v -345.0213928222656 -1777.11328125 89.71975708007812
v -337.9784240722656 -1784.2069091796875 89.43820190429688
v -337.4383850097656 -1784.751953125 116.63970184326172
v -344.4808654785156 -1777.6583251953125 116.9212646484375
v -337.9784240722656 -1784.2069091796875 89.43820190429688
v -330.8822326660156 -1777.162109375 89.43820190429688
v -330.3417053222656 -1777.7049560546875 116.63970184326172
v -337.4383850097656 -1784.751953125 116.63970184326172
v -330.8822326660156 -1777.162109375 89.43820190429688
v -337.9242248535156 -1770.068359375 89.71975708007812
v -337.3846740722656 -1770.611328125 116.9212646484375
v -330.3417053222656 -1777.7049560546875 116.63970184326172
v -337.9242248535156 -1770.068359375 89.71975708007812
v -345.0213928222656 -1777.11328125 89.71975708007812
v -344.4808654785156 -1777.6583251953125 116.9212646484375
v -337.3846740722656 -1770.611328125 116.9212646484375
v -337.4383850097656 -1784.751953125 116.63970184326172
v -326.7933654785156 -1774.76171875 131.2271728515625
v -333.8353576660156 -1767.66796875 131.50872802734375
v -344.4808654785156 -1777.6583251953125 116.9212646484375
v -326.9916076660156 -1774.560546875 121.23114776611328
v -326.7933654785156 -1774.76171875 131.2271728515625
v -337.3846740722656 -1770.611328125 116.9212646484375
v -334.0335998535156 -1767.466796875 121.5126953125
v -326.9916076660156 -1774.560546875 121.23114776611328
v -330.3417053222656 -1777.7049560546875 116.63970184326172
v -333.8353576660156 -1767.66796875 131.50872802734375
v -334.0335998535156 -1767.466796875 121.5126953125
v -333.8353576660156 -1767.66796875 131.50872802734375
v -326.7933654785156 -1774.76171875 131.2271728515625
v -323.5936584472656 -1771.5858154296875 131.2271728515625
v -330.6356506347656 -1764.4921875 131.50872802734375
v -323.7919006347656 -1771.384765625 121.23114776611328
v -323.5936584472656 -1771.5858154296875 131.2271728515625
v -326.9916076660156 -1774.560546875 121.23114776611328
v -334.0335998535156 -1767.466796875 121.5126953125
v -330.8338928222656 -1764.291015625 121.5126953125
v -323.7919006347656 -1771.384765625 121.23114776611328
v -330.6356506347656 -1764.4921875 131.50872802734375
v -330.8338928222656 -1764.291015625 121.5126953125
v 2743.27392578125 -616.9100341796875 33.34083557128906
v 2736.25537109375 -624.0350341796875 33.34083557128906
v 2729.13623046875 -617.0194091796875 33.65864562988281
v 2736.154296875 -609.8963623046875 33.65864562988281
v 2730.81494140625 -631.4510498046875 75.12528991699219
v 2723.6943359375 -624.4354248046875 75.44307708740234
v 2723.4677734375 -624.2127685546875 65.44813537597656
v 2730.58740234375 -631.2264404296875 65.13033294677734
v 2743.27392578125 -616.9100341796875 33.34083557128906
v 2736.154296875 -609.8963623046875 33.65864562988281
v 2736.77001953125 -610.5037841796875 60.85719299316406
v 2743.89013671875 -617.5174560546875 60.53938293457031
v 2736.154296875 -609.8963623046875 33.65864562988281
v 2729.13623046875 -617.0194091796875 33.65864562988281
v 2729.75146484375 -617.6268310546875 60.85719299316406
v 2736.77001953125 -610.5037841796875 60.85719299316406
v 2729.13623046875 -617.0194091796875 33.65864562988281
v 2736.25537109375 -624.0350341796875 33.34083557128906
v 2736.8720703125 -624.6405029296875 60.53938293457031
v 2729.75146484375 -617.6268310546875 60.85719299316406
v 2736.25537109375 -624.0350341796875 33.34083557128906
v 2743.27392578125 -616.9100341796875 33.34083557128906
v 2743.89013671875 -617.5174560546875 60.53938293457031
v 2736.8720703125 -624.6405029296875 60.53938293457031
v 2736.77001953125 -610.5037841796875 60.85719299316406
v 2726.85888671875 -621.2244873046875 75.44307708740234
v 2733.97802734375 -628.2381591796875 75.12525939941406
v 2743.89013671875 -617.5174560546875 60.53938293457031
v 2726.63232421875 -620.9998779296875 65.44813537597656
v 2726.85888671875 -621.2244873046875 75.44307708740234
v 2736.8720703125 -624.6405029296875 60.53938293457031
v 2733.75146484375 -628.0155029296875 65.13033294677734
v 2726.63232421875 -620.9998779296875 65.44813537597656
v 2729.75146484375 -617.6268310546875 60.85719299316406
v 2733.97802734375 -628.2381591796875 75.12525939941406
v 2733.75146484375 -628.0155029296875 65.13033294677734
v 2733.97802734375 -628.2381591796875 75.12525939941406
v 2726.85888671875 -621.2244873046875 75.44307708740234
v 2723.6943359375 -624.4354248046875 75.44307708740234
v 2730.81494140625 -631.4510498046875 75.12528991699219
v 2723.4677734375 -624.2127685546875 65.44813537597656
v 2723.6943359375 -624.4354248046875 75.44307708740234
v 2726.63232421875 -620.9998779296875 65.44813537597656
v 2733.75146484375 -628.0155029296875 65.13033294677734
v 2730.58740234375 -631.2264404296875 65.13033294677734
v 2723.4677734375 -624.2127685546875 65.44813537597656
v 2730.81494140625 -631.4510498046875 75.12528991699219
v 2730.58740234375 -631.2264404296875 65.13033294677734
v 363.9649658203125 -2481.7578125 61.71664810180664
v 370.9840087890625 -2474.634765625 61.71664810180664
v 378.1036376953125 -2481.65234375 61.43753433227539
v 371.0845947265625 -2488.775390625 61.43753433227539
v 378.2041931152344 -2468.97265625 103.50592041015625
v 385.3238525390625 -2475.98828125 103.22676849365234
v 385.1251220703125 -2475.79296875 93.23068237304688
v 378.0054931640625 -2468.77734375 93.50979614257812
v 363.9649658203125 -2481.7578125 61.71664810180664
v 371.0845947265625 -2488.775390625 61.43753433227539
v 371.6246032714844 -2489.306640625 88.63922882080078
v 364.5059814453125 -2482.291015625 88.9183349609375
v 371.0845947265625 -2488.775390625 61.43753433227539
v 378.1036376953125 -2481.65234375 61.43753433227539
v 378.6446228027344 -2482.185546875 88.63922119140625
v 371.6246032714844 -2489.306640625 88.63922882080078
v 378.1036376953125 -2481.65234375 61.43753433227539
v 370.9840087890625 -2474.634765625 61.71664810180664
v 371.5250244140625 -2475.16796875 88.9183349609375
v 378.6446228027344 -2482.185546875 88.63922119140625
v 370.9840087890625 -2474.634765625 61.71664810180664
v 363.9649658203125 -2481.7578125 61.71664810180664
v 364.5059814453125 -2482.291015625 88.9183349609375
v 371.5250244140625 -2475.16796875 88.9183349609375
v 371.6246032714844 -2489.306640625 88.63922882080078
v 382.1588134765625 -2479.19921875 103.22676849365234
v 375.0401611328125 -2472.18359375 103.50592041015625
v 364.5059814453125 -2482.291015625 88.9183349609375
v 381.9600830078125 -2479.00390625 93.23068237304688
v 382.1588134765625 -2479.19921875 103.22676849365234
v 371.5250244140625 -2475.16796875 88.9183349609375
v 374.8414306640625 -2471.98828125 93.50979614257812
v 381.9600830078125 -2479.00390625 93.23068237304688
v 378.6446228027344 -2482.185546875 88.63922119140625
v 375.0401611328125 -2472.18359375 103.50592041015625
v 374.8414306640625 -2471.98828125 93.50979614257812
v 375.0401611328125 -2472.18359375 103.50592041015625
v 382.1588134765625 -2479.19921875 103.22676849365234
v 385.3238525390625 -2475.98828125 103.22676849365234
v 378.2041931152344 -2468.97265625 103.50592041015625
v 385.1251220703125 -2475.79296875 93.23068237304688
v 385.3238525390625 -2475.98828125 103.22676849365234
v 381.9600830078125 -2479.00390625 93.23068237304688
v 374.8414306640625 -2471.98828125 93.50979614257812
v 378.0054931640625 -2468.77734375 93.50979614257812
v 385.1251220703125 -2475.79296875 93.23068237304688
v 378.2041931152344 -2468.97265625 103.50592041015625
v 378.0054931640625 -2468.77734375 93.50979614257812
f 277 276 278
f 330 329 331
f 332 331 329
f 320 319 321
f 322 321 319
f 310 309 311
f 312 311 309
f 300 299 301
f 302 301 299
f 280 279 281
f 282 281 279
f 425 424 426
f 427 426 424
f 421 420 422
f 423 422 420
f 292 291 289
f 290 289 291
f 268 267 269
f 270 269 267
f 260 259 261
f 262 261 259
f 224 223 225
f 226 225 223
f 216 215 217
f 218 217 215
f 185 184 132
f 131 132 184
f 132 131 50
f 243 184 244
f 244 184 241
f 184 185 241
f 242 241 185
f 54 52 53
f 49 53 52
f 52 51 49
f 50 49 51
f 49 50 131
f 131 133 49
f 133 131 186
f 184 186 131
f 186 184 275
f 243 275 184
f 53 49 133
f 419 418 415
f 414 415 418
f 1045 1044 409
f 408 409 1044
f 409 408 410
f 411 410 408
f 417 416 413
f 412 413 416
f 1047 1046 405
f 404 405 1046
f 405 404 406
f 407 406 404
f 228 227 171
f 170 171 227
f 171 170 118
f 117 118 170
f 118 117 22
f 21 22 117
f 22 21 23
f 24 23 21
f 169 168 116
f 115 116 168
f 1049 1048 18
f 17 18 1048
f 18 17 19
f 20 19 17
f 163 162 110
f 109 110 162
f 1051 1050 6
f 5 6 1050
f 6 5 7
f 8 7 5
f 214 213 161
f 160 161 213
f 161 160 108
f 107 108 160
f 108 107 2
f 1 2 107
f 2 1 3
f 4 3 1
f 272 271 210
f 209 210 271
f 210 209 157
f 156 157 209
f 157 156 100
f 99 100 156
f 100 99 101
f 102 101 99
f 208 207 155
f 154 155 207
f 1053 1052 96
f 95 96 1052
f 96 95 97
f 98 97 95
f 202 201 149
f 148 149 201
f 1055 1054 84
f 83 84 1054
f 84 83 85
f 86 85 83
f 28 27 25
f 26 25 27
f 25 26 119
f 120 119 26
f 119 120 172
f 173 172 120
f 172 173 229
f 230 229 173
f 258 257 200
f 199 200 257
f 200 199 147
f 146 147 199
f 147 146 80
f 79 80 146
f 80 79 81
f 82 81 79
f 256 255 198
f 197 198 255
f 198 197 145
f 144 145 197
f 145 144 76
f 75 76 144
f 76 75 77
f 78 77 75
f 254 253 196
f 195 196 253
f 196 195 143
f 142 143 195
f 143 142 72
f 71 72 142
f 72 71 73
f 74 73 71
f 252 251 194
f 193 194 251
f 194 193 141
f 140 141 193
f 141 140 68
f 67 68 140
f 68 67 69
f 70 69 67
f 250 249 192
f 191 192 249
f 192 191 139
f 138 139 191
f 139 138 64
f 63 64 138
f 64 63 65
f 66 65 63
f 248 247 190
f 189 190 247
f 190 189 137
f 136 137 189
f 137 136 60
f 59 60 136
f 60 59 61
f 62 61 59
f 246 245 188
f 187 188 245
f 188 187 135
f 134 135 187
f 135 134 56
f 55 56 134
f 56 55 57
f 58 57 55
f 240 239 183
f 182 183 239
f 183 182 130
f 129 130 182
f 130 129 46
f 45 46 129
f 46 45 47
f 48 47 45
f 238 237 181
f 180 181 237
f 181 180 128
f 127 128 180
f 128 127 42
f 41 42 127
f 42 41 43
f 44 43 41
f 236 235 179
f 178 179 235
f 179 178 126
f 125 126 178
f 126 125 38
f 37 38 125
f 38 37 39
f 40 39 37
f 234 233 177
f 176 177 233
f 177 176 124
f 123 124 176
f 124 123 34
f 33 34 123
f 34 33 35
f 36 35 33
f 232 231 175
f 174 175 231
f 175 174 122
f 121 122 174
f 122 121 30
f 29 30 121
f 30 29 31
f 32 31 29
f 284 283 285
f 334 333 335
f 287 286 288
f 327 326 328
f 294 293 295
f 324 323 325
f 297 296 298
f 317 316 318
f 304 303 305
f 314 313 315
f 307 306 308
f 16 14 15
f 221 222 166
f 167 166 222
f 166 167 113
f 114 113 167
f 113 114 13
f 15 13 114
f 13 15 14
f 14 12 13
f 9 13 12
f 12 11 9
f 219 221 164
f 166 164 221
f 164 166 111
f 113 111 166
f 111 113 9
f 13 9 113
f 10 9 11
f 9 10 111
f 112 111 10
f 111 112 164
f 165 164 112
f 164 165 219
f 220 219 165
f 90 89 87
f 87 91 90
f 91 87 152
f 152 153 91
f 153 152 206
f 205 206 152
f 206 205 266
f 265 266 205
f 205 203 265
f 263 265 203
f 203 204 263
f 264 263 204
f 151 150 88
f 87 88 150
f 150 152 87
f 152 150 205
f 203 205 150
f 150 151 203
f 204 203 151
f 88 87 89
f 94 92 93
f 92 90 91
f 91 93 92
f 93 91 153
f 106 105 103
f 104 103 105
f 103 104 158
f 159 158 104
f 158 159 211
f 212 211 159
f 211 212 273
f 274 273 212
f 389 388 390
f 391 390 388
f 359 358 356
f 357 356 358
f 356 357 372
f 373 372 357
f 1057 1056 380
f 381 380 1056
f 383 382 375
f 374 375 382
f 1059 1058 361
f 360 361 1058
f 361 360 362
f 363 362 360
f 385 384 377
f 376 377 384
f 1061 1060 365
f 364 365 1060
f 365 364 366
f 367 366 364
f 387 386 379
f 378 379 386
f 1063 1062 369
f 368 369 1062
f 369 368 370
f 371 370 368
f 393 392 394
f 395 394 392
f 397 396 398
f 399 398 396
f 401 400 402
f 403 402 400
f 463 462 460
f 461 460 462
f 701 700 689
f 688 689 700
f 688 674 689
f 675 689 674
f 675 674 672
f 673 672 674
f 611 610 599
f 598 599 610
f 598 586 599
f 587 599 586
f 587 586 584
f 585 584 586
f 777 776 778
f 779 778 776
f 779 791 778
f 790 778 791
f 790 791 802
f 803 802 791
f 465 464 466
f 467 466 464
f 469 468 470
f 471 470 468
f 473 472 474
f 475 474 472
f 477 476 478
f 479 478 476
f 481 480 482
f 483 482 480
f 485 484 486
f 487 486 484
f 489 488 490
f 491 490 488
f 493 492 494
f 495 494 492
f 497 496 498
f 499 498 496
f 501 500 502
f 503 502 500
f 505 504 506
f 507 506 504
f 509 508 510
f 511 510 508
f 513 512 514
f 515 514 512
f 517 516 518
f 519 518 516
f 521 520 522
f 523 522 520
f 525 524 526
f 527 526 524
f 529 528 530
f 531 530 528
f 533 532 534
f 535 534 532
f 537 536 538
f 539 538 536
f 541 540 542
f 543 542 540
f 545 544 546
f 547 546 544
f 549 548 550
f 551 550 548
f 553 552 554
f 555 554 552
f 557 556 558
f 559 558 556
f 561 560 562
f 563 562 560
f 565 564 566
f 567 566 564
f 569 568 570
f 571 570 568
f 573 572 574
f 575 574 572
f 577 576 578
f 579 578 576
f 579 593 578
f 592 578 593
f 592 593 604
f 605 604 593
f 581 580 582
f 583 582 580
f 589 588 590
f 591 590 588
f 595 594 596
f 597 596 594
f 601 600 602
f 603 602 600
f 607 606 608
f 609 608 606
f 613 612 614
f 615 614 612
f 617 616 618
f 619 618 616
f 621 620 622
f 623 622 620
f 625 624 626
f 627 626 624
f 627 641 626
f 640 626 641
f 640 641 652
f 653 652 641
f 629 628 630
f 631 630 628
f 633 632 634
f 635 634 632
f 635 647 634
f 646 634 647
f 646 647 658
f 659 658 647
f 637 636 638
f 639 638 636
f 643 642 644
f 645 644 642
f 649 648 650
f 651 650 648
f 655 654 656
f 657 656 654
f 661 660 662
f 663 662 660
f 665 664 666
f 667 666 664
f 669 668 670
f 671 670 668
f 677 676 678
f 679 678 676
f 681 680 682
f 683 682 680
f 683 695 682
f 694 682 695
f 694 695 706
f 707 706 695
f 685 684 686
f 687 686 684
f 691 690 692
f 693 692 690
f 697 696 698
f 699 698 696
f 703 702 704
f 705 704 702
f 709 708 710
f 711 710 708
f 713 712 714
f 715 714 712
f 717 716 718
f 719 718 716
f 721 720 722
f 723 722 720
f 723 737 722
f 736 722 737
f 736 737 748
f 749 748 737
f 725 724 726
f 727 726 724
f 729 728 730
f 731 730 728
f 731 743 730
f 742 730 743
f 742 743 754
f 755 754 743
f 733 732 734
f 735 734 732
f 739 738 740
f 741 740 738
f 745 744 746
f 747 746 744
f 751 750 752
f 753 752 750
f 757 756 758
f 759 758 756
f 761 760 762
f 763 762 760
f 765 764 766
f 767 766 764
f 769 768 770
f 771 770 768
f 771 785 770
f 784 770 785
f 784 785 796
f 797 796 785
f 773 772 774
f 775 774 772
f 781 780 782
f 783 782 780
f 787 786 788
f 789 788 786
f 793 792 794
f 795 794 792
f 799 798 800
f 801 800 798
f 805 804 806
f 807 806 804
f 809 808 810
f 811 810 808
f 813 812 814
f 815 814 812
f 817 816 818
f 819 818 816
f 819 833 818
f 832 818 833
f 832 833 844
f 845 844 833
f 821 820 822
f 823 822 820
f 825 824 826
f 827 826 824
f 827 839 826
f 838 826 839
f 838 839 850
f 851 850 839
f 829 828 830
f 831 830 828
f 835 834 836
f 837 836 834
f 841 840 842
f 843 842 840
f 847 846 848
f 849 848 846
f 853 852 854
f 855 854 852
f 857 856 858
f 859 858 856
f 861 860 862
f 863 862 860
f 865 864 866
f 867 866 864
f 867 881 866
f 880 866 881
f 880 881 892
f 893 892 881
f 869 868 870
f 871 870 868
f 873 872 874
f 875 874 872
f 875 887 874
f 886 874 887
f 886 887 898
f 899 898 887
f 877 876 878
f 879 878 876
f 883 882 884
f 885 884 882
f 889 888 890
f 891 890 888
f 895 894 896
f 897 896 894
f 901 900 902
f 903 902 900
f 905 904 906
f 907 906 904
f 909 908 910
f 911 910 908
f 913 912 914
f 915 914 912
f 915 929 914
f 928 914 929
f 928 929 940
f 941 940 929
f 917 916 918
f 919 918 916
f 921 920 922
f 923 922 920
f 923 935 922
f 934 922 935
f 934 935 946
f 947 946 935
f 925 924 926
f 927 926 924
f 931 930 932
f 933 932 930
f 937 936 938
f 939 938 936
f 943 942 944
f 945 944 942
f 949 948 950
f 951 950 948
f 953 952 954
f 955 954 952
f 957 956 958
f 959 958 956
f 961 960 962
f 963 962 960
f 963 977 962
f 976 962 977
f 976 977 988
f 989 988 977
f 965 964 966
f 967 966 964
f 969 968 970
f 971 970 968
f 971 983 970
f 982 970 983
f 982 983 994
f 995 994 983
f 973 972 974
f 975 974 972
f 979 978 980
f 981 980 978
f 985 984 986
f 987 986 984
f 991 990 992
f 993 992 990
f 997 996 998
f 999 998 996
f 1001 1000 1002
f 1003 1002 1000
f 1005 1004 1006
f 1007 1006 1004
f 1009 1008 1010
f 1011 1010 1008
f 1011 1025 1010
f 1024 1010 1025
f 1024 1025 1036
f 1037 1036 1025
f 1013 1012 1014
f 1015 1014 1012
f 1017 1016 1018
f 1019 1018 1016
f 1019 1031 1018
f 1030 1018 1031
f 1030 1031 1042
f 1043 1042 1031
f 1021 1020 1022
f 1023 1022 1020
f 1027 1026 1028
f 1029 1028 1026
f 1033 1032 1034
f 1035 1034 1032
f 1039 1038 1040
f 1041 1040 1038
f 429 428 430
f 431 430 428
f 433 432 434
f 435 434 432
f 437 436 438
f 439 438 436
f 441 440 442
f 443 442 440
f 445 444 446
f 447 446 444
f 449 448 450
f 451 450 448
f 453 452 454
f 455 454 452
f 457 456 458
f 459 458 456
f 339 338 336
f 337 336 338
f 336 337 344
f 345 344 337
f 344 345 348
f 349 348 345
f 348 349 352
f 353 352 349
f 355 354 351
f 350 351 354
f 351 350 347
f 346 347 350
f 347 346 341
f 340 341 346
f 341 340 342
f 343 342 340
