v 1471.2315673828125 -4028.64111328125 -4.999594211578369
v 1469.6080322265625 -3870.41357421875 -4.999607563018799
v 1019.7179565429688 -3883.25537109375 -4.999627113342285
v 1021.2438354492188 -4031.49755859375 -4.999613285064697
v 1455.2647705078125 -3564.17578125 -4.999636173248291
v 1006.2780151367188 -3596.46337890625 -4.999652862548828
v 1427.1885986328125 -3274.8935546875 -4.999661922454834
v 980.3990478515625 -3329.76416015625 -4.9996771812438965
v 1386.1485595703125 -2998.9658203125 -4.999688148498535
v 942.7403564453125 -3076.59033203125 -4.999701023101807
v 1333.0235595703125 -2735.47705078125 -4.99971342086792
v 894.1807861328125 -2835.74560546875 -4.9997239112854
v 1268.5948486328125 -2483.49951171875 -4.999738693237305
v 835.4527587890625 -2606.0458984375 -4.999745845794678
v 1193.6436767578125 -2242.14208984375 -4.999763011932373
v 767.2154541015625 -2386.294921875 -4.9997687339782715
v 1108.8658447265625 -2010.4892578125 -4.999785900115967
v 690.0059814453125 -2175.32080078125 -4.999790668487549
v 1014.9326782226562 -1787.6865234375 -4.999810218811035
v 604.3003540039062 -1972.04931640625 -4.999812126159668
v 913.4800415039062 -1574.97900390625 -4.999832630157471
v 512.5278930664062 -1779.6298828125 -4.999833106994629
v 744.9131469726562 -1265.57958984375 -4.999867916107178
v 356.99810791015625 -1494.16845703125 -4.999864101409912
v 495.3769836425781 -872.916015625 -4.999913215637207
v 123.30668640136719 -1126.44384765625 -4.99990701675415
v 224.6494140625 -501.73681640625 -4.9999566078186035
v -132.49166870117188 -775.73583984375 -4.999948978424072
v -62.9970588684082 -145.07177734375 -5.000000953674316
v -408.7856140136719 -433.1333312988281 -4.999990463256836
v -361.654296875 202.04736328125 -5.000044345855713
v -700.6923828125 -93.86331176757812 -5.000032901763916
v -817.6235961914062 717.0863647460938 -5.0001091957092285
v -1157.650390625 422.28656005859375 -5.00009822845459
v -1258.63916015625 1236.49560546875 -5.000173568725586
v -1609.1640625 954.0614624023438 -5.000164985656738
v -1536.6666259765625 1600.3260498046875 -5.000217914581299
v -1903.36572265625 1339.0589599609375 -5.000210762023926
v -1788.2413330078125 1979.6351318359375 -5.000262260437012
v -2172.8359375 1745.3455810546875 -5.000257968902588
v -1956.4420166015625 2281.2587890625 -5.000295162200928
v -2356.625 2074.935546875 -5.000295162200928
v -2056.234375 2491.40283203125 -5.00031852722168
v -2466.89111328125 2307.12548828125 -5.0003204345703125
v -2103.87841796875 2604.0126953125 -5.000330448150635
v -2521.56640625 2436.34912109375 -5.0003342628479
v -2165.7314453125 2766.78125 -5.00034761428833
v -2591.93994140625 2621.55419921875 -5.000353813171387
v -2264.425537109375 3093.1240234375 -5.000380516052246
v -2701.522705078125 2983.919921875 -5.00039005279541
v -2333.614990234375 3441.6591796875 -5.00041389465332
v -2779.427978515625 3376.31494140625 -5.000427722930908
v -2367.989990234375 3802.09619140625 -5.000446796417236
v -2817.562744140625 3776.253662109375 -5.000463485717773
v -2371.554443359375 3982.7236328125 -5.000462055206299
v -2821.407958984375 3970.333251953125 -5.000481605529785
v 2821.219482421875 -4020.047119140625 -4.99953556060791
v 2819.290771484375 -3831.863525390625 -4.9995527267456055
v 2369.388427734375 -3844.7177734375 -4.999571323394775
v 2371.231689453125 -4022.916015625 -4.999555587768555
v 2802.200927734375 -3467.31298828125 -4.999585151672363
v 2353.226318359375 -3499.6005859375 -4.999601364135742
v 2767.557373046875 -3110.2939453125 -4.999617576599121
v 2320.767822265625 -3165.16455078125 -4.999632358551025
v 2716.373046875 -2766.1044921875 -4.999650478363037
v 2272.965087890625 -2843.72900390625 -4.999663352966309
v 2649.53955078125 -2434.6591796875 -4.999682426452637
v 2210.69677734375 -2534.927734375 -4.999691963195801
v 2568.033203125 -2115.884765625 -4.999713897705078
v 2134.89111328125 -2238.4189453125 -4.999721527099609
v 2472.95263671875 -1809.6956787109375 -4.999743938446045
v 2046.5123291015625 -1953.8485107421875 -4.999750137329102
v 2365.45751953125 -1515.9822998046875 -4.999774932861328
v 1946.5977783203125 -1680.8138427734375 -4.999779224395752
v 2246.80517578125 -1234.5614013671875 -4.999804973602295
v 1836.1851806640625 -1418.9364013671875 -4.999806880950928
v 2116.33642578125 -961.0140380859375 -4.9998345375061035
v 1715.38427734375 -1165.6649169921875 -4.999834060668945
v 1908.67041015625 -579.8373413085938 -4.999876976013184
v 1520.75537109375 -808.4140014648438 -4.999874114990234
v 1611.5634765625 -112.32024383544922 -4.999929904937744
v 1239.4931640625 -365.84808349609375 -4.999924182891846
v 1296.04833984375 320.23590087890625 -4.999981880187988
v 938.91943359375 46.24906539916992 -4.999973773956299
v 974.3685913085938 719.1372680664062 -5.000031471252441
v 628.580078125 431.0635070800781 -5.000020503997803
v 655.4721069335938 1089.76708984375 -5.000077724456787
v 316.4218444824219 793.8564453125 -5.000066757202148
v 202.43252563476562 1601.498046875 -5.000141620635986
v -137.59429931640625 1306.6982421875 -5.000131607055664
v -207.06455993652344 2083.7978515625 -5.000202178955078
v -557.5894165039062 1801.36376953125 -5.000192642211914
v -436.5933532714844 2384.1396484375 -5.000238418579102
v -803.2926025390625 2122.87255859375 -5.000231742858887
v -634.4815673828125 2682.51611328125 -5.000272750854492
v -1019.0762939453125 2448.2265625 -5.000268936157227
v -755.8927001953125 2900.21630859375 -5.0002970695495605
v -1156.0758056640625 2693.89306640625 -5.0002970695495605
v -824.2642822265625 3044.22265625 -5.0003132820129395
v -1234.9210205078125 2859.9453125 -5.000314235687256
v -850.8267822265625 3106.97900390625 -5.000319957733154
v -1268.5025634765625 2939.3154296875 -5.0003228187561035
v -887.1182861328125 3202.474609375 -5.00032901763916
v -1313.3145751953125 3057.24755859375 -5.000335216522217
v -953.1094970703125 3420.72412109375 -5.0003509521484375
v -1390.2188720703125 3311.52001953125 -5.000360488891602
v -996.1759643554688 3637.6796875 -5.000371932983398
v -1441.9888916015625 3572.33544921875 -5.000385761260986
v -1019.2594604492188 3879.63525390625 -5.000393867492676
v -1468.8321533203125 3853.78076171875 -5.000412464141846
v -1022.0304565429688 4019.857421875 -5.0004072189331055
v -1471.8717041015625 4007.4794921875 -5.000425815582275
v 969.7301635742188 -3884.68359375 -4.999629020690918
v 971.2438354492188 -4031.81494140625 -4.9996161460876465
v 956.4000854492188 -3600.05224609375 -4.9996538162231445
v 930.7530517578125 -3335.85546875 -4.999678611755371
v 893.4727783203125 -3085.20849609375 -4.999701976776123
v 845.4259033203125 -2846.890625 -4.999725341796875
v 787.3326416015625 -2619.65673828125 -4.9997477531433105
v 719.8277587890625 -2402.310546875 -4.999769687652588
v 643.4605712890625 -2193.6435546875 -4.999791145324707
v 558.6826782226562 -1992.544921875 -4.999812602996826
v 467.9722595214844 -1802.37158203125 -4.999833106994629
v 313.89508056640625 -1519.55908203125 -4.999863624572754
v 81.97368621826172 -1154.61767578125 -4.999905586242676
v -172.17672729492188 -806.18017578125 -4.999948024749756
v -447.2011413574219 -465.1401672363281 -4.999989986419678
v -738.36328125 -126.74905395507812 -5.000032424926758
v -1195.43115234375 389.53509521484375 -5.000097274780273
v -1648.1044921875 922.6771850585938 -5.000163555145264
v -1944.11279296875 1310.0184326171875 -5.000209808349609
v -2215.560546875 1719.3079833984375 -5.000257968902588
v -2401.09521484375 2052.0107421875 -5.000295162200928
v -2512.52099609375 2286.654296875 -5.000319957733154
v -2567.9775390625 2417.72119140625 -5.000333786010742
v -2639.30322265625 2605.41650390625 -5.000354290008545
v -2750.094482421875 2971.7861328125 -5.000391006469727
v -2828.951904296875 3369.063720703125 -5.000428676605225
v -2867.526123046875 3773.385009765625 -5.000466346740723
v -2871.383544921875 3968.966064453125 -5.00048303604126
v 2871.219482421875 -4019.729736328125 -4.9995341300964355
v 2869.278564453125 -3830.435302734375 -4.999550819396973
v 2852.091064453125 -3463.723876953125 -4.999583721160889
v 2817.191162109375 -3104.190185546875 -4.999616622924805
v 2765.640625 -2757.486328125 -4.999648094177246
v 2698.29443359375 -2423.51416015625 -4.99968147277832
v 2616.16552734375 -2102.26171875 -4.9997124671936035
v 2520.328125 -1793.6800537109375 -4.999743938446045
v 2412.0029296875 -1497.6717529296875 -4.99977445602417
v 2292.43505859375 -1214.0780029296875 -4.999804496765137
v 2160.8798828125 -938.2723388671875 -4.9998345375061035
v 1951.7734375 -554.4345092773438 -4.999876976013184
v 1652.896484375 -84.14641571044922 -4.9999308586120605
v 1335.7333984375 350.68023681640625 -4.999983310699463
v 1012.7841186523438 751.1441040039062 -5.000032424926758
v 693.1430053710938 1122.65283203125 -5.000078201293945
v 240.20108032226562 1634.26171875 -5.000143527984619
v -168.12411499023438 2115.169921875 -5.000202655792236
v -395.8462829589844 2413.16796875 -5.000238418579102
v -591.7569580078125 2708.54150390625 -5.00027322769165
v -711.4224853515625 2923.14111328125 -5.0002970695495605
v -778.6466064453125 3064.69384765625 -5.000312328338623
v -804.4156494140625 3125.60693359375 -5.000319480895996
v -839.7550048828125 3218.6123046875 -5.00032901763916
v -904.5499267578125 3432.85791015625 -5.000350475311279
v -946.6520385742188 3644.94287109375 -5.000370979309082
v -969.3082885742188 3882.50390625 -5.000392913818359
v -972.0426635742188 4021.23681640625 -5.0004048347473145
v 1921.2315673828125 -4025.7724609375 -4.999575138092041
v 1919.4981689453125 -3857.5595703125 -4.999589920043945
v 1904.2393798828125 -3531.88818359375 -4.999618053436279
v 1873.9781494140625 -3220.02294921875 -4.99964714050293
v 1829.5567626953125 -2921.34130859375 -4.9996747970581055
v 1771.8541259765625 -2635.1962890625 -4.999703407287598
v 1701.7491455078125 -2360.96533203125 -4.999730110168457
v 1620.0841064453125 -2097.9892578125 -4.999755859375
v 1527.7257080078125 -1845.6575927734375 -4.999783039093018
v 1425.5528564453125 -1603.3114013671875 -4.999807834625244
v 1314.43212890625 -1370.328125 -4.999834060668945
v 1132.828125 -1037.0029296875 -4.999870777130127
v 867.43505859375 -619.3881225585938 -4.999917984008789
v 581.7783203125 -227.7499542236328 -4.999965667724609
v 282.79150390625 143.00196838378906 -5.000010967254639
v -22.61623191833496 497.94580078125 -5.000055313110352
v -477.6089172363281 1011.8984375 -5.000120639801025
v -908.1143188476562 1518.9296875 -5.000182628631592
v -1169.9796142578125 1861.59326171875 -5.0002241134643555
v -1403.6588134765625 2213.9248046875 -5.000266075134277
v -1556.2589111328125 2487.56982421875 -5.000296592712402
v -1645.5777587890625 2675.68017578125 -5.000317096710205
v -1686.1905517578125 2771.6640625 -5.000327110290527
v -1739.5230712890625 2912.0205078125 -5.000340938568115
v -1827.3160400390625 3202.31591796875 -5.000370979309082
v -1887.8018798828125 3507.00341796875 -5.000400066375732
v -1918.4171142578125 3827.9384765625 -5.000429630279541
v -1921.7130126953125 3995.1015625 -5.000443458557129
v 951.2487182617188 -4031.94921875 5.000383377075195
v 949.7350463867188 -3885.25732421875 5.000370502471924
v 492.70379638671875 -3898.30126953125 5.000351905822754
v 494.1011962890625 -4034.855712890625 5.000363826751709
v 936.4415893554688 -3601.48046875 5.000345230102539
v 480.3287048339844 -3634.288330078125 5.000328063964844
v 910.8922119140625 -3338.296875 5.000321388244629
v 457.0115661621094 -3394.03076171875 5.000306129455566
v 873.7706298828125 -3088.6630859375 5.000297546386719
v 423.3312072753906 -3167.5087890625 5.0002851486206055
v 825.9190673828125 -2851.34619140625 5.000275135040283
v 380.1182861328125 -2953.2109375 5.0002641677856445
v 768.0821533203125 -2625.11328125 5.0002522468566895
v 328.05938720703125 -2749.590087890625 5.000244140625
v 700.8824462890625 -2408.70703125 5.00023078918457
v 267.67236328125 -2555.14501953125 5.000224590301514
v 624.8448486328125 -2200.9677734375 5.000209331512451
v 199.3309783935547 -2368.413330078125 5.000205039978027
v 540.4331665039062 -2000.73583984375 5.00018835067749
v 123.27823638916016 -2188.0380859375 5.000185966491699
v 450.1499938964844 -1811.4658203125 5.000167369842529
v 42.83041000366211 -2019.368896484375 5.0001678466796875
v 296.65875244140625 -1529.71533203125 5.000135898590088
v -97.41908264160156 -1761.927978515625 5.000139236450195
v 65.43315887451172 -1165.884765625 5.000094413757324
v -312.5314025878906 -1423.44140625 5.000100135803223
v -188.04586791992188 -818.36279296875 5.0000529289245605
v -550.8504028320312 -1096.706298828125 5.000061511993408
v -462.5697937011719 -477.9453430175781 5.000011444091797
v -813.8532104492188 -770.5769653320312 5.000020980834961
v -753.4267578125 -139.89602661132812 4.999969005584717
v -1097.85107421875 -440.50299072265625 4.9999799728393555
v -1210.54345703125 376.42474365234375 4.999903678894043
v -1555.9559326171875 76.94573211669922 4.999914646148682
v -1663.6806640625 910.1283569335938 4.9998369216918945
v -2019.777099609375 623.2167358398438 4.999846935272217
v -1960.4091796875 1298.4095458984375 4.999790191650391
v -2332.92138671875 1032.9940185546875 4.9997968673706055
v -2232.650390625 1708.8953857421875 4.99974250793457
v -2623.34521484375 1470.8817138671875 4.999746322631836
v -2418.880859375 2042.8431396484375 4.999704837799072
v -2825.42138671875 1833.242431640625 4.999705791473389
v -2530.7705078125 2278.46337890625 4.9996795654296875
v -2947.94873046875 2091.265380859375 4.999678134918213
v -2586.5322265625 2410.27490234375 4.9996657371521
v -3010.8486328125 2239.957275390625 4.999661922454834
v -2658.236328125 2598.958984375 4.999646186828613
v -3091.2138671875 2451.427978515625 4.999640464782715
v -2769.515869140625 2966.927734375 4.999608993530273
v -3213.56103515625 2855.994873046875 4.999598979949951
v -2848.776123046875 3366.158447265625 4.999570846557617
v -3301.656982421875 3299.775390625 4.999556541442871
v -2887.496826171875 3772.225341796875 4.999533176422119
v -3344.214111328125 3745.974365234375 4.999515533447266
v -2891.378662109375 3968.416748046875 4.999516010284424
v -3348.36328125 3955.837646484375 4.999497413635254
v 3348.350341796875 -4016.701171875 5.000486850738525
v 3346.304931640625 -3816.817138671875 5.00046968460083
v 2889.273681640625 -3829.861572265625 5.000450611114502
v 2891.214599609375 -4019.607666015625 5.000467300415039
v 3328.15087890625 -3429.48779296875 5.000434875488281
v 2872.049560546875 -3462.295654296875 5.000417709350586
v 3290.9326171875 -3046.015380859375 5.000399589538574
v 2837.052001953125 -3101.760986328125 5.00038480758667
v 3235.7822265625 -2675.174072265625 5.000364780426025
v 2785.3427734375 -2754.031494140625 5.000351905822754
v 3163.60205078125 -2317.193603515625 5.000330448150635
v 2717.80126953125 -2419.05859375 5.000319957733154
v 3075.438720703125 -1972.32861328125 5.000296592712402
v 2635.416015625 -2096.8173828125 5.000288009643555
v 2972.484130859375 -1640.8333740234375 5.00026273727417
v 2539.28564453125 -1787.2713623046875 5.0002570152282715
v 2856.120849609375 -1322.8902587890625 5.000230312347412
v 2430.61865234375 -1490.3475341796875 5.000226020812988
v 2727.827880859375 -1018.5847778320312 5.000197887420654
v 2310.6845703125 -1205.8870849609375 5.0001959800720215
v 2586.021728515625 -721.2750244140625 5.0001654624938965
v 2178.7021484375 -929.1781005859375 5.000165939331055
v 2363.087646484375 -312.0655822753906 5.000120162963867
v 1969.009765625 -544.2782592773438 5.000123023986816
v 2047.401611328125 184.67733764648438 5.000062942504883
v 1669.43701171875 -72.87931823730469 5.000068664550781
v 1714.4071044921875 641.2066040039062 5.0000081062316895
v 1351.6025390625 362.86285400390625 5.000016689300537
v 1379.436279296875 1056.5810546875 4.999957084655762
v 1028.15283203125 763.9492797851562 4.999967575073242
v 1052.6307373046875 1436.40673828125 4.9999098777771
v 708.2064819335938 1135.7998046875 4.9999213218688965
v 600.737548828125 1946.8387451171875 4.999845504760742
v 255.31338500976562 1647.35986328125 4.999856472015381
v 203.53697204589844 2414.642578125 4.999787330627441
v -152.54794311523438 2127.73095703125 4.9997968673706055
v -7.037830352783203 2690.20458984375 4.999753952026367
v -379.5498962402344 2424.7890625 4.999760627746582
v -183.97235107421875 2956.96875 4.999722957611084
v -574.6671142578125 2718.96630859375 4.99972677230835
v -287.0962219238281 3141.8974609375 4.999702453613281
v -693.6368408203125 2932.30859375 4.999702453613281
v -343.21832275390625 3260.08251953125 4.99968957901001
v -760.3848876953125 3072.884765625 4.999687671661377
v -361.5323791503906 3303.37060546875 4.999684810638428
v -785.8487548828125 3133.05322265625 4.99968147277832
v -387.8437805175781 3372.6005859375 4.999677658081055
v -820.8096923828125 3225.06982421875 4.999671936035156
v -441.0826721191406 3548.63671875 4.999660015106201
v -885.1163330078125 3437.7041015625 4.999650478363037
v -473.9469299316406 3714.2197265625 4.9996442794799805
v -926.8278198242188 3647.84814453125 4.999629974365234
v -492.6080017089844 3909.902099609375 4.999626159667969
v -949.3253784179688 3883.6513671875 4.999608516693115
v -495.07501220703125 4034.364990234375 4.99961519241333
v -952.0597534179688 4021.7861328125 4.99959659576416
v 971.2438354492188 -4031.81494140625 5.000384330749512
v 969.7301635742188 -3884.68359375 5.00037145614624
v 956.4000854492188 -3600.05224609375 5.0003461837768555
v 930.7530517578125 -3335.85546875 5.000321865081787
v 893.4727783203125 -3085.20849609375 5.000298500061035
v 845.4259033203125 -2846.890625 5.000275135040283
v 787.3326416015625 -2619.65673828125 5.000252723693848
v 719.8277587890625 -2402.310546875 5.00023078918457
v 643.4605712890625 -2193.6435546875 5.000209331512451
v 558.6826782226562 -1992.544921875 5.000187873840332
v 467.9722595214844 -1802.37158203125 5.000167369842529
v 313.89508056640625 -1519.55908203125 5.000136375427246
v 81.97368621826172 -1154.61767578125 5.000094413757324
v -172.17672729492188 -806.18017578125 5.000052452087402
v -447.2011413574219 -465.1401672363281 5.0000104904174805
v -738.36328125 -126.74905395507812 4.9999680519104
v -1195.43115234375 389.53509521484375 4.999903202056885
v -1648.1044921875 922.6771850585938 4.9998369216918945
v -1944.11279296875 1310.0184326171875 4.999790191650391
v -2215.560546875 1719.3079833984375 4.99974250793457
v -2401.09521484375 2052.0107421875 4.9997053146362305
v -2512.52099609375 2286.654296875 4.999680042266846
v -2567.9775390625 2417.72119140625 4.999666213989258
v -2639.30322265625 2605.41650390625 4.999646186828613
v -2750.094482421875 2971.7861328125 4.999609470367432
v -2828.951904296875 3369.063720703125 4.999571323394775
v -2867.526123046875 3773.385009765625 4.9995341300964355
v -2871.383544921875 3968.966064453125 4.99951696395874
v 2871.219482421875 -4019.729736328125 5.000466346740723
v 2869.278564453125 -3830.435302734375 5.0004496574401855
v 2852.091064453125 -3463.723876953125 5.0004167556762695
v 2817.191162109375 -3104.190185546875 5.0003838539123535
v 2765.640625 -2757.486328125 5.000351905822754
v 2698.29443359375 -2423.51416015625 5.000319004058838
v 2616.16552734375 -2102.26171875 5.0002875328063965
v 2520.328125 -1793.6800537109375 5.000256538391113
v 2412.0029296875 -1497.6717529296875 5.000226020812988
v 2292.43505859375 -1214.0780029296875 5.0001959800720215
v 2160.8798828125 -938.2723388671875 5.000165939331055
v 1951.7734375 -554.4345092773438 5.000123500823975
v 1652.896484375 -84.14640808105469 5.0000691413879395
v 1335.7333984375 350.68023681640625 5.000017166137695
v 1012.7841186523438 751.1441040039062 4.9999680519104
v 693.1430053710938 1122.65283203125 4.999921798706055
v 240.20108032226562 1634.26171875 4.999856948852539
v -168.12411499023438 2115.169921875 4.999797344207764
v -395.8462829589844 2413.16796875 4.999761581420898
v -591.7569580078125 2708.54150390625 4.99972677230835
v -711.4224853515625 2923.14111328125 4.9997029304504395
v -778.6466064453125 3064.69384765625 4.999687671661377
v -804.4156494140625 3125.60693359375 4.999680995941162
v -839.7550048828125 3218.6123046875 4.999671459197998
v -904.5499267578125 3432.85791015625 4.999650001525879
v -946.6520385742188 3644.94287109375 4.999629497528076
v -969.3082885742188 3882.50390625 4.999607563018799
v -972.0426635742188 4021.23681640625 4.999595642089844
v 469.85223388671875 -3898.95361328125 5.0003509521484375
v 471.24383544921875 -4035.0009765625 5.000362873077393
v 457.5231018066406 -3635.9287109375 5.0003275871276855
v 434.3175354003906 -3396.8173828125 5.000305652618408
v 400.8092346191406 -3171.451171875 5.000284194946289
v 357.8282470703125 -2958.30419921875 5.000263690948486
v 306.0582275390625 -2755.81396484375 5.000243663787842
v 246.01181030273438 -2562.466796875 5.000224590301514
v 178.05528259277344 -2376.78564453125 5.000205039978027
v 102.4205093383789 -2197.4033203125 5.000185966491699
v 22.464445114135742 -2029.76416015625 5.0001678466796875
v -117.12297058105469 -1773.53857421875 5.000139236450195
v -331.42962646484375 -1436.3193359375 5.000100612640381
v -568.9906616210938 -1110.62353515625 5.000061988830566
v -831.4174194335938 -785.2085571289062 5.000021934509277
v -1115.072265625 -455.53326416015625 4.999980926513672
v -1573.2265625 61.97160720825195 4.999915599822998
v -2037.58203125 608.8710327148438 4.999846935272217
v -2351.546875 1019.7230224609375 4.999797344207764
v -2642.8798828125 1458.9808349609375 4.999746799468994
v -2845.74853515625 1822.7625732421875 4.999705791473389
v -2968.8076171875 2081.905517578125 4.999677658081055
v -3032.064453125 2231.441650390625 4.999661922454834
v -3112.86279296875 2444.051513671875 4.999639987945557
v -3235.763427734375 2850.447998046875 4.999598503112793
v -3324.301025390625 3296.456298828125 4.999556064605713
v -3367.050048828125 3744.661865234375 4.999514579772949
v -3371.212646484375 3955.208740234375 4.9994964599609375
v 3371.207275390625 -4016.555908203125 5.000487804412842
v 3369.156494140625 -3816.165283203125 5.0004706382751465
v 3350.955810546875 -3427.847412109375 5.0004353523254395
v 3313.626708984375 -3043.228271484375 5.000400543212891
v 3258.30419921875 -2671.231201171875 5.000365734100342
v 3185.89208984375 -2312.100341796875 5.000330924987793
v 3097.43994140625 -1966.1043701171875 5.000296592712402
v 2994.14404296875 -1633.5115966796875 5.00026273727417
v 2877.39599609375 -1314.5174560546875 5.000230312347412
v 2748.68505859375 -1009.2196044921875 5.000197887420654
v 2606.3876953125 -710.8797607421875 5.0001654624938965
v 2382.79150390625 -300.4549865722656 5.000119686126709
v 2066.2998046875 197.55526733398438 5.000062465667725
v 1732.54736328125 655.1235961914062 5.0000081062316895
v 1397.00048828125 1071.2125244140625 4.999957084655762
v 1069.8519287109375 1451.43701171875 4.999909400939941
v 618.0087280273438 1961.81298828125 4.999845027923584
v 221.3411865234375 2428.98828125 4.999786853790283
v 11.587772369384766 2703.4755859375 4.999753475189209
v -164.43763732910156 2968.86865234375 4.999722957611084
v -266.7691955566406 3152.376953125 4.999702453613281
v -322.3600158691406 3269.4423828125 4.99968957901001
v -340.3165588378906 3311.88623046875 4.999685287475586
v -366.1954650878906 3379.97705078125 4.999677658081055
v -418.8810119628906 3554.18359375 4.999660491943359
v -451.3028869628906 3717.5380859375 4.999644756317139
v -469.77215576171875 3911.21484375 4.999627113342285
v -472.22576904296875 4034.994140625 4.9996161460876465
f 52 54 51
f 53 51 54
f 54 56 53
f 55 53 56
f 42 44 41
f 43 41 44
f 44 46 43
f 45 43 46
f 45 46 47
f 48 47 46
f 47 48 49
f 50 49 48
f 49 50 51
f 52 51 50
f 31 32 33
f 34 33 32
f 33 34 35
f 36 35 34
f 35 36 37
f 38 37 36
f 37 38 39
f 40 39 38
f 40 42 39
f 41 39 42
f 61 58 62
f 59 62 58
f 58 57 59
f 60 59 57
f 72 71 70
f 69 70 71
f 70 69 68
f 67 68 69
f 68 67 66
f 65 66 67
f 65 63 66
f 64 66 63
f 63 61 64
f 62 64 61
f 82 81 80
f 79 80 81
f 79 77 80
f 78 80 77
f 77 75 78
f 76 78 75
f 76 75 74
f 73 74 75
f 74 73 72
f 71 72 73
f 92 91 90
f 89 90 91
f 90 89 88
f 87 88 89
f 88 87 86
f 85 86 87
f 86 85 84
f 83 84 85
f 84 83 82
f 81 82 83
f 11 12 13
f 14 13 12
f 13 14 15
f 16 15 14
f 15 16 17
f 18 17 16
f 17 18 19
f 20 19 18
f 20 22 19
f 21 19 22
f 22 24 21
f 23 21 24
f 23 24 25
f 26 25 24
f 25 26 27
f 28 27 26
f 27 28 29
f 30 29 28
f 29 30 31
f 32 31 30
f 4 3 1
f 2 1 3
f 3 6 2
f 5 2 6
f 6 8 5
f 7 5 8
f 8 10 7
f 9 7 10
f 10 12 9
f 11 9 12
f 101 99 102
f 100 102 99
f 99 97 100
f 98 100 97
f 97 95 98
f 96 98 95
f 96 95 94
f 93 94 95
f 94 93 92
f 91 92 93
f 111 109 112
f 110 112 109
f 109 107 110
f 108 110 107
f 108 107 106
f 105 106 107
f 106 105 104
f 103 104 105
f 104 103 102
f 101 102 103
f 164 166 163
f 165 163 166
f 166 168 165
f 167 165 168
f 154 156 153
f 155 153 156
f 156 158 155
f 157 155 158
f 157 158 159
f 160 159 158
f 159 160 161
f 162 161 160
f 161 162 163
f 164 163 162
f 143 144 145
f 146 145 144
f 145 146 147
f 148 147 146
f 147 148 149
f 150 149 148
f 149 150 151
f 152 151 150
f 152 154 151
f 153 151 154
f 173 170 174
f 171 174 170
f 170 169 171
f 172 171 169
f 184 183 182
f 181 182 183
f 182 181 180
f 179 180 181
f 180 179 178
f 177 178 179
f 177 175 178
f 176 178 175
f 175 173 176
f 174 176 173
f 194 193 192
f 191 192 193
f 191 189 192
f 190 192 189
f 189 187 190
f 188 190 187
f 188 187 186
f 185 186 187
f 186 185 184
f 183 184 185
f 204 203 202
f 201 202 203
f 202 201 200
f 199 200 201
f 200 199 198
f 197 198 199
f 198 197 196
f 195 196 197
f 196 195 194
f 193 194 195
f 123 124 125
f 126 125 124
f 125 126 127
f 128 127 126
f 127 128 129
f 130 129 128
f 129 130 131
f 132 131 130
f 132 134 131
f 133 131 134
f 134 136 133
f 135 133 136
f 135 136 137
f 138 137 136
f 137 138 139
f 140 139 138
f 139 140 141
f 142 141 140
f 141 142 143
f 144 143 142
f 116 115 113
f 114 113 115
f 115 118 114
f 117 114 118
f 118 120 117
f 119 117 120
f 119 120 121
f 122 121 120
f 122 124 121
f 123 121 124
f 213 211 214
f 212 214 211
f 211 209 212
f 210 212 209
f 209 207 210
f 208 210 207
f 208 207 206
f 205 206 207
f 206 205 204
f 203 204 205
f 223 221 224
f 222 224 221
f 221 219 222
f 220 222 219
f 220 219 218
f 217 218 219
f 218 217 216
f 215 216 217
f 216 215 214
f 213 214 215
f 276 278 275
f 277 275 278
f 278 280 277
f 279 277 280
f 266 268 265
f 267 265 268
f 268 270 267
f 269 267 270
f 269 270 271
f 272 271 270
f 271 272 273
f 274 273 272
f 273 274 275
f 276 275 274
f 255 256 257
f 258 257 256
f 257 258 259
f 260 259 258
f 259 260 261
f 262 261 260
f 261 262 263
f 264 263 262
f 264 266 263
f 265 263 266
f 285 282 286
f 283 286 282
f 282 281 283
f 284 283 281
f 296 295 294
f 293 294 295
f 294 293 292
f 291 292 293
f 292 291 290
f 289 290 291
f 289 287 290
f 288 290 287
f 287 285 288
f 286 288 285
f 306 305 304
f 303 304 305
f 303 301 304
f 302 304 301
f 301 299 302
f 300 302 299
f 300 299 298
f 297 298 299
f 298 297 296
f 295 296 297
f 316 315 314
f 313 314 315
f 314 313 312
f 311 312 313
f 312 311 310
f 309 310 311
f 310 309 308
f 307 308 309
f 308 307 306
f 305 306 307
f 235 236 237
f 238 237 236
f 237 238 239
f 240 239 238
f 239 240 241
f 242 241 240
f 241 242 243
f 244 243 242
f 244 246 243
f 245 243 246
f 246 248 245
f 247 245 248
f 247 248 249
f 250 249 248
f 249 250 251
f 252 251 250
f 251 252 253
f 254 253 252
f 253 254 255
f 256 255 254
f 228 227 225
f 226 225 227
f 227 230 226
f 229 226 230
f 230 232 229
f 231 229 232
f 232 234 231
f 233 231 234
f 234 236 233
f 235 233 236
f 325 323 326
f 324 326 323
f 323 321 324
f 322 324 321
f 321 319 322
f 320 322 319
f 320 319 318
f 317 318 319
f 318 317 316
f 315 316 317
f 335 333 336
f 334 336 333
f 333 331 334
f 332 334 331
f 332 331 330
f 329 330 331
f 330 329 328
f 327 328 329
f 328 327 326
f 325 326 327
f 388 390 387
f 389 387 390
f 390 392 389
f 391 389 392
f 378 380 377
f 379 377 380
f 380 382 379
f 381 379 382
f 382 384 381
f 383 381 384
f 384 386 383
f 385 383 386
f 386 388 385
f 387 385 388
f 368 370 367
f 369 367 370
f 370 372 369
f 371 369 372
f 372 374 371
f 373 371 374
f 374 376 373
f 375 373 376
f 376 378 375
f 377 375 378
f 358 360 357
f 359 357 360
f 360 362 359
f 361 359 362
f 362 364 361
f 363 361 364
f 364 366 363
f 365 363 366
f 366 368 365
f 367 365 368
f 348 350 347
f 349 347 350
f 350 352 349
f 351 349 352
f 352 354 351
f 353 351 354
f 354 356 353
f 355 353 356
f 356 358 355
f 357 355 358
f 340 339 337
f 338 337 339
f 339 342 338
f 341 338 342
f 342 344 341
f 343 341 344
f 344 346 343
f 345 343 346
f 346 348 345
f 347 345 348
f 408 407 406
f 405 406 407
f 405 403 406
f 404 406 403
f 403 401 404
f 402 404 401
f 401 399 402
f 400 402 399
f 399 397 400
f 398 400 397
f 397 394 398
f 395 398 394
f 394 393 395
f 396 395 393
f 417 415 418
f 416 418 415
f 415 413 416
f 414 416 413
f 413 411 414
f 412 414 411
f 411 409 412
f 410 412 409
f 409 407 410
f 408 410 407
f 427 425 428
f 426 428 425
f 425 423 426
f 424 426 423
f 423 421 424
f 422 424 421
f 421 419 422
f 420 422 419
f 420 419 418
f 417 418 419
f 438 437 436
f 435 436 437
f 435 433 436
f 434 436 433
f 433 431 434
f 432 434 431
f 432 431 430
f 429 430 431
f 429 427 430
f 428 430 427
f 447 445 448
f 446 448 445
f 445 443 446
f 444 446 443
f 444 443 442
f 441 442 443
f 441 439 442
f 440 442 439
f 439 437 440
f 438 440 437
f 584 586 583
f 585 583 586
f 586 588 585
f 587 585 588
f 574 576 573
f 575 573 576
f 576 578 575
f 577 575 578
f 578 580 577
f 579 577 580
f 580 582 579
f 581 579 582
f 582 584 581
f 583 581 584
f 564 566 563
f 565 563 566
f 566 568 565
f 567 565 568
f 568 570 567
f 569 567 570
f 570 572 569
f 571 569 572
f 572 574 571
f 573 571 574
f 554 556 553
f 555 553 556
f 556 558 555
f 557 555 558
f 558 560 557
f 559 557 560
f 560 562 559
f 561 559 562
f 562 564 561
f 563 561 564
f 544 546 543
f 545 543 546
f 546 548 545
f 547 545 548
f 548 550 547
f 549 547 550
f 550 552 549
f 551 549 552
f 552 554 551
f 553 551 554
f 536 535 533
f 534 533 535
f 535 538 534
f 537 534 538
f 538 540 537
f 539 537 540
f 540 542 539
f 541 539 542
f 542 544 541
f 543 541 544
f 503 502 504
f 501 504 502
f 499 501 502
f 499 500 501
f 499 498 500
f 497 498 499
f 497 496 498
f 495 496 497
f 496 495 494
f 529 528 497
f 497 499 529
f 530 529 499
f 499 502 530
f 531 530 502
f 502 503 531
f 532 531 503
f 487 488 489
f 487 489 490
f 489 492 490
f 491 490 492
f 492 494 491
f 493 491 494
f 493 494 495
f 493 495 527
f 528 527 495
f 495 497 528
f 527 526 493
f 491 493 526
f 526 525 491
f 490 491 525
f 525 524 490
f 487 490 524
f 524 523 487
f 485 487 523
f 523 522 485
f 483 485 522
f 477 478 479
f 480 479 478
f 479 480 481
f 482 481 480
f 481 482 483
f 483 482 484
f 483 484 485
f 485 484 486
f 485 486 487
f 487 486 488
f 522 521 483
f 481 483 521
f 521 520 481
f 479 481 520
f 520 519 479
f 477 479 519
f 519 518 477
f 475 477 518
f 518 517 475
f 473 475 517
f 517 516 473
f 471 473 516
f 516 515 471
f 467 469 514
f 515 514 469
f 469 471 515
f 471 469 472
f 471 472 473
f 474 473 472
f 473 474 475
f 476 475 474
f 475 476 477
f 478 477 476
f 470 472 469
f 469 467 470
f 468 470 467
f 468 467 466
f 465 466 467
f 466 465 464
f 463 464 465
f 464 463 462
f 461 462 463
f 461 459 462
f 457 459 509
f 510 509 459
f 459 461 510
f 511 510 461
f 461 463 511
f 512 511 463
f 463 465 512
f 513 512 465
f 465 467 513
f 514 513 467
f 460 462 459
f 459 457 460
f 458 460 457
f 457 455 458
f 456 458 455
f 455 453 456
f 454 456 453
f 453 450 454
f 451 454 450
f 452 451 449
f 450 449 451
f 449 450 505
f 506 505 450
f 450 453 506
f 507 506 453
f 453 455 507
f 508 507 455
f 455 457 508
f 509 508 457
f 646 645 647
f 648 647 645
f 645 649 648
f 650 648 649
f 649 651 650
f 652 650 651
f 651 653 652
f 654 652 653
f 654 653 655
f 656 655 653
f 656 657 655
f 658 655 657
f 657 659 658
f 660 658 659
f 659 661 660
f 662 660 661
f 661 663 662
f 664 662 663
f 663 665 664
f 666 664 665
f 665 667 666
f 668 666 667
f 667 669 668
f 670 668 669
f 670 669 671
f 672 671 669
f 672 673 671
f 674 671 673
f 673 675 674
f 676 674 675
f 675 677 676
f 678 676 677
f 678 677 679
f 680 679 677
f 680 681 679
f 682 679 681
f 681 683 682
f 684 682 683
f 684 683 685
f 686 685 683
f 686 687 685
f 688 685 687
f 688 687 689
f 690 689 687
f 690 691 689
f 692 689 691
f 691 693 692
f 694 692 693
f 693 695 694
f 696 694 695
f 695 697 696
f 698 696 697
f 697 699 698
f 700 698 699
f 705 702 706
f 703 706 702
f 702 701 703
f 704 703 701
f 715 713 716
f 714 716 713
f 713 711 714
f 712 714 711
f 711 709 712
f 710 712 709
f 709 707 710
f 708 710 707
f 707 705 708
f 706 708 705
f 725 723 726
f 724 726 723
f 723 721 724
f 722 724 721
f 721 719 722
f 720 722 719
f 719 717 720
f 718 720 717
f 717 715 718
f 716 718 715
f 735 733 736
f 734 736 733
f 733 731 734
f 732 734 731
f 731 729 732
f 730 732 729
f 729 727 730
f 728 730 727
f 727 725 728
f 726 728 725
f 745 743 746
f 744 746 743
f 743 741 744
f 742 744 741
f 741 739 742
f 740 742 739
f 739 737 740
f 738 740 737
f 737 735 738
f 736 738 735
f 755 753 756
f 754 756 753
f 753 751 754
f 752 754 751
f 751 749 752
f 750 752 749
f 749 747 750
f 748 750 747
f 747 745 748
f 746 748 745
f 593 590 594
f 591 594 590
f 590 589 591
f 592 591 589
f 604 603 602
f 601 602 603
f 602 601 600
f 599 600 601
f 599 597 600
f 598 600 597
f 597 595 598
f 596 598 595
f 596 595 594
f 593 594 595
f 633 631 634
f 632 634 631
f 631 629 632
f 630 632 629
f 629 627 630
f 628 630 627
f 628 627 626
f 625 626 627
f 626 625 624
f 623 624 625
f 624 623 622
f 621 622 623
f 622 621 620
f 619 620 621
f 620 619 618
f 617 618 619
f 617 616 618
f 615 616 617
f 615 614 616
f 613 614 615
f 613 611 614
f 612 611 613
f 609 611 612
f 609 610 611
f 609 607 610
f 608 610 607
f 608 607 606
f 605 606 607
f 606 605 604
f 603 604 605
f 643 641 644
f 642 644 641
f 641 639 642
f 640 642 639
f 640 639 638
f 637 638 639
f 638 637 636
f 635 636 637
f 636 635 634
f 633 634 635
