v 1698.8985595703125 -41.56303405761719 -12.056567192077637
v 1699.9505615234375 1.6496647596359253 -10.443870544433594
v 1.0073057413101196 42.78290557861328 -9.741637229919434
v 0.019115759059786797 -0.0028186594136059284 -10.6010160446167
v 1699.9481201171875 1.6521096229553223 0.15714232623577118
v 1699.9505615234375 1.6496647596359253 -10.443870544433594
v 1698.8985595703125 -41.56303405761719 -12.056567192077637
v 1698.969482421875 -41.576759338378906 -1.4555244445800781
v 0.01886769011616707 -0.00242761243134737 1.1922789781237952e-05
v 0.019115759059786797 -0.0028186594136059284 -10.6010160446167
v 1.0073057413101196 42.78290557861328 -9.741637229919434
v 1.009979009628296 42.78227996826172 0.8593827486038208
v 1.009979009628296 42.78227996826172 0.8593827486038208
v 1.0073057413101196 42.78290557861328 -9.741637229919434
v 1699.9505615234375 1.6496647596359253 -10.443870544433594
v 1699.9481201171875 1.6521096229553223 0.15714232623577118
v 1698.969482421875 -41.576759338378906 -1.4555244445800781
v 1698.8985595703125 -41.56303405761719 -12.056567192077637
v 0.019115759059786797 -0.0028186594136059284 -10.6010160446167
v 0.01886769011616707 -0.00242761243134737 1.1922789781237952e-05
v 1699.9481201171875 1.6521096229553223 0.15714232623577118
v 1649.927001953125 2.8630871772766113 0.17781804502010345
v 1650.008544921875 -40.384220123291016 -1.4135746955871582
v 1698.969482421875 -41.576759338378906 -1.4555244445800781
v 1250.3607177734375 12.536317825317383 0.34297510981559753
v 1248.7081298828125 -30.562786102294922 -1.0697705745697021
v 50.014644622802734 41.595916748046875 0.8391273617744446
v 48.37428283691406 -1.1858680248260498 -0.04141516983509064
v 849.2738037109375 -20.787071228027344 -0.7275655269622803
v 850.9302978515625 22.206275939941406 0.5080761313438416
v 1.009979009628296 42.78227996826172 0.8593827486038208
v 0.01886769011616707 -0.00242761243134737 1.1922789781237952e-05
f 2 1 3
f 4 3 1
f 6 5 7
f 8 7 5
f 10 9 11
f 12 11 9
f 14 13 15
f 16 15 13
f 18 17 19
f 20 19 17
f 33 32 28
f 27 28 32
f 28 27 29
f 30 29 27
f 24 23 21
f 22 21 23
f 22 23 25
f 26 25 23
f 31 25 26
f 29 31 26
