v 1430.98046875 282.52740478515625 77.7781753540039
v 1469.025390625 250.04647827148438 77.22882843017578
v 2608.71875 1494.8370361328125 116.12066650390625
v 2572.7138671875 1529.5548095703125 116.4051742553711
v 2479.9130859375 1621.4786376953125 17.161911010742188
v 2465.5078125 1635.3624267578125 17.27564811706543
v 2424.1044921875 1560.5684814453125 15.317008972167969
v 1317.3955078125 382.47174072265625 -30.544200897216797
v 1317.3447265625 382.24322509765625 -20.546916961669922
v 2465.5078125 1635.3624267578125 17.27564811706543
v 2465.58984375 1635.5294189453125 7.277355194091797
v 670.5722045898438 934.607421875 -21.2069034576416
v 1280.107421875 414.31011962890625 -30.005722045898438
v 2430.30078125 1669.55859375 7.55627965927124
v 1853.4481201171875 2225.6796875 12.113157272338867
v 366.18841552734375 1194.4384765625 -16.812786102294922
v 1565.3856201171875 2503.400390625 14.388925552368164
v 61.799739837646484 1454.2685546875 -12.418761253356934
v 1277.3182373046875 2781.119140625 16.664602279663086
v 23.701107025146484 1486.5263671875 -1.8720455169677734
v 23.751888275146484 1486.75390625 -11.869298934936523
v 1241.3114013671875 2815.841796875 16.949201583862305
v 1241.2293701171875 2815.6748046875 26.947463989257812
v 8.478449821472168 1499.5146484375 -1.652413010597229
v 23.701107025146484 1486.5263671875 -1.8720455169677734
v 1241.2293701171875 2815.6748046875 26.947463989257812
v 1226.8231201171875 2829.55859375 27.061199188232422
v -129.0039825439453 1614.1533203125 100.29763793945312
v -90.96199035644531 1581.673828125 99.74832153320312
v 1132.3768310546875 2918.1484375 127.7835693359375
v 1096.3748779296875 2952.86328125 128.0680694580078
v -128.2334747314453 1617.5791015625 -49.661434173583984
v -128.4903106689453 1616.4375 0.3249206840991974
v 1097.1981201171875 2954.53125 28.085256576538086
v 1097.6092529296875 2955.365234375 -21.906137466430664
v 670.7772827148438 935.5210571289062 -61.19597244262695
v -128.2334747314453 1617.5791015625 -49.661434173583984
v 1097.6092529296875 2955.365234375 -21.906137466430664
v 1853.7772216796875 2226.3466796875 -27.879945755004883
v 1469.7958984375 253.47222900390625 -72.73025512695312
v 2609.953125 1497.3380126953125 -33.85356903076172
v 1469.5390625 252.33062744140625 -22.743881225585938
v 1469.7958984375 253.47222900390625 -72.73025512695312
v 2609.953125 1497.3380126953125 -33.85356903076172
v 2609.5419921875 1496.5050048828125 16.13785171508789
v 516.7813110351562 -859.541015625 38.938507080078125
v 557.1543579101562 -889.0966186523438 38.1495361328125
v 395.8008117675781 -768.02734375 -58.65411376953125
v 411.9541320800781 -779.84619140625 -58.96958923339844
v 1332.56640625 369.25445556640625 -20.76654815673828
v 1317.3447265625 382.24322509765625 -20.546916961669922
v 395.8164367675781 -767.74169921875 -68.65003967285156
v 395.8008117675781 -768.02734375 -58.65411376953125
v -290.5595397949219 -265.3403625488281 -55.238922119140625
v 356.2471008300781 -738.77001953125 -67.87666320800781
v -613.5556640625 -28.913606643676758 -48.92775344848633
v -936.556640625 207.5111846923828 -42.61661911010742
v -976.9472045898438 236.7855987548828 -31.831586837768555
v -976.931640625 237.0717315673828 -41.82749557495117
v -993.099609375 248.6044464111328 -31.516130447387695
v -976.9472045898438 236.7855987548828 -31.831586837768555
v -1138.5927734375 352.1361999511719 71.28303527832031
v -1098.2236328125 322.5815124511719 70.49410247802734
v -1138.3701171875 356.42474365234375 -78.65571594238281
v -1138.4443359375 354.99505615234375 -28.676124572753906
v -290.5 -264.1968078613281 -95.22260284423828
v -1138.3701171875 356.42474365234375 -78.65571594238281
v 557.3770141601562 -884.8085327148438 -111.78919982910156
v 557.3027954101562 -886.23779296875 -61.80961227416992
v 557.3770141601562 -884.8085327148438 -111.78919982910156
v -202.00772094726562 -1921.68212890625 -0.055910445749759674
v -159.18838500976562 -1947.5810546875 -1.055477261543274
v -330.7743225097656 -1840.64697265625 -97.00122833251953
v -313.6424865722656 -1851.00244140625 -97.40093231201172
v -330.8036193847656 -1840.31201171875 -106.9955825805664
v -330.7743225097656 -1840.64697265625 -97.00122833251953
v -1058.7801513671875 -1400.080078125 -90.0047607421875
v -372.7713928222656 -1814.9241943359375 -106.01578521728516
v -1401.353515625 -1192.9083251953125 -82.00897216796875
v -1743.931640625 -985.73974609375 -74.0132827758789
v -1786.724609375 -960.1714477539062 -63.019203186035156
v -1786.75390625 -959.83642578125 -73.01355743408203
v -1803.85546875 -949.8159790039062 -62.61952209472656
v -1786.724609375 -960.1714477539062 -63.019203186035156
v -1957.7138671875 -859.9414672851562 40.92208480834961
v -1914.8984375 -885.8399047851562 39.92254638671875
v -1958.1580810546875 -854.9141845703125 -108.99322509765625
v -1958.009765625 -856.58984375 -59.02146911621094
v -1058.8983154296875 -1398.7392578125 -129.982177734375
v -1958.1580810546875 -854.9141845703125 -108.99322509765625
v -159.63270568847656 -1942.5537109375 -150.97076416015625
v -159.48428344726562 -1944.2294921875 -100.9990005493164
v -159.63270568847656 -1942.5537109375 -150.97076416015625
v -759.7039794921875 -2933.6650390625 -39.32860565185547
v -714.6082763671875 -2955.361328125 -40.51432800292969
v -895.8299560546875 -2864.873046875 -135.69944763183594
v -877.7888793945312 -2873.5478515625 -136.1736297607422
v -895.9129028320312 -2864.501953125 -145.6922149658203
v -895.8299560546875 -2864.873046875 -135.69944763183594
v -1662.5740966796875 -2495.71875 -125.5365219116211
v -940.1121826171875 -2843.2333984375 -144.52993774414062
v -2023.3533935546875 -2322.169921875 -116.05138397216797
v -2384.1357421875 -2148.62548828125 -106.56632995605469
v -2429.15234375 -2127.29638671875 -95.38766479492188
v -2429.234375 -2126.9248046875 -105.38040924072266
v -2447.1923828125 -2118.62255859375 -94.91351318359375
v -2429.15234375 -2127.29638671875 -95.38766479492188
v -2608.708984375 -2044.243408203125 9.28229808807373
v -2563.6171875 -2065.939453125 8.096604347229004
v -2609.955078125 -2038.66796875 -140.60903930664062
v -2609.5390625 -2040.5264892578125 -90.64527130126953
v -1662.9071044921875 -2494.232421875 -165.50755310058594
v -2609.955078125 -2038.66796875 -140.60903930664062
v -715.8543701171875 -2949.78515625 -190.40567016601562
v -715.4393310546875 -2951.64453125 -140.44189453125
v -715.8543701171875 -2949.78515625 -190.40567016601562
v 2590.3291015625 1502.1890869140625 16.075214385986328
v 2573.5361328125 1531.2218017578125 16.42236328125
v 2573.025390625 1530.1866455078125 78.51914978027344
v 1317.3955078125 382.47174072265625 -30.544200897216797
v 2465.58984375 1635.5294189453125 7.277355194091797
v 23.751888275146484 1486.75390625 -11.869298934936523
v 1241.3114013671875 2815.841796875 16.949201583862305
v 395.8164367675781 -767.74169921875 -68.65003967285156
v -976.931640625 237.0717315673828 -41.82749557495117
v -330.8036193847656 -1840.31201171875 -106.9955825805664
v -1786.75390625 -959.83642578125 -73.01355743408203
v -895.9129028320312 -2864.501953125 -145.6922149658203
v -2429.234375 -2126.9248046875 -105.38040924072266
v 1431.494140625 284.81158447265625 -22.19454002380371
v 2525.919921875 1479.2545166015625 14.812301635742188
v -90.44831085205078 1583.95703125 -0.22442005574703217
v 1133.2000732421875 2919.8154296875 27.80074691772461
v 516.9297485351562 -856.68212890625 -61.02064514160156
v -1098.0751953125 325.44036865234375 -29.46506118774414
v -202.30459594726562 -1918.33056640625 -99.99945068359375
v -1915.1943359375 -882.4883422851562 -60.02098083496094
v -760.5340576171875 -2929.947265625 -139.2561492919922
v -2564.447265625 -2062.22216796875 -91.83094787597656
v 1469.025390625 250.04647827148438 77.22882843017578
v 2608.71875 1494.8370361328125 116.12066650390625
v 2573.025390625 1530.1866455078125 78.51914978027344
v 2537.791015625 1491.9908447265625 43.767974853515625
v 1430.98046875 282.52740478515625 77.7781753540039
v 2572.7138671875 1529.5548095703125 116.4051742553711
v -90.96199035644531 1581.673828125 99.74832153320312
v -90.44831085205078 1583.95703125 -0.22442005574703217
v 1133.2000732421875 2919.8154296875 27.80074691772461
v 1132.3768310546875 2918.1484375 127.7835693359375
v -129.0039825439453 1614.1533203125 100.29763793945312
v 1096.3748779296875 2952.86328125 128.0680694580078
v 557.1543579101562 -889.0966186523438 38.1495361328125
v 516.9297485351562 -856.68212890625 -61.02064514160156
v 516.7813110351562 -859.541015625 38.938507080078125
v 1431.494140625 284.81158447265625 -22.19454002380371
v -1098.2236328125 322.5815124511719 70.49410247802734
v -1098.0751953125 325.44036865234375 -29.46506118774414
v -1138.5927734375 352.1361999511719 71.28303527832031
v -159.18838500976562 -1947.5810546875 -1.055477261543274
v -202.30459594726562 -1918.33056640625 -99.99945068359375
v -202.00772094726562 -1921.68212890625 -0.055910445749759674
v -1914.8984375 -885.8399047851562 39.92254638671875
v -1915.1943359375 -882.4883422851562 -60.02098083496094
v -1957.7138671875 -859.9414672851562 40.92208480834961
v -714.6082763671875 -2955.361328125 -40.51432800292969
v -760.5340576171875 -2929.947265625 -139.2561492919922
v -759.7039794921875 -2933.6650390625 -39.32860565185547
v -2563.6171875 -2065.939453125 8.096604347229004
v -2564.447265625 -2062.22216796875 -91.83094787597656
v -2608.708984375 -2044.243408203125 9.28229808807373
v 2573.5361328125 1531.2218017578125 16.42236328125
v 2531.6142578125 1474.5616455078125 14.780906677246094
v 2542.0380859375 1488.4908447265625 43.74456024169922
v 2526.0966796875 1479.4776611328125 9.901191711425781
v 2573.5361328125 1531.2218017578125 16.42236328125
v 2424.3095703125 1560.8282470703125 9.560744285583496
v 2597.681640625 1507.9410400390625 16.231571197509766
v 2573.025390625 1530.1866455078125 78.51914978027344
v 2572.7138671875 1529.5548095703125 116.4051742553711
v 2608.71875 1494.8370361328125 116.12066650390625
v 2609.5419921875 1496.5050048828125 16.13785171508789
v 2525.919921875 1479.2545166015625 14.812301635742188
v 2531.7890625 1474.7833251953125 9.909783363342285
v 2537.791015625 1491.9908447265625 43.767974853515625
v 2542.0380859375 1488.4908447265625 43.74456024169922
v 2531.6142578125 1474.5616455078125 14.780906677246094
v 2525.919921875 1479.2545166015625 14.812301635742188
v 2537.791015625 1491.9908447265625 43.767974853515625
v 2573.025390625 1530.1866455078125 78.51914978027344
v 2542.0380859375 1488.4908447265625 43.74456024169922
v 2573.025390625 1530.1866455078125 78.51914978027344
v 2597.681640625 1507.9410400390625 16.231571197509766
v 2590.3291015625 1502.1890869140625 16.075214385986328
v 2597.681640625 1507.9410400390625 16.231571197509766
v 2573.5361328125 1531.2218017578125 16.42236328125
v 2590.3291015625 1502.1890869140625 16.075214385986328
v 2479.9130859375 1621.4786376953125 17.161911010742188
v 2424.1044921875 1560.5684814453125 15.317008972167969
v 2424.3095703125 1560.8282470703125 9.560744285583496
v 2525.919921875 1479.2545166015625 14.812301635742188
v 2526.0966796875 1479.4776611328125 9.901191711425781
v 2424.3095703125 1560.8282470703125 9.560744285583496
v 2424.1044921875 1560.5684814453125 15.317008972167969
v 2531.6142578125 1474.5616455078125 14.780906677246094
v 2531.7890625 1474.7833251953125 9.909783363342285
v 2526.0966796875 1479.4776611328125 9.901191711425781
v 2525.919921875 1479.2545166015625 14.812301635742188
v 2531.6142578125 1474.5616455078125 14.780906677246094
v 2573.5361328125 1531.2218017578125 16.42236328125
v 2531.7890625 1474.7833251953125 9.909783363342285
v 2638.2978515625 1556.4415283203125 114.79682922363281
v 2634.0908203125 1560.7193603515625 118.26081085205078
v 2576.8642578125 1504.9688720703125 104.90348052978516
v 2581.0712890625 1500.6910400390625 101.43948364257812
v 2634.130859375 1560.7589111328125 111.33283233642578
v 2576.904296875 1505.0084228515625 97.97550201416016
v 2634.130859375 1560.7589111328125 111.33283233642578
v 2634.0908203125 1560.7193603515625 118.26081085205078
v 2638.2978515625 1556.4415283203125 114.79682922363281
v 2581.0712890625 1500.6910400390625 101.43948364257812
v 2576.8642578125 1504.9688720703125 104.90348052978516
v 2576.904296875 1505.0084228515625 97.97550201416016
v 2650.7861328125 1568.6075439453125 49.53880310058594
v 2646.5791015625 1572.8858642578125 53.00279235839844
v 2589.2783203125 1517.0626220703125 52.350341796875
v 2593.4853515625 1512.7847900390625 48.886356353759766
v 2646.619140625 1572.9249267578125 46.07481384277344
v 2589.318359375 1517.1021728515625 45.42236328125
v 2646.619140625 1572.9249267578125 46.07481384277344
v 2646.5791015625 1572.8858642578125 53.00279235839844
v 2650.7861328125 1568.6075439453125 49.53880310058594
v 2593.4853515625 1512.7847900390625 48.886356353759766
v 2589.2783203125 1517.0626220703125 52.350341796875
v 2589.318359375 1517.1021728515625 45.42236328125
v 2334.900390625 1411.7398681640625 30.25020980834961
v 2390.26953125 1389.2442626953125 30.250215530395508
v 2401.7373046875 1417.4698486328125 30.985530853271484
v 2346.3681640625 1439.9659423828125 30.985523223876953
v 2335.0732421875 1412.1661376953125 11.179120063781738
v 2390.4423828125 1389.6705322265625 11.179126739501953
v 2390.26953125 1389.2442626953125 30.250215530395508
v 2334.900390625 1411.7398681640625 30.25020980834961
v 2390.4423828125 1389.6705322265625 11.179126739501953
v 2401.9111328125 1417.8966064453125 11.914430618286133
v 2401.7373046875 1417.4698486328125 30.985530853271484
v 2390.26953125 1389.2442626953125 30.250215530395508
v 2401.9111328125 1417.8966064453125 11.914430618286133
v 2346.5419921875 1440.3922119140625 11.914423942565918
v 2346.3681640625 1439.9659423828125 30.985523223876953
v 2401.7373046875 1417.4698486328125 30.985530853271484
v 2346.5419921875 1440.3922119140625 11.914423942565918
v 2335.0732421875 1412.1661376953125 11.179120063781738
v 2334.900390625 1411.7398681640625 30.25020980834961
v 2346.3681640625 1439.9659423828125 30.985523223876953
v 1132.3768310546875 2918.1484375 127.7835693359375
v 1133.2000732421875 2919.8154296875 27.80074691772461
v 1097.1981201171875 2954.53125 28.085256576538086
v 1096.3748779296875 2952.86328125 128.0680694580078
f 230 229 231
f 300 299 301
f 302 301 299
f 90 89 67
f 66 67 89
f 67 66 37
f 41 39 40
f 36 40 39
f 39 38 36
f 37 36 38
f 36 37 66
f 66 68 36
f 68 66 91
f 89 91 66
f 91 89 114
f 112 114 89
f 89 90 112
f 113 112 90
f 40 36 68
f 109 108 86
f 85 86 108
f 86 85 63
f 62 63 85
f 63 62 29
f 28 29 62
f 29 28 30
f 31 30 28
f 11 10 8
f 9 8 10
f 8 9 52
f 53 52 9
f 52 53 75
f 76 75 53
f 75 76 98
f 99 98 76
f 105 104 82
f 81 82 104
f 82 81 59
f 58 59 81
f 59 58 21
f 20 21 58
f 21 20 22
f 23 22 20
f 107 106 84
f 83 84 106
f 84 83 61
f 60 61 83
f 61 60 25
f 24 25 60
f 25 24 26
f 27 26 24
f 111 110 88
f 87 88 110
f 88 87 65
f 64 65 87
f 65 64 33
f 32 33 64
f 33 32 34
f 35 34 32
f 116 115 93
f 92 93 115
f 93 92 70
f 69 70 92
f 70 69 43
f 42 43 69
f 43 42 44
f 45 44 42
f 95 94 72
f 71 72 94
f 72 71 47
f 46 47 71
f 47 46 2
f 1 2 46
f 2 1 3
f 4 3 1
f 97 96 74
f 73 74 96
f 74 73 49
f 48 49 73
f 49 48 50
f 51 50 48
f 50 51 7
f 6 7 51
f 6 5 7
f 159 158 155
f 154 155 158
f 155 154 151
f 150 151 154
f 151 150 145
f 144 145 150
f 145 144 146
f 147 146 144
f 157 156 153
f 152 153 156
f 153 152 149
f 148 149 152
f 149 148 142
f 141 142 148
f 141 140 142
f 143 142 140
f 19 17 18
f 102 103 79
f 80 79 103
f 79 80 56
f 57 56 80
f 56 57 16
f 18 16 57
f 16 18 17
f 17 15 16
f 12 16 15
f 15 14 12
f 100 102 77
f 79 77 102
f 77 79 54
f 56 54 79
f 54 56 12
f 16 12 56
f 13 12 14
f 12 13 54
f 55 54 13
f 54 55 77
f 78 77 55
f 77 78 100
f 101 100 78
f 221 220 222
f 280 279 281
f 282 281 279
f 296 295 297
f 298 297 295
f 292 291 293
f 294 293 291
f 288 287 289
f 290 289 287
f 284 283 285
f 286 285 283
f 237 236 238
f 239 238 236
f 235 234 232
f 233 232 234
f 217 216 218
f 219 218 216
f 202 201 203
f 204 203 201
f 208 207 205
f 206 205 207
f 205 206 215
f 118 117 119
f 210 209 211
f 211 209 212
f 212 209 213
f 224 223 225
f 241 240 242
f 227 226 228
f 167 166 164
f 165 164 166
f 166 180 165
f 180 166 178
f 179 178 166
f 178 179 187
f 188 187 179
f 187 188 195
f 196 195 188
f 214 165 180
f 200 199 192
f 191 192 199
f 192 191 184
f 183 184 191
f 184 183 173
f 172 173 183
f 173 172 174
f 175 174 172
f 198 197 190
f 189 190 197
f 190 189 182
f 181 182 189
f 182 181 169
f 168 169 181
f 169 168 170
f 171 170 168
f 163 162 160
f 161 160 162
f 160 161 176
f 177 176 161
f 176 177 185
f 186 185 177
f 185 186 193
f 194 193 186
f 256 255 257
f 270 269 271
f 272 271 269
f 266 265 267
f 268 267 265
f 262 261 263
f 264 263 261
f 252 251 253
f 254 253 251
f 248 247 249
f 250 249 247
f 246 245 243
f 244 243 245
f 259 258 260
f 277 276 278
f 274 273 275
f 123 122 120
f 121 120 122
f 120 121 128
f 129 128 121
f 128 129 132
f 133 132 129
f 132 133 136
f 137 136 133
f 139 138 135
f 134 135 138
f 135 134 131
f 130 131 134
f 131 130 125
f 124 125 130
f 125 124 126
f 127 126 124
