v 1597.442626953125 -208.8744354248047 -4.1810302734375
v 1963.482666015625 52.880943298339844 -4.181036472320557
v 1614.105224609375 541.4551391601562 -4.181094169616699
v 1248.065185546875 279.71197509765625 -4.181087970733643
v 499.3225402832031 -994.12841796875 -4.181008815765381
v 865.3626098632812 -732.3729858398438 -4.181015491485596
v 441.1560363769531 -912.78076171875 -4.181019306182861
v 211.54788208007812 -591.69921875 -4.181057453155518
v 515.985107421875 -243.79881286621094 -4.181073188781738
v 149.94508361816406 -505.55419921875 -4.181066513061523
v 667.3339233398438 1092.3583984375 -4.181183815002441
v 1033.5693359375 1353.84521484375 -4.181190490722656
v 685.7003784179688 1841.0799560546875 -4.181248664855957
v 319.37957763671875 1579.715087890625 -4.181241512298584
v -431.365966796875 307.9223327636719 -4.181163787841797
v -65.1306381225586 569.39697265625 -4.1811699867248535
v -493.1152648925781 394.3969421386719 -4.181173324584961
v -663.36669921875 632.861328125 -4.181201934814453
v -413.2619934082031 1056.997802734375 -4.181228160858154
v -779.5828247070312 795.6329956054688 -4.181221008300781
v 458.6487121582031 -1023.20556640625 -4.1810078620910645
v 400.4822082519531 -941.8701171875 -4.1810173988342285
v 170.87405395507812 -620.7763671875 -4.181055545806885
v 142.59646606445312 -548.8037109375 -4.181063175201416
v 134.47879028320312 -598.13232421875 -4.181058883666992
v 92.7429428100586 -607.92236328125 -4.181060314178467
v 63.53762435913086 -567.333984375 -4.181065082550049
v -229.12594604492188 -839.55078125 -4.18105411529541
v -258.9111022949219 -799.3896484375 -4.181058883666992
v -276.9775085449219 -873.98681640625 -4.181053161621094
v -306.1828308105469 -833.3984375 -4.181057929992676
v -301.5319519042969 -891.650390625 -4.1810526847839355
v -330.7311706542969 -851.06201171875 -4.181057453155518
v -310.2966003417969 -897.94921875 -4.181052207946777
v -340.0817565917969 -857.80029296875 -4.181057453155518
v -965.58837890625 -14.440960884094238 -4.181159019470215
v -935.80322265625 -54.60209274291992 -4.181153774261475
v -953.387451171875 -5.664104461669922 -4.181158542633057
v -924.188232421875 -46.24027633666992 -4.181153774261475
v -889.337158203125 -21.16703224182129 -4.181155204772949
v -918.54248046875 19.42134666442871 -4.181159496307373
v -884.423828125 43.969688415527344 -4.181159973144531
v -854.632568359375 3.808556079864502 -4.181155204772949
v -546.734619140625 286.9872741699219 -4.181166648864746
v -517.529296875 246.39889526367188 -4.181161403656006
v -474.749755859375 315.3564147949219 -4.181166648864746
v -524.08447265625 323.4985046386719 -4.181168556213379
v -533.807373046875 365.3442077636719 -4.181172847747803
v -704.071044921875 603.8207397460938 -4.181201934814453
v -820.2871704101562 766.5924682617188 -4.181220531463623
v 2004.156494140625 81.97029876708984 -4.181036949157715
v 1654.779052734375 570.5444946289062 -4.181095123291016
v 1074.261474609375 1382.89794921875 -4.181192398071289
v 726.4047241210938 1870.1204833984375 -4.181249141693115
v 1231.402587890625 -470.61761474609375 -4.181022644042969
v 882.025146484375 17.956581115722656 -4.181080341339111
v 301.0986022949219 830.8837890625 -4.181176662445068
v -46.941219329833984 1318.350341796875 -4.181234836578369
v -238.5070343017578 -907.8857421875 5.818953037261963
v -255.9508819580078 -883.48388671875 5.818950653076172
v -265.2953796386719 -890.22216796875 5.818948745727539
v -280.5114440917969 -938.1103515625 5.8189520835876465
v -289.8498229980469 -907.87353515625 5.818951606750488
v -298.3825378417969 -914.013671875 5.8189520835876465
v -995.37353515625 25.720170974731445 5.8188371658325195
v -977.50244140625 1.623492956161499 5.8188395500183105
v -965.069580078125 10.571247100830078 5.8188395500183105
v -936.12060546875 68.35933685302734 5.818835258483887
v -930.224609375 35.65669631958008 5.818839073181152
v -918.695068359375 43.945274353027344 5.818839073181152
v 442.3828430175781 -1034.8388671875 5.818992614746094
v 154.60818481445312 -632.40966796875 5.818944454193115
v -219.78932189941406 -894.7645874023438 5.818953037261963
v 70.53343963623047 -1300.7545166015625 5.81899881362915
v -237.3766326904297 -870.1178588867188 5.818950653076172
v -900.0439453125 57.36766815185547 5.818838119506836
v -558.416748046875 303.2226257324219 5.818831920623779
v -917.7354736328125 81.95474243164062 5.8188347816467285
v -543.817138671875 326.7455749511719 5.8188300132751465
v -550.08544921875 353.7231140136719 5.8188276290893555
v -836.5652465820312 754.9835815429688 5.818779945373535
v -1208.699462890625 489.47479248046875 5.81878662109375
v 2392.271728515625 359.50762939453125 5.818955421447754
v 2042.8944091796875 848.0818481445312 5.818897724151611
v 1671.044921875 582.1777954101562 5.818904399871826
v 2020.42236328125 93.60360717773438 5.818962574005127
v 1114.8170166015625 2147.238037109375 5.8187432289123535
v 742.6828002929688 1881.7293701171875 5.818750381469727
v 1090.53955078125 1394.51904296875 5.818808078765869
v 1462.5865478515625 1660.15576171875 5.8188018798828125
v -637.939453125 -456.2012023925781 -4.181105136871338
v -556.77490234375 -397.7905578613281 -4.181107044219971
v 458.6487121582031 -1023.20556640625 5.8189921379089355
v 170.87405395507812 -620.7763671875 5.818944454193115
v 134.47879028320312 -598.13232421875 5.81894063949585
v 92.7429428100586 -607.92236328125 5.818939685821533
v -276.9775085449219 -873.98681640625 5.818946838378906
v 131.23171997070312 -617.87109375 5.818942070007324
v 104.42507934570312 -624.15771484375 5.818941593170166
v -301.5319519042969 -891.650390625 5.818946838378906
v -310.2966003417969 -897.94921875 5.818947792053223
v -965.58837890625 -14.440959930419922 5.818841457366943
v -953.387451171875 -5.6641035079956055 5.818841457366943
v -918.54248046875 19.42134666442871 5.818840980529785
v -546.734619140625 286.9872741699219 5.818832874298096
v -524.08447265625 323.4985046386719 5.818831443786621
v -533.807373046875 365.3442077636719 5.818827152252197
v -820.2871704101562 766.5924682617188 5.818779945373535
v 2004.156494140625 81.97030639648438 5.818963050842285
v 1654.779052734375 570.5444946289062 5.818904876708984
v 1074.261474609375 1382.89794921875 5.818808078765869
v 726.4047241210938 1870.1204833984375 5.818750858306885
v 226.561767578125 2485.67724609375 -4.1813249588012695
v -140.30831909179688 2225.09375 -4.181318283081055
v 128.9874725341797 1846.56396484375 -4.181273460388184
v 495.4852600097656 2107.6845703125 -4.181280612945557
v -874.0484619140625 1703.9266357421875 -4.181304454803467
v -1240.9248046875 1443.3310546875 -4.18129825592041
v -970.505859375 1063.23876953125 -4.181252956390381
v -604.0081176757812 1324.34716796875 -4.181259632110596
v 267.3271484375 2514.63232421875 -4.181325435638428
v 536.2078857421875 2136.6884765625 -4.181281089782715
v -1281.68408203125 1414.3759765625 -4.181296348571777
v -1011.228515625 1034.22265625 -4.181252956390381
v -507.1784362792969 1964.5101318359375 -4.181310653686523
v -237.5103302001953 1585.45556640625 -4.181266784667969
v 552.4981689453125 2148.29736328125 5.818718910217285
v 924.8125610351562 2413.56201171875 5.8187127113342285
v 656.3280639648438 2790.93505859375 5.818667411804199
v 283.6357421875 2526.216796875 5.818674564361572
v -1670.684814453125 1138.07373046875 5.818709373474121
v -1399.8271484375 757.3607177734375 5.81875467300415
v -1027.5126953125 1022.6136474609375 5.8187479972839355
v -1297.99267578125 1402.8037109375 5.8187031745910645
v 267.3271484375 2514.63232421875 5.818674564361572
v 536.2078857421875 2136.6884765625 5.818718910217285
v -1281.68408203125 1414.3759765625 5.8187031745910645
v -1011.228515625 1034.22265625 5.818747520446777
v -1972.1226806640625 5651.76806640625 -4.181697845458984
v -2346.774658203125 5402.48828125 -4.181692123413086
v -2021.5611572265625 4918.46728515625 -4.181635856628418
v -1649.0819091796875 5170.9697265625 -4.181641578674316
v -1305.795654296875 4669.041015625 -4.181582450866699
v -1676.1448974609375 4413.4013671875 -4.181576251983643
v -909.3782958984375 3312.68115234375 -4.181446552276611
v -540.8908081054688 3570.98193359375 -4.181453227996826
v -496.7012634277344 2727.64697265625 -4.181377410888672
v -129.30628967285156 2987.498046875 -4.181384563446045
v -3096.0849609375 4903.9287109375 -4.1816816329956055
v -3470.737060546875 4654.64892578125 -4.181675910949707
v -3139.01708984375 4160.94775390625 -4.181618690490723
v -2766.53173828125 4413.4501953125 -4.181623935699463
v -2416.843017578125 3902.146484375 -4.181563854217529
v -2787.192138671875 3646.518798828125 -4.181558132171631
v -2014.828857421875 2537.7666015625 -4.181427001953125
v -1646.347412109375 2796.0673828125 -4.181434154510498
v -1598.8802490234375 1948.1058349609375 -4.181357383728027
v -1231.4852294921875 2207.95703125 -4.1813645362854
v -1930.4967041015625 5679.4658203125 -4.181698322296143
v -1607.6939697265625 5199.021484375 -4.181642055511475
v -1264.65185546875 4697.4345703125 -4.181583404541016
v -499.9483642578125 3599.6806640625 -4.181454181671143
v -88.48596954345703 3016.36767578125 -4.181385040283203
v -3512.363037109375 4626.951171875 -4.181675434112549
v -3180.405029296875 4132.89599609375 -4.181617736816406
v -2828.342041015625 3618.113037109375 -4.1815571784973145
v -2055.77099609375 2509.06787109375 -4.181426048278809
v -1639.706787109375 1919.2362060546875 -4.181356906890869
v -2721.4267578125 5153.20849609375 -4.1816864013671875
v -2394.04638671875 4665.95263671875 -4.181629180908203
v -2046.493896484375 4157.77392578125 -4.181570053100586
v -1277.8597412109375 3054.3681640625 -4.181440353393555
v -864.0963134765625 2467.7958984375 -4.181370735168457
v -1913.8463134765625 5690.53759765625 5.818301677703857
v -1591.135009765625 5210.23974609375 5.818357467651367
v -1212.740234375 5466.76171875 5.818352222442627
v -1533.2484130859375 5943.76953125 5.818295478820801
v -1248.190673828125 4708.79931640625 5.818416595458984
v -871.964111328125 4968.4833984375 5.818410396575928
v -483.5726318359375 3611.16748046875 5.818545818328857
v -109.24112701416016 3873.572265625 5.818539619445801
v -72.15296173095703 3027.927734375 5.818614482879639
v 301.06829833984375 3291.90185546875 5.818607807159424
v -3909.611328125 4362.6357421875 5.81833028793335
v -3575.3583984375 3865.15478515625 5.818387985229492
v -3196.957763671875 4121.66552734375 5.818382740020752
v -3529.013427734375 4615.87939453125 5.818324565887451
v -3221.023681640625 3347.064697265625 5.8184494972229
v -2844.797119140625 3606.760498046875 5.8184428215026855
v -2446.484130859375 2235.17626953125 5.818580627441406
v -2072.146728515625 2497.5810546875 5.818573474884033
v -2029.2606201171875 1643.7020263671875 5.818650245666504
v -1656.03369140625 1907.6761474609375 5.818643093109131
v -1930.4967041015625 5679.4658203125 5.818301677703857
v -1607.6939697265625 5199.021484375 5.818357944488525
v -1264.65185546875 4697.4345703125 5.818416595458984
v -499.9483642578125 3599.6806640625 5.818545818328857
v -88.48596954345703 3016.36767578125 5.818615436553955
v -3512.363037109375 4626.951171875 5.818324565887451
v -3180.405029296875 4132.89599609375 5.8183817863464355
v -2828.342041015625 3618.113037109375 5.818443298339844
v -2055.77099609375 2509.06787109375 5.818573474884033
v -1639.706787109375 1919.2362060546875 5.818643093109131
v 51.940975189208984 -1314.05029296875 5.819000244140625
v -1227.30615234375 476.1993713378906 5.818787097930908
v 2410.8642578125 372.8028259277344 5.818955421447754
v 2061.48681640625 861.3770141601562 5.818897247314453
v 1481.1888427734375 1673.4376220703125 5.818801403045654
v 1133.4237060546875 2160.513427734375 5.818742752075195
v 943.4282836914062 2426.8251953125 5.818711280822754
v 674.962646484375 2804.1708984375 5.818667411804199
v -1689.3194580078125 1124.8372802734375 5.8187103271484375
v -1418.44287109375 744.0980834960938 5.818755626678467
v -1193.820556640625 5479.587890625 5.8183512687683105
v -1514.218505859375 5956.43115234375 5.818295478820801
v -853.15283203125 4981.4677734375 5.818410396575928
v -90.52458190917969 3886.6923828125 5.818538665771484
v 319.7293395996094 3305.1005859375 5.818607330322266
v -3928.640869140625 4349.9736328125 5.818330764770508
v -3594.278076171875 3852.329345703125 5.818388938903809
v -3239.834716796875 3334.079833984375 5.818449974060059
v -2465.200927734375 2222.05615234375 5.8185811042785645
v -2047.922119140625 1630.5032958984375 5.818650245666504
f 282 284 285
f 282 283 284
f 282 280 283
f 281 280 282
f 20 228 19
f 227 228 20
f 227 225 228
f 226 225 227
f 226 289 225
f 288 289 226
f 288 287 289
f 286 287 288
f 286 284 287
f 285 284 286
f 6 5 7
f 6 7 8
f 6 8 9
f 9 8 10
f 9 10 16
f 16 10 15
f 16 15 17
f 16 17 18
f 16 18 19
f 19 18 20
f 222 279 221
f 278 279 222
f 278 277 279
f 276 277 278
f 276 274 277
f 275 274 276
f 272 274 275
f 272 273 274
f 272 270 273
f 271 270 272
f 2 1 3
f 3 1 4
f 3 4 12
f 12 4 11
f 12 11 13
f 13 11 14
f 14 224 13
f 223 224 14
f 223 221 224
f 222 221 223
f 62 61 63
f 63 61 64
f 44 43 45
f 44 45 46
f 46 45 47
f 47 45 48
f 47 48 49
f 47 49 50
f 36 35 37
f 36 37 38
f 38 37 39
f 38 39 40
f 40 39 41
f 40 41 42
f 52 51 53
f 52 53 54
f 54 53 55
f 55 53 56
f 55 56 57
f 57 56 58
f 57 58 59
f 59 58 60
f 22 21 23
f 23 21 24
f 26 25 27
f 27 25 28
f 27 28 29
f 29 28 30
f 29 30 31
f 29 31 32
f 32 31 33
f 32 33 34
f 234 233 235
f 234 235 236
f 236 235 237
f 237 235 238
f 301 300 302
f 302 300 303
f 302 303 304
f 302 304 305
f 305 304 306
f 306 304 307
f 306 307 308
f 308 307 309
f 308 309 234
f 234 309 233
f 230 299 229
f 298 299 230
f 298 297 299
f 296 297 298
f 296 295 297
f 294 295 296
f 294 293 295
f 292 293 294
f 292 290 293
f 291 290 292
f 66 65 67
f 66 67 68
f 68 67 70
f 70 67 69
f 70 69 71
f 71 69 72
f 72 232 71
f 231 232 72
f 231 229 232
f 230 229 231
f 74 73 75
f 75 73 76
f 75 76 82
f 82 76 81
f 82 81 83
f 83 81 84
f 84 242 83
f 241 242 84
f 241 239 242
f 240 239 241
f 240 319 239
f 318 319 240
f 318 317 319
f 316 317 318
f 316 314 317
f 315 314 316
f 312 314 315
f 312 313 314
f 312 310 313
f 311 310 312
f 78 77 79
f 78 79 80
f 80 79 86
f 86 79 85
f 86 85 87
f 87 85 88
f 88 246 87
f 245 246 88
f 245 243 246
f 244 243 245
f 244 329 243
f 328 329 244
f 328 327 329
f 326 327 328
f 326 324 327
f 325 324 326
f 322 324 325
f 322 323 324
f 322 320 323
f 321 320 322
f 137 136 133
f 137 133 138
f 131 130 132
f 132 135 131
f 135 133 131
f 134 133 135
f 133 134 139
f 138 133 139
f 139 140 138
f 125 124 126
f 126 124 127
f 127 124 128
f 127 128 129
f 142 141 143
f 142 143 144
f 142 144 145
f 145 144 146
f 90 89 91
f 91 89 92
f 91 92 93
f 93 92 94
f 96 95 97
f 97 95 98
f 97 98 99
f 99 98 100
f 422 423 424
f 424 103 425
f 104 103 101
f 102 101 103
f 102 103 422
f 110 109 111
f 112 110 111
f 113 112 111
f 111 115 113
f 114 113 115
f 115 252 114
f 253 114 252
f 252 251 253
f 254 253 251
f 251 348 254
f 349 254 348
f 348 346 349
f 347 349 346
f 347 346 345
f 344 345 346
f 344 341 345
f 342 345 341
f 341 340 342
f 343 342 340
f 250 338 249
f 339 249 338
f 339 338 337
f 336 337 338
f 336 334 337
f 335 337 334
f 334 331 335
f 332 335 331
f 331 330 332
f 333 332 330
f 119 118 116
f 117 116 118
f 118 122 117
f 123 117 122
f 123 122 120
f 121 120 122
f 121 247 120
f 248 120 247
f 248 247 249
f 250 249 247
f 175 174 176
f 158 157 172
f 158 172 175
f 175 172 174
f 428 173 429
f 428 171 173
f 169 171 428
f 169 170 171
f 169 168 170
f 165 168 169
f 168 165 167
f 166 167 165
f 165 163 166
f 164 163 165
f 162 163 164
f 162 161 163
f 160 161 162
f 160 159 161
f 204 203 205
f 204 205 206
f 206 205 207
f 207 205 208
f 182 181 183
f 182 183 184
f 184 183 198
f 198 183 197
f 198 197 199
f 198 199 200
f 199 201 200
f 202 200 201
f 200 202 203
f 200 203 204
f 380 108 381
f 105 381 108
f 108 107 105
f 106 105 107
f 178 177 179
f 178 179 180
f 180 179 185
f 180 185 186
f 186 185 187
f 187 185 188
f 187 188 189
f 189 188 190
f 189 190 191
f 431 430 192
f 431 192 193
f 193 192 194
f 194 192 195
f 194 195 196
f 395 394 396
f 397 396 394
f 394 391 397
f 392 397 391
f 391 390 392
f 393 392 390
f 390 387 393
f 388 393 387
f 387 386 388
f 389 388 386
f 403 402 404
f 405 404 402
f 402 406 405
f 407 405 406
f 407 406 408
f 409 408 406
f 409 410 408
f 411 408 410
f 411 410 396
f 395 396 410
f 420 418 421
f 419 421 418
f 418 416 419
f 417 419 416
f 416 413 417
f 414 417 413
f 413 412 414
f 415 414 412
f 427 426 385
f 384 385 426
f 385 384 382
f 383 382 384
f 383 399 382
f 400 382 399
f 399 398 400
f 401 400 398
f 398 420 401
f 421 401 420
f 148 147 149
f 149 147 150
f 149 150 151
f 151 150 152
f 151 152 153
f 433 432 154
f 433 154 155
f 155 154 156
f 156 154 157
f 156 157 158
f 262 261 263
f 262 263 264
f 264 263 265
f 264 265 266
f 269 434 435
f 268 434 269
f 268 436 434
f 267 436 268
f 267 374 436
f 379 374 267
f 366 365 367
f 366 367 368
f 368 367 369
f 368 369 370
f 370 369 371
f 370 371 372
f 372 371 373
f 372 373 437
f 437 373 261
f 437 261 262
f 379 438 374
f 378 438 379
f 378 439 438
f 377 439 378
f 376 439 377
f 376 440 439
f 376 441 440
f 375 441 376
f 258 257 218
f 218 257 217
f 217 215 218
f 216 215 217
f 216 211 215
f 212 211 216
f 210 211 212
f 210 209 211
f 442 214 443
f 442 213 214
f 443 214 219
f 443 219 444
f 444 219 220
f 444 220 445
f 260 445 220
f 260 446 445
f 259 446 260
f 259 256 446
f 364 256 259
f 364 358 256
f 352 353 354
f 352 354 355
f 355 354 356
f 356 354 357
f 356 357 447
f 447 357 359
f 447 359 448
f 448 359 255
f 448 255 257
f 448 257 258
f 363 358 364
f 363 449 358
f 362 449 363
f 362 450 449
f 361 450 362
f 361 451 450
f 360 451 361
f 360 351 451
f 452 350 352
f 352 350 353
