v 265.2576599121094 891.5585327148438 -4.322015285491943
v 283.5800476074219 883.544921875 -4.349234580993652
v 671.5982055664062 1722.0975341796875 -4.578460693359375
v 653.6361694335938 1730.890625 -4.551455020904541
v 265.2456970214844 891.5624389648438 -14.322000503540039
v 265.2576599121094 891.5585327148438 -4.322015285491943
v 653.6361694335938 1730.890625 -4.551455020904541
v 653.6222534179688 1730.890625 -14.551440238952637
v -101.37454986572266 1051.892578125 -13.781000137329102
v 265.2456970214844 891.5624389648438 -14.322000503540039
v 653.6222534179688 1730.890625 -14.551440238952637
v 294.2107238769531 1906.8125 -14.014636993408203
v -467.99053955078125 1212.220703125 -13.239877700805664
v -65.19662475585938 2082.73046875 -13.47771167755127
v -834.60498046875 1372.546875 -12.698756217956543
v -424.6026611328125 2258.6484375 -12.940786361694336
v -880.415283203125 1392.58203125 -2.6311497688293457
v -880.4273071289062 1392.5859375 -12.631149291992188
v -469.52398681640625 2280.63671875 -12.873700141906738
v -469.51007080078125 2280.6328125 -2.8737144470214844
v -898.7432250976562 1400.59765625 -2.6041743755340576
v -880.415283203125 1392.58203125 -2.6311497688293457
v -469.51007080078125 2280.6328125 -2.8737144470214844
v -487.4778747558594 2289.4296875 -2.846937417984009
v -972.068359375 1432.6640625 -2.4958155155181885
v -559.3612060546875 2324.61328125 -2.7394182682037354
v -1017.7725219726562 1452.650390625 97.5716781616211
v -971.94580078125 1432.609375 97.50408935546875
v -559.2198486328125 2324.6015625 97.26045227050781
v -604.1453857421875 2346.58984375 97.32756042480469
v -926.3170166015625 1412.654296875 -62.97792434692383
v -1017.9705200195312 1452.736328125 -62.84263610839844
v -604.3734130859375 2346.61328125 -63.086761474609375
v -514.5218505859375 2302.6328125 -63.22099304199219
v -834.7708129882812 1372.62109375 -152.7661590576172
v -926.3170166015625 1412.654296875 -62.97792434692383
v -514.5218505859375 2302.6328125 -63.22099304199219
v -424.7947692871094 2258.6640625 -153.00816345214844
v -743.1172485351562 1332.5390625 -152.90142822265625
v -834.7708129882812 1372.62109375 -152.7661590576172
v -424.7947692871094 2258.6640625 -153.00816345214844
v -334.94342041015625 2214.68359375 -153.14239501953125
v -651.3562622070312 1292.41015625 -63.38374328613281
v -743.1172485351562 1332.5390625 -152.90142822265625
v -334.94342041015625 2214.68359375 -153.14239501953125
v -244.96786499023438 2170.6953125 -63.62368392944336
v 356.8327331542969 851.5116577148438 -64.87178039550781
v -651.3562622070312 1292.41015625 -63.38374328613281
v -244.96786499023438 2170.6953125 -63.62368392944336
v 743.3978881835938 1686.9178466796875 -65.10016632080078
v 1365.016357421875 410.6133728027344 -66.35980987548828
v 1731.75830078125 1203.1485595703125 -66.57664489746094
v 1456.56201171875 370.58013916015625 -156.14804077148438
v 1365.016357421875 410.6133728027344 -66.35980987548828
v 1731.75830078125 1203.1485595703125 -66.57664489746094
v 1821.484619140625 1159.1798095703125 -156.36383056640625
v 1548.215087890625 330.49810791015625 -156.28330993652344
v 1456.56201171875 370.58013916015625 -156.14804077148438
v 1821.484619140625 1159.1798095703125 -156.36383056640625
v 1911.335693359375 1115.1993408203125 -156.498046875
v 1639.9755859375 290.36920166015625 -66.765625
v 1548.215087890625 330.49810791015625 -156.28330993652344
v 1911.335693359375 1115.1993408203125 -156.498046875
v 2001.3111572265625 1071.2110595703125 -66.97931671142578
v 1731.628662109375 250.2891387939453 -66.9009017944336
v 1639.9755859375 290.36920166015625 -66.765625
v 2001.3111572265625 1071.2110595703125 -66.97931671142578
v 2091.162109375 1027.2305908203125 -67.11355590820312
v 1685.995849609375 270.2442321777344 93.5810546875
v 1731.8309326171875 250.1992950439453 93.51343536376953
v 2091.394287109375 1027.2071533203125 93.30075073242188
v 2046.460205078125 1049.2012939453125 93.36785888671875
v 1612.5582275390625 302.35943603515625 -6.310523509979248
v 1685.8758544921875 270.29693603515625 -6.418867111206055
v 2046.321533203125 1049.2130126953125 -6.632038593292236
v 1974.4453125 1084.3946533203125 -6.524549961090088
v 1594.2255859375 310.37701416015625 -6.283533573150635
v 1956.473388671875 1093.1915283203125 -6.497757434844971
v 1594.213623046875 310.38287353515625 -16.283517837524414
v 1594.2255859375 310.37701416015625 -6.283533573150635
v 1956.473388671875 1093.1915283203125 -6.497757434844971
v 1956.45947265625 1093.1915283203125 -16.49774169921875
v 1181.7724609375 490.7500305175781 -15.674911499023438
v 1548.384033203125 330.42388916015625 -16.215911865234375
v 1911.531005859375 1115.1837158203125 -16.430654525756836
v 1552.1279296875 1291.0997314453125 -15.893867492675781
v 815.162353515625 651.0742797851562 -15.133684158325195
v 1192.7261962890625 1467.015625 -15.356818199157715
v 448.5478210449219 811.40234375 -14.592681884765625
v 833.3202514648438 1642.93359375 -14.82001781463623
v 448.5599060058594 811.396484375 -4.5926833152771
v 448.5478210449219 811.40234375 -14.592681884765625
v 833.3202514648438 1642.93359375 -14.82001781463623
v 833.3341674804688 1642.93359375 -4.820032596588135
v 430.22747802734375 819.4140625 -4.56557035446167
v 448.5599060058594 811.396484375 -4.5926833152771
v 833.3341674804688 1642.93359375 -4.820032596588135
v 815.3621826171875 1651.7305908203125 -4.793118476867676
v -98.664306640625 10.619135856628418 -4.551309585571289
v -80.0341796875 3.3535118103027344 -4.578345775604248
v -98.674560546875 10.628900527954102 -14.551309585571289
v -98.664306640625 10.619135856628418 -4.551309585571289
v -471.453369140625 156.03904724121094 -14.014245986938477
v -98.674560546875 10.628900527954102 -14.551309585571289
v -844.2279663085938 301.4452819824219 -13.477060317993164
v -1217.0009765625 446.8514709472656 -12.939888000488281
v -1263.582763671875 465.0174865722656 -2.872786283493042
v -1263.593017578125 465.02728271484375 -12.872771263122559
v -1282.218505859375 472.2870178222656 -2.8459784984588623
v -1263.582763671875 465.0174865722656 -2.872786283493042
v -1356.775390625 501.36907958984375 -2.7384285926818848
v -1403.265380859375 519.4530639648438 97.32856750488281
v -1356.6689453125 501.27728271484375 97.26145935058594
v -1310.244384765625 483.24993896484375 -63.220035552978516
v -1403.4375 519.6015014648438 -63.08573913574219
v -1217.144287109375 446.98040771484375 -153.00726318359375
v -1310.244384765625 483.24993896484375 -63.220035552978516
v -1123.951171875 410.6268615722656 -153.14154052734375
v -1217.144287109375 446.98040771484375 -153.00726318359375
v -1030.6650390625 374.19329833984375 -63.622894287109375
v -1123.951171875 410.6268615722656 -153.14154052734375
v -5.539910316467285 -25.6738338470459 -65.10009765625
v -1030.6650390625 374.19329833984375 -63.622894287109375
v 1019.57958984375 -425.5409851074219 -66.57727813720703
v 1112.67919921875 -461.8105163574219 -156.36451721191406
v 1019.57958984375 -425.5409851074219 -66.57727813720703
v 1205.871826171875 -498.162109375 -156.49880981445312
v 1112.67919921875 -461.8105163574219 -156.36451721191406
v 1299.15771484375 -534.5936889648438 -66.98016357421875
v 1205.871826171875 -498.162109375 -156.49880981445312
v 1392.350341796875 -570.9452514648438 -67.11443328857422
v 1299.15771484375 -534.5936889648438 -66.98016357421875
v 1345.921875 -552.9179077148438 93.36698913574219
v 1392.527099609375 -571.0975952148438 93.29988861083984
v 1271.2685546875 -523.7460327148438 -6.525355339050293
v 1345.818115234375 -552.8261108398438 -6.6328911781311035
v 1252.628173828125 -516.4765014648438 -6.4985480308532715
v 1252.61767578125 -516.4667358398438 -16.498531341552734
v 1252.628173828125 -516.4765014648438 -6.4985480308532715
v 833.2483520507812 -352.8847351074219 -15.894367218017578
v 1206.0185546875 -498.28900146484375 -16.431415557861328
v 460.479736328125 -207.47850036621094 -15.357072830200195
v 87.706787109375 -62.072261810302734 -14.820009231567383
v 87.7171630859375 -62.08202362060547 -4.8200249671936035
v 87.706787109375 -62.072261810302734 -14.820009231567383
v 69.0767822265625 -54.810543060302734 -4.793095588684082
v 87.7171630859375 -62.08202362060547 -4.8200249671936035
v -438.16455078125 -911.931640625 -5.239033222198486
v -419.2721862792969 -918.484375 -5.2655205726623535
v -438.1735534667969 -911.91796875 -15.23901653289795
v -438.16455078125 -911.931640625 -5.239033222198486
v -816.1996459960938 -780.7813110351562 -14.71264934539795
v -438.1735534667969 -911.91796875 -15.23901653289795
v -1194.2216796875 -649.6465454101562 -14.18614387512207
v -1572.241943359375 -518.5117797851562 -13.659668922424316
v -1619.48095703125 -502.13482666015625 -3.593893527984619
v -1619.489990234375 -502.1211242675781 -13.593877792358398
v -1638.379150390625 -495.5801086425781 -3.5676350593566895
v -1619.48095703125 -502.13482666015625 -3.593893527984619
v -1713.985595703125 -469.35162353515625 -3.462221145629883
v -1725.149169921875 -465.57623291015625 96.5533218383789
v -1713.892578125 -469.48052978515625 96.53766632080078
v -1747.9873046875 -417.33404541015625 96.6301040649414
v -1666.7901611328125 -485.6641845703125 -63.94248580932617
v -1761.2952880859375 -452.8809509277344 -63.81084442138672
v -1572.365966796875 -518.3340454101562 -153.72702026367188
v -1666.7901611328125 -485.6641845703125 -63.94248580932617
v -1477.861083984375 -551.1172485351562 -153.85862731933594
v -1572.365966796875 -518.3340454101562 -153.72702026367188
v -1383.275390625 -584.0156860351562 -64.33731842041016
v -1477.861083984375 -551.1172485351562 -153.85862731933594
v -343.7201843261719 -944.6347045898438 -65.78511810302734
v -1383.275390625 -584.0156860351562 -64.33731842041016
v 695.8294067382812 -1305.25390625 -67.23291778564453
v 790.2529907226562 -1337.921875 -157.01744079589844
v 695.8294067382812 -1305.25390625 -67.23291778564453
v 884.7576904296875 -1370.705078125 -157.1490478515625
v 790.2529907226562 -1337.921875 -157.01744079589844
v 979.3430786132812 -1403.603515625 -67.62775421142578
v 884.7576904296875 -1370.705078125 -157.1490478515625
v 1073.8475341796875 -1436.38671875 -67.75938415527344
v 979.3430786132812 -1403.603515625 -67.62775421142578
v 1026.7413330078125 -1420.201171875 92.720703125
v 1074.0025634765625 -1436.595703125 92.6549072265625
v 951.0523681640625 -1393.84765625 -7.173775672912598
v 1026.6512451171875 -1420.072265625 -7.279174327850342
v 932.1494750976562 -1387.291015625 -7.147502899169922
v 932.1404418945312 -1387.27734375 -17.147485733032227
v 932.1494750976562 -1387.291015625 -7.147502899169922
v 506.8677673339844 -1239.751953125 -16.555341720581055
v 884.8850708007812 -1370.884765625 -17.08171272277832
v 128.8518524169922 -1108.619140625 -16.028745651245117
v -249.16839599609375 -977.4843139648438 -15.5023775100708
v -249.1593780517578 -977.4960327148438 -5.5023932456970215
v -249.16839599609375 -977.4843139648438 -15.5023775100708
v -268.0622253417969 -970.939453125 -5.475997447967529
v -249.1593780517578 -977.4960327148438 -5.5023932456970215
v -753.2236938476562 -1876.06640625 -6.45961856842041
v -734.1119995117188 -1881.9530029296875 -6.47019100189209
v -753.2276000976562 -1876.0623779296875 -16.459617614746094
v -753.2236938476562 -1876.06640625 -6.45961856842041
v -1135.5599365234375 -1758.306640625 -16.24921226501465
v -753.2276000976562 -1876.0623779296875 -16.459617614746094
v -1517.8883056640625 -1640.5528564453125 -16.038869857788086
v -1900.215576171875 -1522.7989501953125 -15.828400611877441
v -1948.0025634765625 -1508.0821533203125 -5.802117347717285
v -1948.0064697265625 -1508.0782470703125 -15.802101135253906
v -1685.4713134765625 -639.7793579101562 -3.886229991912842
v -1898.650146484375 -1292.5450439453125 -5.3284220695495605
v -1967.117431640625 -1502.1954345703125 -5.791605472564697
v -1948.0025634765625 -1508.0821533203125 -5.802117347717285
v -1995.8187255859375 -1493.3399658203125 -66.19024658203125
v -2091.399169921875 -1463.9024658203125 -66.13764190673828
v -1900.2735595703125 -1522.7423095703125 -155.89576721191406
v -1995.8187255859375 -1493.3399658203125 -66.19024658203125
v -1804.69140625 -1552.1798095703125 -155.94837951660156
v -1900.2735595703125 -1522.7423095703125 -155.89576721191406
v -1709.07177734375 -1581.6563720703125 -66.34803771972656
v -1804.69140625 -1552.1798095703125 -155.94837951660156
v -657.6703491210938 -1905.4803466796875 -66.9266357421875
v -1709.07177734375 -1581.6563720703125 -66.34803771972656
v 393.7305603027344 -2229.3046875 -67.5052261352539
v 489.2752685546875 -2258.705078125 -157.21078491210938
v 393.7305603027344 -2229.3046875 -67.5052261352539
v 584.8572998046875 -2288.14453125 -157.2633819580078
v 489.2752685546875 -2258.705078125 -157.21078491210938
v 680.6055908203125 -2316.958984375 -68.71065521240234
v 584.8572998046875 -2288.14453125 -157.2633819580078
v 776.2677001953125 -2346.490234375 -66.578125
v 680.6055908203125 -2316.958984375 -68.71065521240234
v 728.5308837890625 -2331.921875 91.6397933959961
v 776.3363037109375 -2346.623046875 91.57614135742188
v 651.981201171875 -2308.2421875 -8.257980346679688
v 728.4915771484375 -2331.83984375 -8.36008358001709
v 633.5828857421875 -2301.87109375 -7.8636345863342285
v 632.8524169921875 -2302.34375 -18.232528686523438
v 633.5828857421875 -2301.87109375 -7.8636345863342285
v 202.50021362304688 -2170.48828125 -16.98865509033203
v 585.053955078125 -2287.640625 -18.16881561279297
v -179.73806762695312 -2052.693359375 -16.775196075439453
v -562.0695190429688 -1934.9375 -16.56480598449707
v -562.0654907226562 -1934.9415283203125 -6.5648064613342285
v -562.0695190429688 -1934.9375 -16.56480598449707
v -581.1785278320312 -1929.0546875 -6.554355621337891
v -562.0654907226562 -1934.9415283203125 -6.5648064613342285
v -1761.181640625 -453.03912353515625 58.50348663330078
v -1761.240966796875 -452.95904541015625 -3.396430730819702
v -1713.985595703125 -469.35162353515625 -3.462221145629883
v -1713.892578125 -469.48052978515625 96.53766632080078
v -1725.149169921875 -465.57623291015625 96.5533218383789
v -880.4273071289062 1392.5859375 -12.631149291992188
v -469.52398681640625 2280.63671875 -12.873700141906738
v 1594.213623046875 310.38287353515625 -16.283517837524414
v 1956.45947265625 1093.1915283203125 -16.49774169921875
v -1263.593017578125 465.02728271484375 -12.872771263122559
v 1252.61767578125 -516.4667358398438 -16.498531341552734
v -1619.489990234375 -502.1211242675781 -13.593877792358398
v 932.1404418945312 -1387.27734375 -17.147485733032227
v -1948.0064697265625 -1508.0782470703125 -15.802101135253906
v 632.8524169921875 -2302.34375 -18.232528686523438
v -1747.9873046875 -417.33404541015625 96.6301040649414
v -1761.181640625 -453.03912353515625 58.50348663330078
v -1725.149169921875 -465.57623291015625 96.5533218383789
v -971.94580078125 1432.609375 97.50408935546875
v -972.068359375 1432.6640625 -2.4958155155181885
v -559.3612060546875 2324.61328125 -2.7394182682037354
v -559.2198486328125 2324.6015625 97.26045227050781
v -1017.8980712890625 1452.705078125 -2.4282097816467285
v -1017.7725219726562 1452.650390625 97.5716781616211
v -604.1453857421875 2346.58984375 97.32756042480469
v -604.2896728515625 2346.60546875 -2.6723310947418213
v 1731.8309326171875 250.1992950439453 93.51343536376953
v 1731.7054443359375 250.25399780273438 -6.486473083496094
v 2091.25 1027.2208251953125 -6.699125289916992
v 2091.394287109375 1027.2071533203125 93.30075073242188
v 1685.8758544921875 270.29693603515625 -6.418867111206055
v 1685.995849609375 270.2442321777344 93.5810546875
v 2046.460205078125 1049.2012939453125 93.36785888671875
v 2046.321533203125 1049.2130126953125 -6.632038593292236
v -1356.6689453125 501.27728271484375 97.26145935058594
v -1356.775390625 501.36907958984375 -2.7384285926818848
v -1403.375 519.5448608398438 -2.6713106632232666
v -1403.265380859375 519.4530639648438 97.32856750488281
v 1392.527099609375 -571.0975952148438 93.29988861083984
v 1392.41748046875 -571.0038452148438 -6.700023174285889
v 1345.818115234375 -552.8261108398438 -6.6328911781311035
v 1345.921875 -552.9179077148438 93.36698913574219
v -1713.892578125 -469.48052978515625 96.53766632080078
v -1713.985595703125 -469.35162353515625 -3.462221145629883
v -1761.240966796875 -452.95904541015625 -3.396430730819702
v -1761.181640625 -453.03912353515625 58.50348663330078
v -1747.9873046875 -417.33404541015625 96.6301040649414
v 1074.0025634765625 -1436.595703125 92.6549072265625
v 1073.9066162109375 -1436.46484375 -7.344964981079102
v 1026.6512451171875 -1420.072265625 -7.279174327850342
v 1026.7413330078125 -1420.201171875 92.720703125
v 776.3363037109375 -2346.623046875 91.57614135742188
v 776.2515869140625 -2346.45703125 -8.423691749572754
v 728.4915771484375 -2331.83984375 -8.36008358001709
v 728.5308837890625 -2331.921875 91.6397933959961
v -1017.9705200195312 1452.736328125 -62.84263610839844
v -604.3734130859375 2346.61328125 -63.086761474609375
v 1731.628662109375 250.2891387939453 -66.9009017944336
v 2091.162109375 1027.2305908203125 -67.11355590820312
v -1403.4375 519.6015014648438 -63.08573913574219
v 1392.350341796875 -570.9452514648438 -67.11443328857422
v -1761.2952880859375 -452.8809509277344 -63.81084442138672
v 1073.8475341796875 -1436.38671875 -67.75938415527344
v -2091.38818359375 -1463.9141845703125 -23.83355140686035
v -2091.37744140625 -1463.9259033203125 -5.723199367523193
v -2083.200927734375 -1438.8868408203125 -5.66558313369751
v -2080.365234375 -1430.1563720703125 -13.501338958740234
v 776.2677001953125 -2346.490234375 -66.578125
v -2083.200927734375 -1438.8868408203125 -5.66558313369751
v -2091.37744140625 -1463.9259033203125 -5.723199367523193
v -2043.582763671875 -1478.6446533203125 -5.74953031539917
v -2033.2659912109375 -1447.0528564453125 -5.677937984466553
v -1975.2252197265625 -1269.3204345703125 -5.275146961212158
v -1726.741943359375 -508.41412353515625 -3.5507354736328125
v -1760.458740234375 -611.6621704101562 -3.7847225666046143
v -1761.240966796875 -452.95904541015625 -3.396430730819702
v -1770.3468017578125 -480.84185791015625 -3.46059250831604
v -1770.3876953125 -480.9063415527344 -11.894155502319336
v -1770.3468017578125 -480.84185791015625 -3.46059250831604
v -2083.200927734375 -1438.8868408203125 -5.66558313369751
v -2033.2659912109375 -1447.0528564453125 -5.677937984466553
v -2033.2659912109375 -1447.0528564453125 -14.688846588134766
v -2033.2659912109375 -1447.0528564453125 -14.688846588134766
v -2080.365234375 -1430.1563720703125 -13.501338958740234
v -2083.200927734375 -1438.8868408203125 -5.66558313369751
v -2033.2659912109375 -1447.0528564453125 -5.677937984466553
v -1975.2252197265625 -1269.3204345703125 -5.275146961212158
v -1975.2252197265625 -1269.3204345703125 -14.286057472229004
v -2033.2659912109375 -1447.0528564453125 -14.688846588134766
v -1975.2252197265625 -1269.3204345703125 -5.275146961212158
v -1898.650146484375 -1292.5450439453125 -5.3284220695495605
v -1898.650146484375 -1292.5450439453125 -14.339332580566406
v -1975.2252197265625 -1269.3204345703125 -14.286057472229004
v -1898.650146484375 -1292.5450439453125 -5.3284220695495605
v -1685.4713134765625 -639.7793579101562 -3.886229991912842
v -1685.4713134765625 -639.7793579101562 -12.897138595581055
v -1898.650146484375 -1292.5450439453125 -14.339332580566406
v -1685.4713134765625 -639.7793579101562 -3.886229991912842
v -1760.458740234375 -611.6621704101562 -3.7847225666046143
v -1760.458740234375 -611.6621704101562 -12.795633316040039
v -1685.4713134765625 -639.7793579101562 -12.897138595581055
v -1760.458740234375 -611.6621704101562 -3.7847225666046143
v -1726.741943359375 -508.41412353515625 -3.5507354736328125
v -1726.741943359375 -508.4141540527344 -12.5616455078125
v -1760.458740234375 -611.6621704101562 -12.795633316040039
v -1726.741943359375 -508.41412353515625 -3.5507354736328125
v -1770.3468017578125 -480.84185791015625 -3.46059250831604
v -1770.3876953125 -480.9063415527344 -11.894155502319336
v -1770.3876953125 -480.9063415527344 -11.894155502319336
v -1726.741943359375 -508.4141540527344 -12.5616455078125
v -1726.741943359375 -508.41412353515625 -3.5507354736328125
v -1975.2252197265625 -1269.3204345703125 -14.286057472229004
v -1898.650146484375 -1292.5450439453125 -14.339332580566406
v -1685.4713134765625 -639.7793579101562 -12.897138595581055
v -1760.458740234375 -611.6621704101562 -12.795633316040039
v -1760.458740234375 -611.6621704101562 -12.795633316040039
v -1726.741943359375 -508.4141540527344 -12.5616455078125
v -1770.3876953125 -480.9063415527344 -11.894155502319336
v -1760.458740234375 -611.6621704101562 -12.795633316040039
v -1770.3876953125 -480.9063415527344 -11.894155502319336
v -2080.365234375 -1430.1563720703125 -13.501338958740234
v -1975.2252197265625 -1269.3204345703125 -14.286057472229004
v -1760.458740234375 -611.6621704101562 -12.795633316040039
v -2080.365234375 -1430.1563720703125 -13.501338958740234
v -2033.2659912109375 -1447.0528564453125 -14.688846588134766
v -2091.399169921875 -1463.9024658203125 -66.13764190673828
v -1884.857177734375 -1206.0919189453125 -6.085203647613525
v -1849.788818359375 -1275.3184814453125 -6.142261981964111
v -1976.388916015625 -1339.4493408203125 -6.387323379516602
v -2011.457275390625 -1270.2208251953125 -6.330265045166016
v -1884.8670654296875 -1206.1016845703125 1.5265825986862183
v -2011.467041015625 -1270.2305908203125 1.2815208435058594
v -1976.398681640625 -1339.4591064453125 1.2244620323181152
v -1849.798828125 -1275.3282470703125 1.4695237874984741
v -1884.857177734375 -1206.0919189453125 -6.085203647613525
v -2011.457275390625 -1270.2208251953125 -6.330265045166016
v -2011.467041015625 -1270.2305908203125 1.2815208435058594
v -1884.8670654296875 -1206.1016845703125 1.5265825986862183
v -2011.457275390625 -1270.2208251953125 -6.330265045166016
v -1976.388916015625 -1339.4493408203125 -6.387323379516602
v -1976.398681640625 -1339.4591064453125 1.2244620323181152
v -2011.467041015625 -1270.2305908203125 1.2815208435058594
v -1976.388916015625 -1339.4493408203125 -6.387323379516602
v -1849.788818359375 -1275.3184814453125 -6.142261981964111
v -1849.798828125 -1275.3282470703125 1.4695237874984741
v -1976.398681640625 -1339.4591064453125 1.2244620323181152
v -1849.788818359375 -1275.3184814453125 -6.142261981964111
v -1884.857177734375 -1206.0919189453125 -6.085203647613525
v -1884.8670654296875 -1206.1016845703125 1.5265825986862183
v -1849.798828125 -1275.3282470703125 1.4695237874984741
v -1827.8192138671875 -637.8692016601562 -11.300825119018555
v -1750.2156982421875 -637.8692016601562 -11.357885360717773
v -1750.2156982421875 -779.7871704101562 -11.60292911529541
v -1827.8192138671875 -779.7871704101562 -11.545868873596191
v -1827.8148193359375 -637.8828735351562 -3.6890382766723633
v -1827.8148193359375 -779.7988891601562 -3.934082269668579
v -1750.2113037109375 -779.7988891601562 -3.991143226623535
v -1750.2113037109375 -637.8828735351562 -3.7460992336273193
v -1827.8192138671875 -637.8692016601562 -11.300825119018555
v -1827.8192138671875 -779.7871704101562 -11.545868873596191
v -1827.8148193359375 -779.7988891601562 -3.934082269668579
v -1827.8148193359375 -637.8828735351562 -3.6890382766723633
v -1827.8192138671875 -779.7871704101562 -11.545868873596191
v -1750.2156982421875 -779.7871704101562 -11.60292911529541
v -1750.2113037109375 -779.7988891601562 -3.991143226623535
v -1827.8148193359375 -779.7988891601562 -3.934082269668579
v -1750.2156982421875 -779.7871704101562 -11.60292911529541
v -1750.2156982421875 -637.8692016601562 -11.357885360717773
v -1750.2113037109375 -637.8828735351562 -3.7460992336273193
v -1750.2113037109375 -779.7988891601562 -3.991143226623535
v -1750.2156982421875 -637.8692016601562 -11.357885360717773
v -1827.8192138671875 -637.8692016601562 -11.300825119018555
v -1827.8148193359375 -637.8828735351562 -3.6890382766723633
v -1750.2113037109375 -637.8828735351562 -3.7460992336273193
v 1722.092041015625 254.46102905273438 113.3505859375
v 1703.763916015625 262.4766540527344 113.37683868408203
v 2063.88330078125 1040.6876220703125 113.16384887695312
v 2081.851318359375 1031.8927001953125 113.1378173828125
v 1722.14013671875 254.44149780273438 153.3505401611328
v 1722.092041015625 254.46102905273438 113.3505859375
v 2081.851318359375 1031.8927001953125 113.1378173828125
v 2081.90673828125 1031.8868408203125 153.13778686523438
v 1703.8118896484375 262.4571228027344 153.3768310546875
v 1722.14013671875 254.44149780273438 153.3505401611328
v 2081.90673828125 1031.8868408203125 153.13778686523438
v 2063.938720703125 1040.6817626953125 153.163818359375
v 1703.763916015625 262.4766540527344 113.37683868408203
v 1703.8118896484375 262.4571228027344 153.3768310546875
v 2063.938720703125 1040.6817626953125 153.163818359375
v 2063.88330078125 1040.6876220703125 113.16384887695312
v -990.2566528320312 1440.62109375 117.23717498779297
v -1008.5850219726562 1448.634765625 117.2634506225586
v -595.1343994140625 2342.1953125 117.01940155029297
v -577.1663818359375 2333.3984375 116.99333953857422
v -990.2088012695312 1440.599609375 157.23715209960938
v -990.2566528320312 1440.62109375 117.23717498779297
v -577.1663818359375 2333.3984375 116.99333953857422
v -577.1109619140625 2333.39453125 156.99330139160156
v -1008.5371704101562 1448.615234375 157.26339721679688
v -990.2088012695312 1440.599609375 157.23715209960938
v -577.1109619140625 2333.39453125 156.99330139160156
v -595.0787353515625 2342.1875 157.0193634033203
v -1008.5850219726562 1448.634765625 117.2634506225586
v -1008.5371704101562 1448.615234375 157.26339721679688
v -595.0787353515625 2342.1875 157.0193634033203
v -595.1343994140625 2342.1953125 117.01940155029297
v 1382.620849609375 -567.2401733398438 113.13690948486328
v 1363.984619140625 -559.9706420898438 113.16300964355469
v 1382.662353515625 -567.2753295898438 153.1368865966797
v 1382.620849609375 -567.2401733398438 113.13690948486328
v 1722.092041015625 254.46102905273438 113.3505859375
v 1722.14013671875 254.44149780273438 153.3505401611328
v 1364.026123046875 -560.0077514648438 153.16294860839844
v 1382.662353515625 -567.2753295898438 153.1368865966797
v 1363.984619140625 -559.9706420898438 113.16300964355469
v 1364.026123046875 -560.0077514648438 153.16294860839844
v 1703.8118896484375 262.4571228027344 153.3768310546875
v 1703.763916015625 262.4766540527344 113.37683868408203
v -1375.291015625 508.53314208984375 116.99436950683594
v -1393.92724609375 515.8026733398438 117.02043151855469
v -1375.24951171875 508.49603271484375 156.9943389892578
v -1375.291015625 508.53314208984375 116.99436950683594
v -990.2566528320312 1440.62109375 117.23717498779297
v -990.2088012695312 1440.599609375 157.23715209960938
v -1393.8857421875 515.7655639648438 157.02040100097656
v -1375.24951171875 508.49603271484375 156.9943389892578
v -1393.92724609375 515.8026733398438 117.02043151855469
v -1393.8857421875 515.7655639648438 157.02040100097656
v -1008.5371704101562 1448.615234375 157.26339721679688
v -1008.5850219726562 1448.634765625 117.2634506225586
v 1063.9537353515625 -1433.126953125 112.49166870117188
v 1045.0552978515625 -1426.5703125 112.5172119140625
v 1063.9898681640625 -1433.177734375 152.49160766601562
v 1063.9537353515625 -1433.126953125 112.49166870117188
v 1382.620849609375 -567.2401733398438 113.13690948486328
v 1382.662353515625 -567.2753295898438 153.1368865966797
v 1045.0914306640625 -1426.62109375 152.51715087890625
v 1063.9898681640625 -1433.177734375 152.49160766601562
v 1045.0552978515625 -1426.5703125 112.5172119140625
v 1045.0914306640625 -1426.62109375 152.51715087890625
v 1364.026123046875 -560.0077514648438 153.16294860839844
v 1363.984619140625 -559.9706420898438 113.16300964355469
v -1732.7796630859375 -462.94537353515625 116.27002716064453
v -1751.678466796875 -456.38873291015625 116.29553985595703
v -1732.743896484375 -462.99615478515625 156.2699737548828
v -1732.7796630859375 -462.94537353515625 116.27002716064453
v -1375.291015625 508.53314208984375 116.99436950683594
v -1375.24951171875 508.49603271484375 156.9943389892578
v -1751.6424560546875 -456.44146728515625 156.29551696777344
v -1732.743896484375 -462.99615478515625 156.2699737548828
v -1751.678466796875 -456.38873291015625 116.29553985595703
v -1751.6424560546875 -456.44146728515625 156.29551696777344
v -1393.8857421875 515.7655639648438 157.02040100097656
v -1393.92724609375 515.8026733398438 117.02043151855469
v 766.1690673828125 -2343.521484375 111.41243743896484
v 747.0528564453125 -2337.642578125 111.43712615966797
v 766.2008056640625 -2343.5859375 151.41236877441406
v 766.1690673828125 -2343.521484375 111.41243743896484
v 1063.9537353515625 -1433.126953125 112.49166870117188
v 1063.9898681640625 -1433.177734375 152.49160766601562
v 747.0843505859375 -2337.70703125 151.4370574951172
v 766.2008056640625 -2343.5859375 151.41236877441406
v 747.0528564453125 -2337.642578125 111.43712615966797
v 747.0843505859375 -2337.70703125 151.4370574951172
v 1045.0914306640625 -1426.62109375 152.51715087890625
v 1045.0552978515625 -1426.5703125 112.5172119140625
v -1732.743896484375 -462.99615478515625 156.2699737548828
v -1751.6424560546875 -456.44146728515625 156.29551696777344
v -1751.678466796875 -456.38873291015625 116.29553985595703
v -1732.7796630859375 -462.94537353515625 116.27002716064453
v 766.2008056640625 -2343.5859375 151.41236877441406
v 747.0843505859375 -2337.70703125 151.4370574951172
v 747.0528564453125 -2337.642578125 111.43712615966797
v 766.1690673828125 -2343.521484375 111.41243743896484
v -1657.8267822265625 -175.39459228515625 96.81066131591797
v -1648.441650390625 -178.84967041015625 96.81066131591797
v -1651.896240234375 -188.23052978515625 96.80368041992188
v -1661.279052734375 -184.78131103515625 96.80367279052734
v -1639.91162109375 -182.01763916015625 138.61619567871094
v -1643.36376953125 -191.40435791015625 138.6092071533203
v -1643.3634033203125 -191.39654541015625 128.60922241210938
v -1639.9088134765625 -182.01568603515625 128.61619567871094
v -1657.8267822265625 -175.39459228515625 96.81066131591797
v -1661.279052734375 -184.78131103515625 96.80367279052734
v -1661.2860107421875 -184.79888916015625 124.01595306396484
v -1657.8336181640625 -175.41217041015625 124.02294158935547
v -1661.279052734375 -184.78131103515625 96.80367279052734
v -1651.896240234375 -188.23052978515625 96.80368041992188
v -1651.9033203125 -188.25006103515625 124.01596069335938
v -1661.2860107421875 -184.79888916015625 124.01595306396484
v -1651.896240234375 -188.23052978515625 96.80368041992188
v -1648.441650390625 -178.84967041015625 96.81066131591797
v -1648.44873046875 -178.86920166015625 124.02294158935547
v -1651.9033203125 -188.25006103515625 124.01596069335938
v -1648.441650390625 -178.84967041015625 96.81066131591797
v -1657.8267822265625 -175.39459228515625 96.81066131591797
v -1657.8336181640625 -175.41217041015625 124.02294158935547
v -1648.44873046875 -178.86920166015625 124.02294158935547
v -1661.2860107421875 -184.79888916015625 124.01595306396484
v -1647.59521484375 -189.84967041015625 138.6092071533203
v -1644.1429443359375 -180.46295166015625 138.61619567871094
v -1657.8336181640625 -175.41217041015625 124.02294158935547
v -1647.5948486328125 -189.83990478515625 128.6091766357422
v -1647.59521484375 -189.84967041015625 138.6092071533203
v -1648.44873046875 -178.86920166015625 124.02294158935547
v -1644.138916015625 -180.45513916015625 128.61619567871094
v -1647.5948486328125 -189.83990478515625 128.6091766357422
v -1651.9033203125 -188.25006103515625 124.01596069335938
v -1644.1429443359375 -180.46295166015625 138.61619567871094
v -1644.138916015625 -180.45513916015625 128.61619567871094
v -1644.1429443359375 -180.46295166015625 138.61619567871094
v -1647.59521484375 -189.84967041015625 138.6092071533203
v -1643.36376953125 -191.40435791015625 138.6092071533203
v -1639.91162109375 -182.01763916015625 138.61619567871094
v -1643.3634033203125 -191.39654541015625 128.60922241210938
v -1643.36376953125 -191.40435791015625 138.6092071533203
v -1647.5948486328125 -189.83990478515625 128.6091766357422
v -1644.138916015625 -180.45513916015625 128.61619567871094
v -1639.9088134765625 -182.01568603515625 128.61619567871094
v -1643.3634033203125 -191.39654541015625 128.60922241210938
v -1639.91162109375 -182.01763916015625 138.61619567871094
v -1639.9088134765625 -182.01568603515625 128.61619567871094
v -1303.017333984375 759.3319702148438 97.39108276367188
v -1293.775146484375 755.5175170898438 97.39108276367188
v -1297.595703125 746.2714233398438 97.38867950439453
v -1306.836669921875 750.0917358398438 97.38867950439453
v -1285.3685302734375 752.0311889648438 139.19662475585938
v -1289.1842041015625 742.7890014648438 139.19422912597656
v -1289.1864013671875 742.7909545898438 129.1942138671875
v -1285.3658447265625 752.0350952148438 129.19662475585938
v -1303.017333984375 759.3319702148438 97.39108276367188
v -1306.836669921875 750.0917358398438 97.38867950439453
v -1306.8397216796875 750.0839233398438 124.6009521484375
v -1303.0203857421875 759.3241577148438 124.60340118408203
v -1306.836669921875 750.0917358398438 97.38867950439453
v -1297.595703125 746.2714233398438 97.38867950439453
v -1297.597412109375 746.2694702148438 124.6009521484375
v -1306.8397216796875 750.0839233398438 124.6009521484375
v -1297.595703125 746.2714233398438 97.38867950439453
v -1293.775146484375 755.5175170898438 97.39108276367188
v -1293.7781982421875 755.5097045898438 124.60336303710938
v -1297.597412109375 746.2694702148438 124.6009521484375
v -1293.775146484375 755.5175170898438 97.39108276367188
v -1303.017333984375 759.3319702148438 97.39108276367188
v -1303.0203857421875 759.3241577148438 124.60340118408203
v -1293.7781982421875 755.5097045898438 124.60336303710938
v -1306.8397216796875 750.0839233398438 124.6009521484375
v -1293.3536376953125 744.5097045898438 139.19422912597656
v -1289.534423828125 753.7499389648438 139.19662475585938
v -1303.0203857421875 759.3241577148438 124.60340118408203
v -1293.3509521484375 744.5136108398438 129.1942138671875
v -1293.3536376953125 744.5097045898438 139.19422912597656
v -1293.7781982421875 755.5097045898438 124.60336303710938
v -1289.5352783203125 753.7557983398438 129.19662475585938
v -1293.3509521484375 744.5136108398438 129.1942138671875
v -1297.597412109375 746.2694702148438 124.6009521484375
v -1289.534423828125 753.7499389648438 139.19662475585938
v -1289.5352783203125 753.7557983398438 129.19662475585938
v -1289.534423828125 753.7499389648438 139.19662475585938
v -1293.3536376953125 744.5097045898438 139.19422912597656
v -1289.1842041015625 742.7890014648438 139.19422912597656
v -1285.3685302734375 752.0311889648438 139.19662475585938
v -1289.1864013671875 742.7909545898438 129.1942138671875
v -1289.1842041015625 742.7890014648438 139.19422912597656
v -1293.3509521484375 744.5136108398438 129.1942138671875
v -1289.5352783203125 753.7557983398438 129.19662475585938
v -1285.3658447265625 752.0350952148438 129.19662475585938
v -1289.1864013671875 742.7909545898438 129.1942138671875
v -1285.3685302734375 752.0311889648438 139.19662475585938
v -1285.3658447265625 752.0350952148438 129.19662475585938
v -911.6904907226562 1679.3673095703125 97.50956726074219
v -902.6148681640625 1675.171875 97.50956726074219
v -906.8120727539062 1666.0938720703125 97.51201629638672
v -915.8901977539062 1670.2930908203125 97.51201629638672
v -894.3480834960938 1671.3594970703125 139.31509399414062
v -898.5491333007812 1662.28125 139.3175811767578
v -898.5477294921875 1662.28125 129.3175811767578
v -894.3516235351562 1671.35546875 129.31509399414062
v -911.6904907226562 1679.3673095703125 97.50956726074219
v -915.8901977539062 1670.2930908203125 97.51201629638672
v -915.8843383789062 1670.3009033203125 124.72432708740234
v -911.6884155273438 1679.3751220703125 124.72187805175781
v -915.8901977539062 1670.2930908203125 97.51201629638672
v -906.8120727539062 1666.0938720703125 97.51201629638672
v -906.8099365234375 1666.1016845703125 124.72432708740234
v -915.8843383789062 1670.3009033203125 124.72432708740234
v -906.8120727539062 1666.0938720703125 97.51201629638672
v -902.6148681640625 1675.171875 97.50956726074219
v -902.614013671875 1675.1759033203125 124.72185516357422
v -906.8099365234375 1666.1016845703125 124.72432708740234
v -902.6148681640625 1675.171875 97.50956726074219
v -911.6904907226562 1679.3673095703125 97.50956726074219
v -911.6884155273438 1679.3751220703125 124.72187805175781
v -902.614013671875 1675.1759033203125 124.72185516357422
v -915.8843383789062 1670.3009033203125 124.72432708740234
v -902.640380859375 1664.1795654296875 139.31753540039062
v -898.4407958984375 1673.2537841796875 139.31509399414062
v -911.6884155273438 1679.3751220703125 124.72187805175781
v -902.6403198242188 1664.1717529296875 129.3175811767578
v -902.640380859375 1664.1795654296875 139.31753540039062
v -902.614013671875 1675.1759033203125 124.72185516357422
v -898.4442138671875 1673.25 129.31509399414062
v -902.6403198242188 1664.1717529296875 129.3175811767578
v -906.8099365234375 1666.1016845703125 124.72432708740234
v -898.4407958984375 1673.2537841796875 139.31509399414062
v -898.4442138671875 1673.25 129.31509399414062
v -898.4407958984375 1673.2537841796875 139.31509399414062
v -902.640380859375 1664.1795654296875 139.31753540039062
v -898.5491333007812 1662.28125 139.3175811767578
v -894.3480834960938 1671.3594970703125 139.31509399414062
v -898.5477294921875 1662.28125 129.3175811767578
v -898.5491333007812 1662.28125 139.3175811767578
v -902.6403198242188 1664.1717529296875 129.3175811767578
v -898.4442138671875 1673.25 129.31509399414062
v -894.3516235351562 1671.35546875 129.31509399414062
v -898.5477294921875 1662.28125 129.3175811767578
v -894.3480834960938 1671.3594970703125 139.31509399414062
v -894.3516235351562 1671.35546875 129.31509399414062
v 881.269775390625 -2022.3748779296875 91.95999908447266
v 871.764892578125 -2019.2655029296875 91.95999908447266
v 874.8748168945312 -2009.763671875 91.9712905883789
v 884.3797607421875 -2012.873046875 91.9712905883789
v 863.1008911132812 -2016.48046875 133.7655029296875
v 866.208984375 -2006.9783935546875 133.77679443359375
v 866.21240234375 -2006.966796875 123.77680206298828
v 863.1043090820312 -2016.470703125 123.76554107666016
v 881.269775390625 -2022.3748779296875 91.95999908447266
v 884.3797607421875 -2012.873046875 91.9712905883789
v 884.3689575195312 -2012.9022216796875 119.18354034423828
v 881.2608642578125 -2022.404296875 119.17227172851562
v 884.3797607421875 -2012.873046875 91.9712905883789
v 874.8748168945312 -2009.763671875 91.9712905883789
v 874.8640747070312 -2009.7928466796875 119.18354034423828
v 884.3689575195312 -2012.9022216796875 119.18354034423828
v 874.8748168945312 -2009.763671875 91.9712905883789
v 871.764892578125 -2019.2655029296875 91.95999908447266
v 871.7559204101562 -2019.294921875 119.17227172851562
v 874.8640747070312 -2009.7928466796875 119.18354034423828
v 871.764892578125 -2019.2655029296875 91.95999908447266
v 881.269775390625 -2022.3748779296875 91.95999908447266
v 881.2608642578125 -2022.404296875 119.17227172851562
v 871.7559204101562 -2019.294921875 119.17227172851562
v 884.3689575195312 -2012.9022216796875 119.18354034423828
v 870.4946899414062 -2008.3790283203125 133.7768096923828
v 867.384765625 -2017.880859375 133.7655029296875
v 881.2608642578125 -2022.404296875 119.17227172851562
v 870.498046875 -2008.3671875 123.77680206298828
v 870.4946899414062 -2008.3790283203125 133.7768096923828
v 871.7559204101562 -2019.294921875 119.17227172851562
v 867.3899536132812 -2017.87109375 123.76554107666016
v 870.498046875 -2008.3671875 123.77680206298828
v 874.8640747070312 -2009.7928466796875 119.18354034423828
v 867.384765625 -2017.880859375 133.7655029296875
v 867.3899536132812 -2017.87109375 123.76554107666016
v 867.384765625 -2017.880859375 133.7655029296875
v 870.4946899414062 -2008.3790283203125 133.7768096923828
v 866.208984375 -2006.9783935546875 133.77679443359375
v 863.1008911132812 -2016.48046875 133.7655029296875
v 866.21240234375 -2006.966796875 123.77680206298828
v 866.208984375 -2006.9783935546875 133.77679443359375
v 870.498046875 -2008.3671875 123.77680206298828
v 867.3899536132812 -2017.87109375 123.76554107666016
v 863.1043090820312 -2016.470703125 123.76554107666016
v 866.21240234375 -2006.966796875 123.77680206298828
v 863.1008911132812 -2016.48046875 133.7655029296875
v 863.1043090820312 -2016.470703125 123.76554107666016
v 1205.386474609375 -1076.498046875 92.92289733886719
v 1196.001953125 -1073.044921875 92.92289733886719
v 1199.4541015625 -1063.66015625 92.92985534667969
v 1208.838623046875 -1067.111328125 92.92985534667969
v 1187.44921875 -1069.9315185546875 134.72842407226562
v 1190.901611328125 -1060.5447998046875 134.73538208007812
v 1190.905517578125 -1060.5389404296875 124.73538970947266
v 1187.451416015625 -1069.9237060546875 124.72843170166016
v 1205.386474609375 -1076.498046875 92.92289733886719
v 1208.838623046875 -1067.111328125 92.92985534667969
v 1208.833740234375 -1067.1287841796875 120.14216613769531
v 1205.379638671875 -1076.5155029296875 120.13517761230469
v 1208.838623046875 -1067.111328125 92.92985534667969
v 1199.4541015625 -1063.66015625 92.92985534667969
v 1199.447265625 -1063.6776123046875 120.14216613769531
v 1208.833740234375 -1067.1287841796875 120.14216613769531
v 1199.4541015625 -1063.66015625 92.92985534667969
v 1196.001953125 -1073.044921875 92.92289733886719
v 1195.9951171875 -1073.0643310546875 120.13517761230469
v 1199.447265625 -1063.6776123046875 120.14216613769531
v 1196.001953125 -1073.044921875 92.92289733886719
v 1205.386474609375 -1076.498046875 92.92289733886719
v 1205.379638671875 -1076.5155029296875 120.13517761230469
v 1195.9951171875 -1073.0643310546875 120.13517761230469
v 1208.833740234375 -1067.1287841796875 120.14216613769531
v 1195.1328125 -1062.1014404296875 134.73538208007812
v 1191.6806640625 -1071.4881591796875 134.72842407226562
v 1205.379638671875 -1076.5155029296875 120.13517761230469
v 1195.135009765625 -1062.0936279296875 124.73538970947266
v 1195.1328125 -1062.1014404296875 134.73538208007812
v 1195.9951171875 -1073.0643310546875 120.13517761230469
v 1191.682861328125 -1071.4803466796875 124.72844696044922
v 1195.135009765625 -1062.0936279296875 124.73538970947266
v 1199.447265625 -1063.6776123046875 120.14216613769531
v 1191.6806640625 -1071.4881591796875 134.72842407226562
v 1191.682861328125 -1071.4803466796875 124.72844696044922
v 1191.6806640625 -1071.4881591796875 134.72842407226562
v 1195.1328125 -1062.1014404296875 134.73538208007812
v 1190.901611328125 -1060.5447998046875 134.73538208007812
v 1187.44921875 -1069.9315185546875 134.72842407226562
v 1190.905517578125 -1060.5389404296875 124.73538970947266
v 1190.901611328125 -1060.5447998046875 134.73538208007812
v 1195.135009765625 -1062.0936279296875 124.73538970947266
v 1191.682861328125 -1071.4803466796875 124.72844696044922
v 1187.451416015625 -1069.9237060546875 124.72843170166016
v 1190.905517578125 -1060.5389404296875 124.73538970947266
v 1187.44921875 -1069.9315185546875 134.72842407226562
v 1187.451416015625 -1069.9237060546875 124.72843170166016
v 1567.585693359375 -144.5546112060547 93.41061401367188
v 1558.3427734375 -140.7342987060547 93.41061401367188
v 1562.160400390625 -131.4940643310547 93.41299438476562
v 1571.403076171875 -135.3143768310547 93.41299438476562
v 1549.92724609375 -137.2714080810547 135.2161407470703
v 1553.744873046875 -128.0311737060547 135.2185516357422
v 1553.74560546875 -128.0272674560547 125.21856689453125
v 1549.92822265625 -137.2675018310547 125.21614837646484
v 1567.585693359375 -144.5546112060547 93.41061401367188
v 1571.403076171875 -135.3143768310547 93.41299438476562
v 1571.4013671875 -135.3163299560547 120.62530517578125
v 1567.583984375 -144.5585174560547 120.62289428710938
v 1571.403076171875 -135.3143768310547 93.41299438476562
v 1562.160400390625 -131.4940643310547 93.41299438476562
v 1562.1572265625 -131.4999237060547 120.62530517578125
v 1571.4013671875 -135.3163299560547 120.62530517578125
v 1562.160400390625 -131.4940643310547 93.41299438476562
v 1558.3427734375 -140.7342987060547 93.41061401367188
v 1558.341552734375 -140.7421112060547 120.6229248046875
v 1562.1572265625 -131.4999237060547 120.62530517578125
v 1558.3427734375 -140.7342987060547 93.41061401367188
v 1567.585693359375 -144.5546112060547 93.41061401367188
v 1567.583984375 -144.5585174560547 120.62289428710938
v 1558.341552734375 -140.7421112060547 120.6229248046875
v 1571.4013671875 -135.3163299560547 120.62530517578125
v 1557.912353515625 -129.7499237060547 135.2185516357422
v 1554.094970703125 -138.9921112060547 135.2161407470703
v 1567.583984375 -144.5585174560547 120.62289428710938
v 1557.913330078125 -129.7460174560547 125.21856689453125
v 1557.912353515625 -129.7499237060547 135.2185516357422
v 1558.341552734375 -140.7421112060547 120.6229248046875
v 1554.094482421875 -138.9921112060547 125.21614837646484
v 1557.913330078125 -129.7460174560547 125.21856689453125
v 1562.1572265625 -131.4999237060547 120.62530517578125
v 1554.094970703125 -138.9921112060547 135.2161407470703
v 1554.094482421875 -138.9921112060547 125.21614837646484
v 1554.094970703125 -138.9921112060547 135.2161407470703
v 1557.912353515625 -129.7499237060547 135.2185516357422
v 1553.744873046875 -128.0311737060547 135.2185516357422
v 1549.92724609375 -137.2714080810547 135.2161407470703
v 1553.74560546875 -128.0272674560547 125.21856689453125
v 1553.744873046875 -128.0311737060547 135.2185516357422
v 1557.913330078125 -129.7460174560547 125.21856689453125
v 1554.094482421875 -138.9921112060547 125.21614837646484
v 1549.92822265625 -137.2675018310547 125.21614837646484
v 1553.74560546875 -128.0272674560547 125.21856689453125
v 1549.92724609375 -137.2714080810547 135.2161407470703
v 1549.92822265625 -137.2675018310547 125.21614837646484
v 1971.2635498046875 770.1641845703125 93.37113189697266
v 1962.18896484375 774.3653564453125 93.37113189697266
v 1966.38818359375 783.4434814453125 93.3686294555664
v 1975.4642333984375 779.2423095703125 93.3686294555664
v 1953.9326171875 778.1973876953125 135.17669677734375
v 1958.13232421875 787.2735595703125 135.17416381835938
v 1958.1318359375 787.2735595703125 125.1741714477539
v 1953.9326171875 778.1934814453125 125.17670440673828
v 1971.2635498046875 770.1641845703125 93.37113189697266
v 1975.4642333984375 779.2423095703125 93.3686294555664
v 1975.4649658203125 779.2462158203125 120.58091735839844
v 1971.267333984375 770.1719970703125 120.58344268798828
v 1975.4642333984375 779.2423095703125 93.3686294555664
v 1966.38818359375 783.4434814453125 93.3686294555664
v 1966.3907470703125 783.4454345703125 120.58094024658203
v 1975.4649658203125 779.2462158203125 120.58091735839844
v 1966.38818359375 783.4434814453125 93.3686294555664
v 1962.18896484375 774.3653564453125 93.37113189697266
v 1962.191162109375 774.3712158203125 120.58344268798828
v 1966.3907470703125 783.4454345703125 120.58094024658203
v 1962.18896484375 774.3653564453125 93.37113189697266
v 1971.2635498046875 770.1641845703125 93.37113189697266
v 1971.267333984375 770.1719970703125 120.58344268798828
v 1962.191162109375 774.3712158203125 120.58344268798828
v 1975.4649658203125 779.2462158203125 120.58091735839844
v 1962.2247314453125 785.3809814453125 135.17417907714844
v 1958.025146484375 776.3067626953125 135.17669677734375
v 1971.267333984375 770.1719970703125 120.58344268798828
v 1962.2230224609375 785.3770751953125 125.1741714477539
v 1962.2247314453125 785.3809814453125 135.17417907714844
v 1962.191162109375 774.3712158203125 120.58344268798828
v 1958.0234375 776.3028564453125 125.17670440673828
v 1962.2230224609375 785.3770751953125 125.1741714477539
v 1966.3907470703125 783.4454345703125 120.58094024658203
v 1958.025146484375 776.3067626953125 135.17669677734375
v 1958.0234375 776.3028564453125 125.17670440673828
v 1958.025146484375 776.3067626953125 135.17669677734375
v 1962.2247314453125 785.3809814453125 135.17417907714844
v 1958.13232421875 787.2735595703125 135.17416381835938
v 1953.9326171875 778.1973876953125 135.17669677734375
v 1958.1318359375 787.2735595703125 125.1741714477539
v 1958.13232421875 787.2735595703125 135.17416381835938
v 1962.2230224609375 785.3770751953125 125.1741714477539
v 1958.0234375 776.3028564453125 125.17670440673828
v 1953.9326171875 778.1934814453125 125.17670440673828
v 1958.1318359375 787.2735595703125 125.1741714477539
v 1953.9326171875 778.1973876953125 135.17669677734375
v 1953.9326171875 778.1934814453125 125.17670440673828
f 347 346 348
f 349 348 346
f 54 52 53
f 50 49 51
f 52 51 49
f 49 53 52
f 53 49 133
f 131 133 49
f 133 131 187
f 185 187 131
f 187 185 238
f 236 238 185
f 185 186 236
f 237 236 186
f 186 185 132
f 131 132 185
f 132 131 50
f 49 50 131
f 226 225 227
f 225 171 227
f 224 171 225
f 170 171 224
f 171 170 118
f 117 118 170
f 118 117 22
f 21 22 117
f 22 21 23
f 24 23 21
f 448 447 449
f 450 449 447
f 424 423 425
f 426 425 423
f 416 415 417
f 415 342 417
f 367 417 342
f 343 368 367
f 342 343 367
f 343 342 339
f 338 339 342
f 339 338 331
f 330 331 338
f 331 330 332
f 333 332 330
f 362 361 360
f 173 360 361
f 172 173 361
f 173 172 120
f 119 120 172
f 120 119 26
f 25 26 119
f 26 25 27
f 28 27 25
f 380 379 381
f 382 381 379
f 418 357 358
f 357 356 358
f 359 358 356
f 229 228 178
f 177 178 228
f 178 177 124
f 123 124 177
f 124 123 34
f 33 34 123
f 34 33 35
f 36 35 33
f 231 230 180
f 179 180 230
f 180 179 126
f 125 126 179
f 126 125 38
f 37 38 125
f 38 37 39
f 40 39 37
f 233 232 182
f 181 182 232
f 182 181 128
f 127 128 181
f 128 127 42
f 41 42 127
f 42 41 43
f 44 43 41
f 235 234 184
f 183 184 234
f 184 183 130
f 129 130 183
f 130 129 46
f 45 46 129
f 46 45 47
f 48 47 45
f 248 247 197
f 196 197 247
f 197 196 143
f 142 143 196
f 143 142 72
f 71 72 142
f 72 71 73
f 74 73 71
f 250 249 199
f 198 199 249
f 199 198 145
f 144 145 198
f 145 144 76
f 75 76 144
f 76 75 77
f 78 77 75
f 252 251 201
f 200 201 251
f 201 200 147
f 146 147 200
f 147 146 80
f 79 80 146
f 80 79 81
f 82 81 79
f 254 253 203
f 202 203 253
f 203 202 149
f 148 149 202
f 149 148 84
f 83 84 148
f 84 83 85
f 86 85 83
f 260 259 209
f 208 209 259
f 209 208 155
f 154 155 208
f 155 154 96
f 95 96 154
f 96 95 97
f 98 97 95
f 262 261 211
f 210 211 261
f 211 210 157
f 156 157 210
f 157 156 100
f 99 100 156
f 100 99 101
f 102 101 99
f 215 214 161
f 160 161 214
f 161 160 108
f 107 108 160
f 108 107 2
f 1 2 107
f 2 1 3
f 4 3 1
f 217 216 163
f 162 163 216
f 163 162 110
f 109 110 162
f 110 109 6
f 5 6 109
f 6 5 7
f 8 7 5
f 223 222 169
f 168 169 222
f 169 168 116
f 115 116 168
f 116 115 18
f 17 18 115
f 18 17 19
f 20 19 17
f 66 65 63
f 64 63 65
f 63 64 138
f 139 138 64
f 138 139 192
f 193 192 139
f 192 193 243
f 244 243 193
f 246 245 195
f 194 195 245
f 195 194 141
f 140 141 194
f 141 140 68
f 67 68 140
f 68 67 69
f 70 69 67
f 240 239 189
f 188 189 239
f 189 188 135
f 134 135 188
f 135 134 56
f 55 56 134
f 56 55 57
f 58 57 55
f 242 241 191
f 190 191 241
f 191 190 137
f 136 137 190
f 137 136 60
f 59 60 136
f 60 59 61
f 62 61 59
f 351 350 345
f 344 345 350
f 345 344 341
f 340 341 344
f 341 340 335
f 334 335 340
f 335 334 336
f 337 336 334
f 16 14 15
f 220 221 166
f 167 166 221
f 166 167 113
f 114 113 167
f 113 114 13
f 15 13 114
f 13 15 14
f 14 12 13
f 9 13 12
f 12 11 9
f 218 220 164
f 166 164 220
f 164 166 111
f 113 111 166
f 111 113 9
f 13 9 113
f 10 9 11
f 9 10 111
f 112 111 10
f 111 112 164
f 165 164 112
f 164 165 218
f 219 218 165
f 90 89 87
f 87 91 90
f 91 87 152
f 152 153 91
f 153 152 207
f 206 207 152
f 207 206 258
f 257 258 206
f 206 204 257
f 255 257 204
f 204 205 255
f 256 255 205
f 151 150 88
f 87 88 150
f 150 152 87
f 152 150 206
f 204 206 150
f 150 151 204
f 205 204 151
f 88 87 89
f 94 92 93
f 92 90 91
f 91 93 92
f 93 91 153
f 121 174 176
f 32 31 29
f 30 29 31
f 29 30 121
f 122 121 30
f 122 174 121
f 175 174 122
f 296 295 293
f 294 293 295
f 293 294 309
f 310 309 294
f 309 310 317
f 318 317 310
f 304 303 301
f 302 301 303
f 301 302 313
f 314 313 302
f 313 314 322
f 323 322 314
f 322 323 326
f 327 326 323
f 308 307 305
f 306 305 307
f 305 306 315
f 316 315 306
f 315 316 324
f 325 324 316
f 324 325 328
f 329 328 325
f 320 319 321
f 321 319 312
f 312 319 311
f 312 311 298
f 297 298 311
f 298 297 299
f 300 299 297
f 106 105 103
f 104 103 105
f 103 104 158
f 159 158 104
f 158 159 212
f 213 212 159
f 212 213 263
f 264 263 213
f 291 290 292
f 464 463 465
f 466 465 463
f 460 459 461
f 462 461 459
f 456 455 457
f 458 457 455
f 452 451 453
f 454 453 451
f 444 443 445
f 446 445 443
f 440 439 441
f 442 441 439
f 436 435 437
f 438 437 435
f 432 431 433
f 434 433 431
f 428 427 429
f 430 429 427
f 420 419 421
f 422 421 419
f 412 411 413
f 413 411 414
f 402 401 403
f 403 401 404
f 392 391 393
f 394 393 391
f 388 387 389
f 390 389 387
f 384 383 385
f 386 385 383
f 378 377 375
f 376 375 377
f 364 363 365
f 366 365 363
f 353 352 354
f 355 354 352
f 266 265 267
f 267 265 268
f 268 265 269
f 370 369 371
f 409 408 410
f 373 372 374
f 406 405 407
f 396 395 397
f 399 398 400
f 492 491 493
f 494 493 491
f 676 675 664
f 663 664 675
f 663 649 664
f 650 664 649
f 650 649 647
f 648 647 649
f 656 655 657
f 658 657 655
f 658 670 657
f 669 657 670
f 669 670 681
f 682 681 670
f 800 799 801
f 802 801 799
f 802 814 801
f 813 801 814
f 813 814 825
f 826 825 814
f 916 915 904
f 903 904 915
f 903 889 904
f 890 904 889
f 890 889 887
f 888 887 889
f 496 495 497
f 498 497 495
f 500 499 501
f 502 501 499
f 504 503 505
f 506 505 503
f 508 507 509
f 510 509 507
f 512 511 513
f 514 513 511
f 516 515 517
f 518 517 515
f 520 519 521
f 522 521 519
f 524 523 525
f 526 525 523
f 528 527 529
f 530 529 527
f 532 531 533
f 534 533 531
f 536 535 537
f 538 537 535
f 540 539 541
f 542 541 539
f 544 543 545
f 546 545 543
f 548 547 549
f 550 549 547
f 552 551 553
f 554 553 551
f 556 555 557
f 558 557 555
f 560 559 561
f 562 561 559
f 564 563 565
f 566 565 563
f 568 567 569
f 570 569 567
f 572 571 573
f 574 573 571
f 576 575 577
f 578 577 575
f 580 579 581
f 582 581 579
f 584 583 585
f 586 585 583
f 588 587 589
f 590 589 587
f 592 591 593
f 594 593 591
f 596 595 597
f 598 597 595
f 600 599 601
f 602 601 599
f 602 616 601
f 615 601 616
f 615 616 627
f 628 627 616
f 604 603 605
f 606 605 603
f 608 607 609
f 610 609 607
f 610 622 609
f 621 609 622
f 621 622 633
f 634 633 622
f 612 611 613
f 614 613 611
f 618 617 619
f 620 619 617
f 624 623 625
f 626 625 623
f 630 629 631
f 632 631 629
f 636 635 637
f 638 637 635
f 640 639 641
f 642 641 639
f 644 643 645
f 646 645 643
f 652 651 653
f 654 653 651
f 660 659 661
f 662 661 659
f 666 665 667
f 668 667 665
f 672 671 673
f 674 673 671
f 678 677 679
f 680 679 677
f 684 683 685
f 686 685 683
f 688 687 689
f 690 689 687
f 692 691 693
f 694 693 691
f 696 695 697
f 698 697 695
f 698 712 697
f 711 697 712
f 711 712 723
f 724 723 712
f 700 699 701
f 702 701 699
f 704 703 705
f 706 705 703
f 706 718 705
f 717 705 718
f 717 718 729
f 730 729 718
f 708 707 709
f 710 709 707
f 714 713 715
f 716 715 713
f 720 719 721
f 722 721 719
f 726 725 727
f 728 727 725
f 732 731 733
f 734 733 731
f 736 735 737
f 738 737 735
f 740 739 741
f 742 741 739
f 744 743 745
f 746 745 743
f 746 760 745
f 759 745 760
f 759 760 771
f 772 771 760
f 748 747 749
f 750 749 747
f 752 751 753
f 754 753 751
f 754 766 753
f 765 753 766
f 765 766 777
f 778 777 766
f 756 755 757
f 758 757 755
f 762 761 763
f 764 763 761
f 768 767 769
f 770 769 767
f 774 773 775
f 776 775 773
f 780 779 781
f 782 781 779
f 784 783 785
f 786 785 783
f 788 787 789
f 790 789 787
f 792 791 793
f 794 793 791
f 794 808 793
f 807 793 808
f 807 808 819
f 820 819 808
f 796 795 797
f 798 797 795
f 804 803 805
f 806 805 803
f 810 809 811
f 812 811 809
f 816 815 817
f 818 817 815
f 822 821 823
f 824 823 821
f 828 827 829
f 830 829 827
f 832 831 833
f 834 833 831
f 836 835 837
f 838 837 835
f 840 839 841
f 842 841 839
f 842 856 841
f 855 841 856
f 855 856 867
f 868 867 856
f 844 843 845
f 846 845 843
f 848 847 849
f 850 849 847
f 850 862 849
f 861 849 862
f 861 862 873
f 874 873 862
f 852 851 853
f 854 853 851
f 858 857 859
f 860 859 857
f 864 863 865
f 866 865 863
f 870 869 871
f 872 871 869
f 876 875 877
f 878 877 875
f 880 879 881
f 882 881 879
f 884 883 885
f 886 885 883
f 892 891 893
f 894 893 891
f 896 895 897
f 898 897 895
f 898 910 897
f 909 897 910
f 909 910 921
f 922 921 910
f 900 899 901
f 902 901 899
f 906 905 907
f 908 907 905
f 912 911 913
f 914 913 911
f 918 917 919
f 920 919 917
f 468 467 469
f 470 469 467
f 472 471 473
f 474 473 471
f 476 475 477
f 478 477 475
f 480 479 481
f 482 481 479
f 484 483 485
f 486 485 483
f 488 487 489
f 490 489 487
f 273 272 270
f 271 270 272
f 270 271 278
f 279 278 271
f 278 279 282
f 283 282 279
f 282 283 286
f 287 286 283
f 289 288 285
f 284 285 288
f 285 284 281
f 280 281 284
f 281 280 275
f 274 275 280
f 275 274 276
f 277 276 274
