v -2.5775387287139893 -43.82276153564453 -10.96967887878418
v 0.02192864939570427 -0.0007086722180247307 -10.601001739501953
v -1698.921142578125 41.132530212402344 -9.898768424987793
v -1701.9075927734375 -2.0216526985168457 -11.123807907104492
v 0.019522467628121376 0.0017361639766022563 1.144564612332033e-05
v 0.02192864939570427 -0.0007086722180247307 -10.601001739501953
v -2.5775387287139893 -43.82276153564453 -10.96967887878418
v -2.50657057762146 -43.83648681640625 -0.3686363399028778
v -1701.90771484375 -2.021261692047119 -0.5227802395820618
v -1701.9075927734375 -2.0216526985168457 -11.123807907104492
v -1698.921142578125 41.132530212402344 -9.898768424987793
v -1698.9185791015625 41.13190841674805 0.7022519111633301
v -1698.9185791015625 41.13190841674805 0.7022519111633301
v -1698.921142578125 41.132530212402344 -9.898768424987793
v 0.02192864939570427 -0.0007086722180247307 -10.601001739501953
v 0.019522467628121376 0.0017361639766022563 1.144564612332033e-05
v -2.50657057762146 -43.83648681640625 -0.3686363399028778
v -2.5775387287139893 -43.82276153564453 -10.96967887878418
v -1701.9075927734375 -2.0216526985168457 -11.123807907104492
v -1701.90771484375 -2.021261692047119 -0.5227802395820618
v -2.50657057762146 -43.83648681640625 -0.3686363399028778
v 0.019522467628121376 0.0017361639766022563 1.144564612332033e-05
v -49.81564712524414 1.2082327604293823 0.020610162988305092
v -52.489017486572266 -42.61219024658203 -0.37317076325416565
v -449.87841796875 10.893477439880371 0.1859724521636963
v -452.54205322265625 -32.767189025878906 -0.4094576835632324
v -849.7679443359375 20.574542999267578 0.35126325488090515
v -852.421875 -22.92644691467285 -0.4457283318042755
v -1649.529052734375 39.936214447021484 0.6818371415138245
v -1652.1634521484375 -3.245401620864868 -0.5182682275772095
v -1698.9185791015625 41.13190841674805 0.7022519111633301
v -1701.90771484375 -2.021261692047119 -0.5227802395820618
f 2 1 3
f 4 3 1
f 6 5 7
f 8 7 5
f 10 9 11
f 12 11 9
f 14 13 15
f 16 15 13
f 18 17 19
f 20 19 17
f 22 21 23
f 24 23 21
f 23 24 25
f 26 25 24
f 25 26 27
f 28 27 26
f 27 28 29
f 30 29 28
f 29 30 31
f 32 31 30
