v 1206.75048828125 -937.8661499023438 -4.968418121337891
v 1262.225341796875 -339.31268310546875 -4.968468189239502
v 1193.896484375 -936.3158569335938 -4.968419551849365
v 1253.90625 -338.30560302734375 -4.968469142913818
v 743.5303344726562 -864.5202026367188 -4.968445301055908
v 852.490234375 -274.3163757324219 -4.96849250793457
v 424.713134765625 -184.46653747558594 -4.9685187339782715
v 284.0332336425781 -768.011474609375 -4.9684739112854
v 9.96704387664795 -71.417236328125 -4.9685468673706055
v -167.42550659179688 -644.95849609375 -4.968503952026367
v -394.775390625 68.93919372558594 -4.968576908111572
v -612.310791015625 -490.6738586425781 -4.968537330627441
v -792.54150390625 240.72872924804688 -4.96860933303833
v -1051.617431640625 -300.94610595703125 -4.968573093414307
v -1486.2060546875 -72.16193389892578 -4.968612194061279
v -1186.370849609375 448.05291748046875 -4.968644618988037
v -1469.043212890625 625.7311401367188 -4.968672752380371
v -1825.6044921875 141.1669158935547 -4.968645095825195
v 1202.130126953125 -987.7440795898438 -4.968414783477783
v 1188.897705078125 -986.1510620117188 -4.968415260314941
v 734.4483032226562 -913.7023315429688 -4.968441486358643
v 272.3083801269531 -816.63818359375 -4.968470096588135
v -182.20822143554688 -692.7490234375 -4.968501091003418
v -630.438232421875 -537.310791015625 -4.968533992767334
v -1073.211669921875 -346.08770751953125 -4.968569755554199
v -1511.19384765625 -115.51520538330078 -4.968609809875488
v -1855.31640625 100.79254913330078 -4.968642711639404
v 1317.694091796875 259.24688720703125 -4.9685187339782715
v 1322.314453125 309.12481689453125 -4.968523025512695
v 1313.916015625 259.70465087890625 -4.96851921081543
v 1318.914794921875 309.53375244140625 -4.968523025512695
v 961.4501953125 315.8935852050781 -4.968539237976074
v 970.526123046875 365.0757141113281 -4.96854305267334
v 577.11181640625 447.7051086425781 -4.968567371368408
v 565.39306640625 399.0783996582031 -4.968563556671143
v 202.13619995117188 549.91455078125 -4.968592643737793
v 187.35350036621094 502.117919921875 -4.9685893058776855
v -159.11257934570312 675.1953125 -4.9686198234558105
v -177.24002075195312 628.558349609375 -4.968616008758545
v -511.8774719238281 827.545166015625 -4.968648433685303
v -533.4656372070312 782.403564453125 -4.968645095825195
v -886.5296020507812 968.2677612304688 -4.968677043914795
v -861.5418090820312 1011.6210327148438 -4.968679428100586
v -1082.7698974609375 1150.6766357421875 -4.968701362609863
v -1112.488037109375 1110.29541015625 -4.9686994552612305
v 1200.28076171875 -1007.6964721679688 5.031587600708008
v 1186.895751953125 -1006.0851440429688 5.031586647033691
v 1145.9383544921875 -1414.25341796875 5.031620502471924
v 1162.4158935546875 -1416.23681640625 5.031621932983398
v 730.8167114257812 -933.3800659179688 5.03156042098999
v 656.4468383789062 -1336.218017578125 5.03159236907959
v 267.6147766113281 -836.090087890625 5.031531810760498
v 171.5977783203125 -1234.3822021484375 5.031562328338623
v -188.12252807617188 -711.871337890625 5.031501293182373
v -309.19879150390625 -1103.3333740234375 5.031529903411865
v -637.689208984375 -555.963134765625 5.031467914581299
v -786.1672973632812 -937.9212036132812 5.031494140625
v -1081.84814453125 -364.14190673828125 5.031431674957275
v -1258.67578125 -733.8579711914062 5.031456470489502
v -1521.19140625 -132.85528564453125 5.0313920974731445
v -1725.8450927734375 -487.92291259765625 5.031414031982422
v -1867.199951171875 84.63614654541016 5.031357765197754
v -2110.5673828125 -246.09884643554688 5.031376361846924
v 1362.02490234375 737.602294921875 5.031442642211914
v 1048.527587890625 787.591064453125 5.031423568725586
v 974.15771484375 384.7473449707031 5.0314555168151855
v 1320.916748046875 329.46783447265625 5.031476020812988
v 677.8223876953125 865.4491577148438 5.031400203704834
v 581.805419921875 467.1570129394531 5.031431198120117
v 329.1268310546875 960.4927978515625 5.03137731552124
v 208.05050659179688 569.03076171875 5.031406402587891
v -3.3834280967712402 1075.8056640625 5.031352996826172
v -151.86160278320312 693.84765625 5.031379699707031
v -326.4134521484375 1215.3154296875 5.0313262939453125
v -503.2409973144531 845.599365234375 5.031351089477539
v -646.8963012695312 1384.02880859375 5.03129768371582
v -851.5442504882812 1028.961181640625 5.031319618225098
v -827.5189819335938 1497.5614013671875 5.031279563903809
v -1070.886474609375 1166.832275390625 5.0312981605529785
v 1202.130126953125 -987.7440795898438 5.031585216522217
v 1188.897705078125 -986.1510620117188 5.031585216522217
v 734.4483032226562 -913.7023315429688 5.031558990478516
v 272.3083801269531 -816.63818359375 5.031530380249023
v -182.20822143554688 -692.7490234375 5.03149938583374
v -630.438232421875 -537.310791015625 5.031466007232666
v -1073.211669921875 -346.08770751953125 5.031430244445801
v -1511.19384765625 -115.51520538330078 5.03139066696167
v -1855.31640625 100.79254913330078 5.031357288360596
v 1322.314453125 309.12481689453125 5.031476974487305
v 1318.914794921875 309.53375244140625 5.031477451324463
v 970.526123046875 365.0757141113281 5.031457424163818
v 577.11181640625 447.7051086425781 5.03143310546875
v 202.13619995117188 549.91455078125 5.031407833099365
v -159.11257934570312 675.1953125 5.031380653381348
v -511.8774719238281 827.545166015625 5.0313520431518555
v -861.5418090820312 1011.6210327148438 5.031321048736572
v -1082.7698974609375 1150.6766357421875 5.031299114227295
v 1324.163818359375 329.07720947265625 5.031476020812988
v -1861.6214599609375 169.3639373779297 -4.968649864196777
v -1969.6781005859375 253.9525604248047 -4.968662261962891
v -1983.0875244140625 264.4505920410156 -4.968663215637207
v -2087.79345703125 1110.0926513671875 -4.968741416931152
v -2383.42333984375 577.8294677734375 -4.968708038330078
v -2458.4599609375 636.5758056640625 -4.968716144561768
v -2261.072265625 1248.6973876953125 -4.968760967254639
v -2658.624755859375 797.5072021484375 -4.9687395095825195
v -2509.735595703125 1468.6741943359375 -4.9687910079956055
v -2944.952880859375 1053.6900634765625 -4.96877384185791
v -3120.929443359375 1240.1707763671875 -4.96879768371582
v -2663.0986328125 1628.6229248046875 -4.968811988830566
v -2734.79052734375 1713.9378662109375 -4.968822956085205
v -3203.729736328125 1338.9683837890625 -4.968810558319092
v -3275.629150390625 1428.8914794921875 -4.968821048736572
v -3429.144775390625 1620.8775634765625 -4.968844413757324
v -3060.919677734375 2121.79296875 -4.968873023986816
v -3554.047119140625 1777.0787353515625 -4.968864440917969
v -1892.5113525390625 129.9047088623047 -4.968647480010986
v -2000.5008544921875 214.5787811279297 -4.968658924102783
v -2012.7322998046875 224.1551971435547 -4.968661308288574
v -2414.24609375 538.4617919921875 -4.968705654144287
v -2462.811767578125 596.3353271484375 -4.968713283538818
v -2452.576171875 547.3973388671875 -4.968708515167236
v -2484.119140625 523.8499755859375 -4.968708038330078
v -2528.1376953125 547.5682373046875 -4.968711853027344
v -2767.120849609375 104.1478271484375 -4.96868371963501
v -2723.236572265625 80.1854248046875 -4.968679904937744
v -2862.006103515625 -71.9080810546875 -4.968671798706055
v -2818.1279296875 -95.8704833984375 -4.968667507171631
v -3783.54541015625 431.3572692871094 -4.968756675720215
v -3739.6611328125 407.3887634277344 -4.968752861022949
v -3666.888916015625 542.4107055664062 -4.9687604904174805
v -3710.9013671875 566.1350708007812 -4.968764781951904
v -3644.769775390625 583.4507446289062 -4.96876335144043
v -3688.66015625 607.4131469726562 -4.968767166137695
v -3452.509033203125 940.1768188476562 -4.968786239624023
v -3510.87451171875 937.3446655273438 -4.968789100646973
v -3307.257568359375 1315.1463623046875 -4.968812465667725
v -3263.214599609375 1291.4036865234375 -4.968808650970459
v -3314.7099609375 1397.6414794921875 -4.968820571899414
v -3470.23974609375 1592.1483154296875 -4.968843936920166
v -3595.14208984375 1748.3555908203125 -4.9688639640808105
v -1717.120849609375 1583.6094970703125 -4.968766689300537
v -1686.231201171875 1623.0687255859375 -4.968769550323486
v -1830.39599609375 1737.4913330078125 -4.968785762786865
v -1863.519775390625 1699.8936767578125 -4.968783855438232
v -2038.2451171875 1918.2347412109375 -4.968810558319092
v -2074.51220703125 1883.6522216796875 -4.968808174133301
v -2205.26171875 2017.0689697265625 -4.968825817108154
v -2167.108642578125 2049.43603515625 -4.968827724456787
v -2226.776611328125 2120.1513671875 -4.968835830688477
v -2265.857421875 2088.9013671875 -4.968835353851318
v -2526.697265625 2495.230712890625 -4.968882083892822
v -2567.792236328125 2466.50146484375 -4.968880653381348
v -2107.965576171875 273.3067932128906 5.0313334465026855
v -2426.569091796875 522.7147216796875 5.031297206878662
v -2448.48681640625 527.8233642578125 5.0312957763671875
v -2466.5166015625 514.3590087890625 5.031296730041504
v -2331.87060546875 -99.00945281982422 5.0313544273376465
v -2305.609619140625 -93.4078369140625 5.031355381011963
v -2800.57421875 -105.4591064453125 5.031335353851318
v -2441.15283203125 -301.7423400878906 5.031366348266602
v -3728.510009765625 575.6199340820312 5.031235218048096
v -3529.413330078125 945.083984375 5.0312113761901855
v -3807.2978515625 1292.600830078125 5.031167984008789
v -4160.5146484375 637.2230224609375 5.031209468841553
v -3801.09912109375 440.9397888183594 5.031244277954102
v -1904.8709716796875 114.12100982666016 5.03135347366333
v -2012.8299560546875 198.83169555664062 5.031343460083008
v -3805.27392578125 1322.8302001953125 5.031164646148682
v -3324.87841796875 1324.6373291015625 5.031185626983643
v -3330.341064453125 1385.1414794921875 5.031180381774902
v -3611.578857421875 1736.8626708984375 5.031137466430664
v -3948.16162109375 1501.5809326171875 5.031142711639404
v -1420.878173828125 1962.0423583984375 5.031213283538818
v -1673.877685546875 1638.8524169921875 5.031230926513672
v -1545.8062744140625 2060.496826171875 5.031198978424072
v -1817.145263671875 1752.5364990234375 5.031214237213135
v -1726.6820068359375 2215.303466796875 5.031177997589111
v -2023.737060546875 1932.0653076171875 5.031189441680908
v -1891.0771484375 2388.58056640625 5.031155586242676
v -2211.1455078125 2132.6513671875 5.031163692474365
v -2151.84375 2062.3876953125 5.031172752380371
v -1839.3497314453125 2327.5126953125 5.031162738800049
v -2173.677734375 2741.999755859375 5.031112194061279
v -2510.260498046875 2506.7236328125 5.031117916107178
v -3205.9453125 343.7962341308594 -4.968723773956299
v -3300.836669921875 167.74034118652344 -4.96871280670166
v -1892.5113525390625 129.9047088623047 5.031352996826172
v -2000.5008544921875 214.5787811279297 5.031341075897217
v -2414.24609375 538.4617919921875 5.031294345855713
v -2452.576171875 547.3973388671875 5.031291961669922
v -2484.119140625 523.8499755859375 5.03129243850708
v -2818.1279296875 -95.8704833984375 5.031332492828369
v -3783.54541015625 431.3572692871094 5.031243801116943
v -3710.9013671875 566.1350708007812 5.031235218048096
v -3510.887451171875 937.3209838867188 5.0312113761901855
v -3307.257568359375 1315.1463623046875 5.031187534332275
v -3314.7099609375 1397.6414794921875 5.031179904937744
v -3595.14208984375 1748.3555908203125 5.031136512756348
v -1686.231201171875 1623.0687255859375 5.031230926513672
v -1830.39599609375 1737.4913330078125 5.031214714050293
v -2038.2451171875 1918.2347412109375 5.031189918518066
v -2167.108642578125 2049.43603515625 5.031172752380371
v -2226.776611328125 2120.1513671875 5.031164169311523
v -2526.697265625 2495.230712890625 5.031118392944336
v -4178.4853515625 647.0371704101562 5.03120756149292
v -3821.19189453125 1309.9766845703125 5.031165599822998
v -3964.99072265625 1489.8167724609375 5.031143665313721
v 1363.922119140625 758.0444946289062 5.031440258026123
v 1052.24609375 807.7332153320312 5.031422138214111
v 682.6232299804688 885.36376953125 5.031399726867676
v 335.1806335449219 980.06591796875 5.031375885009766
v 4.040480136871338 1094.903564453125 5.031351089477539
v -317.57208251953125 1233.80126953125 5.031325340270996
v -636.6638793945312 1401.7822265625 5.031296730041504
v -815.3507080078125 1514.097900390625 5.031278610229492
v -1408.2281494140625 1978.2017822265625 5.031212329864502
v -1532.2393798828125 2075.894775390625 5.031198501586914
v -1711.829345703125 2229.46533203125 5.031177043914795
v -1823.724853515625 2340.76904296875 5.031162738800049
v -1875.07373046875 2401.376953125 5.031155109405518
v -2156.8486328125 2753.763427734375 5.031111717224121
v 1143.8905029296875 -1434.661865234375 5.031622409820557
v 1160.5225830078125 -1436.663818359375 5.031622886657715
v 652.7283325195312 -1356.35986328125 5.031594276428223
v 166.79693603515625 -1254.296875 5.031563758850098
v -315.25262451171875 -1122.906494140625 5.03153133392334
v -793.5912475585938 -957.0191040039062 5.031495094299316
v -1267.51708984375 -752.3438110351562 5.031457424163818
v -1736.077880859375 -505.67633056640625 5.0314154624938965
v -2122.73583984375 -262.6355895996094 5.031376838684082
v -2315.4912109375 -111.7457046508789 5.031356334686279
v -2423.181640625 -311.5564880371094 5.031368255615234
f 180 181 182
f 180 182 183
f 180 183 184
f 184 183 185
f 171 170 172
f 171 172 173
f 171 173 174
f 174 173 175
f 174 175 176
f 176 175 177
f 176 177 179
f 179 177 178
f 179 178 180
f 180 178 181
f 2 1 3
f 2 3 4
f 4 3 5
f 4 5 6
f 6 5 7
f 7 5 8
f 7 8 9
f 9 8 10
f 9 10 11
f 11 10 12
f 11 12 13
f 13 12 14
f 13 14 15
f 13 15 16
f 16 15 17
f 17 15 18
f 17 18 168
f 17 168 169
f 17 169 170
f 17 170 171
f 205 204 206
f 206 204 207
f 187 186 188
f 187 188 189
f 189 188 190
f 189 190 191
f 191 190 192
f 191 192 193
f 195 194 196
f 195 196 197
f 197 196 198
f 198 196 199
f 198 199 200
f 198 200 201
f 201 200 202
f 202 200 203
f 225 224 226
f 226 224 227
f 209 208 210
f 210 208 211
f 210 211 212
f 212 211 213
f 215 214 216
f 216 214 217
f 216 217 219
f 218 219 217
f 219 218 220
f 219 220 221
f 221 220 222
f 222 220 223
f 29 30 31
f 31 30 32
f 31 32 33
f 31 33 34
f 34 33 35
f 35 33 36
f 20 19 21
f 20 21 22
f 22 21 23
f 22 23 24
f 24 23 25
f 25 23 26
f 25 26 27
f 27 26 28
f 27 28 29
f 29 28 30
f 38 37 39
f 38 39 40
f 40 39 41
f 40 41 42
f 42 41 43
f 43 41 44
f 43 44 45
f 45 44 46
f 45 46 47
f 47 46 48
f 47 48 49
f 49 48 50
f 49 50 51
f 49 51 52
f 52 51 53
f 53 51 54
f 53 54 228
f 53 228 229
f 229 228 230
f 230 228 231
f 230 231 232
f 232 231 233
f 232 233 235
f 235 233 234
f 235 234 236
f 236 234 237
f 236 237 238
f 238 237 239
f 303 304 305
f 305 304 306
f 305 306 308
f 308 306 307
f 308 307 309
f 309 307 310
f 309 310 311
f 311 310 312
f 99 100 101
f 101 100 102
f 101 102 103
f 101 103 104
f 104 103 105
f 105 103 106
f 105 106 301
f 105 301 302
f 302 301 303
f 303 301 304
f 90 89 91
f 90 91 92
f 92 91 93
f 92 93 94
f 94 93 95
f 95 93 96
f 95 96 97
f 97 96 98
f 97 98 99
f 99 98 100
f 288 289 286
f 290 287 291
f 288 287 290
f 287 288 286
f 286 285 287
f 285 284 287
f 283 284 285
f 284 283 281
f 281 282 284
f 282 281 280
f 280 281 279
f 279 278 280
f 293 292 294
f 294 292 295
f 297 296 298
f 297 298 299
f 299 298 300
f 76 456 457
f 79 77 80
f 78 80 77
f 77 74 78
f 75 78 74
f 74 73 75
f 76 75 73
f 266 87 267
f 88 267 87
f 87 85 88
f 86 88 85
f 85 83 86
f 84 86 83
f 83 81 84
f 82 84 81
f 81 79 82
f 80 82 79
f 276 272 277
f 273 277 272
f 273 272 274
f 275 274 272
f 275 270 274
f 271 274 270
f 271 270 269
f 268 269 270
f 268 266 269
f 267 269 266
f 258 257 254
f 257 253 254
f 254 253 255
f 256 255 253
f 265 264 259
f 263 259 264
f 262 259 263
f 261 259 262
f 260 259 261
f 61 59 62
f 60 62 59
f 59 56 60
f 57 60 56
f 56 55 57
f 58 57 55
f 71 69 72
f 70 72 69
f 69 67 70
f 68 70 67
f 67 65 68
f 66 68 65
f 65 63 66
f 64 66 63
f 63 61 64
f 62 64 61
f 393 392 394
f 450 449 451
f 452 451 449
f 446 445 447
f 448 447 445
f 398 397 395
f 396 395 397
f 389 388 390
f 391 390 388
f 349 348 350
f 348 351 350
f 352 350 351
f 354 350 352
f 352 353 354
f 355 354 353
f 355 353 356
f 355 356 357
f 357 356 358
f 358 356 359
f 338 339 340
f 340 339 341
f 341 339 342
f 341 342 343
f 318 317 319
f 318 319 320
f 320 319 332
f 320 332 333
f 333 332 334
f 334 332 335
f 334 335 336
f 336 335 337
f 336 337 338
f 338 337 339
f 119 120 121
f 121 120 122
f 121 122 123
f 123 122 124
f 110 109 111
f 110 111 112
f 112 111 113
f 113 111 114
f 113 114 115
f 115 114 116
f 115 116 117
f 117 116 118
f 117 118 119
f 119 118 120
f 454 453 455
f 428 427 429
f 430 429 427
f 427 431 430
f 432 430 431
f 431 433 432
f 434 432 433
f 433 435 434
f 436 434 435
f 435 437 436
f 438 436 437
f 437 439 438
f 440 438 439
f 439 441 440
f 442 440 441
f 441 443 442
f 444 442 443
f 144 143 145
f 144 145 146
f 159 144 160
f 159 142 144
f 142 143 144
f 142 141 143
f 165 152 154
f 164 152 165
f 164 150 152
f 163 150 164
f 163 148 150
f 162 148 163
f 162 146 148
f 161 146 162
f 160 146 161
f 160 144 146
f 146 145 147
f 146 147 148
f 148 147 149
f 148 149 150
f 150 149 151
f 150 151 152
f 152 151 153
f 152 153 154
f 154 153 155
f 154 155 156
f 378 373 375
f 377 373 378
f 377 371 373
f 376 371 377
f 167 371 376
f 167 158 371
f 167 156 158
f 166 156 167
f 166 154 156
f 165 154 166
f 156 155 157
f 156 157 158
f 158 157 370
f 158 370 371
f 371 370 372
f 371 372 373
f 373 372 374
f 373 374 375
f 375 374 379
f 375 379 380
f 380 379 381
f 380 381 382
f 382 381 383
f 382 383 384
f 387 382 384
f 386 382 387
f 386 380 382
f 385 380 386
f 385 375 380
f 378 375 385
f 108 107 109
f 108 109 110
f 125 108 110
f 125 110 126
f 126 110 127
f 126 127 128
f 128 127 129
f 128 129 130
f 130 129 131
f 130 131 132
f 132 131 133
f 132 133 134
f 134 133 135
f 134 135 136
f 136 135 137
f 136 137 138
f 138 137 139
f 138 139 140
f 345 344 346
f 345 346 347
f 347 346 369
f 346 361 369
f 362 369 361
f 361 360 362
f 363 362 360
f 363 360 364
f 363 364 365
f 365 364 366
f 366 364 367
f 366 367 368
f 314 313 315
f 314 315 316
f 316 315 321
f 316 321 322
f 322 321 323
f 322 323 324
f 324 323 325
f 324 325 326
f 326 325 327
f 326 327 328
f 328 327 329
f 328 329 330
f 330 329 331
f 425 423 426
f 424 426 423
f 424 423 421
f 422 421 423
f 421 422 420
f 419 420 422
f 420 419 418
f 417 418 419
f 418 417 416
f 415 416 417
f 415 413 416
f 414 416 413
f 413 411 414
f 412 414 411
f 411 409 412
f 410 412 409
f 409 407 410
f 408 410 407
f 407 405 408
f 406 408 405
f 405 403 406
f 404 406 403
f 403 400 404
f 401 404 400
f 400 399 401
f 402 401 399
f 249 248 250
f 250 248 252
f 251 250 252
f 241 240 242
f 242 240 243
f 240 245 243
f 244 243 245
f 246 243 244
f 247 246 244
