v -182.6923065185547 -1611.159912109375 -3.929226875305176
v 228.28179931640625 -1427.480712890625 -3.929225206375122
v -209.59466552734375 -1550.634765625 -3.9292333126068115
v -223.30316162109375 -1519.78759765625 -3.929236888885498
v -290.30755615234375 -1369.0673828125 -3.929252862930298
v -99.56051635742188 -690.00244140625 -3.9293038845062256
v -464.8803405761719 -976.3671875 -3.9292948246002197
v -510.8886413574219 -872.86376953125 -3.9293060302734375
v -605.17578125 -663.76953125 -3.929328441619873
v -196.42332458496094 -475.1953125 -3.9293270111083984
v 1050.2177734375 -1060.097900390625 -3.9292211532592773
v 1461.19189453125 -876.4186401367188 -3.9292194843292236
v 1420.56884765625 -785.0341186523438 -3.929229259490967
v 1249.35302734375 -399.90228271484375 -3.9292702674865723
v 723.1201171875 -324.2919616699219 -3.929299831390381
v 1134.46044921875 -141.4306182861328 -3.929297924041748
v 621.0693359375 -98.04684448242188 -3.929324150085449
v 1029.8095703125 90.53959655761719 -3.9293227195739746
v -800.8056640625 -248.93801879882812 -3.929373264312744
v -397.86376953125 -49.23097610473633 -3.929373025894165
v -903.759765625 -43.957557678222656 -3.9293956756591797
v -503.6376953125 161.35252380371094 -3.929395914077759
v -1144.8486328125 425.89105224609375 -3.9294471740722656
v -1062.59765625 1250.68359375 -3.929515838623047
v -1360.83984375 846.8383178710938 -3.9294934272766113
v -1452.13623046875 1024.7801513671875 -3.9295129776000977
v 408.0199890136719 350.1831359863281 -3.929372549057007
v 810.9619140625 549.8901977539062 -3.929372549057007
v 296.5942077636719 571.97265625 -3.9293971061706543
v 696.7040405273438 777.28271484375 -3.9293973445892334
v 646.4598999023438 875.2197265625 -3.929408073425293
v 391.06439208984375 1372.94921875 -3.9294626712799072
v -283.50836181640625 1702.5146484375 -3.929521083831787
v 197.3387908935547 1750.47607421875 -3.92950439453125
v 177.2948455810547 1789.55078125 -3.9295084476470947
v 106.03018951416016 1928.424072265625 -3.9295239448547363
v 149.31631469726562 1953.521728515625 -3.9295241832733154
v 221.7528533935547 1812.36572265625 -3.929508686065674
v 240.6249237060547 1775.5859375 -3.929504632949829
v 435.53460693359375 1395.76416015625 -3.9294629096984863
v 690.9301147460938 898.03466796875 -3.929408073425293
v 706.4696655273438 822.0215454101562 -3.929400682449341
v 723.7914428710938 868.9087524414062 -3.9294042587280273
v 767.6879272460938 869.6900024414062 -3.9294023513793945
v 786.6576538085938 823.4253540039062 -3.9293975830078125
v 1160.60791015625 976.7456665039062 -3.929394483566284
v 1142.3583984375 1023.3032836914062 -3.9293994903564453
v 1345.66650390625 1052.62451171875 -3.9293930530548096
v 1327.4169921875 1099.169921875 -3.9293980598449707
v 1801.86767578125 -111.15715026855469 -3.9292714595794678
v 1783.6181640625 -64.61174011230469 -3.92927622795105
v 1767.1142578125 -71.37443542480469 -3.929276466369629
v 1786.083984375 -117.62687683105469 -3.929271697998047
v 1739.1357421875 -82.84904479980469 -3.929276704788208
v 1758.10546875 -129.1259002685547 -3.929271936416626
v 1598.5595703125 -140.4784393310547 -3.9292776584625244
v 1616.8212890625 -187.0482635498047 -3.9292728900909424
v 1305.21240234375 -260.75433349609375 -3.9292800426483154
v 1324.18212890625 -307.03118896484375 -3.9292750358581543
v 1294.287109375 -337.14593505859375 -3.929273843765259
v 1247.86376953125 -318.51800537109375 -3.9292774200439453
v 1295.05615234375 -379.57757568359375 -3.9292702674865723
v 1466.2353515625 -764.6239624023438 -3.9292290210723877
v 1506.84619140625 -856.0084838867188 -3.9292192459106445
v -228.3466033935547 -1631.570068359375 -3.929227352142334
v -255.2977752685547 -1570.95947265625 -3.9292337894439697
v -268.96966552734375 -1540.19775390625 -3.929236888885498
v -335.98626708984375 -1389.3798828125 -3.929253339767456
v -510.5590515136719 -996.6796875 -3.929295301437378
v -541.3573608398438 -964.68505859375 -3.9292991161346436
v -519.3236694335938 -919.81201171875 -3.929302215576172
v -585.5101928710938 -959.87548828125 -3.9293015003204346
v -597.3754272460938 -911.31591796875 -3.9293065071105957
v -1391.02783203125 -1105.1881103515625 -3.929324150085449
v -1381.6162109375 -1154.35791015625 -3.929319381713867
v -1585.315673828125 -1152.6495361328125 -3.929328680038452
v -1575.904052734375 -1201.8194580078125 -3.92932391166687
v -1820.630615234375 76.48869323730469 -3.929446220397949
v -1811.206787109375 27.330974578857422 -3.929441452026367
v -1772.13134765625 36.87736511230469 -3.92944073677063
v -1783.99658203125 85.43693542480469 -3.929445266723633
v -1740.29541015625 96.09367370605469 -3.9294443130493164
v -1728.43017578125 47.54631042480469 -3.9294395446777344
v -1616.9189453125 74.79241180419922 -3.9294369220733643
v -1626.33056640625 123.92571258544922 -3.9294416904449463
v -1266.10107421875 160.48577880859375 -3.929429292678833
v -1277.9541015625 209.03314208984375 -3.929434061050415
v -1171.64306640625 217.1752471923828 -3.9294302463531494
v -1208.88671875 250.4760284423828 -3.9294347763061523
v -1125.8544921875 317.37054443359375 -3.929436683654785
v -1175.4150390625 323.74261474609375 -3.9294395446777344
v -1189.306640625 403.07611083984375 -3.9294471740722656
v -1404.11376953125 821.7284545898438 -3.929492950439453
v -1495.42236328125 999.6703491210938 -3.9295127391815186
v 639.2559204101562 -1243.789306640625 -3.9292235374450684
v 311.7798156738281 -507.14111328125 -3.9293019771575928
v 212.31690979003906 -286.62109375 -3.929325580596924
v 5.078118324279785 150.47607421875 -3.929372787475586
v -103.52784729003906 366.66259765625 -3.929396390914917
v -673.0591430664062 1476.59912109375 -3.929518222808838
v 166.62588500976562 1963.56201171875 6.0704755783081055
v 239.5262908935547 1821.490478515625 6.070491790771484
v 562.35205078125 2193.06005859375 6.0704731941223145
v 453.33245849609375 1404.89501953125 6.070537090301514
v 952.9129638671875 1431.914306640625 6.070556163787842
v 528.6986694335938 1257.99560546875 6.070552825927734
v 708.7279663085938 907.1655883789062 6.070592403411865
v 730.7250366210938 887.6709594726562 6.070594787597656
v 760.1073608398438 888.1958618164062 6.070595741271973
v 983.2432861328125 1422.333984375 6.070559501647949
v 1320.1171875 1117.78564453125 6.070600509643555
v 1170.656494140625 1499.0634765625 6.070559978485107
v 1809.16748046875 -129.7850799560547 6.070730686187744
v 1793.66455078125 -136.1327362060547 6.070730209350586
v 1958.626708984375 -511.05517578125 6.070770740509033
v 1765.6982421875 -147.6317596435547 6.070730209350586
v 1743.3837890625 -156.7870330810547 6.070730209350586
v 1909.771484375 -531.0895385742188 6.070770263671875
v 1331.77490234375 -325.53704833984375 6.0707268714904785
v 1312.85400390625 -344.60443115234375 6.070727348327637
v 1313.34228515625 -371.44769287109375 6.070729732513428
v 1897.253662109375 -559.176513671875 6.070773124694824
v 1525.1201171875 -847.8419799804688 6.0707807540893555
v 1942.612060546875 -661.2371826171875 6.0707831382751465
v -246.6205291748047 -1639.736572265625 6.070772647857666
v -273.57171630859375 -1579.08935546875 6.070766448974609
v -654.2269897460938 -1860.1083984375 6.070774555206299
v -354.26019287109375 -1397.509765625 6.070746898651123
v -811.3889770507812 -1496.8203125 6.070735931396484
v -366.68695068359375 -1369.6044921875 6.070743560791016
v -528.8329467773438 -1004.8095703125 6.070704936981201
v -550.1830444335938 -982.62939453125 6.070702075958252
v -580.7738647460938 -979.30908203125 6.070700645446777
v -838.6503295898438 -1482.3629150390625 6.070733070373535
v -1572.132080078125 -1221.4849853515625 6.070678234100342
v -1495.0416259765625 -1624.1658935546875 6.070716857910156
v -1824.390380859375 96.15422058105469 6.070551872253418
v -1788.7451171875 104.87052917480469 6.070553302764893
v -1901.4835205078125 498.8432922363281 6.070513725280762
v -1745.03173828125 115.50285339355469 6.070554256439209
v -1811.3583984375 520.86767578125 6.0705156326293945
v -1619.15283203125 146.2767791748047 6.070556640625
v -1282.70263671875 228.44232177734375 6.070563793182373
v -1223.79150390625 263.79388427734375 6.070563793182373
v -1195.2392578125 326.28167724609375 6.070559024810791
v -1207.080078125 393.95745849609375 6.070552825927734
v -1798.4735107421875 545.7718505859375 6.07051420211792
v -1512.73193359375 989.6361694335938 6.0704874992370605
v -1908.4605712890625 760.1323852539062 6.07049036026001
v -1503.9794921875 -515.1978149414062 -3.9293806552886963
v 1379.58984375 418.13970947265625 -3.9293360710144043
v 1564.63623046875 494.00640869140625 -3.9293346405029297
v -1698.267333984375 -562.6592407226562 -3.92938494682312
v 221.7528533935547 1812.36572265625 6.070491313934326
v 149.31631469726562 1953.521728515625 6.070476055145264
v 435.53460693359375 1395.76416015625 6.070537090301514
v 690.9301147460938 898.0347290039062 6.070591449737549
v 723.7914428710938 868.9087524414062 6.070595741271973
v 767.6879272460938 869.6900024414062 6.0705976486206055
v 1327.4169921875 1099.169921875 6.070601940155029
v 1801.86767578125 -111.15715026855469 6.070728302001953
v 1786.083984375 -117.62687683105469 6.070728778839111
v 1758.10546875 -129.1259002685547 6.070728302001953
v 1324.18212890625 -307.03118896484375 6.0707244873046875
v 1294.287109375 -337.14593505859375 6.07072639465332
v 1295.05615234375 -379.57757568359375 6.070730209350586
v 1506.84619140625 -856.0084838867188 6.0707807540893555
v -228.3466033935547 -1631.570068359375 6.070772647857666
v -255.2977752685547 -1570.95947265625 6.070766448974609
v -335.98626708984375 -1389.3798828125 6.070746898651123
v -510.5590515136719 -996.6796875 6.070704936981201
v -541.3573608398438 -964.68505859375 6.070700645446777
v -585.5101928710938 -959.87548828125 6.070698261260986
v -1575.904052734375 -1201.8194580078125 6.070676326751709
v -1820.630615234375 76.48869323730469 6.070553779602051
v -1783.99658203125 85.43693542480469 6.070554256439209
v -1740.29541015625 96.09367370605469 6.070555210113525
v -1277.9541015625 209.03314208984375 6.070566177368164
v -1208.88671875 250.4760284423828 6.070565223693848
v -1175.4150390625 323.74261474609375 6.070560455322266
v -1189.306640625 403.07611083984375 6.070553302764893
v -1495.42236328125 999.6703491210938 6.0704874992370605
v -2020.326171875 -1214.3077392578125 -3.929342031478882
v -2090.8095703125 -618.2994384765625 -3.9293973445892334
v -2503.15087890625 -1260.1329345703125 -3.9293594360351562
v -2546.99853515625 -661.5977783203125 -3.9294135570526123
v -2648.684814453125 -666.8463134765625 -3.929417610168457
v -2641.092041015625 -1267.2613525390625 -3.9293644428253174
v -2014.45458984375 -1263.9659423828125 -3.929337739944458
v -2499.5009765625 -1310.0108642578125 -3.929354667663574
v -2640.469482421875 -1317.2979736328125 -3.9293601512908936
v -2161.29296875 -22.29111099243164 -3.929452419281006
v -2167.1767578125 27.37929916381836 -3.929457187652588
v -2590.8583984375 -63.06261444091797 -3.9294679164886475
v -2594.50830078125 -13.184682846069336 -3.9294724464416504
v -2656.912353515625 -16.4068546295166 -3.9294748306274414
v -2656.277587890625 -66.44347381591797 -3.9294705390930176
v -2012.11083984375 -1283.8389892578125 6.070664405822754
v -1964.00341796875 -1690.6353759765625 6.070702075958252
v -2498.0361328125 -1329.9571533203125 6.070647239685059
v -2468.099853515625 -1738.48583984375 6.070684432983398
v -2640.213134765625 -1337.3052978515625 6.07064151763916
v -2635.029541015625 -1747.1114501953125 6.070677280426025
v -2217.6279296875 454.04815673828125 6.0705037117004395
v -2169.5205078125 47.24013900756836 6.070540904998779
v -2625.897705078125 415.29022216796875 6.070488929748535
v -2595.97314453125 6.761605739593506 6.070526123046875
v -2662.342041015625 413.407958984375 6.0704874992370605
v -2657.168701171875 3.6004703044891357 6.070523262023926
v -2014.45458984375 -1263.9659423828125 6.070662498474121
v -2499.5009765625 -1310.0108642578125 6.070645332336426
v -2640.469482421875 -1317.2979736328125 6.0706400871276855
v -2167.1767578125 27.379301071166992 6.070542812347412
v -2594.50830078125 -13.18468189239502 6.07052755355835
v -2656.912353515625 -16.4068546295166 6.070525169372559
v 176.79063415527344 -2491.82666015625 -3.9291343688964844
v 596.8590087890625 -2330.4375 -3.9291300773620605
v 92.2691421508789 -2271.80712890625 -3.9291574954986572
v 510.1036071777344 -2104.6318359375 -3.9291534423828125
v 1436.9835205078125 -2007.6590576171875 -3.929121732711792
v 1857.0517578125 -1846.2698974609375 -3.929117441177368
v 1345.7847900390625 -1770.26904296875 -3.9291465282440186
v 1763.619140625 -1603.0936279296875 -3.929142951965332
v 130.12315368652344 -2509.7587890625 -3.9291348457336426
v 45.845802307128906 -2290.38623046875 -3.9291577339172363
v 1903.7314453125 -1828.3377685546875 -3.929117202758789
v 1810.0546875 -1584.5145263671875 -3.9291422367095947
v 1016.9273681640625 -2169.04833984375 -3.929126024246216
v 927.9502563476562 -1937.45654296875 -3.929150104522705
v 111.44639587402344 -2516.92431640625 6.070864677429199
v 27.26670265197754 -2297.8203125 6.0708417892456055
v -397.2008056640625 -2467.649169921875 6.070838451385498
v -315.27655029296875 -2680.87060546875 6.070860862731934
v 2349.130615234375 -1657.225830078125 6.070887565612793
v 2253.089111328125 -1407.252197265625 6.07086181640625
v 1828.62158203125 -1577.0926513671875 6.070858001708984
v 1922.39599609375 -1821.1722412109375 6.070883274078369
v 130.12315368652344 -2509.7587890625 6.070865154266357
v 45.845802307128906 -2290.38623046875 6.070842266082764
v 1903.7314453125 -1828.3377685546875 6.070883274078369
v 1810.0546875 -1584.5145263671875 6.070858001708984
v -2655.75439453125 -1267.5782470703125 -3.929365396499634
v -2685.90576171875 -1268.2374267578125 -3.92936635017395
v -2841.044921875 -1271.6309814453125 -3.929373264312744
v -3222.40478515625 -679.3946533203125 -3.9294416904449463
v -3105.0341796875 -1277.4049072265625 -3.929384231567383
v -3209.2822265625 -1279.6876220703125 -3.9293882846832275
v -3408.97705078125 -682.8980712890625 -3.9294495582580566
v -3407.80517578125 -1283.3253173828125 -3.929396867752075
v -3804.765625 -1281.6407470703125 -3.9294145107269287
v -3782.07275390625 -681.8239135742188 -3.9294657707214355
v -3968.57177734375 -674.1823120117188 -3.9294748306274414
v -4003.19091796875 -1273.4376220703125 -3.9294235706329346
v -4114.15283203125 -1267.0289306640625 -3.929428815841675
v -4478.5205078125 -644.7267456054688 -3.929499626159668
v -4411.11328125 -1249.878173828125 -3.929443836212158
v -4510.9423828125 -1244.104248046875 -3.9294486045837402
v -2654.66796875 -1317.6026611328125 -3.92936110496521
v -2684.80712890625 -1318.2252197265625 -3.9293620586395264
v -2840.42236328125 -1321.6309814453125 -3.929368734359741
v -3103.94775390625 -1327.3927001953125 -3.92937970161438
v -3179.28955078125 -1310.8033447265625 -3.929384469985962
v -3142.607421875 -1344.7877197265625 -3.92937970161438
v -3206.92626953125 -1387.3780517578125 -3.9293787479400635
v -3156.99951171875 -1384.6558837890625 -3.9293770790100098
v -3136.9189453125 -1752.7100830078125 -3.9293439388275146
v -3186.845703125 -1755.4566650390625 -3.9293456077575684
v -3131.4619140625 -1852.5650634765625 -3.929334878921509
v -3181.388671875 -1855.3116455078125 -3.9293367862701416
v -4030.106689453125 -1901.9669189453125 -3.929370164871216
v -3980.179931640625 -1899.2203369140625 -3.929368019104004
v -4031.6455078125 -1873.8160400390625 -3.929372549057007
v -3981.71875 -1871.0816650390625 -3.929370403289795
v -4035.576171875 -1802.1119384765625 -3.9293787479400635
v -3985.63720703125 -1799.3775634765625 -3.9293770790100098
v -4036.27197265625 -1789.4044189453125 -3.929379940032959
v -3986.32080078125 -1786.6822509765625 -3.9293782711029053
v -4008.916015625 -1372.5953369140625 -3.929415464401245
v -4058.8671875 -1375.3175048828125 -3.929417133331299
v -4041.38671875 -1299.7315673828125 -3.9294230937957764
v -4076.8115234375 -1335.0465087890625 -3.9294214248657227
v -4117.03369140625 -1316.9678955078125 -3.929425001144409
v -4413.81103515625 -1299.817138671875 -3.9294393062591553
v -4513.64013671875 -1294.055419921875 -3.9294443130493164
v -3236.6259765625 -29.089496612548828 -3.9294989109039307
v -3235.52734375 -79.1017074584961 -3.929494619369507
v -3410.2587890625 -32.43423080444336 -3.929506301879883
v -3410.1611328125 -82.47085571289062 -3.929502010345459
v -3757.5 -32.01920700073242 -3.9295215606689453
v -3759.39208984375 -82.00700378417969 -3.9295172691345215
v -3931.07177734375 -25.000171661376953 -3.929529905319214
v -3933.96484375 -74.93914031982422 -3.92952561378479
v -4446.08642578125 -45.34931564331055 -3.9295504093170166
v -4443.388671875 4.589649200439453 -3.9295549392700195
v -2654.228515625 -1337.6099853515625 6.070641040802002
v -2684.36767578125 -1338.2203369140625 6.070641994476318
v -3058.9404296875 -1346.4112548828125 6.070626258850098
v -3036.593017578125 -1755.8841552734375 6.0706610679626465
v -3103.50830078125 -1347.3878173828125 6.070624351501465
v -3127.9345703125 -1358.3741455078125 6.070624351501465
v -3137.02880859375 -1383.5694580078125 6.0706257820129395
v -3035.478515625 -1776.3551025390625 6.070662975311279
v -3050.489013671875 -1776.870849609375 6.070662498474121
v -3046.569580078125 -1847.8944091796875 6.070669174194336
v -3031.62060546875 -1847.0718994140625 6.070669174194336
v -4050.077392578125 -1903.0655517578125 6.070631504058838
v -4051.6162109375 -1874.9024658203125 6.070629119873047
v -4110.5615234375 -1906.39111328125 6.070627689361572
v -4056.2548828125 -1790.4908447265625 6.070619106292725
v -4119.20361328125 -1767.7738037109375 6.070616245269775
v -4057.26806640625 -1771.3502197265625 6.070619106292725
v -4078.85009765625 -1376.4161376953125 6.070581912994385
v -4136.71240234375 -1746.2437744140625 6.070613384246826
v -4090.98388671875 -1349.1700439453125 6.0705790519714355
v -4118.193359375 -1336.9385986328125 6.0705766677856445
v -4514.7265625 -1314.038330078125 6.070557594299316
v -4536.86181640625 -1723.13671875 6.070592403411865
v -3246.017578125 400.64447021484375 6.070463180541992
v -3237.0654296875 -9.069965362548828 6.070499420166016
v -3411.109130859375 397.4043884277344 6.070456027984619
v -3410.29541015625 -12.41469955444336 6.070491790771484
v -3906.30078125 403.9874267578125 6.070434093475342
v -3929.92431640625 -5.029468059539795 6.070468902587891
v -3756.7431640625 -12.024089813232422 6.07047700881958
v -3741.257568359375 397.3764953613281 6.070441722869873
v -4420.1669921875 433.6708984375 6.070408821105957
v -4442.30224609375 24.572559356689453 6.070443630218506
v -3580.790283203125 -1877.2720947265625 -3.929352283477783
v -3586.2353515625 -1777.4171142578125 -3.929361343383789
v -2654.66796875 -1317.6026611328125 6.070639610290527
v -2684.80712890625 -1318.2252197265625 6.070638179779053
v -3103.94775390625 -1327.3927001953125 6.070620059967041
v -3142.607421875 -1344.7877197265625 6.070620536804199
v -3156.99951171875 -1384.6558837890625 6.070623397827148
v -3111.4912109375 -1851.4664306640625 6.070667743682861
v -3131.4619140625 -1852.5650634765625 6.07066535949707
v -4030.106689453125 -1901.9669189453125 6.0706305503845215
v -4031.6455078125 -1873.8160400390625 6.070627689361572
v -4036.27197265625 -1789.4044189453125 6.070620059967041
v -4058.8671875 -1375.3175048828125 6.070582866668701
v -4076.8115234375 -1335.0465087890625 6.070578575134277
v -4117.03369140625 -1316.9678955078125 6.07057523727417
v -4513.64013671875 -1294.055419921875 6.070555686950684
v -3236.6259765625 -29.089496612548828 6.07050085067749
v -3410.2587890625 -32.43423080444336 6.070493698120117
v -3757.5 -32.01920700073242 6.070478916168213
v -3931.07177734375 -25.000171661376953 6.070470809936523
v -4443.388671875 4.5896501541137695 6.070445537567139
v -1820.9716796875 539.5995483398438 6.0705132484436035
v -1905.335205078125 518.9813842773438 6.070511341094971
v -1928.2470703125 748.6571655273438 6.07049036026001
v -2220.033203125 474.3885498046875 6.070501327514648
v -2627.39404296875 435.7166442871094 6.070487022399902
v -2662.600830078125 433.8983154296875 6.070485591888428
v -3246.46484375 421.1302185058594 6.070461273193359
v -3411.14990234375 417.8953552246094 6.070454120635986
v -3740.4833984375 417.8465270996094 6.07043981552124
v -3905.11962890625 424.43829345703125 6.070432186126709
v -4419.06005859375 454.12579345703125 6.070407390594482
v -4537.96875 -1743.591552734375 6.070594310760498
v -4137.63916015625 -1766.7115478515625 6.070615768432617
v -4129.96044921875 -1907.4600830078125 6.070626258850098
v -3127.5185546875 -1924.44140625 -3.929328203201294
v -3177.43310546875 -1927.18798828125 -3.929330348968506
v -3976.23681640625 -1971.10888671875 -3.929361581802368
v -4026.1513671875 -1973.85546875 -3.929363250732422
v -3042.5234375 -1919.7738037109375 6.070675373077393
v -3027.6650390625 -1918.96044921875 6.070675373077393
v -4126.0048828125 -1979.33642578125 6.0706329345703125
v -4106.33056640625 -1978.25732421875 6.0706353187561035
v -3576.8349609375 -1949.1484375 -3.9293458461761475
v -3107.5478515625 -1923.3427734375 6.070674896240234
v -3127.5185546875 -1924.44140625 6.070671558380127
v -4026.1513671875 -1973.85546875 6.070636749267578
v -4046.1220703125 -1974.9541015625 6.070638179779053
v 974.1210327148438 1440.61279296875 6.070556640625
v 582.1409912109375 2204.534912109375 6.070472717285156
v 1163.1834716796875 1518.12744140625 6.070558547973633
v 1918.0908203125 -549.8046264648438 6.070772171020508
v 1966.10107421875 -530.1146850585938 6.070772171020508
v 1963.48681640625 -651.9069213867188 6.070783615112305
v 2370.46728515625 -1649.0286865234375 6.070887565612793
v 2274.3125 -1398.7601318359375 6.070861339569092
v -833.9594116210938 -1502.337890625 6.070735454559326
v -675.1044311523438 -1869.437255859375 6.070774555206299
v -1491.1871337890625 -1644.300048828125 6.070718288421631
v -1961.5980224609375 -1710.9752197265625 6.070703983306885
v -2466.60302734375 -1758.9122314453125 6.070685863494873
v -2634.768798828125 -1767.60302734375 6.070679187774658
v -418.4241943359375 -2476.140625 6.070838451385498
v -336.6126708984375 -2689.06787109375 6.070860385894775
f 6 8 9
f 6 9 10
f 10 9 19
f 10 19 20
f 20 19 21
f 20 21 22
f 22 21 23
f 22 23 24
f 24 23 25
f 24 25 26
f 18 17 27
f 18 27 28
f 28 27 29
f 28 29 30
f 30 29 31
f 31 29 32
f 32 29 33
f 32 33 34
f 34 33 35
f 35 33 36
f 382 381 383
f 382 383 384
f 384 383 385
f 384 385 386
f 386 385 387
f 387 385 388
f 387 388 507
f 387 507 508
f 387 508 509
f 387 509 510
f 510 509 511
f 510 511 512
f 510 512 513
f 513 512 514
f 513 514 516
f 516 514 515
f 516 515 517
f 517 515 518
f 517 518 519
f 517 519 520
f 520 519 521
f 520 521 522
f 454 453 455
f 454 455 456
f 456 455 1
f 456 1 2
f 2 1 3
f 2 3 4
f 2 4 5
f 2 5 6
f 6 5 7
f 6 7 8
f 458 457 459
f 458 459 460
f 460 459 11
f 460 11 12
f 12 11 13
f 13 11 14
f 14 11 15
f 14 15 16
f 16 15 17
f 16 17 18
f 56 55 57
f 57 55 58
f 38 37 39
f 38 39 40
f 40 39 41
f 40 41 42
f 774 773 775
f 774 775 776
f 770 769 771
f 770 771 772
f 564 563 565
f 564 565 566
f 546 545 547
f 546 547 548
f 548 547 549
f 548 549 550
f 542 541 543
f 542 543 544
f 124 123 125
f 124 125 126
f 82 81 83
f 82 83 84
f 84 83 85
f 84 85 86
f 78 77 79
f 78 79 80
f 468 467 469
f 468 469 470
f 470 469 471
f 470 471 472
f 462 461 463
f 462 463 464
f 464 463 465
f 464 465 466
f 390 389 391
f 390 391 392
f 392 391 393
f 392 393 394
f 394 393 395
f 395 393 396
f 104 103 105
f 105 103 106
f 105 106 107
f 105 107 108
f 108 107 109
f 109 107 110
f 100 99 101
f 101 99 102
f 524 523 525
f 525 523 526
f 525 526 527
f 525 527 528
f 528 527 529
f 529 527 530
f 68 67 69
f 69 67 70
f 69 70 71
f 69 71 72
f 72 71 73
f 72 73 74
f 74 73 75
f 74 75 76
f 552 551 553
f 552 553 554
f 554 553 555
f 555 553 556
f 555 556 557
f 557 556 558
f 557 558 559
f 557 559 560
f 560 559 561
f 560 561 562
f 88 87 89
f 88 89 90
f 90 89 91
f 90 91 92
f 92 91 93
f 92 93 94
f 94 93 95
f 94 95 96
f 96 95 97
f 97 95 98
f 60 59 61
f 61 59 62
f 61 62 63
f 63 62 64
f 63 64 65
f 65 64 66
f 532 531 533
f 533 531 534
f 533 534 535
f 535 534 536
f 535 536 537
f 537 536 538
f 537 538 539
f 537 539 540
f 44 43 45
f 44 45 46
f 46 45 47
f 47 45 48
f 47 48 49
f 49 48 50
f 49 50 51
f 49 51 52
f 52 51 53
f 53 51 54
f 112 111 113
f 113 111 114
f 113 114 115
f 115 114 116
f 115 116 117
f 117 116 118
f 117 118 119
f 119 118 120
f 119 120 121
f 119 121 122
f 398 397 399
f 398 399 400
f 400 399 401
f 400 401 402
f 402 401 403
f 403 401 404
f 403 404 567
f 567 404 568
f 567 568 569
f 569 568 570
f 569 570 571
f 571 570 572
f 140 139 141
f 140 141 142
f 142 141 143
f 142 143 144
f 474 473 475
f 474 475 476
f 476 475 127
f 476 127 128
f 128 127 129
f 128 129 130
f 130 129 131
f 130 131 132
f 132 131 139
f 132 139 140
f 146 145 147
f 146 147 148
f 148 147 149
f 148 149 150
f 478 477 479
f 478 479 480
f 480 479 133
f 480 133 134
f 134 133 135
f 134 135 136
f 136 135 137
f 136 137 138
f 138 137 145
f 138 145 146
f 620 619 621
f 620 621 622
f 624 629 628
f 625 623 626
f 624 623 625
f 623 624 627
f 627 624 628
f 628 630 627
f 630 628 633
f 633 631 630
f 632 631 633
f 631 632 635
f 635 634 631
f 634 636 631
f 788 787 789
f 788 789 790
f 638 637 639
f 638 639 640
f 640 639 641
f 784 783 785
f 785 783 786
f 217 214 218
f 218 214 220
f 219 218 220
f 220 222 219
f 222 223 219
f 217 221 216
f 216 214 217
f 215 214 216
f 213 214 215
f 214 213 212
f 212 213 211
f 211 210 212
f 225 224 226
f 226 227 225
f 228 227 226
f 227 228 229
f 229 228 231
f 230 229 231
f 231 232 230
f 233 232 231
f 233 231 234
f 234 231 235
f 235 236 234
f 238 237 239
f 239 237 240
f 252 251 253
f 252 253 254
f 252 254 255
f 255 254 256
f 248 247 249
f 249 247 250
f 242 241 243
f 242 243 244
f 242 244 245
f 245 244 246
f 644 645 647
f 647 645 646
f 647 646 648
f 648 646 649
f 648 649 650
f 648 650 651
f 422 421 423
f 422 423 424
f 424 423 425
f 424 425 426
f 426 425 427
f 427 425 428
f 427 428 642
f 642 428 643
f 642 643 644
f 644 643 645
f 871 870 573
f 573 870 574
f 573 574 575
f 573 575 576
f 604 601 605
f 601 600 602
f 603 602 600
f 606 604 602
f 602 608 606
f 607 606 608
f 154 152 155
f 156 155 152
f 152 151 153
f 157 154 158
f 804 803 805
f 806 805 803
f 202 201 203
f 203 201 204
f 204 201 205
f 205 201 206
f 208 205 206
f 209 208 206
f 207 206 201
f 868 867 869
f 160 159 161
f 161 159 162
f 162 159 163
f 165 162 163
f 166 165 163
f 164 163 159
f 865 864 866
f 408 407 405
f 406 405 407
f 407 410 406
f 409 406 410
f 410 412 409
f 411 409 412
f 862 861 863
f 188 187 189
f 189 187 190
f 187 191 190
f 192 190 191
f 193 190 192
f 194 193 192
f 186 184 185
f 185 184 183
f 182 183 184
f 182 181 183
f 181 482 183
f 483 183 482
f 482 481 483
f 484 483 481
f 178 177 173
f 174 173 175
f 175 173 176
f 176 173 177
f 179 176 177
f 180 179 177
f 180 486 179
f 487 179 486
f 486 485 487
f 488 487 485
f 168 167 169
f 170 168 169
f 169 172 170
f 171 170 172
f 595 594 596
f 595 596 597
f 598 597 596
f 599 597 598
f 578 577 579
f 580 578 579
f 579 582 580
f 581 580 582
f 196 195 197
f 196 197 198
f 199 198 197
f 200 198 199
f 584 583 585
f 585 583 586
f 583 858 586
f 586 858 859
f 860 859 858
f 420 419 418
f 417 418 419
f 417 413 418
f 414 418 413
f 414 413 415
f 416 415 413
f 617 613 618
f 614 618 613
f 614 613 615
f 616 615 613
f 616 611 615
f 612 615 611
f 611 609 612
f 610 612 609
f 610 609 420
f 419 420 609
f 588 587 589
f 841 840 842
f 843 842 840
f 826 825 827
f 828 827 825
f 825 830 828
f 831 828 830
f 830 829 831
f 832 831 829
f 260 259 257
f 259 264 258
f 258 257 259
f 257 258 265
f 257 265 266
f 266 265 267
f 266 267 268
f 268 267 269
f 268 269 270
f 270 269 271
f 270 271 272
f 272 271 273
f 272 273 274
f 274 273 275
f 857 851 856
f 850 856 851
f 851 849 850
f 848 850 849
f 849 844 848
f 845 848 844
f 845 844 846
f 847 846 844
f 819 818 820
f 821 820 818
f 815 814 816
f 817 816 814
f 808 807 809
f 810 809 807
f 780 779 781
f 782 781 779
f 766 765 767
f 768 767 765
f 759 758 760
f 761 760 758
f 747 746 745
f 744 745 746
f 744 741 745
f 742 745 741
f 741 740 742
f 743 742 740
f 756 753 757
f 754 757 753
f 753 752 754
f 755 754 752
f 752 750 755
f 751 755 750
f 750 748 751
f 749 751 748
f 748 746 749
f 747 749 746
f 838 837 839
f 737 736 738
f 739 738 736
f 730 729 731
f 732 731 729
f 855 854 852
f 853 852 854
f 853 835 852
f 836 852 835
f 836 835 833
f 834 833 835
f 707 708 709
f 709 708 710
f 710 708 711
f 710 711 712
f 684 683 685
f 684 685 686
f 686 685 713
f 713 685 702
f 713 702 703
f 703 702 704
f 703 704 705
f 705 704 706
f 705 706 707
f 707 706 708
f 677 678 679
f 679 678 680
f 680 678 681
f 680 681 682
f 657 656 658
f 657 658 659
f 659 658 671
f 659 671 672
f 672 671 673
f 673 671 674
f 673 674 675
f 675 674 676
f 675 676 677
f 677 676 678
f 653 652 654
f 654 652 655
f 654 655 660
f 654 660 661
f 661 660 662
f 661 662 663
f 663 662 664
f 663 664 665
f 663 665 666
f 666 665 667
f 666 667 668
f 668 667 669
f 668 669 670
f 823 822 824
f 341 342 343
f 343 342 344
f 344 342 345
f 344 345 346
f 322 321 323
f 322 323 324
f 324 323 347
f 347 323 336
f 347 336 337
f 337 336 338
f 337 338 339
f 339 338 340
f 339 340 341
f 341 340 342
f 450 446 451
f 451 446 452
f 452 446 448
f 452 448 718
f 718 448 715
f 718 715 719
f 719 715 717
f 719 717 726
f 726 717 721
f 726 721 727
f 727 725 728
f 727 721 723
f 727 723 725
f 723 724 725
f 723 722 724
f 721 722 723
f 721 720 722
f 717 720 721
f 717 716 720
f 715 716 717
f 715 714 716
f 448 714 715
f 448 447 714
f 446 447 448
f 446 445 447
f 444 445 446
f 444 443 445
f 442 443 444
f 442 441 443
f 449 442 444
f 449 444 450
f 450 444 446
f 812 811 813
f 369 367 370
f 368 367 369
f 351 367 368
f 351 350 367
f 349 350 351
f 349 348 350
f 348 352 350
f 350 352 353
f 350 353 354
f 350 354 355
f 355 354 356
f 355 356 357
f 357 356 358
f 357 358 359
f 357 359 360
f 360 359 361
f 360 361 362
f 362 361 363
f 363 361 364
f 363 364 365
f 363 365 366
f 798 797 799
f 798 799 800
f 802 798 800
f 801 798 802
f 792 791 793
f 792 793 794
f 795 792 794
f 795 794 796
f 378 379 380
f 378 376 379
f 377 376 378
f 375 376 377
f 375 374 376
f 373 374 375
f 373 372 374
f 371 372 373
f 371 370 372
f 369 370 371
f 763 762 764
f 303 304 305
f 303 301 304
f 302 301 303
f 300 301 302
f 300 299 301
f 298 299 300
f 298 297 299
f 296 297 298
f 296 294 297
f 295 294 296
f 291 294 295
f 291 290 294
f 289 290 291
f 289 288 290
f 288 292 290
f 290 292 293
f 290 293 307
f 307 293 306
f 307 306 308
f 307 308 309
f 309 308 310
f 309 310 311
f 309 311 312
f 312 311 313
f 312 313 314
f 314 313 315
f 314 315 316
f 734 733 735
f 262 261 263
f 263 261 287
f 287 261 276
f 287 276 277
f 277 276 278
f 277 278 279
f 279 278 280
f 279 280 281
f 281 280 282
f 281 282 283
f 283 282 284
f 284 282 285
f 284 285 286
f 318 317 319
f 318 319 320
f 320 319 325
f 320 325 326
f 326 325 327
f 326 327 328
f 328 327 329
f 328 329 330
f 330 329 331
f 330 331 332
f 332 331 333
f 332 333 334
f 334 333 335
f 777 591 778
f 592 778 591
f 591 590 592
f 593 592 590
f 504 499 501
f 504 501 505
f 499 498 500
f 499 500 501
f 501 500 502
f 501 502 503
f 505 501 503
f 505 503 506
f 688 687 689
f 688 689 690
f 690 689 692
f 692 689 691
f 692 691 693
f 692 693 694
f 694 693 695
f 694 695 696
f 694 696 697
f 697 696 698
f 698 696 699
f 698 699 700
f 698 700 701
f 439 435 440
f 439 434 435
f 438 434 439
f 438 432 434
f 437 432 438
f 437 430 432
f 430 431 432
f 430 429 431
f 432 431 433
f 432 433 434
f 434 433 435
f 435 433 436
f 490 489 491
f 490 491 492
f 492 491 493
f 492 493 494
f 496 492 494
f 496 494 497
f 495 490 492
f 495 492 496
