v -1815.3624267578125 2268.638671875 197.58676147460938
v -1813.945556640625 2267.458984375 237.54432678222656
v -1514.8720703125 1084.912109375 197.85360717773438
v -1516.455078125 1085.97265625 157.89895629882812
v -1813.945556640625 2267.458984375 237.54432678222656
v -1833.557861328125 2263.4296875 238.1237335205078
v -1533.98046875 1078.970703125 198.45509338378906
v -1514.8720703125 1084.912109375 197.85360717773438
v -1833.557861328125 2263.4296875 238.1237335205078
v -1834.9757080078125 2264.609375 198.1661834716797
v -1535.5634765625 1080.03125 158.5004425048828
v -1533.98046875 1078.970703125 198.45509338378906
v -1834.9757080078125 2264.609375 198.1661834716797
v -1815.3624267578125 2268.638671875 197.58676147460938
v -1516.455078125 1085.97265625 157.89895629882812
v -1535.5634765625 1080.03125 158.5004425048828
v 197.7977294921875 2682.20703125 138.11326599121094
v 199.21566772460938 2681.0283203125 178.0708465576172
v 446.42376708984375 1694.767578125 136.11294555664062
v 444.83978271484375 1695.8280029296875 96.15830993652344
v 199.21566772460938 2681.0283203125 178.0708465576172
v 179.60238647460938 2676.9990234375 178.6502685546875
v 427.3163146972656 1688.826171875 136.71444702148438
v 446.42376708984375 1694.767578125 136.11294555664062
v 179.60238647460938 2676.9990234375 178.6502685546875
v 178.1844482421875 2678.177734375 138.6926727294922
v 425.73236083984375 1689.88671875 96.75980377197266
v 427.3163146972656 1688.826171875 136.71444702148438
v 178.1844482421875 2678.177734375 138.6926727294922
v 197.7977294921875 2682.20703125 138.11326599121094
v 444.83978271484375 1695.8280029296875 96.15830993652344
v 425.73236083984375 1689.88671875 96.75980377197266
v -1516.455078125 1085.97265625 157.89895629882812
v -1514.8720703125 1084.912109375 197.85360717773438
v -1131.265625 -11.460972785949707 158.76959228515625
v -1133.0185546875 -10.488320350646973 118.8197250366211
v -1149.84375 -18.871129989624023 159.4063720703125
v -1131.265625 -11.460972785949707 158.76959228515625
v -1533.98046875 1078.970703125 198.45509338378906
v -1535.5634765625 1080.03125 158.5004425048828
v -1151.5966796875 -17.90043067932129 119.45653533935547
v -1149.84375 -18.871129989624023 159.4063720703125
v -1133.0185546875 -10.488320350646973 118.8197250366211
v -1151.5966796875 -17.90043067932129 119.45653533935547
v 444.83978271484375 1695.8280029296875 96.15830993652344
v 446.42376708984375 1694.767578125 136.11294555664062
v 775.6307983398438 749.3203735351562 93.40673065185547
v 773.8768920898438 750.2920532226562 53.45688247680664
v 446.42376708984375 1694.767578125 136.11294555664062
v 757.0526733398438 741.9082641601562 94.04352569580078
v 775.6307983398438 749.3203735351562 93.40673065185547
v 427.3163146972656 1688.826171875 136.71444702148438
v 425.73236083984375 1689.88671875 96.75980377197266
v 755.2987670898438 742.8799438476562 54.09367752075195
v 757.0526733398438 741.9082641601562 94.04352569580078
v 425.73236083984375 1689.88671875 96.75980377197266
v 773.8768920898438 750.2920532226562 53.45688247680664
v 755.2987670898438 742.8799438476562 54.09367752075195
v -1133.0185546875 -10.488320350646973 118.8197250366211
v -1131.265625 -11.460972785949707 158.76959228515625
v -705.1122436523438 -1001.400390625 120.53801727294922
v -707.0536499023438 -1000.47265625 80.5957260131836
v -1131.265625 -11.460972785949707 158.76959228515625
v -723.1942749023438 -1009.9375 121.2200927734375
v -705.1122436523438 -1001.400390625 120.53801727294922
v -1149.84375 -18.871129989624023 159.4063720703125
v -1151.5966796875 -17.90043067932129 119.45653533935547
v -725.1347045898438 -1009.009765625 81.27781677246094
v -723.1942749023438 -1009.9375 121.2200927734375
v -1151.5966796875 -17.90043067932129 119.45653533935547
v -707.0536499023438 -1000.47265625 80.5957260131836
v -725.1347045898438 -1009.009765625 81.27781677246094
v 773.8768920898438 750.2920532226562 53.45688247680664
v 775.6307983398438 749.3203735351562 93.40673065185547
v 1150.869140625 -125.17963409423828 50.52649688720703
v 1148.9287109375 -124.25385284423828 10.58421802520752
v 1132.787109375 -133.71673583984375 51.20857620239258
v 1150.869140625 -125.17963409423828 50.52649688720703
v 757.0526733398438 741.9082641601562 94.04352569580078
v 755.2987670898438 742.8799438476562 54.09367752075195
v 1130.8466796875 -132.7890167236328 11.266283988952637
v 1132.787109375 -133.71673583984375 51.20857620239258
v 1148.9287109375 -124.25385284423828 10.58421802520752
v 1130.8466796875 -132.7890167236328 11.266283988952637
v -707.0536499023438 -1000.47265625 80.5957260131836
v -705.1122436523438 -1001.400390625 120.53801727294922
v -277.2186584472656 -1865.5625 83.5566177368164
v -279.3827209472656 -1864.60546875 43.62602615356445
v -294.8749084472656 -1874.9881591796875 84.29315948486328
v -277.2186584472656 -1865.5625 83.5566177368164
v -723.1942749023438 -1009.9375 121.2200927734375
v -725.1347045898438 -1009.009765625 81.27781677246094
v -297.0379943847656 -1874.029296875 44.36256790161133
v -294.8749084472656 -1874.9881591796875 84.29315948486328
v -279.3827209472656 -1864.60546875 43.62602615356445
v -297.0379943847656 -1874.029296875 44.36256790161133
v 1148.9287109375 -124.25385284423828 10.58421802520752
v 1150.869140625 -125.17963409423828 50.52649688720703
v 1534.9736328125 -898.1268920898438 7.955840110778809
v 1532.8095703125 -897.1679077148438 -31.974763870239258
v 1150.869140625 -125.17963409423828 50.52649688720703
v 1132.787109375 -133.71673583984375 51.20857620239258
v 1517.318359375 -907.5526733398438 8.692381858825684
v 1534.9736328125 -898.1268920898438 7.955840110778809
v 1132.787109375 -133.71673583984375 51.20857620239258
v 1130.8466796875 -132.7890167236328 11.266283988952637
v 1515.154296875 -906.5936279296875 -31.238250732421875
v 1517.318359375 -907.5526733398438 8.692381858825684
v 1130.8466796875 -132.7890167236328 11.266283988952637
v 1148.9287109375 -124.25385284423828 10.58421802520752
v 1532.8095703125 -897.1679077148438 -31.974763870239258
v 1515.154296875 -906.5936279296875 -31.238250732421875
v -279.3827209472656 -1864.60546875 43.62602615356445
v -277.2186584472656 -1865.5625 83.5566177368164
v 221.3184814453125 -2672.490234375 39.44042205810547
v 218.98155212402344 -2671.49609375 -0.48027709126472473
v -277.2186584472656 -1865.5625 83.5566177368164
v -294.8749084472656 -1874.9881591796875 84.29315948486328
v 205.48448181152344 -2684.830078125 40.07501983642578
v 221.3184814453125 -2672.490234375 39.44042205810547
v -294.8749084472656 -1874.9881591796875 84.29315948486328
v -297.0379943847656 -1874.029296875 44.36256790161133
v 203.1485595703125 -2683.833984375 0.1543051302433014
v 205.48448181152344 -2684.830078125 40.07501983642578
v -297.0379943847656 -1874.029296875 44.36256790161133
v -279.3827209472656 -1864.60546875 43.62602615356445
v 218.98155212402344 -2671.49609375 -0.48027709126472473
v 203.1485595703125 -2683.833984375 0.1543051302433014
v 1532.8095703125 -897.1679077148438 -31.974763870239258
v 1534.9736328125 -898.1268920898438 7.955840110778809
v 1846.513916015625 -1405.9842529296875 -25.696218490600586
v 1844.1767578125 -1404.9881591796875 -65.61690521240234
v 1534.9736328125 -898.1268920898438 7.955840110778809
v 1830.6807861328125 -1418.3221435546875 -25.06160545349121
v 1846.513916015625 -1405.9842529296875 -25.696218490600586
v 1517.318359375 -907.5526733398438 8.692381858825684
v 1515.154296875 -906.5936279296875 -31.238250732421875
v 1828.3438720703125 -1417.3280029296875 -64.98233032226562
v 1830.6807861328125 -1418.3221435546875 -25.06160545349121
v 1515.154296875 -906.5936279296875 -31.238250732421875
v 1844.1767578125 -1404.9881591796875 -65.61690521240234
v 1828.3438720703125 -1417.3280029296875 -64.98233032226562
v -1865.622314453125 2472.1279296875 182.78384399414062
v -1875.5322265625 2470.78515625 182.78379821777344
v -1876.875 2480.689453125 183.10057067871094
v -1866.965087890625 2482.0322265625 183.1005859375
v -1856.466064453125 2472.3515625 214.57342529296875
v -1857.809814453125 2482.2568359375 214.89016723632812
v -1857.767578125 2481.9423828125 224.88514709472656
v -1856.4248046875 2472.0380859375 224.5684051513672
v -1875.4141845703125 2469.9296875 209.98248291015625
v -1876.7579345703125 2479.833984375 210.29920959472656
v -1876.875 2480.689453125 183.10057067871094
v -1875.5322265625 2470.78515625 182.78379821777344
v -1865.508056640625 2471.2744140625 209.98248291015625
v -1875.4141845703125 2469.9296875 209.98248291015625
v -1875.5322265625 2470.78515625 182.78379821777344
v -1865.622314453125 2472.1279296875 182.78384399414062
v -1866.8468017578125 2481.177734375 210.29922485351562
v -1865.508056640625 2471.2744140625 209.98248291015625
v -1865.622314453125 2472.1279296875 182.78384399414062
v -1866.965087890625 2482.0322265625 183.1005859375
v -1876.7579345703125 2479.833984375 210.29920959472656
v -1866.8468017578125 2481.177734375 210.29922485351562
v -1866.965087890625 2482.0322265625 183.1005859375
v -1876.875 2480.689453125 183.10057067871094
v -1862.236572265625 2481.3369140625 224.88514709472656
v -1876.7579345703125 2479.833984375 210.29920959472656
v -1875.4141845703125 2469.9296875 209.98248291015625
v -1860.892578125 2471.4326171875 224.56838989257812
v -1860.892578125 2471.4326171875 224.56838989257812
v -1860.934814453125 2471.74609375 214.57342529296875
v -1860.934814453125 2471.74609375 214.57342529296875
v -1865.508056640625 2471.2744140625 209.98248291015625
v -1866.8468017578125 2481.177734375 210.29922485351562
v -1862.277587890625 2481.650390625 214.89016723632812
v -1862.277587890625 2481.650390625 214.89016723632812
v -1862.236572265625 2481.3369140625 224.88514709472656
v -1856.4248046875 2472.0380859375 224.5684051513672
v -1857.767578125 2481.9423828125 224.88514709472656
v -1862.236572265625 2481.3369140625 224.88514709472656
v -1860.892578125 2471.4326171875 224.56838989257812
v -1856.466064453125 2472.3515625 214.57342529296875
v -1856.4248046875 2472.0380859375 224.5684051513672
v -1857.809814453125 2482.2568359375 214.89016723632812
v -1856.466064453125 2472.3515625 214.57342529296875
v -1860.934814453125 2471.74609375 214.57342529296875
v -1862.277587890625 2481.650390625 214.89016723632812
v -1857.767578125 2481.9423828125 224.88514709472656
v -1857.809814453125 2482.2568359375 214.89016723632812
v -1644.2159423828125 1499.8359375 150.53831481933594
v -1653.911376953125 1497.3857421875 150.53831481933594
v -1656.360595703125 1507.0751953125 150.86227416992188
v -1646.6651611328125 1509.525390625 150.86227416992188
v -1635.1378173828125 1501.0673828125 182.3271942138672
v -1637.5870361328125 1510.7568359375 182.6511688232422
v -1637.5079345703125 1510.443359375 192.64590454101562
v -1635.0587158203125 1500.7529296875 192.3219451904297
v -1653.6944580078125 1496.5302734375 177.73631286621094
v -1656.1436767578125 1506.2197265625 178.060302734375
v -1656.360595703125 1507.0751953125 150.86227416992188
v -1653.911376953125 1497.3857421875 150.53831481933594
v -1643.999267578125 1498.9814453125 177.73634338378906
v -1653.6944580078125 1496.5302734375 177.73631286621094
v -1653.911376953125 1497.3857421875 150.53831481933594
v -1644.2159423828125 1499.8359375 150.53831481933594
v -1646.448486328125 1508.6708984375 178.060302734375
v -1643.999267578125 1498.9814453125 177.73634338378906
v -1644.2159423828125 1499.8359375 150.53831481933594
v -1646.6651611328125 1509.525390625 150.86227416992188
v -1656.1436767578125 1506.2197265625 178.060302734375
v -1646.448486328125 1508.6708984375 178.060302734375
v -1646.6651611328125 1509.525390625 150.86227416992188
v -1656.360595703125 1507.0751953125 150.86227416992188
v -1641.8790283203125 1509.337890625 192.64588928222656
v -1656.1436767578125 1506.2197265625 178.060302734375
v -1653.6944580078125 1496.5302734375 177.73631286621094
v -1639.4298095703125 1499.6484375 192.32191467285156
v -1639.4298095703125 1499.6484375 192.32191467285156
v -1639.5079345703125 1499.9619140625 182.3271942138672
v -1639.5079345703125 1499.9619140625 182.3271942138672
v -1643.999267578125 1498.9814453125 177.73634338378906
v -1646.448486328125 1508.6708984375 178.060302734375
v -1641.9571533203125 1509.6513671875 182.65115356445312
v -1641.9571533203125 1509.6513671875 182.65115356445312
v -1641.8790283203125 1509.337890625 192.64588928222656
v -1635.0587158203125 1500.7529296875 192.3219451904297
v -1637.5079345703125 1510.443359375 192.64590454101562
v -1641.8790283203125 1509.337890625 192.64588928222656
v -1639.4298095703125 1499.6484375 192.32191467285156
v -1635.1378173828125 1501.0673828125 182.3271942138672
v -1635.0587158203125 1500.7529296875 192.3219451904297
v -1637.5870361328125 1510.7568359375 182.6511688232422
v -1635.1378173828125 1501.0673828125 182.3271942138672
v -1639.5079345703125 1499.9619140625 182.3271942138672
v -1641.9571533203125 1509.6513671875 182.65115356445312
v -1637.5079345703125 1510.443359375 192.64590454101562
v -1637.5870361328125 1510.7568359375 182.6511688232422
v 335.2899475097656 2143.603515625 92.3075942993164
v 344.9911193847656 2146.03125 92.30757904052734
v 347.4169006347656 2136.337890625 91.89466857910156
v 337.7157287597656 2133.9111328125 91.89468383789062
v 326.7801818847656 2140.1201171875 124.0860366821289
v 329.2039794921875 2130.427734375 123.67310333251953
v 329.3065490722656 2130.0263671875 133.66456604003906
v 326.8807678222656 2139.7197265625 134.0775146484375
v 345.2635803222656 2144.94140625 119.4967041015625
v 347.6893615722656 2135.248046875 119.08377075195312
v 347.4169006347656 2136.337890625 91.89466857910156
v 344.9911193847656 2146.03125 92.30757904052734
v 335.5624084472656 2142.513671875 119.49669647216797
v 345.2635803222656 2144.94140625 119.4967041015625
v 344.9911193847656 2146.03125 92.30757904052734
v 335.2899475097656 2143.603515625 92.3075942993164
v 337.9881896972656 2132.8212890625 119.08374786376953
v 335.5624084472656 2142.513671875 119.49669647216797
v 335.2899475097656 2143.603515625 92.3075942993164
v 337.7157287597656 2133.9111328125 91.89468383789062
v 347.6893615722656 2135.248046875 119.08377075195312
v 337.9881896972656 2132.8212890625 119.08374786376953
v 337.7157287597656 2133.9111328125 91.89468383789062
v 347.4169006347656 2136.337890625 91.89466857910156
v 333.6795959472656 2131.12109375 133.66458129882812
v 347.6893615722656 2135.248046875 119.08377075195312
v 345.2635803222656 2144.94140625 119.4967041015625
v 331.2538146972656 2140.814453125 134.07749938964844
v 331.2538146972656 2140.814453125 134.07749938964844
v 331.1532287597656 2141.21484375 124.08599853515625
v 331.1532287597656 2141.21484375 124.08599853515625
v 335.5624084472656 2142.513671875 119.49669647216797
v 337.9881896972656 2132.8212890625 119.08374786376953
v 333.5790100097656 2131.521484375 123.673095703125
v 333.5790100097656 2131.521484375 123.673095703125
v 333.6795959472656 2131.12109375 133.66458129882812
v 326.8807678222656 2139.7197265625 134.0775146484375
v 329.3065490722656 2130.0263671875 133.66456604003906
v 333.6795959472656 2131.12109375 133.66458129882812
v 331.2538146972656 2140.814453125 134.07749938964844
v 326.7801818847656 2140.1201171875 124.0860366821289
v 326.8807678222656 2139.7197265625 134.0775146484375
v 329.2039794921875 2130.427734375 123.67310333251953
v 326.7801818847656 2140.1201171875 124.0860366821289
v 331.1532287597656 2141.21484375 124.08599853515625
v 333.5790100097656 2131.521484375 123.673095703125
v 329.3065490722656 2130.0263671875 133.66456604003906
v 329.2039794921875 2130.427734375 123.67310333251953
v 624.4589233398438 1187.25 50.263118743896484
v 633.9042358398438 1190.53515625 50.2630729675293
v 637.1854858398438 1181.09765625 49.83640670776367
v 627.7401733398438 1177.8134765625 49.83637619018555
v 616.3085327148438 1182.978515625 82.03966522216797
v 619.5897827148438 1173.5419921875 81.61297607421875
v 619.7304077148438 1173.138671875 91.60387420654297
v 616.4491577148438 1182.5751953125 92.03055572509766
v 634.2860717773438 1189.4375 77.45057678222656
v 637.5682983398438 1180.0009765625 77.02391052246094
v 637.1854858398438 1181.09765625 49.83640670776367
v 633.9042358398438 1190.53515625 50.2630729675293
v 624.8407592773438 1186.1533203125 77.4505844116211
v 634.2860717773438 1189.4375 77.45057678222656
v 633.9042358398438 1190.53515625 50.2630729675293
v 624.4589233398438 1187.25 50.263118743896484
v 628.1229858398438 1176.716796875 77.02389526367188
v 624.8407592773438 1186.1533203125 77.4505844116211
v 624.4589233398438 1187.25 50.263118743896484
v 627.7401733398438 1177.8134765625 49.83637619018555
v 637.5682983398438 1180.0009765625 77.02391052246094
v 628.1229858398438 1176.716796875 77.02389526367188
v 627.7401733398438 1177.8134765625 49.83637619018555
v 637.1854858398438 1181.09765625 49.83640670776367
v 623.9882202148438 1174.6201171875 91.60387420654297
v 637.5682983398438 1180.0009765625 77.02391052246094
v 634.2860717773438 1189.4375 77.45057678222656
v 620.7069702148438 1184.056640625 92.03056335449219
v 620.7069702148438 1184.056640625 92.03056335449219
v 620.5663452148438 1184.4599609375 82.03966522216797
v 620.5663452148438 1184.4599609375 82.03966522216797
v 624.8407592773438 1186.1533203125 77.4505844116211
v 628.1229858398438 1176.716796875 77.02389526367188
v 623.8485717773438 1175.0224609375 81.61297607421875
v 623.8485717773438 1175.0224609375 81.61297607421875
v 623.9882202148438 1174.6201171875 91.60387420654297
v 616.4491577148438 1182.5751953125 92.03055572509766
v 619.7304077148438 1173.138671875 91.60387420654297
v 623.9882202148438 1174.6201171875 91.60387420654297
v 620.7069702148438 1184.056640625 92.03056335449219
v 616.3085327148438 1182.978515625 82.03966522216797
v 616.4491577148438 1182.5751953125 92.03055572509766
v 619.5897827148438 1173.5419921875 81.61297607421875
v 616.3085327148438 1182.978515625 82.03966522216797
v 620.5663452148438 1184.4599609375 82.03966522216797
v 623.8485717773438 1175.0224609375 81.61297607421875
v 619.7304077148438 1173.138671875 91.60387420654297
v 619.5897827148438 1173.5419921875 81.61297607421875
f 20 19 17
f 18 17 19
f 202 201 189
f 190 189 201
f 190 173 189
f 174 189 173
f 174 173 175
f 176 175 173
f 272 271 269
f 270 269 271
f 270 285 269
f 286 269 285
f 286 285 297
f 298 297 285
f 304 303 291
f 292 291 303
f 292 277 291
f 278 291 277
f 278 277 279
f 280 279 277
f 22 21 23
f 24 23 21
f 26 25 27
f 28 27 25
f 30 29 31
f 32 31 29
f 34 33 35
f 36 35 33
f 38 37 39
f 40 39 37
f 42 41 43
f 44 43 41
f 46 45 47
f 48 47 45
f 50 49 51
f 52 51 49
f 54 53 55
f 56 55 53
f 58 57 59
f 60 59 57
f 62 61 63
f 64 63 61
f 66 65 67
f 68 67 65
f 70 69 71
f 72 71 69
f 74 73 75
f 76 75 73
f 78 77 79
f 80 79 77
f 82 81 83
f 84 83 81
f 86 85 87
f 88 87 85
f 90 89 91
f 92 91 89
f 94 93 95
f 96 95 93
f 98 97 99
f 100 99 97
f 102 101 103
f 104 103 101
f 106 105 107
f 108 107 105
f 110 109 111
f 112 111 109
f 114 113 115
f 116 115 113
f 118 117 119
f 120 119 117
f 122 121 123
f 124 123 121
f 126 125 127
f 128 127 125
f 130 129 131
f 132 131 129
f 134 133 135
f 136 135 133
f 138 137 139
f 140 139 137
f 142 141 143
f 144 143 141
f 146 145 147
f 148 147 145
f 150 149 151
f 152 151 149
f 154 153 155
f 156 155 153
f 158 157 159
f 160 159 157
f 162 161 163
f 164 163 161
f 166 165 167
f 168 167 165
f 170 169 171
f 172 171 169
f 178 177 179
f 180 179 177
f 208 207 195
f 196 195 207
f 196 181 195
f 182 195 181
f 182 181 183
f 184 183 181
f 186 185 187
f 188 187 185
f 192 191 193
f 194 193 191
f 198 197 199
f 200 199 197
f 204 203 205
f 206 205 203
f 210 209 211
f 212 211 209
f 214 213 215
f 216 215 213
f 218 217 219
f 220 219 217
f 250 249 237
f 238 237 249
f 238 221 237
f 222 237 221
f 222 221 223
f 224 223 221
f 226 225 227
f 228 227 225
f 256 255 243
f 244 243 255
f 244 229 243
f 230 243 229
f 230 229 231
f 232 231 229
f 234 233 235
f 236 235 233
f 240 239 241
f 242 241 239
f 246 245 247
f 248 247 245
f 252 251 253
f 254 253 251
f 258 257 259
f 260 259 257
f 262 261 263
f 264 263 261
f 266 265 267
f 268 267 265
f 274 273 275
f 276 275 273
f 282 281 283
f 284 283 281
f 288 287 289
f 290 289 287
f 294 293 295
f 296 295 293
f 300 299 301
f 302 301 299
f 306 305 307
f 308 307 305
f 310 309 311
f 312 311 309
f 314 313 315
f 316 315 313
f 346 345 333
f 334 333 345
f 334 317 333
f 318 333 317
f 318 317 319
f 320 319 317
f 322 321 323
f 324 323 321
f 352 351 339
f 340 339 351
f 340 325 339
f 326 339 325
f 326 325 327
f 328 327 325
f 330 329 331
f 332 331 329
f 336 335 337
f 338 337 335
f 342 341 343
f 344 343 341
f 348 347 349
f 350 349 347
f 2 1 3
f 4 3 1
f 6 5 7
f 8 353 354
f 10 9 11
f 12 11 9
f 14 13 15
f 16 355 356
