v -1254.8095703125 1000.0670776367188 -4.366809368133545
v -1272.509765625 953.2225952148438 -4.366806507110596
v -1162.5732421875 955.6701049804688 -4.366801738739014
v -1184.21630859375 910.7177124023438 -4.3667988777160645
v -1074.57275390625 913.3666381835938 -4.366793632507324
v -1092.3095703125 866.4733276367188 -4.366790771484375
v -897.6196899414062 828.2958374023438 -4.36677885055542
v -919.3237915039062 783.2091674804688 -4.366775989532471
v -233.66700744628906 453.16162109375 -4.366716384887695
v -211.96290588378906 498.248291015625 -4.3667192459106445
v -192.18751525878906 495.99609375 -4.3667192459106445
v -181.16456604003906 447.186279296875 -4.3667144775390625
v -175.29298400878906 506.53076171875 -4.3667192459106445
v -136.31593322753906 475.13427734375 -4.366714000701904
v -168.59133911132812 525.28076171875 -4.366719722747803
v -118.5547103881836 524.90234375 -4.366718292236328
v -112.79302215576172 1290.58837890625 -4.366785526275635
v -162.82965087890625 1291.6748046875 -4.366787433624268
v -111.29157257080078 1490.582275390625 -4.366802215576172
v -161.32818603515625 1491.668701171875 -4.366804599761963
v -31.59173583984375 -1409.0509033203125 -4.366545677185059
v 18.12750244140625 -1402.1600341796875 -4.366544246673584
v 4.675350189208984 -1313.909912109375 -4.366552352905273
v -44.934024810791016 -1321.47216796875 -4.366553783416748
v 3.0640220642089844 -1303.302001953125 -4.36655330657959
v -46.630802154541016 -1310.186767578125 -4.3665547370910645
v -32.60493469238281 -1069.195556640625 -4.366575241088867
v -81.93354797363281 -1076.708984375 -4.366576671600342
v -123.69380950927734 -802.6123046875 -4.366602897644043
v -74.36519622802734 -795.0927734375 -4.36660099029541
v -169.61666870117188 -740.496826171875 -4.366610050201416
v -147.98580932617188 -695.538330078125 -4.366612911224365
v -1464.14794921875 -117.35235595703125 -4.366720676422119
v -1446.44775390625 -70.50787353515625 -4.366724491119385
v -1644.3603515625 -30.609203338623047 -4.36673641204834
v -1626.64794921875 16.241384506225586 -4.366739749908447
v 1012.2803344726562 -1264.3487548828125 -4.366512298583984
v 1061.9873046875 -1257.4578857421875 -4.36651086807251
v 950.8544921875 -528.1188354492188 -4.366579532623291
v 901.25732421875 -535.6749877929688 -4.366581439971924
v 886.1083984375 -413.3605651855469 -4.3665924072265625
v 935.85205078125 -406.7870788574219 -4.36659049987793
v 871.66748046875 -168.53634643554688 -4.36661434173584
v 921.49658203125 -163.9525909423828 -4.366612911224365
v 876.52587890625 199.42630004882812 -4.366646766662598
v 926.55029296875 201.0315399169922 -4.366644382476807
v 881.7138671875 444.7693176269531 -4.366667747497559
v 931.75048828125 444.3908996582031 -4.366665363311768
v 939.4530639648438 1467.803955078125 -4.366754531860352
v 889.4164428710938 1468.890380859375 -4.366755962371826
v -1247.7294921875 1018.8109741210938 5.6331915855407715
v -1153.91845703125 973.6571655273438 5.633199214935303
v -1102.6954345703125 1402.523681640625 5.633162021636963
v -888.9282836914062 846.3317260742188 5.633222579956055
v -614.1593627929688 1167.364990234375 5.633204460144043
v -617.5537719726562 715.606689453125 5.633245468139648
v -203.28370666503906 516.2841796875 5.6332807540893555
v -196.59425354003906 515.521240234375 5.633281230926514
v -190.88136291503906 519.085693359375 5.633281707763672
v -188.61087036132812 525.42724609375 5.633281707763672
v -593.3881225585938 1178.7005615234375 5.633204460144043
v -181.33551025390625 1492.10205078125 5.6331963539123535
v -591.1546020507812 1500.984130859375 5.633175849914551
v -51.46478271484375 -1411.8035888671875 5.633456230163574
v -64.77044677734375 -1324.493408203125 5.633448123931885
v -458.5987548828125 -1468.239990234375 5.633440971374512
v -70.48334503173828 -1286.566162109375 5.633444786071777
v -519.1790161132812 -1070.583740234375 5.6334052085876465
v -101.66011047363281 -1079.7119140625 5.633425712585449
v -143.42037963867188 -805.615234375 5.633399486541748
v -532.6280517578125 -1041.42138671875 5.633401870727539
v -178.28366088867188 -758.477783203125 5.633394241333008
v -1651.4404296875 -49.34699630737305 5.633267402648926
v -1796.4715576171875 -433.06048583984375 5.633292198181152
v 1488.993896484375 -1198.2679443359375 5.63350248336792
v 1376.9996337890625 -463.19049072265625 5.6334333419799805
v 970.703125 -525.0975952148438 5.633423328399658
v 1081.8603515625 -1254.7052001953125 5.6334919929504395
v 1360.6282958984375 -350.66058349609375 5.6334228515625
v 955.76171875 -404.1564636230469 5.6334123611450195
v 1349.57568359375 -124.59361267089844 5.6334028244018555
v 941.4306640625 -162.1215362548828 5.633390426635742
v 1356.2139892578125 214.85049438476562 5.633373260498047
v 946.5576171875 201.6785125732422 5.633358478546143
v 1361.6240234375 441.15777587890625 5.6333537101745605
v 951.77001953125 444.2444152832031 5.63333797454834
v 1369.2794189453125 1458.488525390625 5.633265495300293
v 959.4603881835938 1467.37060546875 5.633248805999756
v -124.96337127685547 -260.16845703125 -4.366649150848389
v -108.8134536743164 -544.81201171875 -4.366624355316162
v -90.86911010742188 -686.834716796875 -4.366611480712891
v -123.79151153564453 167.24853515625 -4.366687774658203
v -119.1040267944336 452.294921875 -4.3667120933532715
v -1269.37255859375 397.98577880859375 -4.366757869720459
v -1449.5849609375 484.72894287109375 -4.3667731285095215
v 515.1978149414062 -1333.2574462890625 -4.366528511047363
v 405.2002258300781 -611.2548828125 -4.366596221923828
v 388.6474914550781 -479.0893249511719 -4.366608619689941
v 373.35205078125 -214.34934997558594 -4.366632461547852
v 376.3671875 183.33741760253906 -4.366666316986084
v 381.3110046386719 448.5351867675781 -4.366689682006836
v 389.06243896484375 1479.736328125 -4.366779804229736
v -1254.8095703125 1000.0670776367188 5.633191108703613
v -1162.5732421875 955.6701049804688 5.633198261260986
v -897.6196899414062 828.2958374023438 5.63322114944458
v -211.96290588378906 498.248291015625 5.633280277252197
v -192.18751525878906 495.99609375 5.6332807540893555
v -175.29298400878906 506.53076171875 5.6332807540893555
v -168.59133911132812 525.28076171875 5.633279800415039
v -161.32818603515625 1491.668701171875 5.633195400238037
v -31.59173583984375 -1409.0509033203125 5.633454322814941
v -44.934024810791016 -1321.47216796875 5.633446216583252
v -81.93354797363281 -1076.708984375 5.6334228515625
v -123.69380950927734 -802.6123046875 5.633397579193115
v -169.61666870117188 -740.496826171875 5.633389949798584
v -1644.3603515625 -30.609201431274414 5.63326358795166
v 1061.9873046875 -1257.4578857421875 5.63348913192749
v 950.8544921875 -528.1188354492188 5.633420467376709
v 935.85205078125 -406.7870788574219 5.63340950012207
v 921.49658203125 -163.9525909423828 5.633387088775635
v 926.55029296875 201.0315399169922 5.633355617523193
v 931.75048828125 444.3908996582031 5.633334636688232
v 939.4530639648438 1467.803955078125 5.633245468139648
v 377.9193115234375 -2640.984375 -4.366420269012451
v 423.1951904296875 -2619.750244140625 -4.366419792175293
v 392.4561767578125 -2554.24072265625 -4.366426944732666
v 346.5089111328125 -2574.01611328125 -4.366426944732666
v 217.45614624023438 -2108.83056640625 -4.366473197937012
v 170.26376342773438 -2125.438232421875 -4.366474151611328
v 74.48737335205078 -1650.5238037109375 -4.366519451141357
v 26.159740447998047 -1663.5242919921875 -4.366520881652832
v 1328.5418701171875 -2195.104248046875 -4.366417407989502
v 1373.8177490234375 -2173.8701171875 -4.366416931152344
v 1357.3975830078125 -2138.8720703125 -4.366421222686768
v 1311.4503173828125 -2158.6474609375 -4.366421222686768
v 1208.5572509765625 -1760.0452880859375 -4.36646032333374
v 1161.3648681640625 -1776.6529541015625 -4.366461277008057
v 1089.2333984375 -1377.562255859375 -4.366498947143555
v 1040.91796875 -1390.556640625 -4.366500377655029
v 328.1251220703125 -2581.932373046875 5.633574962615967
v -48.223453521728516 -2743.93701171875 5.633570671081543
v -10.951949119567871 -2823.38427734375 5.633579730987549
v 359.8162841796875 -2649.48046875 5.633582592010498
v 151.39169311523438 -2132.0849609375 5.633528232574463
v -235.164306640625 -2268.11767578125 5.633520603179932
v 6.836009979248047 -1668.7183837890625 5.633481979370117
v -388.9391784667969 -1775.1810302734375 5.63347053527832
v 1752.1300048828125 -1968.95703125 5.633581638336182
v 1375.7813720703125 -2130.9619140625 5.633581638336182
v 1391.9207763671875 -2165.3740234375 5.633585453033447
v 1762.6890869140625 -1991.47021484375 5.633584022521973
v 1613.9857177734375 -1617.37158203125 5.633545398712158
v 1227.4415283203125 -1753.4046630859375 5.633542060852051
v 1504.3446044921875 -1265.899169921875 5.633509159088135
v 1108.5693359375 -1372.362060546875 5.6335039138793945
v 875.8685302734375 -2407.42724609375 -4.366418838500977
v 851.9532470703125 -2356.444091796875 -4.366424083709717
v 689.4165649414062 -1942.7418212890625 -4.366467475891113
v 557.7026977539062 -1520.543212890625 -4.366509914398193
v 377.9193115234375 -2640.984375 5.633580207824707
v 346.5089111328125 -2574.01611328125 5.633573055267334
v 170.26376342773438 -2125.438232421875 5.63352632522583
v 26.159740447998047 -1663.5242919921875 5.633479118347168
v 1373.8177490234375 -2173.8701171875 5.633583068847656
v 1357.3975830078125 -2138.8720703125 5.633578777313232
v 1208.5572509765625 -1760.0452880859375 5.63353967666626
v 1089.2333984375 -1377.562255859375 5.633501052856445
v 1396.805419921875 -4394.103515625 -4.366221904754639
v 1438.358154296875 -4366.259765625 -4.366222381591797
v 1413.992919921875 -4330.96875 -4.366227149963379
v 1372.830810546875 -4359.380859375 -4.3662261962890625
v 1381.546630859375 -4283.9599609375 -4.366232872009277
v 1339.993896484375 -4311.81005859375 -4.366231441497803
v 1352.591552734375 -4242.0224609375 -4.366237163543701
v 1311.441650390625 -4270.4345703125 -4.366236686706543
v 1285.831298828125 -4233.3310546875 -4.366240978240967
v 1326.981201171875 -4204.9189453125 -4.366241931915283
v 1217.5938720703125 -4147.5703125 -4.3662519454956055
v 1217.630615234375 -4197.57666015625 -4.366247177124023
v 200.5583038330078 -4198.3759765625 -4.366292476654053
v 197.37225341796875 -4148.3701171875 -4.366297245025635
v 100.55730438232422 -4198.46142578125 -4.366297245025635
v 97.37127685546875 -4148.44921875 -4.3663010597229
v 43.04994583129883 -3256.072509765625 -4.366382122039795
v 46.235984802246094 -3306.084716796875 -4.366377830505371
v 65.9146957397461 -3256.05419921875 -4.3663811683654785
v 65.9635238647461 -3306.06640625 -4.366376876831055
v 125.0699691772461 -3256.133544921875 -4.366378307342529
v 125.1187973022461 -3306.017578125 -4.3663740158081055
v 143.05091857910156 -3256.121337890625 -4.366377830505371
v 146.23695373535156 -3305.999267578125 -4.366373062133789
v 667.2794189453125 -3257.270751953125 -4.366354942321777
v 667.3282470703125 -3307.15478515625 -4.3663506507873535
v 684.0640869140625 -3251.203857421875 -4.366353988647461
v 715.9244384765625 -3289.5888671875 -4.366349220275879
v 742.1329345703125 -3245.051513671875 -4.366352558135986
v 693.1094970703125 -3235.8291015625 -4.366354942321777
v 733.8931884765625 -3194.03857421875 -4.366357326507568
v 690.2652587890625 -3218.220458984375 -4.366357326507568
v 471.6710205078125 -2707.22021484375 -4.366410255432129
v 426.4073486328125 -2728.4482421875 -4.366410255432129
v 2269.315185546875 -3809.307373046875 -4.366235256195068
v 2310.855712890625 -3781.45703125 -4.366235733032227
v 2129.190673828125 -3518.28564453125 -4.36626672744751
v 2088.028564453125 -3546.697509765625 -4.366266250610352
v 2028.3604736328125 -3458.7763671875 -4.366276264190674
v 2069.754638671875 -3430.9443359375 -4.366276741027832
v 1920.0108642578125 -3276.433837890625 -4.366296768188477
v 1962.0885009765625 -3249.62109375 -4.366297245025635
v 1668.9976806640625 -2809.338134765625 -4.366348743438721
v 1712.6378173828125 -2785.156005859375 -4.366348743438721
v 1380.191650390625 -4405.24267578125 5.6337809562683105
v 1356.375732421875 -4370.74560546875 5.6337761878967285
v 1039.893798828125 -4633.3271484375 5.633783340454102
v 1305.838623046875 -4297.52783203125 5.633767604827881
v 808.3589477539062 -4297.92822265625 5.633744239807129
v 189.14466857910156 -3236.126220703125 5.63362455368042
v 667.2672119140625 -3237.312255859375 5.633646011352539
v 671.3077392578125 -3235.853515625 5.633646488189697
v 673.4927978515625 -3232.142578125 5.633646488189697
v 212.2751922607422 -3235.862060546875 5.633625507354736
v 672.8092041015625 -3227.89453125 5.633646011352539
v 169.92555236816406 -3159.32470703125 5.633616924285889
v 2482.758056640625 -3274.22021484375 5.633727550506592
v 2145.657958984375 -3506.927001953125 5.633735179901123
v 2327.481689453125 -3770.318115234375 5.633766174316406
v 2667.77880859375 -3542.238525390625 5.633759021759033
v 2323.4736328125 -3019.298828125 5.6336989402771
v 1978.9097900390625 -3238.897216796875 5.633704662322998
v 2086.319580078125 -3419.805419921875 5.633725166320801
v 2425.384521484375 -3191.82470703125 5.633718013763428
v 2189.207763671875 -2767.26416015625 5.633670330047607
v 2177.35888671875 -2745.19677734375 5.633667945861816
v 1730.0816650390625 -2775.48193359375 5.63365364074707
v 2087.45703125 -2577.402587890625 5.6336493492126465
v 783.4874877929688 -4297.94921875 5.633744239807129
v 727.0397338867188 -4217.98095703125 5.633735179901123
v 101.83904266357422 -4218.462890625 5.633706569671631
v 106.95379638671875 -4298.4736328125 5.633711814880371
v 36.65345764160156 -3156.060546875 5.633609294891357
v 41.76820755004883 -3236.0712890625 5.6336188316345215
v 65.9024887084961 -3236.052978515625 5.63361930847168
v 125.0577621459961 -3236.18115234375 5.633621692657471
v 144.71107482910156 -3155.97509765625 5.633615493774414
v 71.79752349853516 -3728.10546875 -4.366336345672607
v 171.7985076904297 -3728.02001953125 -4.36632776260376
v 1264.8717041015625 -4114.93505859375 -4.366252422332764
v 1199.3321533203125 -4016.173828125 -4.3662638664245605
v 1078.6412353515625 -3812.658203125 -4.366286754608154
v 878.7907104492188 -3460.3896484375 -4.366327285766602
v 766.2174072265625 -3252.34521484375 -4.366351127624512
v 1853.8365478515625 -4087.7802734375 -4.366229057312012
v 1676.4561767578125 -3830.816162109375 -4.366259574890137
v 1614.3712158203125 -3737.12109375 -4.366270065307617
v 1499.3321533203125 -3544.549072265625 -4.3662919998168945
v 1339.2003173828125 -3248.601806640625 -4.366324424743652
v 1232.6817626953125 -3051.177734375 -4.366346836090088
v 1396.805419921875 -4394.103515625 5.633778095245361
v 1372.830810546875 -4359.380859375 5.6337738037109375
v 1294.974365234375 -4281.798828125 5.633765697479248
v 1311.441650390625 -4270.4345703125 5.633763313293457
v 1285.831298828125 -4233.3310546875 5.633759021759033
v 1269.364013671875 -4244.69580078125 5.633761405944824
v 1217.655029296875 -4217.583984375 5.6337571144104
v 1217.630615234375 -4197.57666015625 5.633753299713135
v 755.992919921875 -4217.95751953125 5.633736610412598
v 100.55730438232422 -4198.46142578125 5.633703231811523
v 43.04994583129883 -3256.072509765625 5.633618354797363
v 65.9146957397461 -3256.05419921875 5.63361930847168
v 125.0699691772461 -3256.133544921875 5.6336212158203125
v 667.2794189453125 -3257.270751953125 5.633645534515381
v 684.0640869140625 -3251.203857421875 5.633645534515381
v 693.1094970703125 -3235.8291015625 5.6336445808410645
v 690.2652587890625 -3218.220458984375 5.633642673492432
v 2310.855712890625 -3781.45703125 5.633764266967773
v 2129.190673828125 -3518.28564453125 5.63373327255249
v 2069.754638671875 -3430.9443359375 5.633723258972168
v 1962.0885009765625 -3249.62109375 5.633702754974365
v 1712.6378173828125 -2785.156005859375 5.633651256561279
v -8.56231689453125 -4198.205078125 -4.366302013397217
v -8.452455520629883 -4148.205078125 -4.366306304931641
v -652.9054565429688 -4147.0400390625 -4.3663482666015625
v -652.9541625976562 -4197.04638671875 -4.366343975067139
v -6.8411641120910645 -3305.962646484375 -4.366379737854004
v -6.7435102462768555 -3255.962646484375 -4.366384029388428
v -651.4636840820312 -3254.787353515625 -4.366410255432129
v -651.512451171875 -3304.79052734375 -4.366405963897705
v -8.598937034606934 -4218.2060546875 5.633702278137207
v -8.757624626159668 -4298.205078125 5.633707046508789
v -653.0256958007812 -4217.04052734375 5.6336750984191895
v -653.1599731445312 -4297.0390625 5.63368034362793
v -6.5359954833984375 -3155.962646484375 5.633607387542725
v -6.694683074951172 -3235.96142578125 5.633615970611572
v -651.2557373046875 -3154.790771484375 5.633579730987549
v -651.3900146484375 -3234.78955078125 5.633589267730713
v -7.6468095779418945 -3727.916015625 -4.366343975067139
v -652.2088012695312 -3726.75048828125 -4.366369724273682
v -8.56231689453125 -4198.205078125 5.633698463439941
v -652.9890747070312 -4197.0390625 5.633671283721924
v -6.743510723114014 -3255.962646484375 5.633615970611572
v -651.4266357421875 -3254.790771484375 5.633588790893555
v -613.9893188476562 1189.95361328125 5.63320255279541
v -1095.4468994140625 1421.710205078125 5.633160591125488
v -611.6455688476562 1501.42822265625 5.633174896240234
v 1509.3505859375 -1195.446044921875 5.633502960205078
v 1397.314453125 -460.09515380859375 5.633433818817139
v 1380.87158203125 -347.98577880859375 5.633423805236816
v 1369.98291015625 -122.71722412109375 5.633403301239014
v 1376.69677734375 215.50909423828125 5.633373737335205
v 1382.11669921875 441.00347900390625 5.633354663848877
v 1389.7703857421875 1458.0445556640625 5.633265972137451
v 1781.2274169921875 -1982.7750244140625 5.633584022521973
v 1770.9473876953125 -1960.85693359375 5.633581638336182
v 1633.3131103515625 -1610.570068359375 5.633544921875
v 1524.13330078125 -1260.5760498046875 5.633509635925293
v 2684.793701171875 -3530.83447265625 5.633758544921875
v 2499.613037109375 -3262.5849609375 5.633727073669434
v 2442.337646484375 -3180.42578125 5.6337175369262695
v 2340.701904296875 -3008.31884765625 5.633698463439941
v 2199.72265625 -2743.6826171875 5.633668899536133
v 2105.32568359375 -2567.49853515625 5.6336493492126465
v -541.6137084960938 -1059.783935546875 5.633403301239014
v -478.95501708984375 -1471.0626220703125 5.6334404945373535
v -1803.72314453125 -452.2461853027344 5.633293628692627
v -67.0408935546875 -2752.037353515625 5.633570671081543
v -29.4903564453125 -2832.079345703125 5.633578777313232
v -254.49208068847656 -2274.91943359375 5.633520603179932
v -408.7279357910156 -1780.5042724609375 5.63347053527832
v 1022.8795776367188 -4644.732421875 5.63378381729126
v -766.4395141601562 -3254.78125 -25.00820541381836
v -885.7671508789062 -3254.756591796875 -57.09199523925781
v -885.77001953125 -3304.77001953125 -57.09199142456055
v -766.4478149414062 -3304.7890625 -25.008201599121094
v -767.7809448242188 -4147.0390625 -25.008159637451172
v -887.0264892578125 -4147.06494140625 -57.091949462890625
v -887.0293579101562 -4197.078125 -57.09194564819336
v -767.7891235351562 -4197.0498046875 -25.008155822753906
v -886.3980102539062 -3726.753173828125 -57.09196472167969
v -767.1142578125 -3726.74951171875 -25.008180618286133
v -2086.57666015625 -3300.88916015625 -409.9669494628906
v -2086.57666015625 -3270.625244140625 -409.967041015625
v -2193.795654296875 -3272.0419921875 -414.3665466308594
v -2193.795654296875 -3300.542236328125 -414.3665466308594
v -2086.576904296875 -3722.8330078125 -409.95220947265625
v -2193.7958984375 -3722.482666015625 -414.3659973144531
v -2086.57666015625 -4143.66357421875 -409.9386291503906
v -2193.79541015625 -4143.359375 -414.3665771484375
v -1982.61572265625 -4143.9580078125 -383.0555419921875
v -1982.6156005859375 -4176.0859375 -383.0552978515625
v -1982.61572265625 -3301.224609375 -383.1115417480469
v -1982.61572265625 -3269.2509765625 -383.1117248535156
v -1982.61572265625 -3723.171875 -383.0829772949219
v -2193.795654296875 -4172.03955078125 -414.366455078125
v -2086.576416015625 -4174.09423828125 -409.9383544921875
f 22 21 23
f 23 21 24
f 347 346 348
f 347 348 349
f 349 348 350
f 349 350 351
f 351 350 352
f 351 352 353
f 343 342 344
f 343 344 345
f 42 41 43
f 42 43 44
f 2 1 3
f 2 3 4
f 4 3 5
f 4 5 6
f 559 558 560
f 559 560 561
f 561 560 562
f 562 560 563
f 367 366 368
f 368 366 369
f 327 326 328
f 328 326 329
f 328 329 330
f 330 329 331
f 32 31 33
f 33 31 34
f 33 34 35
f 33 35 36
f 36 35 37
f 36 37 38
f 38 37 39
f 38 39 40
f 553 552 554
f 553 554 555
f 555 554 556
f 556 554 557
f 26 25 27
f 27 25 28
f 27 28 29
f 29 28 30
f 333 332 334
f 334 332 335
f 334 335 336
f 334 336 337
f 337 336 338
f 338 336 339
f 338 339 340
f 338 340 341
f 710 696 709
f 693 709 696
f 696 695 693
f 694 693 695
f 694 695 732
f 731 732 695
f 732 731 718
f 717 718 731
f 718 717 719
f 720 719 717
f 247 246 248
f 248 246 249
f 248 249 250
f 250 249 251
f 250 251 252
f 252 251 253
f 252 253 254
f 254 253 255
f 738 737 739
f 740 739 737
f 737 729 740
f 730 740 729
f 729 698 730
f 699 730 698
f 698 697 699
f 700 699 697
f 697 711 700
f 712 700 711
f 355 354 356
f 355 356 357
f 357 356 358
f 357 358 359
f 359 358 360
f 360 358 361
f 360 361 362
f 362 361 363
f 362 363 364
f 364 363 365
f 257 256 258
f 258 256 259
f 258 259 260
f 260 259 261
f 260 261 262
f 262 261 263
f 262 263 46
f 46 263 45
f 46 45 47
f 47 45 48
f 47 48 49
f 47 49 50
f 50 49 51
f 50 51 52
f 52 51 53
f 52 53 54
f 54 53 55
f 54 55 56
f 56 55 57
f 57 55 58
f 8 7 9
f 8 9 10
f 10 9 11
f 11 9 12
f 11 12 13
f 11 13 14
f 14 13 15
f 14 15 16
f 16 15 17
f 16 17 18
f 18 17 19
f 19 17 20
f 371 370 372
f 372 370 373
f 372 373 374
f 372 374 375
f 375 374 376
f 375 376 377
f 377 376 378
f 377 378 379
f 379 378 257
f 257 378 256
f 417 416 418
f 417 418 419
f 118 107 119
f 105 108 107
f 108 109 107
f 109 110 107
f 112 111 113
f 111 106 113
f 105 106 111
f 106 105 107
f 107 114 106
f 114 107 115
f 115 107 116
f 116 107 118
f 117 116 118
f 583 582 584
f 583 584 585
f 585 584 586
f 586 584 587
f 427 431 426
f 426 425 427
f 427 425 428
f 432 433 429
f 430 432 429
f 429 428 430
f 428 422 430
f 425 422 428
f 424 422 425
f 423 422 424
f 422 423 421
f 421 420 422
f 577 576 578
f 577 578 579
f 579 578 580
f 580 578 581
f 435 434 436
f 435 436 437
f 435 437 438
f 438 437 439
f 121 120 122
f 121 122 123
f 125 124 126
f 125 126 127
f 127 126 128
f 447 446 448
f 728 727 725
f 726 725 727
f 725 726 735
f 736 735 726
f 735 736 707
f 706 707 736
f 706 705 707
f 708 707 705
f 705 715 708
f 716 708 715
f 441 440 442
f 441 442 443
f 441 443 444
f 441 444 445
f 141 139 142
f 141 142 143
f 141 143 144
f 144 143 155
f 144 155 156
f 156 155 157
f 156 157 158
f 158 157 159
f 158 159 160
f 160 159 161
f 161 159 162
f 724 723 721
f 722 721 723
f 721 722 733
f 734 733 722
f 733 734 703
f 702 703 734
f 702 701 703
f 704 703 701
f 701 713 704
f 714 704 713
f 291 472 290
f 291 290 292
f 292 290 293
f 292 293 294
f 294 293 295
f 294 295 296
f 296 295 297
f 296 297 140
f 140 297 139
f 140 139 141
f 130 289 129
f 130 129 131
f 130 131 132
f 130 132 133
f 130 133 134
f 134 133 135
f 134 135 136
f 134 136 137
f 134 137 138
f 138 137 145
f 138 145 146
f 146 145 147
f 146 147 148
f 148 147 149
f 148 149 150
f 150 149 151
f 150 151 152
f 150 152 153
f 153 152 154
f 454 453 455
f 455 453 456
f 455 456 466
f 455 466 467
f 467 466 468
f 467 468 469
f 469 468 470
f 469 470 471
f 471 470 472
f 471 472 291
f 450 449 451
f 450 451 452
f 450 452 458
f 458 452 457
f 458 457 459
f 459 457 460
f 459 460 461
f 461 460 462
f 461 462 463
f 463 462 464
f 463 464 283
f 283 464 465
f 283 465 282
f 283 282 284
f 284 282 285
f 284 285 286
f 286 285 287
f 286 287 288
f 288 287 289
f 288 289 130
f 66 63 67
f 63 62 64
f 65 64 62
f 81 80 82
f 78 82 80
f 78 77 79
f 60 59 61
f 76 75 73
f 75 72 73
f 72 68 73
f 71 68 72
f 70 68 71
f 69 68 70
f 74 73 68
f 386 385 387
f 385 389 387
f 388 387 389
f 390 388 389
f 391 390 389
f 391 393 390
f 392 390 393
f 381 380 382
f 381 382 383
f 384 383 382
f 276 277 404
f 405 404 277
f 405 403 404
f 403 402 404
f 399 404 402
f 402 398 399
f 399 398 400
f 401 400 398
f 401 394 400
f 395 400 394
f 395 394 396
f 397 396 394
f 103 101 104
f 102 104 101
f 101 99 102
f 100 102 99
f 99 97 100
f 98 100 97
f 97 95 98
f 96 98 95
f 95 92 96
f 93 96 92
f 92 91 93
f 94 93 91
f 94 91 281
f 280 281 91
f 280 278 281
f 279 281 278
f 278 274 279
f 275 279 274
f 275 274 276
f 277 276 274
f 89 88 90
f 87 90 88
f 88 86 87
f 86 85 87
f 83 87 85
f 84 83 85
f 272 270 273
f 271 273 270
f 271 270 269
f 268 269 270
f 268 264 269
f 265 269 264
f 265 264 266
f 267 266 264
f 614 613 615
f 663 662 664
f 665 664 662
f 617 616 618
f 619 618 616
f 610 609 611
f 612 611 609
f 692 691 681
f 680 681 691
f 681 680 682
f 683 682 680
f 679 678 675
f 674 675 678
f 675 674 676
f 677 676 674
f 656 655 657
f 658 657 655
f 658 673 657
f 672 657 673
f 673 671 672
f 670 672 671
f 671 666 670
f 667 670 666
f 667 666 668
f 669 668 666
f 199 198 200
f 200 198 201
f 200 201 223
f 200 223 207
f 207 223 206
f 207 206 208
f 208 206 209
f 208 209 210
f 210 209 211
f 210 211 212
f 210 212 213
f 660 659 661
f 474 473 475
f 475 473 476
f 475 476 500
f 475 500 482
f 482 500 481
f 482 481 483
f 483 481 484
f 483 484 485
f 483 485 486
f 489 486 485
f 488 486 489
f 487 486 488
f 486 487 490
f 541 538 542
f 550 548 551
f 550 546 548
f 549 546 550
f 549 544 546
f 542 544 549
f 542 540 544
f 542 538 540
f 538 539 540
f 538 537 539
f 540 539 543
f 540 543 544
f 544 543 545
f 544 545 546
f 546 545 547
f 546 547 548
f 548 547 314
f 548 314 315
f 315 314 316
f 315 316 317
f 231 321 226
f 325 321 231
f 325 319 321
f 324 319 325
f 324 317 319
f 323 317 324
f 323 315 317
f 322 315 323
f 322 548 315
f 551 548 322
f 317 316 318
f 317 318 319
f 319 318 320
f 319 320 321
f 321 320 225
f 321 225 226
f 226 225 227
f 226 227 228
f 228 227 229
f 228 229 230
f 243 239 244
f 243 237 239
f 242 237 243
f 242 235 237
f 233 235 242
f 233 230 235
f 232 230 233
f 232 228 230
f 232 226 228
f 231 226 232
f 230 229 234
f 230 234 235
f 235 234 236
f 235 236 237
f 237 236 238
f 237 238 239
f 239 238 240
f 239 240 241
f 245 239 241
f 244 239 245
f 312 304 306
f 312 306 313
f 302 303 304
f 304 303 305
f 304 305 306
f 306 305 307
f 311 304 312
f 311 310 304
f 309 310 311
f 309 300 310
f 308 300 309
f 308 299 300
f 299 298 300
f 300 298 301
f 300 301 302
f 302 301 303
f 529 530 531
f 531 530 532
f 531 532 533
f 533 532 534
f 534 532 535
f 534 535 536
f 503 502 504
f 503 504 505
f 505 504 523
f 505 523 524
f 524 523 525
f 525 523 526
f 525 526 527
f 527 526 528
f 527 528 529
f 529 528 530
f 516 517 518
f 518 517 519
f 518 519 520
f 520 519 521
f 521 519 522
f 507 506 508
f 507 508 509
f 509 508 510
f 509 510 511
f 511 510 512
f 511 512 513
f 513 512 514
f 513 514 515
f 513 515 516
f 516 515 517
f 595 594 596
f 595 596 597
f 597 596 598
f 597 598 599
f 589 588 590
f 589 590 591
f 591 590 592
f 592 590 593
f 189 190 191
f 191 190 192
f 191 192 193
f 193 192 194
f 194 192 195
f 194 195 196
f 164 163 165
f 164 165 166
f 166 165 197
f 197 165 184
f 197 184 185
f 185 184 186
f 185 186 187
f 187 186 188
f 187 188 189
f 189 188 190
f 632 630 633
f 631 633 630
f 630 628 631
f 629 631 628
f 628 626 629
f 627 629 626
f 626 624 627
f 625 627 624
f 624 621 625
f 622 625 621
f 621 620 622
f 623 622 620
f 623 620 641
f 640 641 620
f 640 638 641
f 639 641 638
f 638 636 639
f 637 639 636
f 637 636 634
f 635 634 636
f 635 653 634
f 654 634 653
f 654 653 652
f 650 652 653
f 650 651 652
f 650 647 651
f 648 651 647
f 647 646 648
f 649 648 646
f 646 643 649
f 644 649 643
f 643 642 644
f 645 644 642
f 601 600 602
f 601 602 603
f 603 602 604
f 603 604 605
f 608 603 605
f 607 603 608
f 606 603 607
f 606 601 603
f 203 202 204
f 203 204 205
f 205 204 224
f 224 204 214
f 224 214 215
f 215 214 216
f 215 216 217
f 217 216 218
f 217 218 219
f 219 218 220
f 220 218 221
f 220 221 222
f 478 477 479
f 478 479 480
f 480 479 501
f 501 479 491
f 501 491 492
f 492 491 493
f 492 493 494
f 494 493 495
f 494 495 496
f 496 495 497
f 497 495 498
f 497 498 499
f 178 176 179
f 178 179 180
f 178 180 181
f 181 180 182
f 182 180 183
f 168 167 169
f 168 169 170
f 170 169 172
f 172 169 171
f 172 171 173
f 172 173 174
f 174 173 175
f 174 175 176
f 174 176 177
f 177 176 178
f 688 689 690
f 685 684 686
f 686 684 687
f 687 684 688
f 407 406 408
f 408 406 409
f 575 574 572
f 571 572 574
f 571 570 572
f 573 572 570
f 413 414 415
f 413 412 414
f 410 414 412
f 411 410 412
f 569 568 566
f 565 566 568
f 565 564 566
f 567 566 564
