v 1548.779296875 462.46343994140625 -4.208010673522949
v 1553.1005859375 912.4390258789062 -4.208049774169922
v 1353.11279296875 914.3921508789062 -4.208058834075928
v 1023.0834350585938 917.6026000976562 -4.208073139190674
v 462.8905944824219 473.0469055175781 -4.208059310913086
v 467.2729187011719 923.03466796875 -4.2080979347229
v 199.84129333496094 475.86669921875 -4.208070755004883
v 204.6508331298828 925.830078125 -4.2081098556518555
v 1535.77880859375 -887.4755249023438 -4.207892894744873
v 1540.1123046875 -437.49993896484375 -4.207932949066162
v 1408.82568359375 -886.2426147460938 -4.207899570465088
v 1335.791015625 -885.5223999023438 -4.207902431488037
v 1027.94189453125 -882.5194702148438 -4.207916259765625
v 454.1138000488281 -426.9042663574219 -4.207980632781982
v 564.4409790039062 -878.0029296875 -4.2079362869262695
v 449.7192687988281 -876.8798828125 -4.207942008972168
v 185.3882293701172 -874.06005859375 -4.207953453063965
v 190.19776916503906 -424.08447265625 -4.2079925537109375
v -1874.71923828125 503.5033264160156 -4.208164215087891
v -692.4439086914062 937.5121459960938 -4.2081499099731445
v -1669.71435546875 950.7689819335938 -4.208193778991699
v -1869.68994140625 953.4789428710938 -4.208202838897705
v -990.5761108398438 -858.6060180664062 -4.208006858825684
v -1884.77783203125 -396.4356384277344 -4.208086013793945
v -1689.83154296875 -849.1211547851562 -4.208037376403809
v -1889.80712890625 -846.4111938476562 -4.2080464363098145
v -1869.140625 1003.4789428710938 -4.208207130432129
v -1669.15283203125 1000.7689819335938 -4.208198070526123
v -691.7603149414062 987.5121459960938 -4.208154201507568
v -617.2119750976562 966.064453125 -4.208149433135986
v -650.8911743164062 1003.02734375 -4.208154201507568
v -631.6528930664062 1042.28515625 -4.208156585693359
v -581.8115844726562 1038.330078125 -4.20815372467041
v -598.9502563476562 1454.47998046875 -4.208191394805908
v -549.0967407226562 1450.52490234375 -4.208188533782959
v -593.9697875976562 1517.1630859375 -4.20819616317749
v -544.1284790039062 1513.2080078125 -4.208193778991699
v -535.9985961914062 1615.72265625 -4.208202362060547
v -585.8399047851562 1619.677734375 -4.208205223083496
v -583.1299438476562 1653.84521484375 -4.208207607269287
v -533.2764282226562 1649.89013671875 -4.208205223083496
v 1011.8651733398438 1527.28271484375 -4.208127021789551
v 962.0238647460938 1531.23779296875 -4.208130359649658
v 1011.4623413085938 1522.314453125 -4.208126544952393
v 961.6210327148438 1526.26953125 -4.2081298828125
v 960.4369506835938 1511.376953125 -4.208127975463867
v 1010.2904663085938 1507.421875 -4.208125114440918
v 996.0448608398438 1327.9052734375 -4.208110332489014
v 946.1913452148438 1331.8603515625 -4.208112716674805
v 971.9237670898438 1024.06005859375 -4.208085060119629
v 922.0824584960938 1028.01513671875 -4.208086967468262
v 948.5839233398438 950.8545532226562 -4.2080793380737305
v 985.4857788085938 984.6069946289062 -4.208081245422363
v 1023.5717163085938 967.6026000976562 -4.208077430725098
v 1353.60107421875 964.3921508789062 -4.208063125610352
v 1553.5888671875 962.4390258789062 -4.208054065704346
v 1535.302734375 -937.4755249023438 -4.207888603210449
v 1408.33740234375 -936.2426147460938 -4.207894325256348
v 1335.31494140625 -935.4491577148438 -4.207897663116455
v 1027.45361328125 -932.1288452148438 -4.207911968231201
v 563.9526977539062 -927.60009765625 -4.207931995391846
v 491.4673156738281 -902.294921875 -4.207937717437744
v 521.5820922851562 -941.71142578125 -4.207932472229004
v 448.8525695800781 -966.32080078125 -4.207934379577637
v 496.8262023925781 -978.89404296875 -4.207930564880371
v 194.04306030273438 -1938.9892578125 -4.207859992980957
v 240.42977905273438 -1957.666015625 -4.207856178283691
v 143.37313842773438 -2132.474853515625 -4.207845687866211
v 189.74765014648438 -2151.139404296875 -4.207841873168945
v -1016.2216796875 -1665.726806640625 -4.207937240600586
v -969.8349609375 -1684.391357421875 -4.207932949066162
v -949.5726928710938 -1607.03125 -4.2079386711120605
v -997.5585327148438 -1594.4580078125 -4.207942008972168
v -936.7186889648438 -1557.958984375 -4.207942962646484
v -985.0829467773438 -1545.2880859375 -4.207945823669434
v -919.1649780273438 -1490.91796875 -4.207947731018066
v -965.9301147460938 -1472.15576171875 -4.207951545715332
v -814.2211303710938 -1090.34423828125 -4.207978248596191
v -862.5975952148438 -1077.67333984375 -4.207981109619141
v -866.2841186523438 -997.4487915039062 -4.207988262176514
v -819.2870483398438 -980.3833618164062 -4.2079877853393555
v -914.9169311523438 -933.5449829101562 -4.207996845245361
v -885.9496459960938 -892.7857055664062 -4.207998275756836
v -991.2597045898438 -908.5938110351562 -4.208002090454102
v -1690.380859375 -899.1211547851562 -4.208033084869385
v -1890.36865234375 -896.4111938476562 -4.208042144775391
v 1544.44580078125 12.475652694702148 -4.207971096038818
v 458.49609375 23.071308135986328 -4.208019733428955
v 195.01953125 25.89112091064453 -4.20803165435791
v -1879.74853515625 53.539955139160156 -4.20812463760376
v -646.5210571289062 1486.9384765625 5.79180383682251
v -616.4673461914062 1486.53564453125 5.791805267333984
v -613.9038696289062 1518.73779296875 5.791802883148193
v -605.7739868164062 1621.25244140625 5.7917938232421875
v -632.9712524414062 1657.80029296875 5.791789531707764
v -603.0640258789062 1655.43212890625 5.791790962219238
v 1061.7064208984375 1523.32763671875 5.79187536239624
v 1031.7991943359375 1525.69580078125 5.791873455047607
v 1031.4085693359375 1520.7275390625 5.791874885559082
v 1030.2244873046875 1505.8349609375 5.79187536239624
v 1057.2630615234375 1467.29736328125 5.791880130767822
v 1027.1849365234375 1467.59033203125 5.791878700256348
v -648.6625366210938 1464.1083984375 5.791805744171143
v -1863.80517578125 1480.586669921875 5.791751384735107
v -1868.90869140625 1023.4740600585938 5.79179048538208
v -691.4917602539062 1007.50732421875 5.791843414306641
v -618.2488403320312 1464.0810546875 5.791807174682617
v 991.8700561523438 1022.4854125976562 5.791916370391846
v 1000.2440795898438 998.1079711914062 5.791918754577637
v 1023.7670288085938 987.6099243164062 5.7919206619262695
v 1055.66796875 1444.455078125 5.791882038116455
v 1025.390869140625 1444.9776611328125 5.791881084442139
v 1558.1785888671875 1439.5584716796875 5.791904449462891
v 1553.7841796875 982.4341430664062 5.7919440269470215
v 1408.14208984375 -956.2377319335938 5.792107105255127
v 1027.25830078125 -951.9652709960938 5.79209041595459
v 965.5151977539062 -951.3549194335938 5.792088031768799
v 845.9212036132812 -1407.8863525390625 5.792121887207031
v 1530.7130126953125 -1414.5948486328125 5.792152404785156
v 1535.107421875 -957.4706420898438 5.792113304138184
v 563.7573852539062 -947.4365234375 5.792069435119629
v 533.6182250976562 -957.470703125 5.792069435119629
v 516.0278930664062 -983.9111328125 5.792070388793945
v 820.2861328125 -1425.65478515625 5.792121887207031
v 208.3023223876953 -2158.610107421875 5.7921600341796875
v 588.2083740234375 -2311.5234375 5.792190074920654
v -1034.7762451171875 -1658.256103515625 5.792061805725098
v -1016.7479858398438 -1589.4287109375 5.792056560516357
v -1413.8233642578125 -1502.0633544921875 5.7920308113098145
v -1004.4310913085938 -1540.22216796875 5.792052745819092
v -1387.9644775390625 -1403.262939453125 5.7920241355896
v -970.0438842773438 -1408.935546875 5.7920427322387695
v -881.9335327148438 -1072.607421875 5.792017459869385
v -885.0829467773438 -1004.2725219726562 5.792011260986328
v -926.5136108398438 -949.8413696289062 5.792004585266113
v -991.5282592773438 -928.6011352539062 5.791999816894531
v -1408.5762939453125 -1380.1221923828125 5.792020320892334
v -1890.58837890625 -916.4063110351562 5.791959762573242
v -1895.7037353515625 -1373.51904296875 5.791999340057373
v 214.3675994873047 1590.56396484375 -4.208167552947998
v 198.54730224609375 1391.1865234375 -4.208151340484619
v -362.56097412109375 -1714.95361328125 -4.207903861999512
v -413.2308654785156 -1908.439208984375 -4.207889556884766
v -1869.140625 1003.4789428710938 5.791792392730713
v -691.7603149414062 987.51220703125 5.791845321655273
v -650.8911743164062 1003.02734375 5.791845798492432
v -664.3555297851562 1017.81005859375 5.791843891143799
v -631.6528930664062 1042.28515625 5.791843414306641
v -651.5869750976562 1043.8720703125 5.791842460632324
v -617.2349243164062 1464.0802001953125 5.791807174682617
v -593.9697875976562 1517.1630859375 5.791804313659668
v -585.8399047851562 1619.677734375 5.791794776916504
v -583.1299438476562 1653.84521484375 5.791792869567871
v 1011.8651733398438 1527.28271484375 5.791872978210449
v 1011.4623413085938 1522.314453125 5.791873455047607
v 1010.2904663085938 1507.421875 5.791874408721924
v 971.9237670898438 1024.06005859375 5.791914939880371
v 985.4857788085938 984.6069946289062 5.791918754577637
v 1023.5717163085938 967.6026000976562 5.791922569274902
v 1553.5888671875 962.4390258789062 5.791945934295654
v 1535.302734375 -937.4755249023438 5.792111396789551
v 1408.33740234375 -936.2426147460938 5.792105674743652
v 1027.45361328125 -932.1288452148438 5.792088508605957
v 563.9526977539062 -927.60009765625 5.792068004608154
v 521.5820922851562 -941.71142578125 5.792067527770996
v 496.8262023925781 -978.89404296875 5.792069911956787
v 189.74765014648438 -2151.139404296875 5.792158126831055
v -1016.2216796875 -1665.726806640625 5.792063236236572
v -997.5585327148438 -1594.4580078125 5.79205846786499
v -985.0829467773438 -1545.2880859375 5.792054176330566
v -862.5975952148438 -1077.67333984375 5.792018890380859
v -866.2841186523438 -997.4487915039062 5.792011260986328
v -914.9169311523438 -933.5449829101562 5.792003631591797
v -991.2597045898438 -908.5938110351562 5.791998386383057
v -1890.36865234375 -896.4111938476562 5.791957855224609
v -432.1746826171875 -1955.5013427734375 -4.2078857421875
v 117.6910171508789 -2196.28515625 -4.207840919494629
v -83.23670196533203 -2620.00341796875 -4.207812786102295
v -618.5028076171875 -2348.43359375 -4.207859516143799
v -302.6580810546875 -3025.25244140625 -4.207786560058594
v -823.6663818359375 -2727.35205078125 -4.207835674285889
v -536.7645263671875 -3413.5458984375 -4.207763195037842
v -1044.5770263671875 -3093.75830078125 -4.207813262939453
v -781.8816528320312 -3786.50732421875 -4.2077412605285645
v -1278.1341552734375 -3449.12939453125 -4.20779275894165
v -1035.2142333984375 -4146.87109375 -4.20772123336792
v -1521.2493896484375 -3794.966796875 -4.207772254943848
v -1419.381591796875 -4662.16650390625 -4.207692623138428
v -1897.0794677734375 -4299.068359375 -4.207745552062988
v -1437.924072265625 -4686.09228515625 -4.207691669464111
v -1912.2039794921875 -4318.58740234375 -4.207744121551514
v 163.50399780273438 -2216.34130859375 -4.2078375816345215
v -38.63220977783203 -2642.63525390625 -4.207808971405029
v -259.2376708984375 -3050.0693359375 -4.207783222198486
v -494.44268798828125 -3440.19384765625 -4.207758903503418
v -740.5242309570312 -3814.63232421875 -4.207737445831299
v -994.7112426757812 -4176.20458984375 -4.207716464996338
v -1379.574462890625 -4692.427734375 -4.207687854766846
v -1398.397705078125 -4716.70751953125 -4.207686901092529
v -1027.8656005859375 -1694.6614990234375 -4.207934856414795
v -982.0404663085938 -1714.7298583984375 -4.2079315185546875
v -1153.7689208984375 -2076.86376953125 -4.207907199859619
v -1198.3734130859375 -2054.23193359375 -4.207911014556885
v -1344.6746826171875 -2429.45166015625 -4.207884788513184
v -1388.0950927734375 -2404.634765625 -4.207888603210449
v -1552.3895263671875 -2773.970703125 -4.2078633308410645
v -1594.6990966796875 -2747.32275390625 -4.207867622375488
v -1774.37451171875 -3111.75146484375 -4.20784330368042
v -1815.73193359375 -3083.638671875 -4.207847595214844
v -2007.28466796875 -3443.05029296875 -4.207825183868408
v -2047.78759765625 -3413.72900390625 -4.207828998565674
v -2374.777099609375 -3935.982421875 -4.207797527313232
v -2414.584228515625 -3905.72119140625 -4.207801818847656
v -2386.495849609375 -3951.0947265625 -4.207797527313232
v -2426.010009765625 -3920.46728515625 -4.20780086517334
v 181.83895874023438 -2224.37353515625 5.792164325714111
v 557.1412963867188 -2388.703369140625 5.7921953201293945
v 344.5412902832031 -2837.04150390625 5.792224884033203
v -20.7977352142334 -2651.6806640625 5.7921929359436035
v 113.74119567871094 -3263.32861328125 5.792252063751221
v -241.86705017089844 -3060.005859375 5.792219161987305
v -130.9132537841797 -3669.1123046875 5.7922773361206055
v -477.51153564453125 -3450.8505859375 5.792242527008057
v -385.2792663574219 -4056.145751953125 5.792299747467041
v -723.9837036132812 -3825.875 5.792264461517334
v -646.7719116210938 -4428.12353515625 5.79232120513916
v -978.5125122070312 -4187.935546875 5.792284965515137
v -1037.600830078125 -4952.35107421875 5.792349815368652
v -1363.656494140625 -4704.52490234375 5.792314052581787
v -1058.8707275390625 -4979.78857421875 5.792350769042969
v -1382.589599609375 -4728.96337890625 5.792314529418945
v -1421.5028076171875 -1522.3001708984375 5.7920331954956055
v -1046.2005615234375 -1686.6414794921875 5.7920637130737305
v -1581.546875 -1859.8135986328125 5.792055130004883
v -1440.2679443359375 -1514.0831298828125 5.792031764984131
v -1599.8138427734375 -1850.54541015625 5.79205322265625
v -1405.4534912109375 -2394.6982421875 5.792109489440918
v -1216.2078857421875 -2045.1741943359375 5.792087554931641
v -1761.0733642578125 -2191.37548828125 5.792076587677002
v -1611.63037109375 -2736.666015625 5.792130470275879
v -1958.228515625 -2518.392578125 5.792096138000488
v -2170.98828125 -2842.11279296875 5.792115211486816
v -1832.2724609375 -3072.3837890625 5.792150497436523
v -2395.726806640625 -3161.798583984375 5.792133331298828
v -2063.986083984375 -3401.998046875 5.792169570922852
v -2430.514404296875 -3893.6240234375 5.792195796966553
v -2756.558349609375 -3645.798095703125 5.792159557342529
v -2441.818115234375 -3908.2236328125 5.792196750640869
v -2765.536865234375 -3657.386474609375 5.792160511016846
v 163.50399780273438 -2216.34130859375 5.792162895202637
v -38.63220977783203 -2642.63525390625 5.7921905517578125
v -259.2376708984375 -3050.0693359375 5.792216777801514
v -494.44268798828125 -3440.19384765625 5.792241096496582
v -740.5242309570312 -3814.63232421875 5.792262554168701
v -994.7112426757812 -4176.20458984375 5.79228401184082
v -1379.574462890625 -4692.427734375 5.792311668395996
v -1398.397705078125 -4716.70751953125 5.792313575744629
v -1027.8656005859375 -1694.6614990234375 5.792065620422363
v -1198.3734130859375 -2054.23193359375 5.792088985443115
v -1388.0950927734375 -2404.634765625 5.792111873626709
v -1594.6990966796875 -2747.32275390625 5.79213285446167
v -1815.73193359375 -3083.638671875 5.792151927947998
v -2047.78759765625 -3413.72900390625 5.792170524597168
v -2414.584228515625 -3905.72119140625 5.7921977043151855
v -2426.010009765625 -3920.46728515625 5.792198657989502
v -1863.5499267578125 1503.4422607421875 5.791749000549316
v 1558.3983154296875 1462.4146728515625 5.791902542114258
v -1408.8621826171875 -1402.9786376953125 5.792023181915283
v -1433.6776123046875 -1497.6971435546875 5.792030334472656
v -1895.9593505859375 -1396.3746337890625 5.792001247406006
v 1530.4932861328125 -1437.4510498046875 5.792154788970947
v 839.9414672851562 -1430.712890625 5.792123794555664
v 607.2037353515625 -2319.169189453125 5.792191028594971
v 575.9063720703125 -2396.919921875 5.792196750640869
v 362.8082275390625 -2846.3095703125 5.792226314544678
v 131.52162170410156 -3273.49462890625 5.7922539710998535
v -113.58333587646484 -3680.025390625 5.79227876663208
v -368.34405517578125 -4067.65966796875 5.792301177978516
v -630.1848754882812 -4440.1328125 5.792322158813477
v -1021.298095703125 -4964.7421875 5.792350769042969
v -1042.684814453125 -4992.330078125 5.792352199554443
v -1778.8544921875 -2181.20947265625 5.792075157165527
v -1975.55859375 -2507.47900390625 5.792095184326172
v -2187.924072265625 -2830.59912109375 5.792113304138184
v -2412.313720703125 -3149.78857421875 5.7921319007873535
v -2772.860595703125 -3633.40673828125 5.792158603668213
v -2781.722900390625 -3644.8447265625 5.792159080505371
f 28 23 24
f 24 23 25
f 24 25 26
f 30 29 20
f 20 29 19
f 20 19 21
f 21 19 22
f 10 9 11
f 10 11 12
f 10 12 13
f 10 13 14
f 14 13 15
f 14 15 16
f 14 16 17
f 14 17 18
f 18 17 27
f 360 359 361
f 361 359 362
f 361 362 363
f 361 363 364
f 364 363 365
f 364 365 366
f 366 365 367
f 366 367 368
f 368 367 369
f 368 369 370
f 370 369 371
f 370 371 372
f 372 371 373
f 372 373 374
f 374 373 375
f 374 375 376
f 2 1 3
f 3 1 4
f 4 1 5
f 4 5 6
f 6 5 7
f 6 7 8
f 72 71 73
f 72 73 74
f 32 31 33
f 32 33 34
f 118 117 119
f 118 119 120
f 76 75 77
f 76 77 78
f 78 77 79
f 78 79 80
f 54 53 55
f 54 55 56
f 56 55 57
f 57 55 58
f 57 58 59
f 57 59 60
f 46 45 47
f 46 47 48
f 48 47 49
f 49 47 50
f 49 50 51
f 49 51 52
f 62 61 63
f 62 63 64
f 64 63 65
f 65 63 66
f 65 66 67
f 67 66 68
f 67 68 69
f 69 68 70
f 94 93 95
f 95 93 96
f 98 97 99
f 99 97 100
f 99 100 101
f 101 100 102
f 101 102 103
f 103 102 104
f 36 35 37
f 36 37 38
f 38 37 39
f 39 37 40
f 39 40 41
f 39 41 42
f 42 41 43
f 42 43 44
f 82 81 83
f 82 83 84
f 84 83 85
f 85 83 86
f 85 86 87
f 87 86 88
f 87 88 89
f 89 88 90
f 89 90 91
f 91 90 92
f 106 105 107
f 107 105 108
f 107 108 109
f 107 109 110
f 110 109 111
f 110 111 112
f 112 111 113
f 112 113 114
f 114 113 115
f 114 115 116
f 406 405 407
f 406 407 408
f 408 407 409
f 408 409 410
f 410 409 411
f 410 411 412
f 396 395 397
f 397 395 398
f 397 398 399
f 397 399 400
f 400 399 401
f 400 401 402
f 402 401 403
f 402 403 404
f 404 403 405
f 404 405 406
f 378 377 379
f 379 377 380
f 379 380 381
f 379 381 382
f 382 381 383
f 382 383 384
f 384 383 385
f 384 385 386
f 386 385 387
f 386 387 388
f 388 387 389
f 388 389 390
f 390 389 391
f 390 391 392
f 392 391 393
f 392 393 394
f 122 121 123
f 122 123 124
f 124 123 125
f 124 125 126
f 126 125 135
f 126 135 136
f 128 127 129
f 128 129 130
f 130 129 131
f 130 131 132
f 132 131 133
f 132 133 134
f 218 212 219
f 220 221 217
f 218 220 217
f 217 212 218
f 211 212 217
f 212 211 213
f 213 211 214
f 214 211 215
f 215 211 216
f 200 199 201
f 199 200 204
f 204 202 199
f 203 202 204
f 202 203 207
f 207 205 202
f 206 205 207
f 206 207 210
f 205 208 202
f 208 209 202
f 194 193 195
f 194 195 196
f 194 196 197
f 197 196 198
f 223 222 224
f 224 222 225
f 225 222 226
f 225 226 227
f 229 228 230
f 230 228 231
f 233 232 234
f 234 232 235
f 234 235 236
f 234 236 237
f 464 463 465
f 464 465 466
f 466 465 467
f 466 467 468
f 468 467 469
f 468 469 470
f 454 453 455
f 455 453 456
f 455 456 457
f 455 457 458
f 458 457 459
f 458 459 460
f 460 459 461
f 460 461 462
f 462 461 463
f 462 463 464
f 138 137 139
f 139 137 140
f 140 137 141
f 140 141 142
f 144 143 145
f 145 143 146
f 146 143 147
f 146 147 148
f 160 157 161
f 158 157 159
f 159 157 160
f 160 162 159
f 163 159 162
f 190 189 184
f 185 184 186
f 186 184 187
f 187 184 188
f 188 184 189
f 188 189 191
f 192 191 189
f 168 167 169
f 167 166 169
f 166 164 169
f 165 164 166
f 578 152 579
f 579 152 580
f 580 152 149
f 152 151 149
f 150 149 151
f 175 174 170
f 177 176 174
f 173 174 176
f 173 170 174
f 172 170 173
f 171 170 172
f 179 178 180
f 179 180 181
f 182 181 180
f 183 181 182
f 420 418 419
f 417 419 418
f 418 415 417
f 416 417 415
f 416 415 413
f 414 413 415
f 430 428 429
f 427 429 428
f 428 426 427
f 425 427 426
f 426 424 425
f 423 425 424
f 424 422 423
f 421 423 422
f 422 420 421
f 419 421 420
f 445 446 447
f 448 447 446
f 448 449 447
f 450 447 449
f 449 451 450
f 452 450 451
f 432 431 433
f 434 433 431
f 434 440 433
f 441 433 440
f 440 439 441
f 442 441 439
f 439 443 442
f 444 442 443
f 444 443 445
f 446 445 443
f 541 540 542
f 561 560 562
f 563 562 560
f 563 565 562
f 564 562 565
f 565 567 564
f 566 564 567
f 567 569 566
f 568 566 569
f 569 571 568
f 570 568 571
f 571 573 570
f 572 570 573
f 573 575 572
f 574 572 575
f 575 577 574
f 576 574 577
f 244 246 249
f 239 238 240
f 239 240 241
f 241 240 242
f 242 240 243
f 242 243 244
f 244 243 245
f 245 248 244
f 246 244 248
f 247 246 248
f 247 249 246
f 249 247 250
f 249 250 267
f 249 267 268
f 268 267 269
f 269 267 270
f 554 553 555
f 557 556 558
f 559 558 556
f 544 543 545
f 546 545 543
f 552 551 549
f 550 549 551
f 537 536 538
f 539 538 536
f 533 532 534
f 535 534 532
f 535 532 581
f 582 581 532
f 154 153 155
f 156 155 153
f 156 530 155
f 531 155 530
f 521 504 522
f 523 510 524
f 523 508 510
f 522 508 523
f 522 506 508
f 522 504 506
f 504 505 506
f 504 503 505
f 506 505 507
f 506 507 508
f 508 507 509
f 508 509 510
f 510 509 511
f 510 511 512
f 512 511 513
f 512 513 514
f 514 513 515
f 514 515 516
f 528 520 529
f 528 518 520
f 527 518 528
f 527 516 518
f 526 516 527
f 526 514 516
f 525 514 526
f 525 512 514
f 524 512 525
f 524 510 512
f 516 515 517
f 516 517 518
f 518 517 519
f 518 519 520
f 272 271 273
f 276 289 290
f 276 274 289
f 275 274 276
f 275 272 274
f 272 273 274
f 274 273 278
f 278 273 277
f 278 277 279
f 278 279 280
f 279 282 280
f 281 280 282
f 280 281 283
f 283 281 284
f 283 284 285
f 283 285 286
f 286 285 287
f 287 285 288
f 341 355 343
f 343 355 345
f 345 355 356
f 345 356 347
f 347 356 357
f 347 357 358
f 347 358 350
f 346 347 348
f 348 347 349
f 349 347 350
f 349 350 351
f 335 334 338
f 335 338 339
f 339 338 340
f 340 338 341
f 340 341 342
f 342 341 343
f 342 343 344
f 344 343 345
f 344 345 346
f 346 345 347
f 341 354 355
f 341 353 354
f 338 353 341
f 338 352 353
f 338 337 352
f 334 337 338
f 334 336 337
f 332 336 334
f 333 332 334
f 333 334 335
f 306 305 307
f 307 305 308
f 307 308 309
f 307 309 310
f 310 309 311
f 310 311 312
f 312 311 313
f 312 313 314
f 314 313 315
f 314 315 316
f 314 316 317
f 317 316 318
f 318 316 319
f 325 326 327
f 327 326 328
f 328 326 329
f 328 329 330
f 302 301 303
f 302 303 304
f 304 303 331
f 331 303 320
f 331 320 321
f 321 320 322
f 321 322 323
f 323 322 324
f 323 324 325
f 325 324 326
f 252 251 253
f 253 251 254
f 253 254 255
f 255 254 256
f 255 256 257
f 257 256 258
f 257 258 259
f 259 258 260
f 260 258 261
f 260 261 262
f 262 261 263
f 262 263 264
f 264 263 265
f 264 265 266
f 500 499 486
f 500 486 501
f 480 479 481
f 480 481 482
f 482 481 483
f 482 483 484
f 484 483 485
f 484 485 486
f 486 485 487
f 486 487 488
f 501 486 488
f 501 488 502
f 489 473 490
f 489 472 473
f 472 471 473
f 473 471 474
f 473 474 475
f 473 475 476
f 476 475 477
f 476 477 478
f 478 477 479
f 478 479 480
f 498 499 500
f 498 497 499
f 496 497 498
f 496 495 497
f 494 495 496
f 494 493 495
f 492 493 494
f 492 491 493
f 490 491 492
f 490 473 491
f 298 299 300
f 298 296 299
f 297 296 298
f 295 296 297
f 295 294 296
f 293 294 295
f 293 292 294
f 291 292 293
f 291 289 292
f 290 289 291
f 587 589 588
f 590 588 589
f 589 591 590
f 592 590 591
f 591 593 592
f 594 592 593
f 547 436 548
f 437 548 436
f 436 435 437
f 438 437 435
f 435 583 438
f 584 438 583
f 583 585 584
f 586 584 585
f 585 587 586
f 588 586 587
