v -2514.3798828125 -1795.4713134765625 -4.999952793121338
v -2077.960205078125 -2207.21435546875 -4.999897480010986
v -1875.72021484375 -1121.0084228515625 -4.999983787536621
v -1438.7449951171875 -1532.1778564453125 -4.999928951263428
v -4.443359851837158 1.8432611227035522 -5.0
v -441.9861145019531 412.4023132324219 -5.00005578994751
v 1430.9019775390625 1526.0987548828125 -5.000070571899414
v 997.5585327148438 1941.11328125 -5.000126361846924
v 1672.7843017578125 2634.36279296875 -5.000157833099365
v 2102.593994140625 2215.71044921875 -5.000101566314697
v -2550.750732421875 -1761.1573486328125 -4.999957084655762
v -1912.1337890625 -1086.7432861328125 -4.999988555908203
v -478.4485168457031 446.6186218261719 -5.000060081481934
v 961.4440307617188 1975.69580078125 -5.000130653381348
v 1636.9627685546875 2669.25048828125 -5.000161647796631
v -1641.5404052734375 -2618.9697265625 -4.999842643737793
v -1605.1756591796875 -2653.28369140625 -4.999838352203369
v -1001.7760620117188 -1943.34716796875 -4.999873638153076
v -965.3624877929688 -1977.6123046875 -4.999868869781494
v 469.5617980957031 -442.9320983886719 -4.999940872192383
v 433.0993957519531 -408.7157897949219 -4.999945163726807
v 1900.35400390625 1076.5015869140625 -5.0000104904174805
v 1864.24560546875 1111.0841064453125 -5.000015735626221
v 2532.40966796875 1797.0704345703125 -5.000046253204346
v 2568.22509765625 1762.1827392578125 -5.000041961669922
v -2565.29541015625 -1747.4244384765625 5.000040531158447
v -1926.702880859375 -1073.0469970703125 5.000009536743164
v -2224.94970703125 -792.4014892578125 4.999972343444824
v -2863.170166015625 -1466.395263671875 5.000003337860107
v -493.0359191894531 460.3027038574219 4.999938011169434
v -791.6722412109375 740.5180053710938 4.9999003410339355
v 947.0031127929688 1989.53857421875 4.999866962432861
v 651.2266845703125 2272.7998046875 4.99983024597168
v 1622.6378173828125 2683.203125 4.999835968017578
v 1329.2738037109375 2968.940673828125 4.9997992515563965
v -1292.755859375 -2948.045166015625 5.000200271606445
v -652.5465087890625 -2271.9541015625 5.0001702308654785
v -950.7933959960938 -1991.30859375 5.0001325607299805
v -1590.6248779296875 -2667.00439453125 5.000163555145264
v 782.7852172851562 -736.8314819335938 5.00009822845459
v 484.1430969238281 -456.6161804199219 5.00006103515625
v 2210.577392578125 779.3975219726562 5.000028133392334
v 1914.801025390625 1062.6588134765625 4.999990940093994
v 2875.920166015625 1462.4925537109375 4.999997615814209
v 2582.55615234375 1748.2301025390625 4.999959468841553
v -2550.750732421875 -1761.1573486328125 5.00004243850708
v -1912.1337890625 -1086.7432861328125 5.000011920928955
v -478.4485168457031 446.6186218261719 4.999939918518066
v 961.4440307617188 1975.69580078125 4.999869346618652
v 1636.9627685546875 2669.25048828125 4.999838352203369
v -1605.1756591796875 -2653.28369140625 5.000161647796631
v -965.3624877929688 -1977.6123046875 5.000131130218506
v 469.5617980957031 -442.9320983886719 5.000059127807617
v 1900.35400390625 1076.5015869140625 4.999989032745361
v 2568.22509765625 1762.1827392578125 4.999958038330078
v -2239.862060546875 -778.3692626953125 4.99997091293335
v -2878.06396484375 -1452.3438720703125 5.000000953674316
v -806.6040649414062 754.5287475585938 4.999898910522461
v 636.4378662109375 2286.962890625 4.999827861785889
v 1314.6055908203125 2983.2275390625 4.9997968673706055
v -1277.8624267578125 -2962.09716796875 5.0002031326293945
v -637.6341552734375 -2285.986328125 5.000172138214111
v 797.7173461914062 -750.8422241210938 5.000100612640381
v 2225.3662109375 765.2344970703125 5.000030517578125
v 2890.58837890625 1448.2056884765625 4.999999523162842
f 2 1 3
f 2 3 4
f 4 3 5
f 5 3 6
f 5 6 7
f 7 6 8
f 7 8 9
f 7 9 10
f 12 11 13
f 12 13 14
f 14 13 15
f 15 13 16
f 15 16 17
f 17 16 18
f 17 18 19
f 17 19 20
f 22 21 23
f 22 23 24
f 24 23 25
f 25 23 26
f 25 26 27
f 27 26 28
f 27 28 29
f 27 29 30
f 52 51 53
f 52 53 54
f 54 53 55
f 55 53 56
f 55 56 57
f 57 56 58
f 57 58 59
f 57 59 60
f 49 47 50
f 48 50 47
f 47 45 48
f 46 48 45
f 45 42 46
f 43 46 42
f 42 41 43
f 44 43 41
f 34 33 31
f 32 31 33
f 33 36 32
f 35 32 36
f 36 38 35
f 37 35 38
f 38 40 37
f 39 37 40
f 89 85 90
f 77 76 78
f 77 78 79
f 86 77 79
f 86 79 87
f 87 79 88
f 88 79 81
f 88 81 89
f 89 81 83
f 89 83 85
f 83 84 85
f 83 82 84
f 81 82 83
f 81 80 82
f 79 80 81
f 79 78 80
f 71 64 72
f 72 64 65
f 72 65 73
f 73 65 67
f 73 67 74
f 74 70 75
f 74 67 70
f 67 69 70
f 67 68 69
f 67 66 68
f 65 66 67
f 65 63 66
f 64 63 65
f 62 63 64
f 71 62 64
f 62 61 63
f 109 107 110
f 108 110 107
f 107 105 108
f 106 108 105
f 105 102 106
f 103 106 102
f 102 101 103
f 104 103 101
f 100 98 99
f 97 99 98
f 98 96 97
f 95 97 96
f 96 94 95
f 91 95 94
f 94 93 91
f 92 91 93
