# from WD_B09_MiscBanners_VertexLit_LOD_0.pskx
v 3257.244384765625 903.6686401367188 311.8757019042969
v 3256.85302734375 905.06982421875 315.38836669921875
v 3092.585205078125 859.1627197265625 315.38836669921875
v 3092.97705078125 857.7612915039062 311.8757019042969
v 3255.907470703125 908.4529418945312 316.84320068359375
v 3091.639892578125 862.5457153320312 316.84332275390625
v 3254.962158203125 911.8358764648438 315.38836669921875
v 3090.694580078125 865.9286499023438 315.3883361816406
v 3254.5703125 913.2372436523438 311.8757019042969
v 3090.302978515625 867.3298950195312 311.8757019042969
v 3254.962158203125 911.8358764648438 308.36297607421875
v 3090.694580078125 865.9286499023438 308.3629455566406
v 3255.907470703125 908.4529418945312 306.9080810546875
v 3091.639892578125 862.5457153320312 306.9080810546875
v 3256.85302734375 905.06982421875 308.36297607421875
v 3092.585205078125 859.1627197265625 308.3629455566406
v 3255.907470703125 908.4529418945312 306.9080810546875
v 3254.962158203125 911.8358764648438 308.36297607421875
v 3254.5703125 913.2372436523438 311.8757019042969
v 3254.962158203125 911.8358764648438 315.38836669921875
v 3255.907470703125 908.4529418945312 316.84320068359375
v 3256.85302734375 905.06982421875 315.38836669921875
v 3257.244384765625 903.6686401367188 311.8757019042969
v 3256.85302734375 905.06982421875 308.36297607421875
v 3092.585205078125 859.1627197265625 315.38836669921875
v 3091.639892578125 862.5457153320312 316.84332275390625
v 3090.694580078125 865.9286499023438 315.3883361816406
v 3090.302978515625 867.3298950195312 311.8757019042969
v 3090.694580078125 865.9286499023438 308.3629455566406
v 3091.639892578125 862.5457153320312 306.9080810546875
v 3092.585205078125 859.1627197265625 308.3629455566406
v 3092.97705078125 857.7612915039062 311.8757019042969
v 3257.244384765625 903.6686401367188 -311.8751525878906
v 3256.85302734375 905.06982421875 -308.36248779296875
v 3092.585205078125 859.1627197265625 -308.36248779296875
v 3092.97705078125 857.7614135742188 -311.8751525878906
v 3255.907470703125 908.4530029296875 -306.90753173828125
v 3091.639892578125 862.5457153320312 -306.90753173828125
v 3254.962158203125 911.8358764648438 -308.36248779296875
v 3090.694580078125 865.9286499023438 -308.36248779296875
v 3254.5703125 913.2373046875 -311.8751525878906
v 3090.302734375 867.3300170898438 -311.8751525878906
v 3254.962158203125 911.8358764648438 -315.38775634765625
v 3090.694580078125 865.9286499023438 -315.38775634765625
v 3255.907470703125 908.4530029296875 -316.84271240234375
v 3091.639892578125 862.5457153320312 -316.8427734375
v 3256.85302734375 905.06982421875 -315.38775634765625
v 3092.585205078125 859.1627197265625 -315.38775634765625
v 3255.907470703125 908.4530029296875 -316.84271240234375
v 3254.962158203125 911.8358764648438 -315.38775634765625
v 3254.5703125 913.2373046875 -311.8751525878906
v 3254.962158203125 911.8358764648438 -308.36248779296875
v 3255.907470703125 908.4530029296875 -306.90753173828125
v 3256.85302734375 905.06982421875 -308.36248779296875
v 3257.244384765625 903.6686401367188 -311.8751525878906
v 3256.85302734375 905.06982421875 -315.38775634765625
v 3092.585205078125 859.1627197265625 -308.36248779296875
v 3091.639892578125 862.5457153320312 -306.90753173828125
v 3090.694580078125 865.9286499023438 -308.36248779296875
v 3090.302734375 867.3300170898438 -311.8751525878906
v 3090.694580078125 865.9286499023438 -315.38775634765625
v 3091.639892578125 862.5457153320312 -316.8427734375
v 3092.585205078125 859.1627197265625 -315.38775634765625
v 3092.97705078125 857.7614135742188 -311.8751525878906
v 3243.97900390625 906.784912109375 -308.2846984863281
v 3100.16650390625 866.5941772460938 -308.28472900390625
v 3100.166259765625 866.5939331054688 308.6418151855469
v 3243.979248046875 906.784912109375 308.6418151855469
v 3100.955322265625 863.7481689453125 -308.28472900390625
v 3244.76806640625 903.9390869140625 -308.2846984863281
v 3244.768798828125 903.9392700195312 308.6418151855469
v 3100.955078125 863.748291015625 308.6418151855469
v 180.1041717529297 41.122257232666016 311.8754577636719
v 179.71258544921875 42.52342987060547 315.38812255859375
v 15.444965362548828 -3.3836145401000977 315.3880920410156
v 15.836604118347168 -4.785010814666748 311.8754577636719
v 178.76712036132812 45.90657424926758 316.843017578125
v 14.499544143676758 -0.0006750877946615219 316.84307861328125
v 177.8217010498047 49.289512634277344 315.38812255859375
v 13.554129600524902 3.382265329360962 315.3880920410156
v 177.43006896972656 50.690853118896484 311.8754577636719
v 13.162511825561523 4.7835869789123535 311.8754577636719
v 177.8217010498047 49.289512634277344 308.3627624511719
v 13.554130554199219 3.3822646141052246 308.3627624511719
v 178.76712036132812 45.90657424926758 306.9078674316406
v 14.499545097351074 -0.0006759563111700118 306.9078369140625
v 179.71258544921875 42.52342987060547 308.3627624511719
v 15.444965362548828 -3.383615255355835 308.3627624511719
v 178.76712036132812 45.90657424926758 306.9078674316406
v 177.8217010498047 49.289512634277344 308.3627624511719
v 177.43006896972656 50.690853118896484 311.8754577636719
v 177.8217010498047 49.289512634277344 315.38812255859375
v 178.76712036132812 45.90657424926758 316.843017578125
v 179.71258544921875 42.52342987060547 315.38812255859375
v 180.1041717529297 41.122257232666016 311.8754577636719
v 179.71258544921875 42.52342987060547 308.3627624511719
v 15.444965362548828 -3.3836145401000977 315.3880920410156
v 14.499544143676758 -0.0006750877946615219 316.84307861328125
v 13.554129600524902 3.382265329360962 315.3880920410156
v 13.162511825561523 4.7835869789123535 311.8754577636719
v 13.554130554199219 3.3822646141052246 308.3627624511719
v 14.499545097351074 -0.0006759563111700118 306.9078369140625
v 15.444965362548828 -3.383615255355835 308.3627624511719
v 15.836604118347168 -4.785010814666748 311.8754577636719
v 180.10423278808594 41.122222900390625 -311.8753662109375
v 179.712646484375 42.52339553833008 -308.3627014160156
v 15.445033073425293 -3.3836257457733154 -308.3627014160156
v 15.836679458618164 -4.785020351409912 -311.8753662109375
v 178.7671661376953 45.90653991699219 -306.90771484375
v 14.499598503112793 -0.0007296177791431546 -306.9077453613281
v 177.82176208496094 49.28947830200195 -308.3627014160156
v 13.554183959960938 3.3822107315063477 -308.3627014160156
v 177.43011474609375 50.69085693359375 -311.8753662109375
v 13.162578582763672 4.783576011657715 -311.8753662109375
v 177.82176208496094 49.28947830200195 -315.3879699707031
v 13.554183959960938 3.3822100162506104 -315.3879699707031
v 178.7671661376953 45.90653991699219 -316.8429260253906
v 14.49959945678711 -0.0007304863538593054 -316.8429870605469
v 179.712646484375 42.52339553833008 -315.3879699707031
v 15.44503402709961 -3.3836264610290527 -315.3879699707031
v 178.7671661376953 45.90653991699219 -316.8429260253906
v 177.82176208496094 49.28947830200195 -315.3879699707031
v 177.43011474609375 50.69085693359375 -311.8753662109375
v 177.82176208496094 49.28947830200195 -308.3627014160156
v 178.7671661376953 45.90653991699219 -306.90771484375
v 179.712646484375 42.52339553833008 -308.3627014160156
v 180.10423278808594 41.122222900390625 -311.8753662109375
v 179.712646484375 42.52339553833008 -315.3879699707031
v 15.445033073425293 -3.3836257457733154 -308.3627014160156
v 14.499598503112793 -0.0007296177791431546 -306.9077453613281
v 13.554183959960938 3.3822107315063477 -308.3627014160156
v 13.162578582763672 4.783576011657715 -311.8753662109375
v 13.554183959960938 3.3822100162506104 -315.3879699707031
v 14.49959945678711 -0.0007304863538593054 -316.8429870605469
v 15.44503402709961 -3.3836264610290527 -315.3879699707031
v 15.836679458618164 -4.785020351409912 -311.8753662109375
v 166.83897399902344 44.238525390625 -308.2848815917969
v 23.025909423828125 4.047595500946045 -308.2848815917969
v 23.025815963745117 4.047597885131836 308.6416015625
v 166.83897399902344 44.2385368347168 308.6416015625
v 23.81500816345215 1.2017754316329956 -308.2848815917969
v 167.62806701660156 41.39268112182617 -308.2848815917969
v 167.6280517578125 41.392784118652344 308.6416015625
v 23.814889907836914 1.2018675804138184 308.6416015625
v -2904.35498046875 -823.5728759765625 311.87530517578125
v -2904.74658203125 -822.1716918945312 315.387939453125
v -3069.01416015625 -868.0787353515625 315.387939453125
v -3068.62255859375 -869.4800415039062 311.8752746582031
v -2905.6923828125 -818.7886352539062 316.84283447265625
v -3069.959716796875 -864.6957397460938 316.8428955078125
v -2906.637451171875 -815.4055786132812 315.387939453125
v -3070.905029296875 -861.3128662109375 315.387939453125
v -2907.029541015625 -814.0043334960938 311.87530517578125
v -3071.296630859375 -859.9114990234375 311.8752746582031
v -2906.637451171875 -815.4055786132812 308.3625793457031
v -3070.905029296875 -861.3128662109375 308.3625793457031
v -2905.6923828125 -818.7886352539062 306.9076843261719
v -3069.959716796875 -864.6957397460938 306.90765380859375
v -2904.74658203125 -822.1716918945312 308.3625793457031
v -3069.01416015625 -868.0787353515625 308.3625793457031
v -2905.6923828125 -818.7886352539062 306.9076843261719
v -2906.637451171875 -815.4055786132812 308.3625793457031
v -2907.029541015625 -814.0043334960938 311.87530517578125
v -2906.637451171875 -815.4055786132812 315.387939453125
v -2905.6923828125 -818.7886352539062 316.84283447265625
v -2904.74658203125 -822.1716918945312 315.387939453125
v -2904.35498046875 -823.5728759765625 311.87530517578125
v -2904.74658203125 -822.1716918945312 308.3625793457031
v -3069.01416015625 -868.0787353515625 315.387939453125
v -3069.959716796875 -864.6957397460938 316.8428955078125
v -3070.905029296875 -861.3128662109375 315.387939453125
v -3071.296630859375 -859.9114990234375 311.8752746582031
v -3070.905029296875 -861.3128662109375 308.3625793457031
v -3069.959716796875 -864.6957397460938 306.90765380859375
v -3069.01416015625 -868.0787353515625 308.3625793457031
v -3068.62255859375 -869.4800415039062 311.8752746582031
v -2904.35498046875 -823.5728759765625 -311.87554931640625
v -2904.74658203125 -822.171630859375 -308.3628845214844
v -3069.01416015625 -868.07861328125 -308.3629150390625
v -3068.62255859375 -869.4800415039062 -311.87554931640625
v -2905.6923828125 -818.7886352539062 -306.9079284667969
v -3069.959716796875 -864.6957397460938 -306.9079284667969
v -2906.637451171875 -815.4055786132812 -308.3628845214844
v -3070.905029296875 -861.3128662109375 -308.3629150390625
v -2907.029541015625 -814.0043334960938 -311.87554931640625
v -3071.296630859375 -859.9114990234375 -311.8755798339844
v -2906.637451171875 -815.4055786132812 -315.3881530761719
v -3070.905029296875 -861.3128662109375 -315.38818359375
v -2905.6923828125 -818.7886352539062 -316.8431091308594
v -3069.959716796875 -864.6957397460938 -316.84320068359375
v -2904.74658203125 -822.171630859375 -315.3881530761719
v -3069.01416015625 -868.07861328125 -315.38818359375
v -2905.6923828125 -818.7886352539062 -316.8431091308594
v -2906.637451171875 -815.4055786132812 -315.3881530761719
v -2907.029541015625 -814.0043334960938 -311.87554931640625
v -2906.637451171875 -815.4055786132812 -308.3628845214844
v -2905.6923828125 -818.7886352539062 -306.9079284667969
v -2904.74658203125 -822.171630859375 -308.3628845214844
v -2904.35498046875 -823.5728759765625 -311.87554931640625
v -2904.74658203125 -822.171630859375 -315.3881530761719
v -3069.01416015625 -868.07861328125 -308.3629150390625
v -3069.959716796875 -864.6957397460938 -306.9079284667969
v -3070.905029296875 -861.3128662109375 -308.3629150390625
v -3071.296630859375 -859.9114990234375 -311.8755798339844
v -3070.905029296875 -861.3128662109375 -315.38818359375
v -3069.959716796875 -864.6957397460938 -316.84320068359375
v -3069.01416015625 -868.07861328125 -315.38818359375
v -3068.62255859375 -869.4800415039062 -311.87554931640625
v -2917.6201171875 -820.4564208984375 -308.28509521484375
v -3061.433349609375 -860.6473999023438 -308.28509521484375
v -3061.433349609375 -860.6475219726562 308.6413879394531
v -2917.6201171875 -820.45654296875 308.64141845703125
v -3060.64453125 -863.4933471679688 -308.28509521484375
v -2916.831298828125 -823.3023681640625 -308.28509521484375
v -2916.831298828125 -823.3023681640625 308.64141845703125
v -3060.644287109375 -863.4932861328125 308.6413879394531
v -5989.4736328125 -1688.1766357421875 311.8751220703125
v -5989.865234375 -1686.775390625 315.38775634765625
v -6154.13232421875 -1732.6822509765625 315.38775634765625
v -6153.7412109375 -1734.083740234375 311.8751220703125
v -5990.810546875 -1683.392333984375 316.8426208496094
v -6155.078125 -1729.299560546875 316.8427429199219
v -5991.755859375 -1680.00927734375 315.38775634765625
v -6156.02294921875 -1725.91650390625 315.38775634765625
v -5992.1474609375 -1678.6080322265625 311.8751220703125
v -6156.4150390625 -1724.5152587890625 311.8751220703125
v -5991.755859375 -1680.00927734375 308.3623962402344
v -6156.02294921875 -1725.91650390625 308.36236572265625
v -5990.810546875 -1683.392333984375 306.907470703125
v -6155.078125 -1729.299560546875 306.907470703125
v -5989.865234375 -1686.775390625 308.3623962402344
v -6154.13232421875 -1732.6822509765625 308.36236572265625
v -5990.810546875 -1683.392333984375 306.907470703125
v -5991.755859375 -1680.00927734375 308.3623962402344
v -5992.1474609375 -1678.6080322265625 311.8751220703125
v -5991.755859375 -1680.00927734375 315.38775634765625
v -5990.810546875 -1683.392333984375 316.8426208496094
v -5989.865234375 -1686.775390625 315.38775634765625
v -5989.4736328125 -1688.1766357421875 311.8751220703125
v -5989.865234375 -1686.775390625 308.3623962402344
v -6154.13232421875 -1732.6822509765625 315.38775634765625
v -6155.078125 -1729.299560546875 316.8427429199219
v -6156.02294921875 -1725.91650390625 315.38775634765625
v -6156.4150390625 -1724.5152587890625 311.8751220703125
v -6156.02294921875 -1725.91650390625 308.36236572265625
v -6155.078125 -1729.299560546875 306.907470703125
v -6154.13232421875 -1732.6822509765625 308.36236572265625
v -6153.7412109375 -1734.083740234375 311.8751220703125
v -5989.4736328125 -1688.1766357421875 -311.8757629394531
v -5989.865234375 -1686.775390625 -308.36309814453125
v -6154.1318359375 -1732.6822509765625 -308.36309814453125
v -6153.74072265625 -1734.083740234375 -311.8757629394531
v -5990.810546875 -1683.3922119140625 -306.90814208984375
v -6155.078125 -1729.299560546875 -306.90814208984375
v -5991.755859375 -1680.00927734375 -308.36309814453125
v -6156.02294921875 -1725.91650390625 -308.36309814453125
v -5992.1474609375 -1678.6080322265625 -311.8757629394531
v -6156.41455078125 -1724.5152587890625 -311.8757629394531
v -5991.755859375 -1680.00927734375 -315.3883361816406
v -6156.02294921875 -1725.91650390625 -315.3883361816406
v -5990.810546875 -1683.3922119140625 -316.8432922363281
v -6155.078125 -1729.299560546875 -316.8433837890625
v -5989.865234375 -1686.775390625 -315.3883361816406
v -6154.1318359375 -1732.6822509765625 -315.3883361816406
v -5990.810546875 -1683.3922119140625 -316.8432922363281
v -5991.755859375 -1680.00927734375 -315.3883361816406
v -5992.1474609375 -1678.6080322265625 -311.8757629394531
v -5991.755859375 -1680.00927734375 -308.36309814453125
v -5990.810546875 -1683.3922119140625 -306.90814208984375
v -5989.865234375 -1686.775390625 -308.36309814453125
v -5989.4736328125 -1688.1766357421875 -311.8757629394531
v -5989.865234375 -1686.775390625 -315.3883361816406
v -6154.1318359375 -1732.6822509765625 -308.36309814453125
v -6155.078125 -1729.299560546875 -306.90814208984375
v -6156.02294921875 -1725.91650390625 -308.36309814453125
v -6156.41455078125 -1724.5152587890625 -311.8757629394531
v -6156.02294921875 -1725.91650390625 -315.3883361816406
v -6155.078125 -1729.299560546875 -316.8433837890625
v -6154.1318359375 -1732.6822509765625 -315.3883361816406
v -6153.74072265625 -1734.083740234375 -311.8757629394531
v -6002.73828125 -1685.0601806640625 -308.2852783203125
v -6146.5517578125 -1725.251220703125 -308.2853088378906
v -6146.5517578125 -1725.251220703125 308.6412048339844
v -6002.73828125 -1685.060302734375 308.6412048339844
v -6145.7626953125 -1728.0970458984375 -308.2853088378906
v -6001.94970703125 -1687.9061279296875 -308.2852783203125
v -6001.94970703125 -1687.9058837890625 308.6412048339844
v -6145.7626953125 -1728.0968017578125 308.6412048339844
f 28 27 29
f 26 25 27
f 27 25 31
f 29 27 31
f 30 29 31
f 31 25 32
f 15 12 16
f 13 16 12
f 12 11 13
f 14 13 11
f 9 6 10
f 7 10 6
f 6 5 7
f 8 7 5
f 343 337 344
f 338 337 339
f 339 337 343
f 341 339 343
f 342 341 343
f 340 339 341
f 335 329 336
f 330 329 331
f 331 329 335
f 333 331 335
f 334 333 335
f 332 331 333
f 325 322 326
f 323 326 322
f 322 321 323
f 324 323 321
f 319 316 320
f 317 320 316
f 316 315 317
f 318 317 315
f 313 310 314
f 311 314 310
f 310 309 311
f 312 311 309
f 303 297 304
f 298 297 299
f 299 297 303
f 301 299 303
f 302 301 303
f 300 299 301
f 295 289 296
f 290 289 291
f 291 289 295
f 293 291 295
f 294 293 295
f 292 291 293
f 254 253 255
f 252 251 253
f 253 251 255
f 251 249 255
f 255 249 256
f 250 249 251
f 247 241 248
f 242 241 243
f 243 241 247
f 245 243 247
f 246 245 247
f 244 243 245
f 215 209 216
f 210 209 211
f 211 209 215
f 213 211 215
f 214 213 215
f 212 211 213
f 207 201 208
f 202 201 203
f 203 201 207
f 205 203 207
f 206 205 207
f 204 203 205
f 191 188 192
f 189 192 188
f 188 187 189
f 190 189 187
f 185 182 186
f 183 186 182
f 182 181 183
f 184 183 181
f 167 161 168
f 162 161 163
f 163 161 167
f 165 163 167
f 166 165 167
f 164 163 165
f 159 153 160
f 154 153 155
f 155 153 159
f 157 155 159
f 158 157 159
f 156 155 157
f 149 146 150
f 147 150 146
f 146 145 147
f 148 147 145
f 143 140 144
f 141 144 140
f 140 139 141
f 142 141 139
f 137 134 138
f 135 138 134
f 134 133 135
f 136 135 133
f 127 121 128
f 122 121 123
f 123 121 127
f 125 123 127
f 126 125 127
f 124 123 125
f 119 113 120
f 114 113 115
f 115 113 119
f 117 115 119
f 118 117 119
f 116 115 117
f 78 77 79
f 76 75 77
f 77 75 79
f 75 73 79
f 79 73 80
f 74 73 75
f 71 65 72
f 66 65 67
f 67 65 71
f 69 67 71
f 70 69 71
f 68 67 69
f 39 33 40
f 34 33 35
f 35 33 39
f 37 35 39
f 38 37 39
f 36 35 37
f 285 282 286
f 283 286 282
f 282 281 283
f 284 283 281
f 279 276 280
f 277 280 276
f 276 275 277
f 278 277 275
f 273 270 274
f 271 274 270
f 270 269 271
f 272 271 269
f 218 217 219
f 220 219 217
f 217 239 220
f 240 220 239
f 237 234 238
f 235 238 234
f 234 233 235
f 236 235 233
f 231 228 232
f 229 232 228
f 228 227 229
f 230 229 227
f 178 177 179
f 180 179 177
f 177 199 180
f 200 180 199
f 197 194 198
f 195 198 194
f 194 193 195
f 196 195 193
f 109 106 110
f 107 110 106
f 106 105 107
f 108 107 105
f 103 100 104
f 101 104 100
f 100 99 101
f 102 101 99
f 97 94 98
f 95 98 94
f 94 93 95
f 96 95 93
f 42 41 43
f 44 43 41
f 41 63 44
f 64 44 63
f 61 58 62
f 59 62 58
f 58 57 59
f 60 59 57
f 55 52 56
f 53 56 52
f 52 51 53
f 54 53 51
f 48 47 45
f 46 45 47
f 47 50 46
f 49 46 50
f 2 1 3
f 4 3 1
f 1 23 4
f 24 4 23
f 130 129 131
f 132 131 129
f 129 151 132
f 152 132 151
f 20 19 17
f 18 17 19
f 19 22 18
f 21 18 22
f 328 308 327
f 305 327 308
f 308 307 305
f 306 305 307
f 90 89 91
f 92 91 89
f 89 111 92
f 112 92 111
f 266 265 267
f 268 267 265
f 265 287 268
f 288 268 287
f 225 222 226
f 223 226 222
f 222 221 223
f 224 223 221
f 82 81 83
f 84 83 81
f 86 85 87
f 88 87 85
f 170 169 171
f 172 171 169
f 174 173 175
f 176 175 173
f 258 257 259
f 260 259 257
f 262 261 263
f 264 263 261
f 346 345 347
f 348 347 345
f 350 349 351
f 352 351 349
