# from WD_B07_SpawnTunnel_LOD_0.pskx
v 61.17926788330078 564.3770751953125 -186.0711212158203
v 61.17911148071289 564.377197265625 401.297119140625
v -141.66122436523438 490.8666076660156 401.29718017578125
v -141.66104125976562 490.8664855957031 -241.6767578125
v 193.16860961914062 -414.9151306152344 -241.67654418945312
v -141.66104125976562 490.8664855957031 -241.6767578125
v -141.66122436523438 490.8666076660156 401.29718017578125
v 193.16842651367188 -414.9150085449219 401.2973937988281
v 61.17911148071289 564.377197265625 401.297119140625
v 395.6142272949219 -341.2795715332031 401.2973937988281
v 193.16842651367188 -414.9150085449219 401.2973937988281
v -141.66122436523438 490.8666076660156 401.29718017578125
v 395.6142272949219 -341.2795715332031 401.2973937988281
v 395.6144104003906 -341.2796630859375 -186.07090759277344
v 193.16860961914062 -414.9151306152344 -241.67654418945312
v 193.16842651367188 -414.9150085449219 401.2973937988281
v 395.6144104003906 -341.2796630859375 -186.07090759277344
v 61.17926788330078 564.3770751953125 -186.0711212158203
v -141.66104125976562 490.8664855957031 -241.6767578125
v 193.16860961914062 -414.9151306152344 -241.67654418945312
f 2 1 3
f 8 7 9
f 10 9 7
f 5 4 6
f 27 26 28
f 12 11 13
f 24 23 25
f 15 14 16
f 21 20 22
f 18 17 19
