# from WD_B08_FestivalBanners01_VertexLit_LOD_0.pskx
v -733.4730834960938 -0.3714350163936615 837.4865112304688
v -733.4783935546875 2.6703059673309326 844.83056640625
v -1118.817138671875 1.9979192018508911 844.83056640625
v -1118.8121337890625 -1.044344425201416 837.4865112304688
v -733.4913940429688 10.014741897583008 847.87255859375
v -1118.8302001953125 9.341865539550781 847.8726806640625
v -733.5040893554688 17.358720779418945 844.83056640625
v -1118.8428955078125 16.685876846313477 844.83056640625
v -733.5093994140625 20.40085220336914 837.4865112304688
v -1118.8482666015625 19.727943420410156 837.4865112304688
v -733.5040893554688 17.358718872070312 830.1422729492188
v -1118.8428955078125 16.685874938964844 830.1422729492188
v -733.4913940429688 10.014739990234375 827.1004028320312
v -1118.8302001953125 9.341864585876465 827.1002197265625
v -733.4783935546875 2.670304775238037 830.1422729492188
v -1118.817138671875 1.9979180097579956 830.1422729492188
v -733.4913940429688 10.014739990234375 827.1004028320312
v -733.5040893554688 17.358718872070312 830.1422729492188
v -733.5093994140625 20.40085220336914 837.4865112304688
v -733.5040893554688 17.358720779418945 844.83056640625
v -733.4913940429688 10.014741897583008 847.87255859375
v -733.4783935546875 2.6703059673309326 844.83056640625
v -733.4730834960938 -0.3714350163936615 837.4865112304688
v -733.4783935546875 2.670304775238037 830.1422729492188
v -1118.817138671875 1.9979192018508911 844.83056640625
v -1118.8302001953125 9.341865539550781 847.8726806640625
v -1118.8428955078125 16.685876846313477 844.83056640625
v -1118.8482666015625 19.727943420410156 837.4865112304688
v -1118.8428955078125 16.685874938964844 830.1422729492188
v -1118.8302001953125 9.341864585876465 827.1002197265625
v -1118.817138671875 1.9979180097579956 830.1422729492188
v -1118.8121337890625 -1.044344425201416 837.4865112304688
v -733.472900390625 -0.3715493977069855 -470.7656555175781
v -733.4783325195312 2.6702566146850586 -463.4214172363281
v -1118.817138671875 1.997869610786438 -463.4215087890625
v -1118.8121337890625 -1.0443929433822632 -470.7657470703125
v -733.4912109375 10.014659881591797 -460.3794250488281
v -1118.8302001953125 9.341752052307129 -460.3795166015625
v -733.5039672851562 17.358638763427734 -463.4214172363281
v -1118.8428955078125 16.685762405395508 -463.4215087890625
v -733.50927734375 20.400867462158203 -470.7656555175781
v -1118.8482666015625 19.727893829345703 -470.7657470703125
v -733.5039672851562 17.3586368560791 -478.10968017578125
v -1118.8428955078125 16.685760498046875 -478.1097106933594
v -733.4912109375 10.014657974243164 -481.15167236328125
v -1118.8302001953125 9.341750144958496 -481.1519775390625
v -733.4783325195312 2.670255184173584 -478.10968017578125
v -1118.817138671875 1.997868299484253 -478.1097106933594
v -733.4912109375 10.014657974243164 -481.15167236328125
v -733.5039672851562 17.3586368560791 -478.10968017578125
v -733.50927734375 20.400867462158203 -470.7656555175781
v -733.5039672851562 17.358638763427734 -463.4214172363281
v -733.4912109375 10.014659881591797 -460.3794250488281
v -733.4783325195312 2.6702566146850586 -463.4214172363281
v -733.472900390625 -0.3715493977069855 -470.7656555175781
v -733.4783325195312 2.670255184173584 -478.10968017578125
v -1118.817138671875 1.997869610786438 -463.4215087890625
v -1118.8302001953125 9.341752052307129 -460.3795166015625
v -1118.8428955078125 16.685762405395508 -463.4215087890625
v -1118.8482666015625 19.727893829345703 -470.7657470703125
v -1118.8428955078125 16.685760498046875 -478.1097106933594
v -1118.8302001953125 9.341750144958496 -481.1519775390625
v -1118.817138671875 1.997868299484253 -478.1097106933594
v -1118.8121337890625 -1.0443929433822632 -470.7657470703125
v -758.454345703125 13.324786186218262 -463.25872802734375
v -1099.388916015625 12.729384422302246 -463.2587585449219
v -1099.3892822265625 12.729467391967773 830.7252197265625
v -758.4544677734375 13.32480239868164 830.7252197265625
v -1099.3878173828125 6.551578521728516 -463.2587585449219
v -758.4531860351562 7.146914482116699 -463.25872802734375
v -758.4533081054688 7.147126197814941 830.7252197265625
v -1099.38818359375 6.551822662353516 830.7252197265625
v 1114.924560546875 1.746179461479187 837.4866943359375
v 1114.919189453125 4.787952899932861 844.8307495117188
v 729.5799560546875 4.115575313568115 844.8307495117188
v 729.5853271484375 1.0733110904693604 837.4866333007812
v 1114.90625 12.132355690002441 847.872802734375
v 729.5672607421875 11.459552764892578 847.8728637695312
v 1114.8931884765625 19.47636604309082 844.8307495117188
v 729.5543823242188 18.80351448059082 844.8307495117188
v 1114.887939453125 22.518497467041016 837.4866943359375
v 729.5489501953125 21.84562110900879 837.4866333007812
v 1114.8931884765625 19.47636604309082 830.1424560546875
v 729.5543823242188 18.80351448059082 830.1424560546875
v 1114.90625 12.132353782653809 827.1005249023438
v 729.5672607421875 11.459550857543945 827.1004028320312
v 1114.919189453125 4.787951469421387 830.1424560546875
v 729.5799560546875 4.115573883056641 830.1424560546875
v 1114.90625 12.132353782653809 827.1005249023438
v 1114.8931884765625 19.47636604309082 830.1424560546875
v 1114.887939453125 22.518497467041016 837.4866943359375
v 1114.8931884765625 19.47636604309082 844.8307495117188
v 1114.90625 12.132355690002441 847.872802734375
v 1114.919189453125 4.787952899932861 844.8307495117188
v 1114.924560546875 1.746179461479187 837.4866943359375
v 1114.919189453125 4.787951469421387 830.1424560546875
v 729.5799560546875 4.115575313568115 844.8307495117188
v 729.5672607421875 11.459552764892578 847.8728637695312
v 729.5543823242188 18.80351448059082 844.8307495117188
v 729.5489501953125 21.84562110900879 837.4866333007812
v 729.5543823242188 18.80351448059082 830.1424560546875
v 729.5672607421875 11.459550857543945 827.1004028320312
v 729.5799560546875 4.115573883056641 830.1424560546875
v 729.5853271484375 1.0733110904693604 837.4866333007812
v 1114.924560546875 1.7460975646972656 -470.7655334472656
v 1114.919189453125 4.787903785705566 -463.4212951660156
v 729.5801391601562 4.115541458129883 -463.42132568359375
v 729.58544921875 1.0732700824737549 -470.76556396484375
v 1114.90625 12.132307052612305 -460.3793029785156
v 729.5673828125 11.45943832397461 -460.37933349609375
v 1114.893310546875 19.47625160217285 -463.4212951660156
v 729.554443359375 18.80340003967285 -463.42132568359375
v 1114.887939453125 22.51851463317871 -470.7655334472656
v 729.549072265625 21.84558868408203 -470.76556396484375
v 1114.893310546875 19.47625160217285 -478.1094970703125
v 729.554443359375 18.80340003967285 -478.10955810546875
v 1114.90625 12.132305145263672 -481.1515197753906
v 729.5673828125 11.459436416625977 -481.15179443359375
v 1114.919189453125 4.78790283203125 -478.1094970703125
v 729.5801391601562 4.115540027618408 -478.10955810546875
v 1114.90625 12.132305145263672 -481.1515197753906
v 1114.893310546875 19.47625160217285 -478.1094970703125
v 1114.887939453125 22.51851463317871 -470.7655334472656
v 1114.893310546875 19.47625160217285 -463.4212951660156
v 1114.90625 12.132307052612305 -460.3793029785156
v 1114.919189453125 4.787903785705566 -463.4212951660156
v 1114.924560546875 1.7460975646972656 -470.7655334472656
v 1114.919189453125 4.78790283203125 -478.1094970703125
v 729.5801391601562 4.115541458129883 -463.42132568359375
v 729.5673828125 11.45943832397461 -460.37933349609375
v 729.554443359375 18.80340003967285 -463.42132568359375
v 729.549072265625 21.84558868408203 -470.76556396484375
v 729.554443359375 18.80340003967285 -478.10955810546875
v 729.5673828125 11.459436416625977 -481.15179443359375
v 729.5801391601562 4.115540027618408 -478.10955810546875
v 729.58544921875 1.0732700824737549 -470.76556396484375
v 1089.943115234375 15.44243335723877 -463.258544921875
v 749.00830078125 14.847088813781738 -463.25860595703125
v 749.0079956054688 14.847119331359863 830.7254638671875
v 1089.9429931640625 15.442415237426758 830.7254638671875
v 749.009521484375 8.669266700744629 -463.25860595703125
v 1089.944091796875 9.264561653137207 -463.258544921875
v 1089.944580078125 9.264739036560059 830.7254638671875
v 749.0093994140625 8.669493675231934 830.7254638671875
f 28 27 29
f 26 25 27
f 27 25 31
f 29 27 31
f 30 29 31
f 31 25 32
f 167 161 168
f 162 161 163
f 163 161 167
f 165 163 167
f 166 165 167
f 164 163 165
f 159 153 160
f 154 153 155
f 155 153 159
f 157 155 159
f 158 157 159
f 156 155 157
f 126 125 127
f 124 123 125
f 125 123 127
f 123 121 127
f 127 121 128
f 122 121 123
f 119 113 120
f 114 113 115
f 115 113 119
f 117 115 119
f 118 117 119
f 116 115 117
f 79 73 80
f 74 73 75
f 75 73 79
f 77 75 79
f 78 77 79
f 76 75 77
f 71 65 72
f 66 65 67
f 67 65 71
f 69 67 71
f 70 69 71
f 68 67 69
f 38 37 39
f 36 35 37
f 37 35 39
f 35 33 39
f 39 33 40
f 34 33 35
f 149 146 150
f 147 150 146
f 146 145 147
f 148 147 145
f 143 140 144
f 141 144 140
f 140 139 141
f 142 141 139
f 137 134 138
f 135 138 134
f 134 133 135
f 136 135 133
f 90 89 91
f 92 91 89
f 89 111 92
f 112 92 111
f 109 106 110
f 107 110 106
f 106 105 107
f 108 107 105
f 103 100 104
f 101 104 100
f 100 99 101
f 102 101 99
f 96 95 93
f 94 93 95
f 95 98 94
f 97 94 98
f 61 58 62
f 59 62 58
f 58 57 59
f 60 59 57
f 55 52 56
f 53 56 52
f 52 51 53
f 54 53 51
f 49 46 50
f 47 50 46
f 46 45 47
f 48 47 45
f 21 18 22
f 19 22 18
f 18 17 19
f 20 19 17
f 15 12 16
f 13 16 12
f 12 11 13
f 14 13 11
f 8 7 5
f 6 5 7
f 7 10 6
f 9 6 10
f 2 1 3
f 4 3 1
f 1 23 4
f 24 4 23
f 130 129 131
f 132 131 129
f 129 151 132
f 152 132 151
f 42 41 43
f 44 43 41
f 41 63 44
f 64 44 63
f 82 81 83
f 84 83 81
f 86 85 87
f 88 87 85
f 170 169 171
f 172 171 169
f 174 173 175
f 176 175 173
