# from WD_Block17_SignHojo_LOD_0.pskx
v 313.3175964355469 205.88734436035156 -296.350830078125
v 310.5741882324219 204.05152893066406 -297.3757019042969
v 307.62890625 202.08056640625 -297.7330627441406
v -304.7891540527344 -207.73989868164062 -294.72930908203125
v -306.9522705078125 -209.18743896484375 -292.5817565917969
v -308.73712158203125 -210.3817901611328 -289.97894287109375
v -302.3065185546875 -206.07855224609375 -296.3507995605469
v -310.08477783203125 -211.2836151123047 -286.9917297363281
v -310.93646240234375 -211.85357666015625 -283.6907653808594
v -299.5631103515625 -204.24267578125 -297.37567138671875
v -311.2334899902344 -212.05221557617188 251.96820068359375
v -310.9364929199219 -211.85348510742188 255.5121612548828
v -310.0848083496094 -211.28355407714844 258.8132019042969
v -308.7371520996094 -210.3817138671875 261.80047607421875
v -306.95233154296875 -209.18734741210938 264.4031982421875
v -304.78924560546875 -207.7398223876953 266.5507507324219
v -302.30657958984375 -206.07846069335938 268.1723937988281
v -299.5631408691406 -204.24261474609375 269.19708251953125
v 310.5741882324219 204.0515899658203 269.1970520019531
v 313.3175048828125 205.88742065429688 268.17236328125
v 315.8002014160156 207.54879760742188 266.55072021484375
v 317.9633483886719 208.99632263183594 264.4031677246094
v 319.74810791015625 210.19068908691406 261.8004455566406
v 321.0958557128906 211.092529296875 258.81317138671875
v 321.947509765625 211.66244506835938 255.51220703125
v 321.9475402832031 211.66236877441406 -283.6908264160156
v 321.09588623046875 211.0924530029297 -286.99176025390625
v 319.7481994628906 210.1905975341797 -289.9789733886719
v 317.96337890625 208.9962615966797 -292.5818176269531
v 315.80023193359375 207.54872131347656 -294.7293701171875
v 174.82635498046875 122.6688232421875 152.55506896972656
v 175.9960479736328 123.45156860351562 154.2972869873047
v 192.84779357910156 134.72848510742188 139.21255493164062
v 186.3381805419922 130.37234497070312 131.31402587890625
v 173.39666748046875 121.71211242675781 151.31065368652344
v 167.8184814453125 117.979248046875 150.62176513671875
v 166.1022491455078 116.8307876586914 151.5417022705078
v 181.33262634277344 127.022705078125 127.8150405883789
v 175.79629516601562 123.31788635253906 125.71575927734375
v 169.7290802001953 119.2577896118164 125.01606750488281
v 163.63662719726562 115.18081665039062 125.73322296142578
v 158.05517578125 111.44580078125 127.88380432128906
v 152.98655700683594 108.05397033691406 131.46673583984375
v 164.6093292236328 115.83174133300781 153.0756378173828
v 146.44580078125 103.67698669433594 139.4193572998047
v 144.72434997558594 102.52503204345703 142.5811309814453
v 162.5021514892578 114.42166137695312 157.44100952148438
v 142.07713317871094 100.75357055664062 149.5759735107422
v 140.4896697998047 99.6912612915039 157.4647979736328
v 161.54896545410156 113.78379821777344 162.67706298828125
v 161.4304962158203 113.70453643798828 169.0480499267578
v 140.09620666503906 99.4279556274414 170.75523376464844
v 141.1793975830078 100.15283966064453 179.13047790527344
v 162.19712829589844 114.21754455566406 174.50454711914062
v 144.83489990234375 102.5990219116211 190.08665466308594
v 163.35067749023438 114.98949432373047 177.80360412597656
v 148.6253204345703 105.1355209350586 196.3172149658203
v 164.995361328125 116.09008026123047 180.15829467773438
v 155.53414916992188 109.75879669189453 203.11968994140625
v 194.6113739013672 135.90863037109375 142.42832946777344
v 197.32525634765625 137.72471618652344 149.50721740722656
v 177.5554962158203 124.49510955810547 159.2758026123047
v 198.95419311523438 138.81478881835938 157.4474639892578
v 177.94534301757812 124.7560043334961 169.94947814941406
v 199.3646697998047 139.08949279785156 170.78262329101562
v 176.90573120117188 124.06031799316406 175.87261962890625
v 197.37452697753906 137.75772094726562 183.02603149414062
v 174.8263397216797 122.6688232421875 179.82028198242188
v 192.9961700439453 134.8278045654297 193.222412109375
v 188.81591796875 132.03042602539062 198.8188934326172
v 173.3966522216797 121.71211242675781 181.05372619628906
v 181.4394989013672 127.09425354003906 204.65304565429688
v 178.7125244140625 125.2693862915039 205.89015197753906
v 172.8571319580078 121.35105895996094 207.30355834960938
v 169.7572479248047 119.27666473388672 182.04037475585938
v 163.6493377685547 115.18934631347656 206.78256225585938
v 167.1309356689453 117.51917266845703 181.570068359375
v 158.10525512695312 111.47933197021484 204.68955993652344
v -255.04550170898438 -164.99459838867188 181.57005310058594
v -264.0711669921875 -171.03445434570312 204.68954467773438
v -261.3661193847656 -169.2242431640625 205.91049194335938
v -255.55409240722656 -165.33494567871094 207.30581665039062
v -252.41917419433594 -163.2371063232422 182.04037475585938
v -246.32472229003906 -159.15878295898438 206.77362060546875
v -248.77976989746094 -160.80166625976562 181.05374145507812
v -240.73687744140625 -155.4195098876953 204.6530303955078
v -238.14390563964844 -153.684326171875 203.0621795654297
v -246.18040466308594 -159.0622100830078 178.09326171875
v -233.3604736328125 -150.4833221435547 198.81886291503906
v -227.45541381835938 -146.53175354003906 190.05116271972656
v -224.80189514160156 -144.7560577392578 183.0260009765625
v -257.1810302734375 -166.42369079589844 180.1582794189453
v -269.07928466796875 -174.38580322265625 201.2010498046875
v -275.5816345214844 -178.73707580566406 193.3095245361328
v -258.82574462890625 -167.5242919921875 177.8035888671875
v -280.0492248535156 -181.72671508789062 182.99691772460938
v -259.97930908203125 -168.2962188720703 174.50454711914062
v -282.0802307128906 -183.08583068847656 170.75521850585938
v -260.74591064453125 -168.8092498779297 169.0480499267578
v -260.6274108886719 -168.72994995117188 162.6770477294922
v -281.6867370605469 -182.822509765625 157.4647979736328
v -259.6742248535156 -168.0920867919922 157.44100952148438
v -280.0992736816406 -181.7602081298828 149.57595825195312
v -277.4520568847656 -179.9887237548828 142.5811309814453
v -257.56707763671875 -166.6820068359375 153.0756378173828
v -275.7306213378906 -178.83677673339844 139.41937255859375
v -269.1898193359375 -174.45977783203125 131.4667205810547
v -256.0741882324219 -165.68299865722656 151.54168701171875
v -264.12127685546875 -171.0679931640625 127.88378143310547
v -261.3945007324219 -169.2432861328125 126.62934875488281
v -255.55734252929688 -165.33714294433594 125.19540405273438
v -246.38009643554688 -159.19586181640625 125.71575164794922
v -240.8437957763672 -155.49105834960938 127.8150405883789
v -235.83819580078125 -152.1414031982422 131.3140106201172
v -254.3579559326172 -164.53451538085938 150.62176513671875
v -248.77975463867188 -160.80166625976562 151.31065368652344
v -247.3500518798828 -159.84494018554688 152.5550537109375
v -229.3285675048828 -147.78524780273438 139.21255493164062
v -226.07252502441406 -145.60635375976562 145.86000061035156
v -245.2706298828125 -158.4534454345703 156.53744506835938
v -223.22222900390625 -143.69898986816406 157.4474334716797
v -244.23106384277344 -157.7577667236328 162.5121612548828
v -222.81175231933594 -143.42430114746094 170.78260803222656
v -244.62094116210938 -158.01866149902344 173.15805053710938
v 67.44148254394531 50.80857467651367 169.04806518554688
v 67.55995178222656 50.887855529785156 162.67706298828125
v 46.103973388671875 36.529842376708984 161.74427795410156
v 46.513397216796875 36.8038330078125 175.04983520507812
v 68.20809173583984 51.32157897949219 174.5045623779297
v 48.13817596435547 37.891109466552734 182.99693298339844
v 50.84587097167969 39.70305252075195 190.086669921875
v 69.36165618896484 52.09352493286133 177.80361938476562
v 54.63628005981445 42.23953628540039 196.31723022460938
v 71.00630950927734 53.19409942626953 180.15829467773438
v 61.54512405395508 46.862831115722656 203.11968994140625
v 47.161964416503906 37.237831115722656 153.40870666503906
v 68.51315307617188 51.52571105957031 157.44102478027344
v 49.27915954589844 38.654632568359375 145.9667510986328
v 70.62030792236328 52.935787200927734 153.07565307617188
v 52.45674133300781 40.7810173034668 139.41937255859375
v 58.99751281738281 45.15800094604492 131.46673583984375
v 72.11320495605469 53.9348030090332 151.54171752929688
v 64.0661392211914 48.549842834472656 127.88379669189453
v 69.64757537841797 52.28485107421875 125.73321533203125
v 78.84002685546875 58.4362907409668 125.19097900390625
v 84.64176940917969 62.318729400634766 126.59046936035156
v 87.34356689453125 64.12672424316406 127.8150405883789
v 92.34915924072266 67.47638702392578 131.31402587890625
v 73.82943725585938 55.083282470703125 150.6217803955078
v 79.40763854980469 58.81612777709961 151.3106689453125
v 82.00700378417969 60.555580139160156 154.29727172851562
v 98.85877227783203 71.83251190185547 139.21255493164062
v 100.622314453125 73.01265716552734 142.42831420898438
v 103.33623504638672 74.8287582397461 149.50721740722656
v 83.56647491455078 61.599159240722656 159.2758026123047
v 105.37250518798828 76.19141387939453 161.73992919921875
v 83.956298828125 61.86002731323242 169.94947814941406
v 105.37562561035156 76.1935043334961 170.78262329101562
v 104.31422424316406 75.48323059082031 179.17221069335938
v 82.91671752929688 61.16435623168945 175.87261962890625
v 102.19140625 74.06267547607422 186.65237426757812
v 80.83733367919922 59.77286148071289 179.82028198242188
v 99.00716400146484 71.93183135986328 193.222412109375
v 92.50236511230469 67.57892608642578 201.11756896972656
v 79.40763854980469 58.816131591796875 181.05374145507812
v 87.45049285888672 64.19829559326172 204.65304565429688
v 84.7234878540039 62.37342834472656 205.89013671875
v 78.86812591552734 58.455101013183594 207.30357360839844
v 75.7681884765625 56.380672454833984 182.04039001464844
v 69.66033935546875 52.293399810791016 206.78256225585938
v 73.14189910888672 54.623207092285156 181.570068359375
v 64.11620330810547 48.583351135253906 204.6895751953125
v 205.1192169189453 142.9403533935547 227.42462158203125
v 230.67108154296875 160.0392608642578 227.42462158203125
v 230.67108154296875 160.0392608642578 190.44912719726562
v 205.11924743652344 142.94033813476562 126.64988708496094
v 277.9178771972656 191.6560516357422 227.42462158203125
v 277.91790771484375 191.6560516357422 126.64989471435547
v 252.43313598632812 174.60203552246094 126.64988708496094
v 252.43313598632812 174.60205078125 164.441162109375
v 252.33572387695312 174.536865234375 227.42462158203125
v 252.33572387695312 174.536865234375 190.4491424560547
v 230.4870147705078 159.9160614013672 164.441162109375
v 230.4870147705078 159.91604614257812 126.64988708496094
v 26.892858505249023 23.67407989501953 192.15325927734375
v 24.798742294311523 22.272737503051758 227.42462158203125
v 38.50477600097656 31.44460105895996 227.42462158203125
v 40.59889602661133 32.845947265625 192.15325927734375
v -17.155488967895508 -5.802379131317139 181.3126220703125
v -19.907812118530273 -7.644189834594727 177.8762969970703
v -19.90781593322754 -7.644187927246094 200.10858154296875
v -14.235074996948242 -3.8480842113494873 183.7660675048828
v -11.145683288574219 -1.7807111740112305 185.2373046875
v -12.330130577087402 -2.5733208656311035 204.65249633789062
v -5.886679649353027 1.7385308742523193 185.33953857421875
v -8.502717971801758 -0.012076601386070251 206.0924530029297
v 3.138239622116089 7.777868270874023 206.9657745361328
v -4.068655967712402 2.9551236629486084 184.1640167236328
v 9.288926124572754 11.893810272216797 204.72622680664062
v 11.954562187194824 13.677610397338867 202.76644897460938
v 15.378026008605957 15.968537330627441 198.8658905029297
v 17.82307243347168 17.604721069335938 194.16104125976562
v 13.855720520019531 14.949827194213867 150.268798828125
v 19.594823837280273 18.790346145629883 155.7613525390625
v 19.59482765197754 18.79033851623535 130.39434814453125
v 6.898169994354248 10.29394245147705 146.1034698486328
v 11.962158203125 13.68267822265625 126.82559204101562
v 8.08626937866211 11.088995933532715 125.69197082519531
v 4.899085521697998 8.95618724822998 145.68487548828125
v -4.666398048400879 2.5551114082336426 125.15996551513672
v 1.2893129587173462 6.540584087371826 147.6144256591797
v -8.748262405395508 -0.17640697956085205 126.28775024414062
v -12.399250030517578 -2.619589328765869 128.16781616210938
v -15.622122764587402 -4.7762837409973145 130.80087280273438
v -18.668428421020508 -6.814823627471924 134.70065307617188
v 0.5579450130462646 6.051163673400879 149.11399841308594
v -20.8433780670166 -8.270263671875 139.38555908203125
v -22.14771842956543 -9.143107414245605 144.85794067382812
v -22.582345962524414 -9.433952331542969 151.12051391601562
v -21.85528564453125 -8.947415351867676 157.11248779296875
v -20.94627571105957 -8.339115142822266 159.93130493164062
v 0.641450047492981 6.1070451736450195 153.0302276611328
v -18.036495208740234 -6.391935348510742 165.21478271484375
v -13.670015335083008 -3.4699575901031494 170.02658081054688
v -4.252761363983154 2.8319218158721924 177.316162109375
v 3.258143186569214 7.858095169067383 157.0800323486328
v 12.036477088928223 13.732419967651367 164.37872314453125
v -3.256544828414917 3.4985744953155518 178.71868896484375
v 15.827593803405762 16.269376754760742 168.87979125976562
v -2.9230828285217285 3.7217226028442383 180.66445922851562
v 18.356050491333008 17.96137809753418 173.88580322265625
v 19.14643096923828 18.490291595458984 176.57826232910156
v 19.778881072998047 18.91351890563965 182.34266662597656
v 19.289974212646484 18.586349487304688 188.6529083251953
v 111.25703430175781 80.12923431396484 115.8685302734375
v 110.93528747558594 79.9139404296875 205.26283264160156
v 116.42536163330078 83.58781433105469 202.97979736328125
v 125.15103149414062 89.4269027709961 202.40939331054688
v 128.02752685546875 91.351806640625 202.9797821044922
v 133.52247619628906 95.0289306640625 205.2628173828125
v 133.62249755859375 95.09584045410156 122.02978515625
v 134.4228515625 95.63143157958984 117.4808120727539
v 112.22223663330078 80.77513885498047 108.48677062988281
v 138.42776489257812 98.31143951416016 112.5752182006836
v 141.17135620117188 100.14741516113281 112.09159851074219
v 134.87815856933594 95.93611145019531 88.31150817871094
v 132.76669311523438 94.52313995361328 88.04310607910156
v 136.0243377685547 96.70311737060547 114.32951354980469
v 126.70549011230469 90.46709442138672 88.611083984375
v 122.52079010009766 87.66676330566406 90.31487274169922
v 118.9802474975586 85.2974853515625 93.15442657470703
v 116.08374786376953 83.35919189453125 97.12971496582031
v 113.83113098144531 81.8517837524414 102.24053955078125
v -216.93035888671875 -139.4885711669922 115.8685302734375
v -217.2520751953125 -139.70384216308594 205.26280212402344
v -211.7620391845703 -136.02999877929688 202.9797821044922
v -208.91419982910156 -134.12425231933594 202.40939331054688
v -200.15985107421875 -128.2659912109375 202.9797821044922
v -194.6649169921875 -124.58885955810547 205.26280212402344
v -194.5648956298828 -124.52195739746094 122.02976989746094
v -193.7645263671875 -123.98636627197266 117.48078918457031
v -215.96517944335938 -138.84268188476562 108.48677062988281
v -189.7596435546875 -121.30635833740234 112.5751953125
v -187.01602172851562 -119.47038269042969 112.09159088134766
v -193.3092041015625 -123.68167877197266 88.31149291992188
v -196.65292358398438 -125.91925048828125 88.0430908203125
v -192.16302490234375 -122.91468048095703 114.32950592041016
v -201.48187255859375 -129.15069580078125 88.61106872558594
v -205.66653442382812 -131.95101928710938 90.31485748291016
v -209.2071075439453 -134.32029724121094 93.15441131591797
v -212.10362243652344 -136.25860595703125 97.12970733642578
v -214.35626220703125 -137.7660369873047 102.24053192138672
v -166.75689697265625 -105.91327667236328 169.04808044433594
v -188.09120178222656 -120.18984985351562 170.75521850585938
v -187.00799560546875 -119.46497344970703 179.13047790527344
v -165.99026489257812 -105.40025329589844 174.5045623779297
v -184.84170532226562 -118.01532745361328 186.64907836914062
v -164.83670043945312 -104.6282958984375 177.80361938476562
v -181.5926055908203 -115.84109497070312 193.30953979492188
v -179.56204223632812 -114.48226165771484 196.3172149658203
v -166.63839721679688 -105.83397674560547 162.67706298828125
v -187.69769287109375 -119.926513671875 157.4647979736328
v -186.1102294921875 -118.86422729492188 149.57595825195312
v -164.84678649902344 -104.63506317138672 155.22454833984375
v -183.4630126953125 -117.09274291992188 142.58114624023438
v -181.74159240722656 -115.94080352783203 139.41937255859375
v -162.08514404296875 -102.78702545166016 151.54171752929688
v -175.20082092285156 -111.56382751464844 131.4667205810547
v -170.13221740722656 -108.1719970703125 127.8837890625
v -167.405517578125 -106.34732055664062 126.62934112548828
v -161.5682830810547 -102.4411392211914 125.19539642333984
v -152.39109802246094 -96.29991912841797 125.71574401855469
v -146.8547821044922 -92.59510803222656 127.81503295898438
v -144.28561401367188 -90.87586212158203 129.38955688476562
v -139.54531860351562 -87.7037353515625 133.58848571777344
v -160.36888122558594 -101.6385269165039 150.6217803955078
v -154.79071044921875 -97.90570068359375 151.3106689453125
v -152.19134521484375 -96.16624450683594 154.2972869873047
v -133.57601928710938 -83.70916748046875 142.4282989501953
v -130.86212158203125 -81.89305877685547 149.50721740722656
v -150.63189697265625 -95.1226806640625 159.2758026123047
v -129.2332000732422 -80.80301666259766 157.44744873046875
v -150.24205017089844 -94.86180877685547 169.94949340820312
v -128.82272338867188 -80.5283203125 170.78260803222656
v -129.88412475585938 -81.23859405517578 179.17221069335938
v -151.2816619873047 -95.55747985839844 175.87261962890625
v -132.00694274902344 -82.6591567993164 186.65235900878906
v -153.36106872558594 -96.94898986816406 179.82029724121094
v -135.19117736816406 -84.78999328613281 193.22239685058594
v -141.69598388671875 -89.14289855957031 201.1175537109375
v -154.7907257080078 -97.90570068359375 181.0537567138672
v -146.74786376953125 -92.5235366821289 204.65306091308594
v -152.33572387695312 -96.26284790039062 206.77365112304688
v -158.43014526367188 -100.34113311767578 182.04039001464844
v -161.5651092529297 -102.43900299072266 207.3058319091797
v -161.0564422607422 -102.0986099243164 181.57008361816406
v -167.37705993652344 -106.32826232910156 205.91050720214844
v -172.6532440185547 -109.8590087890625 203.1197052001953
v -163.19204711914062 -103.5277328491211 180.15829467773438
v -91.31428527832031 -55.42826843261719 199.9825897216797
v -105.27935791015625 -64.77346801757812 222.31178283691406
v -100.52241516113281 -61.59020233154297 225.1514434814453
v -95.5855484008789 -58.28652572631836 226.8561553955078
v -93.79179382324219 -57.086177825927734 197.6527862548828
v -109.8558349609375 -67.83598327636719 218.3384246826172
v -113.91663360595703 -70.55339813232422 213.45660400390625
v -95.82927703857422 -58.44963073730469 194.39163208007812
v -117.22724914550781 -72.76881408691406 207.9102020263672
v -119.78710174560547 -74.48182678222656 201.6994171142578
v -98.18463134765625 -60.025794982910156 186.83946228027344
v -123.30907440185547 -76.83867645263672 184.14576721191406
v -98.7802734375 -60.42438888549805 172.39434814453125
v -123.88243103027344 -77.22235870361328 174.79637145996094
v -122.63477325439453 -76.387451171875 160.35325622558594
v -118.88953399658203 -73.88118743896484 147.88140869140625
v -117.08550262451172 -72.67396545410156 144.16098022460938
v -110.20817565917969 -68.07177734375 134.5275421142578
v -104.793212890625 -64.44815826416016 130.15011596679688
v -101.85289764404297 -62.48054885864258 128.6185302734375
v -95.50546264648438 -58.23294448852539 126.8686294555664
v -97.26094818115234 -59.40768814086914 164.1848602294922
v -93.98751068115234 -57.21714401245117 157.2035369873047
v -91.71710968017578 -55.697837829589844 154.7571258544922
v -89.11578369140625 -53.95706558227539 153.2884521484375
v -55.54270553588867 -31.490510940551758 126.6498794555664
v -81.03611755371094 -48.55028533935547 152.7986297607422
v -55.542724609375 -31.49049949645996 227.42462158203125
v -81.03611755371094 -48.55027770996094 201.84661865234375
v -88.39705657958984 -53.476097106933594 201.38058471679688
v 120.45234680175781 86.28260803222656 207.45594787597656
v 117.24681091308594 84.13751983642578 207.45790100097656
v 114.4401626586914 82.25934600830078 209.1552734375
v 114.4401626586914 82.25934600830078 228.66036987304688
v 117.24681091308594 84.13751983642578 230.33935546875
v 120.45234680175781 86.28260803222656 230.33935546875
v 121.92732238769531 87.26964569091797 229.7098846435547
v 124.47893524169922 88.97714233398438 227.19020080566406
v 112.2280502319336 80.77904510498047 225.412841796875
v 126.18377685546875 90.11800384521484 223.43820190429688
v 111.07899475097656 80.01011657714844 221.2667694091797
v 126.61188507080078 90.40447998046875 216.54287719726562
v 111.5099868774414 80.29853057861328 214.3838653564453
v 125.47222900390625 89.641845703125 212.4018096923828
v 112.2280502319336 80.77904510498047 212.41610717773438
v 121.92732238769531 87.26964569091797 208.08749389648438
v -206.26010131835938 -132.34815979003906 208.08746337890625
v -210.94061279296875 -135.48031616210938 207.45787048339844
v -213.74725341796875 -137.35845947265625 209.1552734375
v -204.91746520996094 -131.44970703125 209.1409149169922
v -202.71510314941406 -129.97592163085938 212.40179443359375
v -215.95932006835938 -138.8387451171875 212.41607666015625
v -201.5754852294922 -129.2133026123047 216.5428924560547
v -217.10841369628906 -139.60768127441406 216.544677734375
v -216.67739868164062 -139.3192596435547 223.4381866455078
v -201.5754852294922 -129.2133026123047 221.2667694091797
v -202.71510314941406 -129.97592163085938 225.41282653808594
v -213.74725341796875 -137.35845947265625 228.66033935546875
v -206.26010131835938 -132.34815979003906 229.70986938476562
v -207.73500061035156 -133.33517456054688 230.33934020996094
v -210.94061279296875 -135.48031616210938 230.33934020996094
v -117.52952575683594 -72.97111511230469 54.17592239379883
v -116.85506439208984 -72.51978302001953 55.97935104370117
v -115.51104736328125 -71.6203842163086 57.03485870361328
v -109.77568817138672 -67.78237915039062 57.56102752685547
v -106.06036376953125 -65.29613494873047 56.03666305541992
v -102.60325622558594 -62.982704162597656 53.29280471801758
v -50.834712982177734 -28.340007781982422 50.152896881103516
v -50.35128402709961 -28.01650619506836 49.5314826965332
v -50.39783477783203 -28.04765510559082 45.37811279296875
v -62.542503356933594 -36.17467498779297 44.12819290161133
v -25.51305389404297 -11.395149230957031 77.33596801757812
v -25.074914932250977 -11.10195541381836 78.43051147460938
v -24.029666900634766 -10.402488708496094 78.34937286376953
v -20.410245895385742 -7.980432033538818 74.57401275634766
v -26.41326332092285 -11.997556686401367 71.27772521972656
v -19.087308883666992 -7.095143795013428 65.73489379882812
v -19.446529388427734 -7.335530757904053 63.0383186340332
v -20.61594009399414 -8.118083000183105 61.194366455078125
v -25.798227310180664 -11.585987091064453 56.724578857421875
v -31.303443908691406 -15.269987106323242 65.41085815429688
v -27.07583236694336 -12.440937042236328 53.58449172973633
v -45.27413558959961 -24.618955612182617 50.17116165161133
v -30.04930305480957 -14.430741310119629 42.05945587158203
v -31.443946838378906 -15.364017486572266 29.994821548461914
v -34.19359588623047 -17.204042434692383 24.938777923583984
v -35.437286376953125 -18.036300659179688 24.2048282623291
v -36.87378692626953 -18.99758529663086 24.534440994262695
v -41.674198150634766 -22.209941864013672 27.709569931030273
v -45.74983596801758 -24.937292098999023 27.66634750366211
v -46.397361755371094 -25.370609283447266 26.656827926635742
v -46.33053207397461 -25.325885772705078 25.021392822265625
v -97.91063690185547 -59.84247589111328 24.45013427734375
v -43.796878814697266 -23.630407333374023 14.363180160522461
v -43.936954498291016 -23.724145889282227 9.225137710571289
v -45.05035400390625 -24.469215393066406 7.369075775146484
v -55.816959381103516 -31.67405891418457 -0.299577921628952
v -95.91426849365234 -58.50654983520508 -23.35614585876465
v -123.46528625488281 -76.94325256347656 9.151145935058594
v -102.2913818359375 -62.774009704589844 -27.944063186645508
v -111.79803466796875 -69.13571166992188 -36.432884216308594
v -176.67526245117188 -112.5505142211914 -25.932415008544922
v -121.07391357421875 -75.34297943115234 -46.20155334472656
v -129.10922241210938 -80.72007751464844 -56.005897521972656
v -134.89447021484375 -84.59148406982422 -64.60174560546875
v -136.93878173828125 -85.95951080322266 -70.01850891113281
v -137.67913818359375 -86.4549331665039 -76.08267211914062
v -178.72232055664062 -113.92037200927734 -26.444778442382812
v -137.52899169921875 -86.35446166992188 -82.39505004882812
v -180.75961303710938 -115.2837142944336 -25.86467742919922
v -135.9912567138672 -85.32545471191406 -93.7163314819336
v -133.41207885742188 -83.59951782226562 -221.80078125
v -133.9220428466797 -83.94078826904297 -224.03976440429688
v -134.60260009765625 -84.39620208740234 -224.40493774414062
v -142.72305297851562 -89.83028411865234 -225.0299530029297
v -148.66761779785156 -93.80830383300781 -223.419677734375
v -128.5687255859375 -80.35842895507812 -182.87222290039062
v -153.300537109375 -96.9085693359375 -224.03851318359375
v -126.2875747680664 -78.8319091796875 -160.30093383789062
v -154.17904663085938 -97.4964599609375 -224.64431762695312
v -125.58023071289062 -78.35855865478516 -140.8824920654297
v -126.15408325195312 -78.7425765991211 -133.98521423339844
v -127.35287475585938 -79.54478454589844 -126.8970947265625
v -128.4582061767578 -80.28446960449219 -240.5946044921875
v -127.32347869873047 -79.52513885498047 -241.89700317382812
v -127.21249389648438 -79.45087432861328 -243.5650634765625
v -130.4176025390625 -81.5956802368164 -239.34762573242188
v -128.93296813964844 -80.60218048095703 -247.1835174560547
v -130.31419372558594 -81.5264892578125 -247.83287048339844
v -134.6908416748047 -84.45526123046875 -237.45684814453125
v -139.56103515625 -87.71432495117188 -237.20909118652344
v -147.146728515625 -92.7905502319336 -247.6129608154297
v -143.8839874267578 -90.607177734375 -235.34251403808594
v -152.665283203125 -96.48346710205078 -229.20437622070312
v -154.37342834472656 -97.62653350830078 -225.6243133544922
v -183.31712341308594 -116.99520111083984 -246.82447814941406
v -184.39752197265625 -117.71817779541016 -246.30592346191406
v -184.60812377929688 -117.85912322998047 -245.11019897460938
v -184.1370391845703 -117.54386901855469 -243.4019775390625
v -175.9559783935547 -112.06924438476562 -229.7518310546875
v -170.7980194091797 -108.61760711669922 -223.5704803466797
v -168.72535705566406 -107.2306137084961 -220.05821228027344
v -162.99571228027344 -103.39642333984375 -204.76080322265625
v -158.7960968017578 -100.58611297607422 -189.4380340576172
v -158.85462951660156 -100.62528991699219 -186.15554809570312
v -161.62655639648438 -102.48019409179688 -176.35458374023438
v -162.3512420654297 -102.96514129638672 -155.42005920410156
v -158.2415313720703 -100.21499633789062 -146.94407653808594
v -155.56768798828125 -98.4256820678711 -144.22695922851562
v -162.8262939453125 -103.28302001953125 -158.0152587890625
v -155.42213439941406 -98.32828521728516 -142.64657592773438
v -157.64625549316406 -99.81663513183594 -138.366943359375
v -168.3702392578125 -106.9929428100586 -122.02989959716797
v -169.726318359375 -107.90042877197266 -118.5643081665039
v -171.91473388671875 -109.36486053466797 -111.2794418334961
v -173.71058654785156 -110.56661987304688 -108.5320816040039
v -176.4801025390625 -112.4199447631836 -107.10020446777344
v -185.0666961669922 -118.16594696044922 -105.44688415527344
v -188.2095489501953 -120.26909637451172 -102.80464935302734
v -196.8841094970703 -126.073974609375 -89.76604461669922
v -198.89862060546875 -127.42205810546875 -87.70435333251953
v -191.78729248046875 -122.66326141357422 -120.62398529052734
v -191.28001403808594 -122.3238296508789 -121.26642608642578
v -196.65721130371094 -125.92215728759766 -125.34569549560547
v -198.01502990722656 -126.83078002929688 -119.83324432373047
v -202.07591247558594 -129.54824829101562 -127.85155487060547
v -198.621826171875 -127.2368392944336 -118.93292999267578
v -203.28826904296875 -130.35955810546875 -127.86937713623047
v -204.93173217773438 -131.45932006835938 -126.383544921875
v -206.02993774414062 -132.1942138671875 -123.54220581054688
v -206.2683868408203 -132.35377502441406 -114.75746154785156
v -198.7448272705078 -127.31914520263672 -115.09855651855469
v -201.89585876464844 -129.42774963378906 -101.79698181152344
v -196.48007202148438 -125.80359649658203 -108.22502136230469
v -196.31661987304688 -125.69422912597656 -103.61612701416016
v -200.73289489746094 -128.64952087402344 -96.9287109375
v -199.23876953125 -127.64966583251953 -88.34537506103516
v -200.60365295410156 -128.5630645751953 -85.16957092285156
v -201.52122497558594 -129.17706298828125 -82.09215545654297
v -241.04258728027344 -155.62413024902344 -124.34579467773438
v -241.39193725585938 -155.85791015625 -123.6324234008789
v -240.74220275878906 -155.42311096191406 -122.74321746826172
v -239.8660430908203 -154.83680725097656 -124.937744140625
v -231.17015075683594 -149.0176544189453 -125.55401611328125
v -229.24974060058594 -147.7325439453125 -115.6210708618164
v -227.426025390625 -146.5121307373047 -124.43501281738281
v -226.15902709960938 -145.66427612304688 -123.35893249511719
v -223.1026611328125 -143.61900329589844 -118.14695739746094
v -225.2430877685547 -145.0513458251953 -112.19314575195312
v -219.87889099121094 -141.46170043945312 -110.01997375488281
v -224.1588592529297 -144.3258056640625 -110.50253295898438
v -221.15771484375 -142.31748962402344 -100.1316146850586
v -214.69447326660156 -137.9923858642578 -96.12870025634766
v -219.5626983642578 -141.25013732910156 -96.23296356201172
v -217.81289672851562 -140.0791778564453 -93.9149169921875
v -207.31634521484375 -133.0550537109375 -83.82372283935547
v -204.78968811035156 -131.36427307128906 -83.15402221679688
v -205.27694702148438 -131.69032287597656 -81.22125244140625
v -202.28128051757812 -129.68568420410156 -81.604248046875
v -204.0549774169922 -130.8726043701172 -78.63689422607422
v -203.94227600097656 -130.79718017578125 -76.09574127197266
v -205.18968200683594 -131.63192749023438 -73.36590576171875
v -207.6256561279297 -133.2620391845703 -70.32292175292969
v -214.70639038085938 -138.0003662109375 -64.05127716064453
v -225.76162719726562 -145.39834594726562 -57.00782012939453
v -228.20562744140625 -147.03382873535156 -56.04446029663086
v -229.49163818359375 -147.8944091796875 -56.146453857421875
v -231.2725830078125 -149.086181640625 -58.58915328979492
v -234.46206665039062 -151.22055053710938 -68.21851348876953
v -240.0247039794922 -154.94296264648438 -74.4420394897461
v -242.2451934814453 -156.42889404296875 -75.83251190185547
v -247.61398315429688 -160.0216064453125 -77.32987213134766
v -253.4066925048828 -163.89797973632812 -77.3438491821289
v -262.2103576660156 -169.7892608642578 -75.69669342041016
v -182.52781677246094 -116.46695709228516 -24.140649795532227
v -268.7852478027344 -174.18905639648438 -73.35059356689453
v -272.9881286621094 -177.0015869140625 -70.05333709716797
v -275.1449279785156 -178.44485473632812 -67.12249755859375
v -276.6520690917969 -179.45343017578125 -63.7475471496582
v -277.05780029296875 -179.7249298095703 -57.98572540283203
v -274.9389343261719 -178.30703735351562 -50.46099090576172
v -270.5582275390625 -175.37551879882812 -40.034732818603516
v -259.8060607910156 -168.18032836914062 -20.001705169677734
v -183.8477325439453 -117.35022735595703 -21.656354904174805
v -252.16302490234375 -163.06573486328125 -3.512585163116455
v -250.13882446289062 -161.71116638183594 1.7432345151901245
v -247.00668334960938 -159.61517333984375 16.85608673095703
v -244.86135864257812 -158.1795654296875 21.200048446655273
v -243.79351806640625 -157.46499633789062 21.648279190063477
v -237.7657470703125 -153.4313201904297 21.9130916595459
v -185.49655151367188 -118.4535903930664 -17.25136375427246
v -236.142822265625 -152.3452606201172 23.749202728271484
v -219.74185180664062 -141.36997985839844 74.2451400756836
v -218.2027587890625 -140.3400421142578 73.5864028930664
v -217.11026000976562 -139.6089630126953 72.39527893066406
v -215.74343872070312 -138.6943359375 66.3293685913086
v -226.31101989746094 -145.76596069335938 74.26914978027344
v -214.93919372558594 -138.1561279296875 58.57990264892578
v -238.53421020507812 -153.94554138183594 71.80073547363281
v -211.24026489257812 -135.68087768554688 56.57218933105469
v -210.4217529296875 -135.1331329345703 55.66664123535156
v -210.41653442382812 -135.12962341308594 54.02241897583008
v -213.97447204589844 -137.5105438232422 57.59077453613281
v -211.7600860595703 -136.02871704101562 48.5086669921875
v -210.04058837890625 -134.87806701660156 47.91194152832031
v -209.3869171142578 -134.4406280517578 45.789878845214844
v -209.31301879882812 -134.39117431640625 43.17727279663086
v -214.0948944091797 -137.59112548828125 35.28331756591797
v -214.74497985839844 -138.02615356445312 32.34977722167969
v -241.15298461914062 -155.69798278808594 70.38513946533203
v -247.88258361816406 -160.20132446289062 63.36476516723633
v -249.31011962890625 -161.15660095214844 60.488712310791016
v -250.1097869873047 -161.69174194335938 57.5389289855957
v -249.67970275878906 -161.40391540527344 41.02755355834961
v -248.6573944091797 -160.7198028564453 38.78203582763672
v -243.7762908935547 -157.45347595214844 33.590736389160156
v -237.7814483642578 -153.4418182373047 30.47494888305664
v -236.47174072265625 -152.5653839111328 29.283411026000977
v -214.00367736816406 -137.53009033203125 31.360204696655273
v -185.6848602294922 -118.57958221435547 -13.914275169372559
v -211.5834197998047 -135.91050720214844 30.253477096557617
v -203.70448303222656 -130.6380157470703 28.257095336914062
v -185.16224670410156 -118.22988891601562 -13.135579109191895
v -181.26422119140625 -115.62136840820312 24.95269012451172
v -182.69833374023438 -116.58106231689453 -12.034090995788574
v -170.99710083007812 -108.75077819824219 -9.972169876098633
v -173.54624938964844 -110.45662689208984 24.547508239746094
v -162.56683349609375 -103.10938262939453 26.286693572998047
v -147.18638610839844 -92.81703186035156 -0.737391471862793
v -125.88532257080078 -78.56269073486328 37.99872970581055
v -125.92439270019531 -78.5888442993164 9.796842575073242
v -118.76612854003906 -73.79864501953125 14.084057807922363
v -115.80901336669922 -71.81978607177734 16.876150131225586
v -117.4424057006836 -72.9128189086914 23.93657875061035
v -117.54442596435547 -72.98108673095703 25.317691802978516
v -116.35547637939453 -72.18547058105469 27.638954162597656
v -119.38660430908203 -74.2138442993164 40.72528076171875
v -112.15489959716797 -69.37450408935547 30.771312713623047
v -118.55579376220703 -73.65789031982422 41.858612060546875
v -106.12666320800781 -65.34051513671875 33.89302062988281
v -100.46475982666016 -61.5516471862793 34.61857986450195
v -99.0429916381836 -60.60022735595703 35.472110748291016
v -98.0461654663086 -59.933162689208984 37.2560920715332
v -97.20441436767578 -59.36988067626953 44.70164489746094
v -98.00444030761719 -59.905242919921875 46.99348831176758
v 245.77822875976562 170.14865112304688 -122.74320983886719
v 246.42799377441406 170.58346557617188 -123.63241577148438
v 246.0786590576172 170.3496856689453 -124.34578704833984
v 244.90211486816406 169.56236267089844 -124.937744140625
v 236.2062225341797 163.7432098388672 -125.55400848388672
v 232.00259399414062 160.93019104003906 -113.91261291503906
v 232.46209716796875 161.23768615722656 -124.43501281738281
v 231.1951141357422 160.3898468017578 -123.35892486572266
v 228.13873291015625 158.34457397460938 -118.1469497680664
v 224.9149627685547 156.18728637695312 -110.01996612548828
v 229.19493103027344 159.05136108398438 -110.50252532958984
v 201.69326782226562 140.64768981933594 -125.34568786621094
v 196.31610107421875 137.04937744140625 -121.26641845703125
v 196.8233184814453 137.3887939453125 -120.62397766113281
v 203.05111694335938 141.5563201904297 -119.83323669433594
v 207.11199951171875 144.27381896972656 -127.8515396118164
v 203.65786743164062 141.9623565673828 -118.93292236328125
v 209.2146453857422 145.6808624267578 -127.34369659423828
v 211.0659637451172 146.9197540283203 -123.54220581054688
v 211.6507110595703 147.31105041503906 -116.85223388671875
v 203.78094482421875 142.0447235107422 -115.09855651855469
v 210.65220642089844 146.6428680419922 -112.39144134521484
v 201.51608276367188 140.5291290283203 -108.22502136230469
v 206.21112060546875 143.67095947265625 -99.26116943359375
v 201.16055297851562 140.29119873046875 -105.6917953491211
v 204.17820739746094 142.31057739257812 -89.95421600341797
v 205.4354248046875 143.1519012451172 -87.40792083740234
v 203.9346923828125 142.1476287841797 -87.704345703125
v 206.00588989257812 143.5336151123047 -83.33914184570312
v 160.60374450683594 113.1512222290039 -144.2269744873047
v 163.277587890625 114.94051361083984 -146.944091796875
v 167.38731384277344 117.690673828125 -155.42007446289062
v 167.8623504638672 118.00856018066406 -158.01527404785156
v 167.6506805419922 117.86691284179688 -166.965087890625
v 189.64425659179688 132.5846405029297 -245.1101837158203
v 189.43360900878906 132.44369506835938 -246.30589294433594
v 188.3532257080078 131.72071838378906 -246.824462890625
v 188.2084197998047 131.62380981445312 -241.3459014892578
v 176.26663208007812 123.6325454711914 -247.313720703125
v 180.9920654296875 126.79473114013672 -229.7518310546875
v 175.8341064453125 123.3431167602539 -223.57046508789062
v 173.76145935058594 121.95613098144531 -220.05824279785156
v 168.03184509277344 118.12196350097656 -204.76083374023438
v 132.24856567382812 94.17636108398438 -243.56507873535156
v 132.35960388183594 94.25066375732422 -241.89700317382812
v 133.49427795410156 95.00997924804688 -240.59461975097656
v 133.96905517578125 95.32768249511719 -247.18350219726562
v 135.45370483398438 96.32118225097656 -239.34764099121094
v 135.35028076171875 96.25198364257812 -247.83285522460938
v 139.72694396972656 99.18077850341797 -237.4568328857422
v 144.59710693359375 102.43980407714844 -237.20909118652344
v 152.2373046875 107.55249786376953 -233.26255798339844
v 157.7013702392578 111.208984375 -229.20440673828125
v 159.4095458984375 112.35205841064453 -225.6243438720703
v 159.21514892578125 112.22196197509766 -224.64431762695312
v 163.8321990966797 115.31163787841797 -189.4380340576172
v 139.63870239257812 99.1217269897461 -224.4049530029297
v 138.9581298828125 98.66630554199219 -224.03976440429688
v 138.4481658935547 98.32503509521484 -221.80079650878906
v 137.79327392578125 97.88678741455078 -216.03428649902344
v 147.7591552734375 104.5558090209961 -225.0299835205078
v 153.70372009277344 108.53380584716797 -223.419677734375
v 158.3366241455078 111.63407135009766 -224.0385284423828
v 133.60479736328125 95.08394622802734 -182.87222290039062
v 131.3236083984375 93.55742645263672 -160.30093383789062
v 130.6162567138672 93.08407592773438 -140.8824920654297
v 131.19015502929688 93.46812438964844 -133.98521423339844
v 135.89219665527344 96.61465454101562 -112.73385620117188
v 141.0272979736328 100.05098724365234 -93.71631622314453
v 163.89073181152344 115.3508071899414 -186.15557861328125
v 165.87806701660156 116.68069458007812 -179.65606689453125
v 160.3612518310547 112.98895263671875 -143.4738006591797
v 161.31796264648438 113.62916564941406 -140.72955322265625
v 173.40626525878906 121.71847534179688 -122.02989196777344
v 174.7623748779297 122.62596130371094 -118.56429290771484
v 29.06566619873047 25.128063201904297 78.34937286376953
v 30.11096954345703 25.82756805419922 78.43051147460938
v 30.549055099487305 26.1207275390625 77.33596801757812
v 25.44624900817871 22.706008911132812 74.57401275634766
v 31.449264526367188 26.723129272460938 71.27772521972656
v 24.123353958129883 21.820749282836914 65.73489379882812
v 24.48258399963379 22.06113624572754 63.03832244873047
v 25.651948928833008 22.843656539916992 61.19437026977539
v 29.366445541381836 25.3293399810791 58.48353576660156
v 36.33945083618164 29.99556541442871 65.41085815429688
v 30.83423614501953 26.311561584472656 56.72457504272461
v 32.11183166503906 27.1665096282959 53.58448791503906
v 55.143043518066406 42.57862854003906 45.41823959350586
v 35.0853157043457 29.156312942504883 42.059452056884766
v 36.479957580566406 30.08957862854004 29.99482536315918
v 39.2296142578125 31.929607391357422 24.93878173828125
v 40.47334671020508 32.76189422607422 24.204830169677734
v 41.909820556640625 33.72315979003906 24.534442901611328
v 46.710262298583984 36.9355354309082 27.709571838378906
v 50.785850524902344 39.6628532409668 27.666353225708008
v 55.43388366699219 42.77325439453125 45.37812042236328
v 51.433433532714844 40.09621047973633 26.656831741333008
v 55.38728332519531 42.7420768737793 49.531490325927734
v 55.87071990966797 43.06557846069336 50.15290451049805
v 60.90008544921875 46.43115234375 47.63643264770508
v 102.94664764404297 74.56803894042969 24.45013999938965
v 51.366554260253906 40.05145263671875 25.021392822265625
v 48.83289337158203 38.3559684753418 14.36318302154541
v 48.97298049926758 38.44971466064453 9.225139617919922
v 50.086421966552734 39.19480895996094 7.369079113006592
v 60.85298156738281 46.39961624145508 -0.2995745539665222
v 100.95030212402344 73.23210906982422 -23.356142044067383
v 128.50131225585938 91.66881561279297 9.151154518127441
v 107.32742309570312 77.49957275390625 -27.944059371948242
v 116.8341064453125 83.86128997802734 -36.432884216308594
v 181.71131896972656 127.27610778808594 -25.932401657104492
v 126.10990142822266 90.06851196289062 -46.20155334472656
v 134.145263671875 95.44564819335938 -56.005889892578125
v 139.93048095703125 99.31702423095703 -64.60173034667969
v 141.97482299804688 100.68505859375 -70.01849365234375
v 142.71517944335938 101.18049621582031 -76.08265686035156
v 183.75836181640625 128.64593505859375 -26.44476890563965
v 185.795654296875 130.00926208496094 -25.86466407775879
v 176.95077514648438 124.09040069580078 -111.27942657470703
v 178.74664306640625 125.29216766357422 -108.53207397460938
v 180.01768493652344 126.14273834228516 -107.64649200439453
v 188.4601287841797 131.7922821044922 -106.01578521728516
v 191.5756072998047 133.8771209716797 -104.5296630859375
v 195.05194091796875 136.20343017578125 -100.4129867553711
v 201.92013549804688 140.7995147705078 -89.76602935791016
v 206.55728149414062 143.90260314941406 -82.0921401977539
v 120.54710388183594 86.34598541259766 57.03486251831055
v 121.89108276367188 87.24535369873047 55.97935104370117
v 122.56552124023438 87.69669342041016 54.17592239379883
v 114.81172943115234 82.50796508789062 57.561031341552734
v 111.09639739990234 80.02172088623047 56.03666687011719
v 107.63928985595703 77.7082748413086 53.29281234741211
v 123.59184265136719 88.38348388671875 41.858612060546875
v 103.04046630859375 74.63082122802734 46.993492126464844
v 102.2404556274414 74.09546661376953 44.7016487121582
v 103.08219146728516 74.65874481201172 37.25609588623047
v 104.07903289794922 75.32581329345703 35.47211456298828
v 105.5007553100586 76.27720642089844 34.61858367919922
v 111.1627197265625 80.06610107421875 33.893028259277344
v 117.1908950805664 84.10006713867188 30.77132225036621
v 124.42265319824219 88.93943786621094 40.72528076171875
v 121.39151000976562 86.91104888916016 27.63896369934082
v 125.62401580810547 89.74337768554688 40.019622802734375
v 122.58045959472656 87.70667266845703 25.317703247070312
v 139.08807373046875 98.75330352783203 35.49296188354492
v 120.78668212890625 86.50630187988281 18.074012756347656
v 120.84505462646484 86.54536437988281 16.87615966796875
v 123.80217742919922 88.52423095703125 14.084064483642578
v 130.96041870117188 93.31440734863281 9.796850204467773
v 152.222412109375 107.5425796508789 -0.7373827695846558
v 167.60284423828125 117.83494567871094 26.286701202392578
v 176.03314208984375 123.47635650634766 -9.972159385681152
v 178.58230590820312 125.18222045898438 24.547517776489258
v 186.3002166748047 130.346923828125 24.952699661254883
v 187.73435974121094 131.30661010742188 -12.034080505371094
v 190.1983184814453 132.95545959472656 -13.135568618774414
v 208.740478515625 145.3636016845703 28.25710678100586
v 190.72084045410156 133.30511474609375 -13.914262771606445
v 219.03970336914062 152.2556610107422 31.360218048095703
v 190.53260803222656 133.1791534423828 -17.251354217529297
v 214.42291259765625 149.1661834716797 45.78989028930664
v 215.07666015625 149.60366821289062 47.911949157714844
v 216.796142578125 150.7543182373047 48.5086784362793
v 214.34902954101562 149.1167449951172 43.177284240722656
v 219.13095092773438 152.31674194335938 35.28333282470703
v 215.45252990722656 149.85520935058594 54.02242660522461
v 215.45779418945312 149.8587188720703 55.66665267944336
v 216.27630615234375 150.40646362304688 56.572200775146484
v 219.97523498535156 152.8817138671875 58.57991027832031
v 219.78103637695312 152.7517547607422 32.34979248046875
v 222.14630126953125 154.33456420898438 72.39527893066406
v 223.23880004882812 155.06565856933594 73.58641815185547
v 224.77784729003906 156.09555053710938 74.2451400756836
v 220.7794952392578 153.419921875 66.3293685913086
v 231.34706115722656 160.49156188964844 74.26914978027344
v 240.98367309570312 166.9402313232422 72.55976867675781
v 243.5702362060547 168.67111206054688 71.80073547363281
v 250.99525451660156 173.6398162841797 66.05059051513672
v 254.3461456298828 175.8822021484375 60.48871994018555
v 255.1457977294922 176.41732788085938 57.53894805908203
v 255.15306091308594 176.4221649169922 44.00123977661133
v 254.71571350097656 176.1295166015625 41.02756881713867
v 253.69342041015625 175.4453887939453 38.78205108642578
v 248.81228637695312 172.17901611328125 33.59075164794922
v 242.8175048828125 168.1674041748047 30.47496223449707
v 241.5077667236328 167.2909393310547 29.283424377441406
v 241.17886352539062 167.0708465576172 23.74921417236328
v 242.8018035888672 168.1569061279297 21.913105010986328
v 248.82955932617188 172.19056701660156 21.648296356201172
v 250.7179718017578 173.4542694091797 20.374372482299805
v 252.04269409179688 174.34075927734375 16.856103897094727
v 253.9074249267578 175.588623046875 6.684781074523926
v 255.17481994628906 176.4367218017578 1.7432491779327393
v 257.1990966796875 177.7913360595703 -3.512570381164551
v 264.842041015625 182.90586853027344 -20.001689910888672
v 187.56385803222656 131.19252014160156 -24.14063835144043
v 275.5942077636719 190.10104370117188 -40.03471755981445
v 281.6170349121094 194.1314239501953 -55.6198616027832
v 282.2620849609375 194.56304931640625 -60.13288879394531
v 281.68804931640625 194.17892456054688 -63.747528076171875
v 280.1809387207031 193.17041015625 -67.12247467041016
v 278.024169921875 191.7271270751953 -70.05331420898438
v 275.5010986328125 190.03872680664062 -72.33558654785156
v 271.8222351074219 187.57688903808594 -74.24636840820312
v 245.06076049804688 169.66851806640625 -74.4420394897461
v 239.49810791015625 165.9460906982422 -68.21851348876953
v 236.30862426757812 163.81173706054688 -58.589134216308594
v 247.28123474121094 171.15444946289062 -75.8324966430664
v 252.6500244140625 174.7471466064453 -77.32987213134766
v 258.4427185058594 178.62351989746094 -77.3438491821289
v 234.5276336669922 162.61993408203125 -56.14644241333008
v 233.24169921875 161.7593994140625 -56.044437408447266
v 230.7976531982422 160.12388610839844 -57.00780487060547
v 219.74244689941406 152.72589111328125 -64.05126953125
v 212.6616973876953 147.98757934570312 -70.32292175292969
v 209.4322509765625 145.82650756835938 -74.78173828125
v 209.09104919433594 145.59815979003906 -78.63688659667969
v 207.31732177734375 144.41122436523438 -81.60424041748047
v 210.31298828125 146.41586303710938 -81.22124481201172
v 209.8257598876953 146.08982849121094 -83.15401458740234
v 212.35240173339844 147.78060913085938 -83.82371520996094
v 213.29653930664062 148.41241455078125 -87.04309844970703
v 222.8489227294922 154.80471801757812 -93.9149169921875
v 219.7305450439453 152.7179412841797 -96.12870025634766
v 224.59877014160156 155.97567749023438 -96.23295593261719
v 226.19381713867188 157.04306030273438 -100.1316146850586
v 27.624238967895508 30.532197952270508 -198.52105712890625
v 22.281118392944336 26.956668853759766 -192.05874633789062
v 20.911346435546875 26.0400390625 -186.35577392578125
v 37.667015075683594 37.2526741027832 -169.6363983154297
v 42.05335235595703 40.18793487548828 -172.42372131347656
v 46.318477630615234 43.04208755493164 -180.02735900878906
v 30.078413009643555 32.174495697021484 -169.69459533691406
v 46.281951904296875 43.01764678955078 -189.21539306640625
v 43.92232894897461 41.438621520996094 -194.5080108642578
v 23.796493530273438 27.970739364624023 -174.8279571533203
v 22.41244125366211 27.044551849365234 -177.30731201171875
v 37.587589263916016 37.19950866699219 -199.66819763183594
v 29.947845458984375 32.087120056152344 -199.6536407470703
v 82.4164047241211 65.07532501220703 -201.0158233642578
v 70.80547332763672 57.30546951293945 -218.74691772460938
v 70.67280578613281 57.21669387817383 -217.21792602539062
v 75.8287124633789 60.66693878173828 -207.31935119628906
v 79.23902893066406 62.94907760620117 -197.44520568847656
v -65.47286987304688 -33.88982391357422 -120.90129852294922
v -67.9924087524414 -35.57585906982422 -110.79319763183594
v -68.57875061035156 -35.96821975708008 -105.52201080322266
v -61.15729522705078 -31.001903533935547 -130.42803955078125
v -52.0350456237793 -24.897445678710938 -142.6939697265625
v -44.9787712097168 -20.17549705505371 -148.55772399902344
v -37.15510177612305 -14.940023422241211 -152.56881713867188
v -24.118377685546875 -6.2160563468933105 -155.09457397460938
v -15.486869812011719 -0.43998709321022034 -154.31680297851562
v -7.197859287261963 5.106888294219971 -151.53065490722656
v -67.6684799194336 -35.35907745361328 -89.0224609375
v 0.746588945388794 10.423190116882324 -146.7309112548828
v -64.9509048461914 -33.5405158996582 -78.66443634033203
v -62.96894836425781 -32.21422576904297 -73.82969665527344
v -57.75734329223633 -28.726701736450195 -64.84501647949219
v -43.640480041503906 -19.279916763305664 -50.26036834716797
v 14.935954093933105 19.918489456176758 -135.52252197265625
v -36.11233901977539 -14.242203712463379 -44.77857208251953
v -28.295940399169922 -9.011591911315918 -40.323429107666016
v -20.191129684448242 -3.587980031967163 -36.894813537597656
v -11.797679901123047 2.0287840366363525 -34.4926872253418
v 23.078838348388672 25.367578506469727 -131.75352478027344
v 5.855663776397705 13.842122077941895 -32.767757415771484
v 33.07182693481445 32.05474853515625 -37.6882209777832
v 31.557950973510742 31.041669845581055 -129.96482849121094
v 49.264404296875 42.890560150146484 -45.65238571166992
v 56.70096969604492 47.86699295043945 -51.030941009521484
v 44.76923370361328 39.882442474365234 -130.98007202148438
v 70.25739288330078 56.9387321472168 -64.58314514160156
v 52.981563568115234 45.378013610839844 -134.02581787109375
v 86.74602508544922 67.97265625 -90.93482971191406
v 93.65238189697266 72.59426879882812 -110.06558227539062
v 60.42208480834961 50.35708236694336 -138.93270874023438
v 95.80661010742188 74.03585052490234 -119.98859405517578
v 67.09146881103516 54.820125579833984 -145.70240783691406
v 97.51512908935547 75.17916870117188 -140.5499267578125
v 75.46073150634766 60.42070388793945 -158.94949340820312
v 79.03108978271484 62.809932708740234 -168.30638122558594
v 93.67253112792969 72.6077651977539 -172.05828857421875
v 80.84690856933594 64.0250473022461 -177.85623168945312
v 90.74202728271484 70.64669799804688 -182.02455139160156
v 81.09642028808594 64.19200134277344 -182.70335388183594
v -39.476951599121094 -12.892566680908203 -119.2569580078125
v -44.820064544677734 -16.468093872070312 -112.79464721679688
v -46.18983459472656 -17.384719848632812 -107.09169006347656
v -29.434173583984375 -6.172094821929932 -90.37229919433594
v -25.047834396362305 -3.2368288040161133 -93.15962219238281
v -20.7827091217041 -0.38267412781715393 -100.76327514648438
v -37.02276611328125 -11.250263214111328 -90.43049621582031
v -20.819232940673828 -0.40711820125579834 -109.9512939453125
v -23.17885398864746 -1.9861394166946411 -115.24391174316406
v -43.304691314697266 -15.454028129577637 -95.56387329101562
v -44.68873977661133 -16.380210876464844 -98.043212890625
v -29.513601303100586 -6.225252628326416 -120.40409851074219
v -37.153343200683594 -11.337646484375 -120.38955688476562
v -82.69538116455078 -49.660709381103516 -187.35801696777344
v -85.87994384765625 -51.79176330566406 -176.77407836914062
v -88.13731384277344 -53.30236053466797 -165.85354614257812
v -89.46761322021484 -54.19257354736328 -154.59579467773438
v -89.87100219726562 -54.46250915527344 -143.0003662109375
v -85.66609191894531 -51.648651123046875 -107.9699935913086
v -82.5419921875 -49.558048248291016 -97.2353286743164
v -78.56242370605469 -46.894981384277344 -87.04342651367188
v -73.7275161743164 -43.6595344543457 -77.39473724365234
v -68.03734588623047 -39.85176086425781 -68.28958129882812
v -61.4920768737793 -35.471771240234375 -59.72822952270508
v -37.883544921875 -19.673309326171875 -38.45355987548828
v -29.35988998413086 -13.969413757324219 -33.49607467651367
v -20.557479858398438 -8.0789794921875 -29.652759552001953
v -11.476919174194336 -2.002411365509033 -26.923721313476562
v -2.118863582611084 4.259851455688477 -25.308795928955078
v 7.516030788421631 10.70737075805664 -24.808151245117188
v 36.638309478759766 30.195537567138672 -29.826154708862305
v 45.56147003173828 36.166770935058594 -33.57271194458008
v 54.030216217041016 41.833927154541016 -38.34878921508789
v 62.045162200927734 47.19740295410156 -44.15433883666992
v 69.6067123413086 52.25747299194336 -50.98923873901367
v 76.71538543701172 57.01447677612305 -58.85343551635742
v 94.37698364257812 68.83334350585938 -87.23396301269531
v 98.4893798828125 71.58527374267578 -97.4813461303711
v 101.6747055053711 73.71684265136719 -108.06534576416016
v 103.93281555175781 75.22793579101562 -118.98629760742188
v 105.2635726928711 76.11845397949219 -130.24472045898438
v 105.66680908203125 76.38829803466797 -141.84104919433594
v 101.4601821899414 73.57328033447266 -176.870849609375
v 98.33536529541016 71.48219299316406 -187.60597229003906
v 94.35499572753906 68.81859588623047 -197.79861450195312
v 89.51930236816406 65.58262634277344 -207.44786071777344
v 83.82843017578125 61.774383544921875 -216.55311584472656
v 61.91811752319336 47.112342834472656 -240.31483459472656
v 45.15032958984375 35.8916015625 -251.3458709716797
v 36.34791946411133 30.00116539001465 -255.19020080566406
v 17.909250259399414 17.662302017211914 -259.5353088378906
v -11.466544151306152 -1.9955140352249146 -257.7309875488281
v -20.842348098754883 -8.2696533203125 -255.012939453125
v -29.764331817626953 -14.24010181427002 -251.2661895751953
v -38.23276901245117 -19.907045364379883 -246.4906005859375
v -46.24798583984375 -25.27069854736328 -240.6859588623047
v -53.81021499633789 -30.331222534179688 -233.85208129882812
v -73.54399108886719 -43.53675079345703 -207.5181427001953
v -78.58345031738281 -46.90906524658203 -197.60580444335938
v 310.5741882324219 204.0515899658203 269.1970520019531
v -299.5631408691406 -204.24261474609375 269.19708251953125
v -291.2674865722656 -216.6392822265625 269.19708251953125
v 318.8698425292969 191.65492248535156 269.19708251953125
v -299.5631103515625 -204.24267578125 -297.37567138671875
v 307.62890625 202.08056640625 -297.7330627441406
v 315.924560546875 189.68389892578125 -297.7330627441406
v -291.2674560546875 -216.63934326171875 -297.37567138671875
v -311.2334899902344 -212.05221557617188 251.96820068359375
v -310.93646240234375 -211.85357666015625 -283.6907653808594
v -302.64080810546875 -224.25022888183594 -283.6907653808594
v -302.9378356933594 -224.44888305664062 251.96820068359375
v 317.9633483886719 208.99632263183594 264.4031677246094
v 315.8002014160156 207.54879760742188 266.55072021484375
v 324.0958557128906 195.15211486816406 266.55072021484375
v 326.2590026855469 196.5996551513672 264.4031677246094
v -306.95233154296875 -209.18734741210938 264.4031982421875
v -308.7371520996094 -210.3817138671875 261.80047607421875
v -300.4414978027344 -222.77838134765625 261.80047607421875
v -298.65667724609375 -221.58401489257812 264.4031982421875
v 321.9475402832031 211.66236877441406 -283.6908264160156
v 321.947509765625 211.66244506835938 255.51220703125
v 330.2431640625 199.26577758789062 255.51220703125
v 330.2431945800781 199.26571655273438 -283.6908264160156
v -304.7891540527344 -207.73989868164062 -294.72930908203125
v -302.3065185546875 -206.07855224609375 -296.3507995605469
v -294.0108642578125 -218.47525024414062 -296.3507995605469
v -296.4934997558594 -220.13656616210938 -294.72930908203125
v 321.0958557128906 211.092529296875 258.81317138671875
v 319.74810791015625 210.19068908691406 261.8004455566406
v 328.04376220703125 197.7939910888672 261.8004455566406
v 329.3914489746094 198.6958465576172 258.81317138671875
v 319.7481994628906 210.1905975341797 -289.9789733886719
v 321.09588623046875 211.0924530029297 -286.99176025390625
v 329.39154052734375 198.69580078125 -286.99176025390625
v 328.0438537597656 197.79393005371094 -289.9789733886719
v -302.30657958984375 -206.07846069335938 268.1723937988281
v -304.78924560546875 -207.7398223876953 266.5507507324219
v -296.49359130859375 -220.13648986816406 266.5507507324219
v -294.01092529296875 -218.4751434326172 268.1723937988281
v -310.93646240234375 -211.85357666015625 -283.6907653808594
v -310.08477783203125 -211.2836151123047 -286.9917297363281
v -301.78912353515625 -223.6802978515625 -286.9917297363281
v -302.64080810546875 -224.25022888183594 -283.6907653808594
v -310.0848083496094 -211.28355407714844 258.8132019042969
v -310.9364929199219 -211.85348510742188 255.5121612548828
v -302.6408386230469 -224.25015258789062 255.5121612548828
v -301.7891540527344 -223.68019104003906 258.8132019042969
v 313.3175048828125 205.88742065429688 268.17236328125
v 310.5741882324219 204.0515899658203 269.1970520019531
v 318.8698425292969 191.65492248535156 269.19708251953125
v 321.6131591796875 193.49073791503906 268.17236328125
v 315.80023193359375 207.54872131347656 -294.7293701171875
v 317.96337890625 208.9962615966797 -292.5818176269531
v 326.259033203125 196.59959411621094 -292.5818176269531
v 324.09588623046875 195.1520538330078 -294.7293701171875
v 321.947509765625 211.66244506835938 255.51220703125
v 321.0958557128906 211.092529296875 258.81317138671875
v 329.3914489746094 198.6958465576172 258.81317138671875
v 330.2431640625 199.26577758789062 255.51220703125
v 321.09588623046875 211.0924530029297 -286.99176025390625
v 321.9475402832031 211.66236877441406 -283.6908264160156
v 330.2431945800781 199.26571655273438 -283.6908264160156
v 329.39154052734375 198.69580078125 -286.99176025390625
v -302.3065185546875 -206.07855224609375 -296.3507995605469
v -299.5631103515625 -204.24267578125 -297.37567138671875
v -291.2674560546875 -216.63934326171875 -297.37567138671875
v -294.0108642578125 -218.47525024414062 -296.3507995605469
v -299.5631408691406 -204.24261474609375 269.19708251953125
v -302.30657958984375 -206.07846069335938 268.1723937988281
v -294.01092529296875 -218.4751434326172 268.1723937988281
v -291.2674865722656 -216.6392822265625 269.19708251953125
v 310.5741882324219 204.05152893066406 -297.3757019042969
v 313.3175964355469 205.88734436035156 -296.350830078125
v 321.6132507324219 193.4906768798828 -296.350830078125
v 318.8698425292969 191.6548614501953 -297.3757019042969
v 307.62890625 202.08056640625 -297.7330627441406
v 310.5741882324219 204.05152893066406 -297.3757019042969
v 318.8698425292969 191.6548614501953 -297.3757019042969
v 315.924560546875 189.68389892578125 -297.7330627441406
v -304.78924560546875 -207.7398223876953 266.5507507324219
v -306.95233154296875 -209.18734741210938 264.4031982421875
v -298.65667724609375 -221.58401489257812 264.4031982421875
v -296.49359130859375 -220.13648986816406 266.5507507324219
v -308.73712158203125 -210.3817901611328 -289.97894287109375
v -306.9522705078125 -209.18743896484375 -292.5817565917969
v -298.6566162109375 -221.58407592773438 -292.5817565917969
v -300.44146728515625 -222.77845764160156 -289.97894287109375
v -306.9522705078125 -209.18743896484375 -292.5817565917969
v -304.7891540527344 -207.73989868164062 -294.72930908203125
v -296.4934997558594 -220.13656616210938 -294.72930908203125
v -298.6566162109375 -221.58407592773438 -292.5817565917969
v 315.8002014160156 207.54879760742188 266.55072021484375
v 313.3175048828125 205.88742065429688 268.17236328125
v 321.6131591796875 193.49073791503906 268.17236328125
v 324.0958557128906 195.15211486816406 266.55072021484375
v 319.74810791015625 210.19068908691406 261.8004455566406
v 317.9633483886719 208.99632263183594 264.4031677246094
v 326.2590026855469 196.5996551513672 264.4031677246094
v 328.04376220703125 197.7939910888672 261.8004455566406
v -310.08477783203125 -211.2836151123047 -286.9917297363281
v -308.73712158203125 -210.3817901611328 -289.97894287109375
v -300.44146728515625 -222.77845764160156 -289.97894287109375
v -301.78912353515625 -223.6802978515625 -286.9917297363281
v -308.7371520996094 -210.3817138671875 261.80047607421875
v -310.0848083496094 -211.28355407714844 258.8132019042969
v -301.7891540527344 -223.68019104003906 258.8132019042969
v -300.4414978027344 -222.77838134765625 261.80047607421875
v 313.3175964355469 205.88734436035156 -296.350830078125
v 315.80023193359375 207.54872131347656 -294.7293701171875
v 324.09588623046875 195.1520538330078 -294.7293701171875
v 321.6132507324219 193.4906768798828 -296.350830078125
v 317.96337890625 208.9962615966797 -292.5818176269531
v 319.7481994628906 210.1905975341797 -289.9789733886719
v 328.0438537597656 197.79393005371094 -289.9789733886719
v 326.259033203125 196.59959411621094 -292.5818176269531
v -310.9364929199219 -211.85348510742188 255.5121612548828
v -311.2334899902344 -212.05221557617188 251.96820068359375
v -302.9378356933594 -224.44888305664062 251.96820068359375
v -302.6408386230469 -224.25015258789062 255.5121612548828
f 854 855 851
f 853 854 851
f 852 853 851
f 849 852 851
f 850 849 851
f 860 865 864
f 863 860 864
f 862 860 863
f 861 860 862
f 859 860 861
f 858 860 859
f 851 858 859
f 857 858 851
f 856 857 851
f 855 856 851
f 874 873 875
f 872 873 874
f 870 873 872
f 871 870 872
f 869 870 871
f 865 870 869
f 868 865 869
f 867 865 868
f 866 865 867
f 864 865 866
f 883 885 884
f 882 883 884
f 881 883 882
f 880 881 882
f 878 881 880
f 879 878 880
f 877 878 879
f 876 878 877
f 875 876 877
f 873 876 875
f 845 844 846
f 846 844 847
f 847 844 848
f 848 844 889
f 890 848 889
f 888 890 889
f 887 888 889
f 886 888 887
f 884 886 887
f 885 886 884
f 832 831 833
f 833 831 843
f 842 833 843
f 839 833 842
f 841 833 839
f 840 841 839
f 837 840 839
f 838 837 839
f 836 837 838
f 834 837 836
f 835 834 836
f 15 10 16
f 16 10 17
f 17 10 18
f 18 10 19
f 19 10 20
f 20 10 21
f 21 10 22
f 22 10 23
f 23 10 24
f 24 10 25
f 5 4 6
f 4 7 6
f 6 7 8
f 8 7 9
f 7 10 9
f 9 10 11
f 11 10 12
f 12 10 13
f 13 10 14
f 14 10 15
f 10 3 25
f 25 3 26
f 26 3 27
f 27 3 28
f 28 3 29
f 29 3 30
f 3 1 30
f 2 1 3
f 186 185 187
f 188 187 185
f 236 235 237
f 237 235 238
f 238 235 241
f 239 238 241
f 240 239 241
f 241 235 242
f 235 243 242
f 242 243 253
f 248 242 253
f 252 248 253
f 251 248 252
f 250 248 251
f 249 248 250
f 247 248 249
f 244 248 247
f 246 244 247
f 245 244 246
f 225 227 228
f 226 227 225
f 222 226 225
f 224 222 225
f 223 222 224
f 221 222 223
f 216 222 221
f 220 216 221
f 219 216 220
f 218 216 219
f 217 216 218
f 215 216 217
f 211 216 215
f 214 211 215
f 213 211 214
f 212 211 213
f 210 211 212
f 209 211 210
f 208 209 210
f 206 209 208
f 207 206 208
f 205 206 207
f 203 206 205
f 204 203 205
f 412 418 417
f 417 418 419
f 419 418 420
f 418 421 420
f 420 421 422
f 422 421 423
f 423 421 424
f 424 421 425
f 425 421 426
f 421 427 426
f 426 427 428
f 427 429 428
f 428 429 430
f 468 430 470
f 470 430 471
f 471 430 472
f 472 430 473
f 430 429 473
f 473 429 474
f 474 429 475
f 475 429 476
f 476 429 477
f 477 429 478
f 519 498 520
f 498 429 520
f 520 429 521
f 521 429 522
f 522 429 523
f 523 429 524
f 524 429 525
f 525 429 526
f 526 429 533
f 429 534 533
f 533 534 535
f 535 534 536
f 536 534 537
f 537 534 538
f 538 534 539
f 539 534 540
f 540 534 541
f 541 534 542
f 534 543 542
f 542 543 544
f 544 543 545
f 545 543 546
f 546 543 547
f 547 543 548
f 548 543 549
f 543 550 549
f 549 550 551
f 551 550 578
f 550 579 578
f 578 579 580
f 580 579 581
f 579 582 581
f 581 582 583
f 582 584 583
f 584 585 583
f 583 585 586
f 586 585 587
f 585 588 587
f 587 588 589
f 588 590 589
f 590 591 589
f 591 592 589
f 592 593 589
f 593 594 589
f 594 595 589
f 589 595 596
f 595 597 596
f 596 597 598
f 597 599 598
f 599 600 598
f 600 601 598
f 601 602 598
f 602 603 598
f 603 604 598
f 604 386 598
f 386 381 598
f 385 381 386
f 384 381 385
f 383 381 384
f 382 381 383
f 1067 1066 1068
f 1069 1068 1066
f 1063 1062 1064
f 1065 1064 1062
f 1059 1058 1060
f 1061 1060 1058
f 1055 1054 1056
f 1057 1056 1054
f 1051 1050 1052
f 1053 1052 1050
f 1047 1046 1048
f 1049 1048 1046
f 1043 1042 1044
f 1045 1044 1042
f 1039 1038 1040
f 1041 1040 1038
f 1035 1034 1036
f 1037 1036 1034
f 1031 1030 1032
f 1033 1032 1030
f 1027 1026 1028
f 1029 1028 1026
f 1023 1022 1024
f 1025 1024 1022
f 1019 1018 1020
f 1021 1020 1018
f 1015 1014 1016
f 1017 1016 1014
f 1011 1010 1012
f 1013 1012 1010
f 1007 1006 1008
f 1009 1008 1006
f 1003 1002 1004
f 1005 1004 1002
f 999 998 1000
f 1001 1000 998
f 995 994 996
f 997 996 994
f 991 990 992
f 993 992 990
f 987 986 988
f 989 988 986
f 983 982 984
f 985 984 982
f 979 978 980
f 981 980 978
f 975 974 976
f 977 976 974
f 971 970 972
f 973 972 970
f 967 966 968
f 969 968 966
f 963 962 964
f 965 964 962
f 959 958 960
f 961 960 958
f 955 954 956
f 957 956 954
f 951 950 952
f 953 952 950
f 255 254 256
f 256 254 257
f 254 262 261
f 260 254 261
f 257 254 260
f 258 257 260
f 259 258 260
f 264 263 265
f 265 263 266
f 263 267 266
f 266 267 268
f 268 267 269
f 269 267 270
f 270 267 271
f 271 267 272
f 267 261 272
f 261 262 272
f 200 198 201
f 201 198 202
f 202 198 230
f 234 202 230
f 233 234 230
f 232 233 230
f 231 232 230
f 229 231 230
f 228 229 230
f 227 229 228
f 284 286 287
f 285 286 284
f 283 285 284
f 281 283 284
f 282 283 281
f 274 282 281
f 273 274 281
f 296 295 297
f 287 295 296
f 294 295 287
f 293 294 287
f 292 293 287
f 291 292 287
f 290 291 287
f 289 290 287
f 288 289 287
f 286 288 287
f 305 307 306
f 303 305 306
f 304 305 303
f 302 304 303
f 301 302 303
f 300 302 301
f 298 300 301
f 299 300 298
f 295 299 298
f 297 295 298
f 315 317 316
f 314 315 316
f 313 315 314
f 311 313 314
f 312 313 311
f 310 312 311
f 308 310 311
f 309 310 308
f 307 309 308
f 306 307 308
f 274 273 275
f 273 276 275
f 275 276 277
f 276 278 277
f 277 278 279
f 279 278 280
f 280 278 319
f 318 280 319
f 316 318 319
f 317 318 316
f 490 491 492
f 486 491 490
f 489 486 490
f 488 486 489
f 487 486 488
f 485 486 487
f 484 486 485
f 483 484 485
f 481 484 483
f 482 481 483
f 478 429 479
f 479 429 480
f 480 429 498
f 497 480 498
f 496 480 497
f 495 496 497
f 494 496 495
f 492 494 495
f 493 494 492
f 491 493 492
f 510 509 511
f 509 512 511
f 511 512 513
f 513 512 514
f 514 512 515
f 512 516 515
f 515 516 517
f 516 518 517
f 517 518 519
f 518 498 519
f 439 430 463
f 463 430 464
f 464 430 465
f 465 430 468
f 469 465 468
f 466 469 468
f 467 466 468
f 432 431 433
f 433 431 434
f 434 431 435
f 431 436 435
f 435 436 437
f 436 438 437
f 437 438 439
f 438 440 439
f 440 441 439
f 441 442 439
f 442 430 439
f 456 455 457
f 457 455 458
f 458 455 459
f 455 451 459
f 459 451 460
f 460 451 461
f 461 451 462
f 451 454 462
f 454 439 462
f 462 439 463
f 444 443 445
f 443 446 445
f 445 446 447
f 447 446 448
f 446 449 448
f 449 450 448
f 448 450 451
f 450 452 451
f 452 453 451
f 453 454 451
f 730 822 821
f 821 822 823
f 822 824 823
f 823 824 825
f 824 826 825
f 825 826 827
f 826 828 827
f 827 828 829
f 829 828 830
f 828 614 830
f 614 615 830
f 610 615 614
f 613 610 614
f 612 610 613
f 611 610 612
f 609 610 611
f 605 610 609
f 608 605 609
f 607 605 608
f 606 605 607
f 626 628 627
f 627 628 629
f 629 628 630
f 628 631 630
f 630 631 632
f 631 633 632
f 632 633 722
f 633 730 722
f 722 730 820
f 820 730 821
f 814 808 811
f 811 808 815
f 808 722 815
f 815 722 816
f 816 722 817
f 817 722 818
f 818 722 819
f 819 722 820
f 810 809 811
f 809 812 811
f 812 813 811
f 813 814 811
f 634 676 673
f 676 677 673
f 677 678 673
f 678 679 673
f 673 679 722
f 679 723 722
f 723 724 722
f 724 725 722
f 725 726 722
f 726 727 722
f 727 728 722
f 728 729 722
f 729 632 722
f 705 711 712
f 711 713 712
f 713 714 712
f 712 714 715
f 714 716 715
f 716 717 715
f 717 718 715
f 718 719 715
f 719 720 715
f 715 720 721
f 721 720 722
f 720 673 722
f 635 634 636
f 636 634 637
f 637 634 638
f 638 634 673
f 675 638 673
f 674 675 673
f 660 674 673
f 659 660 673
f 647 660 659
f 658 647 659
f 662 661 663
f 663 661 664
f 661 665 664
f 665 666 664
f 666 667 664
f 664 667 668
f 668 667 669
f 667 659 669
f 669 659 670
f 670 659 671
f 671 659 672
f 672 659 673
f 190 189 191
f 189 192 191
f 192 193 191
f 191 193 194
f 193 195 194
f 194 195 196
f 196 195 197
f 195 198 197
f 197 198 199
f 199 198 200
f 617 616 618
f 618 616 619
f 616 620 619
f 619 620 621
f 620 622 621
f 622 623 621
f 623 624 621
f 621 624 625
f 624 626 625
f 625 626 627
f 95 96 97
f 94 96 95
f 92 94 95
f 93 94 92
f 80 93 92
f 79 80 92
f 80 79 81
f 81 79 82
f 79 83 82
f 82 83 84
f 83 85 84
f 84 85 86
f 86 85 87
f 85 88 87
f 87 88 89
f 89 88 90
f 90 88 91
f 91 88 124
f 123 91 124
f 122 123 124
f 121 123 122
f 120 121 122
f 119 121 120
f 117 119 120
f 118 119 117
f 114 118 117
f 116 114 117
f 115 114 116
f 108 114 115
f 113 114 108
f 112 113 108
f 111 112 108
f 110 111 108
f 109 110 108
f 107 109 108
f 105 107 108
f 106 107 105
f 104 106 105
f 102 104 105
f 103 104 102
f 101 103 102
f 100 101 102
f 98 101 100
f 99 98 100
f 97 98 99
f 96 98 97
f 771 770 772
f 770 767 772
f 772 767 773
f 766 765 767
f 765 768 767
f 768 769 767
f 767 769 773
f 769 774 773
f 784 774 785
f 785 774 786
f 786 774 787
f 787 774 788
f 788 774 789
f 789 774 790
f 790 774 791
f 774 763 791
f 763 764 791
f 791 764 792
f 792 764 793
f 793 764 794
f 794 764 795
f 795 764 796
f 796 764 797
f 797 764 798
f 798 764 799
f 764 800 799
f 799 800 801
f 801 800 802
f 802 800 803
f 803 800 804
f 804 800 805
f 805 800 806
f 806 800 807
f 807 800 808
f 800 722 808
f 564 563 565
f 565 563 566
f 566 563 567
f 560 559 561
f 559 562 561
f 561 562 563
f 562 557 563
f 563 557 567
f 567 557 568
f 572 573 568
f 573 574 568
f 574 575 568
f 575 576 568
f 576 577 568
f 577 551 568
f 568 551 578
f 553 552 554
f 554 552 555
f 552 556 555
f 555 556 557
f 556 558 557
f 557 558 568
f 558 569 568
f 569 570 568
f 570 571 568
f 571 572 568
f 178 177 179
f 179 177 180
f 177 181 180
f 181 182 180
f 180 182 183
f 182 175 183
f 174 173 175
f 173 176 175
f 175 176 183
f 183 176 184
f 528 527 529
f 529 527 530
f 530 527 531
f 531 527 532
f 532 527 533
f 527 526 533
f 689 691 692
f 691 693 692
f 693 694 692
f 694 695 692
f 695 696 692
f 696 697 692
f 697 698 692
f 698 699 692
f 692 699 700
f 699 701 700
f 703 702 704
f 702 700 704
f 700 701 704
f 704 701 705
f 701 706 705
f 706 707 705
f 707 708 705
f 708 709 705
f 709 710 705
f 710 711 705
f 681 680 682
f 680 683 682
f 682 683 684
f 683 685 684
f 685 686 684
f 686 687 684
f 687 688 684
f 684 688 689
f 688 690 689
f 690 691 689
f 640 639 641
f 639 642 641
f 641 642 643
f 642 644 643
f 644 645 643
f 645 646 643
f 646 647 643
f 643 647 658
f 657 643 658
f 656 643 657
f 655 643 656
f 654 643 655
f 652 643 654
f 653 643 652
f 651 653 652
f 650 651 652
f 648 651 650
f 649 648 650
f 126 136 137
f 127 136 126
f 126 125 127
f 127 125 128
f 125 129 128
f 128 129 130
f 130 129 131
f 129 132 131
f 131 132 133
f 132 134 133
f 133 134 135
f 135 134 171
f 172 135 171
f 170 172 171
f 169 170 171
f 168 170 169
f 165 168 169
f 167 168 165
f 166 167 165
f 164 166 165
f 162 164 165
f 163 164 162
f 161 163 162
f 160 161 162
f 159 161 160
f 157 159 160
f 158 159 157
f 156 158 157
f 155 156 157
f 154 156 155
f 151 154 155
f 153 154 151
f 152 153 151
f 148 152 151
f 150 148 151
f 149 148 150
f 142 148 149
f 147 148 142
f 146 147 142
f 145 146 142
f 144 145 142
f 143 144 142
f 141 143 142
f 139 141 142
f 140 141 139
f 138 140 139
f 137 138 139
f 136 138 137
f 945 904 946
f 946 904 947
f 947 904 948
f 948 904 949
f 935 904 936
f 936 904 937
f 937 904 938
f 938 904 939
f 939 904 940
f 940 904 941
f 941 904 942
f 942 904 943
f 943 904 944
f 944 904 945
f 905 904 906
f 906 904 907
f 907 904 908
f 908 904 909
f 909 904 910
f 910 904 911
f 911 904 912
f 912 904 913
f 913 904 914
f 914 904 915
f 915 904 916
f 916 904 917
f 917 904 918
f 918 904 919
f 919 904 920
f 920 904 921
f 921 904 922
f 922 904 923
f 923 904 924
f 924 904 925
f 925 904 926
f 926 904 927
f 927 904 928
f 928 904 929
f 929 904 930
f 930 904 931
f 931 904 932
f 932 904 933
f 933 904 934
f 934 904 935
f 892 891 893
f 893 891 903
f 902 893 903
f 899 893 902
f 901 893 899
f 900 901 899
f 897 900 899
f 898 897 899
f 896 897 898
f 894 897 896
f 895 894 896
f 401 402 403
f 403 402 404
f 402 389 404
f 404 389 405
f 405 389 406
f 406 389 407
f 407 389 408
f 408 389 409
f 409 389 410
f 388 387 389
f 387 390 389
f 389 390 410
f 410 390 411
f 390 412 411
f 411 412 413
f 413 412 414
f 414 412 415
f 415 412 416
f 416 412 417
f 500 499 501
f 499 502 501
f 502 503 501
f 501 503 504
f 503 505 504
f 505 506 504
f 506 507 504
f 504 507 508
f 507 509 508
f 508 509 510
f 392 391 393
f 393 391 394
f 391 395 394
f 394 395 396
f 396 395 397
f 397 395 398
f 398 395 399
f 395 400 399
f 399 400 401
f 400 402 401
f 367 366 368
f 366 369 368
f 369 370 368
f 368 370 371
f 370 372 371
f 371 372 373
f 373 372 374
f 372 375 374
f 375 376 374
f 374 376 377
f 376 378 377
f 378 379 377
f 379 380 377
f 75 76 77
f 76 78 77
f 78 59 77
f 59 58 77
f 57 58 59
f 56 58 57
f 55 56 57
f 54 56 55
f 53 54 55
f 51 54 53
f 52 51 53
f 49 51 52
f 50 51 49
f 47 50 49
f 48 47 49
f 46 47 48
f 44 47 46
f 45 44 46
f 43 44 45
f 37 44 43
f 42 37 43
f 41 37 42
f 40 37 41
f 39 37 40
f 38 37 39
f 34 37 38
f 36 37 34
f 35 36 34
f 31 35 34
f 33 31 34
f 32 31 33
f 33 60 32
f 60 61 32
f 32 61 62
f 61 63 62
f 62 63 64
f 63 65 64
f 64 65 66
f 65 67 66
f 66 67 68
f 67 69 68
f 69 70 68
f 68 70 71
f 70 72 71
f 72 73 71
f 73 74 71
f 71 74 75
f 74 76 75
f 776 775 777
f 775 778 777
f 777 778 779
f 779 778 780
f 778 773 780
f 773 774 780
f 780 774 781
f 781 774 782
f 782 774 783
f 783 774 784
f 353 358 357
f 356 353 357
f 355 353 356
f 354 353 355
f 351 350 352
f 352 350 365
f 364 352 365
f 363 364 365
f 362 364 363
f 361 362 363
f 360 362 361
f 359 360 361
f 358 360 359
f 357 358 359
f 732 731 733
f 731 734 733
f 734 735 733
f 735 736 733
f 733 736 737
f 736 738 737
f 738 739 737
f 739 740 737
f 740 741 737
f 741 742 737
f 742 743 737
f 743 744 737
f 737 744 745
f 744 746 745
f 745 746 747
f 746 748 747
f 747 748 749
f 748 750 749
f 750 751 749
f 751 752 749
f 752 753 749
f 753 754 749
f 749 754 755
f 754 756 755
f 755 756 757
f 757 756 758
f 756 759 758
f 759 760 758
f 758 760 761
f 760 762 761
f 761 762 763
f 762 764 763
f 321 320 322
f 322 320 323
f 323 320 349
f 348 323 349
f 347 323 348
f 346 347 348
f 345 347 346
f 344 345 346
f 340 345 344
f 343 340 344
f 342 340 343
f 341 340 342
f 332 340 341
f 339 340 332
f 338 339 332
f 337 338 332
f 336 337 332
f 335 336 332
f 334 335 332
f 333 334 332
f 331 333 332
f 330 331 332
f 329 331 330
f 327 329 330
f 328 329 327
f 326 328 327
f 324 326 327
f 325 326 324
f 321 325 324
f 320 321 324
