# from WD_Block16_BarnhamLogo_LOD_0.pskx
v 573.2979125976562 25.113615036010742 -1009.4389038085938
v 565.2446899414062 27.130489349365234 -1005.137939453125
v 584.736328125 -2.5822722911834717 -954.1492309570312
v 563.5360107421875 2.8681671619415283 -943.1754150390625
v 566.0091552734375 -1.0903586149215698 -936.23974609375
v 617.0376586914062 -13.870113372802734 -963.4924926757812
v 614.2090454101562 -9.8225679397583 -970.2384033203125
v 593.2326049804688 -4.710141181945801 -958.6868286132812
v 504.5962219238281 30.319551467895508 -943.0757446289062
v 496.20770263671875 45.656646728515625 -971.3241577148438
v 487.94720458984375 48.017578125 -967.6348876953125
v 505.236328125 15.61166763305664 -907.4468383789062
v 514.0125122070312 13.10336685180664 -911.366455078125
v 506.70721435546875 26.459869384765625 -935.9668579101562
v 539.9600219726562 17.255279541015625 -951.5587158203125
v 548.0864868164062 3.6714820861816406 -927.34326171875
v 556.7550048828125 1.3509865999221802 -931.6031494140625
v 536.4392700195312 34.594661712646484 -990.3721923828125
v 528.2799682617188 36.77883529663086 -986.362548828125
v 537.611572265625 21.1806640625 -958.5562744140625
v 437.2037353515625 50.756412506103516 -915.8831787109375
v 438.83154296875 47.04083251953125 -908.5733642578125
v 474.77410888671875 36.084808349609375 -922.9366455078125
v 440.5091552734375 38.28885269165039 -888.8677368164062
v 442.11944580078125 34.57876968383789 -881.55126953125
v 490.3229675292969 19.947147369384766 -900.9669189453125
v 479.609375 26.350648880004883 -904.4442138671875
v 473.9097900390625 52.09838104248047 -961.53564453125
v 427.05718994140625 66.3347396850586 -942.7005615234375
v 428.6565246582031 62.62811279296875 -935.3798828125
v 467.4839172363281 50.760948181152344 -950.8175048828125
v 472.88958740234375 39.878631591796875 -930.1439208984375
v 344.4659423828125 81.90673828125 -885.9495849609375
v 348.81536865234375 78.93310546875 -883.61328125
v 354.40667724609375 76.03436279296875 -882.8944091796875
v 340.9501953125 90.64996337890625 -903.5136108398438
v 351.6563720703125 80.847412109375 -891.623291015625
v 349.85247802734375 82.668701171875 -894.0462036132812
v 348.9375305175781 84.37774658203125 -897.216796875
v 348.8795471191406 85.59417724609375 -900.15771484375
v 349.509765625 86.4222412109375 -902.9320678710938
v 342.65936279296875 91.47686767578125 -907.5296630859375
v 350.6934814453125 86.86822509765625 -905.3999633789062
v 344.91949462890625 91.74627685546875 -910.8023681640625
v 352.30029296875 86.9373779296875 -907.4242553710938
v 347.8374938964844 91.49896240234375 -913.5560913085938
v 351.52374267578125 90.7769775390625 -916.0223999023438
v 356.09893798828125 89.53838348388672 -918.2366333007812
v 361.69158935546875 87.73613739013672 -920.2305908203125
v 354.38189697265625 86.656005859375 -909.1292114257812
v 356.99249267578125 86.04901123046875 -910.6392822265625
v 359.2476806640625 85.37237548828125 -911.567138671875
v 362.75372314453125 84.20611572265625 -912.7268676757812
v 378.779296875 78.79546356201172 -917.8312377929688
v 386.0111083984375 79.56768035888672 -928.081298828125
v 396.938232421875 49.13089370727539 -865.4246215820312
v 382.34832763671875 68.40945434570312 -896.2665405273438
v 354.21826171875 79.02587890625 -890.073974609375
v 361.03363037109375 72.152587890625 -880.9390869140625
v 357.398193359375 77.3209228515625 -889.5256958007812
v 361.58642578125 75.5498046875 -889.976806640625
v 364.31134033203125 71.2611083984375 -882.51513671875
v 367.1685791015625 73.53094482421875 -891.4229125976562
v 369.28515625 69.64212036132812 -884.2483520507812
v 383.581298828125 64.82156372070312 -888.8170166015625
v 386.7123107910156 55.710205078125 -869.8988647460938
v 373.259765625 60.243408203125 -865.5928344726562
v 371.5186767578125 57.666778564453125 -857.2136840820312
v 367.0328369140625 62.459930419921875 -863.8917236328125
v 364.43878173828125 60.292724609375 -855.541259765625
v 362.879638671875 64.16094970703125 -863.307861328125
v 358.7668151855469 62.8521728515625 -855.3281860351562
v 360.05987548828125 65.66152954101562 -863.76611328125
v 354.2518310546875 65.44329833984375 -856.5278930664062
v 357.82965087890625 67.27871704101562 -865.192626953125
v 350.6307373046875 68.16668701171875 -859.0855712890625
v 356.27392578125 68.90194702148438 -867.4119873046875
v 348.1177062988281 70.76318359375 -862.6073608398438
v 355.4708251953125 70.4241943359375 -870.249755859375
v 346.91021728515625 72.982666015625 -866.7027587890625
v 346.9839782714844 74.61566162109375 -870.8255615234375
v 355.4837646484375 71.69781494140625 -873.4139404296875
v 348.23785400390625 75.73773193359375 -875.046142578125
v 356.42242431640625 72.41619873046875 -876.2727661132812
v 350.6986083984375 76.24627685546875 -879.1417236328125
v 358.275634765625 72.56939697265625 -878.7890625
v 340.00909423828125 89.30548095703125 -899.1038208007812
v 340.0638427734375 87.4810791015625 -894.6558837890625
v 341.5074462890625 84.80364990234375 -889.7005004882812
v 282.5 115.9912109375 -898.7611083984375
v 272.7723388671875 119.634521484375 -896.55078125
v 304.6062927246094 81.31317138671875 -838.5106201171875
v 333.048828125 97.66510009765625 -911.7467041015625
v 317.20233154296875 92.397705078125 -880.4461669921875
v 311.80621337890625 86.5435791015625 -859.7474975585938
v 310.2724609375 84.56134033203125 -853.0772094726562
v 309.1973876953125 82.36962890625 -846.4179077148438
v 314.5819091796875 77.68060302734375 -841.033935546875
v 306.60772705078125 85.80609130859375 -851.9283447265625
v 303.0986328125 90.14520263671875 -858.6104125976562
v 294.74810791015625 100.57586669921875 -874.770751953125
v 324.030029296875 100.85992431640625 -909.2447509765625
v 319.06640625 94.58819580078125 -888.0123291015625
v 291.4619140625 104.64312744140625 -881.0374145507812
v 219.66978454589844 140.18292236328125 -886.1146850585938
v 208.98023986816406 144.4537353515625 -884.3463134765625
v 220.3253631591797 132.7183837890625 -868.4136352539062
v 228.44589233398438 131.2030029296875 -874.0322875976562
v 223.8792724609375 129.37066650390625 -864.2348022460938
v 232.0123291015625 127.69633483886719 -869.4749755859375
v 227.6626434326172 126.29271697998047 -860.9877319335938
v 234.89840698242188 125.02019500732422 -866.1864013671875
v 229.91636657714844 124.74943542480469 -859.77099609375
v 233.01785278320312 122.86785125732422 -858.6954956054688
v 237.3109893798828 123.00175476074219 -863.97802734375
v 265.8719482421875 122.24176025390625 -895.0388793945312
v 258.91644287109375 110.10894012451172 -857.0169677734375
v 259.8736267089844 100.99071502685547 -835.5748291015625
v 269.30084228515625 94.46832275390625 -830.320068359375
v 238.8514862060547 106.18701171875 -824.1779174804688
v 238.29861450195312 109.33208465576172 -831.3168334960938
v 231.70477294921875 112.21959686279297 -830.8517456054688
v 230.7675018310547 109.5362548828125 -823.1359252929688
v 224.87564086914062 112.39251708984375 -823.4031982421875
v 227.13307189941406 114.92527770996094 -832.2694091796875
v 220.56594848632812 115.08495330810547 -825.0900268554688
v 224.45872497558594 117.35686492919922 -835.1973266601562
v 217.21914672851562 117.9459228515625 -828.3043212890625
v 215.07470703125 120.69718933105469 -832.6338500976562
v 223.53421020507812 119.43125915527344 -839.2603759765625
v 214.35211181640625 123.07145690917969 -837.67138671875
v 223.9483184814453 120.49974822998047 -842.3798828125
v 215.48744201660156 125.20702362060547 -844.2611694335938
v 225.25950622558594 121.11907196044922 -845.4234008789062
v 218.91970825195312 125.98809051513672 -850.1509399414062
v 227.43023681640625 121.20348358154297 -848.1357421875
v 224.72381591796875 125.26403045654297 -855.0547485351562
v 230.42999267578125 120.666259765625 -850.2672119140625
v 239.4493408203125 121.47173309326172 -862.6610717773438
v 241.46273803710938 120.25835418701172 -861.9830322265625
v 243.50152587890625 119.19023895263672 -861.6931762695312
v 245.47833251953125 118.32884979248047 -861.8432006835938
v 248.40162658691406 117.16539764404297 -862.337890625
v 258.5869140625 113.24871063232422 -864.400390625
v 234.50469970703125 119.43926239013672 -851.9327392578125
v 239.90625 117.45092010498047 -853.2459106445312
v 257.3001708984375 125.50664520263672 -893.225830078125
v 146.00936889648438 144.0421600341797 -810.7026977539062
v 154.68478393554688 140.36924743652344 -811.6265258789062
v 157.28195190429688 160.07981872558594 -863.3589477539062
v 190.9476776123047 125.31976318359375 -816.2374267578125
v 200.24874877929688 121.538330078125 -817.6146240234375
v 200.8763427734375 147.72149658203125 -883.0798950195312
v 192.69894409179688 151.04510498046875 -881.8668212890625
v 191.80453491210938 130.62872314453125 -830.3529663085938
v 158.56573486328125 165.2030487060547 -877.507568359375
v 149.8233184814453 168.90330505371094 -876.5740356445312
v 121.50623321533203 154.5676727294922 -808.46826171875
v 130.59671020507812 150.63658142089844 -809.2325439453125
v 135.31610107421875 175.11033630371094 -875.190185546875
v 126.7596206665039 178.8104705810547 -874.4708862304688
v 124.2845458984375 167.3887176513672 -843.37451171875
v 77.00965118408203 174.25730895996094 -805.8345947265625
v 86.06415557861328 170.1902313232422 -806.2208862304688
v 89.0738525390625 179.7604217529297 -833.355712890625
v 84.8770523071289 197.34349060058594 -871.991943359375
v 93.3996353149414 193.5153045654297 -872.3555297851562
v 89.943603515625 182.5259246826172 -841.197021484375
v 123.66168975830078 164.51438903808594 -835.5489501953125
v 27.579626083374023 223.84495544433594 -871.4378662109375
v 17.993627548217773 228.41014099121094 -871.670166015625
v 33.574005126953125 194.20188903808594 -805.0546875
v 77.75531768798828 200.56484985351562 -871.74365234375
v 55.438812255859375 199.8247528076172 -844.1754150390625
v 45.410831451416016 196.60899353027344 -824.6583251953125
v 42.370121002197266 195.4625701904297 -818.3167724609375
v 39.758880615234375 194.0734100341797 -811.870361328125
v 43.46661376953125 189.59593200683594 -805.0752563476562
v 38.682193756103516 197.0891571044922 -818.0852661132812
v 37.033538818359375 200.9438934326172 -825.7151489257812
v 33.17279052734375 210.19346618652344 -844.13330078125
v 68.75836944580078 204.6637420654297 -871.5023193359375
v 59.003604888916016 201.05845642089844 -851.337158203125
v 31.63104820251465 213.80599975585938 -851.2877197265625
v -0.8369749188423157 210.51853942871094 -805.712890625
v 11.603581428527832 231.4745330810547 -871.8773193359375
v 3.485295534133911 235.39218139648438 -872.2012329101562
v -7.543120384216309 217.75035095214844 -815.8599853515625
v -53.877105712890625 241.0021209716797 -819.9150390625
v -40.71920394897461 257.2123107910156 -875.1722412109375
v -48.742733001708984 261.2624816894531 -875.9332885742188
v -64.9496841430664 242.16571044921875 -810.0218505859375
v -53.030696868896484 236.15733337402344 -808.911865234375
v -26.863414764404297 242.0146942138672 -853.574462890625
v -21.138118743896484 243.52902221679688 -863.9219970703125
v -22.36556625366211 248.0518035888672 -873.6893920898438
v -14.848734855651855 244.34153747558594 -873.1846923828125
v -20.173778533935547 239.04344177246094 -853.94287109375
v -14.194168090820312 216.9768524169922 -806.2767333984375
v -149.04611206054688 294.78558349609375 -843.140869140625
v -157.95449829101562 298.79693603515625 -842.7852783203125
v -157.0899200439453 294.86309814453125 -834.055419921875
v -143.2831268310547 306.2629699707031 -878.1669921875
v -150.03160095214844 305.92193603515625 -869.54052734375
v -142.51377868652344 300.86962890625 -865.7184448242188
v -137.67303466796875 301.32989501953125 -872.4395751953125
v -135.3819122314453 304.8959655761719 -883.899658203125
v -131.97897338867188 300.4632263183594 -876.86376953125
v -126.6665267944336 301.9602355957031 -886.6924438476562
v -125.69143676757812 298.4026794433594 -879.0203247070312
v -117.3945541381836 297.5575866699219 -886.499755859375
v -119.02767181396484 295.2609558105469 -878.9376220703125
v -108.73101806640625 292.4612121582031 -883.8902587890625
v -113.81842041015625 292.1422424316406 -877.2340087890625
v -109.46044921875 288.8381042480469 -874.0902099609375
v -102.53069305419922 287.7950134277344 -879.50341796875
v -106.3796615600586 285.5631103515625 -869.5455322265625
v -98.55397033691406 283.4590148925781 -873.3685302734375
v -105.02369689941406 282.54425048828125 -863.644775390625
v -96.5914306640625 279.3812255859375 -865.5490112304688
v -105.25895690917969 279.81231689453125 -856.618408203125
v -96.5311279296875 275.77178955078125 -856.6937255859375
v -106.9658432006836 277.4107666015625 -848.711669921875
v -98.28900146484375 272.8641357421875 -847.4767456054688
v -109.34142303466797 275.9698486328125 -842.408935546875
v -101.9872817993164 270.763671875 -838.0176391601562
v -112.67816162109375 275.1180419921875 -836.4544677734375
v -107.25860595703125 270.0426025390625 -830.1551513671875
v -117.0751724243164 275.1304931640625 -831.4140625
v -113.9119644165039 270.7156982421875 -824.14599609375
v -122.61664581298828 276.280517578125 -827.866455078125
v -121.71075439453125 272.7833251953125 -820.2639770507812
v -129.08636474609375 278.5797119140625 -826.0897827148438
v -130.1646728515625 276.024658203125 -818.5284423828125
v -136.2349853515625 282.02655029296875 -826.367919921875
v -138.7411346435547 280.198974609375 -818.9586791992188
v -141.92164611816406 285.43621826171875 -828.240234375
v -147.32763671875 285.36395263671875 -821.82666015625
v -145.96307373046875 288.66552734375 -831.5640258789062
v -153.50608825683594 290.32525634765625 -826.9683837890625
v -148.33749389648438 291.76104736328125 -836.4795532226562
v -206.9878692626953 321.52496337890625 -842.4320068359375
v -211.3781280517578 325.10711669921875 -846.225830078125
v -212.0354766845703 321.2581787109375 -835.95068359375
v -201.33570861816406 317.9564208984375 -840.1270141601562
v -204.06610107421875 316.25439453125 -832.7694702148438
v -192.45388793945312 313.62554931640625 -839.6619873046875
v -190.96609497070312 309.8681640625 -832.0873413085938
v -183.681640625 310.75543212890625 -842.6824340820312
v -178.71560668945312 306.01544189453125 -836.6896362304688
v -175.87977600097656 310.04248046875 -849.917724609375
v -168.51565551757812 305.092529296875 -846.1714477539062
v -169.818603515625 312.13568115234375 -862.0838012695312
v -161.38792419433594 307.41094970703125 -860.124755859375
v -159.3849334716797 309.91900634765625 -868.6363525390625
v -167.596435546875 315.4631042480469 -872.8743286132812
v -159.2845001220703 313.2898254394531 -877.0870361328125
v -169.21507263183594 319.8547668457031 -881.8665771484375
v -161.19912719726562 317.3344421386719 -884.8797607421875
v -165.2655487060547 321.8874816894531 -891.4478149414062
v -218.2630157470703 326.24676513671875 -841.103271484375
v -214.25259399414062 328.48394775390625 -851.26025390625
v -222.40484619140625 330.906982421875 -847.849365234375
v -215.378662109375 331.451904296875 -857.3003540039062
v -224.15646362304688 334.95458984375 -855.8375244140625
v -214.7793731689453 333.94561767578125 -864.157470703125
v -223.5809783935547 338.263916015625 -864.68408203125
v -212.49131774902344 335.912841796875 -871.66064453125
v -220.76654052734375 340.7343444824219 -874.0383911132812
v -216.07557678222656 342.1695251464844 -882.9974365234375
v -206.6513214111328 337.4599914550781 -882.2216796875
v -209.96875 342.3234558105469 -890.4212646484375
v -199.03477478027344 336.7268981933594 -889.1934204101562
v -202.80435180664062 341.2186584472656 -895.9523315429688
v -194.89292907714844 338.8596496582031 -899.2437133789062
v -190.43896484375 334.0612487792969 -892.5160522460938
v -186.74598693847656 335.5236511230469 -900.3911743164062
v -181.5665740966797 329.7652893066406 -892.12646484375
v -178.8344268798828 331.4662780761719 -899.4835205078125
v -171.2180633544922 326.6788024902344 -896.4298095703125
v -174.05226135253906 324.7809143066406 -888.46826171875
v -253.95774841308594 374.9836730957031 -920.4443359375
v -257.3979187011719 373.5610046386719 -912.9590454101562
v -228.5430908203125 356.3069152832031 -903.5750122070312
v -252.54214477539062 344.78826904296875 -847.4146118164062
v -244.2548828125 339.91326904296875 -844.9185180664062
v -217.51443481445312 353.2677917480469 -908.7799682617188
v -298.3381042480469 402.4236755371094 -937.1085815429688
v -302.106689453125 401.2040710449219 -929.7465209960938
v -273.96063232421875 383.6695251464844 -918.8515014648438
v -300.4397888183594 373.64501953125 -863.5253295898438
v -292.3465270996094 368.68560791015625 -860.5966186523438
v -262.7809753417969 380.3498229980469 -923.5369262695312
v -361.19769287109375 428.8756103515625 -930.0169677734375
v -365.3135986328125 427.8802490234375 -922.8087768554688
v -333.81610107421875 407.3839111328125 -908.4557495117188
v -378.03009033203125 426.7517395019531 -905.3519897460938
v -382.16107177734375 425.76629638671875 -898.1510620117188
v -339.8126525878906 398.2794494628906 -879.0276489257812
v -343.79937744140625 404.4543762207031 -889.6978759765625
v -307.4586181640625 408.2052307128906 -940.8851928710938
v -348.594970703125 434.922119140625 -959.5028686523438
v -352.7354431152344 433.9429931640625 -952.3064575195312
v -318.7643737792969 411.8008728027344 -936.7366333007812
v -329.9251403808594 408.52569580078125 -915.7664184570312
v -425.41552734375 470.9743347167969 -960.0476684570312
v -402.4997253417969 455.052490234375 -947.1079711914062
v -398.10052490234375 455.8570556640625 -954.1712646484375
v -413.9297790527344 466.815673828125 -963.0115356445312
v -424.9273986816406 464.82537841796875 -945.4064331054688
v -432.6776123046875 469.1794738769531 -947.234130859375
v -434.4517822265625 467.41845703125 -940.8334350585938
v -426.1358947753906 463.4422607421875 -940.5926513671875
v -434.8196716308594 465.302734375 -935.1776733398438
v -426.41387939453125 461.94635009765625 -936.5733032226562
v -433.67822265625 462.676025390625 -929.9993286132812
v -425.6578674316406 460.1419677734375 -932.9835815429688
v -430.93072509765625 459.3926086425781 -925.049560546875
v -423.76611328125 457.8376159667969 -929.4676513671875
v -426.7353210449219 455.63018798828125 -920.5848999023438
v -420.8580627441406 455.1911926269531 -926.2780151367188
v -421.26446533203125 451.57891845703125 -916.87744140625
v -417.0622863769531 452.36785888671875 -923.6746215820312
v -412.7577819824219 446.25408935546875 -913.5219116210938
v -412.0663757324219 449.16778564453125 -921.52392578125
v -407.2412109375 446.5418701171875 -920.5960083007812
v -404.0901794433594 441.84124755859375 -912.607177734375
v -402.71160888671875 444.48687744140625 -920.7388305664062
v -395.5506591796875 438.5499572753906 -914.3179321289062
v -398.5887145996094 442.9925537109375 -921.7988891601562
v -394.85052490234375 441.97076416015625 -923.5836791992188
v -387.38836669921875 436.5663146972656 -918.8268432617188
v -391.47015380859375 441.33575439453125 -925.912353515625
v -380.1364440917969 435.8687744140625 -925.4659423828125
v -386.385986328125 440.9847106933594 -930.9078979492188
v -374.2763366699219 436.4131774902344 -933.5706176757812
v -382.10089111328125 441.4237365722656 -936.9354858398438
v -370.1507568359375 438.091064453125 -942.4776000976562
v -378.3264465332031 442.78509521484375 -944.655029296875
v -368.1875305175781 440.77642822265625 -951.3816528320312
v -376.5862731933594 444.82476806640625 -951.7052612304688
v -368.5651550292969 444.3694763183594 -959.8307495117188
v -376.82733154296875 447.48785400390625 -958.0121459960938
v -371.481201171875 448.79656982421875 -967.4141235351562
v -379.00897216796875 450.73486328125 -963.5245971679688
v -376.5511474609375 453.7552490234375 -973.8278198242188
v -382.6825256347656 454.2885437011719 -968.0748901367188
v -383.4302978515625 458.97113037109375 -978.7908325195312
v -387.4197998046875 457.8850402832031 -971.504150390625
v -389.4833679199219 462.82452392578125 -981.3375854492188
v -392.2494201660156 460.9417724609375 -973.4921264648438
v -396.1121826171875 466.4638366699219 -982.691162109375
v -397.5798645019531 463.8226318359375 -974.4677124023438
v -402.6878967285156 466.2563171386719 -974.5940551757812
v -403.3309631347656 469.9024353027344 -982.8679809570312
v -406.83367919921875 467.9561462402344 -974.0156860351562
v -411.1316833496094 473.1351013183594 -981.8644409179688
v -469.703125 504.62677001953125 -992.179931640625
v -474.599609375 504.1763000488281 -985.4188842773438
v -445.7704772949219 483.196533203125 -966.7926635742188
v -489.1293640136719 504.4761962890625 -969.4027709960938
v -494.0396423339844 504.0360107421875 -962.651123046875
v -455.2572937011719 475.88983154296875 -937.7846069335938
v -457.8055419921875 481.6562805175781 -949.1040649414062
v -416.1213073730469 481.2562561035156 -996.1904296875
v -453.7884826660156 508.6114501953125 -1020.3871459960938
v -458.7073059082031 508.17755126953125 -1013.6414184570312
v -427.62548828125 485.5186767578125 -993.4618530273438
v -441.0799255371094 483.79681396484375 -973.686767578125
v 328.7476806640625 127.91020965576172 -981.5816650390625
v 333.15887451171875 126.01219940185547 -981.9760131835938
v 333.1676025390625 127.39739990234375 -985.4112548828125
v 308.8002624511719 131.7008514404297 -967.9486083984375
v 304.34344482421875 133.64292907714844 -967.6105346679688
v 304.36370849609375 132.41893005371094 -964.607421875
v 309.1197509765625 130.35484313964844 -964.9888916015625
v 305.17022705078125 130.9622039794922 -961.9356079101562
v 310.412841796875 128.8883514404297 -962.8541870117188
v 306.7576599121094 129.331298828125 -959.7337646484375
v 309.12042236328125 127.58464813232422 -958.1400146484375
v 312.74755859375 127.27696990966797 -961.5624389648438
v 312.14892578125 125.78092956542969 -957.1729736328125
v 316.19189453125 125.49626922607422 -961.1319580078125
v 315.73333740234375 123.97863006591797 -956.8505249023438
v 319.12841796875 122.51982879638672 -957.1590576171875
v 319.8525390625 123.94915008544922 -961.5283813476562
v 322.2992858886719 121.41515350341797 -958.0845947265625
v 322.5064697265625 123.19225311279297 -962.7177124023438
v 325.0587158203125 120.74321746826172 -959.6057739257812
v 327.2198486328125 120.58263397216797 -961.7009887695312
v 324.20599365234375 123.10674285888672 -964.4663696289062
v 328.72235107421875 120.88140869140625 -964.1727294921875
v 325.0036926269531 123.57372283935547 -966.5410766601562
v 329.506103515625 121.58757781982422 -966.8226928710938
v 329.567626953125 122.5186767578125 -969.196044921875
v 324.94073486328125 124.31877899169922 -968.3107299804688
v 328.9794616699219 123.65538024902344 -971.3282470703125
v 324.150390625 125.26396942138672 -969.7362670898438
v 327.72296142578125 124.98888397216797 -973.1763916015625
v 325.7796936035156 126.51042938232422 -974.6973876953125
v 321.95391845703125 126.80168151855469 -971.00537109375
v 323.3096923828125 128.1050262451172 -975.7916259765625
v 317.6269226074219 129.3457489013672 -972.3052978515625
v 319.42315673828125 130.38682556152344 -976.9511108398438
v 315.64996337890625 132.56553649902344 -977.9866943359375
v 313.10064697265625 131.9553680419922 -973.5377197265625
v 313.52001953125 133.8509979248047 -978.7085571289062
v 310.3063049316406 133.6899871826172 -974.6039428710938
v 311.80401611328125 135.0402069091797 -979.6698608398438
v 307.92999267578125 135.46336364746094 -976.248291015625
v 310.7445068359375 136.0044403076172 -980.8320922851562
v 306.40594482421875 136.9958953857422 -978.2799072265625
v 310.2616271972656 136.78379821777344 -982.2023315429688
v 305.6949768066406 138.2958221435547 -980.6741943359375
v 310.27545166015625 137.41844177246094 -983.7875366210938
v 305.757568359375 139.3716278076172 -983.4064331054688
v 310.76898193359375 137.8373260498047 -985.3924560546875
v 306.58697509765625 140.11485290527344 -986.2008056640625
v 308.1834716796875 140.43296813964844 -988.8287353515625
v 311.7330322265625 137.98631286621094 -986.8727416992188
v 310.4659729003906 140.28318786621094 -991.0906982421875
v 313.1656799316406 137.83055114746094 -988.139892578125
v 313.353271484375 139.6224822998047 -992.7870483398438
v 315.06488037109375 137.3350067138672 -989.1051025390625
v 316.67462158203125 138.5021209716797 -993.8473510742188
v 317.3193664550781 136.5304412841797 -989.7157592773438
v 319.81768798828125 135.4474334716797 -989.9193115234375
v 320.25921630859375 136.97300720214844 -994.2008056640625
v 322.5793762207031 134.0508270263672 -989.651123046875
v 324.5325012207031 134.83531188964844 -993.8434448242188
v 324.96282958984375 132.61363220214844 -988.8463134765625
v 327.931640625 132.8162078857422 -992.7713623046875
v 326.8216552734375 131.2452850341797 -987.6068115234375
v 330.49468994140625 130.89683532714844 -990.9813232421875
v 328.00933837890625 130.05540466308594 -986.034423828125
v 332.2597961425781 129.0580291748047 -988.470458984375
v 328.6200256347656 128.96873474121094 -984.0516967773438
v 272.7242431640625 148.74693298339844 -968.4898681640625
v 268.03961181640625 150.4845428466797 -967.3833618164062
v 269.2918701171875 148.10215759277344 -962.9369506835938
v 272.5564880371094 156.43736267089844 -987.3121337890625
v 269.7244567871094 155.65794372558594 -982.1185913085938
v 274.15948486328125 153.10154724121094 -980.9126586914062
v 276.1612854003906 153.7820281982422 -984.9039306640625
v 276.329345703125 156.21202087402344 -991.1063232421875
v 278.856689453125 153.6863250732422 -987.7760009765625
v 280.8714294433594 155.03208923339844 -993.4271850585938
v 282.10626220703125 152.87193298339844 -989.51025390625
v 286.010986328125 152.9476776123047 -994.2008056640625
v 285.7706298828125 151.39659118652344 -990.08837890625
v 291.0215759277344 150.3701629638672 -993.6064453125
v 288.7747802734375 149.82371520996094 -989.6638793945312
v 291.42181396484375 148.0741424560547 -988.3908081054688
v 294.79730224609375 147.8878631591797 -991.8231811523438
v 293.46392822265625 146.2598114013672 -986.2598266601562
v 297.45159912109375 145.4728240966797 -988.9129638671875
v 294.6531982421875 144.4927215576172 -983.2620849609375
v 299.09747314453125 143.09715270996094 -984.9370727539062
v 295.047119140625 142.8031463623047 -979.5386352539062
v 299.7534484863281 140.9005584716797 -980.26220703125
v 294.7032470703125 141.22129821777344 -975.2307739257812
v 299.4376220703125 139.0226287841797 -975.2545166015625
v 293.88507080078125 140.1813201904297 -971.7156372070312
v 298.0999755859375 137.5106658935547 -969.9732666015625
v 292.5360412597656 139.43138122558594 -968.3054809570312
v 295.8349914550781 136.72251892089844 -965.4120483398438
v 290.57293701171875 139.12718200683594 -965.2891845703125
v 292.7455139160156 136.6688690185547 -961.7163696289062
v 287.9127197265625 139.42417907714844 -962.9553833007812
v 288.9342956542969 137.3604736328125 -959.0308227539062
v 284.6510009765625 140.34117126464844 -961.4610595703125
v 284.6534423828125 138.69586181640625 -957.3956298828125
v 280.88348388671875 141.8970184326172 -960.9629516601562
v 280.1554870605469 140.573486328125 -956.8505249023438
v 277.75335693359375 143.5386199951172 -961.411865234375
v 275.45440673828125 143.04547119140625 -957.5410766601562
v 275.3571472167969 145.2009735107422 -962.7586669921875
v 271.79840087890625 145.5887451171875 -959.6131591796875
v 273.6842346191406 146.9238739013672 -965.0892944335938
v 232.79071044921875 162.91668701171875 -957.47021484375
v 237.4126739501953 160.7608642578125 -957.47021484375
v 239.70816040039062 165.6821746826172 -972.2863159179688
v 257.76092529296875 157.26170349121094 -972.2863159179688
v 255.46546936035156 152.34039306640625 -957.47021484375
v 260.08740234375 150.1845703125 -957.47021484375
v 265.68212890625 162.17918395996094 -993.5811767578125
v 261.0602111816406 164.3350067138672 -993.5811767578125
v 258.42425537109375 158.6838836669922 -976.56787109375
v 240.37149047851562 167.10435485839844 -976.56787109375
v 243.0074005126953 172.75547790527344 -993.5811767578125
v 238.3854522705078 174.9113006591797 -993.5811767578125
v 207.15017700195312 176.4717254638672 -961.4149780273438
v 204.4151611328125 178.2958221435547 -962.7709350585938
v 205.25523376464844 175.7510986328125 -957.447509765625
v 210.3649139404297 174.7894744873047 -960.9629516601562
v 209.7515411376953 173.412353515625 -956.8504638671875
v 215.0647430419922 172.94920349121094 -961.8331909179688
v 216.64126586914062 170.71282958984375 -958.12158203125
v 219.3494415283203 172.0065155029297 -964.44384765625
v 222.56947326660156 169.48985290527344 -961.9347534179688
v 222.72265625 172.3121795654297 -969.090087890625
v 227.00315856933594 169.87254333496094 -967.9945678710938
v 224.6880645751953 174.2170867919922 -976.0669555664062
v 229.40919494628906 171.99009704589844 -976.00537109375
v 229.62713623046875 173.7605438232422 -980.6345825195312
v 224.7421112060547 176.5482635498047 -981.8935546875
v 228.80838012695312 175.9149627685547 -985.0172729492188
v 222.88449096679688 179.2117156982422 -986.3367919921875
v 226.9320526123047 178.33103942871094 -988.827392578125
v 223.97718811035156 180.8867645263672 -991.73876953125
v 201.4197235107422 178.26446533203125 -959.2386474609375
v 202.31063842773438 180.15794372558594 -964.9480590820312
v 198.44810485839844 180.80674743652344 -962.09765625
v 200.98744201660156 181.95408630371094 -967.8631591796875
v 196.54367065429688 183.2322235107422 -965.8984985351562
v 200.45852661132812 183.64207458496094 -971.4271240234375
v 195.72531127929688 185.45738220214844 -970.4564819335938
v 200.73699951171875 185.1797332763672 -975.55029296875
v 196.01206970214844 187.3986053466797 -975.5872802734375
v 197.35279846191406 188.8766326904297 -980.7882080078125
v 202.53541564941406 186.83555603027344 -981.71875
v 199.67381286621094 189.6634979248047 -985.4107666015625
v 205.77340698242188 187.1781463623047 -986.30029296875
v 202.84915161132812 189.7220916748047 -989.2178344726562
v 206.75289916992188 189.0153045654297 -991.9725341796875
v 210.04612731933594 186.33421325683594 -989.141357421875
v 211.0891876220703 187.6686248779297 -993.6437377929688
v 214.94871520996094 184.4304656982422 -990.08837890625
v 215.5620880126953 185.80760192871094 -994.2008056640625
v 220.1263427734375 183.42967224121094 -993.5853271484375
v 219.4938507080078 181.93113708496094 -989.1505126953125
v 169.3046417236328 194.12423706054688 -961.4149780273438
v 166.5696258544922 195.94833374023438 -962.7709350585938
v 167.40968322753906 193.4036102294922 -957.447509765625
v 172.5193328857422 192.44198608398438 -960.9629516601562
v 171.90599060058594 191.06492614746094 -956.8504638671875
v 177.21917724609375 190.60179138183594 -961.8331909179688
v 178.79568481445312 188.3653564453125 -958.12158203125
v 181.50389099121094 189.65904235839844 -964.44384765625
v 184.7239227294922 187.1423797607422 -961.9347534179688
v 184.8771209716797 189.96470642089844 -969.090087890625
v 189.15757751464844 187.5250701904297 -967.9945678710938
v 186.84251403808594 191.86961364746094 -976.0669555664062
v 191.56362915039062 189.6426239013672 -976.00537109375
v 191.78160095214844 191.4131317138672 -980.634521484375
v 186.8965606689453 194.20079040527344 -981.8935546875
v 190.9628448486328 193.56748962402344 -985.0172729492188
v 185.03895568847656 196.86424255371094 -986.3367919921875
v 189.0864715576172 195.9835662841797 -988.827392578125
v 186.1316375732422 198.53929138183594 -991.73876953125
v 163.5741424560547 195.91697692871094 -959.2386474609375
v 164.46510314941406 197.81045532226562 -964.947998046875
v 160.60256958007812 198.45925903320312 -962.09765625
v 163.1418914794922 199.60659790039062 -967.8631591796875
v 158.69813537597656 200.88473510742188 -965.8984985351562
v 162.61297607421875 201.29458618164062 -971.4271240234375
v 157.87977600097656 203.10989379882812 -970.4564819335938
v 162.89149475097656 202.83224487304688 -975.55029296875
v 158.16650390625 205.05111694335938 -975.5872802734375
v 159.5072479248047 206.52914428710938 -980.7882080078125
v 164.68984985351562 204.48806762695312 -981.71875
v 161.82826232910156 207.3159942626953 -985.4107666015625
v 167.92787170410156 204.83065795898438 -986.30029296875
v 165.0036163330078 207.37460327148438 -989.2178344726562
v 168.90736389160156 206.66781616210938 -991.9725341796875
v 172.2005615234375 203.98672485351562 -989.141357421875
v 173.2436065673828 205.3211212158203 -993.6437377929688
v 177.1031494140625 202.08299255371094 -990.08837890625
v 177.71653747558594 203.46011352539062 -994.2008056640625
v 182.2808074951172 201.08224487304688 -993.5853271484375
v 181.64830017089844 199.5836639404297 -989.1505126953125
v 144.97381591796875 203.87765502929688 -957.47021484375
v 149.5957794189453 201.72178649902344 -957.47021484375
v 155.19049072265625 213.7163848876953 -993.5811767578125
v 133.44017028808594 223.8615264892578 -993.5811767578125
v 132.77684020996094 222.4394073486328 -989.2996826171875
v 149.9052276611328 214.45010375976562 -989.2996826171875
v 88.06718444824219 232.01632690429688 -961.4149780273438
v 85.33216094970703 233.84042358398438 -962.7709350585938
v 86.17222595214844 231.2957000732422 -957.447509765625
v 91.28190612792969 230.33407592773438 -960.9629516601562
v 90.66853332519531 228.9569549560547 -956.8504638671875
v 95.98175811767578 228.4938201904297 -961.8333129882812
v 97.55823516845703 226.25743103027344 -958.12158203125
v 100.26646423339844 227.5511016845703 -964.44384765625
v 103.48645782470703 225.0343780517578 -961.9347534179688
v 103.63965606689453 227.85678100585938 -969.090087890625
v 107.9201431274414 225.41714477539062 -967.9945678710938
v 105.60504913330078 229.7616729736328 -976.0669555664062
v 110.32621002197266 227.53463745117188 -976.00537109375
v 110.54417419433594 229.30514526367188 -980.634521484375
v 105.65909576416016 232.09286499023438 -981.8935546875
v 109.72541046142578 231.45957946777344 -985.0172729492188
v 103.80149841308594 234.7563018798828 -986.3367919921875
v 107.84904479980469 233.87564086914062 -988.827392578125
v 104.89420318603516 236.43136596679688 -991.73876953125
v 82.33671569824219 233.80906677246094 -959.2386474609375
v 83.22766876220703 235.7024688720703 -964.947998046875
v 79.36515045166016 236.35134887695312 -962.09765625
v 81.90442657470703 237.49868774414062 -967.8631591796875
v 77.46070861816406 238.77682495117188 -965.8984985351562
v 81.37555694580078 239.18667602539062 -971.4271240234375
v 76.64234924316406 241.00192260742188 -970.4564819335938
v 81.65403747558594 240.72433471679688 -975.55029296875
v 76.92908477783203 242.9431915283203 -975.5872802734375
v 78.26978302001953 244.4212188720703 -980.7882080078125
v 83.45243072509766 242.38014221191406 -981.71875
v 80.59080505371094 245.20809936523438 -985.4107666015625
v 86.69044494628906 242.72274780273438 -986.30029296875
v 83.76615905761719 245.2666778564453 -989.2178344726562
v 87.66990661621094 244.55990600585938 -991.9725341796875
v 90.96315002441406 241.8788299560547 -989.141357421875
v 92.00617980957031 243.21315002441406 -993.6437377929688
v 95.86573028564453 239.97506713867188 -990.08837890625
v 96.4791030883789 241.3521270751953 -994.2008056640625
v 101.04337310791016 238.97425842285156 -993.5853271484375
v 100.41083526611328 237.47573852539062 -989.1505126953125
v 50.04349899291992 256.1307678222656 -977.1876220703125
v 49.3801383972168 254.70864868164062 -972.9061279296875
v 65.8016128540039 247.04910278320312 -972.9061279296875
v 45.09629440307617 252.19564819335938 -961.7517700195312
v 44.43296432495117 250.77354431152344 -957.47021484375
v 68.03208923339844 239.7660369873047 -957.47021484375
v 64.07347106933594 243.34402465820312 -961.7517700195312
v 73.6268081665039 251.76065063476562 -993.5811767578125
v 69.00486755371094 253.91653442382812 -993.5811767578125
v 66.46498107910156 248.47122192382812 -977.1876220703125
v 22.302043914794922 261.0961608886719 -957.47021484375
v 27.896774291992188 273.0907897949219 -993.5811767578125
v 23.43794059753418 275.1705627441406 -993.5811767578125
v 18.672374725341797 264.9535827636719 -962.8220825195312
v -5.663791656494141 276.5099182128906 -963.3291015625
v -0.9767933487892151 286.5585021972656 -993.5811767578125
v -5.43559455871582 288.6382141113281 -993.5811767578125
v -11.03032398223877 276.6435852050781 -957.47021484375
v -4.798359394073486 273.7367858886719 -957.47021484375
v 7.4516425132751465 278.1786804199219 -982.5816040039062
v 10.205305099487305 279.2342224121094 -988.367431640625
v 9.189802169799805 281.8164367675781 -993.5811767578125
v 13.341047286987305 279.8800964355469 -993.5811767578125
v 11.052105903625488 276.6783752441406 -983.0244140625
v 15.393749237060547 264.3184509277344 -957.47021484375
v -39.37651443481445 297.7711486816406 -977.0185546875
v -40.03985595703125 296.3490295410156 -972.7369995117188
v -20.84520149230957 287.3959655761719 -972.7369995117188
v -43.0468635559082 293.3088073730469 -961.7517700195312
v -43.7101936340332 291.8866882324219 -957.47021484375
v -18.588581085205078 280.1690368652344 -957.47021484375
v -22.547183990478516 283.7470397949219 -961.7517700195312
v -12.993853569030762 292.1636657714844 -993.5811767578125
v -38.931095123291016 304.2617492675781 -993.5811767578125
v -39.59443664550781 302.8395690917969 -989.2996826171875
v -18.279130935668945 292.8973693847656 -989.2996826171875
v -20.181873321533203 288.8180847167969 -977.0185546875
v -69.8382339477539 317.1237487792969 -989.73828125
v -71.64230346679688 317.2131042480469 -987.8785400390625
v -66.91824340820312 314.5598449707031 -986.766357421875
v -67.96646118164062 316.8235778808594 -991.15478515625
v -65.90518188476562 316.2868347167969 -992.204833984375
v -63.53257751464844 315.4877624511719 -992.9653930664062
v -60.84724426269531 314.4219665527344 -993.42724609375
v -57.84793472290039 313.0852355957031 -993.5811767578125
v -65.39076232910156 314.2800598144531 -987.836181640625
v -63.50798416137695 313.7251281738281 -988.6355590820312
v -61.102420806884766 312.8045349121094 -989.1336669921875
v -58.00657653808594 311.4277038574219 -989.2996826171875
v -68.68280029296875 314.5783996582031 -984.777099609375
v -73.3244857788086 317.0451354980469 -985.5230102539062
v -70.1761474609375 314.2341613769531 -982.2035522460938
v -74.83049011230469 316.5733337402344 -982.6195068359375
v -71.35256958007812 313.5009460449219 -979.0338745117188
v -76.05331420898438 315.7639465332031 -979.2078857421875
v -72.16639709472656 312.3525085449219 -975.2554931640625
v -76.88578796386719 314.5833435058594 -975.3284301757812
v -77.25117492675781 312.9095153808594 -970.7682495117188
v -72.49347686767578 310.4819641113281 -970.2531127929688
v -76.851318359375 311.0954284667969 -966.7440185546875
v -71.72166442871094 308.6285705566406 -966.5604858398438
v -75.66949462890625 309.1607360839844 -963.3232421875
v -70.13017272949219 306.8603210449219 -964.0238037109375
v -73.68914031982422 307.1251525878906 -960.573974609375
v -71.6025390625 305.5118103027344 -958.9912109375
v -67.99810791015625 305.2452697753906 -962.4894409179688
v -68.98695373535156 303.8859558105469 -957.98779296875
v -65.66899108886719 303.9351501464844 -961.9361572265625
v -66.43070220947266 302.5366516113281 -957.599609375
v -62.15571594238281 302.2218933105469 -961.7517700195312
v -62.873435974121094 300.8251037597656 -957.47021484375
v -54.84639358520508 298.8125305175781 -961.7517700195312
v -50.887821197509766 295.2345886230469 -957.47021484375
v -50.57834243774414 307.9628601074219 -989.2996826171875
v -45.29307556152344 307.2292175292969 -993.5811767578125
v -85.80302429199219 326.1244812011719 -993.5811767578125
v -91.39776611328125 314.1298522949219 -957.47021484375
v -86.77584075927734 311.9740295410156 -957.47021484375
v -81.18110656738281 323.9686584472656 -993.5811767578125
v -122.20718383789062 332.9571838378906 -968.4898681640625
v -126.8918228149414 334.6947326660156 -967.3833618164062
v -125.63954162597656 332.3124084472656 -962.9369506835938
v -122.37495422363281 340.6476135253906 -987.3121337890625
v -125.20700073242188 339.8681945800781 -982.1185913085938
v -120.77188110351562 337.3117980957031 -980.9126586914062
v -118.7701187133789 337.9922790527344 -984.9039306640625
v -118.60210418701172 340.4222717285156 -991.1063232421875
v -116.07473754882812 337.8965759277344 -987.7760009765625
v -114.06005096435547 339.2423400878906 -993.42724609375
v -112.82513427734375 337.0821838378906 -989.51025390625
v -108.92040252685547 337.1578674316406 -994.2008056640625
v -109.1607894897461 335.6068420410156 -990.08837890625
v -103.90988159179688 334.5804138183594 -993.6064453125
v -106.1566162109375 334.0339660644531 -989.6640014648438
v -103.50957489013672 332.2843322753906 -988.3907470703125
v -100.13407897949219 332.0981140136719 -991.8231811523438
v -101.46746826171875 330.4700622558594 -986.2598266601562
v -97.47982788085938 329.6830749511719 -988.9129638671875
v -100.27822875976562 328.7029724121094 -983.2620849609375
v -95.83390045166016 327.3074035644531 -984.9370727539062
v -99.88431549072266 327.0133972167969 -979.5386962890625
v -95.17799377441406 325.1108093261719 -980.26220703125
v -100.2281494140625 325.4315490722656 -975.2307739257812
v -95.4937744140625 323.2328796386719 -975.2545166015625
v -101.04634094238281 324.3915710449219 -971.7157592773438
v -96.83145141601562 321.7209167480469 -969.9732666015625
v -102.3954086303711 323.6416320800781 -968.3054809570312
v -99.0964126586914 320.9327087402344 -965.412109375
v -104.35847473144531 323.3373718261719 -965.2891845703125
v -102.18589782714844 320.8791198730469 -961.7164306640625
v -107.01869201660156 323.6344299316406 -962.9554443359375
v -105.99716186523438 321.5707092285156 -959.0308837890625
v -110.28040313720703 324.5514221191406 -961.4610595703125
v -110.27794647216797 322.9060974121094 -957.3956298828125
v -114.04791259765625 326.1072692871094 -960.9630737304688
v -114.77598571777344 324.7837219238281 -956.8504638671875
v -117.17802429199219 327.7488708496094 -961.411865234375
v -119.47698211669922 327.2557067871094 -957.5411987304688
v -119.57432556152344 329.4112243652344 -962.7586669921875
v -123.133056640625 329.7990417480469 -959.6131591796875
v -121.2472152709961 331.1341247558594 -965.0892944335938
v -134.4694061279297 348.8242492675781 -993.5811767578125
v -140.0641326904297 336.8296203613281 -957.47021484375
v -135.44215393066406 334.6737365722656 -957.47021484375
v -129.84742736816406 346.6684265136719 -993.5811767578125
v -148.16612243652344 340.6086730957031 -957.47021484375
v -142.57139587402344 352.6033020019531 -993.5812377929688
v -146.97581481933594 354.6576843261719 -993.5812377929688
v -151.37318420410156 345.2301940917969 -965.19873046875
v -175.68028259277344 353.4422912597656 -957.4702758789062
v -171.2758331298828 351.3879089355469 -957.4702758789062
v -166.8783721923828 360.8157043457031 -985.853515625
v -170.08555603027344 365.4369201660156 -993.5812377929688
v -165.37013244628906 363.2374572753906 -993.5812377929688
v -152.88153076171875 342.8081359863281 -957.47021484375
v -204.29832458496094 374.6966247558594 -977.0186157226562
v -204.96165466308594 373.2745056152344 -972.737060546875
v -185.7670135498047 364.3214416503906 -972.737060546875
v -207.96865844726562 370.2342834472656 -961.7518310546875
v -208.6320037841797 368.8121643066406 -957.4702758789062
v -183.51040649414062 357.0945129394531 -957.4702758789062
v -187.468994140625 360.6725158691406 -961.7518310546875
v -177.91567993164062 369.0891418457031 -993.5812377929688
v -203.85293579101562 381.1872253417969 -993.5812377929688
v -204.51626586914062 379.7651062011719 -989.2997436523438
v -183.20094299316406 369.8228454589844 -989.2997436523438
v -185.10366821289062 365.7435607910156 -977.0186157226562
v -90.89962005615234 -364.1134338378906 1143.2613525390625
v -110.2732925415039 -354.7879943847656 1176.9326171875
v 89.05387115478516 -450.7332763671875 1176.9326171875
v -90.06529235839844 -364.5149841308594 989.2260131835938
v -109.07966613769531 -355.36248779296875 990.7943115234375
v -90.15086364746094 -364.4737854003906 1022.701416015625
v -64.41561889648438 -376.8613586425781 1000.5100708007812
v -56.78852462768555 -380.5326232910156 1022.1602172851562
v -80.99278259277344 -368.88201904296875 1061.0166015625
v -27.85337257385254 -394.4604187011719 1021.5948486328125
v -5.671672344207764 -405.1374816894531 1028.43359375
v 6.551133632659912 -411.0209045410156 1064.539794921875
v -79.79078674316406 -369.4606018066406 1103.4766845703125
v 33.89363479614258 -424.18212890625 1064.539794921875
v 50.87681579589844 -432.35687255859375 1081.4794921875
v 54.66682434082031 -434.1811828613281 1107.9423828125
v 77.34607696533203 -445.0977783203125 1118.9072265625
v 91.7956314086914 -452.05303955078125 1146.0556640625
v -187.2772674560547 -317.73272705078125 625.5213012695312
v -188.46755981445312 -317.1506042480469 641.2042236328125
v -150.4114227294922 -335.46484375 634.9310913085938
v -115.9526596069336 -352.06549072265625 654.5346069335938
v -119.50364685058594 -350.34521484375 645.1248168945312
v -151.6249237060547 -334.88604736328125 625.5213012695312
v -192.041748046875 -315.43365478515625 736.1433715820312
v -191.4350128173828 -315.7230529785156 590.2344360351562
v -210.453125 -306.5789794921875 590.2344360351562
v -211.64341735839844 -305.99688720703125 736.0859375
v -214.02732849121094 -304.862060546875 803.912353515625
v -215.2176513671875 -304.2798767089844 1018.3792114257812
v -190.85150146484375 -316.0157470703125 1019.947509765625
v -192.041748046875 -315.43365478515625 801.954345703125
v -165.3313751220703 -328.28875732421875 768.02587890625
v -196.76126098632812 -313.182373046875 791.238037109375
v -172.39700317382812 -324.89324951171875 809.0115356445312
v -187.2541046142578 -317.7294006347656 878.8008422851562
v -186.6705322265625 -318.0220947265625 910.9507446289062
v -153.37889099121094 -334.03729248046875 901.5409545898438
v -155.7627716064453 -332.9024963378906 866.2545166015625
v -146.8372344970703 -337.18182373046875 849.7872314453125
v -121.8875503540039 -349.2103576660156 883.5057983398438
v -109.99459838867188 -354.9172668457031 850.5715942382812
v -151.0181884765625 -335.17547607421875 831.7520141601562
v -117.72651672363281 -351.190673828125 810.579833984375
v -140.90237426757812 -340.03692626953125 783.134765625
v -235.51226806640625 -294.5081481933594 928.0142822265625
v -219.1167449951172 -302.4068603515625 921.9150390625
v -258.2119445800781 -283.5777893066406 905.885009765625
v -185.50018310546875 -318.5781555175781 1120.97216796875
v -182.96705627441406 -319.807373046875 1133.7252197265625
v -168.25918579101562 -326.8768005371094 1135.943115234375
v -164.9005126953125 -328.4798889160156 1099.34765625
v -140.53436279296875 -340.2157287597656 1099.34765625
v -134.66578674316406 -343.0513916015625 1106.0015869140625
v -148.52821350097656 -336.3819274902344 1142.04248046875
v -139.6922149658203 -340.64508056640625 1143.151611328125
v -115.32275390625 -352.3515625 1128.735107421875
v -120.78349304199219 -349.7469482421875 1102.6744384765625
v -114.48059844970703 -352.7809143066406 1091.030517578125
v -96.82516479492188 -361.2518005371094 1116.53662109375
v -84.63047790527344 -367.1180725097656 1098.239013671875
v -114.48058319091797 -352.7809143066406 1078.2774658203125
v -83.377197265625 -367.7490234375 1072.17822265625
v -95.98300170898438 -361.6811218261719 1049.9991455078125
v -121.19463348388672 -349.5453186035156 1069.960693359375
v -124.98432922363281 -347.7145080566406 1035.582763671875
v -189.2699737548828 -316.7734069824219 1027.8201904296875
v -219.55108642578125 -302.2085266113281 1054.9896240234375
v -219.11676025390625 -302.4068603515625 1021.7208862304688
v -253.59869384765625 -285.8095397949219 1042.236572265625
v -250.2201385498047 -287.4387512207031 1000.6510620117188
v -281.7346496582031 -272.2689514160156 1017.2853393554688
v -259.0561218261719 -283.1755676269531 981.7986450195312
v -289.7251892089844 -268.4057312011719 976.8081665039062
v -256.9341735839844 -284.2031555175781 952.4112548828125
v -281.32354736328125 -272.4705810546875 934.6680908203125
v -493.7071228027344 -170.18304443359375 1176.9327392578125
v -294.3800048828125 -266.1283264160156 1176.9326171875
v -313.7536926269531 -256.8028564453125 1143.261474609375
v -324.8625183105469 -251.45565795898438 1103.476806640625
v -314.50238037109375 -256.44244384765625 1022.7013549804688
v -295.5736083984375 -265.5537414550781 990.7942504882812
v -314.5879821777344 -256.4012451171875 989.2259521484375
v -340.2376403808594 -244.05491638183594 1000.510009765625
v -347.8647155761719 -240.38365173339844 1022.16015625
v -323.66046142578125 -252.03427124023438 1061.0166015625
v -376.79986572265625 -226.4558563232422 1021.5949096679688
v -398.9815673828125 -215.77879333496094 1028.43359375
v -411.20440673828125 -209.89537048339844 1064.539794921875
v -438.54693603515625 -196.7341766357422 1064.539794921875
v -455.53009033203125 -188.5594024658203 1081.4794921875
v -459.3200988769531 -186.73512268066406 1107.9423828125
v -481.99932861328125 -175.8185577392578 1118.907470703125
v -496.4489440917969 -168.86328125 1146.055908203125
v -168.90687561035156 -326.5777587890625 643.2613525390625
v -186.1234893798828 -318.2916564941406 659.3220825195312
v -175.37632751464844 -323.48065185546875 665.5125732421875
v -249.66836547851562 -287.72039794921875 901.541015625
v -220.2322998046875 -301.8797302246094 910.9507446289062
v -219.64877319335938 -302.1723937988281 878.8008422851562
v -247.28448486328125 -288.855224609375 866.2545166015625
v -281.1596984863281 -272.5472717285156 883.5057373046875
v -256.2099914550781 -284.5758972167969 849.7872314453125
v -293.0526428222656 -266.8404541015625 850.571533203125
v -285.32073974609375 -270.5670471191406 810.5797729492188
v -252.02906799316406 -286.582275390625 831.7520141601562
v -262.1448669433594 -281.72076416015625 783.134765625
v -230.65025329589844 -296.8644714355469 809.0115356445312
v -230.65025329589844 -296.86444091796875 763.5309448242188
v -180.1175994873047 -321.1783142089844 773.7250366210938
v -167.64442443847656 -327.207275390625 726.6761474609375
v -146.24241638183594 -337.4862060546875 738.4381713867188
v -162.8998260498047 -329.4802551269531 697.6624755859375
v -137.34339904785156 -341.7982482910156 702.3673095703125
v -145.05210876464844 -338.06829833984375 674.138427734375
v -274.1394958496094 -275.98974609375 1069.3369140625
v -236.7607421875 -293.9877014160156 1055.865234375
v -273.1089782714844 -276.4962158203125 1039.171630859375
v -304.4605407714844 -261.3983459472656 1049.999267578125
v -236.3843536376953 -294.1810607910156 1136.5369873046875
v -221.67645263671875 -301.25048828125 1134.319091796875
v -219.14337158203125 -302.4797058105469 1121.56591796875
v -239.7429962158203 -292.5779724121094 1099.9415283203125
v -264.10919189453125 -280.84210205078125 1099.9415283203125
v -269.97772216796875 -278.0064697265625 1106.5953369140625
v -256.1153259277344 -284.6759338378906 1142.63623046875
v -264.9512939453125 -280.4127502441406 1143.745361328125
v -285.1207580566406 -270.7279357910156 1128.735107421875
v -279.6600036621094 -273.3325500488281 1102.6744384765625
v -285.962890625 -270.298583984375 1091.030517578125
v -303.6183776855469 -261.8277282714844 1116.5367431640625
v -315.8130187988281 -255.96144104003906 1098.2388916015625
v -317.0663146972656 -255.33045959472656 1072.17822265625
v -145.6114044189453 -337.8747863769531 907.54833984375
v -181.3267822265625 -320.6725769042969 921.9150390625
v -163.7663116455078 -329.1320495605469 930.8043212890625
v -143.5093536376953 -338.8763122558594 952.4112548828125
v -150.22337341308594 -335.6407165527344 1000.6510009765625
v -179.5876007080078 -321.5043640136719 1017.4705810546875
v -143.6873016357422 -338.789794921875 1028.174072265625
v -141.3873748779297 -339.9039001464844 981.7986450195312
v -118.70884704589844 -350.8105163574219 1017.285400390625
v -110.71831512451172 -354.6737365722656 976.808349609375
v -119.11997985839844 -350.6088562011719 934.6681518554688
v -254.66636657714844 -285.28118896484375 634.3238525390625
v -216.61021423339844 -303.5954284667969 640.5969848632812
v -217.80050659179688 -303.0133056640625 624.9140014648438
v -253.45286560058594 -285.8599548339844 624.9140014648438
v -285.5741882324219 -270.40081787109375 644.517578125
v -289.1251525878906 -268.6805419921875 653.9273681640625
v -190.71888732910156 -316.0546569824219 1064.188232421875
v -215.5193634033203 -304.1205139160156 1060.861083984375
v -216.36483764648438 -303.7205505371094 1137.933837890625
v -239.47769165039062 -292.61566162109375 1147.914306640625
v -259.63970947265625 -282.8828430175781 1175.518798828125
v -148.20736694335938 -336.542236328125 1175.637939453125
v -165.08421325683594 -328.39404296875 1146.80517578125
v -189.876708984375 -316.4840393066406 1139.04248046875
v -227.6708984375 -298.2770080566406 665.5126342773438
v -216.38800048828125 -303.723876953125 657.671142578125
v -236.59640502929688 -293.9976806640625 645.9091186523438
v -257.9951477050781 -283.6893615722656 674.138427734375
v -236.20504760742188 -294.1968078613281 760.1873168945312
v -210.7753143310547 -306.4220886230469 743.4205322265625
v -235.40281677246094 -294.5504150390625 726.6761474609375
v -256.8048400878906 -284.271484375 738.438232421875
v -240.1474151611328 -292.27740478515625 697.6624755859375
v -265.703857421875 -279.95941162109375 702.3673706054688
f 790 789 791
f 792 791 789
f 161 160 162
f 159 158 160
f 160 158 169
f 162 160 169
f 168 162 169
f 165 168 169
f 167 933 934
f 166 935 165
f 163 166 165
f 164 163 165
f 149 148 150
f 150 148 157
f 156 150 157
f 155 150 156
f 151 150 155
f 153 151 155
f 152 151 153
f 154 153 155
f 16 15 17
f 17 15 18
f 10 9 11
f 11 9 14
f 14 9 15
f 15 9 20
f 18 15 20
f 19 18 20
f 12 11 13
f 13 11 14
f 116 144 147
f 117 144 116
f 146 144 117
f 145 144 146
f 138 144 145
f 143 144 138
f 142 143 138
f 141 142 138
f 140 141 138
f 139 140 138
f 115 139 138
f 136 137 138
f 137 114 138
f 114 115 138
f 112 115 114
f 113 112 114
f 111 112 113
f 110 112 111
f 109 110 111
f 108 110 109
f 107 108 109
f 105 108 107
f 106 105 107
f 5 4 6
f 4 3 6
f 2 1 3
f 3 1 8
f 6 3 8
f 7 6 8
f 811 810 812
f 812 810 839
f 840 812 839
f 838 840 839
f 837 838 839
f 836 838 837
f 835 836 837
f 834 836 835
f 833 834 835
f 832 834 833
f 831 832 833
f 829 832 831
f 830 829 831
f 828 829 830
f 826 829 828
f 827 826 828
f 825 826 827
f 823 826 825
f 824 823 825
f 821 823 824
f 822 823 821
f 818 822 821
f 820 818 821
f 819 818 820
f 815 818 819
f 817 818 815
f 816 817 815
f 813 816 815
f 814 813 815
f 798 797 799
f 799 797 809
f 807 799 809
f 808 807 809
f 806 807 808
f 804 807 806
f 805 804 806
f 802 804 805
f 803 804 802
f 800 803 802
f 801 800 802
f 794 793 795
f 796 795 793
f 186 185 187
f 187 185 188
f 188 185 199
f 198 188 199
f 197 188 198
f 195 197 198
f 196 197 195
f 189 196 195
f 194 189 195
f 193 189 194
f 192 189 193
f 191 189 192
f 190 189 191
f 102 93 103
f 91 90 92
f 92 90 104
f 101 92 104
f 103 101 104
f 94 101 103
f 93 94 103
f 94 93 95
f 95 93 96
f 96 93 97
f 93 98 97
f 98 92 97
f 97 92 99
f 99 92 100
f 100 92 101
f 37 58 59
f 86 35 59
f 35 33 59
f 59 33 89
f 88 59 89
f 87 59 88
f 36 59 87
f 37 59 36
f 37 36 38
f 38 36 39
f 39 36 40
f 34 33 35
f 40 36 41
f 36 42 41
f 41 42 43
f 42 44 43
f 43 44 45
f 44 46 45
f 46 47 45
f 47 48 45
f 48 49 45
f 45 49 50
f 50 49 51
f 51 49 52
f 52 49 53
f 53 49 54
f 49 55 54
f 55 56 54
f 54 56 57
f 58 60 59
f 60 61 59
f 59 61 62
f 61 63 62
f 62 63 64
f 63 57 64
f 64 57 65
f 57 56 65
f 65 56 66
f 66 56 67
f 56 68 67
f 67 68 69
f 68 70 69
f 69 70 71
f 70 72 71
f 71 72 73
f 72 74 73
f 73 74 75
f 74 76 75
f 75 76 77
f 76 78 77
f 77 78 79
f 78 80 79
f 80 81 79
f 79 81 82
f 81 83 82
f 82 83 84
f 83 85 84
f 84 85 86
f 85 35 86
f 171 170 172
f 172 170 184
f 182 173 183
f 173 174 183
f 174 173 175
f 175 173 176
f 176 173 177
f 173 178 177
f 178 172 177
f 177 172 179
f 179 172 180
f 180 172 181
f 181 172 184
f 183 181 184
f 174 181 183
f 22 21 23
f 23 21 32
f 25 24 26
f 24 27 26
f 26 27 28
f 27 23 28
f 28 23 32
f 31 28 32
f 29 28 31
f 30 29 31
f 924 923 925
f 925 923 926
f 926 923 931
f 932 926 931
f 930 932 931
f 929 930 931
f 927 930 929
f 928 927 929
f 916 915 917
f 917 915 922
f 921 917 922
f 920 917 921
f 918 917 920
f 919 918 920
f 910 909 911
f 911 909 912
f 912 909 913
f 913 909 914
f 784 783 785
f 785 783 788
f 787 785 788
f 786 785 787
f 774 775 773
f 772 774 773
f 770 772 773
f 771 772 770
f 768 771 770
f 769 768 770
f 766 765 767
f 767 765 777
f 782 767 777
f 781 782 777
f 780 781 777
f 779 780 777
f 778 779 777
f 776 778 777
f 773 776 777
f 775 776 773
f 362 361 363
f 361 364 363
f 363 364 365
f 364 360 365
f 359 358 360
f 360 358 369
f 365 360 369
f 368 365 369
f 366 365 368
f 367 366 368
f 298 297 299
f 297 300 299
f 299 300 301
f 300 296 301
f 295 294 296
f 296 294 305
f 301 296 305
f 304 301 305
f 302 301 304
f 303 302 304
f 289 288 290
f 290 288 293
f 292 290 293
f 291 290 292
f 890 891 889
f 884 890 889
f 888 884 889
f 887 884 888
f 886 884 887
f 885 884 886
f 881 880 882
f 882 880 883
f 883 880 894
f 897 883 894
f 896 897 894
f 895 896 894
f 892 895 894
f 893 892 894
f 889 892 893
f 891 892 889
f 870 871 872
f 869 871 870
f 867 869 870
f 868 869 867
f 866 868 867
f 865 866 867
f 862 866 865
f 864 862 865
f 863 862 864
f 860 859 861
f 861 859 879
f 877 861 879
f 878 877 879
f 876 877 878
f 875 877 876
f 874 875 876
f 873 875 874
f 872 873 874
f 871 873 872
f 283 282 284
f 284 282 287
f 286 284 287
f 285 284 286
f 846 845 847
f 847 845 848
f 848 845 849
f 845 850 849
f 849 850 851
f 851 850 852
f 852 850 853
f 850 844 853
f 853 844 854
f 854 844 855
f 855 844 856
f 856 844 857
f 857 844 858
f 844 841 858
f 843 841 844
f 842 841 843
f 899 898 900
f 900 898 901
f 901 898 908
f 907 901 908
f 905 901 907
f 906 905 907
f 904 905 906
f 902 905 904
f 903 902 904
f 233 234 235
f 234 236 235
f 235 236 237
f 236 238 237
f 237 238 239
f 238 240 239
f 239 240 241
f 240 202 241
f 202 200 241
f 201 200 202
f 223 224 225
f 224 226 225
f 225 226 227
f 226 228 227
f 227 228 229
f 228 230 229
f 229 230 231
f 230 232 231
f 231 232 233
f 232 234 233
f 214 213 215
f 213 216 215
f 215 216 217
f 216 218 217
f 217 218 219
f 218 220 219
f 219 220 221
f 220 222 221
f 221 222 223
f 222 224 223
f 135 137 136
f 134 135 136
f 133 135 134
f 132 133 134
f 131 133 132
f 130 131 132
f 129 131 130
f 127 129 130
f 128 129 127
f 126 128 127
f 125 126 127
f 124 126 125
f 122 124 125
f 123 124 122
f 120 123 122
f 121 120 122
f 118 120 121
f 119 120 118
f 116 119 118
f 117 116 118
f 350 351 352
f 351 353 352
f 353 354 352
f 352 354 355
f 354 356 355
f 355 356 357
f 356 309 357
f 309 306 357
f 308 306 309
f 307 306 308
f 252 253 254
f 251 253 252
f 250 251 252
f 249 251 250
f 248 249 250
f 247 249 248
f 246 247 248
f 245 247 246
f 244 245 246
f 242 245 244
f 243 242 244
f 244 261 243
f 243 261 262
f 261 263 262
f 262 263 264
f 263 265 264
f 264 265 266
f 265 267 266
f 266 267 268
f 267 269 268
f 269 270 268
f 268 270 271
f 270 272 271
f 271 272 273
f 272 274 273
f 274 275 273
f 273 275 276
f 275 277 276
f 276 277 278
f 277 279 278
f 279 280 278
f 278 280 281
f 280 260 281
f 260 258 281
f 259 258 260
f 257 258 259
f 256 258 257
f 255 256 257
f 253 256 255
f 254 253 255
f 340 341 342
f 341 343 342
f 342 343 344
f 343 345 344
f 344 345 346
f 345 347 346
f 346 347 348
f 347 349 348
f 348 349 350
f 349 351 350
f 329 331 332
f 331 333 332
f 332 333 334
f 333 335 334
f 334 335 336
f 335 337 336
f 336 337 338
f 337 339 338
f 338 339 340
f 339 341 340
f 320 321 322
f 321 323 322
f 322 323 324
f 323 325 324
f 325 326 324
f 324 326 327
f 326 328 327
f 327 328 329
f 328 330 329
f 330 331 329
f 311 310 312
f 310 313 312
f 312 313 314
f 313 315 314
f 314 315 316
f 315 317 316
f 316 317 318
f 317 319 318
f 318 319 320
f 319 321 320
f 204 203 205
f 205 203 206
f 203 207 206
f 206 207 208
f 207 209 208
f 208 209 210
f 209 211 210
f 210 211 212
f 211 213 212
f 212 213 214
f 694 693 695
f 696 695 693
f 656 667 668
f 657 667 656
f 656 655 657
f 655 658 657
f 658 659 657
f 659 660 657
f 660 661 657
f 661 662 657
f 657 662 663
f 663 662 664
f 664 662 665
f 665 662 666
f 666 662 692
f 691 666 692
f 690 691 692
f 689 691 690
f 688 689 690
f 687 689 688
f 686 687 688
f 685 687 686
f 684 685 686
f 683 685 684
f 682 683 684
f 680 683 682
f 681 680 682
f 679 680 681
f 678 680 679
f 677 678 679
f 676 678 677
f 675 676 677
f 673 676 675
f 674 673 675
f 672 673 674
f 671 673 672
f 670 671 672
f 669 671 670
f 668 669 670
f 667 669 668
f 757 756 758
f 756 759 758
f 758 759 760
f 759 755 760
f 754 753 755
f 755 753 764
f 760 755 764
f 763 760 764
f 761 760 763
f 762 761 763
f 744 743 745
f 745 743 746
f 746 743 752
f 749 746 752
f 751 746 749
f 750 751 749
f 747 750 749
f 748 747 749
f 740 739 741
f 742 741 739
f 483 482 488
f 488 482 489
f 481 480 482
f 482 480 491
f 489 482 491
f 490 489 491
f 484 483 485
f 485 483 488
f 487 485 488
f 486 485 487
f 701 700 702
f 702 700 703
f 700 704 703
f 703 704 705
f 704 706 705
f 705 706 707
f 706 708 707
f 707 708 709
f 708 710 709
f 709 710 711
f 711 710 712
f 710 713 712
f 712 713 714
f 713 715 714
f 714 715 716
f 715 717 716
f 716 717 718
f 717 719 718
f 718 719 720
f 719 721 720
f 720 721 722
f 721 723 722
f 722 723 724
f 723 725 724
f 724 725 726
f 725 727 726
f 726 727 728
f 727 729 728
f 728 729 730
f 729 731 730
f 730 731 732
f 731 733 732
f 732 733 734
f 733 735 734
f 734 735 736
f 735 737 736
f 736 737 738
f 737 699 738
f 699 697 738
f 698 697 699
f 591 592 593
f 589 592 591
f 590 589 591
f 588 589 590
f 587 589 588
f 586 587 588
f 585 587 586
f 584 585 586
f 583 585 584
f 582 583 584
f 581 583 582
f 580 581 582
f 578 581 580
f 579 578 580
f 580 597 579
f 579 597 598
f 597 599 598
f 598 599 600
f 599 601 600
f 600 601 602
f 601 603 602
f 602 603 604
f 603 605 604
f 605 606 604
f 604 606 607
f 606 608 607
f 607 608 609
f 608 610 609
f 610 611 609
f 609 611 612
f 611 613 612
f 612 613 614
f 613 615 614
f 615 616 614
f 614 616 617
f 616 596 617
f 596 594 617
f 595 594 596
f 593 594 595
f 592 594 593
f 647 646 648
f 646 649 648
f 648 649 650
f 649 645 650
f 644 643 645
f 645 643 654
f 650 645 654
f 653 650 654
f 651 650 653
f 652 651 653
f 629 628 630
f 630 628 631
f 631 628 642
f 641 631 642
f 640 631 641
f 638 640 641
f 639 640 638
f 632 639 638
f 637 632 638
f 636 632 637
f 635 632 636
f 634 632 635
f 633 632 634
f 542 543 544
f 541 543 542
f 540 541 542
f 539 541 540
f 538 539 540
f 537 539 538
f 536 537 538
f 535 537 536
f 534 535 536
f 532 535 534
f 533 532 534
f 534 551 533
f 533 551 552
f 551 553 552
f 552 553 554
f 553 555 554
f 554 555 556
f 555 557 556
f 556 557 558
f 557 559 558
f 559 560 558
f 558 560 561
f 560 562 561
f 561 562 563
f 562 564 563
f 564 565 563
f 563 565 566
f 565 567 566
f 566 567 568
f 567 569 568
f 569 570 568
f 568 570 571
f 570 550 571
f 550 548 571
f 549 548 550
f 547 548 549
f 546 548 547
f 545 546 547
f 543 546 545
f 544 543 545
f 622 621 623
f 621 624 623
f 624 620 623
f 619 618 620
f 620 618 627
f 623 620 627
f 626 623 627
f 625 623 626
f 573 572 574
f 574 572 577
f 575 574 577
f 576 575 577
f 515 517 516
f 514 515 516
f 513 515 514
f 512 513 514
f 511 513 512
f 493 511 512
f 494 511 493
f 493 492 494
f 492 495 494
f 494 495 496
f 495 497 496
f 496 497 498
f 497 499 498
f 498 499 500
f 499 501 500
f 500 501 502
f 501 503 502
f 502 503 504
f 504 503 505
f 503 506 505
f 505 506 507
f 506 508 507
f 507 508 509
f 509 508 510
f 510 508 531
f 530 510 531
f 528 530 531
f 529 530 528
f 527 529 528
f 526 527 528
f 525 527 526
f 523 525 526
f 524 525 523
f 522 524 523
f 521 522 523
f 520 522 521
f 518 520 521
f 519 520 518
f 517 519 518
f 516 517 518
f 460 462 461
f 459 460 461
f 458 460 459
f 457 458 459
f 456 458 457
f 455 456 457
f 454 456 455
f 453 454 455
f 451 454 453
f 452 451 453
f 450 451 452
f 449 451 450
f 448 449 450
f 447 449 448
f 446 447 448
f 445 447 446
f 444 445 446
f 441 445 444
f 443 441 444
f 442 441 443
f 470 472 471
f 469 470 471
f 468 470 469
f 467 468 469
f 466 468 467
f 465 466 467
f 464 466 465
f 463 464 465
f 462 464 463
f 461 462 463
f 439 438 440
f 440 438 479
f 478 440 479
f 477 478 479
f 476 478 477
f 475 476 477
f 474 476 475
f 473 474 475
f 472 474 473
f 471 472 473
f 379 378 380
f 377 378 379
f 376 378 377
f 375 376 377
f 373 376 375
f 374 373 375
f 389 388 390
f 387 388 389
f 386 388 387
f 385 386 387
f 383 386 385
f 384 383 385
f 382 383 384
f 381 383 382
f 380 381 382
f 378 381 380
f 399 398 400
f 397 398 399
f 396 398 397
f 395 396 397
f 393 396 395
f 394 393 395
f 392 393 394
f 391 393 392
f 390 391 392
f 388 391 390
f 408 410 409
f 407 408 409
f 406 408 407
f 405 406 407
f 403 406 405
f 404 403 405
f 402 403 404
f 401 403 402
f 400 401 402
f 398 401 400
f 417 419 420
f 418 419 417
f 416 418 417
f 415 416 417
f 414 416 415
f 413 414 415
f 412 414 413
f 411 412 413
f 410 412 411
f 409 410 411
f 428 430 429
f 427 428 429
f 425 428 427
f 426 425 427
f 424 425 426
f 423 425 424
f 422 423 424
f 421 423 422
f 420 421 422
f 419 421 420
f 371 370 372
f 372 370 437
f 436 372 437
f 435 436 437
f 434 436 435
f 433 434 435
f 432 434 433
f 431 432 433
f 430 432 431
f 429 430 431
