# from WD_Block13_BBSigns01_LOD_0.pskx
v -174.80502319335938 -117.3465347290039 -210.42294311523438
v 426.9033508300781 257.8828125 -210.4229278564453
v 426.9032897949219 257.8828430175781 210.4229736328125
v -174.8050537109375 -117.34651947021484 210.42294311523438
v -184.8297882080078 -115.3343734741211 -217.86253356933594
v 429.501708984375 267.7718505859375 -217.8625030517578
v 436.9281311035156 255.87063598632812 -217.86248779296875
v -177.4033966064453 -127.23558807373047 -217.86253356933594
v 429.501708984375 267.7718505859375 -217.8625030517578
v 429.5016784667969 267.7718811035156 217.86251831054688
v 436.9280700683594 255.87066650390625 217.86253356933594
v 436.9281311035156 255.87063598632812 -217.86248779296875
v 429.5016784667969 267.7718811035156 217.86251831054688
v -184.82984924316406 -115.3343505859375 217.86251831054688
v -177.4034423828125 -127.2355728149414 217.86251831054688
v 436.9280700683594 255.87066650390625 217.86253356933594
v -184.82984924316406 -115.3343505859375 217.86251831054688
v -184.8297882080078 -115.3343734741211 -217.86253356933594
v -177.4033966064453 -127.23558807373047 -217.86253356933594
v -177.4034423828125 -127.2355728149414 217.86251831054688
v 429.5016784667969 267.7718811035156 217.86251831054688
v 429.501708984375 267.7718505859375 -217.8625030517578
v -184.8297882080078 -115.3343734741211 -217.86253356933594
v -184.82984924316406 -115.3343505859375 217.86251831054688
v 430.61651611328125 251.93218994140625 -210.4229278564453
v -171.09182739257812 -123.2971420288086 -210.4229278564453
v -177.4033966064453 -127.23558807373047 -217.86253356933594
v 436.9281311035156 255.87063598632812 -217.86248779296875
v -171.0918731689453 -123.29712677001953 210.42295837402344
v -177.4034423828125 -127.2355728149414 217.86251831054688
v 430.61651611328125 251.93222045898438 210.4229736328125
v 436.9280700683594 255.87066650390625 217.86253356933594
v -171.09182739257812 -123.2971420288086 -210.4229278564453
v 430.61651611328125 251.93218994140625 -210.4229278564453
v 426.9033508300781 257.8828125 -210.4229278564453
v -174.80502319335938 -117.3465347290039 -210.42294311523438
v 430.61651611328125 251.93218994140625 -210.4229278564453
v 430.61651611328125 251.93222045898438 210.4229736328125
v 426.9032897949219 257.8828430175781 210.4229736328125
v 426.9033508300781 257.8828125 -210.4229278564453
v 430.61651611328125 251.93222045898438 210.4229736328125
v -171.0918731689453 -123.29712677001953 210.42295837402344
v -174.8050537109375 -117.34651947021484 210.42294311523438
v 426.9032897949219 257.8828430175781 210.4229736328125
v -171.0918731689453 -123.29712677001953 210.42295837402344
v -171.09182739257812 -123.2971420288086 -210.4229278564453
v -174.80502319335938 -117.3465347290039 -210.42294311523438
v -174.8050537109375 -117.34651947021484 210.42294311523438
v 383.42584228515625 239.58074951171875 206.45477294921875
v 429.2563781738281 268.17913818359375 206.4547576904297
v 401.066650390625 313.3547058105469 206.4547576904297
v 355.2361755371094 284.7563171386719 206.4547576904297
v 383.42584228515625 239.58070373535156 -324.0069580078125
v 429.2564392089844 268.1791076660156 -324.0069580078125
v 429.2563781738281 268.17913818359375 206.4547576904297
v 383.42584228515625 239.58074951171875 206.45477294921875
v 429.2564392089844 268.1791076660156 -324.0069580078125
v 401.0666809082031 313.35467529296875 -324.0069580078125
v 401.066650390625 313.3547058105469 206.4547576904297
v 429.2563781738281 268.17913818359375 206.4547576904297
v 401.0666809082031 313.35467529296875 -324.0069580078125
v 355.2362060546875 284.75628662109375 -324.0069580078125
v 355.2361755371094 284.7563171386719 206.4547576904297
v 401.066650390625 313.3547058105469 206.4547576904297
v 355.2362060546875 284.75628662109375 -324.0069580078125
v 383.42584228515625 239.58070373535156 -324.0069580078125
v 383.42584228515625 239.58074951171875 206.45477294921875
v 355.2361755371094 284.7563171386719 206.4547576904297
v -173.2667999267578 -91.54511260986328 197.1644744873047
v 411.1546936035156 270.5730285644531 -199.6749725341797
v 412.85089111328125 260.22552490234375 -206.6190948486328
v -171.57057189941406 -101.89259338378906 190.22032165527344
v 419.10467529296875 264.13848876953125 -193.83865356445312
v -165.31680297851562 -97.97965240478516 203.0007781982422
v -173.2667999267578 -91.54511260986328 197.1644744873047
v -171.57057189941406 -101.89259338378906 190.22032165527344
v -165.31680297851562 -97.97965240478516 203.0007781982422
v 412.85089111328125 260.22552490234375 -206.6190948486328
v 411.1546936035156 270.5730285644531 -199.6749725341797
v 419.10467529296875 264.13848876953125 -193.83865356445312
v -172.5049285888672 -91.9726791381836 -196.51060485839844
v 411.0511779785156 271.3793029785156 200.4744873046875
v 419.57635498046875 265.2734680175781 193.53115844726562
v -163.97967529296875 -98.0784683227539 -203.45388793945312
v 413.29473876953125 261.4002990722656 206.31008911132812
v -170.26133728027344 -101.9516830444336 -190.67498779296875
v -172.5049285888672 -91.9726791381836 -196.51060485839844
v -163.97967529296875 -98.0784683227539 -203.45388793945312
v -170.26133728027344 -101.9516830444336 -190.67498779296875
v 419.57635498046875 265.2734680175781 193.53115844726562
v 411.0511779785156 271.3793029785156 200.4744873046875
v 413.29473876953125 261.4002990722656 206.31008911132812
v -378.3802490234375 255.47103881835938 -336.9685363769531
v -360.4557189941406 266.6545715332031 -336.9661865234375
v -161.4393310546875 -53.8010368347168 -33.798946380615234
v -179.36387634277344 -64.98453521728516 -33.80131149291992
v -360.4557189941406 266.6545715332031 -336.9661865234375
v -366.757568359375 276.7513427734375 -319.8771667480469
v -167.7411651611328 -43.704261779785156 -16.709911346435547
v -161.4393310546875 -53.8010368347168 -33.798946380615234
v -366.757568359375 276.7513427734375 -319.8771667480469
v -384.68206787109375 265.5678405761719 -319.8794860839844
v -185.66571044921875 -54.887752532958984 -16.712276458740234
v -167.7411651611328 -43.704261779785156 -16.709911346435547
v -384.68206787109375 265.5678405761719 -319.8794860839844
v -378.3802490234375 255.47103881835938 -336.9685363769531
v -179.36387634277344 -64.98453521728516 -33.80131149291992
v -185.66571044921875 -54.887752532958984 -16.712276458740234
v 164.119384765625 594.5194091796875 -336.9784851074219
v 182.04397583007812 605.702880859375 -336.97607421875
v 381.0606994628906 285.2476806640625 -33.80866622924805
v 363.1361083984375 274.0642395019531 -33.811058044433594
v 182.04397583007812 605.702880859375 -336.97607421875
v 175.74209594726562 615.7998046875 -319.8869934082031
v 374.75885009765625 295.3444519042969 -16.719614028930664
v 381.0606994628906 285.2476806640625 -33.80866622924805
v 175.74209594726562 615.7998046875 -319.8869934082031
v 157.81756591796875 604.6162109375 -319.88946533203125
v 356.83428955078125 284.1609802246094 -16.72202491760254
v 374.75885009765625 295.3444519042969 -16.719614028930664
v 157.81756591796875 604.6162109375 -319.88946533203125
v 164.119384765625 594.5194091796875 -336.9784851074219
v 363.1361083984375 274.0642395019531 -33.811058044433594
v 356.83428955078125 284.1609802246094 -16.72202491760254
v -185.0741729736328 -114.91927337646484 206.4547576904297
v -139.24362182617188 -86.32087707519531 206.4547576904297
v -167.43336486816406 -41.14531326293945 206.4547576904297
v -213.2638397216797 -69.74370574951172 206.45474243164062
v -185.07412719726562 -114.91931915283203 -324.0069885253906
v -139.24356079101562 -86.32093048095703 -324.0069885253906
v -139.24362182617188 -86.32087707519531 206.4547576904297
v -185.0741729736328 -114.91927337646484 206.4547576904297
v -139.24356079101562 -86.32093048095703 -324.0069885253906
v -167.43331909179688 -41.14535903930664 -324.0069885253906
v -167.43336486816406 -41.14531326293945 206.4547576904297
v -139.24362182617188 -86.32087707519531 206.4547576904297
v -167.43331909179688 -41.14535903930664 -324.0069885253906
v -213.26377868652344 -69.7437515258789 -324.0069885253906
v -213.2638397216797 -69.74370574951172 206.45474243164062
v -167.43336486816406 -41.14531326293945 206.4547576904297
v -213.26377868652344 -69.7437515258789 -324.0069885253906
v -185.07412719726562 -114.91931915283203 -324.0069885253906
v -185.0741729736328 -114.91927337646484 206.4547576904297
v -213.2638397216797 -69.74370574951172 206.45474243164062
f 2 1 3
f 4 3 1
f 42 41 43
f 6 5 7
f 8 7 5
f 101 100 102
f 103 102 100
f 83 82 84
f 85 84 82
f 48 47 49
f 50 49 47
f 94 93 95
f 96 95 93
f 90 89 91
f 92 91 89
f 76 75 77
f 78 77 75
f 72 71 73
f 74 73 71
f 38 37 39
f 40 39 37
f 34 33 35
f 36 35 33
f 22 21 23
f 24 23 21
f 18 17 19
f 20 19 17
f 14 13 15
f 16 15 13
f 10 9 11
f 12 11 9
f 29 26 30
f 30 32 159
f 31 159 32
f 32 28 160
f 25 160 28
f 28 27 161
f 162 161 27
f 163 30 26
f 105 104 106
f 45 44 46
f 98 97 99
f 80 79 81
f 87 86 88
f 52 51 53
f 54 53 51
f 56 55 57
f 58 57 55
f 60 59 61
f 62 61 59
f 64 63 65
f 66 65 63
f 68 67 69
f 70 69 67
f 108 107 109
f 110 109 107
f 112 111 113
f 114 113 111
f 116 115 117
f 118 117 115
f 120 119 121
f 122 121 119
f 124 123 125
f 126 125 123
f 128 127 129
f 130 129 127
f 132 131 133
f 134 133 131
f 136 135 137
f 138 137 135
f 140 139 141
f 142 141 139
f 144 143 145
f 146 145 143
f 148 147 149
f 150 149 147
f 152 151 153
f 154 153 151
f 156 155 157
f 158 157 155
