# from WD_Block08_Billboard03_LOD_0.pskx
v 383.5824279785156 45.81748962402344 129.28431701660156
v 383.5824279785156 45.817474365234375 -71.97278594970703
v -383.5714111328125 45.81755447387695 -71.97284698486328
v -383.5714111328125 45.81757354736328 129.2842559814453
v 396.0927429199219 46.18746566772461 -84.48310089111328
v 396.09271240234375 46.18748474121094 141.7946319580078
v 396.09271240234375 42.57304382324219 141.7946319580078
v 396.0927429199219 42.57302474975586 -84.48309326171875
v -396.08172607421875 46.18757247924805 141.79457092285156
v -396.0816955566406 46.18755340576172 -84.48316192626953
v -396.0816955566406 42.57311248779297 -84.483154296875
v -396.08172607421875 42.5731315612793 141.79457092285156
v 396.09271240234375 42.57304382324219 141.7946319580078
v -396.08172607421875 42.5731315612793 141.79457092285156
v -396.0816955566406 42.57311248779297 -84.483154296875
v 396.0927429199219 42.57302474975586 -84.48309326171875
v 383.5824279785156 45.81748962402344 129.28431701660156
v -383.5714111328125 45.81757354736328 129.2842559814453
v 383.5824279785156 45.817474365234375 -71.97278594970703
v -383.5714111328125 45.81755447387695 -71.97284698486328
v 255.97021484375 11.94402027130127 54.13374710083008
v 255.97021484375 -46.19100570678711 -141.79476928710938
v 260.2999572753906 -41.73990249633789 -141.79476928710938
v 260.2999572753906 16.395122528076172 49.402671813964844
v 255.97012329101562 42.57754898071289 54.13374328613281
v 251.64015197753906 37.46840286254883 49.40279006958008
v 251.64041137695312 16.395124435424805 49.402671813964844
v 251.64041137695312 -41.73990249633789 -141.79476928710938
v 260.2999572753906 37.84036636352539 49.40272903442383
v 255.9700927734375 42.57344436645508 -141.79476928710938
v 251.6401824951172 37.84242630004883 -141.79476928710938
v 251.64041137695312 37.84231948852539 49.40279006958008
v 260.2999572753906 37.84230422973633 -141.79476928710938
v -254.51417541503906 11.944080352783203 54.13370895385742
v -254.51414489746094 -46.19094467163086 -141.79483032226562
v -250.18441772460938 -41.73984146118164 -141.79483032226562
v -250.18441772460938 16.395183563232422 49.402626037597656
v -254.5142364501953 42.57761001586914 54.133705139160156
v -258.8442077636719 37.46846389770508 49.40274429321289
v -258.8439636230469 16.395183563232422 49.402626037597656
v -258.84393310546875 -41.73984146118164 -141.79483032226562
v -250.18441772460938 37.84042739868164 49.40268325805664
v -254.51426696777344 42.57350540161133 -141.79483032226562
v -258.8442077636719 37.84248733520508 -141.79483032226562
v -258.8439636230469 37.84238052368164 49.40274429321289
v -250.18441772460938 37.84236526489258 -141.79483032226562
v -4.467288494110107 11.944051742553711 54.133724212646484
v -4.467278480529785 -46.190975189208984 -141.7947998046875
v -0.13753530383110046 -41.739871978759766 -141.7947998046875
v -0.13754509389400482 16.395153045654297 49.40264892578125
v -4.467376232147217 42.577579498291016 54.13372039794922
v -8.797332763671875 37.46843338012695 49.402767181396484
v -8.797090530395508 16.39515495300293 49.40264892578125
v -8.797080993652344 -41.739871978759766 -141.7947998046875
v -0.13754253089427948 37.840396881103516 49.402706146240234
v -4.4673895835876465 42.5734748840332 -141.7947998046875
v -8.797316551208496 37.84245681762695 -141.7947998046875
v -8.797088623046875 37.842350006103516 49.402767181396484
v -0.13752581179141998 37.84233474731445 -141.7947998046875
v -254.51336669921875 16.332496643066406 49.402565002441406
v 255.96275329589844 16.332534790039062 49.402610778808594
v 255.9617919921875 -7.862696647644043 -30.512855529785156
v -254.51422119140625 -7.862734317779541 -30.512901306152344
v -254.51995849609375 -33.50984191894531 -114.7944564819336
v 255.9764404296875 -33.50980758666992 -114.7944107055664
v -254.51336669921875 16.332496643066406 49.402565002441406
v -254.51336669921875 37.856266021728516 49.40256118774414
v 255.96275329589844 37.84815216064453 49.40285110473633
v 255.96275329589844 16.332534790039062 49.402610778808594
v 255.96275329589844 16.332534790039062 49.402610778808594
v 255.96275329589844 37.84815216064453 49.40285110473633
v 255.9674072265625 37.84454345703125 -30.512920379638672
v 255.9617919921875 -7.862696647644043 -30.512855529785156
v 255.9664306640625 37.85004425048828 -114.7944107055664
v 255.9764404296875 -33.50980758666992 -114.7944107055664
v -254.51336669921875 16.332496643066406 49.402565002441406
v -254.51422119140625 -7.862734317779541 -30.512901306152344
v -254.50823974609375 37.844505310058594 -30.512964248657227
v -254.51336669921875 37.856266021728516 49.40256118774414
v -254.51995849609375 -33.50984191894531 -114.7944564819336
v -254.5093994140625 37.850006103515625 -114.7944564819336
f 2 1 3
f 4 3 1
f 18 17 19
f 20 19 17
f 57 56 51
f 56 55 50
f 50 51 56
f 137 136 52
f 53 52 136
f 136 54 53
f 58 53 54
f 138 50 55
f 32 31 26
f 33 28 29
f 25 29 28
f 140 139 30
f 31 30 139
f 139 26 31
f 141 25 27
f 28 27 25
f 60 59 61
f 62 61 59
f 142 63 143
f 64 143 63
f 8 7 5
f 6 5 7
f 145 144 23
f 21 23 144
f 144 9 21
f 22 21 9
f 9 10 22
f 24 22 10
f 10 145 24
f 23 24 145
f 147 146 15
f 16 15 146
f 149 148 13
f 14 13 148
f 12 11 150
f 151 150 11
f 97 96 98
f 99 98 96
f 76 75 77
f 78 77 75
f 83 78 79
f 75 79 78
f 153 152 80
f 81 80 152
f 152 154 81
f 82 81 154
f 35 34 36
f 37 36 34
f 155 38 156
f 39 156 38
f 72 71 73
f 74 73 71
f 47 46 48
f 49 48 46
f 95 94 91
f 90 91 94
f 158 157 92
f 93 92 157
f 85 84 86
f 87 86 84
f 159 88 160
f 89 160 88
f 45 44 41
f 40 41 44
f 162 161 42
f 43 42 161
f 70 69 66
f 65 66 69
f 164 163 67
f 68 67 163
f 113 112 114
f 109 108 110
f 111 110 108
f 105 104 106
f 107 106 104
f 103 102 100
f 101 100 102
f 116 115 117
f 134 133 135
f 119 118 120
f 131 130 132
f 122 121 123
f 128 127 129
f 125 124 126
