# from AsylumDistrict_CustomZone_Generic_0019_LOD_0.pskx
v -419.9812927246094 1149.2491455078125 0.0
v -419.9812927246094 1179.248046875 -2.6225873170915293e-06
v -419.9813232421875 1149.249267578125 800.0
v -419.9813232421875 1179.2481689453125 800.0
v -419.9812927246094 1179.248046875 -2.6225873170915293e-06
v -449.9801940917969 1179.248046875 -3.933881089324132e-06
v -419.9813232421875 1179.2481689453125 800.0
v -449.980224609375 1179.2481689453125 800.0
v -449.9801940917969 1179.248046875 -3.933881089324132e-06
v -449.9801940917969 1149.2491455078125 -1.3112936585457646e-06
v -449.980224609375 1179.2481689453125 800.0
v -449.980224609375 1149.249267578125 800.0
v -449.9801940917969 1149.2491455078125 -1.3112936585457646e-06
v -419.9812927246094 1149.2491455078125 0.0
v -449.980224609375 1149.249267578125 800.0
v -419.9813232421875 1149.249267578125 800.0
v -449.980224609375 1149.249267578125 800.0
v -419.9813232421875 1149.249267578125 800.0
v -419.9813232421875 1179.2481689453125 800.0
v -449.980224609375 1179.2481689453125 800.0
v -1290.022216796875 1149.264404296875 -3.8032034353818744e-05
v -1290.022216796875 1179.2633056640625 -4.0654620534041896e-05
v -1290.022216796875 1149.2645263671875 799.9999389648438
v -1290.022216796875 1179.263427734375 799.9999389648438
v -1290.022216796875 1179.2633056640625 -4.0654620534041896e-05
v -1320.0211181640625 1179.2633056640625 -4.196591180516407e-05
v -1290.022216796875 1179.263427734375 799.9999389648438
v -1320.0211181640625 1179.263427734375 799.9999389648438
v -1320.0211181640625 1179.2633056640625 -4.196591180516407e-05
v -1320.0211181640625 1149.264404296875 -3.934332562494092e-05
v -1320.0211181640625 1179.263427734375 799.9999389648438
v -1320.0211181640625 1149.2645263671875 799.9999389648438
v -1320.0211181640625 1149.264404296875 -3.934332562494092e-05
v -1290.022216796875 1149.264404296875 -3.8032034353818744e-05
v -1320.0211181640625 1149.2645263671875 799.9999389648438
v -1290.022216796875 1149.2645263671875 799.9999389648438
v -1320.0211181640625 1149.2645263671875 799.9999389648438
v -1290.022216796875 1149.2645263671875 799.9999389648438
v -1290.022216796875 1179.263427734375 799.9999389648438
v -1320.0211181640625 1179.263427734375 799.9999389648438
v -1298.307861328125 1174.2308349609375 784.9998779296875
v -1298.307861328125 1174.2308349609375 754.9998779296875
v -453.3594970703125 1174.260009765625 79.99981689453125
v -453.3594970703125 1174.2598876953125 49.99979782104492
v -453.3594970703125 1174.2598876953125 49.99979782104492
v -453.3594970703125 1179.2586669921875 49.99979782104492
v -453.3594970703125 1174.260009765625 79.99980163574219
v -453.3594970703125 1179.2586669921875 79.99980163574219
v -1298.307861328125 1179.229736328125 754.9998779296875
v -453.3594970703125 1179.2586669921875 79.99980163574219
v -453.3594970703125 1179.2586669921875 49.99979782104492
v -1298.307861328125 1179.229736328125 784.9998779296875
v -1298.307861328125 1179.229736328125 754.9998779296875
v -1298.307861328125 1174.2308349609375 754.9998779296875
v -1298.307861328125 1179.229736328125 784.9998779296875
v -1298.307861328125 1174.2308349609375 784.9998779296875
v -1298.307861328125 1174.2308349609375 754.9998779296875
v -1298.307861328125 1179.229736328125 754.9998779296875
v -453.3594970703125 1174.2598876953125 49.99979782104492
v -453.3594970703125 1179.2586669921875 49.99979782104492
v -1298.307861328125 1174.2308349609375 784.9998779296875
v -453.3594970703125 1174.260009765625 79.99980163574219
v -1298.307861328125 1179.229736328125 784.9998779296875
v -453.3594970703125 1179.2586669921875 79.99980163574219
v -453.3595275878906 1174.260009765625 754.9999389648438
v -1298.307861328125 1174.2491455078125 79.99976348876953
v -1298.307861328125 1174.2491455078125 49.999759674072266
v -453.3595275878906 1174.260009765625 784.9999389648438
v -453.3595275878906 1174.260009765625 754.9999389648438
v -453.3595275878906 1179.2586669921875 754.9999389648438
v -453.3595275878906 1174.260009765625 784.9999389648438
v -453.3595275878906 1179.2586669921875 784.9999389648438
v -453.3595275878906 1179.2586669921875 784.9999389648438
v -453.3595275878906 1179.2586669921875 754.9999389648438
v -1298.307861328125 1179.2479248046875 79.9997787475586
v -1298.307861328125 1179.2479248046875 49.999759674072266
v -1298.307861328125 1179.2479248046875 49.999759674072266
v -1298.307861328125 1174.2491455078125 49.999759674072266
v -1298.307861328125 1179.2479248046875 79.99976348876953
v -1298.307861328125 1174.2491455078125 79.99976348876953
v -1298.307861328125 1174.2491455078125 49.999759674072266
v -1298.307861328125 1179.2479248046875 49.999759674072266
v -453.3595275878906 1174.260009765625 754.9999389648438
v -453.3595275878906 1179.2586669921875 754.9999389648438
v -1298.307861328125 1174.2491455078125 79.99976348876953
v -453.3595275878906 1174.260009765625 784.9999389648438
v -1298.307861328125 1179.2479248046875 79.99976348876953
v -453.3595275878906 1179.2586669921875 784.9999389648438
v -893.3589477539062 1171.6048583984375 401.7781982421875
v -858.3583374023438 1171.6048583984375 401.7781982421875
v -893.3589477539062 1171.6048583984375 431.7781982421875
v -858.3583374023438 1171.6048583984375 431.7781982421875
v -858.3583374023438 1171.6048583984375 401.7781982421875
v -858.3583374023438 1174.2783203125 401.7781982421875
v -858.3583374023438 1171.6048583984375 431.7781982421875
v -858.3583374023438 1174.2783203125 431.7781982421875
v -858.3583374023438 1174.2783203125 401.7781982421875
v -893.3589477539062 1174.2781982421875 401.7781982421875
v -858.3583374023438 1174.2783203125 431.7781982421875
v -893.3589477539062 1174.2781982421875 431.7781982421875
v -893.3589477539062 1174.2781982421875 401.7781982421875
v -893.3589477539062 1171.6048583984375 401.7781982421875
v -893.3589477539062 1174.2781982421875 431.7781982421875
v -893.3589477539062 1171.6048583984375 431.7781982421875
v -893.3589477539062 1174.2781982421875 401.7781982421875
v -858.3583374023438 1171.6048583984375 401.7781982421875
v -893.3589477539062 1171.6048583984375 401.7781982421875
v -858.3583374023438 1174.2783203125 401.7781982421875
v -893.3589477539062 1174.2781982421875 431.7781982421875
v -893.3589477539062 1171.6048583984375 431.7781982421875
v -858.3583374023438 1171.6048583984375 431.7781982421875
v -858.3583374023438 1174.2783203125 431.7781982421875
v -423.3078308105469 1174.23095703125 784.9999389648438
v -423.3078308105469 1174.23095703125 754.9999389648438
v 421.6404724121094 1174.260009765625 79.9998550415039
v 421.6404724121094 1174.260009765625 49.99983596801758
v 421.6404724121094 1174.260009765625 49.99983596801758
v 421.6404724121094 1179.2586669921875 49.99983596801758
v 421.6404724121094 1174.260009765625 79.99983978271484
v 421.6404724121094 1179.2586669921875 79.99983978271484
v -423.3078308105469 1179.229736328125 754.9999389648438
v 421.6404724121094 1179.2586669921875 79.99983978271484
v 421.6404724121094 1179.2586669921875 49.99983596801758
v -423.3078308105469 1179.229736328125 784.9999389648438
v -423.3078308105469 1179.229736328125 754.9999389648438
v -423.3078308105469 1174.23095703125 754.9999389648438
v -423.3078308105469 1179.229736328125 784.9999389648438
v -423.3078308105469 1174.23095703125 784.9999389648438
v -423.3078308105469 1174.23095703125 754.9999389648438
v -423.3078308105469 1179.229736328125 754.9999389648438
v 421.6404724121094 1174.260009765625 49.99983596801758
v 421.6404724121094 1179.2586669921875 49.99983596801758
v -423.3078308105469 1174.23095703125 784.9999389648438
v 421.6404724121094 1174.260009765625 79.99983978271484
v -423.3078308105469 1179.229736328125 784.9999389648438
v 421.6404724121094 1179.2586669921875 79.99983978271484
v 421.6404113769531 1174.260009765625 755.0
v -423.30780029296875 1174.2491455078125 79.99980163574219
v -423.30780029296875 1174.2491455078125 49.99979782104492
v 421.6404113769531 1174.260009765625 785.0
v 421.6404113769531 1174.260009765625 755.0
v 421.6404113769531 1179.2587890625 755.0
v 421.6404113769531 1174.260009765625 785.0
v 421.6404113769531 1179.2587890625 785.0
v 421.6404113769531 1179.2587890625 785.0
v 421.6404113769531 1179.2587890625 755.0
v -423.30780029296875 1179.2479248046875 79.99981689453125
v -423.30780029296875 1179.2479248046875 49.99979782104492
v -423.30780029296875 1179.2479248046875 49.99979782104492
v -423.30780029296875 1174.2491455078125 49.99979782104492
v -423.30780029296875 1179.2479248046875 79.99980163574219
v -423.30780029296875 1174.2491455078125 79.99980163574219
v -423.30780029296875 1174.2491455078125 49.99979782104492
v -423.30780029296875 1179.2479248046875 49.99979782104492
v 421.6404113769531 1174.260009765625 755.0
v 421.6404113769531 1179.2587890625 755.0
v -423.30780029296875 1174.2491455078125 79.99980163574219
v 421.6404113769531 1174.260009765625 785.0
v -423.30780029296875 1179.2479248046875 79.99980163574219
v 421.6404113769531 1179.2587890625 785.0
v -18.35894775390625 1171.6048583984375 401.77825927734375
v 16.64166259765625 1171.6048583984375 401.77825927734375
v -18.35894775390625 1171.6048583984375 431.77825927734375
v 16.64166259765625 1171.6048583984375 431.77825927734375
v 16.64166259765625 1171.6048583984375 401.77825927734375
v 16.64166259765625 1174.2783203125 401.77825927734375
v 16.64166259765625 1171.6048583984375 431.77825927734375
v 16.64166259765625 1174.2783203125 431.77825927734375
v 16.64166259765625 1174.2783203125 401.77825927734375
v -18.35894775390625 1174.2781982421875 401.77825927734375
v 16.64166259765625 1174.2783203125 431.77825927734375
v -18.35894775390625 1174.2781982421875 431.77825927734375
v -18.35894775390625 1174.2781982421875 401.77825927734375
v -18.35894775390625 1171.6048583984375 401.77825927734375
v -18.35894775390625 1174.2781982421875 431.77825927734375
v -18.35894775390625 1171.6048583984375 431.77825927734375
v -18.35894775390625 1174.2781982421875 401.77825927734375
v 16.64166259765625 1171.6048583984375 401.77825927734375
v -18.35894775390625 1171.6048583984375 401.77825927734375
v 16.64166259765625 1174.2783203125 401.77825927734375
v -18.35894775390625 1174.2781982421875 431.77825927734375
v -18.35894775390625 1171.6048583984375 431.77825927734375
v 16.64166259765625 1171.6048583984375 431.77825927734375
v 16.64166259765625 1174.2783203125 431.77825927734375
v 450.0199279785156 1149.23388671875 3.803029903792776e-05
v 450.0199279785156 1179.23291015625 3.540770194376819e-05
v 450.0198669433594 1149.2340087890625 799.9999389648438
v 450.0198669433594 1179.23291015625 799.9999389648438
v 450.0199279785156 1179.23291015625 3.540770194376819e-05
v 420.0211486816406 1179.23291015625 3.409641431062482e-05
v 450.0198669433594 1179.23291015625 800.0000610351562
v 420.0210876464844 1179.23291015625 800.0000610351562
v 420.0211486816406 1179.23291015625 3.409641431062482e-05
v 420.0211486816406 1149.23388671875 3.6719011404784396e-05
v 420.0210876464844 1179.23291015625 799.9999389648438
v 420.0210876464844 1149.2340087890625 799.9999389648438
v 420.0211486816406 1149.23388671875 3.6719011404784396e-05
v 450.0199279785156 1149.23388671875 3.803029903792776e-05
v 420.0210876464844 1149.2340087890625 800.0000610351562
v 450.0198669433594 1149.2340087890625 800.0000610351562
v 446.6903991699219 1174.23095703125 785.0
v 446.6903991699219 1174.23095703125 755.0
v 1291.638671875 1174.260009765625 79.99989318847656
v 1291.638671875 1174.260009765625 49.999874114990234
v 1291.638671875 1174.260009765625 49.999874114990234
v 1291.638671875 1179.2586669921875 49.999874114990234
v 1291.638671875 1174.260009765625 79.9998779296875
v 1291.638671875 1179.2587890625 79.9998779296875
v 446.6903991699219 1179.229736328125 755.0
v 1291.638671875 1179.2587890625 79.9998779296875
v 1291.638671875 1179.2586669921875 49.999874114990234
v 446.6903991699219 1179.229736328125 785.0
v 446.6903991699219 1179.229736328125 755.0
v 446.6903991699219 1174.23095703125 755.0
v 446.6903991699219 1179.229736328125 785.0
v 446.6903991699219 1174.23095703125 785.0
v 446.6903991699219 1174.23095703125 755.0
v 446.6903991699219 1179.229736328125 755.0
v 1291.638671875 1174.260009765625 49.999874114990234
v 1291.638671875 1179.2586669921875 49.999874114990234
v 446.6903991699219 1174.23095703125 785.0
v 1291.638671875 1174.260009765625 79.9998779296875
v 446.6903991699219 1179.229736328125 785.0
v 1291.638671875 1179.2587890625 79.9998779296875
v 1291.638671875 1174.2601318359375 755.0
v 446.6904602050781 1174.2491455078125 79.99983978271484
v 446.6904602050781 1174.2491455078125 49.99983596801758
v 1291.638671875 1174.2601318359375 785.0
v 1291.638671875 1174.2601318359375 755.0
v 1291.638671875 1179.2587890625 755.0
v 1291.638671875 1174.2601318359375 785.0
v 1291.638671875 1179.2587890625 785.0
v 1291.638671875 1179.2587890625 785.0
v 1291.638671875 1179.2587890625 755.0
v 446.6904602050781 1179.248046875 79.9998550415039
v 446.6904602050781 1179.248046875 49.99983596801758
v 446.6904602050781 1179.248046875 49.99983596801758
v 446.6904602050781 1174.2491455078125 49.99983596801758
v 446.6904602050781 1179.248046875 79.99983978271484
v 446.6904602050781 1174.2491455078125 79.99983978271484
v 446.6904602050781 1174.2491455078125 49.99983596801758
v 446.6904602050781 1179.248046875 49.99983596801758
v 1291.638671875 1174.2601318359375 755.0
v 1291.638671875 1179.2587890625 755.0
v 446.6904602050781 1174.2491455078125 79.99983978271484
v 1291.638671875 1174.2601318359375 785.0
v 446.6904602050781 1179.248046875 79.99983978271484
v 1291.638671875 1179.2587890625 785.0
v 851.6392822265625 1171.60498046875 401.7782897949219
v 886.639892578125 1171.60498046875 401.7782897949219
v 851.6392822265625 1171.60498046875 431.7782897949219
v 886.639892578125 1171.60498046875 431.7782897949219
v 886.639892578125 1171.60498046875 401.7782897949219
v 886.639892578125 1174.2783203125 401.7782897949219
v 886.639892578125 1171.60498046875 431.7782897949219
v 886.639892578125 1174.2783203125 431.7782897949219
v 886.639892578125 1174.2783203125 401.7782897949219
v 851.6392822265625 1174.2781982421875 401.7782897949219
v 886.639892578125 1174.2783203125 431.7782897949219
v 851.6392822265625 1174.2781982421875 431.7782897949219
v 851.6392822265625 1174.2781982421875 401.7782897949219
v 851.6392822265625 1171.60498046875 401.7782897949219
v 851.6392822265625 1174.2781982421875 431.7782897949219
v 851.6392822265625 1171.60498046875 431.7782897949219
v 851.6392822265625 1174.2781982421875 401.7782897949219
v 886.639892578125 1171.60498046875 401.7782897949219
v 851.6392822265625 1171.60498046875 401.7782897949219
v 886.639892578125 1174.2783203125 401.7782897949219
v 851.6392822265625 1174.2781982421875 431.7782897949219
v 851.6392822265625 1171.60498046875 431.7782897949219
v 886.639892578125 1171.60498046875 431.7782897949219
v 886.639892578125 1174.2783203125 431.7782897949219
v 1320.01806640625 1149.227783203125 7.60596594773233e-05
v 1320.01806640625 1179.2266845703125 7.343706965912133e-05
v 1320.01806640625 1149.2279052734375 800.0000610351562
v 1320.01806640625 1179.226806640625 800.0000610351562
v 1320.01806640625 1179.2266845703125 7.343706965912133e-05
v 1290.0189208984375 1179.2266845703125 7.212576747406274e-05
v 1320.01806640625 1179.226806640625 800.0000610351562
v 1290.0189208984375 1179.226806640625 800.0000610351562
v 1290.0189208984375 1179.2266845703125 7.212576747406274e-05
v 1290.0189208984375 1149.227783203125 7.47483572922647e-05
v 1290.0189208984375 1179.226806640625 800.0000610351562
v 1290.0189208984375 1149.2279052734375 800.0000610351562
v 1290.0189208984375 1149.227783203125 7.47483572922647e-05
v 1320.01806640625 1149.227783203125 7.60596594773233e-05
v 1290.0189208984375 1149.2279052734375 800.0000610351562
v 1320.01806640625 1149.2279052734375 800.0000610351562
v 1320.0211181640625 -640.73779296875 800.000244140625
v 1320.01806640625 1194.195556640625 800.0000610351562
v 1320.0211181640625 -640.73779296875 810.0003051757812
v 1320.01806640625 1194.195556640625 810.0001220703125
v 1320.01806640625 1194.1956787109375 800.0000610351562
v 1290.019287109375 1194.1956787109375 800.0000610351562
v 1320.01806640625 1194.1956787109375 810.0001220703125
v 1290.019287109375 1194.1956787109375 810.0001220703125
v 1290.019287109375 1194.1956787109375 800.0000610351562
v 1290.0223388671875 -640.73779296875 800.000244140625
v 1290.019287109375 1194.1956787109375 810.0001220703125
v 1290.0223388671875 -640.73779296875 810.0003051757812
v 1290.0223388671875 -640.73779296875 800.000244140625
v 1320.0211181640625 -640.73779296875 800.000244140625
v 1290.0223388671875 -640.73779296875 810.0003051757812
v 1320.0211181640625 -640.73779296875 810.0003051757812
v 1290.0223388671875 -640.73779296875 800.000244140625
v 1320.01806640625 1194.1956787109375 800.0000610351562
v 1320.0211181640625 -640.73779296875 800.000244140625
v 1290.019287109375 1194.1956787109375 800.0000610351562
v 1290.0223388671875 -640.73779296875 810.0003051757812
v 1320.0211181640625 -640.73779296875 810.0003051757812
v 1320.01806640625 1194.1956787109375 810.0001220703125
v 1290.019287109375 1194.1956787109375 810.0001220703125
v 450.0199890136719 -1165.8050537109375 800.000244140625
v 450.0198669433594 1194.195556640625 800.0000610351562
v 450.0199890136719 -1165.8050537109375 810.0003051757812
v 450.0198669433594 1194.195556640625 810.0001220703125
v 450.0198669433594 1194.195556640625 800.0000610351562
v 420.0210876464844 1194.195556640625 800.0000610351562
v 450.0198669433594 1194.195556640625 810.0001220703125
v 420.0210876464844 1194.195556640625 810.0001220703125
v 420.0210876464844 1194.195556640625 800.0000610351562
v 420.0212097167969 -1165.8050537109375 800.000244140625
v 420.0210876464844 1194.195556640625 810.0001220703125
v 420.0212097167969 -1165.8050537109375 810.0003051757812
v 420.0212097167969 -1165.8050537109375 800.000244140625
v 450.0199890136719 -1165.8050537109375 800.000244140625
v 420.0212097167969 -1165.8050537109375 810.0003051757812
v 450.0199890136719 -1165.8050537109375 810.0003051757812
v 420.0212097167969 -1165.8050537109375 800.000244140625
v 450.0198669433594 1194.195556640625 800.0000610351562
v 450.0199890136719 -1165.8050537109375 800.000244140625
v 420.0210876464844 1194.195556640625 800.0000610351562
v 420.0212097167969 -1165.8050537109375 810.0003051757812
v 450.0199890136719 -1165.8050537109375 810.0003051757812
v 450.0198669433594 1194.195556640625 810.0001220703125
v 420.0210876464844 1194.195556640625 810.0001220703125
v -419.9812316894531 -1165.8050537109375 800.0001831054688
v -419.9813232421875 1194.195556640625 800.0
v -419.9812316894531 -1165.8050537109375 810.000244140625
v -419.9813232421875 1194.195556640625 810.0000610351562
v -419.9813232421875 1194.195556640625 800.0
v -449.9801330566406 1194.195556640625 800.0
v -419.9813232421875 1194.195556640625 810.0000610351562
v -449.9801330566406 1194.195556640625 810.0000610351562
v -449.9801330566406 1194.195556640625 800.0
v -449.98004150390625 -1165.8050537109375 800.0001831054688
v -449.9801330566406 1194.195556640625 810.0000610351562
v -449.98004150390625 -1165.8050537109375 810.000244140625
v -449.98004150390625 -1165.8050537109375 800.0001831054688
v -419.9812316894531 -1165.8050537109375 800.0001831054688
v -449.98004150390625 -1165.8050537109375 810.000244140625
v -419.9812316894531 -1165.8050537109375 810.000244140625
v -449.98004150390625 -1165.8050537109375 800.0001831054688
v -419.9813232421875 1194.195556640625 800.0
v -419.9812316894531 -1165.8050537109375 800.0001831054688
v -449.9801330566406 1194.195556640625 800.0
v -449.98004150390625 -1165.8050537109375 810.000244140625
v -419.9812316894531 -1165.8050537109375 810.000244140625
v -419.9813232421875 1194.195556640625 810.0000610351562
v -449.9801330566406 1194.195556640625 810.0000610351562
v -1290.0220947265625 -1165.8050537109375 800.0001220703125
v -1290.022216796875 1194.195556640625 799.9999389648438
v -1290.0220947265625 -1165.8050537109375 810.0001831054688
v -1290.022216796875 1194.195556640625 810.0
v -1290.022216796875 1194.195556640625 799.9999389648438
v -1320.02099609375 1194.195556640625 799.9999389648438
v -1290.022216796875 1194.195556640625 810.0
v -1320.02099609375 1194.195556640625 810.0
v -1320.02099609375 1194.195556640625 799.9999389648438
v -1320.0208740234375 -1165.8050537109375 800.0001220703125
v -1320.02099609375 1194.195556640625 810.0
v -1320.0208740234375 -1165.8050537109375 810.0001831054688
v -1320.0208740234375 -1165.8050537109375 800.0001220703125
v -1290.0220947265625 -1165.8050537109375 800.0001220703125
v -1320.0208740234375 -1165.8050537109375 810.0001831054688
v -1290.0220947265625 -1165.8050537109375 810.0001831054688
v -1320.0208740234375 -1165.8050537109375 800.0001220703125
v -1290.022216796875 1194.195556640625 799.9999389648438
v -1290.0220947265625 -1165.8050537109375 800.0001220703125
v -1320.02099609375 1194.195556640625 799.9999389648438
v -1320.0208740234375 -1165.8050537109375 810.0001831054688
v -1290.0220947265625 -1165.8050537109375 810.0001831054688
v -1290.022216796875 1194.195556640625 810.0
v -1320.02099609375 1194.195556640625 810.0
v 1320.01806640625 414.17529296875 0.0001403199858032167
v 1320.01806640625 444.17425537109375 0.00013769741053692997
v 1320.01806640625 414.17535400390625 800.0001220703125
v 1320.01806640625 444.17431640625 800.0001220703125
v 1320.01806640625 444.17425537109375 0.00013769741053692997
v 1290.0189208984375 444.17425537109375 0.00013638610835187137
v 1320.01806640625 444.17431640625 800.0001220703125
v 1290.0189208984375 444.17431640625 800.0001220703125
v 1290.0189208984375 444.17425537109375 0.00013638610835187137
v 1290.0189208984375 414.17529296875 0.0001390086836181581
v 1290.0189208984375 444.17431640625 800.0001220703125
v 1290.0189208984375 414.17535400390625 800.0001220703125
v 1290.0189208984375 414.17529296875 0.0001390086836181581
v 1320.01806640625 414.17529296875 0.0001403199858032167
v 1290.0189208984375 414.17535400390625 800.0001220703125
v 1320.01806640625 414.17535400390625 800.0001220703125
v 450.0199890136719 414.1815185546875 0.00010229062172584236
v 450.0199890136719 444.1805419921875 9.966801735572517e-05
v 450.0199279785156 414.18157958984375 800.0
v 450.0199279785156 444.18060302734375 800.0
v 450.0199890136719 444.1805419921875 9.966801735572517e-05
v 420.0212097167969 444.1805419921875 9.83567297225818e-05
v 450.0199279785156 444.18060302734375 800.0001220703125
v 420.0211486816406 444.18060302734375 800.0001220703125
v 420.0212097167969 444.1805419921875 9.83567297225818e-05
v 420.0212097167969 414.1815185546875 0.00010097933409269899
v 420.0211486816406 444.18060302734375 800.0
v 420.0211486816406 414.18157958984375 800.0
v 420.0212097167969 414.1815185546875 0.00010097933409269899
v 450.0199890136719 414.1815185546875 0.00010229062172584236
v 420.0211486816406 414.18157958984375 800.0001220703125
v 450.0199279785156 414.18157958984375 800.0001220703125
v -419.98126220703125 414.1966552734375 6.426033360185102e-05
v -419.98126220703125 444.195556640625 6.163774378364906e-05
v -419.9812927246094 414.19671630859375 800.0000610351562
v -419.9812927246094 444.19561767578125 800.0000610351562
v -419.98126220703125 444.195556640625 6.163774378364906e-05
v -449.98016357421875 444.195556640625 6.032644887454808e-05
v -419.9812927246094 444.19561767578125 800.0000610351562
v -449.9801940917969 444.19561767578125 800.0000610351562
v -449.98016357421875 444.195556640625 6.032644887454808e-05
v -449.98016357421875 414.1966552734375 6.294903869275004e-05
v -449.9801940917969 444.19561767578125 800.0000610351562
v -449.9801940917969 414.19671630859375 800.0000610351562
v -449.98016357421875 414.1966552734375 6.294903869275004e-05
v -419.98126220703125 414.1966552734375 6.426033360185102e-05
v -449.9801940917969 414.19671630859375 800.0000610351562
v -419.9812927246094 414.19671630859375 800.0000610351562
v -449.9801940917969 414.19671630859375 800.0000610351562
v -419.9812927246094 414.19671630859375 800.0000610351562
v -419.9812927246094 444.19561767578125 800.0000610351562
v -449.9801940917969 444.19561767578125 800.0000610351562
v -1290.0220947265625 414.2119140625 2.622829742904287e-05
v -1290.0220947265625 444.2108154296875 2.360570761084091e-05
v -1290.022216796875 414.21197509765625 800.0
v -1290.022216796875 444.21087646484375 800.0
v -1290.0220947265625 444.2108154296875 2.360570761084091e-05
v -1320.02099609375 444.2108154296875 2.2294416339718737e-05
v -1290.022216796875 444.21087646484375 800.0
v -1320.0211181640625 444.21087646484375 800.0
v -1320.02099609375 444.2108154296875 2.2294416339718737e-05
v -1320.02099609375 414.2119140625 2.4917006157920696e-05
v -1320.0211181640625 444.21087646484375 800.0
v -1320.0211181640625 414.21197509765625 800.0
v -1320.02099609375 414.2119140625 2.4917006157920696e-05
v -1290.0220947265625 414.2119140625 2.622829742904287e-05
v -1320.0211181640625 414.21197509765625 800.0
v -1290.022216796875 414.21197509765625 800.0
v -1320.0211181640625 414.21197509765625 800.0
v -1290.022216796875 414.21197509765625 800.0
v -1290.022216796875 444.21087646484375 800.0
v -1320.0211181640625 444.21087646484375 800.0
v -1315.022216796875 414.2607421875 754.9999389648438
v -1315.0098876953125 -290.738037109375 79.99989318847656
v -1315.0098876953125 -290.738037109375 49.9998893737793
v -1315.022216796875 414.2607421875 784.9999389648438
v -1315.022216796875 414.2607421875 754.9999389648438
v -1320.02099609375 414.2607421875 754.9999389648438
v -1315.022216796875 414.2607421875 784.9999389648438
v -1320.02099609375 414.2607421875 784.9999389648438
v -1320.02099609375 414.2607421875 784.9999389648438
v -1320.02099609375 414.2607421875 754.9999389648438
v -1320.0086669921875 -290.7379150390625 79.99990844726562
v -1320.0086669921875 -290.7379150390625 49.9998893737793
v -1320.0086669921875 -290.738037109375 49.9998893737793
v -1315.0098876953125 -290.738037109375 49.9998893737793
v -1320.0086669921875 -290.738037109375 79.99989318847656
v -1315.0098876953125 -290.738037109375 79.99989318847656
v -1315.0098876953125 -290.738037109375 49.9998893737793
v -1320.0086669921875 -290.738037109375 49.9998893737793
v -1315.022216796875 414.2607421875 754.9999389648438
v -1320.02099609375 414.2607421875 754.9999389648438
v -1315.0098876953125 -290.738037109375 79.99989318847656
v -1315.022216796875 414.2607421875 784.9999389648438
v -1320.0086669921875 -290.738037109375 79.99989318847656
v -1320.02099609375 414.2607421875 784.9999389648438
v -1314.99169921875 -290.7379150390625 785.0
v -1314.99169921875 -290.7379150390625 755.0
v -1315.022216796875 414.26055908203125 79.99983978271484
v -1315.022216796875 414.26055908203125 49.99982833862305
v -1315.022216796875 414.26068115234375 49.99982833862305
v -1320.02099609375 414.26068115234375 49.99982833862305
v -1315.022216796875 414.26068115234375 79.99982452392578
v -1320.02099609375 414.26068115234375 79.99982452392578
v -1319.990478515625 -290.7379150390625 755.0
v -1320.02099609375 414.26068115234375 79.99982452392578
v -1320.02099609375 414.26068115234375 49.99982833862305
v -1319.990478515625 -290.7379150390625 785.0
v -1319.990478515625 -290.7379150390625 755.0
v -1314.99169921875 -290.7379150390625 755.0
v -1319.990478515625 -290.7379150390625 785.0
v -1314.99169921875 -290.7379150390625 785.0
v -1314.99169921875 -290.7379150390625 755.0
v -1319.990478515625 -290.7379150390625 755.0
v -1315.022216796875 414.26068115234375 49.99982833862305
v -1320.02099609375 414.26068115234375 49.99982833862305
v -1314.99169921875 -290.7379150390625 785.0
v -1315.022216796875 414.26068115234375 79.99982452392578
v -1319.990478515625 -290.7379150390625 785.0
v -1320.02099609375 414.26068115234375 79.99982452392578
v -1312.3670654296875 46.8199462890625 401.7782897949219
v -1312.3671875 76.8187255859375 401.7782897949219
v -1312.3671875 46.8199462890625 431.7782897949219
v -1312.3671875 76.8187255859375 431.7782897949219
v -1312.3671875 76.8187255859375 401.7782897949219
v -1315.04052734375 76.8187255859375 401.7782897949219
v -1312.3671875 76.8187255859375 431.7782897949219
v -1315.04052734375 76.8187255859375 431.7782897949219
v -1315.04052734375 76.8187255859375 401.7782897949219
v -1315.0404052734375 46.8199462890625 401.7782897949219
v -1315.04052734375 76.8187255859375 431.7782897949219
v -1315.04052734375 46.8199462890625 431.7782897949219
v -1315.0404052734375 46.8199462890625 401.7782897949219
v -1312.3670654296875 46.8199462890625 401.7782897949219
v -1315.04052734375 46.8199462890625 431.7782897949219
v -1312.3671875 46.8199462890625 431.7782897949219
v -1315.0404052734375 46.8199462890625 401.7782897949219
v -1312.3671875 76.8187255859375 401.7782897949219
v -1312.3670654296875 46.8199462890625 401.7782897949219
v -1315.04052734375 76.8187255859375 401.7782897949219
v -1315.04052734375 46.8199462890625 431.7782897949219
v -1312.3671875 46.8199462890625 431.7782897949219
v -1312.3671875 76.8187255859375 431.7782897949219
v -1315.04052734375 76.8187255859375 431.7782897949219
v -1288.33447265625 -320.8558349609375 9.05637425603345e-05
v -1288.33447265625 -290.85693359375 8.794115274213254e-05
v -1288.3345947265625 -320.855712890625 800.0000610351562
v -1288.3345947265625 -290.8568115234375 800.0000610351562
v -1288.33447265625 -290.85693359375 8.794115274213254e-05
v -1318.3336181640625 -290.85693359375 8.662985055707395e-05
v -1288.3345947265625 -290.8568115234375 800.0000610351562
v -1318.333740234375 -290.8568115234375 800.0000610351562
v -1318.3336181640625 -290.85693359375 8.662985055707395e-05
v -1318.3336181640625 -320.8558349609375 8.925244037527591e-05
v -1318.333740234375 -290.8568115234375 800.0000610351562
v -1318.333740234375 -320.855712890625 800.0000610351562
v -1318.3336181640625 -320.8558349609375 8.925244037527591e-05
v -1288.33447265625 -320.8558349609375 9.05637425603345e-05
v -1318.333740234375 -320.855712890625 800.0000610351562
v -1288.3345947265625 -320.855712890625 800.0000610351562
v -1315.0220947265625 -1165.8050537109375 0.00016326499462593347
v -1315.022216796875 1149.264404296875 -3.912481770385057e-05
v -1315.0220947265625 -1165.8050537109375 50.00016403198242
v -1315.022216796875 1149.264404296875 49.999961853027344
v -1315.022216796875 1149.264404296875 -3.912481770385057e-05
v -1320.02099609375 1149.264404296875 -3.934332198696211e-05
v -1315.022216796875 1149.264404296875 49.999961853027344
v -1320.02099609375 1149.264404296875 49.999961853027344
v -1320.02099609375 1149.264404296875 -3.934332198696211e-05
v -1320.0208740234375 -1165.8050537109375 0.00016304649761877954
v -1320.02099609375 1149.264404296875 49.999961853027344
v -1320.0208740234375 -1165.8050537109375 50.00016403198242
v -1320.0208740234375 -1165.8050537109375 0.00016304649761877954
v -1315.0220947265625 -1165.8050537109375 0.00016326499462593347
v -1320.0208740234375 -1165.8050537109375 50.00016403198242
v -1315.0220947265625 -1165.8050537109375 50.00016403198242
v -1320.0208740234375 -1165.8050537109375 0.00016304649761877954
v -1315.022216796875 1149.264404296875 -3.912481770385057e-05
v -1315.0220947265625 -1165.8050537109375 0.00016326499462593347
v -1320.02099609375 1149.264404296875 -3.934332198696211e-05
v -1320.0208740234375 -1165.8050537109375 50.00016403198242
v -1315.0220947265625 -1165.8050537109375 50.00016403198242
v -1315.022216796875 1149.264404296875 49.999961853027344
v -1320.02099609375 1149.264404296875 49.999961853027344
v 1320.0181884765625 -669.354248046875 0.0002350451541133225
v 1320.0181884765625 -639.355224609375 0.00023242257884703577
v 1320.01806640625 -669.3541259765625 1213.000244140625
v 1320.01806640625 -639.3551025390625 1213.000244140625
v 1320.0181884765625 -639.355224609375 0.00023242257884703577
v 1289.2198486328125 -639.35546875 0.0002310763520654291
v 1320.01806640625 -639.3551025390625 1213.0001220703125
v 1289.2197265625 -639.3553466796875 1213.0001220703125
v 1289.2198486328125 -639.35546875 0.0002310763520654291
v 1289.2198486328125 -669.354248046875 0.00023369892733171582
v 1289.2197265625 -639.3553466796875 1213.000244140625
v 1289.2197265625 -669.3541259765625 1213.000244140625
v 1289.2198486328125 -669.354248046875 0.00023369892733171582
v 1320.0181884765625 -669.354248046875 0.0002350451541133225
v 1289.2197265625 -669.3541259765625 1213.0001220703125
v 1320.01806640625 -669.3541259765625 1213.0001220703125
v 1320.0181884765625 -1194.1956787109375 0.00028092824504710734
v 1320.0181884765625 -1164.1966552734375 0.00027830564067699015
v 1320.01806640625 -1194.1956787109375 1330.000244140625
v 1320.01806640625 -1164.1966552734375 1330.000244140625
v 1320.0181884765625 -1164.1966552734375 0.00027830564067699015
v 1290.01904296875 -1164.1966552734375 0.00027699433849193156
v 1320.01806640625 -1164.1966552734375 1330.0003662109375
v 1290.0189208984375 -1164.1966552734375 1330.0003662109375
v 1290.01904296875 -1164.1966552734375 0.00027699433849193156
v 1290.01904296875 -1194.1956787109375 0.00027961694286204875
v 1290.0189208984375 -1164.1966552734375 1330.000244140625
v 1290.0189208984375 -1194.1956787109375 1330.000244140625
v 1290.01904296875 -1194.1956787109375 0.00027961694286204875
v 1320.0181884765625 -1194.1956787109375 0.00028092824504710734
v 1290.0189208984375 -1194.1956787109375 1330.0003662109375
v 1320.01806640625 -1194.1956787109375 1330.0003662109375
v 449.9773254394531 -1194.1956787109375 0.000242897542193532
v 449.9773254394531 -1164.1966552734375 0.00024027495237533003
v 449.9772644042969 -1194.1956787109375 1330.0001220703125
v 449.9772644042969 -1164.1966552734375 1330.0001220703125
v 449.9773254394531 -1164.1966552734375 0.00024027495237533003
v 419.9781799316406 -1164.1966552734375 0.00023896365019027144
v 449.9772644042969 -1164.1966552734375 1330.000244140625
v 419.9781188964844 -1164.1966552734375 1330.000244140625
v 419.9781799316406 -1164.1966552734375 0.00023896365019027144
v 419.9781799316406 -1194.1956787109375 0.0002415862400084734
v 419.9781188964844 -1164.1966552734375 1330.0001220703125
v 419.9781188964844 -1194.1956787109375 1330.0001220703125
v 419.9781799316406 -1194.1956787109375 0.0002415862400084734
v 449.9773254394531 -1194.1956787109375 0.000242897542193532
v 419.9781188964844 -1194.1956787109375 1330.000244140625
v 449.9772644042969 -1194.1956787109375 1330.000244140625
v -420.06658935546875 -1194.1956787109375 0.00020486670837271959
v -420.06658935546875 -1164.1966552734375 0.00020224411855451763
v -420.066650390625 -1194.1956787109375 1330.0001220703125
v -420.066650390625 -1164.1966552734375 1330.0001220703125
v -420.06658935546875 -1164.1966552734375 0.00020224411855451763
v -450.0657958984375 -1164.1966552734375 0.00020093281636945903
v -420.066650390625 -1164.1966552734375 1330.000244140625
v -450.06585693359375 -1164.1966552734375 1330.000244140625
v -450.0657958984375 -1164.1966552734375 0.00020093281636945903
v -450.0657958984375 -1194.1956787109375 0.000203555406187661
v -450.06585693359375 -1164.1966552734375 1330.0001220703125
v -450.06585693359375 -1194.1956787109375 1330.0001220703125
v -450.0657958984375 -1194.1956787109375 0.000203555406187661
v -420.06658935546875 -1194.1956787109375 0.00020486670837271959
v -450.06585693359375 -1194.1956787109375 1330.000244140625
v -420.066650390625 -1194.1956787109375 1330.000244140625
v -1290.0220947265625 -1194.1590576171875 0.0001668365439400077
v -1290.0220947265625 -1164.1600341796875 0.00016421396867372096
v -1290.0220947265625 -1194.1590576171875 1330.0001220703125
v -1290.0220947265625 -1164.1600341796875 1330.0001220703125
v -1290.0220947265625 -1164.1600341796875 0.00016421396867372096
v -1320.02099609375 -1164.1600341796875 0.00016290266648866236
v -1290.0220947265625 -1164.1600341796875 1330.0001220703125
v -1320.02099609375 -1164.1600341796875 1330.0001220703125
v -1320.02099609375 -1164.1600341796875 0.00016290266648866236
v -1320.02099609375 -1194.1590576171875 0.00016552525630686432
v -1320.02099609375 -1164.1600341796875 1330.0001220703125
v -1320.02099609375 -1194.1590576171875 1330.0001220703125
v -1320.02099609375 -1194.1590576171875 0.00016552525630686432
v -1290.0220947265625 -1194.1590576171875 0.0001668365439400077
v -1320.02099609375 -1194.1590576171875 1330.0001220703125
v -1290.0220947265625 -1194.1590576171875 1330.0001220703125
v -1320.02099609375 -1194.1590576171875 1330.000244140625
v -1290.0220947265625 -1194.1590576171875 1330.000244140625
v -1290.0220947265625 -1164.1600341796875 1330.000244140625
v -1320.02099609375 -1164.1600341796875 1330.000244140625
v -1295.0220947265625 1174.259765625 -4.043575609102845e-05
v 1290.019287109375 1174.261474609375 7.255986565724015e-05
v -1295.0220947265625 1174.259765625 49.99995803833008
v 1290.019287109375 1174.261474609375 50.00007247924805
v 1290.019287109375 1174.261474609375 7.255986565724015e-05
v 1290.019287109375 1179.26025390625 7.212285709101707e-05
v 1290.019287109375 1174.261474609375 50.00007247924805
v 1290.019287109375 1179.26025390625 50.00007247924805
v 1290.019287109375 1179.26025390625 7.212285709101707e-05
v -1295.0220947265625 1179.2586669921875 -4.087276465725154e-05
v 1290.019287109375 1179.26025390625 50.00007247924805
v -1295.0220947265625 1179.2586669921875 49.99995803833008
v -1295.0220947265625 1179.2586669921875 -4.087276465725154e-05
v -1295.0220947265625 1174.259765625 -4.043575609102845e-05
v -1295.0220947265625 1179.2586669921875 49.99995803833008
v -1295.0220947265625 1174.259765625 49.99995803833008
v -1295.0220947265625 1179.2586669921875 -4.087276465725154e-05
v 1290.019287109375 1174.261474609375 7.255986565724015e-05
v -1295.0220947265625 1174.259765625 -4.043575609102845e-05
v 1290.019287109375 1179.26025390625 7.212285709101707e-05
v -1295.0220947265625 1179.2586669921875 49.99995803833008
v -1295.0220947265625 1174.259765625 49.99995803833008
v 1290.019287109375 1174.261474609375 50.00007247924805
v 1290.019287109375 1179.26025390625 50.00007247924805
v 450.0199890136719 -1165.8050537109375 1330.0001220703125
v 450.0199890136719 -1165.8050537109375 1320.0001220703125
v 450.0198669433594 1194.195556640625 820.0001220703125
v 450.0198669433594 1194.195556640625 820.0001220703125
v 420.0210876464844 1194.195556640625 820.0001220703125
v 420.0212097167969 -1165.8050537109375 1320.0001220703125
v 420.0210876464844 1194.195556640625 820.0001220703125
v 420.0212097167969 -1165.8050537109375 1330.0001220703125
v 420.0212097167969 -1165.8050537109375 1320.0001220703125
v 450.0199890136719 -1165.8050537109375 1320.0001220703125
v 420.0212097167969 -1165.8050537109375 1330.0001220703125
v 450.0199890136719 -1165.8050537109375 1330.0001220703125
v 420.0212097167969 -1165.8050537109375 1320.0001220703125
v 450.0198669433594 1194.195556640625 810.0001220703125
v 450.0199890136719 -1165.8050537109375 1320.0001220703125
v 420.0210876464844 1194.195556640625 810.0001220703125
v 420.0212097167969 -1165.8050537109375 1330.0001220703125
v 450.0199890136719 -1165.8050537109375 1330.0001220703125
v 450.0198669433594 1194.195556640625 820.0001220703125
v 420.0210876464844 1194.195556640625 820.0001220703125
v -419.98126220703125 -1165.8050537109375 1330.0001220703125
v -419.98126220703125 -1165.8050537109375 1320.0001220703125
v -419.9813232421875 1194.195556640625 820.0000610351562
v -419.9813232421875 1194.195556640625 820.0000610351562
v -449.9801330566406 1194.195556640625 820.0000610351562
v -449.98004150390625 -1165.8050537109375 1320.0001220703125
v -449.9801330566406 1194.195556640625 820.0000610351562
v -449.98004150390625 -1165.8050537109375 1330.0001220703125
v -449.98004150390625 -1165.8050537109375 1320.0001220703125
v -419.98126220703125 -1165.8050537109375 1320.0001220703125
v -449.98004150390625 -1165.8050537109375 1330.0001220703125
v -419.98126220703125 -1165.8050537109375 1330.0001220703125
v -449.98004150390625 -1165.8050537109375 1320.0001220703125
v -419.9813232421875 1194.195556640625 810.0000610351562
v -419.98126220703125 -1165.8050537109375 1320.0001220703125
v -449.9801330566406 1194.195556640625 810.0000610351562
v -449.98004150390625 -1165.8050537109375 1330.0001220703125
v -419.98126220703125 -1165.8050537109375 1330.0001220703125
v -419.9813232421875 1194.195556640625 820.0000610351562
v -449.9801330566406 1194.195556640625 820.0000610351562
v -1309.980712890625 -315.802001953125 1140.0
v -1309.980712890625 -315.802001953125 1120.0
v -1309.9805908203125 -1165.8050537109375 830.0001220703125
v -1309.9805908203125 -1165.8050537109375 810.0001831054688
v -1309.9805908203125 -1165.8050537109375 810.0001831054688
v -1299.97998046875 -1165.8050537109375 810.0001831054688
v -1309.9805908203125 -1165.8050537109375 830.0001220703125
v -1299.97998046875 -1165.8050537109375 830.0001220703125
v -1299.9801025390625 -315.802001953125 1120.0
v -1299.97998046875 -1165.8050537109375 830.0001220703125
v -1299.97998046875 -1165.8050537109375 810.0001831054688
v -1299.9801025390625 -315.802001953125 1140.0
v -1299.9801025390625 -315.802001953125 1120.0
v -1309.980712890625 -315.802001953125 1120.0
v -1299.9801025390625 -315.802001953125 1140.0
v -1309.980712890625 -315.802001953125 1140.0
v -1309.980712890625 -315.802001953125 1120.0
v -1299.9801025390625 -315.802001953125 1120.0
v -1309.9805908203125 -1165.8050537109375 810.0001831054688
v -1299.97998046875 -1165.8050537109375 810.0001831054688
v -1309.980712890625 -315.802001953125 1140.0
v -1309.9805908203125 -1165.8050537109375 830.0001220703125
v -1299.9801025390625 -315.802001953125 1140.0
v -1299.97998046875 -1165.8050537109375 830.0001220703125
v -1309.980712890625 -295.806884765625 1115.0001220703125
v -1309.980712890625 419.1954345703125 830.0
v -1309.980712890625 419.1954345703125 810.0000610351562
v -1309.980712890625 -295.806884765625 1135.0001220703125
v -1309.980712890625 -295.806884765625 1115.0001220703125
v -1299.9801025390625 -295.806884765625 1115.0001220703125
v -1309.980712890625 -295.806884765625 1135.0001220703125
v -1299.9801025390625 -295.806884765625 1135.0001220703125
v -1299.9801025390625 -295.806884765625 1135.0001220703125
v -1299.9801025390625 -295.806884765625 1115.0001220703125
v -1299.9801025390625 419.1954345703125 830.0
v -1299.9801025390625 419.1954345703125 810.0000610351562
v -1299.9801025390625 419.1954345703125 810.0000610351562
v -1309.980712890625 419.1954345703125 810.0000610351562
v -1299.9801025390625 419.1954345703125 830.0
v -1309.980712890625 419.1954345703125 830.0
v -1309.980712890625 419.1954345703125 810.0000610351562
v -1299.9801025390625 419.1954345703125 810.0000610351562
v -1309.980712890625 -295.806884765625 1115.0001220703125
v -1299.9801025390625 -295.806884765625 1115.0001220703125
v -1309.980712890625 419.1954345703125 830.0
v -1309.980712890625 -295.806884765625 1135.0001220703125
v -1299.9801025390625 419.1954345703125 830.0
v -1299.9801025390625 -295.806884765625 1135.0001220703125
v -1309.980712890625 -295.8038330078125 810.0001220703125
v -1309.980712890625 -315.8050537109375 810.0001220703125
v -1309.980712890625 -295.8038330078125 1140.0001220703125
v -1309.980712890625 -315.8050537109375 1140.0001220703125
v -1309.980712890625 -315.8050537109375 810.0001220703125
v -1299.9801025390625 -315.8050537109375 810.0001220703125
v -1309.980712890625 -315.8050537109375 1140.0001220703125
v -1299.9801025390625 -315.8050537109375 1140.0001220703125
v -1299.9801025390625 -315.8050537109375 810.0001220703125
v -1299.9801025390625 -295.8038330078125 810.0001220703125
v -1299.9801025390625 -315.8050537109375 1140.0001220703125
v -1299.9801025390625 -295.8038330078125 1140.0001220703125
v -1299.9801025390625 -295.8038330078125 810.0001220703125
v -1309.980712890625 -295.8038330078125 810.0001220703125
v -1299.9801025390625 -295.8038330078125 1140.0001220703125
v -1309.980712890625 -295.8038330078125 1140.0001220703125
v -1309.980712890625 -295.8038330078125 1140.0001220703125
v -1299.9801025390625 -295.8038330078125 1140.0001220703125
f 2 1 3
f 4 2 3
f 34 33 35
f 36 34 35
f 30 29 31
f 32 30 31
f 26 25 27
f 28 26 27
f 22 21 23
f 24 22 23
f 14 13 15
f 16 14 15
f 10 9 11
f 12 10 11
f 6 5 7
f 8 6 7
f 786 785 787
f 788 786 787
f 782 781 783
f 784 782 783
f 778 777 779
f 780 778 779
f 774 773 775
f 776 774 775
f 770 769 771
f 772 770 771
f 766 765 767
f 766 767 768
f 762 761 763
f 764 762 763
f 758 757 759
f 759 760 758
f 754 753 755
f 756 754 755
f 742 741 743
f 742 743 744
f 738 737 739
f 740 738 739
f 730 729 731
f 732 730 731
f 726 725 727
f 727 728 726
f 718 720 717
f 718 717 719
f 714 713 715
f 716 714 715
f 706 705 707
f 708 706 707
f 702 701 703
f 703 704 702
f 694 696 693
f 694 693 695
f 690 689 691
f 692 690 691
f 682 681 683
f 684 682 683
f 678 677 679
f 679 680 678
f 670 672 669
f 670 669 671
f 666 665 667
f 668 666 667
f 662 661 663
f 664 662 663
f 658 657 659
f 660 658 659
f 654 653 655
f 656 654 655
f 646 645 647
f 648 646 647
f 642 641 643
f 644 642 643
f 638 637 639
f 640 638 639
f 634 633 635
f 636 634 635
f 630 629 631
f 632 630 631
f 626 625 627
f 628 626 627
f 622 621 623
f 624 622 623
f 618 617 619
f 620 618 619
f 614 613 615
f 616 614 615
f 610 609 611
f 612 610 611
f 606 605 607
f 608 606 607
f 602 601 603
f 604 602 603
f 598 597 599
f 600 598 599
f 594 593 595
f 596 594 595
f 590 589 591
f 592 590 591
f 586 585 587
f 588 586 587
f 582 581 583
f 584 582 583
f 578 577 579
f 580 578 579
f 574 573 575
f 576 574 575
f 570 569 571
f 572 570 571
f 562 564 561
f 562 561 563
f 558 557 559
f 560 558 559
f 554 553 555
f 556 554 555
f 550 549 551
f 552 550 551
f 546 545 547
f 548 546 547
f 542 541 543
f 544 542 543
f 538 537 539
f 540 538 539
f 534 533 535
f 536 534 535
f 530 529 531
f 532 530 531
f 522 524 521
f 522 521 523
f 518 517 519
f 520 518 519
f 514 513 515
f 516 514 515
f 510 509 511
f 512 510 511
f 506 505 507
f 508 506 507
f 502 501 503
f 503 504 502
f 498 497 499
f 499 500 498
f 494 493 495
f 496 494 495
f 486 485 487
f 488 486 487
f 482 481 483
f 483 484 482
f 478 477 479
f 479 480 478
f 474 473 475
f 475 476 474
f 470 469 471
f 472 470 471
f 466 465 467
f 467 468 466
f 462 461 463
f 464 462 463
f 450 449 451
f 452 450 451
f 446 445 447
f 448 446 447
f 442 441 443
f 444 442 443
f 438 437 439
f 440 438 439
f 430 429 431
f 432 430 431
f 426 425 427
f 428 426 427
f 422 421 423
f 424 422 423
f 418 417 419
f 420 418 419
f 414 413 415
f 416 414 415
f 410 409 411
f 412 410 411
f 406 405 407
f 408 406 407
f 402 401 403
f 404 402 403
f 398 397 399
f 400 398 399
f 394 393 395
f 396 394 395
f 390 389 391
f 392 390 391
f 386 385 387
f 388 386 387
f 378 380 377
f 378 377 379
f 374 373 375
f 376 374 375
f 370 369 371
f 372 370 371
f 366 365 367
f 368 366 367
f 362 361 363
f 364 362 363
f 354 356 353
f 354 353 355
f 350 349 351
f 352 350 351
f 346 345 347
f 348 346 347
f 342 341 343
f 344 342 343
f 338 337 339
f 340 338 339
f 330 332 329
f 330 329 331
f 326 325 327
f 328 326 327
f 322 321 323
f 324 322 323
f 318 317 319
f 320 318 319
f 314 313 315
f 316 314 315
f 306 308 305
f 306 305 307
f 302 301 303
f 304 302 303
f 298 297 299
f 300 298 299
f 294 293 295
f 296 294 295
f 290 289 291
f 292 290 291
f 286 285 287
f 288 286 287
f 282 281 283
f 284 282 283
f 278 277 279
f 280 278 279
f 274 273 275
f 276 274 275
f 266 268 265
f 266 265 267
f 262 261 263
f 264 262 263
f 258 257 259
f 260 258 259
f 254 253 255
f 256 254 255
f 250 249 251
f 252 250 251
f 246 245 247
f 247 248 246
f 242 241 243
f 243 244 242
f 238 237 239
f 240 238 239
f 234 233 235
f 235 236 234
f 230 229 231
f 232 230 231
f 222 221 223
f 223 224 222
f 218 217 219
f 219 220 218
f 214 213 215
f 216 214 215
f 206 205 207
f 208 206 207
f 202 201 203
f 203 204 202
f 198 197 199
f 200 198 199
f 194 193 195
f 196 194 195
f 190 189 191
f 192 190 191
f 186 185 187
f 188 186 187
f 178 180 177
f 178 177 179
f 174 173 175
f 176 174 175
f 170 169 171
f 172 170 171
f 166 165 167
f 168 166 167
f 162 161 163
f 164 162 163
f 158 157 159
f 159 160 158
f 154 153 155
f 155 156 154
f 150 149 151
f 152 150 151
f 146 145 147
f 147 148 146
f 142 141 143
f 144 142 143
f 134 133 135
f 135 136 134
f 130 129 131
f 131 132 130
f 126 125 127
f 128 126 127
f 118 117 119
f 120 118 119
f 114 113 115
f 115 116 114
f 106 108 105
f 106 105 107
f 102 101 103
f 104 102 103
f 98 97 99
f 100 98 99
f 94 93 95
f 96 94 95
f 90 89 91
f 92 90 91
f 86 85 87
f 87 88 86
f 82 81 83
f 83 84 82
f 78 77 79
f 80 78 79
f 74 73 75
f 75 76 74
f 70 69 71
f 72 70 71
f 62 61 63
f 63 64 62
f 58 57 59
f 59 60 58
f 54 53 55
f 56 54 55
f 46 45 47
f 48 46 47
f 42 41 43
f 43 44 42
f 37 40 39
f 38 37 39
f 49 50 52
f 50 49 51
f 65 66 68
f 66 65 67
f 110 109 111
f 109 112 111
f 121 122 124
f 122 121 123
f 137 138 140
f 138 137 139
f 182 181 183
f 181 184 183
f 209 210 212
f 210 209 211
f 225 226 228
f 226 225 227
f 270 269 271
f 269 272 271
f 310 309 311
f 309 312 311
f 334 333 335
f 333 336 335
f 358 357 359
f 357 360 359
f 382 381 383
f 381 384 383
f 434 433 435
f 433 436 435
f 454 453 455
f 453 456 455
f 457 458 460
f 458 457 459
f 489 490 492
f 490 489 491
f 526 525 527
f 525 528 527
f 566 565 567
f 565 568 567
f 650 649 651
f 649 652 651
f 674 673 675
f 673 676 675
f 685 686 688
f 686 685 687
f 698 697 699
f 697 700 699
f 709 710 712
f 710 709 711
f 722 721 723
f 721 724 723
f 733 734 736
f 734 733 735
f 748 746 747
f 746 745 747
f 747 745 790
f 745 789 790
f 749 750 752
f 750 749 751
f 18 17 19
f 17 20 19
