# from AsylumDistrict_NorthFace_Generic_0004_LOD_0.pskx
v 190.34271240234375 498.7548828125 -1.0054502126877196e-05
v 190.34271240234375 401.2450866699219 -1.5299249298550421e-06
v 190.34271240234375 498.7549133300781 249.99998474121094
v 190.34271240234375 401.2451171875 250.0
v 190.34271240234375 401.2450866699219 -1.5299249298550421e-06
v 225.34332275390625 401.2450866699219 0.0
v 190.34271240234375 401.2451171875 250.0
v 225.3433074951172 401.2451171875 250.0
v 225.34332275390625 428.75360107421875 -2.404869519523345e-06
v 225.34332275390625 385.4643859863281 1.3795922768622404e-06
v 225.3433074951172 385.46441650390625 225.7999725341797
v 225.34332275390625 258.06439208984375 225.79998779296875
v 225.3433074951172 428.75360107421875 299.99993896484375
v 225.34332275390625 258.06439208984375 1.2517253708210774e-05
v 225.3433380126953 181.2561492919922 1.9232043996453285e-05
v 225.34332275390625 181.2561798095703 299.9999694824219
v 225.34332275390625 236.2456817626953 1.4424706023419276e-05
v 190.3427276611328 236.2456817626953 1.289478132093791e-05
v 225.34332275390625 236.24569702148438 250.00001525878906
v 190.34271240234375 236.24569702148438 250.00001525878906
v 190.3427276611328 236.2456817626953 1.289478132093791e-05
v 190.3427276611328 96.24627685546875 2.5133917006314732e-05
v 190.34271240234375 236.24569702148438 250.00001525878906
v 190.3427276611328 96.24630737304688 250.00003051757812
v 190.3427276611328 96.24627685546875 2.5133917006314732e-05
v 225.3433380126953 96.24627685546875 2.66638417087961e-05
v 190.3427276611328 96.24630737304688 250.00003051757812
v 225.34332275390625 96.24630737304688 250.00003051757812
v 195.34153747558594 96.24630737304688 2.535241947043687e-05
v 195.341552734375 -348.7549133300781 6.425566243706271e-05
v 195.34152221679688 96.24630737304688 120.00003051757812
v 195.341552734375 -348.7549133300781 120.00007629394531
v 250.34332275390625 96.24630737304688 120.00003051757812
v 190.3427276611328 96.24630737304688 120.00003051757812
v 250.34332275390625 96.24630737304688 125.0000228881836
v 190.3427276611328 96.24630737304688 125.0000228881836
v 190.3427276611328 96.24630737304688 120.00003051757812
v 190.34274291992188 -348.7549133300781 120.00007629394531
v 190.3427276611328 96.24630737304688 125.0000228881836
v 190.34274291992188 -348.7549133300781 125.00006866455078
v 190.34274291992188 -348.7549133300781 120.00007629394531
v 250.34335327148438 -348.7549133300781 120.00007629394531
v 190.34274291992188 -348.7549133300781 125.00006866455078
v 250.34335327148438 -348.7549133300781 125.00006866455078
v 190.34274291992188 -348.7549133300781 120.00007629394531
v 250.34332275390625 96.24630737304688 120.00003051757812
v 250.34335327148438 -348.7549133300781 120.00007629394531
v 190.3427276611328 96.24630737304688 120.00003051757812
v 190.34274291992188 -348.7549133300781 125.00006866455078
v 220.341552734375 -348.7549133300781 125.00006866455078
v 220.34153747558594 96.24630737304688 125.0000228881836
v 190.3427276611328 96.24630737304688 125.0000228881836
v 225.3433380126953 96.24630737304688 125.0000228881836
v 225.34335327148438 -348.7549133300781 125.00006866455078
v 250.34332275390625 96.24630737304688 125.0000228881836
v 250.34335327148438 -348.7549133300781 125.00006866455078
v 220.341552734375 -353.7444763183594 125.00006866455078
v 225.34335327148438 -348.7549133300781 125.00006866455078
v 225.34335327148438 -353.7444763183594 125.00006866455078
v 220.341552734375 -348.7549133300781 125.00006866455078
v 220.34153747558594 96.24630737304688 125.0000228881836
v 225.3433380126953 98.75491333007812 125.0000228881836
v 225.3433380126953 96.24630737304688 125.0000228881836
v 220.34153747558594 98.75491333007812 125.0000228881836
v 220.34153747558594 98.75491333007812 125.0000228881836
v 220.341552734375 -353.7444763183594 125.00006866455078
v 220.34152221679688 98.75494384765625 265.0000305175781
v 220.34153747558594 -353.7444763183594 265.00006103515625
v 220.34152221679688 98.75494384765625 265.0000305175781
v 220.34153747558594 -353.7444763183594 265.00006103515625
v 225.34332275390625 98.75494384765625 265.0000305175781
v 225.3433380126953 -353.7444763183594 265.00006103515625
v 225.34335327148438 -348.7549133300781 6.556708103744313e-05
v 190.34275817871094 -348.7549133300781 6.403715815395117e-05
v 225.3433380126953 -348.7549133300781 250.00006103515625
v 190.34274291992188 -348.7549133300781 250.00006103515625
v 190.34275817871094 -348.7549133300781 6.403715815395117e-05
v 190.34275817871094 -488.7543029785156 7.627629383932799e-05
v 190.34274291992188 -348.7549133300781 250.00006103515625
v 190.34274291992188 -488.7543029785156 250.0000762939453
v 190.34275817871094 -488.7543029785156 7.627629383932799e-05
v 225.34336853027344 -488.7543029785156 7.780621672281995e-05
v 190.34274291992188 -488.7543029785156 250.0000762939453
v 225.34335327148438 -488.7543029785156 250.0000762939453
v 185.34390258789062 476.2451171875 250.0
v 185.3439483642578 -488.7543029785156 250.0000762939453
v 185.34390258789062 476.2451171875 280.0
v 185.3439483642578 -488.7543029785156 280.0000915527344
v 185.3439483642578 -488.7543029785156 250.0000762939453
v 230.34214782714844 -488.7543029785156 250.0000762939453
v 185.3439483642578 -488.7543029785156 280.0000915527344
v 230.34214782714844 -488.7543029785156 280.0000915527344
v 185.34390258789062 476.2451171875 250.0
v 230.34210205078125 476.2451171875 250.0
v 185.3439483642578 -488.7543029785156 250.0000762939453
v 230.34214782714844 -488.7543029785156 250.0000762939453
v 185.34390258789062 476.2451171875 280.0
v 185.3439483642578 -488.7543029785156 280.0000915527344
v 230.34210205078125 476.2451171875 280.0
v 230.34214782714844 -488.7543029785156 280.0000915527344
v 190.34271240234375 486.2457275390625 265.0
v 190.34274291992188 -498.7549133300781 265.0000915527344
v 190.3426971435547 486.2457275390625 464.9999694824219
v 190.34274291992188 -498.7548522949219 465.00006103515625
v 190.34274291992188 -498.7549133300781 265.0000915527344
v 225.34335327148438 -498.7549133300781 265.0000915527344
v 190.34274291992188 -498.7548522949219 465.0000915527344
v 225.3433380126953 -498.7548522949219 465.0000915527344
v 185.34390258789062 476.2451171875 450.0
v 185.3439483642578 -488.7542419433594 450.0000915527344
v 185.34390258789062 476.2451171875 480.0000305175781
v 185.3439483642578 -488.7542419433594 480.0001220703125
v 185.3439483642578 -488.7542419433594 450.0000915527344
v 230.34214782714844 -488.7542419433594 450.0000915527344
v 185.3439483642578 -488.7542419433594 480.0001220703125
v 230.34214782714844 -488.7542419433594 480.0001220703125
v 230.34214782714844 -488.7542419433594 450.0000915527344
v 230.34210205078125 476.2451171875 450.0
v 230.34214782714844 -488.7542419433594 480.0001220703125
v 230.34210205078125 476.2451171875 480.0000305175781
v 230.34210205078125 476.2451171875 450.0
v 185.34390258789062 476.2451171875 450.0
v 230.34210205078125 476.2451171875 480.0000305175781
v 185.34390258789062 476.2451171875 480.0000305175781
v 185.34390258789062 476.2451171875 450.0
v 230.34210205078125 476.2451171875 450.0
v 185.3439483642578 -488.7542419433594 450.0000915527344
v 230.34214782714844 -488.7542419433594 450.0000915527344
v 185.34390258789062 476.2451171875 480.0000305175781
v 185.3439483642578 -488.7542419433594 480.0001220703125
v 230.34210205078125 476.2451171875 480.0000305175781
v 230.34214782714844 -488.7542419433594 480.0001220703125
v -147.84396362304688 -488.7451477050781 6.149287946755067e-05
v -147.82867431640625 281.25299072265625 -5.821826107421657e-06
v -147.84396362304688 -488.7451477050781 110.00006103515625
v -147.82867431640625 281.2530212402344 109.99999237060547
v -147.82867431640625 281.25299072265625 -5.821826107421657e-06
v -247.82867431640625 281.25299072265625 -1.0192964509769809e-05
v -147.82867431640625 281.2530212402344 109.99999237060547
v -247.82867431640625 281.25299072265625 109.99998474121094
v -247.82867431640625 281.25299072265625 -1.0192964509769809e-05
v -247.84396362304688 -488.7451477050781 5.7121742429444566e-05
v -247.82867431640625 281.25299072265625 109.99998474121094
v -247.84396362304688 -488.7451477050781 110.00005340576172
v -247.82867431640625 281.25299072265625 109.99998474121094
v -147.84396362304688 -488.7451477050781 110.00006103515625
v -147.82867431640625 281.2530212402344 109.99999237060547
v -247.84396362304688 -488.7451477050781 110.00005340576172
v -142.86044311523438 -488.7451477050781 110.00006103515625
v -142.84518432617188 283.7554016113281 109.99999237060547
v -142.86044311523438 -488.7451477050781 115.00006103515625
v -142.84518432617188 283.7554016113281 114.99999237060547
v -142.84518432617188 283.7554016113281 109.99999237060547
v -250.32806396484375 283.7554016113281 109.99998474121094
v -142.84518432617188 283.7554016113281 114.99999237060547
v -250.32806396484375 283.7554016113281 114.99998474121094
v -250.32806396484375 283.7554016113281 109.99998474121094
v -250.34335327148438 -488.7451477050781 110.00005340576172
v -250.32806396484375 283.7554016113281 114.99998474121094
v -250.34335327148438 -488.7451477050781 115.00005340576172
v -250.32806396484375 283.7554016113281 109.99998474121094
v -142.84518432617188 283.7554016113281 109.99999237060547
v -142.86044311523438 -488.7451477050781 110.00006103515625
v -250.34335327148438 -488.7451477050781 110.00005340576172
v -250.32806396484375 283.7554016113281 114.99998474121094
v -142.86044311523438 -488.7451477050781 115.00006103515625
v -142.84518432617188 283.7554016113281 114.99999237060547
v -250.34335327148438 -488.7451477050781 115.00005340576172
v -147.84396362304688 38.7542724609375 1.537741809443105e-05
v -145.34457397460938 38.7542724609375 1.548667023598682e-05
v -147.843994140625 38.7542724609375 110.00001525878906
v -145.3446044921875 38.7542724609375 110.00001525878906
v -145.34457397460938 38.7542724609375 1.548667023598682e-05
v -145.3446044921875 131.2530517578125 7.400166850857204e-06
v -145.3446044921875 38.7542724609375 110.00001525878906
v -145.3446044921875 131.2530517578125 110.00000762939453
v -145.3446044921875 131.2530517578125 7.400166850857204e-06
v -147.843994140625 131.2530517578125 7.290914709301433e-06
v -145.3446044921875 131.2530517578125 110.00000762939453
v -147.843994140625 131.2530517578125 110.00000762939453
v -147.843994140625 131.2530517578125 7.290914709301433e-06
v -147.84396362304688 38.7542724609375 1.537741809443105e-05
v -147.843994140625 131.2530517578125 110.00000762939453
v -147.843994140625 38.7542724609375 110.00001525878906
v -147.843994140625 38.7542724609375 110.00001525878906
v -145.3446044921875 38.7542724609375 110.00001525878906
v -145.3446044921875 131.2530517578125 110.00000762939453
v -147.843994140625 131.2530517578125 110.00000762939453
v -145.34457397460938 123.75173950195312 45.00000762939453
v -142.84518432617188 123.75173950195312 45.00000762939453
v -145.34457397460938 123.75173950195312 75.0
v -142.84518432617188 123.75173950195312 75.0
v -142.84518432617188 123.75173950195312 45.00000762939453
v -142.84518432617188 126.254150390625 45.00000762939453
v -142.84518432617188 123.75173950195312 75.00000762939453
v -142.84518432617188 126.254150390625 75.00000762939453
v -142.84518432617188 126.254150390625 45.00000762939453
v -145.34457397460938 126.254150390625 45.00000762939453
v -142.84518432617188 126.254150390625 75.0
v -145.34457397460938 126.254150390625 75.0
v -145.34457397460938 126.254150390625 45.00000762939453
v -145.34457397460938 123.75173950195312 45.00000762939453
v -145.34457397460938 126.254150390625 75.00000762939453
v -145.34457397460938 123.75173950195312 75.00000762939453
v -145.34457397460938 123.75173950195312 75.00000762939453
v -142.84518432617188 123.75173950195312 75.00000762939453
v -142.84518432617188 126.254150390625 75.00000762939453
v -145.34457397460938 126.254150390625 75.00000762939453
v -147.843994140625 143.75296020507812 6.198138635227224e-06
v -145.3446044921875 143.75296020507812 6.307390776782995e-06
v -147.843994140625 143.75296020507812 110.00000762939453
v -145.3446044921875 143.75296020507812 110.00000762939453
v -145.3446044921875 143.75296020507812 6.307390776782995e-06
v -145.3446044921875 236.2517852783203 -1.7791120399124338e-06
v -145.3446044921875 143.75296020507812 110.00000762939453
v -145.3446044921875 236.25180053710938 110.0
v -145.3446044921875 236.2517852783203 -1.7791120399124338e-06
v -147.843994140625 236.2517852783203 -1.888364181468205e-06
v -145.3446044921875 236.25180053710938 110.0
v -147.843994140625 236.25180053710938 110.0
v -147.843994140625 236.2517852783203 -1.888364181468205e-06
v -147.843994140625 143.75296020507812 6.198138635227224e-06
v -147.843994140625 236.25180053710938 110.0
v -147.843994140625 143.75296020507812 110.00000762939453
v -147.843994140625 143.75296020507812 110.00000762939453
v -145.3446044921875 143.75296020507812 110.00000762939453
v -145.3446044921875 236.25180053710938 110.0
v -147.843994140625 236.25180053710938 110.0
v -145.34457397460938 148.7517547607422 45.00000762939453
v -142.84518432617188 148.7517547607422 45.00000762939453
v -145.34457397460938 148.7517547607422 75.0
v -142.84518432617188 148.7517547607422 75.0
v -142.84518432617188 148.7517547607422 45.00000762939453
v -142.84518432617188 151.254150390625 45.00000762939453
v -142.84518432617188 148.7517547607422 75.00000762939453
v -142.84518432617188 151.254150390625 75.00000762939453
v -142.84518432617188 151.254150390625 45.00000762939453
v -145.34457397460938 151.254150390625 45.00000762939453
v -142.84518432617188 151.254150390625 75.0
v -145.34457397460938 151.254150390625 75.0
v -145.34457397460938 151.254150390625 45.00000762939453
v -145.34457397460938 148.7517547607422 45.00000762939453
v -145.34457397460938 151.254150390625 75.00000762939453
v -145.34457397460938 148.7517547607422 75.00000762939453
v -145.34457397460938 148.7517547607422 75.00000762939453
v -142.84518432617188 148.7517547607422 75.00000762939453
v -142.84518432617188 151.254150390625 75.00000762939453
v -145.34457397460938 151.254150390625 75.00000762939453
v -147.84396362304688 -211.24569702148438 3.723311237990856e-05
v -145.34457397460938 -211.24569702148438 3.7342360883485526e-05
v -147.84396362304688 -211.24569702148438 110.00003814697266
v -145.34457397460938 -211.24569702148438 110.00003814697266
v -145.34457397460938 -211.24569702148438 3.7342360883485526e-05
v -145.34457397460938 -118.74691772460938 2.9255861591082066e-05
v -145.34457397460938 -211.24569702148438 110.00003814697266
v -145.34457397460938 -118.74691772460938 110.00003051757812
v -145.34457397460938 -118.74691772460938 2.9255861591082066e-05
v -147.84396362304688 -118.74691772460938 2.9146609449526295e-05
v -145.34457397460938 -118.74691772460938 110.00003051757812
v -147.84396362304688 -118.74691772460938 110.00003051757812
v -147.84396362304688 -118.74691772460938 2.9146609449526295e-05
v -147.84396362304688 -211.24569702148438 3.723311237990856e-05
v -147.84396362304688 -118.74691772460938 110.00003051757812
v -147.84396362304688 -211.24569702148438 110.00003814697266
v -147.84396362304688 -211.24569702148438 110.00003814697266
v -145.34457397460938 -211.24569702148438 110.00003814697266
v -145.34457397460938 -118.74691772460938 110.00003051757812
v -147.84396362304688 -118.74691772460938 110.00003051757812
v -145.34454345703125 -126.24819946289062 45.000030517578125
v -142.84515380859375 -126.24819946289062 45.000030517578125
v -145.34454345703125 -126.24819946289062 75.0000228881836
v -142.84515380859375 -126.24819946289062 75.0000228881836
v -142.84515380859375 -126.24819946289062 45.000030517578125
v -142.84515380859375 -123.74581909179688 45.000030517578125
v -142.84515380859375 -126.24819946289062 75.00003051757812
v -142.84515380859375 -123.74581909179688 75.00003051757812
v -142.84515380859375 -123.74581909179688 45.000030517578125
v -145.34454345703125 -123.74581909179688 45.000030517578125
v -142.84515380859375 -123.74581909179688 75.0000228881836
v -145.34454345703125 -123.74581909179688 75.0000228881836
v -145.34454345703125 -123.74581909179688 45.000030517578125
v -145.34454345703125 -126.24819946289062 45.000030517578125
v -145.34454345703125 -123.74581909179688 75.00003051757812
v -145.34454345703125 -126.24819946289062 75.00003051757812
v -145.34454345703125 -126.24819946289062 75.00003051757812
v -142.84515380859375 -126.24819946289062 75.00003051757812
v -142.84515380859375 -123.74581909179688 75.00003051757812
v -145.34454345703125 -123.74581909179688 75.00003051757812
v -147.84396362304688 -106.2470703125 2.8053833375452086e-05
v -145.34457397460938 -106.2470703125 2.8163085517007858e-05
v -147.84396362304688 -106.2470703125 110.00003051757812
v -145.34457397460938 -106.2470703125 110.00003051757812
v -145.34457397460938 -106.2470703125 2.8163085517007858e-05
v -145.34457397460938 -13.748291015625 2.00765880435938e-05
v -145.34457397460938 -106.2470703125 110.00003051757812
v -145.3446044921875 -13.748291015625 110.0000228881836
v -145.34457397460938 -13.748291015625 2.00765880435938e-05
v -147.84396362304688 -13.748291015625 1.996733590203803e-05
v -145.3446044921875 -13.748291015625 110.0000228881836
v -147.843994140625 -13.748291015625 110.0000228881836
v -147.84396362304688 -13.748291015625 1.996733590203803e-05
v -147.84396362304688 -106.2470703125 2.8053833375452086e-05
v -147.843994140625 -13.748291015625 110.0000228881836
v -147.84396362304688 -106.2470703125 110.00003051757812
v -147.84396362304688 -106.2470703125 110.00003051757812
v -145.34457397460938 -106.2470703125 110.00003051757812
v -145.3446044921875 -13.748291015625 110.0000228881836
v -147.843994140625 -13.748291015625 110.0000228881836
v -145.34454345703125 -101.24822998046875 45.000030517578125
v -142.84515380859375 -101.24822998046875 45.000030517578125
v -145.34454345703125 -101.24822998046875 75.0000228881836
v -142.84515380859375 -101.24822998046875 75.0000228881836
v -142.84515380859375 -101.24822998046875 45.000030517578125
v -142.84515380859375 -98.745849609375 45.00002670288086
v -142.84515380859375 -101.24822998046875 75.00003051757812
v -142.84515380859375 -98.745849609375 75.00003051757812
v -142.84515380859375 -98.745849609375 45.00002670288086
v -145.34454345703125 -98.745849609375 45.00002670288086
v -142.84515380859375 -98.745849609375 75.0000228881836
v -145.34454345703125 -98.745849609375 75.0000228881836
v -145.34454345703125 -98.745849609375 45.00002670288086
v -145.34454345703125 -101.24822998046875 45.000030517578125
v -145.34454345703125 -98.745849609375 75.00003051757812
v -145.34454345703125 -101.24822998046875 75.00003051757812
v -145.34454345703125 -101.24822998046875 75.00003051757812
v -142.84515380859375 -101.24822998046875 75.00003051757812
v -142.84515380859375 -98.745849609375 75.00003051757812
v -145.34454345703125 -98.745849609375 75.00003051757812
v -147.84396362304688 -458.7463684082031 5.8870304201263934e-05
v -145.34457397460938 -458.7463684082031 5.897955998079851e-05
v -147.84396362304688 -458.7463684082031 110.00006103515625
v -145.34457397460938 -458.7463684082031 110.00006103515625
v -145.34457397460938 -458.7463684082031 5.897955998079851e-05
v -145.34457397460938 -366.2475891113281 5.089306068839505e-05
v -145.34457397460938 -458.7463684082031 110.00006103515625
v -145.34457397460938 -366.2475891113281 110.00005340576172
v -145.34457397460938 -366.2475891113281 5.089306068839505e-05
v -147.84396362304688 -366.2475891113281 5.0783804908860475e-05
v -145.34457397460938 -366.2475891113281 110.00005340576172
v -147.84396362304688 -366.2475891113281 110.00005340576172
v -147.84396362304688 -366.2475891113281 5.0783804908860475e-05
v -147.84396362304688 -458.7463684082031 5.8870304201263934e-05
v -147.84396362304688 -366.2475891113281 110.00005340576172
v -147.84396362304688 -458.7463684082031 110.00006103515625
v -147.84396362304688 -458.7463684082031 110.00006103515625
v -145.34457397460938 -458.7463684082031 110.00006103515625
v -145.34457397460938 -366.2475891113281 110.00005340576172
v -147.84396362304688 -366.2475891113281 110.00005340576172
v -145.34454345703125 -373.7488098144531 45.00005340576172
v -142.84515380859375 -373.7488098144531 45.00005340576172
v -145.34454345703125 -373.7488098144531 75.00004577636719
v -142.84515380859375 -373.7488098144531 75.00004577636719
v -142.84515380859375 -373.7488098144531 45.00005340576172
v -142.84515380859375 -371.2464294433594 45.00005340576172
v -142.84515380859375 -373.7488098144531 75.00005340576172
v -142.84515380859375 -371.2464294433594 75.00005340576172
v -142.84515380859375 -371.2464294433594 45.00005340576172
v -145.34454345703125 -371.2464294433594 45.00005340576172
v -142.84515380859375 -371.2464294433594 75.00004577636719
v -145.34454345703125 -371.2464294433594 75.00004577636719
v -145.34454345703125 -371.2464294433594 45.00005340576172
v -145.34454345703125 -373.7488098144531 45.00005340576172
v -145.34454345703125 -371.2464294433594 75.00005340576172
v -145.34454345703125 -373.7488098144531 75.00005340576172
v -145.34454345703125 -373.7488098144531 75.00005340576172
v -142.84515380859375 -373.7488098144531 75.00005340576172
v -142.84515380859375 -371.2464294433594 75.00005340576172
v -145.34454345703125 -371.2464294433594 75.00005340576172
v -147.84396362304688 -353.7476501464844 4.969102155882865e-05
v -145.34457397460938 -353.7476501464844 4.980027733836323e-05
v -147.84396362304688 -353.7476501464844 110.00005340576172
v -145.34457397460938 -353.7476501464844 110.00005340576172
v -145.34457397460938 -353.7476501464844 4.980027733836323e-05
v -145.34457397460938 -261.2488708496094 4.171377804595977e-05
v -145.34457397460938 -353.7476501464844 110.00005340576172
v -145.34457397460938 -261.2488708496094 110.00004577636719
v -145.34457397460938 -261.2488708496094 4.171377804595977e-05
v -147.84396362304688 -261.2488708496094 4.160452226642519e-05
v -145.34457397460938 -261.2488708496094 110.00004577636719
v -147.84396362304688 -261.2488708496094 110.00004577636719
v -147.84396362304688 -261.2488708496094 4.160452226642519e-05
v -147.84396362304688 -353.7476501464844 4.969102155882865e-05
v -147.84396362304688 -261.2488708496094 110.00004577636719
v -147.84396362304688 -353.7476501464844 110.00005340576172
v -147.84396362304688 -353.7476501464844 110.00005340576172
v -145.34457397460938 -353.7476501464844 110.00005340576172
v -145.34457397460938 -261.2488708496094 110.00004577636719
v -147.84396362304688 -261.2488708496094 110.00004577636719
v -145.34454345703125 -348.7488098144531 45.00004959106445
v -142.84515380859375 -348.7488098144531 45.00004959106445
v -145.34454345703125 -348.7488098144531 75.00004577636719
v -142.84515380859375 -348.7488098144531 75.00004577636719
v -142.84515380859375 -348.7488098144531 45.00004959106445
v -142.84515380859375 -346.2464294433594 45.00004959106445
v -142.84515380859375 -348.7488098144531 75.00005340576172
v -142.84515380859375 -346.2464294433594 75.00005340576172
v -142.84515380859375 -346.2464294433594 45.00004959106445
v -145.34454345703125 -346.2464294433594 45.00004959106445
v -142.84515380859375 -346.2464294433594 75.00004577636719
v -145.34454345703125 -346.2464294433594 75.00004577636719
v -145.34454345703125 -346.2464294433594 45.00004959106445
v -145.34454345703125 -348.7488098144531 45.00004959106445
v -145.34454345703125 -346.2464294433594 75.00005340576172
v -145.34454345703125 -348.7488098144531 75.00005340576172
v -145.34454345703125 -348.7488098144531 75.00005340576172
v -142.84515380859375 -348.7488098144531 75.00005340576172
v -142.84515380859375 -346.2464294433594 75.00005340576172
v -145.34454345703125 -346.2464294433594 75.00005340576172
v -247.8255615234375 473.75177001953125 -2.7021607820643112e-05
v -247.8255615234375 416.2535705566406 -2.199495429522358e-05
v -247.8255615234375 473.75177001953125 109.99996948242188
v -247.8255615234375 416.2535705566406 109.9999771118164
v -247.8255615234375 416.2535705566406 -2.199495429522358e-05
v -147.8255615234375 416.2535705566406 -1.7623815438128076e-05
v -247.8255615234375 416.2535705566406 109.9999771118164
v -147.8255615234375 416.2535705566406 109.99998474121094
v -147.8255615234375 416.2535705566406 -1.7623815438128076e-05
v -147.8255615234375 473.75177001953125 -2.265046896354761e-05
v -147.8255615234375 416.2535705566406 109.99998474121094
v -147.8255615234375 473.75177001953125 109.9999771118164
v -247.8255615234375 473.75177001953125 109.99996948242188
v -247.8255615234375 416.2535705566406 109.9999771118164
v -147.8255615234375 473.75177001953125 109.9999771118164
v -147.8255615234375 416.2535705566406 109.99998474121094
v -145.32928466796875 413.7541809082031 109.99998474121094
v -145.32928466796875 473.75177001953125 109.9999771118164
v -145.32928466796875 413.7541809082031 114.99998474121094
v -145.32928466796875 473.75177001953125 114.9999771118164
v -250.32806396484375 473.75177001953125 109.99996948242188
v -250.32806396484375 413.7541809082031 109.9999771118164
v -250.32806396484375 473.75177001953125 114.99996948242188
v -250.32806396484375 413.7541809082031 114.9999771118164
v -250.32806396484375 413.7541809082031 109.9999771118164
v -145.32928466796875 413.7541809082031 109.99998474121094
v -250.32806396484375 413.7541809082031 114.9999771118164
v -145.32928466796875 413.7541809082031 114.99998474121094
v -250.32806396484375 413.7541809082031 109.9999771118164
v -145.32928466796875 473.75177001953125 109.9999771118164
v -145.32928466796875 413.7541809082031 109.99998474121094
v -250.32806396484375 473.75177001953125 109.99996948242188
v -250.32806396484375 413.7541809082031 114.9999771118164
v -145.32928466796875 413.7541809082031 114.99998474121094
v -145.32928466796875 473.75177001953125 114.9999771118164
v -250.32806396484375 473.75177001953125 114.99996948242188
v -250.324951171875 413.7542724609375 114.99998474121094
v -250.32266235351562 467.7588195800781 233.2147979736328
v -250.32376098632812 472.3747863769531 231.03289794921875
v -250.3238525390625 409.1383056640625 117.18187713623047
v -250.3238525390625 409.1383056640625 117.18187713623047
v -145.32513427734375 409.1352844238281 117.18223571777344
v -250.32266235351562 467.75885009765625 233.2147979736328
v -145.32400512695312 467.75579833984375 233.21514892578125
v -145.32516479492188 409.1352844238281 117.18223571777344
v -145.326171875 413.7513122558594 115.00045013427734
v -145.32400512695312 467.75579833984375 233.21514892578125
v -145.32498168945312 472.371826171875 231.03335571289062
v -145.32614135742188 413.7513122558594 115.00045013427734
v -250.32492065429688 413.7542724609375 114.99998474121094
v -145.32498168945312 472.371826171875 231.03335571289062
v -250.32373046875 472.3747863769531 231.03289794921875
v -250.324951171875 413.7542724609375 114.9999771118164
v -145.326171875 413.7513122558594 115.00043487548828
v -250.3238525390625 409.1383056640625 117.1818618774414
v -145.32516479492188 409.1352844238281 117.1822280883789
v -250.32376098632812 472.3747863769531 231.03289794921875
v -250.32266235351562 467.7588195800781 233.2147979736328
v -145.32498168945312 472.371826171875 231.03335571289062
v -145.323974609375 467.75579833984375 233.21514892578125
f 2 1 3
f 4 2 3
f 6 5 7
f 8 6 7
f 466 465 467
f 468 466 467
f 462 461 463
f 462 463 464
f 458 457 459
f 460 458 459
f 454 453 455
f 455 456 454
f 450 449 451
f 452 450 451
f 438 440 437
f 438 437 439
f 434 433 435
f 436 434 435
f 430 429 431
f 432 430 431
f 426 425 427
f 428 426 427
f 422 421 423
f 424 422 423
f 418 417 419
f 420 418 419
f 414 413 415
f 416 414 415
f 410 409 411
f 412 410 411
f 402 401 403
f 404 402 403
f 398 397 399
f 400 398 399
f 394 393 395
f 396 394 395
f 390 389 391
f 392 390 391
f 382 381 383
f 384 382 383
f 378 377 379
f 380 378 379
f 374 373 375
f 376 374 375
f 370 369 371
f 372 370 371
f 362 361 363
f 364 362 363
f 358 357 359
f 360 358 359
f 354 353 355
f 356 354 355
f 350 349 351
f 352 350 351
f 342 341 343
f 344 342 343
f 338 337 339
f 340 338 339
f 334 333 335
f 336 334 335
f 330 329 331
f 332 330 331
f 322 321 323
f 324 322 323
f 318 317 319
f 320 318 319
f 314 313 315
f 316 314 315
f 310 309 311
f 312 310 311
f 302 301 303
f 304 302 303
f 298 297 299
f 300 298 299
f 294 293 295
f 296 294 295
f 290 289 291
f 292 290 291
f 282 281 283
f 284 282 283
f 278 277 279
f 280 278 279
f 274 273 275
f 276 274 275
f 270 269 271
f 272 270 271
f 262 261 263
f 264 262 263
f 258 257 259
f 260 258 259
f 254 253 255
f 256 254 255
f 250 249 251
f 252 250 251
f 242 241 243
f 244 242 243
f 238 237 239
f 240 238 239
f 234 233 235
f 236 234 235
f 230 229 231
f 232 230 231
f 222 221 223
f 224 222 223
f 218 217 219
f 220 218 219
f 214 213 215
f 216 214 215
f 210 209 211
f 212 210 211
f 202 201 203
f 204 202 203
f 198 197 199
f 200 198 199
f 194 193 195
f 196 194 195
f 190 189 191
f 192 190 191
f 182 181 183
f 184 182 183
f 178 177 179
f 180 178 179
f 174 173 175
f 176 174 175
f 170 169 171
f 172 170 171
f 158 157 159
f 160 158 159
f 154 153 155
f 156 154 155
f 150 149 151
f 152 150 151
f 142 141 143
f 144 142 143
f 138 137 139
f 140 138 139
f 134 133 135
f 136 134 135
f 130 129 131
f 132 130 131
f 126 125 127
f 126 127 128
f 122 121 123
f 124 122 123
f 118 117 119
f 120 118 119
f 114 113 115
f 116 114 115
f 110 109 111
f 112 110 111
f 106 105 107
f 108 106 107
f 102 101 103
f 104 102 103
f 98 97 99
f 100 98 99
f 94 93 95
f 94 95 96
f 90 89 91
f 92 90 91
f 86 85 87
f 88 86 87
f 82 81 83
f 84 82 83
f 78 77 79
f 80 78 79
f 74 73 75
f 76 74 75
f 62 64 61
f 62 61 63
f 58 60 57
f 58 57 59
f 54 53 55
f 56 54 55
f 46 48 45
f 46 45 47
f 42 41 43
f 44 42 43
f 38 37 39
f 40 38 39
f 34 33 35
f 36 34 35
f 30 29 31
f 32 30 31
f 26 25 27
f 28 26 27
f 22 21 23
f 24 22 23
f 20 18 19
f 18 17 19
f 50 49 51
f 49 52 51
f 145 146 148
f 146 145 147
f 162 161 163
f 164 163 161
f 165 166 168
f 166 165 167
f 186 185 187
f 185 188 187
f 206 205 207
f 205 208 207
f 226 225 227
f 225 228 227
f 246 245 247
f 245 248 247
f 266 265 267
f 265 268 267
f 286 285 287
f 285 288 287
f 306 305 307
f 305 308 307
f 326 325 327
f 325 328 327
f 346 345 347
f 345 348 347
f 366 365 367
f 365 368 367
f 386 385 387
f 385 388 387
f 406 405 407
f 405 408 407
f 442 441 443
f 441 444 443
f 445 446 448
f 446 445 447
f 10 9 11
f 11 9 13
f 12 11 13
f 13 16 12
f 12 16 15
f 15 14 12
f 66 65 67
f 68 66 67
f 70 69 71
f 72 70 71
