# from AsylumDistrict_SWWing_Generic_0030_LOD_0.pskx
v 2150.0 -1.9849853515625 3.933864354621619e-05
v -2150.0 -1.98516845703125 -0.000148620325489901
v 2150.0 -597.9782104492188 800.000244140625
v -2150.0 -597.9783935546875 800.0000610351562
v -2150.0 -1202.0035400390625 -4.371138857095502e-05
v 2150.0 -1202.0032958984375 0.00014424757682718337
v -2150.0 -606.0103149414062 799.9998168945312
v 2150.0 -606.0101318359375 800.0
v -2150.0 -597.9783325195312 799.9999389648438
v -2150.0 -606.0101928710938 799.9999389648438
v 2150.0 -597.9781494140625 800.0001220703125
v 2150.0 -606.010009765625 800.0001220703125
v 2150.0 1197.9967041015625 -6.556708103744313e-05
v -2150.0 1197.9964599609375 -0.00025352605734951794
v 2150.0 602.005859375 799.9999389648438
v -2150.0 602.005615234375 799.999755859375
v -2150.0 -1.98516845703125 -0.000148620325489901
v 2150.0 -1.9849853515625 3.933864354621619e-05
v -2150.0 594.0068359375 799.9999389648438
v 2150.0 594.007080078125 800.0001220703125
v -2150.0 602.005615234375 799.9998168945312
v -2150.0 594.0068359375 799.9998168945312
v 2150.0 602.005859375 800.0
v 2150.0 594.007080078125 800.0
v 2141.12548828125 -599.82421875 800.0001220703125
v -2150.0 -599.824462890625 799.9999389648438
v 2141.12548828125 -599.82421875 840.0000610351562
v -2150.0 -599.8244018554688 839.9998779296875
v -2150.0 -599.824462890625 799.9999389648438
v -2150.0 -604.8232421875 799.9999389648438
v -2150.0 -599.8244018554688 839.9998779296875
v -2150.0 -604.8232421875 839.9998779296875
v -2150.0 -604.8232421875 799.9999389648438
v 2141.12548828125 -604.8230590820312 800.0001220703125
v -2150.0 -604.8232421875 839.9998779296875
v 2141.12548828125 -604.8230590820312 840.0000610351562
v 2141.12548828125 -604.8230590820312 800.0001220703125
v 2141.12548828125 -599.82421875 800.0001220703125
v 2141.12548828125 -604.8230590820312 840.0000610351562
v 2141.12548828125 -599.82421875 840.0000610351562
v 2141.12548828125 600.4443359375 800.0
v -2150.0 600.444091796875 799.9998168945312
v 2141.12548828125 600.4443359375 839.9999389648438
v -2150.0 600.444091796875 839.999755859375
v -2150.0 600.444091796875 799.9998168945312
v -2150.0 595.4453125 799.9998168945312
v -2150.0 600.444091796875 839.999755859375
v -2150.0 595.4453125 839.999755859375
v -2150.0 595.4453125 799.9998168945312
v 2141.12548828125 595.445556640625 800.0
v -2150.0 595.4453125 839.999755859375
v 2141.12548828125 595.445556640625 839.9999389648438
v 2141.12548828125 595.445556640625 800.0
v 2141.12548828125 600.4443359375 800.0
v 2141.12548828125 595.445556640625 839.9999389648438
v 2141.12548828125 600.4443359375 839.9999389648438
v -1323.808349609375 935.393798828125 356.1537780761719
v -1323.808349609375 935.393798828125 353.1537780761719
v -1323.80615234375 1199.794677734375 -0.1199275404214859
v -1323.80615234375 1199.794677734375 -3.119924545288086
v -1323.80615234375 1199.794677734375 -3.119924545288086
v -1406.83837890625 1199.794677734375 -3.1199281215667725
v -1323.80615234375 1199.794677734375 -0.1199275404214859
v -1406.83837890625 1199.794677734375 -0.1199311688542366
v -1406.840576171875 935.393798828125 353.1537780761719
v -1406.83837890625 1199.794677734375 -0.1199311688542366
v -1406.83837890625 1199.794677734375 -3.1199281215667725
v -1406.840576171875 935.393798828125 356.1537780761719
v -1406.840576171875 935.393798828125 353.1537780761719
v -1323.808349609375 935.393798828125 353.1537780761719
v -1406.840576171875 935.393798828125 356.1537780761719
v -1323.808349609375 935.393798828125 356.1537780761719
v -1406.840576171875 935.393798828125 356.1537780761719
v -1323.808349609375 935.393798828125 356.1537780761719
v -1323.80615234375 1199.794677734375 -0.1199275404214859
v -1406.83837890625 1199.794677734375 -0.1199311688542366
v -1612.3154296875 935.3936767578125 356.1537780761719
v -1612.3154296875 935.3936767578125 353.1537780761719
v -1612.313232421875 1199.7945556640625 -0.1199401468038559
v -1612.313232421875 1199.7945556640625 -3.1199371814727783
v -1612.313232421875 1199.7945556640625 -3.1199371814727783
v -1695.345458984375 1199.7945556640625 -3.119940757751465
v -1612.313232421875 1199.7945556640625 -0.1199401468038559
v -1695.345458984375 1199.7945556640625 -0.1199437752366066
v -1695.34765625 935.3936767578125 353.1537780761719
v -1695.345458984375 1199.7945556640625 -0.1199437752366066
v -1695.345458984375 1199.7945556640625 -3.119940757751465
v -1695.34765625 935.3936767578125 356.1537780761719
v -1695.34765625 935.3936767578125 353.1537780761719
v -1612.3154296875 935.3936767578125 353.1537780761719
v -1695.34765625 935.3936767578125 356.1537780761719
v -1612.3154296875 935.3936767578125 356.1537780761719
v -1695.34765625 935.3936767578125 356.1537780761719
v -1612.3154296875 935.3936767578125 356.1537780761719
v -1612.313232421875 1199.7945556640625 -0.1199401468038559
v -1695.345458984375 1199.7945556640625 -0.1199437752366066
v -709.8389282226562 1207.988037109375 -99.99978637695312
v -2150.0 1207.9879150390625 -100.00025177001953
v -709.8389282226562 1207.988037109375 -49.999786376953125
v -2150.0 1207.9879150390625 -50.00025177001953
v -2150.0 1159.4466552734375 -100.000244140625
v -709.8389282226562 1207.988037109375 -99.99978637695312
v -709.8389282226562 1159.44677734375 -99.9999771118164
v -2150.0 1207.9879150390625 -100.00025177001953
v -709.8389282226562 1234.44677734375 -50.30978775024414
v -2150.0 1234.4466552734375 -50.310054779052734
v -709.8389282226562 1234.44677734375 -0.3097921907901764
v -2150.0 1234.4466552734375 -0.31005480885505676
v -2150.0 1159.4466552734375 -50.31005096435547
v -709.8389282226562 1234.44677734375 -50.30978775024414
v -709.8389282226562 1159.44677734375 -50.309783935546875
v -2150.0 1234.4466552734375 -50.310054779052734
v -709.8389282226562 1234.4139404296875 -20.461193084716797
v -2150.0 1240.813720703125 -17.261455535888672
v -709.8389282226562 1240.8138427734375 -17.261192321777344
v -2150.0 1234.413818359375 -20.461456298828125
v -709.8389282226562 1240.8138427734375 -17.261192321777344
v -2150.0 1242.8936767578125 -12.78145694732666
v -709.8389282226562 1242.893798828125 -12.781194686889648
v -2150.0 1240.813720703125 -17.261455535888672
v -709.8389282226562 1242.893798828125 -12.781194686889648
v -2150.0 1249.2938232421875 -10.861455917358398
v -709.8389282226562 1249.2939453125 -10.86119270324707
v -2150.0 1242.8936767578125 -12.78145694732666
v -709.8389282226562 1249.2939453125 -10.86119270324707
v -2150.0 1249.2938232421875 -8.1414155960083
v -709.8389282226562 1249.2939453125 -8.141152381896973
v -2150.0 1249.2938232421875 -10.861455917358398
v -709.8389282226562 1249.2939453125 -8.141152381896973
v -2150.0 1242.8048095703125 -6.141374588012695
v -709.8389282226562 1242.804931640625 -6.141112327575684
v -2150.0 1249.2938232421875 -8.1414155960083
v -709.8389282226562 1242.804931640625 -6.141112327575684
v -2150.0 1241.2049560546875 -2.1413755416870117
v -709.8389282226562 1241.205078125 -2.141112804412842
v -2150.0 1242.8048095703125 -6.141374588012695
v -709.8389282226562 1241.205078125 -2.141112804412842
v -2150.0 1234.420166015625 -0.30137935280799866
v -709.8389282226562 1234.4202880859375 -0.3011137545108795
v -2150.0 1241.2049560546875 -2.1413755416870117
v -709.8389282226562 1234.4139404296875 -20.461193084716797
v -709.8389282226562 1240.8138427734375 -17.261192321777344
v -709.8389282226562 1242.893798828125 -12.781194686889648
v -709.8389282226562 1249.2939453125 -10.86119270324707
v -709.8389282226562 1249.2939453125 -8.141152381896973
v -709.8389282226562 1242.804931640625 -6.141112327575684
v -709.8389282226562 1241.205078125 -2.141112804412842
v -709.8389282226562 1234.4202880859375 -0.3011137545108795
v -2150.0 1242.8936767578125 -12.78145694732666
v -2150.0 1240.813720703125 -17.261455535888672
v -2150.0 1234.413818359375 -20.461456298828125
v -2150.0 1249.2938232421875 -8.1414155960083
v -2150.0 1249.2938232421875 -10.861455917358398
v -2150.0 1242.8048095703125 -6.141374588012695
v -2150.0 1234.420166015625 -0.30137935280799866
v -2150.0 1241.2049560546875 -2.1413755416870117
v -709.8389282226562 1234.4139404296875 -50.46118927001953
v -2150.0 1240.813720703125 -47.26145935058594
v -709.8389282226562 1240.8138427734375 -47.26119613647461
v -2150.0 1234.413818359375 -50.46146011352539
v -709.8389282226562 1240.8138427734375 -47.26119613647461
v -2150.0 1242.8936767578125 -42.781455993652344
v -709.8389282226562 1242.893798828125 -42.78119659423828
v -2150.0 1240.813720703125 -47.26145935058594
v -709.8389282226562 1242.893798828125 -42.78119659423828
v -2150.0 1249.2938232421875 -40.86145782470703
v -709.8389282226562 1249.2939453125 -40.8611946105957
v -2150.0 1242.8936767578125 -42.781455993652344
v -709.8389282226562 1249.2939453125 -40.8611946105957
v -2150.0 1249.2938232421875 -38.14141845703125
v -709.8389282226562 1249.2939453125 -38.141151428222656
v -2150.0 1249.2938232421875 -40.86145782470703
v -709.8389282226562 1249.2939453125 -38.141151428222656
v -2150.0 1242.8048095703125 -36.14137649536133
v -709.8389282226562 1242.804931640625 -36.14111328125
v -2150.0 1249.2938232421875 -38.14141845703125
v -709.8389282226562 1242.804931640625 -36.14111328125
v -2150.0 1241.2049560546875 -32.141380310058594
v -709.8389282226562 1241.205078125 -32.14111328125
v -2150.0 1242.8048095703125 -36.14137649536133
v -709.8389282226562 1241.205078125 -32.14111328125
v -2150.0 1234.420166015625 -30.301382064819336
v -709.8389282226562 1234.4202880859375 -30.301118850708008
v -2150.0 1241.2049560546875 -32.141380310058594
v -709.8389282226562 1234.4139404296875 -50.46118927001953
v -709.8389282226562 1240.8138427734375 -47.26119613647461
v -709.8389282226562 1242.893798828125 -42.78119659423828
v -709.8389282226562 1249.2939453125 -40.8611946105957
v -709.8389282226562 1249.2939453125 -38.141151428222656
v -709.8389282226562 1242.804931640625 -36.14111328125
v -709.8389282226562 1241.205078125 -32.14111328125
v -709.8389282226562 1234.4202880859375 -30.301118850708008
v -2150.0 1242.8936767578125 -42.781455993652344
v -2150.0 1240.813720703125 -47.26145935058594
v -2150.0 1234.413818359375 -50.46146011352539
v -2150.0 1249.2938232421875 -38.14141845703125
v -2150.0 1249.2938232421875 -40.86145782470703
v -2150.0 1242.8048095703125 -36.14137649536133
v -2150.0 1234.420166015625 -30.301382064819336
v -2150.0 1241.2049560546875 -32.141380310058594
v -2150.0 1159.4466552734375 -0.31004858016967773
v -709.8389282226562 1159.44677734375 -0.3097856342792511
v -709.8389282226562 1234.44677734375 -0.3097921907901764
v -2150.0 1234.4466552734375 -0.310055136680603
v 2138.739013671875 1234.4468994140625 -50.30966567993164
v 1365.81787109375 1234.4442138671875 -50.30990219116211
v 2138.739013671875 1234.4468994140625 -0.3096676766872406
v 1365.81787109375 1234.4442138671875 -0.3099011480808258
v 1365.81787109375 1159.4442138671875 -50.309898376464844
v 2138.739013671875 1234.4468994140625 -50.30966567993164
v 2138.739013671875 1159.4468994140625 -50.309661865234375
v 1365.81787109375 1234.4442138671875 -50.30990219116211
v 2138.739013671875 1234.4140625 -20.461069107055664
v 1365.81787109375 1240.8114013671875 -17.261301040649414
v 2138.739013671875 1240.81396484375 -17.26106834411621
v 1365.81787109375 1234.411376953125 -20.461301803588867
v 2138.739013671875 1240.81396484375 -17.26106834411621
v 1365.81787109375 1242.891357421875 -12.781303405761719
v 2138.739013671875 1242.8939208984375 -12.7810697555542
v 1365.81787109375 1240.8114013671875 -17.261301040649414
v 2138.739013671875 1242.8939208984375 -12.7810697555542
v 1365.81787109375 1249.291259765625 -10.861302375793457
v 2138.739013671875 1249.2940673828125 -10.861067771911621
v 1365.81787109375 1242.891357421875 -12.781303405761719
v 2138.739013671875 1249.2940673828125 -10.861067771911621
v 1365.81787109375 1249.291259765625 -8.14126205444336
v 2138.739013671875 1249.2940673828125 -8.141027450561523
v 1365.81787109375 1249.291259765625 -10.861302375793457
v 2138.739013671875 1249.2940673828125 -8.141027450561523
v 1365.81787109375 1242.8023681640625 -6.141221046447754
v 2138.739013671875 1242.8050537109375 -6.140987873077393
v 1365.81787109375 1249.291259765625 -8.14126205444336
v 2138.739013671875 1242.8050537109375 -6.140987873077393
v 1365.81787109375 1241.202392578125 -2.141221761703491
v 2138.739013671875 1241.2052001953125 -2.1409881114959717
v 1365.81787109375 1242.8023681640625 -6.141221046447754
v 2138.739013671875 1241.2052001953125 -2.1409881114959717
v 1365.81787109375 1234.417724609375 -0.3012256920337677
v 2138.739013671875 1234.42041015625 -0.3009892404079437
v 1365.81787109375 1241.202392578125 -2.141221761703491
v 2138.739013671875 1234.4140625 -20.461069107055664
v 2138.739013671875 1240.81396484375 -17.26106834411621
v 2138.739013671875 1242.8939208984375 -12.7810697555542
v 2138.739013671875 1249.2940673828125 -10.861067771911621
v 2138.739013671875 1249.2940673828125 -8.141027450561523
v 2138.739013671875 1242.8050537109375 -6.140987873077393
v 2138.739013671875 1241.2052001953125 -2.1409881114959717
v 2138.739013671875 1234.42041015625 -0.3009892404079437
v 1365.81787109375 1242.891357421875 -12.781303405761719
v 1365.81787109375 1240.8114013671875 -17.261301040649414
v 1365.81787109375 1234.411376953125 -20.461301803588867
v 1365.81787109375 1249.291259765625 -8.14126205444336
v 1365.81787109375 1249.291259765625 -10.861302375793457
v 1365.81787109375 1242.8023681640625 -6.141221046447754
v 1365.81787109375 1234.417724609375 -0.3012256920337677
v 1365.81787109375 1241.202392578125 -2.141221761703491
v 2138.739013671875 1234.4140625 -50.46106719970703
v 1365.81787109375 1240.8114013671875 -47.26130676269531
v 2138.739013671875 1240.81396484375 -47.26107406616211
v 1365.81787109375 1234.411376953125 -50.461307525634766
v 2138.739013671875 1240.81396484375 -47.26107406616211
v 1365.81787109375 1242.891357421875 -42.78130340576172
v 2138.739013671875 1242.8939208984375 -42.78107452392578
v 1365.81787109375 1240.8114013671875 -47.26130676269531
v 2138.739013671875 1242.8939208984375 -42.78107452392578
v 1365.81787109375 1249.291259765625 -40.861305236816406
v 2138.739013671875 1249.2940673828125 -40.8610725402832
v 1365.81787109375 1242.891357421875 -42.78130340576172
v 2138.739013671875 1249.2940673828125 -40.8610725402832
v 1365.81787109375 1249.291259765625 -38.141265869140625
v 2138.739013671875 1249.2940673828125 -38.141029357910156
v 1365.81787109375 1249.291259765625 -40.861305236816406
v 2138.739013671875 1249.2940673828125 -38.141029357910156
v 1365.81787109375 1242.8023681640625 -36.1412239074707
v 2138.739013671875 1242.8050537109375 -36.1409912109375
v 1365.81787109375 1249.291259765625 -38.141265869140625
v 2138.739013671875 1242.8050537109375 -36.1409912109375
v 1365.81787109375 1241.202392578125 -32.14122772216797
v 2138.739013671875 1241.2052001953125 -32.1409912109375
v 1365.81787109375 1242.8023681640625 -36.1412239074707
v 2138.739013671875 1241.2052001953125 -32.1409912109375
v 1365.81787109375 1234.417724609375 -30.301227569580078
v 2138.739013671875 1234.42041015625 -30.300994873046875
v 1365.81787109375 1241.202392578125 -32.14122772216797
v 2138.739013671875 1234.4140625 -50.46106719970703
v 2138.739013671875 1240.81396484375 -47.26107406616211
v 2138.739013671875 1242.8939208984375 -42.78107452392578
v 2138.739013671875 1249.2940673828125 -40.8610725402832
v 2138.739013671875 1249.2940673828125 -38.141029357910156
v 2138.739013671875 1242.8050537109375 -36.1409912109375
v 2138.739013671875 1241.2052001953125 -32.1409912109375
v 2138.739013671875 1234.42041015625 -30.300994873046875
v 1365.81787109375 1242.891357421875 -42.78130340576172
v 1365.81787109375 1240.8114013671875 -47.26130676269531
v 1365.81787109375 1234.411376953125 -50.461307525634766
v 1365.81787109375 1249.291259765625 -38.141265869140625
v 1365.81787109375 1249.291259765625 -40.861305236816406
v 1365.81787109375 1242.8023681640625 -36.1412239074707
v 1365.81787109375 1234.417724609375 -30.301227569580078
v 1365.81787109375 1241.202392578125 -32.14122772216797
v 2141.12548828125 1197.9903564453125 -2520.000244140625
v 1309.985595703125 1197.9903564453125 -2520.000244140625
v 2141.12548828125 1197.9906005859375 -170.00013732910156
v 1309.9853515625 1197.9906005859375 -170.00018310546875
v 1309.985595703125 -1202.0096435546875 -2520.0
v 2141.125732421875 -1202.0096435546875 -2520.0
v 1309.985595703125 -1202.009521484375 -169.99996948242188
v 2141.12548828125 -1202.0093994140625 -169.9999237060547
v 2141.12548828125 1197.957763671875 -115.15166473388672
v 1309.9853515625 1204.357666015625 -111.95174407958984
v 2141.12548828125 1204.357666015625 -111.95170593261719
v 1309.9853515625 1197.957763671875 -115.15170288085938
v 2141.12548828125 1204.357666015625 -111.95170593261719
v 1309.9853515625 1206.4376220703125 -107.47176361083984
v 2141.12548828125 1206.4376220703125 -107.47172546386719
v 1309.9853515625 1204.357666015625 -111.95174407958984
v 2141.12548828125 1206.4376220703125 -107.47172546386719
v 1309.9853515625 1212.8377685546875 -105.55182647705078
v 2141.12548828125 1212.8377685546875 -105.55178833007812
v 1309.9853515625 1206.4376220703125 -107.47176361083984
v 2141.12548828125 1212.8377685546875 -105.55178833007812
v 1309.9853515625 1212.8377685546875 -102.83175659179688
v 2141.12548828125 1212.8377685546875 -102.83171844482422
v 1309.9853515625 1212.8377685546875 -105.55182647705078
v 2141.12548828125 1212.8377685546875 -102.83171844482422
v 1309.9853515625 1206.3487548828125 -100.83171081542969
v 2141.12548828125 1206.3487548828125 -100.83167266845703
v 1309.9853515625 1212.8377685546875 -102.83175659179688
v 2141.12548828125 1206.3487548828125 -100.83167266845703
v 1309.9853515625 1204.7489013671875 -96.83161926269531
v 2141.12548828125 1204.7489013671875 -96.83158111572266
v 1309.9853515625 1206.3487548828125 -100.83171081542969
v 2141.12548828125 1204.7489013671875 -96.83158111572266
v 1309.9853515625 1197.964111328125 -94.99179077148438
v 2141.12548828125 1197.964111328125 -94.99175262451172
v 1309.9853515625 1204.7489013671875 -96.83161926269531
v 1309.985595703125 -1201.9766845703125 -115.1514892578125
v 2141.12548828125 -1208.3765869140625 -111.95149230957031
v 1309.985595703125 -1208.3765869140625 -111.95153045654297
v 2141.12548828125 -1201.9765625 -115.15145111083984
v 1309.985595703125 -1208.3765869140625 -111.95153045654297
v 2141.12548828125 -1210.45654296875 -107.47151184082031
v 1309.985595703125 -1210.45654296875 -107.47154998779297
v 2141.12548828125 -1208.3765869140625 -111.95149230957031
v 1309.985595703125 -1210.45654296875 -107.47154998779297
v 2141.12548828125 -1216.8565673828125 -105.55157470703125
v 1309.985595703125 -1216.856689453125 -105.5516128540039
v 2141.12548828125 -1210.45654296875 -107.47151184082031
v 1309.985595703125 -1216.856689453125 -105.5516128540039
v 2141.12548828125 -1216.8565673828125 -102.83150482177734
v 1309.985595703125 -1216.856689453125 -102.83154296875
v 2141.12548828125 -1216.8565673828125 -105.55157470703125
v 1309.985595703125 -1216.856689453125 -102.83154296875
v 2141.12548828125 -1210.36767578125 -100.83145904541016
v 1309.985595703125 -1210.36767578125 -100.83149719238281
v 2141.12548828125 -1216.8565673828125 -102.83150482177734
v 1309.985595703125 -1210.36767578125 -100.83149719238281
v 2141.12548828125 -1208.7677001953125 -96.83136749267578
v 1309.985595703125 -1208.767822265625 -96.83140563964844
v 2141.12548828125 -1210.36767578125 -100.83145904541016
v 1309.985595703125 -1208.767822265625 -96.83140563964844
v 2141.12548828125 -1201.98291015625 -94.99153900146484
v 1309.985595703125 -1201.98291015625 -94.9915771484375
v 2141.12548828125 -1208.7677001953125 -96.83136749267578
v 2141.12548828125 1197.957763671875 -115.15166473388672
v 2141.12548828125 1204.357666015625 -111.95170593261719
v 2141.12548828125 1206.4376220703125 -107.47172546386719
v 2141.12548828125 1212.8377685546875 -105.55178833007812
v 2141.12548828125 1212.8377685546875 -102.83171844482422
v 2141.12548828125 1206.3487548828125 -100.83167266845703
v 2141.12548828125 1204.7489013671875 -96.83158111572266
v 2141.12548828125 1197.964111328125 -94.99175262451172
v 1309.9853515625 1206.4376220703125 -107.47176361083984
v 1309.9853515625 1204.357666015625 -111.95174407958984
v 1309.9853515625 1197.957763671875 -115.15170288085938
v 1309.9853515625 1212.8377685546875 -102.83175659179688
v 1309.9853515625 1212.8377685546875 -105.55182647705078
v 1309.9853515625 1206.3487548828125 -100.83171081542969
v 1309.9853515625 1197.964111328125 -94.99179077148438
v 1309.9853515625 1204.7489013671875 -96.83161926269531
v 1309.985595703125 -1201.9766845703125 -115.1514892578125
v 1309.985595703125 -1208.3765869140625 -111.95153045654297
v 1309.985595703125 -1210.45654296875 -107.47154998779297
v 1309.985595703125 -1216.856689453125 -105.5516128540039
v 1309.985595703125 -1216.856689453125 -102.83154296875
v 1309.985595703125 -1210.36767578125 -100.83149719238281
v 1309.985595703125 -1208.767822265625 -96.83140563964844
v 1309.985595703125 -1201.98291015625 -94.9915771484375
v 2141.12548828125 -1210.45654296875 -107.47151184082031
v 2141.12548828125 -1208.3765869140625 -111.95149230957031
v 2141.12548828125 -1201.9765625 -115.15145111083984
v 2141.12548828125 -1216.8565673828125 -102.83150482177734
v 2141.12548828125 -1216.8565673828125 -105.55157470703125
v 2141.12548828125 -1210.36767578125 -100.83145904541016
v 2141.12548828125 -1201.98291015625 -94.99153900146484
v 2141.12548828125 -1208.7677001953125 -96.83136749267578
v 2141.12548828125 1197.957763671875 -190.1516571044922
v 1309.9853515625 1204.357666015625 -186.9517364501953
v 2141.12548828125 1204.357666015625 -186.95169067382812
v 1309.9853515625 1197.957763671875 -190.15170288085938
v 2141.12548828125 1204.357666015625 -186.95169067382812
v 1309.9853515625 1206.4376220703125 -182.4717559814453
v 2141.12548828125 1206.4376220703125 -182.47171020507812
v 1309.9853515625 1204.357666015625 -186.9517364501953
v 2141.12548828125 1206.4376220703125 -182.47171020507812
v 1309.9853515625 1212.8377685546875 -180.5518341064453
v 2141.12548828125 1212.8377685546875 -180.55178833007812
v 1309.9853515625 1206.4376220703125 -182.4717559814453
v 2141.12548828125 1212.8377685546875 -180.55178833007812
v 1309.9853515625 1212.8377685546875 -177.83175659179688
v 2141.12548828125 1212.8377685546875 -177.8317108154297
v 1309.9853515625 1212.8377685546875 -180.5518341064453
v 2141.12548828125 1212.8377685546875 -177.8317108154297
v 1309.9853515625 1206.3487548828125 -175.8317108154297
v 2141.12548828125 1206.3487548828125 -175.8316650390625
v 1309.9853515625 1212.8377685546875 -177.83175659179688
v 2141.12548828125 1206.3487548828125 -175.8316650390625
v 1309.9853515625 1204.7489013671875 -171.8316192626953
v 2141.12548828125 1204.7489013671875 -171.83157348632812
v 1309.9853515625 1206.3487548828125 -175.8317108154297
v 2141.12548828125 1204.7489013671875 -171.83157348632812
v 1309.9853515625 1197.964111328125 -169.99179077148438
v 2141.12548828125 1197.964111328125 -169.9917449951172
v 1309.9853515625 1204.7489013671875 -171.8316192626953
v 1309.985595703125 -1201.9766845703125 -190.1514892578125
v 2141.12548828125 -1208.3765869140625 -186.95147705078125
v 1309.985595703125 -1208.3765869140625 -186.95152282714844
v 2141.12548828125 -1201.9766845703125 -190.1514434814453
v 1309.985595703125 -1208.3765869140625 -186.95152282714844
v 2141.12548828125 -1210.45654296875 -182.47149658203125
v 1309.985595703125 -1210.45654296875 -182.47154235839844
v 2141.12548828125 -1208.3765869140625 -186.95147705078125
v 1309.985595703125 -1210.45654296875 -182.47154235839844
v 2141.12548828125 -1216.8565673828125 -180.55157470703125
v 1309.985595703125 -1216.856689453125 -180.55162048339844
v 2141.12548828125 -1210.45654296875 -182.47149658203125
v 1309.985595703125 -1216.856689453125 -180.55162048339844
v 2141.12548828125 -1216.8565673828125 -177.8314971923828
v 1309.985595703125 -1216.856689453125 -177.83154296875
v 2141.12548828125 -1216.8565673828125 -180.55157470703125
v 1309.985595703125 -1216.856689453125 -177.83154296875
v 2141.12548828125 -1210.36767578125 -175.83145141601562
v 1309.985595703125 -1210.36767578125 -175.8314971923828
v 2141.12548828125 -1216.8565673828125 -177.8314971923828
v 1309.985595703125 -1210.36767578125 -175.8314971923828
v 2141.12548828125 -1208.7677001953125 -171.83135986328125
v 1309.985595703125 -1208.767822265625 -171.83140563964844
v 2141.12548828125 -1210.36767578125 -175.83145141601562
v 1309.985595703125 -1208.767822265625 -171.83140563964844
v 2141.12548828125 -1201.98291015625 -169.9915313720703
v 1309.985595703125 -1201.98291015625 -169.9915771484375
v 2141.12548828125 -1208.7677001953125 -171.83135986328125
v 2141.12548828125 1197.957763671875 -190.1516571044922
v 2141.12548828125 1204.357666015625 -186.95169067382812
v 2141.12548828125 1206.4376220703125 -182.47171020507812
v 2141.12548828125 1212.8377685546875 -180.55178833007812
v 2141.12548828125 1212.8377685546875 -177.8317108154297
v 2141.12548828125 1206.3487548828125 -175.8316650390625
v 2141.12548828125 1204.7489013671875 -171.83157348632812
v 2141.12548828125 1197.964111328125 -169.9917449951172
v 1309.9853515625 1206.4376220703125 -182.4717559814453
v 1309.9853515625 1204.357666015625 -186.9517364501953
v 1309.9853515625 1197.957763671875 -190.15170288085938
v 1309.9853515625 1212.8377685546875 -177.83175659179688
v 1309.9853515625 1212.8377685546875 -180.5518341064453
v 1309.9853515625 1206.3487548828125 -175.8317108154297
v 1309.9853515625 1197.964111328125 -169.99179077148438
v 1309.9853515625 1204.7489013671875 -171.8316192626953
v 1309.985595703125 -1201.9766845703125 -190.1514892578125
v 1309.985595703125 -1208.3765869140625 -186.95152282714844
v 1309.985595703125 -1210.45654296875 -182.47154235839844
v 1309.985595703125 -1216.856689453125 -180.55162048339844
v 1309.985595703125 -1216.856689453125 -177.83154296875
v 1309.985595703125 -1210.36767578125 -175.8314971923828
v 1309.985595703125 -1208.767822265625 -171.83140563964844
v 1309.985595703125 -1201.98291015625 -169.9915771484375
v 2141.12548828125 -1210.45654296875 -182.47149658203125
v 2141.12548828125 -1208.3765869140625 -186.95147705078125
v 2141.12548828125 -1201.9766845703125 -190.1514434814453
v 2141.12548828125 -1216.8565673828125 -177.8314971923828
v 2141.12548828125 -1216.8565673828125 -180.55157470703125
v 2141.12548828125 -1210.36767578125 -175.83145141601562
v 2141.12548828125 -1201.98291015625 -169.9915313720703
v 2141.12548828125 -1208.7677001953125 -171.83135986328125
v 2141.12548828125 1197.95751953125 -2530.15185546875
v 1309.985595703125 1204.357421875 -2526.951904296875
v 2141.12548828125 1204.357421875 -2526.951904296875
v 1309.985595703125 1197.95751953125 -2530.15185546875
v 2141.12548828125 1204.357421875 -2526.951904296875
v 1309.985595703125 1206.4373779296875 -2522.471923828125
v 2141.12548828125 1206.4373779296875 -2522.471923828125
v 1309.985595703125 1204.357421875 -2526.951904296875
v 2141.12548828125 1206.4373779296875 -2522.471923828125
v 1309.985595703125 1212.8375244140625 -2520.552001953125
v 2141.12548828125 1212.8375244140625 -2520.552001953125
v 1309.985595703125 1206.4373779296875 -2522.471923828125
v 2141.12548828125 1212.8375244140625 -2520.552001953125
v 1309.985595703125 1212.8375244140625 -2517.831787109375
v 2141.12548828125 1212.8375244140625 -2517.831787109375
v 1309.985595703125 1212.8375244140625 -2520.552001953125
v 2141.12548828125 1212.8375244140625 -2517.831787109375
v 1309.985595703125 1206.3485107421875 -2515.831787109375
v 2141.12548828125 1206.3485107421875 -2515.831787109375
v 1309.985595703125 1212.8375244140625 -2517.831787109375
v 2141.12548828125 1206.3485107421875 -2515.831787109375
v 1309.985595703125 1204.7486572265625 -2511.831787109375
v 2141.12548828125 1204.7486572265625 -2511.831787109375
v 1309.985595703125 1206.3485107421875 -2515.831787109375
v 2141.12548828125 1204.7486572265625 -2511.831787109375
v 1309.985595703125 1197.9638671875 -2509.99169921875
v 2141.12548828125 1197.9638671875 -2509.99169921875
v 1309.985595703125 1204.7486572265625 -2511.831787109375
v 1309.985595703125 -1201.976806640625 -2530.151611328125
v 2141.125732421875 -1208.376708984375 -2526.95166015625
v 1309.985595703125 -1208.3768310546875 -2526.95166015625
v 2141.125732421875 -1201.976806640625 -2530.151611328125
v 1309.985595703125 -1208.3768310546875 -2526.95166015625
v 2141.125732421875 -1210.456787109375 -2522.4716796875
v 1309.985595703125 -1210.456787109375 -2522.4716796875
v 2141.125732421875 -1208.376708984375 -2526.95166015625
v 1309.985595703125 -1210.456787109375 -2522.4716796875
v 2141.125732421875 -1216.8568115234375 -2520.5517578125
v 1309.985595703125 -1216.85693359375 -2520.5517578125
v 2141.125732421875 -1210.456787109375 -2522.4716796875
v 1309.985595703125 -1216.85693359375 -2520.5517578125
v 2141.125732421875 -1216.8568115234375 -2517.83154296875
v 1309.985595703125 -1216.85693359375 -2517.83154296875
v 2141.125732421875 -1216.8568115234375 -2520.5517578125
v 1309.985595703125 -1216.85693359375 -2517.83154296875
v 2141.125732421875 -1210.3677978515625 -2515.83154296875
v 1309.985595703125 -1210.367919921875 -2515.83154296875
v 2141.125732421875 -1216.8568115234375 -2517.83154296875
v 1309.985595703125 -1210.367919921875 -2515.83154296875
v 2141.125732421875 -1208.7679443359375 -2511.83154296875
v 1309.985595703125 -1208.7679443359375 -2511.83154296875
v 2141.125732421875 -1210.3677978515625 -2515.83154296875
v 1309.985595703125 -1208.7679443359375 -2511.83154296875
v 2141.125732421875 -1201.983154296875 -2509.991455078125
v 1309.985595703125 -1201.983154296875 -2509.991455078125
v 2141.125732421875 -1208.7679443359375 -2511.83154296875
v 2141.12548828125 1197.95751953125 -2530.15185546875
v 2141.12548828125 1204.357421875 -2526.951904296875
v 2141.12548828125 1206.4373779296875 -2522.471923828125
v 2141.12548828125 1212.8375244140625 -2520.552001953125
v 2141.12548828125 1212.8375244140625 -2517.831787109375
v 2141.12548828125 1206.3485107421875 -2515.831787109375
v 2141.12548828125 1204.7486572265625 -2511.831787109375
v 2141.12548828125 1197.9638671875 -2509.99169921875
v 1309.985595703125 1206.4373779296875 -2522.471923828125
v 1309.985595703125 1204.357421875 -2526.951904296875
v 1309.985595703125 1197.95751953125 -2530.15185546875
v 1309.985595703125 1212.8375244140625 -2517.831787109375
v 1309.985595703125 1212.8375244140625 -2520.552001953125
v 1309.985595703125 1206.3485107421875 -2515.831787109375
v 1309.985595703125 1197.9638671875 -2509.99169921875
v 1309.985595703125 1204.7486572265625 -2511.831787109375
v 1309.985595703125 -1201.976806640625 -2530.151611328125
v 1309.985595703125 -1208.3768310546875 -2526.95166015625
v 1309.985595703125 -1210.456787109375 -2522.4716796875
v 1309.985595703125 -1216.85693359375 -2520.5517578125
v 1309.985595703125 -1216.85693359375 -2517.83154296875
v 1309.985595703125 -1210.367919921875 -2515.83154296875
v 1309.985595703125 -1208.7679443359375 -2511.83154296875
v 1309.985595703125 -1201.983154296875 -2509.991455078125
v 2141.125732421875 -1210.456787109375 -2522.4716796875
v 2141.125732421875 -1208.376708984375 -2526.95166015625
v 2141.125732421875 -1201.976806640625 -2530.151611328125
v 2141.125732421875 -1216.8568115234375 -2517.83154296875
v 2141.125732421875 -1216.8568115234375 -2520.5517578125
v 2141.125732421875 -1210.3677978515625 -2515.83154296875
v 2141.125732421875 -1201.983154296875 -2509.991455078125
v 2141.125732421875 -1208.7679443359375 -2511.83154296875
v 2141.12548828125 1197.9576416015625 -800.1516723632812
v 1309.985595703125 1204.3575439453125 -796.9517822265625
v 2141.12548828125 1204.3575439453125 -796.9517211914062
v 1309.985595703125 1197.9576416015625 -800.1517333984375
v 2141.12548828125 1204.3575439453125 -796.9517211914062
v 1309.985595703125 1206.4375 -792.4718017578125
v 2141.12548828125 1206.4375 -792.4717407226562
v 1309.985595703125 1204.3575439453125 -796.9517822265625
v 2141.12548828125 1206.4375 -792.4717407226562
v 1309.985595703125 1212.837646484375 -790.5518798828125
v 2141.12548828125 1212.837646484375 -790.5518188476562
v 1309.985595703125 1206.4375 -792.4718017578125
v 2141.12548828125 1212.837646484375 -790.5518188476562
v 1309.985595703125 1212.837646484375 -787.831787109375
v 2141.12548828125 1212.837646484375 -787.8317260742188
v 1309.985595703125 1212.837646484375 -790.5518798828125
v 2141.12548828125 1212.837646484375 -787.8317260742188
v 1309.985595703125 1206.3486328125 -785.831787109375
v 2141.12548828125 1206.3486328125 -785.8317260742188
v 1309.985595703125 1212.837646484375 -787.831787109375
v 2141.12548828125 1206.3486328125 -785.8317260742188
v 1309.985595703125 1204.748779296875 -781.8316650390625
v 2141.12548828125 1204.748779296875 -781.8316040039062
v 1309.985595703125 1206.3486328125 -785.831787109375
v 2141.12548828125 1204.748779296875 -781.8316040039062
v 1309.985595703125 1197.9639892578125 -779.9918212890625
v 2141.12548828125 1197.9639892578125 -779.9917602539062
v 1309.985595703125 1204.748779296875 -781.8316650390625
v 1309.985595703125 -1201.9766845703125 -800.1514892578125
v 2141.12548828125 -1208.3765869140625 -796.9514770507812
v 1309.985595703125 -1208.376708984375 -796.9515380859375
v 2141.12548828125 -1201.9766845703125 -800.1514282226562
v 1309.985595703125 -1208.376708984375 -796.9515380859375
v 2141.12548828125 -1210.45654296875 -792.4714965820312
v 1309.985595703125 -1210.45654296875 -792.4715576171875
v 2141.12548828125 -1208.3765869140625 -796.9514770507812
v 1309.985595703125 -1210.45654296875 -792.4715576171875
v 2141.12548828125 -1216.856689453125 -790.5515747070312
v 1309.985595703125 -1216.856689453125 -790.5516357421875
v 2141.12548828125 -1210.45654296875 -792.4714965820312
v 1309.985595703125 -1216.856689453125 -790.5516357421875
v 2141.12548828125 -1216.856689453125 -787.8314819335938
v 1309.985595703125 -1216.856689453125 -787.83154296875
v 2141.12548828125 -1216.856689453125 -790.5515747070312
v 1309.985595703125 -1216.856689453125 -787.83154296875
v 2141.12548828125 -1210.36767578125 -785.8314819335938
v 1309.985595703125 -1210.36767578125 -785.83154296875
v 2141.12548828125 -1216.856689453125 -787.8314819335938
v 1309.985595703125 -1210.36767578125 -785.83154296875
v 2141.12548828125 -1208.767822265625 -781.8313598632812
v 1309.985595703125 -1208.767822265625 -781.8314208984375
v 2141.12548828125 -1210.36767578125 -785.8314819335938
v 1309.985595703125 -1208.767822265625 -781.8314208984375
v 2141.12548828125 -1201.98291015625 -779.9915161132812
v 1309.985595703125 -1201.9830322265625 -779.9915771484375
v 2141.12548828125 -1208.767822265625 -781.8313598632812
v 2141.12548828125 1197.9576416015625 -800.1516723632812
v 2141.12548828125 1204.3575439453125 -796.9517211914062
v 2141.12548828125 1206.4375 -792.4717407226562
v 2141.12548828125 1212.837646484375 -790.5518188476562
v 2141.12548828125 1212.837646484375 -787.8317260742188
v 2141.12548828125 1206.3486328125 -785.8317260742188
v 2141.12548828125 1204.748779296875 -781.8316040039062
v 2141.12548828125 1197.9639892578125 -779.9917602539062
v 1309.985595703125 1206.4375 -792.4718017578125
v 1309.985595703125 1204.3575439453125 -796.9517822265625
v 1309.985595703125 1197.9576416015625 -800.1517333984375
v 1309.985595703125 1212.837646484375 -787.831787109375
v 1309.985595703125 1212.837646484375 -790.5518798828125
v 1309.985595703125 1206.3486328125 -785.831787109375
v 1309.985595703125 1197.9639892578125 -779.9918212890625
v 1309.985595703125 1204.748779296875 -781.8316650390625
v 1309.985595703125 -1201.9766845703125 -800.1514892578125
v 1309.985595703125 -1208.376708984375 -796.9515380859375
v 1309.985595703125 -1210.45654296875 -792.4715576171875
v 1309.985595703125 -1216.856689453125 -790.5516357421875
v 1309.985595703125 -1216.856689453125 -787.83154296875
v 1309.985595703125 -1210.36767578125 -785.83154296875
v 1309.985595703125 -1208.767822265625 -781.8314208984375
v 1309.985595703125 -1201.9830322265625 -779.9915771484375
v 2141.12548828125 -1210.45654296875 -792.4714965820312
v 2141.12548828125 -1208.3765869140625 -796.9514770507812
v 2141.12548828125 -1201.9766845703125 -800.1514282226562
v 2141.12548828125 -1216.856689453125 -787.8314819335938
v 2141.12548828125 -1216.856689453125 -790.5515747070312
v 2141.12548828125 -1210.36767578125 -785.8314819335938
v 2141.12548828125 -1201.98291015625 -779.9915161132812
v 2141.12548828125 -1208.767822265625 -781.8313598632812
v 2141.12548828125 1197.9576416015625 -920.1515502929688
v 1309.985595703125 1204.3575439453125 -916.95166015625
v 2141.12548828125 1204.3575439453125 -916.9515991210938
v 1309.985595703125 1197.9576416015625 -920.151611328125
v 2141.12548828125 1204.3575439453125 -916.9515991210938
v 1309.985595703125 1206.4375 -912.4716796875
v 2141.12548828125 1206.4375 -912.4716186523438
v 1309.985595703125 1204.3575439453125 -916.95166015625
v 2141.12548828125 1206.4375 -912.4716186523438
v 1309.985595703125 1212.837646484375 -910.5517578125
v 2141.12548828125 1212.837646484375 -910.5516967773438
v 1309.985595703125 1206.4375 -912.4716796875
v 2141.12548828125 1212.837646484375 -910.5516967773438
v 1309.985595703125 1212.837646484375 -907.8316650390625
v 2141.12548828125 1212.837646484375 -907.8316040039062
v 1309.985595703125 1212.837646484375 -910.5517578125
v 2141.12548828125 1212.837646484375 -907.8316040039062
v 1309.985595703125 1206.3486328125 -905.8316650390625
v 2141.12548828125 1206.3486328125 -905.8316040039062
v 1309.985595703125 1212.837646484375 -907.8316650390625
v 2141.12548828125 1206.3486328125 -905.8316040039062
v 1309.985595703125 1204.748779296875 -901.83154296875
v 2141.12548828125 1204.748779296875 -901.8314819335938
v 1309.985595703125 1206.3486328125 -905.8316650390625
v 2141.12548828125 1204.748779296875 -901.8314819335938
v 1309.985595703125 1197.9639892578125 -899.99169921875
v 2141.12548828125 1197.9639892578125 -899.9916381835938
v 1309.985595703125 1204.748779296875 -901.83154296875
v 1309.985595703125 -1201.976806640625 -920.1513671875
v 2141.12548828125 -1208.376708984375 -916.9513549804688
v 1309.985595703125 -1208.376708984375 -916.951416015625
v 2141.12548828125 -1201.9766845703125 -920.1513061523438
v 1309.985595703125 -1208.376708984375 -916.951416015625
v 2141.12548828125 -1210.45654296875 -912.4713745117188
v 1309.985595703125 -1210.4566650390625 -912.471435546875
v 2141.12548828125 -1208.376708984375 -916.9513549804688
v 1309.985595703125 -1210.4566650390625 -912.471435546875
v 2141.12548828125 -1216.856689453125 -910.5514526367188
v 1309.985595703125 -1216.856689453125 -910.551513671875
v 2141.12548828125 -1210.45654296875 -912.4713745117188
v 1309.985595703125 -1216.856689453125 -910.551513671875
v 2141.12548828125 -1216.856689453125 -907.8313598632812
v 1309.985595703125 -1216.856689453125 -907.8314208984375
v 2141.12548828125 -1216.856689453125 -910.5514526367188
v 1309.985595703125 -1216.856689453125 -907.8314208984375
v 2141.12548828125 -1210.36767578125 -905.8313598632812
v 1309.985595703125 -1210.36767578125 -905.8314208984375
v 2141.12548828125 -1216.856689453125 -907.8313598632812
v 1309.985595703125 -1210.36767578125 -905.8314208984375
v 2141.12548828125 -1208.767822265625 -901.8312377929688
v 1309.985595703125 -1208.767822265625 -901.831298828125
v 2141.12548828125 -1210.36767578125 -905.8313598632812
v 1309.985595703125 -1208.767822265625 -901.831298828125
v 2141.12548828125 -1201.9830322265625 -899.9913940429688
v 1309.985595703125 -1201.9830322265625 -899.991455078125
v 2141.12548828125 -1208.767822265625 -901.8312377929688
v 2141.12548828125 1197.9576416015625 -920.1515502929688
v 2141.12548828125 1204.3575439453125 -916.9515991210938
v 2141.12548828125 1206.4375 -912.4716186523438
v 2141.12548828125 1212.837646484375 -910.5516967773438
v 2141.12548828125 1212.837646484375 -907.8316040039062
v 2141.12548828125 1206.3486328125 -905.8316040039062
v 2141.12548828125 1204.748779296875 -901.8314819335938
v 2141.12548828125 1197.9639892578125 -899.9916381835938
v 1309.985595703125 1206.4375 -912.4716796875
v 1309.985595703125 1204.3575439453125 -916.95166015625
v 1309.985595703125 1197.9576416015625 -920.151611328125
v 1309.985595703125 1212.837646484375 -907.8316650390625
v 1309.985595703125 1212.837646484375 -910.5517578125
v 1309.985595703125 1206.3486328125 -905.8316650390625
v 1309.985595703125 1197.9639892578125 -899.99169921875
v 1309.985595703125 1204.748779296875 -901.83154296875
v 1309.985595703125 -1201.976806640625 -920.1513671875
v 1309.985595703125 -1208.376708984375 -916.951416015625
v 1309.985595703125 -1210.4566650390625 -912.471435546875
v 1309.985595703125 -1216.856689453125 -910.551513671875
v 1309.985595703125 -1216.856689453125 -907.8314208984375
v 1309.985595703125 -1210.36767578125 -905.8314208984375
v 1309.985595703125 -1208.767822265625 -901.831298828125
v 1309.985595703125 -1201.9830322265625 -899.991455078125
v 2141.12548828125 -1210.45654296875 -912.4713745117188
v 2141.12548828125 -1208.376708984375 -916.9513549804688
v 2141.12548828125 -1201.9766845703125 -920.1513061523438
v 2141.12548828125 -1216.856689453125 -907.8313598632812
v 2141.12548828125 -1216.856689453125 -910.5514526367188
v 2141.12548828125 -1210.36767578125 -905.8313598632812
v 2141.12548828125 -1201.9830322265625 -899.9913940429688
v 2141.12548828125 -1208.767822265625 -901.8312377929688
v 2141.12548828125 1197.9576416015625 -1420.151611328125
v 1309.985595703125 1204.3575439453125 -1416.9515380859375
v 2141.12548828125 1204.3575439453125 -1416.9515380859375
v 1309.985595703125 1197.9576416015625 -1420.151611328125
v 2141.12548828125 1204.3575439453125 -1416.9515380859375
v 1309.985595703125 1206.4375 -1412.4715576171875
v 2141.12548828125 1206.4375 -1412.4715576171875
v 1309.985595703125 1204.3575439453125 -1416.9515380859375
v 2141.12548828125 1206.4375 -1412.4715576171875
v 1309.985595703125 1212.837646484375 -1410.551513671875
v 2141.12548828125 1212.837646484375 -1410.551513671875
v 1309.985595703125 1206.4375 -1412.4715576171875
v 2141.12548828125 1212.837646484375 -1410.551513671875
v 1309.985595703125 1212.837646484375 -1407.83154296875
v 2141.12548828125 1212.837646484375 -1407.83154296875
v 1309.985595703125 1212.837646484375 -1410.551513671875
v 2141.12548828125 1212.837646484375 -1407.83154296875
v 1309.985595703125 1206.3486328125 -1405.83154296875
v 2141.12548828125 1206.3486328125 -1405.83154296875
v 1309.985595703125 1212.837646484375 -1407.83154296875
v 2141.12548828125 1206.3486328125 -1405.83154296875
v 1309.985595703125 1204.748779296875 -1401.83154296875
v 2141.12548828125 1204.748779296875 -1401.83154296875
v 1309.985595703125 1206.3486328125 -1405.83154296875
v 2141.12548828125 1204.748779296875 -1401.83154296875
v 1309.985595703125 1197.9639892578125 -1399.991455078125
v 2141.12548828125 1197.9639892578125 -1399.991455078125
v 1309.985595703125 1204.748779296875 -1401.83154296875
v 1309.985595703125 -1201.976806640625 -1420.1514892578125
v 2141.12548828125 -1208.376708984375 -1416.951416015625
v 1309.985595703125 -1208.376708984375 -1416.951416015625
v 2141.12548828125 -1201.976806640625 -1420.1514892578125
v 1309.985595703125 -1208.376708984375 -1416.951416015625
v 2141.12548828125 -1210.4566650390625 -1412.471435546875
v 1309.985595703125 -1210.4566650390625 -1412.471435546875
v 2141.12548828125 -1208.376708984375 -1416.951416015625
v 1309.985595703125 -1210.4566650390625 -1412.471435546875
v 2141.12548828125 -1216.856689453125 -1410.5513916015625
v 1309.985595703125 -1216.856689453125 -1410.5513916015625
v 2141.12548828125 -1210.4566650390625 -1412.471435546875
v 1309.985595703125 -1216.856689453125 -1410.5513916015625
v 2141.12548828125 -1216.856689453125 -1407.8314208984375
v 1309.985595703125 -1216.856689453125 -1407.8314208984375
v 2141.12548828125 -1216.856689453125 -1410.5513916015625
v 1309.985595703125 -1216.856689453125 -1407.8314208984375
v 2141.12548828125 -1210.36767578125 -1405.8314208984375
v 1309.985595703125 -1210.3677978515625 -1405.8314208984375
v 2141.12548828125 -1216.856689453125 -1407.8314208984375
v 1309.985595703125 -1210.3677978515625 -1405.8314208984375
v 2141.12548828125 -1208.767822265625 -1401.8314208984375
v 1309.985595703125 -1208.767822265625 -1401.8314208984375
v 2141.12548828125 -1210.36767578125 -1405.8314208984375
v 1309.985595703125 -1208.767822265625 -1401.8314208984375
v 2141.12548828125 -1201.9830322265625 -1399.9913330078125
v 1309.985595703125 -1201.9830322265625 -1399.9913330078125
v 2141.12548828125 -1208.767822265625 -1401.8314208984375
v 2141.12548828125 1197.9576416015625 -1420.151611328125
v 2141.12548828125 1204.3575439453125 -1416.9515380859375
v 2141.12548828125 1206.4375 -1412.4715576171875
v 2141.12548828125 1212.837646484375 -1410.551513671875
v 2141.12548828125 1212.837646484375 -1407.83154296875
v 2141.12548828125 1206.3486328125 -1405.83154296875
v 2141.12548828125 1204.748779296875 -1401.83154296875
v 2141.12548828125 1197.9639892578125 -1399.991455078125
v 1309.985595703125 1206.4375 -1412.4715576171875
v 1309.985595703125 1204.3575439453125 -1416.9515380859375
v 1309.985595703125 1197.9576416015625 -1420.151611328125
v 1309.985595703125 1212.837646484375 -1407.83154296875
v 1309.985595703125 1212.837646484375 -1410.551513671875
v 1309.985595703125 1206.3486328125 -1405.83154296875
v 1309.985595703125 1197.9639892578125 -1399.991455078125
v 1309.985595703125 1204.748779296875 -1401.83154296875
v 1309.985595703125 -1201.976806640625 -1420.1514892578125
v 1309.985595703125 -1208.376708984375 -1416.951416015625
v 1309.985595703125 -1210.4566650390625 -1412.471435546875
v 1309.985595703125 -1216.856689453125 -1410.5513916015625
v 1309.985595703125 -1216.856689453125 -1407.8314208984375
v 1309.985595703125 -1210.3677978515625 -1405.8314208984375
v 1309.985595703125 -1208.767822265625 -1401.8314208984375
v 1309.985595703125 -1201.9830322265625 -1399.9913330078125
v 2141.12548828125 -1210.4566650390625 -1412.471435546875
v 2141.12548828125 -1208.376708984375 -1416.951416015625
v 2141.12548828125 -1201.976806640625 -1420.1514892578125
v 2141.12548828125 -1216.856689453125 -1407.8314208984375
v 2141.12548828125 -1216.856689453125 -1410.5513916015625
v 2141.12548828125 -1210.36767578125 -1405.8314208984375
v 2141.12548828125 -1201.9830322265625 -1399.9913330078125
v 2141.12548828125 -1208.767822265625 -1401.8314208984375
v 2141.12548828125 1197.9576416015625 -1540.151611328125
v 1309.985595703125 1204.3575439453125 -1536.9515380859375
v 2141.12548828125 1204.3575439453125 -1536.9515380859375
v 1309.985595703125 1197.9576416015625 -1540.151611328125
v 2141.12548828125 1204.3575439453125 -1536.9515380859375
v 1309.985595703125 1206.4375 -1532.4715576171875
v 2141.12548828125 1206.4375 -1532.4715576171875
v 1309.985595703125 1204.3575439453125 -1536.9515380859375
v 2141.12548828125 1206.4375 -1532.4715576171875
v 1309.985595703125 1212.837646484375 -1530.551513671875
v 2141.12548828125 1212.837646484375 -1530.551513671875
v 1309.985595703125 1206.4375 -1532.4715576171875
v 2141.12548828125 1212.837646484375 -1530.551513671875
v 1309.985595703125 1212.837646484375 -1527.83154296875
v 2141.12548828125 1212.837646484375 -1527.83154296875
v 1309.985595703125 1212.837646484375 -1530.551513671875
v 2141.12548828125 1212.837646484375 -1527.83154296875
v 1309.985595703125 1206.3486328125 -1525.83154296875
v 2141.12548828125 1206.3486328125 -1525.83154296875
v 1309.985595703125 1212.837646484375 -1527.83154296875
v 2141.12548828125 1206.3486328125 -1525.83154296875
v 1309.985595703125 1204.748779296875 -1521.83154296875
v 2141.12548828125 1204.748779296875 -1521.83154296875
v 1309.985595703125 1206.3486328125 -1525.83154296875
v 2141.12548828125 1204.748779296875 -1521.83154296875
v 1309.985595703125 1197.9639892578125 -1519.991455078125
v 2141.12548828125 1197.9639892578125 -1519.991455078125
v 1309.985595703125 1204.748779296875 -1521.83154296875
v 1309.985595703125 -1201.976806640625 -1540.1514892578125
v 2141.12548828125 -1208.376708984375 -1536.951416015625
v 1309.985595703125 -1208.376708984375 -1536.951416015625
v 2141.12548828125 -1201.976806640625 -1540.1514892578125
v 1309.985595703125 -1208.376708984375 -1536.951416015625
v 2141.12548828125 -1210.4566650390625 -1532.471435546875
v 1309.985595703125 -1210.4566650390625 -1532.471435546875
v 2141.12548828125 -1208.376708984375 -1536.951416015625
v 1309.985595703125 -1210.4566650390625 -1532.471435546875
v 2141.12548828125 -1216.856689453125 -1530.5513916015625
v 1309.985595703125 -1216.856689453125 -1530.5513916015625
v 2141.12548828125 -1210.4566650390625 -1532.471435546875
v 1309.985595703125 -1216.856689453125 -1530.5513916015625
v 2141.12548828125 -1216.856689453125 -1527.8314208984375
v 1309.985595703125 -1216.856689453125 -1527.8314208984375
v 2141.12548828125 -1216.856689453125 -1530.5513916015625
v 1309.985595703125 -1216.856689453125 -1527.8314208984375
v 2141.12548828125 -1210.36767578125 -1525.8314208984375
v 1309.985595703125 -1210.3677978515625 -1525.8314208984375
v 2141.12548828125 -1216.856689453125 -1527.8314208984375
v 1309.985595703125 -1210.3677978515625 -1525.8314208984375
v 2141.12548828125 -1208.767822265625 -1521.8314208984375
v 1309.985595703125 -1208.767822265625 -1521.8314208984375
v 2141.12548828125 -1210.36767578125 -1525.8314208984375
v 1309.985595703125 -1208.767822265625 -1521.8314208984375
v 2141.12548828125 -1201.9830322265625 -1519.9913330078125
v 1309.985595703125 -1201.9830322265625 -1519.9913330078125
v 2141.12548828125 -1208.767822265625 -1521.8314208984375
v 2141.12548828125 1197.9576416015625 -1540.151611328125
v 2141.12548828125 1204.3575439453125 -1536.9515380859375
v 2141.12548828125 1206.4375 -1532.4715576171875
v 2141.12548828125 1212.837646484375 -1530.551513671875
v 2141.12548828125 1212.837646484375 -1527.83154296875
v 2141.12548828125 1206.3486328125 -1525.83154296875
v 2141.12548828125 1204.748779296875 -1521.83154296875
v 2141.12548828125 1197.9639892578125 -1519.991455078125
v 1309.985595703125 1206.4375 -1532.4715576171875
v 1309.985595703125 1204.3575439453125 -1536.9515380859375
v 1309.985595703125 1197.9576416015625 -1540.151611328125
v 1309.985595703125 1212.837646484375 -1527.83154296875
v 1309.985595703125 1212.837646484375 -1530.551513671875
v 1309.985595703125 1206.3486328125 -1525.83154296875
v 1309.985595703125 1197.9639892578125 -1519.991455078125
v 1309.985595703125 1204.748779296875 -1521.83154296875
v 1309.985595703125 -1201.976806640625 -1540.1514892578125
v 1309.985595703125 -1208.376708984375 -1536.951416015625
v 1309.985595703125 -1210.4566650390625 -1532.471435546875
v 1309.985595703125 -1216.856689453125 -1530.5513916015625
v 1309.985595703125 -1216.856689453125 -1527.8314208984375
v 1309.985595703125 -1210.3677978515625 -1525.8314208984375
v 1309.985595703125 -1208.767822265625 -1521.8314208984375
v 1309.985595703125 -1201.9830322265625 -1519.9913330078125
v 2141.12548828125 -1210.4566650390625 -1532.471435546875
v 2141.12548828125 -1208.376708984375 -1536.951416015625
v 2141.12548828125 -1201.976806640625 -1540.1514892578125
v 2141.12548828125 -1216.856689453125 -1527.8314208984375
v 2141.12548828125 -1216.856689453125 -1530.5513916015625
v 2141.12548828125 -1210.36767578125 -1525.8314208984375
v 2141.12548828125 -1201.9830322265625 -1519.9913330078125
v 2141.12548828125 -1208.767822265625 -1521.8314208984375
v 2141.12548828125 1197.9576416015625 -2040.151611328125
v 1309.985595703125 1204.3575439453125 -2036.95166015625
v 2141.12548828125 1204.3575439453125 -2036.95166015625
v 1309.985595703125 1197.9576416015625 -2040.151611328125
v 2141.12548828125 1204.3575439453125 -2036.95166015625
v 1309.985595703125 1206.4375 -2032.4716796875
v 2141.12548828125 1206.4375 -2032.4716796875
v 1309.985595703125 1204.3575439453125 -2036.95166015625
v 2141.12548828125 1206.4375 -2032.4716796875
v 1309.985595703125 1212.837646484375 -2030.5517578125
v 2141.12548828125 1212.837646484375 -2030.5517578125
v 1309.985595703125 1206.4375 -2032.4716796875
v 2141.12548828125 1212.837646484375 -2030.5517578125
v 1309.985595703125 1212.837646484375 -2027.8316650390625
v 2141.12548828125 1212.837646484375 -2027.8316650390625
v 1309.985595703125 1212.837646484375 -2030.5517578125
v 2141.12548828125 1212.837646484375 -2027.8316650390625
v 1309.985595703125 1206.3486328125 -2025.83154296875
v 2141.12548828125 1206.3486328125 -2025.83154296875
v 1309.985595703125 1212.837646484375 -2027.8316650390625
v 2141.12548828125 1206.3486328125 -2025.83154296875
v 1309.985595703125 1204.748779296875 -2021.83154296875
v 2141.12548828125 1204.748779296875 -2021.83154296875
v 1309.985595703125 1206.3486328125 -2025.83154296875
v 2141.12548828125 1204.748779296875 -2021.83154296875
v 1309.985595703125 1197.9639892578125 -2019.99169921875
v 2141.12548828125 1197.9639892578125 -2019.99169921875
v 1309.985595703125 1204.748779296875 -2021.83154296875
v 1309.985595703125 -1201.976806640625 -2040.1514892578125
v 2141.12548828125 -1208.376708984375 -2036.9515380859375
v 1309.985595703125 -1208.376708984375 -2036.9515380859375
v 2141.12548828125 -1201.976806640625 -2040.1514892578125
v 1309.985595703125 -1208.376708984375 -2036.9515380859375
v 2141.12548828125 -1210.4566650390625 -2032.4715576171875
v 1309.985595703125 -1210.456787109375 -2032.4715576171875
v 2141.12548828125 -1208.376708984375 -2036.9515380859375
v 1309.985595703125 -1210.456787109375 -2032.4715576171875
v 2141.12548828125 -1216.856689453125 -2030.5516357421875
v 1309.985595703125 -1216.8568115234375 -2030.5516357421875
v 2141.12548828125 -1210.4566650390625 -2032.4715576171875
v 1309.985595703125 -1216.8568115234375 -2030.5516357421875
v 2141.12548828125 -1216.856689453125 -2027.83154296875
v 1309.985595703125 -1216.8568115234375 -2027.83154296875
v 2141.12548828125 -1216.856689453125 -2030.5516357421875
v 1309.985595703125 -1216.8568115234375 -2027.83154296875
v 2141.12548828125 -1210.3677978515625 -2025.8314208984375
v 1309.985595703125 -1210.3677978515625 -2025.8314208984375
v 2141.12548828125 -1216.856689453125 -2027.83154296875
v 1309.985595703125 -1210.3677978515625 -2025.8314208984375
v 2141.12548828125 -1208.7679443359375 -2021.8314208984375
v 1309.985595703125 -1208.7679443359375 -2021.8314208984375
v 2141.12548828125 -1210.3677978515625 -2025.8314208984375
v 1309.985595703125 -1208.7679443359375 -2021.8314208984375
v 2141.12548828125 -1201.983154296875 -2019.9915771484375
v 1309.985595703125 -1201.983154296875 -2019.9915771484375
v 2141.12548828125 -1208.7679443359375 -2021.8314208984375
v 2141.12548828125 1197.9576416015625 -2040.151611328125
v 2141.12548828125 1204.3575439453125 -2036.95166015625
v 2141.12548828125 1206.4375 -2032.4716796875
v 2141.12548828125 1212.837646484375 -2030.5517578125
v 2141.12548828125 1212.837646484375 -2027.8316650390625
v 2141.12548828125 1206.3486328125 -2025.83154296875
v 2141.12548828125 1204.748779296875 -2021.83154296875
v 2141.12548828125 1197.9639892578125 -2019.99169921875
v 1309.985595703125 1206.4375 -2032.4716796875
v 1309.985595703125 1204.3575439453125 -2036.95166015625
v 1309.985595703125 1197.9576416015625 -2040.151611328125
v 1309.985595703125 1212.837646484375 -2027.8316650390625
v 1309.985595703125 1212.837646484375 -2030.5517578125
v 1309.985595703125 1206.3486328125 -2025.83154296875
v 1309.985595703125 1197.9639892578125 -2019.99169921875
v 1309.985595703125 1204.748779296875 -2021.83154296875
v 1309.985595703125 -1201.976806640625 -2040.1514892578125
v 1309.985595703125 -1208.376708984375 -2036.9515380859375
v 1309.985595703125 -1210.456787109375 -2032.4715576171875
v 1309.985595703125 -1216.8568115234375 -2030.5516357421875
v 1309.985595703125 -1216.8568115234375 -2027.83154296875
v 1309.985595703125 -1210.3677978515625 -2025.8314208984375
v 1309.985595703125 -1208.7679443359375 -2021.8314208984375
v 1309.985595703125 -1201.983154296875 -2019.9915771484375
v 2141.12548828125 -1210.4566650390625 -2032.4715576171875
v 2141.12548828125 -1208.376708984375 -2036.9515380859375
v 2141.12548828125 -1201.976806640625 -2040.1514892578125
v 2141.12548828125 -1216.856689453125 -2027.83154296875
v 2141.12548828125 -1216.856689453125 -2030.5516357421875
v 2141.12548828125 -1210.3677978515625 -2025.8314208984375
v 2141.12548828125 -1201.983154296875 -2019.9915771484375
v 2141.12548828125 -1208.7679443359375 -2021.8314208984375
v 2141.12548828125 1197.95751953125 -2160.15185546875
v 1309.985595703125 1204.357421875 -2156.95166015625
v 2141.12548828125 1204.357421875 -2156.95166015625
v 1309.985595703125 1197.95751953125 -2160.15185546875
v 2141.12548828125 1204.357421875 -2156.95166015625
v 1309.985595703125 1206.4373779296875 -2152.4716796875
v 2141.12548828125 1206.4373779296875 -2152.4716796875
v 1309.985595703125 1204.357421875 -2156.95166015625
v 2141.12548828125 1206.4373779296875 -2152.4716796875
v 1309.985595703125 1212.8375244140625 -2150.5517578125
v 2141.12548828125 1212.8375244140625 -2150.5517578125
v 1309.985595703125 1206.4373779296875 -2152.4716796875
v 2141.12548828125 1212.8375244140625 -2150.5517578125
v 1309.985595703125 1212.8375244140625 -2147.831787109375
v 2141.12548828125 1212.8375244140625 -2147.831787109375
v 1309.985595703125 1212.8375244140625 -2150.5517578125
v 2141.12548828125 1212.8375244140625 -2147.831787109375
v 1309.985595703125 1206.3485107421875 -2145.831787109375
v 2141.12548828125 1206.3485107421875 -2145.831787109375
v 1309.985595703125 1212.8375244140625 -2147.831787109375
v 2141.12548828125 1206.3485107421875 -2145.831787109375
v 1309.985595703125 1204.7486572265625 -2141.831787109375
v 2141.12548828125 1204.7486572265625 -2141.831787109375
v 1309.985595703125 1206.3485107421875 -2145.831787109375
v 2141.12548828125 1204.7486572265625 -2141.831787109375
v 1309.985595703125 1197.9638671875 -2139.99169921875
v 2141.12548828125 1197.9638671875 -2139.99169921875
v 1309.985595703125 1204.7486572265625 -2141.831787109375
v 1309.985595703125 -1201.976806640625 -2160.151611328125
v 2141.12548828125 -1208.376708984375 -2156.951416015625
v 1309.985595703125 -1208.376708984375 -2156.951416015625
v 2141.12548828125 -1201.976806640625 -2160.151611328125
v 1309.985595703125 -1208.376708984375 -2156.951416015625
v 2141.12548828125 -1210.4566650390625 -2152.471435546875
v 1309.985595703125 -1210.456787109375 -2152.471435546875
v 2141.12548828125 -1208.376708984375 -2156.951416015625
v 1309.985595703125 -1210.456787109375 -2152.471435546875
v 2141.12548828125 -1216.856689453125 -2150.551513671875
v 1309.985595703125 -1216.8568115234375 -2150.551513671875
v 2141.12548828125 -1210.4566650390625 -2152.471435546875
v 1309.985595703125 -1216.8568115234375 -2150.551513671875
v 2141.12548828125 -1216.856689453125 -2147.83154296875
v 1309.985595703125 -1216.8568115234375 -2147.83154296875
v 2141.12548828125 -1216.856689453125 -2150.551513671875
v 1309.985595703125 -1216.8568115234375 -2147.83154296875
v 2141.12548828125 -1210.3677978515625 -2145.83154296875
v 1309.985595703125 -1210.3677978515625 -2145.83154296875
v 2141.12548828125 -1216.856689453125 -2147.83154296875
v 1309.985595703125 -1210.3677978515625 -2145.83154296875
v 2141.12548828125 -1208.7679443359375 -2141.83154296875
v 1309.985595703125 -1208.7679443359375 -2141.83154296875
v 2141.12548828125 -1210.3677978515625 -2145.83154296875
v 1309.985595703125 -1208.7679443359375 -2141.83154296875
v 2141.12548828125 -1201.983154296875 -2139.991455078125
v 1309.985595703125 -1201.983154296875 -2139.991455078125
v 2141.12548828125 -1208.7679443359375 -2141.83154296875
v 2141.12548828125 1197.95751953125 -2160.15185546875
v 2141.12548828125 1204.357421875 -2156.95166015625
v 2141.12548828125 1206.4373779296875 -2152.4716796875
v 2141.12548828125 1212.8375244140625 -2150.5517578125
v 2141.12548828125 1212.8375244140625 -2147.831787109375
v 2141.12548828125 1206.3485107421875 -2145.831787109375
v 2141.12548828125 1204.7486572265625 -2141.831787109375
v 2141.12548828125 1197.9638671875 -2139.99169921875
v 1309.985595703125 1206.4373779296875 -2152.4716796875
v 1309.985595703125 1204.357421875 -2156.95166015625
v 1309.985595703125 1197.95751953125 -2160.15185546875
v 1309.985595703125 1212.8375244140625 -2147.831787109375
v 1309.985595703125 1212.8375244140625 -2150.5517578125
v 1309.985595703125 1206.3485107421875 -2145.831787109375
v 1309.985595703125 1197.9638671875 -2139.99169921875
v 1309.985595703125 1204.7486572265625 -2141.831787109375
v 1309.985595703125 -1201.976806640625 -2160.151611328125
v 1309.985595703125 -1208.376708984375 -2156.951416015625
v 1309.985595703125 -1210.456787109375 -2152.471435546875
v 1309.985595703125 -1216.8568115234375 -2150.551513671875
v 1309.985595703125 -1216.8568115234375 -2147.83154296875
v 1309.985595703125 -1210.3677978515625 -2145.83154296875
v 1309.985595703125 -1208.7679443359375 -2141.83154296875
v 1309.985595703125 -1201.983154296875 -2139.991455078125
v 2141.12548828125 -1210.4566650390625 -2152.471435546875
v 2141.12548828125 -1208.376708984375 -2156.951416015625
v 2141.12548828125 -1201.976806640625 -2160.151611328125
v 2141.12548828125 -1216.856689453125 -2147.83154296875
v 2141.12548828125 -1216.856689453125 -2150.551513671875
v 2141.12548828125 -1210.3677978515625 -2145.83154296875
v 2141.12548828125 -1201.983154296875 -2139.991455078125
v 2141.12548828125 -1208.7679443359375 -2141.83154296875
v 2141.12548828125 1197.9903564453125 -2640.00048828125
v 1309.985595703125 1197.9903564453125 -2640.00048828125
v 1309.985595703125 -1202.009765625 -2640.000244140625
v 2141.125732421875 -1202.0096435546875 -2640.000244140625
v 2141.12548828125 1197.9906005859375 -6.59544748486951e-05
v 1309.9853515625 1197.9906005859375 -0.00010228475730400532
v 1309.985595703125 -1202.009521484375 0.0001075299151125364
v 2141.12548828125 -1202.0093994140625 0.00014386020484380424
v 1394.48486328125 -1234.447021484375 -49.732486724853516
v 2141.805419921875 -1234.44677734375 -49.73285675048828
v 1394.48486328125 -1234.447021484375 0.26751241087913513
v 2141.805419921875 -1234.44677734375 0.2667463719844818
v 1394.48486328125 -1201.292724609375 -49.73289108276367
v 2141.805419921875 -1201.29248046875 -49.73286056518555
v 1394.48486328125 -1234.447021484375 -49.732486724853516
v 2141.805419921875 -1234.44677734375 -49.73285675048828
v 1394.48486328125 -1234.4140625 -19.88389015197754
v 2141.805419921875 -1240.81396484375 -16.68465232849121
v 1394.48486328125 -1240.814208984375 -16.683887481689453
v 2141.805419921875 -1234.4139404296875 -19.884653091430664
v 1394.48486328125 -1240.814208984375 -16.683887481689453
v 2141.805419921875 -1242.8939208984375 -12.2046537399292
v 1394.48486328125 -1242.89404296875 -12.203887939453125
v 2141.805419921875 -1240.81396484375 -16.68465232849121
v 1394.48486328125 -1242.89404296875 -12.203887939453125
v 2141.805419921875 -1249.2939453125 -10.284651756286621
v 1394.48486328125 -1249.2940673828125 -10.28388500213623
v 2141.805419921875 -1242.8939208984375 -12.2046537399292
v 1394.48486328125 -1249.2940673828125 -10.28388500213623
v 2141.805419921875 -1249.2939453125 -7.564611434936523
v 1394.48486328125 -1249.2940673828125 -7.563845157623291
v 2141.805419921875 -1249.2939453125 -10.284651756286621
v 1394.48486328125 -1249.2940673828125 -7.563845157623291
v 2141.805419921875 -1242.804931640625 -5.564571857452393
v 1394.48486328125 -1242.80517578125 -5.563806056976318
v 2141.805419921875 -1249.2939453125 -7.564611434936523
v 1394.48486328125 -1242.80517578125 -5.563806056976318
v 2141.805419921875 -1241.205078125 -1.564573049545288
v 1394.48486328125 -1241.2052001953125 -1.5638070106506348
v 2141.805419921875 -1242.804931640625 -5.564571857452393
v 1394.48486328125 -1241.2052001953125 -1.5638070106506348
v 2141.805419921875 -1234.4202880859375 0.2754248082637787
v 1394.48486328125 -1234.42041015625 0.276190847158432
v 2141.805419921875 -1241.205078125 -1.564573049545288
v 1394.48486328125 -1234.4140625 -19.88389015197754
v 1394.48486328125 -1240.814208984375 -16.683887481689453
v 1394.48486328125 -1242.89404296875 -12.203887939453125
v 1394.48486328125 -1249.2940673828125 -10.28388500213623
v 1394.48486328125 -1249.2940673828125 -7.563845157623291
v 1394.48486328125 -1242.80517578125 -5.563806056976318
v 1394.48486328125 -1241.2052001953125 -1.5638070106506348
v 1394.48486328125 -1234.42041015625 0.276190847158432
v 2141.805419921875 -1242.8939208984375 -12.2046537399292
v 2141.805419921875 -1240.81396484375 -16.68465232849121
v 2141.805419921875 -1234.4139404296875 -19.884653091430664
v 2141.805419921875 -1249.2939453125 -7.564611434936523
v 2141.805419921875 -1249.2939453125 -10.284651756286621
v 2141.805419921875 -1242.804931640625 -5.564571857452393
v 2141.805419921875 -1234.4202880859375 0.2754248082637787
v 2141.805419921875 -1241.205078125 -1.564573049545288
v 1394.48486328125 -1234.4140625 -49.883888244628906
v 2141.805419921875 -1240.81396484375 -46.68465805053711
v 1394.48486328125 -1240.814208984375 -46.68388748168945
v 2141.805419921875 -1234.4139404296875 -49.88465881347656
v 1394.48486328125 -1240.814208984375 -46.68388748168945
v 2141.805419921875 -1242.8939208984375 -42.20465850830078
v 1394.48486328125 -1242.89404296875 -42.203887939453125
v 2141.805419921875 -1240.81396484375 -46.68465805053711
v 1394.48486328125 -1242.89404296875 -42.203887939453125
v 2141.805419921875 -1249.2939453125 -40.28465270996094
v 1394.48486328125 -1249.2940673828125 -40.28388214111328
v 2141.805419921875 -1242.8939208984375 -42.20465850830078
v 1394.48486328125 -1249.2940673828125 -40.28388214111328
v 2141.805419921875 -1249.2939453125 -37.564613342285156
v 1394.48486328125 -1249.2940673828125 -37.5638427734375
v 2141.805419921875 -1249.2939453125 -40.28465270996094
v 1394.48486328125 -1249.2940673828125 -37.5638427734375
v 2141.805419921875 -1242.804931640625 -35.5645751953125
v 1394.48486328125 -1242.80517578125 -35.56380844116211
v 2141.805419921875 -1249.2939453125 -37.564613342285156
v 1394.48486328125 -1242.80517578125 -35.56380844116211
v 2141.805419921875 -1241.205078125 -31.564573287963867
v 1394.48486328125 -1241.2052001953125 -31.56380844116211
v 2141.805419921875 -1242.804931640625 -35.5645751953125
v 1394.48486328125 -1241.2052001953125 -31.56380844116211
v 2141.805419921875 -1234.4202880859375 -29.724578857421875
v 1394.48486328125 -1234.42041015625 -29.723814010620117
v 2141.805419921875 -1241.205078125 -31.564573287963867
v 1394.48486328125 -1234.4140625 -49.883888244628906
v 1394.48486328125 -1240.814208984375 -46.68388748168945
v 1394.48486328125 -1242.89404296875 -42.203887939453125
v 1394.48486328125 -1249.2940673828125 -40.28388214111328
v 1394.48486328125 -1249.2940673828125 -37.5638427734375
v 1394.48486328125 -1242.80517578125 -35.56380844116211
v 1394.48486328125 -1241.2052001953125 -31.56380844116211
v 1394.48486328125 -1234.42041015625 -29.723814010620117
v 2141.805419921875 -1242.8939208984375 -42.20465850830078
v 2141.805419921875 -1240.81396484375 -46.68465805053711
v 2141.805419921875 -1234.4139404296875 -49.88465881347656
v 2141.805419921875 -1249.2939453125 -37.564613342285156
v 2141.805419921875 -1249.2939453125 -40.28465270996094
v 2141.805419921875 -1242.804931640625 -35.5645751953125
v 2141.805419921875 -1234.4202880859375 -29.724578857421875
v 2141.805419921875 -1241.205078125 -31.564573287963867
f 2 1 3
f 4 2 3
f 18 17 19
f 20 18 19
f 14 13 15
f 16 14 15
f 6 5 7
f 8 6 7
f 10 9 11
f 12 10 11
f 22 21 23
f 24 22 23
f 58 57 59
f 59 60 58
f 90 89 91
f 92 90 91
f 82 81 83
f 84 82 83
f 78 77 79
f 79 80 78
f 70 69 71
f 72 70 71
f 62 61 63
f 64 62 63
f 65 66 68
f 66 65 67
f 74 73 75
f 73 76 75
f 85 86 88
f 86 85 87
f 94 93 95
f 93 96 95
f 158 160 157
f 158 157 159
f 150 149 151
f 153 152 149
f 152 154 149
f 149 154 151
f 154 155 151
f 156 155 154
f 147 146 148
f 146 141 148
f 142 141 143
f 143 141 146
f 145 143 146
f 144 143 145
f 1154 1153 1155
f 1156 1155 1157
f 1157 1155 1158
f 1155 1153 1158
f 1158 1153 1160
f 1159 1158 1160
f 1212 1211 1210
f 1210 1211 1207
f 1206 1205 1207
f 1205 1210 1207
f 1208 1210 1205
f 1209 1208 1205
f 718 717 719
f 720 719 721
f 721 719 722
f 719 717 722
f 722 717 724
f 723 722 724
f 1203 1202 1204
f 1202 1197 1204
f 1198 1197 1199
f 1199 1197 1202
f 1201 1199 1202
f 1200 1199 1201
f 714 716 713
f 714 713 715
f 710 712 709
f 710 709 711
f 706 708 705
f 706 705 707
f 702 704 701
f 702 701 703
f 698 700 697
f 698 697 699
f 694 696 693
f 694 693 695
f 690 692 689
f 690 689 691
f 686 688 685
f 686 685 687
f 682 684 681
f 682 681 683
f 678 680 677
f 678 677 679
f 674 676 673
f 674 673 675
f 670 672 669
f 670 669 671
f 666 668 665
f 666 665 667
f 662 664 661
f 662 661 663
f 654 653 655
f 657 656 653
f 656 658 653
f 653 658 655
f 658 659 655
f 660 659 658
f 1168 1167 1166
f 1166 1167 1163
f 1162 1161 1163
f 1161 1166 1163
f 1164 1166 1161
f 1165 1164 1161
f 382 381 383
f 384 383 385
f 385 383 386
f 383 381 386
f 386 381 388
f 387 386 388
f 1100 1099 1098
f 1098 1099 1095
f 1094 1093 1095
f 1093 1098 1095
f 1096 1098 1093
f 1097 1096 1093
f 138 140 137
f 138 137 139
f 134 136 133
f 134 133 135
f 130 132 129
f 130 129 131
f 126 128 125
f 126 125 127
f 122 124 121
f 122 121 123
f 118 120 117
f 118 117 119
f 114 116 113
f 114 113 115
f 110 112 109
f 110 109 111
f 106 105 107
f 108 106 107
f 102 104 101
f 102 101 103
f 98 97 99
f 100 98 99
f 1194 1196 1193
f 1194 1193 1195
f 1190 1192 1189
f 1190 1189 1191
f 1186 1188 1185
f 1186 1185 1187
f 1182 1184 1181
f 1182 1181 1183
f 1178 1180 1177
f 1178 1177 1179
f 1174 1176 1173
f 1174 1173 1175
f 1170 1172 1169
f 1170 1169 1171
f 1150 1152 1149
f 1150 1149 1151
f 1146 1148 1145
f 1146 1145 1147
f 1142 1144 1141
f 1142 1141 1143
f 1138 1140 1137
f 1138 1137 1139
f 1134 1136 1133
f 1134 1133 1135
f 1130 1132 1129
f 1130 1129 1131
f 1126 1128 1125
f 1126 1125 1127
f 1122 1121 1123
f 1122 1123 1124
f 1118 1117 1119
f 1120 1118 1119
f 1114 1113 1115
f 1116 1114 1115
f 1110 1109 1111
f 1112 1110 1111
f 1106 1105 1107
f 1108 1106 1107
f 1102 1101 1103
f 1104 1102 1103
f 1078 1077 1079
f 1077 1082 1079
f 1080 1082 1077
f 1081 1080 1077
f 1084 1083 1082
f 1082 1083 1079
f 1091 1090 1092
f 1090 1085 1092
f 1086 1085 1087
f 1087 1085 1090
f 1089 1087 1090
f 1088 1087 1089
f 1066 1068 1065
f 1066 1065 1067
f 1062 1064 1061
f 1062 1061 1063
f 1058 1060 1057
f 1058 1057 1059
f 1054 1056 1053
f 1054 1053 1055
f 1050 1052 1049
f 1050 1049 1051
f 1046 1048 1045
f 1046 1045 1047
f 1042 1044 1041
f 1042 1041 1043
f 1038 1040 1037
f 1038 1037 1039
f 1034 1036 1033
f 1034 1033 1035
f 1030 1032 1029
f 1030 1029 1031
f 1026 1028 1025
f 1026 1025 1027
f 1022 1024 1021
f 1022 1021 1023
f 1018 1020 1017
f 1018 1017 1019
f 1014 1016 1013
f 1014 1013 1015
f 1006 1005 1007
f 1005 1010 1007
f 1008 1010 1005
f 1009 1008 1005
f 1012 1011 1010
f 1010 1011 1007
f 1075 1074 1076
f 1074 1069 1076
f 1070 1069 1071
f 1071 1069 1074
f 1073 1071 1074
f 1072 1071 1073
f 990 989 991
f 989 994 991
f 992 994 989
f 993 992 989
f 996 995 994
f 994 995 991
f 1003 1002 1004
f 1002 997 1004
f 998 997 999
f 999 997 1002
f 1001 999 1002
f 1000 999 1001
f 978 980 977
f 978 977 979
f 974 976 973
f 974 973 975
f 970 972 969
f 970 969 971
f 966 968 965
f 966 965 967
f 962 964 961
f 962 961 963
f 958 960 957
f 958 957 959
f 954 956 953
f 954 953 955
f 950 952 949
f 950 949 951
f 946 948 945
f 946 945 947
f 942 944 941
f 942 941 943
f 938 940 937
f 938 937 939
f 934 936 933
f 934 933 935
f 930 932 929
f 930 929 931
f 926 928 925
f 926 925 927
f 918 917 919
f 917 922 919
f 920 922 917
f 921 920 917
f 924 923 922
f 922 923 919
f 987 986 988
f 986 981 988
f 982 981 983
f 983 981 986
f 985 983 986
f 984 983 985
f 902 901 903
f 901 906 903
f 904 906 901
f 905 904 901
f 908 907 906
f 906 907 903
f 915 914 916
f 914 909 916
f 910 909 911
f 911 909 914
f 913 911 914
f 912 911 913
f 890 892 889
f 890 889 891
f 886 888 885
f 886 885 887
f 882 884 881
f 882 881 883
f 878 880 877
f 878 877 879
f 874 876 873
f 874 873 875
f 870 872 869
f 870 869 871
f 866 868 865
f 866 865 867
f 862 864 861
f 862 861 863
f 858 860 857
f 858 857 859
f 854 856 853
f 854 853 855
f 850 852 849
f 850 849 851
f 846 848 845
f 846 845 847
f 842 844 841
f 842 841 843
f 838 840 837
f 838 837 839
f 814 813 815
f 813 818 815
f 816 818 813
f 817 816 813
f 820 819 818
f 818 819 815
f 899 898 900
f 898 893 900
f 894 893 895
f 895 893 898
f 897 895 898
f 896 895 897
f 802 804 801
f 802 801 803
f 798 800 797
f 798 797 799
f 794 796 793
f 794 793 795
f 790 792 789
f 790 789 791
f 786 788 785
f 786 785 787
f 782 784 781
f 782 781 783
f 778 780 777
f 778 777 779
f 774 776 773
f 774 773 775
f 770 772 769
f 770 769 771
f 766 768 765
f 766 765 767
f 762 764 761
f 762 761 763
f 758 760 757
f 758 757 759
f 754 756 753
f 754 753 755
f 750 752 749
f 750 749 751
f 742 741 743
f 741 746 743
f 744 746 741
f 745 744 741
f 748 747 746
f 746 747 743
f 836 835 834
f 834 835 831
f 830 829 831
f 829 834 831
f 832 834 829
f 833 832 829
f 638 637 639
f 637 642 639
f 640 642 637
f 641 640 637
f 644 643 642
f 642 643 639
f 824 823 825
f 825 823 826
f 827 826 828
f 826 821 828
f 823 821 826
f 822 821 823
f 626 628 625
f 626 625 627
f 622 624 621
f 622 621 623
f 618 620 617
f 618 617 619
f 614 616 613
f 614 613 615
f 610 612 609
f 610 609 611
f 606 608 605
f 606 605 607
f 602 604 601
f 602 601 603
f 598 600 597
f 598 597 599
f 594 596 593
f 594 593 595
f 590 592 589
f 590 589 591
f 586 588 585
f 586 585 587
f 582 584 581
f 582 581 583
f 578 580 577
f 578 577 579
f 574 576 573
f 574 573 575
f 566 565 567
f 565 570 567
f 568 570 565
f 569 568 565
f 572 571 570
f 570 571 567
f 811 810 812
f 810 805 812
f 806 805 807
f 807 805 810
f 809 807 810
f 808 807 809
f 550 549 551
f 549 554 551
f 552 554 549
f 553 552 549
f 556 555 554
f 554 555 551
f 739 738 740
f 738 733 740
f 734 733 735
f 735 733 738
f 737 735 738
f 736 735 737
f 538 540 537
f 538 537 539
f 534 536 533
f 534 533 535
f 530 532 529
f 530 529 531
f 526 528 525
f 526 525 527
f 522 524 521
f 522 521 523
f 518 520 517
f 518 517 519
f 514 516 513
f 514 513 515
f 510 512 509
f 510 509 511
f 506 508 505
f 506 505 507
f 502 504 501
f 502 501 503
f 498 500 497
f 498 497 499
f 494 496 493
f 494 493 495
f 490 492 489
f 490 489 491
f 486 488 485
f 486 485 487
f 478 477 479
f 477 482 479
f 480 482 477
f 481 480 477
f 484 483 482
f 482 483 479
f 732 731 730
f 730 731 727
f 726 725 727
f 725 730 727
f 728 730 725
f 729 728 725
f 462 461 463
f 461 466 463
f 464 466 461
f 465 464 461
f 468 467 466
f 466 467 463
f 651 650 652
f 650 645 652
f 646 645 647
f 647 645 650
f 649 647 650
f 648 647 649
f 450 452 449
f 450 449 451
f 446 448 445
f 446 445 447
f 442 444 441
f 442 441 443
f 438 440 437
f 438 437 439
f 434 436 433
f 434 433 435
f 430 432 429
f 430 429 431
f 426 428 425
f 426 425 427
f 422 424 421
f 422 421 423
f 418 420 417
f 418 417 419
f 414 416 413
f 414 413 415
f 410 412 409
f 410 409 411
f 406 408 405
f 406 405 407
f 402 404 401
f 402 401 403
f 398 400 397
f 398 397 399
f 374 373 375
f 373 378 375
f 376 378 373
f 377 376 373
f 380 379 378
f 378 379 375
f 635 634 636
f 634 629 636
f 630 629 631
f 631 629 634
f 633 631 634
f 632 631 633
f 362 364 361
f 362 361 363
f 358 360 357
f 358 357 359
f 354 356 353
f 354 353 355
f 350 352 349
f 350 349 351
f 346 348 345
f 346 345 347
f 342 344 341
f 342 341 343
f 338 340 337
f 338 337 339
f 334 336 333
f 334 333 335
f 330 332 329
f 330 329 331
f 326 328 325
f 326 325 327
f 322 324 321
f 322 321 323
f 318 320 317
f 318 317 319
f 314 316 313
f 314 313 315
f 310 312 309
f 310 309 311
f 294 293 295
f 293 298 295
f 296 298 293
f 297 296 293
f 300 299 298
f 298 299 295
f 563 562 564
f 562 557 564
f 558 557 559
f 559 557 562
f 561 559 562
f 560 559 561
f 282 284 281
f 282 281 283
f 278 280 277
f 278 277 279
f 274 276 273
f 274 273 275
f 270 272 269
f 270 269 271
f 266 268 265
f 266 265 267
f 262 264 261
f 262 261 263
f 258 260 257
f 258 257 259
f 250 249 251
f 249 254 251
f 252 254 249
f 253 252 249
f 256 255 254
f 254 255 251
f 547 546 548
f 546 541 548
f 542 541 543
f 543 541 546
f 545 543 546
f 544 543 545
f 238 240 237
f 238 237 239
f 234 236 233
f 234 233 235
f 230 232 229
f 230 229 231
f 226 228 225
f 226 225 227
f 222 224 221
f 222 221 223
f 218 220 217
f 218 217 219
f 214 216 213
f 214 213 215
f 210 212 209
f 210 209 211
f 206 205 207
f 208 206 207
f 194 193 195
f 193 198 195
f 196 198 193
f 197 196 193
f 200 199 198
f 198 199 195
f 475 474 476
f 474 469 476
f 470 469 471
f 471 469 474
f 473 471 474
f 472 471 473
f 182 184 181
f 182 181 183
f 178 180 177
f 178 177 179
f 174 176 173
f 174 173 175
f 170 172 169
f 170 169 171
f 166 168 165
f 166 165 167
f 162 164 161
f 162 161 163
f 390 389 391
f 389 394 391
f 392 394 389
f 393 392 389
f 396 395 394
f 394 395 391
f 459 458 460
f 458 453 460
f 454 453 455
f 455 453 458
f 457 455 458
f 456 455 457
f 186 185 187
f 187 185 190
f 189 187 190
f 188 187 189
f 191 190 192
f 190 185 192
f 371 370 372
f 370 365 372
f 366 365 367
f 367 365 370
f 369 367 370
f 368 367 369
f 202 201 203
f 201 204 203
f 242 241 243
f 243 241 246
f 245 243 246
f 244 243 245
f 247 246 248
f 246 241 248
f 291 290 292
f 290 285 292
f 286 285 287
f 287 285 290
f 289 287 290
f 288 287 289
f 302 301 303
f 304 302 303
f 306 305 307
f 308 306 307
f 26 25 27
f 28 26 27
f 54 53 55
f 56 54 55
f 50 49 51
f 52 50 51
f 46 45 47
f 48 46 47
f 42 41 43
f 44 42 43
f 38 37 39
f 40 38 39
f 34 33 35
f 36 34 35
f 30 29 31
f 32 30 31
