v 1180.77197265625 1311.676025390625 6.189576424731058e-07
v 827.2197265625 1665.2281494140625 -4.574381455313414e-05
v 1180.77197265625 1311.676025390625 100.0
v 827.2196655273438 1665.2281494140625 99.99995422363281
v 827.2197265625 1665.228271484375 -4.574381819111295e-05
v 823.6552734375 1661.688232421875 -4.559014632832259e-05
v 827.2196655273438 1665.228271484375 99.99995422363281
v 823.6552734375 1661.688232421875 99.99995422363281
v 823.6552734375 1661.688232421875 -4.559014632832259e-05
v 1177.20751953125 1308.135986328125 7.726321200607345e-07
v 823.6552734375 1661.688232421875 99.99995422363281
v 1177.20751953125 1308.135986328125 100.0
v 1177.20751953125 1308.135986328125 7.726336548330437e-07
v 1180.77197265625 1311.676025390625 6.189575856296869e-07
v 1177.20751953125 1308.135986328125 99.99998474121094
v 1180.77197265625 1311.676025390625 99.99998474121094
v 827.2196655273438 1665.228271484375 99.99995422363281
v 1177.20751953125 1308.135986328125 100.0
v 1180.77197265625 1311.676025390625 100.0
v 823.6552734375 1661.688232421875 99.99995422363281
v 1141.84375 1343.499755859375 -3.864768586936407e-06
v 1124.16796875 1325.811767578125 -3.091063717874931e-06
v 1141.8436279296875 1343.499755859375 400.0
v 1124.16796875 1325.811767578125 400.0
v 1124.16796875 1325.811767578125 -3.0910634905012557e-06
v 1141.84375 1308.135986328125 -7.731668461019581e-07
v 1124.16796875 1325.811767578125 400.0
v 1141.84375 1308.135986328125 400.0
v 1141.84375 1308.135986328125 -7.731671871624712e-07
v 1159.53173828125 1325.811767578125 -1.5452673096660874e-06
v 1141.84375 1308.135986328125 400.0
v 1159.53173828125 1325.811767578125 400.0
v 1159.53173828125 1325.811767578125 -1.5452674233529251e-06
v 1141.84375 1343.499755859375 -3.864769041683758e-06
v 1159.53173828125 1325.811767578125 400.0
v 1141.8436279296875 1343.499755859375 400.0
v 1124.16796875 1325.811767578125 400.0
v 1141.84375 1308.135986328125 400.0
v 1141.8436279296875 1343.499755859375 400.0
v 1159.53173828125 1325.811767578125 400.0
v 593.845703125 795.477294921875 400.0000305175781
v 1141.85595703125 1343.487548828125 400.0
v 611.521484375 777.801513671875 400.0000305175781
v 1159.53173828125 1325.811767578125 400.0
v 1141.85595703125 1343.487548828125 400.0
v 593.8457641601562 795.4773559570312 400.0000305175781
v 1141.85595703125 1343.487548828125 425.0
v 593.8457641601562 795.4773559570312 425.0000305175781
v 611.521484375 777.801513671875 400.0000305175781
v 1159.5316162109375 1325.8118896484375 400.0
v 611.521484375 777.801513671875 425.0000305175781
v 1159.5316162109375 1325.8118896484375 425.0
v 1141.85595703125 1343.487548828125 400.0
v 1159.53173828125 1325.811767578125 425.0
v 1141.85595703125 1343.487548828125 425.0
v 593.845703125 795.477294921875 425.0000305175781
v 611.521484375 777.801513671875 425.0000305175781
v 1141.85595703125 1343.487548828125 425.0
v 1159.53173828125 1325.811767578125 425.0
v 1371.6533203125 1396.527099609375 425.0
v 682.23681640625 707.098388671875 425.0000305175781
v 982.7494506835938 1785.443115234375 424.9999694824219
v 293.32080078125 1096.002197265625 425.0
v 682.23681640625 707.098388671875 425.0000305175781
v 1371.6533203125 1396.527099609375 425.0
v 682.23681640625 707.098388671875 435.0000305175781
v 1371.6533203125 1396.527099609375 435.0
v 1371.6533203125 1396.527099609375 425.0
v 982.7494506835938 1785.443115234375 424.9999694824219
v 1371.6533203125 1396.527099609375 435.0
v 982.7494506835938 1785.443115234375 434.9999694824219
v 982.7494506835938 1785.443115234375 424.9999694824219
v 293.32080078125 1096.002197265625 425.0
v 982.7494506835938 1785.443115234375 434.9999694824219
v 293.32080078125 1096.002197265625 435.0
v 1371.6533203125 1396.527099609375 435.0
v 982.7494506835938 1785.443115234375 434.9999694824219
v 682.23681640625 707.098388671875 435.0000305175781
v 293.32080078125 1096.002197265625 435.0
v 1919.6636962890625 565.6800537109375 9.813398355618119e-05
v 1901.9879150390625 583.355712890625 9.5816096290946e-05
v 1919.66357421875 565.6801147460938 400.0000915527344
v 1901.98779296875 583.3557739257812 400.0000915527344
v 1901.9879150390625 583.355712890625 9.5816096290946e-05
v 1884.31201171875 565.6799926757812 9.658872295403853e-05
v 1901.98779296875 583.3557739257812 400.0000915527344
v 1884.31201171875 565.6800537109375 400.0000915527344
v 1884.31201171875 565.6799926757812 9.658872295403853e-05
v 1901.9879150390625 548.0042724609375 9.890661749523133e-05
v 1884.31201171875 565.6800537109375 400.0000915527344
v 1901.98779296875 548.0043334960938 400.0000915527344
v 1901.9879150390625 548.0042724609375 9.890661749523133e-05
v 1919.6636962890625 565.6800537109375 9.813398355618119e-05
v 1901.98779296875 548.0043334960938 400.0000915527344
v 1919.66357421875 565.6801147460938 400.0000915527344
v 1901.98779296875 583.3557739257812 400.0000915527344
v 1901.98779296875 548.0043334960938 400.0000915527344
v 1919.66357421875 565.6801147460938 400.0000915527344
v 1884.31201171875 565.6800537109375 400.0000915527344
v 1919.66357421875 565.6679077148438 400.0000915527344
v 1901.98779296875 547.9921264648438 400.0000915527344
v 1141.85595703125 1308.135986328125 400.0
v 1919.66357421875 565.6679077148438 400.0000915527344
v 1159.5316162109375 1325.8118896484375 400.0
v 1919.66357421875 565.6679077148438 425.0000915527344
v 1159.5316162109375 1325.8118896484375 425.0
v 1159.53173828125 1325.811767578125 400.0
v 1141.85595703125 1308.135986328125 400.0
v 1159.53173828125 1325.811767578125 425.0
v 1141.85595703125 1308.135986328125 425.0
v 1141.85595703125 1308.135986328125 400.0
v 1901.98779296875 547.9921264648438 400.0000915527344
v 1141.85595703125 1308.135986328125 425.0
v 1901.98779296875 547.9921264648438 425.0000915527344
v 1901.98779296875 547.9921264648438 400.0000915527344
v 1919.66357421875 565.6679077148438 400.0000915527344
v 1901.98779296875 547.9921264648438 425.0000915527344
v 1919.66357421875 565.6679077148438 425.0000915527344
v 1230.22265625 1255.120849609375 430.0000305175781
v 1212.546875 1237.445068359375 430.0000305175781
v 1619.138671875 866.2171020507812 430.0000915527344
v 1601.45068359375 848.5413208007812 430.0000915527344
v 1230.22265625 1255.120849609375 425.0
v 1619.138671875 866.2171020507812 425.00006103515625
v 1212.546875 1237.445068359375 425.0
v 1601.45068359375 848.5413208007812 425.00006103515625
v 1230.22265625 1255.120849609375 430.0000305175781
v 1212.546875 1237.445068359375 425.0
v 1212.546875 1237.445068359375 430.0000305175781
v 1230.22265625 1255.120849609375 425.0
v 1212.546875 1237.445068359375 430.0000305175781
v 1601.45068359375 848.5413208007812 425.00006103515625
v 1601.45068359375 848.5413208007812 430.0000915527344
v 1212.546875 1237.445068359375 425.0
v 1601.45068359375 848.5413208007812 430.0000915527344
v 1619.138671875 866.2171020507812 425.00006103515625
v 1619.138671875 866.2171020507812 430.0000915527344
v 1601.45068359375 848.5413208007812 425.00006103515625
v 1619.138671875 866.2171020507812 430.0000915527344
v 1230.22265625 1255.120849609375 425.0
v 1230.22265625 1255.120849609375 430.0000305175781
v 1619.138671875 866.2171020507812 425.00006103515625
v 1901.98779296875 547.9921264648438 425.0000915527344
v 1919.66357421875 565.6679077148438 425.0000915527344
v 1141.85595703125 1308.135986328125 425.0
v 1283.2744140625 530.3284301757812 425.00006103515625
v 1654.50244140625 901.5442504882812 425.00006103515625
v 1583.787109375 229.803466796875 425.0001220703125
v 1955.02734375 601.0316162109375 425.0000915527344
v 1654.50244140625 901.5442504882812 425.00006103515625
v 1283.2744140625 530.3284912109375 425.00006103515625
v 1654.50244140625 901.5442504882812 435.00006103515625
v 1283.2744140625 530.3284912109375 435.00006103515625
v 1283.2744140625 530.3284301757812 425.00006103515625
v 1583.787109375 229.803466796875 425.0001220703125
v 1283.2744140625 530.3284301757812 435.00006103515625
v 1583.787109375 229.803466796875 435.0001220703125
v 1583.787109375 229.803466796875 425.0001220703125
v 1955.02734375 601.031494140625 425.0000915527344
v 1583.787109375 229.803466796875 435.0001220703125
v 1955.02734375 601.031494140625 435.0000915527344
v 1955.02734375 601.0316162109375 425.0000915527344
v 1654.50244140625 901.5442504882812 425.00006103515625
v 1955.02734375 601.0316162109375 435.0000915527344
v 1654.50244140625 901.5442504882812 435.00006103515625
v 1283.2744140625 530.3284301757812 435.00006103515625
v 1583.787109375 229.803466796875 435.0001220703125
v 1654.50244140625 901.5442504882812 435.00006103515625
v 1955.02734375 601.0316162109375 435.0000915527344
v 841.3311157226562 1644.012451171875 -4.3272244511172175e-05
v 823.6552734375 1626.336669921875 -4.249961057212204e-05
v 841.3310546875 1644.012451171875 399.99993896484375
v 823.6552734375 1626.336669921875 399.99993896484375
v 823.6552734375 1626.336669921875 -4.249961057212204e-05
v 841.3311157226562 1608.660888671875 -4.0181708754971623e-05
v 823.6552734375 1626.336669921875 399.99993896484375
v 841.3310546875 1608.660888671875 399.99993896484375
v 841.3311157226562 1608.660888671875 -4.0181708754971623e-05
v 859.0068359375 1626.336669921875 -4.0954349969979376e-05
v 841.3310546875 1608.660888671875 399.99993896484375
v 859.0067749023438 1626.336669921875 399.9999694824219
v 859.0068359375 1626.336669921875 -4.0954349969979376e-05
v 841.3311157226562 1644.012451171875 -4.3272244511172175e-05
v 859.0067749023438 1626.336669921875 399.9999694824219
v 841.3310546875 1644.012451171875 399.99993896484375
v 823.6552734375 1626.336669921875 399.99993896484375
v 841.3310546875 1608.660888671875 399.99993896484375
v 841.3310546875 1644.012451171875 399.99993896484375
v 859.0067749023438 1626.336669921875 399.9999694824219
v 293.32080078125 1096.002197265625 400.0
v 841.3310546875 1644.012451171875 399.99993896484375
v 310.99658203125 1078.326416015625 400.0
v 859.0067749023438 1626.336669921875 399.9999694824219
v 293.32080078125 1096.002197265625 400.0
v 841.3310546875 1644.012451171875 424.99993896484375
v 310.99658203125 1078.326416015625 400.0
v 859.0067138671875 1626.3367919921875 399.9999694824219
v 310.99658203125 1078.326416015625 425.0
v 859.0067138671875 1626.3367919921875 424.9999694824219
v 859.0067749023438 1626.336669921875 424.9999694824219
v 841.3310546875 1644.012451171875 424.99993896484375
v 293.32080078125 1096.002197265625 425.0
v 310.99658203125 1078.326416015625 425.0
v 841.3310546875 1644.012451171875 424.99993896484375
v 859.0067749023438 1626.336669921875 424.9999694824219
v 1601.462890625 883.868408203125 5.640807648887858e-05
v 1583.787109375 866.1927490234375 5.71807031519711e-05
v 1601.462890625 883.868408203125 400.00006103515625
v 1583.787109375 866.1927490234375 400.00006103515625
v 1583.787109375 866.1927490234375 5.71807031519711e-05
v 1601.462890625 848.516845703125 5.9498604969121516e-05
v 1583.787109375 866.1927490234375 400.00006103515625
v 1601.462890625 848.5169067382812 400.00006103515625
v 1601.462890625 848.516845703125 5.9498604969121516e-05
v 1619.138671875 866.1927490234375 5.872597103007138e-05
v 1601.462890625 848.5169067382812 400.00006103515625
v 1619.138671875 866.1927490234375 400.00006103515625
v 1619.138671875 866.1927490234375 5.872597103007138e-05
v 1601.462890625 883.868408203125 5.640807648887858e-05
v 1619.138671875 866.1927490234375 400.00006103515625
v 1601.462890625 883.868408203125 400.00006103515625
v 1583.787109375 866.1927490234375 400.00006103515625
v 1601.462890625 848.5169067382812 400.00006103515625
v 1601.462890625 883.868408203125 400.00006103515625
v 1619.138671875 866.1927490234375 400.00006103515625
v -1067.86083984375 -159.1126708984375 3.090851896558888e-05
v -1120.88818359375 -212.1400146484375 3.322640623082407e-05
v -1067.86083984375 -159.1126708984375 400.0000305175781
v -1120.88818359375 -212.1400146484375 400.0000305175781
v -1120.88818359375 -212.1400146484375 3.322640623082407e-05
v -1050.18505859375 -282.8431396484375 4.2498013499425724e-05
v -1120.88818359375 -212.1400146484375 400.0000305175781
v -1050.18505859375 -282.8431396484375 400.00006103515625
v -1050.18505859375 -282.8431396484375 4.2498013499425724e-05
v -997.15771484375 -229.8157958984375 4.0180104406317696e-05
v -1050.18505859375 -282.8431396484375 400.00006103515625
v -997.15771484375 -229.8157958984375 400.0000305175781
v -997.15771484375 -229.8157958984375 4.0180104406317696e-05
v -1067.86083984375 -159.1126708984375 3.090851896558888e-05
v -997.15771484375 -229.8157958984375 400.0000305175781
v -1067.86083984375 -159.1126708984375 400.0000305175781
v -1050.18505859375 -282.8431396484375 400.00006103515625
v -1067.86083984375 -159.1126708984375 400.0000305175781
v -1120.88818359375 -212.1400146484375 400.0000305175781
v -997.15771484375 -229.8157958984375 400.0000305175781
v -1014.83349609375 -247.4915771484375 4.0952738345367834e-05
v -1032.50927734375 -265.1673583984375 4.1725379560375586e-05
v -1014.83349609375 -247.4915771484375 25.00004005432129
v -1032.50927734375 -265.1673583984375 25.000041961669922
v -1032.50927734375 -265.1673583984375 4.1725379560375586e-05
v -413.7835693359375 -883.892822265625 0.0001228614419233054
v -1032.50927734375 -265.1673583984375 25.000041961669922
v -413.7835693359375 -883.892822265625 25.0001220703125
v -413.7835693359375 -883.892822265625 0.0001228614419233054
v 204.92962646484375 -265.1673583984375 9.581556514604017e-05
v -413.7835693359375 -883.892822265625 25.0001220703125
v 204.92962646484375 -265.1673583984375 25.00009536743164
v 204.92974853515625 -265.167236328125 9.581555787008256e-05
v 187.25396728515625 -247.491455078125 9.349765605293214e-05
v 204.92974853515625 -265.167236328125 25.000091552734375
v 187.25396728515625 -247.491455078125 25.000089645385742
v 187.25396728515625 -247.491455078125 9.349765605293214e-05
v -413.7838134765625 -848.54150390625 0.00011977092071902007
v 187.25396728515625 -247.491455078125 25.000093460083008
v -413.7838134765625 -848.54150390625 25.000120162963867
v -413.7835693359375 -848.541259765625 0.00011977091344306245
v -1014.83349609375 -247.491455078125 4.0952738345367834e-05
v -413.7835693359375 -848.541259765625 25.000120162963867
v -1014.83349609375 -247.491455078125 25.00004005432129
v -413.7835693359375 -848.541259765625 25.000120162963867
v -1014.83349609375 -247.4915771484375 25.00004005432129
v -1032.50927734375 -265.1673583984375 25.000041961669922
v -413.7835693359375 -883.892822265625 25.0001220703125
v 204.92974853515625 -265.167236328125 25.00009536743164
v 187.25396728515625 -247.491455078125 25.000093460083008
v -413.7835693359375 -869.744873046875 25.0001220703125
v -1021.9013671875 -254.5594482421875 25.00004005432129
v -413.7835693359375 -862.677001953125 25.000120162963867
v -1025.44140625 -258.0994873046875 25.000041961669922
v 197.86187744140625 -258.099365234375 25.00009536743164
v 194.32183837890625 -254.559326171875 25.000093460083008
v -1025.44140625 -258.0994873046875 25.000041961669922
v -413.7835693359375 -869.744873046875 25.0001220703125
v -1025.44140625 -258.0994873046875 395.00006103515625
v -413.7835693359375 -869.744873046875 395.0001220703125
v -413.7835693359375 -869.744873046875 25.0001220703125
v 197.86187744140625 -258.099365234375 25.00009536743164
v -413.7835693359375 -869.744873046875 395.0001220703125
v 197.86187744140625 -258.099365234375 395.0001220703125
v 197.86187744140625 -258.099365234375 25.00009536743164
v 194.32183837890625 -254.559326171875 25.000093460083008
v 197.86187744140625 -258.099365234375 395.0001220703125
v 194.32183837890625 -254.559326171875 395.0001220703125
v 194.32183837890625 -254.559326171875 25.000093460083008
v -413.7833251953125 -862.6767578125 25.000120162963867
v 194.32183837890625 -254.559326171875 395.0000915527344
v -413.7833251953125 -862.6767578125 395.0000915527344
v -413.7835693359375 -862.677001953125 25.000120162963867
v -1021.9013671875 -254.5594482421875 25.00004005432129
v -413.7835693359375 -862.677001953125 395.0001220703125
v -1021.9013671875 -254.5594482421875 395.00006103515625
v -1021.9013671875 -254.5594482421875 25.00004005432129
v -1025.44140625 -258.0994873046875 25.000041961669922
v -1021.9013671875 -254.5594482421875 395.00006103515625
v -1025.44140625 -258.0994873046875 395.00006103515625
v -413.7835693359375 -869.744873046875 395.0001220703125
v -413.7835693359375 -862.677001953125 395.0001220703125
v -1021.9013671875 -254.5594482421875 395.00006103515625
v -1025.44140625 -258.0994873046875 395.00006103515625
v 197.86187744140625 -258.099365234375 395.0001220703125
v 194.32183837890625 -254.559326171875 395.0001220703125
v -413.7835693359375 -869.744873046875 395.0001220703125
v -1021.9013671875 -254.5594482421875 395.00006103515625
v -413.7835693359375 -862.677001953125 395.0001220703125
v -1025.44140625 -258.0994873046875 395.00006103515625
v 197.86187744140625 -258.099365234375 395.0001220703125
v 194.32183837890625 -254.559326171875 395.0001220703125
v -1025.44140625 -258.0994873046875 400.00006103515625
v -413.7835693359375 -869.744873046875 400.0001220703125
v -413.7835693359375 -869.744873046875 400.0001220703125
v 197.86187744140625 -258.099365234375 400.0001220703125
v 197.86187744140625 -258.099365234375 400.0001220703125
v 194.32183837890625 -254.559326171875 400.0001220703125
v 194.32183837890625 -254.559326171875 395.0001220703125
v -413.7835693359375 -862.677001953125 395.0001220703125
v 194.32183837890625 -254.559326171875 400.0001220703125
v -413.7835693359375 -862.677001953125 400.0001220703125
v -1021.9013671875 -254.5596923828125 395.00006103515625
v -413.7835693359375 -862.677001953125 400.0001220703125
v -1021.9013671875 -254.5596923828125 400.00006103515625
v -1021.9013671875 -254.5594482421875 400.00006103515625
v -1025.44140625 -258.0994873046875 400.00006103515625
v -413.7835693359375 -869.744873046875 400.0001220703125
v -413.7835693359375 -862.677001953125 400.0001220703125
v -1021.9013671875 -254.5594482421875 400.00006103515625
v -1025.44140625 -258.0994873046875 400.00006103515625
v 197.86187744140625 -258.099365234375 400.0001220703125
v 194.32183837890625 -254.559326171875 400.0001220703125
v 275.64508056640625 123.736572265625 6.49075664114207e-05
v 346.34820556640625 53.021240234375 7.418023596983403e-05
v 275.64508056640625 123.736572265625 400.00006103515625
v 346.34820556640625 53.021240234375 400.0000915527344
v 346.34820556640625 53.021240234375 7.418023596983403e-05
v 417.0635986328125 123.736572265625 7.108916906872764e-05
v 346.34820556640625 53.021240234375 400.0000915527344
v 417.0635986328125 123.736572265625 400.00006103515625
v 417.0635986328125 123.736572265625 7.108916906872764e-05
v 346.34820556640625 194.451904296875 6.18159756413661e-05
v 417.0635986328125 123.736572265625 400.00006103515625
v 346.34820556640625 194.451904296875 400.00006103515625
v 346.34820556640625 194.451904296875 6.18159756413661e-05
v 275.64508056640625 123.736572265625 6.49075664114207e-05
v 346.34820556640625 194.451904296875 400.00006103515625
v 275.64508056640625 123.736572265625 400.00006103515625
v 275.64508056640625 123.736572265625 400.00006103515625
v 346.34820556640625 53.021240234375 400.0000915527344
v 346.34820556640625 194.451904296875 400.00006103515625
v 417.0635986328125 123.736572265625 400.00006103515625
v 275.6328125 265.167236328125 400.00006103515625
v 841.31884765625 -300.506591796875 400.0001220703125
v 341.56304931640625 -800.018310546875 400.0001525878906
v -222.91455078125 -233.1483154296875 400.00006103515625
v 912.02197265625 901.5685424804688 400.0000305175781
v 1619.138671875 194.464111328125 400.0001220703125
v 1166.58740234375 -286.370849609375 400.0001525878906
v 459.470703125 420.733642578125 400.00006103515625
v 841.31884765625 -300.506591796875 400.0001220703125
v 275.6326904296875 265.167236328125 400.00006103515625
v 841.31884765625 -300.506591796875 410.0001220703125
v 275.6326904296875 265.167236328125 410.00006103515625
v 275.6328125 265.167236328125 400.00006103515625
v -222.91455078125 -233.1483154296875 400.00006103515625
v 275.6328125 265.167236328125 410.00006103515625
v -222.91455078125 -233.1483154296875 410.00006103515625
v -222.91455078125 -233.1483154296875 400.00006103515625
v 341.56292724609375 -800.018310546875 400.0001525878906
v -222.91455078125 -233.1483154296875 410.00006103515625
v 341.56292724609375 -800.018310546875 410.0001525878906
v 341.56304931640625 -800.018310546875 400.0001525878906
v 841.3189086914062 -300.506591796875 400.0001220703125
v 341.56304931640625 -800.018310546875 410.0001525878906
v 841.3189086914062 -300.506591796875 410.0001220703125
v 275.6328125 265.167236328125 410.00006103515625
v 341.56304931640625 -800.018310546875 410.0001525878906
v 841.31884765625 -300.506591796875 410.0001220703125
v -222.91455078125 -233.1483154296875 410.00006103515625
v 1619.138671875 194.464111328125 400.0001220703125
v 912.0220947265625 901.5684814453125 400.0000305175781
v 1619.138671875 194.464111328125 410.0001220703125
v 912.0220947265625 901.5684814453125 410.0000305175781
v 912.02197265625 901.5685424804688 400.0000305175781
v 459.470703125 420.733642578125 400.00006103515625
v 912.02197265625 901.5685424804688 410.0000305175781
v 459.470703125 420.733642578125 410.00006103515625
v 459.470703125 420.733642578125 400.00006103515625
v 1166.58740234375 -286.370849609375 400.0001525878906
v 459.470703125 420.733642578125 410.00006103515625
v 1166.58740234375 -286.370849609375 410.0001525878906
v 1166.58740234375 -286.370849609375 400.0001525878906
v 1619.1387939453125 194.464111328125 400.0001220703125
v 1166.58740234375 -286.370849609375 410.0001525878906
v 1619.1387939453125 194.464111328125 410.0001220703125
v 1566.111328125 282.830810546875 425.0001220703125
v 982.74951171875 159.088134765625 425.0000915527344
v 1212.55908203125 -70.721435546875 425.0001220703125
v 1336.3017578125 512.6526489257812 425.00006103515625
v 1566.111328125 282.830810546875 410.0001220703125
v 1212.55908203125 -70.721435546875 410.0001220703125
v 982.74951171875 159.088134765625 410.0000915527344
v 1336.3017578125 512.6526489257812 410.00006103515625
v 982.74951171875 159.088134765625 425.0000915527344
v 1212.55908203125 -70.721435546875 410.0001220703125
v 1212.55908203125 -70.721435546875 425.0001220703125
v 982.74951171875 159.088134765625 410.0000915527344
v 1212.55908203125 -70.721435546875 425.0001220703125
v 1566.111328125 282.830810546875 410.0001220703125
v 1566.111328125 282.830810546875 425.0001220703125
v 1212.55908203125 -70.721435546875 410.0001220703125
v 1566.111328125 282.830810546875 425.0001220703125
v 1336.3017578125 512.6526489257812 410.00006103515625
v 1336.3017578125 512.6526489257812 425.00006103515625
v 1566.111328125 282.830810546875 410.0001220703125
v 1336.3017578125 512.6526489257812 425.00006103515625
v 982.74951171875 159.088134765625 410.0000915527344
v 982.74951171875 159.088134765625 425.0000915527344
v 1336.3017578125 512.6526489257812 410.00006103515625
v 912.02197265625 901.5685424804688 410.0000305175781
v 1166.58740234375 -286.370849609375 410.0001525878906
v 1619.138671875 194.464111328125 410.0001220703125
v 459.470703125 420.733642578125 410.00006103515625
v 293.30865478515625 -212.139892578125 9.50429166550748e-05
v 240.26910400390625 -159.100341796875 8.808763232082129e-05
v 293.30865478515625 -212.139892578125 400.0000915527344
v 240.26910400390625 -159.100341796875 400.0000915527344
v 240.26910400390625 -159.100341796875 8.808763232082129e-05
v 169.5782470703125 -229.815673828125 9.117975423578173e-05
v 240.26910400390625 -159.100341796875 400.0000915527344
v 169.578125 -229.815673828125 400.0000915527344
v 169.5782470703125 -229.815673828125 9.117975423578173e-05
v 222.60552978515625 -282.855224609375 9.813452197704464e-05
v 169.578125 -229.815673828125 400.0000915527344
v 222.60552978515625 -282.855224609375 400.0001220703125
v 222.60552978515625 -282.855224609375 9.813452197704464e-05
v 293.30865478515625 -212.139892578125 9.50429166550748e-05
v 222.60552978515625 -282.855224609375 400.0001220703125
v 293.30865478515625 -212.139892578125 400.0000915527344
v 293.30865478515625 -212.139892578125 400.0000915527344
v 240.26910400390625 -159.100341796875 400.0000915527344
v 222.60552978515625 -282.855224609375 400.0001220703125
v 169.578125 -229.815673828125 400.0000915527344
v 275.63287353515625 -194.464111328125 9.272502938983962e-05
v 982.7494506835938 512.6402587890625 6.181703793117777e-05
v 275.63287353515625 -194.464111328125 25.000093460083008
v 982.7494506835938 512.6402587890625 25.00006103515625
v 982.74951171875 512.640380859375 6.181703793117777e-05
v 664.5487670898438 830.841064453125 2.009005402214825e-05
v 982.74951171875 512.640380859375 25.00006103515625
v 664.5487670898438 830.841064453125 25.00002098083496
v 664.548828125 830.841064453125 2.0090055841137655e-05
v 576.169921875 742.449951171875 2.3954287826200016e-05
v 664.548828125 830.841064453125 25.00002098083496
v 576.169921875 742.449951171875 25.000024795532227
v 593.845703125 724.774169921875 2.6272186005371623e-05
v 664.548828125 795.489501953125 2.31805879593594e-05
v 593.845703125 724.774169921875 25.00002670288086
v 664.548828125 795.489501953125 25.000022888183594
v 664.548828125 795.489501953125 2.31805879593594e-05
v 947.3978881835938 512.640380859375 6.027176641509868e-05
v 664.548828125 795.489501953125 25.000022888183594
v 947.3978881835938 512.640380859375 25.000059127807617
v 947.39794921875 512.640380859375 6.027177005307749e-05
v 257.94488525390625 -176.776123046875 9.040551958605647e-05
v 947.39794921875 512.640380859375 25.000059127807617
v 257.94488525390625 -176.776123046875 25.000091552734375
v 982.74951171875 512.640380859375 25.00006103515625
v 947.39794921875 512.640380859375 25.000059127807617
v 275.63287353515625 -194.464111328125 25.000093460083008
v 664.548828125 830.841064453125 25.00002098083496
v 664.548828125 795.489501953125 25.000022888183594
v 576.169921875 742.449951171875 25.000024795532227
v 593.845703125 724.774169921875 25.00002670288086
v 257.94488525390625 -176.776123046875 25.000091552734375
v 586.765625 731.842041015625 25.000024795532227
v 664.548828125 816.6929931640625 25.00002098083496
v 664.548828125 809.625244140625 25.000022888183594
v 961.53369140625 512.640380859375 25.00006103515625
v 968.6016845703125 512.640380859375 25.00006103515625
v 265.03717041015625 -183.856201171875 25.000091552734375
v 268.56512451171875 -187.396240234375 25.000091552734375
v 583.2256469726562 735.382080078125 25.000024795532227
v 586.765625 731.842041015625 25.000024795532227
v 664.548828125 809.625244140625 25.000022888183594
v 586.765625 731.8421020507812 395.0000305175781
v 664.548828125 809.6253051757812 395.0
v 664.548828125 809.625244140625 25.000022888183594
v 961.53369140625 512.640380859375 25.00006103515625
v 664.548828125 809.6253051757812 395.0
v 961.53369140625 512.6404418945312 395.00006103515625
v 961.5337524414062 512.640380859375 25.00006103515625
v 265.03729248046875 -183.8560791015625 25.000091552734375
v 961.5337524414062 512.6404418945312 395.0000305175781
v 265.03729248046875 -183.8560791015625 395.00006103515625
v 268.56512451171875 -187.396240234375 25.000091552734375
v 968.6017456054688 512.640380859375 25.00006103515625
v 268.56512451171875 -187.396240234375 395.0000915527344
v 968.6016845703125 512.6404418945312 395.00006103515625
v 968.6016235351562 512.640380859375 25.00006103515625
v 664.548828125 816.6929931640625 25.00002098083496
v 968.6016235351562 512.6404418945312 395.00006103515625
v 664.548828125 816.6929931640625 395.0
v 664.548828125 816.6929931640625 25.00002098083496
v 583.2256469726562 735.3820190429688 25.000024795532227
v 664.548828125 816.6929931640625 395.0
v 583.2256469726562 735.382080078125 395.0000305175781
v 586.765625 731.8421020507812 395.0000305175781
v 664.548828125 809.6253051757812 395.0
v 664.548828125 816.6929931640625 395.0
v 961.5337524414062 512.6404418945312 395.00006103515625
v 968.6016845703125 512.6404418945312 395.00006103515625
v 265.03717041015625 -183.856201171875 395.0000915527344
v 268.56512451171875 -187.396240234375 395.0000915527344
v 583.2256469726562 735.382080078125 395.0000305175781
v 586.765625 731.8421020507812 395.0000305175781
v 664.548828125 816.6929931640625 395.0
v 664.548828125 809.6253051757812 395.0
v 961.5337524414062 512.6404418945312 395.00006103515625
v 968.6016845703125 512.6404418945312 395.00006103515625
v 265.03717041015625 -183.856201171875 395.0000915527344
v 268.56512451171875 -187.396240234375 395.0000915527344
v 583.2256469726562 735.382080078125 395.0000305175781
v 586.765625 731.8421020507812 400.0000305175781
v 664.548828125 809.6253051757812 400.0
v 664.548828125 809.6253051757812 400.0
v 961.53369140625 512.6404418945312 400.00006103515625
v 961.5337524414062 512.6404418945312 395.00006103515625
v 265.03729248046875 -183.8560791015625 395.0000915527344
v 961.5337524414062 512.6404418945312 400.00006103515625
v 265.03729248046875 -183.8560791015625 400.0000915527344
v 268.56512451171875 -187.396240234375 400.0000915527344
v 968.6016845703125 512.6404418945312 400.00006103515625
v 664.548828125 816.6930541992188 395.0
v 968.6016235351562 512.6404418945312 400.00006103515625
v 664.548828125 816.6930541992188 400.0
v 664.548828125 816.6929931640625 400.0
v 583.2256469726562 735.382080078125 400.0000305175781
v 586.765625 731.8421020507812 400.0000305175781
v 664.548828125 809.6253051757812 400.0
v 664.548828125 816.6929931640625 400.0
v 961.5337524414062 512.6404418945312 400.00006103515625
v 968.6016845703125 512.6404418945312 400.00006103515625
v 265.03717041015625 -183.856201171875 400.0000915527344
v 268.56512451171875 -187.396240234375 400.0000915527344
v 583.2256469726562 735.382080078125 400.0000305175781
v -7.2039794921875 -300.531005859375 8.963448635768145e-05
v -77.906982421875 -229.815673828125 8.036183135118335e-05
v -7.2041015625 -300.531005859375 400.0000915527344
v -77.9071044921875 -229.815673828125 400.00006103515625
v -77.906982421875 -229.815673828125 8.036183135118335e-05
v -148.6224365234375 -300.531005859375 8.345289097633213e-05
v -77.9071044921875 -229.815673828125 400.00006103515625
v -148.62255859375 -300.531005859375 400.0000915527344
v -148.6224365234375 -300.531005859375 8.345289097633213e-05
v -77.906982421875 -371.234130859375 9.272503666579723e-05
v -148.62255859375 -300.531005859375 400.0000915527344
v -77.9071044921875 -371.234130859375 400.0000915527344
v -77.906982421875 -371.234130859375 9.272503666579723e-05
v -7.2039794921875 -300.531005859375 8.963448635768145e-05
v -77.9071044921875 -371.234130859375 400.0000915527344
v -7.2041015625 -300.531005859375 400.0000915527344
v -77.9071044921875 -229.815673828125 400.00006103515625
v -77.9071044921875 -371.234130859375 400.0000915527344
v -7.2041015625 -300.531005859375 400.0000915527344
v -148.62255859375 -300.531005859375 400.0000915527344
v -944.10595703125 -813.165283203125 400.0000915527344
v -1686.57421875 -742.46240234375 400.00006103515625
v -1297.658203125 -353.5462646484375 400.0000305175781
v -643.5931396484375 -1785.443115234375 400.00018310546875
v -307.7044677734375 -1449.566650390625 400.00018310546875
v -891.06640625 -760.137939453125 400.0000915527344
v -1955.02734375 -940.67529296875 410.0000305175781
v -1668.88232421875 -689.4423828125 410.00006103515625
v -1896.1083984375 -1042.6728515625 410.0
v -1588.42578125 -746.31982421875 409.9999694824219
v -237.0013427734375 -1378.851318359375 400.00018310546875
v -802.6873779296875 -813.165283203125 400.0000915527344
v -396.095703125 -406.5858154296875 400.0000915527344
v 169.5904541015625 -972.271728515625 400.00018310546875
v 289.75628662109375 208.624267578125 414.9998779296875
v 607.9447631835938 526.8250122070312 414.9998474121094
v 464.15826416015625 34.210205078125 415.0
v 783.0302734375 351.73956298828125 414.9999694824219
v -961.7939453125 -901.556396484375 415.0000915527344
v -537.5384521484375 -901.556396484375 415.0001220703125
v -961.7939453125 -972.271728515625 415.0001220703125
v -537.5384521484375 -972.271728515625 415.0001525878906
v -290.0408935546875 -1219.757080078125 415.0001525878906
v -537.5384521484375 -1467.242431640625 415.00018310546875
v -325.4046630859375 -1184.405517578125 415.0001525878906
v -572.8900146484375 -1431.890869140625 415.0001525878906
v -158.9862060546875 -679.632568359375 415.0000305175781
v -378.72509765625 -459.8939208984375 414.9999084472656
v -166.59130859375 -247.760009765625 414.9999084472656
v 53.1474609375 -467.498779296875 415.0
v -1297.658203125 -353.5462646484375 400.0000305175781
v -1686.57421875 -742.46240234375 400.00006103515625
v -1297.658203125 -353.5462646484375 410.0000305175781
v -1686.57421875 -742.46240234375 410.00006103515625
v -1686.57421875 -742.46240234375 400.00006103515625
v -643.5933837890625 -1785.443115234375 400.00018310546875
v -1686.57421875 -742.46240234375 410.00006103515625
v -643.5933837890625 -1785.443115234375 410.00018310546875
v -643.5931396484375 -1785.443115234375 400.00018310546875
v -307.7044677734375 -1449.566650390625 400.00018310546875
v -643.5931396484375 -1785.443115234375 410.00018310546875
v -307.7044677734375 -1449.566650390625 410.00018310546875
v -307.7044677734375 -1449.566650390625 400.00018310546875
v -944.105712890625 -813.16552734375 400.0000915527344
v -307.7044677734375 -1449.566650390625 410.00018310546875
v -944.105712890625 -813.16552734375 410.0000915527344
v -944.10595703125 -813.165283203125 400.0000915527344
v -891.06640625 -760.137939453125 400.0000915527344
v -944.10595703125 -813.165283203125 410.0000915527344
v -891.06640625 -760.137939453125 410.0000915527344
v -891.06640625 -760.137939453125 400.0000915527344
v -1297.658203125 -353.5462646484375 400.0000305175781
v -891.06640625 -760.137939453125 410.0000915527344
v -1297.658203125 -353.5462646484375 410.0000305175781
v -944.10595703125 -813.165283203125 410.0000915527344
v -1297.658203125 -353.5462646484375 410.0000305175781
v -1686.57421875 -742.46240234375 410.00006103515625
v -643.5931396484375 -1785.443115234375 410.00018310546875
v -307.7044677734375 -1449.566650390625 410.00018310546875
v -891.06640625 -760.137939453125 410.0000915527344
v -1668.88232421875 -689.4423828125 410.00006103515625
v -1955.02734375 -940.67529296875 410.0000305175781
v -1668.88232421875 -689.4423828125 420.0000305175781
v -1955.02734375 -940.67529296875 420.0
v -1955.02734375 -940.67529296875 410.0000305175781
v -1896.1083984375 -1042.6728515625 410.0
v -1955.02734375 -940.67529296875 420.0
v -1896.1083984375 -1042.6728515625 419.9999694824219
v -1896.1083984375 -1042.6728515625 410.0
v -1588.42578125 -746.31982421875 409.9999694824219
v -1896.1083984375 -1042.6728515625 419.9999694824219
v -1588.42578125 -746.31982421875 419.99993896484375
v -1588.42578125 -746.31982421875 409.9999694824219
v -1668.88232421875 -689.4423828125 410.00006103515625
v -1588.42578125 -746.31982421875 419.99993896484375
v -1668.88232421875 -689.4423828125 420.0000305175781
v -1955.02734375 -940.67529296875 420.0
v -1896.1083984375 -1042.6728515625 419.9999694824219
v -1668.88232421875 -689.4423828125 420.0000305175781
v -1588.42578125 -746.31982421875 419.99993896484375
v -802.6873779296875 -813.165283203125 400.0000915527344
v -237.001220703125 -1378.851318359375 400.00018310546875
v -802.6873779296875 -813.165283203125 410.0000915527344
v -237.001220703125 -1378.851318359375 410.00018310546875
v -237.0013427734375 -1378.851318359375 400.00018310546875
v 169.5904541015625 -972.271728515625 400.00018310546875
v -237.0013427734375 -1378.851318359375 410.00018310546875
v 169.5904541015625 -972.271728515625 410.00018310546875
v 169.5904541015625 -972.271728515625 400.00018310546875
v -396.095703125 -406.5858154296875 400.0000915527344
v 169.5904541015625 -972.271728515625 410.00018310546875
v -396.095703125 -406.5858154296875 410.0000915527344
v -396.095703125 -406.5858154296875 400.0000915527344
v -802.6873779296875 -813.165283203125 400.0000915527344
v -396.095703125 -406.5858154296875 410.0000915527344
v -802.6873779296875 -813.165283203125 410.0000915527344
v -237.0013427734375 -1378.851318359375 410.00018310546875
v -396.095703125 -406.5858154296875 410.0000915527344
v -802.6873779296875 -813.165283203125 410.0000915527344
v 169.5904541015625 -972.271728515625 410.00018310546875
v 607.9447631835938 526.8250122070312 414.9998474121094
v 289.75628662109375 208.624267578125 414.9998779296875
v 607.9447631835938 526.8250122070312 424.9998474121094
v 289.7562255859375 208.624267578125 424.9998779296875
v 289.75628662109375 208.624267578125 414.9998779296875
v 464.15826416015625 34.210205078125 415.0
v 289.7562255859375 208.624267578125 424.9998779296875
v 464.15826416015625 34.210205078125 425.0
v 464.158203125 34.210205078125 415.0
v 783.0302734375 351.73956298828125 414.9999694824219
v 464.158203125 34.210205078125 425.0
v 783.0302734375 351.73956298828125 424.9999694824219
v 783.0302734375 351.73956298828125 414.9999694824219
v 607.9447631835938 526.8250122070312 414.9998474121094
v 783.0302734375 351.73956298828125 424.9999694824219
v 607.9447631835938 526.8250122070312 424.9998474121094
v 289.7562255859375 208.624267578125 424.9998779296875
v 464.15826416015625 34.210205078125 425.0
v 607.9447631835938 526.8250122070312 424.9998474121094
v 783.0302734375 351.73956298828125 424.9999694824219
v -537.5384521484375 -901.556396484375 415.0001220703125
v -961.7939453125 -901.556396484375 415.0000915527344
v -537.5384521484375 -901.556396484375 425.0001220703125
v -961.7939453125 -901.556396484375 425.0000915527344
v -961.7939453125 -901.556396484375 415.0000915527344
v -961.7939453125 -972.271728515625 415.0001220703125
v -961.7939453125 -901.556396484375 425.0000915527344
v -961.7939453125 -972.271728515625 425.0001220703125
v -961.7939453125 -972.271728515625 415.0001220703125
v -537.5384521484375 -972.271728515625 415.0001525878906
v -961.7939453125 -972.271728515625 425.0001220703125
v -537.5384521484375 -972.271728515625 425.0001525878906
v -537.5384521484375 -972.271728515625 415.0001525878906
v -537.5384521484375 -901.556396484375 415.0001220703125
v -537.5384521484375 -972.271728515625 425.0001525878906
v -537.5384521484375 -901.556396484375 425.0001220703125
v -961.7939453125 -901.556396484375 425.0000915527344
v -961.7939453125 -972.271728515625 425.0001220703125
v -537.5384521484375 -901.556396484375 425.0001220703125
v -537.5384521484375 -972.271728515625 425.0001525878906
v -537.5384521484375 -1467.242431640625 415.00018310546875
v -290.0408935546875 -1219.757080078125 415.0001525878906
v -537.5384521484375 -1467.242431640625 425.00018310546875
v -290.0408935546875 -1219.757080078125 425.0001525878906
v -290.0408935546875 -1219.757080078125 415.0001525878906
v -325.4046630859375 -1184.405517578125 415.0001525878906
v -290.0408935546875 -1219.757080078125 425.0001525878906
v -325.4046630859375 -1184.405517578125 425.0001525878906
v -325.4046630859375 -1184.405517578125 415.0001525878906
v -572.8900146484375 -1431.890869140625 415.0001525878906
v -325.4046630859375 -1184.405517578125 425.0001525878906
v -572.8900146484375 -1431.890869140625 425.0001525878906
v -572.8900146484375 -1431.890869140625 415.0001525878906
v -537.5384521484375 -1467.242431640625 415.00018310546875
v -572.8900146484375 -1431.890869140625 425.0001525878906
v -537.5384521484375 -1467.242431640625 425.00018310546875
v -290.0408935546875 -1219.757080078125 425.0001525878906
v -325.4046630859375 -1184.405517578125 425.0001525878906
v -537.5384521484375 -1467.242431640625 425.00018310546875
v -572.8900146484375 -1431.890869140625 425.0001525878906
v -378.72509765625 -459.8939208984375 414.9999084472656
v -158.9862060546875 -679.632568359375 415.0000305175781
v -378.72509765625 -459.8939208984375 424.9999084472656
v -158.9862060546875 -679.632568359375 425.0000305175781
v -158.9862060546875 -679.632568359375 415.0000305175781
v 53.1474609375 -467.498779296875 415.0
v -158.9862060546875 -679.632568359375 425.0000305175781
v 53.1474609375 -467.498779296875 425.0
v 53.1474609375 -467.498779296875 415.0
v -166.59130859375 -247.760009765625 414.9999084472656
v 53.1474609375 -467.498779296875 425.0
v -166.59130859375 -247.760009765625 424.9999084472656
v -166.59130859375 -247.760009765625 414.9999084472656
v -378.72509765625 -459.8939208984375 414.9999084472656
v -166.59130859375 -247.760009765625 424.9999084472656
v -378.72509765625 -459.8939208984375 424.9999084472656
v -158.9862060546875 -679.632568359375 425.0000305175781
v -166.59130859375 -247.760009765625 424.9999084472656
v -378.72509765625 -459.8939208984375 424.9999084472656
v 53.1474609375 -467.498779296875 425.0
v -413.7713623046875 -876.812744140625 0.00012224301462993026
v -403.1756591796875 -866.204833984375 0.00012177878670627251
v -413.7713623046875 -876.812744140625 400.0001220703125
v -403.1756591796875 -866.204833984375 400.0001220703125
v -403.1756591796875 -866.204833984375 0.00012177878670627251
v -413.7835693359375 -855.596923828125 0.00012038772547384724
v -403.1756591796875 -866.204833984375 400.0001220703125
v -413.7835693359375 -855.596923828125 400.0001220703125
v -413.7835693359375 -855.596923828125 0.00012038772547384724
v -424.3792724609375 -866.204833984375 0.00012085195339750499
v -413.7835693359375 -855.596923828125 400.0001220703125
v -424.3792724609375 -866.204833984375 400.0001220703125
v -424.3792724609375 -866.204833984375 0.00012085195339750499
v -413.7713623046875 -876.812744140625 0.00012224301462993026
v -424.3792724609375 -866.204833984375 400.0001220703125
v -413.7713623046875 -876.812744140625 400.0001220703125
v -413.7835693359375 -855.596923828125 400.0001220703125
v -413.7713623046875 -876.812744140625 400.0001220703125
v -403.1756591796875 -866.204833984375 400.0001220703125
v -424.3792724609375 -866.204833984375 400.0001220703125
v -1032.50927734375 -1113.702392578125 0.00011590667418204248
v -1103.21240234375 -1042.987060546875 0.00010663400462362915
v -1032.50927734375 -1113.702392578125 400.0001220703125
v -1103.21240234375 -1042.987060546875 400.0001220703125
v -1103.21240234375 -1042.987060546875 0.00010663400462362915
v -1173.927734375 -1113.702392578125 0.00010972507152473554
v -1103.21240234375 -1042.987060546875 400.0001220703125
v -1173.927734375 -1113.702392578125 400.0001220703125
v -1173.927734375 -1113.702392578125 0.00010972507152473554
v -1103.21240234375 -1184.417724609375 0.0001189982722280547
v -1173.927734375 -1113.702392578125 400.0001220703125
v -1103.21240234375 -1184.417724609375 400.0001220703125
v -1103.21240234375 -1184.417724609375 0.0001189982722280547
v -1032.50927734375 -1113.702392578125 0.00011590667418204248
v -1103.21240234375 -1184.417724609375 400.0001220703125
v -1032.50927734375 -1113.702392578125 400.0001220703125
v -1103.21240234375 -1042.987060546875 400.0001220703125
v -1103.21240234375 -1184.417724609375 400.0001220703125
v -1032.50927734375 -1113.702392578125 400.0001220703125
v -1173.927734375 -1113.702392578125 400.0001220703125
v -1014.8212890625 -989.959716796875 0.00010586191638140008
v -1032.50927734375 -1007.635498046875 0.00010663401917554438
v -1014.8212890625 -989.959716796875 25.000104904174805
v -1032.50927734375 -1007.635498046875 25.000106811523438
v -1032.50927734375 -1007.635498046875 0.00010663401917554438
v -449.1351318359375 -1590.997314453125 0.00018313320470042527
v -1032.50927734375 -1007.635498046875 25.000106811523438
v -449.1351318359375 -1590.997314453125 25.00018310546875
v -449.1351318359375 -1590.997314453125 0.00018313320470042527
v -431.4593505859375 -1573.321533203125 0.00018236057076137513
v -449.1351318359375 -1590.997314453125 25.00018310546875
v -431.4593505859375 -1573.321533203125 25.00018310546875
v -431.4593505859375 -1573.321533203125 0.00018236057076137513
v -1014.8212890625 -989.959716796875 0.00010586191638140008
v -431.4593505859375 -1573.321533203125 25.00018310546875
v -1014.8212890625 -989.959716796875 25.000104904174805
v -449.1351318359375 -1590.997314453125 25.00018310546875
v -1014.8212890625 -989.959716796875 25.000104904174805
v -1032.50927734375 -1007.635498046875 25.000106811523438
v -431.4593505859375 -1573.321533203125 25.00018310546875
v -1021.88916015625 -997.027587890625 25.000104904174805
v -438.5272216796875 -1580.389404296875 25.00018310546875
v -442.0672607421875 -1583.929443359375 25.000181198120117
v -1025.42919921875 -1000.567626953125 25.000106811523438
v -438.5272216796875 -1580.389404296875 25.00018310546875
v -1021.88916015625 -997.027587890625 25.000104904174805
v -438.5272216796875 -1580.389404296875 395.0001525878906
v -1021.88916015625 -997.027587890625 395.0000915527344
v -1021.88916015625 -997.027587890625 25.000104904174805
v -1025.42919921875 -1000.567626953125 25.000106811523438
v -1021.88916015625 -997.027587890625 395.0000915527344
v -1025.42919921875 -1000.567626953125 395.0000915527344
v -1025.42919921875 -1000.567626953125 25.000106811523438
v -442.0672607421875 -1583.929443359375 25.000181198120117
v -1025.42919921875 -1000.567626953125 395.0001220703125
v -442.0672607421875 -1583.929443359375 395.00018310546875
v -442.0672607421875 -1583.929443359375 25.000181198120117
v -438.5272216796875 -1580.389404296875 25.00018310546875
v -442.0672607421875 -1583.929443359375 395.00018310546875
v -438.5272216796875 -1580.389404296875 395.00018310546875
v -1021.88916015625 -997.027587890625 395.0001220703125
v -442.0672607421875 -1583.929443359375 395.00018310546875
v -438.5272216796875 -1580.389404296875 395.00018310546875
v -1025.42919921875 -1000.567626953125 395.0001220703125
v -1021.88916015625 -997.027587890625 395.0001220703125
v -438.5272216796875 -1580.389404296875 395.00018310546875
v -442.0672607421875 -1583.929443359375 395.00018310546875
v -1025.42919921875 -1000.567626953125 395.0001220703125
v -438.5272216796875 -1580.389404296875 395.00018310546875
v -1021.88916015625 -997.027587890625 395.0001220703125
v -438.5272216796875 -1580.389404296875 400.00018310546875
v -1021.88916015625 -997.027587890625 400.0001220703125
v -1021.88916015625 -997.027587890625 395.0001220703125
v -1025.42919921875 -1000.567626953125 395.0001220703125
v -1021.88916015625 -997.027587890625 400.0001220703125
v -1025.42919921875 -1000.567626953125 400.0001220703125
v -1025.42919921875 -1000.567626953125 400.0001220703125
v -442.0672607421875 -1583.929443359375 400.00018310546875
v -442.0672607421875 -1583.929443359375 400.00018310546875
v -438.5272216796875 -1580.389404296875 400.00018310546875
v -1021.88916015625 -997.027587890625 400.0001220703125
v -442.0672607421875 -1583.929443359375 400.00018310546875
v -438.5272216796875 -1580.389404296875 400.00018310546875
v -1025.42919921875 -1000.567626953125 400.0001220703125
v -714.3084716796875 -1431.903076171875 0.0001576336653670296
v -785.0115966796875 -1502.606201171875 0.00016072418657131493
v -714.3084716796875 -1431.903076171875 400.0001525878906
v -785.0115966796875 -1502.606201171875 400.0001525878906
v -785.0115966796875 -1502.606201171875 0.00016072418657131493
v -714.3084716796875 -1573.321533203125 0.00016999684157781303
v -785.0115966796875 -1502.606201171875 400.0001525878906
v -714.3084716796875 -1573.321533203125 400.0001525878906
v -714.3084716796875 -1573.321533203125 0.00016999684157781303
v -643.5931396484375 -1502.606201171875 0.00016690578195266426
v -714.3084716796875 -1573.321533203125 400.0001525878906
v -643.5931396484375 -1502.606201171875 400.0001525878906
v -643.5931396484375 -1502.606201171875 0.00016690578195266426
v -714.3084716796875 -1431.903076171875 0.0001576336653670296
v -643.5931396484375 -1502.606201171875 400.0001525878906
v -714.3084716796875 -1431.903076171875 400.0001525878906
v -785.0115966796875 -1502.606201171875 400.0001525878906
v -714.3084716796875 -1573.321533203125 400.0001525878906
v -714.3084716796875 -1431.903076171875 400.0001525878906
v -643.5931396484375 -1502.606201171875 400.0001525878906
v -1067.86083984375 -901.568603515625 9.581608173903078e-05
v -1120.900390625 -954.608154296875 9.813451470108703e-05
v -1067.86083984375 -901.568603515625 400.0000915527344
v -1120.900390625 -954.608154296875 400.0001220703125
v -1120.900390625 -954.608154296875 9.813451470108703e-05
v -1050.18505859375 -1025.311279296875 0.00010740663856267929
v -1120.900390625 -954.608154296875 400.0001220703125
v -1050.18505859375 -1025.311279296875 400.0001220703125
v -1050.18505859375 -1025.311279296875 0.00010740663856267929
v -997.1455078125 -972.283935546875 0.00010508928244234994
v -1050.18505859375 -1025.311279296875 400.0001220703125
v -997.1455078125 -972.283935546875 400.0001220703125
v -997.1455078125 -972.283935546875 0.00010508928244234994
v -1067.86083984375 -901.568603515625 9.581608173903078e-05
v -997.1455078125 -972.283935546875 400.0001220703125
v -1067.86083984375 -901.568603515625 400.0000915527344
v -1050.18505859375 -1025.311279296875 400.0001220703125
v -1067.86083984375 -901.568603515625 400.0000915527344
v -1120.900390625 -954.608154296875 400.0001220703125
v -997.1455078125 -972.283935546875 400.0001220703125
v -1509.80419921875 -530.3406982421875 4.404434366733767e-05
v -1103.224609375 -936.932373046875 9.736188076203689e-05
v -1509.80419921875 -530.3406982421875 25.000043869018555
v -1103.224609375 -936.932373046875 25.000097274780273
v -1103.224609375 -936.932373046875 9.736188076203689e-05
v -1085.53662109375 -919.244384765625 9.658871567808092e-05
v -1103.224609375 -936.932373046875 25.000097274780273
v -1085.53662109375 -919.244384765625 25.000097274780273
v -1085.53662109375 -919.244384765625 9.658871567808092e-05
v -1509.80419921875 -494.9769287109375 4.095274562132545e-05
v -1085.53662109375 -919.244384765625 25.000097274780273
v -1509.80419921875 -494.9769287109375 25.00004005432129
v -1509.80419921875 -494.9769287109375 4.095274562132545e-05
v -1509.80419921875 -530.3406982421875 4.404434366733767e-05
v -1509.80419921875 -494.9769287109375 25.00004005432129
v -1509.80419921875 -530.3406982421875 25.000043869018555
v -1509.80419921875 -494.9769287109375 25.00004005432129
v -1509.80419921875 -530.3406982421875 25.000043869018555
v -1103.224609375 -936.932373046875 25.000097274780273
v -1085.53662109375 -919.244384765625 25.000097274780273
v -1509.80419921875 -509.1248779296875 25.000041961669922
v -1096.14453125 -929.852294921875 25.00009536743164
v -1509.80419921875 -516.1927490234375 25.000041961669922
v -1092.61669921875 -926.324462890625 25.000097274780273
v -1509.80419921875 -509.1248779296875 25.000041961669922
v -1509.80419921875 -516.1927490234375 25.000041961669922
v -1509.80419921875 -509.1248779296875 395.0000305175781
v -1509.80419921875 -516.1927490234375 395.0000305175781
v -1509.80419921875 -516.1927490234375 25.000041961669922
v -1096.14453125 -929.852294921875 25.00009536743164
v -1509.80419921875 -516.1927490234375 395.0000305175781
v -1096.14453125 -929.852294921875 395.0000915527344
v -1096.14453125 -929.852294921875 25.00009536743164
v -1092.61669921875 -926.324462890625 25.000097274780273
v -1096.14453125 -929.852294921875 395.0000915527344
v -1092.61669921875 -926.324462890625 395.0000915527344
v -1092.61669921875 -926.324462890625 25.000097274780273
v -1509.80419921875 -509.1248779296875 25.000041961669922
v -1092.61669921875 -926.324462890625 395.0000915527344
v -1509.80419921875 -509.1248779296875 395.0000305175781
v -1509.80419921875 -509.1248779296875 395.0000305175781
v -1509.80419921875 -516.1927490234375 395.0000305175781
v -1096.14453125 -929.852294921875 395.0000915527344
v -1092.61669921875 -926.324462890625 395.0000915527344
v -1096.14453125 -929.852294921875 395.0000915527344
v -1506.26416015625 -519.7083740234375 395.0000305175781
v -1502.72412109375 -516.1683349609375 395.0000305175781
v -1092.61669921875 -926.324462890625 395.0000915527344
v -1502.72412109375 -516.1683349609375 395.0000305175781
v -1506.26416015625 -519.7083740234375 395.0000305175781
v -1502.72412109375 -516.1683349609375 400.0000305175781
v -1506.26416015625 -519.7083740234375 400.0000305175781
v -1506.26416015625 -519.7083740234375 395.0000305175781
v -1506.26416015625 -519.7083740234375 400.0000305175781
v -1096.14453125 -929.852294921875 400.0000915527344
v -1096.14453125 -929.852294921875 400.0000915527344
v -1092.61669921875 -926.324462890625 400.0000915527344
v -1502.72412109375 -516.1683349609375 395.0000305175781
v -1092.61669921875 -926.324462890625 400.0000915527344
v -1502.72412109375 -516.1683349609375 400.0000305175781
v -1096.14453125 -929.852294921875 400.0000915527344
v -1502.72412109375 -516.1683349609375 400.0000305175781
v -1506.26416015625 -519.7083740234375 400.0000305175781
v -1092.61669921875 -926.324462890625 400.0000915527344
v -1509.80419921875 -502.0570068359375 4.157171133556403e-05
v -1520.412109375 -512.6649169921875 4.20353862864431e-05
v -1509.80419921875 -502.0570068359375 400.0000305175781
v -1520.412109375 -512.6649169921875 400.0000305175781
v -1520.412109375 -512.6649169921875 4.20353862864431e-05
v -1509.80419921875 -523.2606201171875 4.342537795309909e-05
v -1520.412109375 -512.6649169921875 400.0000305175781
v -1509.80419921875 -523.2606201171875 400.0000305175781
v -1509.80419921875 -523.2606201171875 4.342537795309909e-05
v -1499.1962890625 -512.6649169921875 4.2962758016074076e-05
v -1509.80419921875 -523.2606201171875 400.0000305175781
v -1499.1962890625 -512.6649169921875 400.0000305175781
v -1499.1962890625 -512.6649169921875 4.2962758016074076e-05
v -1509.80419921875 -502.0570068359375 4.157171133556403e-05
v -1499.1962890625 -512.6649169921875 400.0000305175781
v -1509.80419921875 -502.0570068359375 400.0000305175781
v -1520.412109375 -512.6649169921875 400.0000305175781
v -1509.80419921875 -523.2606201171875 400.0000305175781
v -1509.80419921875 -502.0570068359375 400.0000305175781
v -1499.1962890625 -512.6649169921875 400.0000305175781
v 675.1566772460938 813.165283203125 2.209900412708521e-05
v 664.5365600585938 823.760986328125 2.070847767754458e-05
v 675.1566772460938 813.1653442382812 400.0
v 664.5365600585938 823.760986328125 400.0
v 664.5365600585938 823.760986328125 2.070847767754458e-05
v 653.9408569335938 813.165283203125 2.117163057846483e-05
v 664.5365600585938 823.760986328125 400.0
v 653.9408569335938 813.1653442382812 400.0
v 653.9408569335938 813.165283203125 2.117163057846483e-05
v 664.5487670898438 802.557373046875 2.2562693629879504e-05
v 653.9408569335938 813.1653442382812 400.0
v 664.5487670898438 802.5574340820312 400.0
v 664.5487670898438 802.557373046875 2.2562693629879504e-05
v 675.1566772460938 813.165283203125 2.209900412708521e-05
v 664.5487670898438 802.5574340820312 400.0
v 675.1566772460938 813.1653442382812 400.0
v 664.5365600585938 823.760986328125 400.0
v 664.5487670898438 802.5574340820312 400.0
v 675.1566772460938 813.1653442382812 400.0
v 653.9408569335938 813.1653442382812 400.0
v 975.681640625 512.640380859375 6.150808621896431e-05
v 965.0615234375 523.236083984375 6.011756704538129e-05
v 975.681640625 512.6404418945312 400.00006103515625
v 965.0615234375 523.2361450195312 400.00006103515625
v 965.0615234375 523.236083984375 6.011756704538129e-05
v 954.4658203125 512.640380859375 6.058071812731214e-05
v 965.0615234375 523.2361450195312 400.00006103515625
v 954.4658203125 512.6404418945312 400.00006103515625
v 954.4658203125 512.640380859375 6.058071812731214e-05
v 965.07373046875 502.032470703125 6.19717757217586e-05
v 954.4658203125 512.6404418945312 400.00006103515625
v 965.07373046875 502.03253173828125 400.00006103515625
v 965.07373046875 502.032470703125 6.19717757217586e-05
v 975.681640625 512.640380859375 6.150808621896431e-05
v 965.07373046875 502.03253173828125 400.00006103515625
v 975.681640625 512.6404418945312 400.00006103515625
v 965.0615234375 523.2361450195312 400.00006103515625
v 965.07373046875 502.03253173828125 400.00006103515625
v 975.681640625 512.6404418945312 400.00006103515625
v 954.4658203125 512.6404418945312 400.00006103515625
f 2 1 3
f 4 2 3
f 14 13 15
f 16 14 15
f 10 9 11
f 12 10 11
f 6 5 7
f 8 6 7
f 17 18 20
f 18 17 19
f 22 21 23
f 24 22 23
f 38 37 39
f 38 39 40
f 34 33 35
f 36 34 35
f 30 29 31
f 32 30 31
f 26 25 27
f 28 26 27
f 771 770 772
f 773 771 772
f 767 766 768
f 769 767 768
f 763 762 764
f 765 763 764
f 759 758 760
f 761 759 760
f 755 754 756
f 756 757 755
f 751 750 752
f 753 751 752
f 747 746 748
f 749 747 748
f 743 742 744
f 745 743 744
f 739 738 740
f 741 739 740
f 735 734 736
f 737 735 736
f 731 730 732
f 733 731 732
f 727 726 728
f 729 727 728
f 723 722 724
f 725 723 724
f 719 718 720
f 721 719 720
f 715 714 716
f 716 717 715
f 711 710 712
f 713 711 712
f 707 706 708
f 709 707 708
f 703 702 704
f 705 703 704
f 699 698 700
f 701 699 700
f 691 690 692
f 693 691 692
f 687 686 688
f 689 687 688
f 683 682 684
f 685 683 684
f 679 678 680
f 681 679 680
f 675 674 676
f 676 677 675
f 671 670 672
f 673 671 672
f 667 666 668
f 669 667 668
f 663 662 664
f 665 663 664
f 659 658 660
f 661 659 660
f 649 648 650
f 651 649 650
f 645 644 646
f 647 645 646
f 641 640 642
f 643 641 642
f 637 636 638
f 639 637 638
f 633 632 634
f 635 633 634
f 629 628 630
f 631 629 630
f 621 620 622
f 622 623 621
f 617 616 618
f 617 618 619
f 613 612 614
f 614 615 613
f 605 604 606
f 606 607 605
f 602 598 601
f 599 601 598
f 599 598 600
f 603 600 598
f 774 775 777
f 775 774 776
f 694 695 697
f 695 694 696
f 625 624 626
f 627 626 624
f 609 608 610
f 611 610 608
f 442 443 445
f 443 442 444
f 441 438 439
f 439 438 440
f 437 434 435
f 435 434 436
f 433 430 431
f 431 430 432
f 429 426 427
f 427 426 428
f 423 422 424
f 425 424 422
f 418 419 421
f 419 418 420
f 398 399 401
f 399 398 400
f 379 378 380
f 381 380 378
f 375 374 376
f 377 376 374
f 60 145 147
f 145 60 146
f 58 57 59
f 59 1054 58
f 144 141 142
f 142 141 143
f 140 137 138
f 138 137 139
f 136 133 134
f 134 133 135
f 132 129 130
f 130 129 131
f 102 101 103
f 104 103 101
f 655 652 656
f 652 655 654
f 653 652 654
f 652 653 657
f 595 597 594
f 595 594 596
f 463 462 464
f 464 465 463
f 415 414 416
f 417 415 416
f 411 410 412
f 413 411 412
f 407 406 408
f 409 407 408
f 403 402 404
f 405 403 404
f 395 394 396
f 397 395 396
f 391 390 392
f 393 391 392
f 387 386 388
f 389 387 388
f 383 382 384
f 385 383 384
f 371 370 372
f 371 372 373
f 229 228 230
f 229 230 231
f 225 224 226
f 227 225 226
f 221 220 222
f 223 221 222
f 217 216 218
f 219 217 218
f 213 212 214
f 215 213 214
f 209 208 210
f 210 211 209
f 205 204 206
f 207 205 206
f 201 200 202
f 203 201 202
f 197 196 198
f 199 197 198
f 193 192 194
f 194 195 193
f 189 188 190
f 189 190 191
f 185 184 186
f 187 185 186
f 181 180 182
f 183 181 182
f 177 176 178
f 179 177 178
f 173 172 174
f 175 173 174
f 169 168 170
f 170 171 169
f 165 164 166
f 167 165 166
f 161 160 162
f 163 161 162
f 157 156 158
f 159 157 158
f 153 152 154
f 155 153 154
f 149 148 150
f 150 151 149
f 126 125 127
f 127 128 126
f 122 121 123
f 123 124 122
f 118 117 119
f 120 118 119
f 114 113 115
f 116 114 115
f 110 109 111
f 112 110 111
f 106 105 107
f 108 106 107
f 98 100 97
f 98 97 99
f 94 93 95
f 96 94 95
f 90 89 91
f 92 90 91
f 86 85 87
f 88 86 87
f 82 81 83
f 84 82 83
f 78 77 79
f 79 80 78
f 74 73 75
f 76 74 75
f 70 69 71
f 72 70 71
f 66 65 67
f 68 66 67
f 62 61 63
f 63 64 62
f 54 53 55
f 56 54 55
f 50 49 51
f 52 50 51
f 46 45 47
f 48 46 47
f 43 44 42
f 42 41 43
f 245 244 246
f 247 245 246
f 241 240 242
f 243 241 242
f 237 236 238
f 239 237 238
f 233 232 234
f 235 233 234
f 939 938 940
f 941 939 940
f 935 934 936
f 937 935 936
f 931 930 932
f 933 931 932
f 927 926 928
f 929 927 928
f 919 918 920
f 921 919 920
f 915 914 916
f 917 915 916
f 911 910 912
f 913 911 912
f 907 906 908
f 909 907 908
f 903 902 904
f 903 904 905
f 899 898 900
f 901 899 900
f 895 894 896
f 897 895 896
f 891 890 892
f 893 891 892
f 887 886 888
f 889 887 888
f 831 830 832
f 833 831 832
f 827 826 828
f 829 827 828
f 823 822 824
f 825 823 824
f 819 818 820
f 821 819 820
f 815 817 814
f 815 814 816
f 811 810 812
f 813 811 812
f 807 806 808
f 809 807 808
f 803 802 804
f 805 803 804
f 799 798 800
f 801 799 800
f 591 590 592
f 593 591 592
f 587 586 588
f 589 587 588
f 583 582 584
f 585 583 584
f 579 578 580
f 581 579 580
f 487 486 488
f 489 487 488
f 483 482 484
f 485 483 484
f 479 478 480
f 481 479 480
f 475 474 476
f 477 475 476
f 471 470 472
f 473 471 472
f 467 466 468
f 469 467 468
f 459 458 460
f 461 459 460
f 455 454 456
f 457 455 456
f 451 450 452
f 453 451 452
f 447 446 448
f 449 447 448
f 367 366 368
f 369 367 368
f 363 362 364
f 365 363 364
f 359 358 360
f 361 359 360
f 355 354 356
f 357 355 356
f 285 282 283
f 283 282 284
f 287 1055 282
f 282 286 287
f 949 946 947
f 947 946 948
f 943 942 944
f 944 942 945
f 922 923 925
f 923 922 924
f 839 838 840
f 841 840 838
f 834 835 837
f 835 834 836
f 277 276 278
f 276 279 278
f 279 1056 281
f 281 280 279
f 273 272 274
f 275 273 274
f 269 268 270
f 271 269 270
f 265 264 266
f 267 265 266
f 261 260 262
f 263 261 262
f 257 256 258
f 259 257 258
f 253 252 254
f 255 253 254
f 496 495 493
f 494 496 493
f 1057 493 491
f 491 493 490
f 1058 490 492
f 492 497 1058
f 501 503 504
f 504 502 501
f 502 499 1059
f 1059 499 500
f 499 498 1060
f 499 505 498
f 248 249 251
f 249 248 250
f 325 324 326
f 327 325 326
f 317 316 312
f 312 313 317
f 1061 312 314
f 314 312 315
f 1050 1051 1053
f 1051 1050 1052
f 1030 1031 1033
f 1031 1030 1032
f 990 991 993
f 991 990 992
f 971 970 972
f 973 972 970
f 967 966 968
f 968 966 969
f 882 883 885
f 883 882 884
f 863 862 864
f 865 864 862
f 858 859 861
f 859 858 860
f 794 795 797
f 795 794 796
f 539 545 538
f 539 538 540
f 541 539 1062
f 542 539 541
f 544 542 1063
f 1063 543 544
f 536 535 533
f 533 534 536
f 1064 532 534
f 531 532 1064
f 1065 530 532
f 530 537 532
f 318 322 323
f 323 320 318
f 319 318 1066
f 321 318 319
f 329 328 330
f 331 329 330
f 333 332 334
f 335 333 334
f 337 336 338
f 339 337 338
f 341 340 342
f 343 341 342
f 345 344 346
f 347 345 346
f 353 352 348
f 348 349 353
f 1068 1067 350
f 1069 348 351
f 1047 1046 1048
f 1049 1047 1048
f 1043 1042 1044
f 1045 1043 1044
f 1039 1038 1040
f 1041 1039 1040
f 1035 1034 1036
f 1037 1035 1036
f 1027 1026 1028
f 1029 1027 1028
f 1023 1022 1024
f 1025 1023 1024
f 1019 1018 1020
f 1021 1019 1020
f 1015 1014 1016
f 1017 1015 1016
f 1011 1010 1012
f 1011 1012 1013
f 1007 1006 1008
f 1009 1007 1008
f 1003 1002 1004
f 1005 1003 1004
f 999 998 1000
f 1001 999 1000
f 995 994 996
f 997 995 996
f 987 986 988
f 989 987 988
f 983 982 984
f 985 983 984
f 979 978 980
f 981 979 980
f 975 974 976
f 977 975 976
f 879 878 880
f 881 879 880
f 875 874 876
f 877 875 876
f 871 870 872
f 873 871 872
f 867 866 868
f 869 867 868
f 791 790 792
f 793 791 792
f 787 786 788
f 789 787 788
f 783 782 784
f 785 783 784
f 779 778 780
f 781 779 780
f 576 575 573
f 573 574 576
f 1070 572 1071
f 571 572 1070
f 1072 570 572
f 570 577 572
f 567 566 568
f 569 567 568
f 563 562 564
f 565 563 564
f 559 558 560
f 561 559 560
f 555 554 556
f 557 555 556
f 551 550 552
f 553 551 552
f 547 546 548
f 549 547 548
f 289 288 290
f 291 289 290
f 963 962 964
f 965 963 964
f 959 958 960
f 961 959 960
f 955 954 956
f 957 955 956
f 951 950 952
f 953 951 952
f 855 854 856
f 857 855 856
f 851 850 852
f 853 851 852
f 847 846 848
f 849 847 848
f 843 842 844
f 845 843 844
f 527 526 528
f 529 527 528
f 523 522 524
f 525 523 524
f 519 518 520
f 521 519 520
f 515 514 516
f 517 515 516
f 511 510 512
f 513 511 512
f 507 506 508
f 509 507 508
f 309 308 310
f 311 309 310
f 305 304 306
f 307 305 306
f 301 300 302
f 303 301 302
f 297 296 298
f 299 297 298
f 293 292 294
f 295 293 294
