v 279.99884033203125 -403.7108154296875 -0.00014389926218427718
v 297.68682861328125 -386.03515625 -0.00014467135770246387
v 279.99884033203125 -403.7108154296875 4.999855995178223
v 297.68682861328125 -386.03515625 4.9998555183410645
v 297.68682861328125 -386.03515625 -0.00014467135770246387
v -133.63648986816406 45.336944580078125 -1.2368550414976198e-06
v 297.68682861328125 -386.03515625 4.9998555183410645
v -133.63648986816406 45.336944580078125 4.999998569488525
v -133.63648986816406 45.33692169189453 -1.2368529951345408e-06
v -151.3121795654297 27.66112518310547 -4.642149917799543e-07
v -133.63648986816406 45.33692169189453 4.999998569488525
v -151.31219482421875 27.66112518310547 4.999999523162842
v -151.3121795654297 27.661123275756836 -4.6421496335824486e-07
v 279.9987487792969 -403.7107238769531 -0.00014389929128810763
v -151.3121795654297 27.66112518310547 4.999999523162842
v 279.9987487792969 -403.7107238769531 4.999855995178223
v -133.63648986816406 45.33692169189453 -1.2368529951345408e-06
v 297.68682861328125 -386.03515625 -0.00014467135770246387
v 279.99884033203125 -403.7108154296875 -0.00014389926218427718
v -151.3121795654297 27.661123275756836 -4.6421496335824486e-07
v -133.63648986816406 45.33692169189453 4.999998569488525
v 279.99884033203125 -403.7108154296875 4.999855995178223
v 297.68682861328125 -386.03515625 4.9998555183410645
v -151.3121795654297 27.66112518310547 4.999999523162842
v 72.19853210449219 -187.30467224121094 4.9999284744262695
v -143.4508819580078 28.381324768066406 4.999899864196777
v -140.97288513183594 30.847126007080078 4.9999003410339355
v 280.780029296875 -395.91064453125 4.999955654144287
v 283.2580261230469 -393.4448547363281 4.999956130981445
v -140.97288513183594 30.847126007080078 4.9999003410339355
v -143.4508819580078 28.381324768066406 4.999899864196777
v -140.97288513183594 30.84712791442871 29.999900817871094
v -143.4508819580078 28.38132667541504 29.999900817871094
v -143.4508819580078 28.381324768066406 4.999899864196777
v 72.19853210449219 -187.30467224121094 4.9999284744262695
v -143.4508819580078 28.38132667541504 29.999900817871094
v 72.19853210449219 -187.30467224121094 29.999929428100586
v 280.780029296875 -395.91064453125 4.999955654144287
v 280.780029296875 -395.91064453125 29.999956130981445
v 280.780029296875 -395.91064453125 4.999955654144287
v 283.2580261230469 -393.4448547363281 4.999956130981445
v 280.780029296875 -395.91064453125 29.999956130981445
v 283.2580261230469 -393.4448547363281 29.999956130981445
v 283.2580261230469 -393.4448547363281 4.999956130981445
v -140.97280883789062 30.847017288208008 4.9999003410339355
v 283.2580261230469 -393.4448547363281 29.999956130981445
v -140.97280883789062 30.84701919555664 29.999900817871094
v 72.19853210449219 -187.30467224121094 29.999929428100586
v -140.97288513183594 30.84712791442871 29.999900817871094
v -143.4508819580078 28.38132667541504 29.999900817871094
v 280.780029296875 -395.91064453125 29.999956130981445
v 283.2580261230469 -393.4448547363281 29.999956130981445
v 301.20245361328125 -382.4949951171875 5.5172815336845815e-05
v 318.89044189453125 -364.8193359375 5.440073073259555e-05
v 301.20245361328125 -382.4949951171875 5.000055313110352
v 318.89044189453125 -364.8193359375 5.000054359436035
v 318.89044189453125 -364.8193359375 5.440073073259555e-05
v -112.43289184570312 66.55274963378906 0.00019783523748628795
v 318.89044189453125 -364.8193359375 5.000054359436035
v -112.43289184570312 66.55274963378906 5.000197887420654
v -112.4328842163086 66.55271911621094 0.00019783523748628795
v -130.10858154296875 48.876922607421875 0.0001986078714253381
v -112.43289184570312 66.55271911621094 5.000197887420654
v -130.10858154296875 48.876922607421875 5.000198841094971
v -130.10858154296875 48.876922607421875 0.0001986078714253381
v 301.2023620605469 -382.4949035644531 5.5172804422909394e-05
v -130.10858154296875 48.876922607421875 5.000198841094971
v 301.2023620605469 -382.4949035644531 5.000055313110352
v -112.4328842163086 66.55271911621094 0.00019783523748628795
v 318.89044189453125 -364.8193359375 5.440073073259555e-05
v 301.20245361328125 -382.4949951171875 5.5172815336845815e-05
v -130.10858154296875 48.876922607421875 0.0001986078714253381
v -112.43289184570312 66.55271911621094 5.000197887420654
v 301.20245361328125 -382.4949951171875 5.000055313110352
v 318.89044189453125 -364.8193359375 5.000054359436035
v -130.10858154296875 48.876922607421875 5.000198841094971
v 322.406005859375 -361.26702880859375 0.00025424384512007236
v 340.093994140625 -343.5913391113281 0.0002534717496018857
v 322.406005859375 -361.26702880859375 5.0002546310424805
v 340.093994140625 -343.5913391113281 5.000253677368164
v 340.093994140625 -343.5913391113281 0.0002534717496018857
v -91.22929382324219 87.78074645996094 0.00039690625271759927
v 340.093994140625 -343.5913391113281 5.000253677368164
v -91.22929382324219 87.78074645996094 5.000396728515625
v -91.22929382324219 87.78072357177734 0.00039690625271759927
v -108.90499114990234 70.10491943359375 0.00039767890120856464
v -91.22929382324219 87.78072357177734 5.000396728515625
v -108.90499114990234 70.10491943359375 5.0003981590271
v -108.90499114990234 70.10491943359375 0.00039767890120856464
v 322.4059143066406 -361.2669372558594 0.00025424384512007236
v -108.90499114990234 70.10491943359375 5.0003981590271
v 322.4059143066406 -361.2669372558594 5.0002546310424805
v -91.22929382324219 87.78072357177734 0.00039690625271759927
v 340.093994140625 -343.5913391113281 0.0002534717496018857
v 322.406005859375 -361.26702880859375 0.00025424384512007236
v -108.90499114990234 70.10491943359375 0.00039767890120856464
v -91.22929382324219 87.78072357177734 5.000396728515625
v 322.406005859375 -361.26702880859375 5.0002546310424805
v 340.093994140625 -343.5913391113281 5.000253677368164
v -108.90499114990234 70.10491943359375 5.0003981590271
v 343.609619140625 -340.0511474609375 0.00045331596629694104
v 361.2975769042969 -322.3754577636719 0.0004525438998825848
v 343.609619140625 -340.0511474609375 5.000453472137451
v 361.2975769042969 -322.3754577636719 5.000452995300293
v 361.2975769042969 -322.3754577636719 0.0004525438998825848
v -70.02569580078125 108.99664306640625 0.0005959783447906375
v 361.2975769042969 -322.3754577636719 5.000452995300293
v -70.02570343017578 108.99664306640625 5.000596046447754
v -70.02568817138672 108.99662780761719 0.0005959783447906375
v -87.70138549804688 91.32081604003906 0.0005967510514892638
v -70.02569580078125 108.99662780761719 5.000596046447754
v -87.70138549804688 91.32081604003906 5.0005974769592285
v -87.70138549804688 91.32081604003906 0.0005967510514892638
v 343.6095275878906 -340.0510559082031 0.00045331596629694104
v -87.70138549804688 91.32081604003906 5.0005974769592285
v 343.6095275878906 -340.0510559082031 5.000453472137451
v -70.02568817138672 108.99662780761719 0.0005959783447906375
v 361.2975769042969 -322.3754577636719 0.0004525438998825848
v 343.609619140625 -340.0511474609375 0.00045331596629694104
v -87.70138549804688 91.32081604003906 0.0005967510514892638
v -70.02569580078125 108.99662780761719 5.000596046447754
v 343.609619140625 -340.0511474609375 5.000453472137451
v 361.2975769042969 -322.3754577636719 5.000452995300293
v -87.70138549804688 91.32081604003906 5.0005974769592285
v -147.78439331054688 24.133323669433594 -10.0
v -140.71649169921875 17.06542205810547 -9.999999046325684
v -147.78439331054688 24.133323669433594 -1.6381957834710192e-07
v -140.71649169921875 17.0654239654541 7.630236495970166e-07
v -140.71649169921875 17.0654239654541 -9.999999046325684
v -27.594009399414062 130.22462463378906 -10.000303268432617
v -140.71649169921875 17.065425872802734 7.630235359101789e-07
v -27.594009399414062 130.22462463378906 -0.00030369823798537254
v -27.593994140625 130.22463989257812 -10.000303268432617
v -34.66179656982422 137.29254150390625 -10.000304222106934
v -27.593994140625 130.22463989257812 -0.00030369823798537254
v -34.66179656982422 137.29254150390625 -0.0003046250785700977
v -34.66179656982422 137.29254150390625 -10.000304222106934
v -147.7843780517578 24.133331298828125 -10.0
v -34.66179656982422 137.29254150390625 -0.0003046250785700977
v -147.7843780517578 24.133331298828125 -1.6381999046188866e-07
v -147.78439331054688 24.133323669433594 -10.0
v -34.66179656982422 137.29254150390625 -10.000304222106934
v -140.71649169921875 17.0654239654541 -9.999999046325684
v -27.593994140625 130.22463989257812 -10.000303268432617
v -147.78439331054688 24.133323669433594 -1.5998367075553688e-09
v -140.71649169921875 17.065425872802734 9.252432846551528e-07
v -34.66179656982422 137.29254150390625 -0.0003044628829229623
v -27.593994140625 130.22463989257812 -0.00030353604233823717
v 60.809326171875 -184.4970703125 -10.000271797180176
v 67.87721252441406 -191.5648651123047 -10.00027084350586
v 60.809326171875 -184.4970703125 -0.00027232017600908875
v 67.87721252441406 -191.5648651123047 -0.0002713933354243636
v 67.87721252441406 -191.5648651123047 -10.00027084350586
v 181.02426147460938 -78.40576171875 -10.00037670135498
v 67.87721252441406 -191.5648651123047 -0.0002713933354243636
v 181.02426147460938 -78.40576171875 -0.0003761779807973653
v 181.02423095703125 -78.40576171875 -10.00037670135498
v 173.956298828125 -71.33786010742188 -10.00037670135498
v 181.02423095703125 -78.40576171875 -0.0003761779807973653
v 173.956298828125 -71.33786010742188 -0.00037710482138209045
v 173.956298828125 -71.33786010742188 -10.00037670135498
v 60.809326171875 -184.4970703125 -10.000271797180176
v 173.956298828125 -71.33786010742188 -0.0003785949375014752
v 60.809326171875 -184.4970703125 -0.0002738102921284735
v 60.809326171875 -184.4970703125 -10.000271797180176
v 173.956298828125 -71.33786010742188 -10.00037670135498
v 67.87721252441406 -191.5648651123047 -10.00027084350586
v 181.02423095703125 -78.40576171875 -10.00037670135498
v 60.809326171875 -184.4970703125 -0.0002721579803619534
v 67.87721252441406 -191.5648651123047 -0.00027123113977722824
v 173.956298828125 -71.33786010742188 -0.00037694262573495507
v 181.02423095703125 -78.40576171875 -0.00037601578515022993
v 269.39093017578125 -393.10296630859375 -10.000245094299316
v 276.4588623046875 -400.17083740234375 -10.000244140625
v 269.39093017578125 -393.10296630859375 -0.0002449658641126007
v 276.4588623046875 -400.17083740234375 -0.00024403903807979077
v 276.4588623046875 -400.17083740234375 -10.000244140625
v 389.6056823730469 -287.01165771484375 -10.000348091125488
v 276.4588623046875 -400.17083740234375 -0.0002455291396472603
v 389.6056823730469 -287.01165771484375 -0.00035031381412409246
v 389.6056823730469 -287.0116271972656 -10.000348091125488
v 382.5379333496094 -279.9437255859375 -10.000349998474121
v 389.6056823730469 -287.0116271972656 -0.0003488236980047077
v 382.5379333496094 -279.9437255859375 -0.00034975053858943284
v 382.5379333496094 -279.9437255859375 -10.000349998474121
v 269.39093017578125 -393.10296630859375 -10.000245094299316
v 382.5379333496094 -279.9437255859375 -0.00034975053858943284
v 269.39093017578125 -393.10296630859375 -0.0002449658641126007
v 269.39093017578125 -393.10296630859375 -10.000245094299316
v 382.5379333496094 -279.9437255859375 -10.000349998474121
v 276.4588623046875 -400.17083740234375 -10.000244140625
v 389.6056823730469 -287.0116271972656 -10.000348091125488
v 269.39093017578125 -393.10296630859375 -0.0002448036684654653
v 276.4588623046875 -400.17083740234375 -0.0002438768424326554
v 382.5379333496094 -279.9437255859375 -0.00034958834294229746
v 389.6056823730469 -287.0116271972656 -0.0003486615023575723
v -34.722877502441406 -88.95256042480469 -8.51732402225025e-05
v -34.722877502441406 -88.95256042480469 -10.000085830688477
v 106.68342590332031 52.53913116455078 -129.99807739257812
v 106.68342590332031 52.53913116455078 -139.99807739257812
v -41.79077911376953 -81.884765625 -10.00008773803711
v 99.61550903320312 59.60692596435547 -129.99807739257812
v 99.61550903320312 59.60692596435547 -139.99807739257812
v -41.79077911376953 -81.884765625 -8.610007353127003e-05
v -41.79077911376953 -81.884765625 -10.000085830688477
v 99.61550903320312 59.60692596435547 -139.99807739257812
v -34.722877502441406 -88.95256042480469 -10.000085830688477
v 106.68341064453125 52.53912353515625 -139.99807739257812
v -41.79077911376953 -81.884765625 -8.593785605626181e-05
v -34.722877502441406 -88.95256042480469 -8.501102274749428e-05
v 99.61550903320312 59.60692596435547 -129.99807739257812
v 106.68341064453125 52.53912353515625 -129.99807739257812
v 173.85873413085938 -297.55859375 -5.781892832601443e-05
v 173.85873413085938 -297.55859375 -10.0000581741333
v 315.2649230957031 -156.06689453125 -129.99806213378906
v 315.2649230957031 -156.06689453125 -139.99806213378906
v 166.79083251953125 -290.4906311035156 -10.00006103515625
v 308.1969909667969 -148.9989776611328 -129.99806213378906
v 308.1969909667969 -148.9989776611328 -139.99806213378906
v 166.79083251953125 -290.4906311035156 -5.8745776186697185e-05
v 166.79080200195312 -290.49066162109375 -10.000059127807617
v 308.1969909667969 -148.9989776611328 -139.99806213378906
v 173.85873413085938 -297.55859375 -10.0000581741333
v 315.2649230957031 -156.06687927246094 -139.99806213378906
v 166.79080200195312 -290.49066162109375 -5.858355507371016e-05
v 173.85873413085938 -297.55859375 -5.765671085100621e-05
v 308.1969909667969 -148.9989776611328 -129.99806213378906
v 315.2649230957031 -156.06687927246094 -129.99806213378906
v -41.79077911376953 -81.884765625 -10.000085830688477
v -34.722877502441406 -88.95256042480469 -10.000085830688477
v -41.79077911376953 -81.884765625 -8.610007353127003e-05
v -34.722877502441406 -88.95256042480469 -8.51732402225025e-05
v 78.42410278320312 24.20652198791504 -10.000289916992188
v 78.42410278320312 24.206523895263672 -0.0002912857453338802
v 78.42410278320312 24.206533432006836 -10.000289916992188
v 71.356201171875 31.274433135986328 -10.000290870666504
v 78.42410278320312 24.206533432006836 -0.00029128577443771064
v 71.356201171875 31.274433135986328 -0.00029221258591860533
v 71.356201171875 31.274433135986328 -10.000290870666504
v -41.79077911376953 -81.884765625 -10.000085830688477
v 71.356201171875 31.274433135986328 -0.00029072246979922056
v 71.356201171875 31.274433135986328 -10.000290870666504
v 78.42410278320312 24.206533432006836 -10.000289916992188
v 71.356201171875 31.274433135986328 -0.0002905602741520852
v 78.42410278320312 24.206533432006836 -0.0002896334626711905
v 166.79080200195312 -290.49066162109375 -10.000059127807617
v 173.85873413085938 -297.55859375 -10.0000581741333
v 166.79080200195312 -290.49066162109375 -6.023589594406076e-05
v 173.85873413085938 -297.55859375 -5.9309044445399195e-05
v 287.0055847167969 -184.3993682861328 -10.000262260437012
v 287.0055847167969 -184.3993682861328 -0.00026393146254122257
v 287.0055847167969 -184.3993682861328 -10.000262260437012
v 279.9378356933594 -177.33145141601562 -10.000263214111328
v 287.0055847167969 -184.3993682861328 -0.0002624413464218378
v 279.9378356933594 -177.33145141601562 -0.00026336818700656295
v 279.9378356933594 -177.33145141601562 -10.000263214111328
v 166.79080200195312 -290.49066162109375 -10.000059127807617
v 279.9378356933594 -177.33145141601562 -0.00026336818700656295
v 166.79080200195312 -290.49066162109375 -5.874577982467599e-05
v 279.9378356933594 -177.33145141601562 -10.000263214111328
v 287.0055847167969 -184.3993682861328 -10.000262260437012
v 279.9378356933594 -177.33145141601562 -0.00026320599135942757
v 287.0055847167969 -184.3993682861328 -0.00026227915077470243
v 364.8009948730469 -318.7987365722656 5.23842973052524e-05
v 382.4889831542969 -301.1229248046875 5.16121945111081e-05
v 364.8009948730469 -318.7987365722656 5.000052452087402
v 382.4889831542969 -301.1229248046875 5.000051975250244
v 382.4889831542969 -301.1229248046875 5.16121945111081e-05
v -48.834144592285156 130.24896240234375 0.00019504671217873693
v 382.4889831542969 -301.1229248046875 5.000051975250244
v -48.834144592285156 130.24896240234375 5.000195503234863
v -48.834190368652344 130.24903869628906 0.00019504671217873693
v -66.51000213623047 112.57331848144531 0.00019581933156587183
v -48.834190368652344 130.24903869628906 5.000195503234863
v -66.51000213623047 112.57331848144531 5.0001959800720215
v -66.51000213623047 112.57332611083984 0.00019581933156587183
v 364.8010559082031 -318.7987365722656 5.23842973052524e-05
v -66.51000213623047 112.57332611083984 5.0001959800720215
v 364.8010559082031 -318.7987365722656 5.000052452087402
v -48.834190368652344 130.24903869628906 0.00019504671217873693
v 382.4889831542969 -301.1229248046875 5.16121945111081e-05
v 364.8009948730469 -318.7987365722656 5.23842973052524e-05
v -66.51000213623047 112.57332611083984 0.00019581933156587183
v -48.834190368652344 130.24903869628906 5.000195503234863
v 364.8009948730469 -318.7987365722656 5.000052452087402
v 382.4889831542969 -301.1229248046875 5.000051975250244
v -66.51000213623047 112.57332611083984 5.0001959800720215
v -154.86447143554688 31.164628982543945 -9.257763622372295e-07
v -137.17648315429688 48.84031677246094 -1.6978674466372468e-06
v -154.86447143554688 31.164628982543945 4.999999046325684
v -137.17648315429688 48.84031677246094 4.999998092651367
v -137.17648315429688 48.84031677246094 -1.6978674466372468e-06
v -568.4998168945312 480.21240234375 0.00014173664385452867
v -137.17648315429688 48.84031677246094 4.999998092651367
v -568.4998168945312 480.21240234375 5.000141620635986
v -568.4998168945312 480.21240234375 0.00014173664385452867
v -586.1754760742188 462.53656005859375 0.0001425092777935788
v -568.4998168945312 480.21240234375 5.000141620635986
v -586.1754760742188 462.53656005859375 5.000143051147461
v -586.1754760742188 462.53656005859375 0.0001425092777935788
v -154.86456298828125 31.164724349975586 -9.257888677893789e-07
v -586.1754760742188 462.53656005859375 5.000143051147461
v -154.86456298828125 31.164724349975586 4.999999046325684
v -568.4998168945312 480.21240234375 0.00014173664385452867
v -137.17648315429688 48.84031677246094 -1.6978674466372468e-06
v -154.86447143554688 31.164628982543945 -9.257763622372295e-07
v -586.1754760742188 462.53656005859375 0.0001425092777935788
v -568.4998168945312 480.21240234375 5.000141620635986
v -154.86447143554688 31.164628982543945 4.999999046325684
v -137.17648315429688 48.84031677246094 4.999998092651367
v -586.1754760742188 462.53656005859375 5.000143051147461
v -154.08326721191406 38.96482849121094 5.00009822845459
v -578.314208984375 463.25677490234375 5.000042915344238
v -575.8362426757812 465.7225646972656 5.000042915344238
v -151.60528564453125 41.430599212646484 5.000098705291748
v -575.8362426757812 465.7225646972656 5.000042915344238
v -578.314208984375 463.25677490234375 5.000042915344238
v -575.8362426757812 465.7225646972656 30.000041961669922
v -578.314208984375 463.25677490234375 30.000041961669922
v -578.314208984375 463.25677490234375 5.000042915344238
v -154.08335876464844 38.96492004394531 5.00009822845459
v -578.314208984375 463.25677490234375 30.000041961669922
v -154.0833740234375 38.96492385864258 30.000097274780273
v -154.08326721191406 38.96482849121094 5.00009822845459
v -151.60528564453125 41.430599212646484 5.000098705291748
v -154.08326721191406 38.96482849121094 30.000097274780273
v -151.60528564453125 41.43060302734375 30.000097274780273
v -151.60528564453125 41.430599212646484 5.000098705291748
v -575.8361206054688 465.72247314453125 5.000042915344238
v -151.60528564453125 41.43060302734375 30.000097274780273
v -575.8361206054688 465.72247314453125 30.000041961669922
v -154.08326721191406 38.96482849121094 30.000097274780273
v -575.8362426757812 465.7225646972656 30.000041961669922
v -578.314208984375 463.25677490234375 30.000041961669922
v -151.60528564453125 41.43060302734375 30.000097274780273
v -133.66090393066406 52.38044738769531 0.00019814631377812475
v -115.97291564941406 70.05613708496094 0.00019737421825993806
v -133.66090393066406 52.38044738769531 5.0001983642578125
v -115.97291564941406 70.05613708496094 5.000197887420654
v -115.97291564941406 70.05613708496094 0.00019737421825993806
v -547.2962646484375 501.42822265625 0.00034080870682373643
v -115.97291564941406 70.05613708496094 5.000197887420654
v -547.2962646484375 501.42822265625 5.000340461730957
v -547.2962036132812 501.42822265625 0.00034080870682373643
v -564.971923828125 483.75238037109375 0.00034158138441853225
v -547.2962036132812 501.42822265625 5.000340461730957
v -564.971923828125 483.75238037109375 5.000341892242432
v -564.971923828125 483.75238037109375 0.00034158138441853225
v -133.66099548339844 52.38054656982422 0.00019814629922620952
v -564.971923828125 483.75238037109375 5.000341892242432
v -133.6610107421875 52.38054656982422 5.0001983642578125
v -547.2962646484375 501.42822265625 0.00034080870682373643
v -115.97291564941406 70.05613708496094 0.00019737421825993806
v -133.66090393066406 52.38044738769531 0.00019814631377812475
v -564.971923828125 483.75238037109375 0.00034158138441853225
v -547.2962646484375 501.42822265625 5.000340461730957
v -133.66090393066406 52.38044738769531 5.0001983642578125
v -115.97291564941406 70.05613708496094 5.000197887420654
v -564.971923828125 483.75238037109375 5.000341892242432
v -112.45729064941406 73.60842895507812 0.0003972174017690122
v -94.76930236816406 91.28411865234375 0.0003964453062508255
v -112.45729064941406 73.60842895507812 5.000397205352783
v -94.76930236816406 91.28411865234375 5.000396728515625
v -94.76930236816406 91.28411865234375 0.0003964453062508255
v -526.0926513671875 522.6561889648438 0.0005398797802627087
v -94.76930236816406 91.28411865234375 5.000396728515625
v -526.0926513671875 522.6561889648438 5.000540256500244
v -526.0925903320312 522.6561889648438 0.0005398797802627087
v -543.768310546875 504.9803771972656 0.000540652428753674
v -526.0925903320312 522.6561889648438 5.000540256500244
v -543.768310546875 504.9803771972656 5.0005412101745605
v -543.768310546875 504.9803771972656 0.000540652428753674
v -112.4573974609375 73.6085205078125 0.0003972174017690122
v -543.768310546875 504.9803771972656 5.0005412101745605
v -112.4573974609375 73.6085205078125 5.000397205352783
v -526.0926513671875 522.6561889648438 0.0005398797802627087
v -94.76930236816406 91.28411865234375 0.0003964453062508255
v -112.45729064941406 73.60842895507812 0.0003972174017690122
v -543.768310546875 504.9803771972656 0.000540652428753674
v -526.0926513671875 522.6561889648438 5.000540256500244
v -112.45729064941406 73.60842895507812 5.000397205352783
v -94.76930236816406 91.28411865234375 5.000396728515625
v -543.768310546875 504.9803771972656 5.0005412101745605
v -91.25367736816406 94.8243408203125 0.00059628946473822
v -73.5656967163086 112.50003051757812 0.0005955173983238637
v -91.25367736816406 94.8243408203125 5.000596046447754
v -73.5656967163086 112.50003051757812 5.000595569610596
v -73.5656967163086 112.50003051757812 0.0005955173983238637
v -504.8890075683594 543.8721923828125 0.0007389518432319164
v -73.5656967163086 112.50003051757812 5.000595569610596
v -504.8890075683594 543.8721923828125 5.000739097595215
v -504.88897705078125 543.8721923828125 0.0007389518432319164
v -522.564697265625 526.1962890625 0.0007397244335152209
v -504.88897705078125 543.8721923828125 5.000739097595215
v -522.564697265625 526.1962890625 5.000740051269531
v -522.564697265625 526.1962890625 0.0007397244335152209
v -91.2537841796875 94.8244400024414 0.00059628946473822
v -522.564697265625 526.1962890625 5.000740051269531
v -91.2537841796875 94.8244400024414 5.000596046447754
v -504.8890075683594 543.8721923828125 0.0007389518432319164
v -73.5656967163086 112.50003051757812 0.0005955173983238637
v -91.25367736816406 94.8243408203125 0.00059628946473822
v -522.564697265625 526.1962890625 0.0007397244335152209
v -504.8890075683594 543.8721923828125 5.000739097595215
v -91.25367736816406 94.8243408203125 5.000596046447754
v -73.5656967163086 112.50003051757812 5.000595569610596
v -522.564697265625 526.1962890625 5.000740051269531
v -582.647705078125 459.0087890625 -9.999857902526855
v -575.5797729492188 451.94085693359375 -9.999856948852539
v -582.647705078125 459.0087890625 0.00014280967297963798
v -575.5797729492188 451.94085693359375 0.00014373651356436312
v -575.5797729492188 451.94085693359375 -9.999856948852539
v -462.4573059082031 565.10009765625 -10.000161170959473
v -575.5797729492188 451.94085693359375 0.00014373651356436312
v -462.4573059082031 565.10009765625 -0.00016072476864792407
v -462.4573059082031 565.10009765625 -10.000161170959473
v -469.52508544921875 572.16796875 -10.000162124633789
v -462.4573059082031 565.10009765625 -0.00016072476864792407
v -469.52508544921875 572.16796875 -0.0001616516092326492
v -469.52508544921875 572.16796875 -10.000162124633789
v -582.647705078125 459.0087890625 -9.999857902526855
v -469.52508544921875 572.16796875 -0.0001616516092326492
v -582.647705078125 459.0087890625 0.00014280967297963798
v -582.647705078125 459.0087890625 -9.999857902526855
v -469.52508544921875 572.16796875 -10.000162124633789
v -575.5797729492188 451.94085693359375 -9.999856948852539
v -462.4573059082031 565.10009765625 -10.000161170959473
v -582.647705078125 459.0087890625 0.00014264746278058738
v -575.5797729492188 451.94085693359375 0.00014357431791722775
v -469.52508544921875 572.16796875 -0.0001618138194316998
v -462.4573059082031 565.10009765625 -0.0001608869933988899
v -374.0539855957031 250.37838745117188 -10.000129699707031
v -366.986083984375 243.3105926513672 -10.000128746032715
v -374.0539855957031 250.37838745117188 -0.00012934669211972505
v -366.986083984375 243.3105926513672 -0.0001284198515349999
v -366.986083984375 243.3105926513672 -10.000128746032715
v -253.83905029296875 356.4696960449219 -10.00023365020752
v -366.986083984375 243.3105926513672 -0.0001284198515349999
v -253.83905029296875 356.4696960449219 -0.00023320451145991683
v -253.83908081054688 356.4696960449219 -10.00023365020752
v -260.906982421875 363.53759765625 -10.000234603881836
v -253.83908081054688 356.4696960449219 -0.00023320451145991683
v -260.906982421875 363.53759765625 -0.0002341313665965572
v -260.906982421875 363.53759765625 -10.000234603881836
v -374.0539855957031 250.37838745117188 -10.000129699707031
v -260.906982421875 363.53759765625 -0.00023562148271594197
v -374.0539855957031 250.37838745117188 -0.00013083680823910981
v -374.0539855957031 250.37838745117188 -10.000129699707031
v -260.906982421875 363.53759765625 -10.000234603881836
v -366.986083984375 243.3105926513672 -10.000128746032715
v -253.83908081054688 356.4696960449219 -10.00023365020752
v -374.0539855957031 250.37838745117188 -0.00012950891687069088
v -366.986083984375 243.3105926513672 -0.00012858207628596574
v -260.906982421875 363.53759765625 -0.0002342935767956078
v -253.83908081054688 356.4696960449219 -0.00023336672165896744
v -165.47238159179688 41.772491455078125 -10.000102996826172
v -158.4044647216797 34.704620361328125 -10.000101089477539
v -165.47238159179688 41.772491455078125 -0.0001019923947751522
v -158.4044647216797 34.704620361328125 -0.00010106555419042706
v -158.4044647216797 34.704620361328125 -10.000101089477539
v -45.257591247558594 147.86380004882812 -10.000205993652344
v -158.4044647216797 34.704620361328125 -0.00010255567030981183
v -45.257591247558594 147.86380004882812 -0.00020734033023472875
v -45.257591247558594 147.86383056640625 -10.000205993652344
v -52.32537078857422 154.9317169189453 -10.000207901000977
v -45.257591247558594 147.86383056640625 -0.00020585022866725922
v -52.32537078857422 154.9317169189453 -0.00020677706925198436
v -52.32537078857422 154.9317169189453 -10.000207901000977
v -165.47238159179688 41.772491455078125 -10.000102996826172
v -52.32537078857422 154.9317169189453 -0.00020677706925198436
v -165.47238159179688 41.772491455078125 -0.0001019923947751522
v -165.47238159179688 41.772491455078125 -10.000102996826172
v -52.32537078857422 154.9317169189453 -10.000207901000977
v -158.4044647216797 34.704620361328125 -10.000101089477539
v -45.257591247558594 147.86383056640625 -10.000205993652344
v -165.47238159179688 41.772491455078125 -0.00010215461225016043
v -158.4044647216797 34.704620361328125 -0.00010122777166543528
v -52.32537078857422 154.9317169189453 -0.00020693927945103496
v -45.257591247558594 147.86383056640625 -0.0002060124243143946
v -469.5861511230469 345.9229431152344 5.7800258218776435e-05
v -469.5861511230469 345.9229431152344 -9.9999418258667
v -328.17987060546875 487.4146423339844 -129.99795532226562
v -328.17987060546875 487.4146423339844 -139.99795532226562
v -476.6540832519531 352.9906921386719 -9.999945640563965
v -335.247802734375 494.4823913574219 -129.99795532226562
v -335.247802734375 494.4823913574219 -139.99795532226562
v -476.6540832519531 352.9906921386719 5.68734212720301e-05
v -476.6540832519531 352.9906921386719 -9.999942779541016
v -335.247802734375 494.4823913574219 -139.99795532226562
v -469.5861511230469 345.9229431152344 -9.9999418258667
v -328.17987060546875 487.4146423339844 -139.99795532226562
v -476.6540832519531 352.9906921386719 5.671120379702188e-05
v -469.5861511230469 345.9229431152344 5.76380334678106e-05
v -335.247802734375 494.4823913574219 -129.99795532226562
v -328.17987060546875 487.4146423339844 -129.99795532226562
v -261.00457763671875 137.31689453125 8.515456283930689e-05
v -261.00457763671875 137.31689453125 -9.999914169311523
v -119.5983657836914 278.80859375 -129.99790954589844
v -119.5983657836914 278.80859375 -139.99790954589844
v -268.07244873046875 144.38482666015625 -9.999918937683105
v -126.6662826538086 285.8764953613281 -129.99790954589844
v -126.6662826538086 285.8764953613281 -139.99790954589844
v -268.07244873046875 144.38482666015625 8.422771497862414e-05
v -268.0724792480469 144.3848114013672 -9.999916076660156
v -126.6662826538086 285.8764953613281 -139.99790954589844
v -261.00457763671875 137.31689453125 -9.999914169311523
v -119.5983657836914 278.80859375 -139.99790954589844
v -268.0724792480469 144.3848114013672 8.406549750361592e-05
v -261.00457763671875 137.31689453125 8.499234536429867e-05
v -126.6662826538086 285.8764953613281 -129.99790954589844
v -119.5983657836914 278.80859375 -129.99790954589844
v -476.6540832519531 352.9906921386719 -9.999942779541016
v -469.5861511230469 345.9229431152344 -9.9999418258667
v -476.6540832519531 352.9906921386719 5.68734212720301e-05
v -469.5861511230469 345.9229431152344 5.7800258218776435e-05
v -356.439208984375 459.0820007324219 -10.000147819519043
v -356.439208984375 459.0820007324219 -0.00014831229054834694
v -356.439208984375 459.0820007324219 -10.000147819519043
v -363.507080078125 466.1499328613281 -10.00014877319336
v -356.439208984375 459.0820007324219 -0.00014831229054834694
v -363.507080078125 466.1499328613281 -0.0001492391456849873
v -363.507080078125 466.1499328613281 -10.00014877319336
v -476.6540832519531 352.9906921386719 -9.999942779541016
v -363.507080078125 466.1499328613281 -0.00014774902956560254
v -363.507080078125 466.1499328613281 -10.00014877319336
v -356.439208984375 459.0820007324219 -10.000147819519043
v -363.507080078125 466.1499328613281 -0.00014791123976465315
v -356.439208984375 459.0820007324219 -0.000146984399179928
v -268.0724792480469 144.3848114013672 -9.999916076660156
v -261.00457763671875 137.31689453125 -9.999914169311523
v -268.0724792480469 144.3848114013672 8.273759885923937e-05
v -261.00457763671875 137.31689453125 8.366444671992213e-05
v -147.85769653320312 250.47610473632812 -10.000120162963867
v -147.85769653320312 250.47610473632812 -0.00012095800047973171
v -147.85769653320312 250.47610473632812 -10.000120162963867
v -154.92547607421875 257.54400634765625 -10.000120162963867
v -147.85769653320312 250.47610473632812 -0.00011946788436034694
v -154.92547607421875 257.54400634765625 -0.00012039471766911447
v -154.92547607421875 257.54400634765625 -10.000120162963867
v -268.0724792480469 144.3848114013672 -9.999916076660156
v -154.92547607421875 257.54400634765625 -0.00012039471766911447
v -268.0724792480469 144.3848114013672 8.422771497862414e-05
v -154.92547607421875 257.54400634765625 -10.000120162963867
v -147.85769653320312 250.47610473632812 -10.000120162963867
v -154.92547607421875 257.54400634765625 -0.00012055693514412269
v -147.85769653320312 250.47610473632812 -0.00011963010183535516
v -70.0622787475586 116.07673645019531 0.00019535781757440418
v -52.374290466308594 133.75254821777344 0.00019458570750430226
v -70.0622787475586 116.07673645019531 5.000195503234863
v -52.374290466308594 133.75254821777344 5.000195026397705
v -52.374290466308594 133.75254821777344 0.00019458570750430226
v -483.6974182128906 565.1243896484375 0.0003380202688276768
v -52.374290466308594 133.75254821777344 5.000195026397705
v -483.6974182128906 565.1243896484375 5.000338077545166
v -483.697509765625 565.12451171875 0.0003380202688276768
v -501.3733215332031 547.4488525390625 0.0003387928882148117
v -483.697509765625 565.12451171875 5.000338077545166
v -501.3733215332031 547.4488525390625 5.000339031219482
v -501.3733215332031 547.4488525390625 0.0003387928882148117
v -70.0622329711914 116.07673645019531 0.00019535781757440418
v -501.3733215332031 547.4488525390625 5.000339031219482
v -70.0622329711914 116.07673645019531 5.000195503234863
v -483.697509765625 565.12451171875 0.0003380202688276768
v -52.374290466308594 133.75254821777344 0.00019458570750430226
v -70.0622787475586 116.07673645019531 0.00019535781757440418
v -501.3733215332031 547.4488525390625 0.0003387928882148117
v -483.697509765625 565.12451171875 5.000338077545166
v -70.0622787475586 116.07673645019531 5.000195503234863
v -52.374290466308594 133.75254821777344 5.000195026397705
v -501.3733215332031 547.4488525390625 5.000339031219482
v -589.727783203125 466.01568603515625 -5.795014294562861e-05
v -572.039794921875 483.69134521484375 -5.8722234825836495e-05
v -589.727783203125 466.01568603515625 4.999941825866699
v -572.039794921875 483.69134521484375 4.999941349029541
v -572.039794921875 483.69134521484375 -5.8722234825836495e-05
v -1003.363037109375 915.0634765625 8.471227192785591e-05
v -572.039794921875 483.69134521484375 4.999941349029541
v -1003.363037109375 915.0634765625 5.000085353851318
v -1003.363037109375 915.0634765625 8.471227192785591e-05
v -1021.038818359375 897.3876953125 8.548490586690605e-05
v -1003.363037109375 915.0634765625 5.000085353851318
v -1021.038818359375 897.3876953125 5.000085830688477
v -1021.038818359375 897.3876953125 8.548490586690605e-05
v -589.7279052734375 466.0157775878906 -5.795015749754384e-05
v -1021.038818359375 897.3876953125 5.000085830688477
v -589.7279052734375 466.0157775878906 4.999941825866699
v -1003.363037109375 915.0634765625 8.471227192785591e-05
v -572.039794921875 483.69134521484375 -5.8722234825836495e-05
v -589.727783203125 466.01568603515625 -5.795014294562861e-05
v -1021.038818359375 897.3876953125 8.548490586690605e-05
v -1003.363037109375 915.0634765625 5.000085353851318
v -589.727783203125 466.01568603515625 4.999941825866699
v -572.039794921875 483.69134521484375 4.999941349029541
v -1021.038818359375 897.3876953125 5.000085830688477
v -588.946533203125 473.81591796875 5.000041961669922
v -1013.1773681640625 898.10791015625 4.999986171722412
v -1010.699462890625 900.57373046875 4.999985694885254
v -586.4685668945312 476.28167724609375 5.000041484832764
v -1010.699462890625 900.57373046875 4.999985694885254
v -1013.1773681640625 898.10791015625 4.999986171722412
v -1010.699462890625 900.57373046875 29.999984741210938
v -1013.1773681640625 898.10791015625 29.999984741210938
v -1013.1773681640625 898.10791015625 4.999986171722412
v -588.9466552734375 473.8160095214844 5.000041961669922
v -1013.1773681640625 898.10791015625 29.999984741210938
v -588.9466552734375 473.8160095214844 30.00004005432129
v -588.946533203125 473.81591796875 5.000041961669922
v -586.4685668945312 476.28167724609375 5.000041484832764
v -588.946533203125 473.81591796875 30.00004005432129
v -586.4685668945312 476.28167724609375 30.00004005432129
v -586.4685668945312 476.28167724609375 5.000041484832764
v -1010.699462890625 900.5736083984375 4.999985694885254
v -586.4685668945312 476.28167724609375 30.00004005432129
v -1010.699462890625 900.5736083984375 29.999984741210938
v -588.946533203125 473.81591796875 30.00004005432129
v -1010.699462890625 900.57373046875 29.999984741210938
v -1013.1773681640625 898.10791015625 29.999984741210938
v -586.4685668945312 476.28167724609375 30.00004005432129
v -568.5240478515625 487.23150634765625 0.00014112195640336722
v -550.8360595703125 504.90716552734375 0.00014034986088518053
v -568.5240478515625 487.23150634765625 5.000141143798828
v -550.8360595703125 504.90716552734375 5.00014066696167
v -550.8360595703125 504.90716552734375 0.00014034986088518053
v -982.159423828125 936.279296875 0.0002837843494489789
v -550.8360595703125 504.90716552734375 5.00014066696167
v -982.159423828125 936.279296875 5.000284194946289
v -982.1593017578125 936.279296875 0.0002837843494489789
v -999.8350830078125 918.603515625 0.0002845570270437747
v -982.1593017578125 936.279296875 5.000284194946289
v -999.8350830078125 918.603515625 5.000284671783447
v -999.8350830078125 918.603515625 0.0002845570270437747
v -568.524169921875 487.2315979003906 0.00014112192729953676
v -999.8350830078125 918.603515625 5.000284671783447
v -568.524169921875 487.2315979003906 5.000141143798828
v -982.1593017578125 936.279296875 0.0002837843494489789
v -550.8360595703125 504.90716552734375 0.00014034986088518053
v -568.5240478515625 487.23150634765625 0.00014112195640336722
v -999.8350830078125 918.603515625 0.0002845570270437747
v -982.1593017578125 936.279296875 5.000284194946289
v -568.5240478515625 487.23150634765625 5.000141143798828
v -550.8360595703125 504.90716552734375 5.00014066696167
v -999.8350830078125 918.603515625 5.000284671783447
v -547.320556640625 508.45953369140625 0.0003401930443942547
v -529.632568359375 526.1351928710938 0.00033942091977223754
v -547.320556640625 508.45953369140625 5.000339984893799
v -529.632568359375 526.1351928710938 5.000339508056641
v -529.632568359375 526.1351928710938 0.00033942091977223754
v -960.955810546875 957.50732421875 0.00048285542288795114
v -529.632568359375 526.1351928710938 5.000339508056641
v -960.955810546875 957.50732421875 5.00048303604126
v -960.955810546875 957.50732421875 0.00048285542288795114
v -978.631591796875 939.83154296875 0.0004836280713789165
v -960.955810546875 957.50732421875 5.00048303604126
v -978.631591796875 939.83154296875 5.000483989715576
v -978.631591796875 939.83154296875 0.0004836280713789165
v -547.3206787109375 508.4596252441406 0.00034019301529042423
v -978.631591796875 939.83154296875 5.000483989715576
v -547.3206787109375 508.4596252441406 5.000339984893799
v -960.955810546875 957.50732421875 0.00048285542288795114
v -529.632568359375 526.1351928710938 0.00033942091977223754
v -547.320556640625 508.45953369140625 0.0003401930443942547
v -978.631591796875 939.83154296875 0.0004836280713789165
v -960.955810546875 957.50732421875 5.00048303604126
v -547.320556640625 508.45953369140625 5.000339984893799
v -529.632568359375 526.1351928710938 5.000339508056641
v -978.631591796875 939.83154296875 5.000483989715576
v -526.116943359375 529.6753540039062 0.0005392651073634624
v -508.428955078125 547.35107421875 0.0005384930409491062
v -526.116943359375 529.6753540039062 5.0005388259887695
v -508.428955078125 547.35107421875 5.000538349151611
v -508.428955078125 547.35107421875 0.0005384930409491062
v -939.7523193359375 978.72314453125 0.0006819274858571589
v -508.428955078125 547.35107421875 5.000538349151611
v -939.7523193359375 978.72314453125 5.0006818771362305
v -939.7523193359375 978.72314453125 0.0006819274858571589
v -957.427978515625 961.04736328125 0.0006827000761404634
v -939.7523193359375 978.72314453125 5.0006818771362305
v -957.427978515625 961.04736328125 5.000682830810547
v -957.427978515625 961.04736328125 0.0006827000761404634
v -526.1170654296875 529.6754150390625 0.0005392651073634624
v -957.427978515625 961.04736328125 5.000682830810547
v -526.1170654296875 529.6754150390625 5.0005388259887695
v -939.7523193359375 978.72314453125 0.0006819274858571589
v -508.428955078125 547.35107421875 0.0005384930409491062
v -526.116943359375 529.6753540039062 0.0005392651073634624
v -957.427978515625 961.04736328125 0.0006827000761404634
v -939.7523193359375 978.72314453125 5.0006818771362305
v -526.116943359375 529.6753540039062 5.0005388259887695
v -508.428955078125 547.35107421875 5.000538349151611
v -957.427978515625 961.04736328125 5.000682830810547
v -1017.510986328125 893.85986328125 -9.99991512298584
v -1010.443115234375 886.7919921875 -9.999914169311523
v -1017.510986328125 893.85986328125 8.578530105296522e-05
v -1010.443115234375 886.7919921875 8.671214163769037e-05
v -1010.443115234375 886.7919921875 -9.999914169311523
v -869.073486328125 1028.271484375 -10.000519752502441
v -1010.443115234375 886.7919921875 8.671214163769037e-05
v -869.073486328125 1028.271484375 -0.0005192486569285393
v -869.073486328125 1028.271484375 -10.000519752502441
v -876.141357421875 1035.33935546875 -10.000520706176758
v -869.073486328125 1028.271484375 -0.0005192486569285393
v -876.141357421875 1035.33935546875 -0.0005201754975132644
v -876.141357421875 1035.33935546875 -10.000520706176758
v -1017.510986328125 893.85986328125 -9.99991512298584
v -876.141357421875 1035.33935546875 -0.0005201754975132644
v -1017.510986328125 893.85986328125 8.578530105296522e-05
v -1017.510986328125 893.85986328125 -9.99991512298584
v -876.141357421875 1035.33935546875 -10.000520706176758
v -1010.443115234375 886.7919921875 -9.999914169311523
v -869.073486328125 1028.271484375 -10.000519752502441
v -1017.510986328125 893.85986328125 8.562309085391462e-05
v -1010.443115234375 886.7919921875 8.654994599055499e-05
v -876.141357421875 1035.33935546875 -0.0005203377222642303
v -869.073486328125 1028.271484375 -0.0005194108816795051
v -808.917236328125 685.2294921875 -10.000186920166016
v -801.849365234375 678.16162109375 -10.0001859664917
v -808.917236328125 685.2294921875 -0.00018637104949448258
v -801.849365234375 678.16162109375 -0.00018544422346167266
v -801.849365234375 678.16162109375 -10.0001859664917
v -660.455322265625 819.6412353515625 -10.000591278076172
v -801.849365234375 678.16162109375 -0.00018544422346167266
v -660.455322265625 819.6412353515625 -0.0005917283706367016
v -660.455322265625 819.6412353515625 -10.000591278076172
v -667.523193359375 826.708984375 -10.000593185424805
v -660.455322265625 819.6412353515625 -0.0005917283706367016
v -667.523193359375 826.708984375 -0.0005926552112214267
v -667.523193359375 826.708984375 -10.000593185424805
v -808.917236328125 685.2294921875 -10.000186920166016
v -667.523193359375 826.708984375 -0.0005926552112214267
v -808.917236328125 685.2294921875 -0.00018637104949448258
v -808.917236328125 685.2294921875 -10.000186920166016
v -667.523193359375 826.708984375 -10.000593185424805
v -801.849365234375 678.16162109375 -10.0001859664917
v -660.455322265625 819.6412353515625 -10.000591278076172
v -808.917236328125 685.2294921875 -0.0001865332742454484
v -801.849365234375 678.16162109375 -0.0001856064482126385
v -667.523193359375 826.708984375 -0.0005928174359723926
v -660.455322265625 819.6412353515625 -0.0005918905953876674
v -600.335693359375 476.62353515625 -10.00015926361084
v -593.2677612304688 469.5556640625 -10.000158309936523
v -600.335693359375 476.62353515625 -0.00015901676670182496
v -593.2677612304688 469.5556640625 -0.0001580899115651846
v -593.2677612304688 469.5556640625 -10.000158309936523
v -451.873779296875 611.03515625 -10.000564575195312
v -593.2677612304688 469.5556640625 -0.0001580899115651846
v -451.873779296875 611.03515625 -0.000564374087844044
v -451.873779296875 611.03515625 -10.000564575195312
v -458.94171142578125 618.10302734375 -10.000564575195312
v -451.873779296875 611.03515625 -0.000564374087844044
v -458.94171142578125 618.10302734375 -0.00056530098663643
v -458.94171142578125 618.10302734375 -10.000564575195312
v -600.335693359375 476.62353515625 -10.00015926361084
v -458.94171142578125 618.10302734375 -0.00056530098663643
v -600.335693359375 476.62353515625 -0.00015901676670182496
v -600.335693359375 476.62353515625 -10.00015926361084
v -458.94171142578125 618.10302734375 -10.000564575195312
v -593.2677612304688 469.5556640625 -10.000158309936523
v -451.873779296875 611.03515625 -10.000564575195312
v -600.335693359375 476.62353515625 -0.00015917897690087557
v -593.2677612304688 469.5556640625 -0.00015825213631615043
v -458.94171142578125 618.10302734375 -0.0005654631531797349
v -451.873779296875 611.03515625 -0.0005645363125950098
v -904.449462890625 780.77392578125 7.758877131891495e-07
v -904.449462890625 780.77392578125 -9.999999046325684
v -763.043212890625 922.265625 -129.9980010986328
v -763.043212890625 922.265625 -139.9980010986328
v -911.5174560546875 787.8416748046875 -10.00000286102295
v -770.111083984375 929.33349609375 -129.9980010986328
v -770.111083984375 929.33349609375 -139.9980010986328
v -911.5174560546875 787.8416748046875 -1.509419149670066e-07
v -911.5174560546875 787.8416748046875 -10.0
v -770.111083984375 929.33349609375 -139.9980010986328
v -904.449462890625 780.77392578125 -9.999999046325684
v -763.043212890625 922.265625 -139.9980010986328
v -911.5174560546875 787.8416748046875 -3.131594041860808e-07
v -904.449462890625 780.77392578125 6.1367023818093e-07
v -770.111083984375 929.33349609375 -129.9980010986328
v -763.043212890625 922.265625 -129.9980010986328
v -695.8677978515625 572.16796875 2.8130196369602345e-05
v -695.8677978515625 572.16796875 -9.999971389770508
v -554.461669921875 713.65966796875 -129.9979705810547
v -554.461669921875 713.65966796875 -139.9979705810547
v -702.935791015625 579.23583984375 -9.999975204467773
v -561.5296020507812 720.7275390625 -129.9979705810547
v -561.5296020507812 720.7275390625 -139.9979705810547
v -702.935791015625 579.23583984375 2.7203355784877203e-05
v -702.935791015625 579.23583984375 -9.999972343444824
v -561.5296020507812 720.7275390625 -139.9979705810547
v -695.8677978515625 572.16796875 -9.999971389770508
v -554.461669921875 713.65966796875 -139.9979705810547
v -702.935791015625 579.23583984375 2.7041138309868984e-05
v -695.8677978515625 572.16796875 2.7967978894594125e-05
v -561.5296020507812 720.7275390625 -129.9979705810547
v -554.461669921875 713.65966796875 -129.9979705810547
v -911.5174560546875 787.8416748046875 -10.0
v -904.449462890625 780.77392578125 -9.999999046325684
v -911.5174560546875 787.8416748046875 -1.509419149670066e-07
v -904.449462890625 780.77392578125 7.758877131891495e-07
v -763.055419921875 922.25341796875 -10.000505447387695
v -763.055419921875 922.25341796875 -0.0005053461063653231
v -763.0552978515625 922.25341796875 -10.000505447387695
v -770.123291015625 929.3212890625 -10.000507354736328
v -763.0552978515625 922.25341796875 -0.0005053461063653231
v -770.123291015625 929.3212890625 -0.0005062729469500482
v -770.123291015625 929.3212890625 -10.000507354736328
v -770.123291015625 929.3212890625 -0.0005062729469500482
v -770.123291015625 929.3212890625 -10.000507354736328
v -763.055419921875 922.25341796875 -10.000505447387695
v -770.123291015625 929.3212890625 -0.0005064351134933531
v -763.055419921875 922.25341796875 -0.000505508272908628
v -702.935791015625 579.23583984375 -9.999972343444824
v -695.8677978515625 572.16796875 -9.999971389770508
v -702.935791015625 579.23583984375 2.5713239665492438e-05
v -695.8677978515625 572.16796875 2.664008025021758e-05
v -554.473876953125 713.6474609375 -10.000478744506836
v -554.473876953125 713.6474609375 -0.000477991794468835
v -554.473876953125 713.6474609375 -10.000478744506836
v -561.5418090820312 720.71533203125 -10.000479698181152
v -554.473876953125 713.6474609375 -0.000477991794468835
v -561.5418090820312 720.71533203125 -0.0004789186059497297
v -561.5418090820312 720.71533203125 -10.000479698181152
v -561.5418090820312 720.71533203125 -0.0004789186059497297
v -561.5418090820312 720.71533203125 -10.000479698181152
v -554.473876953125 713.6474609375 -10.000478744506836
v -561.5418090820312 720.71533203125 -0.00047908080159686506
v -554.473876953125 713.6474609375 -0.0004781539901159704
v -504.925537109375 550.927734375 0.00013833344564773142
v -487.237548828125 568.603515625 0.00013756135012954473
v -504.925537109375 550.927734375 5.000138282775879
v -487.237548828125 568.603515625 5.000137805938721
v -487.237548828125 568.603515625 0.00013756135012954473
v -918.5606689453125 999.9754638671875 0.00028099591145291924
v -487.237548828125 568.603515625 5.000137805938721
v -918.5606689453125 999.9754638671875 5.000280857086182
v -918.5606689453125 999.9755859375 0.00028099591145291924
v -936.236572265625 982.2998046875 0.00028176853084005415
v -918.5606689453125 999.9755859375 5.000280857086182
v -936.236572265625 982.2998046875 5.000281810760498
v -936.236572265625 982.2998046875 0.00028176853084005415
v -504.92547607421875 550.927734375 0.00013833344564773142
v -936.236572265625 982.2998046875 5.000281810760498
v -504.92547607421875 550.927734375 5.000138282775879
v -918.560791015625 999.9755859375 0.00028099591145291924
v -487.237548828125 568.603515625 0.00013756135012954473
v -504.925537109375 550.927734375 0.00013833344564773142
v -936.236572265625 982.2998046875 0.00028176853084005415
v -918.560791015625 999.9755859375 5.000280857086182
v -504.925537109375 550.927734375 5.000138282775879
v -487.237548828125 568.603515625 5.000137805938721
v -936.236572265625 982.2998046875 5.000281810760498
v -1010.699462890625 900.57373046875 4.999985694885254
v -1007.171630859375 897.03369140625 4.999986171722412
v -1010.699462890625 900.57373046875 29.999984741210938
v -1007.171630859375 897.03369140625 29.999984741210938
v -1007.171630859375 897.03369140625 4.999986171722412
v -911.480712890625 992.24853515625 4.9999823570251465
v -1007.171630859375 897.03369140625 29.999984741210938
v -911.480712890625 992.24853515625 29.999980926513672
v -911.480712890625 992.24853515625 4.9999823570251465
v -915.008544921875 995.80078125 4.999981880187988
v -911.480712890625 992.24853515625 29.999980926513672
v -915.008544921875 995.80078125 29.99997901916504
v -915.0086669921875 995.80078125 4.999981880187988
v -915.0086669921875 995.80078125 29.999977111816406
v -1010.699462890625 900.57373046875 29.999982833862305
v -1007.171630859375 897.03369140625 29.999984741210938
v -915.008544921875 995.80078125 29.99997901916504
v -911.480712890625 992.24853515625 29.999980926513672
v 911.431884765625 -1035.33935546875 -6.10797360423021e-05
v 929.119873046875 -1017.66357421875 -6.18518388364464e-05
v 911.431884765625 -1035.33935546875 4.99993896484375
v 929.119873046875 -1017.66357421875 4.999938488006592
v 929.119873046875 -1017.66357421875 -6.18518388364464e-05
v 303.3753662109375 -391.8091125488281 5.6082019000314176e-05
v 929.119873046875 -1017.66357421875 4.999937534332275
v 303.3753662109375 -391.8091125488281 5.000055313110352
v 303.375244140625 -391.80902099609375 5.608205538010225e-05
v 285.6995849609375 -409.48486328125 5.6854689319152385e-05
v 303.375244140625 -391.80902099609375 5.00005578994751
v 285.6995849609375 -409.48486328125 5.000056743621826
v 285.6995849609375 -409.48486328125 5.6854689319152385e-05
v 911.431884765625 -1035.33935546875 -6.10797360423021e-05
v 285.6995849609375 -409.48486328125 5.000056743621826
v 911.431884765625 -1035.33935546875 4.99993896484375
v 303.375244140625 -391.80902099609375 5.608205538010225e-05
v 929.119873046875 -1017.66357421875 -6.18518388364464e-05
v 911.431884765625 -1035.33935546875 -6.10797360423021e-05
v 285.6995849609375 -409.48486328125 5.6854689319152385e-05
v 303.375244140625 -391.80902099609375 5.00005578994751
v 911.431884765625 -1035.33935546875 4.99993896484375
v 929.119873046875 -1017.66357421875 4.999938488006592
v 285.6995849609375 -409.48486328125 5.000056743621826
v 603.8026123046875 -727.6365966796875 -10.000001907348633
v 610.8704833984375 -734.7044677734375 -10.0
v 603.8026123046875 -727.6365966796875 -2.9169837034714874e-06
v 610.8704833984375 -734.7044677734375 -1.990146756725153e-06
v 610.8704833984375 -734.7044677734375 -10.0
v 711.578369140625 -634.0087890625 -10.000205039978027
v 610.8704833984375 -734.7044677734375 -5.00030751027225e-07
v 711.578369140625 -634.0087890625 -0.0002045765722868964
v 711.578369140625 -634.0086669921875 -10.000205039978027
v 704.510498046875 -626.9407958984375 -10.000205039978027
v 711.578369140625 -634.0086669921875 -0.0002060667029581964
v 704.510498046875 -626.9407958984375 -0.00020699355809483677
v 704.510498046875 -626.9407958984375 -10.000205039978027
v 603.8026123046875 -727.6365966796875 -10.000001907348633
v 704.510498046875 -626.9407958984375 -0.00020550342742353678
v 603.8026123046875 -727.6365966796875 -1.4268676977735595e-06
v 603.8026123046875 -727.6365966796875 -10.000001907348633
v 704.510498046875 -626.9407958984375 -10.000205039978027
v 610.8704833984375 -734.7044677734375 -10.0
v 711.578369140625 -634.0086669921875 -10.000205039978027
v 603.8026123046875 -727.6365966796875 -1.26465022276534e-06
v 610.8704833984375 -734.7044677734375 -3.3781324759729614e-07
v 704.510498046875 -626.9407958984375 -0.0002053412317764014
v 711.578369140625 -634.0086669921875 -0.00020441439119167626
v 900.823974609375 -1024.7314453125 -10.000162124633789
v 907.891845703125 -1031.79931640625 -10.000161170959473
v 900.823974609375 -1024.7314453125 -0.00016214634524658322
v 907.891845703125 -1031.79931640625 -0.00016121949010994285
v 907.891845703125 -1031.79931640625 -10.000161170959473
v 1021.038818359375 -918.6400146484375 -10.000266075134277
v 907.891845703125 -1031.79931640625 -0.00016121949010994285
v 1021.038818359375 -918.6400146484375 -0.0002660041500348598
v 1021.038818359375 -918.6400146484375 -10.000266075134277
v 1013.970947265625 -911.5721435546875 -10.000267028808594
v 1021.038818359375 -918.6400146484375 -0.0002660041500348598
v 1013.970947265625 -911.5721435546875 -0.0002669309906195849
v 1013.970947265625 -911.5721435546875 -10.000267028808594
v 900.823974609375 -1024.7314453125 -10.000162124633789
v 1013.970947265625 -911.5721435546875 -0.0002669309906195849
v 900.823974609375 -1024.7314453125 -0.00016214634524658322
v 900.823974609375 -1024.7314453125 -10.000162124633789
v 1013.970947265625 -911.5721435546875 -10.000267028808594
v 907.891845703125 -1031.79931640625 -10.000161170959473
v 1021.038818359375 -918.6400146484375 -10.000266075134277
v 900.823974609375 -1024.7314453125 -0.00016198414959944785
v 907.891845703125 -1031.79931640625 -0.00016105729446280748
v 1013.970947265625 -911.5721435546875 -0.00026676879497244954
v 1021.038818359375 -918.6400146484375 -0.00026584198349155486
v 497.8210144042969 -621.64306640625 -10.000214576721191
v 504.8889465332031 -628.7109375 -10.000213623046875
v 497.8210144042969 -621.64306640625 -0.00021500125876627862
v 504.8889465332031 -628.7109375 -0.00021407441818155348
v 504.8889465332031 -628.7109375 -10.000213623046875
v 605.596923828125 -528.0150146484375 -10.000317573547363
v 504.8889465332031 -628.7109375 -0.00021407441818155348
v 605.596923828125 -528.0150146484375 -0.00031831322121433914
v 605.596923828125 -528.0150146484375 -10.000317573547363
v 598.5291748046875 -520.947265625 -10.000319480895996
v 605.596923828125 -528.0150146484375 -0.00031831322121433914
v 598.5291748046875 -520.947265625 -0.0003192400617990643
v 598.5291748046875 -520.947265625 -10.000319480895996
v 497.8210144042969 -621.64306640625 -10.000214576721191
v 598.5291748046875 -520.947265625 -0.0003192400617990643
v 497.8210144042969 -621.64306640625 -0.00021500125876627862
v 497.8210144042969 -621.64306640625 -10.000214576721191
v 598.5291748046875 -520.947265625 -10.000319480895996
v 504.8889465332031 -628.7109375 -10.000213623046875
v 605.596923828125 -528.0150146484375 -10.000317573547363
v 497.8210144042969 -621.64306640625 -0.00021483906311914325
v 504.8889465332031 -628.7109375 -0.0002139122225344181
v 598.5291748046875 -520.947265625 -0.0003190778661519289
v 605.596923828125 -528.0150146484375 -0.00031815102556720376
v 395.2209167480469 -519.03076171875 -10.000028610229492
v 402.2888488769531 -526.0985107421875 -10.000028610229492
v 395.2209167480469 -519.03076171875 -2.878116720239632e-05
v 402.2888488769531 -526.0985107421875 -2.785433389362879e-05
v 402.2888488769531 -526.0985107421875 -10.000028610229492
v 515.435791015625 -412.939453125 -10.000232696533203
v 402.2888488769531 -526.0985107421875 -2.9344450013013557e-05
v 515.435791015625 -412.939453125 -0.0002339668571949005
v 515.435791015625 -412.939453125 -10.000232696533203
v 508.3679504394531 -405.87152099609375 -10.00023365020752
v 515.435791015625 -412.939453125 -0.0002339668571949005
v 508.3679504394531 -405.87152099609375 -0.00023489371233154088
v 508.3679504394531 -405.87152099609375 -10.00023365020752
v 395.2209167480469 -519.03076171875 -10.000028610229492
v 508.3679504394531 -405.87152099609375 -0.00023340359621215612
v 395.2209167480469 -519.03076171875 -2.878116720239632e-05
v 395.2209167480469 -519.03076171875 -10.000028610229492
v 508.3679504394531 -405.87152099609375 -10.00023365020752
v 402.2888488769531 -526.0985107421875 -10.000028610229492
v 515.435791015625 -412.939453125 -10.000232696533203
v 395.2209167480469 -519.03076171875 -2.86189497273881e-05
v 402.2888488769531 -526.0985107421875 -2.769211641862057e-05
v 508.3679504394531 -405.87152099609375 -0.00023324140056502074
v 515.435791015625 -412.939453125 -0.00023231454542838037
v 289.22735595703125 -413.01263427734375 -9.999942779541016
v 296.2952880859375 -420.08056640625 -9.9999418258667
v 289.22735595703125 -413.01263427734375 5.715508450521156e-05
v 296.2952880859375 -420.08056640625 5.808192872791551e-05
v 296.2952880859375 -420.08056640625 -9.9999418258667
v 409.4177551269531 -306.92132568359375 -10.000246047973633
v 296.2952880859375 -420.08056640625 5.808192872791551e-05
v 409.4177551269531 -306.92132568359375 -0.00024637934984639287
v 409.4177551269531 -306.92132568359375 -10.000246047973633
v 402.3499450683594 -299.85345458984375 -10.00024700164795
v 409.4177551269531 -306.92132568359375 -0.00024637934984639287
v 402.3499450683594 -299.85345458984375 -0.00024730616132728755
v 402.3499450683594 -299.85345458984375 -10.00024700164795
v 289.22735595703125 -413.01263427734375 -9.999942779541016
v 402.3499450683594 -299.85345458984375 -0.00024730616132728755
v 289.22735595703125 -413.01263427734375 5.715508450521156e-05
v 289.22735595703125 -413.01263427734375 -9.999942779541016
v 402.3499450683594 -299.85345458984375 -10.00024700164795
v 296.2952880859375 -420.08056640625 -9.9999418258667
v 409.4177551269531 -306.92132568359375 -10.000246047973633
v 289.22735595703125 -413.01263427734375 5.731730561819859e-05
v 296.2952880859375 -420.08056640625 5.824414984090254e-05
v 402.3499450683594 -299.85345458984375 -0.0002471439656801522
v 409.4177551269531 -306.92132568359375 -0.0002462171541992575
v 296.0389404296875 -406.2988586425781 4.999957084655762
v 293.5609436035156 -408.7646484375 4.9999566078186035
v 296.0389404296875 -406.2988586425781 29.999958038330078
v 293.5609436035156 -408.7646484375 29.999958038330078
v 293.5609436035156 -408.7646484375 4.9999566078186035
v 509.2103576660156 -624.45068359375 4.999985218048096
v 293.5609436035156 -408.7646484375 29.999958038330078
v 509.2103576660156 -624.45068359375 29.99998664855957
v 912.213134765625 -1027.5390625 5.000038146972656
v 912.213134765625 -1027.5390625 30.000038146972656
v 912.213134765625 -1027.5390625 5.000038146972656
v 914.691162109375 -1025.0732421875 5.000037670135498
v 912.213134765625 -1027.5390625 30.000038146972656
v 914.691162109375 -1025.0732421875 30.000038146972656
v 914.691162109375 -1025.0732421875 5.000037670135498
v 296.0389709472656 -406.2989501953125 4.999957084655762
v 914.691162109375 -1025.0732421875 30.000038146972656
v 296.0389709472656 -406.2989501953125 29.999958038330078
v 509.2103576660156 -624.45068359375 29.99998664855957
v 296.0389404296875 -406.2988586425781 29.999958038330078
v 293.5609436035156 -408.7646484375 29.999958038330078
v 912.213134765625 -1027.5390625 30.000038146972656
v 914.691162109375 -1025.0732421875 30.000038146972656
v 932.635498046875 -1014.1236572265625 0.00013799236330669373
v 950.323486328125 -996.44775390625 0.00013722025323659182
v 932.635498046875 -1014.1236572265625 5.000137805938721
v 950.323486328125 -996.44775390625 5.0001373291015625
v 950.323486328125 -996.44775390625 0.00013722025323659182
v 324.57891845703125 -370.5933532714844 0.0002551541256252676
v 950.323486328125 -996.44775390625 5.000136852264404
v 324.57891845703125 -370.5933532714844 5.000254154205322
v 324.5788269042969 -370.59326171875 0.0002551541547290981
v 306.90313720703125 -388.2690734863281 0.000255926774116233
v 324.5788269042969 -370.59326171875 5.000255107879639
v 306.90313720703125 -388.2690734863281 5.000256538391113
v 306.90313720703125 -388.2690734863281 0.000255926774116233
v 932.635498046875 -1014.123779296875 0.00013799236330669373
v 306.90313720703125 -388.2690734863281 5.000256538391113
v 932.635498046875 -1014.123779296875 5.000137805938721
v 324.5788269042969 -370.59326171875 0.0002551541547290981
v 950.323486328125 -996.44775390625 0.00013722025323659182
v 932.635498046875 -1014.1236572265625 0.00013799236330669373
v 306.90313720703125 -388.2690734863281 0.000255926774116233
v 324.5788269042969 -370.59326171875 5.000255107879639
v 932.635498046875 -1014.1236572265625 5.000137805938721
v 950.323486328125 -996.44775390625 5.0001373291015625
v 306.90313720703125 -388.2690734863281 5.000256538391113
v 953.839111328125 -992.8953857421875 0.0003370633639860898
v 971.527099609375 -975.2196044921875 0.00033629126846790314
v 953.839111328125 -992.8953857421875 5.00033712387085
v 971.527099609375 -975.2196044921875 5.000336647033691
v 971.527099609375 -975.2196044921875 0.00033629126846790314
v 345.78253173828125 -349.365234375 0.00045422514085657895
v 971.527099609375 -975.2196044921875 5.000335693359375
v 345.78253173828125 -349.365234375 5.000453472137451
v 345.7824401855469 -349.3651428222656 0.0004542251699604094
v 328.10675048828125 -367.04095458984375 0.0004549977893475443
v 345.7824401855469 -349.3651428222656 5.000453948974609
v 328.10675048828125 -367.04095458984375 5.000455379486084
v 328.10675048828125 -367.04095458984375 0.0004549977893475443
v 953.839111328125 -992.8955078125 0.0003370633639860898
v 328.10675048828125 -367.04095458984375 5.000455379486084
v 953.839111328125 -992.8955078125 5.00033712387085
v 345.7824401855469 -349.3651428222656 0.0004542251699604094
v 971.527099609375 -975.2196044921875 0.00033629126846790314
v 953.839111328125 -992.8953857421875 0.0003370633639860898
v 328.10675048828125 -367.04095458984375 0.0004549977893475443
v 345.7824401855469 -349.3651428222656 5.000453948974609
v 953.839111328125 -992.8953857421875 5.00033712387085
v 971.527099609375 -975.2196044921875 5.000336647033691
v 328.10675048828125 -367.04095458984375 5.000455379486084
v 975.042724609375 -971.6795654296875 0.000536135514266789
v 992.73095703125 -954.0037841796875 0.0005353634478524327
v 975.042724609375 -971.6795654296875 5.0005364418029785
v 992.73095703125 -954.0037841796875 5.000535488128662
v 992.7308349609375 -954.0037841796875 0.0005353634478524327
v 366.9862365722656 -328.1494140625 0.0006532972329296172
v 992.7308349609375 -954.0037841796875 5.000535011291504
v 366.9862365722656 -328.1494140625 5.00065279006958
v 366.9861145019531 -328.14935302734375 0.0006532972911372781
v 349.3104553222656 -345.8251647949219 0.0006540699396282434
v 366.9861145019531 -328.14935302734375 5.0006537437438965
v 349.3104553222656 -345.8251647949219 5.000654697418213
v 349.3104553222656 -345.8251647949219 0.0006540699396282434
v 975.042724609375 -971.6795654296875 0.000536135514266789
v 349.3104553222656 -345.8251647949219 5.000654697418213
v 975.042724609375 -971.6795654296875 5.0005364418029785
v 366.9861145019531 -328.14935302734375 0.0006532972911372781
v 992.7308349609375 -954.0037841796875 0.0005353634478524327
v 975.042724609375 -971.6795654296875 0.000536135514266789
v 349.3104553222656 -345.8251647949219 0.0006540699396282434
v 366.9861145019531 -328.14935302734375 5.0006537437438965
v 975.042724609375 -971.6795654296875 5.0005364418029785
v 992.7308349609375 -954.0037841796875 5.000535488128662
v 349.3104553222656 -345.8251647949219 5.000654697418213
v 996.234130859375 -950.427001953125 0.00013520382344722748
v 1013.922119140625 -932.751220703125 0.0001344317279290408
v 996.234130859375 -950.427001953125 5.0001349449157715
v 1013.922119140625 -932.751220703125 5.000133514404297
v 1013.922119140625 -932.751220703125 0.0001344317279290408
v 388.1777038574219 -306.89697265625 0.00025236562942154706
v 1013.922119140625 -932.751220703125 5.000133991241455
v 388.1777038574219 -306.89697265625 5.000252723693848
v 388.1776428222656 -306.8969421386719 0.00025236562942154706
v 370.5018615722656 -324.5726318359375 0.00025313824880868196
v 388.1776428222656 -306.8969421386719 5.000252723693848
v 370.5018615722656 -324.5726318359375 5.000253677368164
v 370.5018615722656 -324.5726318359375 0.00025313824880868196
v 996.234130859375 -950.427001953125 0.00013520382344722748
v 370.5018615722656 -324.5726318359375 5.000253677368164
v 996.234130859375 -950.427001953125 5.00013542175293
v 388.1776428222656 -306.8969421386719 0.00025236562942154706
v 1013.922119140625 -932.751220703125 0.0001344317279290408
v 996.234130859375 -950.427001953125 0.00013520382344722748
v 370.5018615722656 -324.5726318359375 0.00025313824880868196
v 388.1776428222656 -306.8969421386719 5.000252723693848
v 996.234130859375 -950.427001953125 5.00013542175293
v 1013.922119140625 -932.751220703125 5.000133991241455
v 370.5018615722656 -324.5726318359375 5.000253677368164
v 572.5157470703125 -505.8715515136719 4.9999775886535645
v 570.037841796875 -508.3373107910156 4.999978065490723
v 572.5157470703125 -505.8715515136719 29.99997901916504
v 570.037841796875 -508.3373107910156 29.999977111816406
v 570.037841796875 -508.3373107910156 4.999978065490723
v 597.723388671875 -535.9984130859375 4.99998140335083
v 570.037841796875 -508.3373107910156 29.999977111816406
v 597.723388671875 -535.9984130859375 29.999982833862305
v 1000.7261962890625 -939.0867919921875 5.000034332275391
v 1000.7261962890625 -939.0867919921875 30.00003433227539
v 1000.726318359375 -939.0867919921875 5.000034332275391
v 1003.204345703125 -936.6209716796875 5.000034332275391
v 1000.726318359375 -939.0867919921875 30.00003433227539
v 1003.204345703125 -936.6209716796875 30.00003433227539
v 1003.204345703125 -936.6209716796875 5.000034332275391
v 572.515869140625 -505.8716125488281 4.9999775886535645
v 1003.204345703125 -936.6209716796875 30.00003433227539
v 572.515869140625 -505.8716125488281 29.99997901916504
v 597.723388671875 -535.9984130859375 29.999982833862305
v 572.5157470703125 -505.8715515136719 29.99997901916504
v 570.037841796875 -508.3373107910156 29.999977111816406
v 1000.726318359375 -939.0867919921875 30.00003433227539
v 1003.204345703125 -936.6209716796875 30.00003433227539
v 739.8621826171875 -863.708251953125 -10.00018310546875
v 746.9300537109375 -870.7762451171875 -10.000182151794434
v 739.8621826171875 -863.708251953125 -0.00018325929704587907
v 746.9300537109375 -870.7762451171875 -0.0001823324419092387
v 746.9300537109375 -870.7762451171875 -10.000182151794434
v 847.6380615234375 -770.0804443359375 -10.000286102294922
v 746.9300537109375 -870.7762451171875 -0.0001823324419092387
v 847.6380615234375 -770.0804443359375 -0.00028657124494202435
v 847.6380615234375 -770.0804443359375 -10.000286102294922
v 840.5701904296875 -763.012451171875 -10.000288009643555
v 847.6380615234375 -770.0804443359375 -0.0002880613610614091
v 840.5701904296875 -763.012451171875 -0.00028898820164613426
v 840.5701904296875 -763.012451171875 -10.000288009643555
v 739.8621826171875 -863.7083740234375 -10.00018310546875
v 840.5701904296875 -763.012451171875 -0.0002874980855267495
v 739.8621826171875 -863.7083740234375 -0.00018325928249396384
v 739.8621826171875 -863.708251953125 -10.00018310546875
v 840.5701904296875 -763.012451171875 -10.000288009643555
v 746.9300537109375 -870.7762451171875 -10.000182151794434
v 847.6380615234375 -770.0804443359375 -10.000286102294922
v 739.8621826171875 -863.708251953125 -0.0001830971013987437
v 746.9300537109375 -870.7762451171875 -0.00018217024626210332
v 840.5701904296875 -763.012451171875 -0.0002873358898796141
v 847.6380615234375 -770.0804443359375 -0.000286409049294889
v 295.9046630859375 -419.65325927734375 -4.181027179583907e-05
v 295.9046630859375 -419.65325927734375 -10.000041961669922
v 437.3108215332031 -278.16156005859375 -129.99803161621094
v 437.3108215332031 -278.16156005859375 -139.99803161621094
v 288.83673095703125 -412.5852966308594 -10.000044822692871
v 430.2428894042969 -271.0936279296875 -129.99803161621094
v 430.2428894042969 -271.0936279296875 -139.99803161621094
v 288.83673095703125 -412.5852966308594 -4.273712693247944e-05
v 288.83673095703125 -412.5853271484375 -10.000042915344238
v 430.2428894042969 -271.0936279296875 -139.99803161621094
v 295.9046630859375 -419.65325927734375 -10.000041961669922
v 437.3108215332031 -278.16156005859375 -139.99803161621094
v 288.83673095703125 -412.5853271484375 -4.257490218151361e-05
v 295.9046630859375 -419.65325927734375 -4.1648061596788466e-05
v 430.2428894042969 -271.0936279296875 -129.99803161621094
v 437.3108215332031 -278.16156005859375 -129.99803161621094
v 275.5311584472656 -399.267578125 -4.448300023796037e-05
v 275.5311584472656 -399.267578125 -10.000044822692871
v 416.9373474121094 -257.77587890625 -129.99803161621094
v 416.9373474121094 -257.77587890625 -139.99803161621094
v 268.4632568359375 -392.19964599609375 -10.00004768371582
v 409.8694152832031 -250.70794677734375 -129.99803161621094
v 409.8694152832031 -250.70794677734375 -139.99803161621094
v 268.4632568359375 -392.19964599609375 -4.540985173662193e-05
v 268.4632568359375 -392.19964599609375 -10.000045776367188
v 409.8694152832031 -250.70794677734375 -139.99803161621094
v 275.5311584472656 -399.267578125 -10.000044822692871
v 416.9373474121094 -257.7758483886719 -139.99803161621094
v 268.4632568359375 -392.19964599609375 -4.524763426161371e-05
v 275.5311584472656 -399.267578125 -4.432079003890976e-05
v 409.8694152832031 -250.70794677734375 -129.99803161621094
v 416.9373474121094 -257.7758483886719 -129.99803161621094
f 60 58 59
f 58 57 59
f 54 53 55
f 56 54 55
f 45 44 46
f 47 45 46
f 41 40 42
f 43 41 42
f 35 34 36
f 37 35 36
f 38 35 37
f 39 38 37
f 51 49 52
f 48 49 51
f 49 48 50
f 26 25 27
f 28 27 25
f 29 27 28
f 31 30 32
f 33 31 32
f 14 13 15
f 16 14 15
f 10 9 11
f 12 10 11
f 6 5 7
f 8 6 7
f 2 1 3
f 4 2 3
f 1212 1211 1213
f 1213 1214 1212
f 1208 1207 1209
f 1209 1210 1208
f 1200 1199 1201
f 1201 1202 1200
f 1196 1195 1197
f 1197 1198 1196
f 1192 1191 1193
f 1193 1194 1192
f 1184 1183 1185
f 1185 1186 1184
f 1180 1179 1181
f 1181 1182 1180
f 1176 1175 1177
f 1177 1178 1176
f 1172 1171 1173
f 1174 1172 1173
f 1168 1167 1169
f 1170 1168 1169
f 1164 1163 1165
f 1166 1164 1165
f 1160 1159 1161
f 1162 1160 1161
f 1151 1150 1152
f 1153 1151 1152
f 1147 1146 1148
f 1149 1147 1148
f 1141 1140 1142
f 1143 1141 1142
f 1144 1141 1143
f 1145 1144 1143
f 21 22 24
f 22 21 23
f 18 17 19
f 20 19 17
f 1203 1204 1206
f 1204 1203 1205
f 1187 1188 1190
f 1188 1187 1189
f 1157 1155 1158
f 1154 1155 1157
f 1155 1154 1156
f 1132 1133 1135
f 1133 1132 1134
f 1129 1128 1130
f 1131 1130 1128
f 1108 1109 1111
f 1109 1108 1110
f 1105 1104 1106
f 1107 1106 1104
f 1084 1085 1087
f 1085 1084 1086
f 1081 1080 1082
f 1083 1082 1080
f 1060 1061 1063
f 1061 1060 1062
f 1057 1056 1058
f 1059 1058 1056
f 1038 1036 1039
f 1035 1036 1038
f 1036 1035 1037
f 893 894 896
f 894 893 895
f 890 889 891
f 892 891 889
f 849 850 852
f 850 849 851
f 846 845 847
f 848 847 845
f 791 792 790
f 790 789 791
f 825 789 791
f 791 826 825
f 1137 1136 1138
f 1139 1137 1138
f 1125 1124 1126
f 1127 1125 1126
f 1121 1120 1122
f 1123 1121 1122
f 1117 1116 1118
f 1119 1117 1118
f 1113 1112 1114
f 1115 1113 1114
f 1101 1100 1102
f 1103 1101 1102
f 1097 1096 1098
f 1099 1097 1098
f 1093 1092 1094
f 1095 1093 1094
f 1089 1088 1090
f 1091 1089 1090
f 1077 1076 1078
f 1079 1077 1078
f 1073 1072 1074
f 1075 1073 1074
f 1069 1068 1070
f 1071 1069 1070
f 1065 1064 1066
f 1067 1065 1066
f 1053 1052 1054
f 1055 1053 1054
f 1049 1048 1050
f 1051 1049 1050
f 1045 1044 1046
f 1047 1045 1046
f 1041 1040 1042
f 1043 1041 1042
f 1032 1031 1033
f 1034 1032 1033
f 1028 1027 1029
f 1030 1028 1029
f 1022 1021 1023
f 1024 1022 1023
f 1025 1022 1024
f 1026 1025 1024
f 785 823 824
f 788 785 824
f 785 786 788
f 786 785 787
f 1018 1017 1019
f 1020 1018 1019
f 1014 1013 1015
f 1015 1016 1014
f 1010 1009 1011
f 1011 1012 1010
f 1006 1005 1007
f 1008 1006 1007
f 1002 1001 1003
f 1004 1002 1003
f 998 997 999
f 1000 998 999
f 994 993 995
f 996 994 995
f 990 989 991
f 991 992 990
f 986 985 987
f 987 988 986
f 982 981 983
f 984 982 983
f 978 977 979
f 980 978 979
f 974 973 975
f 976 974 975
f 970 969 971
f 972 970 971
f 966 965 967
f 967 968 966
f 962 961 963
f 963 964 962
f 958 957 959
f 960 958 959
f 954 953 955
f 956 954 955
f 950 949 951
f 952 950 951
f 946 945 947
f 948 946 947
f 942 941 943
f 943 944 942
f 938 937 939
f 939 940 938
f 934 933 935
f 936 934 935
f 930 929 931
f 932 930 931
f 926 925 927
f 928 926 927
f 922 921 923
f 924 922 923
f 918 917 919
f 919 920 918
f 914 913 915
f 915 916 914
f 910 909 911
f 912 910 911
f 906 905 907
f 908 906 907
f 902 901 903
f 904 902 903
f 898 897 899
f 900 898 899
f 886 885 887
f 888 886 887
f 882 881 883
f 884 882 883
f 878 877 879
f 880 878 879
f 874 873 875
f 876 874 875
f 870 869 871
f 871 872 870
f 866 865 867
f 868 866 867
f 862 861 863
f 864 862 863
f 858 857 859
f 860 858 859
f 854 853 855
f 856 854 855
f 842 841 843
f 844 842 843
f 838 837 839
f 840 838 839
f 834 833 835
f 836 834 835
f 830 829 831
f 832 830 831
f 820 819 821
f 822 820 821
f 814 813 815
f 816 814 815
f 804 803 805
f 806 804 805
f 798 797 799
f 800 798 799
f 811 812 778
f 778 777 811
f 778 777 779
f 779 780 778
f 818 817 781
f 817 782 781
f 782 781 783
f 783 784 782
f 775 776 774
f 774 773 775
f 809 773 775
f 775 810 809
f 762 761 763
f 763 764 762
f 758 757 759
f 759 760 758
f 754 753 755
f 756 754 755
f 750 749 751
f 752 750 751
f 746 745 747
f 748 746 747
f 742 741 743
f 744 742 743
f 738 737 739
f 739 740 738
f 734 733 735
f 735 736 734
f 730 729 731
f 732 730 731
f 726 725 727
f 728 726 727
f 722 721 723
f 724 722 723
f 718 717 719
f 720 718 719
f 714 713 715
f 715 716 714
f 710 709 711
f 711 712 710
f 706 705 707
f 708 706 707
f 702 701 703
f 704 702 703
f 698 697 699
f 700 698 699
f 694 693 695
f 696 694 695
f 682 681 683
f 684 682 683
f 678 677 679
f 680 678 679
f 674 673 675
f 676 674 675
f 670 669 671
f 672 670 671
f 658 657 659
f 660 658 659
f 654 653 655
f 656 654 655
f 650 649 651
f 652 650 651
f 646 645 647
f 648 646 647
f 634 633 635
f 636 634 635
f 630 629 631
f 632 630 631
f 626 625 627
f 628 626 627
f 622 621 623
f 624 622 623
f 614 613 615
f 616 614 615
f 610 609 611
f 612 610 611
f 606 605 607
f 608 606 607
f 602 601 603
f 604 602 603
f 586 585 587
f 588 586 587
f 582 581 583
f 584 582 583
f 578 577 579
f 580 578 579
f 574 573 575
f 576 574 575
f 562 561 563
f 564 562 563
f 558 557 559
f 560 558 559
f 554 553 555
f 556 554 555
f 550 549 551
f 552 550 551
f 542 541 543
f 544 542 543
f 538 537 539
f 540 538 539
f 532 531 533
f 534 532 533
f 524 523 525
f 526 524 525
f 520 519 521
f 522 520 521
f 514 513 515
f 516 514 515
f 547 548 510
f 510 509 547
f 510 509 511
f 511 512 510
f 769 807 808
f 772 769 808
f 769 770 772
f 770 769 771
f 529 530 494
f 494 493 529
f 494 493 495
f 495 496 494
f 802 801 765
f 801 766 765
f 766 765 767
f 767 768 766
f 689 690 692
f 690 689 691
f 686 685 687
f 688 687 685
f 665 666 668
f 666 665 667
f 662 661 663
f 664 663 661
f 641 642 644
f 642 641 643
f 638 637 639
f 640 639 637
f 617 618 620
f 618 617 619
f 598 597 599
f 600 599 597
f 593 594 596
f 594 593 595
f 590 589 591
f 592 591 589
f 569 570 572
f 570 569 571
f 566 565 567
f 568 567 565
f 507 508 506
f 506 505 507
f 545 505 507
f 507 546 545
f 478 477 479
f 479 480 478
f 474 473 475
f 475 476 474
f 470 469 471
f 472 470 471
f 466 465 467
f 468 466 467
f 462 461 463
f 464 462 463
f 458 457 459
f 460 458 459
f 454 453 455
f 455 456 454
f 450 449 451
f 451 452 450
f 446 445 447
f 448 446 447
f 442 441 443
f 444 442 443
f 438 437 439
f 440 438 439
f 434 433 435
f 436 434 435
f 430 429 431
f 431 432 430
f 426 425 427
f 427 428 426
f 422 421 423
f 424 422 423
f 418 417 419
f 420 418 419
f 414 413 415
f 416 414 415
f 410 409 411
f 412 410 411
f 398 397 399
f 400 398 399
f 394 393 395
f 396 394 395
f 390 389 391
f 392 390 391
f 386 385 387
f 388 386 387
f 374 373 375
f 376 374 375
f 370 369 371
f 372 370 371
f 366 365 367
f 368 366 367
f 362 361 363
f 364 362 363
f 350 349 351
f 352 350 351
f 346 345 347
f 348 346 347
f 342 341 343
f 344 342 343
f 338 337 339
f 340 338 339
f 330 329 331
f 332 330 331
f 326 325 327
f 328 326 327
f 322 321 323
f 324 322 323
f 318 317 319
f 320 318 319
f 302 301 303
f 304 302 303
f 298 297 299
f 300 298 299
f 294 293 295
f 296 294 295
f 290 289 291
f 292 290 291
f 278 277 279
f 280 278 279
f 274 273 275
f 276 274 275
f 270 269 271
f 272 270 271
f 266 265 267
f 268 266 267
f 258 257 259
f 260 258 259
f 254 253 255
f 256 254 255
f 248 247 249
f 250 248 249
f 240 239 241
f 242 240 241
f 236 235 237
f 238 236 237
f 230 229 231
f 232 230 231
f 263 264 226
f 226 225 263
f 226 225 227
f 227 228 226
f 501 502 504
f 502 501 503
f 536 535 497
f 535 498 497
f 1216 1215 499
f 499 500 1216
f 491 492 490
f 490 489 491
f 527 489 491
f 491 528 527
f 194 193 195
f 195 196 194
f 190 189 191
f 191 192 190
f 186 185 187
f 188 186 187
f 182 181 183
f 184 182 183
f 178 177 179
f 180 178 179
f 174 173 175
f 176 174 175
f 170 169 171
f 171 172 170
f 166 165 167
f 167 168 166
f 162 161 163
f 164 162 163
f 158 157 159
f 160 158 159
f 154 153 155
f 156 154 155
f 150 149 151
f 152 150 151
f 146 145 147
f 147 148 146
f 142 141 143
f 143 144 142
f 138 137 139
f 140 138 139
f 134 133 135
f 136 134 135
f 130 129 131
f 132 130 131
f 126 125 127
f 128 126 127
f 114 113 115
f 116 114 115
f 110 109 111
f 112 110 111
f 106 105 107
f 108 106 107
f 102 101 103
f 104 102 103
f 90 89 91
f 92 90 91
f 86 85 87
f 88 86 87
f 82 81 83
f 84 82 83
f 78 77 79
f 80 78 79
f 66 65 67
f 68 66 67
f 62 61 63
f 64 62 63
f 827 828 794
f 794 793 827
f 794 793 795
f 795 796 794
f 485 486 488
f 486 485 487
f 518 517 481
f 517 482 481
f 1218 1217 483
f 483 484 1218
f 405 406 408
f 406 405 407
f 402 401 403
f 404 403 401
f 381 382 384
f 382 381 383
f 378 377 379
f 380 379 377
f 357 358 360
f 358 357 359
f 354 353 355
f 356 355 353
f 333 334 336
f 334 333 335
f 314 313 315
f 316 315 313
f 309 310 312
f 310 309 311
f 306 305 307
f 308 307 305
f 285 286 288
f 286 285 287
f 282 281 283
f 284 283 281
f 223 224 222
f 222 221 223
f 261 221 223
f 223 262 261
f 211 212 210
f 210 209 211
f 210 209 245
f 245 246 210
f 217 218 220
f 218 217 219
f 252 251 213
f 251 214 213
f 1220 1219 215
f 215 216 1220
f 207 208 206
f 206 205 207
f 243 205 207
f 207 244 243
f 70 69 71
f 72 71 69
f 73 74 76
f 74 73 75
f 94 93 95
f 96 95 93
f 97 98 100
f 98 97 99
f 118 117 119
f 120 119 117
f 121 122 124
f 122 121 123
f 234 233 197
f 233 198 197
f 1222 1221 199
f 199 200 1222
f 201 202 204
f 202 201 203
