v 477.3193664550781 88.37278747558594 -0.00031235680216923356
v -88.42764282226562 -477.264404296875 8.929718205763493e-06
v 478.45123291015625 87.24089050292969 4.999688148498535
v -87.29583740234375 -478.3963623046875 5.000009536743164
v -88.427734375 -477.264404296875 1.2363192581688054e-05
v 17.651382446289062 -583.343505859375 -0.000273726211162284
v -87.29583740234375 -478.39630126953125 5.000012397766113
v 16.519271850585938 -582.21142578125 4.999726295471191
v 17.6513671875 -583.343505859375 -0.0002737262402661145
v 583.3984375 -17.706298828125 -0.0005915514193475246
v 16.519271850585938 -582.21142578125 4.999725818634033
v 582.2664794921875 -16.574142456054688 4.999415397644043
v 583.3984375 -17.706283569335938 -0.0005984462331980467
v 477.3193664550781 88.37278747558594 -0.00031235680216923356
v 582.266357421875 -16.574188232421875 4.999401569366455
v 478.45123291015625 87.24089050292969 4.999687671661377
v -88.427734375 -477.264404296875 1.2363192581688054e-05
v 477.3193664550781 88.37278747558594 -0.00031235680216923356
v 17.6513671875 -583.343505859375 -0.0002737262402661145
v 583.3984375 -17.706283569335938 -0.0005984462331980467
v -87.29583740234375 -478.39630126953125 5.000012397766113
v 16.519271850585938 -582.21142578125 4.999726295471191
v 478.45123291015625 87.24089050292969 4.999687671661377
v 582.266357421875 -16.574188232421875 4.999401569366455
v 378.3325500488281 187.3595733642578 -0.0005253373528830707
v -187.4144287109375 -378.2776184082031 -0.00020318797032814473
v 379.46435546875 186.22767639160156 4.999475002288818
v -186.28265380859375 -379.4095153808594 4.9997968673706055
v -187.41452026367188 -378.2776184082031 -0.00020061734539922327
v -88.40335083007812 -477.28875732421875 -0.0002876337675843388
v -186.28265380859375 -379.409423828125 4.999799728393555
v -89.53543090820312 -476.1566162109375 4.9997124671936035
v -88.40335083007812 -477.288818359375 -0.00028518566978164017
v 477.34381103515625 88.34837341308594 -0.0006057824357412755
v -89.53546142578125 -476.15667724609375 4.999715328216553
v 476.2117614746094 89.48054504394531 4.999394416809082
v 477.3437805175781 88.34840393066406 -0.0006123536149971187
v 378.3325500488281 187.3595733642578 -0.0005253373528830707
v 476.211669921875 89.48051452636719 4.999387741088867
v 379.4643859863281 186.22776794433594 4.999475002288818
v -187.41452026367188 -378.2776184082031 -0.00020061734539922327
v 378.3325500488281 187.3595733642578 -0.0005253373528830707
v -88.40335083007812 -477.288818359375 -0.00028763359296135604
v 477.3437805175781 88.34840393066406 -0.0006123536149971187
v -186.28265380859375 -379.409423828125 4.999799728393555
v -89.53546142578125 -476.15667724609375 4.9997124671936035
v 379.46435546875 186.22767639160156 4.999475002288818
v 476.211669921875 89.48051452636719 4.999387741088867
v 279.3335266113281 286.35858154296875 -0.0008383194799534976
v -286.41351318359375 -279.27862548828125 -0.0006238258210942149
v 280.46533203125 285.226806640625 4.999156475067139
v -285.28173828125 -280.41046142578125 4.999385356903076
v -286.4135437011719 -279.27862548828125 -0.0006135994917713106
v -187.40237426757812 -378.289794921875 -0.0007006158120930195
v -285.28173828125 -280.410400390625 4.999386787414551
v -188.53436279296875 -377.1578063964844 4.9992995262146
v -187.40234375 -378.289794921875 -0.0007006158120930195
v 378.3447570800781 187.34739685058594 -0.0009340455289930105
v -188.53433227539062 -377.1578369140625 4.999297618865967
v 377.2127685546875 188.4794158935547 4.999053955078125
v 378.3447265625 187.34739685058594 -0.0009253357420675457
v 279.3335266113281 286.35858154296875 -0.0008383194217458367
v 377.21270751953125 188.4793243408203 4.999074935913086
v 280.4652404785156 285.22674560546875 4.999161720275879
v -286.4135437011719 -279.27862548828125 -0.0006135995499789715
v 279.3335266113281 286.35858154296875 -0.0008383194799534976
v -187.40234375 -378.289794921875 -0.0007006158120930195
v 378.3447265625 187.34739685058594 -0.0009253357420675457
v -285.28173828125 -280.4104309082031 4.999386787414551
v -188.53433227539062 -377.1578369140625 4.9992995262146
v 280.46533203125 285.226806640625 4.999161720275879
v 377.21270751953125 188.4793243408203 4.999074935913086
v 180.34661865234375 385.35772705078125 -0.000851301068905741
v -385.4003601074219 -180.27947998046875 -0.0006207179976627231
v 181.478515625 384.225830078125 4.999144077301025
v -384.2685241699219 -181.4114532470703 4.999379634857178
v -385.4004211425781 -180.27951049804688 -0.0006265811971388757
v -286.3892822265625 -279.29071044921875 -0.0007135974010452628
v -384.2685241699219 -181.41140747070312 4.999373912811279
v -287.521240234375 -278.15869140625 4.99928617477417
v -286.3892517089844 -279.29071044921875 -0.0007160450331866741
v 279.35784912109375 286.34649658203125 -0.0009470271761529148
v -287.521240234375 -278.1587219238281 4.99928617477417
v 278.2259216308594 287.47857666015625 4.99906063079834
v 279.35784912109375 286.34649658203125 -0.0009383173892274499
v 180.34661865234375 385.35772705078125 -0.000851301068905741
v 278.225830078125 287.478515625 4.9990620613098145
v 181.47848510742188 384.225830078125 4.999148845672607
v -385.4004211425781 -180.27951049804688 -0.0006265811389312148
v 180.34661865234375 385.35772705078125 -0.000851301068905741
v -286.3892517089844 -279.29071044921875 -0.0007135974010452628
v 279.35784912109375 286.34649658203125 -0.0009383173892274499
v -384.2685241699219 -181.4114227294922 4.999373912811279
v -287.521240234375 -278.1587219238281 4.99928617477417
v 181.478515625 384.225830078125 4.999148845672607
v 278.225830078125 287.478515625 4.9990620613098145
v 81.34761810302734 484.344482421875 -0.0018593863351270556
v -484.3993225097656 -81.292724609375 -0.0015421328134834766
v 82.47941589355469 483.21258544921875 4.998136043548584
v -483.2675476074219 -82.42463684082031 4.9984869956970215
v -484.3994445800781 -81.292724609375 -0.001539562246762216
v -385.3882751464844 -180.30389404296875 -0.0016265783924609423
v -483.2675476074219 -82.42463684082031 4.998460292816162
v -386.5204772949219 -179.17169189453125 4.998373508453369
v -385.3882751464844 -180.30392456054688 -0.0016241304110735655
v 180.35887145996094 385.33331298828125 -0.0019464464858174324
v -386.5204772949219 -179.17172241210938 4.99837589263916
v 179.22669982910156 386.46551513671875 4.9980340003967285
v 180.35882568359375 385.33331298828125 -0.0019512984436005354
v 81.34761810302734 484.344482421875 -0.0018642819486558437
v 179.22662353515625 386.46539306640625 4.998048305511475
v 82.47941589355469 483.212646484375 4.998136043548584
v -484.3994445800781 -81.292724609375 -0.001539562246762216
v 81.34761810302734 484.344482421875 -0.0018642820650711656
v -385.3882751464844 -180.30392456054688 -0.0016265783924609423
v 180.35882568359375 385.33331298828125 -0.0019512984436005354
v -483.2675476074219 -82.42463684082031 4.998460292816162
v -386.5204772949219 -179.17172241210938 4.998373508453369
v 82.47941589355469 483.21258544921875 4.998136043548584
v 179.22662353515625 386.46539306640625 4.998048305511475
v -17.651382446289062 583.343505859375 -0.0020772642455995083
v -583.3983154296875 17.706222534179688 -0.0017657679272815585
v -16.519515991210938 582.2116088867188 4.997928619384766
v -582.2666015625 16.5743408203125 4.998244762420654
v -583.3984375 17.706283569335938 -0.0017525444272905588
v -484.3872375488281 -81.304931640625 -0.0018395606894046068
v -582.2666015625 16.574386596679688 4.9982476234436035
v -485.5192565917969 -80.17292022705078 4.9981608390808105
v -484.3872375488281 -81.304931640625 -0.0018420083215460181
v 81.35987091064453 484.332275390625 -0.0021636923775076866
v -485.5192565917969 -80.17294311523438 4.9981608390808105
v 80.22789001464844 485.46429443359375 4.997834205627441
v 81.35982513427734 484.33233642578125 -0.0021642805077135563
v -17.651382446289062 583.343505859375 -0.0020772642455995083
v 80.22783660888672 485.46429443359375 4.997835636138916
v -16.51947021484375 582.2116088867188 4.997923374176025
v -583.3984375 17.706283569335938 -0.0017525444272905588
v -17.651382446289062 583.343505859375 -0.0020772642455995083
v -484.3872375488281 -81.304931640625 -0.0018395606894046068
v 81.35982513427734 484.33233642578125 -0.0021642805077135563
v -582.2666015625 16.574356079101562 4.9982476234436035
v -485.5192565917969 -80.17294311523438 4.9981608390808105
v -16.519485473632812 582.2116088867188 4.997923374176025
v 80.22781372070312 485.46429443359375 4.997835636138916
f 2 1 3
f 4 2 3
f 142 141 143
f 143 144 142
f 138 137 139
f 139 140 138
f 134 133 135
f 136 134 135
f 130 129 131
f 132 130 131
f 126 125 127
f 128 126 127
f 122 121 123
f 124 122 123
f 118 117 119
f 119 120 118
f 114 113 115
f 115 116 114
f 110 109 111
f 112 110 111
f 106 105 107
f 108 106 107
f 102 101 103
f 104 102 103
f 98 97 99
f 100 98 99
f 94 93 95
f 95 96 94
f 90 89 91
f 91 92 90
f 86 85 87
f 88 86 87
f 82 81 83
f 84 82 83
f 78 77 79
f 80 78 79
f 74 73 75
f 76 74 75
f 70 69 71
f 71 72 70
f 66 65 67
f 67 68 66
f 62 61 63
f 64 62 63
f 58 57 59
f 60 58 59
f 54 53 55
f 56 54 55
f 50 49 51
f 52 50 51
f 46 45 47
f 47 48 46
f 42 41 43
f 43 44 42
f 38 37 39
f 40 38 39
f 34 33 35
f 36 34 35
f 30 29 31
f 32 30 31
f 26 25 27
f 28 26 27
f 22 21 23
f 23 24 22
f 18 17 19
f 19 20 18
f 14 13 15
f 16 14 15
f 10 9 11
f 12 10 11
f 8 6 7
f 6 5 7
