v 468.74749755859375 -419.8072509765625 -0.0003448282368481159
v 486.43548583984375 -402.13140869140625 -0.0003456003323663026
v 468.74749755859375 -419.8072509765625 4.999655246734619
v 486.43548583984375 -402.13140869140625 4.999654293060303
v 486.43548583984375 -402.13140869140625 -0.0003456003323663026
v 55.112342834472656 29.24041748046875 -0.00020216580014675856
v 486.43548583984375 -402.13140869140625 4.999654293060303
v 55.11233901977539 29.24041748046875 4.999797821044922
v 55.11224365234375 29.24053955078125 -0.00020216581469867378
v 37.436439514160156 11.564836502075195 -0.00020139319531153888
v 55.112239837646484 29.24053955078125 4.999797821044922
v 37.436439514160156 11.564836502075195 4.999798774719238
v 37.436439514160156 11.564838409423828 -0.00020139319531153888
v 468.74755859375 -419.8072509765625 -0.0003448282368481159
v 37.436439514160156 11.564838409423828 4.999798774719238
v 468.74755859375 -419.8072509765625 4.999655246734619
v 55.11224365234375 29.24053955078125 -0.00020216581469867378
v 486.43548583984375 -402.13140869140625 -0.0003456003323663026
v 468.74749755859375 -419.8072509765625 -0.0003448282368481159
v 37.436439514160156 11.564838409423828 -0.00020139319531153888
v 55.112239837646484 29.24053955078125 4.999797821044922
v 468.74749755859375 -419.8072509765625 4.999655246734619
v 486.43548583984375 -402.13140869140625 4.999654293060303
v 37.436439514160156 11.564838409423828 4.999798774719238
v 447.55609130859375 -441.05963134765625 5.610339576378465e-05
v 465.24407958984375 -423.38397216796875 5.5331303883576766e-05
v 447.55609130859375 -441.05963134765625 5.00005578994751
v 465.24407958984375 -423.38397216796875 5.000055313110352
v 465.24407958984375 -423.38397216796875 5.5331303883576766e-05
v 33.92073440551758 7.988157272338867 0.00019876580336131155
v 465.24407958984375 -423.38397216796875 5.000055313110352
v 33.92073440551758 7.988157272338867 5.000198841094971
v 33.92074203491211 7.988136291503906 0.00019876581791322678
v 16.245040893554688 -9.687662124633789 0.00019953845185227692
v 33.92074203491211 7.988136291503906 5.000198841094971
v 16.245040893554688 -9.687662124633789 5.000199794769287
v 16.24504280090332 -9.687662124633789 0.00019953845185227692
v 447.55596923828125 -441.05950927734375 5.610337757389061e-05
v 16.245040893554688 -9.687662124633789 5.000199794769287
v 447.55596923828125 -441.05950927734375 5.00005578994751
v 33.92074203491211 7.988136291503906 0.00019876581791322678
v 465.24407958984375 -423.38397216796875 5.5331303883576766e-05
v 447.55609130859375 -441.05963134765625 5.610339576378465e-05
v 16.24504280090332 -9.687662124633789 0.00019953845185227692
v 33.92074203491211 7.988136291503906 5.000198841094971
v 447.55609130859375 -441.05963134765625 5.00005578994751
v 465.24407958984375 -423.38397216796875 5.000055313110352
v 16.245040893554688 -9.687662124633789 5.000199794769287
v 426.35247802734375 -462.275390625 -0.0001429687108611688
v 444.04046630859375 -444.5997314453125 -0.00014374079182744026
v 426.35247802734375 -462.275390625 4.999856948852539
v 444.04046630859375 -444.5997314453125 4.999856472015381
v 444.04046630859375 -444.5997314453125 -0.00014374079182744026
v 12.71713638305664 -13.227642059326172 -3.0628334002358315e-07
v 444.04046630859375 -444.5997314453125 4.999856472015381
v 12.71713638305664 -13.227642059326172 4.999999523162842
v 12.717142105102539 -13.227663040161133 -3.0628126523879473e-07
v -4.958559036254883 -30.90346336364746 4.663567949592107e-07
v 12.717142105102539 -13.227663040161133 4.999999523162842
v -4.958559036254883 -30.90346336364746 5.000000476837158
v -4.958559036254883 -30.90346336364746 4.663567949592107e-07
v 426.35235595703125 -462.27532958984375 -0.0001429687108611688
v -4.958559036254883 -30.90346336364746 5.000000476837158
v 426.35235595703125 -462.27532958984375 4.999856948852539
v 12.717142105102539 -13.227663040161133 -3.0628126523879473e-07
v 444.04046630859375 -444.5997314453125 -0.00014374079182744026
v 426.35247802734375 -462.275390625 -0.0001429687108611688
v -4.958559036254883 -30.90346336364746 4.663567949592107e-07
v 12.717142105102539 -13.227663040161133 4.999999523162842
v 426.35247802734375 -462.275390625 4.999856948852539
v 444.04046630859375 -444.5997314453125 4.999856472015381
v -4.958559036254883 -30.90346336364746 5.000000476837158
v 405.14886474609375 -483.5035400390625 -0.0003420397115405649
v 422.83685302734375 -465.82781982421875 -0.0003428117779549211
v 405.14886474609375 -483.5035400390625 4.99965763092041
v 422.83685302734375 -465.82781982421875 4.999657154083252
v 422.83685302734375 -465.82781982421875 -0.0003428117779549211
v -8.486461639404297 -34.45574188232422 -0.000199377303943038
v 422.83685302734375 -465.82781982421875 4.999657154083252
v -8.486461639404297 -34.45574188232422 4.999800682067871
v -8.486455917358398 -34.45576477050781 -0.00019937728939112276
v -26.162155151367188 -52.13156509399414 -0.00019860467000398785
v -8.486455917358398 -34.45576477050781 4.999800682067871
v -26.162155151367188 -52.13156509399414 4.9998016357421875
v -26.162155151367188 -52.13156509399414 -0.00019860467000398785
v 405.1488037109375 -483.50341796875 -0.0003420397115405649
v -26.162155151367188 -52.13156509399414 4.9998016357421875
v 405.1488037109375 -483.50341796875 4.99965763092041
v -8.486455917358398 -34.45576477050781 -0.00019937728939112276
v 422.83685302734375 -465.82781982421875 -0.0003428117779549211
v 405.14886474609375 -483.5035400390625 -0.0003420397115405649
v -26.162155151367188 -52.13156509399414 -0.00019860467000398785
v -8.486455917358398 -34.45576477050781 4.999800682067871
v 405.14886474609375 -483.5035400390625 4.99965763092041
v 422.83685302734375 -465.82781982421875 4.999657154083252
v -26.162155151367188 -52.13156509399414 4.9998016357421875
v 383.9453125 -504.71929931640625 -0.000541111861821264
v 401.63330078125 -487.04364013671875 -0.0005418839864432812
v 383.9453125 -504.71929931640625 4.9994587898254395
v 401.63330078125 -487.04364013671875 4.999458312988281
v 401.63330078125 -487.04364013671875 -0.0005418839864432812
v -29.690059661865234 -55.671546936035156 -0.0003984493960160762
v 401.63330078125 -487.04364013671875 4.999458312988281
v -29.690059661865234 -55.671546936035156 4.999601364135742
v -29.69005584716797 -55.671566009521484 -0.0003984493960160762
v -47.365760803222656 -73.34736633300781 -0.00039767674752511084
v -29.69005584716797 -55.671566009521484 4.999601364135742
v -47.365760803222656 -73.34736633300781 4.999602317810059
v -47.365753173828125 -73.34736633300781 -0.00039767674752511084
v 383.9451904296875 -504.71917724609375 -0.000541111861821264
v -47.365753173828125 -73.34736633300781 4.999602317810059
v 383.9451904296875 -504.71917724609375 4.9994587898254395
v -29.69005584716797 -55.671566009521484 -0.0003984493960160762
v 401.63330078125 -487.04364013671875 -0.0005418839864432812
v 383.9453125 -504.71929931640625 -0.000541111861821264
v -47.365753173828125 -73.34736633300781 -0.00039767674752511084
v -29.69005584716797 -55.671566009521484 4.999601364135742
v 383.9453125 -504.71929931640625 4.9994587898254395
v 401.63330078125 -487.04364013671875 4.999458312988281
v -47.365753173828125 -73.34736633300781 4.999602317810059
v -37.026451110839844 -70.16127014160156 4.999502658843994
v -39.50445556640625 -72.62705993652344 4.999503135681152
v -37.02645492553711 -70.16126251220703 29.99950408935547
v -39.504459381103516 -72.62705993652344 29.99950408935547
v -39.50445556640625 -72.62705993652344 4.999503135681152
v 384.72637939453125 -496.91888427734375 4.999558448791504
v -39.504459381103516 -72.62705993652344 29.99950408935547
v 384.72637939453125 -496.91888427734375 29.999557495117188
v 384.72650146484375 -496.91900634765625 4.999558448791504
v 387.2044677734375 -494.4532470703125 4.999558448791504
v 384.72650146484375 -496.91900634765625 29.999557495117188
v 387.2044677734375 -494.4532470703125 29.999557495117188
v 387.2044677734375 -494.4532470703125 4.999558448791504
v -37.02633285522461 -70.16142272949219 4.999502658843994
v 387.2044677734375 -494.4532470703125 29.999557495117188
v -37.026336669921875 -70.16142272949219 29.99950408935547
v 384.72650146484375 -496.91900634765625 29.999557495117188
v -37.02645492553711 -70.16126251220703 29.99950408935547
v -39.504459381103516 -72.62705993652344 29.99950408935547
v 387.2044677734375 -494.4532470703125 29.999557495117188
v -43.83795166015625 -76.87516784667969 -10.000397682189941
v -36.770050048828125 -83.94306182861328 -10.000397682189941
v -43.83795166015625 -76.87516784667969 -0.0003973763668909669
v -36.770050048828125 -83.94306182861328 -0.0003964494972024113
v -36.770050048828125 -83.94306182861328 -10.000397682189941
v 104.59954833984375 57.53644561767578 -10.001002311706543
v -36.770050048828125 -83.94306182861328 -0.0003964494972024113
v 104.59954833984375 57.53644561767578 -0.0010024101939052343
v 104.59954833984375 57.53644561767578 -10.001002311706543
v 97.53164672851562 64.60433959960938 -10.00100326538086
v 104.59954833984375 57.53644561767578 -0.0010024101939052343
v 97.53164672851562 64.60433959960938 -0.0010033370926976204
v 97.53164672851562 64.60433959960938 -10.00100326538086
v -43.837947845458984 -76.87516784667969 -10.000397682189941
v 97.53164672851562 64.60433959960938 -0.0010033370926976204
v -43.837947845458984 -76.87516784667969 -0.0003973763668909669
v -43.83795166015625 -76.87516784667969 -10.000397682189941
v 97.53164672851562 64.60433959960938 -10.00100326538086
v -36.770050048828125 -83.94306182861328 -10.000397682189941
v 104.59954833984375 57.53644561767578 -10.001002311706543
v -43.83795166015625 -76.87516784667969 -0.00039731033029966056
v -36.770050048828125 -83.94306182861328 -0.00039638346061110497
v 97.53164672851562 64.60433959960938 -0.0010032710852101445
v 104.59954833984375 57.53644561767578 -0.0010023441864177585
v 62.1556510925293 -182.89324951171875 -10.000482559204102
v 69.22354125976562 -189.96104431152344 -10.000482559204102
v 62.1556510925293 -182.89324951171875 -0.0004833125858567655
v 69.22354125976562 -189.96104431152344 -0.00048238574527204037
v 69.22355651855469 -189.96104431152344 -10.000482559204102
v 210.61764526367188 -48.481544494628906 -10.000988960266113
v 69.22355651855469 -189.96104431152344 -0.00048238574527204037
v 210.61764526367188 -48.481544494628906 -0.00098850775975734
v 210.61764526367188 -48.4815559387207 -10.000988960266113
v 203.5497283935547 -41.41375732421875 -10.00098991394043
v 210.61764526367188 -48.4815559387207 -0.00098850775975734
v 203.5497283935547 -41.41375732421875 -0.0009894345421344042
v 203.5497283935547 -41.41375732421875 -10.00098991394043
v 62.155662536621094 -182.8932342529297 -10.000482559204102
v 203.5497283935547 -41.41375732421875 -0.0009894345421344042
v 62.155662536621094 -182.8932342529297 -0.0004833125858567655
v 62.1556510925293 -182.89324951171875 -10.000482559204102
v 203.5497283935547 -41.41375732421875 -10.00098991394043
v 69.22355651855469 -189.96104431152344 -10.000482559204102
v 210.61764526367188 -48.4815559387207 -10.000988960266113
v 62.1556510925293 -182.89324951171875 -0.00048324657836928964
v 69.22355651855469 -189.96104431152344 -0.0004823197377845645
v 203.5497283935547 -41.41375732421875 -0.0009893685346469283
v 210.61764526367188 -48.4815559387207 -0.000988441752269864
v 164.75575256347656 -285.50555419921875 -10.000669479370117
v 171.8236541748047 -292.5733642578125 -10.0006685256958
v 164.75575256347656 -285.50555419921875 -0.0006695326883345842
v 171.8236541748047 -292.5733642578125 -0.00066860590595752
v 171.8236541748047 -292.5733642578125 -10.0006685256958
v 313.2177734375 -151.09384155273438 -10.00107479095459
v 171.8236541748047 -292.5733642578125 -0.00066860590595752
v 313.2177734375 -151.09384155273438 -0.0010748900240287185
v 313.2177734375 -151.09384155273438 -10.00107479095459
v 306.14984130859375 -144.02603149414062 -10.001075744628906
v 313.2177734375 -151.09384155273438 -0.0010748900240287185
v 306.14984130859375 -144.02603149414062 -0.0010758169228211045
v 306.14984130859375 -144.02606201171875 -10.001075744628906
v 164.75575256347656 -285.50555419921875 -10.000669479370117
v 306.14984130859375 -144.02606201171875 -0.0010758169228211045
v 164.75575256347656 -285.50555419921875 -0.0006695326883345842
v 164.75575256347656 -285.50555419921875 -10.000669479370117
v 306.14984130859375 -144.0260467529297 -10.001075744628906
v 171.8236541748047 -292.5733642578125 -10.0006685256958
v 313.2177734375 -151.09384155273438 -10.00107479095459
v 164.75575256347656 -285.50555419921875 -0.0006694666808471084
v 171.8236541748047 -292.5733642578125 -0.0006685398984700441
v 306.14984130859375 -144.0260467529297 -0.0010757509153336287
v 313.2177734375 -151.09384155273438 -0.0010748240165412426
v 270.73724365234375 -391.4991455078125 -10.000454902648926
v 277.80517578125 -398.56707763671875 -10.000454902648926
v 270.73724365234375 -391.4991455078125 -0.00045744841918349266
v 277.80517578125 -398.56707763671875 -0.00045652154949493706
v 277.80517578125 -398.56707763671875 -10.000454902648926
v 419.19915771484375 -257.0875549316406 -10.000962257385254
v 277.80517578125 -398.56707763671875 -0.0004550314333755523
v 419.19915771484375 -257.0875549316406 -0.0009611534187570214
v 419.19915771484375 -257.0875549316406 -10.000962257385254
v 412.1312255859375 -250.0196533203125 -10.000962257385254
v 419.19915771484375 -257.0875549316406 -0.0009611534187570214
v 412.1312255859375 -250.0196533203125 -0.0009620802011340857
v 412.1312255859375 -250.0196533203125 -10.000962257385254
v 270.7372131347656 -391.49920654296875 -10.000454902648926
v 412.1312255859375 -250.0196533203125 -0.0009620802011340857
v 270.7372131347656 -391.49920654296875 -0.0004559583030641079
v 270.73724365234375 -391.4991455078125 -10.000454902648926
v 412.1312255859375 -250.0196533203125 -10.000962257385254
v 277.80517578125 -398.56707763671875 -10.000454902648926
v 419.19915771484375 -257.0875549316406 -10.000962257385254
v 270.73724365234375 -391.4991455078125 -0.000455892295576632
v 277.80517578125 -398.56707763671875 -0.0004549654258880764
v 412.1312255859375 -250.0196533203125 -0.0009620141936466098
v 419.19915771484375 -257.0875549316406 -0.0009610874112695456
v 373.33740234375 -494.1114501953125 -10.000642776489258
v 380.4052734375 -501.1793212890625 -10.000640869140625
v 373.33740234375 -494.1114501953125 -0.0006421784055419266
v 380.4052734375 -501.1793212890625 -0.0006412515649572015
v 380.4052734375 -501.1793212890625 -10.000640869140625
v 521.79931640625 -359.6998291015625 -10.001047134399414
v 380.4052734375 -501.1793212890625 -0.0006412515649572015
v 521.7992553710938 -359.6998291015625 -0.0010475356830284
v 521.79931640625 -359.6998291015625 -10.001047134399414
v 514.7313842773438 -352.6319580078125 -10.00104808807373
v 521.7992553710938 -359.6998291015625 -0.0010475356830284
v 514.7313232421875 -352.6319580078125 -0.001048462581820786
v 514.7313842773438 -352.6319580078125 -10.00104808807373
v 373.33740234375 -494.1114501953125 -10.000642776489258
v 514.7313232421875 -352.6319580078125 -0.001048462581820786
v 373.33740234375 -494.1114501953125 -0.0006421784055419266
v 373.33740234375 -494.1114501953125 -10.000642776489258
v 514.7313842773438 -352.6319580078125 -10.00104808807373
v 380.4052734375 -501.1793212890625 -10.000640869140625
v 521.79931640625 -359.6998291015625 -10.001047134399414
v 373.33740234375 -494.1114501953125 -0.0006421123980544508
v 380.4052734375 -501.1793212890625 -0.0006411855574697256
v 514.7313232421875 -352.6319580078125 -0.0010483965743333101
v 521.7992553710938 -359.6998291015625 -0.001047469675540924
v -29.604549407958984 -62.60516357421875 -15.393397331237793
v -22.536651611328125 -69.67306518554688 -15.393397331237793
v -29.604549407958984 -62.60516357421875 -5.393397808074951
v -22.536651611328125 -69.67306518554688 -5.393396854400635
v -22.536651611328125 -69.67306518554688 -5.393396854400635
v -22.536651611328125 -69.67306518554688 -15.393397331237793
v 90.53705596923828 43.51053237915039 -160.3936004638672
v 90.53705596923828 43.51053237915039 -170.3936004638672
v 90.53705596923828 43.510520935058594 -170.3936004638672
v 83.46914672851562 50.57843017578125 -170.3936004638672
v 90.53705596923828 43.510520935058594 -160.3936004638672
v 83.46914672851562 50.57843017578125 -160.3936004638672
v -29.604522705078125 -62.60514450073242 -15.393394470214844
v 83.46914672851562 50.57843017578125 -160.3936004638672
v 83.46914672851562 50.57843017578125 -170.3936004638672
v -29.604522705078125 -62.60514450073242 -5.393393039703369
v -29.604549407958984 -62.60516357421875 -15.393397331237793
v 83.46914672851562 50.57843017578125 -170.3936004638672
v -22.536651611328125 -69.67306518554688 -15.393397331237793
v 90.53705596923828 43.510520935058594 -170.3936004638672
v -29.604549407958984 -62.60516357421875 -5.393397808074951
v -22.536651611328125 -69.67306518554688 -5.393396854400635
v 83.46914672851562 50.57843017578125 -160.3936004638672
v 90.53705596923828 43.510520935058594 -160.3936004638672
v 76.38905334472656 -168.62315368652344 -15.393484115600586
v 83.45695495605469 -175.69105529785156 -15.39348316192627
v 76.38905334472656 -168.62315368652344 -5.393484115600586
v 83.45695495605469 -175.69105529785156 -5.393482685089111
v 83.45695495605469 -175.69105529785156 -5.393482685089111
v 83.45695495605469 -175.69105529785156 -15.39348316192627
v 196.55516052246094 -62.507476806640625 -160.39358520507812
v 196.55516052246094 -62.507476806640625 -170.39358520507812
v 196.55516052246094 -62.507469177246094 -170.39358520507812
v 189.48724365234375 -55.43967056274414 -170.3936004638672
v 196.55516052246094 -62.507469177246094 -160.39358520507812
v 189.48724365234375 -55.43967056274414 -160.3936004638672
v 76.38905334472656 -168.62315368652344 -15.393487930297852
v 189.48724365234375 -55.43967056274414 -160.3936004638672
v 189.48724365234375 -55.43967056274414 -170.3936004638672
v 76.38905334472656 -168.62315368652344 -5.393486499786377
v 76.38905334472656 -168.62315368652344 -15.393484115600586
v 189.48724365234375 -55.43967056274414 -170.3936004638672
v 83.45695495605469 -175.69105529785156 -15.39348316192627
v 196.55516052246094 -62.507469177246094 -170.39358520507812
v 76.38905334472656 -168.62315368652344 -5.393484115600586
v 83.45695495605469 -175.69105529785156 -5.393482685089111
v 189.48724365234375 -55.43967056274414 -160.3936004638672
v 196.55516052246094 -62.507469177246094 -160.39358520507812
v 178.98915100097656 -271.23553466796875 -15.393670082092285
v 186.0570526123047 -278.3033447265625 -15.393669128417969
v 178.98915100097656 -271.23553466796875 -5.393670558929443
v 186.0570526123047 -278.3033447265625 -5.393669605255127
v 186.0570526123047 -278.3033447265625 -5.393669605255127
v 186.0570526123047 -278.3033447265625 -15.393669128417969
v 299.1552734375 -165.11976623535156 -160.3936767578125
v 299.1552734375 -165.11976623535156 -170.3936767578125
v 299.1552734375 -165.11976623535156 -170.3936767578125
v 292.08734130859375 -158.0519561767578 -170.3936767578125
v 299.1552734375 -165.11976623535156 -160.3936767578125
v 292.08734130859375 -158.0519561767578 -160.3936767578125
v 178.98915100097656 -271.23553466796875 -15.393665313720703
v 292.08734130859375 -158.05197143554688 -160.3936767578125
v 292.08734130859375 -158.05197143554688 -170.3936767578125
v 178.98915100097656 -271.23553466796875 -5.393675327301025
v 178.98915100097656 -271.23553466796875 -15.393670082092285
v 292.08734130859375 -158.05197143554688 -170.3936767578125
v 186.0570526123047 -278.3033447265625 -15.393669128417969
v 299.1552734375 -165.11976623535156 -170.3936767578125
v 178.98915100097656 -271.23553466796875 -5.393670558929443
v 186.0570526123047 -278.3033447265625 -5.393669605255127
v 292.08734130859375 -158.05197143554688 -160.3936767578125
v 299.1552734375 -165.11976623535156 -160.3936767578125
v 284.970703125 -377.22918701171875 -15.393457412719727
v 292.03857421875 -384.29705810546875 -15.39345645904541
v 284.970703125 -377.22918701171875 -5.39345645904541
v 292.03857421875 -384.29705810546875 -5.393455505371094
v 292.03857421875 -384.29705810546875 -5.393455505371094
v 292.03857421875 -384.29705810546875 -15.39345645904541
v 405.13671875 -271.11346435546875 -160.39356994628906
v 405.13671875 -271.11346435546875 -170.39356994628906
v 405.13671875 -271.11346435546875 -170.39356994628906
v 398.06878662109375 -264.0455322265625 -170.39356994628906
v 405.13671875 -271.11346435546875 -160.39356994628906
v 398.06878662109375 -264.0455322265625 -160.39356994628906
v 284.970703125 -377.22918701171875 -15.393461227416992
v 398.06878662109375 -264.0455322265625 -160.39356994628906
v 398.06878662109375 -264.0455322265625 -170.39356994628906
v 284.970703125 -377.22918701171875 -5.393458843231201
v 284.970703125 -377.22918701171875 -15.393457412719727
v 398.06878662109375 -264.0455322265625 -170.39356994628906
v 292.03857421875 -384.29705810546875 -15.39345645904541
v 405.13671875 -271.11346435546875 -170.39356994628906
v 284.970703125 -377.22918701171875 -5.39345645904541
v 292.03857421875 -384.29705810546875 -5.393455505371094
v 398.06878662109375 -264.0455322265625 -160.39356994628906
v 405.13671875 -271.11346435546875 -160.39356994628906
v 387.57080078125 -479.8414306640625 -15.39364242553711
v 394.638671875 -486.9093017578125 -15.39364242553711
v 387.57080078125 -479.8414306640625 -5.393642902374268
v 394.638671875 -486.9093017578125 -5.393642425537109
v 394.638671875 -486.9093017578125 -5.393643856048584
v 394.638671875 -486.9093017578125 -15.39364242553711
v 507.73681640625 -373.7257080078125 -160.3936309814453
v 507.73681640625 -373.7257080078125 -170.3936309814453
v 507.73681640625 -373.72576904296875 -170.39366149902344
v 500.66888427734375 -366.6578369140625 -170.39366149902344
v 507.73681640625 -373.72576904296875 -160.39366149902344
v 500.66888427734375 -366.6578369140625 -160.39366149902344
v 387.57080078125 -479.8414306640625 -15.393661499023438
v 500.66888427734375 -366.6578369140625 -160.39366149902344
v 500.66888427734375 -366.6578369140625 -170.39366149902344
v 387.57080078125 -479.8414306640625 -5.39367151260376
v 387.57080078125 -479.8414306640625 -15.39364242553711
v 500.66888427734375 -366.6578369140625 -170.39366149902344
v 394.638671875 -486.9093017578125 -15.39364242553711
v 507.73681640625 -373.72576904296875 -170.39366149902344
v 387.57080078125 -479.8414306640625 -5.393642902374268
v 394.638671875 -486.9093017578125 -5.393642425537109
v 500.66888427734375 -366.6578369140625 -160.39366149902344
v 507.73681640625 -373.72576904296875 -160.39366149902344
v 83.50574493408203 50.50522994995117 -175.39340209960938
v 90.57365417480469 43.43733215332031 -175.39340209960938
v 83.5057373046875 50.505245208740234 -10.393431663513184
v 90.57364654541016 43.437347412109375 -10.393430709838867
v 90.57365417480469 43.43733215332031 -175.39340209960938
v 104.59955596923828 57.560829162597656 -175.39419555664062
v 90.57364654541016 43.437347412109375 -10.393406867980957
v 104.59954833984375 57.56084442138672 -10.394205093383789
v 104.59955596923828 57.560829162597656 -175.39419555664062
v 97.53165435791016 64.62872314453125 -175.39419555664062
v 104.59954833984375 57.56084442138672 -10.394229888916016
v 97.53164672851562 64.62873840332031 -10.394230842590332
v 97.53165435791016 64.62872314453125 -175.39419555664062
v 83.50574493408203 50.50522994995117 -175.39340209960938
v 97.53164672851562 64.62873840332031 -10.394206047058105
v 83.5057373046875 50.505245208740234 -10.393407821655273
v 83.50574493408203 50.50522994995117 -175.39340209960938
v 97.53165435791016 64.62872314453125 -175.39419555664062
v 90.57365417480469 43.43733215332031 -175.39340209960938
v 104.59955596923828 57.560829162597656 -175.39419555664062
v 83.5057373046875 50.505245208740234 -10.393403053283691
v 90.57364654541016 43.437347412109375 -10.393402099609375
v 97.53164672851562 64.62873840332031 -10.394203186035156
v 104.59954833984375 57.56084442138672 -10.39420223236084
v 189.49945068359375 -55.51286697387695 -175.39349365234375
v 196.56735229492188 -62.58076858520508 -175.3934783935547
v 189.4994354248047 -55.51285171508789 -10.393512725830078
v 196.5673370361328 -62.580753326416016 -10.393511772155762
v 196.56735229492188 -62.58076858520508 -175.3934783935547
v 210.61766052246094 -48.45716857910156 -175.39418029785156
v 196.5673370361328 -62.580753326416016 -10.393487930297852
v 210.61764526367188 -48.4571533203125 -10.39419174194336
v 210.61766052246094 -48.45716857910156 -175.39418029785156
v 203.54974365234375 -41.389366149902344 -175.39418029785156
v 210.61764526367188 -48.4571533203125 -10.394216537475586
v 203.5497283935547 -41.38935089111328 -10.394217491149902
v 203.54974365234375 -41.389366149902344 -175.39418029785156
v 189.49945068359375 -55.51287078857422 -175.39349365234375
v 203.5497283935547 -41.38935089111328 -10.394192695617676
v 189.4994354248047 -55.512855529785156 -10.393488883972168
v 189.49945068359375 -55.51286697387695 -175.39349365234375
v 203.54974365234375 -41.389366149902344 -175.39418029785156
v 196.56735229492188 -62.58076858520508 -175.3934783935547
v 210.61766052246094 -48.45716857910156 -175.39418029785156
v 189.4994354248047 -55.51285171508789 -10.393488883972168
v 196.5673370361328 -62.580753326416016 -10.393487930297852
v 203.5497283935547 -41.38935089111328 -10.394189834594727
v 210.61764526367188 -48.4571533203125 -10.39418888092041
v 292.09954833984375 -158.1251678466797 -175.3936767578125
v 299.16748046875 -165.19305419921875 -175.3936767578125
v 292.09954833984375 -158.12515258789062 -10.393702507019043
v 299.16748046875 -165.1930389404297 -10.39370059967041
v 299.16748046875 -165.19305419921875 -175.3936767578125
v 313.2177734375 -151.0694580078125 -175.39427185058594
v 299.16748046875 -165.1930389404297 -10.393677711486816
v 313.2177734375 -151.06944274902344 -10.39427375793457
v 313.2177734375 -151.0694580078125 -175.39427185058594
v 306.14984130859375 -144.00164794921875 -175.39427185058594
v 313.2177734375 -151.06944274902344 -10.394298553466797
v 306.14984130859375 -144.0016326904297 -10.394299507141113
v 306.14984130859375 -144.00167846679688 -175.39427185058594
v 292.09954833984375 -158.1251678466797 -175.3936767578125
v 306.14984130859375 -144.0016632080078 -10.394274711608887
v 292.09954833984375 -158.12515258789062 -10.39367961883545
v 292.09954833984375 -158.1251678466797 -175.3936767578125
v 306.14984130859375 -144.0016632080078 -175.39427185058594
v 299.16748046875 -165.19305419921875 -175.3936767578125
v 313.2177734375 -151.0694580078125 -175.39427185058594
v 292.09954833984375 -158.12515258789062 -10.3936767578125
v 299.16748046875 -165.1930389404297 -10.393674850463867
v 306.14984130859375 -144.00164794921875 -10.39427661895752
v 313.2177734375 -151.06944274902344 -10.394275665283203
v 398.08099365234375 -264.1188659667969 -175.39346313476562
v 405.14892578125 -271.1866455078125 -175.39346313476562
v 398.0809326171875 -264.11883544921875 -10.393486022949219
v 405.14886474609375 -271.1866455078125 -10.393484115600586
v 405.14892578125 -271.1866455078125 -175.39346313476562
v 419.19921875 -257.06317138671875 -175.3941650390625
v 405.14886474609375 -271.1866455078125 -10.393460273742676
v 419.19915771484375 -257.0631408691406 -10.3941650390625
v 419.19921875 -257.06317138671875 -175.3941650390625
v 412.13128662109375 -249.99525451660156 -175.3941650390625
v 419.19915771484375 -257.0631408691406 -10.394189834594727
v 412.1312255859375 -249.9952392578125 -10.394189834594727
v 412.13128662109375 -249.99525451660156 -175.3941650390625
v 398.08099365234375 -264.1188659667969 -175.39346313476562
v 412.1312255859375 -249.9952392578125 -10.3941650390625
v 398.0809326171875 -264.11883544921875 -10.393462181091309
v 398.08099365234375 -264.1188659667969 -175.39346313476562
v 412.13128662109375 -249.99525451660156 -175.3941650390625
v 405.14892578125 -271.1866455078125 -175.39346313476562
v 419.19921875 -257.06317138671875 -175.3941650390625
v 398.0809326171875 -264.11883544921875 -10.393462181091309
v 405.14886474609375 -271.1866455078125 -10.393460273742676
v 412.1312255859375 -249.9952392578125 -10.39416217803955
v 419.19915771484375 -257.0631408691406 -10.39416217803955
v 500.68109130859375 -366.73114013671875 -175.39366149902344
v 507.7490234375 -373.7989501953125 -175.39366149902344
v 500.68109130859375 -366.73114013671875 -10.393674850463867
v 507.7490234375 -373.7989501953125 -10.39367389678955
v 507.7490234375 -373.7989501953125 -175.39366149902344
v 521.79931640625 -359.67547607421875 -175.39425659179688
v 507.7490234375 -373.7989501953125 -10.393651008605957
v 521.79931640625 -359.6754150390625 -10.394246101379395
v 521.79931640625 -359.67547607421875 -175.39425659179688
v 514.7313842773438 -352.6075439453125 -175.39425659179688
v 521.79931640625 -359.6754150390625 -10.394270896911621
v 514.7313842773438 -352.6075439453125 -10.394271850585938
v 514.7313842773438 -352.6075439453125 -175.39425659179688
v 500.68109130859375 -366.73114013671875 -175.39366149902344
v 514.7313842773438 -352.6075439453125 -10.394247055053711
v 500.68109130859375 -366.73114013671875 -10.393651962280273
v 500.68109130859375 -366.73114013671875 -175.39366149902344
v 514.7313842773438 -352.6075439453125 -175.39425659179688
v 507.7490234375 -373.7989501953125 -175.39366149902344
v 521.79931640625 -359.67547607421875 -175.39425659179688
v 500.68109130859375 -366.73114013671875 -10.393649101257324
v 507.7490234375 -373.7989501953125 -10.393648147583008
v 514.7313842773438 -352.6075439453125 -10.394248962402344
v 521.79931640625 -359.6754150390625 -10.394248008728027
v 37.29259490966797 11.696685791015625 16.768205642700195
v 54.9799690246582 29.373191833496094 16.772111892700195
v 35.671302795410156 13.317996978759766 21.211490631103516
v 53.35862731933594 30.99445343017578 21.215396881103516
v 54.9799690246582 29.373191833496094 16.772111892700195
v -417.05120849609375 501.45263671875 -327.7229309082031
v 53.358673095703125 30.994457244873047 21.21541404724121
v -418.67242431640625 503.07391357421875 -323.27960205078125
v -417.05126953125 501.45269775390625 -327.7229309082031
v -434.72705078125 483.77685546875 -327.7229309082031
v -418.672607421875 503.073974609375 -323.2796630859375
v -436.348388671875 485.398193359375 -323.2796325683594
v -434.72705078125 483.77691650390625 -327.7229309082031
v 37.29264450073242 11.69668960571289 16.768220901489258
v -436.348388671875 485.398193359375 -323.2796325683594
v 35.671348571777344 13.317998886108398 21.211505889892578
v -417.05126953125 501.45269775390625 -327.7229309082031
v 54.9799690246582 29.373191833496094 16.772109985351562
v 37.29259490966797 11.696685791015625 16.768205642700195
v -434.72705078125 483.77691650390625 -327.7229309082031
v -418.67254638671875 503.073974609375 -323.2796630859375
v 35.671302795410156 13.317981719970703 21.21149253845215
v 53.35867691040039 30.994487762451172 21.21539878845215
v -436.348388671875 485.398193359375 -323.2796325683594
v 16.09769630432129 -9.552282333374023 16.78835678100586
v 33.78501892089844 8.124088287353516 16.79229164123535
v 14.476402282714844 -7.930971622467041 21.23164176940918
v 32.16372299194336 9.745399475097656 21.235576629638672
v 33.78501892089844 8.124088287353516 16.79229164123535
v -438.2462158203125 480.20361328125 -327.7027893066406
v 32.16372299194336 9.745399475097656 21.235576629638672
v -439.8675537109375 481.82489013671875 -323.259521484375
v -438.24627685546875 480.20361328125 -327.70281982421875
v -455.9219970703125 462.52783203125 -327.7027282714844
v -439.8675537109375 481.824951171875 -323.259521484375
v -457.54327392578125 464.14910888671875 -323.2594299316406
v -455.9219970703125 462.52783203125 -327.7027282714844
v 16.097742080688477 -9.552279472351074 16.788372039794922
v -457.54327392578125 464.14910888671875 -323.2594299316406
v 14.476446151733398 -7.930968761444092 21.231657028198242
v -438.24627685546875 480.20361328125 -327.70281982421875
v 33.78501892089844 8.124088287353516 16.79229164123535
v 16.09769630432129 -9.552282333374023 16.78835678100586
v -455.9219970703125 462.52783203125 -327.7027282714844
v -439.8675537109375 481.82489013671875 -323.259521484375
v 14.476402282714844 -7.9309868812561035 21.231645584106445
v 32.16372299194336 9.745382308959961 21.235580444335938
v -457.54327392578125 464.14910888671875 -323.2594299316406
v -5.106487274169922 -30.76748275756836 16.792266845703125
v 12.580832481384277 -13.091111183166504 16.79620361328125
v -6.727781295776367 -29.14617347717285 21.235551834106445
v 10.959537506103516 -11.46980094909668 21.23948860168457
v 12.580832481384277 -13.091111183166504 16.79620361328125
v -459.450439453125 458.9884033203125 -327.6988830566406
v 10.959537506103516 -11.46980094909668 21.23948860168457
v -461.07177734375 460.60968017578125 -323.255615234375
v -459.450439453125 458.9884033203125 -327.69891357421875
v -477.126220703125 441.3126220703125 -327.6988220214844
v -461.07177734375 460.6097412109375 -323.255615234375
v -478.74749755859375 442.93389892578125 -323.2555236816406
v -477.126220703125 441.3126220703125 -327.6988220214844
v -5.106443405151367 -30.767480850219727 16.79228401184082
v -478.74749755859375 442.93389892578125 -323.2555236816406
v -6.7277374267578125 -29.14617156982422 21.235567092895508
v -459.450439453125 458.9884033203125 -327.69891357421875
v 12.580832481384277 -13.091111183166504 16.79620361328125
v -5.106487274169922 -30.76748275756836 16.792266845703125
v -477.126220703125 441.3126220703125 -327.6988220214844
v -461.07177734375 460.60968017578125 -323.255615234375
v -6.727781295776367 -29.14618682861328 21.23555564880371
v 10.959538459777832 -11.469817161560059 21.239492416381836
v -478.74749755859375 442.93389892578125 -323.2555236816406
v -26.311389923095703 -51.994083404541016 16.800065994262695
v -8.624067306518555 -34.317710876464844 16.804000854492188
v -27.932682037353516 -50.372772216796875 21.243350982666016
v -10.245361328125 -32.6963996887207 21.247285842895508
v -8.624067306518555 -34.317710876464844 16.804000854492188
v -480.65533447265625 437.76177978515625 -327.69110107421875
v -10.245361328125 -32.6963996887207 21.247285842895508
v -482.27667236328125 439.38311767578125 -323.2478332519531
v -480.65533447265625 437.76177978515625 -327.69110107421875
v -498.33111572265625 420.08599853515625 -327.6910095214844
v -482.27667236328125 439.38311767578125 -323.2478332519531
v -499.952392578125 421.70733642578125 -323.24774169921875
v -498.33111572265625 420.08599853515625 -327.6910095214844
v -26.311344146728516 -51.994083404541016 16.800081253051758
v -499.952392578125 421.70733642578125 -323.24774169921875
v -27.932636260986328 -50.37276840209961 21.243366241455078
v -480.65533447265625 437.76177978515625 -327.69110107421875
v -8.624067306518555 -34.317710876464844 16.804000854492188
v -26.311389923095703 -51.994083404541016 16.800065994262695
v -498.33111572265625 420.08599853515625 -327.6910095214844
v -482.27667236328125 439.38311767578125 -323.2478332519531
v -27.932682037353516 -50.3727912902832 21.24335289001465
v -10.245361328125 -32.69641876220703 21.24728775024414
v -499.952392578125 421.70733642578125 -323.24774169921875
v -47.51567077636719 -73.20928192138672 16.803855895996094
v -29.828350067138672 -55.53291320800781 16.80779266357422
v -49.136962890625 -71.58798217773438 21.247140884399414
v -31.449642181396484 -53.91160202026367 21.25107765197754
v -29.828350067138672 -55.53291320800781 16.80779266357422
v -501.859619140625 416.54656982421875 -327.6872863769531
v -31.449642181396484 -53.91160202026367 21.25107765197754
v -503.48101806640625 418.16790771484375 -323.2440490722656
v -501.85968017578125 416.54656982421875 -327.68731689453125
v -519.535400390625 398.87078857421875 -327.6872253417969
v -503.48095703125 418.16790771484375 -323.2440490722656
v -521.1566772460938 400.49212646484375 -323.2439270019531
v -519.535400390625 398.87078857421875 -327.6872253417969
v -47.515625 -73.20928192138672 16.80387306213379
v -521.1566772460938 400.49212646484375 -323.2439270019531
v -49.136924743652344 -71.58796691894531 21.247156143188477
v -501.85968017578125 416.54656982421875 -327.68731689453125
v -29.828350067138672 -55.53291320800781 16.80779266357422
v -47.51567077636719 -73.20928192138672 16.803855895996094
v -519.535400390625 398.87078857421875 -327.6872253417969
v -503.48095703125 418.16790771484375 -323.2440490722656
v -49.136962890625 -71.5879898071289 21.24714469909668
v -31.449642181396484 -53.91162109375 21.251081466674805
v -521.1566772460938 400.49212646484375 -323.2439270019531
v -511.21551513671875 404.07635498046875 -320.92449951171875
v -513.69287109375 401.60986328125 -320.9284362792969
v -519.322021484375 412.18292236328125 -298.70806884765625
v -521.79931640625 409.7164306640625 -298.7120361328125
v -513.69287109375 401.60986328125 -320.9284362792969
v -47.964942932128906 -64.1785659790039 18.971189498901367
v -521.79931640625 409.7164306640625 -298.7120361328125
v -56.07141876220703 -56.07201385498047 41.18761444091797
v -47.964942932128906 -64.17852783203125 18.971174240112305
v -45.48754119873047 -61.712066650390625 18.975156784057617
v -56.07141876220703 -56.07196807861328 41.187599182128906
v -53.594017028808594 -53.60551071166992 41.19158172607422
v -45.48754119873047 -61.712066650390625 18.975156784057617
v -511.21551513671875 404.0762939453125 -320.9244689941406
v -53.594017028808594 -53.60551071166992 41.19158172607422
v -519.322021484375 412.182861328125 -298.70806884765625
v -56.0714111328125 -56.07195281982422 41.187591552734375
v -519.322021484375 412.18292236328125 -298.70806884765625
v -521.79931640625 409.7164306640625 -298.7120361328125
v -53.594017028808594 -53.60549545288086 41.19157028198242
v -513.15771484375 392.49310302734375 -334.28594970703125
v -506.87677001953125 386.21221923828125 -329.7022705078125
v -516.4003295898438 395.73577880859375 -325.3993835449219
v -510.119384765625 389.454833984375 -320.81573486328125
v -506.87677001953125 386.21221923828125 -329.7022705078125
v -402.38946533203125 490.78570556640625 -329.7315979003906
v -510.119384765625 389.454833984375 -320.81573486328125
v -405.63201904296875 494.0283203125 -320.84503173828125
v -402.38946533203125 490.78570556640625 -329.7315979003906
v -408.6700439453125 497.0662841796875 -334.314453125
v -405.632080078125 494.0283203125 -320.84503173828125
v -411.91259765625 500.3089599609375 -325.4278869628906
v -408.6700439453125 497.0662841796875 -334.314453125
v -513.1577758789062 392.4930419921875 -334.28594970703125
v -411.91265869140625 500.3089599609375 -325.4278869628906
v -516.400390625 395.7357177734375 -325.3993835449219
v -513.15771484375 392.49310302734375 -334.28594970703125
v -408.6700439453125 497.0662841796875 -334.314453125
v -506.87677001953125 386.21221923828125 -329.7022705078125
v -402.38946533203125 490.78570556640625 -329.7315979003906
v -516.4003295898438 395.73577880859375 -325.3993835449219
v -510.119384765625 389.454833984375 -320.8157043457031
v -411.91259765625 500.3089599609375 -325.4278869628906
v -405.63201904296875 494.0283203125 -320.84503173828125
v -418.96710205078125 298.27813720703125 -265.5390319824219
v -412.6861572265625 291.99725341796875 -260.95538330078125
v -422.209716796875 301.520751953125 -256.6524658203125
v -415.9287109375 295.2398681640625 -252.0688018798828
v -412.6861572265625 291.99725341796875 -260.95538330078125
v -308.18060302734375 396.57672119140625 -260.98828125
v -415.9287109375 295.2398681640625 -252.0688018798828
v -311.4232177734375 399.81939697265625 -252.1017303466797
v -308.18060302734375 396.57672119140625 -260.98828125
v -314.461181640625 402.857421875 -265.5711669921875
v -311.42315673828125 399.81939697265625 -252.1017303466797
v -317.7037353515625 406.10003662109375 -256.6846008300781
v -314.461181640625 402.857421875 -265.5711669921875
v -418.96710205078125 298.27813720703125 -265.5390319824219
v -317.70379638671875 406.10003662109375 -256.6846008300781
v -422.209716796875 301.520751953125 -256.6524658203125
v -418.96710205078125 298.27813720703125 -265.5390319824219
v -314.461181640625 402.857421875 -265.5711669921875
v -412.6861572265625 291.99725341796875 -260.95538330078125
v -308.18060302734375 396.57672119140625 -260.98828125
v -422.20965576171875 301.520751953125 -256.6524658203125
v -415.9287109375 295.23992919921875 -252.06878662109375
v -317.7037353515625 406.10003662109375 -256.6846008300781
v -311.42315673828125 399.81939697265625 -252.1017303466797
v -327.79144287109375 207.09034729003906 -198.9969024658203
v -321.510498046875 200.8095245361328 -194.4132537841797
v -331.0340576171875 210.33297729492188 -190.11033630371094
v -324.7530517578125 204.05210876464844 -185.5266571044922
v -321.510498046875 200.8095245361328 -194.4132537841797
v -217.0030975341797 305.38702392578125 -194.44134521484375
v -324.7530517578125 204.05210876464844 -185.52667236328125
v -220.24569702148438 308.629638671875 -185.5547637939453
v -217.00308227539062 305.38702392578125 -194.44134521484375
v -223.2836456298828 311.6676025390625 -199.02418518066406
v -220.24566650390625 308.629638671875 -185.5547637939453
v -226.52622985839844 314.91021728515625 -190.13760375976562
v -223.2836456298828 311.6676025390625 -199.02418518066406
v -327.79144287109375 207.09031677246094 -198.9969024658203
v -226.52622985839844 314.91021728515625 -190.13760375976562
v -331.03399658203125 210.33297729492188 -190.11033630371094
v -327.79144287109375 207.09034729003906 -198.9969024658203
v -223.2836456298828 311.6676025390625 -199.02418518066406
v -321.510498046875 200.8095245361328 -194.4132537841797
v -217.00308227539062 305.38702392578125 -194.44134521484375
v -331.03399658203125 210.33297729492188 -190.11032104492188
v -324.7530517578125 204.05215454101562 -185.52667236328125
v -226.52622985839844 314.91021728515625 -190.13760375976562
v -220.24566650390625 308.62969970703125 -185.5547637939453
v -233.6109619140625 112.89793395996094 -130.26156616210938
v -227.32998657226562 106.61698150634766 -125.67786407470703
v -236.8535614013672 116.14053344726562 -121.37499237060547
v -230.57260131835938 109.8595962524414 -116.79129791259766
v -227.32998657226562 106.61698150634766 -125.67786407470703
v -122.82374572753906 211.195556640625 -125.70867156982422
v -230.5726318359375 109.85957336425781 -116.79129791259766
v -126.06632995605469 214.4381561279297 -116.82209777832031
v -122.82374572753906 211.195556640625 -125.70867156982422
v -129.10430908203125 217.47607421875 -130.29150390625
v -126.06632995605469 214.4381561279297 -116.82209777832031
v -132.34690856933594 220.71871948242188 -121.40493774414062
v -129.10430908203125 217.47607421875 -130.29150390625
v -233.6109619140625 112.89790344238281 -130.26156616210938
v -132.34690856933594 220.71871948242188 -121.40493774414062
v -236.8535614013672 116.14053344726562 -121.37499237060547
v -233.6109619140625 112.89793395996094 -130.26156616210938
v -129.10430908203125 217.47608947753906 -130.29150390625
v -227.32998657226562 106.61698150634766 -125.67786407470703
v -122.82374572753906 211.195556640625 -125.70867156982422
v -236.8535614013672 116.14054870605469 -121.3749771118164
v -230.5725860595703 109.859619140625 -116.79129028320312
v -132.34690856933594 220.71871948242188 -121.40493774414062
v -126.06632995605469 214.4381866455078 -116.82209777832031
v -142.43527221679688 21.710124969482422 -63.719451904296875
v -136.15431213378906 15.429218292236328 -59.13576889038086
v -145.6778564453125 24.952743530273438 -54.832881927490234
v -139.3968963623047 18.671842575073242 -50.24919891357422
v -136.15431213378906 15.429218292236328 -59.13576889038086
v -31.64624786376953 120.00575256347656 -59.16166687011719
v -139.3968963623047 18.671842575073242 -50.24919891357422
v -34.88883972167969 123.24838256835938 -50.27509689331055
v -31.64624786376953 120.00572204589844 -59.161659240722656
v -37.926902770996094 126.28640747070312 -63.744571685791016
v -34.88883972167969 123.24835205078125 -50.275089263916016
v -41.169490814208984 129.52902221679688 -54.858001708984375
v -37.926902770996094 126.286376953125 -63.74456787109375
v -142.43527221679688 21.710124969482422 -63.719451904296875
v -41.169490814208984 129.52902221679688 -54.858001708984375
v -145.6778564453125 24.952743530273438 -54.832881927490234
v -142.43527221679688 21.710124969482422 -63.719451904296875
v -37.926902770996094 126.28640747070312 -63.744571685791016
v -136.15431213378906 15.429218292236328 -59.13576889038086
v -31.64624786376953 120.00575256347656 -59.16166687011719
v -145.6778564453125 24.952762603759766 -54.8328742980957
v -139.3968963623047 18.671855926513672 -50.24919509887695
v -41.169490814208984 129.52903747558594 -54.85799789428711
v -34.88883590698242 123.24838256835938 -50.275089263916016
v -51.366912841796875 -69.3460693359375 2.7358782291412354
v -45.08595275878906 -75.62696838378906 7.319558620452881
v -54.60950469970703 -66.10345458984375 11.62244987487793
v -48.32854461669922 -72.38435363769531 16.206127166748047
v -45.08595275878906 -75.62696838378906 7.319558620452881
v 59.41571044921875 28.94363021850586 7.291125774383545
v -48.32854461669922 -72.38435363769531 16.206127166748047
v 56.17312240600586 32.186248779296875 16.177696228027344
v 59.41571044921875 28.943649291992188 7.291118621826172
v 53.13514709472656 35.224212646484375 2.7082695960998535
v 56.17312240600586 32.18627166748047 16.177688598632812
v 49.892555236816406 38.46683120727539 11.59483814239502
v 53.13514709472656 35.224212646484375 2.7082695960998535
v -51.366912841796875 -69.3460693359375 2.7358782291412354
v 49.892555236816406 38.46683120727539 11.59483814239502
v -54.60950469970703 -66.10345458984375 11.62244987487793
v -51.366912841796875 -69.3460693359375 2.735879421234131
v 53.13514709472656 35.224212646484375 2.7082695960998535
v -45.08595275878906 -75.62696838378906 7.319558620452881
v 59.41571044921875 28.943649291992188 7.291118621826172
v -54.6094970703125 -66.10346221923828 11.622455596923828
v -48.32853698730469 -72.38436126708984 16.206132888793945
v 49.89256286621094 38.46682357788086 11.594844818115234
v 56.17312240600586 32.18626022338867 16.17769432067871
v -418.67791748046875 496.6126708984375 -320.9219970703125
v -421.1552734375 494.14617919921875 -320.9259338378906
v -426.784423828125 504.71929931640625 -298.70556640625
v -429.26171875 502.2528076171875 -298.70953369140625
v -421.15521240234375 494.14617919921875 -320.9259338378906
v 44.57269287109375 28.357746124267578 18.97370719909668
v -429.26171875 502.2528076171875 -298.70953369140625
v 36.466217041015625 36.464298248291016 41.190128326416016
v 44.572654724121094 28.3577880859375 18.973676681518555
v 47.050045013427734 30.82424545288086 18.977657318115234
v 36.4661750793457 36.46434020996094 41.19009780883789
v 38.94356918334961 38.9307975769043 41.19407653808594
v 47.05004119873047 30.824199676513672 18.977672576904297
v -418.677978515625 496.6126708984375 -320.9219970703125
v 38.943565368652344 38.930755615234375 41.194095611572266
v -426.784423828125 504.71923828125 -298.70556640625
v 36.46617889404297 36.46435546875 41.19009017944336
v -426.784423828125 504.71929931640625 -298.70556640625
v -429.26171875 502.2528076171875 -298.70953369140625
v 38.943572998046875 38.93081283569336 41.19407272338867
f 2 1 3
f 4 2 3
f 38 37 39
f 40 38 39
f 34 33 35
f 36 34 35
f 30 29 31
f 32 30 31
f 26 25 27
f 28 26 27
f 14 13 15
f 16 14 15
f 10 9 11
f 12 10 11
f 6 5 7
f 8 6 7
f 798 797 799
f 800 798 799
f 794 793 795
f 796 794 795
f 790 789 791
f 792 790 791
f 786 785 787
f 788 786 787
f 782 781 783
f 783 784 782
f 778 777 779
f 779 780 778
f 774 773 775
f 776 774 775
f 770 769 771
f 772 770 771
f 766 765 767
f 768 766 767
f 762 761 763
f 764 762 763
f 758 757 759
f 759 760 758
f 754 753 755
f 755 756 754
f 750 749 751
f 752 750 751
f 746 745 747
f 748 746 747
f 742 741 743
f 744 742 743
f 738 737 739
f 740 738 739
f 734 733 735
f 735 736 734
f 730 729 731
f 731 732 730
f 726 725 727
f 728 726 727
f 722 721 723
f 724 722 723
f 718 717 719
f 720 718 719
f 714 713 715
f 716 714 715
f 710 709 711
f 711 712 710
f 706 705 707
f 707 708 706
f 702 701 703
f 704 702 703
f 698 697 699
f 700 698 699
f 694 693 695
f 696 694 695
f 690 689 691
f 692 690 691
f 686 685 687
f 687 688 686
f 682 681 683
f 683 684 682
f 678 677 679
f 680 678 679
f 674 673 675
f 676 674 675
f 670 669 671
f 672 670 671
f 666 665 667
f 668 666 667
f 662 661 663
f 663 664 662
f 658 657 659
f 659 660 658
f 654 653 655
f 656 654 655
f 650 649 651
f 652 650 651
f 646 645 647
f 648 646 647
f 642 641 643
f 644 642 643
f 634 633 635
f 636 634 635
f 630 629 631
f 632 630 631
f 626 625 627
f 628 626 627
f 622 621 623
f 624 622 623
f 610 609 611
f 612 610 611
f 606 605 607
f 608 606 607
f 602 601 603
f 604 602 603
f 598 597 599
f 600 598 599
f 586 585 587
f 588 586 587
f 582 581 583
f 584 582 583
f 578 577 579
f 580 578 579
f 574 573 575
f 576 574 575
f 562 561 563
f 564 562 563
f 558 557 559
f 560 558 559
f 554 553 555
f 556 554 555
f 550 549 551
f 552 550 551
f 538 537 539
f 540 538 539
f 534 533 535
f 536 534 535
f 530 529 531
f 532 530 531
f 526 525 527
f 528 526 527
f 514 513 515
f 516 514 515
f 510 509 511
f 512 510 511
f 506 505 507
f 508 506 507
f 502 501 503
f 504 502 503
f 498 497 499
f 499 500 498
f 494 493 495
f 495 496 494
f 490 489 491
f 492 490 491
f 486 485 487
f 488 486 487
f 482 481 483
f 484 482 483
f 478 477 479
f 480 478 479
f 474 473 475
f 475 476 474
f 470 469 471
f 471 472 470
f 466 465 467
f 468 466 467
f 462 461 463
f 464 462 463
f 458 457 459
f 460 458 459
f 454 453 455
f 456 454 455
f 450 449 451
f 451 452 450
f 446 445 447
f 447 448 446
f 442 441 443
f 444 442 443
f 438 437 439
f 440 438 439
f 434 433 435
f 436 434 435
f 430 429 431
f 432 430 431
f 426 425 427
f 427 428 426
f 422 421 423
f 423 424 422
f 418 417 419
f 420 418 419
f 414 413 415
f 416 414 415
f 410 409 411
f 412 410 411
f 406 405 407
f 408 406 407
f 402 401 403
f 403 404 402
f 398 397 399
f 399 400 398
f 394 393 395
f 396 394 395
f 390 389 391
f 392 390 391
f 386 385 387
f 388 386 387
f 382 381 383
f 384 382 383
f 378 377 379
f 379 380 378
f 374 373 375
f 375 376 374
f 366 365 367
f 368 366 367
f 362 361 363
f 363 364 362
f 358 357 359
f 360 358 359
f 354 353 355
f 355 356 354
f 350 349 351
f 351 352 350
f 342 341 343
f 344 342 343
f 338 337 339
f 339 340 338
f 334 333 335
f 336 334 335
f 330 329 331
f 331 332 330
f 326 325 327
f 327 328 326
f 318 317 319
f 320 318 319
f 314 313 315
f 315 316 314
f 310 309 311
f 312 310 311
f 306 305 307
f 307 308 306
f 302 301 303
f 303 304 302
f 294 293 295
f 296 294 295
f 290 289 291
f 291 292 290
f 286 285 287
f 288 286 287
f 282 281 283
f 283 284 282
f 278 277 279
f 279 280 278
f 270 269 271
f 272 270 271
f 266 265 267
f 267 268 266
f 262 261 263
f 264 262 263
f 258 257 259
f 259 260 258
f 254 253 255
f 255 256 254
f 250 249 251
f 252 250 251
f 246 245 247
f 248 246 247
f 242 241 243
f 244 242 243
f 238 237 239
f 240 238 239
f 234 233 235
f 235 236 234
f 230 229 231
f 231 232 230
f 226 225 227
f 228 226 227
f 222 221 223
f 224 222 223
f 218 217 219
f 220 218 219
f 214 213 215
f 216 214 215
f 210 209 211
f 211 212 210
f 206 205 207
f 207 208 206
f 202 201 203
f 204 202 203
f 198 197 199
f 200 198 199
f 194 193 195
f 196 194 195
f 190 189 191
f 192 190 191
f 186 185 187
f 187 188 186
f 182 181 183
f 183 184 182
f 178 177 179
f 180 178 179
f 174 173 175
f 176 174 175
f 170 169 171
f 172 170 171
f 166 165 167
f 168 166 167
f 162 161 163
f 163 164 162
f 158 157 159
f 159 160 158
f 154 153 155
f 156 154 155
f 150 149 151
f 152 150 151
f 146 145 147
f 148 146 147
f 142 141 143
f 144 142 143
f 134 133 135
f 136 134 135
f 130 129 131
f 132 130 131
f 126 125 127
f 128 126 127
f 122 121 123
f 124 122 123
f 110 109 111
f 112 110 111
f 106 105 107
f 108 106 107
f 102 101 103
f 104 102 103
f 98 97 99
f 100 98 99
f 86 85 87
f 88 86 87
f 82 81 83
f 84 82 83
f 78 77 79
f 80 78 79
f 74 73 75
f 76 74 75
f 62 61 63
f 64 62 63
f 58 57 59
f 60 58 59
f 54 53 55
f 56 54 55
f 50 49 51
f 52 50 51
f 42 41 43
f 44 43 41
f 45 46 48
f 46 45 47
f 66 65 67
f 68 67 65
f 69 70 72
f 70 69 71
f 90 89 91
f 92 91 89
f 93 94 96
f 94 93 95
f 114 113 115
f 116 115 113
f 117 118 120
f 118 117 119
f 137 138 140
f 138 137 139
f 273 274 276
f 274 273 275
f 297 298 300
f 298 297 299
f 321 322 324
f 322 321 323
f 345 346 348
f 346 345 347
f 369 370 372
f 370 369 371
f 518 517 519
f 520 519 517
f 521 522 524
f 522 521 523
f 542 541 543
f 544 543 541
f 545 546 548
f 546 545 547
f 566 565 567
f 568 567 565
f 569 570 572
f 570 569 571
f 590 589 591
f 592 591 589
f 593 594 596
f 594 593 595
f 614 613 615
f 616 615 613
f 617 618 620
f 618 617 619
f 637 638 640
f 638 637 639
f 801 802 804
f 802 801 803
f 18 17 19
f 20 19 17
f 21 22 24
f 22 21 23
