v 281.072998046875 281.09130859375 -0.00011236425780225545
v -281.08514404296875 -281.0668029785156 0.000808303477242589
v 282.20501708984375 279.9593200683594 4.9998884201049805
v -279.953125 -282.19879150390625 5.0008134841918945
v -281.085205078125 -281.06689453125 0.0008122084545902908
v -182.073974609375 -380.0780944824219 0.0008251921972259879
v -279.95318603515625 -282.1988830566406 5.00081205368042
v -183.20590209960938 -378.9461364746094 5.000824928283691
v -182.073974609375 -380.07806396484375 0.0008251921972259879
v 380.08416748046875 182.0802001953125 -0.00020214126561768353
v -183.2058868408203 -378.9460754394531 5.000823974609375
v 378.95220947265625 183.212158203125 4.999824047088623
v 380.08416748046875 182.08013916015625 -0.00019938050536438823
v 281.072998046875 281.09130859375 -0.00011236427235417068
v 378.95220947265625 183.21214294433594 4.999800682067871
v 282.2049560546875 279.9593200683594 4.999887943267822
v -281.085205078125 -281.06689453125 0.0008122084545902908
v 281.072998046875 281.09130859375 -0.00011236425780225545
v -182.073974609375 -380.07806396484375 0.0008251921972259879
v 380.08416748046875 182.08013916015625 -0.00019938050536438823
v -279.95318603515625 -282.1988830566406 5.00081205368042
v -183.2058868408203 -378.9460754394531 5.000824928283691
v 282.20501708984375 279.9593200683594 4.999887943267822
v 378.95220947265625 183.21214294433594 4.999800682067871
v 182.073974609375 380.0780944824219 -0.0001253453374374658
v -380.08416748046875 -182.0800323486328 0.000795322353951633
v 183.20599365234375 378.94610595703125 4.999875545501709
v -378.9521484375 -183.21202087402344 5.000800609588623
v -380.08416748046875 -182.08010864257812 0.0007992273312993348
v -281.072998046875 -281.09130859375 0.0008122110739350319
v -378.95220947265625 -183.21209716796875 5.000799179077148
v -282.20489501953125 -279.9593505859375 5.00081205368042
v -281.072998046875 -281.0912780761719 0.0008097632671706378
v 281.085205078125 281.0669860839844 -0.00021512234525289387
v -282.20489501953125 -279.95928955078125 5.0008111000061035
v 279.9532470703125 282.1989440917969 4.999811172485352
v 281.085205078125 281.0669250488281 -0.00021236157044768333
v 182.073974609375 380.0780944824219 -0.00012534535198938102
v 279.95318603515625 282.1989440917969 4.9997878074646
v 183.20596313476562 378.94610595703125 4.999875068664551
v -380.08416748046875 -182.08010864257812 0.0007992273312993348
v 182.073974609375 380.0780944824219 -0.0001253453374374658
v -281.072998046875 -281.0912780761719 0.0008122110739350319
v 281.085205078125 281.0669250488281 -0.00021236158499959856
v -378.95220947265625 -183.21209716796875 5.000799179077148
v -282.20489501953125 -279.95928955078125 5.00081205368042
v 183.20599365234375 378.94610595703125 4.999875068664551
v 279.95318603515625 282.19891357421875 4.9997878074646
f 2 1 3
f 4 2 3
f 46 45 47
f 47 48 46
f 42 41 43
f 43 44 42
f 38 37 39
f 40 38 39
f 34 33 35
f 36 34 35
f 30 29 31
f 32 30 31
f 26 25 27
f 28 26 27
f 22 21 23
f 23 24 22
f 18 17 19
f 19 20 18
f 14 13 15
f 16 14 15
f 10 9 11
f 12 10 11
f 6 5 7
f 8 6 7
