v -281.9062805175781 294.2521667480469 340.0005187988281
v -288.97418212890625 287.18426513671875 340.0005187988281
v -281.9062805175781 294.2521667480469 350.00048828125
v -288.97418212890625 287.18426513671875 350.00048828125
v -288.97418212890625 287.18426513671875 340.0005187988281
v -232.39456176757812 230.6046600341797 340.00030517578125
v -288.97418212890625 287.18426513671875 350.00048828125
v -232.39456176757812 230.6046600341797 350.00030517578125
v -232.3945770263672 230.60467529296875 340.00030517578125
v -225.32667541503906 237.67257690429688 340.00030517578125
v -232.3945770263672 230.60467529296875 350.00030517578125
v -225.32667541503906 237.67257690429688 350.00030517578125
v -225.32667541503906 237.67257690429688 340.00030517578125
v -281.9062805175781 294.2521667480469 340.0005187988281
v -225.32667541503906 237.67257690429688 350.00030517578125
v -281.9062805175781 294.2521667480469 350.00048828125
v -281.9062805175781 294.2521667480469 340.0005187988281
v -225.32667541503906 237.67257690429688 340.00030517578125
v -288.97418212890625 287.18426513671875 340.0005187988281
v -232.3945770263672 230.60467529296875 340.00030517578125
v -281.9062805175781 294.2521667480469 350.00048828125
v -288.97418212890625 287.18426513671875 350.00048828125
v -225.32667541503906 237.67257690429688 350.0002746582031
v -232.3945770263672 230.60467529296875 350.0002746582031
v -281.9062805175781 294.25213623046875 125.00050354003906
v -288.97418212890625 287.1842346191406 125.00050354003906
v -281.9062805175781 294.25213623046875 135.00050354003906
v -288.97418212890625 287.1842346191406 135.00050354003906
v -288.9741516113281 287.1842346191406 125.00050354003906
v -232.39456176757812 230.60464477539062 125.00031280517578
v -288.97418212890625 287.1842346191406 135.00050354003906
v -232.39456176757812 230.60464477539062 135.00030517578125
v -232.39456176757812 230.60464477539062 125.00031280517578
v -225.32666015625 237.67254638671875 125.00031280517578
v -232.39456176757812 230.60464477539062 135.00030517578125
v -225.32666015625 237.67254638671875 135.00030517578125
v -225.32666015625 237.67254638671875 125.00031280517578
v -281.9062805175781 294.2521667480469 125.00050354003906
v -225.32666015625 237.67254638671875 135.00030517578125
v -281.9062805175781 294.2521667480469 135.00050354003906
v -281.9062805175781 294.25213623046875 125.00050354003906
v -225.32666015625 237.67254638671875 125.00031280517578
v -288.9741516113281 287.1842346191406 125.00050354003906
v -232.39456176757812 230.60464477539062 125.00031280517578
v -281.9062805175781 294.25213623046875 135.00050354003906
v -288.97418212890625 287.1842346191406 135.00050354003906
v -225.32666015625 237.67254638671875 135.00030517578125
v -232.39456176757812 230.60464477539062 135.00030517578125
v -281.90625 294.25213623046875 0.0013006178196519613
v -288.9741516113281 287.1842346191406 0.0013009269023314118
v -281.90625 294.25213623046875 10.001299858093262
v -288.9741516113281 287.1842346191406 10.001301765441895
v -288.9741516113281 287.1842346191406 0.0013009269023314118
v -232.39454650878906 230.60462951660156 0.0011083463905379176
v -288.9741516113281 287.1842346191406 10.001301765441895
v -232.39454650878906 230.60462951660156 10.001108169555664
v -232.39456176757812 230.60464477539062 0.0011083463905379176
v -225.32666015625 237.67254638671875 0.001108037424273789
v -232.39456176757812 230.60464477539062 10.001108169555664
v -225.32666015625 237.67254638671875 10.001107215881348
v -225.32666015625 237.67254638671875 0.001108037424273789
v -281.9062805175781 294.25213623046875 0.0013006178196519613
v -225.32666015625 237.67254638671875 10.001107215881348
v -281.9062805175781 294.25213623046875 10.001299858093262
v -281.90625 294.25213623046875 0.0013006178196519613
v -225.32666015625 237.67254638671875 0.001108037424273789
v -288.9741516113281 287.1842346191406 0.0013009269023314118
v -232.39456176757812 230.60464477539062 0.0011083463905379176
v -281.90625 294.25213623046875 10.001299858093262
v -288.9741516113281 287.1842346191406 10.001301765441895
v -225.32666015625 237.67254638671875 10.001107215881348
v -232.39456176757812 230.60464477539062 10.001108169555664
v -218.24658203125 230.60467529296875 340.0000915527344
v -225.31448364257812 223.536865234375 340.0000915527344
v -218.24658203125 230.60467529296875 350.0001220703125
v -225.31448364257812 223.536865234375 350.0001220703125
v -225.31448364257812 223.536865234375 340.0000915527344
v -76.82817077636719 75.06268310546875 339.9996643066406
v -225.31448364257812 223.536865234375 350.0001220703125
v -76.82817077636719 75.06268310546875 349.99969482421875
v -76.82817077636719 75.06268310546875 339.9996643066406
v -69.76026916503906 82.13056945800781 339.9996643066406
v -76.82817077636719 75.06268310546875 349.99969482421875
v -69.76026916503906 82.13056945800781 349.99969482421875
v -69.76026916503906 82.13056945800781 339.9996643066406
v -218.24655151367188 230.60464477539062 340.0000915527344
v -69.76026916503906 82.13056945800781 349.99969482421875
v -218.24655151367188 230.60464477539062 350.0001220703125
v -218.24658203125 230.60467529296875 340.0000915527344
v -69.76026916503906 82.13056945800781 339.9996643066406
v -225.31448364257812 223.536865234375 340.0000915527344
v -76.82817077636719 75.06268310546875 339.9996643066406
v -218.24658203125 230.60467529296875 350.0000915527344
v -225.31448364257812 223.536865234375 350.0000915527344
v -69.76026916503906 82.13056945800781 349.9996643066406
v -76.82817077636719 75.06268310546875 349.9996643066406
v -69.748046875 82.14274597167969 0.00012843481090385467
v -76.81594848632812 75.07485961914062 0.00012874376261606812
v -69.74806213378906 82.14277648925781 350.0001220703125
v -76.81596374511719 75.07489013671875 350.0001220703125
v -76.81594848632812 75.07485961914062 0.00012874376261606812
v -69.748046875 68.00706481933594 0.00012967058864887804
v -76.81596374511719 75.07489013671875 350.0001220703125
v -69.74806213378906 68.00709533691406 350.0001220703125
v -69.748046875 68.00706481933594 0.00012967058864887804
v -62.68016052246094 75.07485961914062 0.0001293616514885798
v -69.74806213378906 68.00709533691406 350.0001220703125
v -62.68017578125 75.07489013671875 350.0001220703125
v -62.68016052246094 75.07485961914062 0.0001293616514885798
v -69.748046875 82.14274597167969 0.00012843481090385467
v -62.68017578125 75.07489013671875 350.0001220703125
v -69.74806213378906 82.14277648925781 350.0001220703125
v -76.81596374511719 75.07489013671875 350.0001525878906
v -62.68017578125 75.07489013671875 350.0001525878906
v -69.74806213378906 82.14277648925781 350.0001525878906
v -69.74806213378906 68.00709533691406 350.0001525878906
v -62.68017578125 75.07498168945312 339.999267578125
v -69.74806213378906 68.00709533691406 339.999267578125
v -62.68017578125 75.07498168945312 349.9992370605469
v -69.74806213378906 68.00709533691406 349.9992370605469
v -69.74806213378906 68.00709533691406 339.999267578125
v -13.16851806640625 11.427459716796875 339.9993591308594
v -69.74806213378906 68.00709533691406 349.9992370605469
v -13.168487548828125 11.427490234375 349.9993591308594
v -13.16851806640625 11.427459716796875 339.9993591308594
v -6.1005859375 18.495391845703125 339.9993591308594
v -13.168487548828125 11.427490234375 349.9993591308594
v -6.100555419921875 18.49542236328125 349.9993591308594
v -6.1005859375 18.495391845703125 339.9993591308594
v -62.68017578125 75.07498168945312 339.999267578125
v -6.100555419921875 18.49542236328125 349.9993591308594
v -62.68017578125 75.07498168945312 349.9992370605469
v -62.68017578125 75.07498168945312 339.999267578125
v -6.1005859375 18.495391845703125 339.9993591308594
v -69.74806213378906 68.00709533691406 339.999267578125
v -13.16851806640625 11.427459716796875 339.9993591308594
v -62.68017578125 75.07498168945312 349.9992370605469
v -69.74806213378906 68.00709533691406 349.9992370605469
v -6.100555419921875 18.49542236328125 349.9993591308594
v -13.168487548828125 11.427490234375 349.9993591308594
v -6.100555419921875 18.495361328125 0.0002367811684962362
v -13.16845703125 11.427459716796875 0.00023709010565653443
v -6.100555419921875 18.49542236328125 350.0002136230469
v -13.16845703125 11.427520751953125 350.0002136230469
v -13.16845703125 11.427459716796875 0.00023709010565653443
v -6.100555419921875 4.347442626953125 0.00023801800853107125
v -13.16845703125 11.427520751953125 350.000244140625
v -6.100555419921875 4.347503662109375 350.000244140625
v -6.100555419921875 4.347442626953125 0.00023801800853107125
v 0.97955322265625 11.427459716796875 0.00023770853294990957
v -6.100555419921875 4.347503662109375 350.0002136230469
v 0.97955322265625 11.427520751953125 350.0002136230469
v 0.97955322265625 11.427459716796875 0.00023770853294990957
v -6.100555419921875 18.495361328125 0.0002367811684962362
v 0.97955322265625 11.427520751953125 350.0002136230469
v -6.100555419921875 18.49542236328125 350.0002136230469
v -13.16845703125 11.427520751953125 350.000244140625
v 0.97955322265625 11.427520751953125 350.000244140625
v -6.100555419921875 18.49542236328125 350.000244140625
v -6.100555419921875 4.347503662109375 350.000244140625
v -62.68017578125 75.074951171875 124.99922943115234
v -69.74806213378906 68.00706481933594 124.99923706054688
v -62.68017578125 75.074951171875 134.9992218017578
v -69.74806213378906 68.00706481933594 134.9992218017578
v -69.74806213378906 68.00706481933594 124.99923706054688
v -13.168487548828125 11.427459716796875 124.99932861328125
v -69.74806213378906 68.00706481933594 134.9992218017578
v -13.168487548828125 11.427459716796875 134.9993438720703
v -13.168487548828125 11.427459716796875 124.99932861328125
v -6.100555419921875 18.495391845703125 124.99932861328125
v -13.168487548828125 11.427459716796875 134.9993438720703
v -6.100555419921875 18.495391845703125 134.9993438720703
v -6.100555419921875 18.495391845703125 124.99932861328125
v -62.68017578125 75.074951171875 124.99922943115234
v -6.100555419921875 18.495391845703125 134.9993438720703
v -62.68017578125 75.074951171875 134.9992218017578
v -62.68017578125 75.074951171875 124.99922943115234
v -6.100555419921875 18.495391845703125 124.99932861328125
v -69.74806213378906 68.00706481933594 124.99923706054688
v -13.168487548828125 11.427459716796875 124.99932861328125
v -62.68017578125 75.074951171875 134.9992218017578
v -69.74806213378906 68.00706481933594 134.9992218017578
v -6.100555419921875 18.495391845703125 134.9993438720703
v -13.168487548828125 11.427459716796875 134.9993438720703
v -62.68016052246094 75.074951171875 0.0001293616514885798
v -69.748046875 68.00706481933594 0.00012967058864887804
v -62.68016052246094 75.074951171875 10.000128746032715
v -69.748046875 68.00706481933594 10.000130653381348
v -13.168487548828125 11.42742919921875 0.00023709010565653443
v -69.748046875 68.00706481933594 10.000130653381348
v -13.168487548828125 11.42742919921875 10.000237464904785
v -13.168487548828125 11.42742919921875 0.00023709010565653443
v -6.100555419921875 18.495361328125 0.0002367811684962362
v -13.168487548828125 11.42742919921875 10.000237464904785
v -6.100555419921875 18.495361328125 10.000237464904785
v -62.68016052246094 75.074951171875 0.0001293616514885798
v -6.100555419921875 18.495361328125 10.000237464904785
v -62.68016052246094 75.074951171875 10.000128746032715
v -62.68016052246094 75.074951171875 0.0001293616514885798
v -6.100555419921875 18.495361328125 0.0002367811684962362
v -69.748046875 68.00706481933594 0.00012967058864887804
v -13.168487548828125 11.42742919921875 0.00023709010565653443
v -62.68016052246094 75.074951171875 10.000128746032715
v -69.748046875 68.00706481933594 10.000130653381348
v -6.100555419921875 18.495361328125 10.000237464904785
v -13.168487548828125 11.42742919921875 10.000237464904785
v -6.11279296875 18.495391845703125 339.9998474121094
v -13.180694580078125 11.427490234375 339.9998474121094
v -6.112762451171875 18.49542236328125 349.9998474121094
v -13.1806640625 11.427520751953125 349.9998474121094
v -13.180694580078125 11.427490234375 339.9998474121094
v 227.26119995117188 -228.9410400390625 339.99932861328125
v -13.1806640625 11.427520751953125 349.9998474121094
v 227.26113891601562 -228.9410400390625 349.99932861328125
v 227.26126098632812 -228.9410400390625 339.99932861328125
v 234.34133911132812 -221.873291015625 339.9993591308594
v 227.26119995117188 -228.9410400390625 349.99932861328125
v 234.34127807617188 -221.873291015625 349.9993591308594
v 234.34133911132812 -221.873291015625 339.9993591308594
v -6.11279296875 18.495391845703125 339.9998474121094
v 234.34127807617188 -221.873291015625 349.9993591308594
v -6.112762451171875 18.49542236328125 349.9998474121094
v -6.11279296875 18.495391845703125 339.9998474121094
v 234.34133911132812 -221.873291015625 339.9993591308594
v -13.180694580078125 11.427490234375 339.9998474121094
v 227.26126098632812 -228.9410400390625 339.99932861328125
v -6.112762451171875 18.49542236328125 349.9998474121094
v -13.1806640625 11.427520751953125 349.9998474121094
v 234.34127807617188 -221.873291015625 349.9993591308594
v 227.26119995117188 -228.9410400390625 349.99932861328125
v 234.31692504882812 -221.89776611328125 0.0009683058597147465
v 227.24905395507812 -228.96563720703125 0.0009686148259788752
v 234.31686401367188 -221.897705078125 350.0009765625
v 227.24899291992188 -228.965576171875 350.0009460449219
v 227.24905395507812 -228.96563720703125 0.0009686148259788752
v 234.31692504882812 -236.033447265625 0.0009695416665636003
v 227.24899291992188 -228.965576171875 350.0009460449219
v 234.31686401367188 -236.03338623046875 350.0010070800781
v 234.31692504882812 -236.033447265625 0.0009695416665636003
v 241.37265014648438 -228.96563720703125 0.0009692321764305234
v 234.31686401367188 -236.03338623046875 350.0009460449219
v 241.37258911132812 -228.965576171875 350.00091552734375
v 241.37265014648438 -228.96563720703125 0.0009692321764305234
v 234.31692504882812 -221.89776611328125 0.0009683058597147465
v 241.37258911132812 -228.965576171875 350.00091552734375
v 234.31686401367188 -221.897705078125 350.00091552734375
v 227.24899291992188 -228.965576171875 350.0009460449219
v 241.37258911132812 -228.965576171875 350.0009765625
v 234.31686401367188 -221.897705078125 350.0009765625
v 234.31686401367188 -236.03338623046875 350.0010070800781
v -6.11279296875 18.495391845703125 240.00006103515625
v -13.180694580078125 11.427490234375 240.00006103515625
v -6.11279296875 18.495391845703125 250.0000457763672
v -13.180694580078125 11.427490234375 250.0000457763672
v -13.180694580078125 11.427490234375 240.00006103515625
v 227.26119995117188 -228.9410400390625 239.99949645996094
v -13.180694580078125 11.427490234375 250.0000457763672
v 227.26119995117188 -228.9410400390625 249.99948120117188
v 227.26126098632812 -228.9410400390625 239.99949645996094
v 234.34133911132812 -221.873291015625 239.99949645996094
v 227.26126098632812 -228.9410400390625 249.99948120117188
v 234.34133911132812 -221.873291015625 249.99948120117188
v 234.34133911132812 -221.873291015625 239.99949645996094
v -6.11279296875 18.495391845703125 240.00006103515625
v 234.34133911132812 -221.873291015625 249.99948120117188
v -6.11279296875 18.495391845703125 250.0000457763672
v -6.11279296875 18.495391845703125 240.00006103515625
v 234.34133911132812 -221.873291015625 239.99949645996094
v -13.180694580078125 11.427490234375 240.00006103515625
v 227.26126098632812 -228.9410400390625 239.99949645996094
v -6.11279296875 18.495391845703125 250.0000457763672
v -13.180694580078125 11.427490234375 250.0000457763672
v 234.34133911132812 -221.873291015625 249.99948120117188
v 227.26126098632812 -228.9410400390625 249.99948120117188
v -6.112762451171875 18.495391845703125 125.00023651123047
v -13.1806640625 11.427490234375 125.00023651123047
v -6.112762451171875 18.495391845703125 135.000244140625
v -13.1806640625 11.427490234375 135.000244140625
v -13.1806640625 11.427490234375 125.00023651123047
v 227.26119995117188 -228.94110107421875 124.99977111816406
v -13.1806640625 11.427490234375 135.000244140625
v 227.26119995117188 -228.94110107421875 134.99978637695312
v 227.26126098632812 -228.94110107421875 124.99977111816406
v 234.34133911132812 -221.87335205078125 124.99977111816406
v 227.26126098632812 -228.94110107421875 134.99978637695312
v 234.34133911132812 -221.87335205078125 134.99978637695312
v 234.34133911132812 -221.87335205078125 124.99977111816406
v -6.112762451171875 18.495391845703125 125.00023651123047
v 234.34133911132812 -221.87335205078125 134.99978637695312
v -6.112762451171875 18.495391845703125 135.000244140625
v -6.112762451171875 18.495391845703125 125.00023651123047
v 234.34133911132812 -221.87335205078125 124.99977111816406
v -13.1806640625 11.427490234375 125.00023651123047
v 227.26126098632812 -228.94110107421875 124.99977111816406
v -6.112762451171875 18.495391845703125 135.000244140625
v -13.1806640625 11.427490234375 135.000244140625
v 234.34133911132812 -221.87335205078125 134.99978637695312
v 227.26126098632812 -228.94110107421875 134.99978637695312
v -76.876953125 75.06265258789062 -0.0009712578030303121
v -78.52485656738281 73.42695617675781 -0.001171186799183488
v -76.876953125 75.06266784667969 244.9990234375
v -78.52485656738281 73.42697143554688 244.9988250732422
v -78.52485656738281 73.42695617675781 -0.001171186799183488
v -7.760772705078125 2.6749267578125 -0.0010619084350764751
v -78.52485656738281 73.42697143554688 244.998779296875
v -7.76080322265625 2.674957275390625 244.9989013671875
v -7.760772705078125 2.6749267578125 -0.0010619084350764751
v -6.100555419921875 4.32293701171875 -0.0008619797881692648
v -7.76080322265625 2.674957275390625 244.9989471435547
v -6.1005859375 4.322967529296875 244.9991455078125
v -6.100555419921875 4.32293701171875 -0.0008619797881692648
v -76.876953125 75.06265258789062 -0.0009712578030303121
v -6.1005859375 4.322967529296875 244.9990997314453
v -76.876953125 75.06266784667969 244.9989776611328
v -76.876953125 75.06266784667969 244.9990234375
v -78.52485656738281 73.42697143554688 244.9988250732422
v -6.1005859375 4.322967529296875 244.9991455078125
v -7.76080322265625 2.674957275390625 244.9989471435547
v 152.4931640625 -142.58865356445312 -0.00044220409472472966
v 147.92779541015625 -147.16622924804688 -0.0004420034820213914
v 152.4931640625 -142.588623046875 349.9995422363281
v 147.92779541015625 -147.16619873046875 349.9995422363281
v 147.92779541015625 -147.16622924804688 -0.0004420034820213914
v 154.99566650390625 -154.24636840820312 -0.0004410755354911089
v 147.92779541015625 -147.16619873046875 349.9995422363281
v 154.99566650390625 -154.246337890625 349.9995422363281
v 154.99566650390625 -154.24636840820312 -0.0004410755354911089
v 159.57330322265625 -149.65658569335938 -0.00044127670116722584
v 154.99566650390625 -154.246337890625 349.9995422363281
v 159.57330322265625 -149.65655517578125 349.9995422363281
v 159.57330322265625 -149.65658569335938 -0.00044127670116722584
v 152.4931640625 -142.58865356445312 -0.00044220409472472966
v 159.57330322265625 -149.65655517578125 349.9994812011719
v 152.4931640625 -142.588623046875 349.9994812011719
v 152.4931640625 -142.588623046875 349.9995422363281
v 147.92779541015625 -147.16619873046875 349.9995422363281
v 159.57330322265625 -149.65655517578125 349.9995422363281
v 154.99566650390625 -154.246337890625 349.9995422363281
v -296.0907897949219 294.2521667480469 245.0003204345703
v -297.7265625 292.6164245605469 245.00010681152344
v -296.0907897949219 294.2521667480469 350.0002746582031
v -297.7265625 292.616455078125 350.00006103515625
v -297.7265625 292.6164245605469 245.00010681152344
v -7.78521728515625 2.711700439453125 244.9995574951172
v -297.7265625 292.616455078125 350.0000915527344
v -7.785186767578125 2.71173095703125 349.99957275390625
v -7.78521728515625 2.711669921875 244.9995574951172
v -6.13720703125 4.359649658203125 244.99974060058594
v -7.785186767578125 2.711700439453125 349.99957275390625
v -6.137176513671875 4.35968017578125 349.9997863769531
v -6.13720703125 4.359649658203125 244.99974060058594
v -296.0907897949219 294.25213623046875 245.0003204345703
v -6.137176513671875 4.35968017578125 349.9997863769531
v -296.0907897949219 294.25213623046875 350.0002746582031
v -296.0907897949219 294.2521667480469 350.00030517578125
v -297.7265625 292.616455078125 350.0000915527344
v -6.137176513671875 4.35968017578125 349.999755859375
v -7.785186767578125 2.711700439453125 349.99957275390625
v -296.26165771484375 294.08123779296875 5.33716004724738e-09
v -297.9095764160156 292.4455261230469 -0.0001999236992560327
v -296.26165771484375 294.0812683105469 245.0
v -297.9095764160156 292.445556640625 244.99981689453125
v -297.9095764160156 292.4455261230469 -0.0001999236992560327
v -226.98675537109375 221.52264404296875 -0.0004906232352368534
v -297.9095764160156 292.445556640625 244.99981689453125
v -226.98678588867188 221.5226593017578 244.99951171875
v -226.98675537109375 221.52264404296875 -0.0004906232352368534
v -225.33877563476562 223.17062377929688 -0.00029069531592540443
v -226.98678588867188 221.5226593017578 244.99951171875
v -225.33877563476562 223.170654296875 244.99972534179688
v -225.33877563476562 223.17062377929688 -0.00029069531592540443
v -296.26165771484375 294.08123779296875 5.3606790118010395e-09
v -225.33877563476562 223.170654296875 244.99972534179688
v -296.26165771484375 294.08123779296875 245.0
v -296.26165771484375 294.0812683105469 245.0
v -297.9095764160156 292.445556640625 244.99981689453125
v -225.33877563476562 223.170654296875 244.99972534179688
v -226.98678588867188 221.5226593017578 244.99951171875
v -218.252685546875 230.60916137695312 240.0002899169922
v -225.32058715820312 223.54135131835938 240.0002899169922
v -218.252685546875 230.60916137695312 250.00030517578125
v -225.32058715820312 223.54135131835938 250.00030517578125
v -225.32058715820312 223.54135131835938 240.0002899169922
v -76.83425903320312 75.06716918945312 239.99981689453125
v -225.32058715820312 223.54135131835938 250.00030517578125
v -76.83425903320312 75.06716918945312 249.9998321533203
v -76.83425903320312 75.06716918945312 239.99981689453125
v -69.766357421875 82.13507080078125 239.99981689453125
v -76.83425903320312 75.06716918945312 249.9998321533203
v -69.766357421875 82.13507080078125 249.9998321533203
v -69.766357421875 82.13507080078125 239.99981689453125
v -218.25265502929688 230.609130859375 240.0002899169922
v -69.766357421875 82.13507080078125 249.9998321533203
v -218.25265502929688 230.609130859375 250.00030517578125
v -218.252685546875 230.60916137695312 240.0002899169922
v -69.766357421875 82.13507080078125 239.99981689453125
v -225.32058715820312 223.54135131835938 240.0002899169922
v -76.83425903320312 75.06716918945312 239.99981689453125
v -218.252685546875 230.60916137695312 250.0002899169922
v -225.32058715820312 223.54135131835938 250.0002899169922
v -69.766357421875 82.13507080078125 249.9998016357422
v -76.83425903320312 75.06716918945312 249.9998016357422
v -288.98016357421875 301.3244323730469 0.0012996903387829661
v -296.0480651855469 294.25653076171875 0.0012999993050470948
v -288.98016357421875 301.324462890625 350.0012512207031
v -296.0480651855469 294.2565612792969 350.0012512207031
v -296.0480651855469 294.25653076171875 0.0012999993050470948
v -288.98016357421875 287.188720703125 0.0013009262038394809
v -296.0480651855469 294.2565612792969 350.0012512207031
v -288.98016357421875 287.18878173828125 350.0012512207031
v -288.98016357421875 287.188720703125 0.0013009262038394809
v -281.9122619628906 294.25653076171875 0.001300617353990674
v -288.98016357421875 287.18878173828125 350.0012512207031
v -281.9122619628906 294.2565612792969 350.0012512207031
v -281.9122619628906 294.25653076171875 0.001300617353990674
v -288.98016357421875 301.3244323730469 0.0012996903387829661
v -281.9122619628906 294.2565612792969 350.0012512207031
v -288.98016357421875 301.324462890625 350.0012512207031
v -296.0480651855469 294.2565612792969 350.0013122558594
v -281.9122619628906 294.2565612792969 350.0013122558594
v -288.98016357421875 301.324462890625 350.0013122558594
v -288.98016357421875 287.18878173828125 350.0013122558594
v -225.33267211914062 237.67694091796875 0.001108036725781858
v -232.4005584716797 230.609130859375 0.0011083456920459867
v -225.33267211914062 237.67697143554688 350.00103759765625
v -232.40057373046875 230.60916137695312 350.00103759765625
v -232.4005584716797 230.609130859375 0.0011083456920459867
v -225.33267211914062 223.52902221679688 0.0011092736385762691
v -232.40057373046875 230.60916137695312 350.0010986328125
v -225.33267211914062 223.529052734375 350.0010986328125
v -225.33267211914062 223.52902221679688 0.0011092736385762691
v -218.2525634765625 230.609130859375 0.0011089639738202095
v -225.33267211914062 223.529052734375 350.0010986328125
v -218.25257873535156 230.60916137695312 350.0010986328125
v -218.2525634765625 230.609130859375 0.0011089639738202095
v -225.33267211914062 237.67694091796875 0.001108036725781858
v -218.25257873535156 230.60916137695312 350.00103759765625
v -225.33267211914062 237.67697143554688 350.00103759765625
v -232.40057373046875 230.60916137695312 350.0010986328125
v -218.25257873535156 230.60916137695312 350.0010986328125
v -225.33267211914062 237.67697143554688 350.0010986328125
v -225.33267211914062 223.529052734375 350.0010986328125
v -281.9122619628906 294.2565612792969 240.00050354003906
v -288.98016357421875 287.18865966796875 240.00050354003906
v -281.9122619628906 294.2565612792969 250.00050354003906
v -288.98016357421875 287.18865966796875 250.00050354003906
v -288.98016357421875 287.18865966796875 240.00050354003906
v -232.40057373046875 230.6090545654297 240.0002899169922
v -288.98016357421875 287.18865966796875 250.00050354003906
v -232.40057373046875 230.6090545654297 250.00030517578125
v -232.40057373046875 230.6090545654297 240.0002899169922
v -225.33267211914062 237.6769561767578 240.0002899169922
v -232.40057373046875 230.6090545654297 250.00030517578125
v -225.33267211914062 237.6769561767578 250.00030517578125
v -225.33267211914062 237.6769561767578 240.0002899169922
v -281.91229248046875 294.2565612792969 240.00050354003906
v -225.33267211914062 237.6769561767578 250.00030517578125
v -281.91229248046875 294.2565612792969 250.00050354003906
v -281.9122619628906 294.2565612792969 240.00050354003906
v -225.33267211914062 237.6769561767578 240.0002899169922
v -288.98016357421875 287.18865966796875 240.00050354003906
v -232.40057373046875 230.6090545654297 240.0002899169922
v -281.9122619628906 294.2565612792969 250.00050354003906
v -288.98016357421875 287.18865966796875 250.00050354003906
v -225.33267211914062 237.6769561767578 250.0002899169922
v -232.40057373046875 230.6090545654297 250.0002899169922
v -62.68626403808594 75.07936096191406 239.9992218017578
v -69.754150390625 68.01145935058594 239.9992218017578
v -62.68626403808594 75.07936096191406 249.99920654296875
v -69.754150390625 68.01145935058594 249.99920654296875
v -69.754150390625 68.01145935058594 239.9992218017578
v -13.17462158203125 11.431854248046875 239.9993438720703
v -69.754150390625 68.01145935058594 249.99920654296875
v -13.17462158203125 11.431854248046875 249.99935913085938
v -13.17462158203125 11.431854248046875 239.9993438720703
v -6.106689453125 18.499755859375 239.9993438720703
v -13.17462158203125 11.431854248046875 249.99935913085938
v -6.106689453125 18.499755859375 249.99935913085938
v -6.106689453125 18.499755859375 239.9993438720703
v -62.68626403808594 75.07936096191406 239.9992218017578
v -6.106689453125 18.499755859375 249.99935913085938
v -62.68626403808594 75.07936096191406 249.99920654296875
v -62.68626403808594 75.07936096191406 239.9992218017578
v -6.106689453125 18.499755859375 239.9993438720703
v -69.754150390625 68.01145935058594 239.9992218017578
v -13.17462158203125 11.431854248046875 239.9993438720703
v -62.68626403808594 75.07936096191406 249.99920654296875
v -69.754150390625 68.01145935058594 249.99920654296875
v -6.106689453125 18.499755859375 249.99932861328125
v -13.17462158203125 11.431854248046875 249.99932861328125
v -6.118865966796875 18.499725341796875 0.00023677997523918748
v -13.186767578125 11.431854248046875 0.00023708892695140094
v -6.118865966796875 18.499725341796875 10.000237464904785
v -13.186767578125 11.431854248046875 10.000237464904785
v -13.186767578125 11.431854248046875 0.00023708892695140094
v 227.27944946289062 -228.924560546875 -0.00033138738945126534
v -13.186767578125 11.431854248046875 10.000237464904785
v 227.27944946289062 -228.924560546875 9.999669075012207
v 227.27951049804688 -228.924560546875 -0.00033138738945126534
v 234.33523559570312 -221.856689453125 -0.0003316968504805118
v 227.27951049804688 -228.924560546875 9.999669075012207
v 234.33523559570312 -221.856689453125 9.999669075012207
v 234.33523559570312 -221.856689453125 -0.0003316968504805118
v -6.118865966796875 18.499725341796875 0.00023677997523918748
v 234.33523559570312 -221.856689453125 9.999669075012207
v -6.118865966796875 18.499725341796875 10.000237464904785
v -6.118865966796875 18.499725341796875 0.00023677997523918748
v 234.33523559570312 -221.856689453125 -0.0003316968504805118
v -13.186767578125 11.431854248046875 0.00023708892695140094
v 227.27951049804688 -228.924560546875 -0.00033138738945126534
v -6.118865966796875 18.499725341796875 10.000237464904785
v -13.186767578125 11.431854248046875 10.000237464904785
v 234.33523559570312 -221.856689453125 9.999669075012207
v 227.27951049804688 -228.924560546875 9.999669075012207
v 92.7886962890625 -94.59066772460938 -0.00034900993341580033
v 91.14077758789062 -96.22634887695312 -0.0005489389877766371
v 92.7886962890625 -94.59063720703125 349.99957275390625
v 91.14077758789062 -96.226318359375 349.9993591308594
v 91.14077758789062 -96.22634887695312 -0.000548939045984298
v 296.2494201660156 -301.324462890625 -0.0004220430855639279
v 91.14077758789062 -96.226318359375 349.9994201660156
v 296.2493591308594 -301.32440185546875 349.9996032714844
v 296.2494201660156 -301.32440185546875 -0.00042204311466775835
v 297.9095764160156 -299.6763916015625 -0.0002221146714873612
v 296.2493591308594 -301.3243408203125 349.9996032714844
v 297.9095153808594 -299.67633056640625 349.9997863769531
v 297.9095764160156 -299.6763916015625 -0.0002221146714873612
v 92.7886962890625 -94.59066772460938 -0.00034900993341580033
v 297.9095153808594 -299.67633056640625 349.9997863769531
v 92.7886962890625 -94.59063720703125 349.9996337890625
v 92.7886962890625 -94.59063720703125 349.9996337890625
v 91.14077758789062 -96.226318359375 349.9994201660156
v 297.9095153808594 -299.67633056640625 349.9997863769531
v 296.2493591308594 -301.3243408203125 349.9996032714844
f 2 1 3
f 4 2 3
f 18 17 19
f 19 20 18
f 14 13 15
f 16 14 15
f 10 9 11
f 12 10 11
f 6 5 7
f 8 6 7
f 514 513 515
f 515 516 514
f 510 509 511
f 511 512 510
f 506 505 507
f 508 506 507
f 502 501 503
f 504 502 503
f 498 497 499
f 500 498 499
f 494 493 495
f 496 494 495
f 490 489 491
f 491 492 490
f 486 485 487
f 487 488 486
f 482 481 483
f 484 482 483
f 478 477 479
f 480 478 479
f 474 473 475
f 476 474 475
f 470 469 471
f 472 470 471
f 466 465 467
f 467 468 466
f 462 461 463
f 463 464 462
f 458 457 459
f 460 458 459
f 454 453 455
f 456 454 455
f 450 449 451
f 452 450 451
f 446 445 447
f 448 446 447
f 442 444 441
f 442 441 443
f 438 437 439
f 440 438 439
f 434 433 435
f 436 434 435
f 430 429 431
f 432 430 431
f 426 425 427
f 428 426 427
f 422 424 421
f 422 421 423
f 418 417 419
f 420 418 419
f 414 413 415
f 416 414 415
f 410 409 411
f 412 410 411
f 406 405 407
f 408 406 407
f 402 401 403
f 403 404 402
f 398 397 399
f 399 400 398
f 394 393 395
f 396 394 395
f 390 389 391
f 392 390 391
f 386 385 387
f 388 386 387
f 382 381 383
f 384 382 383
f 338 337 339
f 339 340 338
f 334 333 335
f 336 334 335
f 330 329 331
f 332 330 331
f 326 325 327
f 328 326 327
f 322 321 323
f 324 322 323
f 298 297 299
f 299 300 298
f 294 293 295
f 295 296 294
f 290 289 291
f 292 290 291
f 286 285 287
f 288 286 287
f 282 281 283
f 284 282 283
f 278 277 279
f 280 278 279
f 274 273 275
f 275 276 274
f 270 269 271
f 271 272 270
f 266 265 267
f 268 266 267
f 262 261 263
f 264 262 263
f 258 257 259
f 260 258 259
f 254 253 255
f 256 254 255
f 250 252 249
f 250 249 251
f 246 245 247
f 248 246 247
f 242 241 243
f 244 242 243
f 238 237 239
f 240 238 239
f 234 233 235
f 236 234 235
f 230 229 231
f 231 232 230
f 226 225 227
f 227 228 226
f 222 221 223
f 224 222 223
f 218 217 219
f 220 218 219
f 214 213 215
f 216 214 215
f 210 209 211
f 212 210 211
f 206 205 207
f 207 208 206
f 202 201 203
f 203 204 202
f 198 197 199
f 200 198 199
f 194 193 195
f 196 194 195
f 190 189 191
f 192 190 191
f 186 185 187
f 188 186 187
f 182 181 183
f 183 184 182
f 178 177 179
f 179 180 178
f 174 173 175
f 176 174 175
f 170 169 171
f 172 170 171
f 166 165 167
f 168 166 167
f 162 161 163
f 164 162 163
f 158 160 157
f 158 157 159
f 154 153 155
f 156 154 155
f 150 149 151
f 152 150 151
f 146 145 147
f 148 146 147
f 142 141 143
f 144 142 143
f 138 137 139
f 139 140 138
f 134 133 135
f 135 136 134
f 130 129 131
f 132 130 131
f 126 125 127
f 128 126 127
f 122 121 123
f 124 122 123
f 118 117 119
f 120 118 119
f 114 116 113
f 114 113 115
f 110 109 111
f 112 110 111
f 106 105 107
f 108 106 107
f 102 101 103
f 104 102 103
f 98 97 99
f 100 98 99
f 94 93 95
f 95 96 94
f 90 89 91
f 91 92 90
f 86 85 87
f 88 86 87
f 82 81 83
f 84 82 83
f 78 77 79
f 80 78 79
f 74 73 75
f 76 74 75
f 70 69 71
f 71 72 70
f 66 65 67
f 67 68 66
f 62 61 63
f 64 62 63
f 58 57 59
f 60 58 59
f 54 53 55
f 56 54 55
f 50 49 51
f 52 50 51
f 46 45 47
f 47 48 46
f 42 41 43
f 43 44 42
f 38 37 39
f 40 38 39
f 34 33 35
f 36 34 35
f 30 29 31
f 32 30 31
f 26 25 27
f 28 26 27
f 23 24 22
f 22 21 23
f 302 301 303
f 304 302 303
f 534 533 535
f 535 536 534
f 530 529 531
f 532 530 531
f 526 525 527
f 528 526 527
f 522 521 523
f 524 522 523
f 518 517 519
f 520 518 519
f 378 377 379
f 379 380 378
f 374 373 375
f 376 374 375
f 370 369 371
f 372 370 371
f 366 365 367
f 368 366 367
f 362 361 363
f 364 362 363
f 358 357 359
f 359 360 358
f 354 353 355
f 356 354 355
f 350 349 351
f 352 350 351
f 346 345 347
f 348 346 347
f 342 341 343
f 344 342 343
f 318 317 319
f 319 320 318
f 314 313 315
f 316 314 315
f 310 309 311
f 312 310 311
f 306 305 307
f 308 306 307
