v 24.19632339477539 -12.539624214172363 -24.249696731567383
v -29.50677490234375 41.197383880615234 -24.249717712402344
v -37.601219177246094 49.291831970214844 -22.926427841186523
v -44.90620803833008 56.59681701660156 -19.111848831176758
v -51.57577896118164 63.266380310058594 -12.905290603637695
v -57.85877990722656 69.54940032958984 -3.2894933223724365
v -61.03139114379883 72.72200775146484 6.707610607147217
v -62.17277526855469 73.86338806152344 19.55447006225586
v -62.17277908325195 73.86339569091797 79.83782958984375
v -60.345001220703125 72.0356216430664 100.18782806396484
v -55.3560791015625 67.04669952392578 114.17212677001953
v -45.83785629272461 57.528472900390625 124.99237823486328
v -37.940269470214844 49.63088607788086 129.0872344970703
v -26.876508712768555 38.56712341308594 131.73455810546875
v -12.850265502929688 24.540882110595703 132.64340209960938
v 80.88491821289062 -69.15009307861328 132.64340209960938
v 80.88492584228516 -69.1501235961914 -132.643310546875
v 57.368934631347656 -45.71419143676758 3.639502763748169
v 57.36893081665039 -45.71417999267578 103.56468963623047
v -9.537818908691406 21.19257164001465 103.56465911865234
v -27.41733169555664 39.072086334228516 101.35543060302734
v -40.347599029541016 52.00235366821289 93.36713409423828
v -46.29644012451172 57.95119094848633 74.9906997680664
v -46.29643249511719 57.95118713378906 32.730796813964844
v -45.02606964111328 56.680824279785156 22.067920684814453
v -41.28850555419922 52.94325256347656 13.409480094909668
v -36.89659118652344 48.55133819580078 8.575640678405762
v -33.404502868652344 45.05925369262695 6.048762321472168
v -29.94446563720703 41.59921646118164 4.546865463256836
v 57.36894607543945 -45.714202880859375 -132.643310546875
v 57.36893844604492 -45.71419143676758 -14.488334655761719
v -26.649309158325195 38.30406188964844 4.070202350616455
v -20.47261619567871 32.41447067260742 -132.64332580566406
v -47.45554733276367 59.39935302734375 -132.64332580566406
v -34.34800720214844 46.00276184082031 23.82952308654785
v -31.717647552490234 43.37240219116211 21.926170349121094
v -29.082263946533203 40.73701477050781 20.782264709472656
v -26.42425537109375 38.07900619506836 20.397764205932617
v 50.36064529418945 -38.705902099609375 20.00412940979004
v 50.36064147949219 -38.70589065551758 87.23599243164062
v -9.352116584777832 21.006868362426758 87.23597717285156
v -26.322063446044922 37.9768180847168 85.13916015625
v -36.21058654785156 47.86534118652344 79.030029296875
v -39.28814697265625 50.94290542602539 69.52326965332031
v -39.288143157958984 50.942893981933594 34.95491409301758
v -38.7692985534668 50.42405319213867 30.599763870239258
v -37.203338623046875 48.85809326171875 26.972166061401367
v -18.69919204711914 30.641050338745117 -148.97198486328125
v -75.62954711914062 87.57335662841797 -148.97201538085938
v -3.9776008129119873 15.634300231933594 -40.57838439941406
v -29.752254486083984 41.44286346435547 -40.57838821411133
v -38.6186408996582 50.30925369262695 -39.1289176940918
v -46.985511779785156 58.67612075805664 -34.759822845458984
v -54.83219528198242 66.52281188964844 -27.457834243774414
v -62.75100326538086 74.44161987304688 -15.338582038879395
v -67.58203125 79.27264404296875 -0.1155676394701004
v -69.18114471435547 80.87175750732422 17.88210105895996
v -69.18114471435547 80.87176513671875 81.528076171875
v -66.84796142578125 78.53857421875 107.5045394897461
v -59.782875061035156 71.47349548339844 127.308349609375
v -48.16767501831055 59.8582878112793 140.51248168945312
v -39.063262939453125 50.753883361816406 145.2330322265625
v -27.33266830444336 39.023284912109375 148.0399627685547
v -12.947672843933105 24.638288497924805 148.97210693359375
v 87.89320373535156 -76.15837097167969 148.97207641601562
v 87.89322662353516 -76.15840911865234 -148.9719696044922
v 50.36065673828125 -38.70591354370117 -148.9720001220703
v 50.36064910888672 -38.70590591430664 -41.8798828125
v -31.717647552490234 43.37240219116211 21.926170349121094
v -34.34800720214844 46.00276184082031 23.82952308654785
v -46.00155258178711 34.34920883178711 23.829509735107422
v -43.37119674682617 31.718852996826172 21.926158905029297
v -29.082263946533203 40.73701477050781 20.782264709472656
v -40.73581314086914 29.083465576171875 20.78225326538086
v -75.62954711914062 87.57335662841797 -148.97201538085938
v -18.69919204711914 30.641050338745117 -148.97198486328125
v -30.352741241455078 18.987503051757812 -148.9720001220703
v -87.28309631347656 75.91980743408203 -148.9720001220703
v -3.9776008129119873 15.634300231933594 -40.57838439941406
v -75.62954711914062 87.57335662841797 -148.97201538085938
v -87.28309631347656 75.91980743408203 -148.9720001220703
v -15.631144523620605 3.9807543754577637 -40.57838439941406
v 50.36064910888672 -38.70590591430664 -41.8798828125
v 38.70710372924805 -50.35945510864258 -41.879905700683594
v -26.42425537109375 38.07900619506836 20.397764205932617
v -38.07780456542969 26.425460815429688 20.39775276184082
v -29.752254486083984 41.44286346435547 -40.57838821411133
v -3.9776008129119873 15.634300231933594 -40.57838439941406
v -15.631144523620605 3.9807543754577637 -40.57838439941406
v -41.40580368041992 29.789316177368164 -40.57839584350586
v 50.36064529418945 -38.705902099609375 20.00412940979004
v 38.70709991455078 -50.35945129394531 20.004114151000977
v -38.6186408996582 50.30925369262695 -39.1289176940918
v -50.27219009399414 38.655704498291016 -39.12892150878906
v -46.985511779785156 58.67612075805664 -34.759822845458984
v -58.63905715942383 47.02257537841797 -34.75983428955078
v -54.83219528198242 66.52281188964844 -27.457834243774414
v -66.48574829101562 54.8692626953125 -27.45785140991211
v -37.203338623046875 48.85809326171875 26.972166061401367
v -48.856807708740234 37.204463958740234 26.972150802612305
v -62.75100326538086 74.44161987304688 -15.338582038879395
v -74.404541015625 62.78806686401367 -15.338581085205078
v -38.7692985534668 50.42405319213867 30.599763870239258
v -50.4228515625 38.770503997802734 30.599763870239258
v -67.58203125 79.27264404296875 -0.1155676394701004
v -79.23558044433594 67.61909484863281 -0.115567646920681
v -69.18114471435547 80.87175750732422 17.88210105895996
v -80.83468627929688 69.21820831298828 17.8820858001709
v -69.18114471435547 80.87176513671875 81.528076171875
v -80.8346939086914 69.21821594238281 81.52804565429688
v -39.288143157958984 50.942893981933594 34.95491409301758
v -50.94169235229492 39.28934860229492 34.95489501953125
v -39.28814697265625 50.94290542602539 69.52326965332031
v -50.94169235229492 39.28935241699219 69.52327728271484
v -66.84796142578125 78.53857421875 107.5045394897461
v -78.50150299072266 66.8850326538086 107.5045394897461
v -59.782875061035156 71.47349548339844 127.308349609375
v -71.43640899658203 59.8199462890625 127.308349609375
v -36.21058654785156 47.86534118652344 79.030029296875
v -47.864131927490234 36.2117919921875 79.03003692626953
v -48.16767501831055 59.8582878112793 140.51248168945312
v -59.821136474609375 48.20466232299805 140.51243591308594
v -39.063262939453125 50.753883361816406 145.2330322265625
v -50.71681213378906 39.10033416748047 145.23300170898438
v -26.322063446044922 37.9768180847168 85.13916015625
v -37.975608825683594 26.323270797729492 85.13914489746094
v -27.33266830444336 39.023284912109375 148.0399627685547
v -38.98621368408203 27.36973762512207 148.0399627685547
v -9.352116584777832 21.006868362426758 87.23597717285156
v -21.005661010742188 9.35332202911377 87.23595428466797
v -12.947672843933105 24.638288497924805 148.97210693359375
v -24.601221084594727 12.984745979309082 148.97207641601562
v 50.36064147949219 -38.70589065551758 87.23599243164062
v 38.707096099853516 -50.359439849853516 87.23599243164062
v 87.89320373535156 -76.15837097167969 148.97207641601562
v 76.23966217041016 -87.81192779541016 148.97206115722656
v 87.89322662353516 -76.15840911865234 -148.9719696044922
v 87.89320373535156 -76.15837097167969 148.97207641601562
v 76.23966217041016 -87.81192779541016 148.97206115722656
v 76.23967742919922 -87.81196594238281 -148.97195434570312
v 50.36064147949219 -38.70589065551758 87.23599243164062
v 50.36064529418945 -38.705902099609375 20.00412940979004
v 38.70709991455078 -50.35945129394531 20.004114151000977
v 38.707096099853516 -50.359439849853516 87.23599243164062
v 50.36064910888672 -38.70590591430664 -41.8798828125
v 50.36065673828125 -38.70591354370117 -148.9720001220703
v 38.70710754394531 -50.35947036743164 -148.9720001220703
v 38.70710372924805 -50.35945510864258 -41.879905700683594
v 50.36065673828125 -38.70591354370117 -148.9720001220703
v 87.89322662353516 -76.15840911865234 -148.9719696044922
v 76.23967742919922 -87.81196594238281 -148.97195434570312
v 38.70710754394531 -50.35947036743164 -148.9720001220703
v 94.2137680053711 -109.1876449584961 -133.47146606445312
v 88.5569076538086 -114.8445053100586 -133.4714813232422
v -109.67283630371094 83.67024993896484 -133.4715118408203
v -104.01598358154297 89.32710266113281 -133.47152709960938
v 88.5569076538086 -114.84449768066406 -119.61506652832031
v 94.2137680053711 -109.18763732910156 -119.61506652832031
v -104.01580047607422 89.32693481445312 -119.61512756347656
v -109.67265319824219 83.67008209228516 -119.61512756347656
v 97.04218292236328 -106.35922241210938 -126.54326629638672
v -101.18755340576172 92.1555404663086 -126.54331970214844
v 95.5367431640625 -113.71952056884766 -123.54505920410156
v 93.08879852294922 -116.16747283935547 -123.54505920410156
v 91.86482238769531 -117.39144134521484 -126.54326629638672
v 93.08879852294922 -116.16747283935547 -129.5414581298828
v 95.5367431640625 -113.71952056884766 -129.5414581298828
v 96.76071166992188 -112.49555206298828 -126.54326629638672
v -110.99571990966797 88.20205688476562 -129.54148864746094
v -112.2198715209961 86.97791290283203 -126.54329681396484
v -110.99571990966797 88.20205688476562 -123.54508972167969
v -108.54776763916016 90.6500015258789 -123.54508972167969
v -107.32379913330078 91.87397003173828 -126.54329681396484
v -108.54776763916016 90.6500015258789 -129.54148864746094
v 94.2144775390625 -109.18732452392578 112.69467163085938
v 88.55762481689453 -114.84417724609375 112.69467163085938
v -109.8636474609375 83.57569122314453 112.6946029663086
v -104.20679473876953 89.2325439453125 112.6946029663086
v 88.55762481689453 -114.84417724609375 126.55107116699219
v 94.2144775390625 -109.18732452392578 126.55107116699219
v -104.20679473876953 89.2325439453125 126.55101776123047
v -109.8636474609375 83.57569122314453 126.55101776123047
v 97.04290008544922 -106.35889434814453 119.62286376953125
v -101.37836456298828 92.06096649169922 119.62281036376953
v 95.53763580322266 -113.71903991699219 122.62108612060547
v 93.08950805664062 -116.16714477539062 122.62108612060547
v 91.86553955078125 -117.39112854003906 119.62287902832031
v 93.08950805664062 -116.16714477539062 116.62467193603516
v 95.53763580322266 -113.71903991699219 116.62467193603516
v 96.7615966796875 -112.49507141113281 119.62286376953125
v -111.1866226196289 88.10757446289062 116.62464141845703
v -112.41051483154297 86.8835220336914 119.62284851074219
v -111.1866226196289 88.10757446289062 122.62105560302734
v -108.73841857910156 90.55560302734375 122.62105560302734
v -107.51454162597656 91.7796630859375 119.62284851074219
v -108.7385025024414 90.55569458007812 116.62464141845703
v 85.72847747802734 -117.67292785644531 -126.54327392578125
v -112.50108337402344 80.84165954589844 -126.54331970214844
v 85.72919464111328 -117.67261505126953 119.62287139892578
v -112.69207763671875 80.74726104736328 119.62281036376953
v 95.73905944824219 -96.97409057617188 -138.95730590820312
v 80.20826721191406 -112.5049057006836 -138.95730590820312
v 75.2849349975586 -107.58155822753906 -138.95730590820312
v 90.81572723388672 -92.05075073242188 -138.95730590820312
v 95.73905944824219 -96.97408294677734 -113.1931381225586
v 90.81572723388672 -92.05074310302734 -113.1931381225586
v 75.28492736816406 -107.58155059814453 -113.19314575195312
v 80.20825958251953 -112.50489807128906 -113.19314575195312
v 95.73905944824219 -96.97409057617188 -138.95730590820312
v 90.81572723388672 -92.05075073242188 -138.95730590820312
v 90.81572723388672 -92.05074310302734 -113.1931381225586
v 95.73905944824219 -96.97408294677734 -113.1931381225586
v 90.81572723388672 -92.05075073242188 -138.95730590820312
v 75.2849349975586 -107.58155822753906 -138.95730590820312
v 75.28492736816406 -107.58155059814453 -113.19314575195312
v 90.81572723388672 -92.05074310302734 -113.1931381225586
v 80.20826721191406 -112.5049057006836 -138.95730590820312
v 95.73905944824219 -96.97409057617188 -138.95730590820312
v 95.73905944824219 -96.97408294677734 -113.1931381225586
v 80.20825958251953 -112.50489807128906 -113.19314575195312
v 95.73930358886719 -96.9736328125 106.94609069824219
v 80.20850372314453 -112.50444030761719 106.94608306884766
v 75.28517150878906 -107.58110809326172 106.94608306884766
v 90.81597137451172 -92.05030059814453 106.94609069824219
v 95.73930358886719 -96.97362518310547 132.7102508544922
v 90.81597137451172 -92.05029296875 132.7102508544922
v 75.28517150878906 -107.58110046386719 132.7102508544922
v 80.20850372314453 -112.50443267822266 132.7102508544922
v 95.73930358886719 -96.9736328125 106.94609069824219
v 90.81597137451172 -92.05030059814453 106.94609069824219
v 90.81597137451172 -92.05029296875 132.7102508544922
v 95.73930358886719 -96.97362518310547 132.7102508544922
v 90.81597137451172 -92.05030059814453 106.94609069824219
v 75.28517150878906 -107.58110809326172 106.94608306884766
v 75.28517150878906 -107.58110046386719 132.7102508544922
v 90.81597137451172 -92.05029296875 132.7102508544922
v 80.20850372314453 -112.50444030761719 106.94608306884766
v 95.73930358886719 -96.9736328125 106.94609069824219
v 95.73930358886719 -96.97362518310547 132.7102508544922
v 80.20850372314453 -112.50443267822266 132.7102508544922
v -85.90352630615234 84.95352935791016 -138.9573211669922
v -101.434326171875 69.42272186279297 -138.9573211669922
v -106.35765838623047 74.34605407714844 -138.9573211669922
v -90.82685852050781 89.8768539428711 -138.95733642578125
v -85.90353393554688 84.95353698730469 -113.19317626953125
v -90.82686614990234 89.87686157226562 -113.19318389892578
v -106.35765838623047 74.34606170654297 -113.19318389892578
v -101.434326171875 69.4227294921875 -113.19318389892578
v -85.90352630615234 84.95352935791016 -138.9573211669922
v -90.82685852050781 89.8768539428711 -138.95733642578125
v -90.82686614990234 89.87686157226562 -113.19318389892578
v -85.90353393554688 84.95353698730469 -113.19317626953125
v -90.82685852050781 89.8768539428711 -138.95733642578125
v -106.35765838623047 74.34605407714844 -138.9573211669922
v -106.35765838623047 74.34606170654297 -113.19318389892578
v -90.82686614990234 89.87686157226562 -113.19318389892578
v -101.434326171875 69.42272186279297 -138.9573211669922
v -85.90352630615234 84.95352935791016 -138.9573211669922
v -85.90353393554688 84.95353698730469 -113.19317626953125
v -101.434326171875 69.4227294921875 -113.19318389892578
v -86.09485626220703 84.85913848876953 106.9460678100586
v -101.62566375732422 69.32833099365234 106.94606018066406
v -106.54899597167969 74.25167083740234 106.94606018066406
v -91.01820373535156 89.78246307373047 106.94606018066406
v -86.09486389160156 84.85914611816406 132.71023559570312
v -91.01820373535156 89.782470703125 132.71022033691406
v -106.54899597167969 74.25167846679688 132.71023559570312
v -101.62566375732422 69.32833862304688 132.71023559570312
v -86.09485626220703 84.85913848876953 106.9460678100586
v -91.01820373535156 89.78246307373047 106.94606018066406
v -91.01820373535156 89.782470703125 132.71022033691406
v -86.09486389160156 84.85914611816406 132.71023559570312
v -91.01820373535156 89.78246307373047 106.94606018066406
v -106.54899597167969 74.25167083740234 106.94606018066406
v -106.54899597167969 74.25167846679688 132.71023559570312
v -91.01820373535156 89.782470703125 132.71022033691406
v -101.62566375732422 69.32833099365234 106.94606018066406
v -86.09485626220703 84.85913848876953 106.9460678100586
v -86.09486389160156 84.85914611816406 132.71023559570312
v -101.62566375732422 69.32833862304688 132.71023559570312
f 4 3 5
f 19 13 20
f 20 13 21
f 21 13 22
f 13 9 22
f 22 9 23
f 9 5 23
f 23 5 24
f 24 5 25
f 25 5 26
f 26 5 27
f 27 5 28
f 28 5 29
f 8 7 9
f 7 5 9
f 6 5 7
f 10 9 11
f 11 9 13
f 12 11 13
f 14 13 15
f 15 13 16
f 2 1 3
f 3 1 5
f 5 1 31
f 29 5 31
f 32 29 31
f 18 32 31
f 17 18 31
f 17 16 18
f 18 16 19
f 16 13 19
f 30 17 31
f 31 1 33
f 33 1 34
f 175 174 176
f 304 303 305
f 306 305 303
f 300 299 301
f 302 301 299
f 296 295 297
f 298 297 295
f 292 291 293
f 294 293 291
f 288 287 289
f 290 289 287
f 284 283 285
f 286 285 283
f 280 279 281
f 282 281 279
f 276 275 277
f 278 277 275
f 272 271 273
f 274 273 271
f 268 267 269
f 270 269 267
f 264 263 265
f 266 265 263
f 260 259 261
f 262 261 259
f 256 255 257
f 258 257 255
f 252 251 253
f 254 253 251
f 248 247 249
f 250 249 247
f 244 243 245
f 246 245 243
f 240 239 241
f 242 241 239
f 236 235 237
f 238 237 235
f 232 231 233
f 234 233 231
f 228 227 229
f 230 229 227
f 186 183 226
f 224 226 183
f 185 182 186
f 183 186 182
f 307 181 308
f 184 308 181
f 308 184 309
f 225 309 184
f 192 193 178
f 310 215 311
f 191 311 215
f 215 312 191
f 190 191 312
f 181 307 313
f 189 313 307
f 315 314 316
f 194 316 314
f 316 194 317
f 318 316 317
f 319 318 317
f 320 316 318
f 178 177 179
f 180 179 177
f 179 180 195
f 198 197 199
f 197 321 199
f 321 200 199
f 322 195 180
f 323 188 324
f 188 323 187
f 325 187 323
f 327 326 214
f 317 214 326
f 177 178 193
f 328 324 188
f 196 321 197
f 160 159 157
f 212 213 329
f 159 160 330
f 210 330 160
f 331 209 332
f 211 332 209
f 213 207 162
f 162 329 213
f 334 333 158
f 335 157 159
f 157 335 164
f 163 164 335
f 337 336 165
f 165 336 167
f 166 165 167
f 339 338 154
f 153 154 338
f 154 153 155
f 156 155 153
f 155 156 169
f 340 169 156
f 341 162 207
f 333 342 161
f 161 158 333
f 158 161 336
f 168 336 161
f 336 168 167
f 167 168 343
f 161 343 168
f 343 161 342
f 208 344 170
f 345 170 344
f 170 345 171
f 171 345 173
f 172 171 173
f 221 220 222
f 223 222 220
f 217 216 218
f 219 218 216
f 150 149 151
f 152 151 149
f 146 145 147
f 148 147 145
f 142 141 143
f 144 143 141
f 138 137 139
f 140 139 137
f 80 79 81
f 82 81 79
f 39 38 18
f 18 19 39
f 40 39 19
f 19 20 40
f 41 40 20
f 20 21 41
f 42 41 21
f 21 22 42
f 43 42 22
f 22 23 43
f 44 43 23
f 23 24 44
f 45 44 24
f 24 25 45
f 46 45 25
f 25 26 46
f 47 46 26
f 26 27 47
f 35 47 27
f 27 28 35
f 36 35 28
f 28 29 36
f 37 36 29
f 29 32 37
f 38 37 32
f 32 18 38
f 205 202 206
f 203 206 202
f 202 201 203
f 204 203 201
f 83 76 84
f 77 84 76
f 76 75 77
f 78 77 75
f 73 85 74
f 86 74 85
f 85 91 86
f 92 86 91
f 111 103 112
f 104 112 103
f 103 99 104
f 100 104 99
f 346 70 347
f 71 347 70
f 70 69 71
f 72 71 69
f 69 73 72
f 74 72 73
f 133 129 134
f 130 134 129
f 129 125 130
f 126 130 125
f 125 119 126
f 120 126 119
f 348 113 349
f 114 349 113
f 113 111 114
f 112 114 111
f 102 98 101
f 97 101 98
f 98 96 97
f 95 97 96
f 96 94 95
f 93 95 94
f 94 90 93
f 87 93 90
f 90 89 87
f 88 87 89
f 118 116 117
f 115 117 116
f 116 110 115
f 109 115 110
f 110 108 109
f 107 109 108
f 108 106 107
f 105 107 106
f 106 350 105
f 351 105 350
f 136 132 135
f 131 135 132
f 132 128 131
f 127 131 128
f 128 124 127
f 123 127 124
f 124 122 123
f 121 123 122
f 122 352 121
f 353 121 352
f 11 12 60
f 60 59 11
f 10 11 59
f 59 58 10
f 9 10 58
f 58 57 9
f 8 9 57
f 57 56 8
f 7 8 56
f 56 55 7
f 6 7 55
f 55 54 6
f 5 6 54
f 54 53 5
f 4 5 53
f 53 52 4
f 3 4 52
f 52 51 3
f 2 3 51
f 51 50 2
f 1 2 50
f 50 49 1
f 34 1 49
f 49 48 34
f 33 34 48
f 48 68 33
f 31 33 68
f 68 67 31
f 30 31 67
f 67 66 30
f 17 30 66
f 66 65 17
f 16 17 65
f 65 64 16
f 15 16 64
f 64 63 15
f 14 15 63
f 63 62 14
f 13 14 62
f 62 61 13
f 12 13 61
f 61 60 12
