v 68.94378662109375 2564.816650390625 -26.15890884399414
v 68.94388580322266 1227.7843017578125 -26.15865707397461
v 249.20095825195312 1227.7843017578125 -26.15865135192871
v 174.11056518554688 2357.20654296875 -26.158864974975586
v 249.2008514404297 2357.20654296875 -26.15886116027832
v 38.94378662109375 2594.816650390625 -31.15891456604004
v 38.943885803222656 1197.784423828125 -31.158655166625977
v 38.943885803222656 1197.784423828125 -21.158655166625977
v 38.94378662109375 2594.816650390625 -21.158910751342773
v 38.943885803222656 1197.784423828125 -31.158655166625977
v 279.200927734375 1197.784423828125 -31.158647537231445
v 279.200927734375 1197.784423828125 -21.158649444580078
v 38.943885803222656 1197.784423828125 -21.158655166625977
v 279.200927734375 1197.784423828125 -31.158647537231445
v 279.20086669921875 2387.20654296875 -31.15886688232422
v 279.2008972167969 2387.20654296875 -21.15886688232422
v 279.200927734375 1197.784423828125 -21.158649444580078
v 279.20086669921875 2387.20654296875 -31.15886688232422
v 204.11056518554688 2387.20654296875 -31.15886688232422
v 204.11056518554688 2387.20654296875 -21.158864974975586
v 279.2008972167969 2387.20654296875 -21.15886688232422
v 204.11053466796875 2594.816650390625 -31.158906936645508
v 38.94378662109375 2594.816650390625 -31.15891456604004
v 38.94378662109375 2594.816650390625 -21.158910751342773
v 204.11053466796875 2594.816650390625 -21.158905029296875
v 174.1105499267578 2564.816650390625 -26.158905029296875
v 204.11056518554688 2387.20654296875 -21.158864974975586
v 204.11056518554688 2387.20654296875 -31.15886688232422
v 204.11053466796875 2594.816650390625 -31.158906936645508
v 204.11053466796875 2594.816650390625 -21.158905029296875
v 38.94378662109375 2594.816650390625 -21.158910751342773
v 38.943885803222656 1197.784423828125 -21.158655166625977
v 68.94388580322266 1227.7843017578125 -21.158658981323242
v 68.94378662109375 2564.816650390625 -21.158906936645508
v 279.200927734375 1197.784423828125 -21.158649444580078
v 249.20095825195312 1227.7843017578125 -21.15865135192871
v 279.2008972167969 2387.20654296875 -21.15886688232422
v 249.2008514404297 2357.20654296875 -21.15886116027832
v 204.11056518554688 2387.20654296875 -21.158864974975586
v 174.11056518554688 2357.20654296875 -21.158864974975586
v 204.11053466796875 2594.816650390625 -21.158905029296875
v 174.1105499267578 2564.816650390625 -21.158903121948242
v 68.94378662109375 2564.816650390625 -21.158906936645508
v 68.94388580322266 1227.7843017578125 -21.158658981323242
v 68.94388580322266 1227.7843017578125 -26.15865707397461
v 68.94378662109375 2564.816650390625 -26.15890884399414
v 68.94388580322266 1227.7843017578125 -21.158658981323242
v 249.20095825195312 1227.7843017578125 -21.15865135192871
v 249.20095825195312 1227.7843017578125 -26.15865135192871
v 68.94388580322266 1227.7843017578125 -26.15865707397461
v 249.20095825195312 1227.7843017578125 -21.15865135192871
v 249.2008514404297 2357.20654296875 -21.15886116027832
v 249.2008514404297 2357.20654296875 -26.15886116027832
v 249.20095825195312 1227.7843017578125 -26.15865135192871
v 249.2008514404297 2357.20654296875 -21.15886116027832
v 174.11056518554688 2357.20654296875 -21.158864974975586
v 174.11056518554688 2357.20654296875 -26.158864974975586
v 249.2008514404297 2357.20654296875 -26.15886116027832
v 174.11056518554688 2357.20654296875 -21.158864974975586
v 174.1105499267578 2564.816650390625 -21.158903121948242
v 174.1105499267578 2564.816650390625 -26.158905029296875
v 174.11056518554688 2357.20654296875 -26.158864974975586
v 174.1105499267578 2564.816650390625 -21.158903121948242
v 68.94378662109375 2564.816650390625 -21.158906936645508
v 68.94378662109375 2564.816650390625 -26.15890884399414
v 174.1105499267578 2564.816650390625 -26.158905029296875
v 68.94395446777344 98.2498550415039 -26.158449172973633
v 68.94406127929688 -1618.6658935546875 -26.15813446044922
v 250.29981994628906 -1618.6658935546875 -26.158126831054688
v 250.29971313476562 98.24986267089844 -26.158443450927734
v 38.94395446777344 128.24986267089844 -31.15846061706543
v 38.94406509399414 -1648.665771484375 -31.158126831054688
v 38.94406509399414 -1648.665771484375 -21.15812873840332
v 38.94395446777344 128.24986267089844 -21.158456802368164
v 38.94406509399414 -1648.665771484375 -31.158126831054688
v 280.2998046875 -1648.665771484375 -31.15812110900879
v 280.2998046875 -1648.665771484375 -21.15812110900879
v 38.94406509399414 -1648.665771484375 -21.15812873840332
v 280.2998046875 -1648.665771484375 -31.15812110900879
v 280.2997131347656 128.2498779296875 -31.1584529876709
v 280.2997131347656 128.2498779296875 -21.158451080322266
v 280.2998046875 -1648.665771484375 -21.15812110900879
v 280.2997131347656 128.2498779296875 -31.1584529876709
v 38.94395446777344 128.24986267089844 -31.15846061706543
v 38.94395446777344 128.24986267089844 -21.158456802368164
v 280.2997131347656 128.2498779296875 -21.158451080322266
v 38.94395446777344 128.24986267089844 -21.158456802368164
v 38.94406509399414 -1648.665771484375 -21.15812873840332
v 68.94406127929688 -1618.6658935546875 -21.15813446044922
v 68.94395446777344 98.2498550415039 -21.158449172973633
v 280.2998046875 -1648.665771484375 -21.15812110900879
v 250.29981994628906 -1618.6658935546875 -21.15812873840332
v 280.2997131347656 128.2498779296875 -21.158451080322266
v 250.29971313476562 98.24986267089844 -21.158445358276367
v 68.94395446777344 98.2498550415039 -21.158449172973633
v 68.94406127929688 -1618.6658935546875 -21.15813446044922
v 68.94406127929688 -1618.6658935546875 -26.15813446044922
v 68.94395446777344 98.2498550415039 -26.158449172973633
v 68.94406127929688 -1618.6658935546875 -21.15813446044922
v 250.29981994628906 -1618.6658935546875 -21.15812873840332
v 250.29981994628906 -1618.6658935546875 -26.158126831054688
v 68.94406127929688 -1618.6658935546875 -26.15813446044922
v 250.29981994628906 -1618.6658935546875 -21.15812873840332
v 250.29971313476562 98.24986267089844 -21.158445358276367
v 250.29971313476562 98.24986267089844 -26.158443450927734
v 250.29981994628906 -1618.6658935546875 -26.158126831054688
v 250.29971313476562 98.24986267089844 -21.158445358276367
v 68.94395446777344 98.2498550415039 -21.158449172973633
v 68.94395446777344 98.2498550415039 -26.158449172973633
v 250.29971313476562 98.24986267089844 -26.158443450927734
v -1627.4984130859375 2886.794677734375 -26.159021377563477
v -1627.4984130859375 2449.65234375 -26.158939361572266
v -1183.5059814453125 2449.65234375 -26.158926010131836
v -1183.5059814453125 2886.794677734375 -26.159008026123047
v -1657.49853515625 2916.79443359375 -31.15903091430664
v -1657.49853515625 2419.65234375 -31.158939361572266
v -1657.49853515625 2419.65234375 -21.158937454223633
v -1657.49853515625 2916.79443359375 -21.15903091430664
v -1657.49853515625 2419.65234375 -31.158939361572266
v -1153.5059814453125 2419.65234375 -31.158920288085938
v -1153.5059814453125 2419.65234375 -21.158920288085938
v -1657.49853515625 2419.65234375 -21.158937454223633
v -1153.5059814453125 2419.65234375 -31.158920288085938
v -1153.5059814453125 2916.79443359375 -31.159011840820312
v -1153.5059814453125 2916.79443359375 -21.159011840820312
v -1153.5059814453125 2419.65234375 -21.158920288085938
v -1153.5059814453125 2916.79443359375 -31.159011840820312
v -1657.49853515625 2916.79443359375 -31.15903091430664
v -1657.49853515625 2916.79443359375 -21.15903091430664
v -1153.5059814453125 2916.79443359375 -21.159011840820312
v -1657.49853515625 2916.79443359375 -21.15903091430664
v -1657.49853515625 2419.65234375 -21.158937454223633
v -1627.4984130859375 2449.65234375 -21.1589412689209
v -1627.4984130859375 2886.794677734375 -21.159021377563477
v -1153.5059814453125 2419.65234375 -21.158920288085938
v -1183.5059814453125 2449.65234375 -21.15892791748047
v -1153.5059814453125 2916.79443359375 -21.159011840820312
v -1183.5059814453125 2886.794677734375 -21.159008026123047
v -1627.4984130859375 2886.794677734375 -21.159021377563477
v -1627.4984130859375 2449.65234375 -21.1589412689209
v -1627.4984130859375 2449.65234375 -26.158939361572266
v -1627.4984130859375 2886.794677734375 -26.159021377563477
v -1627.4984130859375 2449.65234375 -21.1589412689209
v -1183.5059814453125 2449.65234375 -21.15892791748047
v -1183.5059814453125 2449.65234375 -26.158926010131836
v -1627.4984130859375 2449.65234375 -26.158939361572266
v -1183.5059814453125 2449.65234375 -21.15892791748047
v -1183.5059814453125 2886.794677734375 -21.159008026123047
v -1183.5059814453125 2886.794677734375 -26.159008026123047
v -1183.5059814453125 2449.65234375 -26.158926010131836
v -1183.5059814453125 2886.794677734375 -21.159008026123047
v -1627.4984130859375 2886.794677734375 -21.159021377563477
v -1627.4984130859375 2886.794677734375 -26.159021377563477
v -1183.5059814453125 2886.794677734375 -26.159008026123047
v -645.3370971679688 -2538.546142578125 31.673120498657227
v 276.830078125 -2538.54736328125 31.67315101623535
v 42.39800262451172 -2285.9765625 31.673099517822266
v -645.3370971679688 -2285.977294921875 31.67307472229004
v -648.3370971679688 -2282.9775390625 -31.157798767089844
v -648.3370971679688 -2541.546142578125 -31.15775489807129
v -648.3370971679688 -2541.546142578125 41.673126220703125
v -648.3370971679688 -2282.9775390625 41.67307662963867
v 279.830078125 -2541.54736328125 -31.157716751098633
v 279.830078125 -2541.54736328125 41.673152923583984
v -648.3370971679688 -2541.546142578125 41.673126220703125
v -648.3370971679688 -2541.546142578125 -31.15775489807129
v -648.3370971679688 -2282.9775390625 41.67307662963867
v -648.3370971679688 -2541.546142578125 41.673126220703125
v -645.3370971679688 -2538.546142578125 41.673126220703125
v -645.3370971679688 -2285.977294921875 41.67307662963867
v 279.830078125 -2541.54736328125 41.673152923583984
v 276.830078125 -2538.54736328125 41.673152923583984
v -645.3370971679688 -2285.977294921875 41.67307662963867
v -645.3370971679688 -2538.546142578125 41.673126220703125
v -645.3370971679688 -2538.546142578125 31.673120498657227
v -645.3370971679688 -2285.977294921875 31.67307472229004
v 276.830078125 -2538.54736328125 41.673152923583984
v 276.830078125 -2538.54736328125 31.67315101623535
v -645.3370971679688 -2538.546142578125 31.673120498657227
v -645.3370971679688 -2538.546142578125 41.673126220703125
v -648.3370971679688 -2282.9775390625 -31.157798767089844
v -648.3370971679688 -2282.9775390625 41.67307662963867
v 39.397972106933594 -2282.9765625 41.673091888427734
v 39.397972106933594 -2282.9765625 -31.157772064208984
v 39.397972106933594 -2282.9765625 41.673091888427734
v 42.39800262451172 -2285.9765625 41.673091888427734
v -645.3370971679688 -2285.977294921875 41.67307662963867
v -645.3370971679688 -2285.977294921875 31.67307472229004
v 42.39800262451172 -2285.9765625 31.673099517822266
v 42.39800262451172 -2285.9765625 41.673091888427734
v 279.8282470703125 -1651.7940673828125 -31.15787696838379
v 39.39823913574219 -1651.7938232421875 -31.157882690429688
v 39.39824295043945 -1651.7938232421875 41.6729850769043
v 279.8282775878906 -1651.7938232421875 41.672996520996094
v 39.397972106933594 -2282.9765625 -31.157772064208984
v 39.397972106933594 -2282.9765625 41.673091888427734
v 39.39824295043945 -1651.7938232421875 41.6729850769043
v 39.39823913574219 -1651.7938232421875 -31.157882690429688
v 279.8282775878906 -1651.7938232421875 41.672996520996094
v 39.39824295043945 -1651.7938232421875 41.6729850769043
v 42.39823532104492 -1654.7939453125 41.6729850769043
v 276.8282470703125 -1654.7939453125 41.672996520996094
v 276.8282470703125 -1654.7939453125 41.672996520996094
v 42.39823532104492 -1654.7939453125 41.6729850769043
v 42.39823532104492 -1654.7939453125 31.672988891601562
v 276.8282470703125 -1654.7939453125 31.672998428344727
v 42.39800262451172 -2285.9765625 41.673091888427734
v 42.39800262451172 -2285.9765625 31.673099517822266
v 42.39823532104492 -1654.7939453125 31.672988891601562
v 42.39823532104492 -1654.7939453125 41.6729850769043
v 276.8282470703125 -1654.7939453125 31.672998428344727
v 42.39823532104492 -1654.7939453125 31.672988891601562
v 279.8282470703125 -1651.7940673828125 -31.15787696838379
v 279.8282775878906 -1651.7938232421875 41.672996520996094
v 279.830078125 -2541.54736328125 41.673152923583984
v 279.830078125 -2541.54736328125 -31.157716751098633
v 276.8282470703125 -1654.7939453125 41.672996520996094
v 276.8282470703125 -1654.7939453125 31.672998428344727
v 276.830078125 -2538.54736328125 31.67315101623535
v 276.830078125 -2538.54736328125 41.673152923583984
f 68 67 69
f 70 69 67
f 26 4 1
f 2 1 3
f 4 3 1
f 3 4 5
f 220 219 157
f 156 157 219
f 156 155 157
f 158 157 155
f 112 111 113
f 114 113 111
f 15 14 16
f 17 16 14
f 135 132 136
f 136 138 135
f 137 135 138
f 138 134 137
f 131 137 134
f 134 133 131
f 132 131 133
f 133 136 132
f 11 10 12
f 13 12 10
f 7 6 8
f 9 8 6
f 152 151 153
f 154 153 151
f 148 147 149
f 150 149 147
f 144 143 145
f 146 145 143
f 140 139 141
f 142 141 139
f 128 127 129
f 130 129 127
f 124 123 125
f 126 125 123
f 120 119 121
f 122 121 119
f 116 115 117
f 118 117 115
f 108 107 109
f 110 109 107
f 104 103 105
f 106 105 103
f 100 99 101
f 102 101 99
f 96 95 97
f 98 97 95
f 84 83 85
f 86 85 83
f 80 79 81
f 82 81 79
f 76 75 77
f 78 77 75
f 72 71 73
f 74 73 71
f 64 63 65
f 66 65 63
f 60 59 61
f 62 61 59
f 56 55 57
f 58 57 55
f 52 51 53
f 54 53 51
f 48 47 49
f 50 49 47
f 44 43 45
f 46 45 43
f 28 27 29
f 30 29 27
f 23 22 24
f 25 24 22
f 19 18 20
f 21 20 18
f 37 35 38
f 38 40 37
f 39 37 40
f 40 42 39
f 41 39 42
f 42 34 41
f 31 41 34
f 34 33 31
f 32 31 33
f 33 36 32
f 35 32 36
f 36 38 35
f 90 89 87
f 87 93 90
f 94 90 93
f 93 91 94
f 92 94 91
f 91 88 92
f 89 92 88
f 88 87 89
f 160 159 161
f 162 161 159
f 164 163 165
f 166 165 163
f 168 167 169
f 170 169 167
f 172 171 173
f 174 173 171
f 176 175 177
f 178 177 175
f 180 179 181
f 182 181 179
f 184 183 185
f 186 185 183
f 188 187 189
f 190 189 187
f 192 191 193
f 194 193 191
f 196 195 197
f 198 197 195
f 200 199 201
f 202 201 199
f 204 203 205
f 206 205 203
f 208 207 209
f 210 209 207
f 212 211 213
f 214 213 211
f 216 215 217
f 218 217 215
f 222 221 223
f 224 223 221
f 226 225 227
f 228 227 225
f 230 229 231
f 232 231 229
