v -4276.404296875 3474.5556640625 -883.6669921875
v -360.52203369140625 -434.392578125 -883.6663818359375
v 381.6959533691406 309.1417236328125 -883.6663208007812
v -3534.18603515625 4218.0908203125 -883.6670532226562
v 282.7005615234375 309.0544738769531 -903.6663818359375
v 282.7005615234375 309.0544738769531 -951.5848999023438
v -3534.098388671875 4119.095703125 -951.5855712890625
v -3534.098388671875 4119.095703125 -903.6670532226562
v -4177.40869140625 3474.6435546875 -903.6670532226562
v -4177.40869140625 3474.6435546875 -951.5855712890625
v -360.610107421875 -335.39764404296875 -951.5848999023438
v -360.610107421875 -335.39764404296875 -903.6663818359375
v -3534.098388671875 4119.095703125 -903.6670532226562
v -3534.098388671875 4119.095703125 -951.5855712890625
v -4177.40869140625 3474.6435546875 -951.5855712890625
v -4177.40869140625 3474.6435546875 -903.6670532226562
v -3534.203125 4237.23291015625 -903.6670532226562
v -3534.203125 4237.23291015625 -883.6670532226562
v 400.8383483886719 309.1587219238281 -883.6663208007812
v 400.8383483886719 309.1587219238281 -903.6663818359375
v -360.50518798828125 -453.5345764160156 -903.6663208007812
v -360.50518798828125 -453.5345764160156 -883.6663818359375
v -4295.54638671875 3474.538818359375 -883.6671142578125
v -4295.54638671875 3474.538818359375 -903.6670532226562
v -4295.54638671875 3474.538818359375 -903.6670532226562
v -4295.54638671875 3474.538818359375 -883.6671142578125
v -3534.203125 4237.23291015625 -883.6670532226562
v -3534.203125 4237.23291015625 -903.6670532226562
v -360.610107421875 -335.39764404296875 -903.6663818359375
v -360.610107421875 -335.39764404296875 -951.5848999023438
v 282.7005615234375 309.0544738769531 -951.5848999023438
v 282.7005615234375 309.0544738769531 -903.6663818359375
v -360.50518798828125 -453.5345764160156 -883.6663818359375
v -360.50518798828125 -453.5345764160156 -903.6663208007812
v 400.8383483886719 309.1587219238281 -903.6663818359375
v 400.8383483886719 309.1587219238281 -883.6663208007812
v -4295.54638671875 3474.538818359375 -883.6671142578125
v -360.50518798828125 -453.5345764160156 -883.6663818359375
v -3534.203125 4237.23291015625 -883.6670532226562
v 400.8383483886719 309.1587219238281 -883.6663208007812
v -3534.013916015625 4187.1611328125 -1201.8341064453125
v -3534.013916015625 4187.1611328125 -858.667724609375
v -3491.255126953125 4145.06982421875 -858.667724609375
v -3491.25537109375 4145.06982421875 -1201.8341064453125
v -3576.105712890625 4144.40283203125 -1201.8341064453125
v -3576.105712890625 4144.40283203125 -858.667724609375
v -3534.013916015625 4187.1611328125 -858.667724609375
v -3534.013916015625 4187.1611328125 -1201.8341064453125
v -3533.346435546875 4102.3115234375 -1201.8341064453125
v -3533.346923828125 4102.3115234375 -858.667724609375
v -3576.105712890625 4144.40283203125 -858.667724609375
v -3576.105712890625 4144.40283203125 -1201.8341064453125
v -3491.25537109375 4145.06982421875 -1201.8341064453125
v -3491.255126953125 4145.06982421875 -858.667724609375
v -3533.346923828125 4102.3115234375 -858.667724609375
v -3533.346435546875 4102.3115234375 -1201.8341064453125
v -3576.105712890625 4144.40283203125 -835.6655883789062
v -3533.346923828125 4102.3115234375 -835.6655883789062
v -3491.255126953125 4145.06982421875 -835.6655883789062
v -3534.013916015625 4187.1611328125 -835.6655883789062
v -3534.092529296875 4197.16064453125 -847.1666259765625
v -3481.255126953125 4145.1484375 -847.1665649414062
v -3481.255126953125 4145.1484375 -858.6676635742188
v -3534.092529296875 4197.16064453125 -858.667724609375
v -3586.104736328125 4144.32373046875 -847.1666259765625
v -3534.092529296875 4197.16064453125 -847.1666259765625
v -3534.092529296875 4197.16064453125 -858.667724609375
v -3586.104736328125 4144.32373046875 -858.667724609375
v -3533.267333984375 4092.310791015625 -847.1666259765625
v -3586.104736328125 4144.32373046875 -847.1666259765625
v -3586.104736328125 4144.32373046875 -858.667724609375
v -3533.267333984375 4092.310791015625 -858.667724609375
v -3481.255126953125 4145.1484375 -847.1665649414062
v -3533.267333984375 4092.310791015625 -847.1666259765625
v -3533.267333984375 4092.310791015625 -858.667724609375
v -3481.255126953125 4145.1484375 -858.6676635742188
v -3534.013916015625 4187.1611328125 -835.6655883789062
v -3491.255126953125 4145.06982421875 -835.6655883789062
v -3491.255126953125 4145.06982421875 -847.1666259765625
v -3534.013916015625 4187.1611328125 -847.1666259765625
v -3576.105712890625 4144.40283203125 -835.6655883789062
v -3534.013916015625 4187.1611328125 -835.6655883789062
v -3534.013916015625 4187.1611328125 -847.1666259765625
v -3576.105712890625 4144.40283203125 -847.1666259765625
v -3533.346923828125 4102.3115234375 -835.6655883789062
v -3576.105712890625 4144.40283203125 -835.6655883789062
v -3576.105712890625 4144.40283203125 -847.1666259765625
v -3533.346923828125 4102.3115234375 -847.1666259765625
v -3491.255126953125 4145.06982421875 -835.6655883789062
v -3533.346923828125 4102.3115234375 -835.6655883789062
v -3533.346923828125 4102.3115234375 -847.1666259765625
v -3491.255126953125 4145.06982421875 -847.1666259765625
v -3491.255126953125 4145.06982421875 -858.667724609375
v -3534.013916015625 4187.1611328125 -858.667724609375
v -3534.092529296875 4197.16064453125 -858.667724609375
v -3481.255126953125 4145.1484375 -858.6676635742188
v -3576.105712890625 4144.40283203125 -858.667724609375
v -3586.104736328125 4144.32373046875 -858.667724609375
v -3533.346923828125 4102.3115234375 -858.667724609375
v -3533.267333984375 4092.310791015625 -858.667724609375
v -3534.013916015625 4187.1611328125 -847.1666259765625
v -3491.255126953125 4145.06982421875 -847.1666259765625
v -3481.255126953125 4145.1484375 -847.1665649414062
v -3534.092529296875 4197.16064453125 -847.1666259765625
v -3533.346923828125 4102.3115234375 -847.1666259765625
v -3533.267333984375 4092.310791015625 -847.1666259765625
v -3576.105712890625 4144.40283203125 -847.1666259765625
v -3586.104736328125 4144.32373046875 -847.1666259765625
v -4201.12744140625 3518.85546875 -1201.834228515625
v -4201.12744140625 3518.85546875 -858.6677856445312
v -4158.369140625 3476.764404296875 -858.6676635742188
v -4158.369140625 3476.764404296875 -1201.833984375
v -4243.21875 3476.096923828125 -1201.8341064453125
v -4243.21875 3476.096923828125 -858.6677856445312
v -4201.12744140625 3518.85546875 -858.6677856445312
v -4201.12744140625 3518.85546875 -1201.834228515625
v -4200.46044921875 3434.005859375 -1201.8341064453125
v -4200.46044921875 3434.005859375 -858.6677856445312
v -4243.21875 3476.096923828125 -858.6677856445312
v -4243.21875 3476.096923828125 -1201.8341064453125
v -4158.369140625 3476.764404296875 -1201.833984375
v -4158.369140625 3476.764404296875 -858.6676635742188
v -4200.46044921875 3434.005859375 -858.6677856445312
v -4200.46044921875 3434.005859375 -1201.8341064453125
v -4243.21875 3476.096923828125 -835.6656494140625
v -4200.46044921875 3434.005859375 -835.6656494140625
v -4158.369140625 3476.764404296875 -835.6656494140625
v -4201.12744140625 3518.85546875 -835.6656494140625
v -4201.2060546875 3528.855712890625 -847.1666259765625
v -4148.369140625 3476.843505859375 -847.1666259765625
v -4148.369140625 3476.843505859375 -858.6676635742188
v -4201.2060546875 3528.855712890625 -858.6677856445312
v -4253.21875 3476.018310546875 -847.1666259765625
v -4201.2060546875 3528.855712890625 -847.1666259765625
v -4201.2060546875 3528.855712890625 -858.6677856445312
v -4253.21875 3476.018310546875 -858.6677856445312
v -4200.38134765625 3424.006103515625 -847.1666259765625
v -4253.21875 3476.018310546875 -847.1666259765625
v -4253.21875 3476.018310546875 -858.6677856445312
v -4200.38134765625 3424.006103515625 -858.6677856445312
v -4148.369140625 3476.843505859375 -847.1666259765625
v -4200.38134765625 3424.006103515625 -847.1666259765625
v -4200.38134765625 3424.006103515625 -858.6677856445312
v -4148.369140625 3476.843505859375 -858.6676635742188
v -4201.12744140625 3518.85546875 -835.6656494140625
v -4158.369140625 3476.764404296875 -835.6656494140625
v -4158.369140625 3476.764404296875 -847.1666259765625
v -4201.12744140625 3518.85546875 -847.1666259765625
v -4243.21875 3476.096923828125 -835.6656494140625
v -4201.12744140625 3518.85546875 -835.6656494140625
v -4201.12744140625 3518.85546875 -847.1666259765625
v -4243.21875 3476.096923828125 -847.1666259765625
v -4200.46044921875 3434.005859375 -835.6656494140625
v -4243.21875 3476.096923828125 -835.6656494140625
v -4243.21875 3476.096923828125 -847.1666259765625
v -4200.46044921875 3434.005859375 -847.1666259765625
v -4158.369140625 3476.764404296875 -835.6656494140625
v -4200.46044921875 3434.005859375 -835.6656494140625
v -4200.46044921875 3434.005859375 -847.1666259765625
v -4158.369140625 3476.764404296875 -847.1666259765625
v -4158.369140625 3476.764404296875 -858.6676635742188
v -4201.12744140625 3518.85546875 -858.6677856445312
v -4201.2060546875 3528.855712890625 -858.6677856445312
v -4148.369140625 3476.843505859375 -858.6676635742188
v -4243.21875 3476.096923828125 -858.6677856445312
v -4253.21875 3476.018310546875 -858.6677856445312
v -4200.46044921875 3434.005859375 -858.6677856445312
v -4200.38134765625 3424.006103515625 -858.6677856445312
v -4201.12744140625 3518.85546875 -847.1666259765625
v -4158.369140625 3476.764404296875 -847.1666259765625
v -4148.369140625 3476.843505859375 -847.1666259765625
v -4201.2060546875 3528.855712890625 -847.1666259765625
v -4200.46044921875 3434.005859375 -847.1666259765625
v -4200.38134765625 3424.006103515625 -847.1666259765625
v -4243.21875 3476.096923828125 -847.1666259765625
v -4253.21875 3476.018310546875 -847.1666259765625
v -365.9427490234375 -309.526123046875 -1201.83349609375
v -366.2350158691406 -309.83197021484375 -858.6671142578125
v -323.4759216308594 -351.9232177734375 -858.6670532226562
v -323.18365478515625 -351.6173400878906 -1201.83349609375
v -408.0334777832031 -352.28509521484375 -1201.83349609375
v -408.32647705078125 -352.59033203125 -858.6670532226562
v -366.2350158691406 -309.83197021484375 -858.6671142578125
v -365.9427490234375 -309.526123046875 -1201.83349609375
v -365.27532958984375 -394.3762512207031 -1201.83349609375
v -365.56756591796875 -394.6820983886719 -858.6670532226562
v -408.32647705078125 -352.59033203125 -858.6670532226562
v -408.0334777832031 -352.28509521484375 -1201.83349609375
v -323.18365478515625 -351.6173400878906 -1201.83349609375
v -323.4759216308594 -351.9232177734375 -858.6670532226562
v -365.56756591796875 -394.6820983886719 -858.6670532226562
v -365.27532958984375 -394.3762512207031 -1201.83349609375
v -408.32647705078125 -352.59033203125 -835.6648559570312
v -365.5675964355469 -394.6820983886719 -835.6648559570312
v -323.4759216308594 -351.9232177734375 -835.6648559570312
v -366.2350158691406 -309.83197021484375 -835.6649169921875
v -366.3132019042969 -299.8323669433594 -847.1659545898438
v -313.47589111328125 -351.8447265625 -847.1658935546875
v -313.47589111328125 -351.8447265625 -858.6670532226562
v -366.3132019042969 -299.8323669433594 -858.6671142578125
v -418.32550048828125 -352.66961669921875 -847.1658935546875
v -366.3132019042969 -299.8323669433594 -847.1659545898438
v -366.3132019042969 -299.8323669433594 -858.6671142578125
v -418.32550048828125 -352.66961669921875 -858.6670532226562
v -365.48828125 -404.6820068359375 -847.1658935546875
v -418.32550048828125 -352.66961669921875 -847.1658935546875
v -418.32550048828125 -352.66961669921875 -858.6670532226562
v -365.48828125 -404.6820068359375 -858.6670532226562
v -313.47589111328125 -351.8447265625 -847.1658935546875
v -365.48828125 -404.6820068359375 -847.1658935546875
v -365.48828125 -404.6820068359375 -858.6670532226562
v -313.47589111328125 -351.8447265625 -858.6670532226562
v -366.2350158691406 -309.83197021484375 -835.6649169921875
v -323.4759216308594 -351.9232177734375 -835.6648559570312
v -323.4759216308594 -351.9232177734375 -847.1658935546875
v -366.2350158691406 -309.83197021484375 -847.1659545898438
v -408.32647705078125 -352.59033203125 -835.6648559570312
v -366.2350158691406 -309.83197021484375 -835.6649169921875
v -366.2350158691406 -309.83197021484375 -847.1659545898438
v -408.32647705078125 -352.59033203125 -847.1658935546875
v -365.5675964355469 -394.6820983886719 -835.6648559570312
v -408.32647705078125 -352.59033203125 -835.6648559570312
v -408.32647705078125 -352.59033203125 -847.1658935546875
v -365.5675964355469 -394.6820983886719 -847.1658935546875
v -323.4759216308594 -351.9232177734375 -835.6648559570312
v -365.5675964355469 -394.6820983886719 -835.6648559570312
v -365.5675964355469 -394.6820983886719 -847.1658935546875
v -323.4759216308594 -351.9232177734375 -847.1658935546875
v -323.4759216308594 -351.9232177734375 -858.6670532226562
v -366.2350158691406 -309.83197021484375 -858.6671142578125
v -366.3132019042969 -299.8323669433594 -858.6671142578125
v -313.47589111328125 -351.8447265625 -858.6670532226562
v -408.32647705078125 -352.59033203125 -858.6670532226562
v -418.32550048828125 -352.66961669921875 -858.6670532226562
v -365.56756591796875 -394.6820983886719 -858.6670532226562
v -365.48828125 -404.6820068359375 -858.6670532226562
v -366.2350158691406 -309.83197021484375 -847.1659545898438
v -323.4759216308594 -351.9232177734375 -847.1658935546875
v -313.47589111328125 -351.8447265625 -847.1658935546875
v -366.3132019042969 -299.8323669433594 -847.1659545898438
v -365.5675964355469 -394.6820983886719 -847.1658935546875
v -365.48828125 -404.6820068359375 -847.1658935546875
v -408.32647705078125 -352.59033203125 -847.1658935546875
v -418.32550048828125 -352.66961669921875 -847.1658935546875
v 301.17120361328125 358.779296875 -1201.83349609375
v 300.87896728515625 358.4731140136719 -858.6670532226562
v 343.6380615234375 316.3818664550781 -858.6669921875
v 343.9303283691406 316.6877136230469 -1201.83349609375
v 259.0803527832031 316.01983642578125 -1201.83349609375
v 258.7880554199219 315.71392822265625 -858.6669921875
v 300.87896728515625 358.4731140136719 -858.6670532226562
v 301.17120361328125 358.779296875 -1201.83349609375
v 301.83880615234375 273.9289855957031 -1201.83349609375
v 301.5465393066406 273.6231384277344 -858.6669921875
v 258.7880554199219 315.71392822265625 -858.6669921875
v 259.0803527832031 316.01983642578125 -1201.83349609375
v 343.9303283691406 316.6877136230469 -1201.83349609375
v 343.6380615234375 316.3818664550781 -858.6669921875
v 301.5465393066406 273.6231384277344 -858.6669921875
v 301.83880615234375 273.9289855957031 -1201.83349609375
v 258.7880554199219 315.71392822265625 -835.6649169921875
v 301.5465393066406 273.6231384277344 -835.6649169921875
v 343.6380615234375 316.3818664550781 -835.6649169921875
v 300.87896728515625 358.4731140136719 -835.6649780273438
v 300.80072021484375 368.47271728515625 -847.166015625
v 353.6380310058594 316.4603576660156 -847.1659545898438
v 353.6380310058594 316.4603576660156 -858.6669921875
v 300.80072021484375 368.47271728515625 -858.6670532226562
v 248.78842163085938 315.6354675292969 -847.1659545898438
v 300.80072021484375 368.47271728515625 -847.166015625
v 300.80072021484375 368.47271728515625 -858.6670532226562
v 248.78842163085938 315.6354675292969 -858.6669921875
v 301.62554931640625 263.6232604980469 -847.1659545898438
v 248.78842163085938 315.6354675292969 -847.1659545898438
v 248.78842163085938 315.6354675292969 -858.6669921875
v 301.62554931640625 263.6232604980469 -858.6669921875
v 353.6380310058594 316.4603576660156 -847.1659545898438
v 301.62554931640625 263.6232604980469 -847.1659545898438
v 301.62554931640625 263.6232604980469 -858.6669921875
v 353.6380310058594 316.4603576660156 -858.6669921875
v 300.87896728515625 358.4731140136719 -835.6649780273438
v 343.6380615234375 316.3818664550781 -835.6649169921875
v 343.6380615234375 316.3818664550781 -847.1659545898438
v 300.87896728515625 358.4731140136719 -847.166015625
v 258.7880554199219 315.71392822265625 -835.6649169921875
v 300.87896728515625 358.4731140136719 -835.6649780273438
v 300.87896728515625 358.4731140136719 -847.166015625
v 258.7880554199219 315.71392822265625 -847.1659545898438
v 301.5465393066406 273.6231384277344 -835.6649169921875
v 258.7880554199219 315.71392822265625 -835.6649169921875
v 258.7880554199219 315.71392822265625 -847.1659545898438
v 301.5465393066406 273.6231384277344 -847.1659545898438
v 343.6380615234375 316.3818664550781 -835.6649169921875
v 301.5465393066406 273.6231384277344 -835.6649169921875
v 301.5465393066406 273.6231384277344 -847.1659545898438
v 343.6380615234375 316.3818664550781 -847.1659545898438
v 343.6380615234375 316.3818664550781 -858.6669921875
v 300.87896728515625 358.4731140136719 -858.6670532226562
v 300.80072021484375 368.47271728515625 -858.6670532226562
v 353.6380310058594 316.4603576660156 -858.6669921875
v 258.7880554199219 315.71392822265625 -858.6669921875
v 248.78842163085938 315.6354675292969 -858.6669921875
v 301.5465393066406 273.6231384277344 -858.6669921875
v 301.62554931640625 263.6232604980469 -858.6669921875
v 300.87896728515625 358.4731140136719 -847.166015625
v 343.6380615234375 316.3818664550781 -847.1659545898438
v 353.6380310058594 316.4603576660156 -847.1659545898438
v 300.80072021484375 368.47271728515625 -847.166015625
v 301.5465393066406 273.6231384277344 -847.1659545898438
v 301.62554931640625 263.6232604980469 -847.1659545898438
v 258.7880554199219 315.71392822265625 -847.1659545898438
v 248.78842163085938 315.6354675292969 -847.1659545898438
v -2506.03515625 1771.55029296875 -883.6668090820312
v -2520.164794921875 1757.395751953125 -883.6668090820312
v -2520.164794921875 1757.395751953125 -753.6668090820312
v -2506.03515625 1771.55029296875 -753.6668090820312
v -2520.164794921875 1757.395751953125 -883.6668090820312
v -2491.855712890625 1729.1368408203125 -883.666748046875
v -2491.85595703125 1729.1368408203125 -753.666748046875
v -2520.164794921875 1757.395751953125 -753.6668090820312
v -2491.855712890625 1729.1368408203125 -883.666748046875
v -2477.72607421875 1743.2916259765625 -883.666748046875
v -2477.72607421875 1743.2916259765625 -753.666748046875
v -2491.85595703125 1729.1368408203125 -753.666748046875
v -2477.72607421875 1743.2916259765625 -883.666748046875
v -2506.03515625 1771.55029296875 -883.6668090820312
v -2506.03515625 1771.55029296875 -753.6668090820312
v -2477.72607421875 1743.2916259765625 -753.666748046875
v -2506.043701171875 1781.5499267578125 -753.6668090820312
v -2530.165283203125 1757.3870849609375 -753.6668090820312
v -2530.165283203125 1757.3870849609375 -743.6668090820312
v -2506.043701171875 1781.5499267578125 -743.6668090820312
v -2530.165283203125 1757.3870849609375 -753.6668090820312
v -2491.846435546875 1719.13671875 -753.666748046875
v -2491.846435546875 1719.13671875 -743.666748046875
v -2530.165283203125 1757.3870849609375 -743.6668090820312
v -2491.846435546875 1719.13671875 -753.666748046875
v -2467.725830078125 1743.2998046875 -753.666748046875
v -2467.725830078125 1743.2998046875 -743.666748046875
v -2491.846435546875 1719.13671875 -743.666748046875
v -2467.725830078125 1743.2998046875 -753.666748046875
v -2506.043701171875 1781.5499267578125 -753.6668090820312
v -2506.043701171875 1781.5499267578125 -743.6668090820312
v -2467.725830078125 1743.2998046875 -743.666748046875
v -2506.03515625 1771.55029296875 -753.6668090820312
v -2520.164794921875 1757.395751953125 -753.6668090820312
v -2530.165283203125 1757.3870849609375 -753.6668090820312
v -2506.043701171875 1781.5499267578125 -753.6668090820312
v -2491.85595703125 1729.1368408203125 -753.666748046875
v -2491.846435546875 1719.13671875 -753.666748046875
v -2477.72607421875 1743.2916259765625 -753.666748046875
v -2467.725830078125 1743.2998046875 -753.666748046875
v -2506.043701171875 1781.5499267578125 -743.6668090820312
v -2530.165283203125 1757.3870849609375 -743.6668090820312
v -2506.483154296875 1757.867919921875 -731.4984130859375
v -2530.165283203125 1757.3870849609375 -743.6668090820312
v -2491.846435546875 1719.13671875 -743.666748046875
v -2491.407470703125 1742.8192138671875 -731.4983520507812
v -2506.483154296875 1757.867919921875 -731.4984130859375
v -2491.846435546875 1719.13671875 -743.666748046875
v -2467.725830078125 1743.2998046875 -743.666748046875
v -2491.407470703125 1742.8192138671875 -731.4983520507812
v -2467.725830078125 1743.2998046875 -743.666748046875
v -2506.043701171875 1781.5499267578125 -743.6668090820312
v -2506.483154296875 1757.867919921875 -731.4984130859375
v -2491.407470703125 1742.8192138671875 -731.4983520507812
v -978.3887329101562 246.6195831298828 -883.66650390625
v -992.5181884765625 232.46507263183594 -883.66650390625
v -992.5181884765625 232.465087890625 -753.6664428710938
v -978.3887329101562 246.61959838867188 -753.6664428710938
v -992.5181884765625 232.46507263183594 -883.66650390625
v -964.2092895507812 204.20603942871094 -883.66650390625
v -964.2092895507812 204.2060546875 -753.6664428710938
v -992.5181884765625 232.465087890625 -753.6664428710938
v -964.2092895507812 204.20603942871094 -883.66650390625
v -950.0797729492188 218.36053466796875 -883.66650390625
v -950.0797729492188 218.3605499267578 -753.6664428710938
v -964.2092895507812 204.2060546875 -753.6664428710938
v -950.0797729492188 218.36053466796875 -883.66650390625
v -978.3887329101562 246.6195831298828 -883.66650390625
v -978.3887329101562 246.61959838867188 -753.6664428710938
v -950.0797729492188 218.3605499267578 -753.6664428710938
v -978.3973999023438 256.61895751953125 -753.6664428710938
v -1002.5186157226562 232.45652770996094 -753.6664428710938
v -1002.5186157226562 232.45652770996094 -743.6664428710938
v -978.3973999023438 256.61895751953125 -743.6664428710938
v -1002.5186157226562 232.45652770996094 -753.6664428710938
v -964.199951171875 194.20558166503906 -753.6664428710938
v -964.199951171875 194.20558166503906 -743.6664428710938
v -1002.5186157226562 232.45652770996094 -743.6664428710938
v -964.199951171875 194.20558166503906 -753.6664428710938
v -940.079345703125 218.36911010742188 -753.6664428710938
v -940.079345703125 218.36911010742188 -743.6664428710938
v -964.199951171875 194.20558166503906 -743.6664428710938
v -940.079345703125 218.36911010742188 -753.6664428710938
v -978.3973999023438 256.61895751953125 -753.6664428710938
v -978.3973999023438 256.61895751953125 -743.6664428710938
v -940.079345703125 218.36911010742188 -743.6664428710938
v -978.3887329101562 246.61959838867188 -753.6664428710938
v -992.5181884765625 232.465087890625 -753.6664428710938
v -1002.5186157226562 232.45652770996094 -753.6664428710938
v -978.3973999023438 256.61895751953125 -753.6664428710938
v -964.2092895507812 204.2060546875 -753.6664428710938
v -964.199951171875 194.20558166503906 -753.6664428710938
v -950.0797729492188 218.3605499267578 -753.6664428710938
v -940.079345703125 218.36911010742188 -753.6664428710938
v -978.3973999023438 256.61895751953125 -743.6664428710938
v -1002.5186157226562 232.45652770996094 -743.6664428710938
v -978.836669921875 232.93710327148438 -731.498046875
v -1002.5186157226562 232.45652770996094 -743.6664428710938
v -964.199951171875 194.20558166503906 -743.6664428710938
v -963.7611694335938 217.88839721679688 -731.498046875
v -978.836669921875 232.93710327148438 -731.498046875
v -964.199951171875 194.20558166503906 -743.6664428710938
v -940.079345703125 218.36911010742188 -743.6664428710938
v -963.7611694335938 217.88839721679688 -731.498046875
v -940.079345703125 218.36911010742188 -743.6664428710938
v -978.3973999023438 256.61895751953125 -743.6664428710938
v -978.836669921875 232.93710327148438 -731.498046875
v -963.7611694335938 217.88839721679688 -731.498046875
v -4043.885986328125 3306.67919921875 -883.6669921875
v -4058.01611328125 3292.5244140625 -883.6669921875
v -4058.01611328125 3292.5244140625 -753.6670532226562
v -4043.885986328125 3306.67919921875 -753.6670532226562
v -4058.01611328125 3292.5244140625 -883.6669921875
v -4029.707275390625 3264.26513671875 -883.6669921875
v -4029.707275390625 3264.26513671875 -753.6670532226562
v -4058.01611328125 3292.5244140625 -753.6670532226562
v -4029.707275390625 3264.26513671875 -883.6669921875
v -4015.5771484375 3278.419921875 -883.6669921875
v -4015.5771484375 3278.419921875 -753.6670532226562
v -4029.707275390625 3264.26513671875 -753.6670532226562
v -4015.5771484375 3278.419921875 -883.6669921875
v -4043.885986328125 3306.67919921875 -883.6669921875
v -4043.885986328125 3306.67919921875 -753.6670532226562
v -4015.5771484375 3278.419921875 -753.6670532226562
v -4043.8955078125 3316.67919921875 -753.6670532226562
v -4068.0166015625 3292.515625 -753.6670532226562
v -4068.0166015625 3292.515625 -743.6670532226562
v -4043.8955078125 3316.67919921875 -743.6670532226562
v -4068.0166015625 3292.515625 -753.6670532226562
v -4029.69775390625 3254.265380859375 -753.6670532226562
v -4029.69775390625 3254.265380859375 -743.6670532226562
v -4068.0166015625 3292.515625 -743.6670532226562
v -4029.69775390625 3254.265380859375 -753.6670532226562
v -4005.576904296875 3278.427978515625 -753.6670532226562
v -4005.576904296875 3278.427978515625 -743.6670532226562
v -4029.69775390625 3254.265380859375 -743.6670532226562
v -4005.576904296875 3278.427978515625 -753.6670532226562
v -4043.8955078125 3316.67919921875 -753.6670532226562
v -4043.8955078125 3316.67919921875 -743.6670532226562
v -4005.576904296875 3278.427978515625 -743.6670532226562
v -4043.885986328125 3306.67919921875 -753.6670532226562
v -4058.01611328125 3292.5244140625 -753.6670532226562
v -4068.0166015625 3292.515625 -753.6670532226562
v -4043.8955078125 3316.67919921875 -753.6670532226562
v -4029.707275390625 3264.26513671875 -753.6670532226562
v -4029.69775390625 3254.265380859375 -753.6670532226562
v -4015.5771484375 3278.419921875 -753.6670532226562
v -4005.576904296875 3278.427978515625 -753.6670532226562
v -4043.8955078125 3316.67919921875 -743.6670532226562
v -4068.0166015625 3292.515625 -743.6670532226562
v -4044.334716796875 3292.996337890625 -731.4986572265625
v -4068.0166015625 3292.515625 -743.6670532226562
v -4029.69775390625 3254.265380859375 -743.6670532226562
v -4029.259033203125 3277.94775390625 -731.4986572265625
v -4044.334716796875 3292.996337890625 -731.4986572265625
v -4029.69775390625 3254.265380859375 -743.6670532226562
v -4005.576904296875 3278.427978515625 -743.6670532226562
v -4029.259033203125 3277.94775390625 -731.4986572265625
v -4005.576904296875 3278.427978515625 -743.6670532226562
v -4043.8955078125 3316.67919921875 -743.6670532226562
v -4044.334716796875 3292.996337890625 -731.4986572265625
v -4029.259033203125 3277.94775390625 -731.4986572265625
v -1055.2188720703125 1697.293212890625 -883.6666259765625
v -1069.3485107421875 1683.1385498046875 -883.6666259765625
v -1069.3485107421875 1683.1385498046875 -753.6665649414062
v -1055.2188720703125 1697.293212890625 -753.6665649414062
v -1069.3485107421875 1683.1385498046875 -883.6666259765625
v -1041.0404052734375 1654.8802490234375 -883.6666259765625
v -1041.0404052734375 1654.8802490234375 -753.6665649414062
v -1069.3485107421875 1683.1385498046875 -753.6665649414062
v -1041.0404052734375 1654.8802490234375 -883.6666259765625
v -1026.9107666015625 1669.0347900390625 -883.6666259765625
v -1026.9107666015625 1669.0347900390625 -753.6665649414062
v -1041.0404052734375 1654.8802490234375 -753.6665649414062
v -1026.9107666015625 1669.0347900390625 -883.6666259765625
v -1055.2188720703125 1697.293212890625 -883.6666259765625
v -1055.2188720703125 1697.293212890625 -753.6665649414062
v -1026.9107666015625 1669.0347900390625 -753.6665649414062
v -1055.228271484375 1707.2935791015625 -753.6665649414062
v -1079.3494873046875 1683.130859375 -753.6665649414062
v -1079.3494873046875 1683.130859375 -743.6665649414062
v -1055.228271484375 1707.2935791015625 -743.6665649414062
v -1079.3494873046875 1683.130859375 -753.6665649414062
v -1041.03076171875 1644.880126953125 -753.6665649414062
v -1041.03076171875 1644.880126953125 -743.6665649414062
v -1079.3494873046875 1683.130859375 -743.6665649414062
v -1041.03076171875 1644.880126953125 -753.6665649414062
v -1016.9100952148438 1669.04345703125 -753.6665649414062
v -1016.9100952148438 1669.04345703125 -743.6665649414062
v -1041.03076171875 1644.880126953125 -743.6665649414062
v -1016.9100952148438 1669.04345703125 -753.6665649414062
v -1055.228271484375 1707.2935791015625 -753.6665649414062
v -1055.228271484375 1707.2935791015625 -743.6665649414062
v -1016.9100952148438 1669.04345703125 -743.6665649414062
v -1055.2188720703125 1697.293212890625 -753.6665649414062
v -1069.3485107421875 1683.1385498046875 -753.6665649414062
v -1079.3494873046875 1683.130859375 -753.6665649414062
v -1055.228271484375 1707.2935791015625 -753.6665649414062
v -1041.0404052734375 1654.8802490234375 -753.6665649414062
v -1041.03076171875 1644.880126953125 -753.6665649414062
v -1026.9107666015625 1669.0347900390625 -753.6665649414062
v -1016.9100952148438 1669.04345703125 -753.6665649414062
v -1055.228271484375 1707.2935791015625 -743.6665649414062
v -1079.3494873046875 1683.130859375 -743.6665649414062
v -1055.667724609375 1683.611572265625 -731.4982299804688
v -1079.3494873046875 1683.130859375 -743.6665649414062
v -1041.03076171875 1644.880126953125 -743.6665649414062
v -1040.59130859375 1668.5621337890625 -731.4981689453125
v -1055.667724609375 1683.611572265625 -731.4982299804688
v -1041.03076171875 1644.880126953125 -743.6665649414062
v -1016.9100952148438 1669.04345703125 -743.6665649414062
v -1040.59130859375 1668.5621337890625 -731.4981689453125
v -1016.9100952148438 1669.04345703125 -743.6665649414062
v -1055.228271484375 1707.2935791015625 -743.6665649414062
v -1055.667724609375 1683.611572265625 -731.4982299804688
v -1040.59130859375 1668.5621337890625 -731.4981689453125
v -2582.865478515625 3222.22412109375 -883.6669311523438
v -2596.9951171875 3208.069580078125 -883.6669311523438
v -2596.9951171875 3208.069580078125 -753.6669311523438
v -2582.865478515625 3222.22412109375 -753.6669311523438
v -2596.9951171875 3208.069580078125 -883.6669311523438
v -2568.68701171875 3179.81103515625 -883.6669311523438
v -2568.68701171875 3179.81103515625 -753.6669311523438
v -2596.9951171875 3208.069580078125 -753.6669311523438
v -2568.68701171875 3179.81103515625 -883.6669311523438
v -2554.557373046875 3193.965576171875 -883.6669311523438
v -2554.557373046875 3193.965576171875 -753.6669311523438
v -2568.68701171875 3179.81103515625 -753.6669311523438
v -2554.557373046875 3193.965576171875 -883.6669311523438
v -2582.865478515625 3222.22412109375 -883.6669311523438
v -2582.865478515625 3222.22412109375 -753.6669311523438
v -2554.557373046875 3193.965576171875 -753.6669311523438
v -2582.875 3232.224365234375 -753.6669311523438
v -2606.99560546875 3208.060791015625 -753.6669311523438
v -2606.99560546875 3208.060791015625 -743.6669311523438
v -2582.875 3232.224365234375 -743.6669311523438
v -2606.99560546875 3208.060791015625 -753.6669311523438
v -2568.677734375 3169.81103515625 -753.6669311523438
v -2568.677734375 3169.81103515625 -743.6669311523438
v -2606.99560546875 3208.060791015625 -743.6669311523438
v -2568.677734375 3169.81103515625 -753.6669311523438
v -2544.55712890625 3193.97412109375 -753.6669311523438
v -2544.55712890625 3193.97412109375 -743.6669311523438
v -2568.677734375 3169.81103515625 -743.6669311523438
v -2544.55712890625 3193.97412109375 -753.6669311523438
v -2582.875 3232.224365234375 -753.6669311523438
v -2582.875 3232.224365234375 -743.6669311523438
v -2544.55712890625 3193.97412109375 -743.6669311523438
v -2582.865478515625 3222.22412109375 -753.6669311523438
v -2596.9951171875 3208.069580078125 -753.6669311523438
v -2606.99560546875 3208.060791015625 -753.6669311523438
v -2582.875 3232.224365234375 -753.6669311523438
v -2568.68701171875 3179.81103515625 -753.6669311523438
v -2568.677734375 3169.81103515625 -753.6669311523438
v -2554.557373046875 3193.965576171875 -753.6669311523438
v -2544.55712890625 3193.97412109375 -753.6669311523438
v -2582.875 3232.224365234375 -743.6669311523438
v -2606.99560546875 3208.060791015625 -743.6669311523438
v -2583.314453125 3208.542236328125 -731.49853515625
v -2606.99560546875 3208.060791015625 -743.6669311523438
v -2568.677734375 3169.81103515625 -743.6669311523438
v -2568.23828125 3193.492919921875 -731.49853515625
v -2583.314453125 3208.542236328125 -731.49853515625
v -2568.677734375 3169.81103515625 -743.6669311523438
v -2544.55712890625 3193.97412109375 -743.6669311523438
v -2568.23828125 3193.492919921875 -731.49853515625
v -2544.55712890625 3193.97412109375 -743.6669311523438
v -2582.875 3232.224365234375 -743.6669311523438
v -2583.314453125 3208.542236328125 -731.49853515625
v -2568.23828125 3193.492919921875 -731.49853515625
v -291.3963928222656 934.8284301757812 -883.66650390625
v -305.5260314941406 920.6737670898438 -883.66650390625
v -305.52606201171875 920.6737670898438 -753.6664428710938
v -291.39642333984375 934.8284301757812 -753.6664428710938
v -305.5260314941406 920.6737670898438 -883.66650390625
v -277.2171630859375 892.4146728515625 -883.66650390625
v -277.2171936035156 892.4146728515625 -753.6664428710938
v -305.52606201171875 920.6737670898438 -753.6664428710938
v -277.2171630859375 892.4146728515625 -883.66650390625
v -263.0873718261719 906.5692138671875 -883.66650390625
v -263.0873718261719 906.5692138671875 -753.6664428710938
v -277.2171936035156 892.4146728515625 -753.6664428710938
v -263.0873718261719 906.5692138671875 -883.66650390625
v -291.3963928222656 934.8284301757812 -883.66650390625
v -291.39642333984375 934.8284301757812 -753.6664428710938
v -263.0873718261719 906.5692138671875 -753.6664428710938
v -291.40594482421875 944.828369140625 -753.6664428710938
v -315.52655029296875 920.6652221679688 -753.6664428710938
v -315.52655029296875 920.6652221679688 -743.6664428710938
v -291.40594482421875 944.828369140625 -743.6664428710938
v -315.52655029296875 920.6652221679688 -753.6664428710938
v -277.2084655761719 882.4150390625 -753.6664428710938
v -277.2084655761719 882.4150390625 -743.6664428710938
v -315.52655029296875 920.6652221679688 -743.6664428710938
v -277.2084655761719 882.4150390625 -753.6664428710938
v -253.0870819091797 906.57763671875 -753.6664428710938
v -253.0870819091797 906.57763671875 -743.6664428710938
v -277.2084655761719 882.4150390625 -743.6664428710938
v -253.0870819091797 906.57763671875 -753.6664428710938
v -291.40594482421875 944.828369140625 -753.6664428710938
v -291.40594482421875 944.828369140625 -743.6664428710938
v -253.0870819091797 906.57763671875 -743.6664428710938
v -291.39642333984375 934.8284301757812 -753.6664428710938
v -305.52606201171875 920.6737670898438 -753.6664428710938
v -315.52655029296875 920.6652221679688 -753.6664428710938
v -291.40594482421875 944.828369140625 -753.6664428710938
v -277.2171936035156 892.4146728515625 -753.6664428710938
v -277.2084655761719 882.4150390625 -753.6664428710938
v -263.0873718261719 906.5692138671875 -753.6664428710938
v -253.0870819091797 906.57763671875 -753.6664428710938
v -291.40594482421875 944.828369140625 -743.6664428710938
v -315.52655029296875 920.6652221679688 -743.6664428710938
v -291.8446044921875 921.145751953125 -731.498046875
v -315.52655029296875 920.6652221679688 -743.6664428710938
v -277.2084655761719 882.4150390625 -743.6664428710938
v -276.76904296875 906.0970458984375 -731.498046875
v -291.8446044921875 921.145751953125 -731.498046875
v -277.2084655761719 882.4150390625 -743.6664428710938
v -253.0870819091797 906.57763671875 -743.6664428710938
v -276.76904296875 906.0970458984375 -731.498046875
v -253.0870819091797 906.57763671875 -743.6664428710938
v -291.40594482421875 944.828369140625 -743.6664428710938
v -291.8446044921875 921.145751953125 -731.498046875
v -276.76904296875 906.0970458984375 -731.498046875
f 430 429 431
f 86 85 87
f 88 87 85
f 82 81 83
f 84 83 81
f 78 77 79
f 80 79 77
f 74 73 75
f 76 75 73
f 2 1 3
f 4 3 1
f 710 709 711
f 712 711 709
f 703 702 704
f 705 704 702
f 688 687 689
f 690 689 687
f 684 683 685
f 686 685 683
f 680 679 681
f 682 681 679
f 676 675 677
f 678 677 675
f 656 655 657
f 658 657 655
f 649 648 650
f 651 650 648
f 634 633 635
f 636 635 633
f 630 629 631
f 632 631 629
f 626 625 627
f 628 627 625
f 622 621 623
f 624 623 621
f 602 601 603
f 604 603 601
f 595 594 596
f 597 596 594
f 576 575 577
f 578 577 575
f 572 571 573
f 574 573 571
f 568 567 569
f 570 569 567
f 548 547 549
f 550 549 547
f 541 540 542
f 543 542 540
f 522 521 523
f 524 523 521
f 518 517 519
f 520 519 517
f 514 513 515
f 516 515 513
f 494 493 495
f 496 495 493
f 487 486 488
f 489 488 486
f 464 463 465
f 466 465 463
f 460 459 461
f 462 461 459
f 440 439 441
f 442 441 439
f 433 432 434
f 435 434 432
f 582 581 579
f 580 579 581
f 526 525 527
f 528 527 525
f 472 471 473
f 474 473 471
f 470 469 467
f 468 467 469
f 418 417 419
f 420 419 417
f 414 413 415
f 416 415 413
f 410 409 411
f 412 411 409
f 406 405 407
f 408 407 405
f 386 385 387
f 388 387 385
f 382 381 383
f 384 383 381
f 378 377 379
f 380 379 377
f 374 373 375
f 376 375 373
f 370 369 371
f 372 371 369
f 366 365 367
f 368 367 365
f 362 361 363
f 364 363 361
f 358 357 359
f 360 359 357
f 338 337 339
f 340 339 337
f 334 333 335
f 336 335 333
f 330 329 331
f 332 331 329
f 326 325 327
f 328 327 325
f 302 301 303
f 304 303 301
f 298 297 299
f 300 299 297
f 294 293 295
f 296 295 293
f 290 289 291
f 292 291 289
f 286 285 287
f 288 287 285
f 282 281 283
f 284 283 281
f 278 277 279
f 280 279 277
f 274 273 275
f 276 275 273
f 254 253 255
f 256 255 253
f 250 249 251
f 252 251 249
f 246 245 247
f 248 247 245
f 242 241 243
f 244 243 241
f 218 217 219
f 220 219 217
f 214 213 215
f 216 215 213
f 210 209 211
f 212 211 209
f 206 205 207
f 208 207 205
f 202 201 203
f 204 203 201
f 198 197 199
f 200 199 197
f 194 193 195
f 196 195 193
f 190 189 191
f 192 191 189
f 170 169 171
f 172 171 169
f 166 165 167
f 168 167 165
f 162 161 163
f 164 163 161
f 158 157 159
f 160 159 157
f 134 133 135
f 136 135 133
f 126 125 127
f 128 127 125
f 122 121 123
f 124 123 121
f 118 117 119
f 120 119 117
f 114 113 115
f 116 115 113
f 110 109 111
f 112 111 109
f 108 107 105
f 106 105 107
f 130 129 131
f 132 131 129
f 638 637 639
f 639 642 638
f 641 638 642
f 642 644 641
f 643 641 644
f 644 640 643
f 637 643 640
f 640 639 637
f 707 706 708
f 694 693 691
f 691 697 694
f 698 694 697
f 697 695 698
f 696 698 695
f 695 692 696
f 693 696 692
f 692 691 693
f 700 699 701
f 422 421 423
f 423 426 422
f 425 422 426
f 426 428 425
f 427 425 428
f 428 424 427
f 421 427 424
f 424 423 421
f 653 652 654
f 476 475 477
f 477 480 476
f 479 476 480
f 480 482 479
f 481 479 482
f 482 478 481
f 475 481 478
f 478 477 475
f 646 645 647
f 530 529 531
f 531 534 530
f 533 530 534
f 534 536 533
f 535 533 536
f 536 532 535
f 529 535 532
f 532 531 529
f 599 598 600
f 584 583 585
f 585 588 584
f 587 584 588
f 588 590 587
f 589 587 590
f 590 586 589
f 583 589 586
f 586 585 583
f 592 591 593
f 437 436 438
f 545 544 546
f 484 483 485
f 538 537 539
f 491 490 492
f 6 5 7
f 8 7 5
f 12 11 9
f 10 9 11
f 14 13 15
f 16 15 13
f 18 17 19
f 20 19 17
f 22 21 23
f 24 23 21
f 26 25 27
f 28 27 25
f 30 29 31
f 32 31 29
f 34 33 35
f 36 35 33
f 38 37 39
f 40 39 37
f 42 41 43
f 44 43 41
f 46 45 47
f 48 47 45
f 50 49 51
f 52 51 49
f 390 389 391
f 392 391 389
f 394 393 395
f 396 395 393
f 398 397 399
f 400 399 397
f 402 401 403
f 404 403 401
f 444 443 445
f 446 445 443
f 448 447 449
f 450 449 447
f 452 451 453
f 454 453 451
f 456 455 457
f 458 457 455
f 498 497 499
f 500 499 497
f 502 501 503
f 504 503 501
f 506 505 507
f 508 507 505
f 510 509 511
f 512 511 509
f 552 551 553
f 554 553 551
f 556 555 557
f 558 557 555
f 560 559 561
f 562 561 559
f 564 563 565
f 566 565 563
f 606 605 607
f 608 607 605
f 610 609 611
f 612 611 609
f 614 613 615
f 616 615 613
f 618 617 619
f 620 619 617
f 660 659 661
f 662 661 659
f 664 663 665
f 666 665 663
f 668 667 669
f 670 669 667
f 672 671 673
f 674 673 671
f 54 53 55
f 56 55 53
f 60 59 57
f 58 57 59
f 62 61 63
f 64 63 61
f 66 65 67
f 68 67 65
f 70 69 71
f 72 71 69
f 90 89 91
f 92 91 89
f 94 93 95
f 96 95 93
f 98 97 99
f 100 99 97
f 102 101 103
f 104 103 101
f 138 137 139
f 140 139 137
f 142 141 143
f 144 143 141
f 146 145 147
f 148 147 145
f 150 149 151
f 152 151 149
f 154 153 155
f 156 155 153
f 174 173 175
f 176 175 173
f 178 177 179
f 180 179 177
f 182 181 183
f 184 183 181
f 186 185 187
f 188 187 185
f 222 221 223
f 224 223 221
f 226 225 227
f 228 227 225
f 230 229 231
f 232 231 229
f 234 233 235
f 236 235 233
f 238 237 239
f 240 239 237
f 258 257 259
f 260 259 257
f 262 261 263
f 264 263 261
f 266 265 267
f 268 267 265
f 270 269 271
f 272 271 269
f 306 305 307
f 308 307 305
f 310 309 311
f 312 311 309
f 314 313 315
f 316 315 313
f 318 317 319
f 320 319 317
f 322 321 323
f 324 323 321
f 342 341 343
f 344 343 341
f 346 345 347
f 348 347 345
f 350 349 351
f 352 351 349
f 354 353 355
f 356 355 353
