v -299.9998779296875 -300.0002746582031 0.0
v 300.0001220703125 -300.000244140625 2.6226833142573014e-05
v -300.0001525878906 -299.999755859375 6090.0
v 299.99981689453125 -299.9997253417969 6090.0
v 300.0001220703125 -300.000244140625 2.6226833142573014e-05
v 300.0001220703125 299.9997253417969 7.37731606932357e-05
v 299.99981689453125 -299.9997253417969 6090.0
v 299.99981689453125 300.0002746582031 6090.0
v 300.0001220703125 299.9997253417969 7.37731606932357e-05
v 200.00009155273438 299.9997253417969 -0.00013059796765446663
v 299.99981689453125 300.0002746582031 6090.0
v 199.99984741210938 300.0002746582031 6090.0
v 200.00009155273438 299.9997253417969 -0.00013059796765446663
v 200.0001220703125 -200.000244140625 1.3113392924424261e-05
v 199.99984741210938 300.0002746582031 6089.99951171875
v 199.9998779296875 -199.99972534179688 6089.99951171875
v 200.0001220703125 -200.000244140625 1.3113414752297103e-05
v -299.9998779296875 -200.00027465820312 -0.00010874224972212687
v 199.9998779296875 -199.99972534179688 6089.99951171875
v -300.0001525878906 -199.99974060058594 6089.99951171875
v -299.9998779296875 -200.00027465820312 -0.00010874227154999971
v -299.9998779296875 -300.0002746582031 0.0
v -300.0001525878906 -199.99974060058594 6090.0
v -300.0001525878906 -299.999755859375 6090.0
v -300.0001525878906 -299.999755859375 6090.0
v 299.99981689453125 -299.9997253417969 6090.0
v -300.0001525878906 -199.99974060058594 6090.0
v 299.99981689453125 300.0002746582031 6090.0
v 199.99984741210938 300.0002746582031 6090.0
v 199.9998779296875 -199.99972534179688 6090.0
f 2 1 3
f 4 2 3
f 22 21 23
f 24 22 23
f 18 17 19
f 20 18 19
f 14 13 15
f 16 14 15
f 10 9 11
f 12 10 11
f 6 5 7
f 8 6 7
f 26 25 27
f 27 30 26
f 30 28 26
f 29 28 30
