v -199.99984741210938 24.999685287475586 0.0
v -199.99984741210938 -25.000314712524414 4.371138857095502e-06
v -200.00015258789062 25.00029754638672 7000.0
v -200.00015258789062 -24.999704360961914 7000.0
v -199.99984741210938 -25.000314712524414 4.371138857095502e-06
v 200.00015258789062 -25.000295639038086 2.185569428547751e-05
v -200.00015258789062 -24.999704360961914 7000.0
v 199.99984741210938 -24.999685287475586 7000.0
v 200.00015258789062 -25.000295639038086 2.185569428547751e-05
v 200.00015258789062 24.99970245361328 1.748455542838201e-05
v 199.99984741210938 -24.999685287475586 7000.0
v 199.99984741210938 25.000314712524414 7000.0
v 200.00015258789062 24.99970245361328 1.748455542838201e-05
v -199.99984741210938 24.999685287475586 0.0
v 199.99984741210938 25.000314712524414 7000.0
v -200.00015258789062 25.00029754638672 7000.0
v -200.00015258789062 25.00029754638672 7000.0
v -200.00015258789062 -24.999704360961914 7000.0
v 199.99984741210938 25.000314712524414 7000.0
v 199.99984741210938 -24.999685287475586 7000.0
f 2 1 3
f 4 2 3
f 18 17 19
f 20 18 19
f 14 13 15
f 16 14 15
f 10 9 11
f 12 10 11
f 6 5 7
f 8 6 7
